<svg width="48" height="48" viewBox="0 0 48 48" fill="none" xmlns="http://www.w3.org/2000/svg">
<path fill-rule="evenodd" clip-rule="evenodd" d="M0 24C0 37.2548 10.7452 48 24 48C37.2548 48 48 37.2548 48 24C48 10.7452 37.2548 0 24 0C10.7452 0 0 10.7452 0 24ZM42 24C42 33.9411 33.9411 42 24 42C14.0589 42 6 33.9411 6 24C6 14.0589 14.0589 6 24 6C33.9411 6 42 14.0589 42 24ZM19.7574 24L13.3887 30.3687L17.6313 34.6113L24 28.2426L30.3687 34.6113L34.6113 30.3687L28.2426 24L34.6113 17.6313L30.3687 13.3887L24 19.7574L17.6313 13.3887L13.3887 17.6313L19.7574 24Z" fill="#2CB4B2"/>
</svg>
