<svg width="16" height="16" viewBox="0 0 16 16" fill="none" xmlns="http://www.w3.org/2000/svg">
<path fill-rule="evenodd" clip-rule="evenodd" d="M0.105918 11.948C0.274918 12.287 0.620918 12.5 0.999918 12.5H4.66692V12.667C4.66692 14.474 6.19292 16 7.99992 16C9.80692 16 11.3339 14.474 11.3339 12.667V12.5H14.9999C15.3789 12.5 15.7249 12.287 15.8949 11.948C16.0639 11.609 16.0279 11.204 15.7999 10.901L12.4909 6.488C12.3979 4.686 11.5649 1.87 8.99992 1.283V1C8.99992 0.448 8.55192 0 7.99992 0C7.44792 0 6.99992 0.448 6.99992 1V1.283C4.43592 1.87 3.60292 4.686 3.50892 6.488L0.199918 10.901C-0.027082 11.204 -0.064082 11.609 0.105918 11.948ZM5.29992 7.433C5.42992 7.26 5.49992 7.05 5.49992 6.833C5.49992 6.684 5.52892 3.167 7.99992 3.167C10.4519 3.167 10.4989 6.686 10.4999 6.833C10.4999 7.05 10.5709 7.26 10.6999 7.433L12.9999 10.5H2.99992L5.29992 7.433ZM7.99992 14C8.71092 14 9.33392 13.377 9.33392 12.667V12.5H6.66692V12.667C6.66692 13.377 7.28992 14 7.99992 14Z" fill="#2CB4B2"/>
</svg>
