<svg width="48" height="48" viewBox="0 0 48 48" fill="none" xmlns="http://www.w3.org/2000/svg">
<path fill-rule="evenodd" clip-rule="evenodd" d="M22.1092 3.12074C29.586 2.17071 36.6068 6.91626 38.5125 14.2083L32.7075 15.7254C31.564 11.3502 27.3516 8.50286 22.8655 9.07289C18.3794 9.64291 15.0129 13.4533 15 17.9668V20.9668H42C43.6569 20.9668 45 22.31 45 23.9668V44.9668C45 46.6237 43.6569 47.9668 42 47.9668H6C4.34315 47.9668 3 46.6237 3 44.9668V23.9668C3 22.31 4.34315 20.9668 6 20.9668H9.00001L9.00001 17.9583C9.02153 10.4214 14.6324 4.07078 22.1092 3.12074ZM9 26.9668V41.9668H39V26.9668H9Z" fill="#2CB4B2"/>
</svg>
