<svg width="48" height="48" viewBox="0 0 48 48" fill="none" xmlns="http://www.w3.org/2000/svg">
<path d="M32.6676 4C39.4462 4 44 8.75623 44 15.8334V32.1666C44 39.2438 39.4462 44 32.6656 44H15.3324C8.55379 44 4 39.2438 4 32.1666V15.8334C4 8.75623 8.55379 4 15.3324 4H32.6676ZM34.8732 25.1001C32.7293 23.7626 31.0741 25.6409 30.6276 26.2415C30.1973 26.8215 29.8272 27.4613 29.437 28.1011C28.4837 29.6801 27.3917 31.5005 25.5012 32.5593C22.754 34.0805 20.6684 32.6791 19.1681 31.6594C18.605 31.2797 18.0579 30.9205 17.5129 30.6811C16.1695 30.1011 14.9608 30.7616 13.1668 33.0402C12.2256 34.2312 11.2924 35.4118 10.3472 36.5882C9.78203 37.2921 9.91678 38.3777 10.679 38.8483C11.8958 39.5975 13.38 40 15.0573 40H31.9128C32.864 40 33.8173 39.87 34.7264 39.5728C36.7737 38.904 38.3987 37.3725 39.2474 35.3498C39.9634 33.6491 40.3113 31.5851 39.6416 29.8679C39.4184 29.2982 39.0845 28.7678 38.6159 28.3013C37.3871 27.0815 36.2388 25.9422 34.8732 25.1001ZM16.9977 12C14.2404 12 12 14.2435 12 17C12 19.7565 14.2404 22 16.9977 22C19.753 22 21.9954 19.7565 21.9954 17C21.9954 14.2435 19.753 12 16.9977 12Z" fill="#2CB4B2"/>
</svg>
