<svg width="32" height="32" viewBox="0 0 32 32" fill="none" xmlns="http://www.w3.org/2000/svg">
<path fill-rule="evenodd" clip-rule="evenodd" d="M30.2078 14.1954H26.2078C26.2078 9.78341 22.6198 6.19541 18.2078 6.19541V2.19541C24.8258 2.19541 30.2078 7.57741 30.2078 14.1954ZM9.368 5.92781L7.422 8.00981C6.506 8.92581 6 10.1498 6 11.4598C6 12.7678 6.506 13.9938 7.422 14.9098L17.492 24.9798C19.326 26.8118 22.562 26.8118 24.394 24.9798L26.408 22.9698L23.644 20.2058L23.32 20.4638C21.428 22.3538 18.354 22.3538 16.464 20.4638L11.94 15.9398C10.05 14.0498 10.05 10.9738 11.94 9.08381L12.232 8.79381L9.368 5.92781ZM20.944 30.4018C18.568 30.4018 16.336 29.4798 14.664 27.8078L4.594 17.7378C2.922 16.0658 2 13.8358 2 11.4598C2 9.08181 2.922 6.85181 4.594 5.18181L6.606 3.16781C8.14 1.63781 10.7 1.60781 12.194 3.09781L15.252 6.15781C15.99 6.89381 16.348 7.96381 16.238 9.08581C16.144 10.0438 15.714 10.9678 15.06 11.6218L14.768 11.9118C14.444 12.2358 14.444 12.7878 14.768 13.1118L19.292 17.6358C19.616 17.9598 20.166 17.9598 20.492 17.6358L20.782 17.3438C21.436 16.6898 22.36 16.2598 23.318 16.1658C24.434 16.0518 25.508 16.4138 26.244 17.1498L29.304 20.2078C30.798 21.7058 30.766 24.2618 29.238 25.7958L27.222 27.8078C25.552 29.4798 23.322 30.4018 20.944 30.4018Z" fill="#000716"/>
</svg>
