<svg width="32" height="33" viewBox="0 0 32 33" fill="none" xmlns="http://www.w3.org/2000/svg">
<path fill-rule="evenodd" clip-rule="evenodd" d="M20.0084 22C20.0084 22.0181 20.004 22.065 19.9995 22.1097L19.9996 22.1005C19.9999 22.067 20 22.0335 20 22L19.99 22.2L19.993 22.171L19.9995 22.1097C19.956 26.3407 17.2517 30.092 13.2413 31.4661C9.19577 32.8522 4.71661 31.5124 2.09661 28.1326C-0.523388 24.7528 -0.704294 20.0811 1.64649 16.5088C3.79401 13.2454 7.6201 11.5594 11.4224 12.1073L24.6824 0.495379C25.0471 0.176038 25.5153 0 26 0H30C31.1046 0 32 0.89543 32 2V12C32 13.1046 31.1046 14 30 14H28V16C28 17.1046 27.1046 18 26 18H24V20C24 21.1046 23.1046 22 22 22H20.0084ZM26.7519 4L13.3176 15.7646C12.8203 16.2001 12.14 16.3617 11.5 16.1965C9.01566 15.555 6.39837 16.5643 4.9879 18.7077C3.57742 20.851 3.68597 23.6541 5.25797 25.682C6.82996 27.7098 9.51746 28.5137 11.9448 27.682C14.3721 26.8504 16.0019 24.5673 16 22.0015L16.01 21.8C16.0635 21.268 16.0635 20.732 16.01 20.2C15.8917 19.0223 16.8164 18 18 18H20V16C20 14.8954 20.8954 14 22 14H24V12C24 10.8954 24.8954 10 26 10H28V4H26.7519ZM12 20H8V24H12V20Z" fill="#000716"/>
</svg>
