<svg width="20" height="20" viewBox="0 0 20 20" fill="none" xmlns="http://www.w3.org/2000/svg">
<path fill-rule="evenodd" clip-rule="evenodd" d="M15 8.75C17.0711 8.75 18.75 7.07107 18.75 5C18.75 2.92893 17.0711 1.25 15 1.25C12.9289 1.25 11.25 2.92893 11.25 5C11.25 5.18905 11.264 5.37483 11.291 5.55636L8.77583 7.2282C8.10938 6.62054 7.22296 6.25 6.25 6.25C4.17893 6.25 2.5 7.92893 2.5 10C2.5 12.0711 4.17893 13.75 6.25 13.75C7.22296 13.75 8.10938 13.3795 8.77583 12.7718L11.291 14.4436C11.264 14.6252 11.25 14.811 11.25 15C11.25 17.0711 12.9289 18.75 15 18.75C17.0711 18.75 18.75 17.0711 18.75 15C18.75 12.9289 17.0711 11.25 15 11.25C14.027 11.25 13.1406 11.6205 12.4742 12.2282L9.95901 10.5564C9.98601 10.3748 10 10.189 10 10C10 9.81095 9.98601 9.62517 9.95901 9.44364L12.4742 7.7718C13.1406 8.37946 14.027 8.75 15 8.75ZM13.75 5C13.75 5.69036 14.3096 6.25 15 6.25C15.6904 6.25 16.25 5.69036 16.25 5C16.25 4.30964 15.6904 3.75 15 3.75C14.3096 3.75 13.75 4.30964 13.75 5ZM5 10C5 10.6904 5.55964 11.25 6.25 11.25C6.94036 11.25 7.5 10.6904 7.5 10C7.5 9.30964 6.94036 8.75 6.25 8.75C5.55964 8.75 5 9.30964 5 10ZM13.75 15C13.75 15.6904 14.3096 16.25 15 16.25C15.6904 16.25 16.25 15.6904 16.25 15C16.25 14.3096 15.6904 13.75 15 13.75C14.3096 13.75 13.75 14.3096 13.75 15Z" fill="#000716"/>
</svg>
