<svg width="20" height="20" viewBox="0 0 20 20" fill="none" xmlns="http://www.w3.org/2000/svg">
<path fill-rule="evenodd" clip-rule="evenodd" d="M9.23125 3.75C6.20875 3.75 3.75 6.20875 3.75 9.23125C3.75 12.2537 6.20875 14.7125 9.23125 14.7125C12.2537 14.7125 14.7125 12.2537 14.7125 9.23125C14.7125 6.20875 12.2537 3.75 9.23125 3.75ZM5.62525 10.625H13.1252V8.125H5.62525V10.625ZM1.25 9.23125C1.25 13.6313 4.83 17.2125 9.23125 17.2125C10.9818 17.2125 12.6024 16.646 13.9195 15.6867L17.8665 19.6337L19.634 17.8662L15.6869 13.9192C16.6461 12.602 17.2125 10.9814 17.2125 9.23125C17.2125 4.83 13.6325 1.25 9.23125 1.25C4.83 1.25 1.25 4.83 1.25 9.23125Z" fill="#D1D5DB"/>
</svg>
