<svg width="20" height="20" viewBox="0 0 20 20" fill="none" xmlns="http://www.w3.org/2000/svg">
<path fill-rule="evenodd" clip-rule="evenodd" d="M6.25 7.5C6.25 5.42893 7.92893 3.75 10 3.75C12.0711 3.75 13.75 5.42893 13.75 7.5H6.25ZM17.5 7.5H16.25C16.25 4.04822 13.4518 1.25 10 1.25C6.54822 1.25 3.75 4.04822 3.75 7.5H2.5C1.80964 7.5 1.25 8.05964 1.25 8.75V17.5C1.25 18.1904 1.80964 18.75 2.5 18.75H17.5C18.1904 18.75 18.75 18.1904 18.75 17.5V8.75C18.75 8.05964 18.1904 7.5 17.5 7.5ZM3.75 16.25V10H16.25V16.25H3.75Z" fill="#007D84"/>
</svg>
