<svg width="48" height="49" viewBox="0 0 48 49" fill="none" xmlns="http://www.w3.org/2000/svg">
<path fill-rule="evenodd" clip-rule="evenodd" d="M30.0126 33C30.0126 33.0271 30.0061 33.0975 29.9992 33.1645L29.9994 33.1507C29.9998 33.1005 30.0001 33.0503 30 33L30 32.9978L29.9999 33L29.985 33.3L29.9896 33.2565C29.9923 33.2305 29.9958 33.1979 29.9992 33.1645C29.934 39.511 25.8776 45.1381 19.8619 47.1992C13.7937 49.2783 7.07491 47.2687 3.14491 42.199C-0.785081 37.1293 -1.05644 30.1217 2.46974 24.7632C5.69102 19.8681 11.4302 17.3392 17.1336 18.161L37.0236 0.743069C37.5706 0.264057 38.2729 0 39 0H45C46.6569 0 48 1.34315 48 3V18C48 19.6569 46.6569 21 45 21H42V24C42 25.6569 40.6569 27 39 27H36V30C36 31.6569 34.6569 33 33 33H30.0126ZM40.1279 6L19.9764 23.6469C19.2305 24.3001 18.21 24.5426 17.25 24.2947C13.5235 23.3326 9.59755 24.8465 7.48184 28.0615C5.36614 31.2766 5.52895 35.4811 7.88695 38.5229C10.2449 41.5648 14.2762 42.7705 17.9172 41.5231C21.5581 40.2756 24.0029 36.851 24 33.0022L24.015 32.7C24.0952 31.902 24.0952 31.098 24.015 30.3C23.8375 28.5334 25.2245 27 27 27H30V24C30 22.3431 31.3432 21 33 21H36V18C36 16.3431 37.3432 15 39 15H42V6H40.1279ZM18 30H12V36H18V30Z" fill="#007D84"/>
</svg>
