<svg width="32" height="32" viewBox="0 0 32 32" fill="none" xmlns="http://www.w3.org/2000/svg">
<path fill-rule="evenodd" clip-rule="evenodd" d="M4 26.572H13.458L16.3 29.414C16.676 29.79 17.186 30 17.714 30C18.246 30 18.754 29.79 19.128 29.414L21.97 26.572H28C29.106 26.572 30 25.676 30 24.572V4C30 2.896 29.106 2 28 2H4C2.894 2 2 2.896 2 4V24.572C2 25.676 2.894 26.572 4 26.572ZM6 6H26V22.572H21.142C20.612 22.572 20.104 22.782 19.728 23.158L17.714 25.172L15.7 23.158C15.324 22.782 14.816 22.572 14.286 22.572H6V6ZM8.0004 16.0196L7.9804 12.0196L11.9804 11.9996L12.0004 16.0196H8.0004ZM17.9804 12L13.9804 12.02L14.0004 16.02H18.0004L17.9804 12ZM23.98 11.9996L24 16.0196H20L19.98 12.0196L23.98 11.9996Z" fill="#007D84"/>
</svg>
