<svg width="20" height="20" viewBox="0 0 20 20" fill="none" xmlns="http://www.w3.org/2000/svg">
<path fill-rule="evenodd" clip-rule="evenodd" d="M7.5 3.75H16.25V12.5H15V6.25C15 5.55964 14.4404 5 13.75 5H7.5V3.75ZM17.5 15H15V17.5C15 18.1904 14.4404 18.75 13.75 18.75H2.5C1.80964 18.75 1.25 18.1904 1.25 17.5V6.25C1.25 5.55964 1.80964 5 2.5 5H5V2.5C5 1.80964 5.55964 1.25 6.25 1.25H17.5C18.1904 1.25 18.75 1.80964 18.75 2.5V13.75C18.75 14.4404 18.1904 15 17.5 15ZM3.75 16.25V7.5H12.5V16.25H3.75Z" fill="#007D84"/>
</svg>
