<svg width="24" height="24" viewBox="0 0 24 24" fill="none" xmlns="http://www.w3.org/2000/svg">
<g clip-path="url(#clip0_401_45015)">
<path d="M1.39 4.22L9.63 12.46L8.94 13.18L6.87 11.1C6.76 11.5 6.61 11.88 6.42 12.22L8.17 13.97L7.48 14.69L5.85 13.06C5.61 13.35 5.35 13.62 5.08 13.86L6.71 15.49L6.01 16.21L4.27 14.47C2.83 15.43 1.34 15.82 1 15.92V20H10.5L13.83 16.67L19.77 22.61L21.18 21.2L2.81 2.81L1.39 4.22ZM18.51 15.68L17.1 14.27L21.58 9.79L23 11.2L18.51 15.68ZM20.88 9.08L16.4 13.56L9.3 6.47L13.8 2L20.88 9.08Z" fill="black"/>
</g>
<defs>
<clipPath id="clip0_401_45015">
<rect width="24" height="24" fill="white"/>
</clipPath>
</defs>
</svg>
