<svg width="24" height="24" viewBox="0 0 24 24" fill="none" xmlns="http://www.w3.org/2000/svg">
<g clip-path="url(#clip0_401_45567)">
<path d="M22 16H2V21H22V16Z" fill="black"/>
<path d="M18.66 11.5C16.71 11.5 16.57 12.5 15.33 12.5C14.14 12.5 13.91 11.5 12 11.5C10.05 11.5 9.91001 12.5 8.67001 12.5C7.48001 12.5 7.25001 11.5 5.34001 11.5C3.39001 11.5 3.25001 12.5 2.01001 12.5V14.5C3.91001 14.5 4.18001 13.5 5.36001 13.5C6.55001 13.5 6.78001 14.5 8.69001 14.5C10.64 14.5 10.78 13.5 12.02 13.5C13.21 13.5 13.44 14.5 15.35 14.5C17.3 14.5 17.44 13.5 18.68 13.5C19.87 13.5 20.08 14.48 22 14.5L21.99 12.52C20.38 12.19 20.37 11.5 18.66 11.5Z" fill="black"/>
<path d="M22 9C22.02 5 17.72 3 12 3C6.29 3 2 5 2 9V10H22V9Z" fill="black"/>
</g>
<defs>
<clipPath id="clip0_401_45567">
<rect width="24" height="24" fill="white"/>
</clipPath>
</defs>
</svg>
