<svg width="24" height="24" viewBox="0 0 24 24" fill="none" xmlns="http://www.w3.org/2000/svg">
<g clip-path="url(#clip0_401_45783)">
<path d="M17 5H15V3H17V5ZM19 3V5H21V3H19ZM19 9H21V7H19V9ZM19 13H21V11H19V13ZM11 21H13V19H11V21ZM7 5H9V3H7V5ZM3 5H5V3H3V5ZM3 17H5V15H3V17ZM3 21H5V19H3V21ZM11 5H13V3H11V5ZM3 9H5V7H3V9ZM7 21H9V19H7V21ZM3 13H5V11H3V13ZM15 15V21L17.29 18.71L19.59 21L21 19.59L18.71 17.3L21 15H15Z" fill="black"/>
</g>
<defs>
<clipPath id="clip0_401_45783">
<rect width="24" height="24" fill="white"/>
</clipPath>
</defs>
</svg>
