<svg width="24" height="24" viewBox="0 0 24 24" fill="none" xmlns="http://www.w3.org/2000/svg">
<g clip-path="url(#clip0_401_45867)">
<path d="M16.48 2.52C19.75 4.07 22.09 7.24 22.45 11H23.95C23.44 4.84 18.29 0 12 0L11.34 0.03L15.15 3.84L16.48 2.52ZM7.51999 21.48C4.24999 19.94 1.90999 16.76 1.54999 13H0.0499878C0.559988 19.16 5.70999 24 12 24L12.66 23.97L8.84999 20.16L7.51999 21.48ZM9.16999 0.69L0.689988 9.17L14.83 23.31L23.31 14.83L9.16999 0.69ZM14.83 21.19L2.80999 9.17L9.16999 2.81L21.19 14.83L14.83 21.19Z" fill="black"/>
</g>
<defs>
<clipPath id="clip0_401_45867">
<rect width="24" height="24" fill="white"/>
</clipPath>
</defs>
</svg>
