<svg width="24" height="24" viewBox="0 0 24 24" fill="none" xmlns="http://www.w3.org/2000/svg">
<g clip-path="url(#clip0_401_44689)">
<path d="M16.49 3C14.28 3 12.28 3.9 10.83 5.34L11.89 6.4C13.07 5.22 14.69 4.49 16.48 4.49C18.27 4.49 19.9 5.22 21.07 6.4L22.13 5.34C20.7 3.9 18.7 3 16.49 3Z" fill="black"/>
<path d="M20.03 7.46C19.12 6.56 17.87 6 16.49 6C15.11 6 13.86 6.56 12.95 7.46L14.01 8.52C14.64 7.89 15.52 7.49 16.48 7.49C17.44 7.49 18.32 7.88 18.95 8.52L20.03 7.46Z" fill="black"/>
<path d="M15.08 9.59L16.49 11L17.9 9.59C17.54 9.22 17.04 9 16.49 9C15.94 9 15.44 9.22 15.08 9.59Z" fill="black"/>
<path d="M21 15L16 14L13.1 16.9C10.6 15.47 8.53 13.4 7.1 10.9L10 8L9 3H3C3 6.28 3.89 9.35 5.43 12C7.01 14.73 9.28 16.99 12 18.57C14.65 20.1 17.72 21 21 21V15Z" fill="black"/>
</g>
<defs>
<clipPath id="clip0_401_44689">
<rect width="24" height="24" fill="white"/>
</clipPath>
</defs>
</svg>
