<svg width="24" height="24" viewBox="0 0 24 24" fill="none" xmlns="http://www.w3.org/2000/svg">
<g clip-path="url(#clip0_401_44770)">
<path d="M5 2C5 1.45 4.55 1 4 1C3.45 1 3 1.45 3 2V6H1V12H7V6H5V2ZM9 18.82H11V23H13V18.82H15V14H9V18.82ZM1 18.82H3V23H5V18.82H7V14H1V18.82ZM21 6V2C21 1.45 20.55 1 20 1C19.45 1 19 1.45 19 2V6H17V12H23V6H21ZM13 2C13 1.45 12.55 1 12 1C11.45 1 11 1.45 11 2V6H9V12H15V6H13V2ZM17 18.82H19V23H21V18.82H23V14H17V18.82Z" fill="black"/>
</g>
<defs>
<clipPath id="clip0_401_44770">
<rect width="24" height="24" fill="white"/>
</clipPath>
</defs>
</svg>
