<svg width="24" height="24" viewBox="0 0 24 24" fill="none" xmlns="http://www.w3.org/2000/svg">
<g clip-path="url(#clip0_401_45492)">
<path d="M12.49 13L11.1 10.3L12.49 9L19 15.2V24H4.5V22H10V21H3V19H10V18H2V16H10V15H3.5V13H12.49ZM11.78 7.12C10.94 7.52 10.61 7.74 10.15 8.31L6.76 4.74L8.21 3.36L11.78 7.12ZM9.64 9.21C9.41 9.76 9.35 10.45 9.44 11H8.58L5.62 7.89L7.07 6.51L9.64 9.21ZM21.98 12.34L22 3.35L20.1 3.25L19.1 6.11L13.3 0L11.85 1.38L15.94 5.68L15.21 6.37L9.74 0.64L8.3 2L11.66 5.53L12.72 6.64L15.37 8.97L20.45 13.8L21.98 12.34Z" fill="black"/>
</g>
<defs>
<clipPath id="clip0_401_45492">
<rect width="24" height="24" fill="white"/>
</clipPath>
</defs>
</svg>
