<svg width="24" height="24" viewBox="0 0 24 24" fill="none" xmlns="http://www.w3.org/2000/svg">
<g clip-path="url(#clip0_401_45613)">
<path d="M21.16 6.26L19.75 4.85L16.19 8.4L17.6 9.81C17.6 9.81 21.05 6.29 21.16 6.26ZM11 2H13V7H11V2ZM6.4 9.81L7.81 8.4L4.26 4.84L2.84 6.26C2.95 6.29 6.4 9.81 6.4 9.81ZM0 17.39L3.68 21.07L7.6 17.96V14.59C10.45 13.66 13.54 13.66 16.4 14.59V17.97L20.31 21.07L24 17.39C17.59 10.2 6.41 10.2 0 17.39Z" fill="black"/>
</g>
<defs>
<clipPath id="clip0_401_45613">
<rect width="24" height="24" fill="white"/>
</clipPath>
</defs>
</svg>
