<svg width="24" height="24" viewBox="0 0 24 24" fill="none" xmlns="http://www.w3.org/2000/svg">
<g clip-path="url(#clip0_401_44824)">
<path d="M16.83 5L15 3H9L7.17 5H2V21H22V5H16.83ZM12 9C13.1 9 14 9.9 14 11C14 12.1 13.1 13 12 13C10.9 13 10 12.1 10 11C10 9.9 10.9 9 12 9ZM16 17H8V16.43C8 15.62 8.48 14.9 9.22 14.58C10.07 14.21 11.01 14 12 14C12.99 14 13.93 14.21 14.78 14.58C15.52 14.9 16 15.62 16 16.43V17Z" fill="black"/>
</g>
<defs>
<clipPath id="clip0_401_44824">
<rect width="24" height="24" fill="white"/>
</clipPath>
</defs>
</svg>
