<svg width="24" height="24" viewBox="0 0 24 24" fill="none" xmlns="http://www.w3.org/2000/svg">
<g clip-path="url(#clip0_401_44201)">
<path d="M22 5H16.83L15 3H9L7.17 5H2V21H11V18.91C8.17 18.43 6 15.97 6 13H8C8 15.21 9.79 17 12 17C14.21 17 16 15.21 16 13H18C18 15.97 15.83 18.43 13 18.91V21H22V5ZM14 13C14 14.1 13.1 15 12 15C10.9 15 10 14.1 10 13V9C10 7.9 10.9 7 12 7C13.1 7 14 7.9 14 9V13Z" fill="black"/>
</g>
<defs>
<clipPath id="clip0_401_44201">
<rect width="24" height="24" fill="white"/>
</clipPath>
</defs>
</svg>
