<svg width="24" height="24" viewBox="0 0 24 24" fill="none" xmlns="http://www.w3.org/2000/svg">
<g clip-path="url(#clip0_401_44658)">
<path d="M23 3H1V13H3V5H21V21H23V3Z" fill="black"/>
<path d="M9 14C11.2091 14 13 12.2091 13 10C13 7.79086 11.2091 6 9 6C6.79086 6 5 7.79086 5 10C5 12.2091 6.79086 14 9 14Z" fill="black"/>
<path d="M15.39 16.56C13.71 15.7 11.53 15 9 15C6.47 15 4.29 15.7 2.61 16.56C1.61 17.07 1 18.1 1 19.22V22H17V19.22C17 18.1 16.39 17.07 15.39 16.56Z" fill="black"/>
</g>
<defs>
<clipPath id="clip0_401_44658">
<rect width="24" height="24" fill="white"/>
</clipPath>
</defs>
</svg>
