<svg width="24" height="24" viewBox="0 0 24 24" fill="none" xmlns="http://www.w3.org/2000/svg">
<g clip-path="url(#clip0_401_44349)">
<path d="M21.79 17.06L16.24 11.51L17.81 9.93996L14.06 6.18996L12.49 7.75996L6.94002 2.20996L2.21002 6.93996L7.76002 12.49L3.00002 17.25V21H6.75002L11.51 16.24L17.06 21.79L21.79 17.06ZM9.18002 11.07L5.04002 6.93996L6.94002 5.03996L8.21002 6.30996L7.02002 7.49996L8.43002 8.90996L9.62002 7.71996L11.07 9.16996L9.18002 11.07ZM12.93 14.82L14.83 12.92L16.28 14.37L15.09 15.56L16.5 16.97L17.69 15.78L18.96 17.05L17.06 18.95L12.93 14.82Z" fill="black"/>
<path d="M17.6714 2.58431L15.1329 5.1228L18.8805 8.87043L21.419 6.33194L17.6714 2.58431Z" fill="black"/>
</g>
<defs>
<clipPath id="clip0_401_44349">
<rect width="24" height="24" fill="white"/>
</clipPath>
</defs>
</svg>
