<svg width="24" height="24" viewBox="0 0 24 24" fill="none" xmlns="http://www.w3.org/2000/svg">
<g clip-path="url(#clip0_401_45712)">
<path d="M22 6H17.82C17.93 5.69 18 5.35 18 5C18 3.34 16.66 2 15 2C13.95 2 13.04 2.54 12.5 3.35L12 4.02L11.5 3.34C10.96 2.54 10.05 2 9.00001 2C7.34001 2 6.00001 3.34 6.00001 5C6.00001 5.35 6.07001 5.69 6.18001 6H2.01001V21H22V6ZM15 4C15.55 4 16 4.45 16 5C16 5.55 15.55 6 15 6C14.45 6 14 5.55 14 5C14 4.45 14.45 4 15 4ZM9.00001 4C9.55001 4 10 4.45 10 5C10 5.55 9.55001 6 9.00001 6C8.45001 6 8.00001 5.55 8.00001 5C8.00001 4.45 8.45001 4 9.00001 4ZM20 19H4.00001V17H20V19ZM20 14H4.00001V8H9.08001L7.00001 10.83L8.62001 12L12 7.4L15.38 12L17 10.83L14.92 8H20V14Z" fill="black"/>
</g>
<defs>
<clipPath id="clip0_401_45712">
<rect width="24" height="24" fill="white"/>
</clipPath>
</defs>
</svg>
