<svg width="24" height="24" viewBox="0 0 24 24" fill="none" xmlns="http://www.w3.org/2000/svg">
<g clip-path="url(#clip0_401_45123)">
<path d="M12.75 9V9.92L14.5 11.67V9H16V13.17L19 16.17V6H15V2H9.00001V6H8.83001L11.83 9H12.75ZM10.5 3.5H13.5V6H10.5V3.5ZM21.19 21.19L2.81001 2.81L1.39001 4.22L5.00001 7.83V21H7.00001V22H9.00001V21H15V22H17V21H18.17L19.78 22.61L21.19 21.19ZM8.00001 18V10.83L9.50001 12.33V18H8.00001ZM11.25 18V14.08L12.75 15.58V18H11.25Z" fill="black"/>
</g>
<defs>
<clipPath id="clip0_401_45123">
<rect width="24" height="24" fill="white"/>
</clipPath>
</defs>
</svg>
