<svg width="24" height="24" viewBox="0 0 24 24" fill="none" xmlns="http://www.w3.org/2000/svg">
<g clip-path="url(#clip0_401_44736)">
<path d="M14 6H10L9 7H6V17H18V7H15L14 6ZM12 14C10.9 14 10 13.1 10 12C10 10.9 10.9 10 12 10C13.1 10 14 10.9 14 12C14 13.1 13.1 14 12 14Z" fill="black"/>
<path d="M8.56995 0.509992L13.0499 4.98999V2.03999C17.7699 2.50999 21.5299 6.26999 21.9999 10.99H23.9999C23.3399 3.01999 15.4899 -1.59001 8.56995 0.509992Z" fill="black"/>
<path d="M10.95 21.96C6.23 21.49 2.47 17.73 2 13.01H0C0.66 20.98 8.51 25.59 15.43 23.49L10.95 19.01V21.96Z" fill="black"/>
</g>
<defs>
<clipPath id="clip0_401_44736">
<rect width="24" height="24" fill="white"/>
</clipPath>
</defs>
</svg>
