<svg width="24" height="24" viewBox="0 0 24 24" fill="none" xmlns="http://www.w3.org/2000/svg">
<g clip-path="url(#clip0_401_44297)">
<path d="M14 4.5C14 5.6 13.1 6.5 12 6.5C10.9 6.5 10 5.6 10 4.5C10 3.4 10.9 2.5 12 2.5C13.1 2.5 14 3.4 14 4.5ZM17.22 17.9L19.15 18.53L18.69 19.96L15.37 18.88L14.9 20.3L18.22 21.38C19.53 21.81 20.94 21.09 21.37 19.77C21.8 18.46 21.08 17.05 19.76 16.62L20.22 15.19C22.32 15.87 23.47 18.13 22.79 20.23C22.11 22.33 19.85 23.48 17.75 22.8L1 17.36L1.46 15.93L5.39 17.21L5.85 15.78L1.93 14.5L2.39 13.07L4 13.6V9.5L9.47 7.15C9.86 6.98 10.31 6.94 10.75 7.08C11.7 7.39 12.21 8.4 11.91 9.35L10.86 12.59L14.5 12L17.22 17.9ZM6 14.25L6.48 14.41L7.23 12.1L7.92 10L6 10.82V14.25ZM13.94 18.41L7.28 16.25L6.82 17.68L13.48 19.84L13.94 18.41ZM14.63 17.05L13.45 14.49L9.48 15.38L14.63 17.05Z" fill="black"/>
</g>
<defs>
<clipPath id="clip0_401_44297">
<rect width="24" height="24" fill="white"/>
</clipPath>
</defs>
</svg>
