<svg width="24" height="24" viewBox="0 0 24 24" fill="none" xmlns="http://www.w3.org/2000/svg">
<g clip-path="url(#clip0_401_45231)">
<path d="M20.83 18.0001H21V14.0001H23V10.0001H12.83L20.83 18.0001ZM19.78 22.6101L21.19 21.2001L2.81 2.81006L1.39 4.22006L3.98 6.81006C2.2 7.85006 1 9.79006 1 12.0001C1 15.3101 3.69 18.0001 7 18.0001C9.21 18.0001 11.15 16.8001 12.18 15.0101L19.78 22.6101ZM8.99 11.8201C9 11.8801 9 11.9401 9 12.0001C9 13.1001 8.1 14.0001 7 14.0001C5.9 14.0001 5 13.1001 5 12.0001C5 10.9001 5.9 10.0001 7 10.0001C7.06 10.0001 7.12 10.0001 7.18 10.0101L8.99 11.8201Z" fill="black"/>
</g>
<defs>
<clipPath id="clip0_401_45231">
<rect width="24" height="24" fill="white"/>
</clipPath>
</defs>
</svg>
