<svg width="24" height="24" viewBox="0 0 24 24" fill="none" xmlns="http://www.w3.org/2000/svg">
<g clip-path="url(#clip0_401_45848)">
<path d="M12 16L16 12H13V3H11V12H8L12 16ZM21 3H15V4.99H21V19.02H3V4.99H9V3H3C1.9 3 1 3.9 1 5V19C1 20.1 1.9 21 3 21H21C22.1 21 23 20.1 23 19V5C23 3.9 22.1 3 21 3ZM12 16L16 12H13V3H11V12H8L12 16ZM23 3H15V4.99H21V19.02H3V4.99H9V3H1V21H23V3Z" fill="black"/>
</g>
<defs>
<clipPath id="clip0_401_45848">
<rect width="24" height="24" fill="white"/>
</clipPath>
</defs>
</svg>
