<svg width="24" height="24" viewBox="0 0 24 24" fill="none" xmlns="http://www.w3.org/2000/svg">
<g clip-path="url(#clip0_401_44692)">
<path d="M18 20C18 21.1 17.1 22 16 22C14.9 22 14 21.1 14 20C14 18.9 14.9 18 16 18C17.1 18 18 18.9 18 20ZM6 18C4.9 18 4 18.9 4 20C4 21.1 4.9 22 6 22C7.1 22 8 21.1 8 20C8 18.9 7.1 18 6 18ZM22 7V6.48C22 4.56 20.52 3 18.65 3C16.99 3 16.11 4.27 15.47 5.03L5.27 17H17V6.27C17.58 5.59 17.97 5 18.65 5C19.42 5 20 5.66 20 6.48V7H22ZM14.3 4.1C13.03 3.4 11.56 3 10 3C8.03 3 6.21 3.64 4.72 4.72L9.61 9.61L14.3 4.1Z" fill="black"/>
</g>
<defs>
<clipPath id="clip0_401_44692">
<rect width="24" height="24" fill="white"/>
</clipPath>
</defs>
</svg>
