<svg width="24" height="24" viewBox="0 0 24 24" fill="none" xmlns="http://www.w3.org/2000/svg">
<g clip-path="url(#clip0_401_43843)">
<path d="M10.44 18.75C10.81 18.29 11.38 18 12.01 18C12.64 18 13.2 18.29 13.57 18.75C13.96 18.66 14.33 18.54 14.69 18.39L13.27 15.21C12.88 15.36 12.45 15.44 12.01 15.44C11.55 15.44 11.11 15.35 10.71 15.19L9.28 18.38C9.65 18.54 10.03 18.67 10.44 18.75ZM5.16 10C5 10.59 4.91 11.21 4.91 11.85C4.91 12.6 5.03 13.32 5.24 14C5.87 14.05 6.46 14.4 6.8 14.99C7.13 15.56 7.15 16.22 6.91 16.78C7.18 17.05 7.47 17.31 7.78 17.54L9.3 14.15C8.83 13.57 8.55 12.83 8.55 12.02C8.55 10.13 10.1 8.61 12.01 8.61C13.92 8.61 15.47 10.14 15.47 12.02C15.47 12.84 15.18 13.59 14.69 14.18L16.19 17.53C16.51 17.29 16.81 17.03 17.09 16.74C16.87 16.19 16.89 15.54 17.21 14.99C17.54 14.42 18.11 14.07 18.73 14C18.95 13.32 19.07 12.59 19.07 11.84C19.07 11.2 18.98 10.57 18.82 9.98C18.18 9.94 17.56 9.59 17.22 8.98C16.86 8.36 16.87 7.62 17.19 7.03C16.28 6.05 15.09 5.32 13.75 4.98C13.4 5.6 12.74 6 12.01 6C11.28 6 10.62 5.59 10.27 4.99C8.93 5.33 7.74 6.04 6.83 7.02C7.16 7.62 7.18 8.37 6.81 9C6.45 9.62 5.82 9.97 5.16 10ZM3.86 9.58C3.08 8.98 2.84 7.88 3.35 7C3.86 6.12 4.93 5.77 5.84 6.15C6.95 4.98 8.4 4.12 10.02 3.73C10.15 2.75 10.99 2 12.01 2C13.03 2 13.86 2.75 13.99 3.73C15.62 4.12 17.06 4.97 18.17 6.15C19.08 5.77 20.16 6.12 20.66 7C21.17 7.88 20.93 8.98 20.15 9.58C20.38 10.35 20.5 11.16 20.5 12C20.5 12.84 20.38 13.65 20.15 14.42C20.93 15.02 21.17 16.12 20.66 17C20.15 17.88 19.08 18.23 18.17 17.85C17.77 18.28 17.32 18.66 16.83 19L18.17 22H16.31L15.34 19.83C14.91 20.01 14.46 20.16 14 20.27C13.86 21.25 13.02 22 12.01 22C11 22 10.16 21.25 10.03 20.27C9.55 20.15 9.09 20 8.65 19.81L7.66 22H5.79L7.15 18.97C6.68 18.64 6.24 18.26 5.85 17.85C4.93 18.23 3.86 17.88 3.35 17C2.84 16.12 3.08 15.02 3.86 14.42C3.62 13.65 3.51 12.84 3.51 12C3.51 11.16 3.62 10.35 3.86 9.58Z" fill="black"/>
</g>
<defs>
<clipPath id="clip0_401_43843">
<rect width="24" height="24" fill="white"/>
</clipPath>
</defs>
</svg>
