<svg width="24" height="24" viewBox="0 0 24 24" fill="none" xmlns="http://www.w3.org/2000/svg">
<g clip-path="url(#clip0_401_44365)">
<path d="M13 5L13.75 3.5H17V2H7V3.5H11.75L11 5C7.87 5.09 5 5.73 5 8.5V17C5 18.5 6.11 19.73 7.55 19.95L6 21.5V22H8L10 20H14L16 22H18V21.5L16.45 19.95C17.89 19.73 19 18.5 19 17V8.5C19 5.73 16.13 5.09 13 5ZM12 18.5C11.17 18.5 10.5 17.83 10.5 17C10.5 16.17 11.17 15.5 12 15.5C12.83 15.5 13.5 16.17 13.5 17C13.5 17.83 12.83 18.5 12 18.5ZM17 14H7V9H17V14Z" fill="black"/>
</g>
<defs>
<clipPath id="clip0_401_44365">
<rect width="24" height="24" fill="white"/>
</clipPath>
</defs>
</svg>
