<svg width="24" height="24" viewBox="0 0 24 24" fill="none" xmlns="http://www.w3.org/2000/svg">
<g clip-path="url(#clip0_401_45896)">
<path d="M13 9.18005C13.85 9.48005 14.51 10.15 14.82 11H21.95C21.48 6.28005 17.72 2.52005 13 2.05005V9.18005ZM11 14.82C9.84 14.4 9 13.3 9 12C9 10.7 9.84 9.60005 11 9.18005V2.05005C5.95 2.55005 2 6.81005 2 12C2 17.19 5.95 21.4501 11 21.9501V14.82ZM14.82 13C14.52 13.85 13.85 14.51 13 14.82V21.9501C17.72 21.4801 21.48 17.72 21.95 13H14.82Z" fill="black"/>
</g>
<defs>
<clipPath id="clip0_401_45896">
<rect width="24" height="24" fill="white"/>
</clipPath>
</defs>
</svg>
