<svg width="24" height="24" viewBox="0 0 24 24" fill="none" xmlns="http://www.w3.org/2000/svg">
<g clip-path="url(#clip0_401_45665)">
<path d="M18 3H14V2H10V3H3V11H7.23L7.87 15.13L6 17V22H18V17L16.13 15.13L18 3ZM5 9V5H6.31L6.93 9H5ZM12 19C11.45 19 11 18.55 11 18C11 17.45 11.45 17 12 17C12.55 17 13 17.45 13 18C13 18.55 12.55 19 12 19ZM14.29 14H9.72L8.33 5H15.67L14.29 14Z" fill="black"/>
</g>
<defs>
<clipPath id="clip0_401_45665">
<rect width="24" height="24" fill="white"/>
</clipPath>
</defs>
</svg>
