<svg width="24" height="24" viewBox="0 0 24 24" fill="none" xmlns="http://www.w3.org/2000/svg">
<g clip-path="url(#clip0_401_45495)">
<path d="M21 3H3V21H21V3ZM10.67 8.17L12.67 10.17L16.34 6.5L17.75 7.91L12.67 13L10.67 11L7.67 14L6.26 12.59L10.67 8.17ZM5 16H6.72L5 17.72V16ZM5.84 19L8.84 16H10.67L7.67 19H5.84ZM9.8 19L12.8 16H14.42L11.42 19H9.8ZM13.53 19L16.53 16H18.15L15.15 19H13.53ZM19 19H17.27L19 17.27V19Z" fill="black"/>
</g>
<defs>
<clipPath id="clip0_401_45495">
<rect width="24" height="24" fill="white"/>
</clipPath>
</defs>
</svg>
