<svg width="24" height="24" viewBox="0 0 24 24" fill="none" xmlns="http://www.w3.org/2000/svg">
<g clip-path="url(#clip0_401_44459)">
<path d="M20 17V9H7V7L4 10L7 13V11H11V14H4V19H8C8 20.66 9.34 22 11 22C12.66 22 14 20.66 14 19H22V17H20ZM11 20C10.45 20 10 19.55 10 19C10 18.45 10.45 18 11 18C11.55 18 12 18.45 12 19C12 19.55 11.55 20 11 20ZM18 14H14V11H18V14ZM17 2V4H9V6H17V8L20 5L17 2Z" fill="black"/>
</g>
<defs>
<clipPath id="clip0_401_44459">
<rect width="24" height="24" fill="white"/>
</clipPath>
</defs>
</svg>
