<svg width="24" height="24" viewBox="0 0 24 24" fill="none" xmlns="http://www.w3.org/2000/svg">
<g clip-path="url(#clip0_401_45493)">
<path d="M18.85 10.39L21.33 7.91L17.09 3.67L14.61 6.15L18.85 10.39ZM13.19 7.56L4 16.76V21H8.24L17.43 11.81L13.19 7.56ZM19 17.5C19 19.69 16.46 21 14 21C13.52 21 13 20.93 13 20.93C13 20.59 13 18.9 13 18.9C13 18.9 13.46 19 14 19C15.54 19 17 18.27 17 17.5C17 17.03 16.52 16.63 15.77 16.3L17.25 14.82C18.32 15.45 19 16.29 19 17.5ZM4.58 13.35C3.61 12.79 3 12.06 3 11C3 9.2 4.89 8.37 6.56 7.64C7.59 7.18 9 6.56 9 6C9 5.59 8.22 5 7 5C5.76 5 5 5.61 5 6H3C3 4.35 4.7 3 7 3C9.24 3 11 4.32 11 6C11 7.87 9.07 8.72 7.36 9.47C6.42 9.88 5 10.5 5 11C5 11.31 5.43 11.6 6.07 11.86L4.58 13.35Z" fill="black"/>
</g>
<defs>
<clipPath id="clip0_401_45493">
<rect width="24" height="24" fill="white"/>
</clipPath>
</defs>
</svg>
