<svg width="24" height="24" viewBox="0 0 24 24" fill="none" xmlns="http://www.w3.org/2000/svg">
<g clip-path="url(#clip0_401_45259)">
<path d="M6.40003 7C6.06003 7.55 6.00003 7.97 6.00003 8.38C6.00003 9.15 7.00003 11 7.00003 12C7.00003 12.95 6.60003 13.5 6.60003 13.5H5.10003C5.10003 13.5 5.50003 12.95 5.50003 12C5.50003 11 4.50003 9.15 4.50003 8.38C4.50003 7.97 4.56003 7.55 4.90003 7H6.40003ZM11.4 7C11.06 7.55 11 7.97 11 8.38C11 9.15 12 11 12 12C12 12.95 11.6 13.5 11.6 13.5H13.1C13.1 13.5 13.5 12.95 13.5 12C13.5 11 12.5 9.15 12.5 8.38C12.5 7.97 12.56 7.55 12.9 7H11.4ZM8.15003 7C7.81003 7.55 7.75003 7.97 7.75003 8.38C7.75003 9.15 8.75003 11.01 8.75003 12C8.75003 12.95 8.35003 13.5 8.35003 13.5H9.85003C9.85003 13.5 10.25 12.95 10.25 12C10.25 11 9.25003 9.15 9.25003 8.38C9.25003 7.97 9.31003 7.55 9.65003 7H8.15003ZM21.47 6.5C21.47 6.5 21.6 5.44 21.6 5C21.6 3.35 20.25 2 18.6 2C17.06 2 15.79 3.16 15.62 4.65L14.53 15H2.93003C2.91003 18.87 6.02003 22 9.75003 22C13.23 22 16.09 19.27 16.46 15.77L17.61 4.9C17.66 4.39 18.08 4 18.6 4C19.15 4 19.6 4.45 19.6 5C19.6 5.3 19.5 6.25 19.5 6.25L21.47 6.5Z" fill="black"/>
</g>
<defs>
<clipPath id="clip0_401_45259">
<rect width="24" height="24" fill="white"/>
</clipPath>
</defs>
</svg>
