<svg width="24" height="24" viewBox="0 0 24 24" fill="none" xmlns="http://www.w3.org/2000/svg">
<g clip-path="url(#clip0_401_45489)">
<path d="M13 3C8.03 3 4 7.03 4 12H1L5 16L9 12H6C6 8.14 9.14 5 13 5C16.86 5 20 8.14 20 12C20 15.86 16.86 19 13 19C11.1 19 9.38 18.24 8.12 17.01L6.7 18.42C8.32 20.01 10.55 21 13 21C17.97 21 22 16.97 22 12C22 7.03 17.97 3 13 3ZM15 11V10C15 8.9 14.1 8 13 8C11.9 8 11 8.9 11 10V11H10V16H16V11H15ZM14 11H12V10C12 9.45 12.45 9 13 9C13.55 9 14 9.45 14 10V11Z" fill="black"/>
</g>
<defs>
<clipPath id="clip0_401_45489">
<rect width="24" height="24" fill="white"/>
</clipPath>
</defs>
</svg>
