<svg width="24" height="24" viewBox="0 0 24 24" fill="none" xmlns="http://www.w3.org/2000/svg">
<g clip-path="url(#clip0_401_44223)">
<path d="M20 9V5H15V2H9V5H4V9H1V15H4V21H20V15H23V9H20ZM7.5 11.5C7.5 10.67 8.17 10 9 10C9.83 10 10.5 10.67 10.5 11.5C10.5 12.33 9.83 13 9 13C8.17 13 7.5 12.33 7.5 11.5ZM16 17H8V15H16V17ZM15 13C14.17 13 13.5 12.33 13.5 11.5C13.5 10.67 14.17 10 15 10C15.83 10 16.5 10.67 16.5 11.5C16.5 12.33 15.83 13 15 13Z" fill="black"/>
</g>
<defs>
<clipPath id="clip0_401_44223">
<rect width="24" height="24" fill="white"/>
</clipPath>
</defs>
</svg>
