<svg width="24" height="24" viewBox="0 0 24 24" fill="none" xmlns="http://www.w3.org/2000/svg">
<g clip-path="url(#clip0_401_45558)">
<path d="M5.78001 2.95C7.24002 2.16 9.48001 2 12 2C16.42 2 20 2.5 20 6V16C20 16.35 19.92 16.67 19.81 16.98L13.83 11H18V6H8.83001L5.78001 2.95ZM19.78 22.61L18.17 21H16V19H8.00001V21H5.00001V18.22C4.39001 17.67 4.00001 16.88 4.00001 16V6.83L1.39001 4.22L2.80001 2.81L21.18 21.19L19.78 22.61ZM9.00001 15.5C9.00001 14.67 8.33001 14 7.50001 14C6.67001 14 6.00001 14.67 6.00001 15.5C6.00001 16.33 6.67001 17 7.50001 17C8.33001 17 9.00001 16.33 9.00001 15.5ZM8.17001 11L6.00001 8.83V11H8.17001Z" fill="black"/>
</g>
<defs>
<clipPath id="clip0_401_45558">
<rect width="24" height="24" fill="white"/>
</clipPath>
</defs>
</svg>
