<svg width="24" height="24" viewBox="0 0 24 24" fill="none" xmlns="http://www.w3.org/2000/svg">
<g clip-path="url(#clip0_401_44537)">
<path d="M16.83 5L15 3H9L7.17 5H2V21H22V5H16.83ZM12 18C9.24 18 7 15.76 7 13H5L7.5 10.5L10 13H8C8 15.21 9.79 17 12 17C12.58 17 13.13 16.87 13.62 16.65L14.36 17.39C13.65 17.76 12.86 18 12 18ZM16.5 15.5L14 13H16C16 10.79 14.21 9 12 9C11.42 9 10.87 9.13 10.38 9.35L9.64 8.62C10.35 8.24 11.14 8 12 8C14.76 8 17 10.24 17 13H19L16.5 15.5Z" fill="black"/>
</g>
<defs>
<clipPath id="clip0_401_44537">
<rect width="24" height="24" fill="white"/>
</clipPath>
</defs>
</svg>
