<svg width="24" height="24" viewBox="0 0 24 24" fill="none" xmlns="http://www.w3.org/2000/svg">
<g clip-path="url(#clip0_401_44043)">
<path d="M13 8.56982C12.21 8.56982 11.57 9.20982 11.57 9.99982C11.57 10.7898 12.21 11.4298 13 11.4298C13.79 11.4298 14.43 10.7898 14.43 9.99982C14.43 9.20982 13.79 8.56982 13 8.56982Z" fill="black"/>
<path d="M13 3C9.25001 3 6.20001 5.94 6.02001 9.64L4.10001 12.2C3.85001 12.53 4.09001 13 4.50001 13H6.00001V16C6.00001 17.1 6.90001 18 8.00001 18H9.00001V21H16V16.32C18.36 15.2 20 12.79 20 10C20 6.13 16.87 3 13 3ZM16 10C16 10.13 15.99 10.26 15.98 10.39L16.81 11.05C16.89 11.11 16.91 11.21 16.86 11.3L16.06 12.69C16.01 12.78 15.9 12.81 15.82 12.78L14.83 12.38C14.62 12.54 14.4 12.67 14.16 12.77L14 13.83C13.99 13.93 13.9 14 13.8 14H12.2C12.1 14 12.02 13.93 12 13.83L11.85 12.77C11.6 12.67 11.38 12.54 11.17 12.38L10.18 12.78C10.09 12.81 9.98001 12.78 9.93001 12.69L9.13001 11.3C9.08001 11.22 9.10001 11.11 9.18001 11.05L10.02 10.39C10.01 10.26 10 10.13 10 10C10 9.87 10.02 9.73 10.04 9.61L9.19001 8.95C9.11001 8.89 9.09001 8.79 9.14001 8.69L9.94001 7.31C9.99001 7.22 10.09 7.19 10.18 7.22L11.18 7.62C11.38 7.47 11.61 7.33 11.85 7.23L12 6.17C12.02 6.07 12.1 6 12.2 6H13.8C13.9 6 13.98 6.07 14 6.17L14.15 7.23C14.39 7.33 14.61 7.46 14.82 7.62L15.82 7.22C15.91 7.19 16.02 7.22 16.06 7.31L16.86 8.69C16.91 8.78 16.89 8.89 16.81 8.95L15.96 9.61C15.99 9.73 16 9.86 16 10Z" fill="black"/>
</g>
<defs>
<clipPath id="clip0_401_44043">
<rect width="24" height="24" fill="white"/>
</clipPath>
</defs>
</svg>
