<svg width="24" height="24" viewBox="0 0 24 24" fill="none" xmlns="http://www.w3.org/2000/svg">
<g clip-path="url(#clip0_401_45536)">
<path d="M18 6L15.09 12.26L20.34 17.51C21.39 15.93 22 14.04 22 12C22 6.48 17.52 2 12 2C9.96 2 8.07 2.61 6.49 3.66L11.74 8.91L18 6ZM2.1 4.93L3.66 6.49C2.61 8.07 2 9.96 2 12C2 17.52 6.48 22 12 22C14.04 22 15.93 21.39 17.51 20.34L19.07 21.9L20.48 20.49L3.51 3.51L2.1 4.93ZM8.91 11.74L12.26 15.09L6 18L8.91 11.74Z" fill="black"/>
</g>
<defs>
<clipPath id="clip0_401_45536">
<rect width="24" height="24" fill="white"/>
</clipPath>
</defs>
</svg>
