<svg width="24" height="24" viewBox="0 0 24 24" fill="none" xmlns="http://www.w3.org/2000/svg">
<g clip-path="url(#clip0_401_44287)">
<path d="M20.36 11H19V5.00005H13V3.64005C13 2.33005 12.06 1.14005 10.76 1.01005C9.26 0.860048 8 2.03005 8 3.50005V5.00005H2.01V10.8H3.4C4.71 10.8 5.9 11.68 6.15 12.96C6.48 14.68 5.17 16.2 3.5 16.2H2V22H7.8V20.6C7.8 19.29 8.68 18.1 9.96 17.85C11.68 17.52 13.2 18.83 13.2 20.5V22H19V16H20.5C21.97 16 23.14 14.74 22.99 13.24C22.86 11.94 21.66 11 20.36 11Z" fill="black"/>
</g>
<defs>
<clipPath id="clip0_401_44287">
<rect width="24" height="24" fill="white"/>
</clipPath>
</defs>
</svg>
