<svg width="24" height="24" viewBox="0 0 24 24" fill="none" xmlns="http://www.w3.org/2000/svg">
<g clip-path="url(#clip0_401_45672)">
<path d="M20.18 15.4L19.1 23H10.1L5 17.62L6.22 16.39L10 17.24V6.5C10 5.67 10.67 5 11.5 5C12.33 5 13 5.67 13 6.5V12.5H14.38L20.18 15.4ZM12 2.5C16.74 2.5 19.67 5.02 20.43 7H22C21.27 4.12 17.49 1 12 1C8.78 1 5.82 2.13 3.5 4.02V2H2V7H7V5.5H4.09C6.21 3.64 8.97 2.5 12 2.5Z" fill="black"/>
</g>
<defs>
<clipPath id="clip0_401_45672">
<rect width="24" height="24" fill="white"/>
</clipPath>
</defs>
</svg>
