<svg width="24" height="24" viewBox="0 0 24 24" fill="none" xmlns="http://www.w3.org/2000/svg">
<g clip-path="url(#clip0_401_45616)">
<path d="M21.19 21.19L2.81001 2.81L1.39001 4.22L3.66001 6.49C2.61001 8.07 2.00001 9.96 2.00001 12C2.00001 17.52 6.48001 22 12 22C14.04 22 15.93 21.39 17.51 20.34L19.78 22.61L21.19 21.19ZM10.59 16.6L6.35001 12.36L7.76002 10.95L10.59 13.78L10.77 13.6L12.18 15.01L10.59 16.6ZM13.59 10.76L6.49001 3.66C8.07001 2.61 9.96001 2 12 2C17.52 2 22 6.48 22 12C22 14.04 21.39 15.93 20.34 17.51L15 12.17L17.65 9.52L16.24 8.11L13.59 10.76Z" fill="black"/>
</g>
<defs>
<clipPath id="clip0_401_45616">
<rect width="24" height="24" fill="white"/>
</clipPath>
</defs>
</svg>
