<svg width="24" height="24" viewBox="0 0 24 24" fill="none" xmlns="http://www.w3.org/2000/svg">
<g clip-path="url(#clip0_401_45513)">
<path d="M3.55 19.09L4.96 20.5L6.75 18.7001L5.34 17.29L3.55 19.09ZM11 23H13V20.05H11V23ZM4 11.05H1V13.05H4V11.05ZM15 6.86005V2.05005H9V6.86005C7.21 7.90005 6 9.83005 6 12.05C6 15.36 8.69 18.05 12 18.05C15.31 18.05 18 15.36 18 12.05C18 9.83005 16.79 7.90005 15 6.86005ZM20 11.05V13.05H23V11.05H20ZM17.24 18.71L19.03 20.51L20.44 19.1L18.64 17.31L17.24 18.71Z" fill="black"/>
</g>
<defs>
<clipPath id="clip0_401_45513">
<rect width="24" height="24" fill="white"/>
</clipPath>
</defs>
</svg>
