<svg width="24" height="24" viewBox="0 0 24 24" fill="none" xmlns="http://www.w3.org/2000/svg">
<g clip-path="url(#clip0_401_45152)">
<path d="M5 15H3V21H9V19H5V15ZM5 5H9V3H3V9H5V5ZM21 3H15V5H19V9H21V3ZM19 19H15V21H21V15H19V19ZM12 8C9.79 8 8 9.79 8 12C8 14.21 9.79 16 12 16C14.21 16 16 14.21 16 12C16 9.79 14.21 8 12 8ZM12 14C10.9 14 10 13.1 10 12C10 10.9 10.9 10 12 10C13.1 10 14 10.9 14 12C14 13.1 13.1 14 12 14Z" fill="black"/>
</g>
<defs>
<clipPath id="clip0_401_45152">
<rect width="24" height="24" fill="white"/>
</clipPath>
</defs>
</svg>
