<svg width="24" height="24" viewBox="0 0 24 24" fill="none" xmlns="http://www.w3.org/2000/svg">
<g clip-path="url(#clip0_401_45167)">
<path d="M1.41 1.12988L0 2.53988L4.39 6.92988L6.6 11.5899L3.62 16.9999H14.46L15.84 18.3799C15.34 18.7399 15.01 19.3299 15.01 19.9999C15.01 21.0999 15.9 21.9999 17 21.9999C17.67 21.9999 18.26 21.6699 18.62 21.1599L21.46 23.9999L22.87 22.5899L1.41 1.12988ZM7 14.9999L8.1 12.9999H10.46L12.46 14.9999H7ZM16.05 12.9399H16.78L21.7 3.99988H7.12L16.05 12.9399ZM7 17.9999C5.9 17.9999 5.01 18.8999 5.01 19.9999C5.01 21.0999 5.9 21.9999 7 21.9999C8.1 21.9999 9 21.0999 9 19.9999C9 18.8999 8.1 17.9999 7 17.9999Z" fill="black"/>
</g>
<defs>
<clipPath id="clip0_401_45167">
<rect width="24" height="24" fill="white"/>
</clipPath>
</defs>
</svg>
