<svg width="24" height="24" viewBox="0 0 24 24" fill="none" xmlns="http://www.w3.org/2000/svg">
<g clip-path="url(#clip0_401_45095)">
<path d="M17.34 1.13003C14.4 0.580028 11.71 1.88003 10.22 4.05003C10.23 4.04003 10.23 4.03003 10.24 4.02003C9.84 4.00003 9.42 4.00003 9 4.00003C4.58 4.00003 1 4.50003 1 8.00003V18C1 18.88 1.39 19.67 2 20.22V23H5V21H13V23H16V20.22C16.61 19.67 17 18.88 17 18V14.92C20.72 14.38 23.5 10.94 22.92 6.95003C22.5 4.05003 20.22 1.66003 17.34 1.13003ZM4.5 19C3.67 19 3 18.33 3 17.5C3 16.67 3.67 16 4.5 16C5.33 16 6 16.67 6 17.5C6 18.33 5.33 19 4.5 19ZM3 13V8.00003H9C9 9.96003 9.81 11.73 11.11 13H3ZM13.5 19C12.67 19 12 18.33 12 17.5C12 16.67 12.67 16 13.5 16C14.33 16 15 16.67 15 17.5C15 18.33 14.33 19 13.5 19ZM16 13C13.24 13 11 10.76 11 8.00003C11 5.24003 13.24 3.00003 16 3.00003C18.76 3.00003 21 5.24003 21 8.00003C21 10.76 18.76 13 16 13ZM16.5 4.00003H15V9.00003L18.62 11.16L19.37 9.93003L16.5 8.25003V4.00003Z" fill="black"/>
</g>
<defs>
<clipPath id="clip0_401_45095">
<rect width="24" height="24" fill="white"/>
</clipPath>
</defs>
</svg>
