<svg width="24" height="24" viewBox="0 0 24 24" fill="none" xmlns="http://www.w3.org/2000/svg">
<g clip-path="url(#clip0_401_44586)">
<path d="M3 13H5V11H3V13ZM7 21H9V19H7V21ZM3 9H5V7H3V9ZM13 3H11V5H13V3ZM3 17H5V15H3V17ZM9 3H7V5H9V3ZM5 3H3V5H5V3ZM11 21H13V19H11V21ZM19 13H21V11H19V13ZM19 9H21V7H19V9ZM19 17H21V15H19V17ZM15 21H17V19H15V21ZM15 5H17V3H15V5ZM19 5H21V3H19V5ZM19 21H21V19H19V21ZM3 21H5V19H3V21ZM7 17H17V7H7V17ZM9 9H15V15H9V9Z" fill="black"/>
</g>
<defs>
<clipPath id="clip0_401_44586">
<rect width="24" height="24" fill="white"/>
</clipPath>
</defs>
</svg>
