<svg width="24" height="24" viewBox="0 0 24 24" fill="none" xmlns="http://www.w3.org/2000/svg">
<g clip-path="url(#clip0_401_44589)">
<path d="M17 18C15.9 18 15.01 18.9 15.01 20C15.01 21.1 15.9 22 17 22C18.1 22 19 21.1 19 20C19 18.9 18.1 18 17 18ZM7 18C5.9 18 5.01 18.9 5.01 20C5.01 21.1 5.9 22 7 22C8.1 22 9 21.1 9 20C9 18.9 8.1 18 7 18ZM7 15L8.1 13H15.55C16.3 13 16.96 12.59 17.3 11.97L21.7 4H5.21L4.27 2H1V4H3L6.6 11.59L3.62 17H19V15H7Z" fill="black"/>
</g>
<defs>
<clipPath id="clip0_401_44589">
<rect width="24" height="24" fill="white"/>
</clipPath>
</defs>
</svg>
