<svg width="24" height="24" viewBox="0 0 24 24" fill="none" xmlns="http://www.w3.org/2000/svg">
<g clip-path="url(#clip0_401_44629)">
<path d="M19.77 7.23L19.78 7.22L16.06 3.5L15 4.56L17.11 6.67C16.06 7.07 15.35 8.14 15.53 9.38C15.69 10.48 16.63 11.37 17.73 11.49C18.2 11.54 18.61 11.46 19 11.29V19.5H17V12H14V3H4V21H14V13.5H15.5V21H20.5V9C20.5 8.31 20.22 7.68 19.77 7.23ZM18 10C17.45 10 17 9.55 17 9C17 8.45 17.45 8 18 8C18.55 8 19 8.45 19 9C19 9.55 18.55 10 18 10ZM8 18V13.5H6L10 6V11H12L8 18Z" fill="black"/>
</g>
<defs>
<clipPath id="clip0_401_44629">
<rect width="24" height="24" fill="white"/>
</clipPath>
</defs>
</svg>
