<svg width="24" height="24" viewBox="0 0 24 24" fill="none" xmlns="http://www.w3.org/2000/svg">
<g clip-path="url(#clip0_401_43955)">
<path d="M19 3H5C3.89 3 3 3.9 3 5V19C3 20.1 3.89 21 5 21H19C20.11 21 21 20.1 21 19V5C21 3.9 20.11 3 19 3ZM17.25 12C17.25 12.24 17.23 12.47 17.2 12.71L17.21 12.69L18.68 13.85C18.82 13.95 18.91 14.03 18.91 14.03L17.21 16.97L15.19 16.17L15.21 16.14C14.84 16.43 14.44 16.67 14 16.85H14.01L13.74 18.7C13.72 18.87 13.7 19 13.7 19H10.3L9.99 16.85H10C9.56 16.67 9.16 16.43 8.79 16.14L8.81 16.17L6.79 16.97L5.09 14.03C5.09 14.03 5.19 13.95 5.32 13.85L6.79 12.69L6.8 12.71C6.77 12.47 6.75 12.24 6.75 12C6.75 11.76 6.77 11.53 6.8 11.31L6.79 11.32L5.09 9.98L6.79 7.03L8.8 7.84V7.85C9.17 7.57 9.57 7.33 10 7.15H9.99L10.3 5H13.71L14.01 7.15H14C14.43 7.33 14.83 7.57 15.2 7.85V7.84L17.21 7.03L18.91 9.98L17.2 11.32L17.19 11.31C17.23 11.53 17.25 11.76 17.25 12Z" fill="black"/>
<path d="M12 14.4498C13.3531 14.4498 14.45 13.3529 14.45 11.9998C14.45 10.6467 13.3531 9.5498 12 9.5498C10.6469 9.5498 9.54999 10.6467 9.54999 11.9998C9.54999 13.3529 10.6469 14.4498 12 14.4498Z" fill="black"/>
</g>
<defs>
<clipPath id="clip0_401_43955">
<rect width="24" height="24" fill="white"/>
</clipPath>
</defs>
</svg>
