<svg width="24" height="24" viewBox="0 0 24 24" fill="none" xmlns="http://www.w3.org/2000/svg">
<g clip-path="url(#clip0_401_44938)">
<path d="M4 4H11V2H2V11H4V4ZM10 13L6 18H18L15 14L12.97 16.71L10 13ZM17 8.5C17 7.67 16.33 7 15.5 7C14.67 7 14 7.67 14 8.5C14 9.33 14.67 10 15.5 10C16.33 10 17 9.33 17 8.5ZM22 2H13V4H20V11H22V2ZM20 20H13V22H22V13H20V20ZM4 13H2V22H11V20H4V13Z" fill="black"/>
</g>
<defs>
<clipPath id="clip0_401_44938">
<rect width="24" height="24" fill="white"/>
</clipPath>
</defs>
</svg>
