<svg width="24" height="24" viewBox="0 0 24 24" fill="none" xmlns="http://www.w3.org/2000/svg">
<g clip-path="url(#clip0_401_44378)">
<path d="M21 12.4V7L17 3H3V21H12.4L21 12.4ZM15 15C15 16.66 13.66 18 12 18C10.34 18 9 16.66 9 15C9 13.34 10.34 12 12 12C13.66 12 15 13.34 15 15ZM6 6H15V10H6V6ZM19.99 16.25L21.76 18.02L16.77 23H15V21.23L19.99 16.25ZM23.61 16.16L22.41 17.36L20.64 15.59L21.84 14.39L23.61 16.16Z" fill="black"/>
</g>
<defs>
<clipPath id="clip0_401_44378">
<rect width="24" height="24" fill="white"/>
</clipPath>
</defs>
</svg>
