<svg width="24" height="24" viewBox="0 0 24 24" fill="none" xmlns="http://www.w3.org/2000/svg">
<g clip-path="url(#clip0_401_43937)">
<path d="M13.79 8L15.59 5L13.79 2H10.21L8.40997 5L10.21 8H13.79Z" fill="black"/>
<path d="M10.21 9L8.40997 12L10.21 15H13.79L15.59 12L13.79 9H10.21Z" fill="black"/>
<path d="M16.45 11.5098H20.04L21.83 8.50977L20.04 5.50977H16.45L14.65 8.50977L16.45 11.5098Z" fill="black"/>
<path d="M20.04 12.5098H16.45L14.65 15.5098L16.45 18.5098H20.04L21.83 15.5098L20.04 12.5098Z" fill="black"/>
<path d="M7.54998 11.5098L9.34998 8.50977L7.54998 5.50977H3.95998L2.16998 8.50977L3.95998 11.5098H7.54998Z" fill="black"/>
<path d="M7.54998 12.5098H3.95998L2.16998 15.5098L3.95998 18.5098H7.54998L9.34998 15.5098L7.54998 12.5098Z" fill="black"/>
<path d="M10.21 16L8.40997 19L10.21 22H13.79L15.59 19L13.79 16H10.21Z" fill="black"/>
</g>
<defs>
<clipPath id="clip0_401_43937">
<rect width="24" height="24" fill="white"/>
</clipPath>
</defs>
</svg>
