<svg width="24" height="24" viewBox="0 0 24 24" fill="none" xmlns="http://www.w3.org/2000/svg">
<g clip-path="url(#clip0_401_45710)">
<path d="M12 16C10.05 16 9.9 17 8.66 17C7.47 17 7.24 16 5.33 16C3.38 16 3.24 17 2 17V19C3.9 19 4.17 18 5.35 18C6.54 18 6.77 19 8.68 19C10.63 19 10.76 18 12 18C13.24 18 13.37 19 15.32 19C17.23 19 17.46 18 18.65 18C19.83 18 20.1 19 22 19V17C20.76 17 20.62 16 18.67 16C16.76 16 16.53 17 15.34 17C14.1 17 13.95 16 12 16ZM20.34 11.34L18.67 13H17V9.65L18.32 10.62L19.5 9L12 3.5L4.5 9L5.68 10.61L7 9.65V13H5.33L3.67 11.34L2.26 12.75L4.5 15H19.5L21.75 12.75L20.34 11.34ZM13 13H11V11H13V13Z" fill="black"/>
</g>
<defs>
<clipPath id="clip0_401_45710">
<rect width="24" height="24" fill="white"/>
</clipPath>
</defs>
</svg>
