<svg width="24" height="24" viewBox="0 0 24 24" fill="none" xmlns="http://www.w3.org/2000/svg">
<g clip-path="url(#clip0_401_43939)">
<path d="M12.01 16C12.1417 16.0013 12.2723 15.9764 12.3943 15.9266C12.5162 15.8768 12.627 15.8032 12.7201 15.7101C12.8132 15.617 12.8868 15.5062 12.9366 15.3843C12.9864 15.2623 13.0113 15.1317 13.01 15C13.0113 14.8683 12.9864 14.7377 12.9366 14.6157C12.8868 14.4938 12.8132 14.383 12.7201 14.2899C12.627 14.1968 12.5162 14.1232 12.3943 14.0734C12.2723 14.0236 12.1417 13.9987 12.01 14C11.73 14 11.5 14.1 11.3 14.29C11.1 14.48 11 14.72 11 14.99C11 15.26 11.1 15.5 11.29 15.7C11.49 15.9 11.73 16 12.01 16ZM11.13 12.34V13H12.98V12.58C12.98 12.25 13.04 11.98 13.16 11.77C13.28 11.56 13.49 11.3 13.81 11C14.21 10.62 14.49 10.25 14.7 9.91C14.89 9.56 15 9.15 15 8.66C15 8.17 14.87 7.72 14.61 7.31C14.3573 6.89757 13.9934 6.56482 13.56 6.35C13.11 6.12 12.58 6 12 6C11.22 6 10.49 6.32 9.97 6.79C9.46 7.27 9 7.99 9 9H10.68C10.68 8.48 10.87 8.23 11.08 8.02C11.29 7.82 11.66 7.72 12.04 7.72C12.39 7.72 12.68 7.82 12.89 8.02C13.1 8.22 13.21 8.47 13.21 8.76C13.21 9 13.15 9.22 13.02 9.4C12.89 9.59 12.69 9.81 12.41 10.06C11.93 10.48 11.6 10.85 11.41 11.18C11.22 11.51 11.13 11.89 11.13 12.34ZM12 2C16.2 2 20 5.22 20 10.2C20 13.52 17.33 17.45 12 22C6.67 17.45 4 13.52 4 10.2C4 5.22 7.8 2 12 2Z" fill="black"/>
</g>
<defs>
<clipPath id="clip0_401_43939">
<rect width="24" height="24" fill="white"/>
</clipPath>
</defs>
</svg>
