<svg width="24" height="24" viewBox="0 0 24 24" fill="none" xmlns="http://www.w3.org/2000/svg">
<g clip-path="url(#clip0_401_45402)">
<path d="M12 2C6.48 2 2 6.48 2 12C2 17.52 6.48 22 12 22C17.52 22 22 17.52 22 12C22 6.48 17.52 2 12 2ZM12 18.5C11.17 18.5 10.5 17.83 10.5 17H13.5C13.5 17.83 12.83 18.5 12 18.5ZM17 16H7V14H8V11C8 9.14 9.28 7.59 11 7.14V5.5H13V7.14C14.72 7.59 16 9.14 16 11V14H17V16Z" fill="black"/>
</g>
<defs>
<clipPath id="clip0_401_45402">
<rect width="24" height="24" fill="white"/>
</clipPath>
</defs>
</svg>
