<svg width="24" height="24" viewBox="0 0 24 24" fill="none" xmlns="http://www.w3.org/2000/svg">
<g clip-path="url(#clip0_401_43986)">
<path d="M11 7.00008H13V9.33008L20.2 16.5301L21 15.7301V8.27008L15.73 3.00008H8.27L7.47 3.80008L11 7.33008V7.00008ZM2.41 1.58008L1 2.99008L4.64 6.63008L3 8.27008V15.7301L8.27 21.0001H15.73L17.37 19.3601L21.01 23.0001L22.42 21.5901L2.41 1.58008ZM11 12.9901L11.01 13.0001H11V12.9901ZM12 17.3001C11.28 17.3001 10.7 16.7201 10.7 16.0001C10.7 15.2801 11.28 14.7001 12 14.7001C12.72 14.7001 13.3 15.2801 13.3 16.0001C13.3 16.7201 12.72 17.3001 12 17.3001Z" fill="black"/>
</g>
<defs>
<clipPath id="clip0_401_43986">
<rect width="24" height="24" fill="white"/>
</clipPath>
</defs>
</svg>
