<svg width="24" height="24" viewBox="0 0 24 24" fill="none" xmlns="http://www.w3.org/2000/svg">
<g clip-path="url(#clip0_401_44413)">
<path d="M13.5 5.5C14.6 5.5 15.5 4.6 15.5 3.5C15.5 2.4 14.6 1.5 13.5 1.5C12.4 1.5 11.5 2.4 11.5 3.5C11.5 4.6 12.4 5.5 13.5 5.5ZM17.5 10.78C16.27 10.41 15.28 9.61 14.7 8.6L13.7 7C13.29 6.35 12.59 6 11.86 6C11.08 6 10.27 6.5 10.08 7.44C9.89002 8.38 7.00002 23 7.00002 23H9.10002L10.9 15L13 17V23H15V15.5L12.9 13.5L13.5 10.5C14.5 11.65 15.91 12.51 17.5 12.84V23H19V9H17.5V10.78ZM7.43002 13.13L4.33002 12.53L5.67002 5.66L8.80002 6.27L7.43002 13.13Z" fill="black"/>
</g>
<defs>
<clipPath id="clip0_401_44413">
<rect width="24" height="24" fill="white"/>
</clipPath>
</defs>
</svg>
