<svg width="24" height="24" viewBox="0 0 24 24" fill="none" xmlns="http://www.w3.org/2000/svg">
<g clip-path="url(#clip0_401_45424)">
<path d="M7.52005 21.4799C4.25005 19.9399 1.91005 16.7599 1.55005 12.9999H0.0500488C0.560049 19.1599 5.71005 23.9999 12 23.9999L12.66 23.9699L8.85005 20.1499L7.52005 21.4799ZM20.05 3.99994V3.63994C20.05 2.32994 19.11 1.13994 17.81 1.00994C16.31 0.859941 15.05 2.02994 15.05 3.49994V3.99994H14.05V9.99994H21.05V3.99994H20.05ZM19.25 3.99994H15.85V3.49994C15.85 2.55994 16.61 1.79994 17.55 1.79994C18.49 1.79994 19.25 2.55994 19.25 3.49994V3.99994ZM19.73 11.1999L18.32 12.6099L20.5401 14.8299L14.88 20.4899L3.56005 9.16994L9.22005 3.50994L11.32 5.60994L12.73 4.19994L9.22005 0.689941L0.740049 9.16994L14.88 23.3099L23.3601 14.8299L19.73 11.1999Z" fill="black"/>
</g>
<defs>
<clipPath id="clip0_401_45424">
<rect width="24" height="24" fill="white"/>
</clipPath>
</defs>
</svg>
