<svg width="24" height="24" viewBox="0 0 24 24" fill="none" xmlns="http://www.w3.org/2000/svg">
<g clip-path="url(#clip0_401_45316)">
<path d="M20 5H4L2 19H6L9 16H15L18 19H22L20 5ZM11 11H9V13H8V11H6V10H8V8H9V10H11V11ZM15 10C14.45 10 14 9.55 14 9C14 8.45 14.45 8 15 8C15.55 8 16 8.45 16 9C16 9.55 15.55 10 15 10ZM17 13C16.45 13 16 12.55 16 12C16 11.45 16.45 11 17 11C17.55 11 18 11.45 18 12C18 12.55 17.55 13 17 13Z" fill="black"/>
</g>
<defs>
<clipPath id="clip0_401_45316">
<rect width="24" height="24" fill="white"/>
</clipPath>
</defs>
</svg>
