<svg width="24" height="24" viewBox="0 0 24 24" fill="none" xmlns="http://www.w3.org/2000/svg">
<g clip-path="url(#clip0_401_44507)">
<path d="M2.45004 2.45L1.04004 3.87L6.34004 9.17L6.14004 9.4H2.00004V22H18V20.83L20.13 22.96L21.54 21.55L2.45004 2.45ZM10 20C7.79004 20 6.00004 18.21 6.00004 16C6.00004 14.05 7.40004 12.43 9.25004 12.08L10.82 13.65C10.56 13.56 10.29 13.5 10 13.5C8.62004 13.5 7.50004 14.62 7.50004 16C7.50004 17.38 8.62004 18.5 10 18.5C11.38 18.5 12.5 17.38 12.5 16C12.5 15.71 12.44 15.44 12.35 15.18L13.92 16.75C13.57 18.6 11.95 20 10 20ZM18 15.17L10.83 8H12.58L13.86 9.4H18V15.17ZM20.4 5.6H22L19 11V7H18V2H22L20.4 5.6Z" fill="black"/>
</g>
<defs>
<clipPath id="clip0_401_44507">
<rect width="24" height="24" fill="white"/>
</clipPath>
</defs>
</svg>
