<svg width="24" height="24" viewBox="0 0 24 24" fill="none" xmlns="http://www.w3.org/2000/svg">
<g clip-path="url(#clip0_401_45805)">
<path d="M21.6 18.1999L13 11.7499V10.8399C14.65 10.3499 15.8 8.66991 15.43 6.78991C15.17 5.47991 14.13 4.38991 12.82 4.08991C10.54 3.56991 8.50002 5.29991 8.50002 7.49991H10.5C10.5 6.66991 11.17 5.99991 12 5.99991C12.83 5.99991 13.5 6.66991 13.5 7.49991C13.5 8.33991 12.81 9.01991 11.97 8.99991H11V11.7499L2.40002 18.1999C1.63002 18.7799 2.04002 19.9999 3.00002 19.9999H12H21C21.96 19.9999 22.37 18.7799 21.6 18.1999ZM6.00002 17.9999L12 13.4999L18 17.9999H6.00002Z" fill="black"/>
</g>
<defs>
<clipPath id="clip0_401_45805">
<rect width="24" height="24" fill="white"/>
</clipPath>
</defs>
</svg>
