<svg width="24" height="24" viewBox="0 0 24 24" fill="none" xmlns="http://www.w3.org/2000/svg">
<g clip-path="url(#clip0_401_44470)">
<path d="M22.82 12.0099L18.83 15.9999L17.02 14.1899L19.2 11.9999L12 4.79993L9.80999 6.98993L7.99999 5.16993L11.99 1.17993L22.82 12.0099ZM21.19 21.1899L19.78 22.5999L16 18.8299L12.01 22.8199L1.17999 11.9899L5.16999 7.99993L1.38999 4.21993L2.79999 2.80993L21.19 21.1899ZM14.19 17.0199L12.8 15.6299L12 16.4299L7.57999 11.9999L8.37999 11.1999L6.97999 9.80993L4.79999 11.9999L12 19.1999L14.19 17.0199ZM16.42 11.9999L12 7.57993L11.2 8.37993L15.62 12.7999L16.42 11.9999Z" fill="black"/>
</g>
<defs>
<clipPath id="clip0_401_44470">
<rect width="24" height="24" fill="white"/>
</clipPath>
</defs>
</svg>
