<svg width="24" height="24" viewBox="0 0 24 24" fill="none" xmlns="http://www.w3.org/2000/svg">
<g clip-path="url(#clip0_401_44103)">
<path d="M7.83 5.0001H18V15.1701L19.83 17.0001H22V15.0001H20V13.0001H22V11.0001H20V9.0001H22V7.0001H20V3.0001H5.83L7.83 5.0001ZM12 9.1701V7.0001H16V10.0001H12.83L12 9.1701ZM9.83 7.0001H11V8.1701L9.83 7.0001ZM13.83 11.0001H16V13.1701L13.83 11.0001ZM18.17 21.0001L20.48 23.3101L21.89 21.9001L2.1 2.1001L0.690002 3.5101L2 4.8301V21.0001H18.17ZM4 19.0001V6.8301L6 8.8301V12.0001H9.17L10.17 13.0001H6V17.0001H11V13.8301L12 14.8301V17.0001H14.17L16.17 19.0001H4Z" fill="black"/>
</g>
<defs>
<clipPath id="clip0_401_44103">
<rect width="24" height="24" fill="white"/>
</clipPath>
</defs>
</svg>
