<svg width="24" height="24" viewBox="0 0 24 24" fill="none" xmlns="http://www.w3.org/2000/svg">
<g clip-path="url(#clip0_401_45485)">
<path d="M18 7V4H20V2H4V22H20V20H15.97C17.2 19.09 18 17.64 18 16V11H8V16C8 17.64 8.81 19.09 10.03 20H6V4H8V7H18Z" fill="black"/>
<path d="M13 10C13.5523 10 14 9.55228 14 9C14 8.44772 13.5523 8 13 8C12.4477 8 12 8.44772 12 9C12 9.55228 12.4477 10 13 10Z" fill="black"/>
</g>
<defs>
<clipPath id="clip0_401_45485">
<rect width="24" height="24" fill="white"/>
</clipPath>
</defs>
</svg>
