<svg width="24" height="24" viewBox="0 0 24 24" fill="none" xmlns="http://www.w3.org/2000/svg">
<g clip-path="url(#clip0_401_44890)">
<path d="M21 5C19.89 4.65 18.67 4.5 17.5 4.5C15.55 4.5 13.45 4.9 12 6C10.55 4.9 8.45 4.5 6.5 4.5C4.55 4.5 2.45 4.9 1 6V21.5C2.45 20.4 4.55 20 6.5 20C8.45 20 10.55 20.4 12 21.5C13.45 20.4 15.55 20 17.5 20C18.67 20 19.89 20.15 21 20.5C21.75 20.75 22.4 21.05 23 21.5V6C22.4 5.55 21.75 5.25 21 5ZM21 18.5C19.9 18.15 18.7 18 17.5 18C15.8 18 13.35 18.65 12 19.5V8C13.35 7.15 15.8 6.5 17.5 6.5C18.7 6.5 19.9 6.65 21 7V18.5Z" fill="black"/>
</g>
<defs>
<clipPath id="clip0_401_44890">
<rect width="24" height="24" fill="white"/>
</clipPath>
</defs>
</svg>
