<svg width="24" height="24" viewBox="0 0 24 24" fill="none" xmlns="http://www.w3.org/2000/svg">
<g clip-path="url(#clip0_401_45238)">
<path d="M12 2C6.48 2 2 6.48 2 12C2 17.52 6.48 22 12 22C17.52 22 22 17.52 22 12C22 6.48 17.52 2 12 2ZM18 12.5C18 15.81 15.31 18.5 12 18.5C8.69 18.5 6 15.81 6 12.5H8C8 14.71 9.79 16.5 12 16.5C14.21 16.5 16 14.71 16 12.5C16 10.29 14.21 8.5 12 8.5V11.5L8 7.5L12 3.5V6.5C15.31 6.5 18 9.19 18 12.5Z" fill="black"/>
</g>
<defs>
<clipPath id="clip0_401_45238">
<rect width="24" height="24" fill="white"/>
</clipPath>
</defs>
</svg>
