<svg width="24" height="24" viewBox="0 0 24 24" fill="none" xmlns="http://www.w3.org/2000/svg">
<g clip-path="url(#clip0_401_44868)">
<path d="M17.46 4C16.69 6.6 16.3 9.28 16.3 12C16.3 14.72 16.69 17.41 17.46 20H6.55002C7.32002 17.4 7.71002 14.72 7.71002 12C7.71002 9.28 7.32002 6.59 6.55002 4H17.46ZM20.24 2H3.77002C3.77002 2 4.03002 2.77 4.07002 2.88C5.16002 5.82 5.71002 8.91 5.71002 12C5.71002 15.09 5.16002 18.18 4.07002 21.12C4.03002 21.23 3.77002 22 3.77002 22H20.24C20.24 22 19.98 21.23 19.94 21.12C18.85 18.18 18.3 15.09 18.3 12C18.3 8.91 18.85 5.82 19.94 2.88C19.98 2.77 20.24 2 20.24 2Z" fill="black"/>
</g>
<defs>
<clipPath id="clip0_401_44868">
<rect width="24" height="24" fill="white"/>
</clipPath>
</defs>
</svg>
