<svg width="24" height="24" viewBox="0 0 24 24" fill="none" xmlns="http://www.w3.org/2000/svg">
<g clip-path="url(#clip0_401_45214)">
<path d="M20.39 8.55995L19.15 10.4199C19.7432 11.603 20.0336 12.9148 19.9952 14.2377C19.9568 15.5606 19.5908 16.8533 18.93 17.9999H5.06999C4.21115 16.5101 3.85528 14.7831 4.05513 13.075C4.25497 11.367 4.9999 9.76877 6.17946 8.51738C7.35903 7.26598 8.91045 6.42799 10.6037 6.12764C12.297 5.8273 14.042 6.08058 15.58 6.84995L17.44 5.60995C15.4695 4.33287 13.1125 3.78991 10.7819 4.07622C8.45132 4.36253 6.2958 5.45984 4.69304 7.17589C3.09028 8.89194 2.14252 11.1173 2.0158 13.462C1.88909 15.8067 2.59151 18.1212 3.99999 19.9999H20C21.2266 18.3612 21.9207 16.3855 21.9887 14.3397C22.0566 12.2939 21.4951 10.2765 20.38 8.55995H20.39Z" fill="black"/>
<path d="M10.59 15.41C10.7757 15.596 10.9963 15.7435 11.2391 15.8442C11.4819 15.9448 11.7422 15.9966 12.005 15.9966C12.2678 15.9966 12.5281 15.9448 12.7709 15.8442C13.0137 15.7435 13.2342 15.596 13.42 15.41L19.08 6.92004L10.59 12.58C10.404 12.7658 10.2565 12.9864 10.1559 13.2292C10.0552 13.472 10.0034 13.7322 10.0034 13.995C10.0034 14.2579 10.0552 14.5181 10.1559 14.7609C10.2565 15.0037 10.404 15.2243 10.59 15.41Z" fill="black"/>
</g>
<defs>
<clipPath id="clip0_401_45214">
<rect width="24" height="24" fill="white"/>
</clipPath>
</defs>
</svg>
