<svg width="24" height="24" viewBox="0 0 24 24" fill="none" xmlns="http://www.w3.org/2000/svg">
<g clip-path="url(#clip0_401_44982)">
<path d="M24 8.98L21.88 11.11C19.35 8.57 15.85 7 12 7C8.15 7 4.65 8.57 2.12 11.11L0 8.98C3.07 5.9 7.31 4 12 4C16.69 4 20.93 5.9 24 8.98ZM4.24 13.22L6.36 15.34C7.8 13.9 9.8 13 12 13C14.2 13 16.2 13.9 17.64 15.35L19.76 13.23C17.78 11.23 15.03 10 12 10C8.97 10 6.22 11.23 4.24 13.22ZM24 19V24H18V19H19V18C19 16.9 19.9 16 21 16C22.1 16 23 16.9 23 18V19H24ZM22 18C22 17.45 21.55 17 21 17C20.45 17 20 17.45 20 18V19H22V18ZM12 16C10.62 16 9.37 16.56 8.47 17.46L12 21L15.53 17.46C14.63 16.56 13.38 16 12 16Z" fill="black"/>
</g>
<defs>
<clipPath id="clip0_401_44982">
<rect width="24" height="24" fill="white"/>
</clipPath>
</defs>
</svg>
