<svg width="24" height="24" viewBox="0 0 24 24" fill="none" xmlns="http://www.w3.org/2000/svg">
<g clip-path="url(#clip0_401_43920)">
<path d="M14.99 7L16.36 6.37L16.99 5L17.62 6.37L18.99 7L17.62 7.63L16.99 9L16.36 7.63L14.99 7ZM20 14C21.1 14 22 13.1 22 12C22 10.9 20 8 20 8C20 8 18 10.9 18 12C18 13.1 18.9 14 20 14ZM1 22H5V11H1V22ZM9.24 9.5L15 11.65V11C15 8.58 13.28 6.56 11 6.1V4H13C13.57 4 14.1 4.17 14.55 4.45L15.98 3.02C15.15 2.39 14.13 2 13 2C11.52 2 7.5 2 7.5 2V4H9V6.11C7.22 6.48 5.8 7.79 5.25 9.5H9.24ZM22 17H13L10.91 16.27L11.24 15.33L13 16H17V14L8.97 11H7V20.02L14 22L22 19V17Z" fill="black"/>
</g>
<defs>
<clipPath id="clip0_401_43920">
<rect width="24" height="24" fill="white"/>
</clipPath>
</defs>
</svg>
