<svg width="24" height="24" viewBox="0 0 24 24" fill="none" xmlns="http://www.w3.org/2000/svg">
<g clip-path="url(#clip0_401_44077)">
<path d="M19 13C19 15.08 18.2 16.97 16.9 18.39V17H14V13H7V11H10V8.00005H14V3.46005C13.05 3.16005 12.05 3.00005 11 3.00005C5.48 3.00005 1 7.48005 1 13C1 18.52 5.48 23 11 23C16.52 23 21 18.52 21 13C21 12.66 20.98 12.33 20.95 12H18.92C18.96 12.33 19 12.66 19 13ZM10 20.93C6.05 20.44 3 17.08 3 13C3 12.38 3.08 11.79 3.21 11.21L8 16V19H10V20.93ZM22 4.00005V3.64005C22 2.33005 21.06 1.14005 19.76 1.01005C18.26 0.860048 17 2.03005 17 3.50005V4.00005H16V10H23V4.00005H22ZM21 4.00005H18V3.50005C18 2.67005 18.67 2.00005 19.5 2.00005C20.33 2.00005 21 2.67005 21 3.50005V4.00005Z" fill="black"/>
</g>
<defs>
<clipPath id="clip0_401_44077">
<rect width="24" height="24" fill="white"/>
</clipPath>
</defs>
</svg>
