<svg width="24" height="24" viewBox="0 0 24 24" fill="none" xmlns="http://www.w3.org/2000/svg">
<g clip-path="url(#clip0_401_44033)">
<path d="M10.59 5.95L3.54001 12.99L0.700012 10.3L9.25001 1.75L17.2 9.7L15.78 11.12L10.59 5.95ZM23.24 10.24L14.75 1.75L12.69 3.81L18.59 9.69L15.76 12.52L10.59 7.35L4.32001 13.62L5.74001 15.03L11.06 9.71L11.77 10.42L6.45001 15.74L7.87001 17.15L13.19 11.83L13.9 12.54L8.58001 17.86L9.99001 19.27L15.31 13.95L16.02 14.66L10.68 20L12.09 21.41L23.24 10.24Z" fill="black"/>
</g>
<defs>
<clipPath id="clip0_401_44033">
<rect width="24" height="24" fill="white"/>
</clipPath>
</defs>
</svg>
