<svg width="24" height="24" viewBox="0 0 24 24" fill="none" xmlns="http://www.w3.org/2000/svg">
<g clip-path="url(#clip0_401_44147)">
<path d="M14.71 9.5L17 7.21V11H17.5L20.35 8.15L18.21 6L20.36 3.85L17.5 1H17V4.79L14.71 2.5L14 3.21L16.79 6L14 8.79L14.71 9.5ZM18 2.91L18.94 3.85L18 4.79V2.91ZM18 7.21L18.94 8.15L18 9.09V7.21ZM21 15.46L15.73 14.85L13.21 17.37C10.38 15.93 8.06002 13.62 6.62002 10.78L9.15002 8.25L8.54002 3H3.03002C2.45002 13.18 10.82 21.55 21 20.97V15.46Z" fill="black"/>
</g>
<defs>
<clipPath id="clip0_401_44147">
<rect width="24" height="24" fill="white"/>
</clipPath>
</defs>
</svg>
