<svg width="24" height="24" viewBox="0 0 24 24" fill="none" xmlns="http://www.w3.org/2000/svg">
<g clip-path="url(#clip0_401_45397)">
<path d="M20 16L19.99 10L14.28 8.57C13.4 8.35 12.7 7.76 12.32 7H9V6H12.02L12 5H9V4H12V1H4V16H20ZM5 23C3.34 23 2 21.66 2 20C2 18.34 3.34 17 5 17C6.66 17 8 18.34 8 20C8 21.66 6.66 23 5 23ZM19 23C17.34 23 16 21.66 16 20C16 18.34 17.34 17 19 17C20.66 17 22 18.34 22 20C22 21.66 20.66 23 19 23ZM12 23C10.34 23 9 21.66 9 20C9 18.34 10.34 17 12 17C13.66 17 15 18.34 15 20C15 21.66 13.66 23 12 23Z" fill="black"/>
</g>
<defs>
<clipPath id="clip0_401_45397">
<rect width="24" height="24" fill="white"/>
</clipPath>
</defs>
</svg>
