<svg width="24" height="24" viewBox="0 0 24 24" fill="none" xmlns="http://www.w3.org/2000/svg">
<g clip-path="url(#clip0_401_45579)">
<path d="M18 13C16.09 13 14.37 12.24 13.11 11H4.81L5.85 8H11.29C11.1 7.37 11 6.7 11 6C11 5.3 11.1 4.63 11.29 4H8V6H4.43L2 13V22H5V20H17V22H20V13L19.91 12.73C19.3 12.9 18.66 13 18 13ZM6.5 17C5.67 17 5 16.33 5 15.5C5 14.67 5.67 14 6.5 14C7.33 14 8 14.67 8 15.5C8 16.33 7.33 17 6.5 17ZM15.5 17C14.67 17 14 16.33 14 15.5C14 14.67 14.67 14 15.5 14C16.33 14 17 14.67 17 15.5C17 16.33 16.33 17 15.5 17Z" fill="black"/>
<path d="M18 1C15.24 1 13 3.24 13 6C13 8.76 15.24 11 18 11C20.76 11 23 8.76 23 6C23 3.24 20.76 1 18 1ZM18.5 9H17.5V8H18.5V9ZM18.5 7H17.5V3H18.5V7Z" fill="black"/>
</g>
<defs>
<clipPath id="clip0_401_45579">
<rect width="24" height="24" fill="white"/>
</clipPath>
</defs>
</svg>
