<svg width="24" height="24" viewBox="0 0 24 24" fill="none" xmlns="http://www.w3.org/2000/svg">
<g clip-path="url(#clip0_401_45408)">
<path d="M18.5 11C16.94 11 15.58 10.1 14.92 8.79L14.13 7.12C14.12 7.1 13.63 6 12.34 6C8.72 6 6 16.69 6 19H8.5L6.4 21.8L8 23L11 19H13V23H15V18.97L13 13L13.49 10.29C14.3 11.52 15.54 12.43 17 12.81V13.5H18V12.5C18 12.22 18.22 12 18.5 12C18.78 12 19 12.22 19 12.5V23H20V12.5C20 11.67 19.33 11 18.5 11Z" fill="black"/>
<path d="M11.6 2.91C11.54 3.1 11.5 3.29 11.5 3.5C11.5 4.6 12.4 5.5 13.5 5.5C14.6 5.5 15.5 4.6 15.5 3.5C15.5 2.4 14.6 1.5 13.5 1.5C13.29 1.5 13.1 1.54 12.91 1.6C12.76 1.25 12.41 1 12 1C11.45 1 11 1.45 11 2C11 2.41 11.25 2.76 11.6 2.91Z" fill="black"/>
</g>
<defs>
<clipPath id="clip0_401_45408">
<rect width="24" height="24" fill="white"/>
</clipPath>
</defs>
</svg>
