<svg width="24" height="24" viewBox="0 0 24 24" fill="none" xmlns="http://www.w3.org/2000/svg">
<g clip-path="url(#clip0_401_44171)">
<path d="M17.88 8C17.95 7.71 18 7.41 18 7.09C18 5.78 17.35 4.56 16.26 3.84L12 1L7.74 3.84C6.65 4.56 6 5.78 6 7.09C6 7.41 6.05 7.71 6.12 8" fill="black"/>
<path d="M24 7C24 5.9 22 4 22 4C22 4 20 5.9 20 7C20 7.74 20.4 8.38 21 8.72V13H19V9H5V13H3V8.72C3.6 8.38 4 7.74 4 7C4 5.9 2 4 2 4C2 4 0 5.9 0 7C0 7.74 0.4 8.38 1 8.72V21H10V15H14V21H23V8.72C23.6 8.38 24 7.74 24 7Z" fill="black"/>
</g>
<defs>
<clipPath id="clip0_401_44171">
<rect width="24" height="24" fill="white"/>
</clipPath>
</defs>
</svg>
