<svg width="24" height="24" viewBox="0 0 24 24" fill="none" xmlns="http://www.w3.org/2000/svg">
<g clip-path="url(#clip0_401_44948)">
<path d="M19 12H21C21 7.03 16.97 3 12 3V5C15.87 5 19 8.13 19 12ZM15 12H17C17 9.24 14.76 7 12 7V9C13.66 9 15 10.34 15 12ZM13.21 17.37C10.38 15.93 8.06002 13.62 6.62002 10.78L9.15002 8.25L8.54002 3H3.03002C2.45002 13.18 10.82 21.55 21 20.97V15.46L15.73 14.85L13.21 17.37Z" fill="black"/>
</g>
<defs>
<clipPath id="clip0_401_44948">
<rect width="24" height="24" fill="white"/>
</clipPath>
</defs>
</svg>
