<svg width="24" height="24" viewBox="0 0 24 24" fill="none" xmlns="http://www.w3.org/2000/svg">
<g clip-path="url(#clip0_401_44854)">
<path d="M18 10.48V4H2V20H18V13.52L22 17.5V6.5L18 10.48ZM10 8C11.1 8 12 8.9 12 10C12 11.1 11.1 12 10 12C8.9 12 8 11.1 8 10C8 8.9 8.9 8 10 8ZM14 16H6V15.43C6 14.62 6.48 13.9 7.22 13.58C8.07 13.21 9.01 13 10 13C10.99 13 11.93 13.21 12.78 13.58C13.52 13.9 14 14.62 14 15.43V16Z" fill="black"/>
</g>
<defs>
<clipPath id="clip0_401_44854">
<rect width="24" height="24" fill="white"/>
</clipPath>
</defs>
</svg>
