<svg width="24" height="24" viewBox="0 0 24 24" fill="none" xmlns="http://www.w3.org/2000/svg">
<g clip-path="url(#clip0_401_45333)">
<path d="M19.8 2L11.6 8.7L10.39 7.66L13.99 5.58L9.41 1L8 2.41L10.74 5.15L5 8.46L3.81 12.75L6.27 17L8 16L5.97 12.48L6.32 11.18L9.5 13L10 22H12L12.5 12L21 3.4L19.8 2Z" fill="black"/>
<path d="M5 7C6.10457 7 7 6.10457 7 5C7 3.89543 6.10457 3 5 3C3.89543 3 3 3.89543 3 5C3 6.10457 3.89543 7 5 7Z" fill="black"/>
</g>
<defs>
<clipPath id="clip0_401_45333">
<rect width="24" height="24" fill="white"/>
</clipPath>
</defs>
</svg>
