<svg width="24" height="24" viewBox="0 0 24 24" fill="none" xmlns="http://www.w3.org/2000/svg">
<g clip-path="url(#clip0_401_44134)">
<path d="M11 2V7.5H14.5V10.81C14.55 9.8 15.64 9 16.99 9C18.37 9 19.49 9.84 19.49 10.88H14.5V14.44C15.26 14.8 16.11 15 17 15C20.31 15 23 12.31 23 9V2H11ZM15 7.5C14.45 7.5 14 7.05 14 6.5C14 5.95 14.45 5.5 15 5.5C15.55 5.5 16 5.95 16 6.5C16 7.05 15.55 7.5 15 7.5ZM19 7.5C18.45 7.5 18 7.05 18 6.5C18 5.95 18.45 5.5 19 5.5C19.55 5.5 20 5.95 20 6.5C20 7.05 19.55 7.5 19 7.5Z" fill="black"/>
<path d="M1 16C1 19.31 3.69 22 7 22C10.31 22 13 19.31 13 16V9H1V16ZM7 17.88C5.62 17.88 4.5 17.04 4.5 16H9.5C9.5 17.04 8.38 17.88 7 17.88ZM9 12.5C9.55 12.5 10 12.95 10 13.5C10 14.05 9.55 14.5 9 14.5C8.45 14.5 8 14.05 8 13.5C8 12.95 8.45 12.5 9 12.5ZM5 12.5C5.55 12.5 6 12.95 6 13.5C6 14.05 5.55 14.5 5 14.5C4.45 14.5 4 14.05 4 13.5C4 12.95 4.45 12.5 5 12.5Z" fill="black"/>
</g>
<defs>
<clipPath id="clip0_401_44134">
<rect width="24" height="24" fill="white"/>
</clipPath>
</defs>
</svg>
