<svg width="24" height="24" viewBox="0 0 24 24" fill="none" xmlns="http://www.w3.org/2000/svg">
<g clip-path="url(#clip0_401_45465)">
<path d="M10 13C12.2091 13 14 11.2091 14 9C14 6.79086 12.2091 5 10 5C7.79086 5 6 6.79086 6 9C6 11.2091 7.79086 13 10 13Z" fill="black"/>
<path d="M16.39 15.56C14.71 14.7 12.53 14 10 14C7.47 14 5.29 14.7 3.61 15.56C2.61 16.07 2 17.1 2 18.22V21H18V18.22C18 17.1 17.39 16.07 16.39 15.56Z" fill="black"/>
<path d="M16 1H14C14 5.97 18.03 10 23 10V8C19.14 8 16 4.86 16 1Z" fill="black"/>
<path d="M20 1H18C18 3.76 20.24 6 23 6V4C21.35 4 20 2.65 20 1Z" fill="black"/>
</g>
<defs>
<clipPath id="clip0_401_45465">
<rect width="24" height="24" fill="white"/>
</clipPath>
</defs>
</svg>
