<svg width="24" height="24" viewBox="0 0 24 24" fill="none" xmlns="http://www.w3.org/2000/svg">
<g clip-path="url(#clip0_401_45253)">
<path d="M19 9C17 7 15.99 2 9.97003 2C4.95003 2 1.94003 6 2.00003 11.52C2.06003 17.04 6.96003 19 9.97003 19C11.98 19 11.98 22 15.99 22C19 22 22 19 22 15.02C22 12 21.01 11 19 9ZM12 15.5C10.07 15.5 8.50003 13.93 8.50003 12C8.50003 10.07 10.07 8.5 12 8.5C13.93 8.5 15.5 10.07 15.5 12C15.5 13.93 13.93 15.5 12 15.5Z" fill="black"/>
</g>
<defs>
<clipPath id="clip0_401_45253">
<rect width="24" height="24" fill="white"/>
</clipPath>
</defs>
</svg>
