<svg width="24" height="24" viewBox="0 0 24 24" fill="none" xmlns="http://www.w3.org/2000/svg">
<g clip-path="url(#clip0_401_44576)">
<path d="M18.7001 12.4001C18.42 12.2401 18.13 12.1101 17.84 12.0001C18.13 11.8901 18.42 11.7601 18.7001 11.6001C20.6201 10.4901 21.6901 8.48006 21.7001 6.41006C19.91 5.38006 17.63 5.30006 15.7 6.41006C15.42 6.57006 15.16 6.76006 14.92 6.95006C14.97 6.64006 15 6.32006 15 6.00006C15 3.78006 13.79 1.85006 12 0.810059C10.21 1.85006 9.00005 3.78006 9.00005 6.00006C9.00005 6.32006 9.03005 6.64006 9.08005 6.95006C8.84005 6.75006 8.58005 6.56006 8.30005 6.40006C6.38005 5.29006 4.10005 5.37006 2.30005 6.40006C2.30005 8.47006 3.37005 10.4801 5.30005 11.5901C5.58005 11.7501 5.87005 11.8801 6.16005 11.9901C5.87005 12.1001 5.58005 12.2301 5.30005 12.3901C3.38005 13.5001 2.31005 15.5101 2.30005 17.5801C4.09005 18.6101 6.37005 18.6901 8.30005 17.5801C8.58005 17.4201 8.84005 17.2301 9.08005 17.0401C9.03005 17.3601 9.00005 17.6801 9.00005 18.0001C9.00005 20.2201 10.21 22.1501 12 23.1901C13.79 22.1501 15 20.2201 15 18.0001C15 17.6801 14.97 17.3601 14.92 17.0501C15.16 17.2501 15.42 17.4301 15.7 17.5901C17.62 18.7001 19.9001 18.6201 21.7001 17.5901C21.6901 15.5201 20.6201 13.5101 18.7001 12.4001ZM12 16.0001C9.79005 16.0001 8.00005 14.2101 8.00005 12.0001C8.00005 9.79006 9.79005 8.00006 12 8.00006C14.21 8.00006 16 9.79006 16 12.0001C16 14.2101 14.21 16.0001 12 16.0001Z" fill="black"/>
</g>
<defs>
<clipPath id="clip0_401_44576">
<rect width="24" height="24" fill="white"/>
</clipPath>
</defs>
</svg>
