<svg width="24" height="24" viewBox="0 0 24 24" fill="none" xmlns="http://www.w3.org/2000/svg">
<g clip-path="url(#clip0_401_44700)">
<path d="M1 9H3V7H1V9ZM1 13H3V11H1V13ZM9 21H11V19H9V21ZM1 17H3V15H1V17ZM1 21H3V19H1V21ZM23 3H13V9H23V3ZM21 17H23V15H21V17ZM9 5H11V3H9V5ZM5 21H7V19H5V21ZM5 5H7V3H5V5ZM1 5H3V3H1V5ZM21 13H23V11H21V13ZM13 21H15V19H13V21ZM17 21H19V19H17V21ZM21 21H23V19H21V21Z" fill="black"/>
</g>
<defs>
<clipPath id="clip0_401_44700">
<rect width="24" height="24" fill="white"/>
</clipPath>
</defs>
</svg>
