<svg width="24" height="24" viewBox="0 0 24 24" fill="none" xmlns="http://www.w3.org/2000/svg">
<g clip-path="url(#clip0_401_45291)">
<path d="M20.18 15.4L19.1 23H10.1L5 17.62L6.22 16.39L10 17.24V6.5C10 5.67 10.67 5 11.5 5C12.33 5 13 5.67 13 6.5V12.5H14.38L20.18 15.4ZM19.91 5.5H17V7H22V2H20.5V4.02C18.18 2.13 15.22 1 12 1C6.51 1 2.73 4.12 2 7H3.57C4.33 5.02 7.26 2.5 12 2.5C15.03 2.5 17.79 3.64 19.91 5.5Z" fill="black"/>
</g>
<defs>
<clipPath id="clip0_401_45291">
<rect width="24" height="24" fill="white"/>
</clipPath>
</defs>
</svg>
