<svg width="24" height="24" viewBox="0 0 24 24" fill="none" xmlns="http://www.w3.org/2000/svg">
<g clip-path="url(#clip0_401_44022)">
<path d="M9 14.25C9.69036 14.25 10.25 13.6904 10.25 13C10.25 12.3096 9.69036 11.75 9 11.75C8.30964 11.75 7.75 12.3096 7.75 13C7.75 13.6904 8.30964 14.25 9 14.25Z" fill="black"/>
<path d="M19.85 10.5901C20.79 15.4001 17.01 20.0001 12 20.0001C7.59 20.0001 4 16.4101 4 12.0001C4 11.6101 7.87 10.8801 9.74 6.3101C13.16 10.5001 17.81 10.0401 18.83 9.9001L17.35 6.6501L12.63 4.5001L16.13 2.9101C9.51 -0.139899 2 4.7701 2 12.0001C2 17.5201 6.48 22.0001 12 22.0001C19.21 22.0001 24.12 14.5501 21.1 7.8701L19.85 10.5901Z" fill="black"/>
<path d="M15 14.25C15.6904 14.25 16.25 13.6904 16.25 13C16.25 12.3096 15.6904 11.75 15 11.75C14.3096 11.75 13.75 12.3096 13.75 13C13.75 13.6904 14.3096 14.25 15 14.25Z" fill="black"/>
<path d="M20.6 5.6L19.5 8L18.4 5.6L16 4.5L18.4 3.4L19.5 1L20.6 3.4L23 4.5L20.6 5.6Z" fill="black"/>
</g>
<defs>
<clipPath id="clip0_401_44022">
<rect width="24" height="24" fill="white"/>
</clipPath>
</defs>
</svg>
