<svg width="24" height="24" viewBox="0 0 24 24" fill="none" xmlns="http://www.w3.org/2000/svg">
<g clip-path="url(#clip0_401_45733)">
<path d="M18 1C15.24 1 13 3.24 13 6C13 8.76 15.24 11 18 11C20.76 11 23 8.76 23 6C23 3.24 20.76 1 18 1ZM18.5 7H17.5V3H18.5V7ZM18.5 8V9H17.5V8H18.5ZM17.91 13C17.97 13.16 18 13.33 18 13.5C18 14.33 17.33 15 16.5 15C15.67 15 15 14.33 15 13.5C15 13.11 15.15 12.76 15.39 12.49C13.76 11.83 12.43 10.58 11.68 9H5.81L6.85 6H11C11 5.31 11.1 4.63 11.29 4H5.41L3 11V20H6V18H18V20H21V12.32C19.95 12.83 18.84 13.01 17.91 13ZM7.5 15C6.67 15 6 14.33 6 13.5C6 12.67 6.67 12 7.5 12C8.33 12 9 12.67 9 13.5C9 14.33 8.33 15 7.5 15Z" fill="black"/>
</g>
<defs>
<clipPath id="clip0_401_45733">
<rect width="24" height="24" fill="white"/>
</clipPath>
</defs>
</svg>
