<svg width="24" height="24" viewBox="0 0 24 24" fill="none" xmlns="http://www.w3.org/2000/svg">
<g clip-path="url(#clip0_401_44880)">
<path d="M11.1 12.08C8.76998 7.57001 10.6 3.60001 11.63 2.01001C6.26998 2.20001 1.97998 6.59001 1.97998 12C1.97998 12.14 1.99998 12.28 1.99998 12.42C2.61998 12.15 3.28998 12 3.99998 12C5.65998 12 7.17998 12.83 8.09998 14.15C9.76998 14.63 11 16.17 11 18C11 19.52 10.13 20.83 8.87998 21.51C9.85998 21.83 10.91 22.01 11.99 22.01C15.49 22.01 18.57 20.21 20.36 17.49C18 17.72 13.38 16.52 11.1 12.08Z" fill="black"/>
<path d="M7 16H6.82C6.4 14.84 5.3 14 4 14C2.34 14 1 15.34 1 17C1 18.66 2.34 20 4 20C4.62 20 6.49 20 7 20C8.1 20 9 19.1 9 18C9 16.9 8.1 16 7 16Z" fill="black"/>
</g>
<defs>
<clipPath id="clip0_401_44880">
<rect width="24" height="24" fill="white"/>
</clipPath>
</defs>
</svg>
