<svg width="24" height="24" viewBox="0 0 24 24" fill="none" xmlns="http://www.w3.org/2000/svg">
<g clip-path="url(#clip0_401_44382)">
<path d="M16 9H17.5L15.75 15H14.25L12.5 9H14L15 12.43L16 9ZM5.14 13L6 15H4.5L3.65 13H2.5V15H1V9H6V13H5.14ZM4.5 10.5H2.5V11.5H4.5V10.5ZM23 13H19.5V15H18V9H23V13ZM21.5 10.5H19.5V11.5H21.5V10.5ZM11.5 9V10.5H8.5V11.25H11.5V15H7V13.5H10V12.75H7V9H11.5Z" fill="black"/>
</g>
<defs>
<clipPath id="clip0_401_44382">
<rect width="24" height="24" fill="white"/>
</clipPath>
</defs>
</svg>
