<svg width="24" height="24" viewBox="0 0 24 24" fill="none" xmlns="http://www.w3.org/2000/svg">
<g clip-path="url(#clip0_401_45418)">
<path d="M21 5V19H23V5H21ZM17 19H19V5H17V19ZM15 5H1V19H15V5ZM8 7.75C9.24 7.75 10.25 8.76 10.25 10C10.25 11.24 9.24 12.25 8 12.25C6.76 12.25 5.75 11.24 5.75 10C5.75 8.76 6.76 7.75 8 7.75ZM12.5 17H3.5V16.25C3.5 14.75 6.5 14 8 14C9.5 14 12.5 14.75 12.5 16.25V17Z" fill="black"/>
</g>
<defs>
<clipPath id="clip0_401_45418">
<rect width="24" height="24" fill="white"/>
</clipPath>
</defs>
</svg>
