<svg width="24" height="24" viewBox="0 0 24 24" fill="none" xmlns="http://www.w3.org/2000/svg">
<g clip-path="url(#clip0_401_44097)">
<path d="M23 8.84C22.46 8.41 21.77 8.03 21.01 7.69C19.4 4.33 15.98 2 12 2C8.02 2 4.6 4.33 2.99 7.68C2.23 8.03 1.54 8.4 1 8.84V15.17C1.54 15.6 2.23 15.98 2.99 16.32C4.6 19.67 8.02 22 12 22C15.98 22 19.4 19.67 21.01 16.32C21.77 15.98 22.46 15.6 23 15.17V8.84ZM12 4C14.37 4 16.49 5.04 17.95 6.68C16.17 6.25 14.15 6 12 6C9.85 6 7.83 6.25 6.05 6.68C7.51 5.04 9.63 4 12 4ZM12 20C9.63 20 7.51 18.96 6.05 17.32C7.83 17.75 9.85 18 12 18C14.15 18 16.17 17.75 17.95 17.32C16.49 18.96 14.37 20 12 20Z" fill="black"/>
</g>
<defs>
<clipPath id="clip0_401_44097">
<rect width="24" height="24" fill="white"/>
</clipPath>
</defs>
</svg>
