<svg width="24" height="24" viewBox="0 0 24 24" fill="none" xmlns="http://www.w3.org/2000/svg">
<g clip-path="url(#clip0_401_44844)">
<path d="M18.11 1.76998L19.78 0.0999756L21.9 2.21998L20.23 3.88998L18.11 1.76998ZM17.11 2.76998L19.23 4.88998L13.12 11H11V8.88998L17.11 2.76998ZM15.13 2.63998L9.5 8.26998V12.51H13.74L19.36 6.88998C19.77 7.87998 20 8.98997 20 10.21C20 13.53 17.33 17.46 12 22.01C6.67 17.46 4 13.53 4 10.21C4 5.22998 7.8 2.00998 12 2.00998C13.09 2.00998 14.16 2.22998 15.13 2.63998Z" fill="black"/>
</g>
<defs>
<clipPath id="clip0_401_44844">
<rect width="24" height="24" fill="white"/>
</clipPath>
</defs>
</svg>
