<svg width="24" height="24" viewBox="0 0 24 24" fill="none" xmlns="http://www.w3.org/2000/svg">
<g clip-path="url(#clip0_401_44624)">
<path d="M20 8.00008H17V6.21008C17 3.60008 15.09 1.27008 12.49 1.02008C9.51 0.740079 7 3.08008 7 6.00008H9C9 4.87008 9.6 3.76008 10.64 3.30008C12.85 2.31008 15 3.90008 15 6.00008V8.00008H4V22.0001H20V8.00008ZM18 20.0001H6V10.0001H18V20.0001ZM12 17.0001C13.1 17.0001 14 16.1001 14 15.0001C14 13.9001 13.1 13.0001 12 13.0001C10.9 13.0001 10 13.9001 10 15.0001C10 16.1001 10.9 17.0001 12 17.0001Z" fill="black"/>
</g>
<defs>
<clipPath id="clip0_401_44624">
<rect width="24" height="24" fill="white"/>
</clipPath>
</defs>
</svg>
