<svg width="24" height="24" viewBox="0 0 24 24" fill="none" xmlns="http://www.w3.org/2000/svg">
<g clip-path="url(#clip0_401_43898)">
<path d="M12 5.5H8V4H9.5V2H4.5V4H6V5.5H2V7.5C2 7.5 2.45 7.5 3 7.5V17H6V21L8 22.5V17H11V7.5C11.55 7.5 12 7.5 12 7.5V5.5ZM9 9H6.5V10.5H9V12H6.5V13.5H9V15H5V7.5H9V9ZM19.5 10.5V10H20.5V8H13.5L13.49 10H14.5V10.5C14.5 11 13 11.66 13 13.5V22H21V13.5C21 11.66 19.5 11 19.5 10.5ZM16.5 10.5V10H17.5V10.5C17.5 12.1 19 12.5 19 13.5V14H15C15 13.79 15 13.61 15 13.5C15 12.5 16.5 12.1 16.5 10.5ZM15 20C15 20 15 19.37 15 18.5H19V20H15Z" fill="black"/>
</g>
<defs>
<clipPath id="clip0_401_43898">
<rect width="24" height="24" fill="white"/>
</clipPath>
</defs>
</svg>
