<svg width="24" height="24" viewBox="0 0 24 24" fill="none" xmlns="http://www.w3.org/2000/svg">
<g clip-path="url(#clip0_401_44617)">
<path d="M15 1H9V3H15V1Z" fill="black"/>
<path d="M13 8V10.17L19.98 17.15C20.63 15.91 21 14.5 21 13C21 10.88 20.26 8.93 19.03 7.39L20.45 5.97C20.02 5.46 19.55 4.98 19.04 4.56L17.62 5.98C16.07 4.74 14.12 4 12 4C10.5 4 9.09004 4.37 7.85004 5.02L10.83 8H13Z" fill="black"/>
<path d="M2.81001 2.81006L1.39001 4.22006L4.79001 7.62006C3.67001 9.12006 3.00001 10.9801 3.00001 13.0001C3.00001 17.9701 7.02001 22.0001 12 22.0001C14.02 22.0001 15.88 21.3301 17.38 20.2101L19.78 22.6101L21.19 21.2001L2.81001 2.81006Z" fill="black"/>
</g>
<defs>
<clipPath id="clip0_401_44617">
<rect width="24" height="24" fill="white"/>
</clipPath>
</defs>
</svg>
