<svg width="24" height="24" viewBox="0 0 24 24" fill="none" xmlns="http://www.w3.org/2000/svg">
<g clip-path="url(#clip0_401_44653)">
<path d="M8.25 9.24V5.5C8.25 4.12 9.37 3 10.75 3C12.13 3 13.25 4.12 13.25 5.5V9.24C14.46 8.43 15.25 7.06 15.25 5.5C15.25 3.01 13.24 1 10.75 1C8.26 1 6.25 3.01 6.25 5.5C6.25 7.06 7.04 8.43 8.25 9.24ZM13.33 11.5H12.25V5.5C12.25 4.67 11.58 4 10.75 4C9.92 4 9.25 4.67 9.25 5.5V16.24L5.21 15.39L4 16.62L9.38 22H18.05L19.12 14.38L13.33 11.5Z" fill="black"/>
</g>
<defs>
<clipPath id="clip0_401_44653">
<rect width="24" height="24" fill="white"/>
</clipPath>
</defs>
</svg>
