<svg width="24" height="24" viewBox="0 0 24 24" fill="none" xmlns="http://www.w3.org/2000/svg">
<g clip-path="url(#clip0_401_45810)">
<path d="M3 3V21H21V3H3ZM19 19H5V7H19V19ZM13.5 13C13.5 13.83 12.83 14.5 12 14.5C11.17 14.5 10.5 13.83 10.5 13C10.5 12.17 11.17 11.5 12 11.5C12.83 11.5 13.5 12.17 13.5 13ZM12 9C9.27 9 6.94 10.66 6 13C6.94 15.34 9.27 17 12 17C14.73 17 17.06 15.34 18 13C17.06 10.66 14.73 9 12 9ZM12 15.5C10.62 15.5 9.5 14.38 9.5 13C9.5 11.62 10.62 10.5 12 10.5C13.38 10.5 14.5 11.62 14.5 13C14.5 14.38 13.38 15.5 12 15.5Z" fill="black"/>
</g>
<defs>
<clipPath id="clip0_401_45810">
<rect width="24" height="24" fill="white"/>
</clipPath>
</defs>
</svg>
