<svg width="24" height="24" viewBox="0 0 24 24" fill="none" xmlns="http://www.w3.org/2000/svg">
<g clip-path="url(#clip0_401_44091)">
<path d="M7 10H5V17H7V10Z" fill="black"/>
<path d="M13 10H11V17H13V10Z" fill="black"/>
<path d="M22 6L12 1L2 6V8H22V6Z" fill="black"/>
<path d="M2 19V21H14.4C14.19 20.36 14.08 19.69 14.04 19H2Z" fill="black"/>
<path d="M19 12.26V10H17V13.26L19 12.26Z" fill="black"/>
<path d="M20 14L16 16V18.55C16 21.07 17.71 23.43 20 24C22.29 23.43 24 21.07 24 18.55V16L20 14ZM19.28 21L17.25 18.97L18.31 17.91L19.28 18.88L21.69 16.5L22.75 17.56L19.28 21Z" fill="black"/>
</g>
<defs>
<clipPath id="clip0_401_44091">
<rect width="24" height="24" fill="white"/>
</clipPath>
</defs>
</svg>
