<svg width="24" height="24" viewBox="0 0 24 24" fill="none" xmlns="http://www.w3.org/2000/svg">
<g clip-path="url(#clip0_401_45621)">
<path d="M16.43 11.1802C17.69 10.8902 18.9 10.9702 20 11.3002V8.0002H17V6.2202C17 3.6102 15.09 1.2802 12.49 1.0302C9.51 0.740197 7 3.0802 7 6.0002V8.0002H4V22.0002H12.26C11.25 20.5502 10.76 18.7002 11.11 16.7302C11.6 14.0002 13.74 11.7902 16.43 11.1802ZM8.9 6.0002C8.9 4.2902 10.29 2.9002 12 2.9002C13.71 2.9002 15.1 4.2902 15.1 6.0002V8.0002H8.9V6.0002Z" fill="black"/>
<path d="M18 13C15.24 13 13 15.24 13 18C13 20.76 15.24 23 18 23C20.76 23 23 20.76 23 18C23 15.24 20.76 13 18 13ZM18 15C18.83 15 19.5 15.67 19.5 16.5C19.5 17.33 18.83 18 18 18C17.17 18 16.5 17.33 16.5 16.5C16.5 15.67 17.17 15 18 15ZM18 21C16.97 21 16.06 20.48 15.52 19.68C16.25 19.26 17.09 19 18 19C18.91 19 19.75 19.26 20.48 19.68C19.94 20.48 19.03 21 18 21Z" fill="black"/>
</g>
<defs>
<clipPath id="clip0_401_45621">
<rect width="24" height="24" fill="white"/>
</clipPath>
</defs>
</svg>
