<svg width="24" height="24" viewBox="0 0 24 24" fill="none" xmlns="http://www.w3.org/2000/svg">
<g clip-path="url(#clip0_401_45131)">
<path d="M14.02 13.97L15.72 11.03C15.72 11.03 15.63 10.95 15.49 10.85L14.02 9.69L14.01 9.71C14.04 9.47 14.06 9.24 14.06 9C14.06 8.76 14.04 8.53 14 8.31L14.01 8.32L15.72 6.98L14.02 4.03L12.01 4.84V4.85C11.64 4.57 11.24 4.33 10.81 4.15H10.82L10.52 2H7.11002L6.80002 4.15H6.81002C6.38002 4.33 5.98002 4.57 5.61002 4.85V4.84L3.60002 4.03L1.90002 6.98L3.60002 8.32L3.61002 8.31C3.58002 8.53 3.56002 8.76 3.56002 9C3.56002 9.24 3.58002 9.47 3.61002 9.71L3.60002 9.69L2.13002 10.85C2.00002 10.95 1.90002 11.03 1.90002 11.03L3.60002 13.97L5.62002 13.17L5.60002 13.14C5.97002 13.43 6.37002 13.67 6.81002 13.85H6.80002L7.11002 16H10.51C10.51 16 10.53 15.87 10.55 15.7L10.82 13.85H10.81C11.25 13.67 11.65 13.43 12.02 13.14L12 13.17L14.02 13.97ZM8.81002 11C7.71002 11 6.81002 10.1 6.81002 9C6.81002 7.9 7.71002 7 8.81002 7C9.91002 7 10.81 7.9 10.81 9C10.81 10.1 9.91002 11 8.81002 11Z" fill="black"/>
<path d="M20.98 17.94L20.97 17.95C20.99 17.8 21 17.65 21 17.5C21 17.35 20.99 17.2 20.96 17.06L20.97 17.07L22.07 16.21L20.98 14.31L19.69 14.83V14.84C19.45 14.66 19.2 14.51 18.92 14.39H18.93L18.73 13H16.54L16.34 14.38H16.35C16.07 14.5 15.82 14.65 15.58 14.83V14.82L14.29 14.3L13.2 16.2L14.29 17.06L14.3 17.05C14.28 17.19 14.27 17.34 14.27 17.49C14.27 17.64 14.28 17.79 14.3 17.95L14.29 17.94L13.35 18.69C13.27 18.75 13.2 18.81 13.2 18.81L14.29 20.7L15.59 20.19L15.58 20.17C15.82 20.36 16.08 20.51 16.36 20.63H16.35L16.55 22.01H18.74C18.74 22.01 18.75 21.93 18.77 21.82L18.94 20.63H18.93C19.21 20.51 19.47 20.36 19.71 20.17L19.7 20.19L21 20.7L22.09 18.81C22.09 18.81 22.03 18.76 21.94 18.69L20.98 17.94ZM17.63 18.79C16.92 18.79 16.34 18.21 16.34 17.5C16.34 16.79 16.92 16.21 17.63 16.21C18.34 16.21 18.92 16.79 18.92 17.5C18.92 18.21 18.34 18.79 17.63 18.79Z" fill="black"/>
</g>
<defs>
<clipPath id="clip0_401_45131">
<rect width="24" height="24" fill="white"/>
</clipPath>
</defs>
</svg>
