<svg width="24" height="24" viewBox="0 0 24 24" fill="none" xmlns="http://www.w3.org/2000/svg">
<g clip-path="url(#clip0_401_45608)">
<path d="M17 10C18.08 10 19.09 10.25 20 10.68V5L12 2L4 5V11.09C4 16.14 7.41 20.85 12 22C12.03 21.99 12.05 21.98 12.08 21.98C10.8 20.71 10 18.95 10 17C10 13.13 13.13 10 17 10Z" fill="black"/>
<path d="M17 12C14.24 12 12 14.24 12 17C12 19.76 14.24 22 17 22C19.76 22 22 19.76 22 17C22 14.24 19.76 12 17 12ZM20 17.5H17.5V20H16.5V17.5H14V16.5H16.5V14H17.5V16.5H20V17.5Z" fill="black"/>
</g>
<defs>
<clipPath id="clip0_401_45608">
<rect width="24" height="24" fill="white"/>
</clipPath>
</defs>
</svg>
