<svg width="1920" height="1080" viewBox="0 0 1920 1080" fill="none" xmlns="http://www.w3.org/2000/svg">
<rect width="1920" height="1080" fill="white"/>
<ellipse cx="958.365" cy="397.818" rx="262.223" ry="261.818" fill="#E6EEFF"/>
<path d="M988.364 522.887L927.518 531.255L880.109 522.887C885.433 604.536 809.122 641.811 809.122 641.811H934.363H1059.35C1059.35 641.811 983.039 604.536 988.364 522.887Z" fill="#E5EAF2"/>
<path d="M927.517 531.001L880.108 522.634C881.629 545.201 876.812 564.219 869.207 580.194L1009.91 598.197C996.476 579.433 986.335 554.33 988.363 522.634L927.517 531.001Z" fill="#94A4C4"/>
<path d="M1201.07 659.561C1201.07 666.914 1194.99 673 1187.63 673H683.12C675.768 673 669.683 666.914 669.683 659.561C669.683 652.207 675.768 646.122 683.12 646.122H1187.89C1195.24 646.122 1201.07 652.207 1201.07 659.561Z" fill="#E5EAF2"/>
<path d="M1072.03 646.122C1072.03 653.475 1065.94 659.561 1058.59 659.561H813.178C805.826 659.561 799.741 653.475 799.741 646.122C799.741 638.768 805.826 632.683 813.178 632.683H1058.59C1066.2 632.683 1072.03 638.768 1072.03 646.122Z" fill="white"/>
<path d="M1229.21 571.826C1226.42 594.394 1205.89 610.115 1183.32 607.326L692.5 544.694C669.937 541.905 654.218 521.366 657.007 498.798L690.979 232.805C693.768 210.491 714.304 194.516 736.867 197.305L1227.69 259.936C1250 262.726 1265.97 283.265 1263.18 305.832L1229.21 571.826Z" fill="white"/>
<path d="M1227.69 259.936L736.614 197.305C714.304 194.516 693.768 210.237 690.726 232.805L656.754 498.545C656.754 499.052 656.754 499.812 656.5 500.32L1228.45 573.347C1228.45 572.84 1228.7 572.333 1228.7 571.572L1262.68 305.832C1265.97 283.518 1250 262.979 1227.69 259.936Z" fill="#61A9FF"/>
<path d="M712.63 230.818L680.463 483.113L1210.37 550.698L1242.53 298.403L712.63 230.818Z" fill="#283252"/>
<g opacity="0.1">
<path opacity="0.1" d="M680.332 316.482L662.585 454.677L958.448 225.705L820.277 208.208L680.332 316.482Z" fill="white"/>
<path opacity="0.1" d="M1239.86 263.486C1236.06 261.711 1232 260.444 1227.69 259.936L1031.21 234.833L660.81 521.619C666.641 533.791 678.303 542.666 692.501 544.441L850.7 564.726L1239.86 263.486Z" fill="white"/>
<path opacity="0.1" d="M1254.31 375.057L1257.61 348.685L960.223 578.672L986.589 581.969L1254.31 375.057Z" fill="white"/>
</g>
<g clip-path="url(#clip0_1708_11724)">
<path d="M815.947 379.269C811.695 382.458 805.528 381.82 802.339 377.568C799.15 373.315 799.787 367.149 804.04 363.96L882.074 303.361C886.327 300.171 892.493 300.809 895.682 305.062C898.872 309.314 898.234 315.481 893.981 318.67L815.947 379.269Z" fill="#E6EEFF"/>
<path d="M886.964 374.378C890.153 378.631 889.515 384.797 885.263 387.986C881.01 391.176 874.844 390.538 871.655 386.285L811.056 308.251C807.866 303.999 808.504 297.833 812.757 294.643C817.009 291.454 823.176 292.092 826.365 296.344L886.964 374.378Z" fill="#E6EEFF"/>
<path d="M1043.67 408.399C1039.42 411.588 1033.25 410.95 1030.06 406.698C1026.87 402.445 1027.51 396.279 1031.76 393.089L1110.01 332.491C1114.26 329.301 1120.43 329.939 1123.62 334.192C1126.81 338.444 1126.17 344.61 1121.92 347.8L1043.67 408.399Z" fill="#E6EEFF"/>
<path d="M1114.69 403.508C1117.88 407.761 1117.24 413.927 1112.99 417.116C1108.73 420.306 1102.57 419.668 1099.38 415.415L1038.78 337.169C1035.59 332.916 1036.23 326.75 1040.48 323.56C1044.73 320.371 1050.9 321.009 1054.09 325.261L1114.69 403.508Z" fill="#E6EEFF"/>
<path d="M993.065 477.502C987.112 476.652 982.859 471.336 983.497 465.17C985.836 446.246 972.44 429.023 953.729 426.684C934.805 424.346 917.582 437.741 915.244 456.452C914.393 462.406 909.077 466.658 902.911 466.02C896.958 465.17 892.705 459.854 893.556 453.688C897.383 422.857 925.662 400.957 956.493 404.997C987.324 409.036 1009.22 437.103 1005.18 467.934C1004.55 474.1 999.231 478.353 993.065 477.502Z" fill="#E6EEFF"/>
</g>
<path d="M769.508 775.768C764.857 775.768 760.655 774.765 756.9 772.76C753.188 770.755 750.265 768.003 748.132 764.504C746.041 760.963 744.996 756.995 744.996 752.6C744.996 748.205 746.041 744.259 748.132 740.76C750.265 737.219 753.188 734.445 756.9 732.44C760.655 730.435 764.857 729.432 769.508 729.432C774.159 729.432 778.34 730.435 782.052 732.44C785.764 734.445 788.687 737.219 790.82 740.76C792.953 744.259 794.02 748.205 794.02 752.6C794.02 756.995 792.953 760.963 790.82 764.504C788.687 768.003 785.764 770.755 782.052 772.76C778.34 774.765 774.159 775.768 769.508 775.768ZM769.508 766.936C772.153 766.936 774.543 766.339 776.676 765.144C778.809 763.907 780.473 762.2 781.668 760.024C782.905 757.848 783.524 755.373 783.524 752.6C783.524 749.827 782.905 747.352 781.668 745.176C780.473 743 778.809 741.315 776.676 740.12C774.543 738.883 772.153 738.264 769.508 738.264C766.863 738.264 764.473 738.883 762.34 740.12C760.207 741.315 758.521 743 757.284 745.176C756.089 747.352 755.492 749.827 755.492 752.6C755.492 755.373 756.089 757.848 757.284 760.024C758.521 762.2 760.207 763.907 762.34 765.144C764.473 766.339 766.863 766.936 769.508 766.936ZM817.492 775.512C813.865 775.512 810.601 774.765 807.7 773.272C804.841 771.736 802.601 769.624 800.98 766.936C799.359 764.248 798.548 761.197 798.548 757.784C798.548 754.371 799.359 751.32 800.98 748.632C802.601 745.944 804.841 743.853 807.7 742.36C810.601 740.824 813.865 740.056 817.492 740.056C821.119 740.056 824.361 740.824 827.22 742.36C830.079 743.853 832.319 745.944 833.94 748.632C835.561 751.32 836.372 754.371 836.372 757.784C836.372 761.197 835.561 764.248 833.94 766.936C832.319 769.624 830.079 771.736 827.22 773.272C824.361 774.765 821.119 775.512 817.492 775.512ZM817.492 767.32C820.052 767.32 822.143 766.467 823.764 764.76C825.428 763.011 826.26 760.685 826.26 757.784C826.26 754.883 825.428 752.579 823.764 750.872C822.143 749.123 820.052 748.248 817.492 748.248C814.932 748.248 812.82 749.123 811.156 750.872C809.492 752.579 808.66 754.883 808.66 757.784C808.66 760.685 809.492 763.011 811.156 764.76C812.82 766.467 814.932 767.32 817.492 767.32ZM859.43 775.512C855.803 775.512 852.539 774.765 849.638 773.272C846.779 771.736 844.539 769.624 842.918 766.936C841.296 764.248 840.486 761.197 840.486 757.784C840.486 754.371 841.296 751.32 842.918 748.632C844.539 745.944 846.779 743.853 849.638 742.36C852.539 740.824 855.803 740.056 859.43 740.056C863.056 740.056 866.299 740.824 869.158 742.36C872.016 743.853 874.256 745.944 875.878 748.632C877.499 751.32 878.31 754.371 878.31 757.784C878.31 761.197 877.499 764.248 875.878 766.936C874.256 769.624 872.016 771.736 869.158 773.272C866.299 774.765 863.056 775.512 859.43 775.512ZM859.43 767.32C861.99 767.32 864.08 766.467 865.702 764.76C867.366 763.011 868.198 760.685 868.198 757.784C868.198 754.883 867.366 752.579 865.702 750.872C864.08 749.123 861.99 748.248 859.43 748.248C856.87 748.248 854.758 749.123 853.094 750.872C851.43 752.579 850.598 754.883 850.598 757.784C850.598 760.685 851.43 763.011 853.094 764.76C854.758 766.467 856.87 767.32 859.43 767.32ZM905.335 740.056C908.535 740.056 911.436 740.803 914.039 742.296C916.684 743.747 918.754 745.816 920.247 748.504C921.74 751.149 922.487 754.243 922.487 757.784C922.487 761.325 921.74 764.44 920.247 767.128C918.754 769.773 916.684 771.843 914.039 773.336C911.436 774.787 908.535 775.512 905.335 775.512C900.94 775.512 897.484 774.125 894.967 771.352V787.416H884.983V740.568H894.519V744.536C896.994 741.549 900.599 740.056 905.335 740.056ZM903.607 767.32C906.167 767.32 908.258 766.467 909.879 764.76C911.543 763.011 912.375 760.685 912.375 757.784C912.375 754.883 911.543 752.579 909.879 750.872C908.258 749.123 906.167 748.248 903.607 748.248C901.047 748.248 898.935 749.123 897.271 750.872C895.65 752.579 894.839 754.883 894.839 757.784C894.839 760.685 895.65 763.011 897.271 764.76C898.935 766.467 901.047 767.32 903.607 767.32ZM940.755 775.512C937.896 775.512 935.101 775.171 932.371 774.488C929.64 773.763 927.464 772.867 925.843 771.8L929.171 764.632C930.707 765.613 932.563 766.424 934.739 767.064C936.915 767.661 939.048 767.96 941.139 767.96C945.363 767.96 947.475 766.915 947.475 764.824C947.475 763.843 946.899 763.139 945.747 762.712C944.595 762.285 942.824 761.923 940.435 761.624C937.619 761.197 935.293 760.707 933.459 760.152C931.624 759.597 930.024 758.616 928.659 757.208C927.336 755.8 926.674 753.795 926.674 751.192C926.674 749.016 927.293 747.096 928.531 745.432C929.811 743.725 931.645 742.403 934.035 741.464C936.467 740.525 939.325 740.056 942.611 740.056C945.043 740.056 947.453 740.333 949.843 740.888C952.275 741.4 954.28 742.125 955.859 743.064L952.531 750.168C949.501 748.461 946.195 747.608 942.611 747.608C940.477 747.608 938.877 747.907 937.811 748.504C936.744 749.101 936.211 749.869 936.211 750.808C936.211 751.875 936.787 752.621 937.939 753.048C939.091 753.475 940.925 753.88 943.443 754.264C946.259 754.733 948.563 755.245 950.355 755.8C952.147 756.312 953.704 757.272 955.027 758.68C956.349 760.088 957.011 762.051 957.011 764.568C957.011 766.701 956.371 768.6 955.091 770.264C953.811 771.928 951.933 773.229 949.459 774.168C947.027 775.064 944.125 775.512 940.755 775.512ZM966.947 775.512C965.197 775.512 963.725 774.915 962.531 773.72C961.336 772.525 960.739 771.032 960.739 769.24C960.739 767.405 961.336 765.933 962.531 764.824C963.725 763.672 965.197 763.096 966.947 763.096C968.696 763.096 970.168 763.672 971.363 764.824C972.557 765.933 973.155 767.405 973.155 769.24C973.155 771.032 972.557 772.525 971.363 773.72C970.168 774.915 968.696 775.512 966.947 775.512ZM983.697 775.512C981.947 775.512 980.475 774.915 979.281 773.72C978.086 772.525 977.489 771.032 977.489 769.24C977.489 767.405 978.086 765.933 979.281 764.824C980.475 763.672 981.947 763.096 983.697 763.096C985.446 763.096 986.918 763.672 988.113 764.824C989.307 765.933 989.905 767.405 989.905 769.24C989.905 771.032 989.307 772.525 988.113 773.72C986.918 774.915 985.446 775.512 983.697 775.512ZM1000.45 775.512C998.697 775.512 997.225 774.915 996.031 773.72C994.836 772.525 994.239 771.032 994.239 769.24C994.239 767.405 994.836 765.933 996.031 764.824C997.225 763.672 998.697 763.096 1000.45 763.096C1002.2 763.096 1003.67 763.672 1004.86 764.824C1006.06 765.933 1006.65 767.405 1006.65 769.24C1006.65 771.032 1006.06 772.525 1004.86 773.72C1003.67 774.915 1002.2 775.512 1000.45 775.512ZM1070.46 765.592H1063.16V775H1053.05V765.592H1028.92V758.616L1050.04 730.2H1060.92L1041.34 757.144H1053.37V748.76H1063.16V757.144H1070.46V765.592ZM1092.76 775.768C1089.05 775.768 1085.74 774.851 1082.84 773.016C1079.94 771.181 1077.65 768.536 1075.99 765.08C1074.37 761.581 1073.56 757.421 1073.56 752.6C1073.56 747.779 1074.37 743.64 1075.99 740.184C1077.65 736.685 1079.94 734.019 1082.84 732.184C1085.74 730.349 1089.05 729.432 1092.76 729.432C1096.47 729.432 1099.78 730.349 1102.68 732.184C1105.58 734.019 1107.84 736.685 1109.46 740.184C1111.13 743.64 1111.96 747.779 1111.96 752.6C1111.96 757.421 1111.13 761.581 1109.46 765.08C1107.84 768.536 1105.58 771.181 1102.68 773.016C1099.78 774.851 1096.47 775.768 1092.76 775.768ZM1092.76 767C1095.49 767 1097.62 765.827 1099.16 763.48C1100.74 761.133 1101.53 757.507 1101.53 752.6C1101.53 747.693 1100.74 744.067 1099.16 741.72C1097.62 739.373 1095.49 738.2 1092.76 738.2C1090.07 738.2 1087.94 739.373 1086.36 741.72C1084.82 744.067 1084.05 747.693 1084.05 752.6C1084.05 757.507 1084.82 761.133 1086.36 763.48C1087.94 765.827 1090.07 767 1092.76 767ZM1158.02 765.592H1150.72V775H1140.61V765.592H1116.48V758.616L1137.6 730.2H1148.48L1128.9 757.144H1140.93V748.76H1150.72V757.144H1158.02V765.592ZM1161.95 730.2H1173.86L1171.87 759.448H1163.94L1161.95 730.2ZM1167.91 775.512C1166.16 775.512 1164.68 774.957 1163.49 773.848C1162.34 772.696 1161.76 771.309 1161.76 769.688C1161.76 768.067 1162.34 766.723 1163.49 765.656C1164.64 764.547 1166.11 763.992 1167.91 763.992C1169.7 763.992 1171.17 764.547 1172.32 765.656C1173.47 766.723 1174.05 768.067 1174.05 769.688C1174.05 771.309 1173.45 772.696 1172.26 773.848C1171.11 774.957 1169.65 775.512 1167.91 775.512Z" fill="#2940D3"/>
<path d="M646.608 813.48H640.112V810.4H656.744V813.48H650.248V830H646.608V813.48ZM667.624 814.88C669.509 814.88 671.021 815.431 672.16 816.532C673.298 817.633 673.868 819.267 673.868 821.432V830H670.368V821.88C670.368 820.573 670.06 819.593 669.444 818.94C668.828 818.268 667.95 817.932 666.812 817.932C665.524 817.932 664.506 818.324 663.76 819.108C663.013 819.873 662.64 820.984 662.64 822.44V830H659.14V809.224H662.64V816.784C663.218 816.168 663.928 815.701 664.768 815.384C665.626 815.048 666.578 814.88 667.624 814.88ZM692.5 822.608C692.5 822.851 692.482 823.196 692.444 823.644H680.712C680.918 824.745 681.45 825.623 682.308 826.276C683.186 826.911 684.268 827.228 685.556 827.228C687.199 827.228 688.552 826.687 689.616 825.604L691.492 827.76C690.82 828.563 689.971 829.169 688.944 829.58C687.918 829.991 686.76 830.196 685.472 830.196C683.83 830.196 682.383 829.869 681.132 829.216C679.882 828.563 678.911 827.657 678.22 826.5C677.548 825.324 677.212 823.999 677.212 822.524C677.212 821.068 677.539 819.761 678.192 818.604C678.864 817.428 679.788 816.513 680.964 815.86C682.14 815.207 683.466 814.88 684.94 814.88C686.396 814.88 687.694 815.207 688.832 815.86C689.99 816.495 690.886 817.4 691.52 818.576C692.174 819.733 692.5 821.077 692.5 822.608ZM684.94 817.68C683.82 817.68 682.868 818.016 682.084 818.688C681.319 819.341 680.852 820.219 680.684 821.32H689.168C689.019 820.237 688.562 819.36 687.796 818.688C687.031 818.016 686.079 817.68 684.94 817.68ZM711.889 814.88C713.345 814.88 714.642 815.197 715.781 815.832C716.938 816.467 717.843 817.363 718.497 818.52C719.15 819.677 719.477 821.012 719.477 822.524C719.477 824.036 719.15 825.38 718.497 826.556C717.843 827.713 716.938 828.609 715.781 829.244C714.642 829.879 713.345 830.196 711.889 830.196C709.873 830.196 708.277 829.524 707.101 828.18V835.432H703.601V815.048H706.933V817.008C707.511 816.299 708.221 815.767 709.061 815.412C709.919 815.057 710.862 814.88 711.889 814.88ZM711.497 827.2C712.785 827.2 713.839 826.771 714.661 825.912C715.501 825.053 715.921 823.924 715.921 822.524C715.921 821.124 715.501 819.995 714.661 819.136C713.839 818.277 712.785 817.848 711.497 817.848C710.657 817.848 709.901 818.044 709.229 818.436C708.557 818.809 708.025 819.351 707.633 820.06C707.241 820.769 707.045 821.591 707.045 822.524C707.045 823.457 707.241 824.279 707.633 824.988C708.025 825.697 708.557 826.248 709.229 826.64C709.901 827.013 710.657 827.2 711.497 827.2ZM728.317 814.88C730.519 814.88 732.199 815.412 733.357 816.476C734.533 817.521 735.121 819.108 735.121 821.236V830H731.817V828.18C731.387 828.833 730.771 829.337 729.969 829.692C729.185 830.028 728.233 830.196 727.113 830.196C725.993 830.196 725.013 830.009 724.173 829.636C723.333 829.244 722.679 828.712 722.213 828.04C721.765 827.349 721.541 826.575 721.541 825.716C721.541 824.372 722.035 823.299 723.025 822.496C724.033 821.675 725.61 821.264 727.757 821.264H731.621V821.04C731.621 819.995 731.303 819.192 730.669 818.632C730.053 818.072 729.129 817.792 727.897 817.792C727.057 817.792 726.226 817.923 725.405 818.184C724.602 818.445 723.921 818.809 723.361 819.276L721.989 816.728C722.773 816.131 723.715 815.673 724.817 815.356C725.918 815.039 727.085 814.88 728.317 814.88ZM727.841 827.648C728.718 827.648 729.493 827.452 730.165 827.06C730.855 826.649 731.341 826.071 731.621 825.324V823.588H728.009C725.993 823.588 724.985 824.251 724.985 825.576C724.985 826.211 725.237 826.715 725.741 827.088C726.245 827.461 726.945 827.648 727.841 827.648ZM754.589 815.048V827.732C754.589 832.996 751.901 835.628 746.525 835.628C745.088 835.628 743.725 835.441 742.437 835.068C741.149 834.713 740.085 834.191 739.245 833.5L740.813 830.868C741.466 831.409 742.288 831.839 743.277 832.156C744.285 832.492 745.302 832.66 746.329 832.66C747.972 832.66 749.176 832.287 749.941 831.54C750.706 830.793 751.089 829.655 751.089 828.124V827.34C750.492 827.993 749.764 828.488 748.905 828.824C748.046 829.16 747.104 829.328 746.077 829.328C744.658 829.328 743.37 829.029 742.213 828.432C741.074 827.816 740.169 826.957 739.497 825.856C738.844 824.755 738.517 823.495 738.517 822.076C738.517 820.657 738.844 819.407 739.497 818.324C740.169 817.223 741.074 816.373 742.213 815.776C743.37 815.179 744.658 814.88 746.077 814.88C747.16 814.88 748.14 815.057 749.017 815.412C749.913 815.767 750.66 816.308 751.257 817.036V815.048H754.589ZM746.609 826.36C747.934 826.36 749.017 825.968 749.857 825.184C750.716 824.381 751.145 823.345 751.145 822.076C751.145 820.825 750.716 819.808 749.857 819.024C749.017 818.24 747.934 817.848 746.609 817.848C745.265 817.848 744.164 818.24 743.305 819.024C742.465 819.808 742.045 820.825 742.045 822.076C742.045 823.345 742.465 824.381 743.305 825.184C744.164 825.968 745.265 826.36 746.609 826.36ZM773.247 822.608C773.247 822.851 773.228 823.196 773.191 823.644H761.459C761.664 824.745 762.196 825.623 763.055 826.276C763.932 826.911 765.015 827.228 766.303 827.228C767.945 827.228 769.299 826.687 770.363 825.604L772.239 827.76C771.567 828.563 770.717 829.169 769.691 829.58C768.664 829.991 767.507 830.196 766.219 830.196C764.576 830.196 763.129 829.869 761.879 829.216C760.628 828.563 759.657 827.657 758.967 826.5C758.295 825.324 757.959 823.999 757.959 822.524C757.959 821.068 758.285 819.761 758.939 818.604C759.611 817.428 760.535 816.513 761.711 815.86C762.887 815.207 764.212 814.88 765.687 814.88C767.143 814.88 768.44 815.207 769.579 815.86C770.736 816.495 771.632 817.4 772.267 818.576C772.92 819.733 773.247 821.077 773.247 822.608ZM765.687 817.68C764.567 817.68 763.615 818.016 762.831 818.688C762.065 819.341 761.599 820.219 761.431 821.32H769.915C769.765 820.237 769.308 819.36 768.543 818.688C767.777 818.016 766.825 817.68 765.687 817.68ZM798.347 815.048L791.347 831.204C790.693 832.828 789.9 833.967 788.967 834.62C788.033 835.292 786.904 835.628 785.579 835.628C784.832 835.628 784.095 835.507 783.367 835.264C782.639 835.021 782.041 834.685 781.575 834.256L782.975 831.68C783.311 831.997 783.703 832.249 784.151 832.436C784.617 832.623 785.084 832.716 785.551 832.716C786.167 832.716 786.671 832.557 787.063 832.24C787.473 831.923 787.847 831.391 788.183 830.644L788.435 830.056L781.911 815.048H785.551L790.255 826.108L794.987 815.048H798.347ZM806.844 830.196C805.332 830.196 803.969 829.869 802.756 829.216C801.543 828.563 800.591 827.657 799.9 826.5C799.228 825.324 798.892 823.999 798.892 822.524C798.892 821.049 799.228 819.733 799.9 818.576C800.591 817.419 801.543 816.513 802.756 815.86C803.969 815.207 805.332 814.88 806.844 814.88C808.375 814.88 809.747 815.207 810.96 815.86C812.173 816.513 813.116 817.419 813.788 818.576C814.479 819.733 814.824 821.049 814.824 822.524C814.824 823.999 814.479 825.324 813.788 826.5C813.116 827.657 812.173 828.563 810.96 829.216C809.747 829.869 808.375 830.196 806.844 830.196ZM806.844 827.2C808.132 827.2 809.196 826.771 810.036 825.912C810.876 825.053 811.296 823.924 811.296 822.524C811.296 821.124 810.876 819.995 810.036 819.136C809.196 818.277 808.132 817.848 806.844 817.848C805.556 817.848 804.492 818.277 803.652 819.136C802.831 819.995 802.42 821.124 802.42 822.524C802.42 823.924 802.831 825.053 803.652 825.912C804.492 826.771 805.556 827.2 806.844 827.2ZM832.647 815.048V830H829.315V828.096C828.755 828.768 828.055 829.291 827.215 829.664C826.375 830.019 825.47 830.196 824.499 830.196C822.502 830.196 820.924 829.645 819.767 828.544C818.628 827.424 818.059 825.772 818.059 823.588V815.048H821.559V823.112C821.559 824.456 821.858 825.464 822.455 826.136C823.071 826.789 823.939 827.116 825.059 827.116C826.31 827.116 827.299 826.733 828.027 825.968C828.774 825.184 829.147 824.064 829.147 822.608V815.048H832.647ZM848.3 817.232C849.308 815.664 851.081 814.88 853.62 814.88V818.212C853.321 818.156 853.051 818.128 852.808 818.128C851.445 818.128 850.381 818.529 849.616 819.332C848.851 820.116 848.468 821.255 848.468 822.748V830H844.968V815.048H848.3V817.232ZM870.508 822.608C870.508 822.851 870.49 823.196 870.452 823.644H858.72C858.926 824.745 859.458 825.623 860.316 826.276C861.194 826.911 862.276 827.228 863.564 827.228C865.207 827.228 866.56 826.687 867.624 825.604L869.5 827.76C868.828 828.563 867.979 829.169 866.952 829.58C865.926 829.991 864.768 830.196 863.48 830.196C861.838 830.196 860.391 829.869 859.14 829.216C857.89 828.563 856.919 827.657 856.228 826.5C855.556 825.324 855.22 823.999 855.22 822.524C855.22 821.068 855.547 819.761 856.2 818.604C856.872 817.428 857.796 816.513 858.972 815.86C860.148 815.207 861.474 814.88 862.948 814.88C864.404 814.88 865.702 815.207 866.84 815.86C867.998 816.495 868.894 817.4 869.528 818.576C870.182 819.733 870.508 821.077 870.508 822.608ZM862.948 817.68C861.828 817.68 860.876 818.016 860.092 818.688C859.327 819.341 858.86 820.219 858.692 821.32H867.176C867.027 820.237 866.57 819.36 865.804 818.688C865.039 818.016 864.087 817.68 862.948 817.68ZM888.486 815.048V835.432H884.986V828.18C883.81 829.524 882.214 830.196 880.198 830.196C878.742 830.196 877.436 829.879 876.278 829.244C875.14 828.609 874.244 827.713 873.59 826.556C872.956 825.399 872.638 824.055 872.638 822.524C872.638 821.012 872.965 819.677 873.618 818.52C874.272 817.363 875.168 816.467 876.306 815.832C877.445 815.197 878.742 814.88 880.198 814.88C881.225 814.88 882.158 815.057 882.998 815.412C883.857 815.767 884.576 816.299 885.154 817.008V815.048H888.486ZM880.59 827.2C881.878 827.2 882.942 826.771 883.782 825.912C884.622 825.053 885.042 823.924 885.042 822.524C885.042 821.124 884.622 819.995 883.782 819.136C882.942 818.277 881.878 817.848 880.59 817.848C879.302 817.848 878.238 818.277 877.398 819.136C876.577 819.995 876.166 821.124 876.166 822.524C876.166 823.924 876.577 825.053 877.398 825.912C878.238 826.771 879.302 827.2 880.59 827.2ZM907.542 815.048V830H904.21V828.096C903.65 828.768 902.95 829.291 902.11 829.664C901.27 830.019 900.364 830.196 899.394 830.196C897.396 830.196 895.819 829.645 894.662 828.544C893.523 827.424 892.954 825.772 892.954 823.588V815.048H896.454V823.112C896.454 824.456 896.752 825.464 897.35 826.136C897.966 826.789 898.834 827.116 899.954 827.116C901.204 827.116 902.194 826.733 902.922 825.968C903.668 825.184 904.042 824.064 904.042 822.608V815.048H907.542ZM926.18 822.608C926.18 822.851 926.161 823.196 926.124 823.644H914.392C914.597 824.745 915.129 825.623 915.988 826.276C916.865 826.911 917.948 827.228 919.236 827.228C920.879 827.228 922.232 826.687 923.296 825.604L925.172 827.76C924.5 828.563 923.651 829.169 922.624 829.58C921.597 829.991 920.44 830.196 919.152 830.196C917.509 830.196 916.063 829.869 914.812 829.216C913.561 828.563 912.591 827.657 911.9 826.5C911.228 825.324 910.892 823.999 910.892 822.524C910.892 821.068 911.219 819.761 911.872 818.604C912.544 817.428 913.468 816.513 914.644 815.86C915.82 815.207 917.145 814.88 918.62 814.88C920.076 814.88 921.373 815.207 922.512 815.86C923.669 816.495 924.565 817.4 925.2 818.576C925.853 819.733 926.18 821.077 926.18 822.608ZM918.62 817.68C917.5 817.68 916.548 818.016 915.764 818.688C914.999 819.341 914.532 820.219 914.364 821.32H922.848C922.699 820.237 922.241 819.36 921.476 818.688C920.711 818.016 919.759 817.68 918.62 817.68ZM934.162 830.196C932.949 830.196 931.763 830.037 930.606 829.72C929.449 829.403 928.525 829.001 927.834 828.516L929.178 825.856C929.85 826.304 930.653 826.668 931.586 826.948C932.538 827.209 933.471 827.34 934.386 827.34C936.477 827.34 937.522 826.789 937.522 825.688C937.522 825.165 937.251 824.801 936.71 824.596C936.187 824.391 935.338 824.195 934.162 824.008C932.93 823.821 931.922 823.607 931.138 823.364C930.373 823.121 929.701 822.701 929.122 822.104C928.562 821.488 928.282 820.639 928.282 819.556C928.282 818.137 928.87 817.008 930.046 816.168C931.241 815.309 932.846 814.88 934.862 814.88C935.889 814.88 936.915 815.001 937.942 815.244C938.969 815.468 939.809 815.776 940.462 816.168L939.118 818.828C937.849 818.081 936.421 817.708 934.834 817.708C933.807 817.708 933.023 817.867 932.482 818.184C931.959 818.483 931.698 818.884 931.698 819.388C931.698 819.948 931.978 820.349 932.538 820.592C933.117 820.816 934.003 821.031 935.198 821.236C936.393 821.423 937.373 821.637 938.138 821.88C938.903 822.123 939.557 822.533 940.098 823.112C940.658 823.691 940.938 824.512 940.938 825.576C940.938 826.976 940.331 828.096 939.118 828.936C937.905 829.776 936.253 830.196 934.162 830.196ZM952.94 829.188C952.53 829.524 952.026 829.776 951.428 829.944C950.85 830.112 950.234 830.196 949.58 830.196C947.938 830.196 946.668 829.767 945.772 828.908C944.876 828.049 944.428 826.799 944.428 825.156V817.96H941.964V815.16H944.428V811.744H947.928V815.16H951.932V817.96H947.928V825.072C947.928 825.8 948.106 826.36 948.46 826.752C948.815 827.125 949.328 827.312 950 827.312C950.784 827.312 951.438 827.107 951.96 826.696L952.94 829.188ZM969.383 822.608C969.383 822.851 969.365 823.196 969.327 823.644H957.595C957.801 824.745 958.333 825.623 959.191 826.276C960.069 826.911 961.151 827.228 962.439 827.228C964.082 827.228 965.435 826.687 966.499 825.604L968.375 827.76C967.703 828.563 966.854 829.169 965.827 829.58C964.801 829.991 963.643 830.196 962.355 830.196C960.713 830.196 959.266 829.869 958.015 829.216C956.765 828.563 955.794 827.657 955.103 826.5C954.431 825.324 954.095 823.999 954.095 822.524C954.095 821.068 954.422 819.761 955.075 818.604C955.747 817.428 956.671 816.513 957.847 815.86C959.023 815.207 960.349 814.88 961.823 814.88C963.279 814.88 964.577 815.207 965.715 815.86C966.873 816.495 967.769 817.4 968.403 818.576C969.057 819.733 969.383 821.077 969.383 822.608ZM961.823 817.68C960.703 817.68 959.751 818.016 958.967 818.688C958.202 819.341 957.735 820.219 957.567 821.32H966.051C965.902 820.237 965.445 819.36 964.679 818.688C963.914 818.016 962.962 817.68 961.823 817.68ZM987.389 809.224V830H984.029V828.068C983.451 828.777 982.732 829.309 981.873 829.664C981.033 830.019 980.1 830.196 979.073 830.196C977.636 830.196 976.339 829.879 975.181 829.244C974.043 828.609 973.147 827.713 972.493 826.556C971.84 825.38 971.513 824.036 971.513 822.524C971.513 821.012 971.84 819.677 972.493 818.52C973.147 817.363 974.043 816.467 975.181 815.832C976.339 815.197 977.636 814.88 979.073 814.88C980.063 814.88 980.968 815.048 981.789 815.384C982.611 815.72 983.311 816.224 983.889 816.896V809.224H987.389ZM979.493 827.2C980.333 827.2 981.089 827.013 981.761 826.64C982.433 826.248 982.965 825.697 983.357 824.988C983.749 824.279 983.945 823.457 983.945 822.524C983.945 821.591 983.749 820.769 983.357 820.06C982.965 819.351 982.433 818.809 981.761 818.436C981.089 818.044 980.333 817.848 979.493 817.848C978.653 817.848 977.897 818.044 977.225 818.436C976.553 818.809 976.021 819.351 975.629 820.06C975.237 820.769 975.041 821.591 975.041 822.524C975.041 823.457 975.237 824.279 975.629 824.988C976.021 825.697 976.553 826.248 977.225 826.64C977.897 827.013 978.653 827.2 979.493 827.2ZM1006.57 830.196C1005.02 830.196 1003.63 829.869 1002.39 829.216C1001.16 828.563 1000.2 827.657 999.51 826.5C998.819 825.324 998.474 823.999 998.474 822.524C998.474 821.049 998.819 819.733 999.51 818.576C1000.2 817.419 1001.15 816.513 1002.37 815.86C1003.6 815.207 1005 814.88 1006.57 814.88C1008.04 814.88 1009.33 815.179 1010.43 815.776C1011.55 816.373 1012.39 817.232 1012.95 818.352L1010.26 819.92C1009.83 819.229 1009.29 818.716 1008.64 818.38C1008 818.025 1007.3 817.848 1006.54 817.848C1005.23 817.848 1004.15 818.277 1003.29 819.136C1002.43 819.976 1002 821.105 1002 822.524C1002 823.943 1002.42 825.081 1003.26 825.94C1004.12 826.78 1005.21 827.2 1006.54 827.2C1007.3 827.2 1008 827.032 1008.64 826.696C1009.29 826.341 1009.83 825.819 1010.26 825.128L1012.95 826.696C1012.37 827.816 1011.52 828.684 1010.4 829.3C1009.3 829.897 1008.02 830.196 1006.57 830.196ZM1022.48 830.196C1020.96 830.196 1019.6 829.869 1018.39 829.216C1017.18 828.563 1016.22 827.657 1015.53 826.5C1014.86 825.324 1014.52 823.999 1014.52 822.524C1014.52 821.049 1014.86 819.733 1015.53 818.576C1016.22 817.419 1017.18 816.513 1018.39 815.86C1019.6 815.207 1020.96 814.88 1022.48 814.88C1024.01 814.88 1025.38 815.207 1026.59 815.86C1027.81 816.513 1028.75 817.419 1029.42 818.576C1030.11 819.733 1030.46 821.049 1030.46 822.524C1030.46 823.999 1030.11 825.324 1029.42 826.5C1028.75 827.657 1027.81 828.563 1026.59 829.216C1025.38 829.869 1024.01 830.196 1022.48 830.196ZM1022.48 827.2C1023.76 827.2 1024.83 826.771 1025.67 825.912C1026.51 825.053 1026.93 823.924 1026.93 822.524C1026.93 821.124 1026.51 819.995 1025.67 819.136C1024.83 818.277 1023.76 817.848 1022.48 817.848C1021.19 817.848 1020.12 818.277 1019.28 819.136C1018.46 819.995 1018.05 821.124 1018.05 822.524C1018.05 823.924 1018.46 825.053 1019.28 825.912C1020.12 826.771 1021.19 827.2 1022.48 827.2ZM1048.28 815.048V830H1044.95V828.096C1044.39 828.768 1043.69 829.291 1042.85 829.664C1042.01 830.019 1041.1 830.196 1040.13 830.196C1038.13 830.196 1036.56 829.645 1035.4 828.544C1034.26 827.424 1033.69 825.772 1033.69 823.588V815.048H1037.19V823.112C1037.19 824.456 1037.49 825.464 1038.09 826.136C1038.7 826.789 1039.57 827.116 1040.69 827.116C1041.94 827.116 1042.93 826.733 1043.66 825.968C1044.41 825.184 1044.78 824.064 1044.78 822.608V815.048H1048.28ZM1052.86 809.224H1056.36V830H1052.86V809.224ZM1075.6 809.224V830H1072.24V828.068C1071.66 828.777 1070.94 829.309 1070.08 829.664C1069.24 830.019 1068.31 830.196 1067.28 830.196C1065.85 830.196 1064.55 829.879 1063.39 829.244C1062.25 828.609 1061.36 827.713 1060.7 826.556C1060.05 825.38 1059.72 824.036 1059.72 822.524C1059.72 821.012 1060.05 819.677 1060.7 818.52C1061.36 817.363 1062.25 816.467 1063.39 815.832C1064.55 815.197 1065.85 814.88 1067.28 814.88C1068.27 814.88 1069.18 815.048 1070 815.384C1070.82 815.72 1071.52 816.224 1072.1 816.896V809.224H1075.6ZM1067.7 827.2C1068.54 827.2 1069.3 827.013 1069.97 826.64C1070.64 826.248 1071.18 825.697 1071.57 824.988C1071.96 824.279 1072.16 823.457 1072.16 822.524C1072.16 821.591 1071.96 820.769 1071.57 820.06C1071.18 819.351 1070.64 818.809 1069.97 818.436C1069.3 818.044 1068.54 817.848 1067.7 817.848C1066.86 817.848 1066.11 818.044 1065.44 818.436C1064.76 818.809 1064.23 819.351 1063.84 820.06C1063.45 820.769 1063.25 821.591 1063.25 822.524C1063.25 823.457 1063.45 824.279 1063.84 824.988C1064.23 825.697 1064.76 826.248 1065.44 826.64C1066.11 827.013 1066.86 827.2 1067.7 827.2ZM1096.4 814.88C1098.29 814.88 1099.8 815.431 1100.94 816.532C1102.08 817.633 1102.65 819.267 1102.65 821.432V830H1099.15V821.88C1099.15 820.573 1098.84 819.593 1098.22 818.94C1097.61 818.268 1096.73 817.932 1095.59 817.932C1094.3 817.932 1093.28 818.324 1092.54 819.108C1091.79 819.873 1091.42 820.984 1091.42 822.44V830H1087.92V815.048H1091.25V816.98C1091.83 816.289 1092.56 815.767 1093.43 815.412C1094.31 815.057 1095.3 814.88 1096.4 814.88ZM1113.94 830.196C1112.43 830.196 1111.07 829.869 1109.85 829.216C1108.64 828.563 1107.69 827.657 1107 826.5C1106.33 825.324 1105.99 823.999 1105.99 822.524C1105.99 821.049 1106.33 819.733 1107 818.576C1107.69 817.419 1108.64 816.513 1109.85 815.86C1111.07 815.207 1112.43 814.88 1113.94 814.88C1115.47 814.88 1116.84 815.207 1118.06 815.86C1119.27 816.513 1120.21 817.419 1120.89 818.576C1121.58 819.733 1121.92 821.049 1121.92 822.524C1121.92 823.999 1121.58 825.324 1120.89 826.5C1120.21 827.657 1119.27 828.563 1118.06 829.216C1116.84 829.869 1115.47 830.196 1113.94 830.196ZM1113.94 827.2C1115.23 827.2 1116.29 826.771 1117.13 825.912C1117.97 825.053 1118.39 823.924 1118.39 822.524C1118.39 821.124 1117.97 819.995 1117.13 819.136C1116.29 818.277 1115.23 817.848 1113.94 817.848C1112.65 817.848 1111.59 818.277 1110.75 819.136C1109.93 819.995 1109.52 821.124 1109.52 822.524C1109.52 823.924 1109.93 825.053 1110.75 825.912C1111.59 826.771 1112.65 827.2 1113.94 827.2ZM1134.26 829.188C1133.85 829.524 1133.34 829.776 1132.74 829.944C1132.17 830.112 1131.55 830.196 1130.9 830.196C1129.25 830.196 1127.98 829.767 1127.09 828.908C1126.19 828.049 1125.74 826.799 1125.74 825.156V817.96H1123.28V815.16H1125.74V811.744H1129.24V815.16H1133.25V817.96H1129.24V825.072C1129.24 825.8 1129.42 826.36 1129.78 826.752C1130.13 827.125 1130.64 827.312 1131.32 827.312C1132.1 827.312 1132.75 827.107 1133.28 826.696L1134.26 829.188ZM1153.16 814.88C1154.62 814.88 1155.92 815.197 1157.05 815.832C1158.21 816.467 1159.12 817.363 1159.77 818.52C1160.42 819.677 1160.75 821.012 1160.75 822.524C1160.75 824.036 1160.42 825.38 1159.77 826.556C1159.12 827.713 1158.21 828.609 1157.05 829.244C1155.92 829.879 1154.62 830.196 1153.16 830.196C1152.14 830.196 1151.19 830.019 1150.33 829.664C1149.49 829.309 1148.78 828.777 1148.21 828.068V830H1144.87V809.224H1148.37V816.868C1148.97 816.215 1149.67 815.72 1150.47 815.384C1151.3 815.048 1152.19 814.88 1153.16 814.88ZM1152.77 827.2C1154.06 827.2 1155.11 826.771 1155.93 825.912C1156.77 825.053 1157.19 823.924 1157.19 822.524C1157.19 821.124 1156.77 819.995 1155.93 819.136C1155.11 818.277 1154.06 817.848 1152.77 817.848C1151.93 817.848 1151.17 818.044 1150.5 818.436C1149.83 818.809 1149.3 819.351 1148.91 820.06C1148.51 820.769 1148.32 821.591 1148.32 822.524C1148.32 823.457 1148.51 824.279 1148.91 824.988C1149.3 825.697 1149.83 826.248 1150.5 826.64C1151.17 827.013 1151.93 827.2 1152.77 827.2ZM1178.13 822.608C1178.13 822.851 1178.11 823.196 1178.07 823.644H1166.34C1166.54 824.745 1167.07 825.623 1167.93 826.276C1168.81 826.911 1169.89 827.228 1171.18 827.228C1172.82 827.228 1174.18 826.687 1175.24 825.604L1177.12 827.76C1176.45 828.563 1175.6 829.169 1174.57 829.58C1173.54 829.991 1172.39 830.196 1171.1 830.196C1169.45 830.196 1168.01 829.869 1166.76 829.216C1165.51 828.563 1164.54 827.657 1163.85 826.5C1163.17 825.324 1162.84 823.999 1162.84 822.524C1162.84 821.068 1163.16 819.761 1163.82 818.604C1164.49 817.428 1165.41 816.513 1166.59 815.86C1167.77 815.207 1169.09 814.88 1170.57 814.88C1172.02 814.88 1173.32 815.207 1174.46 815.86C1175.61 816.495 1176.51 817.4 1177.15 818.576C1177.8 819.733 1178.13 821.077 1178.13 822.608ZM1170.57 817.68C1169.45 817.68 1168.49 818.016 1167.71 818.688C1166.94 819.341 1166.48 820.219 1166.31 821.32H1174.79C1174.64 820.237 1174.19 819.36 1173.42 818.688C1172.66 818.016 1171.7 817.68 1170.57 817.68ZM1195.3 811.856C1193.83 811.856 1193.09 812.659 1193.09 814.264V815.16H1197.21V817.96H1193.2V830H1189.7V817.96H1187.24V815.16H1189.7V814.208C1189.7 812.603 1190.17 811.343 1191.1 810.428C1192.04 809.495 1193.35 809.028 1195.05 809.028C1196.39 809.028 1197.45 809.299 1198.21 809.84L1197.23 812.472C1196.64 812.061 1195.99 811.856 1195.3 811.856ZM1206.06 830.196C1204.55 830.196 1203.19 829.869 1201.97 829.216C1200.76 828.563 1199.81 827.657 1199.12 826.5C1198.45 825.324 1198.11 823.999 1198.11 822.524C1198.11 821.049 1198.45 819.733 1199.12 818.576C1199.81 817.419 1200.76 816.513 1201.97 815.86C1203.19 815.207 1204.55 814.88 1206.06 814.88C1207.59 814.88 1208.97 815.207 1210.18 815.86C1211.39 816.513 1212.33 817.419 1213.01 818.576C1213.7 819.733 1214.04 821.049 1214.04 822.524C1214.04 823.999 1213.7 825.324 1213.01 826.5C1212.33 827.657 1211.39 828.563 1210.18 829.216C1208.97 829.869 1207.59 830.196 1206.06 830.196ZM1206.06 827.2C1207.35 827.2 1208.41 826.771 1209.25 825.912C1210.09 825.053 1210.51 823.924 1210.51 822.524C1210.51 821.124 1210.09 819.995 1209.25 819.136C1208.41 818.277 1207.35 817.848 1206.06 817.848C1204.77 817.848 1203.71 818.277 1202.87 819.136C1202.05 819.995 1201.64 821.124 1201.64 822.524C1201.64 823.924 1202.05 825.053 1202.87 825.912C1203.71 826.771 1204.77 827.2 1206.06 827.2ZM1231.87 815.048V830H1228.53V828.096C1227.97 828.768 1227.27 829.291 1226.43 829.664C1225.59 830.019 1224.69 830.196 1223.72 830.196C1221.72 830.196 1220.14 829.645 1218.99 828.544C1217.85 827.424 1217.28 825.772 1217.28 823.588V815.048H1220.78V823.112C1220.78 824.456 1221.08 825.464 1221.67 826.136C1222.29 826.789 1223.16 827.116 1224.28 827.116C1225.53 827.116 1226.52 826.733 1227.25 825.968C1227.99 825.184 1228.37 824.064 1228.37 822.608V815.048H1231.87ZM1244.93 814.88C1246.82 814.88 1248.33 815.431 1249.47 816.532C1250.61 817.633 1251.18 819.267 1251.18 821.432V830H1247.68V821.88C1247.68 820.573 1247.37 819.593 1246.75 818.94C1246.14 818.268 1245.26 817.932 1244.12 817.932C1242.83 817.932 1241.82 818.324 1241.07 819.108C1240.32 819.873 1239.95 820.984 1239.95 822.44V830H1236.45V815.048H1239.78V816.98C1240.36 816.289 1241.09 815.767 1241.96 815.412C1242.84 815.057 1243.83 814.88 1244.93 814.88ZM1270.4 809.224V830H1267.04V828.068C1266.46 828.777 1265.74 829.309 1264.88 829.664C1264.04 830.019 1263.11 830.196 1262.08 830.196C1260.64 830.196 1259.35 829.879 1258.19 829.244C1257.05 828.609 1256.15 827.713 1255.5 826.556C1254.85 825.38 1254.52 824.036 1254.52 822.524C1254.52 821.012 1254.85 819.677 1255.5 818.52C1256.15 817.363 1257.05 816.467 1258.19 815.832C1259.35 815.197 1260.64 814.88 1262.08 814.88C1263.07 814.88 1263.98 815.048 1264.8 815.384C1265.62 815.72 1266.32 816.224 1266.9 816.896V809.224H1270.4ZM1262.5 827.2C1263.34 827.2 1264.1 827.013 1264.77 826.64C1265.44 826.248 1265.97 825.697 1266.37 824.988C1266.76 824.279 1266.95 823.457 1266.95 822.524C1266.95 821.591 1266.76 820.769 1266.37 820.06C1265.97 819.351 1265.44 818.809 1264.77 818.436C1264.1 818.044 1263.34 817.848 1262.5 817.848C1261.66 817.848 1260.91 818.044 1260.23 818.436C1259.56 818.809 1259.03 819.351 1258.64 820.06C1258.25 820.769 1258.05 821.591 1258.05 822.524C1258.05 823.457 1258.25 824.279 1258.64 824.988C1259.03 825.697 1259.56 826.248 1260.23 826.64C1260.91 827.013 1261.66 827.2 1262.5 827.2ZM1276.1 830.196C1275.46 830.196 1274.92 829.981 1274.47 829.552C1274.02 829.104 1273.8 828.544 1273.8 827.872C1273.8 827.181 1274.01 826.621 1274.44 826.192C1274.89 825.763 1275.44 825.548 1276.1 825.548C1276.75 825.548 1277.29 825.763 1277.72 826.192C1278.17 826.621 1278.39 827.181 1278.39 827.872C1278.39 828.544 1278.17 829.104 1277.72 829.552C1277.27 829.981 1276.73 830.196 1276.1 830.196Z" fill="#121625"/>
<path d="M881.62 931.448C882.316 931.676 882.868 932.06 883.276 932.6C883.684 933.128 883.888 933.788 883.888 934.58C883.888 935.672 883.468 936.518 882.628 937.118C881.788 937.706 880.564 938 878.956 938H872.692V925.4H878.596C880.084 925.4 881.23 925.694 882.034 926.282C882.838 926.858 883.24 927.656 883.24 928.676C883.24 929.3 883.096 929.852 882.808 930.332C882.52 930.812 882.124 931.184 881.62 931.448ZM875.032 927.236V930.71H878.344C879.16 930.71 879.784 930.566 880.216 930.278C880.66 929.978 880.882 929.546 880.882 928.982C880.882 928.406 880.66 927.974 880.216 927.686C879.784 927.386 879.16 927.236 878.344 927.236H875.032ZM878.812 936.164C880.624 936.164 881.53 935.558 881.53 934.346C881.53 933.134 880.624 932.528 878.812 932.528H875.032V936.164H878.812ZM889.841 928.28C891.257 928.28 892.337 928.622 893.081 929.306C893.837 929.978 894.215 930.998 894.215 932.366V938H892.091V936.83C891.815 937.25 891.419 937.574 890.903 937.802C890.399 938.018 889.787 938.126 889.067 938.126C888.347 938.126 887.717 938.006 887.177 937.766C886.637 937.514 886.217 937.172 885.917 936.74C885.629 936.296 885.485 935.798 885.485 935.246C885.485 934.382 885.803 933.692 886.439 933.176C887.087 932.648 888.101 932.384 889.481 932.384H891.965V932.24C891.965 931.568 891.761 931.052 891.353 930.692C890.957 930.332 890.363 930.152 889.571 930.152C889.031 930.152 888.497 930.236 887.969 930.404C887.453 930.572 887.015 930.806 886.655 931.106L885.773 929.468C886.277 929.084 886.883 928.79 887.591 928.586C888.299 928.382 889.049 928.28 889.841 928.28ZM889.535 936.488C890.099 936.488 890.597 936.362 891.029 936.11C891.473 935.846 891.785 935.474 891.965 934.994V933.878H889.643C888.347 933.878 887.699 934.304 887.699 935.156C887.699 935.564 887.861 935.888 888.185 936.128C888.509 936.368 888.959 936.488 889.535 936.488ZM901.601 938.126C900.605 938.126 899.711 937.916 898.919 937.496C898.127 937.076 897.509 936.494 897.065 935.75C896.621 934.994 896.399 934.142 896.399 933.194C896.399 932.246 896.621 931.4 897.065 930.656C897.509 929.912 898.121 929.33 898.901 928.91C899.693 928.49 900.593 928.28 901.601 928.28C902.549 928.28 903.377 928.472 904.085 928.856C904.805 929.24 905.345 929.792 905.705 930.512L903.977 931.52C903.701 931.076 903.353 930.746 902.933 930.53C902.525 930.302 902.075 930.188 901.583 930.188C900.743 930.188 900.047 930.464 899.495 931.016C898.943 931.556 898.667 932.282 898.667 933.194C898.667 934.106 898.937 934.838 899.477 935.39C900.029 935.93 900.731 936.2 901.583 936.2C902.075 936.2 902.525 936.092 902.933 935.876C903.353 935.648 903.701 935.312 903.977 934.868L905.705 935.876C905.333 936.596 904.787 937.154 904.067 937.55C903.359 937.934 902.537 938.126 901.601 938.126ZM911.486 933.878L909.812 935.462V938H907.562V924.644H909.812V932.708L914.474 928.388H917.174L913.16 932.42L917.552 938H914.816L911.486 933.878ZM929.758 937.478C929.494 937.694 929.17 937.856 928.786 937.964C928.414 938.072 928.018 938.126 927.598 938.126C926.542 938.126 925.726 937.85 925.15 937.298C924.574 936.746 924.286 935.942 924.286 934.886V930.26H922.702V928.46H924.286V926.264H926.536V928.46H929.11V930.26H926.536V934.832C926.536 935.3 926.65 935.66 926.878 935.912C927.106 936.152 927.436 936.272 927.868 936.272C928.372 936.272 928.792 936.14 929.128 935.876L929.758 937.478ZM935.612 938.126C934.64 938.126 933.764 937.916 932.984 937.496C932.204 937.076 931.592 936.494 931.148 935.75C930.716 934.994 930.5 934.142 930.5 933.194C930.5 932.246 930.716 931.4 931.148 930.656C931.592 929.912 932.204 929.33 932.984 928.91C933.764 928.49 934.64 928.28 935.612 928.28C936.596 928.28 937.478 928.49 938.258 928.91C939.038 929.33 939.644 929.912 940.076 930.656C940.52 931.4 940.742 932.246 940.742 933.194C940.742 934.142 940.52 934.994 940.076 935.75C939.644 936.494 939.038 937.076 938.258 937.496C937.478 937.916 936.596 938.126 935.612 938.126ZM935.612 936.2C936.44 936.2 937.124 935.924 937.664 935.372C938.204 934.82 938.474 934.094 938.474 933.194C938.474 932.294 938.204 931.568 937.664 931.016C937.124 930.464 936.44 930.188 935.612 930.188C934.784 930.188 934.1 930.464 933.56 931.016C933.032 931.568 932.768 932.294 932.768 933.194C932.768 934.094 933.032 934.82 933.56 935.372C934.1 935.924 934.784 936.2 935.612 936.2ZM948.085 925.4H953.593C954.937 925.4 956.131 925.664 957.175 926.192C958.219 926.708 959.029 927.446 959.605 928.406C960.181 929.354 960.469 930.452 960.469 931.7C960.469 932.948 960.181 934.052 959.605 935.012C959.029 935.96 958.219 936.698 957.175 937.226C956.131 937.742 954.937 938 953.593 938H948.085V925.4ZM953.485 936.02C954.409 936.02 955.219 935.846 955.915 935.498C956.623 935.138 957.163 934.634 957.535 933.986C957.919 933.326 958.111 932.564 958.111 931.7C958.111 930.836 957.919 930.08 957.535 929.432C957.163 928.772 956.623 928.268 955.915 927.92C955.219 927.56 954.409 927.38 953.485 927.38H950.425V936.02H953.485ZM966.412 928.28C967.828 928.28 968.908 928.622 969.652 929.306C970.408 929.978 970.786 930.998 970.786 932.366V938H968.662V936.83C968.386 937.25 967.99 937.574 967.474 937.802C966.97 938.018 966.358 938.126 965.638 938.126C964.918 938.126 964.288 938.006 963.748 937.766C963.208 937.514 962.788 937.172 962.488 936.74C962.2 936.296 962.056 935.798 962.056 935.246C962.056 934.382 962.374 933.692 963.01 933.176C963.658 932.648 964.672 932.384 966.052 932.384H968.536V932.24C968.536 931.568 968.332 931.052 967.924 930.692C967.528 930.332 966.934 930.152 966.142 930.152C965.602 930.152 965.068 930.236 964.54 930.404C964.024 930.572 963.586 930.806 963.226 931.106L962.344 929.468C962.848 929.084 963.454 928.79 964.162 928.586C964.87 928.382 965.62 928.28 966.412 928.28ZM966.106 936.488C966.67 936.488 967.168 936.362 967.6 936.11C968.044 935.846 968.356 935.474 968.536 934.994V933.878H966.214C964.918 933.878 964.27 934.304 964.27 935.156C964.27 935.564 964.432 935.888 964.756 936.128C965.08 936.368 965.53 936.488 966.106 936.488ZM976.643 938.126C975.863 938.126 975.101 938.024 974.357 937.82C973.613 937.616 973.019 937.358 972.575 937.046L973.439 935.336C973.871 935.624 974.387 935.858 974.987 936.038C975.599 936.206 976.199 936.29 976.787 936.29C978.131 936.29 978.803 935.936 978.803 935.228C978.803 934.892 978.629 934.658 978.281 934.526C977.945 934.394 977.399 934.268 976.643 934.148C975.851 934.028 975.203 933.89 974.699 933.734C974.207 933.578 973.775 933.308 973.403 932.924C973.043 932.528 972.863 931.982 972.863 931.286C972.863 930.374 973.241 929.648 973.997 929.108C974.765 928.556 975.797 928.28 977.093 928.28C977.753 928.28 978.413 928.358 979.073 928.514C979.733 928.658 980.273 928.856 980.693 929.108L979.829 930.818C979.013 930.338 978.095 930.098 977.075 930.098C976.415 930.098 975.911 930.2 975.563 930.404C975.227 930.596 975.059 930.854 975.059 931.178C975.059 931.538 975.239 931.796 975.599 931.952C975.971 932.096 976.541 932.234 977.309 932.366C978.077 932.486 978.707 932.624 979.199 932.78C979.691 932.936 980.111 933.2 980.459 933.572C980.819 933.944 980.999 934.472 980.999 935.156C980.999 936.056 980.609 936.776 979.829 937.316C979.049 937.856 977.987 938.126 976.643 938.126ZM988.391 928.28C989.603 928.28 990.575 928.634 991.307 929.342C992.039 930.05 992.405 931.1 992.405 932.492V938H990.155V932.78C990.155 931.94 989.957 931.31 989.561 930.89C989.165 930.458 988.601 930.242 987.869 930.242C987.041 930.242 986.387 930.494 985.907 930.998C985.427 931.49 985.187 932.204 985.187 933.14V938H982.937V924.644H985.187V929.504C985.559 929.108 986.015 928.808 986.555 928.604C987.107 928.388 987.719 928.28 988.391 928.28ZM1000.59 928.28C1001.52 928.28 1002.36 928.484 1003.09 928.892C1003.83 929.3 1004.42 929.876 1004.84 930.62C1005.26 931.364 1005.47 932.222 1005.47 933.194C1005.47 934.166 1005.26 935.03 1004.84 935.786C1004.42 936.53 1003.83 937.106 1003.09 937.514C1002.36 937.922 1001.52 938.126 1000.59 938.126C999.927 938.126 999.321 938.012 998.769 937.784C998.229 937.556 997.773 937.214 997.401 936.758V938H995.259V924.644H997.509V929.558C997.893 929.138 998.343 928.82 998.859 928.604C999.387 928.388 999.963 928.28 1000.59 928.28ZM1000.34 936.2C1001.16 936.2 1001.84 935.924 1002.37 935.372C1002.91 934.82 1003.18 934.094 1003.18 933.194C1003.18 932.294 1002.91 931.568 1002.37 931.016C1001.84 930.464 1001.16 930.188 1000.34 930.188C999.795 930.188 999.309 930.314 998.877 930.566C998.445 930.806 998.103 931.154 997.851 931.61C997.599 932.066 997.473 932.594 997.473 933.194C997.473 933.794 997.599 934.322 997.851 934.778C998.103 935.234 998.445 935.588 998.877 935.84C999.309 936.08 999.795 936.2 1000.34 936.2ZM1011.92 938.126C1010.95 938.126 1010.07 937.916 1009.29 937.496C1008.51 937.076 1007.9 936.494 1007.46 935.75C1007.02 934.994 1006.81 934.142 1006.81 933.194C1006.81 932.246 1007.02 931.4 1007.46 930.656C1007.9 929.912 1008.51 929.33 1009.29 928.91C1010.07 928.49 1010.95 928.28 1011.92 928.28C1012.9 928.28 1013.79 928.49 1014.57 928.91C1015.35 929.33 1015.95 929.912 1016.38 930.656C1016.83 931.4 1017.05 932.246 1017.05 933.194C1017.05 934.142 1016.83 934.994 1016.38 935.75C1015.95 936.494 1015.35 937.076 1014.57 937.496C1013.79 937.916 1012.9 938.126 1011.92 938.126ZM1011.92 936.2C1012.75 936.2 1013.43 935.924 1013.97 935.372C1014.51 934.82 1014.78 934.094 1014.78 933.194C1014.78 932.294 1014.51 931.568 1013.97 931.016C1013.43 930.464 1012.75 930.188 1011.92 930.188C1011.09 930.188 1010.41 930.464 1009.87 931.016C1009.34 931.568 1009.08 932.294 1009.08 933.194C1009.08 934.094 1009.34 934.82 1009.87 935.372C1010.41 935.924 1011.09 936.2 1011.92 936.2ZM1022.75 928.28C1024.17 928.28 1025.25 928.622 1025.99 929.306C1026.75 929.978 1027.12 930.998 1027.12 932.366V938H1025V936.83C1024.72 937.25 1024.33 937.574 1023.81 937.802C1023.31 938.018 1022.7 938.126 1021.98 938.126C1021.26 938.126 1020.63 938.006 1020.09 937.766C1019.55 937.514 1019.13 937.172 1018.83 936.74C1018.54 936.296 1018.39 935.798 1018.39 935.246C1018.39 934.382 1018.71 933.692 1019.35 933.176C1020 932.648 1021.01 932.384 1022.39 932.384H1024.87V932.24C1024.87 931.568 1024.67 931.052 1024.26 930.692C1023.87 930.332 1023.27 930.152 1022.48 930.152C1021.94 930.152 1021.41 930.236 1020.88 930.404C1020.36 930.572 1019.92 930.806 1019.56 931.106L1018.68 929.468C1019.19 929.084 1019.79 928.79 1020.5 928.586C1021.21 928.382 1021.96 928.28 1022.75 928.28ZM1022.44 936.488C1023.01 936.488 1023.51 936.362 1023.94 936.11C1024.38 935.846 1024.69 935.474 1024.87 934.994V933.878H1022.55C1021.26 933.878 1020.61 934.304 1020.61 935.156C1020.61 935.564 1020.77 935.888 1021.09 936.128C1021.42 936.368 1021.87 936.488 1022.44 936.488ZM1032.15 929.792C1032.8 928.784 1033.94 928.28 1035.57 928.28V930.422C1035.38 930.386 1035.21 930.368 1035.05 930.368C1034.18 930.368 1033.49 930.626 1033 931.142C1032.51 931.646 1032.26 932.378 1032.26 933.338V938H1030.01V928.388H1032.15V929.792ZM1046.81 924.644V938H1044.65V936.758C1044.28 937.214 1043.81 937.556 1043.26 937.784C1042.72 938.012 1042.12 938.126 1041.46 938.126C1040.54 938.126 1039.7 937.922 1038.96 937.514C1038.23 937.106 1037.65 936.53 1037.23 935.786C1036.81 935.03 1036.6 934.166 1036.6 933.194C1036.6 932.222 1036.81 931.364 1037.23 930.62C1037.65 929.876 1038.23 929.3 1038.96 928.892C1039.7 928.484 1040.54 928.28 1041.46 928.28C1042.1 928.28 1042.68 928.388 1043.21 928.604C1043.74 928.82 1044.19 929.144 1044.56 929.576V924.644H1046.81ZM1041.73 936.2C1042.27 936.2 1042.76 936.08 1043.19 935.84C1043.62 935.588 1043.96 935.234 1044.22 934.778C1044.47 934.322 1044.59 933.794 1044.59 933.194C1044.59 932.594 1044.47 932.066 1044.22 931.61C1043.96 931.154 1043.62 930.806 1043.19 930.566C1042.76 930.314 1042.27 930.188 1041.73 930.188C1041.19 930.188 1040.71 930.314 1040.27 930.566C1039.84 930.806 1039.5 931.154 1039.25 931.61C1039 932.066 1038.87 932.594 1038.87 933.194C1038.87 933.794 1039 934.322 1039.25 934.778C1039.5 935.234 1039.84 935.588 1040.27 935.84C1040.71 936.08 1041.19 936.2 1041.73 936.2Z" fill="#2940D3"/>
<path d="M871 939.8H1048.28V940.7H871V939.8Z" fill="#2940D3"/>
<defs>
<clipPath id="clip0_1708_11724">
<rect width="325.32" height="185.198" fill="white" transform="translate(800.212 292.517)"/>
</clipPath>
</defs>
</svg>
