<svg width="1920" height="1080" viewBox="0 0 1920 1080" fill="none" xmlns="http://www.w3.org/2000/svg">
<rect width="1920" height="1080" fill="#283252"/>
<path d="M968.597 407.495H943.581L929.853 454.69H957.004L940.225 520.457L989.342 436.421H960.36L968.597 407.495Z" fill="#FF9777"/>
<path d="M857.134 622.679L853.223 677.815L1053.24 692L1057.15 636.864L857.134 622.679Z" fill="#61A9FF"/>
<path d="M921.782 603.364H911.871V616.135H887.855V603.364H849.543V587.544L880.993 542.181H906.534L878.706 584.113H888.808V572.868H912.252V584.113H922.164V603.364H921.782Z" fill="#61A9FF"/>
<path d="M941.415 613.085C936.46 610.035 932.457 605.651 929.598 599.743C926.739 593.834 925.405 586.972 925.405 578.967C925.405 570.962 926.739 564.1 929.598 558.192C932.457 552.283 936.46 547.899 941.415 544.849C946.371 541.8 952.28 540.275 958.76 540.275C965.241 540.275 971.15 541.8 976.105 544.849C981.061 547.899 985.064 552.283 987.923 558.192C990.782 563.91 992.116 570.962 992.116 578.967C992.116 586.972 990.782 593.834 987.923 599.743C985.064 605.461 981.061 610.035 976.105 613.085C971.15 616.134 965.241 617.659 958.76 617.659C952.28 617.659 946.371 616.134 941.415 613.085ZM967.338 578.967C967.338 566.578 964.479 560.288 958.951 560.288C953.233 560.288 950.564 566.578 950.564 578.967C950.564 591.356 953.423 597.646 958.951 597.646C964.479 597.837 967.338 591.547 967.338 578.967Z" fill="#61A9FF"/>
<path d="M1070.07 603.364H1060.16V616.135H1035.95V603.364H997.643V587.544L1029.09 542.181H1054.63L1026.81 584.113H1036.91V572.868H1060.35V584.113H1070.26V603.364H1070.07Z" fill="#61A9FF"/>
<path d="M905.962 663.785L905.772 666.262L886.902 664.928L888.808 638.244L907.106 639.578L906.915 642.056L891.476 640.912L890.714 650.443L904.438 651.396L904.247 653.873L890.523 652.92L889.761 662.832L905.962 663.785Z" fill="white"/>
<path d="M930.551 667.978L925.023 659.02C924.261 659.02 923.689 659.02 922.926 659.02L915.874 658.448L915.302 666.834L912.443 666.644L914.349 639.96L924.261 640.722C930.932 641.294 934.935 644.915 934.553 650.633C934.172 654.827 931.885 657.495 927.882 658.639L933.791 668.169L930.551 667.978ZM931.504 650.633C931.885 646.44 929.216 643.772 923.879 643.39L916.827 642.819L915.874 656.161L922.926 656.733C928.263 656.923 931.313 654.636 931.504 650.633Z" fill="white"/>
<path d="M957.997 670.075L952.47 661.116C951.707 661.116 951.136 661.116 950.373 661.116L943.321 660.545L942.749 668.931L939.89 668.741L941.796 642.056L951.707 642.819C958.379 643.391 962.381 647.012 962 652.73C961.619 656.923 959.332 659.592 955.329 660.735L961.238 670.265L957.997 670.075ZM959.141 652.539C959.522 648.346 956.854 645.678 951.517 645.297L944.464 644.725L943.511 658.067L950.564 658.639C955.71 659.02 958.76 656.733 959.141 652.539Z" fill="white"/>
<path d="M965.812 657.114C966.384 649.299 972.674 643.962 980.679 644.534C988.684 645.106 994.212 651.205 993.64 659.02C993.068 666.835 986.778 672.171 978.773 671.6C970.768 671.028 965.24 664.929 965.812 657.114ZM990.972 659.02C991.353 652.73 986.969 647.584 980.679 647.203C974.198 646.821 969.052 651.015 968.671 657.495C968.29 663.976 972.674 668.931 979.154 669.312C985.444 669.694 990.59 665.31 990.972 659.02Z" fill="white"/>
<path d="M1017.28 674.268L1011.75 665.31C1010.99 665.31 1010.41 665.31 1009.65 665.31L1002.41 664.738L1001.84 673.124L998.977 672.934L1000.88 646.25L1010.79 647.012C1017.47 647.584 1021.47 651.205 1021.09 656.923C1020.71 661.116 1018.42 663.785 1014.42 664.929L1020.33 674.459L1017.28 674.268ZM1018.42 656.733C1018.8 652.539 1016.13 649.871 1010.79 649.49L1003.74 648.918L1002.79 662.26L1009.84 662.832C1015.18 663.213 1018.04 660.926 1018.42 656.733Z" fill="white"/>
<path d="M1216.74 283.478C1211.79 273.377 1201.3 266.324 1189.3 266.324C1185.29 266.324 1181.48 267.087 1177.86 268.612C1172.33 261.559 1163.76 257.175 1154.03 257.175C1145.84 257.175 1138.21 260.416 1132.69 265.943C1152.7 280.619 1166.42 302.92 1169.66 328.46H1234.09C1237.71 323.695 1240 317.787 1240 311.306C1240.19 297.202 1230.09 285.766 1216.74 283.478Z" fill="#61A9FF"/>
<path d="M918.256 176.36C944.941 176.36 970.101 186.844 988.59 205.523C997.167 203.045 1006.13 201.901 1015.08 201.901C1034.53 201.901 1053.01 207.429 1068.64 217.53C1068.64 216.387 1068.83 215.434 1068.83 214.29C1068.83 193.896 1053.97 177.123 1034.53 173.883C1027.28 159.016 1012.03 148.723 994.308 148.723C988.399 148.723 982.872 149.867 977.725 151.964C969.72 141.48 957.14 135 943.035 135C920.734 135 902.246 151.392 899.005 172.739C885.854 173.883 874.227 180.554 866.793 190.656C882.232 181.316 899.958 176.36 918.256 176.36Z" fill="#61A9FF"/>
<path d="M769.203 278.904C783.498 263.465 802.178 253.173 822.382 248.98C825.241 238.497 830.006 228.776 835.915 219.818C831.34 218.293 826.385 217.34 821.238 217.34C815.139 217.34 809.23 218.483 804.084 220.771C795.697 210.097 782.545 203.426 768.06 203.426C744.996 203.426 725.936 220.389 722.505 242.499C698.679 244.405 680 264.228 680 288.434C680 296.63 682.097 304.445 685.909 311.116H748.999C753.574 299.298 760.435 288.434 769.203 278.904Z" fill="#61A9FF"/>
<path d="M1138.98 387.738C1149.08 374.777 1154.99 358.385 1154.99 340.659C1154.99 302.348 1127.16 270.708 1090.56 264.609C1077.03 236.591 1048.25 217.34 1015.08 217.34C1004.03 217.34 993.353 219.437 983.823 223.439C968.384 204.189 944.749 191.799 918.255 191.799C876.322 191.799 841.632 222.486 835.342 262.703C792.265 266.325 758.337 302.539 758.337 346.568C758.337 361.625 762.34 375.539 769.202 387.738H1138.98Z" fill="white"/>
<path opacity="0.1" d="M1154.99 340.659C1154.99 333.035 1153.84 325.792 1151.75 318.74C1106.19 347.33 965.715 414.231 762.721 319.121C759.862 327.698 758.146 336.847 758.146 346.377C758.146 361.435 762.149 375.349 769.011 387.547H1138.78C1149.08 374.777 1154.99 358.385 1154.99 340.659Z" fill="#414042"/>
<path d="M572.032 778.768C568.491 778.768 565.056 778.299 561.728 777.36C558.443 776.379 555.797 775.12 553.792 773.584L557.312 765.776C559.232 767.184 561.515 768.315 564.16 769.168C566.805 770.021 569.451 770.448 572.096 770.448C575.04 770.448 577.216 770.021 578.624 769.168C580.032 768.272 580.736 767.099 580.736 765.648C580.736 764.581 580.309 763.707 579.456 763.024C578.645 762.299 577.579 761.723 576.256 761.296C574.976 760.869 573.227 760.4 571.008 759.888C567.595 759.077 564.8 758.267 562.624 757.456C560.448 756.645 558.571 755.344 556.992 753.552C555.456 751.76 554.688 749.371 554.688 746.384C554.688 743.781 555.392 741.435 556.8 739.344C558.208 737.211 560.32 735.525 563.136 734.288C565.995 733.051 569.472 732.432 573.568 732.432C576.427 732.432 579.221 732.773 581.952 733.456C584.683 734.139 587.072 735.12 589.12 736.4L585.92 744.272C581.781 741.925 577.643 740.752 573.504 740.752C570.603 740.752 568.448 741.221 567.04 742.16C565.675 743.099 564.992 744.336 564.992 745.872C564.992 747.408 565.781 748.56 567.36 749.328C568.981 750.053 571.435 750.779 574.72 751.504C578.133 752.315 580.928 753.125 583.104 753.936C585.28 754.747 587.136 756.027 588.672 757.776C590.251 759.525 591.04 761.893 591.04 764.88C591.04 767.44 590.315 769.787 588.864 771.92C587.456 774.011 585.323 775.675 582.464 776.912C579.605 778.149 576.128 778.768 572.032 778.768ZM613.805 778.512C610.178 778.512 606.914 777.765 604.013 776.272C601.154 774.736 598.914 772.624 597.293 769.936C595.671 767.248 594.861 764.197 594.861 760.784C594.861 757.371 595.671 754.32 597.293 751.632C598.914 748.944 601.154 746.853 604.013 745.36C606.914 743.824 610.178 743.056 613.805 743.056C617.431 743.056 620.674 743.824 623.533 745.36C626.391 746.853 628.631 748.944 630.253 751.632C631.874 754.32 632.685 757.371 632.685 760.784C632.685 764.197 631.874 767.248 630.253 769.936C628.631 772.624 626.391 774.736 623.533 776.272C620.674 777.765 617.431 778.512 613.805 778.512ZM613.805 770.32C616.365 770.32 618.455 769.467 620.077 767.76C621.741 766.011 622.573 763.685 622.573 760.784C622.573 757.883 621.741 755.579 620.077 753.872C618.455 752.123 616.365 751.248 613.805 751.248C611.245 751.248 609.133 752.123 607.469 753.872C605.805 755.579 604.973 757.883 604.973 760.784C604.973 763.685 605.805 766.011 607.469 767.76C609.133 769.467 611.245 770.32 613.805 770.32ZM683.454 743.056C687.763 743.056 691.177 744.336 693.694 746.896C696.254 749.413 697.534 753.211 697.534 758.288V778H687.55V759.824C687.55 757.093 686.974 755.067 685.822 753.744C684.713 752.379 683.113 751.696 681.022 751.696C678.675 751.696 676.819 752.464 675.454 754C674.089 755.493 673.406 757.733 673.406 760.72V778H663.422V759.824C663.422 754.405 661.246 751.696 656.894 751.696C654.59 751.696 652.755 752.464 651.39 754C650.025 755.493 649.342 757.733 649.342 760.72V778H639.358V743.568H648.894V747.536C650.174 746.085 651.731 744.976 653.566 744.208C655.443 743.44 657.491 743.056 659.71 743.056C662.142 743.056 664.339 743.547 666.302 744.528C668.265 745.467 669.843 746.853 671.038 748.688C672.446 746.896 674.217 745.509 676.35 744.528C678.526 743.547 680.894 743.056 683.454 743.056ZM740.586 760.912C740.586 761.04 740.522 761.936 740.394 763.6H714.346C714.815 765.733 715.925 767.419 717.674 768.656C719.423 769.893 721.599 770.512 724.202 770.512C725.994 770.512 727.573 770.256 728.938 769.744C730.346 769.189 731.647 768.336 732.842 767.184L738.154 772.944C734.911 776.656 730.175 778.512 723.946 778.512C720.063 778.512 716.629 777.765 713.642 776.272C710.655 774.736 708.351 772.624 706.73 769.936C705.109 767.248 704.298 764.197 704.298 760.784C704.298 757.413 705.087 754.384 706.666 751.696C708.287 748.965 710.485 746.853 713.258 745.36C716.074 743.824 719.21 743.056 722.666 743.056C726.037 743.056 729.087 743.781 731.818 745.232C734.549 746.683 736.682 748.773 738.218 751.504C739.797 754.192 740.586 757.328 740.586 760.912ZM722.73 750.608C720.469 750.608 718.57 751.248 717.034 752.528C715.498 753.808 714.559 755.557 714.218 757.776H731.178C730.837 755.6 729.898 753.872 728.362 752.592C726.826 751.269 724.949 750.608 722.73 750.608ZM769.441 776.336C768.46 777.061 767.244 777.616 765.793 778C764.385 778.341 762.892 778.512 761.313 778.512C757.217 778.512 754.038 777.467 751.777 775.376C749.558 773.285 748.449 770.213 748.449 766.16V752.016H743.137V744.336H748.449V735.952H758.433V744.336H767.009V752.016H758.433V766.032C758.433 767.483 758.796 768.613 759.521 769.424C760.289 770.192 761.356 770.576 762.721 770.576C764.3 770.576 765.644 770.149 766.753 769.296L769.441 776.336ZM795.974 743.056C800.24 743.056 803.675 744.336 806.278 746.896C808.923 749.456 810.246 753.253 810.246 758.288V778H800.262V759.824C800.262 757.093 799.664 755.067 798.47 753.744C797.275 752.379 795.547 751.696 793.286 751.696C790.768 751.696 788.763 752.485 787.27 754.064C785.776 755.6 785.03 757.904 785.03 760.976V778H775.046V730.512H785.03V747.152C786.352 745.829 787.952 744.827 789.83 744.144C791.707 743.419 793.755 743.056 795.974 743.056ZM819.296 743.568H829.28V778H819.296V743.568ZM824.288 738.768C822.453 738.768 820.96 738.235 819.808 737.168C818.656 736.101 818.08 734.779 818.08 733.2C818.08 731.621 818.656 730.299 819.808 729.232C820.96 728.165 822.453 727.632 824.288 727.632C826.122 727.632 827.616 728.144 828.768 729.168C829.92 730.192 830.496 731.472 830.496 733.008C830.496 734.672 829.92 736.059 828.768 737.168C827.616 738.235 826.122 738.768 824.288 738.768ZM859.474 743.056C863.74 743.056 867.175 744.336 869.778 746.896C872.423 749.456 873.746 753.253 873.746 758.288V778H863.762V759.824C863.762 757.093 863.164 755.067 861.97 753.744C860.775 752.379 859.047 751.696 856.786 751.696C854.268 751.696 852.263 752.485 850.77 754.064C849.276 755.6 848.53 757.904 848.53 760.976V778H838.546V743.568H848.082V747.6C849.404 746.149 851.047 745.04 853.01 744.272C854.972 743.461 857.127 743.056 859.474 743.056ZM918.691 743.568V772.24C918.691 778.555 917.048 783.248 913.763 786.32C910.477 789.392 905.677 790.928 899.363 790.928C896.035 790.928 892.877 790.523 889.891 789.712C886.904 788.901 884.429 787.728 882.467 786.192L886.435 779.024C887.885 780.219 889.72 781.157 891.939 781.84C894.157 782.565 896.376 782.928 898.595 782.928C902.051 782.928 904.589 782.139 906.211 780.56C907.875 779.024 908.707 776.677 908.707 773.52V772.048C906.104 774.907 902.477 776.336 897.827 776.336C894.669 776.336 891.768 775.653 889.123 774.288C886.52 772.88 884.451 770.917 882.915 768.4C881.379 765.883 880.611 762.981 880.611 759.696C880.611 756.411 881.379 753.509 882.915 750.992C884.451 748.475 886.52 746.533 889.123 745.168C891.768 743.76 894.669 743.056 897.827 743.056C902.819 743.056 906.616 744.699 909.219 747.984V743.568H918.691ZM899.811 768.144C902.456 768.144 904.611 767.376 906.275 765.84C907.981 764.261 908.835 762.213 908.835 759.696C908.835 757.179 907.981 755.152 906.275 753.616C904.611 752.037 902.456 751.248 899.811 751.248C897.165 751.248 894.989 752.037 893.283 753.616C891.576 755.152 890.723 757.179 890.723 759.696C890.723 762.213 891.576 764.261 893.283 765.84C894.989 767.376 897.165 768.144 899.811 768.144ZM1001.4 743.568L988.924 778H979.324L971.58 756.624L963.58 778H953.98L941.564 743.568H950.972L959.1 766.864L967.548 743.568H975.996L984.188 766.864L992.572 743.568H1001.4ZM1038.84 760.912C1038.84 761.04 1038.77 761.936 1038.64 763.6H1012.6C1013.07 765.733 1014.17 767.419 1015.92 768.656C1017.67 769.893 1019.85 770.512 1022.45 770.512C1024.24 770.512 1025.82 770.256 1027.19 769.744C1028.6 769.189 1029.9 768.336 1031.09 767.184L1036.4 772.944C1033.16 776.656 1028.43 778.512 1022.2 778.512C1018.31 778.512 1014.88 777.765 1011.89 776.272C1008.91 774.736 1006.6 772.624 1004.98 769.936C1003.36 767.248 1002.55 764.197 1002.55 760.784C1002.55 757.413 1003.34 754.384 1004.92 751.696C1006.54 748.965 1008.73 746.853 1011.51 745.36C1014.32 743.824 1017.46 743.056 1020.92 743.056C1024.29 743.056 1027.34 743.781 1030.07 745.232C1032.8 746.683 1034.93 748.773 1036.47 751.504C1038.05 754.192 1038.84 757.328 1038.84 760.912ZM1020.98 750.608C1018.72 750.608 1016.82 751.248 1015.28 752.528C1013.75 753.808 1012.81 755.557 1012.47 757.776H1029.43C1029.09 755.6 1028.15 753.872 1026.61 752.592C1025.08 751.269 1023.2 750.608 1020.98 750.608ZM1066.41 743.056C1070.68 743.056 1074.11 744.336 1076.72 746.896C1079.36 749.456 1080.68 753.253 1080.68 758.288V778H1070.7V759.824C1070.7 757.093 1070.1 755.067 1068.91 753.744C1067.71 752.379 1065.98 751.696 1063.72 751.696C1061.21 751.696 1059.2 752.485 1057.71 754.064C1056.21 755.6 1055.47 757.904 1055.47 760.976V778H1045.48V743.568H1055.02V747.6C1056.34 746.149 1057.98 745.04 1059.95 744.272C1061.91 743.461 1064.06 743.056 1066.41 743.056ZM1111.94 776.336C1110.96 777.061 1109.74 777.616 1108.29 778C1106.89 778.341 1105.39 778.512 1103.81 778.512C1099.72 778.512 1096.54 777.467 1094.28 775.376C1092.06 773.285 1090.95 770.213 1090.95 766.16V752.016H1085.64V744.336H1090.95V735.952H1100.93V744.336H1109.51V752.016H1100.93V766.032C1100.93 767.483 1101.3 768.613 1102.02 769.424C1102.79 770.192 1103.86 770.576 1105.22 770.576C1106.8 770.576 1108.14 770.149 1109.25 769.296L1111.94 776.336ZM1190.97 743.568L1178.49 778H1168.89L1161.14 756.624L1153.14 778H1143.54L1131.13 743.568H1140.53L1148.66 766.864L1157.11 743.568H1165.56L1173.75 766.864L1182.13 743.568H1190.97ZM1205.14 748.112C1206.34 746.448 1207.94 745.189 1209.94 744.336C1211.99 743.483 1214.34 743.056 1216.98 743.056V752.272C1215.87 752.187 1215.13 752.144 1214.74 752.144C1211.89 752.144 1209.65 752.955 1208.02 754.576C1206.4 756.155 1205.59 758.544 1205.59 761.744V778H1195.61V743.568H1205.14V748.112ZM1238.99 778.512C1235.37 778.512 1232.1 777.765 1229.2 776.272C1226.34 774.736 1224.1 772.624 1222.48 769.936C1220.86 767.248 1220.05 764.197 1220.05 760.784C1220.05 757.371 1220.86 754.32 1222.48 751.632C1224.1 748.944 1226.34 746.853 1229.2 745.36C1232.1 743.824 1235.37 743.056 1238.99 743.056C1242.62 743.056 1245.86 743.824 1248.72 745.36C1251.58 746.853 1253.82 748.944 1255.44 751.632C1257.06 754.32 1257.87 757.371 1257.87 760.784C1257.87 764.197 1257.06 767.248 1255.44 769.936C1253.82 772.624 1251.58 774.736 1248.72 776.272C1245.86 777.765 1242.62 778.512 1238.99 778.512ZM1238.99 770.32C1241.55 770.32 1243.64 769.467 1245.26 767.76C1246.93 766.011 1247.76 763.685 1247.76 760.784C1247.76 757.883 1246.93 755.579 1245.26 753.872C1243.64 752.123 1241.55 751.248 1238.99 751.248C1236.43 751.248 1234.32 752.123 1232.66 753.872C1230.99 755.579 1230.16 757.883 1230.16 760.784C1230.16 763.685 1230.99 766.011 1232.66 767.76C1234.32 769.467 1236.43 770.32 1238.99 770.32ZM1285.47 743.056C1289.74 743.056 1293.17 744.336 1295.78 746.896C1298.42 749.456 1299.75 753.253 1299.75 758.288V778H1289.76V759.824C1289.76 757.093 1289.16 755.067 1287.97 753.744C1286.77 752.379 1285.05 751.696 1282.79 751.696C1280.27 751.696 1278.26 752.485 1276.77 754.064C1275.28 755.6 1274.53 757.904 1274.53 760.976V778H1264.55V743.568H1274.08V747.6C1275.4 746.149 1277.05 745.04 1279.01 744.272C1280.97 743.461 1283.13 743.056 1285.47 743.056ZM1344.69 743.568V772.24C1344.69 778.555 1343.05 783.248 1339.76 786.32C1336.48 789.392 1331.68 790.928 1325.36 790.928C1322.03 790.928 1318.88 790.523 1315.89 789.712C1312.9 788.901 1310.43 787.728 1308.47 786.192L1312.43 779.024C1313.89 780.219 1315.72 781.157 1317.94 781.84C1320.16 782.565 1322.38 782.928 1324.59 782.928C1328.05 782.928 1330.59 782.139 1332.21 780.56C1333.87 779.024 1334.71 776.677 1334.71 773.52V772.048C1332.1 774.907 1328.48 776.336 1323.83 776.336C1320.67 776.336 1317.77 775.653 1315.12 774.288C1312.52 772.88 1310.45 770.917 1308.91 768.4C1307.38 765.883 1306.61 762.981 1306.61 759.696C1306.61 756.411 1307.38 753.509 1308.91 750.992C1310.45 748.475 1312.52 746.533 1315.12 745.168C1317.77 743.76 1320.67 743.056 1323.83 743.056C1328.82 743.056 1332.62 744.699 1335.22 747.984V743.568H1344.69ZM1325.81 768.144C1328.46 768.144 1330.61 767.376 1332.27 765.84C1333.98 764.261 1334.83 762.213 1334.83 759.696C1334.83 757.179 1333.98 755.152 1332.27 753.616C1330.61 752.037 1328.46 751.248 1325.81 751.248C1323.17 751.248 1320.99 752.037 1319.28 753.616C1317.58 755.152 1316.72 757.179 1316.72 759.696C1316.72 762.213 1317.58 764.261 1319.28 765.84C1320.99 767.376 1323.17 768.144 1325.81 768.144ZM1352.7 733.2H1364.61L1362.62 762.448H1354.69L1352.7 733.2ZM1358.66 778.512C1356.91 778.512 1355.43 777.957 1354.24 776.848C1353.09 775.696 1352.51 774.309 1352.51 772.688C1352.51 771.067 1353.09 769.723 1354.24 768.656C1355.39 767.547 1356.86 766.992 1358.66 766.992C1360.45 766.992 1361.92 767.547 1363.07 768.656C1364.22 769.723 1364.8 771.067 1364.8 772.688C1364.8 774.309 1364.2 775.696 1363.01 776.848C1361.86 777.957 1360.4 778.512 1358.66 778.512Z" fill="white"/>
<path d="M395.708 829.28C394.196 829.28 392.731 829.065 391.312 828.636C389.912 828.207 388.801 827.637 387.98 826.928L389.24 824.1C390.043 824.735 391.023 825.257 392.18 825.668C393.356 826.06 394.532 826.256 395.708 826.256C397.164 826.256 398.247 826.023 398.956 825.556C399.684 825.089 400.048 824.473 400.048 823.708C400.048 823.148 399.843 822.691 399.432 822.336C399.04 821.963 398.536 821.673 397.92 821.468C397.304 821.263 396.464 821.029 395.4 820.768C393.907 820.413 392.693 820.059 391.76 819.704C390.845 819.349 390.052 818.799 389.38 818.052C388.727 817.287 388.4 816.26 388.4 814.972C388.4 813.889 388.689 812.909 389.268 812.032C389.865 811.136 390.752 810.427 391.928 809.904C393.123 809.381 394.579 809.12 396.296 809.12C397.491 809.12 398.667 809.269 399.824 809.568C400.981 809.867 401.98 810.296 402.82 810.856L401.672 813.684C400.813 813.18 399.917 812.797 398.984 812.536C398.051 812.275 397.145 812.144 396.268 812.144C394.831 812.144 393.757 812.387 393.048 812.872C392.357 813.357 392.012 814.001 392.012 814.804C392.012 815.364 392.208 815.821 392.6 816.176C393.011 816.531 393.524 816.811 394.14 817.016C394.756 817.221 395.596 817.455 396.66 817.716C398.116 818.052 399.311 818.407 400.244 818.78C401.177 819.135 401.971 819.685 402.624 820.432C403.296 821.179 403.632 822.187 403.632 823.456C403.632 824.539 403.333 825.519 402.736 826.396C402.157 827.273 401.271 827.973 400.076 828.496C398.881 829.019 397.425 829.28 395.708 829.28ZM420.961 821.608C420.961 821.851 420.943 822.196 420.905 822.644H409.173C409.379 823.745 409.911 824.623 410.769 825.276C411.647 825.911 412.729 826.228 414.017 826.228C415.66 826.228 417.013 825.687 418.077 824.604L419.953 826.76C419.281 827.563 418.432 828.169 417.405 828.58C416.379 828.991 415.221 829.196 413.933 829.196C412.291 829.196 410.844 828.869 409.593 828.216C408.343 827.563 407.372 826.657 406.681 825.5C406.009 824.324 405.673 822.999 405.673 821.524C405.673 820.068 406 818.761 406.653 817.604C407.325 816.428 408.249 815.513 409.425 814.86C410.601 814.207 411.927 813.88 413.401 813.88C414.857 813.88 416.155 814.207 417.293 814.86C418.451 815.495 419.347 816.4 419.981 817.576C420.635 818.733 420.961 820.077 420.961 821.608ZM413.401 816.68C412.281 816.68 411.329 817.016 410.545 817.688C409.78 818.341 409.313 819.219 409.145 820.32H417.629C417.48 819.237 417.023 818.36 416.257 817.688C415.492 817.016 414.54 816.68 413.401 816.68ZM427.655 816.232C428.663 814.664 430.437 813.88 432.975 813.88V817.212C432.677 817.156 432.406 817.128 432.163 817.128C430.801 817.128 429.737 817.529 428.971 818.332C428.206 819.116 427.823 820.255 427.823 821.748V829H424.323V814.048H427.655V816.232ZM450.491 814.048L444.079 829H440.467L434.055 814.048H437.695L442.343 825.136L447.131 814.048H450.491ZM466.325 821.608C466.325 821.851 466.306 822.196 466.269 822.644H454.537C454.742 823.745 455.274 824.623 456.133 825.276C457.01 825.911 458.093 826.228 459.381 826.228C461.023 826.228 462.377 825.687 463.441 824.604L465.317 826.76C464.645 827.563 463.795 828.169 462.769 828.58C461.742 828.991 460.585 829.196 459.297 829.196C457.654 829.196 456.207 828.869 454.957 828.216C453.706 827.563 452.735 826.657 452.045 825.5C451.373 824.324 451.037 822.999 451.037 821.524C451.037 820.068 451.363 818.761 452.017 817.604C452.689 816.428 453.613 815.513 454.789 814.86C455.965 814.207 457.29 813.88 458.765 813.88C460.221 813.88 461.518 814.207 462.657 814.86C463.814 815.495 464.71 816.4 465.345 817.576C465.998 818.733 466.325 820.077 466.325 821.608ZM458.765 816.68C457.645 816.68 456.693 817.016 455.909 817.688C455.143 818.341 454.677 819.219 454.509 820.32H462.993C462.843 819.237 462.386 818.36 461.621 817.688C460.855 817.016 459.903 816.68 458.765 816.68ZM473.019 816.232C474.027 814.664 475.8 813.88 478.339 813.88V817.212C478.04 817.156 477.769 817.128 477.527 817.128C476.164 817.128 475.1 817.529 474.335 818.332C473.569 819.116 473.187 820.255 473.187 821.748V829H469.687V814.048H473.019V816.232ZM504.219 825.948V829H489.519V809.4H503.827V812.452H493.159V817.548H502.623V820.544H493.159V825.948H504.219ZM511.273 816.232C512.281 814.664 514.054 813.88 516.593 813.88V817.212C516.294 817.156 516.023 817.128 515.781 817.128C514.418 817.128 513.354 817.529 512.589 818.332C511.823 819.116 511.441 820.255 511.441 821.748V829H507.941V814.048H511.273V816.232ZM522.894 816.232C523.902 814.664 525.675 813.88 528.214 813.88V817.212C527.915 817.156 527.644 817.128 527.402 817.128C526.039 817.128 524.975 817.529 524.21 818.332C523.444 819.116 523.062 820.255 523.062 821.748V829H519.562V814.048H522.894V816.232ZM537.766 829.196C536.254 829.196 534.891 828.869 533.678 828.216C532.465 827.563 531.513 826.657 530.822 825.5C530.15 824.324 529.814 822.999 529.814 821.524C529.814 820.049 530.15 818.733 530.822 817.576C531.513 816.419 532.465 815.513 533.678 814.86C534.891 814.207 536.254 813.88 537.766 813.88C539.297 813.88 540.669 814.207 541.882 814.86C543.095 815.513 544.038 816.419 544.71 817.576C545.401 818.733 545.746 820.049 545.746 821.524C545.746 822.999 545.401 824.324 544.71 825.5C544.038 826.657 543.095 827.563 541.882 828.216C540.669 828.869 539.297 829.196 537.766 829.196ZM537.766 826.2C539.054 826.2 540.118 825.771 540.958 824.912C541.798 824.053 542.218 822.924 542.218 821.524C542.218 820.124 541.798 818.995 540.958 818.136C540.118 817.277 539.054 816.848 537.766 816.848C536.478 816.848 535.414 817.277 534.574 818.136C533.753 818.995 533.342 820.124 533.342 821.524C533.342 822.924 533.753 824.053 534.574 824.912C535.414 825.771 536.478 826.2 537.766 826.2ZM552.425 816.232C553.433 814.664 555.206 813.88 557.745 813.88V817.212C557.446 817.156 557.176 817.128 556.933 817.128C555.57 817.128 554.506 817.529 553.741 818.332C552.976 819.116 552.593 820.255 552.593 821.748V829H549.093V814.048H552.425V816.232ZM573.657 816.988C576.42 816.988 578.464 817.529 579.789 818.612C581.114 819.676 581.777 821.132 581.777 822.98C581.777 824.156 581.488 825.22 580.909 826.172C580.33 827.124 579.462 827.88 578.305 828.44C577.148 829 575.72 829.28 574.021 829.28C572.621 829.28 571.268 829.084 569.961 828.692C568.654 828.281 567.553 827.721 566.657 827.012L568.197 824.184C568.925 824.781 569.793 825.257 570.801 825.612C571.828 825.948 572.882 826.116 573.965 826.116C575.253 826.116 576.261 825.855 576.989 825.332C577.736 824.791 578.109 824.053 578.109 823.12C578.109 822.112 577.708 821.356 576.905 820.852C576.121 820.329 574.768 820.068 572.845 820.068H568.113L569.121 809.4H580.629V812.452H572.201L571.781 816.988H573.657ZM592.053 829.28C590.485 829.28 589.085 828.888 587.853 828.104C586.621 827.301 585.65 826.144 584.941 824.632C584.231 823.101 583.877 821.291 583.877 819.2C583.877 817.109 584.231 815.308 584.941 813.796C585.65 812.265 586.621 811.108 587.853 810.324C589.085 809.521 590.485 809.12 592.053 809.12C593.621 809.12 595.021 809.521 596.253 810.324C597.503 811.108 598.483 812.265 599.193 813.796C599.902 815.308 600.257 817.109 600.257 819.2C600.257 821.291 599.902 823.101 599.193 824.632C598.483 826.144 597.503 827.301 596.253 828.104C595.021 828.888 593.621 829.28 592.053 829.28ZM592.053 826.116C593.453 826.116 594.554 825.537 595.357 824.38C596.178 823.223 596.589 821.496 596.589 819.2C596.589 816.904 596.178 815.177 595.357 814.02C594.554 812.863 593.453 812.284 592.053 812.284C590.671 812.284 589.57 812.863 588.749 814.02C587.946 815.177 587.545 816.904 587.545 819.2C587.545 821.496 587.946 823.223 588.749 824.38C589.57 825.537 590.671 826.116 592.053 826.116ZM610.892 829.28C609.324 829.28 607.924 828.888 606.692 828.104C605.46 827.301 604.49 826.144 603.78 824.632C603.071 823.101 602.716 821.291 602.716 819.2C602.716 817.109 603.071 815.308 603.78 813.796C604.49 812.265 605.46 811.108 606.692 810.324C607.924 809.521 609.324 809.12 610.892 809.12C612.46 809.12 613.86 809.521 615.092 810.324C616.343 811.108 617.323 812.265 618.032 813.796C618.742 815.308 619.096 817.109 619.096 819.2C619.096 821.291 618.742 823.101 618.032 824.632C617.323 826.144 616.343 827.301 615.092 828.104C613.86 828.888 612.46 829.28 610.892 829.28ZM610.892 826.116C612.292 826.116 613.394 825.537 614.196 824.38C615.018 823.223 615.428 821.496 615.428 819.2C615.428 816.904 615.018 815.177 614.196 814.02C613.394 812.863 612.292 812.284 610.892 812.284C609.511 812.284 608.41 812.863 607.588 814.02C606.786 815.177 606.384 816.904 606.384 819.2C606.384 821.496 606.786 823.223 607.588 824.38C608.41 825.537 609.511 826.116 610.892 826.116ZM623.412 829.196C622.777 829.196 622.236 828.981 621.788 828.552C621.34 828.104 621.116 827.544 621.116 826.872C621.116 826.181 621.331 825.621 621.76 825.192C622.208 824.763 622.759 824.548 623.412 824.548C624.065 824.548 624.607 824.763 625.036 825.192C625.484 825.621 625.708 826.181 625.708 826.872C625.708 827.544 625.484 828.104 625.036 828.552C624.588 828.981 624.047 829.196 623.412 829.196ZM646.358 829.28C644.361 829.28 642.56 828.851 640.954 827.992C639.349 827.115 638.089 825.911 637.174 824.38C636.26 822.831 635.802 821.104 635.802 819.2C635.802 817.296 636.26 815.579 637.174 814.048C638.089 812.499 639.349 811.295 640.954 810.436C642.56 809.559 644.361 809.12 646.358 809.12C648.356 809.12 650.157 809.559 651.762 810.436C653.368 811.295 654.628 812.489 655.542 814.02C656.457 815.551 656.914 817.277 656.914 819.2C656.914 821.123 656.457 822.849 655.542 824.38C654.628 825.911 653.368 827.115 651.762 827.992C650.157 828.851 648.356 829.28 646.358 829.28ZM646.358 826.088C647.665 826.088 648.841 825.799 649.886 825.22C650.932 824.623 651.753 823.801 652.35 822.756C652.948 821.692 653.246 820.507 653.246 819.2C653.246 817.893 652.948 816.717 652.35 815.672C651.753 814.608 650.932 813.787 649.886 813.208C648.841 812.611 647.665 812.312 646.358 812.312C645.052 812.312 643.876 812.611 642.83 813.208C641.785 813.787 640.964 814.608 640.366 815.672C639.769 816.717 639.47 817.893 639.47 819.2C639.47 820.507 639.769 821.692 640.366 822.756C640.964 823.801 641.785 824.623 642.83 825.22C643.876 825.799 645.052 826.088 646.358 826.088ZM674.913 814.048V829H671.581V827.096C671.021 827.768 670.321 828.291 669.481 828.664C668.641 829.019 667.735 829.196 666.765 829.196C664.767 829.196 663.19 828.645 662.033 827.544C660.894 826.424 660.325 824.772 660.325 822.588V814.048H663.825V822.112C663.825 823.456 664.123 824.464 664.721 825.136C665.337 825.789 666.205 826.116 667.325 826.116C668.575 826.116 669.565 825.733 670.293 824.968C671.039 824.184 671.413 823.064 671.413 821.608V814.048H674.913ZM682.827 816.232C683.835 814.664 685.609 813.88 688.147 813.88V817.212C687.849 817.156 687.578 817.128 687.335 817.128C685.973 817.128 684.909 817.529 684.143 818.332C683.378 819.116 682.995 820.255 682.995 821.748V829H679.495V814.048H682.827V816.232ZM703.611 829.196C702.398 829.196 701.213 829.037 700.055 828.72C698.898 828.403 697.974 828.001 697.283 827.516L698.627 824.856C699.299 825.304 700.102 825.668 701.035 825.948C701.987 826.209 702.921 826.34 703.835 826.34C705.926 826.34 706.971 825.789 706.971 824.688C706.971 824.165 706.701 823.801 706.159 823.596C705.637 823.391 704.787 823.195 703.611 823.008C702.379 822.821 701.371 822.607 700.587 822.364C699.822 822.121 699.15 821.701 698.571 821.104C698.011 820.488 697.731 819.639 697.731 818.556C697.731 817.137 698.319 816.008 699.495 815.168C700.69 814.309 702.295 813.88 704.311 813.88C705.338 813.88 706.365 814.001 707.391 814.244C708.418 814.468 709.258 814.776 709.911 815.168L708.567 817.828C707.298 817.081 705.87 816.708 704.283 816.708C703.257 816.708 702.473 816.867 701.931 817.184C701.409 817.483 701.147 817.884 701.147 818.388C701.147 818.948 701.427 819.349 701.987 819.592C702.566 819.816 703.453 820.031 704.647 820.236C705.842 820.423 706.822 820.637 707.587 820.88C708.353 821.123 709.006 821.533 709.547 822.112C710.107 822.691 710.387 823.512 710.387 824.576C710.387 825.976 709.781 827.096 708.567 827.936C707.354 828.776 705.702 829.196 703.611 829.196ZM722.389 828.188C721.979 828.524 721.475 828.776 720.877 828.944C720.299 829.112 719.683 829.196 719.029 829.196C717.387 829.196 716.117 828.767 715.221 827.908C714.325 827.049 713.877 825.799 713.877 824.156V816.96H711.413V814.16H713.877V810.744H717.377V814.16H721.381V816.96H717.377V824.072C717.377 824.8 717.555 825.36 717.909 825.752C718.264 826.125 718.777 826.312 719.449 826.312C720.233 826.312 720.887 826.107 721.409 825.696L722.389 828.188ZM730.981 813.88C733.183 813.88 734.863 814.412 736.021 815.476C737.197 816.521 737.785 818.108 737.785 820.236V829H734.481V827.18C734.051 827.833 733.435 828.337 732.633 828.692C731.849 829.028 730.897 829.196 729.777 829.196C728.657 829.196 727.677 829.009 726.837 828.636C725.997 828.244 725.343 827.712 724.877 827.04C724.429 826.349 724.205 825.575 724.205 824.716C724.205 823.372 724.699 822.299 725.689 821.496C726.697 820.675 728.274 820.264 730.421 820.264H734.285V820.04C734.285 818.995 733.967 818.192 733.333 817.632C732.717 817.072 731.793 816.792 730.561 816.792C729.721 816.792 728.89 816.923 728.069 817.184C727.266 817.445 726.585 817.809 726.025 818.276L724.653 815.728C725.437 815.131 726.379 814.673 727.481 814.356C728.582 814.039 729.749 813.88 730.981 813.88ZM730.505 826.648C731.382 826.648 732.157 826.452 732.829 826.06C733.519 825.649 734.005 825.071 734.285 824.324V822.588H730.673C728.657 822.588 727.649 823.251 727.649 824.576C727.649 825.211 727.901 825.715 728.405 826.088C728.909 826.461 729.609 826.648 730.505 826.648ZM748.352 810.856C746.878 810.856 746.14 811.659 746.14 813.264V814.16H750.256V816.96H746.252V829H742.752V816.96H740.288V814.16H742.752V813.208C742.752 811.603 743.219 810.343 744.152 809.428C745.086 808.495 746.402 808.028 748.1 808.028C749.444 808.028 750.499 808.299 751.264 808.84L750.284 811.472C749.687 811.061 749.043 810.856 748.352 810.856ZM758.688 810.856C757.214 810.856 756.476 811.659 756.476 813.264V814.16H760.592V816.96H756.588V829H753.088V816.96H750.624V814.16H753.088V813.208C753.088 811.603 753.555 810.343 754.488 809.428C755.422 808.495 756.738 808.028 758.436 808.028C759.78 808.028 760.835 808.299 761.6 808.84L760.62 811.472C760.023 811.061 759.379 810.856 758.688 810.856ZM779.171 813.88C781.056 813.88 782.568 814.431 783.707 815.532C784.845 816.633 785.415 818.267 785.415 820.432V829H781.915V820.88C781.915 819.573 781.607 818.593 780.991 817.94C780.375 817.268 779.497 816.932 778.359 816.932C777.071 816.932 776.053 817.324 775.307 818.108C774.56 818.873 774.187 819.984 774.187 821.44V829H770.687V808.224H774.187V815.784C774.765 815.168 775.475 814.701 776.315 814.384C777.173 814.048 778.125 813.88 779.171 813.88ZM795.567 813.88C797.769 813.88 799.449 814.412 800.607 815.476C801.783 816.521 802.371 818.108 802.371 820.236V829H799.067V827.18C798.637 827.833 798.021 828.337 797.219 828.692C796.435 829.028 795.483 829.196 794.363 829.196C793.243 829.196 792.263 829.009 791.423 828.636C790.583 828.244 789.929 827.712 789.463 827.04C789.015 826.349 788.791 825.575 788.791 824.716C788.791 823.372 789.285 822.299 790.275 821.496C791.283 820.675 792.86 820.264 795.007 820.264H798.871V820.04C798.871 818.995 798.553 818.192 797.919 817.632C797.303 817.072 796.379 816.792 795.147 816.792C794.307 816.792 793.476 816.923 792.655 817.184C791.852 817.445 791.171 817.809 790.611 818.276L789.239 815.728C790.023 815.131 790.965 814.673 792.067 814.356C793.168 814.039 794.335 813.88 795.567 813.88ZM795.091 826.648C795.968 826.648 796.743 826.452 797.415 826.06C798.105 825.649 798.591 825.071 798.871 824.324V822.588H795.259C793.243 822.588 792.235 823.251 792.235 824.576C792.235 825.211 792.487 825.715 792.991 826.088C793.495 826.461 794.195 826.648 795.091 826.648ZM811.482 829.196C810.269 829.196 809.084 829.037 807.926 828.72C806.769 828.403 805.845 828.001 805.154 827.516L806.498 824.856C807.17 825.304 807.973 825.668 808.906 825.948C809.858 826.209 810.792 826.34 811.706 826.34C813.797 826.34 814.842 825.789 814.842 824.688C814.842 824.165 814.572 823.801 814.03 823.596C813.508 823.391 812.658 823.195 811.482 823.008C810.25 822.821 809.242 822.607 808.458 822.364C807.693 822.121 807.021 821.701 806.442 821.104C805.882 820.488 805.602 819.639 805.602 818.556C805.602 817.137 806.19 816.008 807.366 815.168C808.561 814.309 810.166 813.88 812.182 813.88C813.209 813.88 814.236 814.001 815.262 814.244C816.289 814.468 817.129 814.776 817.782 815.168L816.438 817.828C815.169 817.081 813.741 816.708 812.154 816.708C811.128 816.708 810.344 816.867 809.802 817.184C809.28 817.483 809.018 817.884 809.018 818.388C809.018 818.948 809.298 819.349 809.858 819.592C810.437 819.816 811.324 820.031 812.518 820.236C813.713 820.423 814.693 820.637 815.458 820.88C816.224 821.123 816.877 821.533 817.418 822.112C817.978 822.691 818.258 823.512 818.258 824.576C818.258 825.976 817.652 827.096 816.438 827.936C815.225 828.776 813.573 829.196 811.482 829.196ZM837.299 813.88C838.755 813.88 840.052 814.197 841.191 814.832C842.348 815.467 843.254 816.363 843.907 817.52C844.56 818.677 844.887 820.012 844.887 821.524C844.887 823.036 844.56 824.38 843.907 825.556C843.254 826.713 842.348 827.609 841.191 828.244C840.052 828.879 838.755 829.196 837.299 829.196C836.272 829.196 835.33 829.019 834.471 828.664C833.631 828.309 832.922 827.777 832.343 827.068V829H829.011V808.224H832.511V815.868C833.108 815.215 833.808 814.72 834.611 814.384C835.432 814.048 836.328 813.88 837.299 813.88ZM836.907 826.2C838.195 826.2 839.25 825.771 840.071 824.912C840.911 824.053 841.331 822.924 841.331 821.524C841.331 820.124 840.911 818.995 840.071 818.136C839.25 817.277 838.195 816.848 836.907 816.848C836.067 816.848 835.311 817.044 834.639 817.436C833.967 817.809 833.435 818.351 833.043 819.06C832.651 819.769 832.455 820.591 832.455 821.524C832.455 822.457 832.651 823.279 833.043 823.988C833.435 824.697 833.967 825.248 834.639 825.64C835.311 826.013 836.067 826.2 836.907 826.2ZM862.262 821.608C862.262 821.851 862.243 822.196 862.206 822.644H850.474C850.679 823.745 851.211 824.623 852.07 825.276C852.947 825.911 854.03 826.228 855.318 826.228C856.961 826.228 858.314 825.687 859.378 824.604L861.254 826.76C860.582 827.563 859.733 828.169 858.706 828.58C857.679 828.991 856.522 829.196 855.234 829.196C853.591 829.196 852.145 828.869 850.894 828.216C849.643 827.563 848.673 826.657 847.982 825.5C847.31 824.324 846.974 822.999 846.974 821.524C846.974 820.068 847.301 818.761 847.954 817.604C848.626 816.428 849.55 815.513 850.726 814.86C851.902 814.207 853.227 813.88 854.702 813.88C856.158 813.88 857.455 814.207 858.594 814.86C859.751 815.495 860.647 816.4 861.282 817.576C861.935 818.733 862.262 820.077 862.262 821.608ZM854.702 816.68C853.582 816.68 852.63 817.016 851.846 817.688C851.081 818.341 850.614 819.219 850.446 820.32H858.93C858.781 819.237 858.323 818.36 857.558 817.688C856.793 817.016 855.841 816.68 854.702 816.68ZM879.68 821.608C879.68 821.851 879.661 822.196 879.624 822.644H867.892C868.097 823.745 868.629 824.623 869.488 825.276C870.365 825.911 871.448 826.228 872.736 826.228C874.379 826.228 875.732 825.687 876.796 824.604L878.672 826.76C878 827.563 877.151 828.169 876.124 828.58C875.097 828.991 873.94 829.196 872.652 829.196C871.009 829.196 869.563 828.869 868.312 828.216C867.061 827.563 866.091 826.657 865.4 825.5C864.728 824.324 864.392 822.999 864.392 821.524C864.392 820.068 864.719 818.761 865.372 817.604C866.044 816.428 866.968 815.513 868.144 814.86C869.32 814.207 870.645 813.88 872.12 813.88C873.576 813.88 874.873 814.207 876.012 814.86C877.169 815.495 878.065 816.4 878.7 817.576C879.353 818.733 879.68 820.077 879.68 821.608ZM872.12 816.68C871 816.68 870.048 817.016 869.264 817.688C868.499 818.341 868.032 819.219 867.864 820.32H876.348C876.199 819.237 875.741 818.36 874.976 817.688C874.211 817.016 873.259 816.68 872.12 816.68ZM891.526 813.88C893.411 813.88 894.923 814.431 896.062 815.532C897.201 816.633 897.77 818.267 897.77 820.432V829H894.27V820.88C894.27 819.573 893.962 818.593 893.346 817.94C892.73 817.268 891.853 816.932 890.714 816.932C889.426 816.932 888.409 817.324 887.662 818.108C886.915 818.873 886.542 819.984 886.542 821.44V829H883.042V814.048H886.374V815.98C886.953 815.289 887.681 814.767 888.558 814.412C889.435 814.057 890.425 813.88 891.526 813.88ZM918.432 813.88C920.318 813.88 921.83 814.431 922.968 815.532C924.107 816.633 924.676 818.267 924.676 820.432V829H921.176V820.88C921.176 819.573 920.868 818.593 920.252 817.94C919.636 817.268 918.759 816.932 917.62 816.932C916.332 816.932 915.315 817.324 914.568 818.108C913.822 818.873 913.448 819.984 913.448 821.44V829H909.948V814.048H913.28V815.98C913.859 815.289 914.587 814.767 915.464 814.412C916.342 814.057 917.331 813.88 918.432 813.88ZM935.973 829.196C934.461 829.196 933.098 828.869 931.885 828.216C930.672 827.563 929.72 826.657 929.029 825.5C928.357 824.324 928.021 822.999 928.021 821.524C928.021 820.049 928.357 818.733 929.029 817.576C929.72 816.419 930.672 815.513 931.885 814.86C933.098 814.207 934.461 813.88 935.973 813.88C937.504 813.88 938.876 814.207 940.089 814.86C941.302 815.513 942.245 816.419 942.917 817.576C943.608 818.733 943.953 820.049 943.953 821.524C943.953 822.999 943.608 824.324 942.917 825.5C942.245 826.657 941.302 827.563 940.089 828.216C938.876 828.869 937.504 829.196 935.973 829.196ZM935.973 826.2C937.261 826.2 938.325 825.771 939.165 824.912C940.005 824.053 940.425 822.924 940.425 821.524C940.425 820.124 940.005 818.995 939.165 818.136C938.325 817.277 937.261 816.848 935.973 816.848C934.685 816.848 933.621 817.277 932.781 818.136C931.96 818.995 931.549 820.124 931.549 821.524C931.549 822.924 931.96 824.053 932.781 824.912C933.621 825.771 934.685 826.2 935.973 826.2ZM956.288 828.188C955.877 828.524 955.373 828.776 954.776 828.944C954.197 829.112 953.581 829.196 952.928 829.196C951.285 829.196 950.016 828.767 949.12 827.908C948.224 827.049 947.776 825.799 947.776 824.156V816.96H945.312V814.16H947.776V810.744H951.276V814.16H955.28V816.96H951.276V824.072C951.276 824.8 951.453 825.36 951.808 825.752C952.163 826.125 952.676 826.312 953.348 826.312C954.132 826.312 954.785 826.107 955.308 825.696L956.288 828.188ZM959.167 814.048H962.667V829H959.167V814.048ZM960.931 811.584C960.296 811.584 959.764 811.388 959.335 810.996C958.906 810.585 958.691 810.081 958.691 809.484C958.691 808.887 958.906 808.392 959.335 808C959.764 807.589 960.296 807.384 960.931 807.384C961.566 807.384 962.098 807.58 962.527 807.972C962.956 808.345 963.171 808.821 963.171 809.4C963.171 810.016 962.956 810.539 962.527 810.968C962.116 811.379 961.584 811.584 960.931 811.584ZM973.337 810.856C971.862 810.856 971.125 811.659 971.125 813.264V814.16H975.241V816.96H971.237V829H967.737V816.96H965.273V814.16H967.737V813.208C967.737 811.603 968.204 810.343 969.137 809.428C970.07 808.495 971.386 808.028 973.085 808.028C974.429 808.028 975.484 808.299 976.249 808.84L975.269 811.472C974.672 811.061 974.028 810.856 973.337 810.856ZM979.833 814.048H983.333V829H979.833V814.048ZM981.597 811.584C980.962 811.584 980.43 811.388 980.001 810.996C979.572 810.585 979.357 810.081 979.357 809.484C979.357 808.887 979.572 808.392 980.001 808C980.43 807.589 980.962 807.384 981.597 807.384C982.232 807.384 982.764 807.58 983.193 807.972C983.622 808.345 983.837 808.821 983.837 809.4C983.837 810.016 983.622 810.539 983.193 810.968C982.782 811.379 982.25 811.584 981.597 811.584ZM1001.99 821.608C1001.99 821.851 1001.97 822.196 1001.93 822.644H990.201C990.406 823.745 990.938 824.623 991.797 825.276C992.674 825.911 993.757 826.228 995.045 826.228C996.687 826.228 998.041 825.687 999.105 824.604L1000.98 826.76C1000.31 827.563 999.459 828.169 998.433 828.58C997.406 828.991 996.249 829.196 994.961 829.196C993.318 829.196 991.871 828.869 990.621 828.216C989.37 827.563 988.399 826.657 987.709 825.5C987.037 824.324 986.701 822.999 986.701 821.524C986.701 820.068 987.027 818.761 987.681 817.604C988.353 816.428 989.277 815.513 990.453 814.86C991.629 814.207 992.954 813.88 994.429 813.88C995.885 813.88 997.182 814.207 998.321 814.86C999.478 815.495 1000.37 816.4 1001.01 817.576C1001.66 818.733 1001.99 820.077 1001.99 821.608ZM994.429 816.68C993.309 816.68 992.357 817.016 991.573 817.688C990.807 818.341 990.341 819.219 990.173 820.32H998.657C998.507 819.237 998.05 818.36 997.285 817.688C996.519 817.016 995.567 816.68 994.429 816.68ZM1019.99 808.224V829H1016.63V827.068C1016.06 827.777 1015.34 828.309 1014.48 828.664C1013.64 829.019 1012.71 829.196 1011.68 829.196C1010.24 829.196 1008.94 828.879 1007.79 828.244C1006.65 827.609 1005.75 826.713 1005.1 825.556C1004.45 824.38 1004.12 823.036 1004.12 821.524C1004.12 820.012 1004.45 818.677 1005.1 817.52C1005.75 816.363 1006.65 815.467 1007.79 814.832C1008.94 814.197 1010.24 813.88 1011.68 813.88C1012.67 813.88 1013.57 814.048 1014.39 814.384C1015.22 814.72 1015.92 815.224 1016.49 815.896V808.224H1019.99ZM1012.1 826.2C1012.94 826.2 1013.69 826.013 1014.37 825.64C1015.04 825.248 1015.57 824.697 1015.96 823.988C1016.35 823.279 1016.55 822.457 1016.55 821.524C1016.55 820.591 1016.35 819.769 1015.96 819.06C1015.57 818.351 1015.04 817.809 1014.37 817.436C1013.69 817.044 1012.94 816.848 1012.1 816.848C1011.26 816.848 1010.5 817.044 1009.83 817.436C1009.16 817.809 1008.63 818.351 1008.23 819.06C1007.84 819.769 1007.65 820.591 1007.65 821.524C1007.65 822.457 1007.84 823.279 1008.23 823.988C1008.63 824.697 1009.16 825.248 1009.83 825.64C1010.5 826.013 1011.26 826.2 1012.1 826.2ZM1025.72 824.548C1026.37 824.548 1026.92 824.763 1027.35 825.192C1027.77 825.621 1027.99 826.181 1027.99 826.872C1027.99 827.171 1027.94 827.488 1027.85 827.824C1027.77 828.141 1027.61 828.627 1027.35 829.28L1025.92 833.228H1023.65L1024.77 828.944C1024.36 828.776 1024.03 828.515 1023.79 828.16C1023.57 827.787 1023.45 827.357 1023.45 826.872C1023.45 826.181 1023.67 825.621 1024.1 825.192C1024.53 824.763 1025.07 824.548 1025.72 824.548ZM1048.14 828.188C1047.72 828.524 1047.22 828.776 1046.62 828.944C1046.04 829.112 1045.43 829.196 1044.78 829.196C1043.13 829.196 1041.86 828.767 1040.97 827.908C1040.07 827.049 1039.62 825.799 1039.62 824.156V816.96H1037.16V814.16H1039.62V810.744H1043.12V814.16H1047.13V816.96H1043.12V824.072C1043.12 824.8 1043.3 825.36 1043.66 825.752C1044.01 826.125 1044.52 826.312 1045.2 826.312C1045.98 826.312 1046.63 826.107 1047.16 825.696L1048.14 828.188ZM1059.5 813.88C1061.38 813.88 1062.9 814.431 1064.03 815.532C1065.17 816.633 1065.74 818.267 1065.74 820.432V829H1062.24V820.88C1062.24 819.573 1061.93 818.593 1061.32 817.94C1060.7 817.268 1059.83 816.932 1058.69 816.932C1057.4 816.932 1056.38 817.324 1055.63 818.108C1054.89 818.873 1054.51 819.984 1054.51 821.44V829H1051.01V808.224H1054.51V815.784C1055.09 815.168 1055.8 814.701 1056.64 814.384C1057.5 814.048 1058.45 813.88 1059.5 813.88ZM1075.89 813.88C1078.1 813.88 1079.78 814.412 1080.93 815.476C1082.11 816.521 1082.7 818.108 1082.7 820.236V829H1079.39V827.18C1078.97 827.833 1078.35 828.337 1077.55 828.692C1076.76 829.028 1075.81 829.196 1074.69 829.196C1073.57 829.196 1072.59 829.009 1071.75 828.636C1070.91 828.244 1070.26 827.712 1069.79 827.04C1069.34 826.349 1069.12 825.575 1069.12 824.716C1069.12 823.372 1069.61 822.299 1070.6 821.496C1071.61 820.675 1073.19 820.264 1075.33 820.264H1079.2V820.04C1079.2 818.995 1078.88 818.192 1078.25 817.632C1077.63 817.072 1076.71 816.792 1075.47 816.792C1074.63 816.792 1073.8 816.923 1072.98 817.184C1072.18 817.445 1071.5 817.809 1070.94 818.276L1069.57 815.728C1070.35 815.131 1071.29 814.673 1072.39 814.356C1073.5 814.039 1074.66 813.88 1075.89 813.88ZM1075.42 826.648C1076.3 826.648 1077.07 826.452 1077.74 826.06C1078.43 825.649 1078.92 825.071 1079.2 824.324V822.588H1075.59C1073.57 822.588 1072.56 823.251 1072.56 824.576C1072.56 825.211 1072.81 825.715 1073.32 826.088C1073.82 826.461 1074.52 826.648 1075.42 826.648ZM1095.67 813.88C1097.56 813.88 1099.07 814.431 1100.21 815.532C1101.35 816.633 1101.92 818.267 1101.92 820.432V829H1098.42V820.88C1098.42 819.573 1098.11 818.593 1097.49 817.94C1096.88 817.268 1096 816.932 1094.86 816.932C1093.57 816.932 1092.56 817.324 1091.81 818.108C1091.06 818.873 1090.69 819.984 1090.69 821.44V829H1087.19V814.048H1090.52V815.98C1091.1 815.289 1091.83 814.767 1092.71 814.412C1093.58 814.057 1094.57 813.88 1095.67 813.88ZM1112.46 822.588L1109.86 825.052V829H1106.36V808.224H1109.86V820.768L1117.11 814.048H1121.31L1115.07 820.32L1121.9 829H1117.64L1112.46 822.588ZM1145.9 814.048L1138.9 830.204C1138.24 831.828 1137.45 832.967 1136.52 833.62C1135.58 834.292 1134.45 834.628 1133.13 834.628C1132.38 834.628 1131.65 834.507 1130.92 834.264C1130.19 834.021 1129.59 833.685 1129.13 833.256L1130.53 830.68C1130.86 830.997 1131.25 831.249 1131.7 831.436C1132.17 831.623 1132.63 831.716 1133.1 831.716C1133.72 831.716 1134.22 831.557 1134.61 831.24C1135.02 830.923 1135.4 830.391 1135.73 829.644L1135.99 829.056L1129.46 814.048H1133.1L1137.81 825.108L1142.54 814.048H1145.9ZM1154.39 829.196C1152.88 829.196 1151.52 828.869 1150.31 828.216C1149.09 827.563 1148.14 826.657 1147.45 825.5C1146.78 824.324 1146.44 822.999 1146.44 821.524C1146.44 820.049 1146.78 818.733 1147.45 817.576C1148.14 816.419 1149.09 815.513 1150.31 814.86C1151.52 814.207 1152.88 813.88 1154.39 813.88C1155.93 813.88 1157.3 814.207 1158.51 814.86C1159.72 815.513 1160.67 816.419 1161.34 817.576C1162.03 818.733 1162.37 820.049 1162.37 821.524C1162.37 822.999 1162.03 824.324 1161.34 825.5C1160.67 826.657 1159.72 827.563 1158.51 828.216C1157.3 828.869 1155.93 829.196 1154.39 829.196ZM1154.39 826.2C1155.68 826.2 1156.75 825.771 1157.59 824.912C1158.43 824.053 1158.85 822.924 1158.85 821.524C1158.85 820.124 1158.43 818.995 1157.59 818.136C1156.75 817.277 1155.68 816.848 1154.39 816.848C1153.11 816.848 1152.04 817.277 1151.2 818.136C1150.38 818.995 1149.97 820.124 1149.97 821.524C1149.97 822.924 1150.38 824.053 1151.2 824.912C1152.04 825.771 1153.11 826.2 1154.39 826.2ZM1180.2 814.048V829H1176.87V827.096C1176.31 827.768 1175.61 828.291 1174.77 828.664C1173.93 829.019 1173.02 829.196 1172.05 829.196C1170.05 829.196 1168.48 828.645 1167.32 827.544C1166.18 826.424 1165.61 824.772 1165.61 822.588V814.048H1169.11V822.112C1169.11 823.456 1169.41 824.464 1170.01 825.136C1170.62 825.789 1171.49 826.116 1172.61 826.116C1173.86 826.116 1174.85 825.733 1175.58 824.968C1176.32 824.184 1176.7 823.064 1176.7 821.608V814.048H1180.2ZM1198.59 810.856C1197.12 810.856 1196.38 811.659 1196.38 813.264V814.16H1200.5V816.96H1196.49V829H1192.99V816.96H1190.53V814.16H1192.99V813.208C1192.99 811.603 1193.46 810.343 1194.39 809.428C1195.33 808.495 1196.64 808.028 1198.34 808.028C1199.69 808.028 1200.74 808.299 1201.51 808.84L1200.53 811.472C1199.93 811.061 1199.29 810.856 1198.59 810.856ZM1209.36 829.196C1207.84 829.196 1206.48 828.869 1205.27 828.216C1204.05 827.563 1203.1 826.657 1202.41 825.5C1201.74 824.324 1201.4 822.999 1201.4 821.524C1201.4 820.049 1201.74 818.733 1202.41 817.576C1203.1 816.419 1204.05 815.513 1205.27 814.86C1206.48 814.207 1207.84 813.88 1209.36 813.88C1210.89 813.88 1212.26 814.207 1213.47 814.86C1214.69 815.513 1215.63 816.419 1216.3 817.576C1216.99 818.733 1217.34 820.049 1217.34 821.524C1217.34 822.999 1216.99 824.324 1216.3 825.5C1215.63 826.657 1214.69 827.563 1213.47 828.216C1212.26 828.869 1210.89 829.196 1209.36 829.196ZM1209.36 826.2C1210.64 826.2 1211.71 825.771 1212.55 824.912C1213.39 824.053 1213.81 822.924 1213.81 821.524C1213.81 820.124 1213.39 818.995 1212.55 818.136C1211.71 817.277 1210.64 816.848 1209.36 816.848C1208.07 816.848 1207 817.277 1206.16 818.136C1205.34 818.995 1204.93 820.124 1204.93 821.524C1204.93 822.924 1205.34 824.053 1206.16 824.912C1207 825.771 1208.07 826.2 1209.36 826.2ZM1224.01 816.232C1225.02 814.664 1226.8 813.88 1229.33 813.88V817.212C1229.04 817.156 1228.77 817.128 1228.52 817.128C1227.16 817.128 1226.1 817.529 1225.33 818.332C1224.57 819.116 1224.18 820.255 1224.18 821.748V829H1220.68V814.048H1224.01V816.232ZM1254.18 814.048L1247.18 830.204C1246.53 831.828 1245.73 832.967 1244.8 833.62C1243.87 834.292 1242.74 834.628 1241.41 834.628C1240.66 834.628 1239.93 834.507 1239.2 834.264C1238.47 834.021 1237.87 833.685 1237.41 833.256L1238.81 830.68C1239.14 830.997 1239.53 831.249 1239.98 831.436C1240.45 831.623 1240.92 831.716 1241.38 831.716C1242 831.716 1242.5 831.557 1242.89 831.24C1243.31 830.923 1243.68 830.391 1244.01 829.644L1244.27 829.056L1237.74 814.048H1241.38L1246.09 825.108L1250.82 814.048H1254.18ZM1262.68 829.196C1261.16 829.196 1259.8 828.869 1258.59 828.216C1257.37 827.563 1256.42 826.657 1255.73 825.5C1255.06 824.324 1254.72 822.999 1254.72 821.524C1254.72 820.049 1255.06 818.733 1255.73 817.576C1256.42 816.419 1257.37 815.513 1258.59 814.86C1259.8 814.207 1261.16 813.88 1262.68 813.88C1264.21 813.88 1265.58 814.207 1266.79 814.86C1268.01 815.513 1268.95 816.419 1269.62 817.576C1270.31 818.733 1270.66 820.049 1270.66 821.524C1270.66 822.999 1270.31 824.324 1269.62 825.5C1268.95 826.657 1268.01 827.563 1266.79 828.216C1265.58 828.869 1264.21 829.196 1262.68 829.196ZM1262.68 826.2C1263.96 826.2 1265.03 825.771 1265.87 824.912C1266.71 824.053 1267.13 822.924 1267.13 821.524C1267.13 820.124 1266.71 818.995 1265.87 818.136C1265.03 817.277 1263.96 816.848 1262.68 816.848C1261.39 816.848 1260.32 817.277 1259.48 818.136C1258.66 818.995 1258.25 820.124 1258.25 821.524C1258.25 822.924 1258.66 824.053 1259.48 824.912C1260.32 825.771 1261.39 826.2 1262.68 826.2ZM1288.48 814.048V829H1285.15V827.096C1284.59 827.768 1283.89 828.291 1283.05 828.664C1282.21 829.019 1281.3 829.196 1280.33 829.196C1278.33 829.196 1276.76 828.645 1275.6 827.544C1274.46 826.424 1273.89 824.772 1273.89 822.588V814.048H1277.39V822.112C1277.39 823.456 1277.69 824.464 1278.29 825.136C1278.9 825.789 1279.77 826.116 1280.89 826.116C1282.14 826.116 1283.13 825.733 1283.86 824.968C1284.61 824.184 1284.98 823.064 1284.98 821.608V814.048H1288.48ZM1296.39 816.232C1297.4 814.664 1299.17 813.88 1301.71 813.88V817.212C1301.41 817.156 1301.14 817.128 1300.9 817.128C1299.54 817.128 1298.47 817.529 1297.71 818.332C1296.94 819.116 1296.56 820.255 1296.56 821.748V829H1293.06V814.048H1296.39V816.232ZM1327.03 814.048V829H1323.7V827.096C1323.14 827.768 1322.44 828.291 1321.6 828.664C1320.76 829.019 1319.86 829.196 1318.89 829.196C1316.89 829.196 1315.31 828.645 1314.15 827.544C1313.02 826.424 1312.45 824.772 1312.45 822.588V814.048H1315.95V822.112C1315.95 823.456 1316.24 824.464 1316.84 825.136C1317.46 825.789 1318.33 826.116 1319.45 826.116C1320.7 826.116 1321.69 825.733 1322.41 824.968C1323.16 824.184 1323.53 823.064 1323.53 821.608V814.048H1327.03ZM1340.1 813.88C1341.99 813.88 1343.5 814.431 1344.64 815.532C1345.77 816.633 1346.34 818.267 1346.34 820.432V829H1342.84V820.88C1342.84 819.573 1342.54 818.593 1341.92 817.94C1341.3 817.268 1340.43 816.932 1339.29 816.932C1338 816.932 1336.98 817.324 1336.24 818.108C1335.49 818.873 1335.12 819.984 1335.12 821.44V829H1331.62V814.048H1334.95V815.98C1335.53 815.289 1336.25 814.767 1337.13 814.412C1338.01 814.057 1339 813.88 1340.1 813.88ZM1365.57 808.224V829H1362.21V827.068C1361.63 827.777 1360.91 828.309 1360.05 828.664C1359.21 829.019 1358.28 829.196 1357.25 829.196C1355.81 829.196 1354.51 828.879 1353.36 828.244C1352.22 827.609 1351.32 826.713 1350.67 825.556C1350.02 824.38 1349.69 823.036 1349.69 821.524C1349.69 820.012 1350.02 818.677 1350.67 817.52C1351.32 816.363 1352.22 815.467 1353.36 814.832C1354.51 814.197 1355.81 813.88 1357.25 813.88C1358.24 813.88 1359.14 814.048 1359.97 814.384C1360.79 814.72 1361.49 815.224 1362.07 815.896V808.224H1365.57ZM1357.67 826.2C1358.51 826.2 1359.27 826.013 1359.94 825.64C1360.61 825.248 1361.14 824.697 1361.53 823.988C1361.93 823.279 1362.12 822.457 1362.12 821.524C1362.12 820.591 1361.93 819.769 1361.53 819.06C1361.14 818.351 1360.61 817.809 1359.94 817.436C1359.27 817.044 1358.51 816.848 1357.67 816.848C1356.83 816.848 1356.07 817.044 1355.4 817.436C1354.73 817.809 1354.2 818.351 1353.81 819.06C1353.41 819.769 1353.22 820.591 1353.22 821.524C1353.22 822.457 1353.41 823.279 1353.81 823.988C1354.2 824.697 1354.73 825.248 1355.4 825.64C1356.07 826.013 1356.83 826.2 1357.67 826.2ZM1384.2 821.608C1384.2 821.851 1384.18 822.196 1384.14 822.644H1372.41C1372.62 823.745 1373.15 824.623 1374.01 825.276C1374.88 825.911 1375.97 826.228 1377.26 826.228C1378.9 826.228 1380.25 825.687 1381.32 824.604L1383.19 826.76C1382.52 827.563 1381.67 828.169 1380.64 828.58C1379.62 828.991 1378.46 829.196 1377.17 829.196C1375.53 829.196 1374.08 828.869 1372.83 828.216C1371.58 827.563 1370.61 826.657 1369.92 825.5C1369.25 824.324 1368.91 822.999 1368.91 821.524C1368.91 820.068 1369.24 818.761 1369.89 817.604C1370.56 816.428 1371.49 815.513 1372.66 814.86C1373.84 814.207 1375.16 813.88 1376.64 813.88C1378.1 813.88 1379.39 814.207 1380.53 814.86C1381.69 815.495 1382.58 816.4 1383.22 817.576C1383.87 818.733 1384.2 820.077 1384.2 821.608ZM1376.64 816.68C1375.52 816.68 1374.57 817.016 1373.78 817.688C1373.02 818.341 1372.55 819.219 1372.38 820.32H1380.87C1380.72 819.237 1380.26 818.36 1379.5 817.688C1378.73 817.016 1377.78 816.68 1376.64 816.68ZM1390.89 816.232C1391.9 814.664 1393.67 813.88 1396.21 813.88V817.212C1395.91 817.156 1395.64 817.128 1395.4 817.128C1394.04 817.128 1392.97 817.529 1392.21 818.332C1391.44 819.116 1391.06 820.255 1391.06 821.748V829H1387.56V814.048H1390.89V816.232ZM1403.86 829.196C1402.64 829.196 1401.46 829.037 1400.3 828.72C1399.14 828.403 1398.22 828.001 1397.53 827.516L1398.87 824.856C1399.55 825.304 1400.35 825.668 1401.28 825.948C1402.23 826.209 1403.17 826.34 1404.08 826.34C1406.17 826.34 1407.22 825.789 1407.22 824.688C1407.22 824.165 1406.95 823.801 1406.41 823.596C1405.88 823.391 1405.03 823.195 1403.86 823.008C1402.63 822.821 1401.62 822.607 1400.83 822.364C1400.07 822.121 1399.4 821.701 1398.82 821.104C1398.26 820.488 1397.98 819.639 1397.98 818.556C1397.98 817.137 1398.57 816.008 1399.74 815.168C1400.94 814.309 1402.54 813.88 1404.56 813.88C1405.58 813.88 1406.61 814.001 1407.64 814.244C1408.66 814.468 1409.5 814.776 1410.16 815.168L1408.81 817.828C1407.54 817.081 1406.12 816.708 1404.53 816.708C1403.5 816.708 1402.72 816.867 1402.18 817.184C1401.65 817.483 1401.39 817.884 1401.39 818.388C1401.39 818.948 1401.67 819.349 1402.23 819.592C1402.81 819.816 1403.7 820.031 1404.89 820.236C1406.09 820.423 1407.07 820.637 1407.83 820.88C1408.6 821.123 1409.25 821.533 1409.79 822.112C1410.35 822.691 1410.63 823.512 1410.63 824.576C1410.63 825.976 1410.03 827.096 1408.81 827.936C1407.6 828.776 1405.95 829.196 1403.86 829.196ZM1422.64 828.188C1422.22 828.524 1421.72 828.776 1421.12 828.944C1420.54 829.112 1419.93 829.196 1419.28 829.196C1417.63 829.196 1416.36 828.767 1415.47 827.908C1414.57 827.049 1414.12 825.799 1414.12 824.156V816.96H1411.66V814.16H1414.12V810.744H1417.62V814.16H1421.63V816.96H1417.62V824.072C1417.62 824.8 1417.8 825.36 1418.16 825.752C1418.51 826.125 1419.02 826.312 1419.7 826.312C1420.48 826.312 1421.13 826.107 1421.66 825.696L1422.64 828.188ZM1431.23 813.88C1433.43 813.88 1435.11 814.412 1436.27 815.476C1437.44 816.521 1438.03 818.108 1438.03 820.236V829H1434.73V827.18C1434.3 827.833 1433.68 828.337 1432.88 828.692C1432.09 829.028 1431.14 829.196 1430.02 829.196C1428.9 829.196 1427.92 829.009 1427.08 828.636C1426.24 828.244 1425.59 827.712 1425.12 827.04C1424.67 826.349 1424.45 825.575 1424.45 824.716C1424.45 823.372 1424.95 822.299 1425.93 821.496C1426.94 820.675 1428.52 820.264 1430.67 820.264H1434.53V820.04C1434.53 818.995 1434.21 818.192 1433.58 817.632C1432.96 817.072 1432.04 816.792 1430.81 816.792C1429.97 816.792 1429.14 816.923 1428.31 817.184C1427.51 817.445 1426.83 817.809 1426.27 818.276L1424.9 815.728C1425.68 815.131 1426.63 814.673 1427.73 814.356C1428.83 814.039 1429.99 813.88 1431.23 813.88ZM1430.75 826.648C1431.63 826.648 1432.4 826.452 1433.07 826.06C1433.77 825.649 1434.25 825.071 1434.53 824.324V822.588H1430.92C1428.9 822.588 1427.89 823.251 1427.89 824.576C1427.89 825.211 1428.15 825.715 1428.65 826.088C1429.15 826.461 1429.85 826.648 1430.75 826.648ZM1451.01 813.88C1452.89 813.88 1454.4 814.431 1455.54 815.532C1456.68 816.633 1457.25 818.267 1457.25 820.432V829H1453.75V820.88C1453.75 819.573 1453.44 818.593 1452.83 817.94C1452.21 817.268 1451.33 816.932 1450.19 816.932C1448.91 816.932 1447.89 817.324 1447.14 818.108C1446.4 818.873 1446.02 819.984 1446.02 821.44V829H1442.52V814.048H1445.85V815.98C1446.43 815.289 1447.16 814.767 1448.04 814.412C1448.92 814.057 1449.91 813.88 1451.01 813.88ZM1476.47 808.224V829H1473.11V827.068C1472.53 827.777 1471.81 828.309 1470.96 828.664C1470.12 829.019 1469.18 829.196 1468.16 829.196C1466.72 829.196 1465.42 828.879 1464.26 828.244C1463.12 827.609 1462.23 826.713 1461.58 825.556C1460.92 824.38 1460.6 823.036 1460.6 821.524C1460.6 820.012 1460.92 818.677 1461.58 817.52C1462.23 816.363 1463.12 815.467 1464.26 814.832C1465.42 814.197 1466.72 813.88 1468.16 813.88C1469.14 813.88 1470.05 814.048 1470.87 814.384C1471.69 814.72 1472.39 815.224 1472.97 815.896V808.224H1476.47ZM1468.58 826.2C1469.42 826.2 1470.17 826.013 1470.84 825.64C1471.52 825.248 1472.05 824.697 1472.44 823.988C1472.83 823.279 1473.03 822.457 1473.03 821.524C1473.03 820.591 1472.83 819.769 1472.44 819.06C1472.05 818.351 1471.52 817.809 1470.84 817.436C1470.17 817.044 1469.42 816.848 1468.58 816.848C1467.74 816.848 1466.98 817.044 1466.31 817.436C1465.64 817.809 1465.1 818.351 1464.71 819.06C1464.32 819.769 1464.12 820.591 1464.12 821.524C1464.12 822.457 1464.32 823.279 1464.71 823.988C1465.1 824.697 1465.64 825.248 1466.31 825.64C1466.98 826.013 1467.74 826.2 1468.58 826.2ZM1481.05 814.048H1484.55V829H1481.05V814.048ZM1482.81 811.584C1482.18 811.584 1481.65 811.388 1481.22 810.996C1480.79 810.585 1480.57 810.081 1480.57 809.484C1480.57 808.887 1480.79 808.392 1481.22 808C1481.65 807.589 1482.18 807.384 1482.81 807.384C1483.45 807.384 1483.98 807.58 1484.41 807.972C1484.84 808.345 1485.05 808.821 1485.05 809.4C1485.05 810.016 1484.84 810.539 1484.41 810.968C1484 811.379 1483.47 811.584 1482.81 811.584ZM1497.63 813.88C1499.51 813.88 1501.02 814.431 1502.16 815.532C1503.3 816.633 1503.87 818.267 1503.87 820.432V829H1500.37V820.88C1500.37 819.573 1500.06 818.593 1499.45 817.94C1498.83 817.268 1497.95 816.932 1496.82 816.932C1495.53 816.932 1494.51 817.324 1493.76 818.108C1493.02 818.873 1492.64 819.984 1492.64 821.44V829H1489.14V814.048H1492.48V815.98C1493.05 815.289 1493.78 814.767 1494.66 814.412C1495.54 814.057 1496.53 813.88 1497.63 813.88ZM1523.29 814.048V826.732C1523.29 831.996 1520.6 834.628 1515.22 834.628C1513.79 834.628 1512.42 834.441 1511.14 834.068C1509.85 833.713 1508.78 833.191 1507.94 832.5L1509.51 829.868C1510.17 830.409 1510.99 830.839 1511.98 831.156C1512.98 831.492 1514 831.66 1515.03 831.66C1516.67 831.66 1517.88 831.287 1518.64 830.54C1519.41 829.793 1519.79 828.655 1519.79 827.124V826.34C1519.19 826.993 1518.46 827.488 1517.6 827.824C1516.75 828.16 1515.8 828.328 1514.78 828.328C1513.36 828.328 1512.07 828.029 1510.91 827.432C1509.77 826.816 1508.87 825.957 1508.2 824.856C1507.54 823.755 1507.22 822.495 1507.22 821.076C1507.22 819.657 1507.54 818.407 1508.2 817.324C1508.87 816.223 1509.77 815.373 1510.91 814.776C1512.07 814.179 1513.36 813.88 1514.78 813.88C1515.86 813.88 1516.84 814.057 1517.72 814.412C1518.61 814.767 1519.36 815.308 1519.96 816.036V814.048H1523.29ZM1515.31 825.36C1516.63 825.36 1517.72 824.968 1518.56 824.184C1519.42 823.381 1519.84 822.345 1519.84 821.076C1519.84 819.825 1519.42 818.808 1518.56 818.024C1517.72 817.24 1516.63 816.848 1515.31 816.848C1513.96 816.848 1512.86 817.24 1512 818.024C1511.16 818.808 1510.74 819.825 1510.74 821.076C1510.74 822.345 1511.16 823.381 1512 824.184C1512.86 824.968 1513.96 825.36 1515.31 825.36ZM1529.01 829.196C1528.38 829.196 1527.83 828.981 1527.39 828.552C1526.94 828.104 1526.71 827.544 1526.71 826.872C1526.71 826.181 1526.93 825.621 1527.36 825.192C1527.81 824.763 1528.36 824.548 1529.01 824.548C1529.66 824.548 1530.2 824.763 1530.63 825.192C1531.08 825.621 1531.31 826.181 1531.31 826.872C1531.31 827.544 1531.08 828.104 1530.63 828.552C1530.19 828.981 1529.64 829.196 1529.01 829.196Z" fill="#F5F5F7" fill-opacity="0.57"/>
<path d="M881.62 938.448C882.316 938.676 882.868 939.06 883.276 939.6C883.684 940.128 883.888 940.788 883.888 941.58C883.888 942.672 883.468 943.518 882.628 944.118C881.788 944.706 880.564 945 878.956 945H872.692V932.4H878.596C880.084 932.4 881.23 932.694 882.034 933.282C882.838 933.858 883.24 934.656 883.24 935.676C883.24 936.3 883.096 936.852 882.808 937.332C882.52 937.812 882.124 938.184 881.62 938.448ZM875.032 934.236V937.71H878.344C879.16 937.71 879.784 937.566 880.216 937.278C880.66 936.978 880.882 936.546 880.882 935.982C880.882 935.406 880.66 934.974 880.216 934.686C879.784 934.386 879.16 934.236 878.344 934.236H875.032ZM878.812 943.164C880.624 943.164 881.53 942.558 881.53 941.346C881.53 940.134 880.624 939.528 878.812 939.528H875.032V943.164H878.812ZM889.841 935.28C891.257 935.28 892.337 935.622 893.081 936.306C893.837 936.978 894.215 937.998 894.215 939.366V945H892.091V943.83C891.815 944.25 891.419 944.574 890.903 944.802C890.399 945.018 889.787 945.126 889.067 945.126C888.347 945.126 887.717 945.006 887.177 944.766C886.637 944.514 886.217 944.172 885.917 943.74C885.629 943.296 885.485 942.798 885.485 942.246C885.485 941.382 885.803 940.692 886.439 940.176C887.087 939.648 888.101 939.384 889.481 939.384H891.965V939.24C891.965 938.568 891.761 938.052 891.353 937.692C890.957 937.332 890.363 937.152 889.571 937.152C889.031 937.152 888.497 937.236 887.969 937.404C887.453 937.572 887.015 937.806 886.655 938.106L885.773 936.468C886.277 936.084 886.883 935.79 887.591 935.586C888.299 935.382 889.049 935.28 889.841 935.28ZM889.535 943.488C890.099 943.488 890.597 943.362 891.029 943.11C891.473 942.846 891.785 942.474 891.965 941.994V940.878H889.643C888.347 940.878 887.699 941.304 887.699 942.156C887.699 942.564 887.861 942.888 888.185 943.128C888.509 943.368 888.959 943.488 889.535 943.488ZM901.601 945.126C900.605 945.126 899.711 944.916 898.919 944.496C898.127 944.076 897.509 943.494 897.065 942.75C896.621 941.994 896.399 941.142 896.399 940.194C896.399 939.246 896.621 938.4 897.065 937.656C897.509 936.912 898.121 936.33 898.901 935.91C899.693 935.49 900.593 935.28 901.601 935.28C902.549 935.28 903.377 935.472 904.085 935.856C904.805 936.24 905.345 936.792 905.705 937.512L903.977 938.52C903.701 938.076 903.353 937.746 902.933 937.53C902.525 937.302 902.075 937.188 901.583 937.188C900.743 937.188 900.047 937.464 899.495 938.016C898.943 938.556 898.667 939.282 898.667 940.194C898.667 941.106 898.937 941.838 899.477 942.39C900.029 942.93 900.731 943.2 901.583 943.2C902.075 943.2 902.525 943.092 902.933 942.876C903.353 942.648 903.701 942.312 903.977 941.868L905.705 942.876C905.333 943.596 904.787 944.154 904.067 944.55C903.359 944.934 902.537 945.126 901.601 945.126ZM911.486 940.878L909.812 942.462V945H907.562V931.644H909.812V939.708L914.474 935.388H917.174L913.16 939.42L917.552 945H914.816L911.486 940.878ZM929.758 944.478C929.494 944.694 929.17 944.856 928.786 944.964C928.414 945.072 928.018 945.126 927.598 945.126C926.542 945.126 925.726 944.85 925.15 944.298C924.574 943.746 924.286 942.942 924.286 941.886V937.26H922.702V935.46H924.286V933.264H926.536V935.46H929.11V937.26H926.536V941.832C926.536 942.3 926.65 942.66 926.878 942.912C927.106 943.152 927.436 943.272 927.868 943.272C928.372 943.272 928.792 943.14 929.128 942.876L929.758 944.478ZM935.612 945.126C934.64 945.126 933.764 944.916 932.984 944.496C932.204 944.076 931.592 943.494 931.148 942.75C930.716 941.994 930.5 941.142 930.5 940.194C930.5 939.246 930.716 938.4 931.148 937.656C931.592 936.912 932.204 936.33 932.984 935.91C933.764 935.49 934.64 935.28 935.612 935.28C936.596 935.28 937.478 935.49 938.258 935.91C939.038 936.33 939.644 936.912 940.076 937.656C940.52 938.4 940.742 939.246 940.742 940.194C940.742 941.142 940.52 941.994 940.076 942.75C939.644 943.494 939.038 944.076 938.258 944.496C937.478 944.916 936.596 945.126 935.612 945.126ZM935.612 943.2C936.44 943.2 937.124 942.924 937.664 942.372C938.204 941.82 938.474 941.094 938.474 940.194C938.474 939.294 938.204 938.568 937.664 938.016C937.124 937.464 936.44 937.188 935.612 937.188C934.784 937.188 934.1 937.464 933.56 938.016C933.032 938.568 932.768 939.294 932.768 940.194C932.768 941.094 933.032 941.82 933.56 942.372C934.1 942.924 934.784 943.2 935.612 943.2ZM948.085 932.4H953.593C954.937 932.4 956.131 932.664 957.175 933.192C958.219 933.708 959.029 934.446 959.605 935.406C960.181 936.354 960.469 937.452 960.469 938.7C960.469 939.948 960.181 941.052 959.605 942.012C959.029 942.96 958.219 943.698 957.175 944.226C956.131 944.742 954.937 945 953.593 945H948.085V932.4ZM953.485 943.02C954.409 943.02 955.219 942.846 955.915 942.498C956.623 942.138 957.163 941.634 957.535 940.986C957.919 940.326 958.111 939.564 958.111 938.7C958.111 937.836 957.919 937.08 957.535 936.432C957.163 935.772 956.623 935.268 955.915 934.92C955.219 934.56 954.409 934.38 953.485 934.38H950.425V943.02H953.485ZM966.412 935.28C967.828 935.28 968.908 935.622 969.652 936.306C970.408 936.978 970.786 937.998 970.786 939.366V945H968.662V943.83C968.386 944.25 967.99 944.574 967.474 944.802C966.97 945.018 966.358 945.126 965.638 945.126C964.918 945.126 964.288 945.006 963.748 944.766C963.208 944.514 962.788 944.172 962.488 943.74C962.2 943.296 962.056 942.798 962.056 942.246C962.056 941.382 962.374 940.692 963.01 940.176C963.658 939.648 964.672 939.384 966.052 939.384H968.536V939.24C968.536 938.568 968.332 938.052 967.924 937.692C967.528 937.332 966.934 937.152 966.142 937.152C965.602 937.152 965.068 937.236 964.54 937.404C964.024 937.572 963.586 937.806 963.226 938.106L962.344 936.468C962.848 936.084 963.454 935.79 964.162 935.586C964.87 935.382 965.62 935.28 966.412 935.28ZM966.106 943.488C966.67 943.488 967.168 943.362 967.6 943.11C968.044 942.846 968.356 942.474 968.536 941.994V940.878H966.214C964.918 940.878 964.27 941.304 964.27 942.156C964.27 942.564 964.432 942.888 964.756 943.128C965.08 943.368 965.53 943.488 966.106 943.488ZM976.643 945.126C975.863 945.126 975.101 945.024 974.357 944.82C973.613 944.616 973.019 944.358 972.575 944.046L973.439 942.336C973.871 942.624 974.387 942.858 974.987 943.038C975.599 943.206 976.199 943.29 976.787 943.29C978.131 943.29 978.803 942.936 978.803 942.228C978.803 941.892 978.629 941.658 978.281 941.526C977.945 941.394 977.399 941.268 976.643 941.148C975.851 941.028 975.203 940.89 974.699 940.734C974.207 940.578 973.775 940.308 973.403 939.924C973.043 939.528 972.863 938.982 972.863 938.286C972.863 937.374 973.241 936.648 973.997 936.108C974.765 935.556 975.797 935.28 977.093 935.28C977.753 935.28 978.413 935.358 979.073 935.514C979.733 935.658 980.273 935.856 980.693 936.108L979.829 937.818C979.013 937.338 978.095 937.098 977.075 937.098C976.415 937.098 975.911 937.2 975.563 937.404C975.227 937.596 975.059 937.854 975.059 938.178C975.059 938.538 975.239 938.796 975.599 938.952C975.971 939.096 976.541 939.234 977.309 939.366C978.077 939.486 978.707 939.624 979.199 939.78C979.691 939.936 980.111 940.2 980.459 940.572C980.819 940.944 980.999 941.472 980.999 942.156C980.999 943.056 980.609 943.776 979.829 944.316C979.049 944.856 977.987 945.126 976.643 945.126ZM988.391 935.28C989.603 935.28 990.575 935.634 991.307 936.342C992.039 937.05 992.405 938.1 992.405 939.492V945H990.155V939.78C990.155 938.94 989.957 938.31 989.561 937.89C989.165 937.458 988.601 937.242 987.869 937.242C987.041 937.242 986.387 937.494 985.907 937.998C985.427 938.49 985.187 939.204 985.187 940.14V945H982.937V931.644H985.187V936.504C985.559 936.108 986.015 935.808 986.555 935.604C987.107 935.388 987.719 935.28 988.391 935.28ZM1000.59 935.28C1001.52 935.28 1002.36 935.484 1003.09 935.892C1003.83 936.3 1004.42 936.876 1004.84 937.62C1005.26 938.364 1005.47 939.222 1005.47 940.194C1005.47 941.166 1005.26 942.03 1004.84 942.786C1004.42 943.53 1003.83 944.106 1003.09 944.514C1002.36 944.922 1001.52 945.126 1000.59 945.126C999.927 945.126 999.321 945.012 998.769 944.784C998.229 944.556 997.773 944.214 997.401 943.758V945H995.259V931.644H997.509V936.558C997.893 936.138 998.343 935.82 998.859 935.604C999.387 935.388 999.963 935.28 1000.59 935.28ZM1000.34 943.2C1001.16 943.2 1001.84 942.924 1002.37 942.372C1002.91 941.82 1003.18 941.094 1003.18 940.194C1003.18 939.294 1002.91 938.568 1002.37 938.016C1001.84 937.464 1001.16 937.188 1000.34 937.188C999.795 937.188 999.309 937.314 998.877 937.566C998.445 937.806 998.103 938.154 997.851 938.61C997.599 939.066 997.473 939.594 997.473 940.194C997.473 940.794 997.599 941.322 997.851 941.778C998.103 942.234 998.445 942.588 998.877 942.84C999.309 943.08 999.795 943.2 1000.34 943.2ZM1011.92 945.126C1010.95 945.126 1010.07 944.916 1009.29 944.496C1008.51 944.076 1007.9 943.494 1007.46 942.75C1007.02 941.994 1006.81 941.142 1006.81 940.194C1006.81 939.246 1007.02 938.4 1007.46 937.656C1007.9 936.912 1008.51 936.33 1009.29 935.91C1010.07 935.49 1010.95 935.28 1011.92 935.28C1012.9 935.28 1013.79 935.49 1014.57 935.91C1015.35 936.33 1015.95 936.912 1016.38 937.656C1016.83 938.4 1017.05 939.246 1017.05 940.194C1017.05 941.142 1016.83 941.994 1016.38 942.75C1015.95 943.494 1015.35 944.076 1014.57 944.496C1013.79 944.916 1012.9 945.126 1011.92 945.126ZM1011.92 943.2C1012.75 943.2 1013.43 942.924 1013.97 942.372C1014.51 941.82 1014.78 941.094 1014.78 940.194C1014.78 939.294 1014.51 938.568 1013.97 938.016C1013.43 937.464 1012.75 937.188 1011.92 937.188C1011.09 937.188 1010.41 937.464 1009.87 938.016C1009.34 938.568 1009.08 939.294 1009.08 940.194C1009.08 941.094 1009.34 941.82 1009.87 942.372C1010.41 942.924 1011.09 943.2 1011.92 943.2ZM1022.75 935.28C1024.17 935.28 1025.25 935.622 1025.99 936.306C1026.75 936.978 1027.12 937.998 1027.12 939.366V945H1025V943.83C1024.72 944.25 1024.33 944.574 1023.81 944.802C1023.31 945.018 1022.7 945.126 1021.98 945.126C1021.26 945.126 1020.63 945.006 1020.09 944.766C1019.55 944.514 1019.13 944.172 1018.83 943.74C1018.54 943.296 1018.39 942.798 1018.39 942.246C1018.39 941.382 1018.71 940.692 1019.35 940.176C1020 939.648 1021.01 939.384 1022.39 939.384H1024.87V939.24C1024.87 938.568 1024.67 938.052 1024.26 937.692C1023.87 937.332 1023.27 937.152 1022.48 937.152C1021.94 937.152 1021.41 937.236 1020.88 937.404C1020.36 937.572 1019.92 937.806 1019.56 938.106L1018.68 936.468C1019.19 936.084 1019.79 935.79 1020.5 935.586C1021.21 935.382 1021.96 935.28 1022.75 935.28ZM1022.44 943.488C1023.01 943.488 1023.51 943.362 1023.94 943.11C1024.38 942.846 1024.69 942.474 1024.87 941.994V940.878H1022.55C1021.26 940.878 1020.61 941.304 1020.61 942.156C1020.61 942.564 1020.77 942.888 1021.09 943.128C1021.42 943.368 1021.87 943.488 1022.44 943.488ZM1032.15 936.792C1032.8 935.784 1033.94 935.28 1035.57 935.28V937.422C1035.38 937.386 1035.21 937.368 1035.05 937.368C1034.18 937.368 1033.49 937.626 1033 938.142C1032.51 938.646 1032.26 939.378 1032.26 940.338V945H1030.01V935.388H1032.15V936.792ZM1046.81 931.644V945H1044.65V943.758C1044.28 944.214 1043.81 944.556 1043.26 944.784C1042.72 945.012 1042.12 945.126 1041.46 945.126C1040.54 945.126 1039.7 944.922 1038.96 944.514C1038.23 944.106 1037.65 943.53 1037.23 942.786C1036.81 942.03 1036.6 941.166 1036.6 940.194C1036.6 939.222 1036.81 938.364 1037.23 937.62C1037.65 936.876 1038.23 936.3 1038.96 935.892C1039.7 935.484 1040.54 935.28 1041.46 935.28C1042.1 935.28 1042.68 935.388 1043.21 935.604C1043.74 935.82 1044.19 936.144 1044.56 936.576V931.644H1046.81ZM1041.73 943.2C1042.27 943.2 1042.76 943.08 1043.19 942.84C1043.62 942.588 1043.96 942.234 1044.22 941.778C1044.47 941.322 1044.59 940.794 1044.59 940.194C1044.59 939.594 1044.47 939.066 1044.22 938.61C1043.96 938.154 1043.62 937.806 1043.19 937.566C1042.76 937.314 1042.27 937.188 1041.73 937.188C1041.19 937.188 1040.71 937.314 1040.27 937.566C1039.84 937.806 1039.5 938.154 1039.25 938.61C1039 939.066 1038.87 939.594 1038.87 940.194C1038.87 940.794 1039 941.322 1039.25 941.778C1039.5 942.234 1039.84 942.588 1040.27 942.84C1040.71 943.08 1041.19 943.2 1041.73 943.2Z" fill="#2940D3"/>
<path d="M871 946.8H1048.28V947.7H871V946.8Z" fill="#2940D3"/>
</svg>
