<svg width="24" height="24" viewBox="0 0 24 24" fill="none" xmlns="http://www.w3.org/2000/svg">
<path fill-rule="evenodd" clip-rule="evenodd" d="M2.25 1.5C2.44891 1.5 2.63968 1.57902 2.78033 1.71967C2.92098 1.86032 3 2.05109 3 2.25V21.75C3 21.9489 2.92098 22.1397 2.78033 22.2803C2.63968 22.421 2.44891 22.5 2.25 22.5C2.05109 22.5 1.86032 22.421 1.71967 22.2803C1.57902 22.1397 1.5 21.9489 1.5 21.75V2.25C1.5 2.05109 1.57902 1.86032 1.71967 1.71967C1.86032 1.57902 2.05109 1.5 2.25 1.5Z" fill="black"/>
<path d="M4.5 10.5C4.5 10.1022 4.65804 9.72064 4.93934 9.43934C5.22064 9.15804 5.60218 9 6 9H21C21.3978 9 21.7794 9.15804 22.0607 9.43934C22.342 9.72064 22.5 10.1022 22.5 10.5V13.5C22.5 13.8978 22.342 14.2794 22.0607 14.5607C21.7794 14.842 21.3978 15 21 15H6C5.60218 15 5.22064 14.842 4.93934 14.5607C4.65804 14.2794 4.5 13.8978 4.5 13.5V10.5Z" fill="black"/>
</svg>
