<svg width="24" height="24" viewBox="0 0 24 24" fill="none" xmlns="http://www.w3.org/2000/svg">
<path d="M1.5 20.25C1.5 20.4489 1.57902 20.6397 1.71967 20.7803C1.86032 20.921 2.05109 21 2.25 21H7.9455C8.08016 21.0001 8.21237 20.9639 8.32824 20.8953C8.44411 20.8267 8.53936 20.7281 8.604 20.61L16.5 4.5H21.75C21.9489 4.5 22.1397 4.42098 22.2803 4.28033C22.421 4.13968 22.5 3.94891 22.5 3.75C22.5 3.55109 22.421 3.36032 22.2803 3.21967C22.1397 3.07902 21.9489 3 21.75 3H16.0545C15.9198 2.9999 15.7876 3.03606 15.6718 3.10469C15.5559 3.17331 15.4606 3.27186 15.396 3.39L7.5 19.5H2.25C2.05109 19.5 1.86032 19.579 1.71967 19.7197C1.57902 19.8603 1.5 20.0511 1.5 20.25ZM16.5 20.25C16.5 20.4489 16.579 20.6397 16.7197 20.7803C16.8603 20.921 17.0511 21 17.25 21H21.75C21.9489 21 22.1397 20.921 22.2803 20.7803C22.421 20.6397 22.5 20.4489 22.5 20.25C22.5 20.0511 22.421 19.8603 22.2803 19.7197C22.1397 19.579 21.9489 19.5 21.75 19.5H17.25C17.0511 19.5 16.8603 19.579 16.7197 19.7197C16.579 19.8603 16.5 20.0511 16.5 20.25Z" fill="black"/>
</svg>
