<svg width="24" height="24" viewBox="0 0 24 24" fill="none" xmlns="http://www.w3.org/2000/svg">
<g clip-path="url(#clip0_2_7967)">
<path d="M18.9645 22.5C20.9685 22.5 22.5 20.7675 22.5 18.75V7.5H1.5V18.75C1.5 20.7675 3.0315 22.5 5.0355 22.5H18.9645ZM8.25 10.5H15.75C15.9489 10.5 16.1397 10.579 16.2803 10.7197C16.421 10.8603 16.5 11.0511 16.5 11.25C16.5 11.4489 16.421 11.6397 16.2803 11.7803C16.1397 11.921 15.9489 12 15.75 12H8.25C8.05109 12 7.86032 11.921 7.71967 11.7803C7.57902 11.6397 7.5 11.4489 7.5 11.25C7.5 11.0511 7.57902 10.8603 7.71967 10.7197C7.86032 10.579 8.05109 10.5 8.25 10.5ZM1.2 1.5C0.88174 1.5 0.576516 1.62643 0.351472 1.85147C0.126428 2.07652 0 2.38174 0 2.7L0 4.5C0 4.81826 0.126428 5.12348 0.351472 5.34853C0.576516 5.57357 0.88174 5.7 1.2 5.7H22.8C23.1183 5.7 23.4235 5.57357 23.6485 5.34853C23.8736 5.12348 24 4.81826 24 4.5V2.7C24 2.38174 23.8736 2.07652 23.6485 1.85147C23.4235 1.62643 23.1183 1.5 22.8 1.5H1.2Z" fill="black"/>
</g>
<defs>
<clipPath id="clip0_2_7967">
<rect width="24" height="24" fill="white"/>
</clipPath>
</defs>
</svg>
