<svg width="24" height="24" viewBox="0 0 24 24" fill="none" xmlns="http://www.w3.org/2000/svg">
<g clip-path="url(#clip0_2_7965)">
<path fill-rule="evenodd" clip-rule="evenodd" d="M7.28097 1.719C7.2113 1.64915 7.12854 1.59374 7.03742 1.55593C6.9463 1.51812 6.84862 1.49866 6.74997 1.49866C6.65132 1.49866 6.55364 1.51812 6.46252 1.55593C6.3714 1.59374 6.28864 1.64915 6.21897 1.719L0.218971 7.719C0.0781409 7.85983 -0.000976562 8.05083 -0.000976562 8.25C-0.000976563 8.44916 0.0781409 8.64017 0.218971 8.781C0.359801 8.92183 0.550807 9.00095 0.749971 9.00095C0.949135 9.00095 1.14014 8.92183 1.28097 8.781L5.99997 4.0605V18.75C5.99997 19.7446 6.39506 20.6984 7.09832 21.4016C7.80158 22.1049 8.75541 22.5 9.74997 22.5H21.75C21.9489 22.5 22.1397 22.421 22.2803 22.2803C22.421 22.1397 22.5 21.9489 22.5 21.75C22.5 21.5511 22.421 21.3603 22.2803 21.2197C22.1397 21.079 21.9489 21 21.75 21H9.74997C9.15323 21 8.58094 20.7629 8.15898 20.341C7.73702 19.919 7.49997 19.3467 7.49997 18.75V4.0605L12.219 8.781C12.2887 8.85073 12.3715 8.90604 12.4626 8.94378C12.5537 8.98152 12.6514 9.00095 12.75 9.00095C12.8486 9.00095 12.9462 8.98152 13.0373 8.94378C13.1285 8.90604 13.2112 8.85073 13.281 8.781C13.3507 8.71127 13.406 8.62848 13.4438 8.53737C13.4815 8.44626 13.5009 8.34861 13.5009 8.25C13.5009 8.15138 13.4815 8.05373 13.4438 7.96262C13.406 7.87151 13.3507 7.78873 13.281 7.719L7.28097 1.719Z" fill="black"/>
</g>
<defs>
<clipPath id="clip0_2_7965">
<rect width="24" height="24" fill="white"/>
</clipPath>
</defs>
</svg>
