<svg width="24" height="24" viewBox="0 0 24 24" fill="none" xmlns="http://www.w3.org/2000/svg">
<path fill-rule="evenodd" clip-rule="evenodd" d="M1.5 12C1.5 11.8011 1.57902 11.6103 1.71967 11.4697C1.86032 11.329 2.05109 11.25 2.25 11.25H21.75C21.9489 11.25 22.1397 11.329 22.2803 11.4697C22.421 11.6103 22.5 11.8011 22.5 12C22.5 12.1989 22.421 12.3897 22.2803 12.5303C22.1397 12.671 21.9489 12.75 21.75 12.75H2.25C2.05109 12.75 1.86032 12.671 1.71967 12.5303C1.57902 12.3897 1.5 12.1989 1.5 12ZM12 0C12.1989 0 12.3897 0.0790176 12.5303 0.21967C12.671 0.360322 12.75 0.551088 12.75 0.75V6.4395L14.469 4.719C14.6098 4.57817 14.8008 4.49905 15 4.49905C15.1992 4.49905 15.3902 4.57817 15.531 4.719C15.6718 4.85983 15.7509 5.05084 15.7509 5.25C15.7509 5.44916 15.6718 5.64017 15.531 5.781L12.531 8.781C12.4613 8.85085 12.3786 8.90626 12.2874 8.94407C12.1963 8.98188 12.0987 9.00134 12 9.00134C11.9013 9.00134 11.8037 8.98188 11.7125 8.94407C11.6214 8.90626 11.5387 8.85085 11.469 8.781L8.469 5.781C8.32817 5.64017 8.24905 5.44916 8.24905 5.25C8.24905 5.05084 8.32817 4.85983 8.469 4.719C8.60983 4.57817 8.80084 4.49905 9 4.49905C9.19916 4.49905 9.39017 4.57817 9.531 4.719L11.25 6.4395V0.75C11.25 0.551088 11.329 0.360322 11.4697 0.21967C11.6103 0.0790176 11.8011 0 12 0V0ZM11.25 17.5605L9.531 19.281C9.39017 19.4218 9.19916 19.5009 9 19.5009C8.80084 19.5009 8.60983 19.4218 8.469 19.281C8.32817 19.1402 8.24905 18.9492 8.24905 18.75C8.24905 18.5508 8.32817 18.3598 8.469 18.219L11.469 15.219C11.5387 15.1492 11.6214 15.0937 11.7125 15.0559C11.8037 15.0181 11.9013 14.9987 12 14.9987C12.0987 14.9987 12.1963 15.0181 12.2874 15.0559C12.3786 15.0937 12.4613 15.1492 12.531 15.219L15.531 18.219C15.6718 18.3598 15.7509 18.5508 15.7509 18.75C15.7509 18.9492 15.6718 19.1402 15.531 19.281C15.3902 19.4218 15.1992 19.5009 15 19.5009C14.8008 19.5009 14.6098 19.4218 14.469 19.281L12.75 17.5605V23.25C12.75 23.4489 12.671 23.6397 12.5303 23.7803C12.3897 23.921 12.1989 24 12 24C11.8011 24 11.6103 23.921 11.4697 23.7803C11.329 23.6397 11.25 23.4489 11.25 23.25V17.5605Z" fill="black"/>
</svg>
