<svg width="24" height="24" viewBox="0 0 24 24" fill="none" xmlns="http://www.w3.org/2000/svg">
<g clip-path="url(#clip0_2_8619)">
<path d="M3 24C2.20435 24 1.44129 23.6839 0.87868 23.1213C0.316071 22.5587 0 21.7956 0 21V3C0 2.20435 0.316071 1.44129 0.87868 0.87868C1.44129 0.316071 2.20435 0 3 0L21 0C21.7956 0 22.5587 0.316071 23.1213 0.87868C23.6839 1.44129 24 2.20435 24 3V21C24 21.7956 23.6839 22.5587 23.1213 23.1213C22.5587 23.6839 21.7956 24 21 24H3ZM15.144 7.7955L9 13.9395V9.7875C9 9.58859 8.92098 9.39782 8.78033 9.25717C8.63968 9.11652 8.44891 9.0375 8.25 9.0375C8.05109 9.0375 7.86032 9.11652 7.71967 9.25717C7.57902 9.39782 7.5 9.58859 7.5 9.7875V15.75C7.5 15.9489 7.57902 16.1397 7.71967 16.2803C7.86032 16.421 8.05109 16.5 8.25 16.5H14.2125C14.4114 16.5 14.6022 16.421 14.7428 16.2803C14.8835 16.1397 14.9625 15.9489 14.9625 15.75C14.9625 15.5511 14.8835 15.3603 14.7428 15.2197C14.6022 15.079 14.4114 15 14.2125 15H10.0605L16.2045 8.856C16.2761 8.78681 16.3333 8.70406 16.3726 8.61255C16.4119 8.52105 16.4326 8.42264 16.4334 8.32305C16.4343 8.22347 16.4153 8.12471 16.3776 8.03253C16.3399 7.94036 16.2842 7.85662 16.2138 7.7862C16.1434 7.71578 16.0596 7.66009 15.9675 7.62238C15.8753 7.58467 15.7765 7.5657 15.6769 7.56656C15.5774 7.56743 15.4789 7.58812 15.3874 7.62742C15.2959 7.66673 15.2132 7.72387 15.144 7.7955Z" fill="black"/>
</g>
<defs>
<clipPath id="clip0_2_8619">
<rect width="24" height="24" fill="white"/>
</clipPath>
</defs>
</svg>
