<svg width="24" height="24" viewBox="0 0 24 24" fill="none" xmlns="http://www.w3.org/2000/svg">
<g clip-path="url(#clip0_2_8472)">
<path d="M0 12C0 15.1826 1.26428 18.2348 3.51472 20.4853C5.76516 22.7357 8.8174 24 12 24C15.1826 24 18.2348 22.7357 20.4853 20.4853C22.7357 18.2348 24 15.1826 24 12C24 8.8174 22.7357 5.76516 20.4853 3.51472C18.2348 1.26428 15.1826 0 12 0C8.8174 0 5.76516 1.26428 3.51472 3.51472C1.26428 5.76516 0 8.8174 0 12H0ZM8.856 16.2045C8.78681 16.2761 8.70406 16.3333 8.61255 16.3726C8.52105 16.4119 8.42264 16.4326 8.32305 16.4334C8.22347 16.4343 8.12471 16.4153 8.03253 16.3776C7.94036 16.3399 7.85662 16.2842 7.7862 16.2138C7.71578 16.1434 7.66009 16.0596 7.62238 15.9675C7.58467 15.8753 7.5657 15.7765 7.56656 15.6769C7.56743 15.5774 7.58812 15.4789 7.62742 15.3874C7.66673 15.2959 7.72387 15.2132 7.7955 15.144L13.9395 9H9.7875C9.58859 9 9.39782 8.92098 9.25717 8.78033C9.11652 8.63968 9.0375 8.44891 9.0375 8.25C9.0375 8.05109 9.11652 7.86032 9.25717 7.71967C9.39782 7.57902 9.58859 7.5 9.7875 7.5H15.75C15.9489 7.5 16.1397 7.57902 16.2803 7.71967C16.421 7.86032 16.5 8.05109 16.5 8.25V14.2125C16.5 14.4114 16.421 14.6022 16.2803 14.7428C16.1397 14.8835 15.9489 14.9625 15.75 14.9625C15.5511 14.9625 15.3603 14.8835 15.2197 14.7428C15.079 14.6022 15 14.4114 15 14.2125V10.0605L8.856 16.2045Z" fill="black"/>
</g>
<defs>
<clipPath id="clip0_2_8472">
<rect width="24" height="24" fill="white"/>
</clipPath>
</defs>
</svg>
