<svg width="24" height="24" viewBox="0 0 24 24" fill="none" xmlns="http://www.w3.org/2000/svg">
<g clip-path="url(#clip0_2_8595)">
<path d="M0 12C0 8.8174 1.26428 5.76516 3.51472 3.51472C5.76516 1.26428 8.8174 0 12 0C15.1826 0 18.2348 1.26428 20.4853 3.51472C22.7357 5.76516 24 8.8174 24 12C24 15.1826 22.7357 18.2348 20.4853 20.4853C18.2348 22.7357 15.1826 24 12 24C8.8174 24 5.76516 22.7357 3.51472 20.4853C1.26428 18.2348 0 15.1826 0 12ZM8.856 7.7955C8.78681 7.72387 8.70406 7.66673 8.61255 7.62742C8.52105 7.58812 8.42264 7.56743 8.32305 7.56656C8.22347 7.5657 8.12471 7.58467 8.03253 7.62238C7.94036 7.66009 7.85662 7.71578 7.7862 7.7862C7.71578 7.85662 7.66009 7.94036 7.62238 8.03253C7.58467 8.12471 7.5657 8.22347 7.56656 8.32305C7.56743 8.42264 7.58812 8.52105 7.62742 8.61255C7.66673 8.70406 7.72387 8.78681 7.7955 8.856L13.9395 15H9.7875C9.58859 15 9.39782 15.079 9.25717 15.2197C9.11652 15.3603 9.0375 15.5511 9.0375 15.75C9.0375 15.9489 9.11652 16.1397 9.25717 16.2803C9.39782 16.421 9.58859 16.5 9.7875 16.5H15.75C15.9489 16.5 16.1397 16.421 16.2803 16.2803C16.421 16.1397 16.5 15.9489 16.5 15.75V9.7875C16.5 9.58859 16.421 9.39782 16.2803 9.25717C16.1397 9.11652 15.9489 9.0375 15.75 9.0375C15.5511 9.0375 15.3603 9.11652 15.2197 9.25717C15.079 9.39782 15 9.58859 15 9.7875V13.9395L8.856 7.7955Z" fill="black"/>
</g>
<defs>
<clipPath id="clip0_2_8595">
<rect width="24" height="24" fill="white"/>
</clipPath>
</defs>
</svg>
