<svg width="24" height="24" viewBox="0 0 24 24" fill="none" xmlns="http://www.w3.org/2000/svg">
<g clip-path="url(#clip0_2_8554)">
<path fill-rule="evenodd" clip-rule="evenodd" d="M22.5 3C22.5 2.60218 22.342 2.22064 22.0607 1.93934C21.7794 1.65804 21.3978 1.5 21 1.5H3C2.60218 1.5 2.22064 1.65804 1.93934 1.93934C1.65804 2.22064 1.5 2.60218 1.5 3V21C1.5 21.3978 1.65804 21.7794 1.93934 22.0607C2.22064 22.342 2.60218 22.5 3 22.5H21C21.3978 22.5 21.7794 22.342 22.0607 22.0607C22.342 21.7794 22.5 21.3978 22.5 21V3ZM0 3C0 2.20435 0.316071 1.44129 0.87868 0.87868C1.44129 0.316071 2.20435 0 3 0L21 0C21.7956 0 22.5587 0.316071 23.1213 0.87868C23.6839 1.44129 24 2.20435 24 3V21C24 21.7956 23.6839 22.5587 23.1213 23.1213C22.5587 23.6839 21.7956 24 21 24H3C2.20435 24 1.44129 23.6839 0.87868 23.1213C0.316071 22.5587 0 21.7956 0 21V3ZM15.144 7.719C15.2848 7.57837 15.4758 7.49944 15.6748 7.49958C15.8738 7.49972 16.0646 7.57892 16.2052 7.71975C16.3459 7.86058 16.4248 8.05151 16.4247 8.25053C16.4245 8.44955 16.3453 8.64037 16.2045 8.781L10.0605 14.925H14.2125C14.4114 14.925 14.6022 15.004 14.7428 15.1447C14.8835 15.2853 14.9625 15.4761 14.9625 15.675C14.9625 15.8739 14.8835 16.0647 14.7428 16.2053C14.6022 16.346 14.4114 16.425 14.2125 16.425H8.25C8.05109 16.425 7.86032 16.346 7.71967 16.2053C7.57902 16.0647 7.5 15.8739 7.5 15.675V9.7125C7.5 9.51359 7.57902 9.32282 7.71967 9.18217C7.86032 9.04152 8.05109 8.9625 8.25 8.9625C8.44891 8.9625 8.63968 9.04152 8.78033 9.18217C8.92098 9.32282 9 9.51359 9 9.7125V13.8645L15.144 7.719Z" fill="black"/>
</g>
<defs>
<clipPath id="clip0_2_8554">
<rect width="24" height="24" fill="white"/>
</clipPath>
</defs>
</svg>
