<svg width="24" height="24" viewBox="0 0 24 24" fill="none" xmlns="http://www.w3.org/2000/svg">
<g clip-path="url(#clip0_2_7755)">
<path d="M21 24C21.7956 24 22.5587 23.6839 23.1213 23.1213C23.6839 22.5587 24 21.7956 24 21V3C24 2.20435 23.6839 1.44129 23.1213 0.87868C22.5587 0.316071 21.7956 0 21 0L3 0C2.20435 0 1.44129 0.316071 0.87868 0.87868C0.316071 1.44129 0 2.20435 0 3L0 21C0 21.7956 0.316071 22.5587 0.87868 23.1213C1.44129 23.6839 2.20435 24 3 24H21ZM8.856 7.7955L15 13.9395V9.7875C15 9.58859 15.079 9.39782 15.2197 9.25717C15.3603 9.11652 15.5511 9.0375 15.75 9.0375C15.9489 9.0375 16.1397 9.11652 16.2803 9.25717C16.421 9.39782 16.5 9.58859 16.5 9.7875V15.75C16.5 15.9489 16.421 16.1397 16.2803 16.2803C16.1397 16.421 15.9489 16.5 15.75 16.5H9.7875C9.58859 16.5 9.39782 16.421 9.25717 16.2803C9.11652 16.1397 9.0375 15.9489 9.0375 15.75C9.0375 15.5511 9.11652 15.3603 9.25717 15.2197C9.39782 15.079 9.58859 15 9.7875 15H13.9395L7.7955 8.856C7.65888 8.71455 7.58329 8.5251 7.58499 8.32845C7.5867 8.1318 7.66558 7.94369 7.80464 7.80464C7.94369 7.66558 8.1318 7.5867 8.32845 7.58499C8.5251 7.58329 8.71455 7.65888 8.856 7.7955Z" fill="black"/>
</g>
<defs>
<clipPath id="clip0_2_7755">
<rect width="24" height="24" fill="white"/>
</clipPath>
</defs>
</svg>
