<svg width="24" height="24" viewBox="0 0 24 24" fill="none" xmlns="http://www.w3.org/2000/svg">
<g clip-path="url(#clip0_2_8575)">
<path fill-rule="evenodd" clip-rule="evenodd" d="M1.5 12C1.5 14.7848 2.60625 17.4555 4.57538 19.4246C6.54451 21.3938 9.21523 22.5 12 22.5C14.7848 22.5 17.4555 21.3938 19.4246 19.4246C21.3938 17.4555 22.5 14.7848 22.5 12C22.5 9.21523 21.3938 6.54451 19.4246 4.57538C17.4555 2.60625 14.7848 1.5 12 1.5C9.21523 1.5 6.54451 2.60625 4.57538 4.57538C2.60625 6.54451 1.5 9.21523 1.5 12ZM24 12C24 15.1826 22.7357 18.2348 20.4853 20.4853C18.2348 22.7357 15.1826 24 12 24C8.8174 24 5.76516 22.7357 3.51472 20.4853C1.26428 18.2348 0 15.1826 0 12C0 8.8174 1.26428 5.76516 3.51472 3.51472C5.76516 1.26428 8.8174 0 12 0C15.1826 0 18.2348 1.26428 20.4853 3.51472C22.7357 5.76516 24 8.8174 24 12ZM8.781 7.719C8.64017 7.57817 8.44916 7.49905 8.25 7.49905C8.05084 7.49905 7.85983 7.57817 7.719 7.719C7.57817 7.85983 7.49905 8.05084 7.49905 8.25C7.49905 8.44916 7.57817 8.64017 7.719 8.781L13.8645 14.925H9.7125C9.51359 14.925 9.32282 15.004 9.18217 15.1447C9.04152 15.2853 8.9625 15.4761 8.9625 15.675C8.9625 15.8739 9.04152 16.0647 9.18217 16.2053C9.32282 16.346 9.51359 16.425 9.7125 16.425H15.675C15.8739 16.425 16.0647 16.346 16.2053 16.2053C16.346 16.0647 16.425 15.8739 16.425 15.675V9.7125C16.425 9.51359 16.346 9.32282 16.2053 9.18217C16.0647 9.04152 15.8739 8.9625 15.675 8.9625C15.4761 8.9625 15.2853 9.04152 15.1447 9.18217C15.004 9.32282 14.925 9.51359 14.925 9.7125V13.8645L8.781 7.719Z" fill="black"/>
</g>
<defs>
<clipPath id="clip0_2_8575">
<rect width="24" height="24" fill="white"/>
</clipPath>
</defs>
</svg>
