<svg width="24" height="24" viewBox="0 0 24 24" fill="none" xmlns="http://www.w3.org/2000/svg">
<g clip-path="url(#clip0_2_8568)">
<path fill-rule="evenodd" clip-rule="evenodd" d="M1.5 12C1.5 14.7848 2.60625 17.4555 4.57538 19.4246C6.54451 21.3938 9.21523 22.5 12 22.5C14.7848 22.5 17.4555 21.3938 19.4246 19.4246C21.3938 17.4555 22.5 14.7848 22.5 12C22.5 9.21523 21.3938 6.54451 19.4246 4.57538C17.4555 2.60625 14.7848 1.5 12 1.5C9.21523 1.5 6.54451 2.60625 4.57538 4.57538C2.60625 6.54451 1.5 9.21523 1.5 12ZM24 12C24 15.1826 22.7357 18.2348 20.4853 20.4853C18.2348 22.7357 15.1826 24 12 24C8.8174 24 5.76516 22.7357 3.51472 20.4853C1.26428 18.2348 0 15.1826 0 12C0 8.8174 1.26428 5.76516 3.51472 3.51472C5.76516 1.26428 8.8174 0 12 0C15.1826 0 18.2348 1.26428 20.4853 3.51472C22.7357 5.76516 24 8.8174 24 12ZM15.144 7.719C15.2848 7.57837 15.4758 7.49944 15.6748 7.49958C15.8738 7.49972 16.0646 7.57892 16.2052 7.71975C16.3459 7.86058 16.4248 8.05151 16.4247 8.25053C16.4245 8.44955 16.3453 8.64037 16.2045 8.781L10.0605 14.925H14.2125C14.4114 14.925 14.6022 15.004 14.7428 15.1447C14.8835 15.2853 14.9625 15.4761 14.9625 15.675C14.9625 15.8739 14.8835 16.0647 14.7428 16.2053C14.6022 16.346 14.4114 16.425 14.2125 16.425H8.25C8.05109 16.425 7.86032 16.346 7.71967 16.2053C7.57902 16.0647 7.5 15.8739 7.5 15.675V9.7125C7.5 9.51359 7.57902 9.32282 7.71967 9.18217C7.86032 9.04152 8.05109 8.9625 8.25 8.9625C8.44891 8.9625 8.63968 9.04152 8.78033 9.18217C8.92098 9.32282 9 9.51359 9 9.7125V13.8645L15.144 7.719Z" fill="black"/>
</g>
<defs>
<clipPath id="clip0_2_8568">
<rect width="24" height="24" fill="white"/>
</clipPath>
</defs>
</svg>
