<svg width="24" height="24" viewBox="0 0 24 24" fill="none" xmlns="http://www.w3.org/2000/svg">
<g clip-path="url(#clip0_2_8765)">
<path fill-rule="evenodd" clip-rule="evenodd" d="M22.281 7.281C22.3508 7.21133 22.4063 7.12857 22.4441 7.03745C22.4819 6.94633 22.5013 6.84865 22.5013 6.75C22.5013 6.65135 22.4819 6.55367 22.4441 6.46255C22.4063 6.37143 22.3508 6.28867 22.281 6.219L16.281 0.219001C16.1402 0.0781714 15.9492 -0.00094605 15.75 -0.000946045C15.5508 -0.00094604 15.3598 0.0781714 15.219 0.219001C15.0782 0.359831 14.9991 0.550838 14.9991 0.750001C14.9991 0.949165 15.0782 1.14017 15.219 1.281L19.9395 6H5.25C4.25544 6 3.30161 6.39509 2.59835 7.09835C1.89509 7.80161 1.5 8.75544 1.5 9.75V21.75C1.5 21.9489 1.57902 22.1397 1.71967 22.2803C1.86032 22.421 2.05109 22.5 2.25 22.5C2.44891 22.5 2.63968 22.421 2.78033 22.2803C2.92098 22.1397 3 21.9489 3 21.75V9.75C3 9.15326 3.23705 8.58097 3.65901 8.15901C4.08097 7.73705 4.65326 7.5 5.25 7.5H19.9395L15.219 12.219C15.0782 12.3598 14.9991 12.5508 14.9991 12.75C14.9991 12.9492 15.0782 13.1402 15.219 13.281C15.3598 13.4218 15.5508 13.5009 15.75 13.5009C15.9492 13.5009 16.1402 13.4218 16.281 13.281L22.281 7.281Z" fill="black"/>
</g>
<defs>
<clipPath id="clip0_2_8765">
<rect width="24" height="24" fill="white"/>
</clipPath>
</defs>
</svg>
