<svg width="24" height="24" viewBox="0 0 24 24" fill="none" xmlns="http://www.w3.org/2000/svg">
<g clip-path="url(#clip0_2_8632)">
<path fill-rule="evenodd" clip-rule="evenodd" d="M1.5 12C1.5 11.8011 1.57902 11.6103 1.71967 11.4697C1.86032 11.329 2.05109 11.25 2.25 11.25H21.75C21.9489 11.25 22.1397 11.329 22.2803 11.4697C22.421 11.6103 22.5 11.8011 22.5 12C22.5 12.1989 22.421 12.3897 22.2803 12.5303C22.1397 12.671 21.9489 12.75 21.75 12.75H2.25C2.05109 12.75 1.86032 12.671 1.71967 12.5303C1.57902 12.3897 1.5 12.1989 1.5 12ZM11.469 0.218998C11.5387 0.149153 11.6214 0.0937388 11.7125 0.0559291C11.8037 0.0181194 11.9013 -0.00134277 12 -0.00134277C12.0987 -0.00134277 12.1963 0.0181194 12.2874 0.0559291C12.3786 0.0937388 12.4613 0.149153 12.531 0.218998L15.531 3.219C15.6007 3.28873 15.656 3.37151 15.6938 3.46262C15.7315 3.55373 15.7509 3.65138 15.7509 3.75C15.7509 3.84861 15.7315 3.94626 15.6938 4.03737C15.656 4.12848 15.6007 4.21127 15.531 4.281C15.4613 4.35073 15.3785 4.40604 15.2874 4.44378C15.1963 4.48152 15.0986 4.50095 15 4.50095C14.9014 4.50095 14.8037 4.48152 14.7126 4.44378C14.6215 4.40604 14.5387 4.35073 14.469 4.281L12.75 2.5605V8.25C12.75 8.44891 12.671 8.63968 12.5303 8.78033C12.3897 8.92098 12.1989 9 12 9C11.8011 9 11.6103 8.92098 11.4697 8.78033C11.329 8.63968 11.25 8.44891 11.25 8.25V2.5605L9.531 4.281C9.39017 4.42183 9.19916 4.50095 9 4.50095C8.80084 4.50095 8.60983 4.42183 8.469 4.281C8.32817 4.14017 8.24905 3.94916 8.24905 3.75C8.24905 3.55083 8.32817 3.35983 8.469 3.219L11.469 0.218998ZM12 15C12.1989 15 12.3897 15.079 12.5303 15.2197C12.671 15.3603 12.75 15.5511 12.75 15.75V21.4395L14.469 19.719C14.6098 19.5782 14.8008 19.4991 15 19.4991C15.1992 19.4991 15.3902 19.5782 15.531 19.719C15.6718 19.8598 15.7509 20.0508 15.7509 20.25C15.7509 20.4492 15.6718 20.6402 15.531 20.781L12.531 23.781C12.4613 23.8508 12.3786 23.9063 12.2874 23.9441C12.1963 23.9819 12.0987 24.0013 12 24.0013C11.9013 24.0013 11.8037 23.9819 11.7125 23.9441C11.6214 23.9063 11.5387 23.8508 11.469 23.781L8.469 20.781C8.39927 20.7113 8.34395 20.6285 8.30621 20.5374C8.26848 20.4463 8.24905 20.3486 8.24905 20.25C8.24905 20.1514 8.26848 20.0537 8.30621 19.9626C8.34395 19.8715 8.39927 19.7887 8.469 19.719C8.60983 19.5782 8.80084 19.4991 9 19.4991C9.09862 19.4991 9.19627 19.5185 9.28738 19.5562C9.37848 19.594 9.46127 19.6493 9.531 19.719L11.25 21.4395V15.75C11.25 15.5511 11.329 15.3603 11.4697 15.2197C11.6103 15.079 11.8011 15 12 15Z" fill="black"/>
</g>
<defs>
<clipPath id="clip0_2_8632">
<rect width="24" height="24" fill="white"/>
</clipPath>
</defs>
</svg>
