<svg width="24" height="24" viewBox="0 0 24 24" fill="none" xmlns="http://www.w3.org/2000/svg">
<path fill-rule="evenodd" clip-rule="evenodd" d="M12 4.5C13.621 4.50062 15.1981 5.02639 16.4952 5.99856C17.7923 6.97072 18.7395 8.33696 19.195 9.89262C19.6504 11.4483 19.5896 13.1096 19.0217 14.6278C18.4537 16.1461 17.4092 17.4394 16.0445 18.3142C14.6798 19.1889 13.0685 19.598 11.4518 19.4801C9.83514 19.3623 8.30016 18.7238 7.07678 17.6604C5.8534 16.597 5.00748 15.1658 4.66572 13.5813C4.32395 11.9968 4.50474 10.3442 5.18101 8.871C5.25462 8.69189 5.2561 8.49126 5.18514 8.31108C5.11418 8.13091 4.97629 7.98516 4.80032 7.90435C4.62434 7.82353 4.42393 7.81391 4.24103 7.8775C4.05812 7.94109 3.9069 8.07295 3.81901 8.2455C3.00753 10.0134 2.79066 11.9966 3.20091 13.8981C3.61115 15.7996 4.62641 17.5169 6.09462 18.793C7.56283 20.069 9.40495 20.835 11.345 20.9762C13.2851 21.1175 15.2188 20.6263 16.8563 19.5764C18.4938 18.5264 19.7471 16.9742 20.4284 15.1522C21.1097 13.3301 21.1824 11.3364 20.6355 9.46967C20.0886 7.6029 18.9516 5.96357 17.3948 4.79723C15.838 3.63089 13.9452 3.00033 12 3V4.5Z" fill="black"/>
<path d="M12 6.69901V0.801007C11.9999 0.729752 11.9796 0.659979 11.9414 0.599859C11.9031 0.539739 11.8485 0.49176 11.784 0.461541C11.7195 0.431322 11.6477 0.420114 11.577 0.429228C11.5063 0.438343 11.4397 0.467404 11.385 0.513007L7.84498 3.46201C7.80277 3.4972 7.76882 3.54124 7.74552 3.59101C7.72222 3.64078 7.71014 3.69506 7.71014 3.75001C7.71014 3.80496 7.72222 3.85924 7.74552 3.90901C7.76882 3.95877 7.80277 4.00281 7.84498 4.03801L11.385 6.98701C11.4397 7.03261 11.5063 7.06167 11.577 7.07079C11.6477 7.0799 11.7195 7.06869 11.784 7.03847C11.8485 7.00825 11.9031 6.96028 11.9414 6.90016C11.9796 6.84004 11.9999 6.77026 12 6.69901Z" fill="black"/>
</svg>
