<svg width="24" height="24" viewBox="0 0 24 24" fill="none" xmlns="http://www.w3.org/2000/svg">
<path fill-rule="evenodd" clip-rule="evenodd" d="M1.5 5.25C1.5 5.05109 1.57902 4.86032 1.71967 4.71967C1.86032 4.57902 2.05109 4.5 2.25 4.5H21.75C21.9489 4.5 22.1397 4.57902 22.2803 4.71967C22.421 4.86032 22.5 5.05109 22.5 5.25C22.5 5.44891 22.421 5.63968 22.2803 5.78033C22.1397 5.92098 21.9489 6 21.75 6H2.25C2.05109 6 1.86032 5.92098 1.71967 5.78033C1.57902 5.63968 1.5 5.44891 1.5 5.25ZM12 9C12.1989 9 12.3897 9.07902 12.5303 9.21967C12.671 9.36032 12.75 9.55109 12.75 9.75V18.4395L15.969 15.219C16.1098 15.0782 16.3008 14.9991 16.5 14.9991C16.6992 14.9991 16.8902 15.0782 17.031 15.219C17.1718 15.3598 17.2509 15.5508 17.2509 15.75C17.2509 15.9492 17.1718 16.1402 17.031 16.281L12.531 20.781C12.4613 20.8508 12.3786 20.9063 12.2874 20.9441C12.1963 20.9819 12.0987 21.0013 12 21.0013C11.9013 21.0013 11.8037 20.9819 11.7125 20.9441C11.6214 20.9063 11.5387 20.8508 11.469 20.781L6.969 16.281C6.82817 16.1402 6.74905 15.9492 6.74905 15.75C6.74905 15.5508 6.82817 15.3598 6.969 15.219C7.10983 15.0782 7.30084 14.9991 7.5 14.9991C7.69916 14.9991 7.89017 15.0782 8.031 15.219L11.25 18.4395V9.75C11.25 9.55109 11.329 9.36032 11.4697 9.21967C11.6103 9.07902 11.8011 9 12 9Z" fill="black"/>
</svg>
