<svg width="24" height="24" viewBox="0 0 24 24" fill="none" xmlns="http://www.w3.org/2000/svg">
<path fill-rule="evenodd" clip-rule="evenodd" d="M3 20.25C3 20.4489 3.07902 20.6397 3.21967 20.7803C3.36032 20.921 3.55109 21 3.75 21H12.75C12.9489 21 13.1397 20.921 13.2803 20.7803C13.421 20.6397 13.5 20.4489 13.5 20.25C13.5 20.0511 13.421 19.8603 13.2803 19.7197C13.1397 19.579 12.9489 19.5 12.75 19.5H5.5605L20.781 4.281C20.9218 4.14017 21.0009 3.94916 21.0009 3.75C21.0009 3.55084 20.9218 3.35983 20.781 3.219C20.6402 3.07817 20.4492 2.99905 20.25 2.99905C20.0508 2.99905 19.8598 3.07817 19.719 3.219L4.5 18.4395V11.25C4.5 11.0511 4.42098 10.8603 4.28033 10.7197C4.13968 10.579 3.94891 10.5 3.75 10.5C3.55109 10.5 3.36032 10.579 3.21967 10.7197C3.07902 10.8603 3 11.0511 3 11.25V20.25Z" fill="black"/>
</svg>
