<svg width="24" height="24" viewBox="0 0 24 24" fill="none" xmlns="http://www.w3.org/2000/svg">
<g clip-path="url(#clip0_2_8704)">
<path fill-rule="evenodd" clip-rule="evenodd" d="M17.25 22.5C17.4489 22.5 17.6396 22.421 17.7803 22.2803C17.921 22.1397 18 21.9489 18 21.75V4.0605L22.719 8.781C22.8598 8.92183 23.0508 9.00095 23.25 9.00095C23.4491 9.00095 23.6401 8.92183 23.781 8.781C23.9218 8.64017 24.0009 8.44916 24.0009 8.25C24.0009 8.05083 23.9218 7.85983 23.781 7.719L17.781 1.719C17.7113 1.64915 17.6285 1.59374 17.5374 1.55593C17.4463 1.51812 17.3486 1.49866 17.25 1.49866C17.1513 1.49866 17.0536 1.51812 16.9625 1.55593C16.8714 1.59374 16.7886 1.64915 16.719 1.719L10.719 7.719C10.5781 7.85983 10.499 8.05083 10.499 8.25C10.499 8.44916 10.5781 8.64017 10.719 8.781C10.8598 8.92183 11.0508 9.00095 11.25 9.00095C11.4491 9.00095 11.6401 8.92183 11.781 8.781L16.5 4.0605V21.75C16.5 21.9489 16.579 22.1397 16.7196 22.2803C16.8603 22.421 17.0511 22.5 17.25 22.5ZM6.74997 1.5C6.94888 1.5 7.13965 1.57902 7.2803 1.71967C7.42095 1.86032 7.49997 2.05109 7.49997 2.25V19.9395L12.219 15.219C12.3598 15.0782 12.5508 14.9991 12.75 14.9991C12.9491 14.9991 13.1401 15.0782 13.281 15.219C13.4218 15.3598 13.5009 15.5508 13.5009 15.75C13.5009 15.9492 13.4218 16.1402 13.281 16.281L7.28097 22.281C7.2113 22.3508 7.12854 22.4063 7.03742 22.4441C6.9463 22.4819 6.84862 22.5013 6.74997 22.5013C6.65132 22.5013 6.55364 22.4819 6.46252 22.4441C6.3714 22.4063 6.28864 22.3508 6.21897 22.281L0.218971 16.281C0.0781409 16.1402 -0.000976567 15.9492 -0.000976562 15.75C-0.000976558 15.5508 0.0781409 15.3598 0.218971 15.219C0.359801 15.0782 0.550807 14.9991 0.749971 14.9991C0.949134 14.9991 1.14014 15.0782 1.28097 15.219L5.99997 19.9395V2.25C5.99997 2.05109 6.07899 1.86032 6.21964 1.71967C6.36029 1.57902 6.55106 1.5 6.74997 1.5Z" fill="black"/>
</g>
<defs>
<clipPath id="clip0_2_8704">
<rect width="24" height="24" fill="white"/>
</clipPath>
</defs>
</svg>
