<svg width="24" height="24" viewBox="0 0 24 24" fill="none" xmlns="http://www.w3.org/2000/svg">
<path d="M17.301 10.5H23.199C23.2703 10.5 23.34 10.5204 23.4002 10.5586C23.4603 10.5969 23.5083 10.6514 23.5385 10.716C23.5687 10.7805 23.5799 10.8523 23.5708 10.923C23.5617 10.9936 23.5326 11.0603 23.487 11.115L20.538 14.655C20.5028 14.6972 20.4588 14.7312 20.409 14.7545C20.3592 14.7778 20.305 14.7898 20.25 14.7898C20.1951 14.7898 20.1408 14.7778 20.091 14.7545C20.0412 14.7312 19.9972 14.6972 19.962 14.655L17.013 11.115C16.9674 11.0603 16.9383 10.9936 16.9292 10.923C16.9201 10.8523 16.9313 10.7805 16.9615 10.716C16.9918 10.6514 17.0397 10.5969 17.0999 10.5586C17.16 10.5204 17.2298 10.5 17.301 10.5ZM0.801007 13.5H6.69901C6.77026 13.5 6.84004 13.4797 6.90016 13.4414C6.96028 13.4032 7.00825 13.3486 7.03847 13.284C7.06869 13.2195 7.0799 13.1477 7.07079 13.077C7.06167 13.0064 7.03261 12.9398 6.98701 12.885L4.03801 9.34501C4.00281 9.3028 3.95877 9.26885 3.90901 9.24555C3.85924 9.22225 3.80496 9.21017 3.75001 9.21017C3.69506 9.21017 3.64078 9.22225 3.59101 9.24555C3.54124 9.26885 3.4972 9.3028 3.46201 9.34501L0.513007 12.885C0.467404 12.9398 0.438343 13.0064 0.429228 13.077C0.420114 13.1477 0.431322 13.2195 0.461541 13.284C0.49176 13.3486 0.539739 13.4032 0.599859 13.4414C0.659979 13.4797 0.729752 13.5 0.801007 13.5Z" fill="black"/>
<path fill-rule="evenodd" clip-rule="evenodd" d="M12 4.50001C9.67201 4.50001 7.59001 5.56051 6.21451 7.22701C6.15309 7.30662 6.07629 7.37307 5.98867 7.4224C5.90106 7.47174 5.80442 7.50295 5.7045 7.51418C5.60458 7.52541 5.50342 7.51644 5.40703 7.4878C5.31065 7.45915 5.22101 7.41142 5.14345 7.34743C5.06588 7.28345 5.00198 7.20452 4.95553 7.11535C4.90908 7.02617 4.88103 6.92856 4.87306 6.82833C4.86509 6.72809 4.87736 6.62728 4.90913 6.53188C4.9409 6.43649 4.99153 6.34845 5.05801 6.27301C6.1563 4.9433 7.6134 3.95703 9.25601 3.4315C10.8986 2.90596 12.6576 2.86329 14.3238 3.30855C15.9899 3.75381 17.4932 4.66826 18.6546 5.94314C19.8161 7.21803 20.587 8.79969 20.8755 10.5H19.35C19.0037 8.80623 18.0831 7.284 16.7438 6.19073C15.4046 5.09746 13.7288 4.50023 12 4.50001ZM4.65001 13.5C4.93398 14.8869 5.60454 16.1652 6.58423 17.1872C7.56392 18.2092 8.81275 18.9332 10.1865 19.2754C11.5602 19.6177 13.0027 19.5644 14.3473 19.1216C15.692 18.6788 16.884 17.8646 17.7855 16.773C17.8469 16.6934 17.9237 16.627 18.0113 16.5776C18.099 16.5283 18.1956 16.4971 18.2955 16.4858C18.3954 16.4746 18.4966 16.4836 18.593 16.5122C18.6894 16.5409 18.779 16.5886 18.8566 16.6526C18.9341 16.7166 18.998 16.7955 19.0445 16.8847C19.0909 16.9739 19.119 17.0715 19.127 17.1717C19.1349 17.2719 19.1227 17.3727 19.0909 17.4681C19.0591 17.5635 19.0085 17.6516 18.942 17.727C17.8437 19.0567 16.3866 20.043 14.744 20.5685C13.1014 21.0941 11.3424 21.1367 9.67625 20.6915C8.01009 20.2462 6.50687 19.3318 5.3454 18.0569C4.18392 16.782 3.41306 15.2003 3.12451 13.5H4.65001Z" fill="black"/>
</svg>
