<svg width="24" height="24" viewBox="0 0 24 24" fill="none" xmlns="http://www.w3.org/2000/svg">
<path fill-rule="evenodd" clip-rule="evenodd" d="M12 22.5C12.1989 22.5 12.3896 22.421 12.5303 22.2803C12.671 22.1397 12.75 21.9489 12.75 21.75V4.0605L17.469 8.781C17.6098 8.92183 17.8008 9.00095 18 9.00095C18.1991 9.00095 18.3901 8.92183 18.531 8.781C18.6718 8.64017 18.7509 8.44916 18.7509 8.25C18.7509 8.05083 18.6718 7.85983 18.531 7.719L12.531 1.719C12.4613 1.64915 12.3785 1.59374 12.2874 1.55593C12.1963 1.51812 12.0986 1.49866 12 1.49866C11.9013 1.49866 11.8036 1.51812 11.7125 1.55593C11.6214 1.59374 11.5386 1.64915 11.469 1.719L5.46897 7.719C5.39924 7.78873 5.34392 7.87151 5.30619 7.96262C5.26845 8.05373 5.24902 8.15138 5.24902 8.25C5.24902 8.44916 5.32814 8.64017 5.46897 8.781C5.6098 8.92183 5.80081 9.00095 5.99997 9.00095C6.19913 9.00095 6.39014 8.92183 6.53097 8.781L11.25 4.0605V21.75C11.25 21.9489 11.329 22.1397 11.4696 22.2803C11.6103 22.421 11.8011 22.5 12 22.5Z" fill="black"/>
</svg>
