<svg width="24" height="24" viewBox="0 0 24 24" fill="none" xmlns="http://www.w3.org/2000/svg">
<path fill-rule="evenodd" clip-rule="evenodd" d="M9 12C9 12.1989 9.07902 12.3897 9.21967 12.5303C9.36032 12.671 9.55109 12.75 9.75 12.75H18.4395L15.219 15.969C15.0782 16.1098 14.9991 16.3008 14.9991 16.5C14.9991 16.6992 15.0782 16.8902 15.219 17.031C15.3598 17.1718 15.5508 17.2509 15.75 17.2509C15.9492 17.2509 16.1402 17.1718 16.281 17.031L20.781 12.531C20.8508 12.4613 20.9063 12.3786 20.9441 12.2874C20.9819 12.1963 21.0013 12.0987 21.0013 12C21.0013 11.9013 20.9819 11.8037 20.9441 11.7125C20.9063 11.6214 20.8508 11.5387 20.781 11.469L16.281 6.969C16.1402 6.82817 15.9492 6.74905 15.75 6.74905C15.5508 6.74905 15.3598 6.82817 15.219 6.969C15.0782 7.10983 14.9991 7.30084 14.9991 7.5C14.9991 7.69916 15.0782 7.89017 15.219 8.031L18.4395 11.25H9.75C9.55109 11.25 9.36032 11.329 9.21967 11.4697C9.07902 11.6103 9 11.8011 9 12ZM5.25 22.5C5.05109 22.5 4.86032 22.421 4.71967 22.2803C4.57902 22.1397 4.5 21.9489 4.5 21.75V2.25C4.5 2.05109 4.57902 1.86032 4.71967 1.71967C4.86032 1.57902 5.05109 1.5 5.25 1.5C5.44891 1.5 5.63968 1.57902 5.78033 1.71967C5.92098 1.86032 6 2.05109 6 2.25V21.75C6 21.9489 5.92098 22.1397 5.78033 22.2803C5.63968 22.421 5.44891 22.5 5.25 22.5Z" fill="black"/>
</svg>
