<svg width="24" height="24" viewBox="0 0 24 24" fill="none" xmlns="http://www.w3.org/2000/svg">
<path fill-rule="evenodd" clip-rule="evenodd" d="M3 3.75C3 3.55109 3.07902 3.36032 3.21967 3.21967C3.36032 3.07902 3.55109 3 3.75 3H12.75C12.9489 3 13.1397 3.07902 13.2803 3.21967C13.421 3.36032 13.5 3.55109 13.5 3.75C13.5 3.94891 13.421 4.13968 13.2803 4.28033C13.1397 4.42098 12.9489 4.5 12.75 4.5H5.5605L20.781 19.719C20.9218 19.8598 21.0009 20.0508 21.0009 20.25C21.0009 20.4492 20.9218 20.6402 20.781 20.781C20.6402 20.9218 20.4492 21.0009 20.25 21.0009C20.0508 21.0009 19.8598 20.9218 19.719 20.781L4.5 5.5605V12.75C4.5 12.9489 4.42098 13.1397 4.28033 13.2803C4.13968 13.421 3.94891 13.5 3.75 13.5C3.55109 13.5 3.36032 13.421 3.21967 13.2803C3.07902 13.1397 3 12.9489 3 12.75V3.75Z" fill="black"/>
</svg>
