<svg width="24" height="24" viewBox="0 0 24 24" fill="none" xmlns="http://www.w3.org/2000/svg">
<path d="M0 5.25C0 4.65326 0.237053 4.08097 0.65901 3.65901C1.08097 3.23705 1.65326 3 2.25 3H21.75C22.3467 3 22.919 3.23705 23.341 3.65901C23.7629 4.08097 24 4.65326 24 5.25V18.75C24 19.3467 23.7629 19.919 23.341 20.341C22.919 20.7629 22.3467 21 21.75 21H2.25C1.65326 21 1.08097 20.7629 0.65901 20.341C0.237053 19.919 0 19.3467 0 18.75L0 5.25ZM2.25 4.5C2.05109 4.5 1.86032 4.57902 1.71967 4.71967C1.57902 4.86032 1.5 5.05109 1.5 5.25V18.75C1.5 18.9489 1.57902 19.1397 1.71967 19.2803C1.86032 19.421 2.05109 19.5 2.25 19.5H21.75C21.9489 19.5 22.1397 19.421 22.2803 19.2803C22.421 19.1397 22.5 18.9489 22.5 18.75V5.25C22.5 5.05109 22.421 4.86032 22.2803 4.71967C22.1397 4.57902 21.9489 4.5 21.75 4.5H2.25Z" fill="black"/>
<path d="M3 6.75C3 6.55109 3.07902 6.36032 3.21967 6.21967C3.36032 6.07902 3.55109 6 3.75 6H8.25C8.44891 6 8.63968 6.07902 8.78033 6.21967C8.92098 6.36032 9 6.55109 9 6.75C9 6.94891 8.92098 7.13968 8.78033 7.28033C8.63968 7.42098 8.44891 7.5 8.25 7.5H4.5V11.25C4.5 11.4489 4.42098 11.6397 4.28033 11.7803C4.13968 11.921 3.94891 12 3.75 12C3.55109 12 3.36032 11.921 3.21967 11.7803C3.07902 11.6397 3 11.4489 3 11.25V6.75ZM21 17.25C21 17.4489 20.921 17.6397 20.7803 17.7803C20.6397 17.921 20.4489 18 20.25 18H15.75C15.5511 18 15.3603 17.921 15.2197 17.7803C15.079 17.6397 15 17.4489 15 17.25C15 17.0511 15.079 16.8603 15.2197 16.7197C15.3603 16.579 15.5511 16.5 15.75 16.5H19.5V12.75C19.5 12.5511 19.579 12.3603 19.7197 12.2197C19.8603 12.079 20.0511 12 20.25 12C20.4489 12 20.6397 12.079 20.7803 12.2197C20.921 12.3603 21 12.5511 21 12.75V17.25Z" fill="black"/>
</svg>
