<svg width="24" height="24" viewBox="0 0 24 24" fill="none" xmlns="http://www.w3.org/2000/svg">
<path fill-rule="evenodd" clip-rule="evenodd" d="M16.281 12.219C16.3508 12.2887 16.4062 12.3714 16.444 12.4625C16.4818 12.5537 16.5013 12.6513 16.5013 12.75C16.5013 12.8486 16.4818 12.9463 16.444 13.0374C16.4062 13.1286 16.3508 13.2113 16.281 13.281L11.781 17.781C11.7113 17.8508 11.6285 17.9063 11.5374 17.9441C11.4463 17.9819 11.3486 18.0013 11.25 18.0013C11.1513 18.0013 11.0536 17.9819 10.9625 17.9441C10.8714 17.9063 10.7886 17.8508 10.719 17.781L8.46897 15.531C8.39924 15.4613 8.34392 15.3785 8.30619 15.2874C8.26845 15.1963 8.24902 15.0986 8.24902 15C8.24902 14.9014 8.26845 14.8037 8.30619 14.7126C8.34392 14.6215 8.39924 14.5387 8.46897 14.469C8.6098 14.3282 8.80081 14.2491 8.99997 14.2491C9.09859 14.2491 9.19624 14.2685 9.28735 14.3062C9.37846 14.344 9.46124 14.3993 9.53097 14.469L11.25 16.1895L15.219 12.219C15.2886 12.1492 15.3714 12.0937 15.4625 12.0559C15.5536 12.0181 15.6513 11.9987 15.75 11.9987C15.8486 11.9987 15.9463 12.0181 16.0374 12.0559C16.1285 12.0937 16.2113 12.1492 16.281 12.219Z" fill="black"/>
<path d="M12 1.5C12.9946 1.5 13.9484 1.89509 14.6517 2.59835C15.3549 3.30161 15.75 4.25544 15.75 5.25V6H8.25V5.25C8.25 4.25544 8.64509 3.30161 9.34835 2.59835C10.0516 1.89509 11.0054 1.5 12 1.5ZM17.25 6V5.25C17.25 3.85761 16.6969 2.52226 15.7123 1.53769C14.7277 0.553123 13.3924 0 12 0C10.6076 0 9.27226 0.553123 8.28769 1.53769C7.30312 2.52226 6.75 3.85761 6.75 5.25V6H1.5V21C1.5 21.7956 1.81607 22.5587 2.37868 23.1213C2.94129 23.6839 3.70435 24 4.5 24H19.5C20.2956 24 21.0587 23.6839 21.6213 23.1213C22.1839 22.5587 22.5 21.7956 22.5 21V6H17.25ZM3 7.5H21V21C21 21.3978 20.842 21.7794 20.5607 22.0607C20.2794 22.342 19.8978 22.5 19.5 22.5H4.5C4.10218 22.5 3.72064 22.342 3.43934 22.0607C3.15804 21.7794 3 21.3978 3 21V7.5Z" fill="black"/>
</svg>
