<svg width="24" height="24" viewBox="0 0 24 24" fill="none" xmlns="http://www.w3.org/2000/svg">
<g clip-path="url(#clip0_2_8433)">
<path fill-rule="evenodd" clip-rule="evenodd" d="M4.02001 11.514L13.755 1.75798C14.8837 0.652826 16.4028 0.0373917 17.9824 0.0452402C19.5621 0.0530886 21.075 0.683586 22.1926 1.7999C23.3103 2.91622 23.9427 4.42828 23.9525 6.00793C23.9623 7.58759 23.3488 9.10738 22.245 10.2375L20.0295 12.531L12.5205 20.04L10.236 22.248C9.10591 23.3517 7.58612 23.9653 6.00647 23.9555C4.42681 23.9457 2.91475 23.3133 1.79844 22.1956C0.682121 21.0779 0.0516238 19.5651 0.0437753 17.9854C0.0359269 16.4057 0.651361 14.8867 1.75651 13.758L1.75801 13.755L4.01551 11.517L4.01701 11.514H4.02001ZM12.585 7.22698C12.6546 7.29671 12.7099 7.37948 12.7475 7.47055C12.7852 7.56162 12.8045 7.65921 12.8044 7.75776C12.8044 7.85631 12.7849 7.95387 12.7471 8.04489C12.7093 8.13591 12.654 8.21859 12.5843 8.28823C12.5145 8.35786 12.4318 8.41308 12.3407 8.45073C12.2496 8.48837 12.152 8.50772 12.0535 8.50765C11.9549 8.50758 11.8574 8.4881 11.7664 8.45032C11.6753 8.41254 11.5926 8.35721 11.523 8.28748C11.3864 8.14603 11.3108 7.95657 11.3125 7.75993C11.3142 7.56328 11.3931 7.37517 11.5322 7.23611C11.6712 7.09706 11.8593 7.01818 12.056 7.01647C12.2526 7.01476 12.4421 7.09036 12.5835 7.22698H12.585ZM10.461 10.4085C10.5326 10.3393 10.5898 10.2565 10.6291 10.165C10.6684 10.0735 10.6891 9.97511 10.69 9.87553C10.6908 9.77594 10.6718 9.67719 10.6341 9.58501C10.5964 9.49284 10.5407 9.4091 10.4703 9.33868C10.3999 9.26826 10.3162 9.21257 10.224 9.17486C10.1318 9.13715 10.033 9.11818 9.93346 9.11904C9.83388 9.11991 9.73546 9.1406 9.64396 9.1799C9.55246 9.21921 9.4697 9.27635 9.40051 9.34798C9.2639 9.48943 9.1883 9.67888 9.19001 9.87553C9.19172 10.0722 9.27059 10.2603 9.40965 10.3993C9.54871 10.5384 9.73682 10.6173 9.93346 10.619C10.1301 10.6207 10.3196 10.5451 10.461 10.4085ZM8.34001 12.531C8.48084 12.3903 8.56004 12.1995 8.56018 12.0005C8.56032 11.8015 8.4814 11.6106 8.34076 11.4697C8.20013 11.3289 8.00932 11.2497 7.81029 11.2496C7.61127 11.2494 7.42034 11.3283 7.27951 11.469C7.20978 11.5386 7.15445 11.6213 7.11667 11.7123C7.0789 11.8033 7.05942 11.9009 7.05935 11.9994C7.05921 12.1985 7.13813 12.3894 7.27876 12.5302C7.41939 12.6711 7.61021 12.7503 7.80923 12.7504C8.00826 12.7505 8.19918 12.6716 8.34001 12.531ZM12.582 16.773C12.6536 16.7038 12.7108 16.621 12.7501 16.5295C12.7894 16.438 12.8101 16.3396 12.811 16.24C12.8118 16.1404 12.7928 16.0417 12.7551 15.9495C12.7174 15.8573 12.6617 15.7736 12.5913 15.7032C12.5209 15.6328 12.4372 15.5771 12.345 15.5394C12.2528 15.5017 12.154 15.4827 12.0545 15.4835C11.9549 15.4844 11.8565 15.5051 11.765 15.5444C11.6735 15.5837 11.5907 15.6408 11.5215 15.7125C11.3849 15.8539 11.3093 16.0434 11.311 16.24C11.3127 16.4367 11.3916 16.6248 11.5307 16.7638C11.6697 16.9029 11.8578 16.9818 12.0545 16.9835C12.2511 16.9852 12.4406 16.9096 12.582 16.773ZM14.703 13.5915C14.7746 13.6607 14.8318 13.7434 14.8711 13.8349C14.9104 13.9264 14.9311 14.0248 14.932 14.1244C14.9328 14.224 14.9138 14.3228 14.8761 14.4149C14.8384 14.5071 14.7827 14.5909 14.7123 14.6613C14.6419 14.7317 14.5582 14.7874 14.466 14.8251C14.3738 14.8628 14.275 14.8818 14.1755 14.8809C14.0759 14.8801 13.9775 14.8594 13.886 14.8201C13.7945 14.7807 13.7117 14.7236 13.6425 14.652C13.5059 14.5105 13.4303 14.3211 13.432 14.1244C13.4337 13.9278 13.5126 13.7397 13.6516 13.6006C13.7907 13.4616 13.9788 13.3827 14.1755 13.381C14.3721 13.3793 14.5616 13.4549 14.703 13.5915ZM16.824 12.531C16.8957 12.4619 16.953 12.3792 16.9924 12.2878C17.0318 12.1963 17.0527 12.0979 17.0537 11.9984C17.0547 11.8988 17.0358 11.8 16.9983 11.7078C16.9607 11.6156 16.9051 11.5317 16.8348 11.4612C16.7645 11.3907 16.6808 11.3349 16.5887 11.2971C16.4966 11.2592 16.3979 11.2401 16.2983 11.2408C16.1987 11.2415 16.1003 11.2621 16.0087 11.3013C15.9171 11.3404 15.8343 11.3974 15.765 11.469C15.6242 11.6096 15.545 11.8004 15.5448 11.9994C15.5447 12.1985 15.6236 12.3894 15.7643 12.5302C15.9049 12.6711 16.0957 12.7503 16.2947 12.7504C16.4938 12.7505 16.6847 12.6716 16.8255 12.531H16.824ZM10.461 13.5915C10.5326 13.6607 10.5898 13.7434 10.6291 13.8349C10.6684 13.9264 10.6891 14.0248 10.69 14.1244C10.6908 14.224 10.6718 14.3228 10.6341 14.4149C10.5964 14.5071 10.5407 14.5909 10.4703 14.6613C10.3999 14.7317 10.3162 14.7874 10.224 14.8251C10.1318 14.8628 10.033 14.8818 9.93346 14.8809C9.83388 14.8801 9.73546 14.8594 9.64396 14.8201C9.55246 14.7807 9.4697 14.7236 9.40051 14.652C9.2639 14.5105 9.1883 14.3211 9.19001 14.1244C9.19172 13.9278 9.27059 13.7397 9.40965 13.6006C9.54871 13.4616 9.73682 13.3827 9.93346 13.381C10.1301 13.3793 10.3196 13.4549 10.461 13.5915ZM12.582 12.531C12.6517 12.4613 12.7071 12.3787 12.7449 12.2876C12.7826 12.1966 12.8021 12.0991 12.8022 12.0005C12.8022 11.902 12.7829 11.8044 12.7453 11.7133C12.7076 11.6222 12.6524 11.5395 12.5828 11.4697C12.5131 11.4 12.4304 11.3447 12.3394 11.3069C12.2484 11.2691 12.1508 11.2496 12.0523 11.2496C11.9537 11.2495 11.8562 11.2688 11.7651 11.3065C11.674 11.3441 11.5912 11.3993 11.5215 11.469C11.3807 11.6096 11.3015 11.8004 11.3013 11.9994C11.3012 12.1985 11.3801 12.3894 11.5208 12.5302C11.6614 12.6711 11.8522 12.7503 12.0512 12.7504C12.2503 12.7505 12.4412 12.6716 12.582 12.531ZM14.703 9.34798C14.7746 9.41716 14.8318 9.49992 14.8711 9.59142C14.9104 9.68293 14.9311 9.78134 14.932 9.88093C14.9328 9.98051 14.9138 10.0793 14.8761 10.1714C14.8384 10.2636 14.7827 10.3474 14.7123 10.4178C14.6419 10.4882 14.5582 10.5439 14.466 10.5816C14.3738 10.6193 14.275 10.6383 14.1755 10.6374C14.0759 10.6366 13.9775 10.6159 13.886 10.5766C13.7945 10.5372 13.7117 10.4801 13.6425 10.4085C13.5059 10.267 13.4303 10.0776 13.432 9.88093C13.4337 9.68428 13.5126 9.49617 13.6516 9.35711C13.7907 9.21806 13.9788 9.13918 14.1755 9.13747C14.3721 9.13576 14.5616 9.21136 14.703 9.34798ZM12.969 5.03098L18.969 11.031L20.031 9.96898L14.031 3.96898L12.969 5.03098ZM11.031 18.969L5.03101 12.969L3.96901 14.031L9.96901 20.031L11.031 18.969Z" fill="black"/>
</g>
<defs>
<clipPath id="clip0_2_8433">
<rect width="24" height="24" fill="white"/>
</clipPath>
</defs>
</svg>
