<svg width="24" height="24" viewBox="0 0 24 24" fill="none" xmlns="http://www.w3.org/2000/svg">
<g clip-path="url(#clip0_2_8724)">
<path d="M12 1.42499L21.915 5.99999H23.25C23.4489 5.99999 23.6397 6.07901 23.7803 6.21966C23.921 6.36031 24 6.55108 24 6.74999V9.74999C24 9.9489 23.921 10.1397 23.7803 10.2803C23.6397 10.421 23.4489 10.5 23.25 10.5H22.5V21C22.6673 21 22.8298 21.056 22.9616 21.159C23.0934 21.262 23.187 21.4062 23.2275 21.5685L23.9775 24.5685C24.0051 24.679 24.0071 24.7944 23.9834 24.9058C23.9598 25.0173 23.911 25.1218 23.8409 25.2116C23.7708 25.3014 23.6811 25.374 23.5787 25.424C23.4763 25.474 23.3639 25.5 23.25 25.5H0.75C0.636077 25.5 0.523658 25.474 0.421276 25.424C0.318893 25.374 0.229239 25.3014 0.159117 25.2116C0.0889946 25.1218 0.0402478 25.0173 0.0165763 24.9058C-0.00709524 24.7944 -0.00506942 24.679 0.0225 24.5685L0.7725 21.5685C0.812986 21.4062 0.906582 21.262 1.0384 21.159C1.17022 21.056 1.3327 21 1.5 21V10.5H0.75C0.551088 10.5 0.360322 10.421 0.21967 10.2803C0.0790176 10.1397 0 9.9489 0 9.74999V6.74999C0 6.55108 0.0790176 6.36031 0.21967 6.21966C0.360322 6.07901 0.551088 5.99999 0.75 5.99999H2.085L12 1.42499ZM5.664 5.99999H18.3345L12 3.07499L5.664 5.99999ZM3 10.5V21H4.5V10.5H3ZM6 10.5V21H9.75V10.5H6ZM11.25 10.5V21H12.75V10.5H11.25ZM14.25 10.5V21H18V10.5H14.25ZM19.5 10.5V21H21V10.5H19.5ZM22.5 8.99999V7.49999H1.5V8.99999H22.5ZM21.915 22.5H2.085L1.71 24H22.29L21.915 22.5Z" fill="black"/>
</g>
<defs>
<clipPath id="clip0_2_8724">
<rect width="24" height="24" fill="white"/>
</clipPath>
</defs>
</svg>
