<svg width="24" height="24" viewBox="0 0 24 24" fill="none" xmlns="http://www.w3.org/2000/svg">
<g clip-path="url(#clip0_2_8655)">
<path d="M8.8935 2.63551C8.94412 2.55101 8.97761 2.45736 8.99204 2.35991C9.00647 2.26247 9.00157 2.16313 8.97761 2.06758C8.95366 1.97203 8.91111 1.88213 8.85241 1.80302C8.79371 1.72391 8.72001 1.65714 8.6355 1.60651C8.55099 1.55589 8.45735 1.5224 8.3599 1.50797C8.26245 1.49354 8.16312 1.49844 8.06757 1.5224C7.97201 1.54636 7.88212 1.5889 7.80301 1.6476C7.7239 1.7063 7.65712 1.78001 7.6065 1.86451L3.3255 9.00001H0.75C0.551088 9.00001 0.360322 9.07903 0.21967 9.21968C0.0790176 9.36034 0 9.5511 0 9.75001L0 11.25C0 11.4489 0.0790176 11.6397 0.21967 11.7803C0.360322 11.921 0.551088 12 0.75 12H1.6845L4.4505 21.684C4.51778 21.9195 4.6601 22.1267 4.85584 22.274C5.05158 22.4212 5.29004 22.5006 5.535 22.5H18.468C18.7127 22.5003 18.9508 22.4208 19.1463 22.2735C19.3417 22.1263 19.4838 21.9193 19.551 21.684L22.3155 12H23.25C23.4489 12 23.6397 11.921 23.7803 11.7803C23.921 11.6397 24 11.4489 24 11.25V9.75001C24 9.5511 23.921 9.36034 23.7803 9.21968C23.6397 9.07903 23.4489 9.00001 23.25 9.00001H20.6745L16.395 1.86451C16.3444 1.78001 16.2776 1.7063 16.1985 1.6476C16.1194 1.5889 16.0295 1.54636 15.9339 1.5224C15.8384 1.49844 15.739 1.49354 15.6416 1.50797C15.5442 1.5224 15.4505 1.55589 15.366 1.60651C15.2815 1.65714 15.2078 1.72391 15.1491 1.80302C15.0904 1.88213 15.0478 1.97203 15.0239 2.06758C14.9999 2.16313 14.995 2.26247 15.0095 2.35991C15.0239 2.45736 15.0574 2.55101 15.108 2.63551L18.9255 9.00001H5.0745L8.895 2.63551H8.8935ZM6 15C6 14.6022 6.15804 14.2207 6.43934 13.9394C6.72064 13.658 7.10218 13.5 7.5 13.5C7.89782 13.5 8.27936 13.658 8.56066 13.9394C8.84196 14.2207 9 14.6022 9 15V18C9 18.3978 8.84196 18.7794 8.56066 19.0607C8.27936 19.342 7.89782 19.5 7.5 19.5C7.10218 19.5 6.72064 19.342 6.43934 19.0607C6.15804 18.7794 6 18.3978 6 18V15ZM10.5 15C10.5 14.6022 10.658 14.2207 10.9393 13.9394C11.2206 13.658 11.6022 13.5 12 13.5C12.3978 13.5 12.7794 13.658 13.0607 13.9394C13.342 14.2207 13.5 14.6022 13.5 15V18C13.5 18.3978 13.342 18.7794 13.0607 19.0607C12.7794 19.342 12.3978 19.5 12 19.5C11.6022 19.5 11.2206 19.342 10.9393 19.0607C10.658 18.7794 10.5 18.3978 10.5 18V15ZM16.5 13.5C16.8978 13.5 17.2794 13.658 17.5607 13.9394C17.842 14.2207 18 14.6022 18 15V18C18 18.3978 17.842 18.7794 17.5607 19.0607C17.2794 19.342 16.8978 19.5 16.5 19.5C16.1022 19.5 15.7206 19.342 15.4393 19.0607C15.158 18.7794 15 18.3978 15 18V15C15 14.6022 15.158 14.2207 15.4393 13.9394C15.7206 13.658 16.1022 13.5 16.5 13.5Z" fill="black"/>
</g>
<defs>
<clipPath id="clip0_2_8655">
<rect width="24" height="24" fill="white"/>
</clipPath>
</defs>
</svg>
