<svg width="24" height="24" viewBox="0 0 24 24" fill="none" xmlns="http://www.w3.org/2000/svg">
<path d="M6 15C6 14.6022 6.15804 14.2206 6.43934 13.9393C6.72064 13.658 7.10218 13.5 7.5 13.5C7.89782 13.5 8.27936 13.658 8.56066 13.9393C8.84196 14.2206 9 14.6022 9 15V18C9 18.3978 8.84196 18.7794 8.56066 19.0607C8.27936 19.342 7.89782 19.5 7.5 19.5C7.10218 19.5 6.72064 19.342 6.43934 19.0607C6.15804 18.7794 6 18.3978 6 18V15ZM10.5 15C10.5 14.6022 10.658 14.2206 10.9393 13.9393C11.2206 13.658 11.6022 13.5 12 13.5C12.3978 13.5 12.7794 13.658 13.0607 13.9393C13.342 14.2206 13.5 14.6022 13.5 15V18C13.5 18.3978 13.342 18.7794 13.0607 19.0607C12.7794 19.342 12.3978 19.5 12 19.5C11.6022 19.5 11.2206 19.342 10.9393 19.0607C10.658 18.7794 10.5 18.3978 10.5 18V15ZM15 15C15 14.6022 15.158 14.2206 15.4393 13.9393C15.7206 13.658 16.1022 13.5 16.5 13.5C16.8978 13.5 17.2794 13.658 17.5607 13.9393C17.842 14.2206 18 14.6022 18 15V18C18 18.3978 17.842 18.7794 17.5607 19.0607C17.2794 19.342 16.8978 19.5 16.5 19.5C16.1022 19.5 15.7206 19.342 15.4393 19.0607C15.158 18.7794 15 18.3978 15 18V15Z" fill="black"/>
<path d="M8.6355 1.6065C8.72002 1.65711 8.79374 1.72388 8.85245 1.80299C8.91116 1.8821 8.95371 1.972 8.97767 2.06756C9.00163 2.16311 9.00652 2.26245 8.99208 2.3599C8.97764 2.45735 8.94414 2.551 8.8935 2.6355L5.0745 9H18.9255L15.105 2.6355C15.0028 2.46484 14.9725 2.26054 15.0209 2.06757C15.0693 1.87459 15.1923 1.70874 15.363 1.6065C15.5337 1.50426 15.738 1.474 15.9309 1.52239C16.1239 1.57077 16.2898 1.69384 16.392 1.8645L20.6745 9H23.25C23.4489 9 23.6397 9.07902 23.7803 9.21967C23.921 9.36033 24 9.55109 24 9.75V11.25C24 11.4489 23.921 11.6397 23.7803 11.7803C23.6397 11.921 23.4489 12 23.25 12H22.3155L19.5495 21.684C19.4823 21.9193 19.3402 22.1263 19.1448 22.2735C18.9493 22.4208 18.7112 22.5003 18.4665 22.5H5.535C5.2903 22.5003 5.05218 22.4208 4.85674 22.2735C4.66131 22.1263 4.51921 21.9193 4.452 21.684L1.6845 12H0.75C0.551088 12 0.360322 11.921 0.21967 11.7803C0.0790176 11.6397 0 11.4489 0 11.25V9.75C0 9.55109 0.0790176 9.36033 0.21967 9.21967C0.360322 9.07902 0.551088 9 0.75 9H3.3255L7.605 1.8645C7.65561 1.77998 7.72238 1.70626 7.80149 1.64755C7.8806 1.58884 7.9705 1.54629 8.06605 1.52233C8.16161 1.49838 8.26095 1.49348 8.3584 1.50792C8.45585 1.52236 8.5495 1.55586 8.634 1.6065H8.6355ZM3.2445 12L5.8155 21H18.1845L20.7555 12H3.2445Z" fill="black"/>
</svg>
