<svg width="24" height="24" viewBox="0 0 24 24" fill="none" xmlns="http://www.w3.org/2000/svg">
<g clip-path="url(#clip0_2_8496)">
<path d="M8.6355 1.6065C8.72002 1.65711 8.79374 1.72388 8.85245 1.80299C8.91116 1.8821 8.95371 1.972 8.97767 2.06756C9.00163 2.16311 9.00652 2.26245 8.99208 2.3599C8.97764 2.45735 8.94414 2.551 8.8935 2.6355L5.0745 9H18.9255L15.105 2.6355C15.0028 2.46484 14.9725 2.26054 15.0209 2.06757C15.0693 1.87459 15.1923 1.70874 15.363 1.6065C15.5337 1.50426 15.738 1.474 15.9309 1.52239C16.1239 1.57077 16.2898 1.69384 16.392 1.8645L20.6745 9H23.25C23.4489 9 23.6397 9.07902 23.7803 9.21967C23.921 9.36033 24 9.55109 24 9.75V11.25C24 11.4489 23.921 11.6397 23.7803 11.7803C23.6397 11.921 23.4489 12 23.25 12H0.75C0.551088 12 0.360322 11.921 0.21967 11.7803C0.0790176 11.6397 0 11.4489 0 11.25V9.75C0 9.55109 0.0790176 9.36033 0.21967 9.21967C0.360322 9.07902 0.551088 9 0.75 9H3.3255L7.605 1.8645C7.65561 1.77998 7.72238 1.70626 7.80149 1.64755C7.8806 1.58884 7.9705 1.54629 8.06605 1.52233C8.16161 1.49838 8.26095 1.49348 8.3584 1.50792C8.45585 1.52236 8.5495 1.55586 8.634 1.6065H8.6355ZM3.702 23.139L1.4145 13.5H22.5855L20.298 23.139C20.2388 23.3844 20.0987 23.6027 19.9004 23.7589C19.702 23.9151 19.4569 24 19.2045 24H4.7955C4.5428 24.0003 4.29736 23.9156 4.09872 23.7594C3.90007 23.6032 3.7598 23.3846 3.7005 23.139H3.702Z" fill="black"/>
</g>
<defs>
<clipPath id="clip0_2_8496">
<rect width="24" height="24" fill="white"/>
</clipPath>
</defs>
</svg>
