<svg width="24" height="24" viewBox="0 0 24 24" fill="none" xmlns="http://www.w3.org/2000/svg">
<g clip-path="url(#clip0_2_8661)">
<path d="M8.6355 1.6065C8.72002 1.65711 8.79374 1.72388 8.85245 1.80299C8.91116 1.8821 8.95371 1.972 8.97767 2.06756C9.00163 2.16311 9.00652 2.26245 8.99208 2.3599C8.97764 2.45735 8.94414 2.551 8.8935 2.6355L5.0745 9H18.9255L15.105 2.6355C15.0028 2.46484 14.9725 2.26054 15.0209 2.06757C15.0693 1.87459 15.1923 1.70874 15.363 1.6065C15.5337 1.50426 15.738 1.474 15.9309 1.52239C16.1239 1.57077 16.2898 1.69384 16.392 1.8645L20.6745 9H22.5C22.8978 9 23.2794 9.15804 23.5607 9.43934C23.842 9.72065 24 10.1022 24 10.5V12C24 12.3978 23.842 12.7794 23.5607 13.0607C23.2794 13.342 22.8978 13.5 22.5 13.5V20.25C22.5 21.2446 22.1049 22.1984 21.4016 22.9017C20.6984 23.6049 19.7446 24 18.75 24H5.25C4.25544 24 3.30161 23.6049 2.59835 22.9017C1.89509 22.1984 1.5 21.2446 1.5 20.25V13.5C1.10218 13.5 0.720644 13.342 0.43934 13.0607C0.158035 12.7794 0 12.3978 0 12V10.5C0 10.1022 0.158035 9.72065 0.43934 9.43934C0.720644 9.15804 1.10218 9 1.5 9H3.3255L7.605 1.8645C7.65561 1.77998 7.72238 1.70626 7.80149 1.64755C7.8806 1.58884 7.9705 1.54629 8.06605 1.52233C8.16161 1.49838 8.26095 1.49348 8.3584 1.50792C8.45585 1.52236 8.5495 1.55586 8.634 1.6065H8.6355ZM3 13.5V20.25C3 20.8467 3.23705 21.419 3.65901 21.841C4.08097 22.2629 4.65326 22.5 5.25 22.5H18.75C19.3467 22.5 19.919 22.2629 20.341 21.841C20.7629 21.419 21 20.8467 21 20.25V13.5H3ZM1.5 10.5V12H22.5V10.5H1.5ZM6 15C6.19891 15 6.38968 15.079 6.53033 15.2197C6.67098 15.3603 6.75 15.5511 6.75 15.75V20.25C6.75 20.4489 6.67098 20.6397 6.53033 20.7803C6.38968 20.921 6.19891 21 6 21C5.80109 21 5.61032 20.921 5.46967 20.7803C5.32902 20.6397 5.25 20.4489 5.25 20.25V15.75C5.25 15.5511 5.32902 15.3603 5.46967 15.2197C5.61032 15.079 5.80109 15 6 15ZM9 15C9.19891 15 9.38968 15.079 9.53033 15.2197C9.67098 15.3603 9.75 15.5511 9.75 15.75V20.25C9.75 20.4489 9.67098 20.6397 9.53033 20.7803C9.38968 20.921 9.19891 21 9 21C8.80109 21 8.61032 20.921 8.46967 20.7803C8.32902 20.6397 8.25 20.4489 8.25 20.25V15.75C8.25 15.5511 8.32902 15.3603 8.46967 15.2197C8.61032 15.079 8.80109 15 9 15ZM12 15C12.1989 15 12.3897 15.079 12.5303 15.2197C12.671 15.3603 12.75 15.5511 12.75 15.75V20.25C12.75 20.4489 12.671 20.6397 12.5303 20.7803C12.3897 20.921 12.1989 21 12 21C11.8011 21 11.6103 20.921 11.4697 20.7803C11.329 20.6397 11.25 20.4489 11.25 20.25V15.75C11.25 15.5511 11.329 15.3603 11.4697 15.2197C11.6103 15.079 11.8011 15 12 15ZM15 15C15.1989 15 15.3897 15.079 15.5303 15.2197C15.671 15.3603 15.75 15.5511 15.75 15.75V20.25C15.75 20.4489 15.671 20.6397 15.5303 20.7803C15.3897 20.921 15.1989 21 15 21C14.8011 21 14.6103 20.921 14.4697 20.7803C14.329 20.6397 14.25 20.4489 14.25 20.25V15.75C14.25 15.5511 14.329 15.3603 14.4697 15.2197C14.6103 15.079 14.8011 15 15 15ZM18 15C18.1989 15 18.3897 15.079 18.5303 15.2197C18.671 15.3603 18.75 15.5511 18.75 15.75V20.25C18.75 20.4489 18.671 20.6397 18.5303 20.7803C18.3897 20.921 18.1989 21 18 21C17.8011 21 17.6103 20.921 17.4697 20.7803C17.329 20.6397 17.25 20.4489 17.25 20.25V15.75C17.25 15.5511 17.329 15.3603 17.4697 15.2197C17.6103 15.079 17.8011 15 18 15Z" fill="black"/>
</g>
<defs>
<clipPath id="clip0_2_8661">
<rect width="24" height="24" fill="white"/>
</clipPath>
</defs>
</svg>
