<svg width="24" height="24" viewBox="0 0 24 24" fill="none" xmlns="http://www.w3.org/2000/svg">
<path d="M14.3776 3.85201C14.5241 3.93734 14.6374 4.06982 14.699 4.22782C14.7605 4.38582 14.7667 4.56002 14.7166 4.72201L13.0156 10.248H16.0006C16.147 10.2479 16.2903 10.2908 16.4127 10.3712C16.5352 10.4517 16.6313 10.5662 16.6894 10.7007C16.7475 10.8352 16.7649 10.9837 16.7395 11.128C16.7141 11.2723 16.647 11.4059 16.5466 11.5125L8.54556 20.013C8.42945 20.1365 8.27494 20.217 8.10722 20.2414C7.93949 20.2658 7.76845 20.2327 7.62196 20.1474C7.47547 20.0622 7.36218 19.9298 7.30054 19.7719C7.23891 19.6141 7.23257 19.44 7.28256 19.278L8.98506 13.7505H6.00006C5.85357 13.7506 5.71028 13.7077 5.58786 13.6273C5.46545 13.5468 5.36927 13.4323 5.3112 13.2978C5.25313 13.1633 5.23572 13.0148 5.26111 12.8705C5.28649 12.7263 5.35357 12.5926 5.45406 12.486L13.4536 3.98551C13.5696 3.86185 13.7242 3.78118 13.892 3.75666C14.0598 3.73214 14.231 3.76522 14.3776 3.85051V3.85201Z" fill="black"/>
<path d="M3 6H9.498L8.088 7.5H3C2.60217 7.5 2.22064 7.65804 1.93934 7.93934C1.65804 8.22064 1.5 8.60218 1.5 9V15C1.5 15.3978 1.65804 15.7794 1.93934 16.0607C2.22064 16.342 2.60217 16.5 3 16.5H6.57L6.108 18H3C2.20435 18 1.44129 17.6839 0.87868 17.1213C0.316071 16.5587 0 15.7956 0 15V9C0 8.20435 0.316071 7.44129 0.87868 6.87868C1.44129 6.31607 2.20435 6 3 6Z" fill="black"/>
<path d="M3 9H6.675L4.362 11.4585C4.1233 11.7122 3.94678 12.0179 3.84633 12.3514C3.74588 12.685 3.72425 13.0373 3.78314 13.3806C3.84204 13.724 3.97985 14.049 4.18572 14.33C4.39159 14.611 4.65989 14.8403 4.9695 15H3V9ZM15.8925 6L15.4305 7.5H18C18.3978 7.5 18.7794 7.65804 19.0607 7.93934C19.342 8.22064 19.5 8.60218 19.5 9V15C19.5 15.3978 19.342 15.7794 19.0607 16.0607C18.7794 16.342 18.3978 16.5 18 16.5H13.914L12.501 18H18C18.7956 18 19.5587 17.6839 20.1213 17.1213C20.6839 16.5587 21 15.7956 21 15V9C21 8.20435 20.6839 7.44129 20.1213 6.87868C19.5587 6.31607 18.7956 6 18 6H15.8925Z" fill="black"/>
<path d="M17.9999 15H15.3254L17.6384 12.5415C17.7839 12.387 17.9054 12.2145 17.9999 12.0315V15ZM17.9999 9.969V9H17.0309C17.4468 9.21439 17.7856 9.5531 17.9999 9.969ZM23.9999 12C23.9999 12.5967 23.7629 13.169 23.3409 13.591C22.919 14.0129 22.3467 14.25 21.7499 14.25V9.75C22.3467 9.75 22.919 9.98705 23.3409 10.409C23.7629 10.831 23.9999 11.4033 23.9999 12Z" fill="black"/>
</svg>
