<svg width="24" height="24" viewBox="0 0 24 24" fill="none" xmlns="http://www.w3.org/2000/svg">
<path d="M0 9C0 8.20435 0.316071 7.44129 0.87868 6.87868C1.44129 6.31607 2.20435 6 3 6H18C18.7956 6 19.5587 6.31607 20.1213 6.87868C20.6839 7.44129 21 8.20435 21 9V15C21 15.7956 20.6839 16.5587 20.1213 17.1213C19.5587 17.6839 18.7956 18 18 18H3C2.20435 18 1.44129 17.6839 0.87868 17.1213C0.316071 16.5587 0 15.7956 0 15V9ZM3 7.5C2.60218 7.5 2.22064 7.65804 1.93934 7.93934C1.65804 8.22064 1.5 8.60218 1.5 9V15C1.5 15.3978 1.65804 15.7794 1.93934 16.0607C2.22064 16.342 2.60218 16.5 3 16.5H18C18.3978 16.5 18.7794 16.342 19.0607 16.0607C19.342 15.7794 19.5 15.3978 19.5 15V9C19.5 8.60218 19.342 8.22064 19.0607 7.93934C18.7794 7.65804 18.3978 7.5 18 7.5H3ZM24 12C24 12.5967 23.7629 13.169 23.341 13.591C22.919 14.0129 22.3467 14.25 21.75 14.25V9.75C22.3467 9.75 22.919 9.98705 23.341 10.409C23.7629 10.831 24 11.4033 24 12Z" fill="black"/>
</svg>
