<svg width="24" height="24" viewBox="0 0 24 24" fill="none" xmlns="http://www.w3.org/2000/svg">
<path d="M6.981 4.5C7.6725 4.5 8.3115 4.5525 8.898 4.71C9.483 4.815 9.9645 5.034 10.392 5.2965C10.821 5.5605 11.1375 5.9355 11.3535 6.417C11.5635 6.897 11.6775 7.4835 11.6775 8.1225C11.6775 8.8665 11.5185 9.5055 11.1435 9.9855C10.821 10.4655 10.2945 10.8945 9.648 11.211C10.557 11.475 11.2485 11.955 11.67 12.594C12.0915 13.233 12.3615 14.0295 12.3615 14.9385C12.3615 15.6825 12.204 16.3215 11.934 16.8555C11.6647 17.393 11.2605 17.8514 10.761 18.186C10.281 18.5085 9.6945 18.771 9.0555 18.93C8.42955 19.0953 7.78583 19.184 7.1385 19.194L0 19.2045V4.5H6.981ZM6.5535 10.467C7.1385 10.467 7.6185 10.3095 7.989 10.0395C8.358 9.7695 8.5215 9.294 8.5215 8.709C8.5215 8.385 8.469 8.07 8.364 7.8585C8.25035 7.64414 8.08545 7.46121 7.884 7.326C7.6664 7.20735 7.43381 7.11855 7.1925 7.062C6.9285 7.0095 6.6585 7.0095 6.342 7.0095H3.255V10.4745C3.255 10.467 6.555 10.467 6.555 10.467H6.5535ZM6.711 16.7565C7.0335 16.7565 7.35 16.704 7.62 16.6515C7.884 16.599 8.154 16.4925 8.364 16.3275C8.574 16.1625 8.739 16.005 8.898 15.7425C9.003 15.4785 9.108 15.156 9.108 14.781C9.108 14.037 8.898 13.503 8.469 13.128C8.0415 12.8055 7.455 12.648 6.7635 12.648H3.255V16.749H6.7125V16.7565H6.711ZM16.998 16.704C17.427 17.1315 18.0645 17.343 18.915 17.343C19.5 17.343 20.034 17.184 20.463 16.914C20.8905 16.5915 21.153 16.275 21.258 15.954H23.868C23.439 17.2305 22.8 18.1395 21.951 18.726C21.102 19.2585 20.0865 19.575 18.861 19.575C18.0773 19.5785 17.3001 19.4334 16.5705 19.1475C15.9138 18.9034 15.3279 18.5004 14.865 17.9745C14.3713 17.4841 14.0047 16.8807 13.797 16.2165C13.5345 15.525 13.422 14.781 13.422 13.9245C13.422 13.128 13.527 12.3765 13.797 11.685C14.067 10.995 14.436 10.407 14.9175 9.8745C15.3975 9.3945 15.984 8.9655 16.623 8.7015C17.3355 8.41782 18.0956 8.27272 18.8625 8.274C19.7715 8.274 20.568 8.4315 21.2595 8.8065C21.9495 9.1815 22.485 9.6045 22.9125 10.2435C23.34 10.8285 23.6565 11.52 23.874 12.2655C23.979 13.0095 24.0315 13.7595 23.979 14.61H16.254C16.254 15.48 16.569 16.275 16.998 16.704ZM20.358 11.106C19.983 10.731 19.395 10.5195 18.7035 10.5195C18.2235 10.5195 17.8545 10.6245 17.532 10.7835C17.2095 10.941 16.998 11.1585 16.788 11.3685C16.5919 11.5744 16.4614 11.8338 16.413 12.114C16.359 12.3765 16.308 12.594 16.308 12.804H21.102C20.997 12.015 20.727 11.481 20.3565 11.106H20.358ZM15.6675 5.514H21.6345V6.9495H15.6675V5.514Z" fill="black"/>
</svg>
