<svg width="24" height="24" viewBox="0 0 24 24" fill="none" xmlns="http://www.w3.org/2000/svg">
<g clip-path="url(#clip0_2_8430)">
<path d="M7.74596 21H22.5C22.0515 20.7015 21.6645 20.1705 21.33 19.5C19.98 16.8 19.5 11.82 19.5 10.5C19.5 10.104 19.47 9.71552 19.41 9.33602L18.003 10.743C18.033 11.805 18.2385 13.974 18.6885 16.113C18.93 17.2635 19.254 18.462 19.683 19.5H9.24596L7.74596 21ZM16.1175 6.13502C15.3044 5.3666 14.292 4.84171 13.1955 4.62002L12 4.37552L10.8045 4.61702C9.44815 4.89338 8.22901 5.62995 7.35347 6.70204C6.47792 7.77413 5.99977 9.11584 5.99996 10.5C5.99996 11.442 5.79896 13.7955 5.31146 16.113C5.23646 16.47 5.15396 16.8315 5.06246 17.19L2.58296 19.6695C2.61296 19.614 2.64296 19.5585 2.67146 19.5C4.01846 16.8 4.49996 11.82 4.49996 10.5C4.49996 6.87002 7.07996 3.84002 10.5075 3.14852C10.4865 2.93995 10.5095 2.72931 10.575 2.53018C10.6405 2.33105 10.747 2.14786 10.8876 1.99241C11.0282 1.83696 11.1999 1.71272 11.3915 1.62768C11.5831 1.54265 11.7903 1.49871 12 1.49871C12.2096 1.49871 12.4169 1.54265 12.6085 1.62768C12.8001 1.71272 12.9717 1.83696 13.1123 1.99241C13.253 2.14786 13.3594 2.33105 13.4249 2.53018C13.4904 2.72931 13.5134 2.93995 13.4925 3.14852C14.9055 3.43352 16.1745 4.11602 17.178 5.07452L16.1175 6.13502ZM15 22.5C15 23.2957 14.6839 24.0587 14.1213 24.6213C13.5587 25.184 12.7956 25.5 12 25.5C11.2043 25.5 10.4413 25.184 9.87864 24.6213C9.31603 24.0587 8.99996 23.2957 8.99996 22.5H15ZM0.937463 23.4375C0.788279 23.5867 0.704468 23.789 0.704468 24C0.704468 24.211 0.788279 24.4133 0.937463 24.5625C1.08665 24.7117 1.28898 24.7955 1.49996 24.7955C1.71094 24.7955 1.91328 24.7117 2.06246 24.5625L24.1875 2.43752C24.2613 2.36366 24.3199 2.27596 24.3599 2.17945C24.3999 2.08293 24.4205 1.97949 24.4205 1.87502C24.4205 1.77056 24.3999 1.66711 24.3599 1.5706C24.3199 1.47409 24.2613 1.38639 24.1875 1.31252C24.1136 1.23866 24.0259 1.18006 23.9294 1.14008C23.8329 1.1001 23.7294 1.07953 23.625 1.07953C23.5205 1.07953 23.4171 1.1001 23.3205 1.14008C23.224 1.18006 23.1363 1.23866 23.0625 1.31252L0.937463 23.4375Z" fill="black"/>
</g>
<defs>
<clipPath id="clip0_2_8430">
<rect width="24" height="24" fill="white"/>
</clipPath>
</defs>
</svg>
