<svg width="24" height="24" viewBox="0 0 24 24" fill="none" xmlns="http://www.w3.org/2000/svg">
<g clip-path="url(#clip0_2_8464)">
<path fill-rule="evenodd" clip-rule="evenodd" d="M0 15.75C0 15.1533 0.237053 14.581 0.65901 14.159C1.08097 13.7371 1.65326 13.5 2.25 13.5H3.75C4.34674 13.5 4.91903 13.7371 5.34099 14.159C5.76295 14.581 6 15.1533 6 15.75V17.25C6 17.8467 5.76295 18.419 5.34099 18.841C4.91903 19.2629 4.34674 19.5 3.75 19.5H2.25C1.65326 19.5 1.08097 19.2629 0.65901 18.841C0.237053 18.419 0 17.8467 0 17.25L0 15.75ZM2.25 15C2.05109 15 1.86032 15.079 1.71967 15.2197C1.57902 15.3603 1.5 15.5511 1.5 15.75V17.25C1.5 17.4489 1.57902 17.6397 1.71967 17.7803C1.86032 17.921 2.05109 18 2.25 18H3.75C3.94891 18 4.13968 17.921 4.28033 17.7803C4.42098 17.6397 4.5 17.4489 4.5 17.25V15.75C4.5 15.5511 4.42098 15.3603 4.28033 15.2197C4.13968 15.079 3.94891 15 3.75 15H2.25ZM18 15.75C18 15.1533 18.2371 14.581 18.659 14.159C19.081 13.7371 19.6533 13.5 20.25 13.5H21.75C22.3467 13.5 22.919 13.7371 23.341 14.159C23.7629 14.581 24 15.1533 24 15.75V17.25C24 17.8467 23.7629 18.419 23.341 18.841C22.919 19.2629 22.3467 19.5 21.75 19.5H20.25C19.6533 19.5 19.081 19.2629 18.659 18.841C18.2371 18.419 18 17.8467 18 17.25V15.75ZM20.25 15C20.0511 15 19.8603 15.079 19.7197 15.2197C19.579 15.3603 19.5 15.5511 19.5 15.75V17.25C19.5 17.4489 19.579 17.6397 19.7197 17.7803C19.8603 17.921 20.0511 18 20.25 18H21.75C21.9489 18 22.1397 17.921 22.2803 17.7803C22.421 17.6397 22.5 17.4489 22.5 17.25V15.75C22.5 15.5511 22.421 15.3603 22.2803 15.2197C22.1397 15.079 21.9489 15 21.75 15H20.25ZM9 6.75C9 6.15326 9.23705 5.58097 9.65901 5.15901C10.081 4.73705 10.6533 4.5 11.25 4.5H12.75C13.3467 4.5 13.919 4.73705 14.341 5.15901C14.7629 5.58097 15 6.15326 15 6.75V8.25C15 8.84674 14.7629 9.41903 14.341 9.84099C13.919 10.2629 13.3467 10.5 12.75 10.5H11.25C10.6533 10.5 10.081 10.2629 9.65901 9.84099C9.23705 9.41903 9 8.84674 9 8.25V6.75ZM11.25 6C11.0511 6 10.8603 6.07902 10.7197 6.21967C10.579 6.36032 10.5 6.55109 10.5 6.75V8.25C10.5 8.44891 10.579 8.63968 10.7197 8.78033C10.8603 8.92098 11.0511 9 11.25 9H12.75C12.9489 9 13.1397 8.92098 13.2803 8.78033C13.421 8.63968 13.5 8.44891 13.5 8.25V6.75C13.5 6.55109 13.421 6.36032 13.2803 6.21967C13.1397 6.07902 12.9489 6 12.75 6H11.25Z" fill="black"/>
<path d="M9.00004 6.75H2.79904C2.63394 6.46404 2.37909 6.24054 2.07403 6.11418C1.76896 5.98782 1.43072 5.96565 1.11177 6.05111C0.792822 6.13657 0.510984 6.32489 0.30997 6.58686C0.108956 6.84882 0 7.1698 0 7.5C0 7.8302 0.108956 8.15118 0.30997 8.41314C0.510984 8.67511 0.792822 8.86343 1.11177 8.94889C1.43072 9.03435 1.76896 9.01218 2.07403 8.88582C2.37909 8.75946 2.63394 8.53596 2.79904 8.25H6.80104C4.86939 9.46952 3.42583 11.327 2.72104 13.5H3.75004C3.93454 13.5 4.11604 13.5225 4.28704 13.5645C4.7025 12.4769 5.34278 11.4892 6.16602 10.666C6.98926 9.84274 7.97695 9.20246 9.06454 8.787C9.02157 8.61124 8.99991 8.43094 9.00004 8.25V6.75ZM14.9355 8.787C14.9786 8.61124 15.0002 8.43094 15 8.25V6.75H21.201C21.3661 6.46404 21.621 6.24054 21.9261 6.11418C22.2311 5.98782 22.5694 5.96565 22.8883 6.05111C23.2073 6.13657 23.4891 6.32489 23.6901 6.58686C23.8911 6.84882 24.0001 7.1698 24.0001 7.5C24.0001 7.8302 23.8911 8.15118 23.6901 8.41314C23.4891 8.67511 23.2073 8.86343 22.8883 8.94889C22.5694 9.03435 22.2311 9.01218 21.9261 8.88582C21.621 8.75946 21.3661 8.53596 21.201 8.25H17.199C19.1307 9.46952 20.5742 11.327 21.279 13.5H20.25C20.0655 13.5 19.8855 13.5225 19.713 13.5645C19.2976 12.4769 18.6573 11.4892 17.8341 10.666C17.0108 9.84274 16.0231 9.20246 14.9355 8.787Z" fill="black"/>
</g>
<defs>
<clipPath id="clip0_2_8464">
<rect width="24" height="24" fill="white"/>
</clipPath>
</defs>
</svg>
