<svg width="24" height="24" viewBox="0 0 24 24" fill="none" xmlns="http://www.w3.org/2000/svg">
<path d="M6.75 1.5C6.15326 1.5 5.58097 1.73705 5.15901 2.15901C4.73705 2.58097 4.5 3.15326 4.5 3.75V4.5H10.5V3.75C10.5 3.15326 10.2629 2.58097 9.84099 2.15901C9.41903 1.73705 8.84674 1.5 8.25 1.5H6.75ZM10.5 6V7.5H13.5V6H19.5V7.323C19.5 7.46217 19.5387 7.59859 19.6118 7.717C19.685 7.83542 19.7896 7.93115 19.914 7.9935L21.2565 8.664C21.6303 8.85095 21.9446 9.1383 22.1642 9.49385C22.3839 9.84939 22.5001 10.2591 22.5 10.677V19.5H13.5V17.25C13.4998 17.1514 13.5191 17.0538 13.5567 16.9627C13.5942 16.8716 13.6494 16.7888 13.719 16.719L15 15.4395V14.25C15 14.0511 14.921 13.8603 14.7803 13.7197C14.6397 13.579 14.4489 13.5 14.25 13.5H9.75C9.55109 13.5 9.36032 13.579 9.21967 13.7197C9.07902 13.8603 9 14.0511 9 14.25V15.4395L10.281 16.719C10.3506 16.7888 10.4058 16.8716 10.4433 16.9627C10.4809 17.0538 10.5002 17.1514 10.5 17.25V19.5H1.5V10.677C1.50001 10.2589 1.61651 9.84913 1.83642 9.49356C2.05633 9.138 2.37095 8.85074 2.745 8.664L4.086 7.9935C4.21042 7.93115 4.31504 7.83542 4.38815 7.717C4.46127 7.59859 4.5 7.46217 4.5 7.323V6H10.5ZM1.5 21V21.75C1.5 22.3467 1.73705 22.919 2.15901 23.341C2.58097 23.7629 3.15326 24 3.75 24H8.25C8.84674 24 9.41903 23.7629 9.84099 23.341C10.2629 22.919 10.5 22.3467 10.5 21.75V21H1.5ZM13.5 21V21.75C13.5 22.3467 13.7371 22.919 14.159 23.341C14.581 23.7629 15.1533 24 15.75 24H20.25C20.8467 24 21.419 23.7629 21.841 23.341C22.2629 22.919 22.5 22.3467 22.5 21.75V21H13.5ZM19.5 4.5H13.5V3.75C13.5 3.15326 13.7371 2.58097 14.159 2.15901C14.581 1.73705 15.1533 1.5 15.75 1.5H17.25C17.8467 1.5 18.419 1.73705 18.841 2.15901C19.2629 2.58097 19.5 3.15326 19.5 3.75V4.5Z" fill="black"/>
</svg>
