<svg width="24" height="24" viewBox="0 0 24 24" fill="none" xmlns="http://www.w3.org/2000/svg">
<path d="M3.75 4.5C3.55109 4.5 3.36032 4.57902 3.21967 4.71967C3.07902 4.86032 3 5.05109 3 5.25C3 5.44891 3.07902 5.63968 3.21967 5.78033C3.36032 5.92098 3.55109 6 3.75 6H20.25C20.4489 6 20.6397 5.92098 20.7803 5.78033C20.921 5.63968 21 5.44891 21 5.25C21 5.05109 20.921 4.86032 20.7803 4.71967C20.6397 4.57902 20.4489 4.5 20.25 4.5H3.75ZM3.75 9C3.55109 9 3.36032 9.07902 3.21967 9.21967C3.07902 9.36032 3 9.55109 3 9.75C3 9.94891 3.07902 10.1397 3.21967 10.2803C3.36032 10.421 3.55109 10.5 3.75 10.5H12.75C12.9489 10.5 13.1397 10.421 13.2803 10.2803C13.421 10.1397 13.5 9.94891 13.5 9.75C13.5 9.55109 13.421 9.36032 13.2803 9.21967C13.1397 9.07902 12.9489 9 12.75 9H3.75ZM3.75 13.5C3.55109 13.5 3.36032 13.579 3.21967 13.7197C3.07902 13.8603 3 14.0511 3 14.25C3 14.4489 3.07902 14.6397 3.21967 14.7803C3.36032 14.921 3.55109 15 3.75 15H12.75C12.9489 15 13.1397 14.921 13.2803 14.7803C13.421 14.6397 13.5 14.4489 13.5 14.25C13.5 14.0511 13.421 13.8603 13.2803 13.7197C13.1397 13.579 12.9489 13.5 12.75 13.5H3.75ZM3.75 18C3.55109 18 3.36032 18.079 3.21967 18.2197C3.07902 18.3603 3 18.5511 3 18.75C3 18.9489 3.07902 19.1397 3.21967 19.2803C3.36032 19.421 3.55109 19.5 3.75 19.5H20.25C20.4489 19.5 20.6397 19.421 20.7803 19.2803C20.921 19.1397 21 18.9489 21 18.75C21 18.5511 20.921 18.3603 20.7803 18.2197C20.6397 18.079 20.4489 18 20.25 18H3.75ZM18.9195 9.9405C18.7025 9.79422 18.4799 9.65661 18.252 9.528L18.567 9C18.75 9.111 18.975 9.255 19.245 9.4305C19.515 9.606 19.77 9.8205 20.01 10.0725C20.244 10.3185 20.4435 10.599 20.607 10.9155C20.772 11.226 20.853 11.5725 20.853 11.9535C20.853 12.4935 20.745 12.9285 20.529 13.263C20.3115 13.5915 19.9515 13.755 19.4475 13.755C19.125 13.755 18.873 13.65 18.6915 13.4385C18.5149 13.2498 18.4144 13.0024 18.4095 12.744C18.4095 12.399 18.5145 12.138 18.726 11.9625C18.9315 11.781 19.215 11.6895 19.5795 11.6895H20.001C19.978 11.4325 19.9157 11.1806 19.8165 10.9425C19.7216 10.7381 19.5939 10.5507 19.4385 10.3875C19.2837 10.2186 19.1095 10.0685 18.9195 9.9405ZM15.6675 9.9405C15.4505 9.79422 15.2279 9.65661 15 9.528L15.315 9C15.498 9.111 15.723 9.255 15.993 9.4305C16.263 9.606 16.518 9.8205 16.758 10.0725C16.992 10.3185 17.1915 10.599 17.355 10.9155C17.52 11.226 17.601 11.5725 17.601 11.9535C17.601 12.4935 17.493 12.9285 17.277 13.263C17.0595 13.5915 16.6995 13.755 16.1955 13.755C15.873 13.755 15.621 13.65 15.4395 13.4385C15.2629 13.2498 15.1624 13.0024 15.1575 12.744C15.1575 12.399 15.2625 12.138 15.474 11.9625C15.6795 11.781 15.9645 11.6895 16.3275 11.6895H16.749C16.7266 11.4363 16.6674 11.1877 16.5735 10.9515C16.476 10.7442 16.3453 10.5542 16.1865 10.389C16.0319 10.219 15.8577 10.068 15.6675 9.939V9.9405Z" fill="black"/>
</svg>
