<svg width="24" height="24" viewBox="0 0 24 24" fill="none" xmlns="http://www.w3.org/2000/svg">
<path fill-rule="evenodd" clip-rule="evenodd" d="M12.8145 5.922L14.7885 7.896L12.8145 9.87V5.922ZM12.8145 18.078L14.7885 16.104L12.8145 14.13V18.078ZM10.6995 12.0135L6.4125 7.6995L7.653 6.459L11.0655 9.87V1.692L17.271 7.896L13.1805 12.015L17.298 16.1325L11.094 22.338V14.13L7.653 17.541L6.4125 16.3005L10.6995 12.015V12.0135ZM11.8545 24C17.1015 24 20.7105 21.5175 20.7105 11.985C20.7105 2.4825 17.1015 0 11.856 0C6.6105 0 3 2.4825 3 12.015C3 21.516 6.6105 24 11.856 24H11.8545Z" fill="black"/>
</svg>
