<svg width="24" height="24" viewBox="0 0 24 24" fill="none" xmlns="http://www.w3.org/2000/svg">
<path fill-rule="evenodd" clip-rule="evenodd" d="M9.219 7.719C9.28867 7.64915 9.37143 7.59374 9.46255 7.55593C9.55366 7.51812 9.65135 7.49866 9.75 7.49866C9.84865 7.49866 9.94633 7.51812 10.0374 7.55593C10.1286 7.59374 10.2113 7.64915 10.281 7.719L12 9.4395L13.719 7.719C13.8598 7.57817 14.0508 7.49905 14.25 7.49905C14.4492 7.49905 14.6402 7.57817 14.781 7.719C14.9218 7.85983 15.0009 8.05083 15.0009 8.25C15.0009 8.44916 14.9218 8.64017 14.781 8.781L13.0605 10.5L14.781 12.219C14.9218 12.3598 15.0009 12.5508 15.0009 12.75C15.0009 12.9492 14.9218 13.1402 14.781 13.281C14.6402 13.4218 14.4492 13.5009 14.25 13.5009C14.0508 13.5009 13.8598 13.4218 13.719 13.281L12 11.5605L10.281 13.281C10.2113 13.3507 10.1285 13.406 10.0374 13.4438C9.94626 13.4815 9.84861 13.5009 9.75 13.5009C9.65138 13.5009 9.55373 13.4815 9.46262 13.4438C9.37151 13.406 9.28873 13.3507 9.219 13.281C9.14927 13.2113 9.09395 13.1285 9.05621 13.0374C9.01847 12.9463 8.99905 12.8486 8.99905 12.75C8.99905 12.6514 9.01847 12.5537 9.05621 12.4626C9.09395 12.3715 9.14927 12.2887 9.219 12.219L10.9395 10.5L9.219 8.781C9.14915 8.71133 9.09374 8.62857 9.05593 8.53745C9.01812 8.44633 8.99866 8.34865 8.99866 8.25C8.99866 8.15135 9.01812 8.05366 9.05593 7.96255C9.09374 7.87143 9.14915 7.78867 9.219 7.719Z" fill="black"/>
<path d="M3 3C3 2.20435 3.31607 1.44129 3.87868 0.87868C4.44129 0.316071 5.20435 0 6 0L18 0C18.7956 0 19.5587 0.316071 20.1213 0.87868C20.6839 1.44129 21 2.20435 21 3V23.25C20.9999 23.3857 20.9631 23.5188 20.8933 23.6351C20.8236 23.7515 20.7236 23.8468 20.604 23.9108C20.4844 23.9748 20.3497 24.0052 20.2142 23.9988C20.0787 23.9923 19.9474 23.9492 19.8345 23.874L12 19.6515L4.1655 23.874C4.05256 23.9492 3.92135 23.9923 3.78584 23.9988C3.65033 24.0052 3.5156 23.9748 3.396 23.9108C3.2764 23.8468 3.17641 23.7515 3.10667 23.6351C3.03694 23.5188 3.00007 23.3857 3 23.25V3ZM6 1.5C5.60218 1.5 5.22064 1.65804 4.93934 1.93934C4.65804 2.22064 4.5 2.60218 4.5 3V21.849L11.5845 18.126C11.7076 18.0441 11.8521 18.0004 12 18.0004C12.1479 18.0004 12.2924 18.0441 12.4155 18.126L19.5 21.849V3C19.5 2.60218 19.342 2.22064 19.0607 1.93934C18.7794 1.65804 18.3978 1.5 18 1.5H6Z" fill="black"/>
</svg>
