<svg width="24" height="24" viewBox="0 0 24 24" fill="none" xmlns="http://www.w3.org/2000/svg">
<g clip-path="url(#clip0_2_8379)">
<path d="M3 6C3 5.20435 3.31607 4.44129 3.87868 3.87868C4.44129 3.31607 5.20435 3 6 3H15C15.7956 3 16.5587 3.31607 17.1213 3.87868C17.6839 4.44129 18 5.20435 18 6V23.25C17.9999 23.3857 17.9631 23.5188 17.8933 23.6351C17.8236 23.7515 17.7236 23.8468 17.604 23.9108C17.4844 23.9748 17.3497 24.0052 17.2142 23.9988C17.0787 23.9923 16.9474 23.9492 16.8345 23.874L10.5 19.6515L4.1655 23.874C4.05256 23.9492 3.92135 23.9923 3.78584 23.9988C3.65033 24.0052 3.5156 23.9748 3.396 23.9108C3.2764 23.8468 3.17641 23.7515 3.10667 23.6351C3.03694 23.5188 3.00007 23.3857 3 23.25V6Z" fill="black"/>
<path d="M6.40198 1.5C6.66528 1.04395 7.04398 0.665247 7.50002 0.401943C7.95606 0.138639 8.47338 1.33777e-05 8.99998 0L18 0C18.7956 0 19.5587 0.316071 20.1213 0.87868C20.6839 1.44129 21 2.20435 21 3V20.25C20.9999 20.3857 20.963 20.5188 20.8933 20.6351C20.8236 20.7515 20.7236 20.8468 20.604 20.9108C20.4844 20.9748 20.3496 21.0052 20.2141 20.9988C20.0786 20.9923 19.9474 20.9492 19.8345 20.874L19.5 20.652V3C19.5 2.60218 19.3419 2.22064 19.0606 1.93934C18.7793 1.65804 18.3978 1.5 18 1.5H6.40198Z" fill="black"/>
</g>
<defs>
<clipPath id="clip0_2_8379">
<rect width="24" height="24" fill="white"/>
</clipPath>
</defs>
</svg>
