<svg width="24" height="24" viewBox="0 0 24 24" fill="none" xmlns="http://www.w3.org/2000/svg">
<g clip-path="url(#clip0_2_7782)">
<path fill-rule="evenodd" clip-rule="evenodd" d="M3 23.25V3C3 2.20435 3.31607 1.44129 3.87868 0.87868C4.44129 0.316071 5.20435 0 6 0L18 0C18.7956 0 19.5587 0.316071 20.1213 0.87868C20.6839 1.44129 21 2.20435 21 3V23.25C21.0001 23.3802 20.9663 23.5083 20.9019 23.6215C20.8375 23.7347 20.7447 23.8291 20.6327 23.8956C20.5207 23.962 20.3933 23.9982 20.263 24.0004C20.1328 24.0027 20.0043 23.971 19.89 23.9085L12 19.6035L4.11 23.9085C3.99574 23.971 3.86718 24.0027 3.73696 24.0004C3.60674 23.9982 3.47935 23.962 3.36734 23.8956C3.25532 23.8291 3.16255 23.7347 3.09814 23.6215C3.03373 23.5083 2.9999 23.3802 3 23.25ZM12.24 6.15C12.2181 6.10502 12.1839 6.06711 12.1415 6.04058C12.0991 6.01406 12.05 6 12 6C11.95 6 11.9009 6.01406 11.8585 6.04058C11.8161 6.06711 11.7819 6.10502 11.76 6.15L10.809 8.0775C10.79 8.11649 10.7617 8.15025 10.7267 8.17587C10.6917 8.20148 10.6509 8.21817 10.608 8.2245L8.478 8.5335C8.42897 8.54094 8.38297 8.56189 8.34518 8.59401C8.30738 8.62612 8.27928 8.66812 8.26401 8.71531C8.24875 8.7625 8.24693 8.81301 8.25877 8.86117C8.2706 8.90934 8.29561 8.95325 8.331 8.988L9.87 10.4895C9.933 10.551 9.9615 10.6395 9.9465 10.7265L9.585 12.8475C9.57685 12.8965 9.58251 12.9468 9.60136 12.9927C9.6202 13.0386 9.65148 13.0784 9.69168 13.1075C9.73188 13.1367 9.77941 13.154 9.82893 13.1576C9.87845 13.1613 9.92799 13.151 9.972 13.128L11.877 12.126C11.9152 12.106 11.9577 12.0956 12.0007 12.0956C12.0438 12.0956 12.0863 12.106 12.1245 12.126L14.0295 13.128C14.0735 13.1506 14.1228 13.1605 14.1721 13.1567C14.2214 13.1529 14.2686 13.1355 14.3086 13.1064C14.3485 13.0773 14.3796 13.0377 14.3984 12.992C14.4172 12.9463 14.423 12.8963 14.415 12.8475L14.052 10.725C14.0443 10.6824 14.0472 10.6385 14.0602 10.5972C14.0733 10.556 14.0962 10.5185 14.127 10.488L15.669 8.9865C15.7044 8.95175 15.7294 8.90784 15.7412 8.85967C15.7531 8.81151 15.7512 8.761 15.736 8.71381C15.7207 8.66662 15.6926 8.62462 15.6548 8.5925C15.617 8.56039 15.571 8.53944 15.522 8.532L13.392 8.223C13.3491 8.21667 13.3083 8.19998 13.2733 8.17437C13.2383 8.14875 13.21 8.11499 13.191 8.076L12.24 6.15Z" fill="black"/>
</g>
<defs>
<clipPath id="clip0_2_7782">
<rect width="24" height="24" fill="white"/>
</clipPath>
</defs>
</svg>
