<svg width="24" height="24" viewBox="0 0 24 24" fill="none" xmlns="http://www.w3.org/2000/svg">
<path fill-rule="evenodd" clip-rule="evenodd" d="M16.281 7.719C16.3508 7.78867 16.4062 7.87143 16.444 7.96255C16.4818 8.05366 16.5013 8.15135 16.5013 8.25C16.5013 8.34865 16.4818 8.44633 16.444 8.53745C16.4062 8.62857 16.3508 8.71133 16.281 8.781L11.781 13.281C11.7113 13.3508 11.6285 13.4063 11.5374 13.4441C11.4463 13.4819 11.3486 13.5013 11.25 13.5013C11.1513 13.5013 11.0536 13.4819 10.9625 13.4441C10.8714 13.4063 10.7886 13.3508 10.719 13.281L8.46897 11.031C8.39924 10.9613 8.34392 10.8785 8.30619 10.7874C8.26845 10.6963 8.24902 10.5986 8.24902 10.5C8.24902 10.4014 8.26845 10.3037 8.30619 10.2126C8.34392 10.1215 8.39924 10.0387 8.46897 9.969C8.5387 9.89927 8.62149 9.84395 8.7126 9.80621C8.8037 9.76847 8.90136 9.74905 8.99997 9.74905C9.09859 9.74905 9.19624 9.76847 9.28735 9.80621C9.37846 9.84395 9.46124 9.89927 9.53097 9.969L11.25 11.6895L15.219 7.719C15.2886 7.64915 15.3714 7.59374 15.4625 7.55593C15.5536 7.51812 15.6513 7.49866 15.75 7.49866C15.8486 7.49866 15.9463 7.51812 16.0374 7.55593C16.1285 7.59374 16.2113 7.64915 16.281 7.719Z" fill="black"/>
<path d="M3 3C3 2.20435 3.31607 1.44129 3.87868 0.87868C4.44129 0.316071 5.20435 0 6 0L18 0C18.7956 0 19.5587 0.316071 20.1213 0.87868C20.6839 1.44129 21 2.20435 21 3V23.25C20.9999 23.3857 20.9631 23.5188 20.8933 23.6351C20.8236 23.7515 20.7236 23.8468 20.604 23.9108C20.4844 23.9748 20.3497 24.0052 20.2142 23.9988C20.0787 23.9923 19.9474 23.9492 19.8345 23.874L12 19.6515L4.1655 23.874C4.05256 23.9492 3.92135 23.9923 3.78584 23.9988C3.65033 24.0052 3.5156 23.9748 3.396 23.9108C3.2764 23.8468 3.17641 23.7515 3.10667 23.6351C3.03694 23.5188 3.00007 23.3857 3 23.25V3ZM6 1.5C5.60218 1.5 5.22064 1.65804 4.93934 1.93934C4.65804 2.22064 4.5 2.60218 4.5 3V21.849L11.5845 18.126C11.7076 18.0441 11.8521 18.0004 12 18.0004C12.1479 18.0004 12.2924 18.0441 12.4155 18.126L19.5 21.849V3C19.5 2.60218 19.342 2.22064 19.0607 1.93934C18.7794 1.65804 18.3978 1.5 18 1.5H6Z" fill="black"/>
</svg>
