<svg width="24" height="24" viewBox="0 0 24 24" fill="none" xmlns="http://www.w3.org/2000/svg">
<path d="M3.75 0C3.94891 0 4.13968 0.0790176 4.28033 0.21967C4.42098 0.360322 4.5 0.551088 4.5 0.75V3H19.5V0.75C19.5 0.551088 19.579 0.360322 19.7197 0.21967C19.8603 0.0790176 20.0511 0 20.25 0C20.4489 0 20.6397 0.0790176 20.7803 0.21967C20.921 0.360322 21 0.551088 21 0.75V23.25C21 23.4489 20.921 23.6397 20.7803 23.7803C20.6397 23.921 20.4489 24 20.25 24C20.0511 24 19.8603 23.921 19.7197 23.7803C19.579 23.6397 19.5 23.4489 19.5 23.25V22.5H4.5V23.25C4.5 23.4489 4.42098 23.6397 4.28033 23.7803C4.13968 23.921 3.94891 24 3.75 24C3.55109 24 3.36032 23.921 3.21967 23.7803C3.07902 23.6397 3 23.4489 3 23.25V0.75C3 0.551088 3.07902 0.360322 3.21967 0.21967C3.36032 0.0790176 3.55109 0 3.75 0V0ZM4.5 21H19.5V16.5H4.5V21ZM4.5 15H19.5V10.5H4.5V15ZM4.5 9H19.5V4.5H4.5V9Z" fill="black"/>
</svg>
