<svg width="24" height="24" viewBox="0 0 24 24" fill="none" xmlns="http://www.w3.org/2000/svg">
<path d="M11.76 6.15C11.7819 6.10502 11.816 6.06711 11.8584 6.04058C11.9009 6.01406 11.9499 6 12 6C12.05 6 12.099 6.01406 12.1415 6.04058C12.1839 6.06711 12.218 6.10502 12.24 6.15L13.191 8.0775C13.21 8.11649 13.2382 8.15025 13.2733 8.17587C13.3083 8.20148 13.349 8.21817 13.392 8.2245L15.522 8.5335C15.7395 8.565 15.828 8.8335 15.669 8.988L14.13 10.4895C14.0989 10.5198 14.0757 10.5572 14.0624 10.5985C14.0491 10.6398 14.046 10.6838 14.0535 10.7265L14.4165 12.8475C14.4246 12.8965 14.4189 12.9468 14.4001 12.9927C14.3813 13.0386 14.35 13.0784 14.3098 13.1075C14.2696 13.1367 14.222 13.154 14.1725 13.1576C14.123 13.1613 14.0735 13.151 14.0295 13.128L12.1245 12.126C12.0863 12.106 12.0438 12.0956 12.0007 12.0956C11.9576 12.0956 11.9151 12.106 11.877 12.126L9.97195 13.128C9.92799 13.1506 9.87863 13.1605 9.82936 13.1567C9.78009 13.1529 9.73284 13.1355 9.69288 13.1064C9.65292 13.0773 9.62181 13.0377 9.60302 12.992C9.58423 12.9463 9.5785 12.8963 9.58645 12.8475L9.94945 10.7265C9.95711 10.6839 9.95428 10.64 9.94122 10.5987C9.92815 10.5575 9.90524 10.52 9.87445 10.4895L8.32945 8.988C8.29406 8.95325 8.26905 8.90934 8.25722 8.86117C8.24539 8.81301 8.24721 8.7625 8.26247 8.71531C8.27773 8.66812 8.30584 8.62612 8.34363 8.59401C8.38143 8.56189 8.42742 8.54094 8.47645 8.5335L10.6065 8.2245C10.6494 8.21817 10.6901 8.20148 10.7251 8.17587C10.7602 8.15025 10.7884 8.11649 10.8075 8.0775L11.76 6.15Z" fill="black"/>
<path d="M3 3C3 2.20435 3.31607 1.44129 3.87868 0.87868C4.44129 0.316071 5.20435 0 6 0L18 0C18.7956 0 19.5587 0.316071 20.1213 0.87868C20.6839 1.44129 21 2.20435 21 3V23.25C20.9999 23.3857 20.9631 23.5188 20.8933 23.6351C20.8236 23.7515 20.7236 23.8468 20.604 23.9108C20.4844 23.9748 20.3497 24.0052 20.2142 23.9988C20.0787 23.9923 19.9474 23.9492 19.8345 23.874L12 19.6515L4.1655 23.874C4.05256 23.9492 3.92135 23.9923 3.78584 23.9988C3.65033 24.0052 3.5156 23.9748 3.396 23.9108C3.2764 23.8468 3.17641 23.7515 3.10667 23.6351C3.03694 23.5188 3.00007 23.3857 3 23.25V3ZM6 1.5C5.60218 1.5 5.22064 1.65804 4.93934 1.93934C4.65804 2.22064 4.5 2.60218 4.5 3V21.849L11.5845 18.126C11.7076 18.0441 11.8521 18.0004 12 18.0004C12.1479 18.0004 12.2924 18.0441 12.4155 18.126L19.5 21.849V3C19.5 2.60218 19.342 2.22064 19.0607 1.93934C18.7794 1.65804 18.3978 1.5 18 1.5H6Z" fill="black"/>
</svg>
