<svg width="24" height="24" viewBox="0 0 24 24" fill="none" xmlns="http://www.w3.org/2000/svg">
<g clip-path="url(#clip0_2_7768)">
<path d="M1.74115 12C1.74115 14.0291 2.34281 16.0127 3.47006 17.6998C4.59732 19.387 6.19953 20.7021 8.07413 21.4787C9.94872 22.2554 12.0115 22.4587 14.0017 22.0631C15.9918 21.6674 17.82 20.6906 19.255 19.256C20.69 17.8214 21.6674 15.9935 22.0636 14.0035C22.4599 12.0134 22.2571 9.95057 21.481 8.07575C20.7049 6.20092 19.3903 4.59832 17.7035 3.47058C16.0166 2.34284 14.0333 1.74059 12.0042 1.74C11.7734 1.74 11.5521 1.64834 11.389 1.48518C11.2258 1.32203 11.1342 1.10074 11.1342 0.87C11.1342 0.639262 11.2258 0.417974 11.389 0.254817C11.5521 0.0916604 11.7734 0 12.0042 0C14.6904 0.000790858 17.2987 0.902876 19.4115 2.56183C21.5243 4.22079 23.0193 6.54067 23.6573 9.15007C24.2953 11.7595 24.0392 14.5075 22.9302 16.9541C21.8212 19.4008 19.9234 21.4046 17.5405 22.6447C15.1577 23.8848 12.4276 24.2896 9.78744 23.7941C7.14727 23.2987 4.74968 21.9318 2.97851 19.9121C1.20735 17.8925 0.165052 15.337 0.018492 12.6547C-0.128068 9.97246 0.629585 7.31859 2.17015 5.118L1.17565 4.2525C1.05686 4.14922 0.968321 4.01565 0.91946 3.86601C0.870598 3.71638 0.863249 3.55629 0.898194 3.40281C0.933138 3.24933 1.00907 3.10821 1.11789 2.99448C1.22672 2.88075 1.36436 2.79867 1.51615 2.757L5.29615 1.722C5.43422 1.68433 5.57946 1.6813 5.71898 1.71319C5.85851 1.74507 5.98801 1.81088 6.09601 1.90479C6.20401 1.9987 6.28718 2.1178 6.33814 2.25154C6.3891 2.38529 6.40628 2.52953 6.38815 2.6715L5.89015 6.5595C5.87017 6.71575 5.80813 6.86365 5.71067 6.9874C5.61321 7.11116 5.48397 7.20613 5.33676 7.26219C5.18954 7.31824 5.02987 7.33327 4.87478 7.30567C4.71969 7.27808 4.575 7.20889 4.45615 7.1055L3.49165 6.2655C2.34732 7.95878 1.73703 9.9563 1.73965 12H1.74115Z" fill="black"/>
<path d="M9.9615 17.5065V13.2645H12.3165L14.5635 17.5065H16.5345L14.0655 12.9975C15.411 12.5475 16.206 11.3385 16.206 9.84752C16.206 7.79252 14.7915 6.47852 12.522 6.47852H8.25V17.5065H9.9615ZM9.9615 11.8815V7.91552H12.3165C13.638 7.91552 14.4405 8.66402 14.4405 9.89552C14.4405 11.1555 13.6845 11.8815 12.3615 11.8815H9.9615Z" fill="black"/>
</g>
<defs>
<clipPath id="clip0_2_7768">
<rect width="24" height="24" fill="white"/>
</clipPath>
</defs>
</svg>
