<svg width="24" height="24" viewBox="0 0 24 24" fill="none" xmlns="http://www.w3.org/2000/svg">
<path d="M0 5.25C0 5.05109 0.0790176 4.86032 0.21967 4.71967C0.360322 4.57902 0.551088 4.5 0.75 4.5H23.25C23.4489 4.5 23.6397 4.57902 23.7803 4.71967C23.921 4.86032 24 5.05109 24 5.25V8.25C24 8.44891 23.921 8.63968 23.7803 8.78033C23.6397 8.92098 23.4489 9 23.25 9H0.75C0.551088 9 0.360322 8.92098 0.21967 8.78033C0.0790176 8.63968 0 8.44891 0 8.25V5.25ZM0 12.75C0 12.5511 0.0790176 12.3603 0.21967 12.2197C0.360322 12.079 0.551088 12 0.75 12H23.25C23.4489 12 23.6397 12.079 23.7803 12.2197C23.921 12.3603 24 12.5511 24 12.75V14.25C24 14.4489 23.921 14.6397 23.7803 14.7803C23.6397 14.921 23.4489 15 23.25 15H0.75C0.551088 15 0.360322 14.921 0.21967 14.7803C0.0790176 14.6397 0 14.4489 0 14.25V12.75ZM0 18.75C0 18.5511 0.0790176 18.3603 0.21967 18.2197C0.360322 18.079 0.551088 18 0.75 18H23.25C23.4489 18 23.6397 18.079 23.7803 18.2197C23.921 18.3603 24 18.5511 24 18.75C24 18.9489 23.921 19.1397 23.7803 19.2803C23.6397 19.421 23.4489 19.5 23.25 19.5H0.75C0.551088 19.5 0.360322 19.421 0.21967 19.2803C0.0790176 19.1397 0 18.9489 0 18.75Z" fill="black"/>
</svg>
