<svg width="24" height="24" viewBox="0 0 24 24" fill="none" xmlns="http://www.w3.org/2000/svg">
<g clip-path="url(#clip0_2_8180)">
<path d="M0 0V24H1.5V0H0ZM2.859 1.5H4.266V0H2.859V1.5ZM5.6715 1.5H7.0785V0H5.67V1.5H5.6715ZM8.484 1.5H9.891V0H8.484V1.5ZM11.2965 1.4535V1.5H12.7035V1.4535H12.75V0.75H12.7035V0H11.295V0.75H11.25V1.4535H11.2965ZM14.109 1.5H15.516V0H14.109V1.5ZM16.9215 1.5H18.3285V0H16.9215V1.5ZM19.734 1.5H21.141V0H19.734V1.5ZM22.5465 1.5H23.25V1.4535H24V0H22.5465V0.75H22.5V1.4535H22.5465V1.5ZM11.25 2.859V4.266H12.75V2.859H11.25ZM22.5 2.859V4.266H24V2.859H22.5ZM11.25 5.6715V7.0785H12.75V5.67H11.25V5.6715ZM22.5 5.6715V7.0785H24V5.67H22.5V5.6715ZM11.25 8.484V9.891H12.75V8.484H11.25ZM22.5 8.484V9.891H24V8.484H22.5ZM2.859 12.75H4.266V11.25H2.859V12.75ZM5.6715 12.75H7.0785V11.25H5.67V12.75H5.6715ZM8.484 12.75H9.891V11.25H8.484V12.75ZM12.7035 12.75V12.7035H12.75V11.295H12.7035V11.25H11.295V11.2965H11.25V12.7035H11.2965V12.75H12.7035ZM14.109 12.75H15.516V11.25H14.109V12.75ZM16.9215 12.75H18.3285V11.25H16.9215V12.75ZM19.734 12.75H21.141V11.25H19.734V12.75ZM22.5465 12.75H23.25V12.7035H24V11.295H23.25V11.25H22.5465V11.2965H22.5V12.7035H22.5465V12.75ZM11.25 14.109V15.516H12.75V14.109H11.25ZM24 15.516V14.109H22.5V15.516H24ZM11.25 16.9215V18.3285H12.75V16.9215H11.25ZM24 18.3285V16.9215H22.5V18.3285H24ZM11.25 19.734V21.141H12.75V19.734H11.25ZM24 21.141V19.734H22.5V21.141H24ZM2.859 24H4.266V22.5H2.859V24ZM5.6715 24H7.0785V22.5H5.67V24H5.6715ZM8.484 24H9.891V22.5H8.484V24ZM11.2965 23.25V24H12.7035V23.25H12.75V22.5465H12.7035V22.5H11.295V22.5465H11.25V23.25H11.2965ZM14.109 24H15.516V22.5H14.109V24ZM16.9215 24H18.3285V22.5H16.9215V24ZM19.734 24H21.141V22.5H19.734V24ZM22.5465 23.25V24H24V22.5465H23.25V22.5H22.5465V22.5465H22.5V23.25H22.5465Z" fill="black"/>
</g>
<defs>
<clipPath id="clip0_2_8180">
<rect width="24" height="24" fill="white"/>
</clipPath>
</defs>
</svg>
