<svg width="24" height="24" viewBox="0 0 24 24" fill="none" xmlns="http://www.w3.org/2000/svg">
<g clip-path="url(#clip0_2_8364)">
<path d="M11.25 2.85901V4.26601H12.75V2.85901H11.25ZM11.25 5.67151V7.07851H12.75V5.67001H11.25V5.67151ZM11.25 8.48401V9.89101H12.75V8.48401H11.25ZM2.85901 12.75H4.26601V11.25H2.85901V12.75ZM5.67151 12.75H7.07851V11.25H5.67001V12.75H5.67151ZM8.48401 12.75H9.89101V11.25H8.48401V12.75ZM12.7035 12.75V12.7035H12.75V11.295H12.7035V11.25H11.295V11.2965H11.25V12.7035H11.2965V12.75H12.7035ZM14.109 12.75H15.516V11.25H14.109V12.75ZM16.9215 12.75H18.3285V11.25H16.9215V12.75ZM19.734 12.75H21.141V11.25H19.734V12.75ZM11.25 14.109V15.516H12.75V14.109H11.25ZM11.25 16.9215V18.3285H12.75V16.9215H11.25ZM11.25 19.734V21.141H12.75V19.734H11.25Z" fill="black"/>
<path d="M0 0V24H24V0H0ZM1.5 1.5H22.5V22.5H1.5V1.5Z" fill="black"/>
</g>
<defs>
<clipPath id="clip0_2_8364">
<rect width="24" height="24" fill="white"/>
</clipPath>
</defs>
</svg>
