<svg width="24" height="24" viewBox="0 0 24 24" fill="none" xmlns="http://www.w3.org/2000/svg">
<g clip-path="url(#clip0_2_8348)">
<path d="M3 1.50102C2.60218 1.50102 2.22065 1.65905 1.93934 1.94036C1.65804 2.22166 1.5 2.60319 1.5 3.00102C1.5 3.39884 1.65804 3.78037 1.93934 4.06168C2.22065 4.34298 2.60218 4.50102 3 4.50102C3.39783 4.50102 3.77936 4.34298 4.06066 4.06168C4.34197 3.78037 4.5 3.39884 4.5 3.00102C4.5 2.60319 4.34197 2.22166 4.06066 1.94036C3.77936 1.65905 3.39783 1.50102 3 1.50102ZM1.46676e-06 3.00102C-0.000720717 2.27032 0.265264 1.56448 0.748032 1.01597C1.2308 0.467471 1.89716 0.114019 2.62204 0.021959C3.34691 -0.0701005 4.08047 0.105562 4.68502 0.515976C5.28957 0.92639 5.72355 1.54334 5.9055 2.25102H18.0945C18.2269 1.73902 18.4923 1.27111 18.8638 0.894718C19.2352 0.518322 19.6996 0.246812 20.2098 0.107701C20.72 -0.0314105 21.258 -0.0331786 21.7691 0.102575C22.2802 0.238329 22.7463 0.506781 23.1203 0.880727C23.4942 1.25467 23.7627 1.72082 23.8984 2.23194C24.0342 2.74306 24.0324 3.28098 23.8933 3.7912C23.7542 4.30141 23.4827 4.76579 23.1063 5.13727C22.7299 5.50875 22.262 5.77413 21.75 5.90652V18.0955C22.262 18.2279 22.7299 18.4933 23.1063 18.8648C23.4827 19.2363 23.7542 19.7006 23.8933 20.2108C24.0324 20.7211 24.0342 21.259 23.8984 21.7701C23.7627 22.2812 23.4942 22.7474 23.1203 23.1213C22.7463 23.4953 22.2802 23.7637 21.7691 23.8995C21.258 24.0352 20.72 24.0334 20.2098 23.8943C19.6996 23.7552 19.2352 23.4837 18.8638 23.1073C18.4923 22.7309 18.2269 22.263 18.0945 21.751H5.9055C5.77311 22.263 5.50773 22.7309 5.13625 23.1073C4.76477 23.4837 4.30039 23.7552 3.79018 23.8943C3.27996 24.0334 2.74204 24.0352 2.23092 23.8995C1.71981 23.7637 1.25366 23.4953 0.879709 23.1213C0.505763 22.7474 0.237312 22.2812 0.101558 21.7701C-0.0341964 21.259 -0.0324283 20.7211 0.106683 20.2108C0.245794 19.7006 0.517304 19.2363 0.8937 18.8648C1.2701 18.4933 1.738 18.2279 2.25 18.0955V5.90652C1.60591 5.74021 1.03535 5.36455 0.62806 4.8386C0.220765 4.31264 -0.000167602 3.66624 1.46676e-06 3.00102ZM3.75 5.90652V18.0955C4.8045 18.3655 5.634 19.1965 5.9055 20.251H18.0945C18.229 19.7322 18.4998 19.2588 18.8788 18.8798C19.2577 18.5008 19.7312 18.23 20.25 18.0955V5.90652C19.7312 5.77202 19.2577 5.50126 18.8788 5.12226C18.4998 4.74327 18.229 4.26984 18.0945 3.75102H5.9055C5.77101 4.26984 5.50024 4.74327 5.12125 5.12226C4.74226 5.50126 4.26883 5.77202 3.75 5.90652ZM21 1.50102C20.6022 1.50102 20.2206 1.65905 19.9393 1.94036C19.658 2.22166 19.5 2.60319 19.5 3.00102C19.5 3.39884 19.658 3.78037 19.9393 4.06168C20.2206 4.34298 20.6022 4.50102 21 4.50102C21.3978 4.50102 21.7794 4.34298 22.0607 4.06168C22.342 3.78037 22.5 3.39884 22.5 3.00102C22.5 2.60319 22.342 2.22166 22.0607 1.94036C21.7794 1.65905 21.3978 1.50102 21 1.50102ZM3 19.501C2.60218 19.501 2.22065 19.6591 1.93934 19.9404C1.65804 20.2217 1.5 20.6032 1.5 21.001C1.5 21.3988 1.65804 21.7804 1.93934 22.0617C2.22065 22.343 2.60218 22.501 3 22.501C3.39783 22.501 3.77936 22.343 4.06066 22.0617C4.34197 21.7804 4.5 21.3988 4.5 21.001C4.5 20.6032 4.34197 20.2217 4.06066 19.9404C3.77936 19.6591 3.39783 19.501 3 19.501ZM21 19.501C20.6022 19.501 20.2206 19.6591 19.9393 19.9404C19.658 20.2217 19.5 20.6032 19.5 21.001C19.5 21.3988 19.658 21.7804 19.9393 22.0617C20.2206 22.343 20.6022 22.501 21 22.501C21.3978 22.501 21.7794 22.343 22.0607 22.0617C22.342 21.7804 22.5 21.3988 22.5 21.001C22.5 20.6032 22.342 20.2217 22.0607 19.9404C21.7794 19.6591 21.3978 19.501 21 19.501Z" fill="black"/>
</g>
<defs>
<clipPath id="clip0_2_8348">
<rect width="24" height="24" fill="white"/>
</clipPath>
</defs>
</svg>
