<svg width="24" height="24" viewBox="0 0 24 24" fill="none" xmlns="http://www.w3.org/2000/svg">
<path fill-rule="evenodd" clip-rule="evenodd" d="M14.454 3.75C14.454 3.55109 14.375 3.36032 14.2343 3.21967C14.0937 3.07902 13.9029 3 13.704 3H3.75C3.15326 3 2.58097 3.23705 2.15901 3.65901C1.73705 4.08097 1.5 4.65326 1.5 5.25V20.25C1.5 20.8467 1.73705 21.419 2.15901 21.841C2.58097 22.2629 3.15326 22.5 3.75 22.5H18.75C19.3467 22.5 19.919 22.2629 20.341 21.841C20.7629 21.419 21 20.8467 21 20.25V10.296C21 10.0971 20.921 9.90632 20.7803 9.76567C20.6397 9.62502 20.4489 9.546 20.25 9.546C20.0511 9.546 19.8603 9.62502 19.7197 9.76567C19.579 9.90632 19.5 10.0971 19.5 10.296V20.25C19.5 20.4489 19.421 20.6397 19.2803 20.7803C19.1397 20.921 18.9489 21 18.75 21H3.75C3.55109 21 3.36032 20.921 3.21967 20.7803C3.07902 20.6397 3 20.4489 3 20.25V5.25C3 5.05109 3.07902 4.86032 3.21967 4.71967C3.36032 4.57902 3.55109 4.5 3.75 4.5H13.704C13.9029 4.5 14.0937 4.42098 14.2343 4.28033C14.375 4.13968 14.454 3.94891 14.454 3.75Z" fill="black"/>
<path fill-rule="evenodd" clip-rule="evenodd" d="M7.5 15.75C7.5 15.9489 7.57902 16.1396 7.71967 16.2803C7.86032 16.421 8.05109 16.5 8.25 16.5H15.75C15.9489 16.5 16.1397 16.421 16.2803 16.2803C16.421 16.1396 16.5 15.9489 16.5 15.75C16.5 15.5511 16.421 15.3603 16.2803 15.2196C16.1397 15.079 15.9489 15 15.75 15H10.0605L22.281 2.78097C22.3507 2.71124 22.406 2.62846 22.4438 2.53735C22.4815 2.44624 22.5009 2.34859 22.5009 2.24997C22.5009 2.15136 22.4815 2.0537 22.4438 1.9626C22.406 1.87149 22.3507 1.7887 22.281 1.71897C22.2113 1.64924 22.1285 1.59392 22.0374 1.55619C21.9463 1.51845 21.8486 1.49902 21.75 1.49902C21.6514 1.49902 21.5537 1.51845 21.4626 1.55619C21.3715 1.59392 21.2887 1.64924 21.219 1.71897L9 13.9395V8.24997C9 8.05106 8.92098 7.86029 8.78033 7.71964C8.63968 7.57899 8.44891 7.49997 8.25 7.49997C8.05109 7.49997 7.86032 7.57899 7.71967 7.71964C7.57902 7.86029 7.5 8.05106 7.5 8.24997V15.75Z" fill="black"/>
</svg>
