<svg width="24" height="24" viewBox="0 0 24 24" fill="none" xmlns="http://www.w3.org/2000/svg">
<path fill-rule="evenodd" clip-rule="evenodd" d="M9.546 3.75C9.546 3.55109 9.62502 3.36032 9.76567 3.21967C9.90632 3.07902 10.0971 3 10.296 3H20.25C20.8467 3 21.419 3.23705 21.841 3.65901C22.2629 4.08097 22.5 4.65326 22.5 5.25V20.25C22.5 20.8467 22.2629 21.419 21.841 21.841C21.419 22.2629 20.8467 22.5 20.25 22.5H5.25C4.65326 22.5 4.08097 22.2629 3.65901 21.841C3.23705 21.419 3 20.8467 3 20.25V10.296C3 10.0971 3.07902 9.90632 3.21967 9.76567C3.36032 9.62502 3.55109 9.546 3.75 9.546C3.94891 9.546 4.13968 9.62502 4.28033 9.76567C4.42098 9.90632 4.5 10.0971 4.5 10.296V20.25C4.5 20.4489 4.57902 20.6397 4.71967 20.7803C4.86032 20.921 5.05109 21 5.25 21H20.25C20.4489 21 20.6397 20.921 20.7803 20.7803C20.921 20.6397 21 20.4489 21 20.25V5.25C21 5.05109 20.921 4.86032 20.7803 4.71967C20.6397 4.57902 20.4489 4.5 20.25 4.5H10.296C10.0971 4.5 9.90632 4.42098 9.76567 4.28033C9.62502 4.13968 9.546 3.94891 9.546 3.75Z" fill="black"/>
<path fill-rule="evenodd" clip-rule="evenodd" d="M16.5 15.75C16.5 15.9489 16.421 16.1396 16.2803 16.2803C16.1396 16.421 15.9489 16.5 15.75 16.5H8.24997C8.05106 16.5 7.86029 16.421 7.71964 16.2803C7.57899 16.1396 7.49997 15.9489 7.49997 15.75C7.49997 15.5511 7.57899 15.3603 7.71964 15.2196C7.86029 15.079 8.05106 15 8.24997 15H13.9395L1.71897 2.78097C1.64924 2.71124 1.59392 2.62846 1.55619 2.53735C1.51845 2.44624 1.49902 2.34859 1.49902 2.24997C1.49902 2.15136 1.51845 2.0537 1.55619 1.9626C1.59392 1.87149 1.64924 1.7887 1.71897 1.71897C1.7887 1.64924 1.87149 1.59392 1.9626 1.55619C2.0537 1.51845 2.15136 1.49902 2.24997 1.49902C2.34859 1.49902 2.44624 1.51845 2.53735 1.55619C2.62846 1.59392 2.71124 1.64924 2.78097 1.71897L15 13.9395V8.24997C15 8.05106 15.079 7.86029 15.2196 7.71964C15.3603 7.57899 15.5511 7.49997 15.75 7.49997C15.9489 7.49997 16.1396 7.57899 16.2803 7.71964C16.421 7.86029 16.5 8.05106 16.5 8.24997V15.75Z" fill="black"/>
</svg>
