<svg width="24" height="24" viewBox="0 0 24 24" fill="none" xmlns="http://www.w3.org/2000/svg">
<g clip-path="url(#clip0_2_8196)">
<path fill-rule="evenodd" clip-rule="evenodd" d="M11.046 5.25C11.046 5.05109 11.125 4.86032 11.2657 4.71967C11.4063 4.57902 11.5971 4.5 11.796 4.5H21.75C22.3467 4.5 22.919 4.73705 23.341 5.15901C23.7629 5.58097 24 6.15326 24 6.75V21.75C24 22.3467 23.7629 22.919 23.341 23.341C22.919 23.7629 22.3467 24 21.75 24H6.75C6.15326 24 5.58097 23.7629 5.15901 23.341C4.73705 22.919 4.5 22.3467 4.5 21.75V11.796C4.5 11.5971 4.57902 11.4063 4.71967 11.2657C4.86032 11.125 5.05109 11.046 5.25 11.046C5.44891 11.046 5.63968 11.125 5.78033 11.2657C5.92098 11.4063 6 11.5971 6 11.796V21.75C6 21.9489 6.07902 22.1397 6.21967 22.2803C6.36032 22.421 6.55109 22.5 6.75 22.5H21.75C21.9489 22.5 22.1397 22.421 22.2803 22.2803C22.421 22.1397 22.5 21.9489 22.5 21.75V6.75C22.5 6.55109 22.421 6.36032 22.2803 6.21967C22.1397 6.07902 21.9489 6 21.75 6H11.796C11.5971 6 11.4063 5.92098 11.2657 5.78033C11.125 5.63968 11.046 5.44891 11.046 5.25Z" fill="black"/>
<path fill-rule="evenodd" clip-rule="evenodd" d="M0 0.75C0 0.551088 0.0790176 0.360322 0.21967 0.21967C0.360322 0.0790176 0.551088 0 0.75 0L8.25 0C8.44891 0 8.63968 0.0790176 8.78033 0.21967C8.92098 0.360322 9 0.551088 9 0.75C9 0.948912 8.92098 1.13968 8.78033 1.28033C8.63968 1.42098 8.44891 1.5 8.25 1.5H2.5605L14.781 13.719C14.9218 13.8598 15.0009 14.0508 15.0009 14.25C15.0009 14.4492 14.9218 14.6402 14.781 14.781C14.6402 14.9218 14.4492 15.0009 14.25 15.0009C14.0508 15.0009 13.8598 14.9218 13.719 14.781L1.5 2.5605V8.25C1.5 8.44891 1.42098 8.63968 1.28033 8.78033C1.13968 8.92098 0.948912 9 0.75 9C0.551088 9 0.360322 8.92098 0.21967 8.78033C0.0790176 8.63968 0 8.44891 0 8.25V0.75Z" fill="black"/>
</g>
<defs>
<clipPath id="clip0_2_8196">
<rect width="24" height="24" fill="white"/>
</clipPath>
</defs>
</svg>
