<svg width="24" height="24" viewBox="0 0 24 24" fill="none" xmlns="http://www.w3.org/2000/svg">
<path fill-rule="evenodd" clip-rule="evenodd" d="M14.454 20.25C14.454 20.4489 14.375 20.6397 14.2343 20.7803C14.0937 20.921 13.9029 21 13.704 21H3.75C3.15326 21 2.58097 20.7629 2.15901 20.341C1.73705 19.919 1.5 19.3467 1.5 18.75V3.75C1.5 3.15326 1.73705 2.58097 2.15901 2.15901C2.58097 1.73705 3.15326 1.5 3.75 1.5H18.75C19.3467 1.5 19.919 1.73705 20.341 2.15901C20.7629 2.58097 21 3.15326 21 3.75V13.704C21 13.9029 20.921 14.0937 20.7803 14.2343C20.6397 14.375 20.4489 14.454 20.25 14.454C20.0511 14.454 19.8603 14.375 19.7197 14.2343C19.579 14.0937 19.5 13.9029 19.5 13.704V3.75C19.5 3.55109 19.421 3.36032 19.2803 3.21967C19.1397 3.07902 18.9489 3 18.75 3H3.75C3.55109 3 3.36032 3.07902 3.21967 3.21967C3.07902 3.36032 3 3.55109 3 3.75V18.75C3 18.9489 3.07902 19.1397 3.21967 19.2803C3.36032 19.421 3.55109 19.5 3.75 19.5H13.704C13.9029 19.5 14.0937 19.579 14.2343 19.7197C14.375 19.8603 14.454 20.0511 14.454 20.25Z" fill="black"/>
<path fill-rule="evenodd" clip-rule="evenodd" d="M7.5 8.25C7.5 8.05109 7.57902 7.86032 7.71967 7.71967C7.86032 7.57902 8.05109 7.5 8.25 7.5H15.75C15.9489 7.5 16.1397 7.57902 16.2803 7.71967C16.421 7.86032 16.5 8.05109 16.5 8.25C16.5 8.44891 16.421 8.63968 16.2803 8.78033C16.1397 8.92098 15.9489 9 15.75 9H10.0605L22.281 21.219C22.4218 21.3598 22.5009 21.5508 22.5009 21.75C22.5009 21.9492 22.4218 22.1402 22.281 22.281C22.1402 22.4218 21.9492 22.5009 21.75 22.5009C21.5508 22.5009 21.3598 22.4218 21.219 22.281L9 10.0605V15.75C9 15.9489 8.92098 16.1397 8.78033 16.2803C8.63968 16.421 8.44891 16.5 8.25 16.5C8.05109 16.5 7.86032 16.421 7.71967 16.2803C7.57902 16.1397 7.5 15.9489 7.5 15.75V8.25Z" fill="black"/>
</svg>
