<svg width="24" height="24" viewBox="0 0 24 24" fill="none" xmlns="http://www.w3.org/2000/svg">
<g clip-path="url(#clip0_2_8175)">
<path fill-rule="evenodd" clip-rule="evenodd" d="M11.046 18.75C11.046 18.9489 11.125 19.1397 11.2657 19.2803C11.4063 19.421 11.5971 19.5 11.796 19.5H21.75C22.3467 19.5 22.919 19.2629 23.341 18.841C23.7629 18.419 24 17.8467 24 17.25V2.25C24 1.65326 23.7629 1.08097 23.341 0.65901C22.919 0.237053 22.3467 0 21.75 0L6.75 0C6.15326 0 5.58097 0.237053 5.15901 0.65901C4.73705 1.08097 4.5 1.65326 4.5 2.25V12.204C4.5 12.4029 4.57902 12.5937 4.71967 12.7343C4.86032 12.875 5.05109 12.954 5.25 12.954C5.44891 12.954 5.63968 12.875 5.78033 12.7343C5.92098 12.5937 6 12.4029 6 12.204V2.25C6 2.05109 6.07902 1.86032 6.21967 1.71967C6.36032 1.57902 6.55109 1.5 6.75 1.5H21.75C21.9489 1.5 22.1397 1.57902 22.2803 1.71967C22.421 1.86032 22.5 2.05109 22.5 2.25V17.25C22.5 17.4489 22.421 17.6397 22.2803 17.7803C22.1397 17.921 21.9489 18 21.75 18H11.796C11.5971 18 11.4063 18.079 11.2657 18.2197C11.125 18.3603 11.046 18.5511 11.046 18.75Z" fill="black"/>
<path fill-rule="evenodd" clip-rule="evenodd" d="M0 23.25C0 23.4489 0.0790176 23.6396 0.21967 23.7803C0.360322 23.921 0.551088 24 0.75 24H8.25C8.44891 24 8.63968 23.921 8.78033 23.7803C8.92098 23.6396 9 23.4489 9 23.25C9 23.0511 8.92098 22.8603 8.78033 22.7196C8.63968 22.579 8.44891 22.5 8.25 22.5H2.5605L14.781 10.281C14.9218 10.1401 15.0009 9.94913 15.0009 9.74997C15.0009 9.55081 14.9218 9.3598 14.781 9.21897C14.6402 9.07814 14.4492 8.99902 14.25 8.99902C14.0508 8.99902 13.8598 9.07814 13.719 9.21897L1.5 21.4395V15.75C1.5 15.5511 1.42098 15.3603 1.28033 15.2196C1.13968 15.079 0.948912 15 0.75 15C0.551088 15 0.360322 15.079 0.21967 15.2196C0.0790176 15.3603 0 15.5511 0 15.75L0 23.25Z" fill="black"/>
</g>
<defs>
<clipPath id="clip0_2_8175">
<rect width="24" height="24" fill="white"/>
</clipPath>
</defs>
</svg>
