<svg width="24" height="24" viewBox="0 0 24 24" fill="none" xmlns="http://www.w3.org/2000/svg">
<path fill-rule="evenodd" clip-rule="evenodd" d="M5.25 9C5.05109 9 4.86032 9.07902 4.71967 9.21967C4.57902 9.36032 4.5 9.55109 4.5 9.75V21.75C4.5 21.9489 4.57902 22.1397 4.71967 22.2803C4.86032 22.421 5.05109 22.5 5.25 22.5H18.75C18.9489 22.5 19.1397 22.421 19.2803 22.2803C19.421 22.1397 19.5 21.9489 19.5 21.75V9.75C19.5 9.55109 19.421 9.36032 19.2803 9.21967C19.1397 9.07902 18.9489 9 18.75 9H15.75C15.5511 9 15.3603 8.92098 15.2197 8.78033C15.079 8.63968 15 8.44891 15 8.25C15 8.05109 15.079 7.86032 15.2197 7.71967C15.3603 7.57902 15.5511 7.5 15.75 7.5H18.75C19.3467 7.5 19.919 7.73705 20.341 8.15901C20.7629 8.58097 21 9.15326 21 9.75V21.75C21 22.3467 20.7629 22.919 20.341 23.341C19.919 23.7629 19.3467 24 18.75 24H5.25C4.65326 24 4.08097 23.7629 3.65901 23.341C3.23705 22.919 3 22.3467 3 21.75V9.75C3 9.15326 3.23705 8.58097 3.65901 8.15901C4.08097 7.73705 4.65326 7.5 5.25 7.5H8.25C8.44891 7.5 8.63968 7.57902 8.78033 7.71967C8.92098 7.86032 9 8.05109 9 8.25C9 8.44891 8.92098 8.63968 8.78033 8.78033C8.63968 8.92098 8.44891 9 8.25 9H5.25Z" fill="black"/>
<path fill-rule="evenodd" clip-rule="evenodd" d="M11.469 17.781C11.5386 17.8508 11.6214 17.9063 11.7125 17.9441C11.8036 17.9819 11.9013 18.0013 12 18.0013C12.0986 18.0013 12.1963 17.9819 12.2874 17.9441C12.3785 17.9063 12.4613 17.8508 12.531 17.781L17.031 13.281C17.1718 13.1402 17.2509 12.9492 17.2509 12.75C17.2509 12.5508 17.1718 12.3598 17.031 12.219C16.8901 12.0782 16.6991 11.9991 16.5 11.9991C16.3008 11.9991 16.1098 12.0782 15.969 12.219L12.75 15.4395V2.25C12.75 2.05109 12.671 1.86032 12.5303 1.71967C12.3896 1.57902 12.1989 1.5 12 1.5C11.8011 1.5 11.6103 1.57902 11.4696 1.71967C11.329 1.86032 11.25 2.05109 11.25 2.25V15.4395L8.03097 12.219C7.89014 12.0782 7.69913 11.9991 7.49997 11.9991C7.30081 11.9991 7.1098 12.0782 6.96897 12.219C6.82814 12.3598 6.74902 12.5508 6.74902 12.75C6.74902 12.9492 6.82814 13.1402 6.96897 13.281L11.469 17.781Z" fill="black"/>
</svg>
