<svg width="24" height="24" viewBox="0 0 24 24" fill="none" xmlns="http://www.w3.org/2000/svg">
<path d="M3.171 12.0945V11.85C4.6785 11.697 5.4165 10.9275 5.4165 9.45V6.7545C5.4165 5.1135 6.0015 4.4475 7.4475 4.4475H7.857V3H7.293C4.875 3 3.735 4.1385 3.735 6.528V8.814C3.735 10.455 3.171 10.998 1.5 10.998V12.9465C3.171 12.9465 3.735 13.4895 3.735 15.1305V17.4165C3.735 19.806 4.8735 20.9445 7.293 20.9445H7.857V19.4985H7.4475C6.0015 19.4985 5.4165 18.8325 5.4165 17.1915V14.4945C5.4165 13.0185 4.6785 12.249 3.171 12.0945ZM20.829 11.85V12.0945C19.3215 12.249 18.5835 13.0185 18.5835 14.4945V17.1915C18.5835 18.8325 17.9985 19.4985 16.5525 19.4985H16.143V20.9445H16.707C19.1265 20.9445 20.265 19.806 20.265 17.4165V15.1305C20.265 13.4895 20.829 12.9465 22.5 12.9465V10.998C20.829 10.998 20.265 10.455 20.265 8.814V6.528C20.265 4.1385 19.125 3 16.707 3H16.143V4.446H16.5525C17.9985 4.446 18.5835 5.112 18.5835 6.753V9.45C18.5835 10.926 19.3215 11.6955 20.829 11.85Z" fill="black"/>
</svg>
