<svg width="24" height="24" viewBox="0 0 24 24" fill="none" xmlns="http://www.w3.org/2000/svg">
<g clip-path="url(#clip0_2_8294)">
<path d="M4.57501 4.57498C3.59988 5.55001 2.82636 6.70757 2.29862 7.98155C1.77088 9.25554 1.49925 10.621 1.49925 12C1.49925 13.3789 1.77088 14.7444 2.29862 16.0184C2.82636 17.2924 3.59988 18.4499 4.57501 19.425C4.71163 19.5664 4.78722 19.7559 4.78552 19.9525C4.78381 20.1492 4.70493 20.3373 4.56587 20.4763C4.42682 20.6154 4.23871 20.6943 4.04206 20.696C3.84541 20.6977 3.65596 20.6221 3.51451 20.4855C2.40014 19.3712 1.51617 18.0483 0.913078 16.5923C0.309982 15.1364 -0.000427246 13.5759 -0.000427246 12C-0.000427246 10.4241 0.309982 8.86358 0.913078 7.40763C1.51617 5.95169 2.40014 4.62879 3.51451 3.51448C3.65596 3.37786 3.84541 3.30226 4.04206 3.30397C4.23871 3.30568 4.42682 3.38456 4.56587 3.52361C4.70493 3.66267 4.78381 3.85078 4.78552 4.04743C4.78722 4.24407 4.71163 4.43352 4.57501 4.57498ZM7.75801 7.75798C6.63318 8.88314 6.00129 10.409 6.00129 12C6.00129 13.591 6.63318 15.1168 7.75801 16.242C7.82774 16.3117 7.88306 16.3945 7.92079 16.4856C7.95853 16.5767 7.97796 16.6744 7.97796 16.773C7.97796 16.8716 7.95853 16.9692 7.92079 17.0604C7.88306 17.1515 7.82774 17.2342 7.75801 17.304C7.68828 17.3737 7.60549 17.429 7.51439 17.4668C7.42328 17.5045 7.32563 17.5239 7.22701 17.5239C7.12839 17.5239 7.03074 17.5045 6.93963 17.4668C6.84853 17.429 6.76574 17.3737 6.69601 17.304C5.99936 16.6075 5.44674 15.7806 5.0697 14.8706C4.69267 13.9605 4.49861 12.9851 4.49861 12C4.49861 11.0149 4.69267 10.0395 5.0697 9.12939C5.44674 8.21932 5.99936 7.39244 6.69601 6.69598C6.83684 6.55515 7.02785 6.47603 7.22701 6.47603C7.42617 6.47603 7.61718 6.55515 7.75801 6.69598C7.89884 6.83681 7.97796 7.02781 7.97796 7.22698C7.97796 7.42614 7.89884 7.61715 7.75801 7.75798ZM16.242 6.69598C16.3117 6.62613 16.3944 6.57072 16.4856 6.53291C16.5767 6.4951 16.6744 6.47564 16.773 6.47564C16.8717 6.47564 16.9693 6.4951 17.0605 6.53291C17.1516 6.57072 17.2343 6.62613 17.304 6.69598C18.0007 7.39244 18.5533 8.21932 18.9303 9.12939C19.3074 10.0395 19.5014 11.0149 19.5014 12C19.5014 12.9851 19.3074 13.9605 18.9303 14.8706C18.5533 15.7806 18.0007 16.6075 17.304 17.304C17.2343 17.3737 17.1515 17.429 17.0604 17.4668C16.9693 17.5045 16.8716 17.5239 16.773 17.5239C16.6744 17.5239 16.5767 17.5045 16.4856 17.4668C16.3945 17.429 16.3117 17.3737 16.242 17.304C16.1723 17.2342 16.117 17.1515 16.0792 17.0604C16.0415 16.9692 16.0221 16.8716 16.0221 16.773C16.0221 16.6744 16.0415 16.5767 16.0792 16.4856C16.117 16.3945 16.1723 16.3117 16.242 16.242C17.3668 15.1168 17.9987 13.591 17.9987 12C17.9987 10.409 17.3668 8.88314 16.242 7.75798C16.1722 7.68831 16.1168 7.60555 16.0789 7.51443C16.0411 7.42331 16.0217 7.32563 16.0217 7.22698C16.0217 7.12833 16.0411 7.03064 16.0789 6.93953C16.1168 6.84841 16.1722 6.76565 16.242 6.69598ZM19.425 3.51598C19.5657 3.37537 19.7564 3.29639 19.9553 3.29639C20.1541 3.29639 20.3449 3.37537 20.4855 3.51598C22.7356 5.76637 23.9997 8.81839 23.9997 12.0007C23.9997 15.1831 22.7356 18.2351 20.4855 20.4855C20.3441 20.6221 20.1546 20.6977 19.958 20.696C19.7613 20.6943 19.5732 20.6154 19.4341 20.4763C19.2951 20.3373 19.2162 20.1492 19.2145 19.9525C19.2128 19.7559 19.2884 19.5664 19.425 19.425C20.4001 18.4499 21.1737 17.2924 21.7014 16.0184C22.2291 14.7444 22.5008 13.3789 22.5008 12C22.5008 10.621 22.2291 9.25554 21.7014 7.98155C21.1737 6.70757 20.4001 5.55001 19.425 4.57498C19.2844 4.43433 19.2054 4.2436 19.2054 4.04473C19.2054 3.84585 19.2844 3.65512 19.425 3.51448V3.51598ZM15 12C15 12.7956 14.6839 13.5587 14.1213 14.1213C13.5587 14.6839 12.7957 15 12 15C11.2044 15 10.4413 14.6839 9.87869 14.1213C9.31608 13.5587 9.00001 12.7956 9.00001 12C9.00001 11.2043 9.31608 10.4413 9.87869 9.87866C10.4413 9.31605 11.2044 8.99998 12 8.99998C12.7957 8.99998 13.5587 9.31605 14.1213 9.87866C14.6839 10.4413 15 11.2043 15 12Z" fill="black"/>
</g>
<defs>
<clipPath id="clip0_2_8294">
<rect width="24" height="24" fill="white"/>
</clipPath>
</defs>
</svg>
