<svg width="24" height="24" viewBox="0 0 24 24" fill="none" xmlns="http://www.w3.org/2000/svg">
<g clip-path="url(#clip0_2_8559)">
<path d="M3.78299 7.50002H2.99999C2.89218 7.50012 2.78566 7.52347 2.68769 7.56847C2.58972 7.61347 2.5026 7.67907 2.43227 7.76078C2.36194 7.8425 2.31006 7.93842 2.28016 8.042C2.25025 8.14558 2.24304 8.25439 2.25899 8.36102L4.31699 22.0845C4.39704 22.617 4.66537 23.1031 5.07326 23.4545C5.48115 23.806 6.00156 23.9995 6.53999 24H17.457C17.9957 23.9999 18.5164 23.8065 18.9247 23.455C19.3329 23.1035 19.6014 22.6172 19.6815 22.0845L21.741 8.36102C21.7569 8.25439 21.7497 8.14558 21.7198 8.042C21.6899 7.93842 21.638 7.8425 21.5677 7.76078C21.4974 7.67907 21.4103 7.61347 21.3123 7.56847C21.2143 7.52347 21.1078 7.50012 21 7.50002H20.217C20.0329 5.44784 19.0875 3.53882 17.5669 2.1485C16.0463 0.758176 14.0604 -0.0128174 12 -0.0128174C9.93957 -0.0128174 7.95372 0.758176 6.43309 2.1485C4.91245 3.53882 3.9671 5.44784 3.78299 7.50002ZM5.29049 7.50002C5.47386 5.84897 6.25963 4.32353 7.49741 3.21561C8.73518 2.10769 10.338 1.49512 11.9992 1.49512C13.6604 1.49512 15.2633 2.10769 16.5011 3.21561C17.7389 4.32353 18.5246 5.84897 18.708 7.50002H5.29049ZM20.1285 9.00002L18.1995 21.861C18.1729 22.0386 18.0835 22.2007 17.9475 22.318C17.8116 22.4353 17.638 22.4998 17.4585 22.5H6.53999C6.36044 22.4998 6.18691 22.4353 6.05094 22.318C5.91496 22.2007 5.82557 22.0386 5.79899 21.861L3.86999 9.00002H20.127H20.1285Z" fill="black"/>
</g>
<defs>
<clipPath id="clip0_2_8559">
<rect width="24" height="24" fill="white"/>
</clipPath>
</defs>
</svg>
