<svg width="24" height="24" viewBox="0 0 24 24" fill="none" xmlns="http://www.w3.org/2000/svg">
<path d="M6.5325 0.782999C6.72266 0.725518 6.92786 0.74583 7.10306 0.839476C7.27826 0.933123 7.40915 1.09245 7.467 1.2825L7.9035 2.7165C9.12137 1.92066 10.5452 1.49785 12 1.5C13.5105 1.5 14.919 1.947 16.0965 2.7165L16.5315 1.2825C16.5595 1.18761 16.606 1.0992 16.6684 1.02236C16.7307 0.945522 16.8076 0.881779 16.8947 0.834802C16.9818 0.787824 17.0773 0.758541 17.1757 0.748639C17.2742 0.738736 17.3736 0.748411 17.4683 0.777105C17.563 0.805799 17.6511 0.852945 17.7275 0.915828C17.8039 0.97871 17.867 1.05609 17.9134 1.1435C17.9598 1.23091 17.9884 1.32663 17.9976 1.42514C18.0068 1.52366 17.9964 1.62302 17.967 1.7175L17.352 3.7455C18.7308 5.14657 19.5025 7.03425 19.5 9H20.25C20.4489 9 20.6397 8.92098 20.7803 8.78033C20.921 8.63968 21 8.44891 21 8.25V7.5C21 7.30109 21.079 7.11032 21.2197 6.96967C21.3603 6.82902 21.5511 6.75 21.75 6.75C21.9489 6.75 22.1397 6.82902 22.2803 6.96967C22.421 7.11032 22.5 7.30109 22.5 7.5V8.25C22.5 8.84674 22.2629 9.41903 21.841 9.84099C21.419 10.2629 20.8467 10.5 20.25 10.5H19.5V12H21.75C21.9489 12 22.1397 12.079 22.2803 12.2197C22.421 12.3603 22.5 12.5511 22.5 12.75C22.5 12.9489 22.421 13.1397 22.2803 13.2803C22.1397 13.421 21.9489 13.5 21.75 13.5H19.5V15H20.25C20.8467 15 21.419 15.2371 21.841 15.659C22.2629 16.081 22.5 16.6533 22.5 17.25V18C22.5 18.1989 22.421 18.3897 22.2803 18.5303C22.1397 18.671 21.9489 18.75 21.75 18.75C21.5511 18.75 21.3603 18.671 21.2197 18.5303C21.079 18.3897 21 18.1989 21 18V17.25C21 17.0511 20.921 16.8603 20.7803 16.7197C20.6397 16.579 20.4489 16.5 20.25 16.5H19.5C19.5 18.4891 18.7098 20.3968 17.3033 21.8033C15.8968 23.2098 13.9891 24 12 24C10.0109 24 8.10322 23.2098 6.6967 21.8033C5.29018 20.3968 4.5 18.4891 4.5 16.5H3.75C3.55109 16.5 3.36032 16.579 3.21967 16.7197C3.07902 16.8603 3 17.0511 3 17.25V18C3 18.1989 2.92098 18.3897 2.78033 18.5303C2.63968 18.671 2.44891 18.75 2.25 18.75C2.05109 18.75 1.86032 18.671 1.71967 18.5303C1.57902 18.3897 1.5 18.1989 1.5 18V17.25C1.5 16.6533 1.73705 16.081 2.15901 15.659C2.58097 15.2371 3.15326 15 3.75 15H4.5V13.5H2.25C2.05109 13.5 1.86032 13.421 1.71967 13.2803C1.57902 13.1397 1.5 12.9489 1.5 12.75C1.5 12.5511 1.57902 12.3603 1.71967 12.2197C1.86032 12.079 2.05109 12 2.25 12H4.5V10.5H3.75C3.15326 10.5 2.58097 10.2629 2.15901 9.84099C1.73705 9.41903 1.5 8.84674 1.5 8.25V7.5C1.5 7.30109 1.57902 7.11032 1.71967 6.96967C1.86032 6.82902 2.05109 6.75 2.25 6.75C2.44891 6.75 2.63968 6.82902 2.78033 6.96967C2.92098 7.11032 3 7.30109 3 7.5V8.25C3 8.44891 3.07902 8.63968 3.21967 8.78033C3.36032 8.92098 3.55109 9 3.75 9H4.5C4.5 6.954 5.3205 5.0985 6.648 3.7455L6.033 1.7175C5.97552 1.52734 5.99583 1.32214 6.08948 1.14694C6.18312 0.971743 6.34245 0.840853 6.5325 0.782999ZM6 10.5V16.5C5.9995 17.9618 6.53264 19.3734 7.49932 20.4699C8.46599 21.5664 9.7997 22.2723 11.25 22.455V10.5H6ZM12.75 10.5V22.455C14.2003 22.2723 15.534 21.5664 16.5007 20.4699C17.4674 19.3734 18.0005 17.9618 18 16.5V10.5H12.75ZM18 9C18.001 8.15543 17.8233 7.32021 17.4784 6.54927C17.1335 5.77833 16.6293 5.08913 15.999 4.527C14.9004 3.54154 13.4758 2.9976 12 3C10.5236 2.99723 9.09853 3.5412 7.9995 4.527C7.36945 5.08926 6.86555 5.77852 6.52093 6.54946C6.17631 7.32039 5.99877 8.15554 6 9H18Z" fill="black"/>
</svg>
