<svg width="24" height="24" viewBox="0 0 24 24" fill="none" xmlns="http://www.w3.org/2000/svg">
<path fill-rule="evenodd" clip-rule="evenodd" d="M22.1445 0.112446C22.2531 0.179637 22.3428 0.273464 22.405 0.385031C22.4673 0.496597 22.4999 0.622205 22.5 0.749946V23.2499C22.5 23.4489 22.421 23.6396 22.2803 23.7803C22.1397 23.9209 21.9489 23.9999 21.75 23.9999H17.25C17.0511 23.9999 16.8603 23.9209 16.7197 23.7803C16.579 23.6396 16.5 23.4489 16.5 23.2499V20.9999H15V23.2499C15 23.4489 14.921 23.6396 14.7803 23.7803C14.6397 23.9209 14.4489 23.9999 14.25 23.9999H0.75C0.551088 23.9999 0.360322 23.9209 0.21967 23.7803C0.0790176 23.6396 0 23.4489 0 23.2499V14.9999C0.00011947 14.8426 0.0497221 14.6893 0.141787 14.5617C0.233853 14.4341 0.363717 14.3387 0.513 14.2889L9 11.4599V6.74994C9 6.61078 9.03873 6.47436 9.11185 6.35594C9.18496 6.23753 9.28958 6.14179 9.414 6.07944L21.414 0.0794457C21.5285 0.0221545 21.6557 -0.00489004 21.7835 0.00088629C21.9114 0.00666262 22.0357 0.0450676 22.1445 0.112446ZM9 13.0409L1.5 15.5399V22.4999H9V13.0409ZM10.5 22.4999H13.5V20.2499C13.5 20.051 13.579 19.8603 13.7197 19.7196C13.8603 19.579 14.0511 19.4999 14.25 19.4999H17.25C17.4489 19.4999 17.6397 19.579 17.7803 19.7196C17.921 19.8603 18 20.051 18 20.2499V22.4999H21V1.96345L10.5 7.21344V22.4999Z" fill="black"/>
<path d="M3 16.5H4.5V18H3V16.5ZM6 16.5H7.5V18H6V16.5ZM3 19.5H4.5V21H3V19.5ZM6 19.5H7.5V21H6V19.5ZM12 13.5H13.5V15H12V13.5ZM15 13.5H16.5V15H15V13.5ZM12 16.5H13.5V18H12V16.5ZM15 16.5H16.5V18H15V16.5ZM18 13.5H19.5V15H18V13.5ZM18 16.5H19.5V18H18V16.5ZM12 10.5H13.5V12H12V10.5ZM15 10.5H16.5V12H15V10.5ZM18 10.5H19.5V12H18V10.5ZM12 7.5H13.5V9H12V7.5ZM15 7.5H16.5V9H15V7.5ZM18 7.5H19.5V9H18V7.5ZM18 4.5H19.5V6H18V4.5Z" fill="black"/>
</svg>
