<svg width="24" height="24" viewBox="0 0 24 24" fill="none" xmlns="http://www.w3.org/2000/svg">
<g clip-path="url(#clip0_2_8209)">
<path d="M21 0H3C2.20435 0 1.44129 0.316071 0.87868 0.87868C0.316071 1.44129 0 2.20435 0 3L0 21C0 21.7956 0.316071 22.5587 0.87868 23.1213C1.44129 23.6839 2.20435 24 3 24H21C21.7956 24 22.5587 23.6839 23.1213 23.1213C23.6839 22.5587 24 21.7956 24 21V3C24 2.20435 23.6839 1.44129 23.1213 0.87868C22.5587 0.316071 21.7956 0 21 0V0ZM1.5 5.7855C1.5 5.076 2.172 4.5 3 4.5H21C21.828 4.5 22.5 5.076 22.5 5.7855V21.2145C22.5 21.924 21.828 22.5 21 22.5H3C2.172 22.5 1.5 21.924 1.5 21.2145V5.7855Z" fill="black"/>
<path d="M10.5 15C10.8978 15 11.2794 14.842 11.5607 14.5607C11.842 14.2794 12 13.8978 12 13.5C12 13.1022 11.842 12.7206 11.5607 12.4393C11.2794 12.158 10.8978 12 10.5 12H1.5V15H10.5ZM13.5 10.5H22.5V7.5H13.5C13.1022 7.5 12.7206 7.65804 12.4393 7.93934C12.158 8.22064 12 8.60218 12 9C12 9.39782 12.158 9.77936 12.4393 10.0607C12.7206 10.342 13.1022 10.5 13.5 10.5Z" fill="black"/>
</g>
<defs>
<clipPath id="clip0_2_8209">
<rect width="24" height="24" fill="white"/>
</clipPath>
</defs>
</svg>
