<svg width="24" height="24" viewBox="0 0 24 24" fill="none" xmlns="http://www.w3.org/2000/svg">
<g clip-path="url(#clip0_2_8234)">
<path d="M6.15603 11.7075L7.35003 15.27H4.92603L6.12603 11.7075H6.15603ZM19.767 15.153C19.767 13.905 19.146 13.113 18.174 13.113C17.136 13.113 16.527 13.851 16.527 15.153V15.5325C16.527 16.8105 17.136 17.5785 18.174 17.5785C19.1805 17.5785 19.767 16.8045 19.767 15.5325V15.153Z" fill="black"/>
<path d="M5.25 0C5.44891 0 5.63968 0.0790176 5.78033 0.21967C5.92098 0.360322 6 0.551088 6 0.75V1.5H18V0.75C18 0.551088 18.079 0.360322 18.2197 0.21967C18.3603 0.0790176 18.5511 0 18.75 0C18.9489 0 19.1397 0.0790176 19.2803 0.21967C19.421 0.360322 19.5 0.551088 19.5 0.75V1.5H21C21.7956 1.5 22.5587 1.81607 23.1213 2.37868C23.6839 2.94129 24 3.70435 24 4.5V21C24 21.7956 23.6839 22.5587 23.1213 23.1213C22.5587 23.6839 21.7956 24 21 24H3C2.20435 24 1.44129 23.6839 0.87868 23.1213C0.316071 22.5587 0 21.7956 0 21V4.5C0 3.70435 0.316071 2.94129 0.87868 2.37868C1.44129 1.81607 2.20435 1.5 3 1.5H4.5V0.75C4.5 0.551088 4.57902 0.360322 4.71967 0.21967C4.86032 0.0790176 5.05109 0 5.25 0V0ZM20.181 4.5H3.8175C3.3675 4.5 3 4.836 3 5.25V6.75C3 7.164 3.366 7.5 3.8175 7.5H20.1825C20.6325 7.5 21 7.164 21 6.75V5.25C21 4.836 20.634 4.5 20.181 4.5ZM3.8415 18.498L4.65 16.095H7.626L8.436 18.498H9.513L6.666 10.5H5.622L2.775 18.498H3.84H3.8415ZM14.775 12.3405H13.761V16.155C13.761 17.133 13.14 17.6895 12.255 17.6895C11.4465 17.6895 10.785 17.3205 10.785 16.1715V12.3405H9.771V16.4595C9.771 17.871 10.68 18.597 11.9505 18.597C12.9345 18.597 13.515 18.177 13.7325 17.6895H13.773V18.498H14.775V12.3405ZM16.6845 18.9555H15.654C15.795 19.98 16.5915 20.754 18.156 20.754C19.551 20.754 20.775 19.9635 20.775 18.387V12.3405H19.8015V13.2075H19.773C19.4865 12.6855 18.8175 12.2475 17.9805 12.2475C16.533 12.2475 15.5205 13.266 15.5205 15.0765V15.5865C15.5205 17.4315 16.545 18.4395 17.9805 18.4395C18.8175 18.4395 19.4925 18 19.7385 17.4675H19.7685V18.375C19.7685 19.3425 19.134 19.9095 18.162 19.9095C17.3175 19.9095 16.797 19.4535 16.6845 18.9555Z" fill="black"/>
</g>
<defs>
<clipPath id="clip0_2_8234">
<rect width="24" height="24" fill="white"/>
</clipPath>
</defs>
</svg>
