<svg width="24" height="24" viewBox="0 0 24 24" fill="none" xmlns="http://www.w3.org/2000/svg">
<g clip-path="url(#clip0_2_8224)">
<path d="M9.219 12.219C9.28867 12.1492 9.37143 12.0937 9.46255 12.0559C9.55366 12.0181 9.65135 11.9987 9.75 11.9987C9.84865 11.9987 9.94633 12.0181 10.0374 12.0559C10.1286 12.0937 10.2113 12.1492 10.281 12.219L12 13.9395L13.719 12.219C13.8598 12.0782 14.0508 11.999 14.25 11.999C14.4492 11.999 14.6402 12.0782 14.781 12.219C14.9218 12.3598 15.0009 12.5508 15.0009 12.75C15.0009 12.9492 14.9218 13.1402 14.781 13.281L13.0605 15L14.781 16.719C14.9218 16.8598 15.0009 17.0508 15.0009 17.25C15.0009 17.4492 14.9218 17.6402 14.781 17.781C14.6402 17.9218 14.4492 18.0009 14.25 18.0009C14.0508 18.0009 13.8598 17.9218 13.719 17.781L12 16.0605L10.281 17.781C10.1402 17.9218 9.94916 18.0009 9.75 18.0009C9.55083 18.0009 9.35983 17.9218 9.219 17.781C9.07817 17.6402 8.99905 17.4492 8.99905 17.25C8.99905 17.0508 9.07817 16.8598 9.219 16.719L10.9395 15L9.219 13.281C9.14915 13.2113 9.09374 13.1286 9.05593 13.0374C9.01812 12.9463 8.99866 12.8486 8.99866 12.75C8.99866 12.6513 9.01812 12.5537 9.05593 12.4625C9.09374 12.3714 9.14915 12.2887 9.219 12.219Z" fill="black"/>
<path d="M5.25 0C5.44891 0 5.63968 0.0790176 5.78033 0.21967C5.92098 0.360322 6 0.551088 6 0.75V1.5H18V0.75C18 0.551088 18.079 0.360322 18.2197 0.21967C18.3603 0.0790176 18.5511 0 18.75 0C18.9489 0 19.1397 0.0790176 19.2803 0.21967C19.421 0.360322 19.5 0.551088 19.5 0.75V1.5H21C21.7956 1.5 22.5587 1.81607 23.1213 2.37868C23.6839 2.94129 24 3.70435 24 4.5V21C24 21.7956 23.6839 22.5587 23.1213 23.1213C22.5587 23.6839 21.7956 24 21 24H3C2.20435 24 1.44129 23.6839 0.87868 23.1213C0.316071 22.5587 0 21.7956 0 21V4.5C0 3.70435 0.316071 2.94129 0.87868 2.37868C1.44129 1.81607 2.20435 1.5 3 1.5H4.5V0.75C4.5 0.551088 4.57902 0.360322 4.71967 0.21967C4.86032 0.0790176 5.05109 0 5.25 0V0ZM3 3C2.60218 3 2.22064 3.15804 1.93934 3.43934C1.65804 3.72064 1.5 4.10218 1.5 4.5V21C1.5 21.3978 1.65804 21.7794 1.93934 22.0607C2.22064 22.342 2.60218 22.5 3 22.5H21C21.3978 22.5 21.7794 22.342 22.0607 22.0607C22.342 21.7794 22.5 21.3978 22.5 21V4.5C22.5 4.10218 22.342 3.72064 22.0607 3.43934C21.7794 3.15804 21.3978 3 21 3H3Z" fill="black"/>
<path d="M3.75 6C3.75 5.80109 3.82902 5.61032 3.96967 5.46967C4.11032 5.32902 4.30109 5.25 4.5 5.25H19.5C19.6989 5.25 19.8897 5.32902 20.0303 5.46967C20.171 5.61032 20.25 5.80109 20.25 6V7.5C20.25 7.69891 20.171 7.88968 20.0303 8.03033C19.8897 8.17098 19.6989 8.25 19.5 8.25H4.5C4.30109 8.25 4.11032 8.17098 3.96967 8.03033C3.82902 7.88968 3.75 7.69891 3.75 7.5V6Z" fill="black"/>
</g>
<defs>
<clipPath id="clip0_2_8224">
<rect width="24" height="24" fill="white"/>
</clipPath>
</defs>
</svg>
