<svg width="24" height="24" viewBox="0 0 24 24" fill="none" xmlns="http://www.w3.org/2000/svg">
<g clip-path="url(#clip0_2_8253)">
<path d="M7.026 18.7845V15.3345H10.4175V14.4195H7.026V11.7015H10.722V10.7865H6V18.7845H7.026ZM11.97 18.7845H12.984V14.97C12.984 14.139 13.3245 13.4595 14.4135 13.4595C14.601 13.4595 14.8005 13.4655 14.907 13.482V12.5625C14.7809 12.5436 14.6535 12.5335 14.526 12.5325C13.653 12.5325 13.1895 13.0125 13.008 13.383H12.978V12.627H11.97V18.7845ZM16.1775 11.145C16.1775 11.502 16.4655 11.7825 16.8225 11.7825C16.9093 11.7867 16.9961 11.7732 17.0775 11.7429C17.159 11.7126 17.2335 11.666 17.2964 11.6061C17.3593 11.5461 17.4094 11.474 17.4436 11.3941C17.4779 11.3142 17.4955 11.2282 17.4955 11.1413C17.4955 11.0543 17.4779 10.9683 17.4436 10.8884C17.4094 10.8085 17.3593 10.7364 17.2964 10.6765C17.2335 10.6165 17.159 10.57 17.0775 10.5396C16.9961 10.5093 16.9093 10.4958 16.8225 10.5C16.7376 10.4992 16.6533 10.5154 16.5747 10.5475C16.4961 10.5796 16.4247 10.6271 16.3646 10.6871C16.3046 10.7472 16.2571 10.8186 16.225 10.8972C16.1928 10.9759 16.1767 11.0601 16.1775 11.145ZM16.3185 18.7845H17.3265V12.627H16.3185V18.7845Z" fill="black"/>
<path d="M5.25 0C5.44891 0 5.63968 0.0790176 5.78033 0.21967C5.92098 0.360322 6 0.551088 6 0.75V1.5H18V0.75C18 0.551088 18.079 0.360322 18.2197 0.21967C18.3603 0.0790176 18.5511 0 18.75 0C18.9489 0 19.1397 0.0790176 19.2803 0.21967C19.421 0.360322 19.5 0.551088 19.5 0.75V1.5H21C21.7956 1.5 22.5587 1.81607 23.1213 2.37868C23.6839 2.94129 24 3.70435 24 4.5V21C24 21.7956 23.6839 22.5587 23.1213 23.1213C22.5587 23.6839 21.7956 24 21 24H3C2.20435 24 1.44129 23.6839 0.87868 23.1213C0.316071 22.5587 0 21.7956 0 21V4.5C0 3.70435 0.316071 2.94129 0.87868 2.37868C1.44129 1.81607 2.20435 1.5 3 1.5H4.5V0.75C4.5 0.551088 4.57902 0.360322 4.71967 0.21967C4.86032 0.0790176 5.05109 0 5.25 0V0ZM3 3C2.60218 3 2.22064 3.15804 1.93934 3.43934C1.65804 3.72064 1.5 4.10218 1.5 4.5V21C1.5 21.3978 1.65804 21.7794 1.93934 22.0607C2.22064 22.342 2.60218 22.5 3 22.5H21C21.3978 22.5 21.7794 22.342 22.0607 22.0607C22.342 21.7794 22.5 21.3978 22.5 21V4.5C22.5 4.10218 22.342 3.72064 22.0607 3.43934C21.7794 3.15804 21.3978 3 21 3H3Z" fill="black"/>
<path d="M3.75 6C3.75 5.80109 3.82902 5.61032 3.96967 5.46967C4.11032 5.32902 4.30109 5.25 4.5 5.25H19.5C19.6989 5.25 19.8897 5.32902 20.0303 5.46967C20.171 5.61032 20.25 5.80109 20.25 6V7.5C20.25 7.69891 20.171 7.88968 20.0303 8.03033C19.8897 8.17098 19.6989 8.25 19.5 8.25H4.5C4.30109 8.25 4.11032 8.17098 3.96967 8.03033C3.82902 7.88968 3.75 7.69891 3.75 7.5V6Z" fill="black"/>
</g>
<defs>
<clipPath id="clip0_2_8253">
<rect width="24" height="24" fill="white"/>
</clipPath>
</defs>
</svg>
