<svg width="24" height="24" viewBox="0 0 24 24" fill="none" xmlns="http://www.w3.org/2000/svg">
<g clip-path="url(#clip0_2_8266)">
<path d="M6 0.75C6 0.551088 5.92098 0.360322 5.78033 0.21967C5.63968 0.0790176 5.44891 0 5.25 0C5.05109 0 4.86032 0.0790176 4.71967 0.21967C4.57902 0.360322 4.5 0.551088 4.5 0.75V1.5H3C2.20435 1.5 1.44129 1.81607 0.87868 2.37868C0.316071 2.94129 0 3.70435 0 4.5L0 6H24V4.5C24 3.70435 23.6839 2.94129 23.1213 2.37868C22.5587 1.81607 21.7956 1.5 21 1.5H19.5V0.75C19.5 0.551088 19.421 0.360322 19.2803 0.21967C19.1397 0.0790176 18.9489 0 18.75 0C18.5511 0 18.3603 0.0790176 18.2197 0.21967C18.079 0.360322 18 0.551088 18 0.75V1.5H6V0.75ZM24 21V7.5H0V21C0 21.7956 0.316071 22.5587 0.87868 23.1213C1.44129 23.6839 2.20435 24 3 24H21C21.7956 24 22.5587 23.6839 23.1213 23.1213C23.6839 22.5587 24 21.7956 24 21ZM14.25 10.5H15.75C15.9489 10.5 16.1397 10.579 16.2803 10.7197C16.421 10.8603 16.5 11.0511 16.5 11.25V12.75C16.5 12.9489 16.421 13.1397 16.2803 13.2803C16.1397 13.421 15.9489 13.5 15.75 13.5H14.25C14.0511 13.5 13.8603 13.421 13.7197 13.2803C13.579 13.1397 13.5 12.9489 13.5 12.75V11.25C13.5 11.0511 13.579 10.8603 13.7197 10.7197C13.8603 10.579 14.0511 10.5 14.25 10.5ZM18.75 10.5H20.25C20.4489 10.5 20.6397 10.579 20.7803 10.7197C20.921 10.8603 21 11.0511 21 11.25V12.75C21 12.9489 20.921 13.1397 20.7803 13.2803C20.6397 13.421 20.4489 13.5 20.25 13.5H18.75C18.5511 13.5 18.3603 13.421 18.2197 13.2803C18.079 13.1397 18 12.9489 18 12.75V11.25C18 11.0511 18.079 10.8603 18.2197 10.7197C18.3603 10.579 18.5511 10.5 18.75 10.5ZM3 15.75C3 15.5511 3.07902 15.3603 3.21967 15.2197C3.36032 15.079 3.55109 15 3.75 15H5.25C5.44891 15 5.63968 15.079 5.78033 15.2197C5.92098 15.3603 6 15.5511 6 15.75V17.25C6 17.4489 5.92098 17.6397 5.78033 17.7803C5.63968 17.921 5.44891 18 5.25 18H3.75C3.55109 18 3.36032 17.921 3.21967 17.7803C3.07902 17.6397 3 17.4489 3 17.25V15.75ZM8.25 15H9.75C9.94891 15 10.1397 15.079 10.2803 15.2197C10.421 15.3603 10.5 15.5511 10.5 15.75V17.25C10.5 17.4489 10.421 17.6397 10.2803 17.7803C10.1397 17.921 9.94891 18 9.75 18H8.25C8.05109 18 7.86032 17.921 7.71967 17.7803C7.57902 17.6397 7.5 17.4489 7.5 17.25V15.75C7.5 15.5511 7.57902 15.3603 7.71967 15.2197C7.86032 15.079 8.05109 15 8.25 15Z" fill="black"/>
</g>
<defs>
<clipPath id="clip0_2_8266">
<rect width="24" height="24" fill="white"/>
</clipPath>
</defs>
</svg>
