<svg width="24" height="24" viewBox="0 0 24 24" fill="none" xmlns="http://www.w3.org/2000/svg">
<g clip-path="url(#clip0_2_8283)">
<path d="M6 0.75C6 0.551088 5.92098 0.360322 5.78033 0.21967C5.63968 0.0790176 5.44891 0 5.25 0C5.05109 0 4.86032 0.0790176 4.71967 0.21967C4.57902 0.360322 4.5 0.551088 4.5 0.75V1.5H3C2.20435 1.5 1.44129 1.81607 0.87868 2.37868C0.316071 2.94129 0 3.70435 0 4.5L0 6H24V4.5C24 3.70435 23.6839 2.94129 23.1213 2.37868C22.5587 1.81607 21.7956 1.5 21 1.5H19.5V0.75C19.5 0.551088 19.421 0.360322 19.2803 0.21967C19.1397 0.0790176 18.9489 0 18.75 0C18.5511 0 18.3603 0.0790176 18.2197 0.21967C18.079 0.360322 18 0.551088 18 0.75V1.5H6V0.75ZM24 21V7.5H0V21C0 21.7956 0.316071 22.5587 0.87868 23.1213C1.44129 23.6839 2.20435 24 3 24H21C21.7956 24 22.5587 23.6839 23.1213 23.1213C23.6839 22.5587 24 21.7956 24 21ZM16.281 13.281L11.781 17.781C11.7113 17.8508 11.6286 17.9063 11.5375 17.9441C11.4463 17.9819 11.3487 18.0013 11.25 18.0013C11.1513 18.0013 11.0537 17.9819 10.9625 17.9441C10.8714 17.9063 10.7887 17.8508 10.719 17.781L8.469 15.531C8.32817 15.3902 8.24905 15.1992 8.24905 15C8.24905 14.8008 8.32817 14.6098 8.469 14.469C8.60983 14.3282 8.80084 14.2491 9 14.2491C9.19916 14.2491 9.39017 14.3282 9.531 14.469L11.25 16.1895L15.219 12.219C15.3598 12.0782 15.5508 11.9991 15.75 11.9991C15.9492 11.9991 16.1402 12.0782 16.281 12.219C16.4218 12.3598 16.5009 12.5508 16.5009 12.75C16.5009 12.9492 16.4218 13.1402 16.281 13.281Z" fill="black"/>
</g>
<defs>
<clipPath id="clip0_2_8283">
<rect width="24" height="24" fill="white"/>
</clipPath>
</defs>
</svg>
