<svg width="24" height="24" viewBox="0 0 24 24" fill="none" xmlns="http://www.w3.org/2000/svg">
<g clip-path="url(#clip0_2_8531)">
<path d="M6 0.75C6 0.551088 5.92098 0.360322 5.78033 0.21967C5.63968 0.0790176 5.44891 0 5.25 0C5.05109 0 4.86032 0.0790176 4.71967 0.21967C4.57902 0.360322 4.5 0.551088 4.5 0.75V1.5H3C2.20435 1.5 1.44129 1.81607 0.87868 2.37868C0.316071 2.94129 0 3.70435 0 4.5L0 6H24V4.5C24 3.70435 23.6839 2.94129 23.1213 2.37868C22.5587 1.81607 21.7956 1.5 21 1.5H19.5V0.75C19.5 0.551088 19.421 0.360322 19.2803 0.21967C19.1397 0.0790176 18.9489 0 18.75 0C18.5511 0 18.3603 0.0790176 18.2197 0.21967C18.079 0.360322 18 0.551088 18 0.75V1.5H6V0.75ZM24 10.5V7.5H0V15H7.5C7.89782 15 8.27936 15.158 8.56066 15.4393C8.84196 15.7206 9 16.1022 9 16.5C9 16.8978 8.84196 17.2794 8.56066 17.5607C8.27936 17.842 7.89782 18 7.5 18H0V21C0 21.7956 0.316071 22.5587 0.87868 23.1213C1.44129 23.6839 2.20435 24 3 24H21C21.7956 24 22.5587 23.6839 23.1213 23.1213C23.6839 22.5587 24 21.7956 24 21V13.5H15C14.6022 13.5 14.2206 13.342 13.9393 13.0607C13.658 12.7794 13.5 12.3978 13.5 12C13.5 11.6022 13.658 11.2206 13.9393 10.9393C14.2206 10.658 14.6022 10.5 15 10.5H24Z" fill="black"/>
</g>
<defs>
<clipPath id="clip0_2_8531">
<rect width="24" height="24" fill="white"/>
</clipPath>
</defs>
</svg>
