<svg width="24" height="24" viewBox="0 0 24 24" fill="none" xmlns="http://www.w3.org/2000/svg">
<g clip-path="url(#clip0_2_8713)">
<path d="M16.281 10.719C16.3509 10.7887 16.4063 10.8714 16.4441 10.9625C16.4819 11.0537 16.5014 11.1513 16.5014 11.25C16.5014 11.3486 16.4819 11.4463 16.4441 11.5374C16.4063 11.6286 16.3509 11.7113 16.281 11.781L11.781 16.281C11.7114 16.3508 11.6286 16.4063 11.5375 16.4441C11.4464 16.4819 11.3487 16.5013 11.25 16.5013C11.1514 16.5013 11.0537 16.4819 10.9626 16.4441C10.8715 16.4063 10.7887 16.3508 10.719 16.281L8.46903 14.031C8.3993 13.9613 8.34399 13.8785 8.30625 13.7874C8.26851 13.6963 8.24908 13.5986 8.24908 13.5C8.24908 13.4014 8.26851 13.3037 8.30625 13.2126C8.34399 13.1215 8.3993 13.0387 8.46903 12.969C8.60986 12.8282 8.80087 12.7491 9.00003 12.7491C9.09865 12.7491 9.1963 12.7685 9.28741 12.8062C9.37852 12.844 9.4613 12.8993 9.53103 12.969L11.25 14.6895L15.219 10.719C15.2887 10.6492 15.3715 10.5937 15.4626 10.5559C15.5537 10.5181 15.6514 10.4987 15.75 10.4987C15.8487 10.4987 15.9464 10.5181 16.0375 10.5559C16.1286 10.5937 16.2114 10.6492 16.281 10.719Z" fill="black"/>
<path d="M5.25 0C5.44891 0 5.63968 0.0790176 5.78033 0.21967C5.92098 0.360322 6 0.551088 6 0.75V1.5H18V0.75C18 0.551088 18.079 0.360322 18.2197 0.21967C18.3603 0.0790176 18.5511 0 18.75 0C18.9489 0 19.1397 0.0790176 19.2803 0.21967C19.421 0.360322 19.5 0.551088 19.5 0.75V1.5H21C21.7956 1.5 22.5587 1.81607 23.1213 2.37868C23.6839 2.94129 24 3.70435 24 4.5V21C24 21.7956 23.6839 22.5587 23.1213 23.1213C22.5587 23.6839 21.7956 24 21 24H3C2.20435 24 1.44129 23.6839 0.87868 23.1213C0.316071 22.5587 0 21.7956 0 21V4.5C0 3.70435 0.316071 2.94129 0.87868 2.37868C1.44129 1.81607 2.20435 1.5 3 1.5H4.5V0.75C4.5 0.551088 4.57902 0.360322 4.71967 0.21967C4.86032 0.0790176 5.05109 0 5.25 0V0ZM1.5 6V21C1.5 21.3978 1.65804 21.7794 1.93934 22.0607C2.22064 22.342 2.60218 22.5 3 22.5H21C21.3978 22.5 21.7794 22.342 22.0607 22.0607C22.342 21.7794 22.5 21.3978 22.5 21V6H1.5Z" fill="black"/>
</g>
<defs>
<clipPath id="clip0_2_8713">
<rect width="24" height="24" fill="white"/>
</clipPath>
</defs>
</svg>
