<svg width="24" height="24" viewBox="0 0 24 24" fill="none" xmlns="http://www.w3.org/2000/svg">
<g clip-path="url(#clip0_2_8210)">
<path fill-rule="evenodd" clip-rule="evenodd" d="M3 0C2.20435 0 1.44129 0.316071 0.87868 0.87868C0.316071 1.44129 0 2.20435 0 3H24C24 2.20435 23.6839 1.44129 23.1213 0.87868C22.5587 0.316071 21.7956 0 21 0L3 0ZM0 12V4.5H24V7.5H15C14.6022 7.5 14.2206 7.65804 13.9393 7.93934C13.658 8.22064 13.5 8.60218 13.5 9C13.5 9.39782 13.658 9.77936 13.9393 10.0607C14.2206 10.342 14.6022 10.5 15 10.5H24V21C24 21.7956 23.6839 22.5587 23.1213 23.1213C22.5587 23.6839 21.7956 24 21 24H3C2.20435 24 1.44129 23.6839 0.87868 23.1213C0.316071 22.5587 0 21.7956 0 21V15H9C9.39782 15 9.77936 14.842 10.0607 14.5607C10.342 14.2794 10.5 13.8978 10.5 13.5C10.5 13.1022 10.342 12.7206 10.0607 12.4393C9.77936 12.158 9.39782 12 9 12H0Z" fill="black"/>
</g>
<defs>
<clipPath id="clip0_2_8210">
<rect width="24" height="24" fill="white"/>
</clipPath>
</defs>
</svg>
