<svg width="24" height="24" viewBox="0 0 24 24" fill="none" xmlns="http://www.w3.org/2000/svg">
<g clip-path="url(#clip0_2_8635)">
<path d="M5.25 0C5.44891 0 5.63968 0.0790176 5.78033 0.21967C5.92098 0.360322 6 0.551088 6 0.75V1.5H18V0.75C18 0.551088 18.079 0.360322 18.2197 0.21967C18.3603 0.0790176 18.5511 0 18.75 0C18.9489 0 19.1397 0.0790176 19.2803 0.21967C19.421 0.360322 19.5 0.551088 19.5 0.75V1.5H21C21.7956 1.5 22.5587 1.81607 23.1213 2.37868C23.6839 2.94129 24 3.70435 24 4.5V21C24 21.7956 23.6839 22.5587 23.1213 23.1213C22.5587 23.6839 21.7956 24 21 24H3C2.20435 24 1.44129 23.6839 0.87868 23.1213C0.316071 22.5587 0 21.7956 0 21V4.5C0 3.70435 0.316071 2.94129 0.87868 2.37868C1.44129 1.81607 2.20435 1.5 3 1.5H4.5V0.75C4.5 0.551088 4.57902 0.360322 4.71967 0.21967C4.86032 0.0790176 5.05109 0 5.25 0V0ZM3 5.25V6.75C3 7.164 3.366 7.5 3.8175 7.5H20.1825C20.6325 7.5 21 7.164 21 6.75V5.25C21 4.836 20.634 4.5 20.181 4.5H3.8175C3.3675 4.5 3 4.836 3 5.25ZM12.75 12.75C12.75 12.5511 12.671 12.3603 12.5303 12.2197C12.3897 12.079 12.1989 12 12 12C11.8011 12 11.6103 12.079 11.4697 12.2197C11.329 12.3603 11.25 12.5511 11.25 12.75V15H9C8.80109 15 8.61032 15.079 8.46967 15.2197C8.32902 15.3603 8.25 15.5511 8.25 15.75C8.25 15.9489 8.32902 16.1397 8.46967 16.2803C8.61032 16.421 8.80109 16.5 9 16.5H11.25V18.75C11.25 18.9489 11.329 19.1397 11.4697 19.2803C11.6103 19.421 11.8011 19.5 12 19.5C12.1989 19.5 12.3897 19.421 12.5303 19.2803C12.671 19.1397 12.75 18.9489 12.75 18.75V16.5H15C15.1989 16.5 15.3897 16.421 15.5303 16.2803C15.671 16.1397 15.75 15.9489 15.75 15.75C15.75 15.5511 15.671 15.3603 15.5303 15.2197C15.3897 15.079 15.1989 15 15 15H12.75V12.75Z" fill="black"/>
</g>
<defs>
<clipPath id="clip0_2_8635">
<rect width="24" height="24" fill="white"/>
</clipPath>
</defs>
</svg>
