<svg width="24" height="24" viewBox="0 0 24 24" fill="none" xmlns="http://www.w3.org/2000/svg">
<g clip-path="url(#clip0_2_8194)">
<path d="M15.75 12.75C15.75 13.7446 15.3549 14.6984 14.6517 15.4017C13.9484 16.1049 12.9946 16.5 12 16.5C11.0054 16.5 10.0516 16.1049 9.34835 15.4017C8.64509 14.6984 8.25 13.7446 8.25 12.75C8.25 11.7554 8.64509 10.8016 9.34835 10.0983C10.0516 9.39509 11.0054 9 12 9C12.9946 9 13.9484 9.39509 14.6517 10.0983C15.3549 10.8016 15.75 11.7554 15.75 12.75Z" fill="black"/>
<path d="M3 6C2.20435 6 1.44129 6.31607 0.87868 6.87868C0.316071 7.44129 0 8.20435 0 9L0 18C0 18.7956 0.316071 19.5587 0.87868 20.1213C1.44129 20.6839 2.20435 21 3 21H21C21.7956 21 22.5587 20.6839 23.1213 20.1213C23.6839 19.5587 24 18.7956 24 18V9C24 8.20435 23.6839 7.44129 23.1213 6.87868C22.5587 6.31607 21.7956 6 21 6H19.242C18.4464 5.99983 17.6835 5.68365 17.121 5.121L15.879 3.879C15.3165 3.31635 14.5536 3.00017 13.758 3H10.242C9.44642 3.00017 8.68348 3.31635 8.121 3.879L6.879 5.121C6.31652 5.68365 5.55358 5.99983 4.758 6H3ZM3.75 9C3.55109 9 3.36032 8.92098 3.21967 8.78033C3.07902 8.63968 3 8.44891 3 8.25C3 8.05109 3.07902 7.86032 3.21967 7.71967C3.36032 7.57902 3.55109 7.5 3.75 7.5C3.94891 7.5 4.13968 7.57902 4.28033 7.71967C4.42098 7.86032 4.5 8.05109 4.5 8.25C4.5 8.44891 4.42098 8.63968 4.28033 8.78033C4.13968 8.92098 3.94891 9 3.75 9ZM17.25 12.75C17.25 14.1424 16.6969 15.4777 15.7123 16.4623C14.7277 17.4469 13.3924 18 12 18C10.6076 18 9.27226 17.4469 8.28769 16.4623C7.30312 15.4777 6.75 14.1424 6.75 12.75C6.75 11.3576 7.30312 10.0223 8.28769 9.03769C9.27226 8.05312 10.6076 7.5 12 7.5C13.3924 7.5 14.7277 8.05312 15.7123 9.03769C16.6969 10.0223 17.25 11.3576 17.25 12.75Z" fill="black"/>
</g>
<defs>
<clipPath id="clip0_2_8194">
<rect width="24" height="24" fill="white"/>
</clipPath>
</defs>
</svg>
