<svg width="24" height="24" viewBox="0 0 24 24" fill="none" xmlns="http://www.w3.org/2000/svg">
<path d="M7.5 12C7.5 9.5145 11.0145 7.5 13.5 7.5V6C11.9087 6 10.3826 6.63214 9.25736 7.75736C8.13214 8.88258 7.5 10.4087 7.5 12Z" fill="black"/>
<path d="M18.477 4.50001H21.4995C22.8795 4.50001 24 5.61901 24 7.00051V16.9995C24 18.3795 22.881 19.5 21.4995 19.5H18.477C17.0028 20.4811 15.2708 21.0031 13.5 21C11.7292 21.0029 9.99728 20.4809 8.523 19.5H2.5005C1.1205 19.5 0 18.381 0 16.9995V7.00051C0 5.62051 1.119 4.50001 2.5005 4.50001H3C3 4.10219 3.15804 3.72066 3.43934 3.43935C3.72064 3.15805 4.10218 3.00001 4.5 3.00001H6C6.39782 3.00001 6.77936 3.15805 7.06066 3.43935C7.34196 3.72066 7.5 4.10219 7.5 4.50001H8.523C9.9972 3.51892 11.7292 2.99692 13.5 3.00001C15.3405 3.00001 17.0505 3.55201 18.477 4.50001ZM3 6.75001C3 6.5511 2.92098 6.36034 2.78033 6.21968C2.63968 6.07903 2.44891 6.00001 2.25 6.00001C2.05109 6.00001 1.86032 6.07903 1.71967 6.21968C1.57902 6.36034 1.5 6.5511 1.5 6.75001C1.5 6.94893 1.57902 7.13969 1.71967 7.28034C1.86032 7.421 2.05109 7.50001 2.25 7.50001C2.44891 7.50001 2.63968 7.421 2.78033 7.28034C2.92098 7.13969 3 6.94893 3 6.75001ZM21 12C21 10.0109 20.2098 8.10324 18.8033 6.69671C17.3968 5.29019 15.4891 4.50001 13.5 4.50001C11.5109 4.50001 9.60322 5.29019 8.1967 6.69671C6.79018 8.10324 6 10.0109 6 12C6 13.9891 6.79018 15.8968 8.1967 17.3033C9.60322 18.7098 11.5109 19.5 13.5 19.5C15.4891 19.5 17.3968 18.7098 18.8033 17.3033C20.2098 15.8968 21 13.9891 21 12Z" fill="black"/>
</svg>
