<svg width="24" height="24" viewBox="0 0 24 24" fill="none" xmlns="http://www.w3.org/2000/svg">
<g clip-path="url(#clip0_2_8785)">
<path d="M9 4.5C9 5.69347 8.52589 6.83807 7.68198 7.68198C6.83807 8.52589 5.69347 9 4.5 9C3.30653 9 2.16193 8.52589 1.31802 7.68198C0.474106 6.83807 0 5.69347 0 4.5C0 3.30653 0.474106 2.16193 1.31802 1.31802C2.16193 0.474106 3.30653 0 4.5 0C5.69347 0 6.83807 0.474106 7.68198 1.31802C8.52589 2.16193 9 3.30653 9 4.5ZM1.5 4.5C1.5 5.29565 1.81607 6.05871 2.37868 6.62132C2.94129 7.18393 3.70435 7.5 4.5 7.5C5.29565 7.5 6.05871 7.18393 6.62132 6.62132C7.18393 6.05871 7.5 5.29565 7.5 4.5C7.5 3.70435 7.18393 2.94129 6.62132 2.37868C6.05871 1.81607 5.29565 1.5 4.5 1.5C3.70435 1.5 2.94129 1.81607 2.37868 2.37868C1.81607 2.94129 1.5 3.70435 1.5 4.5Z" fill="black"/>
<path d="M13.5 9H14.25C14.9776 8.99991 15.6805 9.26429 16.2277 9.74389C16.7749 10.2235 17.1292 10.8856 17.2245 11.607L21.8895 9.534C22.1178 9.43226 22.368 9.3892 22.6172 9.40873C22.8664 9.42826 23.1068 9.50977 23.3165 9.64584C23.5262 9.78192 23.6986 9.96824 23.8179 10.1879C23.9373 10.4075 23.9999 10.6535 24 10.9035V22.0965C23.9998 22.3463 23.9372 22.5921 23.8179 22.8115C23.6986 23.031 23.5264 23.2172 23.3169 23.3532C23.1074 23.4893 22.8673 23.5708 22.6183 23.5905C22.3693 23.6102 22.1193 23.5674 21.891 23.466L17.2245 21.393C17.1292 22.1144 16.7749 22.7765 16.2277 23.2561C15.6805 23.7357 14.9776 24.0001 14.25 24H3C2.20435 24 1.44129 23.6839 0.87868 23.1213C0.316071 22.5587 0 21.7956 0 21V12C0 11.2044 0.316071 10.4413 0.87868 9.87868C1.44129 9.31607 2.20435 9 3 9H13.5ZM22.5 22.095V10.905L17.25 13.2375V19.7625L22.5 22.0965V22.095ZM1.5 12V21C1.5 21.3978 1.65804 21.7794 1.93934 22.0607C2.22064 22.342 2.60218 22.5 3 22.5H14.25C14.6478 22.5 15.0294 22.342 15.3107 22.0607C15.592 21.7794 15.75 21.3978 15.75 21V12C15.75 11.6022 15.592 11.2206 15.3107 10.9393C15.0294 10.658 14.6478 10.5 14.25 10.5H3C2.60218 10.5 2.22064 10.658 1.93934 10.9393C1.65804 11.2206 1.5 11.6022 1.5 12Z" fill="black"/>
<path d="M13.5 9C14.6935 9 15.8381 8.52589 16.682 7.68198C17.5259 6.83807 18 5.69347 18 4.5C18 3.30653 17.5259 2.16193 16.682 1.31802C15.8381 0.474106 14.6935 0 13.5 0C12.3065 0 11.1619 0.474106 10.318 1.31802C9.47411 2.16193 9 3.30653 9 4.5C9 5.69347 9.47411 6.83807 10.318 7.68198C11.1619 8.52589 12.3065 9 13.5 9ZM10.5 4.5C10.5 3.70435 10.8161 2.94129 11.3787 2.37868C11.9413 1.81607 12.7044 1.5 13.5 1.5C14.2956 1.5 15.0587 1.81607 15.6213 2.37868C16.1839 2.94129 16.5 3.70435 16.5 4.5C16.5 5.29565 16.1839 6.05871 15.6213 6.62132C15.0587 7.18393 14.2956 7.5 13.5 7.5C12.7044 7.5 11.9413 7.18393 11.3787 6.62132C10.8161 6.05871 10.5 5.29565 10.5 4.5Z" fill="black"/>
</g>
<defs>
<clipPath id="clip0_2_8785">
<rect width="24" height="24" fill="white"/>
</clipPath>
</defs>
</svg>
