<svg width="24" height="24" viewBox="0 0 24 24" fill="none" xmlns="http://www.w3.org/2000/svg">
<g clip-path="url(#clip0_2_8497)">
<path d="M21.75 4.5C21.9489 4.5 22.1397 4.57902 22.2803 4.71967C22.421 4.86032 22.5 5.05109 22.5 5.25V18.75C22.5 18.9489 22.421 19.1397 22.2803 19.2803C22.1397 19.421 21.9489 19.5 21.75 19.5H2.25C2.05109 19.5 1.86032 19.421 1.71967 19.2803C1.57902 19.1397 1.5 18.9489 1.5 18.75V5.25C1.5 5.05109 1.57902 4.86032 1.71967 4.71967C1.86032 4.57902 2.05109 4.5 2.25 4.5H21.75ZM2.25 3C1.65326 3 1.08097 3.23705 0.65901 3.65901C0.237053 4.08097 0 4.65326 0 5.25L0 18.75C0 19.3467 0.237053 19.919 0.65901 20.341C1.08097 20.7629 1.65326 21 2.25 21H21.75C22.3467 21 22.919 20.7629 23.341 20.341C23.7629 19.919 24 19.3467 24 18.75V5.25C24 4.65326 23.7629 4.08097 23.341 3.65901C22.919 3.23705 22.3467 3 21.75 3H2.25Z" fill="black"/>
<path d="M10.4999 8.25C10.4999 8.05109 10.579 7.86032 10.7196 7.71967C10.8603 7.57902 11.051 7.5 11.2499 7.5H18.7499C18.9489 7.5 19.1396 7.57902 19.2803 7.71967C19.4209 7.86032 19.4999 8.05109 19.4999 8.25C19.4999 8.44891 19.4209 8.63968 19.2803 8.78033C19.1396 8.92098 18.9489 9 18.7499 9H11.2499C11.051 9 10.8603 8.92098 10.7196 8.78033C10.579 8.63968 10.4999 8.44891 10.4999 8.25ZM8.25595 6.969C8.32579 7.03867 8.38121 7.12143 8.41901 7.21255C8.45682 7.30366 8.47629 7.40135 8.47629 7.5C8.47629 7.59865 8.45682 7.69633 8.41901 7.78745C8.38121 7.87857 8.32579 7.96133 8.25595 8.031L6.00595 10.281C5.93628 10.3508 5.85351 10.4063 5.7624 10.4441C5.67128 10.4819 5.5736 10.5013 5.47495 10.5013C5.3763 10.5013 5.27861 10.4819 5.1875 10.4441C5.09638 10.4063 5.01362 10.3508 4.94395 10.281L4.19395 9.531C4.12421 9.46127 4.0689 9.37848 4.03116 9.28737C3.99342 9.19626 3.974 9.09861 3.974 9C3.974 8.80083 4.05312 8.60983 4.19395 8.469C4.33478 8.32817 4.52578 8.24905 4.72495 8.24905C4.92411 8.24905 5.11512 8.32817 5.25595 8.469L5.47495 8.6895L7.19395 6.969C7.26362 6.89915 7.34638 6.84374 7.4375 6.80593C7.52861 6.76812 7.6263 6.74866 7.72495 6.74866C7.8236 6.74866 7.92128 6.76812 8.0124 6.80593C8.10352 6.84374 8.18628 6.89915 8.25595 6.969ZM10.4999 14.25C10.4999 14.0511 10.579 13.8603 10.7196 13.7197C10.8603 13.579 11.051 13.5 11.2499 13.5H18.7499C18.9489 13.5 19.1396 13.579 19.2803 13.7197C19.4209 13.8603 19.4999 14.0511 19.4999 14.25C19.4999 14.4489 19.4209 14.6397 19.2803 14.7803C19.1396 14.921 18.9489 15 18.7499 15H11.2499C11.051 15 10.8603 14.921 10.7196 14.7803C10.579 14.6397 10.4999 14.4489 10.4999 14.25ZM8.25595 12.969C8.32579 13.0387 8.38121 13.1214 8.41901 13.2125C8.45682 13.3037 8.47629 13.4013 8.47629 13.5C8.47629 13.5986 8.45682 13.6963 8.41901 13.7874C8.38121 13.8786 8.32579 13.9613 8.25595 14.031L6.00595 16.281C5.93628 16.3508 5.85351 16.4063 5.7624 16.4441C5.67128 16.4819 5.5736 16.5013 5.47495 16.5013C5.3763 16.5013 5.27861 16.4819 5.1875 16.4441C5.09638 16.4063 5.01362 16.3508 4.94395 16.281L4.19395 15.531C4.12421 15.4613 4.0689 15.3785 4.03116 15.2874C3.99342 15.1963 3.974 15.0986 3.974 15C3.974 14.9014 3.99342 14.8037 4.03116 14.7126C4.0689 14.6215 4.12421 14.5387 4.19395 14.469C4.26368 14.3993 4.34646 14.344 4.43757 14.3062C4.52868 14.2685 4.62633 14.2491 4.72495 14.2491C4.82356 14.2491 4.92121 14.2685 5.01232 14.3062C5.10343 14.344 5.18621 14.3993 5.25595 14.469L5.47495 14.6895L7.19395 12.969C7.26362 12.8992 7.34638 12.8437 7.4375 12.8059C7.52861 12.7681 7.6263 12.7487 7.72495 12.7487C7.8236 12.7487 7.92128 12.7681 8.0124 12.8059C8.10352 12.8437 8.18628 12.8992 8.25595 12.969Z" fill="black"/>
</g>
<defs>
<clipPath id="clip0_2_8497">
<rect width="24" height="24" fill="white"/>
</clipPath>
</defs>
</svg>
