<svg width="24" height="24" viewBox="0 0 24 24" fill="none" xmlns="http://www.w3.org/2000/svg">
<g clip-path="url(#clip0_2_8186)">
<path d="M0 3C0 2.20435 0.316071 1.44129 0.87868 0.87868C1.44129 0.316071 2.20435 0 3 0L21 0C21.7956 0 22.5587 0.316071 23.1213 0.87868C23.6839 1.44129 24 2.20435 24 3V21C24 21.7956 23.6839 22.5587 23.1213 23.1213C22.5587 23.6839 21.7956 24 21 24H3C2.20435 24 1.44129 23.6839 0.87868 23.1213C0.316071 22.5587 0 21.7956 0 21V3ZM8.25 18C8.24996 18.1446 8.29171 18.2861 8.37021 18.4075C8.44872 18.5289 8.56064 18.625 8.6925 18.6843C8.82436 18.7435 8.97054 18.7634 9.11345 18.7416C9.25636 18.7197 9.3899 18.657 9.498 18.561L16.248 12.561C16.3273 12.4906 16.3908 12.4042 16.4343 12.3075C16.4777 12.2108 16.5002 12.106 16.5002 12C16.5002 11.894 16.4777 11.7892 16.4343 11.6925C16.3908 11.5958 16.3273 11.5094 16.248 11.439L9.498 5.439C9.3899 5.343 9.25636 5.2803 9.11345 5.25843C8.97054 5.23656 8.82436 5.25646 8.6925 5.31574C8.56064 5.37501 8.44872 5.47113 8.37021 5.59253C8.29171 5.71393 8.24996 5.85543 8.25 6V18Z" fill="black"/>
</g>
<defs>
<clipPath id="clip0_2_8186">
<rect width="24" height="24" fill="white"/>
</clipPath>
</defs>
</svg>
