<svg width="24" height="24" viewBox="0 0 24 24" fill="none" xmlns="http://www.w3.org/2000/svg">
<g clip-path="url(#clip0_2_8192)">
<path d="M21 1.5C21.3978 1.5 21.7794 1.65804 22.0607 1.93934C22.342 2.22064 22.5 2.60218 22.5 3V21C22.5 21.3978 22.342 21.7794 22.0607 22.0607C21.7794 22.342 21.3978 22.5 21 22.5H3C2.60218 22.5 2.22064 22.342 1.93934 22.0607C1.65804 21.7794 1.5 21.3978 1.5 21V3C1.5 2.60218 1.65804 2.22064 1.93934 1.93934C2.22064 1.65804 2.60218 1.5 3 1.5H21ZM3 0C2.20435 0 1.44129 0.316071 0.87868 0.87868C0.316071 1.44129 0 2.20435 0 3L0 21C0 21.7956 0.316071 22.5587 0.87868 23.1213C1.44129 23.6839 2.20435 24 3 24H21C21.7956 24 22.5587 23.6839 23.1213 23.1213C23.6839 22.5587 24 21.7956 24 21V3C24 2.20435 23.6839 1.44129 23.1213 0.87868C22.5587 0.316071 21.7956 0 21 0L3 0Z" fill="black"/>
<path d="M15.3075 18.684C15.4393 18.6247 15.5512 18.5286 15.6297 18.4073C15.7082 18.2859 15.75 18.1445 15.75 18V5.99996C15.75 5.85539 15.7083 5.71388 15.6298 5.59249C15.5513 5.47109 15.4393 5.37497 15.3075 5.31569C15.1756 5.25642 15.0294 5.23652 14.8865 5.25839C14.7436 5.28026 14.6101 5.34296 14.502 5.43896L7.75198 11.439C7.67268 11.5093 7.60919 11.5957 7.56571 11.6924C7.52224 11.7891 7.49976 11.8939 7.49976 12C7.49976 12.106 7.52224 12.2108 7.56571 12.3075C7.60919 12.4042 7.67268 12.4906 7.75198 12.561L14.502 18.561C14.6101 18.6569 14.7437 18.7196 14.8866 18.7414C15.0295 18.7632 15.1756 18.7433 15.3075 18.684Z" fill="black"/>
</g>
<defs>
<clipPath id="clip0_2_8192">
<rect width="24" height="24" fill="white"/>
</clipPath>
</defs>
</svg>
