<svg width="24" height="24" viewBox="0 0 24 24" fill="none" xmlns="http://www.w3.org/2000/svg">
<g clip-path="url(#clip0_2_8675)">
<path d="M0 3C0 2.20435 0.316071 1.44129 0.87868 0.87868C1.44129 0.316071 2.20435 0 3 0L21 0C21.7956 0 22.5587 0.316071 23.1213 0.87868C23.6839 1.44129 24 2.20435 24 3V21C24 21.7956 23.6839 22.5587 23.1213 23.1213C22.5587 23.6839 21.7956 24 21 24H3C2.20435 24 1.44129 23.6839 0.87868 23.1213C0.316071 22.5587 0 21.7956 0 21V3ZM6 9C5.85543 8.99996 5.71393 9.04171 5.59253 9.12021C5.47113 9.19872 5.37501 9.31064 5.31574 9.4425C5.25646 9.57436 5.23656 9.72054 5.25843 9.86345C5.2803 10.0064 5.343 10.1399 5.439 10.248L11.439 16.998C11.5094 17.0773 11.5958 17.1408 11.6925 17.1843C11.7892 17.2277 11.894 17.2502 12 17.2502C12.106 17.2502 12.2108 17.2277 12.3075 17.1843C12.4042 17.1408 12.4906 17.0773 12.561 16.998L18.561 10.248C18.657 10.1399 18.7197 10.0064 18.7416 9.86345C18.7634 9.72054 18.7435 9.57436 18.6843 9.4425C18.625 9.31064 18.5289 9.19872 18.4075 9.12021C18.2861 9.04171 18.1446 8.99996 18 9H6Z" fill="black"/>
</g>
<defs>
<clipPath id="clip0_2_8675">
<rect width="24" height="24" fill="white"/>
</clipPath>
</defs>
</svg>
