<svg width="24" height="24" viewBox="0 0 24 24" fill="none" xmlns="http://www.w3.org/2000/svg">
<path d="M9 19.194V4.80602L17.2215 12L9 19.194ZM9.9885 20.3235L18.2085 13.1295C18.3696 12.9887 18.4987 12.8151 18.5872 12.6203C18.6757 12.4255 18.7215 12.214 18.7215 12C18.7215 11.7861 18.6757 11.5746 18.5872 11.3798C18.4987 11.1849 18.3696 11.0113 18.2085 10.8705L9.99 3.67652C9.0165 2.82752 7.5 3.51752 7.5 4.80602V19.194C7.49975 19.4824 7.58263 19.7647 7.73871 20.0072C7.89479 20.2497 8.11746 20.442 8.38004 20.5612C8.64262 20.6804 8.934 20.7213 9.21927 20.6792C9.50454 20.637 9.77161 20.5136 9.9885 20.3235Z" fill="black"/>
</svg>
