<svg width="24" height="24" viewBox="0 0 24 24" fill="none" xmlns="http://www.w3.org/2000/svg">
<g clip-path="url(#clip0_2_8369)">
<path d="M0.75 1.5C0.551088 1.5 0.360322 1.57902 0.21967 1.71967C0.0790176 1.86032 0 2.05109 0 2.25C0 2.44891 0.0790176 2.63968 0.21967 2.78033C0.360322 2.92098 0.551088 3 0.75 3H2.415L3.0165 5.4105L5.2635 17.388C5.29567 17.5599 5.38688 17.7151 5.52137 17.8268C5.65585 17.9386 5.82515 17.9998 6 18H7.5C6.70435 18 5.94129 18.3161 5.37868 18.8787C4.81607 19.4413 4.5 20.2044 4.5 21C4.5 21.7956 4.81607 22.5587 5.37868 23.1213C5.94129 23.6839 6.70435 24 7.5 24C8.29565 24 9.05871 23.6839 9.62132 23.1213C10.1839 22.5587 10.5 21.7956 10.5 21C10.5 20.2044 10.1839 19.4413 9.62132 18.8787C9.05871 18.3161 8.29565 18 7.5 18H18C17.2044 18 16.4413 18.3161 15.8787 18.8787C15.3161 19.4413 15 20.2044 15 21C15 21.7956 15.3161 22.5587 15.8787 23.1213C16.4413 23.6839 17.2044 24 18 24C18.7957 24 19.5587 23.6839 20.1213 23.1213C20.6839 22.5587 21 21.7956 21 21C21 20.2044 20.6839 19.4413 20.1213 18.8787C19.5587 18.3161 18.7957 18 18 18H19.5C19.6749 17.9998 19.8442 17.9386 19.9786 17.8268C20.1131 17.7151 20.2043 17.5599 20.2365 17.388L22.4865 5.388C22.5068 5.27976 22.5029 5.16838 22.4753 5.06178C22.4477 4.95518 22.3969 4.85597 22.3266 4.77121C22.2563 4.68644 22.1682 4.6182 22.0685 4.57133C21.9689 4.52445 21.8601 4.5001 21.75 4.5H4.335L3.7275 2.0685C3.68701 1.90618 3.59342 1.76205 3.4616 1.65904C3.32978 1.55603 3.1673 1.50005 3 1.5H0.75ZM9 21C9 21.3978 8.84196 21.7794 8.56066 22.0607C8.27936 22.342 7.89783 22.5 7.5 22.5C7.10218 22.5 6.72065 22.342 6.43934 22.0607C6.15804 21.7794 6 21.3978 6 21C6 20.6022 6.15804 20.2206 6.43934 19.9393C6.72065 19.658 7.10218 19.5 7.5 19.5C7.89783 19.5 8.27936 19.658 8.56066 19.9393C8.84196 20.2206 9 20.6022 9 21ZM19.5 21C19.5 21.3978 19.342 21.7794 19.0607 22.0607C18.7794 22.342 18.3978 22.5 18 22.5C17.6022 22.5 17.2206 22.342 16.9393 22.0607C16.658 21.7794 16.5 21.3978 16.5 21C16.5 20.6022 16.658 20.2206 16.9393 19.9393C17.2206 19.658 17.6022 19.5 18 19.5C18.3978 19.5 18.7794 19.658 19.0607 19.9393C19.342 20.2206 19.5 20.6022 19.5 21ZM9.75 10.5H15.75C15.9489 10.5 16.1397 10.579 16.2803 10.7197C16.421 10.8603 16.5 11.0511 16.5 11.25C16.5 11.4489 16.421 11.6397 16.2803 11.7803C16.1397 11.921 15.9489 12 15.75 12H9.75C9.55109 12 9.36032 11.921 9.21967 11.7803C9.07902 11.6397 9 11.4489 9 11.25C9 11.0511 9.07902 10.8603 9.21967 10.7197C9.36032 10.579 9.55109 10.5 9.75 10.5Z" fill="black"/>
</g>
<defs>
<clipPath id="clip0_2_8369">
<rect width="24" height="24" fill="white"/>
</clipPath>
</defs>
</svg>
