<svg width="24" height="24" viewBox="0 0 24 24" fill="none" xmlns="http://www.w3.org/2000/svg">
<path d="M24 12C24 17.799 18.627 22.5 12 22.5C10.8115 22.5016 9.62788 22.3473 8.4795 22.041C7.6035 22.485 5.592 23.337 2.208 23.892C1.908 23.94 1.68 23.628 1.7985 23.349C2.3295 22.095 2.8095 20.424 2.9535 18.9C1.116 17.055 0 14.64 0 12C0 6.201 5.373 1.5 12 1.5C18.627 1.5 24 6.201 24 12ZM10.791 10.149C10.6921 10.0014 10.578 9.86468 10.4505 9.741C10.25 9.53456 10.011 9.36944 9.747 9.255L9.735 9.249C9.37976 9.08406 8.99266 8.99906 8.601 9C7.164 9 6 10.119 6 11.5005C6 12.8805 7.164 13.9995 8.601 13.9995C9.1155 13.9995 9.594 13.857 9.9975 13.6095C9.792 14.193 9.4125 14.8155 8.7825 15.4395C8.72316 15.4974 8.6763 15.5669 8.64482 15.6436C8.61333 15.7203 8.59789 15.8027 8.59943 15.8856C8.60098 15.9685 8.61948 16.0502 8.65381 16.1257C8.68813 16.2012 8.73754 16.2688 8.799 16.3245C9.0585 16.5645 9.4695 16.557 9.72 16.3095C11.721 14.316 11.775 12.1725 11.1315 10.7505C11.037 10.5403 10.923 10.3394 10.791 10.1505V10.149ZM16.5 13.6095C16.296 14.193 15.915 14.8155 15.285 15.4395C15.2257 15.4975 15.179 15.5671 15.1477 15.6438C15.1163 15.7206 15.101 15.803 15.1027 15.8859C15.1044 15.9688 15.123 16.0505 15.1575 16.1259C15.1919 16.2014 15.2414 16.2689 15.303 16.3245C15.561 16.5645 15.972 16.557 16.2225 16.3095C18.2235 14.316 18.2775 12.1725 17.6355 10.7505C17.5405 10.5403 17.426 10.3394 17.2935 10.1505C17.1947 10.0024 17.0806 9.86514 16.953 9.741C16.7526 9.53453 16.5135 9.36941 16.2495 9.255L16.2375 9.249C15.8827 9.08427 15.4962 8.99928 15.105 9C13.6695 9 12.504 10.119 12.504 11.5005C12.504 12.8805 13.6695 13.9995 15.105 13.9995C15.6195 13.9995 16.098 13.857 16.5015 13.6095H16.5Z" fill="black"/>
</svg>
