<svg width="24" height="24" viewBox="0 0 24 24" fill="none" xmlns="http://www.w3.org/2000/svg">
<path d="M3 1.5C2.60218 1.5 2.22064 1.65804 1.93934 1.93934C1.65804 2.22064 1.5 2.60218 1.5 3V15C1.5 15.3978 1.65804 15.7794 1.93934 16.0607C2.22064 16.342 2.60218 16.5 3 16.5H17.379C18.1746 16.5002 18.9375 16.8164 19.5 17.379L22.5 20.379V3C22.5 2.60218 22.342 2.22064 22.0607 1.93934C21.7794 1.65804 21.3978 1.5 21 1.5H3ZM21 0C21.7956 0 22.5587 0.316071 23.1213 0.87868C23.6839 1.44129 24 2.20435 24 3V22.1895C24 22.3379 23.9559 22.483 23.8734 22.6063C23.7909 22.7297 23.6737 22.8258 23.5365 22.8825C23.3994 22.9392 23.2485 22.9539 23.1029 22.9248C22.9574 22.8957 22.8238 22.8241 22.719 22.719L18.4395 18.4395C18.1583 18.1582 17.7768 18.0001 17.379 18H3C2.20435 18 1.44129 17.6839 0.87868 17.1213C0.316071 16.5587 0 15.7957 0 15V3C0 2.20435 0.316071 1.44129 0.87868 0.87868C1.44129 0.316071 2.20435 0 3 0L21 0Z" fill="black"/>
<path d="M4.5 5.25C4.5 5.05109 4.57902 4.86032 4.71967 4.71967C4.86032 4.57902 5.05109 4.5 5.25 4.5H18.75C18.9489 4.5 19.1397 4.57902 19.2803 4.71967C19.421 4.86032 19.5 5.05109 19.5 5.25C19.5 5.44891 19.421 5.63968 19.2803 5.78033C19.1397 5.92098 18.9489 6 18.75 6H5.25C5.05109 6 4.86032 5.92098 4.71967 5.78033C4.57902 5.63968 4.5 5.44891 4.5 5.25ZM4.5 9C4.5 8.80109 4.57902 8.61032 4.71967 8.46967C4.86032 8.32902 5.05109 8.25 5.25 8.25H18.75C18.9489 8.25 19.1397 8.32902 19.2803 8.46967C19.421 8.61032 19.5 8.80109 19.5 9C19.5 9.19891 19.421 9.38968 19.2803 9.53033C19.1397 9.67098 18.9489 9.75 18.75 9.75H5.25C5.05109 9.75 4.86032 9.67098 4.71967 9.53033C4.57902 9.38968 4.5 9.19891 4.5 9ZM4.5 12.75C4.5 12.5511 4.57902 12.3603 4.71967 12.2197C4.86032 12.079 5.05109 12 5.25 12H12.75C12.9489 12 13.1397 12.079 13.2803 12.2197C13.421 12.3603 13.5 12.5511 13.5 12.75C13.5 12.9489 13.421 13.1397 13.2803 13.2803C13.1397 13.421 12.9489 13.5 12.75 13.5H5.25C5.05109 13.5 4.86032 13.421 4.71967 13.2803C4.57902 13.1397 4.5 12.9489 4.5 12.75Z" fill="black"/>
</svg>
