<svg width="24" height="24" viewBox="0 0 24 24" fill="none" xmlns="http://www.w3.org/2000/svg">
<path d="M7.5 12C7.5 12.3978 7.34196 12.7794 7.06066 13.0607C6.77936 13.342 6.39782 13.5 6 13.5C5.60218 13.5 5.22064 13.342 4.93934 13.0607C4.65804 12.7794 4.5 12.3978 4.5 12C4.5 11.6022 4.65804 11.2206 4.93934 10.9393C5.22064 10.658 5.60218 10.5 6 10.5C6.39782 10.5 6.77936 10.658 7.06066 10.9393C7.34196 11.2206 7.5 11.6022 7.5 12ZM13.5 12C13.5 12.3978 13.342 12.7794 13.0607 13.0607C12.7794 13.342 12.3978 13.5 12 13.5C11.6022 13.5 11.2206 13.342 10.9393 13.0607C10.658 12.7794 10.5 12.3978 10.5 12C10.5 11.6022 10.658 11.2206 10.9393 10.9393C11.2206 10.658 11.6022 10.5 12 10.5C12.3978 10.5 12.7794 10.658 13.0607 10.9393C13.342 11.2206 13.5 11.6022 13.5 12ZM18 13.5C18.3978 13.5 18.7794 13.342 19.0607 13.0607C19.342 12.7794 19.5 12.3978 19.5 12C19.5 11.6022 19.342 11.2206 19.0607 10.9393C18.7794 10.658 18.3978 10.5 18 10.5C17.6022 10.5 17.2206 10.658 16.9393 10.9393C16.658 11.2206 16.5 11.6022 16.5 12C16.5 12.3978 16.658 12.7794 16.9393 13.0607C17.2206 13.342 17.6022 13.5 18 13.5Z" fill="black"/>
<path d="M3.2475 23.7045L3.2775 23.6985C6.0225 23.154 7.6995 22.4355 8.4795 22.041C9.62788 22.3473 10.8115 22.5016 12 22.5C18.627 22.5 24 17.799 24 12C24 6.201 18.627 1.5 12 1.5C5.373 1.5 0 6.201 0 12C0 14.64 1.1145 17.055 2.955 18.9C2.82624 20.0851 2.56253 21.2517 2.169 22.377L2.1645 22.3935C2.05266 22.7158 1.9306 23.0345 1.7985 23.349C1.68 23.628 1.9095 23.94 2.208 23.892C2.55549 23.8351 2.90204 23.7726 3.2475 23.7045ZM4.4475 19.0425C4.46851 18.8229 4.44082 18.6014 4.36641 18.3937C4.292 18.186 4.1727 17.9973 4.017 17.841C2.427 16.245 1.5 14.202 1.5 12C1.5 7.212 6.006 3 12 3C17.994 3 22.5 7.212 22.5 12C22.5 16.7895 17.994 21 12 21C10.9427 21.0015 9.88967 20.8644 8.868 20.592C8.51097 20.4963 8.13118 20.5359 7.8015 20.703C7.221 20.997 5.9415 21.558 3.8505 22.0425C4.14221 21.0632 4.34208 20.0589 4.4475 19.0425Z" fill="black"/>
</svg>
