<svg width="24" height="24" viewBox="0 0 24 24" fill="none" xmlns="http://www.w3.org/2000/svg">
<path d="M3 1.5C2.60218 1.5 2.22064 1.65804 1.93934 1.93934C1.65804 2.22064 1.5 2.60218 1.5 3V15C1.5 15.3978 1.65804 15.7794 1.93934 16.0607C2.22064 16.342 2.60218 16.5 3 16.5H17.379C18.1746 16.5002 18.9375 16.8164 19.5 17.379L22.5 20.379V3C22.5 2.60218 22.342 2.22064 22.0607 1.93934C21.7794 1.65804 21.3978 1.5 21 1.5H3ZM21 0C21.7956 0 22.5587 0.316071 23.1213 0.87868C23.6839 1.44129 24 2.20435 24 3V22.1895C24 22.3379 23.9559 22.483 23.8734 22.6063C23.7909 22.7297 23.6737 22.8258 23.5365 22.8825C23.3994 22.9392 23.2485 22.9539 23.1029 22.9248C22.9574 22.8957 22.8238 22.8241 22.719 22.719L18.4395 18.4395C18.1583 18.1582 17.7768 18.0001 17.379 18H3C2.20435 18 1.44129 17.6839 0.87868 17.1213C0.316071 16.5587 0 15.7957 0 15V3C0 2.20435 0.316071 1.44129 0.87868 0.87868C1.44129 0.316071 2.20435 0 3 0L21 0Z" fill="black"/>
</svg>
