<svg width="24" height="24" viewBox="0 0 24 24" fill="none" xmlns="http://www.w3.org/2000/svg">
<path d="M0 3C0 2.20435 0.316071 1.44129 0.87868 0.87868C1.44129 0.316071 2.20435 0 3 0L21 0C21.7956 0 22.5587 0.316071 23.1213 0.87868C23.6839 1.44129 24 2.20435 24 3V15C24 15.7956 23.6839 16.5587 23.1213 17.1213C22.5587 17.6839 21.7956 18 21 18H17.25C17.0171 18 16.7875 18.0542 16.5792 18.1584C16.3709 18.2625 16.1897 18.4137 16.05 18.6L13.2 22.3995C13.0603 22.5858 12.8791 22.737 12.6708 22.8411C12.4625 22.9453 12.2329 22.9995 12 22.9995C11.7671 22.9995 11.5375 22.9453 11.3292 22.8411C11.1209 22.737 10.9397 22.5858 10.8 22.3995L7.95 18.6C7.81028 18.4137 7.6291 18.2625 7.42082 18.1584C7.21254 18.0542 6.98287 18 6.75 18H3C2.20435 18 1.44129 17.6839 0.87868 17.1213C0.316071 16.5587 0 15.7956 0 15V3ZM7.5 9C7.5 8.60218 7.34196 8.22064 7.06066 7.93934C6.77936 7.65804 6.39782 7.5 6 7.5C5.60218 7.5 5.22064 7.65804 4.93934 7.93934C4.65804 8.22064 4.5 8.60218 4.5 9C4.5 9.39782 4.65804 9.77936 4.93934 10.0607C5.22064 10.342 5.60218 10.5 6 10.5C6.39782 10.5 6.77936 10.342 7.06066 10.0607C7.34196 9.77936 7.5 9.39782 7.5 9ZM13.5 9C13.5 8.60218 13.342 8.22064 13.0607 7.93934C12.7794 7.65804 12.3978 7.5 12 7.5C11.6022 7.5 11.2206 7.65804 10.9393 7.93934C10.658 8.22064 10.5 8.60218 10.5 9C10.5 9.39782 10.658 9.77936 10.9393 10.0607C11.2206 10.342 11.6022 10.5 12 10.5C12.3978 10.5 12.7794 10.342 13.0607 10.0607C13.342 9.77936 13.5 9.39782 13.5 9ZM18 10.5C18.3978 10.5 18.7794 10.342 19.0607 10.0607C19.342 9.77936 19.5 9.39782 19.5 9C19.5 8.60218 19.342 8.22064 19.0607 7.93934C18.7794 7.65804 18.3978 7.5 18 7.5C17.6022 7.5 17.2206 7.65804 16.9393 7.93934C16.658 8.22064 16.5 8.60218 16.5 9C16.5 9.39782 16.658 9.77936 16.9393 10.0607C17.2206 10.342 17.6022 10.5 18 10.5Z" fill="black"/>
</svg>
