<svg width="24" height="24" viewBox="0 0 24 24" fill="none" xmlns="http://www.w3.org/2000/svg">
<g clip-path="url(#clip0_2_8152)">
<path d="M3 0C2.20435 0 1.44129 0.316071 0.87868 0.87868C0.316071 1.44129 0 2.20435 0 3L0 21C0 21.7956 0.316071 22.5587 0.87868 23.1213C1.44129 23.6839 2.20435 24 3 24H21C21.7956 24 22.5587 23.6839 23.1213 23.1213C23.6839 22.5587 24 21.7956 24 21V3C24 2.20435 23.6839 1.44129 23.1213 0.87868C22.5587 0.316071 21.7956 0 21 0L3 0ZM18.045 7.455C18.2533 7.66313 18.3718 7.94465 18.3749 8.23913C18.3779 8.53361 18.2654 8.81755 18.0615 9.03L12.0735 16.515C11.9706 16.6258 11.8464 16.7148 11.7083 16.7766C11.5702 16.8383 11.4211 16.8716 11.2699 16.8744C11.1186 16.8772 10.9684 16.8494 10.8281 16.7928C10.6879 16.7363 10.5604 16.652 10.4535 16.545L6.486 12.576C6.37547 12.473 6.28682 12.3488 6.22533 12.2108C6.16384 12.0728 6.13078 11.9238 6.12811 11.7728C6.12545 11.6217 6.15323 11.4717 6.20982 11.3316C6.2664 11.1915 6.35061 11.0643 6.45744 10.9574C6.56427 10.8506 6.69152 10.7664 6.8316 10.7098C6.97169 10.6532 7.12173 10.6254 7.27278 10.6281C7.42384 10.6308 7.57281 10.6638 7.71081 10.7253C7.84881 10.7868 7.97301 10.8755 8.076 10.986L11.217 14.1255L16.4265 7.488C16.5292 7.37695 16.6533 7.28776 16.7912 7.22575C16.9292 7.16375 17.0783 7.1302 17.2295 7.12712C17.3807 7.12404 17.531 7.15149 17.6714 7.20782C17.8118 7.26416 17.9394 7.34823 18.0465 7.455H18.045Z" fill="black"/>
</g>
<defs>
<clipPath id="clip0_2_8152">
<rect width="24" height="24" fill="white"/>
</clipPath>
</defs>
</svg>
