<svg width="24" height="24" viewBox="0 0 24 24" fill="none" xmlns="http://www.w3.org/2000/svg">
<path d="M4.5 21.75C3.90326 21.75 3.33097 21.5129 2.90901 21.091C2.48705 20.669 2.25 20.0967 2.25 19.5V4.5C2.25 3.90326 2.48705 3.33097 2.90901 2.90901C3.33097 2.48705 3.90326 2.25 4.5 2.25H16.5C16.6989 2.25 16.8897 2.32902 17.0303 2.46967C17.171 2.61032 17.25 2.80109 17.25 3C17.25 3.19891 17.171 3.38968 17.0303 3.53033C16.8897 3.67098 16.6989 3.75 16.5 3.75H4.5C4.30109 3.75 4.11032 3.82902 3.96967 3.96967C3.82902 4.11032 3.75 4.30109 3.75 4.5V19.5C3.75 19.6989 3.82902 19.8897 3.96967 20.0303C4.11032 20.171 4.30109 20.25 4.5 20.25H19.5C19.6989 20.25 19.8897 20.171 20.0303 20.0303C20.171 19.8897 20.25 19.6989 20.25 19.5V12C20.25 11.8011 20.329 11.6103 20.4697 11.4697C20.6103 11.329 20.8011 11.25 21 11.25C21.1989 11.25 21.3897 11.329 21.5303 11.4697C21.671 11.6103 21.75 11.8011 21.75 12V19.5C21.75 20.0967 21.5129 20.669 21.091 21.091C20.669 21.5129 20.0967 21.75 19.5 21.75H4.5Z" fill="black"/>
<path d="M12.531 15.531L23.031 5.03097C23.1007 4.96124 23.156 4.87846 23.1938 4.78735C23.2315 4.69624 23.2509 4.59859 23.2509 4.49997C23.2509 4.40135 23.2315 4.3037 23.1938 4.2126C23.156 4.12149 23.1007 4.0387 23.031 3.96897C22.9612 3.89924 22.8785 3.84392 22.7873 3.80619C22.6962 3.76845 22.5986 3.74902 22.5 3.74902C22.4014 3.74902 22.3037 3.76845 22.2126 3.80619C22.1215 3.84392 22.0387 3.89924 21.969 3.96897L12 13.9395L8.03097 9.96897C7.96124 9.89924 7.87846 9.84392 7.78735 9.80619C7.69624 9.76845 7.59859 9.74902 7.49997 9.74902C7.40136 9.74902 7.3037 9.76845 7.2126 9.80619C7.12149 9.84392 7.0387 9.89924 6.96897 9.96897C6.89924 10.0387 6.84392 10.1215 6.80619 10.2126C6.76845 10.3037 6.74902 10.4014 6.74902 10.5C6.74902 10.5986 6.76845 10.6962 6.80619 10.7873C6.84392 10.8785 6.89924 10.9612 6.96897 11.031L11.469 15.531C11.5386 15.6008 11.6214 15.6562 11.7125 15.694C11.8036 15.7318 11.9013 15.7513 12 15.7513C12.0986 15.7513 12.1963 15.7318 12.2874 15.694C12.3785 15.6562 12.4613 15.6008 12.531 15.531Z" fill="black"/>
</svg>
