<svg width="24" height="24" viewBox="0 0 24 24" fill="none" xmlns="http://www.w3.org/2000/svg">
<path fill-rule="evenodd" clip-rule="evenodd" d="M2.469 6.96888C2.53867 6.89903 2.62143 6.84362 2.71255 6.80581C2.80367 6.768 2.90135 6.74854 3 6.74854C3.09865 6.74854 3.19633 6.768 3.28745 6.80581C3.37857 6.84362 3.46133 6.89903 3.531 6.96888L12 15.4394L20.469 6.96888C20.5387 6.89914 20.6215 6.84383 20.7126 6.80609C20.8037 6.76835 20.9014 6.74893 21 6.74893C21.0986 6.74893 21.1963 6.76835 21.2874 6.80609C21.3785 6.84383 21.4613 6.89914 21.531 6.96888C21.6007 7.03861 21.656 7.12139 21.6938 7.2125C21.7315 7.30361 21.7509 7.40126 21.7509 7.49988C21.7509 7.59849 21.7315 7.69614 21.6938 7.78725C21.656 7.87836 21.6007 7.96114 21.531 8.03088L12.531 17.0309C12.4613 17.1007 12.3786 17.1561 12.2874 17.1939C12.1963 17.2318 12.0986 17.2512 12 17.2512C11.9013 17.2512 11.8037 17.2318 11.7125 17.1939C11.6214 17.1561 11.5387 17.1007 11.469 17.0309L2.469 8.03088C2.39915 7.96121 2.34374 7.87844 2.30593 7.78733C2.26812 7.69621 2.24866 7.59853 2.24866 7.49988C2.24866 7.40122 2.26812 7.30354 2.30593 7.21243C2.34374 7.12131 2.39915 7.03854 2.469 6.96888Z" fill="black"/>
</svg>
