<svg width="24" height="24" viewBox="0 0 24 24" fill="none" xmlns="http://www.w3.org/2000/svg">
<path fill-rule="evenodd" clip-rule="evenodd" d="M11.469 3.96888C11.5386 3.89903 11.6214 3.84362 11.7125 3.80581C11.8036 3.768 11.9013 3.74854 12 3.74854C12.0986 3.74854 12.1963 3.768 12.2874 3.80581C12.3785 3.84362 12.4613 3.89903 12.531 3.96888L21.531 12.9689C21.6718 13.1097 21.7509 13.3007 21.7509 13.4999C21.7509 13.699 21.6718 13.89 21.531 14.0309C21.3901 14.1717 21.1991 14.2508 21 14.2508C20.8008 14.2508 20.6098 14.1717 20.469 14.0309L12 5.56038L3.53097 14.0309C3.39014 14.1717 3.19913 14.2508 2.99997 14.2508C2.80081 14.2508 2.6098 14.1717 2.46897 14.0309C2.32814 13.89 2.24902 13.699 2.24902 13.4999C2.24902 13.3007 2.32814 13.1097 2.46897 12.9689L11.469 3.96888Z" fill="black"/>
<path fill-rule="evenodd" clip-rule="evenodd" d="M11.469 9.96888C11.5386 9.89903 11.6214 9.84362 11.7125 9.80581C11.8036 9.768 11.9013 9.74854 12 9.74854C12.0986 9.74854 12.1963 9.768 12.2874 9.80581C12.3785 9.84362 12.4613 9.89903 12.531 9.96888L21.531 18.9689C21.6718 19.1097 21.7509 19.3007 21.7509 19.4999C21.7509 19.699 21.6718 19.89 21.531 20.0309C21.3901 20.1717 21.1991 20.2508 21 20.2508C20.8008 20.2508 20.6098 20.1717 20.469 20.0309L12 11.5604L3.53097 20.0309C3.39014 20.1717 3.19913 20.2508 2.99997 20.2508C2.80081 20.2508 2.6098 20.1717 2.46897 20.0309C2.32814 19.89 2.24902 19.699 2.24902 19.4999C2.24902 19.3007 2.32814 19.1097 2.46897 18.9689L11.469 9.96888Z" fill="black"/>
</svg>
