<svg width="24" height="24" viewBox="0 0 24 24" fill="none" xmlns="http://www.w3.org/2000/svg">
<path fill-rule="evenodd" clip-rule="evenodd" d="M2.469 9.96888C2.53867 9.89903 2.62143 9.84362 2.71255 9.80581C2.80367 9.768 2.90135 9.74854 3 9.74854C3.09865 9.74854 3.19633 9.768 3.28745 9.80581C3.37857 9.84362 3.46133 9.89903 3.531 9.96888L12 18.4394L20.469 9.96888C20.6098 9.82805 20.8008 9.74893 21 9.74893C21.1992 9.74893 21.3902 9.82805 21.531 9.96888C21.6718 10.1097 21.7509 10.3007 21.7509 10.4999C21.7509 10.699 21.6718 10.89 21.531 11.0309L12.531 20.0309C12.4613 20.1007 12.3786 20.1561 12.2874 20.1939C12.1963 20.2318 12.0986 20.2512 12 20.2512C11.9013 20.2512 11.8037 20.2318 11.7125 20.1939C11.6214 20.1561 11.5387 20.1007 11.469 20.0309L2.469 11.0309C2.39915 10.9612 2.34374 10.8784 2.30593 10.7873C2.26812 10.6962 2.24866 10.5985 2.24866 10.4999C2.24866 10.4012 2.26812 10.3035 2.30593 10.2124C2.34374 10.1213 2.39915 10.0385 2.469 9.96888Z" fill="black"/>
<path fill-rule="evenodd" clip-rule="evenodd" d="M2.469 3.96888C2.53867 3.89903 2.62143 3.84362 2.71255 3.80581C2.80367 3.768 2.90135 3.74854 3 3.74854C3.09865 3.74854 3.19633 3.768 3.28745 3.80581C3.37857 3.84362 3.46133 3.89903 3.531 3.96888L12 12.4394L20.469 3.96888C20.5387 3.89914 20.6215 3.84383 20.7126 3.80609C20.8037 3.76835 20.9014 3.74893 21 3.74893C21.0986 3.74893 21.1963 3.76835 21.2874 3.80609C21.3785 3.84383 21.4613 3.89914 21.531 3.96888C21.6007 4.03861 21.656 4.12139 21.6938 4.2125C21.7315 4.30361 21.7509 4.40126 21.7509 4.49988C21.7509 4.59849 21.7315 4.69614 21.6938 4.78725C21.656 4.87836 21.6007 4.96114 21.531 5.03088L12.531 14.0309C12.4613 14.1007 12.3786 14.1561 12.2874 14.1939C12.1963 14.2318 12.0986 14.2512 12 14.2512C11.9013 14.2512 11.8037 14.2318 11.7125 14.1939C11.6214 14.1561 11.5387 14.1007 11.469 14.0309L2.469 5.03088C2.39915 4.96121 2.34374 4.87844 2.30593 4.78733C2.26812 4.69621 2.24866 4.59853 2.24866 4.49988C2.24866 4.40122 2.26812 4.30354 2.30593 4.21243C2.34374 4.12131 2.39915 4.03854 2.469 3.96888Z" fill="black"/>
</svg>
