<svg width="24" height="24" viewBox="0 0 24 24" fill="none" xmlns="http://www.w3.org/2000/svg">
<path fill-rule="evenodd" clip-rule="evenodd" d="M12.531 2.46888C12.6008 2.53854 12.6563 2.62131 12.6941 2.71243C12.7319 2.80354 12.7513 2.90122 12.7513 2.99988C12.7513 3.09853 12.7319 3.19621 12.6941 3.28733C12.6563 3.37844 12.6008 3.46121 12.531 3.53088L4.0605 11.9999L12.531 20.4689C12.6718 20.6097 12.7509 20.8007 12.7509 20.9999C12.7509 21.199 12.6718 21.39 12.531 21.5309C12.3902 21.6717 12.1992 21.7508 12 21.7508C11.8008 21.7508 11.6098 21.6717 11.469 21.5309L2.469 12.5309C2.39915 12.4612 2.34374 12.3784 2.30593 12.2873C2.26812 12.1962 2.24866 12.0985 2.24866 11.9999C2.24866 11.9012 2.26812 11.8035 2.30593 11.7124C2.34374 11.6213 2.39915 11.5385 2.469 11.4689L11.469 2.46888C11.5387 2.39903 11.6214 2.34362 11.7125 2.30581C11.8037 2.268 11.9013 2.24854 12 2.24854C12.0986 2.24854 12.1963 2.268 12.2874 2.30581C12.3786 2.34362 12.4613 2.39903 12.531 2.46888Z" fill="black"/>
<path fill-rule="evenodd" clip-rule="evenodd" d="M18.531 2.46888C18.6008 2.53854 18.6563 2.62131 18.6941 2.71243C18.7319 2.80354 18.7513 2.90122 18.7513 2.99988C18.7513 3.09853 18.7319 3.19621 18.6941 3.28733C18.6563 3.37844 18.6008 3.46121 18.531 3.53088L10.0605 11.9999L18.531 20.4689C18.6007 20.5386 18.656 20.6214 18.6938 20.7125C18.7315 20.8036 18.7509 20.9013 18.7509 20.9999C18.7509 21.0985 18.7315 21.1961 18.6938 21.2873C18.656 21.3784 18.6007 21.4611 18.531 21.5309C18.4613 21.6006 18.3785 21.6559 18.2874 21.6937C18.1963 21.7314 18.0986 21.7508 18 21.7508C17.9014 21.7508 17.8037 21.7314 17.7126 21.6937C17.6215 21.6559 17.5387 21.6006 17.469 21.5309L8.469 12.5309C8.39915 12.4612 8.34374 12.3784 8.30593 12.2873C8.26812 12.1962 8.24866 12.0985 8.24866 11.9999C8.24866 11.9012 8.26812 11.8035 8.30593 11.7124C8.34374 11.6213 8.39915 11.5385 8.469 11.4689L17.469 2.46888C17.5387 2.39903 17.6214 2.34362 17.7125 2.30581C17.8037 2.268 17.9013 2.24854 18 2.24854C18.0986 2.24854 18.1963 2.268 18.2874 2.30581C18.3786 2.34362 18.4613 2.39903 18.531 2.46888Z" fill="black"/>
</svg>
