<svg width="24" height="24" viewBox="0 0 24 24" fill="none" xmlns="http://www.w3.org/2000/svg">
<path fill-rule="evenodd" clip-rule="evenodd" d="M5.469 13.7189C5.53867 13.649 5.62143 13.5936 5.71255 13.5558C5.80367 13.518 5.90135 13.4985 6 13.4985C6.09865 13.4985 6.19633 13.518 6.28745 13.5558C6.37857 13.5936 6.46133 13.649 6.531 13.7189L12 19.1894L17.469 13.7189C17.6098 13.578 17.8008 13.4989 18 13.4989C18.1992 13.4989 18.3902 13.578 18.531 13.7189C18.6718 13.8597 18.7509 14.0507 18.7509 14.2499C18.7509 14.449 18.6718 14.64 18.531 14.7809L12.531 20.7809C12.4613 20.8507 12.3786 20.9061 12.2874 20.9439C12.1963 20.9818 12.0986 21.0012 12 21.0012C11.9013 21.0012 11.8037 20.9818 11.7125 20.9439C11.6214 20.9061 11.5387 20.8507 11.469 20.7809L5.469 14.7809C5.39915 14.7112 5.34374 14.6284 5.30593 14.5373C5.26812 14.4462 5.24866 14.3485 5.24866 14.2499C5.24866 14.1512 5.26812 14.0535 5.30593 13.9624C5.34374 13.8713 5.39915 13.7885 5.469 13.7189ZM5.469 10.2809C5.53867 10.3507 5.62143 10.4061 5.71255 10.4439C5.80367 10.4818 5.90135 10.5012 6 10.5012C6.09865 10.5012 6.19633 10.4818 6.28745 10.4439C6.37857 10.4061 6.46133 10.3507 6.531 10.2809L12 4.81038L17.469 10.2809C17.6098 10.4217 17.8008 10.5008 18 10.5008C18.1992 10.5008 18.3902 10.4217 18.531 10.2809C18.6718 10.14 18.7509 9.94904 18.7509 9.74988C18.7509 9.55071 18.6718 9.35971 18.531 9.21888L12.531 3.21888C12.4613 3.14903 12.3786 3.09362 12.2874 3.05581C12.1963 3.018 12.0986 2.99854 12 2.99854C11.9013 2.99854 11.8037 3.018 11.7125 3.05581C11.6214 3.09362 11.5387 3.14903 11.469 3.21888L5.469 9.21888C5.39915 9.28854 5.34374 9.37131 5.30593 9.46243C5.26812 9.55354 5.24866 9.65123 5.24866 9.74988C5.24866 9.84853 5.26812 9.94621 5.30593 10.0373C5.34374 10.1284 5.39915 10.2112 5.469 10.2809Z" fill="black"/>
</svg>
