<svg width="24" height="24" viewBox="0 0 24 24" fill="none" xmlns="http://www.w3.org/2000/svg">
<path fill-rule="evenodd" clip-rule="evenodd" d="M10.164 2.32947C10.3419 2.24036 10.5478 2.22555 10.7366 2.28828C10.9253 2.35101 11.0814 2.48615 11.1705 2.66397L15.6705 11.664C15.7228 11.7683 15.75 11.8833 15.75 12C15.75 12.1166 15.7228 12.2317 15.6705 12.336L11.1705 21.336C11.1269 21.4248 11.0661 21.5041 10.9916 21.5693C10.9172 21.6346 10.8305 21.6844 10.7367 21.716C10.6429 21.7475 10.5438 21.7602 10.445 21.7533C10.3463 21.7464 10.2499 21.72 10.1614 21.6757C10.0729 21.6313 9.9941 21.5699 9.92946 21.495C9.86482 21.42 9.81565 21.333 9.7848 21.2389C9.75395 21.1449 9.74202 21.0457 9.7497 20.947C9.75738 20.8483 9.78451 20.7521 9.82954 20.664L14.16 12L9.82954 3.33597C9.74043 3.15814 9.72561 2.9522 9.78834 2.76345C9.85108 2.57469 9.98622 2.41859 10.164 2.32947Z" fill="black"/>
</svg>
