<svg width="24" height="24" viewBox="0 0 24 24" fill="none" xmlns="http://www.w3.org/2000/svg">
<path fill-rule="evenodd" clip-rule="evenodd" d="M5.469 2.46888C5.53867 2.39903 5.62143 2.34362 5.71255 2.30581C5.80367 2.268 5.90135 2.24854 6 2.24854C6.09865 2.24854 6.19633 2.268 6.28745 2.30581C6.37857 2.34362 6.46133 2.39903 6.531 2.46888L15.531 11.4689C15.6008 11.5385 15.6563 11.6213 15.6941 11.7124C15.7319 11.8035 15.7513 11.9012 15.7513 11.9999C15.7513 12.0985 15.7319 12.1962 15.6941 12.2873C15.6563 12.3784 15.6008 12.4612 15.531 12.5309L6.531 21.5309C6.39017 21.6717 6.19916 21.7508 6 21.7508C5.80083 21.7508 5.60983 21.6717 5.469 21.5309C5.32817 21.39 5.24905 21.199 5.24905 20.9999C5.24905 20.8007 5.32817 20.6097 5.469 20.4689L13.9395 11.9999L5.469 3.53088C5.39915 3.46121 5.34374 3.37844 5.30593 3.28733C5.26812 3.19621 5.24866 3.09853 5.24866 2.99988C5.24866 2.90122 5.26812 2.80354 5.30593 2.71243C5.34374 2.62131 5.39915 2.53854 5.469 2.46888Z" fill="black"/>
<path fill-rule="evenodd" clip-rule="evenodd" d="M11.469 2.46888C11.5387 2.39903 11.6214 2.34362 11.7125 2.30581C11.8037 2.268 11.9013 2.24854 12 2.24854C12.0986 2.24854 12.1963 2.268 12.2874 2.30581C12.3786 2.34362 12.4613 2.39903 12.531 2.46888L21.531 11.4689C21.6008 11.5385 21.6563 11.6213 21.6941 11.7124C21.7319 11.8035 21.7513 11.9012 21.7513 11.9999C21.7513 12.0985 21.7319 12.1962 21.6941 12.2873C21.6563 12.3784 21.6008 12.4612 21.531 12.5309L12.531 21.5309C12.3902 21.6717 12.1992 21.7508 12 21.7508C11.8008 21.7508 11.6098 21.6717 11.469 21.5309C11.3282 21.39 11.249 21.199 11.249 20.9999C11.249 20.8007 11.3282 20.6097 11.469 20.4689L19.9395 11.9999L11.469 3.53088C11.3992 3.46121 11.3437 3.37844 11.3059 3.28733C11.2681 3.19621 11.2487 3.09853 11.2487 2.99988C11.2487 2.90122 11.2681 2.80354 11.3059 2.71243C11.3437 2.62131 11.3992 2.53854 11.469 2.46888Z" fill="black"/>
</svg>
