<svg width="24" height="24" viewBox="0 0 24 24" fill="none" xmlns="http://www.w3.org/2000/svg">
<path fill-rule="evenodd" clip-rule="evenodd" d="M11.469 6.96888C11.5386 6.89903 11.6214 6.84362 11.7125 6.80581C11.8036 6.768 11.9013 6.74854 12 6.74854C12.0986 6.74854 12.1963 6.768 12.2874 6.80581C12.3785 6.84362 12.4613 6.89903 12.531 6.96888L21.531 15.9689C21.6718 16.1097 21.7509 16.3007 21.7509 16.4999C21.7509 16.699 21.6718 16.89 21.531 17.0309C21.3901 17.1717 21.1991 17.2508 21 17.2508C20.8008 17.2508 20.6098 17.1717 20.469 17.0309L12 8.56037L3.53097 17.0309C3.39014 17.1717 3.19913 17.2508 2.99997 17.2508C2.80081 17.2508 2.6098 17.1717 2.46897 17.0309C2.32814 16.89 2.24902 16.699 2.24902 16.4999C2.24902 16.3007 2.32814 16.1097 2.46897 15.9689L11.469 6.96888Z" fill="black"/>
</svg>
