<svg width="24" height="24" viewBox="0 0 24 24" fill="none" xmlns="http://www.w3.org/2000/svg">
<path fill-rule="evenodd" clip-rule="evenodd" d="M12 10.5C12.1989 10.5 12.3897 10.579 12.5303 10.7197C12.671 10.8603 12.75 11.0511 12.75 11.25V13.5H15C15.1989 13.5 15.3897 13.579 15.5303 13.7197C15.671 13.8603 15.75 14.0511 15.75 14.25C15.75 14.4489 15.671 14.6397 15.5303 14.7803C15.3897 14.921 15.1989 15 15 15H12.75V17.25C12.75 17.4489 12.671 17.6397 12.5303 17.7803C12.3897 17.921 12.1989 18 12 18C11.8011 18 11.6103 17.921 11.4697 17.7803C11.329 17.6397 11.25 17.4489 11.25 17.25V15H9C8.80109 15 8.61032 14.921 8.46967 14.7803C8.32902 14.6397 8.25 14.4489 8.25 14.25C8.25 14.0511 8.32902 13.8603 8.46967 13.7197C8.61032 13.579 8.80109 13.5 9 13.5H11.25V11.25C11.25 11.0511 11.329 10.8603 11.4697 10.7197C11.6103 10.579 11.8011 10.5 12 10.5Z" fill="black"/>
<path d="M6 2.25H4.5C3.70435 2.25 2.94129 2.56607 2.37868 3.12868C1.81607 3.69129 1.5 4.45435 1.5 5.25V21C1.5 21.7956 1.81607 22.5587 2.37868 23.1213C2.94129 23.6839 3.70435 24 4.5 24H19.5C20.2956 24 21.0587 23.6839 21.6213 23.1213C22.1839 22.5587 22.5 21.7956 22.5 21V5.25C22.5 4.45435 22.1839 3.69129 21.6213 3.12868C21.0587 2.56607 20.2956 2.25 19.5 2.25H18V3.75H19.5C19.8978 3.75 20.2794 3.90804 20.5607 4.18934C20.842 4.47064 21 4.85218 21 5.25V21C21 21.3978 20.842 21.7794 20.5607 22.0607C20.2794 22.342 19.8978 22.5 19.5 22.5H4.5C4.10218 22.5 3.72064 22.342 3.43934 22.0607C3.15804 21.7794 3 21.3978 3 21V5.25C3 4.85218 3.15804 4.47064 3.43934 4.18934C3.72064 3.90804 4.10218 3.75 4.5 3.75H6V2.25Z" fill="black"/>
<path d="M14.25 1.5C14.4489 1.5 14.6397 1.57902 14.7803 1.71967C14.921 1.86032 15 2.05109 15 2.25V3.75C15 3.94891 14.921 4.13968 14.7803 4.28033C14.6397 4.42098 14.4489 4.5 14.25 4.5H9.75C9.55109 4.5 9.36032 4.42098 9.21967 4.28033C9.07902 4.13968 9 3.94891 9 3.75V2.25C9 2.05109 9.07902 1.86032 9.21967 1.71967C9.36032 1.57902 9.55109 1.5 9.75 1.5H14.25ZM9.75 0C9.15326 0 8.58097 0.237053 8.15901 0.65901C7.73705 1.08097 7.5 1.65326 7.5 2.25V3.75C7.5 4.34674 7.73705 4.91903 8.15901 5.34099C8.58097 5.76295 9.15326 6 9.75 6H14.25C14.8467 6 15.419 5.76295 15.841 5.34099C16.2629 4.91903 16.5 4.34674 16.5 3.75V2.25C16.5 1.65326 16.2629 1.08097 15.841 0.65901C15.419 0.237053 14.8467 0 14.25 0L9.75 0Z" fill="black"/>
</svg>
