<svg width="24" height="24" viewBox="0 0 24 24" fill="none" xmlns="http://www.w3.org/2000/svg">
<path fill-rule="evenodd" clip-rule="evenodd" d="M11.469 7.71888C11.5386 7.64903 11.6214 7.59362 11.7125 7.55581C11.8036 7.518 11.9013 7.49854 12 7.49854C12.0986 7.49854 12.1963 7.518 12.2874 7.55581C12.3785 7.59362 12.4613 7.64903 12.531 7.71888L15.531 10.7189C15.6007 10.7886 15.656 10.8714 15.6938 10.9625C15.7315 11.0536 15.7509 11.1513 15.7509 11.2499C15.7509 11.3485 15.7315 11.4461 15.6938 11.5373C15.656 11.6284 15.6007 11.7111 15.531 11.7809C15.4612 11.8506 15.3785 11.9059 15.2873 11.9437C15.1962 11.9814 15.0986 12.0008 15 12.0008C14.9014 12.0008 14.8037 11.9814 14.7126 11.9437C14.6215 11.9059 14.5387 11.8506 14.469 11.7809L12.75 10.0604V15.7499C12.75 15.9488 12.671 16.1396 12.5303 16.2802C12.3896 16.4209 12.1989 16.4999 12 16.4999C11.8011 16.4999 11.6103 16.4209 11.4696 16.2802C11.329 16.1396 11.25 15.9488 11.25 15.7499V10.0604L9.53097 11.7809C9.39014 11.9217 9.19913 12.0008 8.99997 12.0008C8.80081 12.0008 8.6098 11.9217 8.46897 11.7809C8.32814 11.64 8.24902 11.449 8.24902 11.2499C8.24902 11.0507 8.32814 10.8597 8.46897 10.7189L11.469 7.71888Z" fill="black"/>
<path d="M6.609 5.013C8.10822 3.7202 10.0204 3.00621 12 3C16.035 3 19.3845 6 19.749 9.8685C22.137 10.206 24 12.2055 24 14.6595C24 17.3535 21.753 19.5 19.0305 19.5H5.6715C2.562 19.5 0 17.049 0 13.977C0 11.3325 1.899 9.1425 4.413 8.5875C4.6275 7.293 5.46 6.003 6.609 5.013ZM7.5885 6.1485C6.453 7.128 5.859 8.3085 5.859 9.2325V9.9045L5.1915 9.978C3.096 10.2075 1.5 11.928 1.5 13.977C1.5 16.1775 3.345 18 5.6715 18H19.0305C20.97 18 22.5 16.482 22.5 14.6595C22.5 12.8355 20.97 11.3175 19.0305 11.3175H18.2805V10.5675C18.282 7.2375 15.492 4.5 12 4.5C10.3798 4.50647 8.81526 5.09165 7.5885 6.15V6.1485Z" fill="black"/>
</svg>
