<svg width="24" height="24" viewBox="0 0 24 24" fill="none" xmlns="http://www.w3.org/2000/svg">
<g clip-path="url(#clip0_2_8078)">
<path d="M6.23701 18.0374C6.33051 18.0686 6.41694 18.1179 6.49138 18.1825C6.56581 18.2471 6.62678 18.3257 6.67081 18.4139C6.71483 18.5021 6.74104 18.5981 6.74793 18.6964C6.75483 18.7947 6.74228 18.8934 6.71101 18.9869L5.96101 21.2369C5.89272 21.4185 5.75675 21.5665 5.58163 21.65C5.40651 21.7334 5.20586 21.7457 5.02183 21.6844C4.8378 21.6231 4.6847 21.4928 4.59467 21.321C4.50464 21.1491 4.48469 20.9491 4.53901 20.7629L5.28901 18.5129C5.35168 18.3241 5.48676 18.168 5.66454 18.0788C5.84232 17.9897 6.04824 17.9747 6.23701 18.0374ZM15.237 18.0374C15.3305 18.0686 15.4169 18.1179 15.4914 18.1825C15.5658 18.2471 15.6268 18.3257 15.6708 18.4139C15.7148 18.5021 15.741 18.5981 15.7479 18.6964C15.7548 18.7947 15.7423 18.8934 15.711 18.9869L14.961 21.2369C14.8927 21.4185 14.7567 21.5665 14.5816 21.65C14.4065 21.7334 14.2059 21.7457 14.0218 21.6844C13.8378 21.6231 13.6847 21.4928 13.5947 21.321C13.5046 21.1491 13.4847 20.9491 13.539 20.7629L14.289 18.5129C14.3517 18.3241 14.4868 18.168 14.6645 18.0788C14.8423 17.9897 15.0482 17.9747 15.237 18.0374ZM9.98701 20.2874C10.0805 20.3186 10.1669 20.3679 10.2414 20.4325C10.3158 20.4971 10.3768 20.5757 10.4208 20.6639C10.4648 20.7521 10.491 20.8481 10.4979 20.9464C10.5048 21.0447 10.4923 21.1434 10.461 21.2369L9.71101 23.4869C9.64272 23.6685 9.50675 23.8165 9.33162 23.9C9.1565 23.9834 8.95586 23.9957 8.77183 23.9344C8.5878 23.8731 8.4347 23.7428 8.34467 23.571C8.25464 23.3991 8.23469 23.1991 8.28901 23.0129L9.03901 20.7629C9.10168 20.5741 9.23676 20.418 9.41454 20.3288C9.59232 20.2397 9.79824 20.2247 9.98701 20.2874ZM18.987 20.2874C19.0805 20.3186 19.1669 20.3679 19.2414 20.4325C19.3158 20.4971 19.3768 20.5757 19.4208 20.6639C19.4648 20.7521 19.491 20.8481 19.4979 20.9464C19.5048 21.0447 19.4923 21.1434 19.461 21.2369L18.711 23.4869C18.6828 23.5837 18.6353 23.6739 18.5714 23.752C18.5074 23.83 18.4284 23.8944 18.3391 23.9412C18.2497 23.988 18.1518 24.0164 18.0513 24.0245C17.9507 24.0326 17.8495 24.0203 17.7538 23.9884C17.6581 23.9565 17.5698 23.9056 17.4942 23.8388C17.4187 23.772 17.3573 23.6906 17.3139 23.5995C17.2705 23.5084 17.246 23.4095 17.2417 23.3087C17.2374 23.2079 17.2535 23.1073 17.289 23.0129L18.039 20.7629C18.1017 20.5741 18.2368 20.418 18.4145 20.3288C18.5923 20.2397 18.7982 20.2247 18.987 20.2874ZM20.1075 7.54038C19.796 5.97013 18.9903 4.5407 17.8083 3.4611C16.6263 2.38151 15.1299 1.70836 13.5379 1.5401C11.9459 1.37183 10.3418 1.71727 8.9602 2.5259C7.57859 3.33453 6.49189 4.56394 5.85901 6.03438C5.14926 5.95262 4.4303 6.01658 3.74613 6.22234C3.06197 6.42811 2.427 6.77135 1.8801 7.23105C1.3332 7.69075 0.885887 8.25724 0.565538 8.89583C0.245189 9.53442 0.0585491 10.2317 0.0170454 10.9449C-0.0244584 11.6581 0.0800474 12.3723 0.324164 13.0438C0.568281 13.7152 0.946872 14.3298 1.43676 14.8498C1.92664 15.3698 2.51751 15.7844 3.1732 16.0681C3.82888 16.3519 4.53557 16.4988 5.25001 16.4999H19.5C20.6417 16.5012 21.7411 16.0685 22.5757 15.2895C23.4103 14.5105 23.9176 13.4434 23.9948 12.3043C24.0721 11.1653 23.7135 10.0394 22.9917 9.15489C22.2699 8.27034 21.2389 7.6932 20.1075 7.54038ZM12.75 2.99988C14.2259 2.99958 15.6502 3.54329 16.7505 4.52705C17.8507 5.51082 18.5498 6.86561 18.714 8.33238C18.7344 8.51667 18.8223 8.68688 18.9608 8.81015C19.0993 8.93341 19.2786 9.00101 19.464 8.99988H19.5C20.2957 8.99988 21.0587 9.31596 21.6213 9.87856C22.1839 10.4412 22.5 11.2042 22.5 11.9999C22.5 12.7955 22.1839 13.5586 21.6213 14.1212C21.0587 14.6838 20.2957 14.9999 19.5 14.9999H5.25001C4.71912 14.9996 4.19433 14.8866 3.71037 14.6684C3.22641 14.4502 2.7943 14.1317 2.44263 13.734C2.09096 13.3363 1.82774 12.8684 1.67038 12.3614C1.51303 11.8544 1.46512 11.3197 1.52984 10.7928C1.59455 10.2658 1.77042 9.75864 2.04579 9.30475C2.32116 8.85087 2.68977 8.46062 3.12723 8.15984C3.56469 7.85905 4.06103 7.65458 4.58342 7.55994C5.1058 7.46531 5.64233 7.48267 6.15751 7.61088C6.3413 7.65673 6.53563 7.63132 6.70147 7.53978C6.8673 7.44824 6.99235 7.29734 7.05151 7.11738C7.44793 5.91915 8.21193 4.87633 9.23493 4.13715C10.2579 3.39797 11.4879 3.00003 12.75 2.99988Z" fill="black"/>
</g>
<defs>
<clipPath id="clip0_2_8078">
<rect width="24" height="24" fill="white"/>
</clipPath>
</defs>
</svg>
