<svg width="24" height="24" viewBox="0 0 24 24" fill="none" xmlns="http://www.w3.org/2000/svg">
<path fill-rule="evenodd" clip-rule="evenodd" d="M4.668 7.668C4.55194 7.96503 4.4665 8.27312 4.413 8.5875C1.899 9.1425 0 11.3325 0 13.977C0 17.049 2.562 19.5 5.6715 19.5H16.5L15 18H5.6715C3.3465 18 1.5 16.1775 1.5 13.977C1.5 11.9295 3.096 10.2075 5.19 9.978L5.859 9.903V9.2325C5.859 9.12 5.868 9.0045 5.886 8.886L4.668 7.668ZM8.493 5.493L7.4055 4.4055C8.76411 3.49253 10.3631 3.00337 12 3C16.035 3 19.3845 6 19.749 9.8685C22.137 10.206 24 12.2055 24 14.6595C23.9974 15.4746 23.7873 16.2757 23.3895 16.9872C22.9916 17.6986 22.4191 18.297 21.726 18.726L20.6265 17.6265C21.747 17.067 22.5 15.939 22.5 14.6595C22.5 12.8355 20.97 11.3175 19.0305 11.3175H18.2805V10.5675C18.282 7.2375 15.492 4.5 12 4.5C10.6875 4.5 9.483 4.89 8.4915 5.4915L8.493 5.493Z" fill="black"/>
<path d="M20.469 21.531L2.46899 3.53099L3.53099 2.46899L21.531 20.469L20.4705 21.5295L20.469 21.531Z" fill="black"/>
</svg>
