<svg width="24" height="24" viewBox="0 0 24 24" fill="none" xmlns="http://www.w3.org/2000/svg">
<path fill-rule="evenodd" clip-rule="evenodd" d="M11.469 16.281C11.5386 16.3508 11.6214 16.4063 11.7125 16.4441C11.8036 16.4819 11.9013 16.5013 12 16.5013C12.0986 16.5013 12.1963 16.4819 12.2874 16.4441C12.3785 16.4063 12.4613 16.3508 12.531 16.281L15.531 13.281C15.6007 13.2113 15.656 13.1285 15.6938 13.0374C15.7315 12.9463 15.7509 12.8486 15.7509 12.75C15.7509 12.6514 15.7315 12.5537 15.6938 12.4626C15.656 12.3715 15.6007 12.2887 15.531 12.219C15.4612 12.1493 15.3785 12.094 15.2873 12.0562C15.1962 12.0185 15.0986 11.9991 15 11.9991C14.9014 11.9991 14.8037 12.0185 14.7126 12.0562C14.6215 12.094 14.5387 12.1493 14.469 12.219L12.75 13.9395V8.25C12.75 8.05109 12.671 7.86032 12.5303 7.71967C12.3896 7.57902 12.1989 7.5 12 7.5C11.8011 7.5 11.6103 7.57902 11.4696 7.71967C11.329 7.86032 11.25 8.05109 11.25 8.25V13.9395L9.53097 12.219C9.39014 12.0782 9.19913 11.9991 8.99997 11.9991C8.80081 11.9991 8.6098 12.0782 8.46897 12.219C8.32814 12.3598 8.24902 12.5508 8.24902 12.75C8.24902 12.9492 8.32814 13.1402 8.46897 13.281L11.469 16.281Z" fill="black"/>
<path d="M6.609 5.013C8.10822 3.7202 10.0204 3.00621 12 3C16.035 3 19.3845 6 19.749 9.8685C22.137 10.206 24 12.2055 24 14.6595C24 17.3535 21.753 19.5 19.0305 19.5H5.6715C2.562 19.5 0 17.049 0 13.977C0 11.3325 1.899 9.1425 4.413 8.5875C4.6275 7.293 5.46 6.003 6.609 5.013ZM7.5885 6.1485C6.453 7.128 5.859 8.3085 5.859 9.2325V9.9045L5.1915 9.978C3.096 10.2075 1.5 11.928 1.5 13.977C1.5 16.1775 3.345 18 5.6715 18H19.0305C20.97 18 22.5 16.482 22.5 14.6595C22.5 12.8355 20.97 11.3175 19.0305 11.3175H18.2805V10.5675C18.282 7.2375 15.492 4.5 12 4.5C10.3798 4.50647 8.81526 5.09165 7.5885 6.15V6.1485Z" fill="black"/>
</svg>
