<svg width="24" height="24" viewBox="0 0 24 24" fill="none" xmlns="http://www.w3.org/2000/svg">
<g clip-path="url(#clip0_2_8022)">
<path d="M6.26401 16.5479C6.44983 16.6179 6.60029 16.7588 6.6824 16.9396C6.76451 17.1204 6.77156 17.3264 6.70201 17.5124L4.45201 23.5124C4.42025 23.6081 4.3695 23.6964 4.30282 23.7721C4.23613 23.8478 4.15487 23.9092 4.06389 23.9527C3.97291 23.9963 3.87409 24.021 3.77333 24.0255C3.67257 24.0299 3.57195 24.014 3.47748 23.9787C3.38301 23.9434 3.29664 23.8894 3.22353 23.8199C3.15041 23.7504 3.09207 23.6669 3.05197 23.5744C3.01188 23.4818 2.99086 23.3821 2.99018 23.2813C2.9895 23.1804 3.00917 23.0805 3.04801 22.9874L5.29801 16.9874C5.33253 16.8951 5.38491 16.8105 5.45216 16.7384C5.5194 16.6663 5.60019 16.6082 5.68991 16.5674C5.77962 16.5266 5.87651 16.5039 5.97501 16.5005C6.07352 16.4972 6.17172 16.5133 6.26401 16.5479ZM10.764 16.5479C10.9498 16.6179 11.1003 16.7588 11.1824 16.9396C11.2645 17.1204 11.2716 17.3264 11.202 17.5124L8.95201 23.5124C8.92025 23.6081 8.8695 23.6964 8.80282 23.7721C8.73613 23.8478 8.65487 23.9092 8.56389 23.9527C8.47291 23.9963 8.37409 24.021 8.27333 24.0255C8.17257 24.0299 8.07195 24.014 7.97748 23.9787C7.88301 23.9434 7.79664 23.8894 7.72353 23.8199C7.65041 23.7504 7.59207 23.6669 7.55197 23.5744C7.51188 23.4818 7.49086 23.3821 7.49018 23.2813C7.4895 23.1804 7.50917 23.0805 7.54801 22.9874L9.79801 16.9874C9.83253 16.8951 9.88491 16.8105 9.95216 16.7384C10.0194 16.6663 10.1002 16.6082 10.1899 16.5674C10.2796 16.5266 10.3765 16.5039 10.475 16.5005C10.5735 16.4972 10.6717 16.5133 10.764 16.5479ZM15.264 16.5479C15.4498 16.6179 15.6003 16.7588 15.6824 16.9396C15.7645 17.1204 15.7716 17.3264 15.702 17.5124L13.452 23.5124C13.4202 23.6081 13.3695 23.6964 13.3028 23.7721C13.2361 23.8478 13.1549 23.9092 13.0639 23.9527C12.9729 23.9963 12.8741 24.021 12.7733 24.0255C12.6726 24.0299 12.5719 24.014 12.4775 23.9787C12.383 23.9434 12.2966 23.8894 12.2235 23.8199C12.1504 23.7504 12.0921 23.6669 12.052 23.5744C12.0119 23.4818 11.9909 23.3821 11.9902 23.2813C11.9895 23.1804 12.0092 23.0805 12.048 22.9874L14.298 16.9874C14.3325 16.8951 14.3849 16.8105 14.4522 16.7384C14.5194 16.6663 14.6002 16.6082 14.6899 16.5674C14.7796 16.5266 14.8765 16.5039 14.975 16.5005C15.0735 16.4972 15.1717 16.5133 15.264 16.5479ZM19.764 16.5479C19.9498 16.6179 20.1003 16.7588 20.1824 16.9396C20.2645 17.1204 20.2716 17.3264 20.202 17.5124L17.952 23.5124C17.8773 23.6915 17.7361 23.8346 17.558 23.9118C17.3799 23.9889 17.1789 23.994 16.9972 23.9261C16.8154 23.8581 16.6671 23.7223 16.5833 23.5473C16.4996 23.3722 16.4869 23.1716 16.548 22.9874L18.798 16.9874C18.8325 16.8951 18.8849 16.8105 18.9522 16.7384C19.0194 16.6663 19.1002 16.6082 19.1899 16.5674C19.2796 16.5266 19.3765 16.5039 19.475 16.5005C19.5735 16.4972 19.6717 16.5133 19.764 16.5479ZM20.1075 6.04038C19.796 4.47013 18.9903 3.0407 17.8083 1.9611C16.6263 0.881505 15.1299 0.208363 13.5379 0.040097C11.9459 -0.128169 10.3418 0.217267 8.9602 1.0259C7.57859 1.83453 6.49189 3.06394 5.85901 4.53438C5.14926 4.45262 4.4303 4.51658 3.74613 4.72234C3.06197 4.92811 2.427 5.27135 1.8801 5.73105C1.3332 6.19075 0.885887 6.75724 0.565538 7.39583C0.245189 8.03442 0.0585491 8.73167 0.0170454 9.4449C-0.0244584 10.1581 0.0800474 10.8723 0.324164 11.5438C0.568281 12.2152 0.946872 12.8298 1.43676 13.3498C1.92664 13.8698 2.51752 14.2844 3.1732 14.5681C3.82888 14.8519 4.53557 14.9988 5.25001 14.9999H19.5C20.6417 15.0012 21.7412 14.5685 22.5757 13.7895C23.4103 13.0105 23.9176 11.9434 23.9948 10.8043C24.0721 9.66526 23.7135 8.53944 22.9917 7.65489C22.2699 6.77034 21.2389 6.1932 20.1075 6.04038ZM12.75 1.49988C14.2259 1.49958 15.6502 2.04329 16.7505 3.02705C17.8507 4.01082 18.5498 5.36561 18.714 6.83238C18.7344 7.01667 18.8223 7.18688 18.9608 7.31015C19.0993 7.43341 19.2786 7.50101 19.464 7.49988H19.5C20.2957 7.49988 21.0587 7.81595 21.6213 8.37856C22.1839 8.94117 22.5 9.70424 22.5 10.4999C22.5 11.2955 22.1839 12.0586 21.6213 12.6212C21.0587 13.1838 20.2957 13.4999 19.5 13.4999H5.25001C4.71912 13.4996 4.19433 13.3866 3.71037 13.1684C3.22641 12.9502 2.7943 12.6317 2.44263 12.234C2.09096 11.8363 1.82774 11.3684 1.67038 10.8614C1.51303 10.3543 1.46512 9.81968 1.52984 9.29275C1.59455 8.76582 1.77042 8.25864 2.04579 7.80475C2.32116 7.35087 2.68977 6.96062 3.12723 6.65984C3.56469 6.35905 4.06103 6.15458 4.58342 6.05994C5.1058 5.96531 5.64233 5.98267 6.15751 6.11088C6.3413 6.15673 6.53563 6.13132 6.70147 6.03978C6.8673 5.94824 6.99235 5.79734 7.05151 5.61738C7.44793 4.41915 8.21193 3.37633 9.23493 2.63715C10.2579 1.89797 11.4879 1.50003 12.75 1.49988Z" fill="black"/>
</g>
<defs>
<clipPath id="clip0_2_8022">
<rect width="24" height="24" fill="white"/>
</clipPath>
</defs>
</svg>
