<svg width="24" height="24" viewBox="0 0 24 24" fill="none" xmlns="http://www.w3.org/2000/svg">
<g clip-path="url(#clip0_2_8071)">
<path d="M4.50001 20.2499C4.50001 20.051 4.57902 19.8602 4.71968 19.7196C4.86033 19.5789 5.05109 19.4999 5.25001 19.4999H18.75C18.9489 19.4999 19.1397 19.5789 19.2803 19.7196C19.421 19.8602 19.5 20.051 19.5 20.2499C19.5 20.4488 19.421 20.6396 19.2803 20.7802C19.1397 20.9209 18.9489 20.9999 18.75 20.9999H5.25001C5.05109 20.9999 4.86033 20.9209 4.71968 20.7802C4.57902 20.6396 4.50001 20.4488 4.50001 20.2499ZM4.50001 23.2499C4.50001 23.051 4.57902 22.8602 4.71968 22.7196C4.86033 22.5789 5.05109 22.4999 5.25001 22.4999H18.75C18.9489 22.4999 19.1397 22.5789 19.2803 22.7196C19.421 22.8602 19.5 23.051 19.5 23.2499C19.5 23.4488 19.421 23.6396 19.2803 23.7802C19.1397 23.9209 18.9489 23.9999 18.75 23.9999H5.25001C5.05109 23.9999 4.86033 23.9209 4.71968 23.7802C4.57902 23.6396 4.50001 23.4488 4.50001 23.2499ZM20.1075 9.04038C19.796 7.47013 18.9903 6.0407 17.8083 4.9611C16.6263 3.8815 15.1299 3.20836 13.5379 3.0401C11.9459 2.87183 10.3418 3.21727 8.9602 4.0259C7.57859 4.83453 6.49189 6.06394 5.85901 7.53438C5.14926 7.45262 4.4303 7.51658 3.74613 7.72234C3.06197 7.92811 2.427 8.27135 1.8801 8.73105C1.3332 9.19075 0.885887 9.75724 0.565538 10.3958C0.245189 11.0344 0.0585491 11.7317 0.0170454 12.4449C-0.0244584 13.1581 0.0800474 13.8723 0.324164 14.5438C0.568281 15.2152 0.946872 15.8298 1.43676 16.3498C1.92664 16.8698 2.51752 17.2844 3.1732 17.5681C3.82888 17.8519 4.53557 17.9988 5.25001 17.9999H19.5C20.6417 18.0012 21.7412 17.5685 22.5757 16.7895C23.4103 16.0105 23.9176 14.9434 23.9948 13.8043C24.0721 12.6653 23.7135 11.5394 22.9917 10.6549C22.2699 9.77034 21.2389 9.1932 20.1075 9.04038ZM12.75 4.49988C14.2259 4.49958 15.6502 5.04329 16.7505 6.02705C17.8507 7.01082 18.5498 8.36561 18.714 9.83238C18.7344 10.0167 18.8223 10.1869 18.9608 10.3101C19.0993 10.4334 19.2786 10.501 19.464 10.4999H19.5C20.2957 10.4999 21.0587 10.816 21.6213 11.3786C22.1839 11.9412 22.5 12.7042 22.5 13.4999C22.5 14.2955 22.1839 15.0586 21.6213 15.6212C21.0587 16.1838 20.2957 16.4999 19.5 16.4999H5.25001C4.71912 16.4996 4.19433 16.3866 3.71037 16.1684C3.22641 15.9502 2.7943 15.6317 2.44263 15.234C2.09096 14.8363 1.82774 14.3684 1.67038 13.8614C1.51303 13.3544 1.46512 12.8197 1.52984 12.2928C1.59455 11.7658 1.77042 11.2586 2.04579 10.8048C2.32116 10.3509 2.68977 9.96062 3.12723 9.65984C3.56469 9.35905 4.06103 9.15458 4.58342 9.05994C5.1058 8.96531 5.64233 8.98267 6.15751 9.11088C6.3413 9.15673 6.53563 9.13132 6.70147 9.03978C6.8673 8.94824 6.99235 8.79734 7.05151 8.61738C7.44793 7.41915 8.21193 6.37633 9.23493 5.63715C10.2579 4.89797 11.4879 4.50003 12.75 4.49988Z" fill="black"/>
</g>
<defs>
<clipPath id="clip0_2_8071">
<rect width="24" height="24" fill="white"/>
</clipPath>
</defs>
</svg>
