<svg width="24" height="24" viewBox="0 0 24 24" fill="none" xmlns="http://www.w3.org/2000/svg">
<g clip-path="url(#clip0_2_8075)">
<path d="M4.50001 20.2499C4.50001 20.051 4.57902 19.8602 4.71968 19.7196C4.86033 19.5789 5.05109 19.4999 5.25001 19.4999H18.75C18.9489 19.4999 19.1397 19.5789 19.2803 19.7196C19.421 19.8602 19.5 20.051 19.5 20.2499C19.5 20.4488 19.421 20.6396 19.2803 20.7802C19.1397 20.9209 18.9489 20.9999 18.75 20.9999H5.25001C5.05109 20.9999 4.86033 20.9209 4.71968 20.7802C4.57902 20.6396 4.50001 20.4488 4.50001 20.2499ZM4.50001 23.2499C4.50001 23.051 4.57902 22.8602 4.71968 22.7196C4.86033 22.5789 5.05109 22.4999 5.25001 22.4999H18.75C18.9489 22.4999 19.1397 22.5789 19.2803 22.7196C19.421 22.8602 19.5 23.051 19.5 23.2499C19.5 23.4488 19.421 23.6396 19.2803 23.7802C19.1397 23.9209 18.9489 23.9999 18.75 23.9999H5.25001C5.05109 23.9999 4.86033 23.9209 4.71968 23.7802C4.57902 23.6396 4.50001 23.4488 4.50001 23.2499ZM20.1075 9.04038C19.796 7.47013 18.9903 6.0407 17.8083 4.9611C16.6263 3.8815 15.1299 3.20836 13.5379 3.0401C11.9459 2.87183 10.3418 3.21727 8.9602 4.0259C7.57859 4.83453 6.49189 6.06394 5.85901 7.53438C5.14926 7.45262 4.4303 7.51658 3.74613 7.72234C3.06197 7.92811 2.427 8.27135 1.8801 8.73105C1.3332 9.19075 0.885887 9.75724 0.565538 10.3958C0.245189 11.0344 0.0585491 11.7317 0.0170454 12.4449C-0.0244584 13.1581 0.0800474 13.8723 0.324164 14.5438C0.568281 15.2152 0.946872 15.8298 1.43676 16.3498C1.92664 16.8698 2.51752 17.2844 3.1732 17.5681C3.82888 17.8519 4.53557 17.9988 5.25001 17.9999H19.5C20.6417 18.0012 21.7412 17.5685 22.5757 16.7895C23.4103 16.0105 23.9176 14.9434 23.9948 13.8043C24.0721 12.6653 23.7135 11.5394 22.9917 10.6549C22.2699 9.77034 21.2389 9.1932 20.1075 9.04038Z" fill="black"/>
</g>
<defs>
<clipPath id="clip0_2_8075">
<rect width="24" height="24" fill="white"/>
</clipPath>
</defs>
</svg>
