<svg width="24" height="24" viewBox="0 0 24 24" fill="none" xmlns="http://www.w3.org/2000/svg">
<g clip-path="url(#clip0_2_8054)">
<path d="M12.75 3C14.4859 3.00008 16.168 3.60218 17.5097 4.70367C18.8513 5.80516 19.7694 7.33786 20.1075 9.0405C21.2389 9.19332 22.2699 9.77046 22.9917 10.655C23.7135 11.5396 24.0721 12.6654 23.9948 13.8044C23.9176 14.9435 23.4103 16.0106 22.5757 16.7896C21.7411 17.5686 20.6417 18.0013 19.5 18H5.25C3.98732 18.0003 2.76683 17.5456 1.81223 16.7191C0.857631 15.8926 0.232882 14.7497 0.0525 13.5H8.25C8.44891 13.5 8.63968 13.421 8.78033 13.2803C8.92098 13.1397 9 12.9489 9 12.75C9 12.5511 8.92098 12.3603 8.78033 12.2197C8.63968 12.079 8.44891 12 8.25 12H0.0525C0.24767 10.6458 0.963763 9.42134 2.04829 8.58728C3.13283 7.75322 4.50011 7.37548 5.859 7.5345C6.43886 6.18799 7.40056 5.0409 8.62526 4.23501C9.84995 3.42913 11.2839 2.99977 12.75 3ZM3.75 15C3.55109 15 3.36032 15.079 3.21967 15.2197C3.07902 15.3603 3 15.5511 3 15.75C3 15.9489 3.07902 16.1397 3.21967 16.2803C3.36032 16.421 3.55109 16.5 3.75 16.5H17.25C17.4489 16.5 17.6397 16.421 17.7803 16.2803C17.921 16.1397 18 15.9489 18 15.75C18 15.5511 17.921 15.3603 17.7803 15.2197C17.6397 15.079 17.4489 15 17.25 15H3.75ZM0 20.25C0 20.0511 0.0790176 19.8603 0.21967 19.7197C0.360322 19.579 0.551088 19.5 0.75 19.5H14.25C14.4489 19.5 14.6397 19.579 14.7803 19.7197C14.921 19.8603 15 20.0511 15 20.25C15 20.4489 14.921 20.6397 14.7803 20.7803C14.6397 20.921 14.4489 21 14.25 21H0.75C0.551088 21 0.360322 20.921 0.21967 20.7803C0.0790176 20.6397 0 20.4489 0 20.25Z" fill="black"/>
</g>
<defs>
<clipPath id="clip0_2_8054">
<rect width="24" height="24" fill="white"/>
</clipPath>
</defs>
</svg>
