<svg width="24" height="24" viewBox="0 0 24 24" fill="none" xmlns="http://www.w3.org/2000/svg">
<g clip-path="url(#clip0_2_8052)">
<path d="M12.75 4.50005C11.4876 4.49989 10.2573 4.89768 9.23403 5.63688C8.21073 6.37609 7.4465 7.41907 7.05 8.61755C7.02205 8.71448 6.97483 8.80478 6.91117 8.88303C6.84751 8.96129 6.76871 9.0259 6.6795 9.07299C6.59029 9.12009 6.4925 9.1487 6.39197 9.15712C6.29144 9.16554 6.19025 9.1536 6.09445 9.122C5.99865 9.0904 5.9102 9.0398 5.83441 8.97323C5.75862 8.90665 5.69704 8.82547 5.65335 8.73454C5.60966 8.64361 5.58476 8.54481 5.58015 8.44403C5.57554 8.34326 5.5913 8.24259 5.6265 8.14805C6.14716 6.57576 7.17343 5.21992 8.54531 4.29194C9.91718 3.36396 11.5576 2.91599 13.2107 3.01788C14.8638 3.11976 16.4368 3.76578 17.6843 4.8552C18.9319 5.94462 19.7839 7.41622 20.1075 9.04055C21.2389 9.19337 22.2699 9.77051 22.9917 10.6551C23.7135 11.5396 24.0721 12.6654 23.9948 13.8045C23.9176 14.9435 23.4103 16.0106 22.5757 16.7897C21.7411 17.5687 20.6417 18.0014 19.5 18.0001H6.75C6.55109 18.0001 6.36032 17.921 6.21967 17.7804C6.07902 17.6397 6 17.449 6 17.2501C6 17.0511 6.07902 16.8604 6.21967 16.7197C6.36032 16.5791 6.55109 16.5001 6.75 16.5001H19.5C20.2956 16.5003 21.0588 16.1844 21.6215 15.6219C22.1843 15.0594 22.5006 14.2965 22.5007 13.5008C22.5009 12.7052 22.1851 11.942 21.6226 11.3793C21.0601 10.8165 20.2971 10.5003 19.5015 10.5001H19.4625C19.2771 10.5012 19.0978 10.4336 18.9593 10.3103C18.8208 10.187 18.7329 10.0168 18.7125 9.83255C18.5483 8.36604 17.8495 7.01145 16.7495 6.02772C15.6496 5.04399 14.2257 4.50012 12.75 4.50005ZM0 11.2501C0 11.0511 0.0790176 10.8604 0.21967 10.7197C0.360322 10.5791 0.551088 10.5001 0.75 10.5001H8.25C8.44891 10.5001 8.63968 10.5791 8.78033 10.7197C8.92098 10.8604 9 11.0511 9 11.2501C9 11.449 8.92098 11.6397 8.78033 11.7804C8.63968 11.921 8.44891 12.0001 8.25 12.0001H0.75C0.551088 12.0001 0.360322 11.921 0.21967 11.7804C0.0790176 11.6397 0 11.449 0 11.2501ZM3 14.2501C3 14.0511 3.07902 13.8604 3.21967 13.7197C3.36032 13.5791 3.55109 13.5001 3.75 13.5001H17.25C17.4489 13.5001 17.6397 13.5791 17.7803 13.7197C17.921 13.8604 18 14.0511 18 14.2501C18 14.449 17.921 14.6397 17.7803 14.7804C17.6397 14.921 17.4489 15.0001 17.25 15.0001H3.75C3.55109 15.0001 3.36032 14.921 3.21967 14.7804C3.07902 14.6397 3 14.449 3 14.2501ZM0 20.2501C0 20.0511 0.0790176 19.8604 0.21967 19.7197C0.360322 19.5791 0.551088 19.5001 0.75 19.5001H14.25C14.4489 19.5001 14.6397 19.5791 14.7803 19.7197C14.921 19.8604 15 20.0511 15 20.2501C15 20.449 14.921 20.6397 14.7803 20.7804C14.6397 20.921 14.4489 21.0001 14.25 21.0001H0.75C0.551088 21.0001 0.360322 20.921 0.21967 20.7804C0.0790176 20.6397 0 20.449 0 20.2501Z" fill="black"/>
</g>
<defs>
<clipPath id="clip0_2_8052">
<rect width="24" height="24" fill="white"/>
</clipPath>
</defs>
</svg>
