<svg width="24" height="24" viewBox="0 0 24 24" fill="none" xmlns="http://www.w3.org/2000/svg">
<g clip-path="url(#clip0_2_8047)">
<path d="M3.98701 16.5389C4.17549 16.6019 4.33127 16.7371 4.42014 16.9148C4.50902 17.0926 4.52371 17.2983 4.46101 17.4869L3.71101 19.7369C3.68276 19.8337 3.63526 19.9239 3.57135 20.002C3.50745 20.08 3.42845 20.1444 3.33909 20.1912C3.24972 20.238 3.15183 20.2664 3.05127 20.2745C2.95071 20.2826 2.84955 20.2703 2.75384 20.2384C2.65813 20.2065 2.56984 20.1556 2.49425 20.0888C2.41867 20.022 2.35734 19.9406 2.31394 19.8495C2.27054 19.7584 2.24597 19.6595 2.24168 19.5587C2.2374 19.4579 2.25349 19.3573 2.28901 19.2629L3.03901 17.0129C3.10198 16.8244 3.23719 16.6686 3.41494 16.5797C3.59268 16.4909 3.79843 16.4762 3.98701 16.5389ZM18.237 16.5389C18.4255 16.6019 18.5813 16.7371 18.6701 16.9148C18.759 17.0926 18.7737 17.2983 18.711 17.4869L17.961 19.7369C17.8927 19.9185 17.7567 20.0665 17.5816 20.1499C17.4065 20.2334 17.2059 20.2457 17.0218 20.1844C16.8378 20.1231 16.6847 19.9928 16.5947 19.821C16.5046 19.6491 16.4847 19.4491 16.539 19.2629L17.289 17.0129C17.352 16.8244 17.4872 16.6686 17.6649 16.5797C17.8427 16.4909 18.0484 16.4762 18.237 16.5389ZM6.98701 18.7889C7.17549 18.8519 7.33127 18.9871 7.42014 19.1648C7.50902 19.3426 7.52371 19.5483 7.46101 19.7369L6.71101 21.9869C6.68276 22.0837 6.63526 22.1739 6.57135 22.252C6.50745 22.33 6.42845 22.3944 6.33909 22.4412C6.24972 22.488 6.15183 22.5163 6.05127 22.5245C5.95071 22.5326 5.84955 22.5203 5.75384 22.4884C5.65812 22.4565 5.56984 22.4056 5.49425 22.3388C5.41867 22.272 5.35734 22.1906 5.31394 22.0995C5.27054 22.0084 5.24597 21.9095 5.24168 21.8087C5.2374 21.7079 5.25349 21.6073 5.28901 21.5129L6.03901 19.2629C6.10198 19.0744 6.23719 18.9186 6.41494 18.8297C6.59268 18.7409 6.79843 18.7262 6.98701 18.7889ZM21.237 18.7889C21.4255 18.8519 21.5813 18.9871 21.6701 19.1648C21.759 19.3426 21.7737 19.5483 21.711 19.7369L20.961 21.9869C20.8927 22.1685 20.7567 22.3165 20.5816 22.3999C20.4065 22.4834 20.2059 22.4957 20.0218 22.4344C19.8378 22.3731 19.6847 22.2428 19.5947 22.071C19.5046 21.8991 19.4847 21.6991 19.539 21.5129L20.289 19.2629C20.352 19.0744 20.4872 18.9186 20.6649 18.8297C20.8427 18.7409 21.0484 18.7262 21.237 18.7889ZM10.5795 16.9139C10.6419 16.7895 10.7376 16.6848 10.856 16.6117C10.9744 16.5386 11.1108 16.4999 11.25 16.4999H12.75C12.8688 16.5 12.9858 16.5283 13.0915 16.5824C13.1972 16.6366 13.2886 16.7151 13.358 16.8115C13.4274 16.9079 13.4729 17.0194 13.4909 17.1368C13.5088 17.2542 13.4985 17.3742 13.461 17.4869L13.041 18.7499H14.25C14.3911 18.7501 14.5293 18.7901 14.6487 18.8653C14.7681 18.9406 14.8639 19.048 14.925 19.1752C14.9861 19.3024 15.0101 19.4443 14.9942 19.5845C14.9782 19.7247 14.9231 19.8576 14.835 19.9679L11.835 23.7179C11.728 23.8508 11.5788 23.9433 11.4121 23.98C11.2454 24.0167 11.0711 23.9955 10.9181 23.9198C10.7652 23.8441 10.6426 23.7184 10.5706 23.5636C10.4987 23.4088 10.4817 23.2341 10.5225 23.0684L11.04 20.9999H9.75001C9.62211 20.9999 9.49634 20.9672 9.38465 20.9049C9.27295 20.8426 9.17905 20.7527 9.11186 20.6439C9.04467 20.5351 9.00643 20.4109 9.00077 20.2831C8.9951 20.1553 9.02221 20.0282 9.07951 19.9139L10.5795 16.9139ZM20.1075 6.04038C19.796 4.47013 18.9903 3.0407 17.8083 1.9611C16.6263 0.881505 15.1299 0.208363 13.5379 0.040097C11.9459 -0.128169 10.3418 0.217267 8.9602 1.0259C7.57859 1.83453 6.49189 3.06394 5.85901 4.53438C5.14926 4.45262 4.4303 4.51658 3.74613 4.72234C3.06197 4.92811 2.427 5.27135 1.8801 5.73105C1.3332 6.19075 0.885887 6.75724 0.565538 7.39583C0.245189 8.03442 0.0585491 8.73167 0.0170454 9.4449C-0.0244584 10.1581 0.0800474 10.8723 0.324164 11.5438C0.568281 12.2152 0.946872 12.8298 1.43676 13.3498C1.92664 13.8698 2.51752 14.2844 3.1732 14.5681C3.82888 14.8519 4.53557 14.9988 5.25001 14.9999H19.5C20.6417 15.0012 21.7412 14.5685 22.5757 13.7895C23.4103 13.0105 23.9176 11.9434 23.9948 10.8043C24.0721 9.66526 23.7135 8.53944 22.9917 7.65489C22.2699 6.77034 21.2389 6.1932 20.1075 6.04038Z" fill="black"/>
</g>
<defs>
<clipPath id="clip0_2_8047">
<rect width="24" height="24" fill="white"/>
</clipPath>
</defs>
</svg>
