<svg width="24" height="24" viewBox="0 0 24 24" fill="none" xmlns="http://www.w3.org/2000/svg">
<g clip-path="url(#clip0_2_8061)">
<path d="M6.00001 17.2499C6.00001 17.051 6.07902 16.8602 6.21968 16.7196C6.36033 16.5789 6.55109 16.4999 6.75001 16.4999H20.25C20.4489 16.4999 20.6397 16.5789 20.7803 16.7196C20.921 16.8602 21 17.051 21 17.2499C21 17.4488 20.921 17.6396 20.7803 17.7802C20.6397 17.9209 20.4489 17.9999 20.25 17.9999H6.75001C6.55109 17.9999 6.36033 17.9209 6.21968 17.7802C6.07902 17.6396 6.00001 17.4488 6.00001 17.2499ZM1.50001 20.2499C1.50001 20.051 1.57902 19.8602 1.71968 19.7196C1.86033 19.5789 2.05109 19.4999 2.25001 19.4999H15.75C15.9489 19.4999 16.1397 19.5789 16.2803 19.7196C16.421 19.8602 16.5 20.051 16.5 20.2499C16.5 20.4488 16.421 20.6396 16.2803 20.7802C16.1397 20.9209 15.9489 20.9999 15.75 20.9999H2.25001C2.05109 20.9999 1.86033 20.9209 1.71968 20.7802C1.57902 20.6396 1.50001 20.4488 1.50001 20.2499ZM4.50001 23.2499C4.50001 23.051 4.57902 22.8602 4.71968 22.7196C4.86033 22.5789 5.05109 22.4999 5.25001 22.4999H18.75C18.9489 22.4999 19.1397 22.5789 19.2803 22.7196C19.421 22.8602 19.5 23.051 19.5 23.2499C19.5 23.4488 19.421 23.6396 19.2803 23.7802C19.1397 23.9209 18.9489 23.9999 18.75 23.9999H5.25001C5.05109 23.9999 4.86033 23.9209 4.71968 23.7802C4.57902 23.6396 4.50001 23.4488 4.50001 23.2499ZM20.1075 6.04038C19.796 4.47013 18.9903 3.0407 17.8083 1.9611C16.6263 0.881505 15.1299 0.208363 13.5379 0.040097C11.9459 -0.128169 10.3418 0.217267 8.9602 1.0259C7.57859 1.83453 6.49189 3.06394 5.85901 4.53438C5.14926 4.45262 4.4303 4.51658 3.74613 4.72234C3.06197 4.92811 2.427 5.27135 1.8801 5.73105C1.3332 6.19075 0.885887 6.75724 0.565538 7.39583C0.245189 8.03442 0.0585491 8.73167 0.0170454 9.4449C-0.0244584 10.1581 0.0800474 10.8723 0.324164 11.5438C0.568281 12.2152 0.946872 12.8298 1.43676 13.3498C1.92664 13.8698 2.51752 14.2844 3.1732 14.5681C3.82888 14.8519 4.53557 14.9988 5.25001 14.9999H19.5C20.6417 15.0012 21.7412 14.5685 22.5757 13.7895C23.4103 13.0105 23.9176 11.9434 23.9948 10.8043C24.0721 9.66526 23.7135 8.53944 22.9917 7.65489C22.2699 6.77034 21.2389 6.1932 20.1075 6.04038Z" fill="black"/>
</g>
<defs>
<clipPath id="clip0_2_8061">
<rect width="24" height="24" fill="white"/>
</clipPath>
</defs>
</svg>
