<svg width="24" height="24" viewBox="0 0 24 24" fill="none" xmlns="http://www.w3.org/2000/svg">
<g clip-path="url(#clip0_2_8015)">
<path d="M3.56251 20.2499C3.66196 20.2499 3.75734 20.2894 3.82767 20.3597C3.898 20.43 3.93751 20.5254 3.93751 20.6249V21.4799L4.68901 21.0494C4.77515 21.0028 4.87609 20.9918 4.97024 21.0187C5.0644 21.0456 5.14431 21.1082 5.19289 21.1932C5.24147 21.2783 5.25487 21.3789 5.23023 21.4737C5.20559 21.5684 5.14485 21.6498 5.06101 21.7004L4.31851 22.1249L5.06101 22.5494C5.10499 22.5732 5.14377 22.6055 5.17508 22.6445C5.20638 22.6834 5.22958 22.7283 5.2433 22.7763C5.25703 22.8244 5.261 22.8747 5.25499 22.9244C5.24898 22.974 5.23311 23.0219 5.2083 23.0653C5.1835 23.1087 5.15027 23.1468 5.11056 23.1771C5.07085 23.2075 5.02548 23.2296 4.97709 23.2422C4.92871 23.2548 4.8783 23.2576 4.82882 23.2504C4.77935 23.2432 4.73181 23.2262 4.68901 23.2004L3.93751 22.7714V23.6249C3.93751 23.7243 3.898 23.8197 3.82767 23.89C3.75734 23.9604 3.66196 23.9999 3.56251 23.9999C3.46305 23.9999 3.36767 23.9604 3.29734 23.89C3.22702 23.8197 3.18751 23.7243 3.18751 23.6249V22.7699L2.43601 23.2004C2.3932 23.2262 2.34566 23.2432 2.29619 23.2504C2.24671 23.2576 2.1963 23.2548 2.14792 23.2422C2.09954 23.2296 2.05416 23.2075 2.01445 23.1771C1.97475 23.1468 1.94151 23.1087 1.91671 23.0653C1.89191 23.0219 1.87603 22.974 1.87002 22.9244C1.86401 22.8747 1.86798 22.8244 1.88171 22.7763C1.89543 22.7283 1.91863 22.6834 1.94994 22.6445C1.98124 22.6055 2.02003 22.5732 2.06401 22.5494L2.80651 22.1249L2.06401 21.7004C2.02003 21.6766 1.98124 21.6443 1.94994 21.6053C1.91863 21.5663 1.89543 21.5215 1.88171 21.4734C1.86798 21.4254 1.86401 21.375 1.87002 21.3254C1.87603 21.2758 1.89191 21.2278 1.91671 21.1844C1.94151 21.141 1.97475 21.103 2.01445 21.0726C2.05416 21.0423 2.09954 21.0201 2.14792 21.0076C2.1963 20.995 2.24671 20.9922 2.29619 20.9994C2.34566 21.0066 2.3932 21.0236 2.43601 21.0494L3.18751 21.4784V20.6249C3.18751 20.5254 3.22702 20.43 3.29734 20.3597C3.36767 20.2894 3.46305 20.2499 3.56251 20.2499ZM6.33601 16.5794C6.51344 16.6685 6.64829 16.8243 6.71099 17.0127C6.7737 17.2011 6.75914 17.4067 6.67051 17.5844L5.92051 19.0844C5.828 19.2559 5.67235 19.3847 5.48652 19.4435C5.30069 19.5023 5.09928 19.4864 4.92496 19.3992C4.75064 19.3121 4.61709 19.1605 4.55261 18.9765C4.48813 18.7926 4.49777 18.5908 4.57951 18.4139L5.32951 16.9139C5.41863 16.7365 5.57447 16.6016 5.76286 16.5389C5.95126 16.4762 6.15683 16.4908 6.33451 16.5794H6.33601ZM9.56251 20.2499C9.66196 20.2499 9.75735 20.2894 9.82767 20.3597C9.898 20.43 9.93751 20.5254 9.93751 20.6249V21.4799L10.6875 21.0494C10.7738 20.9999 10.8763 20.9866 10.9724 21.0127C11.0684 21.0387 11.1502 21.1018 11.1998 21.1881C11.2493 21.2745 11.2625 21.3769 11.2365 21.473C11.2105 21.5691 11.1473 21.6509 11.061 21.7004L10.3185 22.1249L11.061 22.5494C11.105 22.5732 11.1438 22.6055 11.1751 22.6445C11.2064 22.6834 11.2296 22.7283 11.2433 22.7763C11.257 22.8244 11.261 22.8747 11.255 22.9244C11.249 22.974 11.2331 23.0219 11.2083 23.0653C11.1835 23.1087 11.1503 23.1468 11.1106 23.1771C11.0709 23.2075 11.0255 23.2296 10.9771 23.2422C10.9287 23.2548 10.8783 23.2576 10.8288 23.2504C10.7794 23.2432 10.7318 23.2262 10.689 23.2004L9.93751 22.7714V23.6249C9.93751 23.7243 9.898 23.8197 9.82767 23.89C9.75735 23.9604 9.66196 23.9999 9.56251 23.9999C9.46305 23.9999 9.36767 23.9604 9.29734 23.89C9.22701 23.8197 9.18751 23.7243 9.18751 23.6249V22.7699L8.43601 23.2004C8.3932 23.2262 8.34566 23.2432 8.29619 23.2504C8.24671 23.2576 8.1963 23.2548 8.14792 23.2422C8.09954 23.2296 8.05416 23.2075 8.01445 23.1771C7.97475 23.1468 7.94151 23.1087 7.91671 23.0653C7.89191 23.0219 7.87603 22.974 7.87002 22.9244C7.86401 22.8747 7.86798 22.8244 7.88171 22.7763C7.89543 22.7283 7.91863 22.6834 7.94993 22.6445C7.98124 22.6055 8.02003 22.5732 8.06401 22.5494L8.80651 22.1249L8.06401 21.7004C8.02003 21.6766 7.98124 21.6443 7.94993 21.6053C7.91863 21.5663 7.89543 21.5215 7.88171 21.4734C7.86798 21.4254 7.86401 21.375 7.87002 21.3254C7.87603 21.2758 7.89191 21.2278 7.91671 21.1844C7.94151 21.141 7.97475 21.103 8.01445 21.0726C8.05416 21.0423 8.09954 21.0201 8.14792 21.0076C8.1963 20.995 8.24671 20.9922 8.29619 20.9994C8.34566 21.0066 8.3932 21.0236 8.43601 21.0494L9.18751 21.4784V20.6249C9.18751 20.5254 9.22701 20.43 9.29734 20.3597C9.36767 20.2894 9.46305 20.2499 9.56251 20.2499ZM12.336 16.5794C12.5134 16.6685 12.6483 16.8243 12.711 17.0127C12.7737 17.2011 12.7591 17.4067 12.6705 17.5844L11.9205 19.0844C11.828 19.2559 11.6723 19.3847 11.4865 19.4435C11.3007 19.5023 11.0993 19.4864 10.925 19.3992C10.7506 19.3121 10.6171 19.1605 10.5526 18.9765C10.4881 18.7926 10.4978 18.5908 10.5795 18.4139L11.3295 16.9139C11.4186 16.7365 11.5745 16.6016 11.7629 16.5389C11.9513 16.4762 12.1568 16.4908 12.3345 16.5794H12.336ZM15.5625 20.2499C15.662 20.2499 15.7573 20.2894 15.8277 20.3597C15.898 20.43 15.9375 20.5254 15.9375 20.6249V21.4799L16.6875 21.0494C16.7303 21.0249 16.7774 21.009 16.8263 21.0027C16.8752 20.9964 16.9248 20.9998 16.9724 21.0127C17.0199 21.0256 17.0645 21.0477 17.1035 21.0778C17.1425 21.1079 17.1752 21.1454 17.1998 21.1881C17.2243 21.2309 17.2401 21.278 17.2464 21.3269C17.2527 21.3758 17.2494 21.4254 17.2365 21.473C17.2236 21.5206 17.2015 21.5651 17.1714 21.6041C17.1412 21.6432 17.1038 21.6759 17.061 21.7004L16.3185 22.1249L17.061 22.5494C17.105 22.5732 17.1438 22.6055 17.1751 22.6445C17.2064 22.6834 17.2296 22.7283 17.2433 22.7763C17.257 22.8244 17.261 22.8747 17.255 22.9244C17.249 22.974 17.2331 23.0219 17.2083 23.0653C17.1835 23.1087 17.1503 23.1468 17.1106 23.1771C17.0709 23.2075 17.0255 23.2296 16.9771 23.2422C16.9287 23.2548 16.8783 23.2576 16.8288 23.2504C16.7794 23.2432 16.7318 23.2262 16.689 23.2004L15.9375 22.7714V23.6249C15.9375 23.7243 15.898 23.8197 15.8277 23.89C15.7573 23.9604 15.662 23.9999 15.5625 23.9999C15.463 23.9999 15.3677 23.9604 15.2973 23.89C15.227 23.8197 15.1875 23.7243 15.1875 23.6249V22.7699L14.436 23.2004C14.3932 23.2262 14.3457 23.2432 14.2962 23.2504C14.2467 23.2576 14.1963 23.2548 14.1479 23.2422C14.0995 23.2296 14.0542 23.2075 14.0145 23.1771C13.9747 23.1468 13.9415 23.1087 13.9167 23.0653C13.8919 23.0219 13.876 22.974 13.87 22.9244C13.864 22.8747 13.868 22.8244 13.8817 22.7763C13.8954 22.7283 13.9186 22.6834 13.9499 22.6445C13.9812 22.6055 14.02 22.5732 14.064 22.5494L14.8065 22.1249L14.064 21.7004C14.02 21.6766 13.9812 21.6443 13.9499 21.6053C13.9186 21.5663 13.8954 21.5215 13.8817 21.4734C13.868 21.4254 13.864 21.375 13.87 21.3254C13.876 21.2758 13.8919 21.2278 13.9167 21.1844C13.9415 21.141 13.9747 21.103 14.0145 21.0726C14.0542 21.0423 14.0995 21.0201 14.1479 21.0076C14.1963 20.995 14.2467 20.9922 14.2962 20.9994C14.3457 21.0066 14.3932 21.0236 14.436 21.0494L15.1875 21.4784V20.6249C15.1875 20.5254 15.227 20.43 15.2973 20.3597C15.3677 20.2894 15.463 20.2499 15.5625 20.2499ZM18.336 16.5794C18.5134 16.6685 18.6483 16.8243 18.711 17.0127C18.7737 17.2011 18.7591 17.4067 18.6705 17.5844L17.9205 19.0844C17.8784 19.1756 17.8184 19.2574 17.744 19.3249C17.6697 19.3925 17.5826 19.4444 17.4878 19.4776C17.393 19.5109 17.2925 19.5247 17.1923 19.5184C17.092 19.512 16.9941 19.4856 16.9042 19.4407C16.8144 19.3958 16.7345 19.3333 16.6693 19.2569C16.604 19.1805 16.5548 19.0918 16.5245 18.996C16.4943 18.9002 16.4835 18.7994 16.493 18.6994C16.5024 18.5994 16.5318 18.5023 16.5795 18.4139L17.3295 16.9139C17.4186 16.7365 17.5745 16.6016 17.7629 16.5389C17.9513 16.4762 18.1568 16.4908 18.3345 16.5794H18.336ZM20.1075 6.04038C19.796 4.47013 18.9903 3.0407 17.8083 1.9611C16.6263 0.881505 15.1299 0.208363 13.5379 0.040097C11.9459 -0.128169 10.3418 0.217267 8.9602 1.0259C7.57859 1.83453 6.49189 3.06394 5.85901 4.53438C5.14926 4.45262 4.4303 4.51658 3.74613 4.72234C3.06197 4.92811 2.427 5.27135 1.8801 5.73105C1.3332 6.19075 0.885887 6.75724 0.565538 7.39583C0.245189 8.03442 0.0585491 8.73167 0.0170454 9.4449C-0.0244584 10.1581 0.0800474 10.8723 0.324164 11.5438C0.568281 12.2152 0.946872 12.8298 1.43676 13.3498C1.92664 13.8698 2.51752 14.2844 3.1732 14.5681C3.82888 14.8519 4.53557 14.9988 5.25001 14.9999H19.5C20.6417 15.0012 21.7412 14.5685 22.5757 13.7895C23.4103 13.0105 23.9176 11.9434 23.9948 10.8043C24.0721 9.66526 23.7135 8.53944 22.9917 7.65489C22.2699 6.77034 21.2389 6.1932 20.1075 6.04038Z" fill="black"/>
</g>
<defs>
<clipPath id="clip0_2_8015">
<rect width="24" height="24" fill="white"/>
</clipPath>
</defs>
</svg>
