<svg width="24" height="24" viewBox="0 0 24 24" fill="none" xmlns="http://www.w3.org/2000/svg">
<path d="M8.781 7.28097C8.85073 7.21124 8.90604 7.12846 8.94378 7.03735C8.98152 6.94624 9.00095 6.84859 9.00095 6.74997C9.00095 6.65135 8.98152 6.5537 8.94378 6.4626C8.90604 6.37149 8.85073 6.2887 8.781 6.21897C8.71127 6.14924 8.62848 6.09392 8.53737 6.05619C8.44626 6.01845 8.34861 5.99902 8.25 5.99902C8.15138 5.99902 8.05373 6.01845 7.96262 6.05619C7.87151 6.09392 7.78873 6.14924 7.719 6.21897L2.469 11.469C2.39915 11.5386 2.34374 11.6214 2.30593 11.7125C2.26812 11.8036 2.24866 11.9013 2.24866 12C2.24866 12.0986 2.26812 12.1963 2.30593 12.2874C2.34374 12.3785 2.39915 12.4613 2.469 12.531L7.719 17.781C7.85983 17.9218 8.05083 18.0009 8.25 18.0009C8.44916 18.0009 8.64017 17.9218 8.781 17.781C8.92183 17.6401 9.00095 17.4491 9.00095 17.25C9.00095 17.0508 8.92183 16.8598 8.781 16.719L4.0605 12L8.781 7.28097ZM15.219 7.28097C15.0782 7.14014 14.9991 6.94913 14.9991 6.74997C14.9991 6.55081 15.0782 6.3598 15.219 6.21897C15.3598 6.07814 15.5508 5.99902 15.75 5.99902C15.9492 5.99902 16.1402 6.07814 16.281 6.21897L21.531 11.469C21.6008 11.5386 21.6563 11.6214 21.6941 11.7125C21.7319 11.8036 21.7513 11.9013 21.7513 12C21.7513 12.0986 21.7319 12.1963 21.6941 12.2874C21.6563 12.3785 21.6008 12.4613 21.531 12.531L16.281 17.781C16.1402 17.9218 15.9492 18.0009 15.75 18.0009C15.5508 18.0009 15.3598 17.9218 15.219 17.781C15.0782 17.6401 14.9991 17.4491 14.9991 17.25C14.9991 17.0508 15.0782 16.8598 15.219 16.719L19.9395 12L15.219 7.28097Z" fill="black"/>
</svg>
