<svg width="24" height="24" viewBox="0 0 24 24" fill="none" xmlns="http://www.w3.org/2000/svg">
<g clip-path="url(#clip0_2_7993)">
<path d="M21 1.5C21.3978 1.5 21.7794 1.65804 22.0607 1.93934C22.342 2.22064 22.5 2.60218 22.5 3V21C22.5 21.3978 22.342 21.7794 22.0607 22.0607C21.7794 22.342 21.3978 22.5 21 22.5H3C2.60218 22.5 2.22064 22.342 1.93934 22.0607C1.65804 21.7794 1.5 21.3978 1.5 21V3C1.5 2.60218 1.65804 2.22064 1.93934 1.93934C2.22064 1.65804 2.60218 1.5 3 1.5H21ZM3 0C2.20435 0 1.44129 0.316071 0.87868 0.87868C0.316071 1.44129 0 2.20435 0 3L0 21C0 21.7956 0.316071 22.5587 0.87868 23.1213C1.44129 23.6839 2.20435 24 3 24H21C21.7956 24 22.5587 23.6839 23.1213 23.1213C23.6839 22.5587 24 21.7956 24 21V3C24 2.20435 23.6839 1.44129 23.1213 0.87868C22.5587 0.316071 21.7956 0 21 0L3 0Z" fill="black"/>
<path d="M10.281 6.96888C10.3508 7.03854 10.4063 7.12131 10.4441 7.21242C10.4819 7.30354 10.5013 7.40122 10.5013 7.49988C10.5013 7.59853 10.4819 7.69621 10.4441 7.78733C10.4063 7.87844 10.3508 7.96121 10.281 8.03088L6.3105 11.9999L10.281 15.9689C10.4218 16.1097 10.5009 16.3007 10.5009 16.4999C10.5009 16.699 10.4218 16.89 10.281 17.0309C10.1402 17.1717 9.94916 17.2508 9.75 17.2508C9.55083 17.2508 9.35983 17.1717 9.219 17.0309L4.719 12.5309C4.64915 12.4612 4.59374 12.3784 4.55593 12.2873C4.51812 12.1962 4.49866 12.0985 4.49866 11.9999C4.49866 11.9012 4.51812 11.8035 4.55593 11.7124C4.59374 11.6213 4.64915 11.5385 4.719 11.4689L9.219 6.96888C9.28867 6.89903 9.37143 6.84362 9.46255 6.80581C9.55367 6.768 9.65135 6.74854 9.75 6.74854C9.84865 6.74854 9.94633 6.768 10.0374 6.80581C10.1286 6.84362 10.2113 6.89903 10.281 6.96888ZM13.719 6.96888C13.6492 7.03854 13.5937 7.12131 13.5559 7.21242C13.5181 7.30354 13.4987 7.40122 13.4987 7.49988C13.4987 7.59853 13.5181 7.69621 13.5559 7.78733C13.5937 7.87844 13.6492 7.96121 13.719 8.03088L17.6895 11.9999L13.719 15.9689C13.5782 16.1097 13.4991 16.3007 13.4991 16.4999C13.4991 16.699 13.5782 16.89 13.719 17.0309C13.8598 17.1717 14.0508 17.2508 14.25 17.2508C14.4492 17.2508 14.6402 17.1717 14.781 17.0309L19.281 12.5309C19.3508 12.4612 19.4063 12.3784 19.4441 12.2873C19.4819 12.1962 19.5013 12.0985 19.5013 11.9999C19.5013 11.9012 19.4819 11.8035 19.4441 11.7124C19.4063 11.6213 19.3508 11.5385 19.281 11.4689L14.781 6.96888C14.7113 6.89903 14.6286 6.84362 14.5374 6.80581C14.4463 6.768 14.3486 6.74854 14.25 6.74854C14.1513 6.74854 14.0537 6.768 13.9625 6.80581C13.8714 6.84362 13.7887 6.89903 13.719 6.96888Z" fill="black"/>
</g>
<defs>
<clipPath id="clip0_2_7993">
<rect width="24" height="24" fill="white"/>
</clipPath>
</defs>
</svg>
