<svg width="24" height="24" viewBox="0 0 24 24" fill="none" xmlns="http://www.w3.org/2000/svg">
<g clip-path="url(#clip0_2_7989)">
<path d="M8.25 14.2665C8.364 15.6975 9.495 16.812 11.523 16.944V18H12.423V16.9365C14.523 16.7895 15.75 15.6675 15.75 14.0385C15.75 12.558 14.811 11.7945 13.1325 11.3985L12.423 11.2305V8.355C13.323 8.457 13.896 8.949 14.034 9.63H15.612C15.498 8.2515 14.316 7.173 12.423 7.056V6H11.523V7.0785C9.7305 7.254 8.508 8.3325 8.508 9.858C8.508 11.208 9.417 12.066 10.9275 12.4185L11.523 12.5655V15.6165C10.6005 15.477 9.99 14.9715 9.852 14.2665H8.25ZM11.5155 11.0175C10.6305 10.812 10.1505 10.3935 10.1505 9.7635C10.1505 9.0585 10.668 8.5305 11.523 8.376V11.016H11.5155V11.0175ZM12.5535 12.807C13.629 13.056 14.1255 13.4595 14.1255 14.172C14.1255 14.985 13.5075 15.543 12.423 15.645V12.777L12.5535 12.807Z" fill="black"/>
<path d="M12 22.5C9.21523 22.5 6.54451 21.3938 4.57538 19.4246C2.60625 17.4555 1.5 14.7848 1.5 12C1.5 9.21523 2.60625 6.54451 4.57538 4.57538C6.54451 2.60625 9.21523 1.5 12 1.5C14.7848 1.5 17.4555 2.60625 19.4246 4.57538C21.3938 6.54451 22.5 9.21523 22.5 12C22.5 14.7848 21.3938 17.4555 19.4246 19.4246C17.4555 21.3938 14.7848 22.5 12 22.5ZM12 24C15.1826 24 18.2348 22.7357 20.4853 20.4853C22.7357 18.2348 24 15.1826 24 12C24 8.8174 22.7357 5.76516 20.4853 3.51472C18.2348 1.26428 15.1826 0 12 0C8.8174 0 5.76516 1.26428 3.51472 3.51472C1.26428 5.76516 0 8.8174 0 12C0 15.1826 1.26428 18.2348 3.51472 20.4853C5.76516 22.7357 8.8174 24 12 24Z" fill="black"/>
<path d="M12 20.25C9.81196 20.25 7.71354 19.3808 6.16637 17.8336C4.61919 16.2865 3.75 14.188 3.75 12C3.75 9.81196 4.61919 7.71354 6.16637 6.16637C7.71354 4.61919 9.81196 3.75 12 3.75C14.188 3.75 16.2865 4.61919 17.8336 6.16637C19.3808 7.71354 20.25 9.81196 20.25 12C20.25 14.188 19.3808 16.2865 17.8336 17.8336C16.2865 19.3808 14.188 20.25 12 20.25ZM12 21C13.1819 21 14.3522 20.7672 15.4442 20.3149C16.5361 19.8626 17.5282 19.1997 18.364 18.364C19.1997 17.5282 19.8626 16.5361 20.3149 15.4442C20.7672 14.3522 21 13.1819 21 12C21 10.8181 20.7672 9.64778 20.3149 8.55585C19.8626 7.46392 19.1997 6.47177 18.364 5.63604C17.5282 4.80031 16.5361 4.13738 15.4442 3.68508C14.3522 3.23279 13.1819 3 12 3C9.61305 3 7.32387 3.94821 5.63604 5.63604C3.94821 7.32387 3 9.61305 3 12C3 14.3869 3.94821 16.6761 5.63604 18.364C7.32387 20.0518 9.61305 21 12 21Z" fill="black"/>
</g>
<defs>
<clipPath id="clip0_2_7989">
<rect width="24" height="24" fill="white"/>
</clipPath>
</defs>
</svg>
