<svg width="24" height="24" viewBox="0 0 24 24" fill="none" xmlns="http://www.w3.org/2000/svg">
<path d="M3 4.5C3 4.69891 3.07902 4.88968 3.21967 5.03033C3.36032 5.17098 3.55109 5.25 3.75 5.25H20.25C20.4489 5.25 20.6397 5.17098 20.7803 5.03033C20.921 4.88968 21 4.69891 21 4.5C21 4.30109 20.921 4.11032 20.7803 3.96967C20.6397 3.82902 20.4489 3.75 20.25 3.75H3.75C3.55109 3.75 3.36032 3.82902 3.21967 3.96967C3.07902 4.11032 3 4.30109 3 4.5ZM6 1.5C6 1.69891 6.07902 1.88968 6.21967 2.03033C6.36032 2.17098 6.55109 2.25 6.75 2.25H17.25C17.4489 2.25 17.6397 2.17098 17.7803 2.03033C17.921 1.88968 18 1.69891 18 1.5C18 1.30109 17.921 1.11032 17.7803 0.96967C17.6397 0.829018 17.4489 0.75 17.25 0.75H6.75C6.55109 0.75 6.36032 0.829018 6.21967 0.96967C6.07902 1.11032 6 1.30109 6 1.5ZM10.1475 9.864C10.034 9.79305 9.90352 9.75377 9.76969 9.75026C9.63585 9.74674 9.50352 9.77912 9.38642 9.84402C9.26933 9.90892 9.17174 10.004 9.10379 10.1193C9.03584 10.2347 9 10.3661 9 10.5V18C9 18.1339 9.03584 18.2653 9.10379 18.3807C9.17174 18.496 9.26933 18.5911 9.38642 18.656C9.50352 18.7209 9.63585 18.7533 9.76969 18.7497C9.90352 18.7462 10.034 18.707 10.1475 18.636L16.1475 14.886C16.2554 14.8186 16.3443 14.7248 16.406 14.6136C16.4676 14.5023 16.5 14.3772 16.5 14.25C16.5 14.1228 16.4676 13.9977 16.406 13.8864C16.3443 13.7752 16.2554 13.6814 16.1475 13.614L10.1475 9.864Z" fill="black"/>
<path d="M2.25 21.75C1.65326 21.75 1.08097 21.5129 0.65901 21.091C0.237053 20.669 0 20.0967 0 19.5L0 9C0 8.40326 0.237053 7.83097 0.65901 7.40901C1.08097 6.98705 1.65326 6.75 2.25 6.75H21.75C22.3467 6.75 22.919 6.98705 23.341 7.40901C23.7629 7.83097 24 8.40326 24 9V19.5C24 20.0967 23.7629 20.669 23.341 21.091C22.919 21.5129 22.3467 21.75 21.75 21.75H2.25ZM21.75 20.25C21.9489 20.25 22.1397 20.171 22.2803 20.0303C22.421 19.8897 22.5 19.6989 22.5 19.5V9C22.5 8.80109 22.421 8.61032 22.2803 8.46967C22.1397 8.32902 21.9489 8.25 21.75 8.25H2.25C2.05109 8.25 1.86032 8.32902 1.71967 8.46967C1.57902 8.61032 1.5 8.80109 1.5 9V19.5C1.5 19.6989 1.57902 19.8897 1.71967 20.0303C1.86032 20.171 2.05109 20.25 2.25 20.25H21.75Z" fill="black"/>
</svg>
