<svg width="24" height="24" viewBox="0 0 24 24" fill="none" xmlns="http://www.w3.org/2000/svg">
<g clip-path="url(#clip0_2_7977)">
<path d="M23.25 12.774C23.2497 14.8723 22.6625 16.9287 21.5549 18.7109C20.4472 20.493 18.8632 21.9299 16.9818 22.8591C15.1005 23.7882 12.9967 24.1728 10.9083 23.9691C8.81989 23.7655 6.83004 22.9819 5.1636 21.7068C3.49715 20.4317 2.22053 18.7159 1.47798 16.7534C0.735426 14.7908 0.556543 12.6597 0.961539 10.6009C1.36653 8.54201 2.33927 6.63745 3.76983 5.10238C5.20039 3.56731 7.03176 2.46292 9.057 1.914C8.99285 1.69058 8.98149 1.45531 9.02384 1.22675C9.06618 0.998196 9.16106 0.782607 9.301 0.596999C9.44093 0.411391 9.62208 0.260844 9.83016 0.157239C10.0382 0.0536335 10.2676 -0.000195296 10.5 5.32406e-07H13.5C13.7325 -0.000195296 13.9618 0.0536335 14.1698 0.157239C14.3779 0.260844 14.5591 0.411391 14.699 0.596999C14.8389 0.782607 14.9338 0.998196 14.9762 1.22675C15.0185 1.45531 15.0072 1.69058 14.943 1.914C17.3278 2.56116 19.4334 3.97522 20.9347 5.93794C22.436 7.90066 23.2496 10.3029 23.25 12.774ZM17.835 6.9165L10.41 11.1585L6.165 18.585L13.59 14.343L17.832 6.918L17.835 6.9165Z" fill="black"/>
</g>
<defs>
<clipPath id="clip0_2_7977">
<rect width="24" height="24" fill="white"/>
</clipPath>
</defs>
</svg>
