<svg width="24" height="24" viewBox="0 0 24 24" fill="none" xmlns="http://www.w3.org/2000/svg">
<path d="M10.545 2.82009C10.923 1.30509 13.077 1.30509 13.455 2.82009L17.8125 20.2501H21C21.1989 20.2501 21.3897 20.3291 21.5303 20.4698C21.671 20.6104 21.75 20.8012 21.75 21.0001C21.75 21.199 21.671 21.3898 21.5303 21.5304C21.3897 21.6711 21.1989 21.7501 21 21.7501H3C2.80109 21.7501 2.61032 21.6711 2.46967 21.5304C2.32902 21.3898 2.25 21.199 2.25 21.0001C2.25 20.8012 2.32902 20.6104 2.46967 20.4698C2.61032 20.3291 2.80109 20.2501 3 20.2501H6.1875L10.545 2.82009Z" fill="black"/>
</svg>
