<svg width="24" height="24" viewBox="0 0 24 24" fill="none" xmlns="http://www.w3.org/2000/svg">
<path d="M17.25 9.04053C17.25 9.23944 17.171 9.4302 17.0303 9.57086C16.8897 9.71151 16.6989 9.79053 16.5 9.79053C16.3011 9.79053 16.1103 9.71151 15.9697 9.57086C15.829 9.4302 15.75 9.23944 15.75 9.04053C15.75 8.84161 15.829 8.65085 15.9697 8.5102C16.1103 8.36955 16.3011 8.29053 16.5 8.29053C16.6989 8.29053 16.8897 8.36955 17.0303 8.5102C17.171 8.65085 17.25 8.84161 17.25 9.04053ZM15 11.2905C15.1989 11.2905 15.3897 11.2115 15.5303 11.0709C15.671 10.9302 15.75 10.7394 15.75 10.5405C15.75 10.3416 15.671 10.1508 15.5303 10.0102C15.3897 9.86954 15.1989 9.79053 15 9.79053C14.8011 9.79053 14.6103 9.86954 14.4697 10.0102C14.329 10.1508 14.25 10.3416 14.25 10.5405C14.25 10.7394 14.329 10.9302 14.4697 11.0709C14.6103 11.2115 14.8011 11.2905 15 11.2905ZM18.75 10.5405C18.75 10.7394 18.671 10.9302 18.5303 11.0709C18.3897 11.2115 18.1989 11.2905 18 11.2905C17.8011 11.2905 17.6103 11.2115 17.4697 11.0709C17.329 10.9302 17.25 10.7394 17.25 10.5405C17.25 10.3416 17.329 10.1508 17.4697 10.0102C17.6103 9.86954 17.8011 9.79053 18 9.79053C18.1989 9.79053 18.3897 9.86954 18.5303 10.0102C18.671 10.1508 18.75 10.3416 18.75 10.5405ZM16.5 12.7905C16.6989 12.7905 16.8897 12.7115 17.0303 12.5709C17.171 12.4302 17.25 12.2394 17.25 12.0405C17.25 11.8416 17.171 11.6508 17.0303 11.5102C16.8897 11.3695 16.6989 11.2905 16.5 11.2905C16.3011 11.2905 16.1103 11.3695 15.9697 11.5102C15.829 11.6508 15.75 11.8416 15.75 12.0405C15.75 12.2394 15.829 12.4302 15.9697 12.5709C16.1103 12.7115 16.3011 12.7905 16.5 12.7905ZM6.75 8.29053H8.25V9.79053H9.75V11.2905H8.25V12.7905H6.75V11.2905H5.25V9.79053H6.75V8.29053Z" fill="black"/>
<path d="M4.57652 4.88991C4.5509 4.79466 4.54431 4.6953 4.55715 4.59751C4.56998 4.49972 4.60197 4.40542 4.65129 4.32001C4.70061 4.2346 4.7663 4.15976 4.84459 4.09977C4.92287 4.03978 5.01222 3.99582 5.10752 3.97041L8.00552 3.19341C8.10515 3.16686 8.20918 3.16113 8.31112 3.17659C8.41305 3.19206 8.51071 3.22837 8.59798 3.28327C8.68526 3.33817 8.76028 3.41047 8.81835 3.49566C8.87643 3.58085 8.91631 3.67711 8.93552 3.77841C9.91802 3.65991 10.9605 3.60291 12 3.60291C13.08 3.60291 14.1645 3.66441 15.18 3.79191C15.1976 3.68907 15.2363 3.59102 15.2939 3.50403C15.3515 3.41704 15.4266 3.34302 15.5144 3.28669C15.6022 3.23036 15.7008 3.19297 15.8039 3.17691C15.9069 3.16085 16.0122 3.16647 16.113 3.19341L19.011 3.97041C19.1216 4.00001 19.2239 4.05453 19.3102 4.12979C19.3964 4.20506 19.4643 4.29907 19.5086 4.40462C19.5529 4.51017 19.5725 4.62446 19.5658 4.73874C19.5591 4.85302 19.5263 4.96425 19.47 5.06391C19.68 5.19891 19.869 5.34891 20.0295 5.50941C20.6415 6.12141 21.1995 7.08441 21.672 8.16741C22.152 9.26691 22.5705 10.5539 22.8795 11.8664C23.1885 13.1789 23.3895 14.5364 23.4255 15.7754C23.4615 16.9994 23.337 18.1784 22.9335 19.0904C22.7495 19.4999 22.4408 19.8407 22.0516 20.0643C21.6623 20.2879 21.2124 20.3828 20.766 20.3354C19.812 20.2349 19.0935 19.7444 18.4965 19.1759C18.129 18.8279 17.7525 18.3869 17.388 17.9639C17.199 17.7419 17.013 17.5259 16.836 17.3294C15.744 16.1234 14.4405 15.0389 12 15.0389C9.55952 15.0389 8.25602 16.1234 7.16402 17.3294C6.98552 17.5259 6.80102 17.7419 6.61202 17.9639C6.24752 18.3869 5.87102 18.8264 5.50352 19.1759C4.90652 19.7459 4.18802 20.2349 3.23402 20.3354C2.78763 20.3828 2.33769 20.2879 1.94844 20.0643C1.55919 19.8407 1.25053 19.4999 1.06652 19.0904C0.661519 18.1784 0.538519 16.9979 0.573019 15.7754C0.609019 14.5364 0.813019 13.1804 1.12052 11.8664C1.42952 10.5539 1.84952 9.26691 2.32802 8.16741C2.80052 7.08441 3.35852 6.12141 3.96902 5.50941C4.16511 5.31707 4.3831 5.14842 4.61852 5.00691C4.60125 4.96864 4.5872 4.929 4.57652 4.88841V4.88991ZM7.63052 5.50791C6.31502 5.78541 5.42702 6.17241 5.03102 6.56991C4.61702 6.98391 4.15052 7.74441 3.70352 8.76741C3.22931 9.87979 2.85386 11.0317 2.58152 12.2099C2.29381 13.3933 2.12349 14.6021 2.07302 15.8189C2.04002 16.9514 2.16602 17.8709 2.43752 18.4829C2.49312 18.6021 2.58464 18.7009 2.69923 18.7655C2.81383 18.83 2.94576 18.8571 3.07652 18.8429C3.56702 18.7919 3.99152 18.5444 4.47002 18.0899C4.78802 17.7869 5.07002 17.4554 5.39252 17.0789C5.59202 16.8449 5.80652 16.5944 6.05252 16.3229C7.29152 14.9534 8.96702 13.5404 12 13.5404C15.033 13.5404 16.7085 14.9534 17.9475 16.3229C18.1935 16.5944 18.408 16.8449 18.6075 17.0789C18.9285 17.4554 19.212 17.7869 19.53 18.0899C20.007 18.5444 20.4315 18.7919 20.9235 18.8444C21.0545 18.8585 21.1865 18.8312 21.3011 18.7664C21.4157 18.7015 21.5072 18.6024 21.5625 18.4829C21.8325 17.8709 21.96 16.9529 21.927 15.8189C21.8765 14.6021 21.7062 13.3933 21.4185 12.2099C21.1461 11.0317 20.7707 9.8798 20.2965 8.76741C19.8495 7.74441 19.3815 6.98241 18.969 6.56991C18.573 6.17241 17.685 5.78541 16.3695 5.50791C15.0945 5.23941 13.554 5.10291 12 5.10291C10.446 5.10291 8.90552 5.23941 7.63052 5.50791Z" fill="black"/>
</svg>
