<svg width="24" height="24" viewBox="0 0 24 24" fill="none" xmlns="http://www.w3.org/2000/svg">
<g clip-path="url(#clip0_2_7970)">
<path d="M7.5 0C7.69891 0 7.88968 0.0790176 8.03033 0.21967C8.17098 0.360322 8.25 0.551088 8.25 0.75V3H9.75V0.75C9.75 0.551088 9.82902 0.360322 9.96967 0.21967C10.1103 0.0790176 10.3011 0 10.5 0C10.6989 0 10.8897 0.0790176 11.0303 0.21967C11.171 0.360322 11.25 0.551088 11.25 0.75V3H12.75V0.75C12.75 0.551088 12.829 0.360322 12.9697 0.21967C13.1103 0.0790176 13.3011 0 13.5 0C13.6989 0 13.8897 0.0790176 14.0303 0.21967C14.171 0.360322 14.25 0.551088 14.25 0.75V3H15.75V0.75C15.75 0.551088 15.829 0.360322 15.9697 0.21967C16.1103 0.0790176 16.3011 0 16.5 0C16.6989 0 16.8897 0.0790176 17.0303 0.21967C17.171 0.360322 17.25 0.551088 17.25 0.75V3C18.2446 3 19.1984 3.39509 19.9016 4.09835C20.6049 4.80161 21 5.75544 21 6.75H23.25C23.4489 6.75 23.6397 6.82902 23.7803 6.96967C23.921 7.11032 24 7.30109 24 7.5C24 7.69891 23.921 7.88968 23.7803 8.03033C23.6397 8.17098 23.4489 8.25 23.25 8.25H21V9.75H23.25C23.4489 9.75 23.6397 9.82902 23.7803 9.96967C23.921 10.1103 24 10.3011 24 10.5C24 10.6989 23.921 10.8897 23.7803 11.0303C23.6397 11.171 23.4489 11.25 23.25 11.25H21V12.75H23.25C23.4489 12.75 23.6397 12.829 23.7803 12.9697C23.921 13.1103 24 13.3011 24 13.5C24 13.6989 23.921 13.8897 23.7803 14.0303C23.6397 14.171 23.4489 14.25 23.25 14.25H21V15.75H23.25C23.4489 15.75 23.6397 15.829 23.7803 15.9697C23.921 16.1103 24 16.3011 24 16.5C24 16.6989 23.921 16.8897 23.7803 17.0303C23.6397 17.171 23.4489 17.25 23.25 17.25H21C21 18.2446 20.6049 19.1984 19.9016 19.9016C19.1984 20.6049 18.2446 21 17.25 21V23.25C17.25 23.4489 17.171 23.6397 17.0303 23.7803C16.8897 23.921 16.6989 24 16.5 24C16.3011 24 16.1103 23.921 15.9697 23.7803C15.829 23.6397 15.75 23.4489 15.75 23.25V21H14.25V23.25C14.25 23.4489 14.171 23.6397 14.0303 23.7803C13.8897 23.921 13.6989 24 13.5 24C13.3011 24 13.1103 23.921 12.9697 23.7803C12.829 23.6397 12.75 23.4489 12.75 23.25V21H11.25V23.25C11.25 23.4489 11.171 23.6397 11.0303 23.7803C10.8897 23.921 10.6989 24 10.5 24C10.3011 24 10.1103 23.921 9.96967 23.7803C9.82902 23.6397 9.75 23.4489 9.75 23.25V21H8.25V23.25C8.25 23.4489 8.17098 23.6397 8.03033 23.7803C7.88968 23.921 7.69891 24 7.5 24C7.30109 24 7.11032 23.921 6.96967 23.7803C6.82902 23.6397 6.75 23.4489 6.75 23.25V21C5.75544 21 4.80161 20.6049 4.09835 19.9016C3.39509 19.1984 3 18.2446 3 17.25H0.75C0.551088 17.25 0.360322 17.171 0.21967 17.0303C0.0790176 16.8897 0 16.6989 0 16.5C0 16.3011 0.0790176 16.1103 0.21967 15.9697C0.360322 15.829 0.551088 15.75 0.75 15.75H3V14.25H0.75C0.551088 14.25 0.360322 14.171 0.21967 14.0303C0.0790176 13.8897 0 13.6989 0 13.5C0 13.3011 0.0790176 13.1103 0.21967 12.9697C0.360322 12.829 0.551088 12.75 0.75 12.75H3V11.25H0.75C0.551088 11.25 0.360322 11.171 0.21967 11.0303C0.0790176 10.8897 0 10.6989 0 10.5C0 10.3011 0.0790176 10.1103 0.21967 9.96967C0.360322 9.82902 0.551088 9.75 0.75 9.75H3V8.25H0.75C0.551088 8.25 0.360322 8.17098 0.21967 8.03033C0.0790176 7.88968 0 7.69891 0 7.5C0 7.30109 0.0790176 7.11032 0.21967 6.96967C0.360322 6.82902 0.551088 6.75 0.75 6.75H3C3 5.75544 3.39509 4.80161 4.09835 4.09835C4.80161 3.39509 5.75544 3 6.75 3V0.75C6.75 0.551088 6.82902 0.360322 6.96967 0.21967C7.11032 0.0790176 7.30109 0 7.5 0V0ZM6.75 4.5C6.15326 4.5 5.58097 4.73705 5.15901 5.15901C4.73705 5.58097 4.5 6.15326 4.5 6.75V17.25C4.5 17.8467 4.73705 18.419 5.15901 18.841C5.58097 19.2629 6.15326 19.5 6.75 19.5H17.25C17.8467 19.5 18.419 19.2629 18.841 18.841C19.2629 18.419 19.5 17.8467 19.5 17.25V6.75C19.5 6.15326 19.2629 5.58097 18.841 5.15901C18.419 4.73705 17.8467 4.5 17.25 4.5H6.75ZM7.5 9.75C7.5 9.15326 7.73705 8.58097 8.15901 8.15901C8.58097 7.73705 9.15326 7.5 9.75 7.5H14.25C14.8467 7.5 15.419 7.73705 15.841 8.15901C16.2629 8.58097 16.5 9.15326 16.5 9.75V14.25C16.5 14.8467 16.2629 15.419 15.841 15.841C15.419 16.2629 14.8467 16.5 14.25 16.5H9.75C9.15326 16.5 8.58097 16.2629 8.15901 15.841C7.73705 15.419 7.5 14.8467 7.5 14.25V9.75ZM9.75 9C9.55109 9 9.36032 9.07902 9.21967 9.21967C9.07902 9.36032 9 9.55109 9 9.75V14.25C9 14.4489 9.07902 14.6397 9.21967 14.7803C9.36032 14.921 9.55109 15 9.75 15H14.25C14.4489 15 14.6397 14.921 14.7803 14.7803C14.921 14.6397 15 14.4489 15 14.25V9.75C15 9.55109 14.921 9.36032 14.7803 9.21967C14.6397 9.07902 14.4489 9 14.25 9H9.75Z" fill="black"/>
</g>
<defs>
<clipPath id="clip0_2_7970">
<rect width="24" height="24" fill="white"/>
</clipPath>
</defs>
</svg>
