<svg width="24" height="24" viewBox="0 0 24 24" fill="none" xmlns="http://www.w3.org/2000/svg">
<path d="M6 12.8775H8.9535C9.126 13.575 9.2325 14.286 9.2325 15.0225C9.2325 17.1 8.1285 18.7665 6.12 19.179V21H18V19.14H9.738V18.9465C10.9755 18.159 11.4405 16.7775 11.4405 14.9055C11.4405 14.208 11.3355 13.536 11.1885 12.8775H16.1235V11.4195H10.83C10.551 10.335 10.272 9.237 10.272 8.049C10.272 6.138 11.8425 4.95 14.142 4.95C15.2301 4.96499 16.3036 5.20236 17.2965 5.6475V3.684C16.2615 3.2399 15.1482 3.00734 14.022 3C10.2975 3 7.983 4.9365 7.983 8.049C7.983 9.2115 8.2755 10.3215 8.5815 11.4195H6V12.8775Z" fill="black"/>
</svg>
