<svg width="24" height="24" viewBox="0 0 24 24" fill="none" xmlns="http://www.w3.org/2000/svg">
<g clip-path="url(#clip0_2_8120)">
<path d="M0 7.50006C0.000366235 9.23587 0.602572 10.9179 1.70401 12.2594C2.80545 13.601 4.33799 14.5192 6.0405 14.8576C6.13747 13.7829 6.41326 12.7319 6.8565 11.7481C5.5425 11.3041 4.698 10.2961 4.5 8.86506H3.75V8.22606H4.449V7.57506C4.449 7.50606 4.449 7.43556 4.455 7.37256H3.75V6.73206H4.5165C4.854 4.86006 6.3195 3.75006 8.5215 3.75006C8.9955 3.75006 9.4065 3.79656 9.75 3.87756V4.97706C9.34881 4.8878 8.93843 4.84651 8.5275 4.85406C7.149 4.85406 6.2205 5.55306 5.9265 6.73206H8.802V7.37256H5.832C5.8275 7.44156 5.8275 7.51806 5.8275 7.59306V8.22606H8.802V8.86656H5.895C6.072 9.76956 6.597 10.4116 7.4025 10.7101C8.19231 9.40201 9.2785 8.29789 10.5735 7.48678C11.8684 6.67567 13.3359 6.18028 14.8575 6.04056C14.4896 4.21883 13.4587 2.59846 11.9645 1.49333C10.4703 0.388203 8.61905 -0.12303 6.76944 0.0586627C4.91984 0.240355 3.20349 1.10204 1.95287 2.47681C0.702244 3.85157 0.00635546 5.64157 0 7.50006H0ZM24 15.7501C24 17.9381 23.1308 20.0365 21.5836 21.5837C20.0365 23.1309 17.938 24.0001 15.75 24.0001C13.562 24.0001 11.4635 23.1309 9.91637 21.5837C8.36919 20.0365 7.5 17.9381 7.5 15.7501C7.5 13.562 8.36919 11.4636 9.91637 9.91643C11.4635 8.36926 13.562 7.50006 15.75 7.50006C17.938 7.50006 20.0365 8.36926 21.5836 9.91643C23.1308 11.4636 24 13.562 24 15.7501ZM12.375 17.7331C12.4785 18.9856 13.494 19.9606 15.321 20.0761V21.0001H16.131V20.0701C18.0195 19.9411 19.125 18.9601 19.125 17.5351C19.125 16.2376 18.2805 15.5701 16.77 15.2251L16.131 15.0751V12.5611C16.941 12.6511 17.457 13.0816 17.58 13.6786H19.002C18.897 12.4726 17.8335 11.5291 16.131 11.4256V10.5001H15.321V11.4436C13.707 11.5981 12.609 12.5416 12.609 13.8766C12.609 15.0571 13.425 15.8086 14.784 16.1161L15.321 16.2436V18.9136C14.49 18.7936 13.941 18.3496 13.8165 17.7331H12.375ZM15.315 14.8906C14.517 14.7106 14.085 14.3446 14.085 13.7926C14.085 13.1776 14.5515 12.7141 15.321 12.5791V14.8891H15.3135L15.315 14.8906ZM16.248 16.4566C17.2155 16.6741 17.6625 17.0266 17.6625 17.6506C17.6625 18.3616 17.1075 18.8506 16.1325 18.9406V16.4296L16.248 16.4566Z" fill="black"/>
</g>
<defs>
<clipPath id="clip0_2_8120">
<rect width="24" height="24" fill="white"/>
</clipPath>
</defs>
</svg>
