<svg width="24" height="24" viewBox="0 0 24 24" fill="none" xmlns="http://www.w3.org/2000/svg">
<g clip-path="url(#clip0_2_7992)">
<path d="M3.75 0C3.501 0 3.255 0.024 3.0195 0.072L3.3105 1.542C3.45528 1.51372 3.60248 1.49965 3.75 1.5H4.437V0H3.75ZM7.188 0H5.8125V1.5H7.188V0ZM9.9375 0H8.562V1.5H9.9375V0ZM12.687 0H11.313V1.5H12.687V0ZM15.438 0H14.0625V1.5H15.438V0ZM18.1875 0H16.812V1.5H18.1875V0ZM20.25 0H19.563V1.5H20.25C20.4 1.5 20.5485 1.515 20.6895 1.5435L20.9805 0.072C20.7399 0.0242638 20.4953 0.000149176 20.25 0V0ZM23.3685 1.665C23.0943 1.25618 22.7427 0.90506 22.3335 0.6315L21.4995 1.878C21.7455 2.043 21.957 2.2545 22.122 2.5005L23.367 1.6665L23.3685 1.665ZM1.665 0.6315C1.25618 0.905653 0.90506 1.25728 0.6315 1.6665L1.878 2.5005C2.043 2.2545 2.2545 2.043 2.5005 1.878L1.665 0.633V0.6315ZM24 3.75C24 3.501 23.976 3.255 23.928 3.0195L22.458 3.3105C22.485 3.4515 22.5 3.5985 22.5 3.75V4.437H24V3.75ZM0.072 3.0195C0.0242638 3.26007 0.000149176 3.50474 0 3.75L0 4.437H1.5V3.75C1.5 3.6 1.515 3.4515 1.5435 3.3105L0.072 3.0195ZM0 5.8125V7.188H1.5V5.8125H0ZM24 7.188V5.8125H22.5V7.188H24ZM0 8.562V9.9375H1.5V8.562H0ZM24 9.9375V8.562H22.5V9.9375H24ZM0 11.313V12.687H1.5V11.313H0ZM22.5 12.687H24V11.313H22.5V12.687ZM0 14.0625V15.438H1.5V14.0625H0ZM24 15.438V14.0625H22.5V15.438H24ZM0 16.812V18.1875H1.5V16.812H0ZM24 18.1875V16.812H22.5V18.1875H24ZM0 19.563V20.25C0 20.499 0.024 20.745 0.072 20.9805L1.542 20.6895C1.51372 20.5447 1.49965 20.3975 1.5 20.25V19.563H0ZM24 20.25V19.563H22.5V20.25C22.5 20.4 22.485 20.5485 22.4565 20.6895L23.928 20.9805C23.976 20.7435 24 20.5005 24 20.25ZM0.6315 22.335C0.906 22.743 1.257 23.094 1.6665 23.3685L2.5005 22.122C2.25428 21.9572 2.04279 21.7457 1.878 21.4995L0.633 22.3335L0.6315 22.335ZM22.335 23.3685C22.743 23.094 23.094 22.743 23.3685 22.3335L22.122 21.4995C21.957 21.7455 21.7455 21.957 21.4995 22.122L22.3335 23.367L22.335 23.3685ZM3.0195 23.928C3.2565 23.976 3.4995 24 3.75 24H4.437V22.5H3.75C3.6 22.5 3.4515 22.485 3.3105 22.4565L3.0195 23.928ZM20.25 24C20.499 24 20.745 23.976 20.9805 23.928L20.6895 22.458C20.5447 22.4863 20.3975 22.5003 20.25 22.5H19.563V24H20.25ZM5.8125 24H7.188V22.5H5.8125V24ZM8.562 24H9.9375V22.5H8.562V24ZM11.313 24H12.687V22.5H11.313V24ZM14.0625 24H15.438V22.5H14.0625V24ZM16.812 24H18.1875V22.5H16.812V24ZM6.75 11.25C6.55109 11.25 6.36032 11.329 6.21967 11.4697C6.07902 11.6103 6 11.8011 6 12C6 12.1989 6.07902 12.3897 6.21967 12.5303C6.36032 12.671 6.55109 12.75 6.75 12.75H17.25C17.4489 12.75 17.6397 12.671 17.7803 12.5303C17.921 12.3897 18 12.1989 18 12C18 11.8011 17.921 11.6103 17.7803 11.4697C17.6397 11.329 17.4489 11.25 17.25 11.25H6.75Z" fill="black"/>
</g>
<defs>
<clipPath id="clip0_2_7992">
<rect width="24" height="24" fill="white"/>
</clipPath>
</defs>
</svg>
