<svg width="24" height="24" viewBox="0 0 24 24" fill="none" xmlns="http://www.w3.org/2000/svg">
<g clip-path="url(#clip0_2_7940)">
<path fill-rule="evenodd" clip-rule="evenodd" d="M6 0C5.20435 0 4.44129 0.316071 3.87868 0.87868C3.31607 1.44129 3 2.20435 3 3V21C3 21.7956 3.31607 22.5587 3.87868 23.1213C4.44129 23.6839 5.20435 24 6 24H18C18.7956 24 19.5587 23.6839 20.1213 23.1213C20.6839 22.5587 21 21.7956 21 21V3C21 2.20435 20.6839 1.44129 20.1213 0.87868C19.5587 0.316071 18.7956 0 18 0L6 0ZM6 2.25C6 2.44891 5.92098 2.63968 5.78033 2.78033C5.63968 2.92098 5.44891 3 5.25 3C5.05109 3 4.86032 2.92098 4.71967 2.78033C4.57902 2.63968 4.5 2.44891 4.5 2.25C4.5 2.05109 4.57902 1.86032 4.71967 1.71967C4.86032 1.57902 5.05109 1.5 5.25 1.5C5.44891 1.5 5.63968 1.57902 5.78033 1.71967C5.92098 1.86032 6 2.05109 6 2.25ZM19.5 2.25C19.5 2.44891 19.421 2.63968 19.2803 2.78033C19.1397 2.92098 18.9489 3 18.75 3C18.5511 3 18.3603 2.92098 18.2197 2.78033C18.079 2.63968 18 2.44891 18 2.25C18 2.05109 18.079 1.86032 18.2197 1.71967C18.3603 1.57902 18.5511 1.5 18.75 1.5C18.9489 1.5 19.1397 1.57902 19.2803 1.71967C19.421 1.86032 19.5 2.05109 19.5 2.25ZM5.25 16.5C5.44891 16.5 5.63968 16.421 5.78033 16.2803C5.92098 16.1397 6 15.9489 6 15.75C6 15.5511 5.92098 15.3603 5.78033 15.2197C5.63968 15.079 5.44891 15 5.25 15C5.05109 15 4.86032 15.079 4.71967 15.2197C4.57902 15.3603 4.5 15.5511 4.5 15.75C4.5 15.9489 4.57902 16.1397 4.71967 16.2803C4.86032 16.421 5.05109 16.5 5.25 16.5ZM19.5 15.75C19.5 15.9489 19.421 16.1397 19.2803 16.2803C19.1397 16.421 18.9489 16.5 18.75 16.5C18.5511 16.5 18.3603 16.421 18.2197 16.2803C18.079 16.1397 18 15.9489 18 15.75C18 15.5511 18.079 15.3603 18.2197 15.2197C18.3603 15.079 18.5511 15 18.75 15C18.9489 15 19.1397 15.079 19.2803 15.2197C19.421 15.3603 19.5 15.5511 19.5 15.75ZM7.125 4.5C6.82663 4.5 6.54048 4.61853 6.3295 4.8295C6.11853 5.04048 6 5.32663 6 5.625V12.375C6 12.996 6.504 13.5 7.125 13.5H16.875C17.1734 13.5 17.4595 13.3815 17.6705 13.1705C17.8815 12.9595 18 12.6734 18 12.375V5.625C18 5.32663 17.8815 5.04048 17.6705 4.8295C17.4595 4.61853 17.1734 4.5 16.875 4.5H7.125ZM7.5 12V6H16.5V12H7.5ZM7.5 18C7.10218 18 6.72064 18.158 6.43934 18.4393C6.15804 18.7206 6 19.1022 6 19.5V22.5H7.5V19.5H8.625V22.5H10.125V19.5H11.25V22.5H12.75V19.5H13.875V22.5H15.375V19.5H16.5V22.5H18V19.5C18 19.1022 17.842 18.7206 17.5607 18.4393C17.2794 18.158 16.8978 18 16.5 18H7.5Z" fill="black"/>
</g>
<defs>
<clipPath id="clip0_2_7940">
<rect width="24" height="24" fill="white"/>
</clipPath>
</defs>
</svg>
