<svg width="24" height="24" viewBox="0 0 24 24" fill="none" xmlns="http://www.w3.org/2000/svg">
<path fill-rule="evenodd" clip-rule="evenodd" d="M3 3C3 2.20435 3.31607 1.44129 3.87868 0.87868C4.44129 0.316071 5.20435 0 6 0L18 0C18.7956 0 19.5587 0.316071 20.1213 0.87868C20.6839 1.44129 21 2.20435 21 3V21C21 21.7956 20.6839 22.5587 20.1213 23.1213C19.5587 23.6839 18.7956 24 18 24H6C5.20435 24 4.44129 23.6839 3.87868 23.1213C3.31607 22.5587 3 21.7956 3 21V3ZM6 1.5C5.60218 1.5 5.22064 1.65804 4.93934 1.93934C4.65804 2.22064 4.5 2.60218 4.5 3V21C4.5 21.3978 4.65804 21.7794 4.93934 22.0607C5.22064 22.342 5.60218 22.5 6 22.5H18C18.3978 22.5 18.7794 22.342 19.0607 22.0607C19.342 21.7794 19.5 21.3978 19.5 21V3C19.5 2.60218 19.342 2.22064 19.0607 1.93934C18.7794 1.65804 18.3978 1.5 18 1.5H6ZM18 3.75C18 3.94891 17.921 4.13968 17.7803 4.28033C17.6397 4.42098 17.4489 4.5 17.25 4.5C17.0511 4.5 16.8603 4.42098 16.7197 4.28033C16.579 4.13968 16.5 3.94891 16.5 3.75C16.5 3.55109 16.579 3.36032 16.7197 3.21967C16.8603 3.07902 17.0511 3 17.25 3C17.4489 3 17.6397 3.07902 17.7803 3.21967C17.921 3.36032 18 3.55109 18 3.75ZM18 20.25C18 20.4489 17.921 20.6397 17.7803 20.7803C17.6397 20.921 17.4489 21 17.25 21C17.0511 21 16.8603 20.921 16.7197 20.7803C16.579 20.6397 16.5 20.4489 16.5 20.25C16.5 20.0511 16.579 19.8603 16.7197 19.7197C16.8603 19.579 17.0511 19.5 17.25 19.5C17.4489 19.5 17.6397 19.579 17.7803 19.7197C17.921 19.8603 18 20.0511 18 20.25ZM6.75 21C6.94891 21 7.13968 20.921 7.28033 20.7803C7.42098 20.6397 7.5 20.4489 7.5 20.25C7.5 20.0511 7.42098 19.8603 7.28033 19.7197C7.13968 19.579 6.94891 19.5 6.75 19.5C6.55109 19.5 6.36032 19.579 6.21967 19.7197C6.07902 19.8603 6 20.0511 6 20.25C6 20.4489 6.07902 20.6397 6.21967 20.7803C6.36032 20.921 6.55109 21 6.75 21ZM7.5 3.75C7.5 3.94891 7.42098 4.13968 7.28033 4.28033C7.13968 4.42098 6.94891 4.5 6.75 4.5C6.55109 4.5 6.36032 4.42098 6.21967 4.28033C6.07902 4.13968 6 3.94891 6 3.75C6 3.55109 6.07902 3.36032 6.21967 3.21967C6.36032 3.07902 6.55109 3 6.75 3C6.94891 3 7.13968 3.07902 7.28033 3.21967C7.42098 3.36032 7.5 3.55109 7.5 3.75ZM16.5 10.5C16.4999 11.4884 16.1745 12.4493 15.5741 13.2344C14.9736 14.0195 14.1314 14.5851 13.1775 14.844C13.512 14.328 13.83 13.833 14.1045 13.404C14.3205 13.068 13.932 12.6795 13.5945 12.894C12.7575 13.4325 11.664 14.1375 10.6635 14.799C9.6361 14.4787 8.75745 13.8009 8.18678 12.8885C7.61612 11.9761 7.39121 10.8895 7.55282 9.82551C7.71442 8.76155 8.25186 7.79068 9.0677 7.08888C9.88355 6.38708 10.9238 6.00078 12 6C13.1935 6 14.3381 6.47411 15.182 7.31802C16.0259 8.16193 16.5 9.30653 16.5 10.5ZM18 10.5C18.0002 12.0751 17.381 13.587 16.2762 14.7096C15.1713 15.8321 13.6694 16.4752 12.0945 16.5C11.289 17.7195 10.5645 18.7725 10.323 19.0155C10.0129 19.3258 9.59222 19.5002 9.15353 19.5003C8.71484 19.5005 8.29405 19.3264 7.98375 19.0163C7.67345 18.7061 7.49904 18.2855 7.4989 17.8468C7.49876 17.4081 7.6729 16.9873 7.983 16.677C8.133 16.53 8.577 16.206 9.1755 15.795C7.99429 15.1655 7.05749 14.1591 6.51409 12.9359C5.97069 11.7127 5.8519 10.3429 6.17661 9.04442C6.50132 7.74593 7.25088 6.59329 8.30608 5.76984C9.36128 4.94639 10.6615 4.49941 12 4.5C13.5913 4.5 15.1174 5.13214 16.2426 6.25736C17.3679 7.38258 18 8.9087 18 10.5ZM12 12C12.3978 12 12.7794 11.842 13.0607 11.5607C13.342 11.2794 13.5 10.8978 13.5 10.5C13.5 10.1022 13.342 9.72064 13.0607 9.43934C12.7794 9.15804 12.3978 9 12 9C11.6022 9 11.2206 9.15804 10.9393 9.43934C10.658 9.72064 10.5 10.1022 10.5 10.5C10.5 10.8978 10.658 11.2794 10.9393 11.5607C11.2206 11.842 11.6022 12 12 12Z" fill="black"/>
</svg>
