<svg width="24" height="24" viewBox="0 0 24 24" fill="none" xmlns="http://www.w3.org/2000/svg">
<g clip-path="url(#clip0_2_7985)">
<path fill-rule="evenodd" clip-rule="evenodd" d="M6 0C5.20435 0 4.44129 0.316071 3.87868 0.87868C3.31607 1.44129 3 2.20435 3 3V21C3 21.7956 3.31607 22.5587 3.87868 23.1213C4.44129 23.6839 5.20435 24 6 24H18C18.7956 24 19.5587 23.6839 20.1213 23.1213C20.6839 22.5587 21 21.7956 21 21V3C21 2.20435 20.6839 1.44129 20.1213 0.87868C19.5587 0.316071 18.7956 0 18 0L6 0ZM19.5 2.25C19.5 2.44891 19.421 2.63968 19.2803 2.78033C19.1397 2.92098 18.9489 3 18.75 3C18.5511 3 18.3603 2.92098 18.2197 2.78033C18.079 2.63968 18 2.44891 18 2.25C18 2.05109 18.079 1.86032 18.2197 1.71967C18.3603 1.57902 18.5511 1.5 18.75 1.5C18.9489 1.5 19.1397 1.57902 19.2803 1.71967C19.421 1.86032 19.5 2.05109 19.5 2.25ZM19.5 21.75C19.5 21.9489 19.421 22.1397 19.2803 22.2803C19.1397 22.421 18.9489 22.5 18.75 22.5C18.5511 22.5 18.3603 22.421 18.2197 22.2803C18.079 22.1397 18 21.9489 18 21.75C18 21.5511 18.079 21.3603 18.2197 21.2197C18.3603 21.079 18.5511 21 18.75 21C18.9489 21 19.1397 21.079 19.2803 21.2197C19.421 21.3603 19.5 21.5511 19.5 21.75ZM5.25 22.5C5.44891 22.5 5.63968 22.421 5.78033 22.2803C5.92098 22.1397 6 21.9489 6 21.75C6 21.5511 5.92098 21.3603 5.78033 21.2197C5.63968 21.079 5.44891 21 5.25 21C5.05109 21 4.86032 21.079 4.71967 21.2197C4.57902 21.3603 4.5 21.5511 4.5 21.75C4.5 21.9489 4.57902 22.1397 4.71967 22.2803C4.86032 22.421 5.05109 22.5 5.25 22.5ZM6 2.25C6 2.44891 5.92098 2.63968 5.78033 2.78033C5.63968 2.92098 5.44891 3 5.25 3C5.05109 3 4.86032 2.92098 4.71967 2.78033C4.57902 2.63968 4.5 2.44891 4.5 2.25C4.5 2.05109 4.57902 1.86032 4.71967 1.71967C4.86032 1.57902 5.05109 1.5 5.25 1.5C5.44891 1.5 5.63968 1.57902 5.78033 1.71967C5.92098 1.86032 6 2.05109 6 2.25ZM10.323 19.0155C10.0129 19.3258 9.59222 19.5002 9.15353 19.5003C8.71484 19.5005 8.29405 19.3264 7.98375 19.0163C7.67345 18.7061 7.49904 18.2855 7.4989 17.8468C7.49883 17.6296 7.54155 17.4145 7.62461 17.2137C7.70767 17.013 7.82945 16.8306 7.983 16.677C8.133 16.53 8.577 16.206 9.1755 15.795C7.88703 15.1079 6.89336 13.9745 6.38072 12.6072C5.86807 11.2399 5.87164 9.73261 6.39075 8.36776C6.90986 7.00292 7.90888 5.87423 9.20059 5.19322C10.4923 4.51222 11.988 4.32564 13.4074 4.66846C14.8268 5.01128 16.0725 5.85996 16.911 7.05546C17.7495 8.25095 18.1233 9.71119 17.9622 11.1625C17.8012 12.6138 17.1164 13.9566 16.0362 14.9392C14.956 15.9218 13.5545 16.4767 12.0945 16.5C11.289 17.7195 10.5645 18.7725 10.323 19.0155ZM13.1775 14.8455C14.2298 14.5596 15.1426 13.9013 15.7462 12.9931C16.3498 12.0849 16.6032 10.9885 16.4593 9.90751C16.3154 8.82654 15.784 7.83457 14.9638 7.11588C14.1437 6.3972 13.0905 6.00068 12 6C10.9233 5.99958 9.88222 6.38519 9.06559 7.08684C8.24897 7.78849 7.71098 8.75968 7.54927 9.82412C7.38756 10.8886 7.61286 11.9757 8.18426 12.8882C8.75566 13.8007 9.63529 14.4782 10.6635 14.7975C11.664 14.1375 12.7575 13.4325 13.596 12.8955C13.932 12.6795 14.3205 13.068 14.106 13.4055L13.176 14.8455H13.1775ZM13.5 10.5C13.5 10.8978 13.342 11.2794 13.0607 11.5607C12.7794 11.842 12.3978 12 12 12C11.6022 12 11.2206 11.842 10.9393 11.5607C10.658 11.2794 10.5 10.8978 10.5 10.5C10.5 10.1022 10.658 9.72064 10.9393 9.43934C11.2206 9.15804 11.6022 9 12 9C12.3978 9 12.7794 9.15804 13.0607 9.43934C13.342 9.72064 13.5 10.1022 13.5 10.5Z" fill="black"/>
</g>
<defs>
<clipPath id="clip0_2_7985">
<rect width="24" height="24" fill="white"/>
</clipPath>
</defs>
</svg>
