<svg width="24" height="24" viewBox="0 0 24 24" fill="none" xmlns="http://www.w3.org/2000/svg">
<path fill-rule="evenodd" clip-rule="evenodd" d="M9 5.25C9 4.65326 9.23705 4.08097 9.65901 3.65901C10.081 3.23705 10.6533 3 11.25 3H12.75C13.3467 3 13.919 3.23705 14.341 3.65901C14.7629 4.08097 15 4.65326 15 5.25V6.75C15 7.34674 14.7629 7.91903 14.341 8.34099C13.919 8.76295 13.3467 9 12.75 9V10.5H21C21.1989 10.5 21.3897 10.579 21.5303 10.7197C21.671 10.8603 21.75 11.0511 21.75 11.25V12.75C21.75 12.9489 21.671 13.1397 21.5303 13.2803C21.3897 13.421 21.1989 13.5 21 13.5C20.8011 13.5 20.6103 13.421 20.4697 13.2803C20.329 13.1397 20.25 12.9489 20.25 12.75V12H12.75V12.75C12.75 12.9489 12.671 13.1397 12.5303 13.2803C12.3897 13.421 12.1989 13.5 12 13.5C11.8011 13.5 11.6103 13.421 11.4697 13.2803C11.329 13.1397 11.25 12.9489 11.25 12.75V12H3.75V12.75C3.75 12.9489 3.67098 13.1397 3.53033 13.2803C3.38968 13.421 3.19891 13.5 3 13.5C2.80109 13.5 2.61032 13.421 2.46967 13.2803C2.32902 13.1397 2.25 12.9489 2.25 12.75V11.25C2.25 11.0511 2.32902 10.8603 2.46967 10.7197C2.61032 10.579 2.80109 10.5 3 10.5H11.25V9C10.6533 9 10.081 8.76295 9.65901 8.34099C9.23705 7.91903 9 7.34674 9 6.75V5.25ZM0 17.25C0 16.6533 0.237053 16.081 0.65901 15.659C1.08097 15.2371 1.65326 15 2.25 15H3.75C4.34674 15 4.91903 15.2371 5.34099 15.659C5.76295 16.081 6 16.6533 6 17.25V18.75C6 19.3467 5.76295 19.919 5.34099 20.341C4.91903 20.7629 4.34674 21 3.75 21H2.25C1.65326 21 1.08097 20.7629 0.65901 20.341C0.237053 19.919 0 19.3467 0 18.75L0 17.25ZM9 17.25C9 16.6533 9.23705 16.081 9.65901 15.659C10.081 15.2371 10.6533 15 11.25 15H12.75C13.3467 15 13.919 15.2371 14.341 15.659C14.7629 16.081 15 16.6533 15 17.25V18.75C15 19.3467 14.7629 19.919 14.341 20.341C13.919 20.7629 13.3467 21 12.75 21H11.25C10.6533 21 10.081 20.7629 9.65901 20.341C9.23705 19.919 9 19.3467 9 18.75V17.25ZM18 17.25C18 16.6533 18.2371 16.081 18.659 15.659C19.081 15.2371 19.6533 15 20.25 15H21.75C22.3467 15 22.919 15.2371 23.341 15.659C23.7629 16.081 24 16.6533 24 17.25V18.75C24 19.3467 23.7629 19.919 23.341 20.341C22.919 20.7629 22.3467 21 21.75 21H20.25C19.6533 21 19.081 20.7629 18.659 20.341C18.2371 19.919 18 19.3467 18 18.75V17.25Z" fill="black"/>
</svg>
