<svg width="24" height="24" viewBox="0 0 24 24" fill="none" xmlns="http://www.w3.org/2000/svg">
<path fill-rule="evenodd" clip-rule="evenodd" d="M9 5.25C9 4.65326 9.23705 4.08097 9.65901 3.65901C10.081 3.23705 10.6533 3 11.25 3H12.75C13.3467 3 13.919 3.23705 14.341 3.65901C14.7629 4.08097 15 4.65326 15 5.25V6.75C15 7.34674 14.7629 7.91903 14.341 8.34099C13.919 8.76295 13.3467 9 12.75 9V10.5H16.5C16.6989 10.5 16.8897 10.579 17.0303 10.7197C17.171 10.8603 17.25 11.0511 17.25 11.25V12.75C17.25 12.9489 17.171 13.1397 17.0303 13.2803C16.8897 13.421 16.6989 13.5 16.5 13.5C16.3011 13.5 16.1103 13.421 15.9697 13.2803C15.829 13.1397 15.75 12.9489 15.75 12.75V12H8.25V12.75C8.25 12.9489 8.17098 13.1397 8.03033 13.2803C7.88968 13.421 7.69891 13.5 7.5 13.5C7.30109 13.5 7.11032 13.421 6.96967 13.2803C6.82902 13.1397 6.75 12.9489 6.75 12.75V11.25C6.75 11.0511 6.82902 10.8603 6.96967 10.7197C7.11032 10.579 7.30109 10.5 7.5 10.5H11.25V9C10.6533 9 10.081 8.76295 9.65901 8.34099C9.23705 7.91903 9 7.34674 9 6.75V5.25ZM12.75 7.5C12.9489 7.5 13.1397 7.42098 13.2803 7.28033C13.421 7.13968 13.5 6.94891 13.5 6.75V5.25C13.5 5.05109 13.421 4.86032 13.2803 4.71967C13.1397 4.57902 12.9489 4.5 12.75 4.5H11.25C11.0511 4.5 10.8603 4.57902 10.7197 4.71967C10.579 4.86032 10.5 5.05109 10.5 5.25V6.75C10.5 6.94891 10.579 7.13968 10.7197 7.28033C10.8603 7.42098 11.0511 7.5 11.25 7.5H12.75ZM4.5 17.25C4.5 16.6533 4.73705 16.081 5.15901 15.659C5.58097 15.2371 6.15326 15 6.75 15H8.25C8.84674 15 9.41903 15.2371 9.84099 15.659C10.2629 16.081 10.5 16.6533 10.5 17.25V18.75C10.5 19.3467 10.2629 19.919 9.84099 20.341C9.41903 20.7629 8.84674 21 8.25 21H6.75C6.15326 21 5.58097 20.7629 5.15901 20.341C4.73705 19.919 4.5 19.3467 4.5 18.75V17.25ZM6.75 16.5C6.55109 16.5 6.36032 16.579 6.21967 16.7197C6.07902 16.8603 6 17.0511 6 17.25V18.75C6 18.9489 6.07902 19.1397 6.21967 19.2803C6.36032 19.421 6.55109 19.5 6.75 19.5H8.25C8.44891 19.5 8.63968 19.421 8.78033 19.2803C8.92098 19.1397 9 18.9489 9 18.75V17.25C9 17.0511 8.92098 16.8603 8.78033 16.7197C8.63968 16.579 8.44891 16.5 8.25 16.5H6.75ZM13.5 17.25C13.5 16.6533 13.7371 16.081 14.159 15.659C14.581 15.2371 15.1533 15 15.75 15H17.25C17.8467 15 18.419 15.2371 18.841 15.659C19.2629 16.081 19.5 16.6533 19.5 17.25V18.75C19.5 19.3467 19.2629 19.919 18.841 20.341C18.419 20.7629 17.8467 21 17.25 21H15.75C15.1533 21 14.581 20.7629 14.159 20.341C13.7371 19.919 13.5 19.3467 13.5 18.75V17.25ZM15.75 16.5C15.5511 16.5 15.3603 16.579 15.2197 16.7197C15.079 16.8603 15 17.0511 15 17.25V18.75C15 18.9489 15.079 19.1397 15.2197 19.2803C15.3603 19.421 15.5511 19.5 15.75 19.5H17.25C17.4489 19.5 17.6397 19.421 17.7803 19.2803C17.921 19.1397 18 18.9489 18 18.75V17.25C18 17.0511 17.921 16.8603 17.7803 16.7197C17.6397 16.579 17.4489 16.5 17.25 16.5H15.75Z" fill="black"/>
</svg>
