<svg width="24" height="24" viewBox="0 0 24 24" fill="none" xmlns="http://www.w3.org/2000/svg">
<g clip-path="url(#clip0_2_7921)">
<path d="M20.3175 4.36056C18.7613 3.64636 17.1191 3.13662 15.432 2.84406C15.4167 2.84149 15.401 2.84371 15.3871 2.85042C15.3731 2.85714 15.3615 2.86802 15.354 2.88156C15.1425 3.25656 14.9085 3.74706 14.745 4.13106C12.9264 3.85507 11.0766 3.85507 9.25801 4.13106C9.07563 3.70329 8.8693 3.28613 8.64001 2.88156C8.63231 2.86816 8.62074 2.85741 8.60682 2.85072C8.5929 2.84403 8.57728 2.8417 8.56201 2.84406C6.87451 3.13506 5.23201 3.64506 3.67651 4.36056C3.6632 4.36564 3.65206 4.37518 3.64501 4.38756C0.534009 9.03606 -0.319491 13.5706 0.0990092 18.0481C0.100509 18.0691 0.114009 18.0901 0.130509 18.1036C1.9421 19.4455 3.9684 20.47 6.12301 21.1336C6.13822 21.1384 6.15457 21.1382 6.16967 21.1331C6.18478 21.1279 6.19786 21.1181 6.20701 21.1051C6.66901 20.4751 7.08001 19.8106 7.43401 19.1116C7.44139 19.0972 7.44391 19.0808 7.44121 19.0648C7.43851 19.0489 7.43072 19.0342 7.41901 19.0231C7.41126 19.0157 7.40206 19.0101 7.39201 19.0066C6.74575 18.7582 6.11985 18.4598 5.52001 18.1141C5.50325 18.1046 5.49079 18.089 5.48521 18.0706C5.47962 18.0521 5.48134 18.0323 5.49001 18.0151C5.49511 18.0039 5.50283 17.9941 5.51251 17.9866C5.63851 17.8921 5.76451 17.7931 5.88451 17.6941C5.89511 17.6855 5.90783 17.6801 5.9213 17.6782C5.93478 17.6764 5.9485 17.6782 5.96101 17.6836C9.88951 19.4776 14.142 19.4776 18.0225 17.6836C18.0355 17.6779 18.0497 17.676 18.0637 17.6778C18.0777 17.6797 18.091 17.6853 18.102 17.6941C18.222 17.7931 18.348 17.8921 18.474 17.9866C18.4842 17.994 18.4924 18.0039 18.4979 18.0153C18.5033 18.0267 18.5059 18.0393 18.5053 18.0519C18.5047 18.0646 18.501 18.0768 18.4945 18.0877C18.488 18.0985 18.4789 18.1076 18.468 18.1141C17.8695 18.4629 17.2428 18.761 16.5945 19.0051C16.5842 19.0088 16.5748 19.0148 16.567 19.0226C16.5592 19.0303 16.5533 19.0397 16.5495 19.0501C16.546 19.0601 16.5446 19.0707 16.5454 19.0813C16.5462 19.0918 16.5491 19.1022 16.554 19.1116C16.914 19.8091 17.3265 20.4751 17.7795 21.1051C17.7887 21.1181 17.8017 21.1279 17.8168 21.1331C17.8319 21.1382 17.8483 21.1384 17.8635 21.1336C20.0217 20.4721 22.0513 19.4474 23.865 18.1036C23.8741 18.0973 23.8816 18.089 23.8871 18.0794C23.8926 18.0698 23.8958 18.0591 23.8965 18.0481C24.3975 12.8716 23.058 8.37456 20.3475 4.38906C20.3448 4.38248 20.3407 4.37654 20.3355 4.37163C20.3304 4.36672 20.3242 4.36295 20.3175 4.36056ZM8.02051 15.3211C6.83701 15.3211 5.86351 14.2351 5.86351 12.9031C5.86351 11.5696 6.81901 10.4836 8.02051 10.4836C9.23101 10.4836 10.1955 11.5786 10.1775 12.9031C10.1775 14.2351 9.22201 15.3211 8.02051 15.3211ZM15.9945 15.3211C14.8125 15.3211 13.8375 14.2351 13.8375 12.9031C13.8375 11.5696 14.793 10.4836 15.9945 10.4836C17.205 10.4836 18.171 11.5786 18.1515 12.9031C18.1515 14.2351 17.205 15.3211 15.9945 15.3211Z" fill="black"/>
</g>
<defs>
<clipPath id="clip0_2_7921">
<rect width="24" height="24" fill="white"/>
</clipPath>
</defs>
</svg>
