<svg width="24" height="24" viewBox="0 0 24 24" fill="none" xmlns="http://www.w3.org/2000/svg">
<g clip-path="url(#clip0_2_7923)">
<path d="M24 12C24 15.1826 22.7357 18.2348 20.4853 20.4853C18.2348 22.7357 15.1826 24 12 24C8.8174 24 5.76516 22.7357 3.51472 20.4853C1.26428 18.2348 0 15.1826 0 12C0 8.8174 1.26428 5.76516 3.51472 3.51472C5.76516 1.26428 8.8174 0 12 0C15.1826 0 18.2348 1.26428 20.4853 3.51472C22.7357 5.76516 24 8.8174 24 12ZM15 12C15 11.2044 14.6839 10.4413 14.1213 9.87868C13.5587 9.31607 12.7956 9 12 9C11.2044 9 10.4413 9.31607 9.87868 9.87868C9.31607 10.4413 9 11.2044 9 12C9 12.7956 9.31607 13.5587 9.87868 14.1213C10.4413 14.6839 11.2044 15 12 15C12.7956 15 13.5587 14.6839 14.1213 14.1213C14.6839 13.5587 15 12.7956 15 12ZM6 12C6 10.4087 6.63214 8.88258 7.75736 7.75736C8.88258 6.63214 10.4087 6 12 6C12.1989 6 12.3897 5.92098 12.5303 5.78033C12.671 5.63968 12.75 5.44891 12.75 5.25C12.75 5.05109 12.671 4.86032 12.5303 4.71967C12.3897 4.57902 12.1989 4.5 12 4.5C10.0109 4.5 8.10322 5.29018 6.6967 6.6967C5.29018 8.10322 4.5 10.0109 4.5 12C4.5 12.1989 4.57902 12.3897 4.71967 12.5303C4.86032 12.671 5.05109 12.75 5.25 12.75C5.44891 12.75 5.63968 12.671 5.78033 12.5303C5.92098 12.3897 6 12.1989 6 12ZM19.5 12C19.5 11.8011 19.421 11.6103 19.2803 11.4697C19.1397 11.329 18.9489 11.25 18.75 11.25C18.5511 11.25 18.3603 11.329 18.2197 11.4697C18.079 11.6103 18 11.8011 18 12C18 13.5913 17.3679 15.1174 16.2426 16.2426C15.1174 17.3679 13.5913 18 12 18C11.8011 18 11.6103 18.079 11.4697 18.2197C11.329 18.3603 11.25 18.5511 11.25 18.75C11.25 18.9489 11.329 19.1397 11.4697 19.2803C11.6103 19.421 11.8011 19.5 12 19.5C13.9891 19.5 15.8968 18.7098 17.3033 17.3033C18.7098 15.8968 19.5 13.9891 19.5 12Z" fill="black"/>
</g>
<defs>
<clipPath id="clip0_2_7923">
<rect width="24" height="24" fill="white"/>
</clipPath>
</defs>
</svg>
