<svg width="24" height="24" viewBox="0 0 24 24" fill="none" xmlns="http://www.w3.org/2000/svg">
<g clip-path="url(#clip0_2_7915)">
<path fill-rule="evenodd" clip-rule="evenodd" d="M1.5 7.5C1.10218 7.5 0.720644 7.65804 0.43934 7.93934C0.158035 8.22064 0 8.60218 0 9L0 13.7865C0.000148723 14.065 0.0778246 14.3379 0.224328 14.5748C0.370832 14.8116 0.580379 15.003 0.8295 15.1275L3.2565 16.3425C3.46476 16.4463 3.69431 16.5002 3.927 16.5H22.5C22.8978 16.5 23.2794 16.342 23.5607 16.0607C23.842 15.7794 24 15.3978 24 15V9C24 8.60218 23.842 8.22064 23.5607 7.93934C23.2794 7.65804 22.8978 7.5 22.5 7.5H1.5ZM3.75 10.5C3.55109 10.5 3.36032 10.579 3.21967 10.7197C3.07902 10.8603 3 11.0511 3 11.25V12.75C3 12.9489 3.07902 13.1397 3.21967 13.2803C3.36032 13.421 3.55109 13.5 3.75 13.5C3.94891 13.5 4.13968 13.421 4.28033 13.2803C4.42098 13.1397 4.5 12.9489 4.5 12.75V12H19.5V12.75C19.5 12.9489 19.579 13.1397 19.7197 13.2803C19.8603 13.421 20.0511 13.5 20.25 13.5C20.4489 13.5 20.6397 13.421 20.7803 13.2803C20.921 13.1397 21 12.9489 21 12.75V11.25C21 11.0511 20.921 10.8603 20.7803 10.7197C20.6397 10.579 20.4489 10.5 20.25 10.5H3.75Z" fill="black"/>
</g>
<defs>
<clipPath id="clip0_2_7915">
<rect width="24" height="24" fill="white"/>
</clipPath>
</defs>
</svg>
