<svg width="24" height="24" viewBox="0 0 24 24" fill="none" xmlns="http://www.w3.org/2000/svg">
<path d="M2.25 22.4999C2.05109 22.4999 1.86032 22.5789 1.71967 22.7196C1.57902 22.8602 1.5 23.051 1.5 23.2499C1.5 23.4488 1.57902 23.6396 1.71967 23.7802C1.86032 23.9209 2.05109 23.9999 2.25 23.9999H21.75C21.9489 23.9999 22.1397 23.9209 22.2803 23.7802C22.421 23.6396 22.5 23.4488 22.5 23.2499C22.5 23.051 22.421 22.8602 22.2803 22.7196C22.1397 22.5789 21.9489 22.4999 21.75 22.4999H19.5V3.74989C19.5 3.15315 19.2629 2.58085 18.841 2.1589C18.419 1.73694 17.8467 1.49989 17.25 1.49989H16.5V0.749886C16.5 0.642533 16.4769 0.536433 16.4324 0.43876C16.3878 0.341087 16.3228 0.254116 16.2418 0.183725C16.1607 0.113335 16.0655 0.0611657 15.9625 0.0307439C15.8596 0.000322198 15.7513 -0.0076431 15.645 0.00738643L5.145 1.50739C4.96608 1.53268 4.8023 1.62173 4.6838 1.75815C4.56529 1.89457 4.50003 2.06918 4.5 2.24989V22.4999H2.25ZM16.5 2.99989H17.25C17.4489 2.99989 17.6397 3.0789 17.7803 3.21956C17.921 3.36021 18 3.55097 18 3.74989V22.4999H16.5V2.99989ZM12.75 14.9999C12.336 14.9999 12 14.3279 12 13.4999C12 12.6719 12.336 11.9999 12.75 11.9999C13.164 11.9999 13.5 12.6719 13.5 13.4999C13.5 14.3279 13.164 14.9999 12.75 14.9999Z" fill="black"/>
</svg>
