<svg width="24" height="24" viewBox="0 0 24 24" fill="none" xmlns="http://www.w3.org/2000/svg">
<path d="M4.5 3C4.5 2.60218 4.65804 2.22064 4.93934 1.93934C5.22064 1.65804 5.60218 1.5 6 1.5H18C18.3978 1.5 18.7794 1.65804 19.0607 1.93934C19.342 2.22064 19.5 2.60218 19.5 3V22.5H21.75C21.9489 22.5 22.1397 22.579 22.2803 22.7197C22.421 22.8603 22.5 23.0511 22.5 23.25C22.5 23.4489 22.421 23.6397 22.2803 23.7803C22.1397 23.921 21.9489 24 21.75 24H2.25C2.05109 24 1.86032 23.921 1.71967 23.7803C1.57902 23.6397 1.5 23.4489 1.5 23.25C1.5 23.0511 1.57902 22.8603 1.71967 22.7197C1.86032 22.579 2.05109 22.5 2.25 22.5H4.5V3ZM6 22.5H18V3H6V22.5Z" fill="black"/>
<path d="M13.5 13.5C13.5 13.8978 13.658 14.2794 13.9393 14.5607C14.2206 14.842 14.6022 15 15 15C15.3978 15 15.7794 14.842 16.0607 14.5607C16.342 14.2794 16.5 13.8978 16.5 13.5C16.5 13.1022 16.342 12.7206 16.0607 12.4393C15.7794 12.158 15.3978 12 15 12C14.6022 12 14.2206 12.158 13.9393 12.4393C13.658 12.7206 13.5 13.1022 13.5 13.5Z" fill="black"/>
</svg>
