<svg width="24" height="24" viewBox="0 0 24 24" fill="none" xmlns="http://www.w3.org/2000/svg">
<g clip-path="url(#clip0_2_8123)">
<path d="M12.75 15C12.336 15 12 14.328 12 13.5C12 12.672 12.336 12 12.75 12C13.164 12 13.5 12.672 13.5 13.5C13.5 14.328 13.164 15 12.75 15Z" fill="black"/>
<path d="M16.242 0.183033C16.3231 0.253538 16.3881 0.340654 16.4327 0.43848C16.4772 0.536306 16.5001 0.642556 16.5 0.750033V1.50003H17.25C17.8467 1.50003 18.419 1.73709 18.841 2.15904C19.2629 2.581 19.5 3.1533 19.5 3.75003V22.5H21.75C21.9489 22.5 22.1397 22.5791 22.2803 22.7197C22.421 22.8604 22.5 23.0511 22.5 23.25C22.5 23.4489 22.421 23.6397 22.2803 23.7804C22.1397 23.921 21.9489 24 21.75 24H2.25C2.05109 24 1.86032 23.921 1.71967 23.7804C1.57902 23.6397 1.5 23.4489 1.5 23.25C1.5 23.0511 1.57902 22.8604 1.71967 22.7197C1.86032 22.5791 2.05109 22.5 2.25 22.5H4.5V2.25003C4.50003 2.06933 4.56529 1.89471 4.6838 1.7583C4.8023 1.62188 4.96608 1.53283 5.145 1.50753L15.645 0.00753321C15.7513 -0.00764386 15.8596 0.000170158 15.9626 0.0304471C16.0656 0.0607241 16.1608 0.112758 16.242 0.183033ZM17.25 3.00003H16.5V22.5H18V3.75003C18 3.55112 17.921 3.36036 17.7803 3.2197C17.6397 3.07905 17.4489 3.00003 17.25 3.00003ZM6 2.90103V22.5H15V1.61553L6 2.90103Z" fill="black"/>
</g>
<defs>
<clipPath id="clip0_2_8123">
<rect width="24" height="24" fill="white"/>
</clipPath>
</defs>
</svg>
