<svg width="24" height="24" viewBox="0 0 24 24" fill="none" xmlns="http://www.w3.org/2000/svg">
<g clip-path="url(#clip0_2_8013)">
<path fill-rule="evenodd" clip-rule="evenodd" d="M9.75 0C9.15326 0 8.58097 0.237053 8.15901 0.65901C7.73705 1.08097 7.5 1.65326 7.5 2.25V6.75C7.5 6.94891 7.42098 7.13968 7.28033 7.28033C7.13968 7.42098 6.94891 7.5 6.75 7.5H2.25C1.65326 7.5 1.08097 7.73705 0.65901 8.15901C0.237053 8.58097 0 9.15326 0 9.75L0 14.25C0 14.8467 0.237053 15.419 0.65901 15.841C1.08097 16.2629 1.65326 16.5 2.25 16.5H6.75C6.94891 16.5 7.13968 16.579 7.28033 16.7197C7.42098 16.8603 7.5 17.0511 7.5 17.25V21.75C7.5 22.3467 7.73705 22.919 8.15901 23.341C8.58097 23.7629 9.15326 24 9.75 24H14.25C14.8467 24 15.419 23.7629 15.841 23.341C16.2629 22.919 16.5 22.3467 16.5 21.75V17.25C16.5 17.0511 16.579 16.8603 16.7197 16.7197C16.8603 16.579 17.0511 16.5 17.25 16.5H21.75C22.3467 16.5 22.919 16.2629 23.341 15.841C23.7629 15.419 24 14.8467 24 14.25V9.75C24 9.15326 23.7629 8.58097 23.341 8.15901C22.919 7.73705 22.3467 7.5 21.75 7.5H17.25C17.0511 7.5 16.8603 7.42098 16.7197 7.28033C16.579 7.13968 16.5 6.94891 16.5 6.75V2.25C16.5 1.65326 16.2629 1.08097 15.841 0.65901C15.419 0.237053 14.8467 0 14.25 0L9.75 0ZM11.682 3.51L10.4835 5.427C10.4482 5.48375 10.4287 5.5489 10.4271 5.6157C10.4254 5.68251 10.4416 5.74854 10.4741 5.80697C10.5065 5.8654 10.554 5.9141 10.6115 5.94804C10.6691 5.98198 10.7347 5.99992 10.8015 6H13.2C13.2668 5.99992 13.3324 5.98198 13.39 5.94804C13.4475 5.9141 13.495 5.8654 13.5274 5.80697C13.5598 5.74854 13.5761 5.68251 13.5744 5.6157C13.5728 5.5489 13.5533 5.48375 13.518 5.427L12.3195 3.5085C12.2858 3.45457 12.2389 3.41009 12.1833 3.37926C12.1277 3.34843 12.0651 3.33225 12.0015 3.33225C11.9379 3.33225 11.8753 3.34843 11.8197 3.37926C11.7641 3.41009 11.7172 3.45457 11.6835 3.5085L11.682 3.51ZM11.682 20.49L10.4835 18.5745C10.4478 18.5177 10.428 18.4524 10.4262 18.3854C10.4243 18.3184 10.4405 18.2521 10.4729 18.1934C10.5054 18.1347 10.553 18.0858 10.6108 18.0518C10.6686 18.0178 10.7344 17.9999 10.8015 18H13.2C13.2671 17.9999 13.3329 18.0178 13.3907 18.0518C13.4485 18.0858 13.4961 18.1347 13.5286 18.1934C13.561 18.2521 13.5772 18.3184 13.5753 18.3854C13.5735 18.4524 13.5537 18.5177 13.518 18.5745L12.3195 20.4915C12.2858 20.5454 12.2389 20.5899 12.1833 20.6207C12.1277 20.6516 12.0651 20.6678 12.0015 20.6678C11.9379 20.6678 11.8753 20.6516 11.8197 20.6207C11.7641 20.5899 11.7172 20.5454 11.6835 20.4915L11.682 20.49ZM5.427 13.515L3.5085 12.318C3.45457 12.2843 3.41009 12.2374 3.37926 12.1818C3.34843 12.1262 3.33225 12.0636 3.33225 12C3.33225 11.9364 3.34843 11.8738 3.37926 11.8182C3.41009 11.7626 3.45457 11.7157 3.5085 11.682L5.427 10.4835C5.48375 10.4482 5.5489 10.4287 5.6157 10.4271C5.68251 10.4254 5.74854 10.4416 5.80697 10.4741C5.8654 10.5065 5.9141 10.554 5.94804 10.6115C5.98198 10.6691 5.99992 10.7347 6 10.8015V13.2C5.99992 13.2668 5.98198 13.3324 5.94804 13.39C5.9141 13.4475 5.8654 13.495 5.80697 13.5274C5.74854 13.5598 5.68251 13.5761 5.6157 13.5744C5.5489 13.5728 5.48375 13.5533 5.427 13.518V13.515ZM20.4915 12.318L18.5745 13.5165C18.5177 13.5522 18.4524 13.572 18.3854 13.5738C18.3184 13.5757 18.2521 13.5595 18.1934 13.5271C18.1347 13.4946 18.0858 13.447 18.0518 13.3892C18.0178 13.3314 17.9999 13.2656 18 13.1985V10.8C17.9999 10.7329 18.0178 10.6671 18.0518 10.6093C18.0858 10.5515 18.1347 10.5039 18.1934 10.4714C18.2521 10.439 18.3184 10.4228 18.3854 10.4247C18.4524 10.4265 18.5177 10.4463 18.5745 10.482L20.4915 11.6805C20.5454 11.7142 20.5899 11.7611 20.6207 11.8167C20.6516 11.8723 20.6678 11.9349 20.6678 11.9985C20.6678 12.0621 20.6516 12.1247 20.6207 12.1803C20.5899 12.2359 20.5454 12.2828 20.4915 12.3165V12.318Z" fill="black"/>
</g>
<defs>
<clipPath id="clip0_2_8013">
<rect width="24" height="24" fill="white"/>
</clipPath>
</defs>
</svg>
