<svg width="24" height="24" viewBox="0 0 24 24" fill="none" xmlns="http://www.w3.org/2000/svg">
<g clip-path="url(#clip0_2_7998)">
<path fill-rule="evenodd" clip-rule="evenodd" d="M12.75 0C10.562 0 8.46354 0.869194 6.91637 2.41637C5.36919 3.96354 4.5 6.06196 4.5 8.25V18.8205C4.49935 20.0344 4.92511 21.2101 5.70296 22.1421C6.4808 23.0741 7.56129 23.7033 8.75578 23.9197C9.95027 24.1362 11.1829 23.9263 12.2383 23.3266C13.2938 22.7269 14.1051 21.7755 14.5305 20.6385L15.2955 18.594C15.5387 17.9485 15.8775 17.3433 16.3005 16.7985L19.3125 12.927C20.2329 11.7434 20.8026 10.3252 20.9568 8.83379C21.111 7.34238 20.8435 5.83764 20.1848 4.49074C19.526 3.14385 18.5024 2.0089 17.2305 1.215C15.9586 0.4211 14.4894 0.000136247 12.99 0L12.75 0ZM10.5 8.25C10.5 7.65326 10.7371 7.08097 11.159 6.65901C11.581 6.23705 12.1533 6 12.75 6C13.3467 6 13.919 6.23705 14.341 6.65901C14.7629 7.08097 15 7.65326 15 8.25V9C15 9.19891 15.079 9.38968 15.2197 9.53033C15.3603 9.67098 15.5511 9.75 15.75 9.75C15.9489 9.75 16.1397 9.67098 16.2803 9.53033C16.421 9.38968 16.5 9.19891 16.5 9V8.25C16.5 7.25544 16.1049 6.30161 15.4017 5.59835C14.6984 4.89509 13.7446 4.5 12.75 4.5C11.7554 4.5 10.8016 4.89509 10.0984 5.59835C9.39509 6.30161 9 7.25544 9 8.25V17.25C9 17.4489 9.07902 17.6397 9.21967 17.7803C9.36032 17.921 9.55109 18 9.75 18C9.94891 18 10.1397 17.921 10.2803 17.7803C10.421 17.6397 10.5 17.4489 10.5 17.25V13.9695C10.9469 13.7613 11.3816 13.5279 11.802 13.2705C12.411 12.8835 13.0365 12.3555 13.422 11.586C13.4661 11.4979 13.4925 11.4019 13.4995 11.3035C13.5065 11.2052 13.4941 11.1065 13.463 11.0129C13.4319 10.9194 13.3826 10.8329 13.3181 10.7584C13.2535 10.6839 13.1749 10.6229 13.0868 10.5787C12.9986 10.5346 12.9026 10.5083 12.8043 10.5013C12.706 10.4942 12.6072 10.5066 12.5137 10.5378C12.4202 10.5689 12.3337 10.6181 12.2592 10.6827C12.1847 10.7473 12.1236 10.8259 12.0795 10.914C11.8635 11.3445 11.4885 11.6925 10.998 12.0045C10.833 12.1095 10.668 12.2025 10.5 12.2925V8.25Z" fill="black"/>
</g>
<defs>
<clipPath id="clip0_2_7998">
<rect width="24" height="24" fill="white"/>
</clipPath>
</defs>
</svg>
