<svg width="24" height="24" viewBox="0 0 24 24" fill="none" xmlns="http://www.w3.org/2000/svg">
<g clip-path="url(#clip0_2_7902)">
<path fill-rule="evenodd" clip-rule="evenodd" d="M12.75 1.5C10.9598 1.5 9.2429 2.21116 7.97703 3.47703C6.71116 4.7429 6 6.45979 6 8.25V18.8205C5.99994 19.6826 6.30257 20.5173 6.8551 21.1791C7.40763 21.8408 8.17498 22.2875 9.02324 22.4413C9.8715 22.595 10.7468 22.4461 11.4965 22.0204C12.2461 21.5947 12.8225 20.9193 13.125 20.112L13.893 18.0675C14.1881 17.2799 14.6008 16.5415 15.117 15.8775L18.129 12.006C18.877 11.044 19.34 9.89137 19.4652 8.67924C19.5905 7.46711 19.3731 6.24416 18.8376 5.14951C18.3022 4.05487 17.4702 3.13249 16.4365 2.48731C15.4027 1.84213 14.2086 1.50005 12.99 1.5H12.75ZM4.5 8.25C4.5 6.06196 5.36919 3.96354 6.91637 2.41637C8.46354 0.869194 10.562 0 12.75 0L12.99 0C14.4894 0.000136247 15.9586 0.4211 17.2305 1.215C18.5024 2.0089 19.526 3.14385 20.1848 4.49074C20.8435 5.83764 21.111 7.34238 20.9568 8.83379C20.8026 10.3252 20.2329 11.7434 19.3125 12.927L16.3005 16.7985C15.8768 17.3428 15.5379 17.9482 15.2955 18.594L14.5305 20.6385C14.1051 21.7755 13.2938 22.7269 12.2383 23.3266C11.1829 23.9263 9.95027 24.1362 8.75578 23.9197C7.56129 23.7033 6.4808 23.0741 5.70296 22.1421C4.92511 21.2101 4.49935 20.0344 4.5 18.8205V8.25ZM12.75 6C12.1533 6 11.581 6.23705 11.159 6.65901C10.7371 7.08097 10.5 7.65326 10.5 8.25V12.2925C10.668 12.2025 10.8345 12.108 10.998 12.0045C11.4885 11.6925 11.8635 11.3445 12.078 10.914C12.1671 10.736 12.3233 10.6006 12.5122 10.5378C12.7011 10.4749 12.9072 10.4896 13.0853 10.5787C13.2633 10.6679 13.3986 10.824 13.4615 11.0129C13.5244 11.2018 13.5096 11.408 13.4205 11.586C13.0365 12.3555 12.411 12.8835 11.802 13.2705C11.3818 13.5284 10.9471 13.7618 10.5 13.9695V17.25C10.5 17.4489 10.421 17.6397 10.2803 17.7803C10.1397 17.921 9.94891 18 9.75 18C9.55109 18 9.36032 17.921 9.21967 17.7803C9.07902 17.6397 9 17.4489 9 17.25V8.25C9 7.25544 9.39509 6.30161 10.0984 5.59835C10.8016 4.89509 11.7554 4.5 12.75 4.5C13.7446 4.5 14.6984 4.89509 15.4017 5.59835C16.1049 6.30161 16.5 7.25544 16.5 8.25V9C16.5 9.19891 16.421 9.38968 16.2803 9.53033C16.1397 9.67098 15.9489 9.75 15.75 9.75C15.5511 9.75 15.3603 9.67098 15.2197 9.53033C15.079 9.38968 15 9.19891 15 9V8.25C15 7.65326 14.7629 7.08097 14.341 6.65901C13.919 6.23705 13.3467 6 12.75 6Z" fill="black"/>
</g>
<defs>
<clipPath id="clip0_2_7902">
<rect width="24" height="24" fill="white"/>
</clipPath>
</defs>
</svg>
