<svg width="24" height="24" viewBox="0 0 24 24" fill="none" xmlns="http://www.w3.org/2000/svg">
<g clip-path="url(#clip0_2_7901)">
<path d="M12.6705 0.41395C12.6081 0.289539 12.5124 0.184929 12.394 0.111824C12.2756 0.0387183 12.1392 0 12 0C11.8608 0 11.7244 0.0387183 11.606 0.111824C11.4876 0.184929 11.3919 0.289539 11.3295 0.41395L10.785 1.49995H3.75C3.15326 1.49995 2.58097 1.737 2.15901 2.15896C1.73705 2.58092 1.5 3.15321 1.5 3.74995V15H22.5V3.74995C22.5 3.15321 22.2629 2.58092 21.841 2.15896C21.419 1.737 20.8467 1.49995 20.25 1.49995H13.2135L12.6705 0.41395Z" fill="black"/>
<path fill-rule="evenodd" clip-rule="evenodd" d="M0.75 16.5C0.551088 16.5 0.360322 16.579 0.21967 16.7197C0.0790176 16.8603 0 17.0511 0 17.25C0 17.4489 0.0790176 17.6397 0.21967 17.7803C0.360322 17.921 0.551088 18 0.75 18H5.04L3.7725 23.0685C3.72949 23.2596 3.76297 23.46 3.86578 23.6268C3.9686 23.7935 4.13258 23.9134 4.32265 23.9608C4.51273 24.0083 4.71382 23.9794 4.88292 23.8805C5.05201 23.7816 5.17569 23.6204 5.2275 23.4315L5.835 21H18.165L18.7725 23.4315C18.8243 23.6204 18.948 23.7816 19.1171 23.8805C19.2862 23.9794 19.4873 24.0083 19.6773 23.9608C19.8674 23.9134 20.0314 23.7935 20.1342 23.6268C20.237 23.46 20.2705 23.2596 20.2275 23.0685L18.96 18H23.25C23.4489 18 23.6397 17.921 23.7803 17.7803C23.921 17.6397 24 17.4489 24 17.25C24 17.0511 23.921 16.8603 23.7803 16.7197C23.6397 16.579 23.4489 16.5 23.25 16.5H0.75ZM6.21 19.5L6.585 18H17.415L17.79 19.5H6.21Z" fill="black"/>
</g>
<defs>
<clipPath id="clip0_2_7901">
<rect width="24" height="24" fill="white"/>
</clipPath>
</defs>
</svg>
