<svg width="24" height="24" viewBox="0 0 24 24" fill="none" xmlns="http://www.w3.org/2000/svg">
<g clip-path="url(#clip0_2_8821)">
<path fill-rule="evenodd" clip-rule="evenodd" d="M12.75 19.701V18H20.25C20.8467 18 21.419 17.7629 21.841 17.341C22.2629 16.919 22.5 16.3467 22.5 15.75V3H23.25C23.4489 3 23.6397 2.92098 23.7803 2.78033C23.921 2.63968 24 2.44891 24 2.25C24 2.05109 23.921 1.86032 23.7803 1.71967C23.6397 1.57902 23.4489 1.5 23.25 1.5H0.75C0.551088 1.5 0.360322 1.57902 0.21967 1.71967C0.0790176 1.86032 0 2.05109 0 2.25C0 2.44891 0.0790176 2.63968 0.21967 2.78033C0.360322 2.92098 0.551088 3 0.75 3H1.5V15.75C1.5 16.3467 1.73705 16.919 2.15901 17.341C2.58097 17.7629 3.15326 18 3.75 18H11.25V19.701C10.964 19.8661 10.7405 20.1209 10.6142 20.426C10.4878 20.7311 10.4656 21.0693 10.5511 21.3883C10.6366 21.7072 10.8249 21.9891 11.0869 22.1901C11.3488 22.3911 11.6698 22.5 12 22.5C12.3302 22.5 12.6512 22.3911 12.9131 22.1901C13.1751 21.9891 13.3634 21.7072 13.4489 21.3883C13.5344 21.0693 13.5122 20.7311 13.3858 20.426C13.2595 20.1209 13.036 19.8661 12.75 19.701ZM3 3V15.75C3 15.9489 3.07902 16.1397 3.21967 16.2803C3.36032 16.421 3.55109 16.5 3.75 16.5H20.25C20.4489 16.5 20.6397 16.421 20.7803 16.2803C20.921 16.1397 21 15.9489 21 15.75V3H3Z" fill="black"/>
</g>
<defs>
<clipPath id="clip0_2_8821">
<rect width="24" height="24" fill="white"/>
</clipPath>
</defs>
</svg>
