<svg width="24" height="24" viewBox="0 0 24 24" fill="none" xmlns="http://www.w3.org/2000/svg">
<g clip-path="url(#clip0_2_8811)">
<path fill-rule="evenodd" clip-rule="evenodd" d="M12 0C12.1392 4.67001e-06 12.2756 0.0387305 12.394 0.111845C12.5124 0.18496 12.6082 0.289579 12.6705 0.414L13.215 1.5H20.25C20.8467 1.5 21.419 1.73705 21.841 2.15901C22.2629 2.58097 22.5 3.15326 22.5 3.75V16.5H23.25C23.4489 16.5 23.6397 16.579 23.7803 16.7197C23.921 16.8603 24 17.0511 24 17.25C24 17.4489 23.921 17.6397 23.7803 17.7803C23.6397 17.921 23.4489 18 23.25 18H18.96L20.2275 23.0685C20.2705 23.2596 20.237 23.46 20.1342 23.6268C20.0314 23.7935 19.8674 23.9134 19.6773 23.9608C19.4873 24.0083 19.2862 23.9794 19.1171 23.8805C18.948 23.7816 18.8243 23.6204 18.7725 23.4315L18.165 21H5.835L5.2275 23.4315C5.17569 23.6204 5.05201 23.7816 4.88292 23.8805C4.71382 23.9794 4.51273 24.0083 4.32265 23.9608C4.13258 23.9134 3.9686 23.7935 3.86578 23.6268C3.76297 23.46 3.72949 23.2596 3.7725 23.0685L5.04 18H0.75C0.551088 18 0.360322 17.921 0.21967 17.7803C0.0790176 17.6397 0 17.4489 0 17.25C0 17.0511 0.0790176 16.8603 0.21967 16.7197C0.360322 16.579 0.551088 16.5 0.75 16.5H1.5V3.75C1.5 3.15326 1.73705 2.58097 2.15901 2.15901C2.58097 1.73705 3.15326 1.5 3.75 1.5H10.7865L11.3295 0.414C11.3918 0.289579 11.4876 0.18496 11.606 0.111845C11.7244 0.0387305 11.8608 4.67001e-06 12 0V0ZM3 16.5H21V3.75C21 3.55109 20.921 3.36032 20.7803 3.21967C20.6397 3.07902 20.4489 3 20.25 3H3.75C3.55109 3 3.36032 3.07902 3.21967 3.21967C3.07902 3.36032 3 3.55109 3 3.75V16.5ZM17.415 18H6.585L6.21 19.5H17.79L17.415 18Z" fill="black"/>
</g>
<defs>
<clipPath id="clip0_2_8811">
<rect width="24" height="24" fill="white"/>
</clipPath>
</defs>
</svg>
