<svg width="24" height="24" viewBox="0 0 24 24" fill="none" xmlns="http://www.w3.org/2000/svg">
<g clip-path="url(#clip0_2_7899)">
<path d="M12.75 18V19.701C13.036 19.8661 13.2595 20.1209 13.3858 20.426C13.5122 20.7311 13.5344 21.0693 13.4489 21.3883C13.3634 21.7072 13.1751 21.9891 12.9131 22.1901C12.6512 22.3911 12.3302 22.5 12 22.5C11.6698 22.5 11.3488 22.3911 11.0869 22.1901C10.8249 21.9891 10.6366 21.7072 10.5511 21.3883C10.4656 21.0693 10.4878 20.7311 10.6142 20.426C10.7405 20.1209 10.964 19.8661 11.25 19.701V18H3.75C3.15326 18 2.58097 17.7629 2.15901 17.341C1.73705 16.919 1.5 16.3467 1.5 15.75V4.5H22.5V15.75C22.5 16.3467 22.2629 16.919 21.841 17.341C21.419 17.7629 20.8467 18 20.25 18H12.75ZM23.25 3C23.4489 3 23.6397 2.92098 23.7803 2.78033C23.921 2.63968 24 2.44891 24 2.25C24 2.05109 23.921 1.86032 23.7803 1.71967C23.6397 1.57902 23.4489 1.5 23.25 1.5H0.75C0.551088 1.5 0.360322 1.57902 0.21967 1.71967C0.0790176 1.86032 0 2.05109 0 2.25C0 2.44891 0.0790176 2.63968 0.21967 2.78033C0.360322 2.92098 0.551088 3 0.75 3H23.25Z" fill="black"/>
</g>
<defs>
<clipPath id="clip0_2_7899">
<rect width="24" height="24" fill="white"/>
</clipPath>
</defs>
</svg>
