<svg width="24" height="24" viewBox="0 0 24 24" fill="none" xmlns="http://www.w3.org/2000/svg">
<g clip-path="url(#clip0_2_7890)">
<path d="M12 24C15.1826 24 18.2348 22.7357 20.4853 20.4853C22.7357 18.2348 24 15.1826 24 12C24 8.8174 22.7357 5.76516 20.4853 3.51472C18.2348 1.26428 15.1826 0 12 0C8.8174 0 5.76516 1.26428 3.51472 3.51472C1.26428 5.76516 0 8.8174 0 12C0 15.1826 1.26428 18.2348 3.51472 20.4853C5.76516 22.7357 8.8174 24 12 24ZM3.465 7.8645C3.40959 7.64333 3.40534 7.41243 3.45256 7.18937C3.49977 6.9663 3.59722 6.75693 3.7375 6.57718C3.87777 6.39743 4.05718 6.25202 4.26208 6.152C4.46698 6.05199 4.69199 6.00001 4.92 6H9C9.39782 6 9.77936 6.15804 10.0607 6.43934C10.342 6.72064 10.5 7.10218 10.5 7.5V7.674C10.9913 7.55636 11.4948 7.49794 12 7.5C12.525 7.5 13.035 7.56 13.5 7.674V7.5C13.5 7.10218 13.658 6.72064 13.9393 6.43934C14.2206 6.15804 14.6022 6 15 6H19.08C19.308 6.00001 19.533 6.05199 19.7379 6.152C19.9428 6.25202 20.1222 6.39743 20.2625 6.57718C20.4028 6.75693 20.5002 6.9663 20.5474 7.18937C20.5947 7.41243 20.5904 7.64333 20.535 7.8645L20.0685 9.7275C19.9063 10.3765 19.5318 10.9527 19.0045 11.3644C18.4772 11.7762 17.8275 11.9999 17.1585 12H16.5C15.746 12.0002 15.0196 11.7165 14.4654 11.2053C13.9111 10.6941 13.5697 9.99302 13.509 9.2415C13.0235 9.07527 12.5131 8.99358 12 9C11.4105 9 10.89 9.096 10.491 9.2415C10.4303 9.99302 10.0889 10.6941 9.53461 11.2053C8.98037 11.7165 8.25397 12.0002 7.5 12H6.843C6.17401 11.9999 5.52426 11.7762 4.99699 11.3644C4.46974 10.9527 4.09523 10.3765 3.933 9.7275L3.465 7.8645ZM7.4535 14.625C7.91404 15.4233 8.57672 16.0862 9.37484 16.547C10.173 17.0078 11.0784 17.2503 12 17.25C12.9219 17.2505 13.8276 17.0082 14.626 16.5474C15.4244 16.0866 16.0873 15.4235 16.548 14.625C16.5969 14.539 16.6623 14.4636 16.7405 14.4029C16.8186 14.3423 16.908 14.2978 17.0035 14.2719C17.0989 14.246 17.1986 14.2392 17.2967 14.2519C17.3947 14.2647 17.4893 14.2967 17.575 14.3462C17.6607 14.3956 17.7357 14.4615 17.7958 14.5401C17.8558 14.6187 17.8998 14.7084 17.9251 14.804C17.9504 14.8996 17.9565 14.9993 17.9431 15.0973C17.9297 15.1953 17.897 15.2897 17.847 15.375C17.2547 16.4015 16.4024 17.2539 15.376 17.8464C14.3496 18.4389 13.1852 18.7505 12 18.75C10.8148 18.7505 9.65045 18.4389 8.62401 17.8464C7.59758 17.2539 6.74532 16.4015 6.153 15.375C6.05511 15.2028 6.0293 14.9989 6.08119 14.8078C6.13308 14.6167 6.25846 14.4538 6.42998 14.3548C6.6015 14.2558 6.80522 14.2286 6.99669 14.2792C7.18816 14.3298 7.35184 14.4541 7.452 14.625H7.4535Z" fill="black"/>
</g>
<defs>
<clipPath id="clip0_2_7890">
<rect width="24" height="24" fill="white"/>
</clipPath>
</defs>
</svg>
