<svg width="24" height="24" viewBox="0 0 24 24" fill="none" xmlns="http://www.w3.org/2000/svg">
<g clip-path="url(#clip0_2_7888)">
<path d="M12 0C15.1826 0 18.2348 1.26428 20.4853 3.51472C22.7357 5.76516 24 8.8174 24 12C24 15.1826 22.7357 18.2348 20.4853 20.4853C18.2348 22.7357 15.1826 24 12 24C8.8174 24 5.76516 22.7357 3.51472 20.4853C1.26428 18.2348 0 15.1826 0 12C0 8.8174 1.26428 5.76516 3.51472 3.51472C5.76516 1.26428 8.8174 0 12 0V0ZM10.5 9.75C10.5 8.508 9.828 7.5 9 7.5C8.172 7.5 7.5 8.508 7.5 9.75C7.5 10.992 8.172 12 9 12C9.828 12 10.5 10.992 10.5 9.75ZM6.4275 14.3505C6.25525 14.45 6.12955 14.6138 6.07808 14.8059C6.0266 14.998 6.05355 15.2027 6.153 15.375C6.74532 16.4015 7.59758 17.2539 8.62401 17.8464C9.65045 18.4389 10.8148 18.7505 12 18.75C13.1851 18.7502 14.3494 18.4385 15.3758 17.846C16.4021 17.2536 17.2545 16.4013 17.847 15.375C17.897 15.2897 17.9297 15.1953 17.9431 15.0973C17.9565 14.9993 17.9504 14.8996 17.9251 14.804C17.8998 14.7084 17.8558 14.6187 17.7958 14.5401C17.7357 14.4615 17.6607 14.3956 17.575 14.3462C17.4893 14.2967 17.3947 14.2647 17.2967 14.2519C17.1986 14.2392 17.0989 14.246 17.0035 14.2719C16.908 14.2978 16.8186 14.3423 16.7405 14.4029C16.6623 14.4636 16.5969 14.539 16.548 14.625C16.0873 15.4235 15.4244 16.0866 14.626 16.5474C13.8276 17.0082 12.9219 17.2505 12 17.25C11.0781 17.2505 10.1724 17.0082 9.37399 16.5474C8.57558 16.0866 7.91267 15.4235 7.452 14.625C7.35254 14.4527 7.18873 14.3271 6.9966 14.2756C6.80447 14.2241 6.59976 14.251 6.4275 14.3505ZM14.1555 9.3855C14.1076 9.29942 14.0433 9.22361 13.9661 9.1624C13.8889 9.10119 13.8005 9.05577 13.7058 9.02875C13.6111 9.00173 13.5119 8.99363 13.4141 9.00491C13.3162 9.01619 13.2216 9.04663 13.1355 9.0945C13.0494 9.14237 12.9736 9.20672 12.9124 9.28389C12.8512 9.36105 12.8058 9.44952 12.7788 9.54423C12.7517 9.63895 12.7436 9.73806 12.7549 9.83591C12.7662 9.93375 12.7966 10.0284 12.8445 10.1145C13.3395 11.007 14.2815 11.625 15.375 11.625C16.47 11.625 17.409 11.007 17.9055 10.1145C17.9534 10.0284 17.9838 9.93375 17.9951 9.83591C18.0064 9.73806 17.9983 9.63895 17.9712 9.54423C17.9442 9.44952 17.8988 9.36105 17.8376 9.28389C17.7764 9.20672 17.7006 9.14237 17.6145 9.0945C17.5284 9.04663 17.4338 9.01619 17.3359 9.00491C17.2381 8.99363 17.1389 9.00173 17.0442 9.02875C16.9495 9.05577 16.861 9.10119 16.7839 9.1624C16.7067 9.22361 16.6424 9.29942 16.5945 9.3855C16.4761 9.60666 16.3004 9.79196 16.0859 9.92204C15.8714 10.0521 15.6259 10.1222 15.375 10.125C15.1241 10.1222 14.8786 10.0521 14.6641 9.92204C14.4496 9.79196 14.2739 9.60666 14.1555 9.3855Z" fill="black"/>
</g>
<defs>
<clipPath id="clip0_2_7888">
<rect width="24" height="24" fill="white"/>
</clipPath>
</defs>
</svg>
