<svg width="24" height="24" viewBox="0 0 24 24" fill="none" xmlns="http://www.w3.org/2000/svg">
<g clip-path="url(#clip0_2_8770)">
<path d="M12 22.5C9.21523 22.5 6.54451 21.3938 4.57538 19.4246C2.60625 17.4555 1.5 14.7848 1.5 12C1.5 9.21523 2.60625 6.54451 4.57538 4.57538C6.54451 2.60625 9.21523 1.5 12 1.5C14.7848 1.5 17.4555 2.60625 19.4246 4.57538C21.3938 6.54451 22.5 9.21523 22.5 12C22.5 14.7848 21.3938 17.4555 19.4246 19.4246C17.4555 21.3938 14.7848 22.5 12 22.5ZM12 24C15.1826 24 18.2348 22.7357 20.4853 20.4853C22.7357 18.2348 24 15.1826 24 12C24 8.8174 22.7357 5.76516 20.4853 3.51472C18.2348 1.26428 15.1826 0 12 0C8.8174 0 5.76516 1.26428 3.51472 3.51472C1.26428 5.76516 0 8.8174 0 12C0 15.1826 1.26428 18.2348 3.51472 20.4853C5.76516 22.7357 8.8174 24 12 24Z" fill="black"/>
<path d="M6.42756 18.6494C6.59982 18.7489 6.80453 18.7758 6.99665 18.7243C7.18878 18.6729 7.3526 18.5472 7.45206 18.3749C7.91272 17.5764 8.57563 16.9134 9.37405 16.4525C10.1725 15.9917 11.0782 15.7494 12.0001 15.7499C13.9426 15.7499 15.6391 16.8044 16.5481 18.3749C16.6482 18.5458 16.8119 18.6701 17.0034 18.7207C17.1948 18.7713 17.3986 18.7442 17.5701 18.6451C17.7416 18.5461 17.867 18.3832 17.9189 18.1921C17.9708 18.001 17.9449 17.7971 17.8471 17.6249C17.2547 16.5984 16.4025 15.746 15.376 15.1535C14.3496 14.561 13.1852 14.2494 12.0001 14.2499C10.815 14.2497 9.65069 14.5615 8.6243 15.1539C7.59792 15.7464 6.74561 16.5986 6.15306 17.6249C6.0536 17.7972 6.02665 18.0019 6.07813 18.194C6.12961 18.3861 6.2553 18.55 6.42756 18.6494ZM16.9141 6.07942C17.0022 6.03439 17.0984 6.00725 17.1971 5.99957C17.2958 5.9919 17.395 6.00383 17.489 6.03468C17.5831 6.06553 17.6701 6.11469 17.745 6.17933C17.82 6.24397 17.8814 6.32281 17.9258 6.4113C17.9701 6.4998 17.9965 6.59619 18.0034 6.69493C18.0103 6.79367 17.9976 6.8928 17.9661 6.9866C17.9345 7.08041 17.8846 7.16704 17.8194 7.24149C17.7542 7.31595 17.6749 7.37676 17.5861 7.42042L16.0726 8.17642C16.3366 8.58142 16.5001 9.13642 16.5001 9.74992C16.5001 10.9919 15.8281 11.9999 15.0001 11.9999C14.1721 11.9999 13.5001 10.9919 13.5001 9.74992C13.5001 9.37942 13.5601 9.02992 13.6651 8.72092C13.5953 8.63343 13.5459 8.53149 13.5205 8.42252C13.495 8.31355 13.4942 8.20028 13.5181 8.09095C13.5419 7.98162 13.5898 7.87898 13.6583 7.79049C13.7268 7.70201 13.8142 7.6299 13.9141 7.57942L16.9141 6.07942ZM7.08606 6.07942C6.90844 5.99213 6.70352 5.97857 6.51596 6.04172C6.3284 6.10486 6.17339 6.23958 6.08473 6.41651C5.99607 6.59344 5.98093 6.79825 6.04261 6.9863C6.1043 7.17434 6.23782 7.33038 6.41406 7.42042L7.92756 8.17642C7.63802 8.64946 7.4897 9.1954 7.50006 9.74992C7.50006 10.9919 8.17206 11.9999 9.00006 11.9999C9.82806 11.9999 10.5001 10.9919 10.5001 9.74992C10.5001 9.37942 10.4401 9.02992 10.3351 8.72092C10.4048 8.63343 10.4542 8.53149 10.4796 8.42252C10.5051 8.31355 10.5059 8.20028 10.482 8.09095C10.4582 7.98162 10.4103 7.87898 10.3418 7.79049C10.2733 7.70201 10.1859 7.6299 10.0861 7.57942L7.08606 6.07942Z" fill="black"/>
</g>
<defs>
<clipPath id="clip0_2_8770">
<rect width="24" height="24" fill="white"/>
</clipPath>
</defs>
</svg>
