<svg width="24" height="24" viewBox="0 0 24 24" fill="none" xmlns="http://www.w3.org/2000/svg">
<g clip-path="url(#clip0_2_8626)">
<path d="M12 22.5C9.21523 22.5 6.54451 21.3938 4.57538 19.4246C2.60625 17.4555 1.5 14.7848 1.5 12C1.5 9.21523 2.60625 6.54451 4.57538 4.57538C6.54451 2.60625 9.21523 1.5 12 1.5C14.7848 1.5 17.4555 2.60625 19.4246 4.57538C21.3938 6.54451 22.5 9.21523 22.5 12C22.5 14.7848 21.3938 17.4555 19.4246 19.4246C17.4555 21.3938 14.7848 22.5 12 22.5ZM12 24C15.1826 24 18.2348 22.7357 20.4853 20.4853C22.7357 18.2348 24 15.1826 24 12C24 8.8174 22.7357 5.76516 20.4853 3.51472C18.2348 1.26428 15.1826 0 12 0C8.8174 0 5.76516 1.26428 3.51472 3.51472C1.26428 5.76516 0 8.8174 0 12C0 15.1826 1.26428 18.2348 3.51472 20.4853C5.76516 22.7357 8.8174 24 12 24Z" fill="black"/>
<path d="M13.719 7.71888C13.7887 7.64903 13.8714 7.59362 13.9625 7.55581C14.0537 7.518 14.1513 7.49854 14.25 7.49854C14.3486 7.49854 14.4463 7.518 14.5374 7.55581C14.6286 7.59362 14.7113 7.64903 14.781 7.71888L15.75 8.68938L16.719 7.71888C16.8598 7.57805 17.0508 7.49893 17.25 7.49893C17.4492 7.49893 17.6402 7.57805 17.781 7.71888C17.9218 7.85971 18.0009 8.05071 18.0009 8.24988C18.0009 8.44904 17.9218 8.64005 17.781 8.78088L16.8105 9.74988L17.781 10.7189C17.9218 10.8597 18.0009 11.0507 18.0009 11.2499C18.0009 11.449 17.9218 11.64 17.781 11.7809C17.6402 11.9217 17.4492 12.0008 17.25 12.0008C17.0508 12.0008 16.8598 11.9217 16.719 11.7809L15.75 10.8104L14.781 11.7809C14.7113 11.8506 14.6285 11.9059 14.5374 11.9437C14.4463 11.9814 14.3486 12.0008 14.25 12.0008C14.1514 12.0008 14.0537 11.9814 13.9626 11.9437C13.8715 11.9059 13.7887 11.8506 13.719 11.7809C13.6493 11.7111 13.594 11.6284 13.5562 11.5373C13.5185 11.4461 13.4991 11.3485 13.4991 11.2499C13.4991 11.1513 13.5185 11.0536 13.5562 10.9625C13.594 10.8714 13.6493 10.7886 13.719 10.7189L14.6895 9.74988L13.719 8.78088C13.6492 8.71121 13.5937 8.62844 13.5559 8.53733C13.5181 8.44621 13.4987 8.34853 13.4987 8.24988C13.4987 8.15122 13.5181 8.05354 13.5559 7.96242C13.5937 7.87131 13.6492 7.78854 13.719 7.71888ZM6.219 7.71888C6.28867 7.64903 6.37143 7.59362 6.46255 7.55581C6.55367 7.518 6.65135 7.49854 6.75 7.49854C6.84865 7.49854 6.94633 7.518 7.03745 7.55581C7.12857 7.59362 7.21133 7.64903 7.281 7.71888L8.25 8.68938L9.219 7.71888C9.28873 7.64914 9.37151 7.59383 9.46262 7.55609C9.55373 7.51835 9.65138 7.49893 9.75 7.49893C9.84861 7.49893 9.94626 7.51835 10.0374 7.55609C10.1285 7.59383 10.2113 7.64914 10.281 7.71888C10.3507 7.78861 10.406 7.87139 10.4438 7.9625C10.4815 8.05361 10.5009 8.15126 10.5009 8.24988C10.5009 8.34849 10.4815 8.44614 10.4438 8.53725C10.406 8.62836 10.3507 8.71114 10.281 8.78088L9.3105 9.74988L10.281 10.7189C10.3507 10.7886 10.406 10.8714 10.4438 10.9625C10.4815 11.0536 10.5009 11.1513 10.5009 11.2499C10.5009 11.3485 10.4815 11.4461 10.4438 11.5373C10.406 11.6284 10.3507 11.7111 10.281 11.7809C10.2113 11.8506 10.1285 11.9059 10.0374 11.9437C9.94626 11.9814 9.84861 12.0008 9.75 12.0008C9.65138 12.0008 9.55373 11.9814 9.46262 11.9437C9.37151 11.9059 9.28873 11.8506 9.219 11.7809L8.25 10.8104L7.281 11.7809C7.21127 11.8506 7.12848 11.9059 7.03737 11.9437C6.94626 11.9814 6.84861 12.0008 6.75 12.0008C6.65138 12.0008 6.55373 11.9814 6.46262 11.9437C6.37151 11.9059 6.28873 11.8506 6.219 11.7809C6.14927 11.7111 6.09395 11.6284 6.05621 11.5373C6.01847 11.4461 5.99905 11.3485 5.99905 11.2499C5.99905 11.1513 6.01847 11.0536 6.05621 10.9625C6.09395 10.8714 6.14927 10.7886 6.219 10.7189L7.1895 9.74988L6.219 8.78088C6.14915 8.71121 6.09374 8.62844 6.05593 8.53733C6.01812 8.44621 5.99866 8.34853 5.99866 8.24988C5.99866 8.15122 6.01812 8.05354 6.05593 7.96242C6.09374 7.87131 6.14915 7.78854 6.219 7.71888ZM15 16.4999C15 17.2955 14.6839 18.0586 14.1213 18.6212C13.5587 19.1838 12.7956 19.4999 12 19.4999C11.2043 19.4999 10.4413 19.1838 9.87868 18.6212C9.31607 18.0586 9 17.2955 9 16.4999C9 15.7042 9.31607 14.9412 9.87868 14.3786C10.4413 13.8159 11.2043 13.4999 12 13.4999C12.7956 13.4999 13.5587 13.8159 14.1213 14.3786C14.6839 14.9412 15 15.7042 15 16.4999Z" fill="black"/>
</g>
<defs>
<clipPath id="clip0_2_8626">
<rect width="24" height="24" fill="white"/>
</clipPath>
</defs>
</svg>
