<svg width="24" height="24" viewBox="0 0 24 24" fill="none" xmlns="http://www.w3.org/2000/svg">
<g clip-path="url(#clip0_2_7971)">
<path d="M12 1.5C9.21523 1.5 6.54451 2.60625 4.57538 4.57538C2.60625 6.54451 1.5 9.21523 1.5 12C1.5 14.7848 2.60625 17.4555 4.57538 19.4246C6.54451 21.3938 9.21523 22.5 12 22.5C14.7848 22.5 17.4555 21.3938 19.4246 19.4246C21.3938 17.4555 22.5 14.7848 22.5 12C22.5 9.21523 21.3938 6.54451 19.4246 4.57538C17.4555 2.60625 14.7848 1.5 12 1.5ZM12 0C15.1826 0 18.2348 1.26428 20.4853 3.51472C22.7357 5.76516 24 8.8174 24 12C24 15.1826 22.7357 18.2348 20.4853 20.4853C18.2348 22.7357 15.1826 24 12 24C8.8174 24 5.76516 22.7357 3.51472 20.4853C1.26428 18.2348 0 15.1826 0 12C0 8.8174 1.26428 5.76516 3.51472 3.51472C5.76516 1.26428 8.8174 0 12 0V0Z" fill="black"/>
<path d="M6.42747 9.6495C6.59973 9.74895 6.80444 9.7759 6.99657 9.72442C7.1887 9.67295 7.35251 9.54726 7.45197 9.375C7.91264 8.57649 8.57555 7.91345 9.37396 7.45262C10.1724 6.9918 11.0781 6.74946 12 6.75C13.9425 6.75 15.639 7.8045 16.548 9.375C16.6481 9.54586 16.8118 9.67016 17.0033 9.72078C17.1948 9.7714 17.3985 9.74423 17.57 9.64521C17.7415 9.54618 17.8669 9.38333 17.9188 9.1922C17.9707 9.00107 17.9449 8.79717 17.847 8.625C17.2547 7.59847 16.4024 6.74607 15.376 6.15359C14.3495 5.56112 13.1851 5.24946 12 5.25C10.8149 5.24977 9.6506 5.56155 8.62422 6.154C7.59783 6.74644 6.74552 7.59868 6.15297 8.625C6.05352 8.79726 6.02657 9.00197 6.07805 9.1941C6.12952 9.38623 6.25521 9.55004 6.42747 9.6495ZM10.5 14.25C10.5 13.008 9.82797 12 8.99997 12C8.17197 12 7.49997 13.008 7.49997 14.25C7.49997 15.492 8.17197 16.5 8.99997 16.5C9.82797 16.5 10.5 15.492 10.5 14.25ZM16.5 14.25C16.5 13.008 15.828 12 15 12C14.172 12 13.5 13.008 13.5 14.25C13.5 15.492 14.172 16.5 15 16.5C15.828 16.5 16.5 15.492 16.5 14.25Z" fill="black"/>
</g>
<defs>
<clipPath id="clip0_2_7971">
<rect width="24" height="24" fill="white"/>
</clipPath>
</defs>
</svg>
