<svg width="24" height="24" viewBox="0 0 24 24" fill="none" xmlns="http://www.w3.org/2000/svg">
<g clip-path="url(#clip0_2_8547)">
<path fill-rule="evenodd" clip-rule="evenodd" d="M3 3C2.20435 3 1.44129 3.31607 0.87868 3.87868C0.316071 4.44129 0 5.20435 0 6L0 18.015C0.00396529 18.808 0.321786 19.5673 0.883965 20.1266C1.44615 20.686 2.20694 21 3 21H11.25C11.4489 21 11.6397 20.921 11.7803 20.7803C11.921 20.6397 12 20.4489 12 20.25C12 20.0511 11.921 19.8603 11.7803 19.7197C11.6397 19.579 11.4489 19.5 11.25 19.5H3C2.66982 19.5 2.34884 19.3911 2.08686 19.1902C1.82487 18.9892 1.63652 18.7074 1.551 18.3885L10.011 13.182L11.6145 14.142L12 14.3745L12.3855 14.1435L14.3805 12.9465L22.5 8.0745V12.75C22.5 12.9489 22.579 13.1397 22.7197 13.2803C22.8603 13.421 23.0511 13.5 23.25 13.5C23.4489 13.5 23.6397 13.421 23.7803 13.2803C23.921 13.1397 24 12.9489 24 12.75V6C24 5.20435 23.6839 4.44129 23.1213 3.87868C22.5587 3.31607 21.7956 3 21 3H3ZM8.562 12.312L1.5 16.6575V8.0745L8.562 12.312ZM10.392 11.661L1.5 6.3255V6C1.5 5.60218 1.65804 5.22064 1.93934 4.93934C2.22064 4.65804 2.60218 4.5 3 4.5H21C21.3978 4.5 21.7794 4.65804 22.0607 4.93934C22.342 5.22064 22.5 5.60218 22.5 6V6.3255L13.608 11.661L12 12.6255L10.392 11.661ZM24 18.75C24 20.1424 23.4469 21.4777 22.4623 22.4623C21.4777 23.4469 20.1424 24 18.75 24C17.3576 24 16.0223 23.4469 15.0377 22.4623C14.0531 21.4777 13.5 20.1424 13.5 18.75C13.5 17.3576 14.0531 16.0223 15.0377 15.0377C16.0223 14.0531 17.3576 13.5 18.75 13.5C20.1424 13.5 21.4777 14.0531 22.4623 15.0377C23.4469 16.0223 24 17.3576 24 18.75ZM16.719 16.719C16.7887 16.6492 16.8714 16.5937 16.9626 16.5559C17.0537 16.5181 17.1513 16.4987 17.25 16.4987C17.3487 16.4987 17.4463 16.5181 17.5374 16.5559C17.6286 16.5937 17.7113 16.6492 17.781 16.719L18.75 17.6895L19.719 16.719C19.8598 16.5782 20.0508 16.4991 20.25 16.4991C20.4492 16.4991 20.6402 16.5782 20.781 16.719C20.9218 16.8598 21.0009 17.0508 21.0009 17.25C21.0009 17.4492 20.9218 17.6402 20.781 17.781L19.8105 18.75L20.781 19.719C20.9218 19.8598 21.0009 20.0508 21.0009 20.25C21.0009 20.4492 20.9218 20.6402 20.781 20.781C20.6402 20.9218 20.4492 21.0009 20.25 21.0009C20.0508 21.0009 19.8598 20.9218 19.719 20.781L18.75 19.8105L17.781 20.781C17.6402 20.9218 17.4492 21.0009 17.25 21.0009C17.0508 21.0009 16.8598 20.9218 16.719 20.781C16.5782 20.6402 16.4991 20.4492 16.4991 20.25C16.4991 20.0508 16.5782 19.8598 16.719 19.719L17.6895 18.75L16.719 17.781C16.6492 17.7113 16.5937 17.6286 16.5559 17.5374C16.5181 17.4463 16.4987 17.3487 16.4987 17.25C16.4987 17.1513 16.5181 17.0537 16.5559 16.9626C16.5937 16.8714 16.6492 16.7887 16.719 16.719Z" fill="black"/>
</g>
<defs>
<clipPath id="clip0_2_8547">
<rect width="24" height="24" fill="white"/>
</clipPath>
</defs>
</svg>
