<svg width="24" height="24" viewBox="0 0 24 24" fill="none" xmlns="http://www.w3.org/2000/svg">
<g clip-path="url(#clip0_2_7876)">
<path fill-rule="evenodd" clip-rule="evenodd" d="M0.075 5.3325C0.226227 4.66986 0.597983 4.07822 1.12938 3.65446C1.66078 3.23071 2.32033 2.99995 3 3H21C21.6797 2.99995 22.3392 3.23071 22.8706 3.65446C23.402 4.07822 23.7738 4.66986 23.925 5.3325L12 12.621L0.075 5.3325ZM0 7.0455V17.7015L8.7045 12.3645L0 7.0455ZM10.1415 13.245L0.2865 19.2855C0.52999 19.7989 0.91429 20.2326 1.39467 20.5362C1.87505 20.8397 2.43176 21.0005 3 21H12.384C12.129 20.2773 11.9991 19.5164 12 18.75C11.999 17.7646 12.2142 16.7911 12.6304 15.8979C13.0466 15.0048 13.6538 14.2139 14.409 13.581L13.8585 13.2435L12 14.379L10.1415 13.2435V13.245ZM24 7.0455V14.5065C23.3678 13.723 22.5681 13.0911 21.6595 12.6573C20.751 12.2235 19.7568 11.9989 18.75 12C17.729 11.9987 16.7211 12.2295 15.8025 12.675L15.2955 12.3645L24 7.0455ZM16.098 16.098C16.7094 15.4867 17.5131 15.1054 18.3733 15.0185C19.2334 14.9316 20.0972 15.1444 20.8185 15.621L15.621 20.8185C15.1444 20.0972 14.9316 19.2334 15.0185 18.3733C15.1054 17.5131 15.4867 16.7094 16.098 16.098ZM16.683 21.879L21.879 16.6815C22.3551 17.4028 22.5675 18.2664 22.4803 19.1263C22.3931 19.9861 22.0118 20.7895 21.4006 21.4006C20.7895 22.0118 19.9861 22.3931 19.1263 22.4803C18.2664 22.5675 17.4028 22.3551 16.6815 21.879H16.683ZM22.4625 15.039C21.975 14.5515 21.3962 14.1647 20.7592 13.9009C20.1222 13.637 19.4395 13.5012 18.75 13.5012C18.0605 13.5012 17.3778 13.637 16.7408 13.9009C16.1038 14.1647 15.525 14.5515 15.0375 15.039C14.0529 16.0236 13.4997 17.359 13.4997 18.7515C13.4997 20.144 14.0529 21.4794 15.0375 22.464C16.0221 23.4486 17.3575 24.0018 18.75 24.0018C20.1425 24.0018 21.4779 23.4486 22.4625 22.464C23.4471 21.4794 24.0003 20.144 24.0003 18.7515C24.0003 17.359 23.4471 16.0236 22.4625 15.039Z" fill="black"/>
</g>
<defs>
<clipPath id="clip0_2_7876">
<rect width="24" height="24" fill="white"/>
</clipPath>
</defs>
</svg>
