<svg width="24" height="24" viewBox="0 0 24 24" fill="none" xmlns="http://www.w3.org/2000/svg">
<path fill-rule="evenodd" clip-rule="evenodd" d="M0.075 5.3325C0.226227 4.66986 0.597983 4.07822 1.12938 3.65446C1.66078 3.23071 2.32033 2.99995 3 3H21C21.6797 2.99995 22.3392 3.23071 22.8706 3.65446C23.402 4.07822 23.7738 4.66986 23.925 5.3325L12 12.621L0.075 5.3325ZM0 7.0455V17.7015L8.7045 12.3645L0 7.0455ZM10.1415 13.245L0.2865 19.2855C0.52999 19.7989 0.91429 20.2326 1.39467 20.5362C1.87505 20.8397 2.43176 21.0005 3 21H12.384C12.129 20.2773 11.9991 19.5164 12 18.75C11.999 17.7646 12.2142 16.7911 12.6304 15.8979C13.0466 15.0048 13.6538 14.2139 14.409 13.581L13.8585 13.2435L12 14.379L10.1415 13.2435V13.245ZM24 7.0455V14.5065C23.3678 13.723 22.5681 13.0911 21.6595 12.6573C20.751 12.2235 19.7568 11.9989 18.75 12C17.729 11.9987 16.7211 12.2295 15.8025 12.675L15.2955 12.3645L24 7.0455ZM24 18.75C24 20.1424 23.4469 21.4777 22.4623 22.4623C21.4777 23.4469 20.1424 24 18.75 24C17.3576 24 16.0223 23.4469 15.0377 22.4623C14.0531 21.4777 13.5 20.1424 13.5 18.75C13.5 17.3576 14.0531 16.0223 15.0377 15.0377C16.0223 14.0531 17.3576 13.5 18.75 13.5C20.1424 13.5 21.4777 14.0531 22.4623 15.0377C23.4469 16.0223 24 17.3576 24 18.75ZM21.0105 16.2315C21.095 16.2821 21.1687 16.3489 21.2274 16.428C21.2862 16.5071 21.3287 16.597 21.3527 16.6926C21.3766 16.7881 21.3815 16.8874 21.3671 16.9849C21.3526 17.0823 21.3191 17.176 21.2685 17.2605L19.266 20.5995C19.178 20.7462 19.0577 20.8709 18.9143 20.9641C18.7708 21.0573 18.608 21.1166 18.4382 21.1374C18.2684 21.1582 18.0961 21.1401 17.9344 21.0843C17.7727 21.0285 17.6258 20.9366 17.505 20.8155L16.344 19.656C16.2032 19.5152 16.1241 19.3242 16.1241 19.125C16.1241 18.9258 16.2032 18.7348 16.344 18.594C16.4848 18.4532 16.6758 18.3741 16.875 18.3741C17.0742 18.3741 17.2652 18.4532 17.406 18.594L18.2265 19.416L19.9815 16.4895C20.0321 16.405 20.0989 16.3313 20.178 16.2726C20.2571 16.2138 20.347 16.1713 20.4426 16.1473C20.5381 16.1234 20.6374 16.1185 20.7349 16.1329C20.8323 16.1474 20.926 16.1809 21.0105 16.2315Z" fill="black"/>
</svg>
