<svg width="24" height="24" viewBox="0 0 24 24" fill="none" xmlns="http://www.w3.org/2000/svg">
<g clip-path="url(#clip0_2_8030)">
<path d="M13.4115 0.652605C12.9771 0.420968 12.4923 0.299805 12 0.299805C11.5077 0.299805 11.0229 0.420968 10.5885 0.652605L1.5885 5.4526C1.10862 5.70848 0.707321 6.08998 0.427521 6.55632C0.147721 7.02265 -5.437e-05 7.55627 1.50058e-08 8.1001V8.57111L10.0635 14.4691L12 13.3921L13.9365 14.4691L24 8.57111V8.1001C24.0001 7.55627 23.8523 7.02265 23.5725 6.55632C23.2927 6.08998 22.8914 5.70848 22.4115 5.4526L13.4115 0.652605ZM24 10.3096L15.4605 15.3151L24 20.0581V10.3081V10.3096ZM23.9115 21.7261L12 15.1081L0.0885 21.7261C0.250505 22.3757 0.625112 22.9523 1.1527 23.3644C1.6803 23.7765 2.33056 24.0003 3 24.0001H21C21.6694 24.0003 22.3197 23.7765 22.8473 23.3644C23.3749 22.9523 23.7495 22.3757 23.9115 21.7261ZM1.50058e-08 20.0596L8.5395 15.3151L1.50058e-08 10.3096V20.0596Z" fill="black"/>
</g>
<defs>
<clipPath id="clip0_2_8030">
<rect width="24" height="24" fill="white"/>
</clipPath>
</defs>
</svg>
