<svg width="24" height="24" viewBox="0 0 24 24" fill="none" xmlns="http://www.w3.org/2000/svg">
<g clip-path="url(#clip0_2_8035)">
<path fill-rule="evenodd" clip-rule="evenodd" d="M12.705 1.9771C12.488 1.86154 12.2459 1.8011 12 1.8011C11.7541 1.8011 11.512 1.86154 11.295 1.9771L2.295 6.7771C2.05503 6.90488 1.8543 7.09547 1.71428 7.3285C1.57425 7.56153 1.50018 7.82824 1.5 8.1001V9.3256L10.125 14.5006L12 13.3756L13.875 14.5006L22.5 9.3256V8.1001C22.4998 7.82824 22.4258 7.56153 22.2857 7.3285C22.1457 7.09547 21.945 6.90488 21.705 6.7771L12.705 1.9771ZM22.5 11.0746L15.333 15.3751L22.5 19.6756V11.0746ZM22.4475 21.3946L12 15.1231L1.5525 21.3931C1.63879 21.7109 1.82728 21.9915 2.08888 22.1916C2.35049 22.3917 2.67066 22.5001 3 22.5001H21C21.3293 22.5001 21.6495 22.3917 21.9111 22.1916C22.1727 21.9915 22.3612 21.7109 22.4475 21.3931V21.3946ZM1.5 19.6741L8.667 15.3736L1.5 11.0746V19.6756V19.6741ZM10.5885 0.652605C11.0229 0.420968 11.5077 0.299805 12 0.299805C12.4923 0.299805 12.9771 0.420968 13.4115 0.652605L22.4115 5.4526C22.8914 5.70848 23.2927 6.08998 23.5725 6.55632C23.8523 7.02265 24.0001 7.55627 24 8.1001V21.0001C24 21.7958 23.6839 22.5588 23.1213 23.1214C22.5587 23.684 21.7956 24.0001 21 24.0001H3C2.20435 24.0001 1.44129 23.684 0.87868 23.1214C0.316071 22.5588 1.50058e-08 21.7958 1.50058e-08 21.0001V8.1001C-5.437e-05 7.55627 0.147721 7.02265 0.427521 6.55632C0.707321 6.08998 1.10862 5.70848 1.5885 5.4526L10.5885 0.652605Z" fill="black"/>
</g>
<defs>
<clipPath id="clip0_2_8035">
<rect width="24" height="24" fill="white"/>
</clipPath>
</defs>
</svg>
