<svg width="24" height="24" viewBox="0 0 24 24" fill="none" xmlns="http://www.w3.org/2000/svg">
<path fill-rule="evenodd" clip-rule="evenodd" d="M18.75 24C20.1424 24 21.4777 23.4469 22.4623 22.4623C23.4469 21.4777 24 20.1424 24 18.75C24 17.3576 23.4469 16.0223 22.4623 15.0377C21.4777 14.0531 20.1424 13.5 18.75 13.5C17.3576 13.5 16.0223 14.0531 15.0377 15.0377C14.0531 16.0223 13.5 17.3576 13.5 18.75C13.5 20.1424 14.0531 21.4777 15.0377 22.4623C16.0223 23.4469 17.3576 24 18.75 24ZM19.5 16.5C19.5 16.3011 19.421 16.1103 19.2803 15.9697C19.1397 15.829 18.9489 15.75 18.75 15.75C18.5511 15.75 18.3603 15.829 18.2197 15.9697C18.079 16.1103 18 16.3011 18 16.5V18H16.5C16.3011 18 16.1103 18.079 15.9697 18.2197C15.829 18.3603 15.75 18.5511 15.75 18.75C15.75 18.9489 15.829 19.1397 15.9697 19.2803C16.1103 19.421 16.3011 19.5 16.5 19.5H18V21C18 21.1989 18.079 21.3897 18.2197 21.5303C18.3603 21.671 18.5511 21.75 18.75 21.75C18.9489 21.75 19.1397 21.671 19.2803 21.5303C19.421 21.3897 19.5 21.1989 19.5 21V19.5H21C21.1989 19.5 21.3897 19.421 21.5303 19.2803C21.671 19.1397 21.75 18.9489 21.75 18.75C21.75 18.5511 21.671 18.3603 21.5303 18.2197C21.3897 18.079 21.1989 18 21 18H19.5V16.5Z" fill="black"/>
<path fill-rule="evenodd" clip-rule="evenodd" d="M3 3C2.32033 2.99995 1.66078 3.23071 1.12938 3.65446C0.597983 4.07822 0.226227 4.66986 0.075 5.3325L12 12.621L23.925 5.3325C23.7738 4.66986 23.402 4.07822 22.8706 3.65446C22.3392 3.23071 21.6797 2.99995 21 3H3ZM0 17.7V7.047L8.7045 12.366L0 17.7015V17.7ZM0.288 19.284L10.143 13.2435L12 14.379L13.8585 13.2435L14.409 13.581C13.6538 14.2139 13.0466 15.0048 12.6304 15.8979C12.2142 16.7911 11.999 17.7646 12 18.75C12 19.539 12.135 20.295 12.384 21H3C2.43186 21.0001 1.87535 20.8389 1.39525 20.5351C0.91514 20.2313 0.531166 19.7975 0.288 19.284ZM24 14.505V7.0455L15.2955 12.3645L15.8025 12.6765C16.7209 12.2301 17.7289 11.9987 18.75 12C20.871 12 22.7625 12.978 24 14.5065V14.505Z" fill="black"/>
</svg>
