<svg width="24" height="24" viewBox="0 0 24 24" fill="none" xmlns="http://www.w3.org/2000/svg">
<path d="M10.503 16.4999C10.503 16.3029 10.5418 16.1079 10.6172 15.9259C10.6926 15.7439 10.803 15.5786 10.9423 15.4393C11.0816 15.3 11.247 15.1895 11.429 15.1141C11.611 15.0387 11.806 14.9999 12.003 14.9999C12.2 14.9999 12.395 15.0387 12.577 15.1141C12.759 15.1895 12.9244 15.3 13.0637 15.4393C13.2029 15.5786 13.3134 15.7439 13.3888 15.9259C13.4642 16.1079 13.503 16.3029 13.503 16.4999C13.503 16.8978 13.345 17.2793 13.0637 17.5606C12.7823 17.8419 12.4008 17.9999 12.003 17.9999C11.6052 17.9999 11.2236 17.8419 10.9423 17.5606C10.661 17.2793 10.503 16.8978 10.503 16.4999ZM10.65 7.49243C10.63 7.30319 10.65 7.11187 10.7088 6.93087C10.7675 6.74988 10.8637 6.58325 10.991 6.44181C11.1183 6.30037 11.2739 6.18727 11.4477 6.10986C11.6215 6.03244 11.8097 5.99243 12 5.99243C12.1903 5.99243 12.3784 6.03244 12.5523 6.10986C12.7261 6.18727 12.8817 6.30037 13.009 6.44181C13.1363 6.58325 13.2324 6.74988 13.2912 6.93087C13.3499 7.11187 13.37 7.30319 13.35 7.49243L12.825 12.7529C12.8037 12.9569 12.7075 13.1457 12.5552 13.2829C12.4028 13.4202 12.205 13.4961 12 13.4961C11.7949 13.4961 11.5971 13.4202 11.4448 13.2829C11.2924 13.1457 11.1963 12.9569 11.175 12.7529L10.65 7.49243Z" fill="black"/>
</svg>
