<svg width="24" height="24" viewBox="0 0 24 24" fill="none" xmlns="http://www.w3.org/2000/svg">
<g clip-path="url(#clip0_2_7874)">
<path d="M10.4251 0.6525C11.2951 -0.2175 12.7051 -0.2175 13.5751 0.6525L23.3476 10.4265C24.2176 11.2965 24.2176 12.705 23.3476 13.5735L13.5751 23.3475C12.7051 24.2175 11.2966 24.2175 10.4281 23.3475L0.652583 13.575C0.445678 13.3685 0.281527 13.1233 0.169528 12.8533C0.0575278 12.5832 -0.00012207 12.2938 -0.00012207 12.0015C-0.00012207 11.7092 0.0575278 11.4198 0.169528 11.1497C0.281527 10.8797 0.445678 10.6345 0.652583 10.428L10.4251 0.6525ZM12.5251 1.7025C12.3858 1.56327 12.197 1.48505 12.0001 1.48505C11.8032 1.48505 11.6143 1.56327 11.4751 1.7025L1.70108 11.475C1.56185 11.6142 1.48364 11.8031 1.48364 12C1.48364 12.1969 1.56185 12.3858 1.70108 12.525L11.4751 22.299C11.6143 22.4382 11.8032 22.5164 12.0001 22.5164C12.197 22.5164 12.3858 22.4382 12.5251 22.299L22.2991 12.525C22.4383 12.3858 22.5165 12.1969 22.5165 12C22.5165 11.8031 22.4383 11.6142 22.2991 11.475L12.5251 1.701V1.7025Z" fill="black"/>
<path d="M10.5031 16.4999C10.5031 16.3029 10.5419 16.1079 10.6172 15.9259C10.6926 15.7439 10.8031 15.5786 10.9424 15.4393C11.0817 15.3 11.247 15.1895 11.429 15.1141C11.611 15.0387 11.8061 14.9999 12.0031 14.9999C12.2 14.9999 12.3951 15.0387 12.5771 15.1141C12.7591 15.1895 12.9244 15.3 13.0637 15.4393C13.203 15.5786 13.3135 15.7439 13.3889 15.9259C13.4643 16.1079 13.5031 16.3029 13.5031 16.4999C13.5031 16.8978 13.345 17.2793 13.0637 17.5606C12.7824 17.8419 12.4009 17.9999 12.0031 17.9999C11.6052 17.9999 11.2237 17.8419 10.9424 17.5606C10.6611 17.2793 10.5031 16.8978 10.5031 16.4999ZM10.6501 7.49243C10.6301 7.30319 10.6501 7.11187 10.7089 6.93087C10.7676 6.74988 10.8637 6.58325 10.991 6.44181C11.1183 6.30037 11.2739 6.18727 11.4478 6.10986C11.6216 6.03244 11.8098 5.99243 12.0001 5.99243C12.1903 5.99243 12.3785 6.03244 12.5523 6.10986C12.7262 6.18727 12.8818 6.30037 13.0091 6.44181C13.1364 6.58325 13.2325 6.74988 13.2913 6.93087C13.35 7.11187 13.37 7.30319 13.3501 7.49243L12.8251 12.7529C12.8074 12.9596 12.7129 13.1521 12.5601 13.2924C12.4073 13.4327 12.2075 13.5105 12.0001 13.5105C11.7926 13.5105 11.5928 13.4327 11.44 13.2924C11.2872 13.1521 11.1927 12.9596 11.1751 12.7529L10.6501 7.49243Z" fill="black"/>
</g>
<defs>
<clipPath id="clip0_2_7874">
<rect width="24" height="24" fill="white"/>
</clipPath>
</defs>
</svg>
