<svg width="24" height="24" viewBox="0 0 24 24" fill="none" xmlns="http://www.w3.org/2000/svg">
<g clip-path="url(#clip0_2_8538)">
<path d="M12 22.5C9.21523 22.5 6.54451 21.3938 4.57538 19.4246C2.60625 17.4555 1.5 14.7848 1.5 12C1.5 9.21523 2.60625 6.54451 4.57538 4.57538C6.54451 2.60625 9.21523 1.5 12 1.5C14.7848 1.5 17.4555 2.60625 19.4246 4.57538C21.3938 6.54451 22.5 9.21523 22.5 12C22.5 14.7848 21.3938 17.4555 19.4246 19.4246C17.4555 21.3938 14.7848 22.5 12 22.5ZM12 24C15.1826 24 18.2348 22.7357 20.4853 20.4853C22.7357 18.2348 24 15.1826 24 12C24 8.8174 22.7357 5.76516 20.4853 3.51472C18.2348 1.26428 15.1826 0 12 0C8.8174 0 5.76516 1.26428 3.51472 3.51472C1.26428 5.76516 0 8.8174 0 12C0 15.1826 1.26428 18.2348 3.51472 20.4853C5.76516 22.7357 8.8174 24 12 24Z" fill="black"/>
<path d="M10.5031 16.4999C10.5031 16.3029 10.5419 16.1079 10.6172 15.9259C10.6926 15.7439 10.8031 15.5786 10.9424 15.4393C11.0817 15.3 11.247 15.1895 11.429 15.1141C11.611 15.0387 11.8061 14.9999 12.0031 14.9999C12.2 14.9999 12.3951 15.0387 12.5771 15.1141C12.7591 15.1895 12.9244 15.3 13.0637 15.4393C13.203 15.5786 13.3135 15.7439 13.3889 15.9259C13.4643 16.1079 13.5031 16.3029 13.5031 16.4999C13.5031 16.8978 13.345 17.2793 13.0637 17.5606C12.7824 17.8419 12.4009 17.9999 12.0031 17.9999C11.6052 17.9999 11.2237 17.8419 10.9424 17.5606C10.6611 17.2793 10.5031 16.8978 10.5031 16.4999ZM10.6501 7.49243C10.6301 7.30319 10.6501 7.11187 10.7089 6.93087C10.7676 6.74988 10.8637 6.58325 10.991 6.44181C11.1183 6.30037 11.2739 6.18727 11.4478 6.10986C11.6216 6.03244 11.8098 5.99243 12.0001 5.99243C12.1903 5.99243 12.3785 6.03244 12.5523 6.10986C12.7262 6.18727 12.8818 6.30037 13.0091 6.44181C13.1364 6.58325 13.2325 6.74988 13.2913 6.93087C13.35 7.11187 13.37 7.30319 13.3501 7.49243L12.8251 12.7529C12.8074 12.9596 12.7129 13.1521 12.5601 13.2924C12.4073 13.4327 12.2075 13.5105 12.0001 13.5105C11.7926 13.5105 11.5928 13.4327 11.44 13.2924C11.2872 13.1521 11.1927 12.9596 11.1751 12.7529L10.6501 7.49243Z" fill="black"/>
</g>
<defs>
<clipPath id="clip0_2_8538">
<rect width="24" height="24" fill="white"/>
</clipPath>
</defs>
</svg>
