<svg width="24" height="24" viewBox="0 0 24 24" fill="none" xmlns="http://www.w3.org/2000/svg">
<g clip-path="url(#clip0_2_8502)">
<path d="M6.81 0.219C6.95056 0.0787966 7.14097 4.21785e-05 7.3395 0L16.6605 0C16.859 4.21785e-05 17.0494 0.0787966 17.19 0.219L23.781 6.81C23.9212 6.95056 24 7.14097 24 7.3395V16.6605C24 16.859 23.9212 17.0494 23.781 17.19L17.19 23.781C17.0494 23.9212 16.859 24 16.6605 24H7.3395C7.14097 24 6.95056 23.9212 6.81 23.781L0.219 17.19C0.0787966 17.0494 4.21785e-05 16.859 0 16.6605L0 7.3395C4.21785e-05 7.14097 0.0787966 6.95056 0.219 6.81L6.81 0.219ZM7.65 1.5L1.5 7.65V16.35L7.65 22.5H16.35L22.5 16.35V7.65L16.35 1.5H7.65Z" fill="black"/>
<path d="M10.5031 16.4999C10.5031 16.3029 10.5419 16.1079 10.6172 15.9259C10.6926 15.7439 10.8031 15.5786 10.9424 15.4393C11.0817 15.3 11.247 15.1895 11.429 15.1141C11.611 15.0387 11.8061 14.9999 12.0031 14.9999C12.2 14.9999 12.3951 15.0387 12.5771 15.1141C12.7591 15.1895 12.9244 15.3 13.0637 15.4393C13.203 15.5786 13.3135 15.7439 13.3889 15.9259C13.4643 16.1079 13.5031 16.3029 13.5031 16.4999C13.5031 16.8978 13.345 17.2793 13.0637 17.5606C12.7824 17.8419 12.4009 17.9999 12.0031 17.9999C11.6052 17.9999 11.2237 17.8419 10.9424 17.5606C10.6611 17.2793 10.5031 16.8978 10.5031 16.4999ZM10.6501 7.49243C10.6301 7.30319 10.6501 7.11187 10.7089 6.93087C10.7676 6.74988 10.8637 6.58325 10.991 6.44181C11.1183 6.30037 11.2739 6.18727 11.4478 6.10986C11.6216 6.03244 11.8098 5.99243 12.0001 5.99243C12.1903 5.99243 12.3785 6.03244 12.5523 6.10986C12.7262 6.18727 12.8818 6.30037 13.0091 6.44181C13.1364 6.58325 13.2325 6.74988 13.2913 6.93087C13.35 7.11187 13.37 7.30319 13.3501 7.49243L12.8251 12.7529C12.8074 12.9596 12.7129 13.1521 12.5601 13.2924C12.4073 13.4327 12.2075 13.5105 12.0001 13.5105C11.7926 13.5105 11.5928 13.4327 11.44 13.2924C11.2872 13.1521 11.1927 12.9596 11.1751 12.7529L10.6501 7.49243Z" fill="black"/>
</g>
<defs>
<clipPath id="clip0_2_8502">
<rect width="24" height="24" fill="white"/>
</clipPath>
</defs>
</svg>
