<svg width="24" height="24" viewBox="0 0 24 24" fill="none" xmlns="http://www.w3.org/2000/svg">
<g clip-path="url(#clip0_2_7875)">
<path d="M13.5745 0.6525C12.7045 -0.2175 11.2945 -0.2175 10.4245 0.6525L0.653477 10.425C-0.216523 11.295 -0.216523 12.7035 0.653477 13.572L10.4275 23.346C11.2975 24.216 12.706 24.216 13.5745 23.346L23.3485 13.572C24.2185 12.702 24.2185 11.2935 23.3485 10.425L13.5745 0.6525ZM11.9995 6C12.802 6 13.4305 6.693 13.3495 7.4925L12.8245 12.753C12.8068 12.9597 12.7123 13.1522 12.5595 13.2925C12.4067 13.4327 12.2069 13.5106 11.9995 13.5106C11.7921 13.5106 11.5922 13.4327 11.4394 13.2925C11.2867 13.1522 11.1921 12.9597 11.1745 12.753L10.6495 7.4925C10.6306 7.30385 10.6515 7.11334 10.7107 6.93325C10.77 6.75316 10.8663 6.58747 10.9935 6.44687C11.1207 6.30626 11.2759 6.19386 11.4492 6.11689C11.6224 6.03993 11.8099 6.00011 11.9995 6ZM12.0025 15C12.4003 15 12.7818 15.158 13.0631 15.4393C13.3444 15.7206 13.5025 16.1022 13.5025 16.5C13.5025 16.8978 13.3444 17.2794 13.0631 17.5607C12.7818 17.842 12.4003 18 12.0025 18C11.6047 18 11.2231 17.842 10.9418 17.5607C10.6605 17.2794 10.5025 16.8978 10.5025 16.5C10.5025 16.1022 10.6605 15.7206 10.9418 15.4393C11.2231 15.158 11.6047 15 12.0025 15Z" fill="black"/>
</g>
<defs>
<clipPath id="clip0_2_7875">
<rect width="24" height="24" fill="white"/>
</clipPath>
</defs>
</svg>
