<svg width="24" height="24" viewBox="0 0 24 24" fill="none" xmlns="http://www.w3.org/2000/svg">
<path d="M21 6.75V21C21 21.7956 20.6839 22.5587 20.1213 23.1213C19.5587 23.6839 18.7956 24 18 24H6C5.20435 24 4.44129 23.6839 3.87868 23.1213C3.31607 22.5587 3 21.7956 3 21V3C3 2.20435 3.31607 1.44129 3.87868 0.87868C4.44129 0.316071 5.20435 0 6 0L14.25 0L21 6.75ZM16.5 6.75C15.9033 6.75 15.331 6.51295 14.909 6.09099C14.4871 5.66903 14.25 5.09674 14.25 4.5V1.5H6C5.60218 1.5 5.22064 1.65804 4.93934 1.93934C4.65804 2.22064 4.5 2.60218 4.5 3V21C4.5 21.3978 4.65804 21.7794 4.93934 22.0607C5.22064 22.342 5.60218 22.5 6 22.5H18C18.3978 22.5 18.7794 22.342 19.0607 22.0607C19.342 21.7794 19.5 21.3978 19.5 21V6.75H16.5Z" fill="black"/>
<path d="M6.75 18.75C6.75 18.5511 6.82902 18.3603 6.96967 18.2197C7.11032 18.079 7.30109 18 7.5 18H12C12.1989 18 12.3897 18.079 12.5303 18.2197C12.671 18.3603 12.75 18.5511 12.75 18.75C12.75 18.9489 12.671 19.1397 12.5303 19.2803C12.3897 19.421 12.1989 19.5 12 19.5H7.5C7.30109 19.5 7.11032 19.421 6.96967 19.2803C6.82902 19.1397 6.75 18.9489 6.75 18.75ZM6.75 15.75C6.75 15.5511 6.82902 15.3603 6.96967 15.2197C7.11032 15.079 7.30109 15 7.5 15H16.5C16.6989 15 16.8897 15.079 17.0303 15.2197C17.171 15.3603 17.25 15.5511 17.25 15.75C17.25 15.9489 17.171 16.1397 17.0303 16.2803C16.8897 16.421 16.6989 16.5 16.5 16.5H7.5C7.30109 16.5 7.11032 16.421 6.96967 16.2803C6.82902 16.1397 6.75 15.9489 6.75 15.75ZM9.2085 10.188L11.2035 11.517L13.9845 8.7345C14.0402 8.67867 14.112 8.6418 14.1898 8.62915C14.2677 8.61649 14.3475 8.62869 14.418 8.664L17.25 10.125V12.75C17.25 12.9489 17.171 13.1397 17.0303 13.2803C16.8897 13.421 16.6989 13.5 16.5 13.5H7.5C7.30109 13.5 7.11032 13.421 6.96967 13.2803C6.82902 13.1397 6.75 12.9489 6.75 12.75V12C6.75 12 9.06 10.089 9.2085 10.188ZM9.375 9C9.67337 9 9.95952 8.88147 10.1705 8.6705C10.3815 8.45952 10.5 8.17337 10.5 7.875C10.5 7.57663 10.3815 7.29048 10.1705 7.0795C9.95952 6.86853 9.67337 6.75 9.375 6.75C9.07663 6.75 8.79048 6.86853 8.5795 7.0795C8.36853 7.29048 8.25 7.57663 8.25 7.875C8.25 8.17337 8.36853 8.45952 8.5795 8.6705C8.79048 8.88147 9.07663 9 9.375 9Z" fill="black"/>
</svg>
