<svg width="24" height="24" viewBox="0 0 24 24" fill="none" xmlns="http://www.w3.org/2000/svg">
<g clip-path="url(#clip0_2_7799)">
<path d="M13.9395 0H6C5.20435 0 4.44129 0.316071 3.87868 0.87868C3.31607 1.44129 3 2.20435 3 3V21C3 21.7956 3.31607 22.5587 3.87868 23.1213C4.44129 23.6839 5.20435 24 6 24H18C18.7956 24 19.5587 23.6839 20.1213 23.1213C20.6839 22.5587 21 21.7956 21 21V7.0605C20.9999 6.66271 20.8418 6.28124 20.5605 6L15 0.4395C14.7188 0.158176 14.3373 8.49561e-05 13.9395 0V0ZM14.25 5.25V2.25L18.75 6.75H15.75C15.3522 6.75 14.9706 6.59196 14.6893 6.31066C14.408 6.02936 14.25 5.64782 14.25 5.25ZM10.5 9.375C10.5 9.52274 10.4709 9.66903 10.4144 9.80552C10.3578 9.94201 10.275 10.066 10.1705 10.1705C10.066 10.275 9.94201 10.3578 9.80552 10.4144C9.66903 10.4709 9.52274 10.5 9.375 10.5C9.22726 10.5 9.08097 10.4709 8.94448 10.4144C8.80799 10.3578 8.68397 10.275 8.5795 10.1705C8.47504 10.066 8.39217 9.94201 8.33564 9.80552C8.2791 9.66903 8.25 9.52274 8.25 9.375C8.25 9.07663 8.36853 8.79048 8.5795 8.5795C8.79048 8.36853 9.07663 8.25 9.375 8.25C9.67337 8.25 9.95952 8.36853 10.1705 8.5795C10.3815 8.79048 10.5 9.07663 10.5 9.375ZM9.2085 11.688L11.2035 13.017L13.9845 10.2345C14.0402 10.1787 14.112 10.1418 14.1898 10.1291C14.2677 10.1165 14.3475 10.1287 14.418 10.164L17.25 11.625V14.25C17.25 14.4489 17.171 14.6397 17.0303 14.7803C16.8897 14.921 16.6989 15 16.5 15H7.5C7.30109 15 7.11032 14.921 6.96967 14.7803C6.82902 14.6397 6.75 14.4489 6.75 14.25V13.5C6.75 13.5 9.06 11.589 9.2085 11.688ZM7.5 16.5H16.5C16.6989 16.5 16.8897 16.579 17.0303 16.7197C17.171 16.8603 17.25 17.0511 17.25 17.25C17.25 17.4489 17.171 17.6397 17.0303 17.7803C16.8897 17.921 16.6989 18 16.5 18H7.5C7.30109 18 7.11032 17.921 6.96967 17.7803C6.82902 17.6397 6.75 17.4489 6.75 17.25C6.75 17.0511 6.82902 16.8603 6.96967 16.7197C7.11032 16.579 7.30109 16.5 7.5 16.5ZM7.5 19.5H12C12.1989 19.5 12.3897 19.579 12.5303 19.7197C12.671 19.8603 12.75 20.0511 12.75 20.25C12.75 20.4489 12.671 20.6397 12.5303 20.7803C12.3897 20.921 12.1989 21 12 21H7.5C7.30109 21 7.11032 20.921 6.96967 20.7803C6.82902 20.6397 6.75 20.4489 6.75 20.25C6.75 20.0511 6.82902 19.8603 6.96967 19.7197C7.11032 19.579 7.30109 19.5 7.5 19.5Z" fill="black"/>
</g>
<defs>
<clipPath id="clip0_2_7799">
<rect width="24" height="24" fill="white"/>
</clipPath>
</defs>
</svg>
