<svg width="24" height="24" viewBox="0 0 24 24" fill="none" xmlns="http://www.w3.org/2000/svg">
<path d="M12.75 7.5C12.75 7.30109 12.671 7.11032 12.5303 6.96967C12.3897 6.82902 12.1989 6.75 12 6.75C11.8011 6.75 11.6103 6.82902 11.4697 6.96967C11.329 7.11032 11.25 7.30109 11.25 7.5H8.25C7.65326 7.5 7.08097 7.73705 6.65901 8.15901C6.23705 8.58097 6 9.15326 6 9.75V12.75C6 13.3467 6.23705 13.919 6.65901 14.341C7.08097 14.7629 7.65326 15 8.25 15H8.9595L8.289 17.013C8.25349 17.1074 8.23739 17.2081 8.24168 17.3089C8.24596 17.4096 8.27054 17.5085 8.31394 17.5996C8.35733 17.6907 8.41866 17.7721 8.49424 17.8389C8.56983 17.9057 8.65812 17.9566 8.75383 17.9885C8.84954 18.0204 8.9507 18.0327 9.05126 18.0246C9.15182 18.0165 9.24972 17.9882 9.33908 17.9413C9.42844 17.8945 9.50744 17.8301 9.57135 17.7521C9.63525 17.674 9.68275 17.5839 9.711 17.487L10.5405 15H11.25V16.5C11.25 16.6989 11.329 16.8897 11.4697 17.0303C11.6103 17.171 11.8011 17.25 12 17.25C12.1989 17.25 12.3897 17.171 12.5303 17.0303C12.671 16.8897 12.75 16.6989 12.75 16.5V15H13.4595L14.289 17.487C14.3172 17.5839 14.3647 17.674 14.4287 17.7521C14.4926 17.8301 14.5716 17.8945 14.6609 17.9413C14.7503 17.9882 14.8482 18.0165 14.9487 18.0246C15.0493 18.0327 15.1505 18.0204 15.2462 17.9885C15.3419 17.9566 15.4302 17.9057 15.5058 17.8389C15.5813 17.7721 15.6427 17.6907 15.6861 17.5996C15.7295 17.5085 15.754 17.4096 15.7583 17.3089C15.7626 17.2081 15.7465 17.1074 15.711 17.013L15.0405 15H15.75C16.3467 15 16.919 14.7629 17.341 14.341C17.7629 13.919 18 13.3467 18 12.75V9.75C18 9.15326 17.7629 8.58097 17.341 8.15901C16.919 7.73705 16.3467 7.5 15.75 7.5H12.75ZM7.5 9.75C7.5 9.55109 7.57902 9.36032 7.71967 9.21967C7.86032 9.07902 8.05109 9 8.25 9H15.75C15.9489 9 16.1397 9.07902 16.2803 9.21967C16.421 9.36032 16.5 9.55109 16.5 9.75V12.75C16.5 12.9489 16.421 13.1397 16.2803 13.2803C16.1397 13.421 15.9489 13.5 15.75 13.5H8.25C8.05109 13.5 7.86032 13.421 7.71967 13.2803C7.57902 13.1397 7.5 12.9489 7.5 12.75V9.75Z" fill="black"/>
<path d="M3 3C3 2.20435 3.31607 1.44129 3.87868 0.87868C4.44129 0.316071 5.20435 0 6 0L18 0C18.7956 0 19.5587 0.316071 20.1213 0.87868C20.6839 1.44129 21 2.20435 21 3V21C21 21.7956 20.6839 22.5587 20.1213 23.1213C19.5587 23.6839 18.7956 24 18 24H6C5.20435 24 4.44129 23.6839 3.87868 23.1213C3.31607 22.5587 3 21.7956 3 21V3ZM18 1.5H6C5.60218 1.5 5.22064 1.65804 4.93934 1.93934C4.65804 2.22064 4.5 2.60218 4.5 3V21C4.5 21.3978 4.65804 21.7794 4.93934 22.0607C5.22064 22.342 5.60218 22.5 6 22.5H18C18.3978 22.5 18.7794 22.342 19.0607 22.0607C19.342 21.7794 19.5 21.3978 19.5 21V3C19.5 2.60218 19.342 2.22064 19.0607 1.93934C18.7794 1.65804 18.3978 1.5 18 1.5Z" fill="black"/>
</svg>
