<svg width="24" height="24" viewBox="0 0 24 24" fill="none" xmlns="http://www.w3.org/2000/svg">
<g clip-path="url(#clip0_2_7854)">
<path d="M18 0H6C5.20435 0 4.44129 0.316071 3.87868 0.87868C3.31607 1.44129 3 2.20435 3 3V21C3 21.7956 3.31607 22.5587 3.87868 23.1213C4.44129 23.6839 5.20435 24 6 24H18C18.7956 24 19.5587 23.6839 20.1213 23.1213C20.6839 22.5587 21 21.7956 21 21V3C21 2.20435 20.6839 1.44129 20.1213 0.87868C19.5587 0.316071 18.7956 0 18 0V0ZM11.25 10.0605L9.531 11.781C9.39017 11.9218 9.19916 12.0009 9 12.0009C8.80084 12.0009 8.60983 11.9218 8.469 11.781C8.32817 11.6402 8.24905 11.4492 8.24905 11.25C8.24905 11.0508 8.32817 10.8598 8.469 10.719L11.469 7.719C11.5387 7.64916 11.6214 7.59374 11.7125 7.55593C11.8037 7.51812 11.9013 7.49866 12 7.49866C12.0987 7.49866 12.1963 7.51812 12.2874 7.55593C12.3786 7.59374 12.4613 7.64916 12.531 7.719L15.531 10.719C15.6007 10.7887 15.656 10.8715 15.6938 10.9626C15.7315 11.0537 15.7509 11.1514 15.7509 11.25C15.7509 11.3486 15.7315 11.4463 15.6938 11.5374C15.656 11.6285 15.6007 11.7113 15.531 11.781C15.4613 11.8507 15.3785 11.906 15.2874 11.9438C15.1963 11.9815 15.0986 12.0009 15 12.0009C14.9014 12.0009 14.8037 11.9815 14.7126 11.9438C14.6215 11.906 14.5387 11.8507 14.469 11.781L12.75 10.0605V15.75C12.75 15.9489 12.671 16.1397 12.5303 16.2803C12.3897 16.421 12.1989 16.5 12 16.5C11.8011 16.5 11.6103 16.421 11.4697 16.2803C11.329 16.1397 11.25 15.9489 11.25 15.75V10.0605Z" fill="black"/>
</g>
<defs>
<clipPath id="clip0_2_7854">
<rect width="24" height="24" fill="white"/>
</clipPath>
</defs>
</svg>
