<svg width="24" height="24" viewBox="0 0 24 24" fill="none" xmlns="http://www.w3.org/2000/svg">
<path d="M9.75305 10.5C10.0485 10.5 10.3411 10.4418 10.6141 10.3287C10.8871 10.2157 11.1351 10.0499 11.344 9.84099C11.553 9.63206 11.7187 9.38402 11.8318 9.11104C11.9449 8.83806 12.0031 8.54547 12.0031 8.25C12.0031 7.95453 11.9449 7.66194 11.8318 7.38896C11.7187 7.11598 11.553 6.86794 11.344 6.65901C11.1351 6.45008 10.8871 6.28434 10.6141 6.17127C10.3411 6.0582 10.0485 6 9.75305 6C9.15631 6 8.58402 6.23705 8.16206 6.65901C7.74011 7.08097 7.50305 7.65326 7.50305 8.25C7.50305 8.84674 7.74011 9.41903 8.16206 9.84099C8.58402 10.2629 9.15631 10.5 9.75305 10.5Z" fill="black"/>
<path d="M21 21C21 21.7956 20.6839 22.5587 20.1213 23.1213C19.5587 23.6839 18.7956 24 18 24H6C5.20435 24 4.44129 23.6839 3.87868 23.1213C3.31607 22.5587 3 21.7956 3 21V3C3 2.20435 3.31607 1.44129 3.87868 0.87868C4.44129 0.316071 5.20435 0 6 0L14.25 0L21 6.75V21ZM6 1.5C5.60218 1.5 5.22064 1.65804 4.93934 1.93934C4.65804 2.22064 4.5 2.60218 4.5 3V18L7.836 14.664C7.95422 14.5461 8.10843 14.4709 8.27417 14.4506C8.43992 14.4302 8.60773 14.4657 8.751 14.5515L12 16.5L15.2355 11.97C15.2988 11.8815 15.3806 11.8078 15.4753 11.754C15.5699 11.7003 15.6751 11.6678 15.7836 11.6588C15.8921 11.6498 16.0012 11.6645 16.1034 11.702C16.2056 11.7394 16.2985 11.7986 16.3755 11.8755L19.5 15V6.75H16.5C15.9033 6.75 15.331 6.51295 14.909 6.09099C14.4871 5.66903 14.25 5.09674 14.25 4.5V1.5H6Z" fill="black"/>
</svg>
