<svg width="24" height="24" viewBox="0 0 24 24" fill="none" xmlns="http://www.w3.org/2000/svg">
<g clip-path="url(#clip0_2_7752)">
<path d="M9.219 9.21912C9.28867 9.14927 9.37143 9.09386 9.46255 9.05605C9.55366 9.01824 9.65135 8.99878 9.75 8.99878C9.84865 8.99878 9.94633 9.01824 10.0374 9.05605C10.1286 9.09386 10.2113 9.14927 10.281 9.21912L12 10.9396L13.719 9.21912C13.7887 9.14939 13.8715 9.09407 13.9626 9.05633C14.0537 9.0186 14.1514 8.99917 14.25 8.99917C14.3486 8.99917 14.4463 9.0186 14.5374 9.05633C14.6285 9.09407 14.7113 9.14939 14.781 9.21912C14.8507 9.28885 14.906 9.37164 14.9438 9.46274C14.9815 9.55385 15.0009 9.6515 15.0009 9.75012C15.0009 9.84874 14.9815 9.94639 14.9438 10.0375C14.906 10.1286 14.8507 10.2114 14.781 10.2811L13.0605 12.0001L14.781 13.7191C14.9218 13.8599 15.0009 14.051 15.0009 14.2501C15.0009 14.4493 14.9218 14.6403 14.781 14.7811C14.6402 14.9219 14.4492 15.0011 14.25 15.0011C14.0508 15.0011 13.8598 14.9219 13.719 14.7811L12 13.0606L10.281 14.7811C10.1402 14.9219 9.94916 15.0011 9.75 15.0011C9.55083 15.0011 9.35983 14.9219 9.219 14.7811C9.07817 14.6403 8.99905 14.4493 8.99905 14.2501C8.99905 14.051 9.07817 13.8599 9.219 13.7191L10.9395 12.0001L9.219 10.2811C9.14915 10.2115 9.09374 10.1287 9.05593 10.0376C9.01812 9.94645 8.99866 9.84877 8.99866 9.75012C8.99866 9.65147 9.01812 9.55379 9.05593 9.46267C9.09374 9.37155 9.14915 9.28879 9.219 9.21912Z" fill="black"/>
<path d="M6 0C5.20435 0 4.44129 0.316071 3.87868 0.87868C3.31607 1.44129 3 2.20435 3 3V21C3 21.7956 3.31607 22.5587 3.87868 23.1213C4.44129 23.6839 5.20435 24 6 24H18C18.7956 24 19.5587 23.6839 20.1213 23.1213C20.6839 22.5587 21 21.7956 21 21V3C21 2.20435 20.6839 1.44129 20.1213 0.87868C19.5587 0.316071 18.7956 0 18 0L6 0ZM6 1.5H18C18.3978 1.5 18.7794 1.65804 19.0607 1.93934C19.342 2.22064 19.5 2.60218 19.5 3V21C19.5 21.3978 19.342 21.7794 19.0607 22.0607C18.7794 22.342 18.3978 22.5 18 22.5H6C5.60218 22.5 5.22064 22.342 4.93934 22.0607C4.65804 21.7794 4.5 21.3978 4.5 21V3C4.5 2.60218 4.65804 2.22064 4.93934 1.93934C5.22064 1.65804 5.60218 1.5 6 1.5Z" fill="black"/>
</g>
<defs>
<clipPath id="clip0_2_7752">
<rect width="24" height="24" fill="white"/>
</clipPath>
</defs>
</svg>
