<svg width="24" height="24" viewBox="0 0 24 24" fill="none" xmlns="http://www.w3.org/2000/svg">
<g clip-path="url(#clip0_2_7835)">
<path d="M18 0H6C5.20435 0 4.44129 0.316071 3.87868 0.87868C3.31607 1.44129 3 2.20435 3 3V21C3 21.7956 3.31607 22.5587 3.87868 23.1213C4.44129 23.6839 5.20435 24 6 24H18C18.7956 24 19.5587 23.6839 20.1213 23.1213C20.6839 22.5587 21 21.7956 21 21V3C21 2.20435 20.6839 1.44129 20.1213 0.87868C19.5587 0.316071 18.7956 0 18 0V0ZM10.281 9.219L12 10.9395L13.719 9.219C13.7887 9.14927 13.8715 9.09395 13.9626 9.05622C14.0537 9.01848 14.1514 8.99905 14.25 8.99905C14.3486 8.99905 14.4463 9.01848 14.5374 9.05622C14.6285 9.09395 14.7113 9.14927 14.781 9.219C14.8507 9.28873 14.906 9.37152 14.9438 9.46262C14.9815 9.55373 15.0009 9.65138 15.0009 9.75C15.0009 9.84862 14.9815 9.94627 14.9438 10.0374C14.906 10.1285 14.8507 10.2113 14.781 10.281L13.0605 12L14.781 13.719C14.9218 13.8598 15.0009 14.0508 15.0009 14.25C15.0009 14.4492 14.9218 14.6402 14.781 14.781C14.6402 14.9218 14.4492 15.0009 14.25 15.0009C14.0508 15.0009 13.8598 14.9218 13.719 14.781L12 13.0605L10.281 14.781C10.1402 14.9218 9.94916 15.0009 9.75 15.0009C9.55084 15.0009 9.35983 14.9218 9.219 14.781C9.07817 14.6402 8.99905 14.4492 8.99905 14.25C8.99905 14.0508 9.07817 13.8598 9.219 13.719L10.9395 12L9.219 10.281C9.14927 10.2113 9.09395 10.1285 9.05621 10.0374C9.01848 9.94627 8.99905 9.84862 8.99905 9.75C8.99905 9.65138 9.01848 9.55373 9.05621 9.46262C9.09395 9.37152 9.14927 9.28873 9.219 9.219C9.28873 9.14927 9.37152 9.09395 9.46262 9.05622C9.55373 9.01848 9.65138 8.99905 9.75 8.99905C9.84862 8.99905 9.94627 9.01848 10.0374 9.05622C10.1285 9.09395 10.2113 9.14927 10.281 9.219Z" fill="black"/>
</g>
<defs>
<clipPath id="clip0_2_7835">
<rect width="24" height="24" fill="white"/>
</clipPath>
</defs>
</svg>
