<svg width="24" height="24" viewBox="0 0 24 24" fill="none" xmlns="http://www.w3.org/2000/svg">
<g clip-path="url(#clip0_2_8731)">
<path d="M7.5 11.25C7.5 11.0511 7.57902 10.8603 7.71967 10.7197C7.86032 10.579 8.05109 10.5 8.25 10.5H15.75C15.9489 10.5 16.1397 10.579 16.2803 10.7197C16.421 10.8603 16.5 11.0511 16.5 11.25V14.25C16.5 14.4489 16.421 14.6397 16.2803 14.7803C16.1397 14.921 15.9489 15 15.75 15H8.25C8.05109 15 7.86032 14.921 7.71967 14.7803C7.57902 14.6397 7.5 14.4489 7.5 14.25V11.25Z" fill="black"/>
<path d="M13.9395 0H6C5.20435 0 4.44129 0.316071 3.87868 0.87868C3.31607 1.44129 3 2.20435 3 3V21C3 21.7956 3.31607 22.5587 3.87868 23.1213C4.44129 23.6839 5.20435 24 6 24H18C18.7956 24 19.5587 23.6839 20.1213 23.1213C20.6839 22.5587 21 21.7956 21 21V7.0605C20.9999 6.66271 20.8418 6.28124 20.5605 6L15 0.4395C14.7188 0.158176 14.3373 8.49561e-05 13.9395 0V0ZM14.25 5.25V2.25L18.75 6.75H15.75C15.3522 6.75 14.9706 6.59196 14.6893 6.31066C14.408 6.02936 14.25 5.64782 14.25 5.25ZM12.75 9H15.75C16.3467 9 16.919 9.23705 17.341 9.65901C17.7629 10.081 18 10.6533 18 11.25V14.25C18 14.8467 17.7629 15.419 17.341 15.841C16.919 16.2629 16.3467 16.5 15.75 16.5H15.0405L15.711 18.513C15.7653 18.6992 15.7454 18.8993 15.6553 19.0711C15.5653 19.2429 15.4122 19.3732 15.2282 19.4345C15.0441 19.4959 14.8435 19.4835 14.6684 19.4001C14.4933 19.3166 14.3573 19.1686 14.289 18.987L13.4595 16.5H12.75V18C12.75 18.1989 12.671 18.3897 12.5303 18.5303C12.3897 18.671 12.1989 18.75 12 18.75C11.8011 18.75 11.6103 18.671 11.4697 18.5303C11.329 18.3897 11.25 18.1989 11.25 18V16.5H10.5405L9.711 18.987C9.68275 19.0839 9.63525 19.174 9.57135 19.2521C9.50744 19.3301 9.42844 19.3945 9.33908 19.4413C9.24972 19.4882 9.15182 19.5165 9.05126 19.5246C8.9507 19.5327 8.84954 19.5204 8.75383 19.4885C8.65812 19.4566 8.56983 19.4057 8.49424 19.3389C8.41866 19.2721 8.35733 19.1907 8.31394 19.0996C8.27054 19.0085 8.24596 18.9096 8.24168 18.8089C8.23739 18.7081 8.25349 18.6074 8.289 18.513L8.9595 16.5H8.25C7.65326 16.5 7.08097 16.2629 6.65901 15.841C6.23705 15.419 6 14.8467 6 14.25V11.25C6 10.6533 6.23705 10.081 6.65901 9.65901C7.08097 9.23705 7.65326 9 8.25 9H11.25C11.25 8.80109 11.329 8.61032 11.4697 8.46967C11.6103 8.32902 11.8011 8.25 12 8.25C12.1989 8.25 12.3897 8.32902 12.5303 8.46967C12.671 8.61032 12.75 8.80109 12.75 9Z" fill="black"/>
</g>
<defs>
<clipPath id="clip0_2_8731">
<rect width="24" height="24" fill="white"/>
</clipPath>
</defs>
</svg>
