<svg width="24" height="24" viewBox="0 0 24 24" fill="none" xmlns="http://www.w3.org/2000/svg">
<g clip-path="url(#clip0_2_7772)">
<path d="M18 0H6C5.20435 0 4.44129 0.316071 3.87868 0.87868C3.31607 1.44129 3 2.20435 3 3V21C3 21.7956 3.31607 22.5587 3.87868 23.1213C4.44129 23.6839 5.20435 24 6 24H18C18.7956 24 19.5587 23.6839 20.1213 23.1213C20.6839 22.5587 21 21.7956 21 21V3C21 2.20435 20.6839 1.44129 20.1213 0.87868C19.5587 0.316071 18.7956 0 18 0V0ZM12.75 6.75V7.701L13.5735 7.2255C13.6588 7.17548 13.7532 7.14283 13.8512 7.12943C13.9492 7.11603 14.0489 7.12214 14.1445 7.14743C14.2401 7.17271 14.3298 7.21665 14.4084 7.27674C14.487 7.33682 14.5529 7.41185 14.6023 7.4975C14.6518 7.58316 14.6838 7.67776 14.6966 7.77584C14.7093 7.87393 14.7025 7.97357 14.6766 8.06902C14.6507 8.16447 14.6062 8.25386 14.5456 8.33203C14.4849 8.4102 14.4095 8.47561 14.3235 8.5245L13.5 9L14.3235 9.4755C14.4095 9.52439 14.4849 9.5898 14.5456 9.66797C14.6062 9.74614 14.6507 9.83553 14.6766 9.93098C14.7025 10.0264 14.7093 10.1261 14.6966 10.2242C14.6838 10.3222 14.6518 10.4168 14.6023 10.5025C14.5529 10.5882 14.487 10.6632 14.4084 10.7233C14.3298 10.7833 14.2401 10.8273 14.1445 10.8526C14.0489 10.8779 13.9492 10.884 13.8512 10.8706C13.7532 10.8572 13.6588 10.8245 13.5735 10.7745L12.75 10.299V11.25C12.75 11.4489 12.671 11.6397 12.5303 11.7803C12.3897 11.921 12.1989 12 12 12C11.8011 12 11.6103 11.921 11.4697 11.7803C11.329 11.6397 11.25 11.4489 11.25 11.25V10.299L10.4265 10.7745C10.3412 10.8245 10.2468 10.8572 10.1488 10.8706C10.0508 10.884 9.95111 10.8779 9.85549 10.8526C9.75987 10.8273 9.67019 10.7833 9.59162 10.7233C9.51304 10.6632 9.44713 10.5882 9.39768 10.5025C9.34822 10.4168 9.3162 10.3222 9.30345 10.2242C9.2907 10.1261 9.29748 10.0264 9.32339 9.93098C9.34931 9.83553 9.39385 9.74614 9.45445 9.66797C9.51505 9.5898 9.59052 9.52439 9.6765 9.4755L10.5 9L9.6765 8.5245C9.50565 8.42434 9.38134 8.26066 9.33072 8.06919C9.2801 7.87772 9.30727 7.67399 9.40629 7.50248C9.50532 7.33096 9.66817 7.20558 9.8593 7.15369C10.0504 7.1018 10.2543 7.12761 10.4265 7.2255L11.25 7.701V6.75C11.25 6.55109 11.329 6.36032 11.4697 6.21967C11.6103 6.07902 11.8011 6 12 6C12.1989 6 12.3897 6.07902 12.5303 6.21967C12.671 6.36032 12.75 6.55109 12.75 6.75ZM8.25 13.5H15.75C15.9489 13.5 16.1397 13.579 16.2803 13.7197C16.421 13.8603 16.5 14.0511 16.5 14.25C16.5 14.4489 16.421 14.6397 16.2803 14.7803C16.1397 14.921 15.9489 15 15.75 15H8.25C8.05109 15 7.86032 14.921 7.71967 14.7803C7.57902 14.6397 7.5 14.4489 7.5 14.25C7.5 14.0511 7.57902 13.8603 7.71967 13.7197C7.86032 13.579 8.05109 13.5 8.25 13.5ZM8.25 16.5H15.75C15.9489 16.5 16.1397 16.579 16.2803 16.7197C16.421 16.8603 16.5 17.0511 16.5 17.25C16.5 17.4489 16.421 17.6397 16.2803 17.7803C16.1397 17.921 15.9489 18 15.75 18H8.25C8.05109 18 7.86032 17.921 7.71967 17.7803C7.57902 17.6397 7.5 17.4489 7.5 17.25C7.5 17.0511 7.57902 16.8603 7.71967 16.7197C7.86032 16.579 8.05109 16.5 8.25 16.5Z" fill="black"/>
</g>
<defs>
<clipPath id="clip0_2_7772">
<rect width="24" height="24" fill="white"/>
</clipPath>
</defs>
</svg>
