<svg width="24" height="24" viewBox="0 0 24 24" fill="none" xmlns="http://www.w3.org/2000/svg">
<g clip-path="url(#clip0_2_7830)">
<path d="M6 0H13.9395C14.3373 8.49561e-05 14.7188 0.158176 15 0.4395L20.5605 6C20.8418 6.28124 20.9999 6.66271 21 7.0605V15.4395L16.905 11.3445C16.7509 11.1908 16.5651 11.0724 16.3606 10.9977C16.1561 10.923 15.9378 10.8937 15.7209 10.9118C15.5039 10.9299 15.2935 10.9951 15.1043 11.1027C14.9151 11.2103 14.7515 11.3578 14.625 11.535L11.7915 15.501L9.138 13.908C8.85115 13.7357 8.51491 13.6642 8.18277 13.705C7.85063 13.7457 7.54165 13.8964 7.305 14.133L3 18.438V3C3 2.20435 3.31607 1.44129 3.87868 0.87868C4.44129 0.316071 5.20435 0 6 0V0ZM14.25 2.25V5.25C14.25 5.64782 14.408 6.02936 14.6893 6.31066C14.9706 6.59196 15.3522 6.75 15.75 6.75H18.75L14.25 2.25ZM12.003 8.25C12.003 7.65326 11.7659 7.08097 11.344 6.65901C10.922 6.23705 10.3497 6 9.753 6C9.15626 6 8.58397 6.23705 8.16201 6.65901C7.74005 7.08097 7.503 7.65326 7.503 8.25C7.503 8.84674 7.74005 9.41903 8.16201 9.84099C8.58397 10.2629 9.15626 10.5 9.753 10.5C10.3497 10.5 10.922 10.2629 11.344 9.84099C11.7659 9.41903 12.003 8.84674 12.003 8.25Z" fill="black"/>
<path d="M15.846 12.405L21 17.562V21C21 21.7957 20.6839 22.5587 20.1213 23.1213C19.5587 23.684 18.7956 24 18 24H6C5.20435 24 4.44129 23.684 3.87868 23.1213C3.31607 22.5587 3 21.7957 3 21V20.5605L8.367 15.195L12.207 17.499L15.846 12.4065V12.405Z" fill="black"/>
</g>
<defs>
<clipPath id="clip0_2_7830">
<rect width="24" height="24" fill="white"/>
</clipPath>
</defs>
</svg>
