<svg width="24" height="24" viewBox="0 0 24 24" fill="none" xmlns="http://www.w3.org/2000/svg">
<g clip-path="url(#clip0_2_8597)">
<path d="M15.456 4.69511C15.6735 4.65163 15.898 4.65694 16.1132 4.71066C16.3285 4.76438 16.5291 4.86517 16.7007 5.00577C16.8723 5.14637 17.0106 5.32328 17.1055 5.52375C17.2005 5.72423 17.2499 5.94327 17.25 6.16511V8.86511L13.5 9.61511V17.2501C13.5 17.9926 13.0485 18.5746 12.507 18.9346C11.961 19.2991 11.2485 19.5001 10.5 19.5001C9.75 19.5001 9.039 19.2991 8.493 18.9346C7.953 18.5746 7.5 17.9926 7.5 17.2501C7.5 16.5076 7.9515 15.9256 8.493 15.5656C9.039 15.2011 9.7515 15.0001 10.5 15.0001C11.034 15.0001 11.55 15.1021 12 15.2941V6.61511C12.0002 6.26847 12.1205 5.9326 12.3403 5.66461C12.5602 5.39662 12.8661 5.21305 13.206 5.14511L15.456 4.69511Z" fill="black"/>
<path d="M6 0C5.20435 0 4.44129 0.316071 3.87868 0.87868C3.31607 1.44129 3 2.20435 3 3V21C3 21.7956 3.31607 22.5587 3.87868 23.1213C4.44129 23.6839 5.20435 24 6 24H18C18.7956 24 19.5587 23.6839 20.1213 23.1213C20.6839 22.5587 21 21.7956 21 21V3C21 2.20435 20.6839 1.44129 20.1213 0.87868C19.5587 0.316071 18.7956 0 18 0L6 0ZM6 1.5H18C18.3978 1.5 18.7794 1.65804 19.0607 1.93934C19.342 2.22064 19.5 2.60218 19.5 3V21C19.5 21.3978 19.342 21.7794 19.0607 22.0607C18.7794 22.342 18.3978 22.5 18 22.5H6C5.60218 22.5 5.22064 22.342 4.93934 22.0607C4.65804 21.7794 4.5 21.3978 4.5 21V3C4.5 2.60218 4.65804 2.22064 4.93934 1.93934C5.22064 1.65804 5.60218 1.5 6 1.5Z" fill="black"/>
</g>
<defs>
<clipPath id="clip0_2_8597">
<rect width="24" height="24" fill="white"/>
</clipPath>
</defs>
</svg>
