<svg width="24" height="24" viewBox="0 0 24 24" fill="none" xmlns="http://www.w3.org/2000/svg">
<path d="M12.75 9C12.75 8.80109 12.671 8.61032 12.5303 8.46967C12.3897 8.32902 12.1989 8.25 12 8.25C11.8011 8.25 11.6103 8.32902 11.4697 8.46967C11.329 8.61032 11.25 8.80109 11.25 9H8.25C7.65326 9 7.08097 9.23705 6.65901 9.65901C6.23705 10.081 6 10.6533 6 11.25V14.25C6 14.8467 6.23705 15.419 6.65901 15.841C7.08097 16.2629 7.65326 16.5 8.25 16.5H8.9595L8.289 18.513C8.25349 18.6074 8.23739 18.7081 8.24168 18.8089C8.24596 18.9096 8.27054 19.0085 8.31394 19.0996C8.35733 19.1907 8.41866 19.2721 8.49424 19.3389C8.56983 19.4057 8.65812 19.4566 8.75383 19.4885C8.84954 19.5204 8.9507 19.5327 9.05126 19.5246C9.15182 19.5165 9.24972 19.4882 9.33908 19.4413C9.42844 19.3945 9.50744 19.3301 9.57135 19.2521C9.63525 19.174 9.68275 19.0839 9.711 18.987L10.5405 16.5H11.25V18C11.25 18.1989 11.329 18.3897 11.4697 18.5303C11.6103 18.671 11.8011 18.75 12 18.75C12.1989 18.75 12.3897 18.671 12.5303 18.5303C12.671 18.3897 12.75 18.1989 12.75 18V16.5H13.4595L14.289 18.987C14.3172 19.0839 14.3647 19.174 14.4287 19.2521C14.4926 19.3301 14.5716 19.3945 14.6609 19.4413C14.7503 19.4882 14.8482 19.5165 14.9487 19.5246C15.0493 19.5327 15.1505 19.5204 15.2462 19.4885C15.3419 19.4566 15.4302 19.4057 15.5058 19.3389C15.5813 19.2721 15.6427 19.1907 15.6861 19.0996C15.7295 19.0085 15.754 18.9096 15.7583 18.8089C15.7626 18.7081 15.7465 18.6074 15.711 18.513L15.0405 16.5H15.75C16.3467 16.5 16.919 16.2629 17.341 15.841C17.7629 15.419 18 14.8467 18 14.25V11.25C18 10.6533 17.7629 10.081 17.341 9.65901C16.919 9.23705 16.3467 9 15.75 9H12.75ZM7.5 11.25C7.5 11.0511 7.57902 10.8603 7.71967 10.7197C7.86032 10.579 8.05109 10.5 8.25 10.5H15.75C15.9489 10.5 16.1397 10.579 16.2803 10.7197C16.421 10.8603 16.5 11.0511 16.5 11.25V14.25C16.5 14.4489 16.421 14.6397 16.2803 14.7803C16.1397 14.921 15.9489 15 15.75 15H8.25C8.05109 15 7.86032 14.921 7.71967 14.7803C7.57902 14.6397 7.5 14.4489 7.5 14.25V11.25Z" fill="black"/>
<path d="M21 21V6.75L14.25 0H6C5.20435 0 4.44129 0.316071 3.87868 0.87868C3.31607 1.44129 3 2.20435 3 3V21C3 21.7956 3.31607 22.5587 3.87868 23.1213C4.44129 23.6839 5.20435 24 6 24H18C18.7956 24 19.5587 23.6839 20.1213 23.1213C20.6839 22.5587 21 21.7956 21 21ZM14.25 4.5C14.25 5.09674 14.4871 5.66903 14.909 6.09099C15.331 6.51295 15.9033 6.75 16.5 6.75H19.5V21C19.5 21.3978 19.342 21.7794 19.0607 22.0607C18.7794 22.342 18.3978 22.5 18 22.5H6C5.60218 22.5 5.22064 22.342 4.93934 22.0607C4.65804 21.7794 4.5 21.3978 4.5 21V3C4.5 2.60218 4.65804 2.22064 4.93934 1.93934C5.22064 1.65804 5.60218 1.5 6 1.5H14.25V4.5Z" fill="black"/>
</svg>
