<svg width="24" height="24" viewBox="0 0 24 24" fill="none" xmlns="http://www.w3.org/2000/svg">
<g clip-path="url(#clip0_2_7766)">
<path d="M18 0H6C5.20435 0 4.44129 0.316071 3.87868 0.87868C3.31607 1.44129 3 2.20435 3 3V21C3 21.7956 3.31607 22.5587 3.87868 23.1213C4.44129 23.6839 5.20435 24 6 24H18C18.7956 24 19.5587 23.6839 20.1213 23.1213C20.6839 22.5587 21 21.7956 21 21V3C21 2.20435 20.6839 1.44129 20.1213 0.87868C19.5587 0.316071 18.7956 0 18 0V0ZM16.5 10.5C16.5 11.6935 16.0259 12.8381 15.182 13.682C14.3381 14.5259 13.1935 15 12 15C10.8065 15 9.66193 14.5259 8.81802 13.682C7.97411 12.8381 7.5 11.6935 7.5 10.5C7.5 9.30653 7.97411 8.16193 8.81802 7.31802C9.66193 6.47411 10.8065 6 12 6C13.1935 6 14.3381 6.47411 15.182 7.31802C16.0259 8.16193 16.5 9.30653 16.5 10.5ZM12 16.5C15.9345 16.5 18.219 17.739 19.5 19.1325V21C19.5 21.3978 19.342 21.7794 19.0607 22.0607C18.7794 22.342 18.3978 22.5 18 22.5H6C5.60218 22.5 5.22064 22.342 4.93934 22.0607C4.65804 21.7794 4.5 21.3978 4.5 21V19.1325C5.781 17.7375 8.0655 16.5 12 16.5Z" fill="black"/>
</g>
<defs>
<clipPath id="clip0_2_7766">
<rect width="24" height="24" fill="white"/>
</clipPath>
</defs>
</svg>
