<svg width="24" height="24" viewBox="0 0 24 24" fill="none" xmlns="http://www.w3.org/2000/svg">
<g clip-path="url(#clip0_2_7850)">
<path d="M13.9395 0H6C5.20435 0 4.44129 0.316071 3.87868 0.87868C3.31607 1.44129 3 2.20435 3 3V21C3 21.7956 3.31607 22.5587 3.87868 23.1213C4.44129 23.6839 5.20435 24 6 24H18C18.7956 24 19.5587 23.6839 20.1213 23.1213C20.6839 22.5587 21 21.7956 21 21V7.0605C20.9999 6.66271 20.8418 6.28124 20.5605 6L15 0.4395C14.7188 0.158176 14.3373 8.49561e-05 13.9395 0V0ZM14.25 5.25V2.25L18.75 6.75H15.75C15.3522 6.75 14.9706 6.59196 14.6893 6.31066C14.408 6.02936 14.25 5.64782 14.25 5.25ZM12.75 11.25V16.9395L14.469 15.219C14.6098 15.0782 14.8008 14.9991 15 14.9991C15.1992 14.9991 15.3902 15.0782 15.531 15.219C15.6718 15.3598 15.7509 15.5508 15.7509 15.75C15.7509 15.9492 15.6718 16.1402 15.531 16.281L12.531 19.281C12.4613 19.3508 12.3786 19.4063 12.2874 19.4441C12.1963 19.4819 12.0987 19.5013 12 19.5013C11.9013 19.5013 11.8037 19.4819 11.7125 19.4441C11.6214 19.4063 11.5387 19.3508 11.469 19.281L8.469 16.281C8.32817 16.1402 8.24905 15.9492 8.24905 15.75C8.24905 15.5508 8.32817 15.3598 8.469 15.219C8.60983 15.0782 8.80084 14.9991 9 14.9991C9.19916 14.9991 9.39017 15.0782 9.531 15.219L11.25 16.9395V11.25C11.25 11.0511 11.329 10.8603 11.4697 10.7197C11.6103 10.579 11.8011 10.5 12 10.5C12.1989 10.5 12.3897 10.579 12.5303 10.7197C12.671 10.8603 12.75 11.0511 12.75 11.25Z" fill="black"/>
</g>
<defs>
<clipPath id="clip0_2_7850">
<rect width="24" height="24" fill="white"/>
</clipPath>
</defs>
</svg>
