<svg width="24" height="24" viewBox="0 0 24 24" fill="none" xmlns="http://www.w3.org/2000/svg">
<g clip-path="url(#clip0_2_7780)">
<path d="M7.5 9.75C7.5 9.55109 7.57902 9.36032 7.71967 9.21967C7.86032 9.07902 8.05109 9 8.25 9H15.75C15.9489 9 16.1397 9.07902 16.2803 9.21967C16.421 9.36032 16.5 9.55109 16.5 9.75V12.75C16.5 12.9489 16.421 13.1397 16.2803 13.2803C16.1397 13.421 15.9489 13.5 15.75 13.5H8.25C8.05109 13.5 7.86032 13.421 7.71967 13.2803C7.57902 13.1397 7.5 12.9489 7.5 12.75V9.75Z" fill="black"/>
<path d="M18 0H6C5.20435 0 4.44129 0.316071 3.87868 0.87868C3.31607 1.44129 3 2.20435 3 3V21C3 21.7956 3.31607 22.5587 3.87868 23.1213C4.44129 23.6839 5.20435 24 6 24H18C18.7956 24 19.5587 23.6839 20.1213 23.1213C20.6839 22.5587 21 21.7956 21 21V3C21 2.20435 20.6839 1.44129 20.1213 0.87868C19.5587 0.316071 18.7956 0 18 0V0ZM12.75 7.5H15.75C16.3467 7.5 16.919 7.73705 17.341 8.15901C17.7629 8.58097 18 9.15326 18 9.75V12.75C18 13.3467 17.7629 13.919 17.341 14.341C16.919 14.7629 16.3467 15 15.75 15H15.0405L15.711 17.013C15.7653 17.1992 15.7454 17.3993 15.6553 17.5711C15.5653 17.7429 15.4122 17.8732 15.2282 17.9345C15.0441 17.9959 14.8435 17.9835 14.6684 17.9001C14.4933 17.8166 14.3573 17.6686 14.289 17.487L13.4595 15H12.75V16.5C12.75 16.6989 12.671 16.8897 12.5303 17.0303C12.3897 17.171 12.1989 17.25 12 17.25C11.8011 17.25 11.6103 17.171 11.4697 17.0303C11.329 16.8897 11.25 16.6989 11.25 16.5V15H10.5405L9.711 17.487C9.68275 17.5839 9.63525 17.674 9.57135 17.7521C9.50744 17.8301 9.42844 17.8945 9.33908 17.9413C9.24972 17.9882 9.15182 18.0165 9.05126 18.0246C8.9507 18.0327 8.84954 18.0204 8.75383 17.9885C8.65812 17.9566 8.56983 17.9057 8.49424 17.8389C8.41866 17.7721 8.35733 17.6907 8.31394 17.5996C8.27054 17.5085 8.24596 17.4096 8.24168 17.3089C8.23739 17.2081 8.25349 17.1074 8.289 17.013L8.9595 15H8.25C7.65326 15 7.08097 14.7629 6.65901 14.341C6.23705 13.919 6 13.3467 6 12.75V9.75C6 9.15326 6.23705 8.58097 6.65901 8.15901C7.08097 7.73705 7.65326 7.5 8.25 7.5H11.25C11.25 7.30109 11.329 7.11032 11.4697 6.96967C11.6103 6.82902 11.8011 6.75 12 6.75C12.1989 6.75 12.3897 6.82902 12.5303 6.96967C12.671 7.11032 12.75 7.30109 12.75 7.5Z" fill="black"/>
</g>
<defs>
<clipPath id="clip0_2_7780">
<rect width="24" height="24" fill="white"/>
</clipPath>
</defs>
</svg>
