<svg width="24" height="24" viewBox="0 0 24 24" fill="none" xmlns="http://www.w3.org/2000/svg">
<g clip-path="url(#clip0_2_7813)">
<path d="M18 0H6C5.20435 0 4.44129 0.316071 3.87868 0.87868C3.31607 1.44129 3 2.20435 3 3V21C3 21.7956 3.31607 22.5587 3.87868 23.1213C4.44129 23.6839 5.20435 24 6 24H18C18.7956 24 19.5587 23.6839 20.1213 23.1213C20.6839 22.5587 21 21.7956 21 21V3C21 2.20435 20.6839 1.44129 20.1213 0.87868C19.5587 0.316071 18.7956 0 18 0V0ZM7.5855 6H16.4145L16.5 9H15.75C15.48 7.356 15.216 7.212 13.209 7.1475L12.762 7.1325V16.2675C12.762 16.9725 12.912 17.1405 14.1165 17.25V18H9.885V17.25C11.0835 17.1405 11.232 16.974 11.232 16.269V7.1325L10.7925 7.1475C8.784 7.212 8.52 7.3575 8.25 9H7.5L7.5855 6Z" fill="black"/>
</g>
<defs>
<clipPath id="clip0_2_7813">
<rect width="24" height="24" fill="white"/>
</clipPath>
</defs>
</svg>
