<svg width="24" height="24" viewBox="0 0 24 24" fill="none" xmlns="http://www.w3.org/2000/svg">
<g clip-path="url(#clip0_2_8598)">
<path d="M16.281 9.21888C16.3508 9.28854 16.4062 9.37131 16.444 9.46242C16.4818 9.55354 16.5013 9.65122 16.5013 9.74988C16.5013 9.84853 16.4818 9.94621 16.444 10.0373C16.4062 10.1284 16.3508 10.2112 16.281 10.2809L11.781 14.7809C11.7113 14.8507 11.6285 14.9061 11.5374 14.9439C11.4463 14.9818 11.3486 15.0012 11.25 15.0012C11.1513 15.0012 11.0536 14.9818 10.9625 14.9439C10.8714 14.9061 10.7886 14.8507 10.719 14.7809L8.46897 12.5309C8.39924 12.4611 8.34392 12.3784 8.30619 12.2873C8.26845 12.1961 8.24902 12.0985 8.24902 11.9999C8.24902 11.9013 8.26845 11.8036 8.30619 11.7125C8.34392 11.6214 8.39924 11.5386 8.46897 11.4689C8.5387 11.3991 8.62149 11.3438 8.7126 11.3061C8.8037 11.2684 8.90136 11.2489 8.99997 11.2489C9.09859 11.2489 9.19624 11.2684 9.28735 11.3061C9.37846 11.3438 9.46124 11.3991 9.53097 11.4689L11.25 13.1894L15.219 9.21888C15.2886 9.14903 15.3714 9.09362 15.4625 9.05581C15.5536 9.018 15.6513 8.99854 15.75 8.99854C15.8486 8.99854 15.9463 9.018 16.0374 9.05581C16.1285 9.09362 16.2113 9.14903 16.281 9.21888Z" fill="black"/>
<path d="M6 0C5.20435 0 4.44129 0.316071 3.87868 0.87868C3.31607 1.44129 3 2.20435 3 3V21C3 21.7956 3.31607 22.5587 3.87868 23.1213C4.44129 23.6839 5.20435 24 6 24H18C18.7956 24 19.5587 23.6839 20.1213 23.1213C20.6839 22.5587 21 21.7956 21 21V3C21 2.20435 20.6839 1.44129 20.1213 0.87868C19.5587 0.316071 18.7956 0 18 0L6 0ZM6 1.5H18C18.3978 1.5 18.7794 1.65804 19.0607 1.93934C19.342 2.22064 19.5 2.60218 19.5 3V21C19.5 21.3978 19.342 21.7794 19.0607 22.0607C18.7794 22.342 18.3978 22.5 18 22.5H6C5.60218 22.5 5.22064 22.342 4.93934 22.0607C4.65804 21.7794 4.5 21.3978 4.5 21V3C4.5 2.60218 4.65804 2.22064 4.93934 1.93934C5.22064 1.65804 5.60218 1.5 6 1.5Z" fill="black"/>
</g>
<defs>
<clipPath id="clip0_2_8598">
<rect width="24" height="24" fill="white"/>
</clipPath>
</defs>
</svg>
