<svg width="24" height="24" viewBox="0 0 24 24" fill="none" xmlns="http://www.w3.org/2000/svg">
<g clip-path="url(#clip0_2_8683)">
<path d="M18 0H6C5.20435 0 4.44129 0.316071 3.87868 0.87868C3.31607 1.44129 3 2.20435 3 3V21C3 21.7956 3.31607 22.5587 3.87868 23.1213C4.44129 23.6839 5.20435 24 6 24H18C18.7956 24 19.5587 23.6839 20.1213 23.1213C20.6839 22.5587 21 21.7956 21 21V3C21 2.20435 20.6839 1.44129 20.1213 0.87868C19.5587 0.316071 18.7956 0 18 0V0ZM9.969 8.469C10.0387 8.39927 10.1215 8.34395 10.2126 8.30622C10.3037 8.26848 10.4014 8.24905 10.5 8.24905C10.5986 8.24905 10.6963 8.26848 10.7874 8.30622C10.8785 8.34395 10.9613 8.39927 11.031 8.469C11.1007 8.53873 11.156 8.62152 11.1938 8.71262C11.2315 8.80373 11.2509 8.90138 11.2509 9C11.2509 9.09862 11.2315 9.19627 11.1938 9.28738C11.156 9.37848 11.1007 9.46127 11.031 9.531L8.5605 12L11.031 14.469C11.1718 14.6098 11.2509 14.8008 11.2509 15C11.2509 15.1992 11.1718 15.3902 11.031 15.531C10.8902 15.6718 10.6992 15.7509 10.5 15.7509C10.3008 15.7509 10.1098 15.6718 9.969 15.531L6.969 12.531C6.89915 12.4613 6.84374 12.3786 6.80593 12.2874C6.76812 12.1963 6.74866 12.0987 6.74866 12C6.74866 11.9013 6.76812 11.8037 6.80593 11.7125C6.84374 11.6214 6.89915 11.5387 6.969 11.469L9.969 8.469ZM14.031 8.469L17.031 11.469C17.1008 11.5387 17.1563 11.6214 17.1941 11.7125C17.2319 11.8037 17.2513 11.9013 17.2513 12C17.2513 12.0987 17.2319 12.1963 17.1941 12.2874C17.1563 12.3786 17.1008 12.4613 17.031 12.531L14.031 15.531C13.9613 15.6007 13.8785 15.656 13.7874 15.6938C13.6963 15.7315 13.5986 15.7509 13.5 15.7509C13.4014 15.7509 13.3037 15.7315 13.2126 15.6938C13.1215 15.656 13.0387 15.6007 12.969 15.531C12.8993 15.4613 12.844 15.3785 12.8062 15.2874C12.7685 15.1963 12.7491 15.0986 12.7491 15C12.7491 14.9014 12.7685 14.8037 12.8062 14.7126C12.844 14.6215 12.8993 14.5387 12.969 14.469L15.4395 12L12.969 9.531C12.8282 9.39017 12.7491 9.19916 12.7491 9C12.7491 8.80084 12.8282 8.60983 12.969 8.469C13.1098 8.32817 13.3008 8.24905 13.5 8.24905C13.6992 8.24905 13.8902 8.32817 14.031 8.469Z" fill="black"/>
</g>
<defs>
<clipPath id="clip0_2_8683">
<rect width="24" height="24" fill="white"/>
</clipPath>
</defs>
</svg>
