<svg width="24" height="24" viewBox="0 0 24 24" fill="none" xmlns="http://www.w3.org/2000/svg">
<g clip-path="url(#clip0_2_8617)">
<path d="M6 0C5.20435 0 4.44129 0.316071 3.87868 0.87868C3.31607 1.44129 3 2.20435 3 3V21C3 21.7956 3.31607 22.5587 3.87868 23.1213C4.44129 23.6839 5.20435 24 6 24H18C18.7956 24 19.5587 23.6839 20.1213 23.1213C20.6839 22.5587 21 21.7956 21 21V3C21 2.20435 20.6839 1.44129 20.1213 0.87868C19.5587 0.316071 18.7956 0 18 0L6 0ZM6 1.5H18C18.3978 1.5 18.7794 1.65804 19.0607 1.93934C19.342 2.22064 19.5 2.60218 19.5 3V21C19.5 21.3978 19.342 21.7794 19.0607 22.0607C18.7794 22.342 18.3978 22.5 18 22.5H6C5.60218 22.5 5.22064 22.342 4.93934 22.0607C4.65804 21.7794 4.5 21.3978 4.5 21V3C4.5 2.60218 4.65804 2.22064 4.93934 1.93934C5.22064 1.65804 5.60218 1.5 6 1.5Z" fill="black"/>
<path d="M6.9045 18.1305C6.61214 18.0136 6.37659 17.7877 6.2475 17.5005C5.955 16.9185 6.0525 16.3365 6.3675 15.8475C6.6645 15.387 7.1565 14.9955 7.713 14.667C8.41791 14.2672 9.16304 13.9429 9.936 13.6995C10.5363 12.6204 11.0683 11.5047 11.529 10.359C11.2536 9.73314 11.0376 9.08278 10.884 8.41648C10.755 7.81648 10.7055 7.22248 10.815 6.71248C10.9275 6.18148 11.226 5.70448 11.79 5.47798C12.078 5.36248 12.39 5.29798 12.693 5.36248C12.8454 5.39493 12.9887 5.4609 13.1125 5.55559C13.2362 5.65029 13.3373 5.77135 13.4085 5.90998C13.5405 6.15598 13.5885 6.44398 13.599 6.71698C13.6095 6.99748 13.581 7.30948 13.5285 7.63798C13.4025 8.40298 13.1235 9.33898 12.7485 10.329C13.1623 11.214 13.6543 12.0604 14.2185 12.858C14.8862 12.8053 15.5577 12.8304 16.2195 12.933C16.7655 13.0305 17.3205 13.2255 17.6595 13.6305C17.8395 13.8465 17.949 14.1105 17.9595 14.4075C17.97 14.6955 17.889 14.9805 17.7525 15.252C17.6343 15.5036 17.4509 15.719 17.2215 15.876C16.9947 16.0239 16.727 16.0964 16.4565 16.083C15.96 16.062 15.4755 15.789 15.057 15.4575C14.5482 15.0367 14.0896 14.5585 13.6905 14.0325C12.6761 14.1475 11.6738 14.3513 10.695 14.6415C10.2463 15.4365 9.73411 16.1939 9.1635 16.9065C8.7285 17.4315 8.2515 17.889 7.7745 18.087C7.50044 18.211 7.18957 18.2265 6.9045 18.1305ZM8.973 15.279C8.724 15.393 8.493 15.513 8.2845 15.636C7.7925 15.927 7.473 16.2105 7.314 16.4565C7.173 16.674 7.17 16.8315 7.254 16.998C7.269 17.031 7.284 17.052 7.293 17.064C7.31089 17.0592 7.32844 17.0532 7.3455 17.046C7.551 16.962 7.878 16.6935 8.298 16.188C8.53687 15.8955 8.76211 15.5922 8.973 15.279ZM11.433 13.284C11.9339 13.167 12.4393 13.0704 12.948 12.9945C12.6748 12.5766 12.4195 12.1472 12.183 11.7075C11.9478 12.2394 11.6977 12.7646 11.433 13.2825V13.284ZM15.102 13.959C15.327 14.202 15.546 14.409 15.7545 14.574C16.1145 14.859 16.365 14.9535 16.5015 14.958C16.5381 14.9628 16.5751 14.9548 16.6065 14.9355C16.6689 14.8862 16.7175 14.8216 16.7475 14.748C16.8008 14.6566 16.8312 14.5537 16.836 14.448C16.8351 14.4127 16.8212 14.3791 16.797 14.3535C16.719 14.2605 16.497 14.1255 16.02 14.04C15.7166 13.9893 15.4096 13.9627 15.102 13.9605V13.959ZM12.117 8.69998C12.2432 8.29277 12.3434 7.87793 12.417 7.45798C12.4635 7.17598 12.4815 6.94348 12.474 6.76048C12.4744 6.65952 12.4582 6.55918 12.426 6.46348C12.351 6.47277 12.2777 6.49299 12.2085 6.52348C12.078 6.57598 11.9715 6.68248 11.9145 6.94798C11.8545 7.23598 11.8695 7.65148 11.9835 8.18098C12.0195 8.34748 12.0645 8.52148 12.1185 8.69998H12.117Z" fill="black"/>
</g>
<defs>
<clipPath id="clip0_2_8617">
<rect width="24" height="24" fill="white"/>
</clipPath>
</defs>
</svg>
