<svg width="24" height="24" viewBox="0 0 24 24" fill="none" xmlns="http://www.w3.org/2000/svg">
<g clip-path="url(#clip0_2_7786)">
<path d="M13.9395 0H6C5.20435 0 4.44129 0.316071 3.87868 0.87868C3.31607 1.44129 3 2.20435 3 3V21C3 21.7956 3.31607 22.5587 3.87868 23.1213C4.44129 23.6839 5.20435 24 6 24H18C18.7956 24 19.5587 23.6839 20.1213 23.1213C20.6839 22.5587 21 21.7956 21 21V7.0605C20.9999 6.66271 20.8418 6.28124 20.5605 6L15 0.4395C14.7188 0.158176 14.3373 8.49561e-05 13.9395 0V0ZM14.25 5.25V2.25L18.75 6.75H15.75C15.3522 6.75 14.9706 6.59196 14.6893 6.31066C14.408 6.02936 14.25 5.64782 14.25 5.25ZM10.281 10.719L12 12.4395L13.719 10.719C13.8598 10.5782 14.0508 10.4991 14.25 10.4991C14.4492 10.4991 14.6402 10.5782 14.781 10.719C14.9218 10.8598 15.0009 11.0508 15.0009 11.25C15.0009 11.4492 14.9218 11.6402 14.781 11.781L13.0605 13.5L14.781 15.219C14.9218 15.3598 15.0009 15.5508 15.0009 15.75C15.0009 15.9492 14.9218 16.1402 14.781 16.281C14.6402 16.4218 14.4492 16.5009 14.25 16.5009C14.0508 16.5009 13.8598 16.4218 13.719 16.281L12 14.5605L10.281 16.281C10.1402 16.4218 9.94916 16.5009 9.75 16.5009C9.55084 16.5009 9.35983 16.4218 9.219 16.281C9.07817 16.1402 8.99905 15.9492 8.99905 15.75C8.99905 15.5508 9.07817 15.3598 9.219 15.219L10.9395 13.5L9.219 11.781C9.14927 11.7113 9.09395 11.6285 9.05621 11.5374C9.01848 11.4463 8.99905 11.3486 8.99905 11.25C8.99905 11.1514 9.01848 11.0537 9.05621 10.9626C9.09395 10.8715 9.14927 10.7887 9.219 10.719C9.28873 10.6493 9.37152 10.594 9.46262 10.5562C9.55373 10.5185 9.65138 10.4991 9.75 10.4991C9.84862 10.4991 9.94627 10.5185 10.0374 10.5562C10.1285 10.594 10.2113 10.6493 10.281 10.719Z" fill="black"/>
</g>
<defs>
<clipPath id="clip0_2_7786">
<rect width="24" height="24" fill="white"/>
</clipPath>
</defs>
</svg>
