<svg width="24" height="24" viewBox="0 0 24 24" fill="none" xmlns="http://www.w3.org/2000/svg">
<g clip-path="url(#clip0_2_7806)">
<path d="M13.9395 0H6C5.20435 0 4.44129 0.316071 3.87868 0.87868C3.31607 1.44129 3 2.20435 3 3V21C3 21.7956 3.31607 22.5587 3.87868 23.1213C4.44129 23.6839 5.20435 24 6 24H18C18.7956 24 19.5587 23.6839 20.1213 23.1213C20.6839 22.5587 21 21.7956 21 21V7.0605C20.9999 6.66271 20.8418 6.28124 20.5605 6L15 0.4395C14.7188 0.158176 14.3373 8.49561e-05 13.9395 0V0ZM14.25 5.25V2.25L18.75 6.75H15.75C15.3522 6.75 14.9706 6.59196 14.6893 6.31066C14.408 6.02936 14.25 5.64782 14.25 5.25ZM9 10.3245C8.99997 10.1918 9.03515 10.0615 9.10195 9.94681C9.16875 9.83215 9.26477 9.73726 9.38022 9.67184C9.49567 9.60641 9.62641 9.57279 9.7591 9.5744C9.89179 9.57601 10.0217 9.61279 10.1355 9.681L15.4275 12.8565C15.5387 12.9231 15.6308 13.0174 15.6947 13.1302C15.7587 13.2429 15.7923 13.3704 15.7923 13.5C15.7923 13.6296 15.7587 13.7571 15.6947 13.8698C15.6308 13.9826 15.5387 14.0769 15.4275 14.1435L10.1355 17.319C10.0216 17.3873 9.89154 17.4241 9.75872 17.4256C9.6259 17.4272 9.49506 17.3934 9.37956 17.3278C9.26407 17.2622 9.16807 17.1671 9.10138 17.0522C9.03469 16.9373 8.99971 16.8068 9 16.674V10.326V10.3245Z" fill="black"/>
</g>
<defs>
<clipPath id="clip0_2_7806">
<rect width="24" height="24" fill="white"/>
</clipPath>
</defs>
</svg>
