<svg width="24" height="24" viewBox="0 0 24 24" fill="none" xmlns="http://www.w3.org/2000/svg">
<path d="M16.281 11.781C16.4218 11.6401 16.5009 11.4491 16.5009 11.25C16.5009 11.0508 16.4218 10.8598 16.281 10.719C16.1401 10.5781 15.9491 10.499 15.75 10.499C15.5508 10.499 15.3598 10.5781 15.219 10.719L11.25 14.6895L9.53097 12.969C9.39014 12.8281 9.19913 12.749 8.99997 12.749C8.80081 12.749 8.6098 12.8281 8.46897 12.969C8.32814 13.1098 8.24902 13.3008 8.24902 13.5C8.24902 13.6991 8.32814 13.8901 8.46897 14.031L10.719 16.281C10.7886 16.3508 10.8714 16.4062 10.9625 16.444C11.0536 16.4818 11.1513 16.5013 11.25 16.5013C11.3486 16.5013 11.4463 16.4818 11.5374 16.444C11.6285 16.4062 11.7113 16.3508 11.781 16.281L16.281 11.781Z" fill="black"/>
<path d="M21 21V6.75L14.25 0H6C5.20435 0 4.44129 0.316071 3.87868 0.87868C3.31607 1.44129 3 2.20435 3 3V21C3 21.7956 3.31607 22.5587 3.87868 23.1213C4.44129 23.6839 5.20435 24 6 24H18C18.7956 24 19.5587 23.6839 20.1213 23.1213C20.6839 22.5587 21 21.7956 21 21ZM14.25 4.5C14.25 5.09674 14.4871 5.66903 14.909 6.09099C15.331 6.51295 15.9033 6.75 16.5 6.75H19.5V21C19.5 21.3978 19.342 21.7794 19.0607 22.0607C18.7794 22.342 18.3978 22.5 18 22.5H6C5.60218 22.5 5.22064 22.342 4.93934 22.0607C4.65804 21.7794 4.5 21.3978 4.5 21V3C4.5 2.60218 4.65804 2.22064 4.93934 1.93934C5.22064 1.65804 5.60218 1.5 6 1.5H14.25V4.5Z" fill="black"/>
</svg>
