<svg width="24" height="24" viewBox="0 0 24 24" fill="none" xmlns="http://www.w3.org/2000/svg">
<g clip-path="url(#clip0_2_7785)">
<path d="M8.24998 14.157V12.75H9.74998V14.157C9.74999 14.2799 9.76511 14.4023 9.79498 14.5215L10.395 16.9185L8.99998 17.8485L7.60498 16.9185L8.20498 14.5215C8.23485 14.4023 8.24997 14.2799 8.24998 14.157Z" fill="black"/>
<path d="M13.9395 0H6C5.20435 0 4.44129 0.316071 3.87868 0.87868C3.31607 1.44129 3 2.20435 3 3V21C3 21.7956 3.31607 22.5587 3.87868 23.1213C4.44129 23.6839 5.20435 24 6 24H18C18.7956 24 19.5587 23.6839 20.1213 23.1213C20.6839 22.5587 21 21.7956 21 21V7.0605C20.9999 6.66271 20.8418 6.28124 20.5605 6L15 0.4395C14.7188 0.158176 14.3373 8.49561e-05 13.9395 0V0ZM14.25 5.25V2.25L18.75 6.75H15.75C15.3522 6.75 14.9706 6.59196 14.6893 6.31066C14.408 6.02936 14.25 5.64782 14.25 5.25ZM8.25 4.5V3H6.75V1.5H9V3H10.5V4.5H9V6H10.5V7.5H9V9H10.5V10.5H8.25V9H6.75V7.5H8.25V6H6.75V4.5H8.25ZM8.25 11.25H9.75C10.1478 11.25 10.5294 11.408 10.8107 11.6893C11.092 11.9706 11.25 12.3522 11.25 12.75V14.157L11.85 16.5555C11.9248 16.8556 11.9049 17.1715 11.7932 17.4599C11.6815 17.7482 11.4834 17.9951 11.226 18.1665L9.831 19.0965C9.58466 19.2606 9.29526 19.3482 8.99925 19.3482C8.70324 19.3482 8.41384 19.2606 8.1675 19.0965L6.7725 18.1665C6.51537 17.9949 6.31756 17.748 6.20613 17.4596C6.0947 17.1712 6.0751 16.8554 6.15 16.5555L6.75 14.157V12.75C6.75 12.3522 6.90804 11.9706 7.18934 11.6893C7.47064 11.408 7.85218 11.25 8.25 11.25Z" fill="black"/>
</g>
<defs>
<clipPath id="clip0_2_7785">
<rect width="24" height="24" fill="white"/>
</clipPath>
</defs>
</svg>
