<svg width="24" height="24" viewBox="0 0 24 24" fill="none" xmlns="http://www.w3.org/2000/svg">
<g clip-path="url(#clip0_2_8442)">
<path d="M12 7.5C12.1989 7.5 12.3896 7.57902 12.5303 7.71967C12.671 7.86032 12.75 8.05109 12.75 8.25V13.9395L14.469 12.219C14.6098 12.0782 14.8008 11.9991 15 11.9991C15.1991 11.9991 15.3901 12.0782 15.531 12.219C15.6718 12.3598 15.7509 12.5508 15.7509 12.75C15.7509 12.9492 15.6718 13.1402 15.531 13.281L12.531 16.281C12.4613 16.3508 12.3785 16.4063 12.2874 16.4441C12.1963 16.4819 12.0986 16.5013 12 16.5013C11.9013 16.5013 11.8036 16.4819 11.7125 16.4441C11.6214 16.4063 11.5386 16.3508 11.469 16.281L8.46897 13.281C8.39924 13.2113 8.34392 13.1285 8.30619 13.0374C8.26845 12.9463 8.24902 12.8486 8.24902 12.75C8.24902 12.6514 8.26845 12.5537 8.30619 12.4626C8.34392 12.3715 8.39924 12.2887 8.46897 12.219C8.6098 12.0782 8.80081 11.9991 8.99997 11.9991C9.09859 11.9991 9.19624 12.0185 9.28735 12.0562C9.37846 12.094 9.46124 12.1493 9.53097 12.219L11.25 13.9395V8.25C11.25 8.05109 11.329 7.86032 11.4696 7.71967C11.6103 7.57902 11.8011 7.5 12 7.5Z" fill="black"/>
<path d="M6 0C5.20435 0 4.44129 0.316071 3.87868 0.87868C3.31607 1.44129 3 2.20435 3 3V21C3 21.7956 3.31607 22.5587 3.87868 23.1213C4.44129 23.6839 5.20435 24 6 24H18C18.7956 24 19.5587 23.6839 20.1213 23.1213C20.6839 22.5587 21 21.7956 21 21V3C21 2.20435 20.6839 1.44129 20.1213 0.87868C19.5587 0.316071 18.7956 0 18 0L6 0ZM6 1.5H18C18.3978 1.5 18.7794 1.65804 19.0607 1.93934C19.342 2.22064 19.5 2.60218 19.5 3V21C19.5 21.3978 19.342 21.7794 19.0607 22.0607C18.7794 22.342 18.3978 22.5 18 22.5H6C5.60218 22.5 5.22064 22.342 4.93934 22.0607C4.65804 21.7794 4.5 21.3978 4.5 21V3C4.5 2.60218 4.65804 2.22064 4.93934 1.93934C5.22064 1.65804 5.60218 1.5 6 1.5Z" fill="black"/>
</g>
<defs>
<clipPath id="clip0_2_8442">
<rect width="24" height="24" fill="white"/>
</clipPath>
</defs>
</svg>
