<svg width="24" height="24" viewBox="0 0 24 24" fill="none" xmlns="http://www.w3.org/2000/svg">
<path d="M12.75 6.75C12.75 6.55109 12.671 6.36032 12.5303 6.21967C12.3897 6.07902 12.1989 6 12 6C11.8011 6 11.6103 6.07902 11.4697 6.21967C11.329 6.36032 11.25 6.55109 11.25 6.75V7.701L10.4265 7.2255C10.3412 7.17548 10.2468 7.14283 10.1488 7.12943C10.0508 7.11603 9.95111 7.12214 9.85549 7.14743C9.75987 7.17271 9.67019 7.21665 9.59162 7.27674C9.51304 7.33682 9.44713 7.41185 9.39768 7.4975C9.34822 7.58316 9.3162 7.67776 9.30345 7.77584C9.2907 7.87393 9.29748 7.97356 9.32339 8.06902C9.34931 8.16447 9.39385 8.25386 9.45445 8.33203C9.51505 8.4102 9.59052 8.47561 9.6765 8.5245L10.5 9L9.6765 9.4755C9.59052 9.52439 9.51505 9.5898 9.45445 9.66797C9.39385 9.74614 9.34931 9.83553 9.32339 9.93098C9.29748 10.0264 9.2907 10.1261 9.30345 10.2242C9.3162 10.3222 9.34822 10.4168 9.39768 10.5025C9.44713 10.5882 9.51304 10.6632 9.59162 10.7233C9.67019 10.7833 9.75987 10.8273 9.85549 10.8526C9.95111 10.8779 10.0508 10.884 10.1488 10.8706C10.2468 10.8572 10.3412 10.8245 10.4265 10.7745L11.25 10.299V11.25C11.25 11.4489 11.329 11.6397 11.4697 11.7803C11.6103 11.921 11.8011 12 12 12C12.1989 12 12.3897 11.921 12.5303 11.7803C12.671 11.6397 12.75 11.4489 12.75 11.25V10.299L13.5735 10.7745C13.6588 10.8245 13.7532 10.8572 13.8512 10.8706C13.9492 10.884 14.0489 10.8779 14.1445 10.8526C14.2401 10.8273 14.3298 10.7833 14.4084 10.7233C14.487 10.6632 14.5529 10.5882 14.6023 10.5025C14.6518 10.4168 14.6838 10.3222 14.6966 10.2242C14.7093 10.1261 14.7025 10.0264 14.6766 9.93098C14.6507 9.83553 14.6062 9.74614 14.5456 9.66797C14.4849 9.5898 14.4095 9.52439 14.3235 9.4755L13.5 9L14.3235 8.5245C14.4095 8.47561 14.4849 8.4102 14.5456 8.33203C14.6062 8.25386 14.6507 8.16447 14.6766 8.06902C14.7025 7.97356 14.7093 7.87393 14.6966 7.77584C14.6838 7.67776 14.6518 7.58316 14.6023 7.4975C14.5529 7.41185 14.487 7.33682 14.4084 7.27674C14.3298 7.21665 14.2401 7.17271 14.1445 7.14743C14.0489 7.12214 13.9492 7.11603 13.8512 7.12943C13.7532 7.14283 13.6588 7.17548 13.5735 7.2255L12.75 7.701V6.75ZM8.25 13.5C8.05109 13.5 7.86032 13.579 7.71967 13.7197C7.57902 13.8603 7.5 14.0511 7.5 14.25C7.5 14.4489 7.57902 14.6397 7.71967 14.7803C7.86032 14.921 8.05109 15 8.25 15H15.75C15.9489 15 16.1397 14.921 16.2803 14.7803C16.421 14.6397 16.5 14.4489 16.5 14.25C16.5 14.0511 16.421 13.8603 16.2803 13.7197C16.1397 13.579 15.9489 13.5 15.75 13.5H8.25ZM8.25 16.5C8.05109 16.5 7.86032 16.579 7.71967 16.7197C7.57902 16.8603 7.5 17.0511 7.5 17.25C7.5 17.4489 7.57902 17.6397 7.71967 17.7803C7.86032 17.921 8.05109 18 8.25 18H15.75C15.9489 18 16.1397 17.921 16.2803 17.7803C16.421 17.6397 16.5 17.4489 16.5 17.25C16.5 17.0511 16.421 16.8603 16.2803 16.7197C16.1397 16.579 15.9489 16.5 15.75 16.5H8.25Z" fill="black"/>
<path d="M3 3C3 2.20435 3.31607 1.44129 3.87868 0.87868C4.44129 0.316071 5.20435 0 6 0L18 0C18.7956 0 19.5587 0.316071 20.1213 0.87868C20.6839 1.44129 21 2.20435 21 3V21C21 21.7956 20.6839 22.5587 20.1213 23.1213C19.5587 23.6839 18.7956 24 18 24H6C5.20435 24 4.44129 23.6839 3.87868 23.1213C3.31607 22.5587 3 21.7956 3 21V3ZM18 1.5H6C5.60218 1.5 5.22064 1.65804 4.93934 1.93934C4.65804 2.22064 4.5 2.60218 4.5 3V21C4.5 21.3978 4.65804 21.7794 4.93934 22.0607C5.22064 22.342 5.60218 22.5 6 22.5H18C18.3978 22.5 18.7794 22.342 19.0607 22.0607C19.342 21.7794 19.5 21.3978 19.5 21V3C19.5 2.60218 19.342 2.22064 19.0607 1.93934C18.7794 1.65804 18.3978 1.5 18 1.5Z" fill="black"/>
</svg>
