<svg width="24" height="24" viewBox="0 0 24 24" fill="none" xmlns="http://www.w3.org/2000/svg">
<g clip-path="url(#clip0_2_8413)">
<path d="M13.9395 0H6C5.20435 0 4.44129 0.316071 3.87868 0.87868C3.31607 1.44129 3 2.20435 3 3V21C3 21.7956 3.31607 22.5587 3.87868 23.1213C4.44129 23.6839 5.20435 24 6 24H18C18.7956 24 19.5587 23.6839 20.1213 23.1213C20.6839 22.5587 21 21.7956 21 21V7.0605C20.9999 6.66271 20.8418 6.28124 20.5605 6L15 0.4395C14.7188 0.158176 14.3373 8.49561e-05 13.9395 0V0ZM14.25 5.25V2.25L18.75 6.75H15.75C15.3522 6.75 14.9706 6.59196 14.6893 6.31066C14.408 6.02936 14.25 5.64782 14.25 5.25ZM16.281 11.781L11.781 16.281C11.7113 16.3508 11.6286 16.4063 11.5375 16.4441C11.4463 16.4819 11.3487 16.5013 11.25 16.5013C11.1513 16.5013 11.0537 16.4819 10.9625 16.4441C10.8714 16.4063 10.7887 16.3508 10.719 16.281L8.469 14.031C8.39927 13.9613 8.34395 13.8785 8.30621 13.7874C8.26848 13.6963 8.24905 13.5986 8.24905 13.5C8.24905 13.4014 8.26848 13.3037 8.30621 13.2126C8.34395 13.1215 8.39927 13.0387 8.469 12.969C8.60983 12.8282 8.80084 12.7491 9 12.7491C9.09862 12.7491 9.19627 12.7685 9.28738 12.8062C9.37848 12.844 9.46127 12.8993 9.531 12.969L11.25 14.6895L15.219 10.719C15.3598 10.5782 15.5508 10.4991 15.75 10.4991C15.9492 10.4991 16.1402 10.5782 16.281 10.719C16.4218 10.8598 16.5009 11.0508 16.5009 11.25C16.5009 11.4492 16.4218 11.6402 16.281 11.781Z" fill="black"/>
</g>
<defs>
<clipPath id="clip0_2_8413">
<rect width="24" height="24" fill="white"/>
</clipPath>
</defs>
</svg>
