<svg width="24" height="24" viewBox="0 0 24 24" fill="none" xmlns="http://www.w3.org/2000/svg">
<g clip-path="url(#clip0_2_8452)">
<path d="M6.75 18C6.55109 18 6.36032 17.921 6.21967 17.7803C6.07902 17.6397 6 17.4489 6 17.25V14.25C6 14.0511 6.07902 13.8603 6.21967 13.7197C6.36032 13.579 6.55109 13.5 6.75 13.5H8.25C8.44891 13.5 8.63968 13.579 8.78033 13.7197C8.92098 13.8603 9 14.0511 9 14.25V17.25C9 17.4489 8.92098 17.6397 8.78033 17.7803C8.63968 17.921 8.44891 18 8.25 18H6.75ZM11.25 18C11.0511 18 10.8603 17.921 10.7197 17.7803C10.579 17.6397 10.5 17.4489 10.5 17.25V11.25C10.5 11.0511 10.579 10.8603 10.7197 10.7197C10.8603 10.579 11.0511 10.5 11.25 10.5H12.75C12.9489 10.5 13.1397 10.579 13.2803 10.7197C13.421 10.8603 13.5 11.0511 13.5 11.25V17.25C13.5 17.4489 13.421 17.6397 13.2803 17.7803C13.1397 17.921 12.9489 18 12.75 18H11.25ZM15.75 18C15.5511 18 15.3603 17.921 15.2197 17.7803C15.079 17.6397 15 17.4489 15 17.25V8.25C15 8.05109 15.079 7.86032 15.2197 7.71967C15.3603 7.57902 15.5511 7.5 15.75 7.5H17.25C17.4489 7.5 17.6397 7.57902 17.7803 7.71967C17.921 7.86032 18 8.05109 18 8.25V17.25C18 17.4489 17.921 17.6397 17.7803 17.7803C17.6397 17.921 17.4489 18 17.25 18H15.75Z" fill="black"/>
<path d="M6 0C5.20435 0 4.44129 0.316071 3.87868 0.87868C3.31607 1.44129 3 2.20435 3 3V21C3 21.7956 3.31607 22.5587 3.87868 23.1213C4.44129 23.6839 5.20435 24 6 24H18C18.7956 24 19.5587 23.6839 20.1213 23.1213C20.6839 22.5587 21 21.7956 21 21V3C21 2.20435 20.6839 1.44129 20.1213 0.87868C19.5587 0.316071 18.7956 0 18 0L6 0ZM6 1.5H18C18.3978 1.5 18.7794 1.65804 19.0607 1.93934C19.342 2.22064 19.5 2.60218 19.5 3V21C19.5 21.3978 19.342 21.7794 19.0607 22.0607C18.7794 22.342 18.3978 22.5 18 22.5H6C5.60218 22.5 5.22064 22.342 4.93934 22.0607C4.65804 21.7794 4.5 21.3978 4.5 21V3C4.5 2.60218 4.65804 2.22064 4.93934 1.93934C5.22064 1.65804 5.60218 1.5 6 1.5Z" fill="black"/>
</g>
<defs>
<clipPath id="clip0_2_8452">
<rect width="24" height="24" fill="white"/>
</clipPath>
</defs>
</svg>
