<svg width="24" height="24" viewBox="0 0 24 24" fill="none" xmlns="http://www.w3.org/2000/svg">
<path d="M12.75 14.157V12.75H11.25V14.157C11.25 14.2799 11.2349 14.4023 11.205 14.5215L10.605 16.9185L12 17.8485L13.395 16.9185L12.795 14.5215C12.7651 14.4023 12.75 14.2799 12.75 14.157Z" fill="black"/>
<path d="M6 0H18C18.7956 0 19.5587 0.316071 20.1213 0.87868C20.6839 1.44129 21 2.20435 21 3V21C21 21.7956 20.6839 22.5587 20.1213 23.1213C19.5587 23.6839 18.7956 24 18 24H6C5.20435 24 4.44129 23.6839 3.87868 23.1213C3.31607 22.5587 3 21.7956 3 21V3C3 2.20435 3.31607 1.44129 3.87868 0.87868C4.44129 0.316071 5.20435 0 6 0V0ZM9.75 12.75V14.157L9.15 16.5555C9.07525 16.8556 9.09508 17.1715 9.20678 17.4599C9.31849 17.7482 9.5166 17.9951 9.774 18.1665L11.169 19.0965C11.4153 19.2606 11.7047 19.3482 12.0007 19.3482C12.2968 19.3482 12.5862 19.2606 12.8325 19.0965L14.2275 18.1665C14.4846 17.9949 14.6824 17.748 14.7939 17.4596C14.9053 17.1712 14.9249 16.8554 14.85 16.5555L14.25 14.157V12.75C14.25 12.3522 14.092 11.9706 13.8107 11.6893C13.5294 11.408 13.1478 11.25 12.75 11.25H11.25C10.8522 11.25 10.4706 11.408 10.1893 11.6893C9.90804 11.9706 9.75 12.3522 9.75 12.75ZM11.25 4.5H9.75V6H11.25V7.5H9.75V9H11.25V10.5H13.5V9H12V7.5H13.5V6H12V4.5H13.5V3H12V1.5H9.75V3H11.25V4.5Z" fill="black"/>
</svg>
