<svg width="24" height="24" viewBox="0 0 24 24" fill="none" xmlns="http://www.w3.org/2000/svg">
<g clip-path="url(#clip0_2_8600)">
<path d="M18 1.5C18.3978 1.5 18.7794 1.65804 19.0607 1.93934C19.342 2.22064 19.5 2.60218 19.5 3V19.1325C19.5 19.1325 18 16.5 12 16.5C6 16.5 4.5 19.1325 4.5 19.1325V3C4.5 2.60218 4.65804 2.22064 4.93934 1.93934C5.22064 1.65804 5.60218 1.5 6 1.5H18ZM6 0C5.20435 0 4.44129 0.316071 3.87868 0.87868C3.31607 1.44129 3 2.20435 3 3V21C3 21.7956 3.31607 22.5587 3.87868 23.1213C4.44129 23.6839 5.20435 24 6 24H18C18.7956 24 19.5587 23.6839 20.1213 23.1213C20.6839 22.5587 21 21.7956 21 21V3C21 2.20435 20.6839 1.44129 20.1213 0.87868C19.5587 0.316071 18.7956 0 18 0L6 0Z" fill="black"/>
<path d="M12 15C12.5909 15 13.1761 14.8836 13.7221 14.6575C14.268 14.4313 14.7641 14.0998 15.182 13.682C15.5998 13.2641 15.9313 12.768 16.1575 12.2221C16.3836 11.6761 16.5 11.0909 16.5 10.5C16.5 9.90905 16.3836 9.32389 16.1575 8.77792C15.9313 8.23196 15.5998 7.73588 15.182 7.31802C14.7641 6.90016 14.268 6.56869 13.7221 6.34254C13.1761 6.1164 12.5909 6 12 6C10.8065 6 9.66193 6.47411 8.81802 7.31802C7.97411 8.16193 7.5 9.30653 7.5 10.5C7.5 11.6935 7.97411 12.8381 8.81802 13.682C9.66193 14.5259 10.8065 15 12 15Z" fill="black"/>
</g>
<defs>
<clipPath id="clip0_2_8600">
<rect width="24" height="24" fill="white"/>
</clipPath>
</defs>
</svg>
