<svg width="24" height="24" viewBox="0 0 24 24" fill="none" xmlns="http://www.w3.org/2000/svg">
<g clip-path="url(#clip0_2_7741)">
<path d="M3 0C2.20435 0 1.44129 0.316071 0.87868 0.87868C0.316071 1.44129 0 2.20435 0 3L0 21C0 21.7956 0.316071 22.5587 0.87868 23.1213C1.44129 23.6839 2.20435 24 3 24H21C21.7956 24 22.5587 23.6839 23.1213 23.1213C23.6839 22.5587 24 21.7956 24 21V3C24 2.20435 23.6839 1.44129 23.1213 0.87868C22.5587 0.316071 21.7956 0 21 0L3 0ZM3.75 7.5H20.25C20.4489 7.5 20.6397 7.57902 20.7803 7.71967C20.921 7.86032 21 8.05109 21 8.25C21 8.44891 20.921 8.63968 20.7803 8.78033C20.6397 8.92098 20.4489 9 20.25 9H3.75C3.55109 9 3.36032 8.92098 3.21967 8.78033C3.07902 8.63968 3 8.44891 3 8.25C3 8.05109 3.07902 7.86032 3.21967 7.71967C3.36032 7.57902 3.55109 7.5 3.75 7.5ZM6 12.75C6 12.5511 6.07902 12.3603 6.21967 12.2197C6.36032 12.079 6.55109 12 6.75 12H17.25C17.4489 12 17.6397 12.079 17.7803 12.2197C17.921 12.3603 18 12.5511 18 12.75C18 12.9489 17.921 13.1397 17.7803 13.2803C17.6397 13.421 17.4489 13.5 17.25 13.5H6.75C6.55109 13.5 6.36032 13.421 6.21967 13.2803C6.07902 13.1397 6 12.9489 6 12.75ZM9 17.25C9 17.0511 9.07902 16.8603 9.21967 16.7197C9.36032 16.579 9.55109 16.5 9.75 16.5H14.25C14.4489 16.5 14.6397 16.579 14.7803 16.7197C14.921 16.8603 15 17.0511 15 17.25C15 17.4489 14.921 17.6397 14.7803 17.7803C14.6397 17.921 14.4489 18 14.25 18H9.75C9.55109 18 9.36032 17.921 9.21967 17.7803C9.07902 17.6397 9 17.4489 9 17.25Z" fill="black"/>
</g>
<defs>
<clipPath id="clip0_2_7741">
<rect width="24" height="24" fill="white"/>
</clipPath>
</defs>
</svg>
