<svg width="24" height="24" viewBox="0 0 24 24" fill="none" xmlns="http://www.w3.org/2000/svg">
<path d="M12.0899 9.75C12.2889 9.75 12.4796 9.82902 12.6203 9.96967C12.7609 10.1103 12.8399 10.3011 12.8399 10.5V11.664C12.8398 13.4558 12.5604 15.2367 12.0119 16.9425L10.0154 23.1525C9.95098 23.3371 9.81696 23.4893 9.64195 23.5765C9.46693 23.6637 9.26477 23.6792 9.07855 23.6195C8.89232 23.5598 8.73677 23.4298 8.64503 23.2571C8.55329 23.0844 8.53263 22.8827 8.58745 22.695L10.5824 16.4835C11.0832 14.926 11.3383 13.3 11.3384 11.664V10.5C11.3384 10.3011 11.4175 10.1103 11.5581 9.96967C11.6988 9.82902 11.8895 9.75 12.0884 9.75H12.0899Z" fill="black"/>
<path d="M9.08998 10.5C9.08998 10.106 9.16758 9.71593 9.31834 9.35195C9.46911 8.98797 9.69009 8.65726 9.96866 8.37868C10.2472 8.1001 10.578 7.87913 10.9419 7.72836C11.3059 7.5776 11.696 7.5 12.09 7.5C12.484 7.5 12.8741 7.5776 13.238 7.72836C13.602 7.87913 13.9327 8.1001 14.2113 8.37868C14.4899 8.65726 14.7109 8.98797 14.8616 9.35195C15.0124 9.71593 15.09 10.106 15.09 10.5C15.09 10.6989 15.011 10.8897 14.8703 11.0303C14.7297 11.171 14.5389 11.25 14.34 11.25C14.1411 11.25 13.9503 11.171 13.8097 11.0303C13.669 10.8897 13.59 10.6989 13.59 10.5C13.59 10.1022 13.4319 9.72064 13.1506 9.43934C12.8693 9.15804 12.4878 9 12.09 9C11.6922 9 11.3106 9.15804 11.0293 9.43934C10.748 9.72064 10.59 10.1022 10.59 10.5V10.998C10.59 11.6115 10.557 12.222 10.491 12.8295C10.465 13.0232 10.3645 13.1991 10.2108 13.3198C10.0571 13.4404 9.86241 13.4964 9.6681 13.4756C9.47379 13.4549 9.29525 13.3592 9.17046 13.2088C9.04568 13.0584 8.98451 12.8653 8.99998 12.6705C9.05998 12.1155 9.08998 11.5575 9.08998 10.998V10.5ZM14.3535 12C14.452 12.0025 14.549 12.0244 14.6391 12.0645C14.7291 12.1045 14.8103 12.1619 14.8782 12.2334C14.946 12.3048 14.9991 12.389 15.0344 12.481C15.0697 12.573 15.0866 12.671 15.084 12.7695C15.0395 14.4733 14.7428 16.1612 14.2035 17.778L12.3045 23.478C12.2414 23.6668 12.106 23.8228 11.9279 23.9116C11.7498 24.0005 11.5438 24.0151 11.355 23.952C11.1662 23.8889 11.0102 23.7535 10.9213 23.5754C10.8324 23.3974 10.8179 23.1913 10.881 23.0025L12.7815 17.3025C13.2733 15.8265 13.5438 14.2858 13.584 12.7305C13.5865 12.632 13.6084 12.535 13.6485 12.4449C13.6885 12.3549 13.7459 12.2736 13.8174 12.2058C13.8888 12.138 13.973 12.0849 14.0649 12.0496C14.1569 12.0142 14.255 11.9974 14.3535 12ZM9.31948 15.1725C9.41368 15.2016 9.50123 15.249 9.5771 15.3119C9.65298 15.3749 9.7157 15.4522 9.76167 15.5394C9.80765 15.6266 9.83597 15.722 9.84504 15.8202C9.8541 15.9183 9.84372 16.0173 9.81448 16.1115L7.85998 22.4085C7.83228 22.5043 7.78576 22.5935 7.72316 22.6711C7.66055 22.7487 7.5831 22.813 7.49535 22.8603C7.40759 22.9076 7.31129 22.9369 7.21207 22.9466C7.11285 22.9562 7.0127 22.946 6.91749 22.9165C6.82227 22.8869 6.73389 22.8387 6.65751 22.7747C6.58114 22.7106 6.51831 22.632 6.47268 22.5433C6.42706 22.4547 6.39956 22.3578 6.3918 22.2585C6.38404 22.1591 6.39617 22.0591 6.42748 21.9645L8.38198 15.666C8.44106 15.4764 8.57294 15.3179 8.74869 15.2254C8.92444 15.1329 9.12972 15.1139 9.31948 15.1725Z" fill="black"/>
<path d="M7.13852 8.74962C7.55278 7.58354 8.36553 6.60121 9.43339 5.9759C10.5013 5.35059 11.7556 5.12247 12.9753 5.33178C14.1949 5.5411 15.3015 6.17439 16.0998 7.11997C16.898 8.06554 17.3368 9.26264 17.3385 10.5001C17.3385 10.699 17.2595 10.8898 17.1189 11.0304C16.9782 11.1711 16.7874 11.2501 16.5885 11.2501C16.3896 11.2501 16.1988 11.1711 16.0582 11.0304C15.9175 10.8898 15.8385 10.699 15.8385 10.5001C15.8384 9.61557 15.5256 8.75954 14.9554 8.08332C14.3851 7.40709 13.5942 6.9542 12.7224 6.80468C11.8506 6.65516 10.954 6.81863 10.191 7.26621C9.42807 7.71379 8.8479 8.41667 8.55302 9.25062C8.48659 9.43819 8.34836 9.59169 8.16875 9.67735C7.98913 9.76301 7.78285 9.77381 7.59527 9.70737C7.4077 9.64093 7.2542 9.5027 7.16854 9.32309C7.08289 9.14348 7.07209 8.93719 7.13852 8.74962ZM7.58852 11.2546C7.78642 11.274 7.96853 11.3711 8.09483 11.5247C8.22112 11.6783 8.28126 11.8757 8.26202 12.0736C8.16077 13.1061 7.95983 14.1264 7.66202 15.1201L5.82902 21.2281C5.77194 21.4187 5.64149 21.5788 5.46638 21.6731C5.29126 21.7675 5.08583 21.7885 4.89527 21.7314C4.70472 21.6743 4.54464 21.5438 4.45026 21.3687C4.35589 21.1936 4.33494 20.9882 4.39202 20.7976L6.22502 14.6896C6.49525 13.7883 6.6776 12.863 6.76952 11.9266C6.78887 11.7287 6.88601 11.5466 7.03959 11.4203C7.19317 11.294 7.39062 11.2339 7.58852 11.2531V11.2546ZM16.5885 12.2251C16.7874 12.2251 16.9782 12.3041 17.1189 12.4448C17.2595 12.5854 17.3385 12.7762 17.3385 12.9751C17.3385 14.8951 17.019 16.8031 16.3905 18.6181L14.7555 23.3356C14.6843 23.5152 14.5465 23.6604 14.3709 23.7409C14.1953 23.8215 13.9954 23.8311 13.8128 23.7679C13.6303 23.7046 13.4792 23.5734 13.391 23.4015C13.3028 23.2296 13.2844 23.0303 13.3395 22.8451L14.973 18.1276C15.546 16.4701 15.84 14.7286 15.84 12.9751C15.84 12.7762 15.919 12.5854 16.0597 12.4448C16.2003 12.3041 16.3911 12.2251 16.59 12.2251H16.5885Z" fill="black"/>
<path d="M5.85303 6.33308C6.68636 5.08376 7.87581 4.11363 9.26716 3.54848C10.6585 2.98333 12.1876 2.84923 13.656 3.16358C13.7524 3.18406 13.8439 3.22334 13.9251 3.27917C14.0064 3.33499 14.0758 3.40628 14.1295 3.48894C14.1832 3.57161 14.2201 3.66404 14.2381 3.76097C14.2561 3.85789 14.2548 3.9574 14.2343 4.05383C14.2138 4.15025 14.1745 4.24169 14.1187 4.32294C14.0629 4.40418 13.9916 4.47363 13.9089 4.52733C13.8262 4.58102 13.7338 4.61791 13.6369 4.63588C13.54 4.65386 13.4404 4.65256 13.344 4.63208C12.169 4.37992 10.9453 4.4868 9.83176 4.93884C8.71823 5.39089 7.7663 6.16722 7.09953 7.16708C6.98734 7.32859 6.81621 7.43958 6.62299 7.47615C6.42977 7.51271 6.22992 7.47193 6.06647 7.36257C5.90303 7.25322 5.78908 7.08404 5.74915 6.89149C5.70923 6.69893 5.74653 6.4984 5.85303 6.33308ZM15.933 4.90058C16.0629 4.75005 16.2473 4.65727 16.4456 4.64265C16.6439 4.62802 16.8399 4.69274 16.9905 4.82258C17.8067 5.52614 18.4614 6.39764 18.9098 7.3775C19.3582 8.35737 19.5897 9.4225 19.5885 10.5001V12.7501C19.5885 12.949 19.5095 13.1398 19.3689 13.2804C19.2282 13.4211 19.0374 13.5001 18.8385 13.5001C18.6396 13.5001 18.4488 13.4211 18.3082 13.2804C18.1675 13.1398 18.0885 12.949 18.0885 12.7501V10.5001C18.0896 9.63793 17.9044 8.78574 17.5455 8.00181C17.1867 7.21789 16.6628 6.52074 16.0095 5.95808C15.8592 5.82795 15.7667 5.64346 15.7524 5.44516C15.738 5.24687 15.803 5.05099 15.933 4.90058ZM5.52003 8.76308C5.61756 8.77739 5.71132 8.81079 5.79594 8.86137C5.88055 8.91195 5.95437 8.97872 6.01316 9.05785C6.07195 9.13698 6.11456 9.22692 6.13856 9.32254C6.16256 9.41815 6.16748 9.51756 6.15303 9.61508C6.10953 9.90308 6.08703 10.2001 6.08703 10.5001C6.08703 11.5651 5.93703 12.6256 5.64003 13.6501L3.93003 19.5346C3.9044 19.6312 3.85971 19.7218 3.79858 19.8009C3.73746 19.88 3.66112 19.9461 3.57408 19.9953C3.48703 20.0445 3.39103 20.0758 3.29172 20.0873C3.1924 20.0989 3.09178 20.0905 2.99577 20.0626C2.89976 20.0347 2.8103 19.9878 2.73264 19.9249C2.65499 19.8619 2.59071 19.784 2.54359 19.6958C2.49647 19.6076 2.46746 19.5109 2.45826 19.4114C2.44906 19.3118 2.45986 19.2114 2.49003 19.1161L4.20003 13.2316C4.45723 12.3439 4.58752 11.4243 4.58703 10.5001C4.58703 10.1251 4.61553 9.75608 4.66803 9.39608C4.68234 9.29854 4.71574 9.20478 4.76632 9.12017C4.8169 9.03555 4.88367 8.96174 4.9628 8.90295C5.04193 8.84415 5.13187 8.80154 5.22749 8.77754C5.3231 8.75354 5.42251 8.74863 5.52003 8.76308ZM18.843 14.2531C19.0411 14.2699 19.2244 14.3646 19.3527 14.5165C19.4809 14.6684 19.5436 14.865 19.527 15.0631C19.401 16.5631 19.08 18.0421 18.567 19.4641L17.451 22.5661C17.3815 22.7501 17.2423 22.8995 17.0637 22.9819C16.885 23.0643 16.6811 23.0732 16.4959 23.0067C16.3108 22.9402 16.1592 22.8036 16.0738 22.6263C15.9884 22.4491 15.9761 22.2453 16.0395 22.0591L17.157 18.9541C17.6231 17.6591 17.9176 16.3086 18.033 14.9371C18.0498 14.739 18.1446 14.5557 18.2965 14.4274C18.4483 14.2992 18.6449 14.2365 18.843 14.2531Z" fill="black"/>
<path d="M7.21503 2.05503C8.69731 1.19924 10.3788 0.748724 12.0903 0.748779C13.8019 0.748834 15.4834 1.19946 16.9656 2.05534C18.4478 2.91123 19.6786 4.14223 20.5343 5.62459C21.3899 7.10695 21.8403 8.78844 21.84 10.5C21.84 10.6989 21.761 10.8897 21.6204 11.0304C21.4797 11.171 21.2889 11.25 21.09 11.25C20.8911 11.25 20.7004 11.171 20.5597 11.0304C20.4191 10.8897 20.34 10.6989 20.34 10.5C20.3405 9.05162 19.9597 7.6286 19.2358 6.37405C18.5119 5.11951 17.4705 4.07765 16.2162 3.35323C14.962 2.62881 13.5391 2.24736 12.0907 2.24724C10.6423 2.24712 9.2194 2.62832 7.96503 3.35253C7.79363 3.4422 7.59421 3.46217 7.40842 3.40827C7.22264 3.35437 7.06487 3.23078 6.96806 3.0633C6.87126 2.89583 6.8429 2.69742 6.88893 2.50954C6.93495 2.32165 7.05179 2.15881 7.21503 2.05503ZM5.88003 3.94053C5.95351 4.00613 6.01335 4.08555 6.05613 4.17427C6.09891 4.26299 6.1238 4.35927 6.12937 4.4576C6.13494 4.55594 6.12109 4.65442 6.0886 4.7474C6.05612 4.84038 6.00563 4.92606 5.94003 4.99953C4.58463 6.51069 3.83657 8.47008 3.84003 10.5C3.84003 10.6989 3.76102 10.8897 3.62036 11.0304C3.47971 11.171 3.28895 11.25 3.09003 11.25C2.89112 11.25 2.70036 11.171 2.5597 11.0304C2.41905 10.8897 2.34003 10.6989 2.34003 10.5C2.34003 8.00403 3.27903 5.72403 4.82253 4.00053C4.88813 3.92705 4.96755 3.86722 5.05627 3.82443C5.14499 3.78165 5.24127 3.75677 5.33961 3.75119C5.43794 3.74562 5.53642 3.75948 5.6294 3.79196C5.72239 3.82445 5.80806 3.87493 5.88153 3.94053H5.88003ZM2.87253 12.03C3.06379 12.0839 3.22587 12.2114 3.32318 12.3847C3.42048 12.5579 3.44507 12.7627 3.39153 12.954L2.22303 17.1045C2.19971 17.2029 2.15675 17.2955 2.09674 17.3768C2.03672 17.4581 1.9609 17.5264 1.87381 17.5777C1.78672 17.629 1.69017 17.6621 1.58995 17.6752C1.48974 17.6882 1.38792 17.6808 1.29062 17.6535C1.19332 17.6262 1.10254 17.5795 1.02373 17.5162C0.944931 17.453 0.879727 17.3744 0.832038 17.2853C0.78435 17.1962 0.755161 17.0984 0.746224 16.9977C0.737288 16.8971 0.748788 16.7956 0.780034 16.6995L1.94703 12.549C1.97369 12.4542 2.01878 12.3655 2.07973 12.288C2.14067 12.2106 2.21628 12.1459 2.30223 12.0977C2.38818 12.0495 2.48279 12.0188 2.58065 12.0071C2.6785 11.9955 2.77769 12.0033 2.87253 12.03ZM21.0975 12.7515C21.196 12.7535 21.2932 12.7748 21.3834 12.8143C21.4737 12.8538 21.5553 12.9107 21.6235 12.9818C21.6918 13.0528 21.7454 13.1366 21.7812 13.2284C21.8171 13.3201 21.8345 13.418 21.8325 13.5165C21.7875 15.765 21.591 18.054 20.742 20.316L20.637 20.5965C20.5636 20.7777 20.4223 20.923 20.2433 21.0015C20.0643 21.08 19.8617 21.0855 19.6787 21.0169C19.4956 20.9483 19.3467 20.8109 19.2634 20.634C19.1802 20.4572 19.1693 20.2548 19.233 20.07L19.338 19.7895C20.097 17.7645 20.289 15.6795 20.3325 13.4865C20.3345 13.388 20.3558 13.2909 20.3953 13.2006C20.4348 13.1104 20.4917 13.0288 20.5628 12.9605C20.6338 12.8923 20.7176 12.8387 20.8094 12.8028C20.9011 12.767 20.999 12.7495 21.0975 12.7515Z" fill="black"/>
</svg>
