<svg width="24" height="24" viewBox="0 0 24 24" fill="none" xmlns="http://www.w3.org/2000/svg">
<g clip-path="url(#clip0_2_7738)">
<path d="M9.261 1.77612C9.49733 1.24723 9.88172 0.798073 10.3678 0.482895C10.8538 0.167717 11.4207 0 12 0C12.5793 0 13.1462 0.167717 13.6322 0.482895C14.1183 0.798073 14.5027 1.24723 14.739 1.77612C15.2081 1.43565 15.7658 1.23836 16.3446 1.20812C16.9235 1.17787 17.4987 1.31596 18.0007 1.60569C18.5027 1.89542 18.9101 2.32438 19.1735 2.84071C19.4369 3.35703 19.5451 3.93861 19.485 4.51512C20.0615 4.45502 20.6431 4.56321 21.1594 4.82662C21.6757 5.09003 22.1047 5.49737 22.3944 5.9994C22.6842 6.50143 22.8223 7.07664 22.792 7.65549C22.7618 8.23433 22.5645 8.79202 22.224 9.26112C22.7529 9.49745 23.202 9.88185 23.5172 10.3679C23.8324 10.8539 24.0001 11.4208 24.0001 12.0001C24.0001 12.5794 23.8324 13.1463 23.5172 13.6324C23.202 14.1184 22.7529 14.5028 22.224 14.7391C22.5645 15.2082 22.7618 15.7659 22.792 16.3448C22.8223 16.9236 22.6842 17.4988 22.3944 18.0008C22.1047 18.5029 21.6757 18.9102 21.1594 19.1736C20.6431 19.437 20.0615 19.5452 19.485 19.4851C19.5451 20.0616 19.4369 20.6432 19.1735 21.1595C18.9101 21.6759 18.5027 22.1048 18.0007 22.3946C17.4987 22.6843 16.9235 22.8224 16.3446 22.7921C15.7658 22.7619 15.2081 22.5646 14.739 22.2241C14.5027 22.753 14.1183 23.2022 13.6322 23.5173C13.1462 23.8325 12.5793 24.0002 12 24.0002C11.4207 24.0002 10.8538 23.8325 10.3678 23.5173C9.88172 23.2022 9.49733 22.753 9.261 22.2241C8.7919 22.5646 8.23421 22.7619 7.65537 22.7921C7.07652 22.8224 6.50131 22.6843 5.99928 22.3946C5.49725 22.1048 5.08991 21.6759 4.8265 21.1595C4.56309 20.6432 4.45489 20.0616 4.515 19.4851C3.93849 19.5452 3.35691 19.437 2.84059 19.1736C2.32426 18.9102 1.8953 18.5029 1.60557 18.0008C1.31584 17.4988 1.17775 16.9236 1.208 16.3448C1.23824 15.7659 1.43553 15.2082 1.776 14.7391C1.24711 14.5028 0.797951 14.1184 0.482773 13.6324C0.167595 13.1463 -0.00012207 12.5794 -0.00012207 12.0001C-0.00012207 11.4208 0.167595 10.8539 0.482773 10.3679C0.797951 9.88185 1.24711 9.49745 1.776 9.26112C1.43553 8.79202 1.23824 8.23433 1.208 7.65549C1.17775 7.07664 1.31584 6.50143 1.60557 5.9994C1.8953 5.49737 2.32426 5.09003 2.84059 4.82662C3.35691 4.56321 3.93849 4.45502 4.515 4.51512C4.45489 3.93861 4.56309 3.35703 4.8265 2.84071C5.08991 2.32438 5.49725 1.89542 5.99928 1.60569C6.50131 1.31596 7.07652 1.17787 7.65537 1.20812C8.23421 1.23836 8.7919 1.43565 9.261 1.77612ZM12 1.50012C11.7994 1.50043 11.601 1.54097 11.4163 1.61933C11.2317 1.69768 11.0646 1.81228 10.9251 1.95633C10.7855 2.10037 10.6762 2.27095 10.6037 2.45797C10.5312 2.64498 10.497 2.84464 10.503 3.04512L10.518 3.18162C10.536 3.29712 10.5615 3.44562 10.599 3.62562C10.6725 3.98712 10.782 4.43862 10.9185 4.95612C11.1915 5.98812 11.5605 7.22562 11.9325 8.42712L12 8.64312L12.0675 8.42712C12.4395 7.22712 12.8085 5.98812 13.0815 4.95612C13.218 4.43862 13.3275 3.98712 13.401 3.62562C13.4405 3.43395 13.4726 3.2408 13.497 3.04662L13.5 3.00012C13.5 2.6023 13.342 2.22077 13.0607 1.93946C12.7794 1.65816 12.3978 1.50012 12 1.50012ZM3 13.5001L3.045 13.4971L3.1815 13.4821C3.33028 13.4596 3.47835 13.4326 3.6255 13.4011C3.987 13.3276 4.4385 13.2181 4.956 13.0816C6.11961 12.7667 7.27684 12.4286 8.427 12.0676L8.643 12.0001L8.427 11.9326C7.27684 11.5716 6.11961 11.2336 4.956 10.9186C4.51549 10.8 4.07183 10.6935 3.6255 10.5991C3.43383 10.5596 3.24068 10.5275 3.0465 10.5031L3 10.5001C2.60217 10.5001 2.22064 10.6582 1.93934 10.9395C1.65803 11.2208 1.5 11.6023 1.5 12.0001C1.5 12.3979 1.65803 12.7795 1.93934 13.0608C2.22064 13.3421 2.60217 13.5001 3 13.5001ZM13.5 21.0001L13.497 20.9551C13.4726 20.7609 13.4405 20.5678 13.401 20.3761C13.3069 19.9292 13.2003 19.4851 13.0815 19.0441C12.7666 17.8805 12.4285 16.7233 12.0675 15.5731L12 15.3571L11.9325 15.5731C11.5605 16.7731 11.1915 18.0121 10.9185 19.0441C10.782 19.5616 10.6725 20.0131 10.599 20.3746C10.5595 20.5663 10.5274 20.7594 10.503 20.9536L10.5 21.0001C10.5 21.3979 10.658 21.7795 10.9393 22.0608C11.2206 22.3421 11.6022 22.5001 12 22.5001C12.3978 22.5001 12.7794 22.3421 13.0607 22.0608C13.342 21.7795 13.5 21.3979 13.5 21.0001ZM4.956 17.7991L4.9935 17.7736C5.1498 17.6556 5.30141 17.5315 5.448 17.4016C5.724 17.1556 6.06 16.8361 6.4395 16.4581C7.29024 15.6038 8.12391 14.7326 8.94 13.8451L9.0945 13.6786L8.874 13.7281C7.69695 13.9909 6.52522 14.2769 5.3595 14.5861C4.8435 14.7256 4.3995 14.8561 4.0485 14.9731C3.8624 15.035 3.67876 15.104 3.498 15.1801L3.4575 15.2011C3.28553 15.2989 3.1346 15.4297 3.0134 15.5861C2.8922 15.7424 2.80312 15.9212 2.75128 16.1121C2.69945 16.303 2.6859 16.5023 2.7114 16.6984C2.73689 16.8946 2.80094 17.0838 2.89985 17.2551C2.99877 17.4264 3.13059 17.5765 3.28773 17.6967C3.44487 17.8168 3.62423 17.9047 3.81548 17.9553C4.00673 18.0058 4.20609 18.0181 4.40209 17.9913C4.59808 17.9645 4.78684 17.8992 4.9575 17.7991H4.956ZM6.75 21.0931C7.09452 21.292 7.50394 21.3459 7.8882 21.243C8.27246 21.14 8.60008 20.8886 8.799 20.5441L8.82 20.5036C8.835 20.4736 8.8515 20.4316 8.874 20.3776C8.92917 20.2377 8.98019 20.0961 9.027 19.9531C9.144 19.6036 9.2745 19.1581 9.414 18.6421C9.72329 17.4764 10.0093 16.3047 10.272 15.1276L10.3215 14.9071L10.1565 15.0601C9.26857 15.8763 8.39689 16.7099 7.542 17.5606C7.21874 17.8822 6.90413 18.2123 6.5985 18.5506C6.46865 18.6978 6.34456 18.8499 6.2265 19.0066L6.201 19.0441C6.0021 19.3886 5.94819 19.7981 6.05115 20.1823C6.15411 20.5666 6.40549 20.8942 6.75 21.0931ZM20.544 8.79912C20.8857 8.5988 21.1343 8.27144 21.2356 7.8885C21.3368 7.50556 21.2825 7.09811 21.0844 6.75508C20.8864 6.41205 20.5607 6.16128 20.1784 6.0575C19.7961 5.95372 19.3883 6.00535 19.044 6.20112L19.0065 6.22662C18.8502 6.34458 18.6985 6.46868 18.552 6.59862C18.213 6.90403 17.8823 7.21864 17.5605 7.54212C16.7098 8.39649 15.8761 9.26766 15.06 10.1551L14.907 10.3216L15.1275 10.2721C16.3041 10.0094 17.4753 9.72339 18.6405 9.41412C19.158 9.27462 19.6035 9.14412 19.953 9.02712C20.1391 8.96536 20.3228 8.8963 20.5035 8.82012C20.5172 8.81351 20.5307 8.80651 20.544 8.79912ZM17.25 2.90712C16.9055 2.70822 16.4961 2.65432 16.1118 2.75727C15.7275 2.86023 15.3999 3.11161 15.201 3.45612L15.18 3.49662C15.165 3.52662 15.1485 3.56862 15.126 3.62262C15.0708 3.76258 15.0198 3.90414 14.973 4.04712C14.856 4.39662 14.7255 4.84212 14.586 5.35962C14.2767 6.52482 13.9907 7.69605 13.728 8.87262L13.6785 9.09312L13.8435 8.94012C14.7314 8.12398 15.6031 7.29031 16.458 6.43962C16.836 6.06012 17.1555 5.72412 17.4015 5.44962C17.5314 5.30255 17.6555 5.15043 17.7735 4.99362L17.799 4.95612C17.9979 4.6116 18.0518 4.20218 17.9489 3.81792C17.8459 3.43366 17.5945 3.10604 17.25 2.90712ZM21 13.5001C21.3978 13.5001 21.7794 13.3421 22.0607 13.0608C22.342 12.7795 22.5 12.3979 22.5 12.0001C22.5 11.6023 22.342 11.2208 22.0607 10.9395C21.7794 10.6582 21.3978 10.5001 21 10.5001L20.955 10.5031C20.7608 10.5275 20.5677 10.5596 20.376 10.5991C20.013 10.6726 19.5615 10.7821 19.044 10.9186C18.012 11.1916 16.7745 11.5606 15.573 11.9326L15.357 12.0001L15.573 12.0676C16.773 12.4396 18.012 12.8086 19.044 13.0816C19.5615 13.2181 20.013 13.3276 20.3745 13.4011C20.5662 13.4407 20.7593 13.4727 20.9535 13.4971L21 13.5001ZM2.907 6.75012C2.80681 6.92402 2.74254 7.11626 2.71799 7.31545C2.69344 7.51465 2.70912 7.71674 2.76409 7.90976C2.81906 8.10278 2.91221 8.28281 3.03801 8.43918C3.16382 8.59556 3.31972 8.72509 3.4965 8.82012L3.6225 8.87262C3.7305 8.91762 3.8715 8.96862 4.047 9.02712C4.3965 9.14412 4.842 9.27462 5.358 9.41412C6.52372 9.7233 7.69545 10.0094 8.8725 10.2721L9.093 10.3216L8.9385 10.1551C8.12291 9.26764 7.28975 8.39646 6.4395 7.54212C6.11815 7.21867 5.78802 6.90406 5.4495 6.59862C5.30243 6.4687 5.15031 6.3446 4.9935 6.22662L4.956 6.20112C4.61148 6.00222 4.20206 5.94832 3.8178 6.05127C3.43354 6.15423 3.10592 6.40561 2.907 6.75012ZM6.201 4.95612L6.2265 4.99362C6.34451 5.14992 6.46861 5.30154 6.5985 5.44812C6.8445 5.72412 7.164 6.06012 7.542 6.43962C8.39633 7.29037 9.2675 8.12403 10.155 8.94012L10.3215 9.09312L10.272 8.87262C10.0093 7.69605 9.72327 6.52482 9.414 5.35962C9.2745 4.84212 9.144 4.39662 9.027 4.04712C8.96522 3.86099 8.89616 3.67735 8.82 3.49662L8.799 3.45612C8.70123 3.28415 8.5704 3.13322 8.41406 3.01202C8.25772 2.89082 8.07895 2.80174 7.88804 2.74991C7.69713 2.69808 7.49785 2.68452 7.30168 2.71002C7.10551 2.73551 6.91632 2.79956 6.74501 2.89848C6.57369 2.99739 6.42363 3.12921 6.30347 3.28635C6.18331 3.44349 6.09541 3.62285 6.04485 3.8141C5.99429 4.00535 5.98205 4.20471 6.00885 4.40071C6.03565 4.59671 6.10095 4.78547 6.201 4.95612ZM21.093 17.2501C21.2919 16.9056 21.3458 16.4962 21.2428 16.1119C21.1399 15.7277 20.8885 15.4 20.544 15.2011L20.5035 15.1801C20.3228 15.104 20.1391 15.0349 19.953 14.9731C19.6035 14.8561 19.158 14.7256 18.6405 14.5861C17.4753 14.2769 16.3041 13.9908 15.1275 13.7281L14.907 13.6786L15.06 13.8451C15.8761 14.7326 16.7098 15.6038 17.5605 16.4581C17.94 16.8361 18.276 17.1556 18.5505 17.4016C18.6975 17.5316 18.8496 17.6557 19.0065 17.7736L19.044 17.7991C19.3885 17.998 19.7979 18.0519 20.1822 17.949C20.5665 17.846 20.8941 17.5946 21.093 17.2501ZM15.201 20.5441C15.4013 20.8858 15.7287 21.1344 16.1116 21.2357C16.4946 21.3369 16.902 21.2826 17.245 21.0845C17.5881 20.8865 17.8388 20.5608 17.9426 20.1785C18.0464 19.7963 17.9948 19.3885 17.799 19.0441L17.7735 19.0066C17.6554 18.8504 17.5313 18.6988 17.4015 18.5521C17.0961 18.2131 16.7815 17.8825 16.458 17.5606C15.6037 16.7098 14.7325 15.8762 13.845 15.0601L13.6785 14.9071L13.728 15.1276C13.9907 16.3042 14.2767 17.4754 14.586 18.6406C14.7255 19.1581 14.856 19.6036 14.973 19.9531C15.0348 20.1393 15.1038 20.3229 15.18 20.5036C15.1866 20.5173 15.1936 20.5308 15.201 20.5441ZM12 14.2501C12.5967 14.2501 13.169 14.0131 13.591 13.5911C14.0129 13.1692 14.25 12.5969 14.25 12.0001C14.25 11.4034 14.0129 10.8311 13.591 10.4091C13.169 9.98717 12.5967 9.75012 12 9.75012C11.4033 9.75012 10.831 9.98717 10.409 10.4091C9.98705 10.8311 9.75 11.4034 9.75 12.0001C9.75 12.5969 9.98705 13.1692 10.409 13.5911C10.831 14.0131 11.4033 14.2501 12 14.2501Z" fill="black"/>
</g>
<defs>
<clipPath id="clip0_2_7738">
<rect width="24" height="24" fill="white"/>
</clipPath>
</defs>
</svg>
