<svg width="24" height="24" viewBox="0 0 24 24" fill="none" xmlns="http://www.w3.org/2000/svg">
<path d="M17.136 12C17.7915 11.922 18.3525 11.796 18.696 11.598C19.3794 11.1973 19.8766 10.5426 20.0791 9.77676C20.2816 9.01087 20.1729 8.19598 19.7768 7.50992C19.3807 6.82385 18.7293 6.32232 17.9648 6.11475C17.2002 5.90719 16.3847 6.01045 15.696 6.402C15.3525 6.6 14.9625 7.023 14.568 7.5525C14.829 6.945 15 6.396 15 6C15 5.20435 14.6839 4.44129 14.1213 3.87868C13.5587 3.31607 12.7956 3 12 3C11.2043 3 10.4413 3.31607 9.87866 3.87868C9.31605 4.44129 8.99998 5.20435 8.99998 6C8.99998 6.396 9.17098 6.945 9.43198 7.5525C9.03748 7.023 8.64748 6.6 8.30398 6.402C7.6153 6.01045 6.79971 5.90719 6.03518 6.11475C5.27066 6.32232 4.61926 6.82385 4.22315 7.50992C3.82704 8.19598 3.71838 9.01087 3.92086 9.77676C4.12335 10.5426 4.62056 11.1973 5.30398 11.598C5.64748 11.796 6.20848 11.922 6.86398 12C6.20848 12.078 5.64748 12.204 5.30398 12.402C4.96004 12.5975 4.65818 12.8592 4.41578 13.1719C4.17337 13.4846 3.99521 13.8421 3.89155 14.2239C3.78789 14.6057 3.76077 15.0043 3.81177 15.3966C3.86276 15.789 3.99086 16.1674 4.18869 16.51C4.38651 16.8526 4.65015 17.1527 4.96444 17.3931C5.27872 17.6334 5.63744 17.8092 6.01994 17.9103C6.40244 18.0114 6.80116 18.0359 7.19315 17.9823C7.58514 17.9287 7.96266 17.7981 8.30398 17.598C8.64748 17.4 9.03748 16.977 9.43198 16.4475C9.17098 17.055 8.99998 17.604 8.99998 18C8.99998 18.7956 9.31605 19.5587 9.87866 20.1213C10.4413 20.6839 11.2043 21 12 21C12.7956 21 13.5587 20.6839 14.1213 20.1213C14.6839 19.5587 15 18.7956 15 18C15 17.604 14.829 17.055 14.568 16.4475C14.9625 16.977 15.3525 17.4 15.696 17.598C16.0373 17.7981 16.4148 17.9287 16.8068 17.9823C17.1988 18.0359 17.5975 18.0114 17.98 17.9103C18.3625 17.8092 18.7212 17.6334 19.0355 17.3931C19.3498 17.1527 19.6134 16.8526 19.8113 16.51C20.0091 16.1674 20.1372 15.789 20.1882 15.3966C20.2392 15.0043 20.2121 14.6057 20.1084 14.2239C20.0047 13.8421 19.8266 13.4846 19.5842 13.1719C19.3418 12.8592 19.0399 12.5975 18.696 12.402C18.3525 12.204 17.7915 12.078 17.136 12ZM13.5 6C13.4848 6.10398 13.4623 6.20674 13.4325 6.3075C13.374 6.5055 13.2825 6.75 13.158 7.0335C12.8725 7.66162 12.5535 8.274 12.2025 8.868L12 9.213C11.9318 9.09842 11.8643 8.98341 11.7975 8.868C11.4464 8.274 11.1275 7.66162 10.842 7.0335C10.7357 6.79735 10.644 6.55489 10.5675 6.3075C10.5377 6.20674 10.5151 6.10397 10.5 6C10.5 5.60218 10.658 5.22064 10.9393 4.93934C11.2206 4.65804 11.6022 4.5 12 4.5C12.3978 4.5 12.7793 4.65804 13.0606 4.93934C13.3419 5.22064 13.5 5.60218 13.5 6ZM5.50498 8.25C5.7039 7.90549 6.03152 7.65411 6.41578 7.55115C6.80004 7.44819 7.20946 7.5021 7.55398 7.701C7.63697 7.76631 7.71517 7.8375 7.78798 7.914C7.92898 8.064 8.09398 8.2635 8.27698 8.514C8.64448 9.0135 9.02998 9.6345 9.38998 10.2585L9.58498 10.6065C9.45248 10.6083 9.31998 10.6093 9.18748 10.6095C8.49686 10.6165 7.80637 10.5865 7.11898 10.5195C6.86167 10.4937 6.60619 10.4521 6.35398 10.395C6.25182 10.3702 6.15156 10.3381 6.05398 10.299C5.70947 10.1001 5.45809 9.77246 5.35513 9.3882C5.25217 9.00394 5.30607 8.59452 5.50498 8.25ZM7.55398 16.299C7.20964 16.4948 6.80184 16.5464 6.41958 16.4426C6.03732 16.3388 5.71162 16.0881 5.51356 15.745C5.31551 15.402 5.26118 14.9946 5.36242 14.6116C5.46366 14.2287 5.71227 13.9013 6.05398 13.701C6.05548 13.701 6.07798 13.689 6.12448 13.671C6.17998 13.6515 6.25498 13.629 6.35398 13.605C6.55498 13.557 6.81148 13.515 7.11898 13.4805C7.80637 13.4136 8.49686 13.3835 9.18748 13.3905C9.32248 13.3905 9.45448 13.3905 9.58648 13.3935C9.52169 13.5099 9.45618 13.6259 9.38998 13.7415C9.02998 14.3655 8.64448 14.9865 8.27698 15.486C8.12625 15.6961 7.96243 15.8965 7.78648 16.086C7.71411 16.1624 7.63642 16.2336 7.55398 16.299ZM13.5 18C13.5 18.3978 13.3419 18.7794 13.0606 19.0607C12.7793 19.342 12.3978 19.5 12 19.5C11.6022 19.5 11.2206 19.342 10.9393 19.0607C10.658 18.7794 10.5 18.3978 10.5 18C10.5151 17.8955 10.5376 17.7923 10.5675 17.691C10.626 17.4945 10.7175 17.25 10.842 16.9665C11.091 16.3995 11.436 15.7545 11.7975 15.132L12 14.787L12.2025 15.132C12.564 15.7545 12.9075 16.3995 13.158 16.9665C13.2825 17.2515 13.374 17.4945 13.4325 17.6925C13.463 17.7931 13.4856 17.8959 13.5 18ZM18.495 8.25C18.6939 8.59452 18.7478 9.00394 18.6448 9.3882C18.5419 9.77246 18.2905 10.1001 17.946 10.299C17.8484 10.3381 17.7481 10.3702 17.646 10.395C17.445 10.443 17.1885 10.485 16.881 10.5195C16.263 10.587 15.534 10.611 14.8125 10.6095C14.6775 10.6095 14.5455 10.6095 14.4135 10.6065L14.61 10.2585C14.97 9.6345 15.3555 9.0135 15.723 8.514C15.8737 8.30389 16.0375 8.10349 16.2135 7.914C16.2825 7.839 16.341 7.785 16.3845 7.749C16.4235 7.716 16.4445 7.704 16.446 7.701C16.7905 7.5021 17.1999 7.44819 17.5842 7.55115C17.9684 7.65411 18.2961 7.90549 18.495 8.25ZM16.446 16.299C16.3636 16.234 16.2859 16.1634 16.2135 16.0875C16.0379 15.8977 15.8741 15.6973 15.723 15.4875C15.321 14.9253 14.9495 14.342 14.61 13.74C14.5443 13.6244 14.4793 13.5084 14.415 13.392L14.8125 13.389C15.5325 13.3875 16.263 13.4115 16.881 13.479C17.1885 13.5135 17.445 13.5555 17.646 13.6035C17.745 13.6275 17.82 13.65 17.8755 13.6695L17.9475 13.6995C18.1194 13.7973 18.2704 13.9281 18.3916 14.0844C18.5128 14.2408 18.6019 14.4196 18.6537 14.6105C18.7055 14.8014 18.7191 15.0006 18.6936 15.1968C18.6681 15.393 18.604 15.5822 18.5051 15.7535C18.4062 15.9248 18.2744 16.0749 18.1172 16.195C17.9601 16.3152 17.7807 16.4031 17.5895 16.4536C17.3982 16.5042 17.1989 16.5164 17.0029 16.4896C16.8069 16.4628 16.6181 16.3975 16.4475 16.2975L16.446 16.299ZM12 13.5C11.6022 13.5 11.2206 13.342 10.9393 13.0607C10.658 12.7794 10.5 12.3978 10.5 12C10.5 11.6022 10.658 11.2206 10.9393 10.9393C11.2206 10.658 11.6022 10.5 12 10.5C12.3978 10.5 12.7793 10.658 13.0606 10.9393C13.3419 11.2206 13.5 11.6022 13.5 12C13.5 12.3978 13.3419 12.7794 13.0606 13.0607C12.7793 13.342 12.3978 13.5 12 13.5Z" fill="black"/>
</svg>
