<svg width="24" height="24" viewBox="0 0 24 24" fill="none" xmlns="http://www.w3.org/2000/svg">
<path d="M17.697 12.4066L12.924 15.3616C12.519 15.6106 12 15.3076 12 14.8036V13.6501C12 13.6501 8.1435 13.2001 6 17.2501C6.8565 10.0501 10.7145 10.0501 12 10.0501V8.89662C12 8.39262 12.519 8.08962 12.924 8.34012L17.697 11.2936C18.102 11.5426 18.102 12.1576 17.697 12.4066Z" fill="black"/>
<path d="M0.74998 4.5L0.80998 5.805C0.414229 6.38032 0.232701 7.07617 0.29698 7.7715L1.25248 18.2715C1.32021 19.0169 1.66412 19.71 2.21668 20.2148C2.76923 20.7197 3.49054 20.9997 4.23898 21H19.761C20.5094 20.9997 21.2307 20.7197 21.7833 20.2148C22.3358 19.71 22.6797 19.0169 22.7475 18.2715L23.703 7.7715C23.7407 7.35633 23.6915 6.93785 23.5585 6.54276C23.4255 6.14768 23.2116 5.78465 22.9304 5.47683C22.6493 5.16902 22.3071 4.92317 21.9256 4.75499C21.5442 4.5868 21.1319 4.49996 20.715 4.5H14.742C13.9464 4.49983 13.1835 4.18365 12.621 3.621L11.379 2.379C10.8165 1.81635 10.0536 1.50017 9.25798 1.5H3.74998C2.95433 1.5 2.19127 1.81607 1.62866 2.37868C1.06605 2.94129 0.74998 3.70435 0.74998 4.5ZM1.79098 7.635C1.77223 7.42747 1.79692 7.21832 1.86348 7.02086C1.93003 6.82341 2.037 6.64199 2.17756 6.48816C2.31812 6.33434 2.48918 6.21149 2.67985 6.12744C2.87052 6.04339 3.07661 5.99999 3.28498 6H20.715C20.9234 5.99999 21.1294 6.04339 21.3201 6.12744C21.5108 6.21149 21.6818 6.33434 21.8224 6.48816C21.963 6.64199 22.0699 6.82341 22.1365 7.02086C22.203 7.21832 22.2277 7.42747 22.209 7.635L21.255 18.135C21.2213 18.5079 21.0493 18.8548 20.7728 19.1074C20.4964 19.36 20.1354 19.5 19.761 19.5H4.23898C3.86477 19.4996 3.5042 19.3594 3.22807 19.1069C2.95193 18.8543 2.78016 18.5077 2.74648 18.135L1.79098 7.635ZM9.25798 3C9.65577 3.00008 10.0372 3.15818 10.3185 3.4395L11.379 4.5H3.28498C2.92498 4.5 2.57998 4.563 2.26048 4.68L2.24998 4.47C2.25783 4.0774 2.41933 3.70353 2.69979 3.42868C2.98024 3.15383 3.3573 2.99992 3.74998 3H9.25798Z" fill="black"/>
</svg>
