<svg width="24" height="24" viewBox="0 0 24 24" fill="none" xmlns="http://www.w3.org/2000/svg">
<path d="M14.253 8.26944C14.2199 8.25485 14.1836 8.24883 14.1475 8.25192C14.1115 8.25501 14.0767 8.26712 14.0466 8.28714C14.0164 8.30715 13.9917 8.33442 13.9749 8.36645C13.958 8.39848 13.9494 8.43424 13.95 8.47044V9.97494C13.95 10.1739 13.871 10.3646 13.7303 10.5053C13.5897 10.6459 13.3989 10.7249 13.2 10.7249H3.75V15.0749H13.2C13.3989 15.0749 13.5897 15.154 13.7303 15.2946C13.871 15.4353 13.95 15.626 13.95 15.8249V17.3294C13.95 17.4914 14.115 17.5934 14.253 17.5304L20.229 13.1309C20.2493 13.1159 20.2703 13.1019 20.292 13.0889C20.3246 13.0693 20.3516 13.0416 20.3703 13.0085C20.3891 12.9754 20.3989 12.938 20.3989 12.8999C20.3989 12.8619 20.3891 12.8245 20.3703 12.7914C20.3516 12.7582 20.3246 12.7305 20.292 12.7109C20.2703 12.698 20.2493 12.684 20.229 12.6689L14.253 8.26944ZM12.45 8.47044C12.4499 8.16154 12.5331 7.85833 12.6909 7.59281C12.8488 7.32729 13.0754 7.10929 13.3468 6.96183C13.6182 6.81436 13.9244 6.7429 14.2331 6.75497C14.5417 6.76705 14.8414 6.86222 15.1005 7.03044L21.0915 11.4404C21.3392 11.595 21.5434 11.8101 21.6851 12.0655C21.8267 12.3208 21.901 12.608 21.901 12.8999C21.901 13.1919 21.8267 13.4791 21.6851 13.7344C21.5434 13.9897 21.3392 14.2048 21.0915 14.3594L15.1005 18.7694C14.8414 18.9377 14.5417 19.0328 14.2331 19.0449C13.9244 19.057 13.6182 18.9855 13.3468 18.8381C13.0754 18.6906 12.8488 18.4726 12.6909 18.2071C12.5331 17.9415 12.4499 17.6383 12.45 17.3294V16.5749H3C2.80109 16.5749 2.61032 16.4959 2.46967 16.3553C2.32902 16.2146 2.25 16.0239 2.25 15.8249V9.97494C2.25 9.77603 2.32902 9.58526 2.46967 9.44461C2.61032 9.30396 2.80109 9.22494 3 9.22494H12.45V8.47044Z" fill="black"/>
</svg>
