<svg width="24" height="24" viewBox="0 0 24 24" fill="none" xmlns="http://www.w3.org/2000/svg">
<g clip-path="url(#clip0_2_7796)">
<path d="M0 3C0 2.20435 0.316071 1.44129 0.87868 0.87868C1.44129 0.316071 2.20435 0 3 0L15 0C15.7956 0 16.5587 0.316071 17.1213 0.87868C17.6839 1.44129 18 2.20435 18 3V6H21C21.7956 6 22.5587 6.31607 23.1213 6.87868C23.6839 7.44129 24 8.20435 24 9V21C24 21.7956 23.6839 22.5587 23.1213 23.1213C22.5587 23.6839 21.7956 24 21 24H9C8.20435 24 7.44129 23.6839 6.87868 23.1213C6.31607 22.5587 6 21.7956 6 21V18H3C2.20435 18 1.44129 17.6839 0.87868 17.1213C0.316071 16.5587 0 15.7956 0 15V3ZM7.5 18V21C7.5 21.3978 7.65804 21.7794 7.93934 22.0607C8.22064 22.342 8.60218 22.5 9 22.5H21C21.3978 22.5 21.7794 22.342 22.0607 22.0607C22.342 21.7794 22.5 21.3978 22.5 21V9C22.5 8.60218 22.342 8.22064 22.0607 7.93934C21.7794 7.65804 21.3978 7.5 21 7.5H18V15C18 15.7956 17.6839 16.5587 17.1213 17.1213C16.5587 17.6839 15.7956 18 15 18H7.5Z" fill="black"/>
</g>
<defs>
<clipPath id="clip0_2_7796">
<rect width="24" height="24" fill="white"/>
</clipPath>
</defs>
</svg>
