<svg width="24" height="24" viewBox="0 0 24 24" fill="none" xmlns="http://www.w3.org/2000/svg">
<g clip-path="url(#clip0_2_7720)">
<path d="M12 7.1311C11.3606 7.1311 10.7274 7.25704 10.1367 7.50173C9.54596 7.74642 9.00921 8.10507 8.55708 8.5572C8.10495 9.00933 7.7463 9.54608 7.50161 10.1368C7.25692 10.7276 7.13098 11.3607 7.13098 12.0001C7.13098 12.6395 7.25692 13.2727 7.50161 13.8634C7.7463 14.4541 8.10495 14.9909 8.55708 15.443C9.00921 15.8951 9.54596 16.2538 10.1367 16.4985C10.7274 16.7432 11.3606 16.8691 12 16.8691C13.2913 16.8691 14.5298 16.3561 15.4429 15.443C16.356 14.5299 16.869 13.2914 16.869 12.0001C16.869 10.7088 16.356 9.47032 15.4429 8.5572C14.5298 7.64409 13.2913 7.1311 12 7.1311ZM8.63098 12.0001C8.63098 11.1066 8.98593 10.2497 9.61774 9.61786C10.2495 8.98605 11.1065 8.6311 12 8.6311C12.8935 8.6311 13.7504 8.98605 14.3822 9.61786C15.014 10.2497 15.369 11.1066 15.369 12.0001C15.369 12.8936 15.014 13.7505 14.3822 14.3823C13.7504 15.0142 12.8935 15.3691 12 15.3691C11.1065 15.3691 10.2495 15.0142 9.61774 14.3823C8.98593 13.7505 8.63098 12.8936 8.63098 12.0001Z" fill="black"/>
<path d="M14.6937 2.01424C13.9032 -0.670762 10.0962 -0.670762 9.30574 2.01424L9.16474 2.49274C9.10953 2.68017 9.01308 2.85287 8.88246 2.99818C8.75184 3.14349 8.59036 3.25772 8.40985 3.33252C8.22934 3.40731 8.03439 3.44076 7.83927 3.43041C7.64415 3.42007 7.45383 3.3662 7.28224 3.27274L6.84424 3.03274C4.38424 1.69474 1.69474 4.38574 3.03424 6.84424L3.27274 7.28224C3.3662 7.45383 3.42007 7.64415 3.43041 7.83927C3.44076 8.03439 3.40731 8.22934 3.33252 8.40985C3.25772 8.59036 3.14349 8.75184 2.99818 8.88246C2.85287 9.01308 2.68017 9.10953 2.49274 9.16474L2.01424 9.30574C-0.670762 10.0962 -0.670762 13.9032 2.01424 14.6937L2.49274 14.8347C2.68017 14.8899 2.85287 14.9864 2.99818 15.117C3.14349 15.2476 3.25772 15.4091 3.33252 15.5896C3.40731 15.7701 3.44076 15.9651 3.43041 16.1602C3.42007 16.3553 3.3662 16.5457 3.27274 16.7172L3.03274 17.1552C1.69474 19.6152 4.38424 22.3062 6.84424 20.9652L7.28224 20.7267C7.45383 20.6333 7.64415 20.5794 7.83927 20.5691C8.03439 20.5587 8.22934 20.5922 8.40985 20.667C8.59036 20.7418 8.75184 20.856 8.88246 21.0013C9.01308 21.1466 9.10953 21.3193 9.16474 21.5067L9.30574 21.9852C10.0962 24.6702 13.9032 24.6702 14.6937 21.9852L14.8347 21.5067C14.8899 21.3193 14.9864 21.1466 15.117 21.0013C15.2476 20.856 15.4091 20.7418 15.5896 20.667C15.7701 20.5922 15.9651 20.5587 16.1602 20.5691C16.3553 20.5794 16.5457 20.6333 16.7172 20.7267L17.1552 20.9667C19.6152 22.3062 22.3062 19.6137 20.9652 17.1552L20.7267 16.7172C20.6333 16.5457 20.5794 16.3553 20.5691 16.1602C20.5587 15.9651 20.5922 15.7701 20.667 15.5896C20.7418 15.4091 20.856 15.2476 21.0013 15.117C21.1466 14.9864 21.3193 14.8899 21.5067 14.8347L21.9852 14.6937C24.6702 13.9032 24.6702 10.0962 21.9852 9.30574L21.5067 9.16474C21.3193 9.10953 21.1466 9.01308 21.0013 8.88246C20.856 8.75184 20.7418 8.59036 20.667 8.40985C20.5922 8.22934 20.5587 8.03439 20.5691 7.83927C20.5794 7.64415 20.6333 7.45383 20.7267 7.28224L20.9667 6.84424C22.3062 4.38424 19.6137 1.69474 17.1552 3.03424L16.7172 3.27274C16.5457 3.3662 16.3553 3.42007 16.1602 3.43041C15.9651 3.44076 15.7701 3.40731 15.5896 3.33252C15.4091 3.25772 15.2476 3.14349 15.117 2.99818C14.9864 2.85287 14.8899 2.68017 14.8347 2.49274L14.6937 2.01424ZM10.7442 2.43874C11.1132 1.18624 12.8862 1.18624 13.2552 2.43874L13.3962 2.91724C13.5148 3.31937 13.7218 3.68987 14.0021 4.00159C14.2825 4.3133 14.629 4.55833 15.0164 4.71871C15.4037 4.87908 15.822 4.95074 16.2407 4.92842C16.6593 4.90611 17.0676 4.79038 17.4357 4.58974L17.8722 4.34974C19.0182 3.72724 20.2722 4.97974 19.6482 6.12724L19.4097 6.56524C19.2094 6.93338 19.094 7.34168 19.0719 7.76022C19.0498 8.17876 19.1217 8.59694 19.2822 8.98411C19.4427 9.37129 19.6878 9.71764 19.9995 9.9978C20.3112 10.278 20.6817 10.4848 21.0837 10.6032L21.5607 10.7442C22.8132 11.1132 22.8132 12.8862 21.5607 13.2552L21.0822 13.3962C20.6801 13.5148 20.3096 13.7218 19.9979 14.0021C19.6862 14.2825 19.4411 14.629 19.2808 15.0164C19.1204 15.4037 19.0487 15.822 19.0711 16.2407C19.0934 16.6593 19.2091 17.0676 19.4097 17.4357L19.6497 17.8722C20.2722 19.0182 19.0197 20.2722 17.8722 19.6482L17.4357 19.4097C17.0675 19.2091 16.6591 19.0934 16.2404 19.0712C15.8217 19.049 15.4033 19.1208 15.0159 19.2813C14.6285 19.4418 14.282 19.687 14.0018 19.9989C13.7215 20.3108 13.5146 20.6815 13.3962 21.0837L13.2552 21.5607C12.8862 22.8132 11.1132 22.8132 10.7442 21.5607L10.6032 21.0822C10.4847 20.6803 10.2777 20.31 9.99743 19.9985C9.7172 19.6869 9.37082 19.442 8.98367 19.2816C8.59652 19.1213 8.1784 19.0495 7.75994 19.0717C7.34148 19.0939 6.93328 19.2094 6.56524 19.4097L6.12724 19.6497C4.98124 20.2722 3.72724 19.0197 4.35124 17.8722L4.58974 17.4357C4.79067 17.0676 4.90661 16.6591 4.92908 16.2403C4.95154 15.8215 4.87995 15.4029 4.71955 15.0154C4.55916 14.6279 4.31403 14.2812 4.00216 14.0007C3.69028 13.7203 3.31958 13.5132 2.91724 13.3947L2.43874 13.2537C1.18624 12.8847 1.18624 11.1117 2.43874 10.7427L2.91724 10.6017C3.31895 10.4831 3.68905 10.2761 4.00045 9.99602C4.31186 9.71589 4.55668 9.36968 4.71702 8.98272C4.87735 8.59576 4.94913 8.17785 4.92711 7.75957C4.90509 7.34129 4.78982 6.93322 4.58974 6.56524L4.34974 6.12724C3.72724 4.98124 4.97974 3.72724 6.12724 4.35124L6.56524 4.58974C6.93328 4.7901 7.34148 4.9056 7.75994 4.92777C8.1784 4.94994 8.59652 4.87822 8.98367 4.71786C9.37082 4.55751 9.7172 4.31258 9.99743 4.00102C10.2777 3.68946 10.4847 3.31916 10.6032 2.91724L10.7442 2.43874Z" fill="black"/>
</g>
<defs>
<clipPath id="clip0_2_7720">
<rect width="24" height="24" fill="white"/>
</clipPath>
</defs>
</svg>
