<svg width="24" height="24" viewBox="0 0 24 24" fill="none" xmlns="http://www.w3.org/2000/svg">
<g clip-path="url(#clip0_2_7723)">
<path d="M14.1075 1.575C13.488 -0.525 10.512 -0.525 9.8925 1.575L9.7425 2.085C9.64994 2.39939 9.48818 2.68908 9.26909 2.93282C9.05 3.17656 8.77913 3.36817 8.47634 3.4936C8.17356 3.61902 7.84654 3.67509 7.51927 3.65768C7.192 3.64028 6.87277 3.54984 6.585 3.393L6.12 3.138C4.1955 2.091 2.091 4.1955 3.1395 6.1185L3.393 6.585C4.062 7.815 3.4275 9.3465 2.085 9.7425L1.575 9.8925C-0.525 10.512 -0.525 13.488 1.575 14.1075L2.085 14.2575C2.39939 14.3501 2.68908 14.5118 2.93282 14.7309C3.17656 14.95 3.36817 15.2209 3.4936 15.5237C3.61902 15.8264 3.67509 16.1535 3.65768 16.4807C3.64028 16.808 3.54984 17.1272 3.393 17.415L3.138 17.88C2.091 19.8045 4.1955 21.909 6.1185 20.8605L6.585 20.607C6.87277 20.4502 7.192 20.3597 7.51927 20.3423C7.84654 20.3249 8.17356 20.381 8.47634 20.5064C8.77913 20.6318 9.05 20.8234 9.26909 21.0672C9.48818 21.3109 9.64994 21.6006 9.7425 21.915L9.8925 22.425C10.512 24.525 13.488 24.525 14.1075 22.425L14.2575 21.915C14.3501 21.6006 14.5118 21.3109 14.7309 21.0672C14.95 20.8234 15.2209 20.6318 15.5237 20.5064C15.8264 20.381 16.1535 20.3249 16.4807 20.3423C16.808 20.3597 17.1272 20.4502 17.415 20.607L17.88 20.862C19.8045 21.909 21.909 19.8045 20.8605 17.8815L20.607 17.415C20.4502 17.1272 20.3597 16.808 20.3423 16.4807C20.3249 16.1535 20.381 15.8264 20.5064 15.5237C20.6318 15.2209 20.8234 14.95 21.0672 14.7309C21.3109 14.5118 21.6006 14.3501 21.915 14.2575L22.425 14.1075C24.525 13.488 24.525 10.512 22.425 9.8925L21.915 9.7425C21.6006 9.64994 21.3109 9.48818 21.0672 9.26909C20.8234 9.05 20.6318 8.77913 20.5064 8.47634C20.381 8.17356 20.3249 7.84654 20.3423 7.51927C20.3597 7.192 20.4502 6.87277 20.607 6.585L20.862 6.12C21.909 4.1955 19.8045 2.091 17.8815 3.1395L17.415 3.393C17.1272 3.54984 16.808 3.64028 16.4807 3.65768C16.1535 3.67509 15.8264 3.61902 15.5237 3.4936C15.2209 3.36817 14.95 3.17656 14.7309 2.93282C14.5118 2.68908 14.3501 2.39939 14.2575 2.085L14.1075 1.575ZM12 16.395C10.8344 16.395 9.71649 15.932 8.89227 15.1077C8.06804 14.2835 7.605 13.1656 7.605 12C7.605 10.8344 8.06804 9.71649 8.89227 8.89227C9.71649 8.06804 10.8344 7.605 12 7.605C13.1652 7.605 14.2827 8.06789 15.1067 8.89183C15.9306 9.71577 16.3935 10.8333 16.3935 11.9985C16.3935 13.1637 15.9306 14.2812 15.1067 15.1052C14.2827 15.9291 13.1652 16.392 12 16.392V16.395Z" fill="black"/>
</g>
<defs>
<clipPath id="clip0_2_7723">
<rect width="24" height="24" fill="white"/>
</clipPath>
</defs>
</svg>
