<svg width="24" height="24" viewBox="0 0 24 24" fill="none" xmlns="http://www.w3.org/2000/svg">
<g clip-path="url(#clip0_2_7722)">
<path d="M10.6023 1.09076C10.9668 -0.364238 13.0323 -0.364238 13.3983 1.09076L13.5048 1.51976C13.5671 1.76907 13.695 1.99717 13.8752 2.18037C14.0554 2.36358 14.2813 2.49523 14.5296 2.56165C14.7778 2.62807 15.0393 2.62685 15.2869 2.55812C15.5346 2.48939 15.7593 2.35564 15.9378 2.17076L16.2453 1.85426C17.2878 0.775762 19.0773 1.80926 18.6648 3.25076L18.5448 3.67676C18.4741 3.92373 18.4708 4.18511 18.5352 4.43378C18.5996 4.68246 18.7294 4.90938 18.911 5.09102C19.0926 5.27266 19.3196 5.40241 19.5682 5.46681C19.8169 5.5312 20.0783 5.52791 20.3253 5.45726L20.7498 5.33576C22.1898 4.92326 23.2248 6.71276 22.1463 7.75526L21.8298 8.06276C21.6449 8.24125 21.5111 8.46596 21.4424 8.71358C21.3737 8.9612 21.3724 9.2227 21.4389 9.47095C21.5053 9.71919 21.6369 9.94514 21.8202 10.1253C22.0034 10.3056 22.2315 10.4334 22.4808 10.4958L22.9098 10.6023C24.3648 10.9668 24.3648 13.0323 22.9098 13.3983L22.4808 13.5048C22.2315 13.5671 22.0034 13.695 21.8202 13.8752C21.6369 14.0554 21.5053 14.2813 21.4389 14.5296C21.3724 14.7778 21.3737 15.0393 21.4424 15.2869C21.5111 15.5346 21.6449 15.7593 21.8298 15.9378L22.1463 16.2453C23.2248 17.2878 22.1913 19.0773 20.7498 18.6648L20.3238 18.5448C20.0768 18.4741 19.8154 18.4708 19.5667 18.5352C19.3181 18.5996 19.0911 18.7294 18.9095 18.911C18.7279 19.0926 18.5981 19.3196 18.5337 19.5682C18.4693 19.8169 18.4726 20.0783 18.5433 20.3253L18.6648 20.7498C19.0773 22.1898 17.2878 23.2248 16.2453 22.1463L15.9378 21.8298C15.7593 21.6449 15.5346 21.5111 15.2869 21.4424C15.0393 21.3737 14.7778 21.3724 14.5296 21.4389C14.2813 21.5053 14.0554 21.6369 13.8752 21.8202C13.695 22.0034 13.5671 22.2315 13.5048 22.4808L13.3983 22.9098C13.0338 24.3648 10.9683 24.3648 10.6023 22.9098L10.4958 22.4808C10.4334 22.2315 10.3056 22.0034 10.1253 21.8202C9.94514 21.6369 9.71919 21.5053 9.47095 21.4389C9.2227 21.3724 8.9612 21.3737 8.71358 21.4424C8.46596 21.5111 8.24125 21.6449 8.06276 21.8298L7.75526 22.1463C6.71276 23.2248 4.92326 22.1913 5.33576 20.7498L5.45576 20.3238C5.52627 20.0769 5.52953 19.8158 5.46519 19.5673C5.40085 19.3188 5.27125 19.092 5.08982 18.9104C4.90839 18.7288 4.68171 18.599 4.43327 18.5345C4.18482 18.4699 3.92364 18.473 3.67676 18.5433L3.25076 18.6648C1.81076 19.0773 0.775762 17.2878 1.85426 16.2453L2.17076 15.9378C2.35564 15.7593 2.48939 15.5346 2.55812 15.2869C2.62685 15.0393 2.62807 14.7778 2.56165 14.5296C2.49523 14.2813 2.36358 14.0554 2.18037 13.8752C1.99717 13.695 1.76907 13.5671 1.51976 13.5048L1.09076 13.3983C-0.364238 13.0338 -0.364238 10.9683 1.09076 10.6023L1.51976 10.4958C1.76907 10.4334 1.99717 10.3056 2.18037 10.1253C2.36358 9.94514 2.49523 9.71919 2.56165 9.47095C2.62807 9.2227 2.62685 8.9612 2.55812 8.71358C2.48939 8.46596 2.35564 8.24125 2.17076 8.06276L1.85426 7.75526C0.775762 6.71276 1.80926 4.92326 3.25076 5.33576L3.67676 5.45576C3.92358 5.52627 4.18476 5.52953 4.43326 5.46519C4.68176 5.40085 4.90854 5.27125 5.09013 5.08982C5.27171 4.90839 5.4015 4.68171 5.46605 4.43327C5.5306 4.18482 5.52757 3.92364 5.45726 3.67676L5.33576 3.25076C4.92326 1.81076 6.71276 0.775762 7.75526 1.85426L8.06276 2.17076C8.24125 2.35564 8.46596 2.48939 8.71358 2.55812C8.9612 2.62685 9.2227 2.62807 9.47095 2.56165C9.71919 2.49523 9.94514 2.36358 10.1253 2.18037C10.3056 1.99717 10.4334 1.76907 10.4958 1.51976L10.6023 1.09076ZM19.4598 12.7503H12.3753L8.12426 18.4188C9.20708 19.0728 10.4378 19.4422 11.7018 19.4925C12.9658 19.5429 14.2219 19.2726 15.3534 18.7068C16.4848 18.141 17.4546 17.2981 18.1726 16.2567C18.8906 15.2152 19.3334 14.0089 19.4598 12.7503ZM19.4598 11.2503C19.3334 9.99159 18.8906 8.78536 18.1726 7.74387C17.4546 6.70238 16.4848 5.8595 15.3534 5.29372C14.2219 4.72793 12.9658 4.45764 11.7018 4.508C10.4378 4.55837 9.20708 4.92775 8.12426 5.58176L12.3753 11.2518H19.4598V11.2503ZM7.57226 5.95076C7.52726 5.98226 7.48526 6.01526 7.44176 6.04826L7.57226 5.95076ZM6.92576 6.48326C6.16131 7.18447 5.55115 8.03709 5.13409 8.9869C4.71703 9.93671 4.5022 10.9629 4.50326 12.0003C4.50326 14.1828 5.43626 16.1478 6.92576 17.5173L11.0628 12.0003L6.92576 6.48326ZM7.44176 17.9523L7.57226 18.0498L7.44176 17.9523Z" fill="black"/>
</g>
<defs>
<clipPath id="clip0_2_7722">
<rect width="24" height="24" fill="white"/>
</clipPath>
</defs>
</svg>
