<svg width="24" height="24" viewBox="0 0 24 24" fill="none" xmlns="http://www.w3.org/2000/svg">
<g clip-path="url(#clip0_2_7719)">
<path d="M4.65 1.05C4.71986 0.956853 4.81045 0.88125 4.91459 0.82918C5.01873 0.777109 5.13357 0.75 5.25 0.75H18.75C18.8664 0.75 18.9813 0.777109 19.0854 0.82918C19.1896 0.88125 19.2801 0.956853 19.35 1.05L23.814 7.011C24.0375 7.2885 24.048 7.686 23.829 7.977L12.6 22.95C12.5301 23.0431 12.4396 23.1187 12.3354 23.1708C12.2313 23.2229 12.1164 23.25 12 23.25C11.8836 23.25 11.7687 23.2229 11.6646 23.1708C11.5604 23.1187 11.4699 23.0431 11.4 22.95L0.15 7.95C0.0526334 7.82018 0 7.66228 0 7.5C0 7.33772 0.0526334 7.17982 0.15 7.05L4.65 1.05ZM21.729 6.7275L19.02 3.1125L17.856 6.732L21.729 6.7275ZM16.2795 6.7335L17.721 2.25H6.279L7.7235 6.7425L16.2795 6.7335ZM8.205 8.2425L12 20.049L15.798 8.235L8.205 8.2425ZM6.1485 6.744L4.9785 3.111L2.2515 6.7485L6.1485 6.744ZM2.2485 8.25L9.918 18.4755L6.63 8.2455L2.25 8.25H2.2485ZM14.082 18.4755L21.7665 8.2305L17.3745 8.2335L14.082 18.4755Z" fill="black"/>
</g>
<defs>
<clipPath id="clip0_2_7719">
<rect width="24" height="24" fill="white"/>
</clipPath>
</defs>
</svg>
