<svg width="24" height="24" viewBox="0 0 24 24" fill="none" xmlns="http://www.w3.org/2000/svg">
<path fill-rule="evenodd" clip-rule="evenodd" d="M17.25 1.5C17.0511 1.5 16.8603 1.42098 16.7196 1.28033C16.579 1.13968 16.5 0.948912 16.5 0.75C16.5 0.551088 16.579 0.360322 16.7196 0.21967C16.8603 0.0790176 17.0511 0 17.25 0L23.25 0C23.4489 0 23.6397 0.0790176 23.7803 0.21967C23.921 0.360322 24 0.551088 24 0.75V6.75C24 6.94891 23.921 7.13968 23.7803 7.28033C23.6397 7.42098 23.4489 7.5 23.25 7.5C23.0511 7.5 22.8603 7.42098 22.7196 7.28033C22.579 7.13968 22.5 6.94891 22.5 6.75V2.5605L17.325 7.7355C17.7709 8.59365 18.0027 9.54686 18.0008 10.5139C17.9989 11.481 17.7632 12.4333 17.3139 13.2896C16.8646 14.146 16.2149 14.8811 15.4202 15.4322C14.6256 15.9834 13.7095 16.3342 12.75 16.455V19.5H15C15.1989 19.5 15.3897 19.579 15.5303 19.7197C15.671 19.8603 15.75 20.0511 15.75 20.25C15.75 20.4489 15.671 20.6397 15.5303 20.7803C15.3897 20.921 15.1989 21 15 21H12.75V23.25C12.75 23.4489 12.671 23.6397 12.5303 23.7803C12.3897 23.921 12.1989 24 12 24C11.8011 24 11.6103 23.921 11.4696 23.7803C11.329 23.6397 11.25 23.4489 11.25 23.25V21H8.99997C8.80106 21 8.6103 20.921 8.46964 20.7803C8.32899 20.6397 8.24997 20.4489 8.24997 20.25C8.24997 20.0511 8.32899 19.8603 8.46964 19.7197C8.6103 19.579 8.80106 19.5 8.99997 19.5H11.25V16.455C10.2897 16.3337 9.37308 15.982 8.57822 15.4298C7.78336 14.8775 7.1339 14.1412 6.68524 13.2836C6.23658 12.426 6.00205 11.4726 6.00165 10.5047C6.00125 9.53688 6.235 8.58328 6.68295 7.72532C7.13091 6.86735 7.77976 6.13049 8.57417 5.5776C9.36857 5.02471 10.2849 4.67221 11.2451 4.55016C12.2052 4.42812 13.1806 4.54016 14.0881 4.87672C14.9955 5.21329 15.8081 5.76439 16.4565 6.483L21.4395 1.5H17.25ZM15.7545 8.019C15.0963 7.02324 14.0695 6.32974 12.8999 6.09106C11.7304 5.85237 10.514 6.08805 9.51822 6.74625C8.52247 7.40445 7.82896 8.43126 7.59028 9.60078C7.35159 10.7703 7.58727 11.9867 8.24547 12.9825C8.90387 13.9783 9.93087 14.6717 11.1005 14.9102C12.2702 15.1488 13.4867 14.9129 14.4825 14.2545C15.4782 13.5961 16.1717 12.5691 16.4102 11.3994C16.6487 10.2298 16.4129 9.01326 15.7545 8.0175V8.019Z" fill="black"/>
</svg>
