<svg width="24" height="24" viewBox="0 0 24 24" fill="none" xmlns="http://www.w3.org/2000/svg">
<g clip-path="url(#clip0_2_7715)">
<path d="M12 24C12 24 21 15.471 21 9C21 6.61305 20.0518 4.32387 18.364 2.63604C16.6761 0.948211 14.3869 0 12 0C9.61305 0 7.32387 0.948211 5.63604 2.63604C3.94821 4.32387 3 6.61305 3 9C3 15.471 12 24 12 24ZM12 13.5C10.8065 13.5 9.66193 13.0259 8.81802 12.182C7.97411 11.3381 7.5 10.1935 7.5 9C7.5 7.80653 7.97411 6.66193 8.81802 5.81802C9.66193 4.97411 10.8065 4.5 12 4.5C13.1935 4.5 14.3381 4.97411 15.182 5.81802C16.0259 6.66193 16.5 7.80653 16.5 9C16.5 10.1935 16.0259 11.3381 15.182 12.182C14.3381 13.0259 13.1935 13.5 12 13.5Z" fill="black"/>
</g>
<defs>
<clipPath id="clip0_2_7715">
<rect width="24" height="24" fill="white"/>
</clipPath>
</defs>
</svg>
