<svg width="24" height="24" viewBox="0 0 24 24" fill="none" xmlns="http://www.w3.org/2000/svg">
<g clip-path="url(#clip0_2_8258)">
<path d="M23.3175 9.8373C23.4574 10.6427 23.5272 11.4588 23.526 12.2763C23.526 15.9273 22.221 19.0143 19.95 21.1038H19.953C17.967 22.9383 15.237 24.0003 12 24.0003C8.8174 24.0003 5.76516 22.736 3.51472 20.4856C1.26428 18.2351 0 15.1829 0 12.0003C0 8.81771 1.26428 5.76546 3.51472 3.51502C5.76516 1.26459 8.8174 0.000303549 12 0.000303549C14.9789 -0.034584 17.8558 1.08455 20.028 3.1233L16.602 6.5493C15.3636 5.36877 13.7107 4.72229 12 4.7493C8.8695 4.7493 6.21 6.8613 5.262 9.7053C4.75936 11.1956 4.75936 12.8095 5.262 14.2998H5.2665C6.219 17.1393 8.874 19.2513 12.0045 19.2513C13.6215 19.2513 15.0105 18.8373 16.0875 18.1053H16.083C16.7084 17.691 17.2433 17.1543 17.6555 16.5276C18.0678 15.9009 18.3487 15.1971 18.4815 14.4588H12V9.8388H23.3175V9.8373Z" fill="black"/>
</g>
<defs>
<clipPath id="clip0_2_8258">
<rect width="24" height="24" fill="white"/>
</clipPath>
</defs>
</svg>
