<svg width="24" height="24" viewBox="0 0 24 24" fill="none" xmlns="http://www.w3.org/2000/svg">
<path fill-rule="evenodd" clip-rule="evenodd" d="M0 2.25C0 2.05109 0.0790176 1.86032 0.21967 1.71967C0.360322 1.57902 0.551088 1.5 0.75 1.5H2.25C2.44891 1.5 2.63968 1.57902 2.78033 1.71967C2.92098 1.86032 3 2.05109 3 2.25V6H23.25C23.4489 6 23.6397 6.07902 23.7803 6.21967C23.921 6.36032 24 6.55109 24 6.75V17.25C24 17.4489 23.921 17.6397 23.7803 17.7803C23.6397 17.921 23.4489 18 23.25 18H3V21.75C3 21.9489 2.92098 22.1397 2.78033 22.2803C2.63968 22.421 2.44891 22.5 2.25 22.5C2.05109 22.5 1.86032 22.421 1.71967 22.2803C1.57902 22.1397 1.5 21.9489 1.5 21.75V3H0.75C0.551088 3 0.360322 2.92098 0.21967 2.78033C0.0790176 2.63968 0 2.44891 0 2.25ZM4.5 18.75H9.75V20.25C9.75 20.4489 9.67098 20.6397 9.53033 20.7803C9.38968 20.921 9.19891 21 9 21H5.25C5.05109 21 4.86032 20.921 4.71967 20.7803C4.57902 20.6397 4.5 20.4489 4.5 20.25V18.75ZM10.5 20.25V18.75H16.5V20.25C16.5 20.4489 16.421 20.6397 16.2803 20.7803C16.1397 20.921 15.9489 21 15.75 21H11.25C11.0511 21 10.8603 20.921 10.7197 20.7803C10.579 20.6397 10.5 20.4489 10.5 20.25ZM6 12C6 11.7045 6.0582 11.4119 6.17127 11.139C6.28434 10.866 6.45008 10.6179 6.65901 10.409C6.86794 10.2001 7.11598 10.0343 7.38896 9.92127C7.66194 9.8082 7.95453 9.75 8.25 9.75C8.54547 9.75 8.83806 9.8082 9.11104 9.92127C9.38402 10.0343 9.63206 10.2001 9.84099 10.409C10.0499 10.6179 10.2157 10.866 10.3287 11.139C10.4418 11.4119 10.5 11.7045 10.5 12C10.5 12.5967 10.2629 13.169 9.84099 13.591C9.41903 14.0129 8.84674 14.25 8.25 14.25C7.65326 14.25 7.08097 14.0129 6.65901 13.591C6.23705 13.169 6 12.5967 6 12ZM8.25 8.25C7.25544 8.25 6.30161 8.64509 5.59835 9.34835C4.89509 10.0516 4.5 11.0054 4.5 12C4.5 12.9946 4.89509 13.9484 5.59835 14.6517C6.30161 15.3549 7.25544 15.75 8.25 15.75C9.24456 15.75 10.1984 15.3549 10.9017 14.6517C11.6049 13.9484 12 12.9946 12 12C12 11.0054 11.6049 10.0516 10.9017 9.34835C10.1984 8.64509 9.24456 8.25 8.25 8.25ZM17.25 9.75C16.6533 9.75 16.081 9.98705 15.659 10.409C15.2371 10.831 15 11.4033 15 12C15 12.5967 15.2371 13.169 15.659 13.591C16.081 14.0129 16.6533 14.25 17.25 14.25C17.8467 14.25 18.419 14.0129 18.841 13.591C19.2629 13.169 19.5 12.5967 19.5 12C19.5 11.4033 19.2629 10.831 18.841 10.409C18.419 9.98705 17.8467 9.75 17.25 9.75ZM13.5 12C13.5 11.0054 13.8951 10.0516 14.5983 9.34835C15.3016 8.64509 16.2554 8.25 17.25 8.25C18.2446 8.25 19.1984 8.64509 19.9016 9.34835C20.6049 10.0516 21 11.0054 21 12C21 12.9946 20.6049 13.9484 19.9016 14.6517C19.1984 15.3549 18.2446 15.75 17.25 15.75C16.2554 15.75 15.3016 15.3549 14.5983 14.6517C13.8951 13.9484 13.5 12.9946 13.5 12Z" fill="black"/>
</svg>
