<svg width="24" height="24" viewBox="0 0 24 24" fill="none" xmlns="http://www.w3.org/2000/svg">
<path d="M1.5 3.75C1.5 3.15326 1.73705 2.58097 2.15901 2.15901C2.58097 1.73705 3.15326 1.5 3.75 1.5H8.25C8.84674 1.5 9.41903 1.73705 9.84099 2.15901C10.2629 2.58097 10.5 3.15326 10.5 3.75V8.25C10.5 8.84674 10.2629 9.41903 9.84099 9.84099C9.41903 10.2629 8.84674 10.5 8.25 10.5H3.75C3.15326 10.5 2.58097 10.2629 2.15901 9.84099C1.73705 9.41903 1.5 8.84674 1.5 8.25V3.75ZM13.5 3.75C13.5 3.15326 13.7371 2.58097 14.159 2.15901C14.581 1.73705 15.1533 1.5 15.75 1.5H20.25C20.8467 1.5 21.419 1.73705 21.841 2.15901C22.2629 2.58097 22.5 3.15326 22.5 3.75V8.25C22.5 8.84674 22.2629 9.41903 21.841 9.84099C21.419 10.2629 20.8467 10.5 20.25 10.5H15.75C15.1533 10.5 14.581 10.2629 14.159 9.84099C13.7371 9.41903 13.5 8.84674 13.5 8.25V3.75ZM1.5 15.75C1.5 15.1533 1.73705 14.581 2.15901 14.159C2.58097 13.7371 3.15326 13.5 3.75 13.5H8.25C8.84674 13.5 9.41903 13.7371 9.84099 14.159C10.2629 14.581 10.5 15.1533 10.5 15.75V20.25C10.5 20.8467 10.2629 21.419 9.84099 21.841C9.41903 22.2629 8.84674 22.5 8.25 22.5H3.75C3.15326 22.5 2.58097 22.2629 2.15901 21.841C1.73705 21.419 1.5 20.8467 1.5 20.25V15.75ZM13.5 15.75C13.5 15.1533 13.7371 14.581 14.159 14.159C14.581 13.7371 15.1533 13.5 15.75 13.5H20.25C20.8467 13.5 21.419 13.7371 21.841 14.159C22.2629 14.581 22.5 15.1533 22.5 15.75V20.25C22.5 20.8467 22.2629 21.419 21.841 21.841C21.419 22.2629 20.8467 22.5 20.25 22.5H15.75C15.1533 22.5 14.581 22.2629 14.159 21.841C13.7371 21.419 13.5 20.8467 13.5 20.25V15.75Z" fill="black"/>
</svg>
