<svg width="24" height="24" viewBox="0 0 24 24" fill="none" xmlns="http://www.w3.org/2000/svg">
<path d="M1.5 3C1.5 2.60218 1.65804 2.22064 1.93934 1.93934C2.22064 1.65804 2.60218 1.5 3 1.5H6C6.39782 1.5 6.77936 1.65804 7.06066 1.93934C7.34196 2.22064 7.5 2.60218 7.5 3V6C7.5 6.39782 7.34196 6.77936 7.06066 7.06066C6.77936 7.34196 6.39782 7.5 6 7.5H3C2.60218 7.5 2.22064 7.34196 1.93934 7.06066C1.65804 6.77936 1.5 6.39782 1.5 6V3ZM9 3C9 2.60218 9.15804 2.22064 9.43934 1.93934C9.72064 1.65804 10.1022 1.5 10.5 1.5H13.5C13.8978 1.5 14.2794 1.65804 14.5607 1.93934C14.842 2.22064 15 2.60218 15 3V6C15 6.39782 14.842 6.77936 14.5607 7.06066C14.2794 7.34196 13.8978 7.5 13.5 7.5H10.5C10.1022 7.5 9.72064 7.34196 9.43934 7.06066C9.15804 6.77936 9 6.39782 9 6V3ZM16.5 3C16.5 2.60218 16.658 2.22064 16.9393 1.93934C17.2206 1.65804 17.6022 1.5 18 1.5H21C21.3978 1.5 21.7794 1.65804 22.0607 1.93934C22.342 2.22064 22.5 2.60218 22.5 3V6C22.5 6.39782 22.342 6.77936 22.0607 7.06066C21.7794 7.34196 21.3978 7.5 21 7.5H18C17.6022 7.5 17.2206 7.34196 16.9393 7.06066C16.658 6.77936 16.5 6.39782 16.5 6V3ZM1.5 10.5C1.5 10.1022 1.65804 9.72064 1.93934 9.43934C2.22064 9.15804 2.60218 9 3 9H6C6.39782 9 6.77936 9.15804 7.06066 9.43934C7.34196 9.72064 7.5 10.1022 7.5 10.5V13.5C7.5 13.8978 7.34196 14.2794 7.06066 14.5607C6.77936 14.842 6.39782 15 6 15H3C2.60218 15 2.22064 14.842 1.93934 14.5607C1.65804 14.2794 1.5 13.8978 1.5 13.5V10.5ZM9 10.5C9 10.1022 9.15804 9.72064 9.43934 9.43934C9.72064 9.15804 10.1022 9 10.5 9H13.5C13.8978 9 14.2794 9.15804 14.5607 9.43934C14.842 9.72064 15 10.1022 15 10.5V13.5C15 13.8978 14.842 14.2794 14.5607 14.5607C14.2794 14.842 13.8978 15 13.5 15H10.5C10.1022 15 9.72064 14.842 9.43934 14.5607C9.15804 14.2794 9 13.8978 9 13.5V10.5ZM16.5 10.5C16.5 10.1022 16.658 9.72064 16.9393 9.43934C17.2206 9.15804 17.6022 9 18 9H21C21.3978 9 21.7794 9.15804 22.0607 9.43934C22.342 9.72064 22.5 10.1022 22.5 10.5V13.5C22.5 13.8978 22.342 14.2794 22.0607 14.5607C21.7794 14.842 21.3978 15 21 15H18C17.6022 15 17.2206 14.842 16.9393 14.5607C16.658 14.2794 16.5 13.8978 16.5 13.5V10.5ZM1.5 18C1.5 17.6022 1.65804 17.2206 1.93934 16.9393C2.22064 16.658 2.60218 16.5 3 16.5H6C6.39782 16.5 6.77936 16.658 7.06066 16.9393C7.34196 17.2206 7.5 17.6022 7.5 18V21C7.5 21.3978 7.34196 21.7794 7.06066 22.0607C6.77936 22.342 6.39782 22.5 6 22.5H3C2.60218 22.5 2.22064 22.342 1.93934 22.0607C1.65804 21.7794 1.5 21.3978 1.5 21V18ZM9 18C9 17.6022 9.15804 17.2206 9.43934 16.9393C9.72064 16.658 10.1022 16.5 10.5 16.5H13.5C13.8978 16.5 14.2794 16.658 14.5607 16.9393C14.842 17.2206 15 17.6022 15 18V21C15 21.3978 14.842 21.7794 14.5607 22.0607C14.2794 22.342 13.8978 22.5 13.5 22.5H10.5C10.1022 22.5 9.72064 22.342 9.43934 22.0607C9.15804 21.7794 9 21.3978 9 21V18ZM16.5 18C16.5 17.6022 16.658 17.2206 16.9393 16.9393C17.2206 16.658 17.6022 16.5 18 16.5H21C21.3978 16.5 21.7794 16.658 22.0607 16.9393C22.342 17.2206 22.5 17.6022 22.5 18V21C22.5 21.3978 22.342 21.7794 22.0607 22.0607C21.7794 22.342 21.3978 22.5 21 22.5H18C17.6022 22.5 17.2206 22.342 16.9393 22.0607C16.658 21.7794 16.5 21.3978 16.5 21V18Z" fill="black"/>
</svg>
