<svg width="24" height="24" viewBox="0 0 24 24" fill="none" xmlns="http://www.w3.org/2000/svg">
<path d="M1.5 6C1.5 5.60218 1.65804 5.22064 1.93934 4.93934C2.22064 4.65804 2.60218 4.5 3 4.5H6C6.39782 4.5 6.77936 4.65804 7.06066 4.93934C7.34196 5.22064 7.5 5.60218 7.5 6V9C7.5 9.39782 7.34196 9.77936 7.06066 10.0607C6.77936 10.342 6.39782 10.5 6 10.5H3C2.60218 10.5 2.22064 10.342 1.93934 10.0607C1.65804 9.77936 1.5 9.39782 1.5 9V6ZM9 6C9 5.60218 9.15804 5.22064 9.43934 4.93934C9.72064 4.65804 10.1022 4.5 10.5 4.5H13.5C13.8978 4.5 14.2794 4.65804 14.5607 4.93934C14.842 5.22064 15 5.60218 15 6V9C15 9.39782 14.842 9.77936 14.5607 10.0607C14.2794 10.342 13.8978 10.5 13.5 10.5H10.5C10.1022 10.5 9.72064 10.342 9.43934 10.0607C9.15804 9.77936 9 9.39782 9 9V6ZM16.5 6C16.5 5.60218 16.658 5.22064 16.9393 4.93934C17.2206 4.65804 17.6022 4.5 18 4.5H21C21.3978 4.5 21.7794 4.65804 22.0607 4.93934C22.342 5.22064 22.5 5.60218 22.5 6V9C22.5 9.39782 22.342 9.77936 22.0607 10.0607C21.7794 10.342 21.3978 10.5 21 10.5H18C17.6022 10.5 17.2206 10.342 16.9393 10.0607C16.658 9.77936 16.5 9.39782 16.5 9V6ZM1.5 13.5C1.5 13.1022 1.65804 12.7206 1.93934 12.4393C2.22064 12.158 2.60218 12 3 12H6C6.39782 12 6.77936 12.158 7.06066 12.4393C7.34196 12.7206 7.5 13.1022 7.5 13.5V16.5C7.5 16.8978 7.34196 17.2794 7.06066 17.5607C6.77936 17.842 6.39782 18 6 18H3C2.60218 18 2.22064 17.842 1.93934 17.5607C1.65804 17.2794 1.5 16.8978 1.5 16.5V13.5ZM9 13.5C9 13.1022 9.15804 12.7206 9.43934 12.4393C9.72064 12.158 10.1022 12 10.5 12H13.5C13.8978 12 14.2794 12.158 14.5607 12.4393C14.842 12.7206 15 13.1022 15 13.5V16.5C15 16.8978 14.842 17.2794 14.5607 17.5607C14.2794 17.842 13.8978 18 13.5 18H10.5C10.1022 18 9.72064 17.842 9.43934 17.5607C9.15804 17.2794 9 16.8978 9 16.5V13.5ZM16.5 13.5C16.5 13.1022 16.658 12.7206 16.9393 12.4393C17.2206 12.158 17.6022 12 18 12H21C21.3978 12 21.7794 12.158 22.0607 12.4393C22.342 12.7206 22.5 13.1022 22.5 13.5V16.5C22.5 16.8978 22.342 17.2794 22.0607 17.5607C21.7794 17.842 21.3978 18 21 18H18C17.6022 18 17.2206 17.842 16.9393 17.5607C16.658 17.2794 16.5 16.8978 16.5 16.5V13.5Z" fill="black"/>
</svg>
