<svg width="24" height="24" viewBox="0 0 24 24" fill="none" xmlns="http://www.w3.org/2000/svg">
<path d="M12.75 6.699V2.625C12.75 1.92881 12.4735 1.26113 11.9812 0.768845C11.4889 0.276562 10.8212 0 10.125 0C9.42884 0 8.76117 0.276562 8.26888 0.768845C7.7766 1.26113 7.50004 1.92881 7.50004 2.625V10.635L5.70004 10.995C5.1483 11.1056 4.65805 11.419 4.32595 11.8732C3.99386 12.3275 3.84404 12.8897 3.90604 13.449L4.42354 18.108C4.49009 18.7036 4.69841 19.2745 5.03104 19.773L7.18054 22.998C7.38599 23.3062 7.66435 23.5589 7.99091 23.7337C8.31747 23.9085 8.68214 24 9.05254 24H18.63C19.0266 23.9999 19.4161 23.8949 19.7591 23.6958C20.1021 23.4966 20.3863 23.2104 20.583 22.866L22.6755 19.2045C23.0414 18.5645 23.2683 17.8546 23.3415 17.121L23.748 13.0485C23.7897 12.6315 23.7436 12.2103 23.6126 11.8122C23.4815 11.414 23.2685 11.0478 22.9873 10.737C22.7061 10.4263 22.3629 10.1779 21.9797 10.0079C21.5966 9.83786 21.1822 9.75002 20.763 9.75H19.8915C19.7979 9.62302 19.7003 9.49896 19.599 9.378C19.3125 9.0345 18.834 8.526 18.279 8.304C17.733 8.085 17.01 8.106 16.542 8.142L16.344 8.16C16.1843 7.75121 15.8874 7.41074 15.504 7.197C15.1589 6.99797 14.7857 6.85232 14.397 6.765C13.932 6.672 13.2885 6.678 12.822 6.696L12.75 6.699Z" fill="black"/>
</svg>
