<svg width="24" height="24" viewBox="0 0 24 24" fill="none" xmlns="http://www.w3.org/2000/svg">
<path d="M12.75 2.625V6.699L12.8205 6.696C13.2885 6.678 13.9335 6.672 14.397 6.765C14.817 6.849 15.2115 7.035 15.504 7.197C15.9135 7.425 16.188 7.7745 16.344 8.16L16.542 8.142C17.01 8.106 17.733 8.085 18.279 8.304C18.834 8.526 19.3125 9.0345 19.599 9.378C19.7115 9.513 19.8105 9.6405 19.8915 9.75H20.7645C21.1836 9.75002 21.5981 9.83786 21.9812 10.0079C22.3643 10.1779 22.7075 10.4263 22.9888 10.737C23.27 11.0478 23.483 11.414 23.614 11.8122C23.7451 12.2103 23.7912 12.6315 23.7495 13.0485L23.3415 17.121C23.2682 17.8546 23.0413 18.5645 22.6755 19.2045L20.583 22.866C20.3863 23.2104 20.1021 23.4966 19.7591 23.6958C19.4161 23.8949 19.0266 23.9999 18.63 24H9.177C8.75893 24 8.34913 23.8835 7.99357 23.6636C7.638 23.4437 7.35074 23.129 7.164 22.755L5.3415 19.11L1.605 12.8835C1.32138 12.4074 1.22126 11.8441 1.32343 11.2994C1.42561 10.7548 1.72304 10.2661 2.15993 9.92511C2.59681 9.58415 3.14311 9.41434 3.6963 9.44755C4.24949 9.48076 4.77155 9.71471 5.1645 10.1055L7.5 12.4395V2.625C7.5 1.92881 7.77656 1.26113 8.26885 0.768845C8.76113 0.276562 9.42881 0 10.125 0C10.8212 0 11.4889 0.276562 11.9812 0.768845C12.4734 1.26113 12.75 1.92881 12.75 2.625Z" fill="black"/>
</svg>
