<svg width="24" height="24" viewBox="0 0 24 24" fill="none" xmlns="http://www.w3.org/2000/svg">
<g clip-path="url(#clip0_2_8340)">
<path fill-rule="evenodd" clip-rule="evenodd" d="M1.5 7.5C1.10218 7.5 0.720644 7.65804 0.43934 7.93934C0.158035 8.22064 0 8.60218 0 9L0 13.5C0 13.8978 0.158035 14.2794 0.43934 14.5607C0.720644 14.842 1.10218 15 1.5 15H1.9395L3 16.0605C3.28124 16.3418 3.66271 16.4999 4.0605 16.5H19.9395C20.3373 16.4999 20.7188 16.3418 21 16.0605L22.0605 15H22.5C22.8978 15 23.2794 14.842 23.5607 14.5607C23.842 14.2794 24 13.8978 24 13.5V9C24 8.60218 23.842 8.22064 23.5607 7.93934C23.2794 7.65804 22.8978 7.5 22.5 7.5H1.5ZM1.5 9H22.5V13.5H22.0605C21.6627 13.5001 21.2812 13.6582 21 13.9395L19.9395 15H4.0605L3 13.9395C2.71876 13.6582 2.33729 13.5001 1.9395 13.5H1.5V9ZM3.75 10.5C3.55109 10.5 3.36032 10.579 3.21967 10.7197C3.07902 10.8603 3 11.0511 3 11.25C3 11.4489 3.07902 11.6397 3.21967 11.7803C3.36032 11.921 3.55109 12 3.75 12H20.25C20.4489 12 20.6397 11.921 20.7803 11.7803C20.921 11.6397 21 11.4489 21 11.25C21 11.0511 20.921 10.8603 20.7803 10.7197C20.6397 10.579 20.4489 10.5 20.25 10.5H3.75Z" fill="black"/>
</g>
<defs>
<clipPath id="clip0_2_8340">
<rect width="24" height="24" fill="white"/>
</clipPath>
</defs>
</svg>
