<svg width="24" height="24" viewBox="0 0 24 24" fill="none" xmlns="http://www.w3.org/2000/svg">
<g clip-path="url(#clip0_2_7685)">
<path fill-rule="evenodd" clip-rule="evenodd" d="M1.5 7.5C1.10218 7.5 0.720644 7.65804 0.43934 7.93934C0.158035 8.22064 0 8.60218 0 9L0 13.9395C0 14.5245 0.4755 15 1.0605 15C1.3425 15 1.6125 15.1125 1.8105 15.3105L2.5605 16.0605C2.84174 16.3418 3.22321 16.4999 3.621 16.5H20.379C20.7768 16.4999 21.1583 16.3418 21.4395 16.0605L22.1895 15.3105C22.288 15.212 22.4049 15.1339 22.5336 15.0807C22.6623 15.0274 22.8002 15 22.9395 15C23.5245 15 24 14.5245 24 13.9395V9C24 8.60218 23.842 8.22064 23.5607 7.93934C23.2794 7.65804 22.8978 7.5 22.5 7.5H1.5ZM3.75 10.5C3.55109 10.5 3.36032 10.579 3.21967 10.7197C3.07902 10.8603 3 11.0511 3 11.25C3 11.4489 3.07902 11.6397 3.21967 11.7803C3.36032 11.921 3.55109 12 3.75 12H20.25C20.4489 12 20.6397 11.921 20.7803 11.7803C20.921 11.6397 21 11.4489 21 11.25C21 11.0511 20.921 10.8603 20.7803 10.7197C20.6397 10.579 20.4489 10.5 20.25 10.5H3.75Z" fill="black"/>
</g>
<defs>
<clipPath id="clip0_2_7685">
<rect width="24" height="24" fill="white"/>
</clipPath>
</defs>
</svg>
