<svg width="24" height="24" viewBox="0 0 24 24" fill="none" xmlns="http://www.w3.org/2000/svg">
<path d="M3.75 22.5C3.55109 22.5 3.36032 22.421 3.21967 22.2803C3.07902 22.1397 3 21.9489 3 21.75C3 21.5511 3.07902 21.3603 3.21967 21.2197C3.36032 21.079 3.55109 21 3.75 21H5.25V19.5C5.24969 18.2265 5.60968 16.9788 6.28837 15.9012C6.96707 14.8235 7.93679 13.9599 9.0855 13.41C9.5205 13.2015 9.75 12.8445 9.75 12.525V11.475C9.75 11.1555 9.519 10.7985 9.0855 10.59C7.93679 10.0401 6.96707 9.17647 6.28837 8.09883C5.60968 7.0212 5.24969 5.77355 5.25 4.5V3H3.75C3.55109 3 3.36032 2.92098 3.21967 2.78033C3.07902 2.63968 3 2.44891 3 2.25C3 2.05109 3.07902 1.86032 3.21967 1.71967C3.36032 1.57902 3.55109 1.5 3.75 1.5H20.25C20.4489 1.5 20.6397 1.57902 20.7803 1.71967C20.921 1.86032 21 2.05109 21 2.25C21 2.44891 20.921 2.63968 20.7803 2.78033C20.6397 2.92098 20.4489 3 20.25 3H18.75V4.5C18.7503 5.77355 18.3903 7.0212 17.7116 8.09883C17.0329 9.17647 16.0632 10.0401 14.9145 10.59C14.4795 10.7985 14.25 11.1555 14.25 11.475V12.525C14.25 12.8445 14.481 13.2015 14.9145 13.41C16.0632 13.9599 17.0329 14.8235 17.7116 15.9012C18.3903 16.9788 18.7503 18.2265 18.75 19.5V21H20.25C20.4489 21 20.6397 21.079 20.7803 21.2197C20.921 21.3603 21 21.5511 21 21.75C21 21.9489 20.921 22.1397 20.7803 22.2803C20.6397 22.421 20.4489 22.5 20.25 22.5H3.75ZM6.75 3V4.5C6.75 5.3055 6.93 6.0675 7.2555 6.75H16.7445C17.0685 6.0675 17.25 5.3055 17.25 4.5V3H6.75ZM11.25 12.525C11.25 13.5765 10.533 14.379 9.7335 14.763C8.83994 15.1907 8.08562 15.8624 7.55768 16.7007C7.02974 17.5389 6.74973 18.5094 6.75 19.5C6.75 19.5 8.049 17.5515 11.25 17.28V12.525ZM12.75 12.525V17.28C15.951 17.5515 17.25 19.5 17.25 19.5C17.2503 18.5094 16.9703 17.5389 16.4423 16.7007C15.9144 15.8624 15.1601 15.1907 14.2665 14.763C13.467 14.379 12.75 13.578 12.75 12.5265V12.525Z" fill="black"/>
</svg>
