<svg width="24" height="24" viewBox="0 0 24 24" fill="none" xmlns="http://www.w3.org/2000/svg">
<g clip-path="url(#clip0_2_7667)">
<path d="M18 4.5H6C5.60218 4.5 5.22064 4.65804 4.93934 4.93934C4.65804 5.22064 4.5 5.60218 4.5 6V9.75H3V6C3 5.20435 3.31607 4.44129 3.87868 3.87868C4.44129 3.31607 5.20435 3 6 3H18C18.7956 3 19.5587 3.31607 20.1213 3.87868C20.6839 4.44129 21 5.20435 21 6V9.75H19.5V6C19.5 5.60218 19.342 5.22064 19.0607 4.93934C18.7794 4.65804 18.3978 4.5 18 4.5ZM3 14.25H4.5V18C4.5 18.3978 4.65804 18.7794 4.93934 19.0607C5.22064 19.342 5.60218 19.5 6 19.5H18C18.3978 19.5 18.7794 19.342 19.0607 19.0607C19.342 18.7794 19.5 18.3978 19.5 18V14.25H21V18C21 18.7956 20.6839 19.5587 20.1213 20.1213C19.5587 20.6839 18.7956 21 18 21H6C5.20435 21 4.44129 20.6839 3.87868 20.1213C3.31607 19.5587 3 18.7956 3 18V14.25ZM0.75 11.25C0.551088 11.25 0.360322 11.329 0.21967 11.4697C0.0790176 11.6103 0 11.8011 0 12C0 12.1989 0.0790176 12.3897 0.21967 12.5303C0.360322 12.671 0.551088 12.75 0.75 12.75H23.25C23.4489 12.75 23.6397 12.671 23.7803 12.5303C23.921 12.3897 24 12.1989 24 12C24 11.8011 23.921 11.6103 23.7803 11.4697C23.6397 11.329 23.4489 11.25 23.25 11.25H0.75Z" fill="black"/>
</g>
<defs>
<clipPath id="clip0_2_7667">
<rect width="24" height="24" fill="white"/>
</clipPath>
</defs>
</svg>
