<svg width="24" height="24" viewBox="0 0 24 24" fill="none" xmlns="http://www.w3.org/2000/svg">
<g clip-path="url(#clip0_2_7662)">
<path d="M0.00305176 4.5C0.00305176 3.70435 0.319122 2.94129 0.881731 2.37868C1.44434 1.81607 2.2074 1.5 3.00305 1.5H21.0031C21.7987 1.5 22.5618 1.81607 23.1244 2.37868C23.687 2.94129 24.0031 3.70435 24.0031 4.5V19.5C24.0031 20.2956 23.687 21.0587 23.1244 21.6213C22.5618 22.1839 21.7987 22.5 21.0031 22.5H3.00305C2.2074 22.5 1.44434 22.1839 0.881731 21.6213C0.319122 21.0587 0.00305176 20.2956 0.00305176 19.5V4.5ZM1.50305 18V19.5C1.50305 19.8978 1.66109 20.2794 1.94239 20.5607C2.2237 20.842 2.60523 21 3.00305 21H21.0031C21.4009 21 21.7824 20.842 22.0637 20.5607C22.345 20.2794 22.5031 19.8978 22.5031 19.5V14.25L16.8376 11.3295C16.6969 11.259 16.5376 11.2346 16.3823 11.2596C16.227 11.2847 16.0835 11.3579 15.9721 11.469L10.4071 17.034L6.41705 14.376C6.27299 14.2801 6.10019 14.237 5.92796 14.2539C5.75572 14.2709 5.59465 14.3468 5.47205 14.469L1.50305 18ZM9.00305 8.25C9.00305 7.65326 8.766 7.08097 8.34404 6.65901C7.92209 6.23705 7.34979 6 6.75305 6C6.15631 6 5.58402 6.23705 5.16206 6.65901C4.7401 7.08097 4.50305 7.65326 4.50305 8.25C4.50305 8.84674 4.7401 9.41903 5.16206 9.84099C5.58402 10.2629 6.15631 10.5 6.75305 10.5C7.34979 10.5 7.92209 10.2629 8.34404 9.84099C8.766 9.41903 9.00305 8.84674 9.00305 8.25Z" fill="black"/>
</g>
<defs>
<clipPath id="clip0_2_7662">
<rect width="24" height="24" fill="white"/>
</clipPath>
</defs>
</svg>
