<svg width="24" height="24" viewBox="0 0 24 24" fill="none" xmlns="http://www.w3.org/2000/svg">
<g clip-path="url(#clip0_2_7654)">
<path d="M7.46998 1.5C7.35757 1.50016 7.24664 1.52559 7.14538 1.5744C7.04412 1.62321 6.95513 1.69416 6.88498 1.782L2.30998 7.5H8.99998C9.1989 7.5 9.38966 7.57902 9.53031 7.71967C9.67097 7.86032 9.74998 8.05109 9.74998 8.25C9.74998 8.84674 9.98704 9.41903 10.409 9.84099C10.8309 10.2629 11.4032 10.5 12 10.5C12.5967 10.5 13.169 10.2629 13.591 9.84099C14.0129 9.41903 14.25 8.84674 14.25 8.25C14.25 8.05109 14.329 7.86032 14.4697 7.71967C14.6103 7.57902 14.8011 7.5 15 7.5H21.69L17.115 1.782C17.0448 1.69416 16.9558 1.62321 16.8546 1.5744C16.7533 1.52559 16.6424 1.50016 16.53 1.5H7.46998ZM22.401 9H15.675C15.5028 9.84772 15.0429 10.6099 14.3732 11.1573C13.7034 11.7047 12.865 12.0038 12 12.0038C11.135 12.0038 10.2965 11.7047 9.62679 11.1573C8.95703 10.6099 8.49712 9.84772 8.32498 9H1.59898L2.07898 12.843C2.10171 13.0249 2.19025 13.1921 2.32788 13.3132C2.46551 13.4342 2.6427 13.5007 2.82598 13.5H21.177C21.3598 13.4999 21.5362 13.4332 21.6732 13.3122C21.8102 13.1912 21.8983 13.0244 21.921 12.843L22.3995 9H22.401ZM5.71348 0.8445C5.92438 0.58086 6.1919 0.368059 6.49623 0.22187C6.80055 0.0756811 7.13387 -0.000148919 7.47148 2.19562e-07H16.5285C16.8661 -0.000148919 17.1994 0.0756811 17.5037 0.22187C17.8081 0.368059 18.0756 0.58086 18.2865 0.8445L23.8365 7.782C23.8988 7.86027 23.9449 7.95023 23.9719 8.04658C23.999 8.14293 24.0065 8.24371 23.994 8.343L23.409 13.029C23.341 13.5733 23.0764 14.0741 22.6651 14.437C22.2538 14.8 21.7241 15.0002 21.1755 15H2.82448C2.27592 15.0002 1.74617 14.8 1.33486 14.437C0.923545 14.0741 0.659005 13.5733 0.590983 13.029L0.00598309 8.343C-0.00631129 8.24361 0.00142372 8.14277 0.0287318 8.04642C0.0560399 7.95006 0.102368 7.86016 0.164983 7.782L5.71498 0.8445H5.71348ZM0.187483 16.755C0.257766 16.675 0.344279 16.6109 0.441267 16.5669C0.538255 16.5229 0.643494 16.5001 0.749983 16.5H8.99998C9.1989 16.5 9.38966 16.579 9.53031 16.7197C9.67097 16.8603 9.74998 17.0511 9.74998 17.25C9.74998 17.8467 9.98704 18.419 10.409 18.841C10.8309 19.2629 11.4032 19.5 12 19.5C12.5967 19.5 13.169 19.2629 13.591 18.841C14.0129 18.419 14.25 17.8467 14.25 17.25C14.25 17.0511 14.329 16.8603 14.4697 16.7197C14.6103 16.579 14.8011 16.5 15 16.5H23.25C23.3563 16.5 23.4614 16.5227 23.5583 16.5664C23.6552 16.6102 23.7417 16.674 23.8121 16.7537C23.8824 16.8334 23.9351 16.9272 23.9664 17.0288C23.9978 17.1304 24.0072 17.2375 23.994 17.343L23.409 22.029C23.341 22.5733 23.0764 23.0741 22.6651 23.437C22.2538 23.8 21.7241 24.0002 21.1755 24H2.82448C2.27592 24.0002 1.74617 23.8 1.33486 23.437C0.923545 23.0741 0.659005 22.5733 0.590983 22.029L0.00598309 17.343C-0.00728549 17.2375 0.00203541 17.1304 0.0333273 17.0287C0.0646192 16.9271 0.117167 16.8333 0.187483 16.7535V16.755ZM1.59898 18L2.07898 21.843C2.10168 22.0246 2.19 22.1917 2.32732 22.3127C2.46463 22.4337 2.64146 22.5003 2.82448 22.5H21.1755C21.3583 22.4999 21.5347 22.4332 21.6717 22.3122C21.8087 22.1912 21.8968 22.0244 21.9195 21.843L22.3995 18H15.675C15.5028 18.8477 15.0429 19.6099 14.3732 20.1573C13.7034 20.7047 12.865 21.0038 12 21.0038C11.135 21.0038 10.2965 20.7047 9.62679 20.1573C8.95703 19.6099 8.49712 18.8477 8.32498 18H1.59898Z" fill="black"/>
</g>
<defs>
<clipPath id="clip0_2_7654">
<rect width="24" height="24" fill="white"/>
</clipPath>
</defs>
</svg>
