<svg width="24" height="24" viewBox="0 0 24 24" fill="none" xmlns="http://www.w3.org/2000/svg">
<path d="M7.47004 6C7.35763 6.00016 7.24669 6.02559 7.14543 6.0744C7.04418 6.12321 6.95518 6.19416 6.88504 6.282L2.31004 12H9.00004C9.19895 12 9.38972 12.079 9.53037 12.2197C9.67102 12.3603 9.75004 12.5511 9.75004 12.75C9.75004 13.3467 9.98709 13.919 10.409 14.341C10.831 14.7629 11.4033 15 12 15C12.5968 15 13.1691 14.7629 13.591 14.341C14.013 13.919 14.25 13.3467 14.25 12.75C14.25 12.5511 14.3291 12.3603 14.4697 12.2197C14.6104 12.079 14.8011 12 15 12H21.69L17.115 6.282C17.0449 6.19416 16.9559 6.12321 16.8546 6.0744C16.7534 6.02559 16.6425 6.00016 16.53 6H7.47004ZM5.71504 5.3445C5.92562 5.08125 6.19266 4.86869 6.49643 4.72252C6.8002 4.57635 7.13293 4.5003 7.47004 4.5H16.53C16.8671 4.5003 17.1999 4.57635 17.5037 4.72252C17.8074 4.86869 18.0745 5.08125 18.285 5.3445L23.835 12.282C23.8977 12.3602 23.944 12.4501 23.9713 12.5464C23.9986 12.6428 24.0063 12.7436 23.994 12.843L23.409 17.529C23.341 18.0733 23.0765 18.5741 22.6652 18.937C22.2539 19.3 21.7241 19.5002 21.1755 19.5H2.82454C2.27597 19.5002 1.74623 19.3 1.33491 18.937C0.923601 18.5741 0.659062 18.0733 0.591039 17.529L0.00603935 12.843C-0.00625503 12.7436 0.00147998 12.6428 0.0287881 12.5464C0.0560962 12.4501 0.102424 12.3602 0.165039 12.282L5.71504 5.3445Z" fill="black"/>
</svg>
