<svg width="24" height="24" viewBox="0 0 24 24" fill="none" xmlns="http://www.w3.org/2000/svg">
<path d="M7.47004 6C7.35763 6.00016 7.24669 6.02559 7.14543 6.0744C7.04418 6.12321 6.95518 6.19416 6.88504 6.282L2.31004 12H9.00004C9.19895 12 9.38972 12.079 9.53037 12.2197C9.67102 12.3603 9.75004 12.5511 9.75004 12.75C9.75004 13.3467 9.98709 13.919 10.409 14.341C10.831 14.7629 11.4033 15 12 15C12.5968 15 13.1691 14.7629 13.591 14.341C14.013 13.919 14.25 13.3467 14.25 12.75C14.25 12.5511 14.3291 12.3603 14.4697 12.2197C14.6104 12.079 14.8011 12 15 12H21.69L17.115 6.282C17.0449 6.19416 16.9559 6.12321 16.8546 6.0744C16.7534 6.02559 16.6425 6.00016 16.53 6H7.47004ZM22.401 13.5H15.675C15.5029 14.3477 15.043 15.1099 14.3732 15.6573C13.7035 16.2047 12.8651 16.5038 12 16.5038C11.135 16.5038 10.2966 16.2047 9.62685 15.6573C8.95709 15.1099 8.49718 14.3477 8.32504 13.5H1.59904L2.07904 17.343C2.10173 17.5246 2.19006 17.6917 2.32737 17.8127C2.46469 17.9337 2.64151 18.0003 2.82454 18H21.1755C21.3583 17.9999 21.5348 17.9332 21.6718 17.8122C21.8088 17.6912 21.8969 17.5244 21.9195 17.343L22.3995 13.5H22.401ZM5.71354 5.3445C5.92444 5.08086 6.19196 4.86806 6.49628 4.72187C6.8006 4.57568 7.13392 4.49985 7.47154 4.5H16.5285C16.8662 4.49985 17.1995 4.57568 17.5038 4.72187C17.8081 4.86806 18.0756 5.08086 18.2865 5.3445L23.8365 12.282C23.8989 12.3603 23.9449 12.4502 23.972 12.5466C23.999 12.6429 24.0065 12.7437 23.994 12.843L23.409 17.529C23.341 18.0733 23.0765 18.5741 22.6652 18.937C22.2539 19.3 21.7241 19.5002 21.1755 19.5H2.82454C2.27597 19.5002 1.74623 19.3 1.33491 18.937C0.923601 18.5741 0.659062 18.0733 0.591039 17.529L0.00603935 12.843C-0.00625503 12.7436 0.00147998 12.6428 0.0287881 12.5464C0.0560962 12.4501 0.102424 12.3602 0.165039 12.282L5.71504 5.3445H5.71354Z" fill="black"/>
</svg>
