<svg width="24" height="24" viewBox="0 0 24 24" fill="none" xmlns="http://www.w3.org/2000/svg">
<path fill-rule="evenodd" clip-rule="evenodd" d="M8.51999 8.688C7.94084 8.11684 7.20576 7.72966 6.40716 7.57513C5.60857 7.4206 4.78211 7.50562 4.03171 7.8195C3.2813 8.13339 2.64044 8.66213 2.18971 9.33923C1.73898 10.0163 1.4985 10.8116 1.4985 11.625C1.4985 12.4384 1.73898 13.2337 2.18971 13.9108C2.64044 14.5879 3.2813 15.1166 4.03171 15.4305C4.78211 15.7444 5.60857 15.8294 6.40716 15.6749C7.20576 15.5203 7.94084 15.1332 8.51999 14.562L11.0175 11.625L8.52149 8.688H8.51999ZM12 10.467L9.62399 7.6695L9.60299 7.647C8.81626 6.86048 7.81398 6.3249 6.72287 6.10798C5.63177 5.89106 4.50085 6.00254 3.4731 6.42832C2.44535 6.85411 1.56694 7.57508 0.948918 8.50007C0.330901 9.42507 0.0010376 10.5125 0.0010376 11.625C0.0010376 12.7375 0.330901 13.8249 0.948918 14.7499C1.56694 15.6749 2.44535 16.3959 3.4731 16.8217C4.50085 17.2475 5.63177 17.3589 6.72287 17.142C7.81398 16.9251 8.81626 16.3895 9.60299 15.603L9.62399 15.5805L12 12.783L14.376 15.5805L14.397 15.603C15.1837 16.3895 16.186 16.9251 17.2771 17.142C18.3682 17.3589 19.4991 17.2475 20.5269 16.8217C21.5546 16.3959 22.433 15.6749 23.0511 14.7499C23.6691 13.8249 23.9989 12.7375 23.9989 11.625C23.9989 10.5125 23.6691 9.42507 23.0511 8.50007C22.433 7.57508 21.5546 6.85411 20.5269 6.42832C19.4991 6.00254 18.3682 5.89106 17.2771 6.10798C16.186 6.3249 15.1837 6.86048 14.397 7.647L14.376 7.6695L12 10.467ZM12.984 11.625L15.4785 14.562C16.0576 15.1332 16.7927 15.5203 17.5913 15.6749C18.3899 15.8294 19.2164 15.7444 19.9668 15.4305C20.7172 15.1166 21.358 14.5879 21.8088 13.9108C22.2595 13.2337 22.5 12.4384 22.5 11.625C22.5 10.8116 22.2595 10.0163 21.8088 9.33923C21.358 8.66213 20.7172 8.13339 19.9668 7.8195C19.2164 7.50562 18.3899 7.4206 17.5913 7.57513C16.7927 7.72966 16.0576 8.11684 15.4785 8.688L12.984 11.625Z" fill="black"/>
</svg>
