<svg width="24" height="24" viewBox="0 0 24 24" fill="none" xmlns="http://www.w3.org/2000/svg">
<g clip-path="url(#clip0_2_7630)">
<path d="M15 3.00022C15.0002 3.66543 14.7792 4.31184 14.3719 4.83779C13.9646 5.36375 13.3941 5.73941 12.75 5.90572V13.5362C14.0445 13.6607 15 14.1017 15 14.6252C15 15.2462 13.6575 15.7502 12 15.7502C10.3425 15.7502 9 15.2462 9 14.6252C9 14.1002 9.9555 13.6607 11.25 13.5362V5.90572C10.7067 5.76545 10.2137 5.47565 9.82691 5.06923C9.4401 4.66281 9.17501 4.15606 9.06175 3.60655C8.9485 3.05703 8.99162 2.48676 9.18621 1.96052C9.3808 1.43427 9.71906 0.973143 10.1626 0.629503C10.6061 0.285864 11.1371 0.0734875 11.6953 0.0164953C12.2534 -0.0404968 12.8164 0.0601798 13.3202 0.30709C13.824 0.554001 14.2485 0.937249 14.5454 1.41331C14.8424 1.88936 14.9999 2.43915 15 3.00022Z" fill="black"/>
<path d="M2.2695e-10 14.4973V17.0728C0.000148723 17.3513 0.0778246 17.6242 0.224328 17.8611C0.370832 18.0979 0.580379 18.2893 0.8295 18.4138L10.659 23.3293C11.0754 23.5373 11.5345 23.6457 12 23.6457C12.4655 23.6457 12.9246 23.5373 13.341 23.3293L23.1705 18.4138C23.4196 18.2893 23.6292 18.0979 23.7757 17.8611C23.9222 17.6242 23.9999 17.3513 24 17.0728V14.4973C24 14.3473 23.91 14.2123 23.772 14.1523L14.25 10.0723V11.5618L22.0905 14.8288C22.1244 14.843 22.1533 14.8669 22.1737 14.8975C22.1941 14.9281 22.2051 14.964 22.2053 15.0008C22.2054 15.0375 22.1948 15.0735 22.1746 15.1043C22.1545 15.1351 22.1258 15.1592 22.092 15.1738L13.182 18.9928C12.8085 19.1529 12.4064 19.2354 12 19.2354C11.5936 19.2354 11.1915 19.1529 10.818 18.9928L1.908 15.1738C1.87424 15.1592 1.8455 15.1351 1.82536 15.1043C1.80522 15.0735 1.79457 15.0375 1.79473 15.0008C1.79489 14.964 1.80586 14.9281 1.82626 14.8975C1.84667 14.8669 1.87561 14.843 1.9095 14.8288L9.75 11.5618L9.7305 10.0798L0.228 14.1523C0.16036 14.1811 0.102684 14.2292 0.0621466 14.2905C0.0216089 14.3518 -2.55719e-06 14.4237 2.2695e-10 14.4973H2.2695e-10Z" fill="black"/>
</g>
<defs>
<clipPath id="clip0_2_7630">
<rect width="24" height="24" fill="white"/>
</clipPath>
</defs>
</svg>
