<svg width="24" height="24" viewBox="0 0 24 24" fill="none" xmlns="http://www.w3.org/2000/svg">
<g clip-path="url(#clip0_2_7621)">
<path d="M4.55089e-07 11.9999C-0.000513962 10.6787 0.435095 9.3942 1.23922 8.34585C2.04335 7.2975 3.17103 6.54388 4.44726 6.20196C5.72349 5.86004 7.07689 5.94893 8.29743 6.45483C9.51797 6.96074 10.5374 7.85538 11.1975 8.9999H21C21.0986 8.99972 21.1962 9.01897 21.2873 9.05655C21.3784 9.09413 21.4612 9.14929 21.531 9.2189L23.781 11.4689C23.8508 11.5386 23.9063 11.6213 23.9441 11.7124C23.9819 11.8036 24.0013 11.9012 24.0013 11.9999C24.0013 12.0985 23.9819 12.1962 23.9441 12.2873C23.9063 12.3785 23.8508 12.4612 23.781 12.5309L21.531 14.7809C21.4613 14.8507 21.3786 14.9062 21.2874 14.944C21.1963 14.9818 21.0987 15.0012 21 15.0012C20.9013 15.0012 20.8037 14.9818 20.7126 14.944C20.6214 14.9062 20.5387 14.8507 20.469 14.7809L19.5 13.8104L18.531 14.7809C18.4613 14.8507 18.3786 14.9062 18.2874 14.944C18.1963 14.9818 18.0987 15.0012 18 15.0012C17.9013 15.0012 17.8037 14.9818 17.7126 14.944C17.6214 14.9062 17.5387 14.8507 17.469 14.7809L16.5 13.8104L15.531 14.7809C15.4613 14.8507 15.3786 14.9062 15.2874 14.944C15.1963 14.9818 15.0987 15.0012 15 15.0012C14.9013 15.0012 14.8037 14.9818 14.7126 14.944C14.6214 14.9062 14.5387 14.8507 14.469 14.7809L13.5 13.8104L12.531 14.7809C12.4612 14.8505 12.3784 14.9057 12.2873 14.9432C12.1962 14.9808 12.0986 15.0001 12 14.9999H11.1975C10.5374 16.1444 9.51797 17.0391 8.29743 17.545C7.07689 18.0509 5.72349 18.1398 4.44726 17.7978C3.17103 17.4559 2.04335 16.7023 1.23922 15.6539C0.435095 14.6056 -0.000513962 13.3211 4.55089e-07 11.9999ZM6 7.4999C5.19471 7.5002 4.40426 7.7166 3.7111 8.12651C3.01795 8.53642 2.44749 9.12483 2.05924 9.83034C1.67099 10.5359 1.47918 11.3326 1.50381 12.1375C1.52845 12.9425 1.76862 13.726 2.19929 14.4065C2.62995 15.0869 3.23532 15.6393 3.95224 16.0061C4.66917 16.3729 5.47137 16.5405 6.27518 16.4916C7.07898 16.4426 7.85492 16.1789 8.52205 15.7279C9.18919 15.2769 9.72307 14.6551 10.068 13.9274C10.1289 13.7995 10.2247 13.6915 10.3445 13.6159C10.4642 13.5402 10.6029 13.5 10.7445 13.4999H11.6895L12.969 12.2189C13.0387 12.1491 13.1214 12.0936 13.2126 12.0558C13.3037 12.018 13.4013 11.9986 13.5 11.9986C13.5987 11.9986 13.6963 12.018 13.7874 12.0558C13.8786 12.0936 13.9613 12.1491 14.031 12.2189L15 13.1894L15.969 12.2189C16.0387 12.1491 16.1214 12.0936 16.2126 12.0558C16.3037 12.018 16.4013 11.9986 16.5 11.9986C16.5987 11.9986 16.6963 12.018 16.7874 12.0558C16.8786 12.0936 16.9613 12.1491 17.031 12.2189L18 13.1894L18.969 12.2189C19.0387 12.1491 19.1214 12.0936 19.2126 12.0558C19.3037 12.018 19.4013 11.9986 19.5 11.9986C19.5987 11.9986 19.6963 12.018 19.7874 12.0558C19.8786 12.0936 19.9613 12.1491 20.031 12.2189L21 13.1894L22.1895 11.9999L20.6895 10.4999H10.7445C10.6029 10.4998 10.4642 10.4596 10.3445 10.3839C10.2247 10.3083 10.1289 10.2003 10.068 10.0724C9.70304 9.30246 9.12698 8.65196 8.40684 8.19656C7.68669 7.74116 6.85206 7.49957 6 7.4999Z" fill="black"/>
<path d="M6 12C6 12.3978 5.84196 12.7794 5.56066 13.0607C5.27936 13.342 4.89782 13.5 4.5 13.5C4.10218 13.5 3.72064 13.342 3.43934 13.0607C3.15804 12.7794 3 12.3978 3 12C3 11.6022 3.15804 11.2206 3.43934 10.9393C3.72064 10.658 4.10218 10.5 4.5 10.5C4.89782 10.5 5.27936 10.658 5.56066 10.9393C5.84196 11.2206 6 11.6022 6 12Z" fill="black"/>
</g>
<defs>
<clipPath id="clip0_2_7621">
<rect width="24" height="24" fill="white"/>
</clipPath>
</defs>
</svg>
