<svg width="24" height="24" viewBox="0 0 24 24" fill="none" xmlns="http://www.w3.org/2000/svg">
<g clip-path="url(#clip0_2_7619)">
<path d="M21 7.5C21.3978 7.5 21.7794 7.65804 22.0607 7.93934C22.342 8.22064 22.5 8.60218 22.5 9V16.5C22.5 16.8978 22.342 17.2794 22.0607 17.5607C21.7794 17.842 21.3978 18 21 18H3C2.60218 18 2.22064 17.842 1.93934 17.5607C1.65804 17.2794 1.5 16.8978 1.5 16.5V9C1.5 8.60218 1.65804 8.22064 1.93934 7.93934C2.22064 7.65804 2.60218 7.5 3 7.5H21ZM3 6C2.20435 6 1.44129 6.31607 0.87868 6.87868C0.316071 7.44129 0 8.20435 0 9L0 16.5C0 17.2956 0.316071 18.0587 0.87868 18.6213C1.44129 19.1839 2.20435 19.5 3 19.5H21C21.7956 19.5 22.5587 19.1839 23.1213 18.6213C23.6839 18.0587 24 17.2956 24 16.5V9C24 8.20435 23.6839 7.44129 23.1213 6.87868C22.5587 6.31607 21.7956 6 21 6H3Z" fill="black"/>
<path d="M19.5 15.375C19.5 15.2755 19.5395 15.1802 19.6098 15.1098C19.6802 15.0395 19.7755 15 19.875 15H20.625C20.7245 15 20.8198 15.0395 20.8902 15.1098C20.9605 15.1802 21 15.2755 21 15.375V16.125C21 16.2245 20.9605 16.3198 20.8902 16.3902C20.8198 16.4605 20.7245 16.5 20.625 16.5H19.875C19.7755 16.5 19.6802 16.4605 19.6098 16.3902C19.5395 16.3198 19.5 16.2245 19.5 16.125V15.375ZM19.5 12.375C19.5 12.2755 19.5395 12.1802 19.6098 12.1098C19.6802 12.0395 19.7755 12 19.875 12H20.625C20.7245 12 20.8198 12.0395 20.8902 12.1098C20.9605 12.1802 21 12.2755 21 12.375V13.125C21 13.2245 20.9605 13.3198 20.8902 13.3902C20.8198 13.4605 20.7245 13.5 20.625 13.5H19.875C19.7755 13.5 19.6802 13.4605 19.6098 13.3902C19.5395 13.3198 19.5 13.2245 19.5 13.125V12.375ZM12 12.375C12 12.2755 12.0395 12.1802 12.1098 12.1098C12.1802 12.0395 12.2755 12 12.375 12H13.125C13.2245 12 13.3198 12.0395 13.3902 12.1098C13.4605 12.1802 13.5 12.2755 13.5 12.375V13.125C13.5 13.2245 13.4605 13.3198 13.3902 13.3902C13.3198 13.4605 13.2245 13.5 13.125 13.5H12.375C12.2755 13.5 12.1802 13.4605 12.1098 13.3902C12.0395 13.3198 12 13.2245 12 13.125V12.375ZM15 12.375C15 12.2755 15.0395 12.1802 15.1098 12.1098C15.1802 12.0395 15.2755 12 15.375 12H17.625C17.7245 12 17.8198 12.0395 17.8902 12.1098C17.9605 12.1802 18 12.2755 18 12.375V13.125C18 13.2245 17.9605 13.3198 17.8902 13.3902C17.8198 13.4605 17.7245 13.5 17.625 13.5H15.375C15.2755 13.5 15.1802 13.4605 15.1098 13.3902C15.0395 13.3198 15 13.2245 15 13.125V12.375ZM16.5 15.375C16.5 15.2755 16.5395 15.1802 16.6098 15.1098C16.6802 15.0395 16.7755 15 16.875 15H17.625C17.7245 15 17.8198 15.0395 17.8902 15.1098C17.9605 15.1802 18 15.2755 18 15.375V16.125C18 16.2245 17.9605 16.3198 17.8902 16.3902C17.8198 16.4605 17.7245 16.5 17.625 16.5H16.875C16.7755 16.5 16.6802 16.4605 16.6098 16.3902C16.5395 16.3198 16.5 16.2245 16.5 16.125V15.375ZM9 12.375C9 12.2755 9.03951 12.1802 9.10983 12.1098C9.18016 12.0395 9.27554 12 9.375 12H10.125C10.2245 12 10.3198 12.0395 10.3902 12.1098C10.4605 12.1802 10.5 12.2755 10.5 12.375V13.125C10.5 13.2245 10.4605 13.3198 10.3902 13.3902C10.3198 13.4605 10.2245 13.5 10.125 13.5H9.375C9.27554 13.5 9.18016 13.4605 9.10983 13.3902C9.03951 13.3198 9 13.2245 9 13.125V12.375ZM6 12.375C6 12.2755 6.03951 12.1802 6.10983 12.1098C6.18016 12.0395 6.27554 12 6.375 12H7.125C7.22446 12 7.31984 12.0395 7.39017 12.1098C7.46049 12.1802 7.5 12.2755 7.5 12.375V13.125C7.5 13.2245 7.46049 13.3198 7.39017 13.3902C7.31984 13.4605 7.22446 13.5 7.125 13.5H6.375C6.27554 13.5 6.18016 13.4605 6.10983 13.3902C6.03951 13.3198 6 13.2245 6 13.125V12.375ZM3 12.375C3 12.2755 3.03951 12.1802 3.10984 12.1098C3.18016 12.0395 3.27554 12 3.375 12H4.125C4.22446 12 4.31984 12.0395 4.39016 12.1098C4.46049 12.1802 4.5 12.2755 4.5 12.375V13.125C4.5 13.2245 4.46049 13.3198 4.39016 13.3902C4.31984 13.4605 4.22446 13.5 4.125 13.5H3.375C3.27554 13.5 3.18016 13.4605 3.10984 13.3902C3.03951 13.3198 3 13.2245 3 13.125V12.375ZM19.5 9.375C19.5 9.27554 19.5395 9.18016 19.6098 9.10983C19.6802 9.03951 19.7755 9 19.875 9H20.625C20.7245 9 20.8198 9.03951 20.8902 9.10983C20.9605 9.18016 21 9.27554 21 9.375V10.125C21 10.2245 20.9605 10.3198 20.8902 10.3902C20.8198 10.4605 20.7245 10.5 20.625 10.5H19.875C19.7755 10.5 19.6802 10.4605 19.6098 10.3902C19.5395 10.3198 19.5 10.2245 19.5 10.125V9.375ZM16.5 9.375C16.5 9.27554 16.5395 9.18016 16.6098 9.10983C16.6802 9.03951 16.7755 9 16.875 9H17.625C17.7245 9 17.8198 9.03951 17.8902 9.10983C17.9605 9.18016 18 9.27554 18 9.375V10.125C18 10.2245 17.9605 10.3198 17.8902 10.3902C17.8198 10.4605 17.7245 10.5 17.625 10.5H16.875C16.7755 10.5 16.6802 10.4605 16.6098 10.3902C16.5395 10.3198 16.5 10.2245 16.5 10.125V9.375ZM13.5 9.375C13.5 9.27554 13.5395 9.18016 13.6098 9.10983C13.6802 9.03951 13.7755 9 13.875 9H14.625C14.7245 9 14.8198 9.03951 14.8902 9.10983C14.9605 9.18016 15 9.27554 15 9.375V10.125C15 10.2245 14.9605 10.3198 14.8902 10.3902C14.8198 10.4605 14.7245 10.5 14.625 10.5H13.875C13.7755 10.5 13.6802 10.4605 13.6098 10.3902C13.5395 10.3198 13.5 10.2245 13.5 10.125V9.375ZM10.5 9.375C10.5 9.27554 10.5395 9.18016 10.6098 9.10983C10.6802 9.03951 10.7755 9 10.875 9H11.625C11.7245 9 11.8198 9.03951 11.8902 9.10983C11.9605 9.18016 12 9.27554 12 9.375V10.125C12 10.2245 11.9605 10.3198 11.8902 10.3902C11.8198 10.4605 11.7245 10.5 11.625 10.5H10.875C10.7755 10.5 10.6802 10.4605 10.6098 10.3902C10.5395 10.3198 10.5 10.2245 10.5 10.125V9.375ZM7.5 9.375C7.5 9.27554 7.53951 9.18016 7.60983 9.10983C7.68016 9.03951 7.77554 9 7.875 9H8.625C8.72446 9 8.81984 9.03951 8.89017 9.10983C8.96049 9.18016 9 9.27554 9 9.375V10.125C9 10.2245 8.96049 10.3198 8.89017 10.3902C8.81984 10.4605 8.72446 10.5 8.625 10.5H7.875C7.77554 10.5 7.68016 10.4605 7.60983 10.3902C7.53951 10.3198 7.5 10.2245 7.5 10.125V9.375ZM3 9.375C3 9.27554 3.03951 9.18016 3.10984 9.10983C3.18016 9.03951 3.27554 9 3.375 9H5.625C5.72446 9 5.81984 9.03951 5.89016 9.10983C5.96049 9.18016 6 9.27554 6 9.375V10.125C6 10.2245 5.96049 10.3198 5.89016 10.3902C5.81984 10.4605 5.72446 10.5 5.625 10.5H3.375C3.27554 10.5 3.18016 10.4605 3.10984 10.3902C3.03951 10.3198 3 10.2245 3 10.125V9.375ZM3 15.375C3 15.2755 3.03951 15.1802 3.10984 15.1098C3.18016 15.0395 3.27554 15 3.375 15H4.125C4.22446 15 4.31984 15.0395 4.39016 15.1098C4.46049 15.1802 4.5 15.2755 4.5 15.375V16.125C4.5 16.2245 4.46049 16.3198 4.39016 16.3902C4.31984 16.4605 4.22446 16.5 4.125 16.5H3.375C3.27554 16.5 3.18016 16.4605 3.10984 16.3902C3.03951 16.3198 3 16.2245 3 16.125V15.375ZM6 15.375C6 15.2755 6.03951 15.1802 6.10983 15.1098C6.18016 15.0395 6.27554 15 6.375 15H14.625C14.7245 15 14.8198 15.0395 14.8902 15.1098C14.9605 15.1802 15 15.2755 15 15.375V16.125C15 16.2245 14.9605 16.3198 14.8902 16.3902C14.8198 16.4605 14.7245 16.5 14.625 16.5H6.375C6.27554 16.5 6.18016 16.4605 6.10983 16.3902C6.03951 16.3198 6 16.2245 6 16.125V15.375Z" fill="black"/>
</g>
<defs>
<clipPath id="clip0_2_7619">
<rect width="24" height="24" fill="white"/>
</clipPath>
</defs>
</svg>
