<svg width="24" height="24" viewBox="0 0 24 24" fill="none" xmlns="http://www.w3.org/2000/svg">
<path d="M0 9C0 8.20435 0.316071 7.44129 0.87868 6.87868C1.44129 6.31607 2.20435 6 3 6H21C21.7956 6 22.5587 6.31607 23.1213 6.87868C23.6839 7.44129 24 8.20435 24 9V16.5C24 17.2956 23.6839 18.0587 23.1213 18.6213C22.5587 19.1839 21.7956 19.5 21 19.5H3C2.20435 19.5 1.44129 19.1839 0.87868 18.6213C0.316071 18.0587 0 17.2956 0 16.5V9ZM19.5 9.375V10.125C19.5 10.332 19.668 10.5 19.875 10.5H20.625C20.7245 10.5 20.8198 10.4605 20.8902 10.3902C20.9605 10.3198 21 10.2245 21 10.125V9.375C21 9.27554 20.9605 9.18016 20.8902 9.10983C20.8198 9.03951 20.7245 9 20.625 9H19.875C19.7755 9 19.6802 9.03951 19.6098 9.10983C19.5395 9.18016 19.5 9.27554 19.5 9.375ZM3.375 12C3.27554 12 3.18016 12.0395 3.10984 12.1098C3.03951 12.1802 3 12.2755 3 12.375V13.125C3 13.332 3.168 13.5 3.375 13.5H4.125C4.22446 13.5 4.31984 13.4605 4.39016 13.3902C4.46049 13.3198 4.5 13.2245 4.5 13.125V12.375C4.5 12.2755 4.46049 12.1802 4.39016 12.1098C4.31984 12.0395 4.22446 12 4.125 12H3.375ZM6 12.375V13.125C6 13.332 6.168 13.5 6.375 13.5H7.125C7.22446 13.5 7.31984 13.4605 7.39017 13.3902C7.46049 13.3198 7.5 13.2245 7.5 13.125V12.375C7.5 12.2755 7.46049 12.1802 7.39017 12.1098C7.31984 12.0395 7.22446 12 7.125 12H6.375C6.27554 12 6.18016 12.0395 6.10983 12.1098C6.03951 12.1802 6 12.2755 6 12.375ZM9.375 12C9.27554 12 9.18016 12.0395 9.10983 12.1098C9.03951 12.1802 9 12.2755 9 12.375V13.125C9 13.332 9.168 13.5 9.375 13.5H10.125C10.2245 13.5 10.3198 13.4605 10.3902 13.3902C10.4605 13.3198 10.5 13.2245 10.5 13.125V12.375C10.5 12.2755 10.4605 12.1802 10.3902 12.1098C10.3198 12.0395 10.2245 12 10.125 12H9.375ZM12 12.375V13.125C12 13.332 12.168 13.5 12.375 13.5H13.125C13.2245 13.5 13.3198 13.4605 13.3902 13.3902C13.4605 13.3198 13.5 13.2245 13.5 13.125V12.375C13.5 12.2755 13.4605 12.1802 13.3902 12.1098C13.3198 12.0395 13.2245 12 13.125 12H12.375C12.2755 12 12.1802 12.0395 12.1098 12.1098C12.0395 12.1802 12 12.2755 12 12.375ZM19.875 12C19.7755 12 19.6802 12.0395 19.6098 12.1098C19.5395 12.1802 19.5 12.2755 19.5 12.375V13.125C19.5 13.332 19.668 13.5 19.875 13.5H20.625C20.7245 13.5 20.8198 13.4605 20.8902 13.3902C20.9605 13.3198 21 13.2245 21 13.125V12.375C21 12.2755 20.9605 12.1802 20.8902 12.1098C20.8198 12.0395 20.7245 12 20.625 12H19.875ZM19.875 15C19.7755 15 19.6802 15.0395 19.6098 15.1098C19.5395 15.1802 19.5 15.2755 19.5 15.375V16.125C19.5 16.332 19.668 16.5 19.875 16.5H20.625C20.7245 16.5 20.8198 16.4605 20.8902 16.3902C20.9605 16.3198 21 16.2245 21 16.125V15.375C21 15.2755 20.9605 15.1802 20.8902 15.1098C20.8198 15.0395 20.7245 15 20.625 15H19.875ZM15.375 12C15.2755 12 15.1802 12.0395 15.1098 12.1098C15.0395 12.1802 15 12.2755 15 12.375V13.125C15 13.332 15.168 13.5 15.375 13.5H17.625C17.7245 13.5 17.8198 13.4605 17.8902 13.3902C17.9605 13.3198 18 13.2245 18 13.125V12.375C18 12.2755 17.9605 12.1802 17.8902 12.1098C17.8198 12.0395 17.7245 12 17.625 12H15.375ZM16.5 15.375V16.125C16.5 16.332 16.668 16.5 16.875 16.5H17.625C17.7245 16.5 17.8198 16.4605 17.8902 16.3902C17.9605 16.3198 18 16.2245 18 16.125V15.375C18 15.2755 17.9605 15.1802 17.8902 15.1098C17.8198 15.0395 17.7245 15 17.625 15H16.875C16.7755 15 16.6802 15.0395 16.6098 15.1098C16.5395 15.1802 16.5 15.2755 16.5 15.375ZM16.875 9C16.7755 9 16.6802 9.03951 16.6098 9.10983C16.5395 9.18016 16.5 9.27554 16.5 9.375V10.125C16.5 10.332 16.668 10.5 16.875 10.5H17.625C17.7245 10.5 17.8198 10.4605 17.8902 10.3902C17.9605 10.3198 18 10.2245 18 10.125V9.375C18 9.27554 17.9605 9.18016 17.8902 9.10983C17.8198 9.03951 17.7245 9 17.625 9H16.875ZM13.5 9.375V10.125C13.5 10.332 13.668 10.5 13.875 10.5H14.625C14.7245 10.5 14.8198 10.4605 14.8902 10.3902C14.9605 10.3198 15 10.2245 15 10.125V9.375C15 9.27554 14.9605 9.18016 14.8902 9.10983C14.8198 9.03951 14.7245 9 14.625 9H13.875C13.7755 9 13.6802 9.03951 13.6098 9.10983C13.5395 9.18016 13.5 9.27554 13.5 9.375ZM10.875 9C10.7755 9 10.6802 9.03951 10.6098 9.10983C10.5395 9.18016 10.5 9.27554 10.5 9.375V10.125C10.5 10.332 10.668 10.5 10.875 10.5H11.625C11.7245 10.5 11.8198 10.4605 11.8902 10.3902C11.9605 10.3198 12 10.2245 12 10.125V9.375C12 9.27554 11.9605 9.18016 11.8902 9.10983C11.8198 9.03951 11.7245 9 11.625 9H10.875ZM7.5 9.375V10.125C7.5 10.332 7.668 10.5 7.875 10.5H8.625C8.72446 10.5 8.81984 10.4605 8.89017 10.3902C8.96049 10.3198 9 10.2245 9 10.125V9.375C9 9.27554 8.96049 9.18016 8.89017 9.10983C8.81984 9.03951 8.72446 9 8.625 9H7.875C7.77554 9 7.68016 9.03951 7.60983 9.10983C7.53951 9.18016 7.5 9.27554 7.5 9.375ZM3.375 9C3.27554 9 3.18016 9.03951 3.10984 9.10983C3.03951 9.18016 3 9.27554 3 9.375V10.125C3 10.332 3.168 10.5 3.375 10.5H5.625C5.72446 10.5 5.81984 10.4605 5.89016 10.3902C5.96049 10.3198 6 10.2245 6 10.125V9.375C6 9.27554 5.96049 9.18016 5.89016 9.10983C5.81984 9.03951 5.72446 9 5.625 9H3.375ZM3 15.375V16.125C3 16.332 3.168 16.5 3.375 16.5H4.125C4.22446 16.5 4.31984 16.4605 4.39016 16.3902C4.46049 16.3198 4.5 16.2245 4.5 16.125V15.375C4.5 15.2755 4.46049 15.1802 4.39016 15.1098C4.31984 15.0395 4.22446 15 4.125 15H3.375C3.27554 15 3.18016 15.0395 3.10984 15.1098C3.03951 15.1802 3 15.2755 3 15.375ZM6.375 15C6.27554 15 6.18016 15.0395 6.10983 15.1098C6.03951 15.1802 6 15.2755 6 15.375V16.125C6 16.332 6.168 16.5 6.375 16.5H14.625C14.7245 16.5 14.8198 16.4605 14.8902 16.3902C14.9605 16.3198 15 16.2245 15 16.125V15.375C15 15.2755 14.9605 15.1802 14.8902 15.1098C14.8198 15.0395 14.7245 15 14.625 15H6.375Z" fill="black"/>
</svg>
