<svg width="24" height="24" viewBox="0 0 24 24" fill="none" xmlns="http://www.w3.org/2000/svg">
<g clip-path="url(#clip0_2_7611)">
<path d="M24 4.5C24 3.70435 23.6839 2.94129 23.1213 2.37868C22.5587 1.81607 21.7956 1.5 21 1.5H3C2.20435 1.5 1.44129 1.81607 0.87868 2.37868C0.316071 2.94129 0 3.70435 0 4.5L0 19.5C0 20.2956 0.316071 21.0587 0.87868 21.6213C1.44129 22.1839 2.20435 22.5 3 22.5H21C21.7956 22.5 22.5587 22.1839 23.1213 21.6213C23.6839 21.0587 24 20.2956 24 19.5V4.5ZM16.5 3V21H3C2.60218 21 2.22064 20.842 1.93934 20.5607C1.65804 20.2794 1.5 19.8978 1.5 19.5V4.5C1.5 4.10218 1.65804 3.72064 1.93934 3.43934C2.22064 3.15804 2.60218 3 3 3H16.5ZM18 3H21C21.3978 3 21.7794 3.15804 22.0607 3.43934C22.342 3.72064 22.5 4.10218 22.5 4.5V19.5C22.5 19.8978 22.342 20.2794 22.0607 20.5607C21.7794 20.842 21.3978 21 21 21H18V3Z" fill="black"/>
</g>
<defs>
<clipPath id="clip0_2_7611">
<rect width="24" height="24" fill="white"/>
</clipPath>
</defs>
</svg>
