<svg width="24" height="24" viewBox="0 0 24 24" fill="none" xmlns="http://www.w3.org/2000/svg">
<g clip-path="url(#clip0_2_7607)">
<path d="M19.5 9.75C19.5 9.55109 19.421 9.36032 19.2803 9.21967C19.1397 9.07902 18.9489 9 18.75 9H11.25C11.0511 9 10.8603 9.07902 10.7197 9.21967C10.579 9.36032 10.5 9.55109 10.5 9.75C10.5 9.94891 10.579 10.1397 10.7197 10.2803C10.8603 10.421 11.0511 10.5 11.25 10.5H18.75C18.9489 10.5 19.1397 10.421 19.2803 10.2803C19.421 10.1397 19.5 9.94891 19.5 9.75ZM19.5 14.25C19.5 14.0511 19.421 13.8603 19.2803 13.7197C19.1397 13.579 18.9489 13.5 18.75 13.5H11.25C11.0511 13.5 10.8603 13.579 10.7197 13.7197C10.579 13.8603 10.5 14.0511 10.5 14.25C10.5 14.4489 10.579 14.6397 10.7197 14.7803C10.8603 14.921 11.0511 15 11.25 15H18.75C18.9489 15 19.1397 14.921 19.2803 14.7803C19.421 14.6397 19.5 14.4489 19.5 14.25ZM18.75 18C18.9489 18 19.1397 18.079 19.2803 18.2197C19.421 18.3603 19.5 18.5511 19.5 18.75C19.5 18.9489 19.421 19.1397 19.2803 19.2803C19.1397 19.421 18.9489 19.5 18.75 19.5H11.25C11.0511 19.5 10.8603 19.421 10.7197 19.2803C10.579 19.1397 10.5 18.9489 10.5 18.75C10.5 18.5511 10.579 18.3603 10.7197 18.2197C10.8603 18.079 11.0511 18 11.25 18H18.75Z" fill="black"/>
<path d="M21 0C21.7956 0 22.5587 0.316071 23.1213 0.87868C23.6839 1.44129 24 2.20435 24 3V21C24 21.7956 23.6839 22.5587 23.1213 23.1213C22.5587 23.6839 21.7956 24 21 24H3C2.20435 24 1.44129 23.6839 0.87868 23.1213C0.316071 22.5587 0 21.7956 0 21V3C0 2.20435 0.316071 1.44129 0.87868 0.87868C1.44129 0.316071 2.20435 0 3 0L21 0ZM3 1.5C2.60218 1.5 2.22064 1.65804 1.93934 1.93934C1.65804 2.22064 1.5 2.60218 1.5 3V4.5H22.5V3C22.5 2.60218 22.342 2.22064 22.0607 1.93934C21.7794 1.65804 21.3978 1.5 21 1.5H3ZM1.5 6V21C1.5 21.3978 1.65804 21.7794 1.93934 22.0607C2.22064 22.342 2.60218 22.5 3 22.5H6V6H1.5ZM7.5 6V22.5H21C21.3978 22.5 21.7794 22.342 22.0607 22.0607C22.342 21.7794 22.5 21.3978 22.5 21V6H7.5Z" fill="black"/>
</g>
<defs>
<clipPath id="clip0_2_7607">
<rect width="24" height="24" fill="white"/>
</clipPath>
</defs>
</svg>
