<svg width="24" height="24" viewBox="0 0 24 24" fill="none" xmlns="http://www.w3.org/2000/svg">
<g clip-path="url(#clip0_2_7930)">
<path d="M7.5 1.5V13.5H1.5V1.5H7.5ZM1.5 0C1.10218 0 0.720644 0.158035 0.43934 0.43934C0.158035 0.720644 0 1.10218 0 1.5L0 13.5C0 13.8978 0.158035 14.2794 0.43934 14.5607C0.720644 14.842 1.10218 15 1.5 15H7.5C7.89782 15 8.27936 14.842 8.56066 14.5607C8.84196 14.2794 9 13.8978 9 13.5V1.5C9 1.10218 8.84196 0.720644 8.56066 0.43934C8.27936 0.158035 7.89782 0 7.5 0L1.5 0ZM21 3V10.5H13.5V3H21ZM13.5 1.5C13.1022 1.5 12.7206 1.65804 12.4393 1.93934C12.158 2.22064 12 2.60218 12 3V10.5C12 10.8978 12.158 11.2794 12.4393 11.5607C12.7206 11.842 13.1022 12 13.5 12H21C21.3978 12 21.7794 11.842 22.0607 11.5607C22.342 11.2794 22.5 10.8978 22.5 10.5V3C22.5 2.60218 22.342 2.22064 22.0607 1.93934C21.7794 1.65804 21.3978 1.5 21 1.5H13.5ZM7.5 19.5V22.5H4.5V19.5H7.5ZM4.5 18C4.10218 18 3.72064 18.158 3.43934 18.4393C3.15804 18.7206 3 19.1022 3 19.5V22.5C3 22.8978 3.15804 23.2794 3.43934 23.5607C3.72064 23.842 4.10218 24 4.5 24H7.5C7.89782 24 8.27936 23.842 8.56066 23.5607C8.84196 23.2794 9 22.8978 9 22.5V19.5C9 19.1022 8.84196 18.7206 8.56066 18.4393C8.27936 18.158 7.89782 18 7.5 18H4.5ZM22.5 16.5V19.5H13.5V16.5H22.5ZM13.5 15C13.1022 15 12.7206 15.158 12.4393 15.4393C12.158 15.7206 12 16.1022 12 16.5V19.5C12 19.8978 12.158 20.2794 12.4393 20.5607C12.7206 20.842 13.1022 21 13.5 21H22.5C22.8978 21 23.2794 20.842 23.5607 20.5607C23.842 20.2794 24 19.8978 24 19.5V16.5C24 16.1022 23.842 15.7206 23.5607 15.4393C23.2794 15.158 22.8978 15 22.5 15H13.5Z" fill="black"/>
</g>
<defs>
<clipPath id="clip0_2_7930">
<rect width="24" height="24" fill="white"/>
</clipPath>
</defs>
</svg>
