<svg width="24" height="24" viewBox="0 0 24 24" fill="none" xmlns="http://www.w3.org/2000/svg">
<g clip-path="url(#clip0_2_8279)">
<path d="M3.00001 8.9998C2.99996 7.51361 3.36795 6.05055 4.07112 4.74124C4.7743 3.43194 5.79077 2.31714 7.02976 1.4964C8.26876 0.675659 9.69173 0.174516 11.1716 0.0377203C12.6515 -0.0990752 14.1422 0.132735 15.5106 0.712451C16.8791 1.29217 18.0827 2.20175 19.014 3.35997C19.9452 4.51819 20.5752 5.88901 20.8476 7.35002C21.1199 8.81102 21.0263 10.3167 20.5749 11.7327C20.1236 13.1487 19.3286 14.4309 18.261 15.4648C17.9565 15.7588 17.7225 16.0648 17.5815 16.3933L16.4385 19.0468C16.3805 19.1813 16.2844 19.2958 16.1621 19.3763C16.0397 19.4568 15.8965 19.4998 15.75 19.4998H8.25001C8.10329 19.5001 7.95973 19.4573 7.83708 19.3768C7.71444 19.2962 7.6181 19.1815 7.56001 19.0468L6.41851 16.3918C6.25506 16.0412 6.02417 15.7262 5.73901 15.4648C4.87144 14.6265 4.18175 13.622 3.71115 12.5112C3.24054 11.4004 2.99868 10.2062 3.00001 8.9998ZM7.50001 21.7498C7.50001 21.5509 7.57902 21.3601 7.71968 21.2195C7.86033 21.0788 8.05109 20.9998 8.25001 20.9998H15.75C15.9489 20.9998 16.1397 21.0788 16.2803 21.2195C16.421 21.3601 16.5 21.5509 16.5 21.7498C16.5 21.9487 16.421 22.1395 16.2803 22.2801C16.1397 22.4208 15.9489 22.4998 15.75 22.4998L15.414 23.1703C15.2895 23.4194 15.0981 23.629 14.8613 23.7755C14.6245 23.922 14.3515 23.9996 14.073 23.9998H9.92701C9.64851 23.9996 9.37556 23.922 9.13872 23.7755C8.90187 23.629 8.71049 23.4194 8.58601 23.1703L8.25001 22.4998C8.05109 22.4998 7.86033 22.4208 7.71968 22.2801C7.57902 22.1395 7.50001 21.9487 7.50001 21.7498Z" fill="black"/>
</g>
<defs>
<clipPath id="clip0_2_8279">
<rect width="24" height="24" fill="white"/>
</clipPath>
</defs>
</svg>
