<svg width="24" height="24" viewBox="0 0 24 24" fill="none" xmlns="http://www.w3.org/2000/svg">
<path d="M2.99997 8.99995C2.99997 8.14195 3.11997 7.31245 3.34497 6.52495L16.182 19.3635C16.0555 19.4524 15.9046 19.5001 15.75 19.5H8.24997C8.10326 19.5002 7.95969 19.4574 7.83705 19.3769C7.7144 19.2964 7.61807 19.1817 7.55997 19.0469L6.41847 16.392C6.25503 16.0413 6.02414 15.7263 5.73897 15.465C4.87141 14.6267 4.18172 13.6222 3.71111 12.5114C3.24051 11.4006 2.99864 10.2063 2.99997 8.99995ZM18.4545 15.2715L5.72697 2.54545C7.42439 0.906027 9.69781 -0.00112258 12.0576 0.0193832C14.4174 0.039889 16.6747 0.986409 18.3433 2.65508C20.012 4.32376 20.9585 6.58107 20.979 8.94084C20.9995 11.3006 20.0924 13.574 18.453 15.2715H18.4545ZM7.49997 21.75C7.49997 21.551 7.57899 21.3603 7.71964 21.2196C7.86029 21.079 8.05106 21 8.24997 21H15.75C15.9489 21 16.1396 21.079 16.2803 21.2196C16.421 21.3603 16.5 21.551 16.5 21.75C16.5 21.9489 16.421 22.1396 16.2803 22.2803C16.1396 22.4209 15.9489 22.5 15.75 22.5L15.414 23.1704C15.2895 23.4196 15.0981 23.6291 14.8613 23.7756C14.6244 23.9221 14.3515 23.9998 14.073 24H9.92697C9.64848 23.9998 9.37552 23.9221 9.13868 23.7756C8.90184 23.6291 8.71046 23.4196 8.58597 23.1704L8.24997 22.5C8.05106 22.5 7.86029 22.4209 7.71964 22.2803C7.57899 22.1396 7.49997 21.9489 7.49997 21.75ZM3.53097 2.46895C3.46124 2.39922 3.37846 2.3439 3.28735 2.30616C3.19624 2.26843 3.09859 2.249 2.99997 2.249C2.90135 2.249 2.8037 2.26843 2.7126 2.30616C2.62149 2.3439 2.5387 2.39922 2.46897 2.46895C2.39924 2.53868 2.34392 2.62147 2.30619 2.71257C2.26845 2.80368 2.24902 2.90133 2.24902 2.99995C2.24902 3.09857 2.26845 3.19622 2.30619 3.28732C2.34392 3.37843 2.39924 3.46122 2.46897 3.53095L20.469 21.531C20.6098 21.6718 20.8008 21.7509 21 21.7509C21.1991 21.7509 21.3901 21.6718 21.531 21.531C21.6718 21.3901 21.7509 21.1991 21.7509 21C21.7509 20.8008 21.6718 20.6098 21.531 20.469L3.53097 2.46895Z" fill="black"/>
</svg>
