<svg width="24" height="24" viewBox="0 0 24 24" fill="none" xmlns="http://www.w3.org/2000/svg">
<path fill-rule="evenodd" clip-rule="evenodd" d="M12 0C18.6165 0 24 4.368 24 9.738C24 11.8875 23.1675 13.8225 21.4275 15.729C18.9105 18.627 13.281 22.1565 12 22.6965C10.755 23.2215 10.899 22.401 10.956 22.077L10.9605 22.05L11.1315 21.0225C11.172 20.7165 11.214 20.241 11.0925 19.938C10.9575 19.6035 10.4265 19.4295 10.0365 19.3455C4.269 18.585 0 14.5515 0 9.738C0 4.368 5.385 0 12 0ZM7.533 11.529H5.2455V7.377C5.2455 7.3152 5.22105 7.25591 5.17749 7.21207C5.13393 7.16822 5.0748 7.1434 5.013 7.143H4.17C4.13927 7.143 4.10884 7.14905 4.08045 7.16081C4.05206 7.17257 4.02627 7.18981 4.00454 7.21154C3.98281 7.23327 3.96557 7.25906 3.95381 7.28745C3.94205 7.31584 3.936 7.34627 3.936 7.377V12.606C3.936 12.6675 3.9615 12.726 4.002 12.7665V12.768L4.005 12.771L4.008 12.774C4.0515 12.8158 4.10965 12.839 4.17 12.8385H7.533C7.662 12.8385 7.7655 12.7335 7.7655 12.6045V11.7645C7.7657 11.7338 7.75984 11.7033 7.74826 11.6748C7.73669 11.6464 7.71961 11.6205 7.69802 11.5986C7.67644 11.5767 7.65075 11.5593 7.62243 11.5474C7.59412 11.5354 7.56373 11.5292 7.533 11.529ZM8.7195 7.143H9.5625C9.6915 7.143 9.795 7.248 9.795 7.377V12.606C9.795 12.735 9.69 12.8385 9.5625 12.8385H8.7195C8.6577 12.8385 8.59841 12.8141 8.55457 12.7705C8.51072 12.7269 8.4859 12.6678 8.4855 12.606V7.377C8.4855 7.248 8.5905 7.143 8.7195 7.143ZM14.514 7.143H15.354C15.4845 7.143 15.5895 7.248 15.5895 7.377V12.606C15.5895 12.735 15.4845 12.8385 15.3555 12.8385H14.514C14.4938 12.8386 14.4736 12.8361 14.454 12.831H14.451C14.4454 12.8292 14.4399 12.8272 14.4345 12.825L14.427 12.822L14.4165 12.8175C14.4124 12.8158 14.4084 12.8138 14.4045 12.8115L14.4 12.81L14.385 12.801L14.3835 12.7995C14.3601 12.7838 14.3398 12.764 14.3235 12.741L11.9235 9.501V12.606C11.9237 12.6367 11.9178 12.6671 11.9062 12.6954C11.8946 12.7238 11.8775 12.7496 11.8559 12.7714C11.8343 12.7931 11.8086 12.8104 11.7803 12.8222C11.752 12.8339 11.7217 12.84 11.691 12.84H10.8495C10.7877 12.84 10.7284 12.8156 10.6846 12.772C10.6407 12.7284 10.6159 12.6693 10.6155 12.6075V7.377C10.6155 7.248 10.7205 7.143 10.8495 7.143H11.7L11.7075 7.1445H11.7165L11.721 7.146H11.73L11.745 7.1505H11.748L11.751 7.152L11.766 7.1565L11.7735 7.1595C11.7781 7.16125 11.7826 7.16326 11.787 7.1655L11.7915 7.167L11.7945 7.1685C11.8013 7.17206 11.8078 7.17607 11.814 7.1805L11.8185 7.1835L11.826 7.188V7.1895C11.829 7.1895 11.8305 7.1925 11.832 7.194C11.8362 7.19678 11.8402 7.19978 11.844 7.203L11.8485 7.2075C11.8613 7.21929 11.8729 7.23236 11.883 7.2465L14.28 10.485V7.377C14.28 7.248 14.385 7.143 14.514 7.143ZM20.2365 8.2185C20.2365 8.3475 20.1315 8.4525 20.004 8.4525H17.715V9.3375H20.0025C20.1315 9.3375 20.235 9.4425 20.235 9.57V10.4115C20.235 10.5405 20.13 10.6455 20.0025 10.6455H17.715V11.5305H20.0025C20.1315 11.5305 20.235 11.6355 20.235 11.763V12.6045C20.235 12.7335 20.13 12.8385 20.0025 12.8385H16.6395C16.6089 12.8387 16.5786 12.8328 16.5503 12.8212C16.522 12.8096 16.4962 12.7926 16.4745 12.771L16.4715 12.7665C16.4296 12.7235 16.406 12.666 16.4055 12.606V7.377C16.4055 7.314 16.431 7.257 16.47 7.2165L16.4745 7.212L16.476 7.2105C16.5195 7.16734 16.5782 7.14308 16.6395 7.143H20.0025C20.1315 7.143 20.235 7.248 20.235 7.377V8.2185H20.2365Z" fill="black"/>
</svg>
