<svg width="24" height="24" viewBox="0 0 24 24" fill="none" xmlns="http://www.w3.org/2000/svg">
<path fill-rule="evenodd" clip-rule="evenodd" d="M7.5 17.25C7.5 17.0511 7.57902 16.8603 7.71967 16.7197C7.86032 16.579 8.05109 16.5 8.25 16.5H21.75C21.9489 16.5 22.1397 16.579 22.2803 16.7197C22.421 16.8603 22.5 17.0511 22.5 17.25C22.5 17.4489 22.421 17.6397 22.2803 17.7803C22.1397 17.921 21.9489 18 21.75 18H8.25C8.05109 18 7.86032 17.921 7.71967 17.7803C7.57902 17.6397 7.5 17.4489 7.5 17.25ZM7.5 11.25C7.5 11.0511 7.57902 10.8603 7.71967 10.7197C7.86032 10.579 8.05109 10.5 8.25 10.5H21.75C21.9489 10.5 22.1397 10.579 22.2803 10.7197C22.421 10.8603 22.5 11.0511 22.5 11.25C22.5 11.4489 22.421 11.6397 22.2803 11.7803C22.1397 11.921 21.9489 12 21.75 12H8.25C8.05109 12 7.86032 11.921 7.71967 11.7803C7.57902 11.6397 7.5 11.4489 7.5 11.25ZM7.5 5.25C7.5 5.05109 7.57902 4.86032 7.71967 4.71967C7.86032 4.57902 8.05109 4.5 8.25 4.5H21.75C21.9489 4.5 22.1397 4.57902 22.2803 4.71967C22.421 4.86032 22.5 5.05109 22.5 5.25C22.5 5.44891 22.421 5.63968 22.2803 5.78033C22.1397 5.92098 21.9489 6 21.75 6H8.25C8.05109 6 7.86032 5.92098 7.71967 5.78033C7.57902 5.63968 7.5 5.44891 7.5 5.25Z" fill="black"/>
<path d="M3.36305 3.29097C3.38857 3.20826 3.43992 3.1359 3.50956 3.0845C3.57921 3.0331 3.66349 3.00537 3.75005 3.00537C3.83661 3.00537 3.92089 3.0331 3.99054 3.0845C4.06019 3.1359 4.11153 3.20826 4.13705 3.29097L4.38005 4.08597C4.43255 4.25847 4.59005 4.37697 4.76705 4.37697H5.59355C5.98205 4.37697 6.14855 4.87647 5.83955 5.11647L5.13755 5.66097C5.07121 5.71285 5.02221 5.78367 4.99703 5.86403C4.97185 5.9444 4.97168 6.03051 4.99655 6.11097L5.25605 6.96447C5.37305 7.34847 4.93655 7.65747 4.62155 7.41447L3.99605 6.92847C3.92573 6.87374 3.83916 6.84402 3.75005 6.84402C3.66094 6.84402 3.57437 6.87374 3.50405 6.92847L2.87855 7.41297C2.56355 7.65747 2.12855 7.34847 2.24405 6.96447L2.50355 6.10947C2.52809 6.02922 2.52775 5.94342 2.50259 5.86336C2.47742 5.78331 2.4286 5.71275 2.36255 5.66097L1.66055 5.11647C1.35155 4.87647 1.51805 4.37697 1.90655 4.37697H2.73155C2.81899 4.3767 2.90402 4.34825 2.974 4.29583C3.04399 4.2434 3.09521 4.16981 3.12005 4.08597L3.36305 3.29097ZM3.36305 9.29097C3.38857 9.20826 3.43992 9.1359 3.50956 9.0845C3.57921 9.0331 3.66349 9.00537 3.75005 9.00537C3.83661 9.00537 3.92089 9.0331 3.99054 9.0845C4.06019 9.1359 4.11153 9.20826 4.13705 9.29097L4.38005 10.086C4.43255 10.2585 4.59005 10.377 4.76705 10.377H5.59355C5.98205 10.377 6.14855 10.8765 5.83955 11.1165L5.13755 11.661C5.07121 11.7129 5.02221 11.7837 4.99703 11.864C4.97185 11.9444 4.97168 12.0305 4.99655 12.111L5.25605 12.9645C5.37305 13.347 4.93655 13.6575 4.62155 13.4145L3.99605 12.9285C3.92573 12.8737 3.83916 12.844 3.75005 12.844C3.66094 12.844 3.57437 12.8737 3.50405 12.9285L2.87855 13.413C2.56355 13.6575 2.12855 13.3485 2.24405 12.9645L2.50355 12.1095C2.52809 12.0292 2.52775 11.9434 2.50259 11.8634C2.47742 11.7833 2.4286 11.7127 2.36255 11.661L1.66055 11.1165C1.35155 10.8765 1.51805 10.377 1.90655 10.377H2.73155C2.81899 10.3767 2.90402 10.3482 2.974 10.2958C3.04399 10.2434 3.09521 10.1698 3.12005 10.086L3.36305 9.29097ZM3.36305 15.291C3.38857 15.2083 3.43992 15.1359 3.50956 15.0845C3.57921 15.0331 3.66349 15.0054 3.75005 15.0054C3.83661 15.0054 3.92089 15.0331 3.99054 15.0845C4.06019 15.1359 4.11153 15.2083 4.13705 15.291L4.38005 16.086C4.43255 16.2585 4.59005 16.377 4.76705 16.377H5.59355C5.98205 16.377 6.14855 16.8765 5.83955 17.1165L5.13755 17.661C5.07121 17.7129 5.02221 17.7837 4.99703 17.864C4.97185 17.9444 4.97168 18.0305 4.99655 18.111L5.25605 18.9645C5.37305 19.347 4.93655 19.6575 4.62155 19.4145L3.99605 18.9285C3.92573 18.8737 3.83916 18.844 3.75005 18.844C3.66094 18.844 3.57437 18.8737 3.50405 18.9285L2.87855 19.413C2.56355 19.6575 2.12855 19.3485 2.24405 18.9645L2.50355 18.1095C2.52809 18.0292 2.52775 17.9434 2.50259 17.8634C2.47742 17.7833 2.4286 17.7127 2.36255 17.661L1.66055 17.1165C1.35155 16.8765 1.51805 16.377 1.90655 16.377H2.73155C2.81899 16.3767 2.90402 16.3482 2.974 16.2958C3.04399 16.2434 3.09521 16.1698 3.12005 16.086L3.36305 15.291Z" fill="black"/>
</svg>
