<svg width="24" height="24" viewBox="0 0 24 24" fill="none" xmlns="http://www.w3.org/2000/svg">
<path fill-rule="evenodd" clip-rule="evenodd" d="M0 0.75C0 0.551088 0.0790176 0.360322 0.21967 0.21967C0.360322 0.0790176 0.551088 0 0.75 0L3.75 0C3.94891 0 4.13968 0.0790176 4.28033 0.21967C4.42098 0.360322 4.5 0.551088 4.5 0.75C4.5 0.948912 4.42098 1.13968 4.28033 1.28033C4.13968 1.42098 3.94891 1.5 3.75 1.5H0.75C0.551088 1.5 0.360322 1.42098 0.21967 1.28033C0.0790176 1.13968 0 0.948912 0 0.75ZM6 0.75C6 0.551088 6.07902 0.360322 6.21967 0.21967C6.36032 0.0790176 6.55109 0 6.75 0L21.75 0C21.9489 0 22.1397 0.0790176 22.2803 0.21967C22.421 0.360322 22.5 0.551088 22.5 0.75C22.5 0.948912 22.421 1.13968 22.2803 1.28033C22.1397 1.42098 21.9489 1.5 21.75 1.5H6.75C6.55109 1.5 6.36032 1.42098 6.21967 1.28033C6.07902 1.13968 6 0.948912 6 0.75ZM0 3.75C0 3.55109 0.0790176 3.36032 0.21967 3.21967C0.360322 3.07902 0.551088 3 0.75 3H3.75C3.94891 3 4.13968 3.07902 4.28033 3.21967C4.42098 3.36032 4.5 3.55109 4.5 3.75C4.5 3.94891 4.42098 4.13968 4.28033 4.28033C4.13968 4.42098 3.94891 4.5 3.75 4.5H0.75C0.551088 4.5 0.360322 4.42098 0.21967 4.28033C0.0790176 4.13968 0 3.94891 0 3.75ZM6 3.75C6 3.55109 6.07902 3.36032 6.21967 3.21967C6.36032 3.07902 6.55109 3 6.75 3H20.25C20.4489 3 20.6397 3.07902 20.7803 3.21967C20.921 3.36032 21 3.55109 21 3.75C21 3.94891 20.921 4.13968 20.7803 4.28033C20.6397 4.42098 20.4489 4.5 20.25 4.5H6.75C6.55109 4.5 6.36032 4.42098 6.21967 4.28033C6.07902 4.13968 6 3.94891 6 3.75ZM0 6.75C0 6.55109 0.0790176 6.36032 0.21967 6.21967C0.360322 6.07902 0.551088 6 0.75 6H3.75C3.94891 6 4.13968 6.07902 4.28033 6.21967C4.42098 6.36032 4.5 6.55109 4.5 6.75C4.5 6.94891 4.42098 7.13968 4.28033 7.28033C4.13968 7.42098 3.94891 7.5 3.75 7.5H0.75C0.551088 7.5 0.360322 7.42098 0.21967 7.28033C0.0790176 7.13968 0 6.94891 0 6.75ZM6 6.75C6 6.55109 6.07902 6.36032 6.21967 6.21967C6.36032 6.07902 6.55109 6 6.75 6H23.25C23.4489 6 23.6397 6.07902 23.7803 6.21967C23.921 6.36032 24 6.55109 24 6.75C24 6.94891 23.921 7.13968 23.7803 7.28033C23.6397 7.42098 23.4489 7.5 23.25 7.5H6.75C6.55109 7.5 6.36032 7.42098 6.21967 7.28033C6.07902 7.13968 6 6.94891 6 6.75ZM0 9.75C0 9.55109 0.0790176 9.36032 0.21967 9.21967C0.360322 9.07902 0.551088 9 0.75 9H3.75C3.94891 9 4.13968 9.07902 4.28033 9.21967C4.42098 9.36032 4.5 9.55109 4.5 9.75C4.5 9.94891 4.42098 10.1397 4.28033 10.2803C4.13968 10.421 3.94891 10.5 3.75 10.5H0.75C0.551088 10.5 0.360322 10.421 0.21967 10.2803C0.0790176 10.1397 0 9.94891 0 9.75ZM6 9.75C6 9.55109 6.07902 9.36032 6.21967 9.21967C6.36032 9.07902 6.55109 9 6.75 9H18.75C18.9489 9 19.1397 9.07902 19.2803 9.21967C19.421 9.36032 19.5 9.55109 19.5 9.75C19.5 9.94891 19.421 10.1397 19.2803 10.2803C19.1397 10.421 18.9489 10.5 18.75 10.5H6.75C6.55109 10.5 6.36032 10.421 6.21967 10.2803C6.07902 10.1397 6 9.94891 6 9.75ZM0 12.75C0 12.5511 0.0790176 12.3603 0.21967 12.2197C0.360322 12.079 0.551088 12 0.75 12H3.75C3.94891 12 4.13968 12.079 4.28033 12.2197C4.42098 12.3603 4.5 12.5511 4.5 12.75C4.5 12.9489 4.42098 13.1397 4.28033 13.2803C4.13968 13.421 3.94891 13.5 3.75 13.5H0.75C0.551088 13.5 0.360322 13.421 0.21967 13.2803C0.0790176 13.1397 0 12.9489 0 12.75ZM6 12.75C6 12.5511 6.07902 12.3603 6.21967 12.2197C6.36032 12.079 6.55109 12 6.75 12H18.75C18.9489 12 19.1397 12.079 19.2803 12.2197C19.421 12.3603 19.5 12.5511 19.5 12.75C19.5 12.9489 19.421 13.1397 19.2803 13.2803C19.1397 13.421 18.9489 13.5 18.75 13.5H6.75C6.55109 13.5 6.36032 13.421 6.21967 13.2803C6.07902 13.1397 6 12.9489 6 12.75ZM0 15.75C0 15.5511 0.0790176 15.3603 0.21967 15.2197C0.360322 15.079 0.551088 15 0.75 15H3.75C3.94891 15 4.13968 15.079 4.28033 15.2197C4.42098 15.3603 4.5 15.5511 4.5 15.75C4.5 15.9489 4.42098 16.1397 4.28033 16.2803C4.13968 16.421 3.94891 16.5 3.75 16.5H0.75C0.551088 16.5 0.360322 16.421 0.21967 16.2803C0.0790176 16.1397 0 15.9489 0 15.75ZM6 15.75C6 15.5511 6.07902 15.3603 6.21967 15.2197C6.36032 15.079 6.55109 15 6.75 15H21.75C21.9489 15 22.1397 15.079 22.2803 15.2197C22.421 15.3603 22.5 15.5511 22.5 15.75C22.5 15.9489 22.421 16.1397 22.2803 16.2803C22.1397 16.421 21.9489 16.5 21.75 16.5H6.75C6.55109 16.5 6.36032 16.421 6.21967 16.2803C6.07902 16.1397 6 15.9489 6 15.75ZM0 18.75C0 18.5511 0.0790176 18.3603 0.21967 18.2197C0.360322 18.079 0.551088 18 0.75 18H3.75C3.94891 18 4.13968 18.079 4.28033 18.2197C4.42098 18.3603 4.5 18.5511 4.5 18.75C4.5 18.9489 4.42098 19.1397 4.28033 19.2803C4.13968 19.421 3.94891 19.5 3.75 19.5H0.75C0.551088 19.5 0.360322 19.421 0.21967 19.2803C0.0790176 19.1397 0 18.9489 0 18.75ZM6 18.75C6 18.5511 6.07902 18.3603 6.21967 18.2197C6.36032 18.079 6.55109 18 6.75 18H15.75C15.9489 18 16.1397 18.079 16.2803 18.2197C16.421 18.3603 16.5 18.5511 16.5 18.75C16.5 18.9489 16.421 19.1397 16.2803 19.2803C16.1397 19.421 15.9489 19.5 15.75 19.5H6.75C6.55109 19.5 6.36032 19.421 6.21967 19.2803C6.07902 19.1397 6 18.9489 6 18.75ZM0 21.75C0 21.5511 0.0790176 21.3603 0.21967 21.2197C0.360322 21.079 0.551088 21 0.75 21H3.75C3.94891 21 4.13968 21.079 4.28033 21.2197C4.42098 21.3603 4.5 21.5511 4.5 21.75C4.5 21.9489 4.42098 22.1397 4.28033 22.2803C4.13968 22.421 3.94891 22.5 3.75 22.5H0.75C0.551088 22.5 0.360322 22.421 0.21967 22.2803C0.0790176 22.1397 0 21.9489 0 21.75ZM6 21.75C6 21.5511 6.07902 21.3603 6.21967 21.2197C6.36032 21.079 6.55109 21 6.75 21H23.25C23.4489 21 23.6397 21.079 23.7803 21.2197C23.921 21.3603 24 21.5511 24 21.75C24 21.9489 23.921 22.1397 23.7803 22.2803C23.6397 22.421 23.4489 22.5 23.25 22.5H6.75C6.55109 22.5 6.36032 22.421 6.21967 22.2803C6.07902 22.1397 6 21.9489 6 21.75Z" fill="black"/>
</svg>
