<svg width="24" height="24" viewBox="0 0 24 24" fill="none" xmlns="http://www.w3.org/2000/svg">
<g clip-path="url(#clip0_2_7593)">
<path fill-rule="evenodd" clip-rule="evenodd" d="M24 0.750035C23.9999 0.639117 23.9753 0.529594 23.9278 0.429358C23.8803 0.329121 23.8111 0.240666 23.7253 0.170366C23.6396 0.100066 23.5392 0.0496706 23.4316 0.0228108C23.324 -0.00404906 23.2118 -0.00670463 23.103 0.0150354L15.75 1.48504L8.397 0.0150354C8.29996 -0.00436071 8.20004 -0.00436071 8.103 0.0150354L0.603 1.51504C0.433042 1.54901 0.280096 1.64079 0.170165 1.77479C0.0602342 1.90878 0.000104673 2.07672 0 2.25004L0 23.25C6.69791e-05 23.361 0.0247353 23.4705 0.0722277 23.5707C0.11972 23.6709 0.188854 23.7594 0.274649 23.8297C0.360444 23.9 0.460764 23.9504 0.568381 23.9773C0.675998 24.0041 0.788233 24.0068 0.897 23.985L8.25 22.515L15.603 23.985C15.7 24.0044 15.8 24.0044 15.897 23.985L23.397 22.485C23.567 22.4511 23.7199 22.3593 23.8298 22.2253C23.9398 22.0913 23.9999 21.9234 24 21.75V0.750035ZM7.5 21.135V1.66504L8.25 1.51504L9 1.66504V21.135L8.397 21.015C8.29997 20.9956 8.20003 20.9956 8.103 21.015L7.5 21.135ZM15 22.335V2.86504L15.603 2.98504C15.7 3.00443 15.8 3.00443 15.897 2.98504L16.5 2.86504V22.335L15.75 22.485L15 22.335Z" fill="black"/>
</g>
<defs>
<clipPath id="clip0_2_7593">
<rect width="24" height="24" fill="white"/>
</clipPath>
</defs>
</svg>
