<svg width="24" height="24" viewBox="0 0 24 24" fill="none" xmlns="http://www.w3.org/2000/svg">
<g clip-path="url(#clip0_2_7590)">
<path d="M21 4.5C21.3978 4.5 21.7794 4.65804 22.0607 4.93934C22.342 5.22064 22.5 5.60218 22.5 6V18C22.5 18.3978 22.342 18.7794 22.0607 19.0607C21.7794 19.342 21.3978 19.5 21 19.5H3C2.60218 19.5 2.22064 19.342 1.93934 19.0607C1.65804 18.7794 1.5 18.3978 1.5 18V6C1.5 5.60218 1.65804 5.22064 1.93934 4.93934C2.22064 4.65804 2.60218 4.5 3 4.5H21ZM3 3C2.20435 3 1.44129 3.31607 0.87868 3.87868C0.316071 4.44129 0 5.20435 0 6L0 18C0 18.7956 0.316071 19.5587 0.87868 20.1213C1.44129 20.6839 2.20435 21 3 21H21C21.7956 21 22.5587 20.6839 23.1213 20.1213C23.6839 19.5587 24 18.7956 24 18V6C24 5.20435 23.6839 4.44129 23.1213 3.87868C22.5587 3.31607 21.7956 3 21 3H3Z" fill="black"/>
<path fill-rule="evenodd" clip-rule="evenodd" d="M13.719 12.2189C13.7887 12.149 13.8714 12.0936 13.9625 12.0558C14.0537 12.018 14.1513 11.9985 14.25 11.9985C14.3486 11.9985 14.4463 12.018 14.5374 12.0558C14.6286 12.0936 14.7113 12.149 14.781 12.2189L17.25 14.6894L19.719 12.2189C19.7887 12.1491 19.8715 12.0938 19.9626 12.0561C20.0537 12.0184 20.1514 11.9989 20.25 11.9989C20.3486 11.9989 20.4463 12.0184 20.5374 12.0561C20.6285 12.0938 20.7113 12.1491 20.781 12.2189C20.8507 12.2886 20.906 12.3714 20.9438 12.4625C20.9815 12.5536 21.0009 12.6513 21.0009 12.7499C21.0009 12.8485 20.9815 12.9461 20.9438 13.0373C20.906 13.1284 20.8507 13.2111 20.781 13.2809L17.781 16.2809C17.7113 16.3507 17.6286 16.4061 17.5374 16.4439C17.4463 16.4818 17.3486 16.5012 17.25 16.5012C17.1513 16.5012 17.0537 16.4818 16.9625 16.4439C16.8714 16.4061 16.7887 16.3507 16.719 16.2809L13.719 13.2809C13.6492 13.2112 13.5937 13.1284 13.5559 13.0373C13.5181 12.9462 13.4987 12.8485 13.4987 12.7499C13.4987 12.6512 13.5181 12.5535 13.5559 12.4624C13.5937 12.3713 13.6492 12.2885 13.719 12.2189Z" fill="black"/>
<path fill-rule="evenodd" clip-rule="evenodd" d="M17.25 7.5C17.4489 7.5 17.6397 7.57902 17.7803 7.71967C17.921 7.86032 18 8.05109 18 8.25V14.25C18 14.4489 17.921 14.6397 17.7803 14.7803C17.6397 14.921 17.4489 15 17.25 15C17.0511 15 16.8603 14.921 16.7197 14.7803C16.579 14.6397 16.5 14.4489 16.5 14.25V8.25C16.5 8.05109 16.579 7.86032 16.7197 7.71967C16.8603 7.57902 17.0511 7.5 17.25 7.5Z" fill="black"/>
<path d="M5.34 16.5V10.515H5.424L7.566 15.3735H8.727L10.857 10.5135H10.941V16.5H12.5505V7.50146H10.7505L8.1855 13.3425H8.127L5.562 7.50146H3.75V16.5H5.34Z" fill="black"/>
</g>
<defs>
<clipPath id="clip0_2_7590">
<rect width="24" height="24" fill="white"/>
</clipPath>
</defs>
</svg>
