<svg width="24" height="24" viewBox="0 0 24 24" fill="none" xmlns="http://www.w3.org/2000/svg">
<g clip-path="url(#clip0_2_7953)">
<path d="M9.33745 1.84035C11.2572 2.75467 12.8785 4.19433 14.0134 5.99245C15.1483 7.79056 15.7505 9.87351 15.75 11.9998C15.7505 14.1262 15.1483 16.2091 14.0134 18.0072C12.8785 19.8054 11.2572 21.245 9.33745 22.1593C10.8903 22.5647 12.5154 22.6088 14.0879 22.2881C15.6604 21.9674 17.1384 21.2905 18.4085 20.3094C19.6786 19.3284 20.7069 18.0692 21.4144 16.6287C22.1218 15.1882 22.4897 13.6047 22.4897 11.9998C22.4897 10.395 22.1218 8.81147 21.4144 7.37097C20.7069 5.93047 19.6786 4.67132 18.4085 3.69025C17.1384 2.70918 15.6604 2.03229 14.0879 1.71161C12.5154 1.39092 10.8903 1.43496 9.33745 1.84035ZM6.28045 1.44885C9.07895 -0.0682582 12.3655 -0.411527 15.4171 0.494555C18.4687 1.40064 21.0353 3.48185 22.5525 6.28035C24.0696 9.07884 24.4128 12.3654 23.5067 15.417C22.6007 18.4686 20.5195 21.0352 17.721 22.5523C14.9221 24.0696 11.635 24.413 8.58304 23.5067C5.53102 22.6005 2.96401 20.519 1.4467 17.7201C-0.0706003 14.9212 -0.413902 11.6342 0.492321 8.58218C1.39854 5.53017 3.48006 2.96315 6.27895 1.44585L6.28045 1.44885Z" fill="black"/>
</g>
<defs>
<clipPath id="clip0_2_7953">
<rect width="24" height="24" fill="white"/>
</clipPath>
</defs>
</svg>
