<svg width="24" height="24" viewBox="0 0 24 24" fill="none" xmlns="http://www.w3.org/2000/svg">
<g clip-path="url(#clip0_2_7951)">
<path fill-rule="evenodd" clip-rule="evenodd" d="M1.5 4.5C1.10218 4.5 0.720644 4.65804 0.43934 4.93934C0.158035 5.22064 0 5.60218 0 6L0 18C0 18.3978 0.158035 18.7794 0.43934 19.0607C0.720644 19.342 1.10218 19.5 1.5 19.5H8.379C8.77679 19.4999 9.15826 19.3418 9.4395 19.0605L9.969 18.531C10.0387 18.4612 10.1214 18.4057 10.2125 18.3679C10.3037 18.3301 10.4013 18.3107 10.5 18.3107C10.5987 18.3107 10.6963 18.3301 10.7875 18.3679C10.8786 18.4057 10.9613 18.4612 11.031 18.531L11.5605 19.0605C11.8417 19.3418 12.2232 19.4999 12.621 19.5H22.5C22.8978 19.5 23.2794 19.342 23.5607 19.0607C23.842 18.7794 24 18.3978 24 18V6C24 5.60218 23.842 5.22064 23.5607 4.93934C23.2794 4.65804 22.8978 4.5 22.5 4.5H1.5ZM2.25 6C2.05109 6 1.86032 6.07902 1.71967 6.21967C1.57902 6.36032 1.5 6.55109 1.5 6.75V12.75C1.5 12.9489 1.57902 13.1397 1.71967 13.2803C1.86032 13.421 2.05109 13.5 2.25 13.5H6.75C6.94891 13.5 7.13968 13.421 7.28033 13.2803C7.42098 13.1397 7.5 12.9489 7.5 12.75V6.75C7.5 6.55109 7.42098 6.36032 7.28033 6.21967C7.13968 6.07902 6.94891 6 6.75 6H2.25ZM9.75 6C9.55109 6 9.36032 6.07902 9.21967 6.21967C9.07902 6.36032 9 6.55109 9 6.75V12.75C9 12.9489 9.07902 13.1397 9.21967 13.2803C9.36032 13.421 9.55109 13.5 9.75 13.5H14.25C14.4489 13.5 14.6397 13.421 14.7803 13.2803C14.921 13.1397 15 12.9489 15 12.75V6.75C15 6.55109 14.921 6.36032 14.7803 6.21967C14.6397 6.07902 14.4489 6 14.25 6H9.75ZM16.5 6.75C16.5 6.55109 16.579 6.36032 16.7197 6.21967C16.8603 6.07902 17.0511 6 17.25 6H21.75C21.9489 6 22.1397 6.07902 22.2803 6.21967C22.421 6.36032 22.5 6.55109 22.5 6.75V12.75C22.5 12.9489 22.421 13.1397 22.2803 13.2803C22.1397 13.421 21.9489 13.5 21.75 13.5H17.25C17.0511 13.5 16.8603 13.421 16.7197 13.2803C16.579 13.1397 16.5 12.9489 16.5 12.75V6.75ZM3 15V18H1.5V15H3ZM6 15V18H4.5V15H6ZM9 15V18H7.5V15H9ZM13.5 15V18H12V15H13.5ZM16.5 15V18H15V15H16.5ZM19.5 15V18H18V15H19.5ZM22.5 15V18H21V15H22.5Z" fill="black"/>
</g>
<defs>
<clipPath id="clip0_2_7951">
<rect width="24" height="24" fill="white"/>
</clipPath>
</defs>
</svg>
