<svg width="24" height="24" viewBox="0 0 24 24" fill="none" xmlns="http://www.w3.org/2000/svg">
<g clip-path="url(#clip0_2_7941)">
<path d="M11.469 23.781C11.5387 23.8508 11.6214 23.9063 11.7125 23.9441C11.8037 23.9819 11.9013 24.0013 12 24.0013C12.0987 24.0013 12.1963 23.9819 12.2874 23.9441C12.3786 23.9063 12.4613 23.8508 12.531 23.781L15.3105 21H21C21.7956 21 22.5587 20.6839 23.1213 20.1213C23.6839 19.5587 24 18.7957 24 18V4.5C24 3.70435 23.6839 2.94129 23.1213 2.37868C22.5587 1.81607 21.7956 1.5 21 1.5H3C2.20435 1.5 1.44129 1.81607 0.87868 2.37868C0.316071 2.94129 0 3.70435 0 4.5L0 18C0 18.7957 0.316071 19.5587 0.87868 20.1213C1.44129 20.6839 2.20435 21 3 21H8.6895L11.469 23.781ZM1.5 13.5V9H22.5V13.5H1.5ZM22.5 15V18C22.5 18.3978 22.342 18.7794 22.0607 19.0607C21.7794 19.342 21.3978 19.5 21 19.5H15.3105C14.9127 19.5001 14.5312 19.6582 14.25 19.9395L12 22.1895L9.75 19.9395C9.46876 19.6582 9.08729 19.5001 8.6895 19.5H3C2.60218 19.5 2.22064 19.342 1.93934 19.0607C1.65804 18.7794 1.5 18.3978 1.5 18V15H22.5ZM22.5 7.5H1.5V4.5C1.5 4.10218 1.65804 3.72064 1.93934 3.43934C2.22064 3.15804 2.60218 3 3 3H21C21.3978 3 21.7794 3.15804 22.0607 3.43934C22.342 3.72064 22.5 4.10218 22.5 4.5V7.5ZM3 17.25C3 17.4489 3.07902 17.6397 3.21967 17.7803C3.36032 17.921 3.55109 18 3.75 18H15.75C15.9489 18 16.1397 17.921 16.2803 17.7803C16.421 17.6397 16.5 17.4489 16.5 17.25C16.5 17.0511 16.421 16.8603 16.2803 16.7197C16.1397 16.579 15.9489 16.5 15.75 16.5H3.75C3.55109 16.5 3.36032 16.579 3.21967 16.7197C3.07902 16.8603 3 17.0511 3 17.25ZM3 11.25C3 11.4489 3.07902 11.6397 3.21967 11.7803C3.36032 11.921 3.55109 12 3.75 12H20.25C20.4489 12 20.6397 11.921 20.7803 11.7803C20.921 11.6397 21 11.4489 21 11.25C21 11.0511 20.921 10.8603 20.7803 10.7197C20.6397 10.579 20.4489 10.5 20.25 10.5H3.75C3.55109 10.5 3.36032 10.579 3.21967 10.7197C3.07902 10.8603 3 11.0511 3 11.25ZM3 5.25C3 5.44891 3.07902 5.63968 3.21967 5.78033C3.36032 5.92098 3.55109 6 3.75 6H12.75C12.9489 6 13.1397 5.92098 13.2803 5.78033C13.421 5.63968 13.5 5.44891 13.5 5.25C13.5 5.05109 13.421 4.86032 13.2803 4.71967C13.1397 4.57902 12.9489 4.5 12.75 4.5H3.75C3.55109 4.5 3.36032 4.57902 3.21967 4.71967C3.07902 4.86032 3 5.05109 3 5.25Z" fill="black"/>
</g>
<defs>
<clipPath id="clip0_2_7941">
<rect width="24" height="24" fill="white"/>
</clipPath>
</defs>
</svg>
