<svg width="24" height="24" viewBox="0 0 24 24" fill="none" xmlns="http://www.w3.org/2000/svg">
<path d="M0 2.25C0 1.65326 0.237053 1.08097 0.65901 0.65901C1.08097 0.237053 1.65326 0 2.25 0L5.25 0C5.84674 0 6.41903 0.237053 6.84099 0.65901C7.26295 1.08097 7.5 1.65326 7.5 2.25V5.25C7.5 5.84674 7.26295 6.41903 6.84099 6.84099C6.41903 7.26295 5.84674 7.5 5.25 7.5H2.25C1.65326 7.5 1.08097 7.26295 0.65901 6.84099C0.237053 6.41903 0 5.84674 0 5.25L0 2.25ZM2.25 1.5C2.05109 1.5 1.86032 1.57902 1.71967 1.71967C1.57902 1.86032 1.5 2.05109 1.5 2.25V5.25C1.5 5.44891 1.57902 5.63968 1.71967 5.78033C1.86032 5.92098 2.05109 6 2.25 6H5.25C5.44891 6 5.63968 5.92098 5.78033 5.78033C5.92098 5.63968 6 5.44891 6 5.25V2.25C6 2.05109 5.92098 1.86032 5.78033 1.71967C5.63968 1.57902 5.44891 1.5 5.25 1.5H2.25ZM0 12C0 11.2044 0.316071 10.4413 0.87868 9.87868C1.44129 9.31607 2.20435 9 3 9H21C21.7956 9 22.5587 9.31607 23.1213 9.87868C23.6839 10.4413 24 11.2044 24 12V19.5C24 20.2956 23.6839 21.0587 23.1213 21.6213C22.5587 22.1839 21.7956 22.5 21 22.5H3C2.20435 22.5 1.44129 22.1839 0.87868 21.6213C0.316071 21.0587 0 20.2956 0 19.5V12ZM1.5 16.5V19.5C1.5 19.8978 1.65804 20.2794 1.93934 20.5607C2.22064 20.842 2.60218 21 3 21H21C21.3978 21 21.7794 20.842 22.0607 20.5607C22.342 20.2794 22.5 19.8978 22.5 19.5V16.5H1.5ZM22.5 15V12C22.5 11.6022 22.342 11.2206 22.0607 10.9393C21.7794 10.658 21.3978 10.5 21 10.5H3C2.60218 10.5 2.22064 10.658 1.93934 10.9393C1.65804 11.2206 1.5 11.6022 1.5 12V15H22.5ZM3 12.75C3 12.5511 3.07902 12.3603 3.21967 12.2197C3.36032 12.079 3.55109 12 3.75 12H17.25C17.4489 12 17.6397 12.079 17.7803 12.2197C17.921 12.3603 18 12.5511 18 12.75C18 12.9489 17.921 13.1397 17.7803 13.2803C17.6397 13.421 17.4489 13.5 17.25 13.5H3.75C3.55109 13.5 3.36032 13.421 3.21967 13.2803C3.07902 13.1397 3 12.9489 3 12.75ZM3 18.75C3 18.5511 3.07902 18.3603 3.21967 18.2197C3.36032 18.079 3.55109 18 3.75 18H12.75C12.9489 18 13.1397 18.079 13.2803 18.2197C13.421 18.3603 13.5 18.5511 13.5 18.75C13.5 18.9489 13.421 19.1397 13.2803 19.2803C13.1397 19.421 12.9489 19.5 12.75 19.5H3.75C3.55109 19.5 3.36032 19.421 3.21967 19.2803C3.07902 19.1397 3 18.9489 3 18.75Z" fill="black"/>
</svg>
