<svg width="24" height="24" viewBox="0 0 24 24" fill="none" xmlns="http://www.w3.org/2000/svg">
<g clip-path="url(#clip0_2_7932)">
<path d="M20.25 0C20.0511 0 19.8603 0.0790176 19.7197 0.21967C19.579 0.360322 19.5 0.551088 19.5 0.75C19.5 0.948912 19.579 1.13968 19.7197 1.28033C19.8603 1.42098 20.0511 1.5 20.25 1.5H22.5V5.625H21.75C21.5511 5.625 21.3603 5.70402 21.2197 5.84467C21.079 5.98532 21 6.17609 21 6.375C21 6.57391 21.079 6.76468 21.2197 6.90533C21.3603 7.04598 21.5511 7.125 21.75 7.125H22.5V11.25H20.25C20.0511 11.25 19.8603 11.329 19.7197 11.4697C19.579 11.6103 19.5 11.8011 19.5 12C19.5 12.1989 19.579 12.3897 19.7197 12.5303C19.8603 12.671 20.0511 12.75 20.25 12.75H22.5V16.875H21.75C21.5511 16.875 21.3603 16.954 21.2197 17.0947C21.079 17.2353 21 17.4261 21 17.625C21 17.8239 21.079 18.0147 21.2197 18.1553C21.3603 18.296 21.5511 18.375 21.75 18.375H22.5V22.5H20.25C20.0511 22.5 19.8603 22.579 19.7197 22.7197C19.579 22.8603 19.5 23.0511 19.5 23.25C19.5 23.4489 19.579 23.6397 19.7197 23.7803C19.8603 23.921 20.0511 24 20.25 24H23.25C23.4489 24 23.6397 23.921 23.7803 23.7803C23.921 23.6397 24 23.4489 24 23.25V0.75C24 0.551088 23.921 0.360322 23.7803 0.21967C23.6397 0.0790176 23.4489 0 23.25 0L20.25 0ZM10.5 2.25L11.046 1.7355C10.9759 1.66104 10.8913 1.60171 10.7974 1.56116C10.7035 1.5206 10.6023 1.49968 10.5 1.49968C10.3977 1.49968 10.2965 1.5206 10.2026 1.56116C10.1087 1.60171 10.0241 1.66104 9.954 1.7355L9.951 1.7385L9.942 1.749L9.909 1.7835L9.789 1.9155C9.12578 2.65159 8.4884 3.41055 7.878 4.191C6.7245 5.6655 5.307 7.6785 4.3005 9.7815C3.552 11.346 3 13.023 3 14.5995C3 18.921 6.318 22.5 10.5 22.5C14.682 22.5 18 18.921 18 14.5995C18 13.0245 17.448 11.346 16.6995 9.7815C15.693 7.6785 14.2755 5.6655 13.122 4.191C12.4748 3.36379 11.7974 2.56074 11.091 1.7835L11.058 1.749L11.049 1.7385L11.046 1.737L10.5 2.25ZM10.5 2.25L9.954 1.7355L10.5 2.25ZM10.476 3.399L10.5 3.3705L10.524 3.399C10.884 3.81 11.382 4.3995 11.94 5.115C12.8565 6.2865 13.92 7.779 14.7915 9.3555H6.21C7.08 7.779 8.145 6.2865 9.06 5.115C9.6195 4.3995 10.119 3.81 10.4775 3.399H10.476ZM4.5 14.5995C4.5 13.467 4.866 12.1815 5.457 10.8555H15.543C16.1355 12.1815 16.5 13.467 16.5 14.5995C16.5 18.1755 13.773 21 10.5 21C7.227 21 4.5 18.1755 4.5 14.5995Z" fill="black"/>
</g>
<defs>
<clipPath id="clip0_2_7932">
<rect width="24" height="24" fill="white"/>
</clipPath>
</defs>
</svg>
