<svg width="24" height="24" viewBox="0 0 24 24" fill="none" xmlns="http://www.w3.org/2000/svg">
<path d="M9 0.416471C9.14642 0.59439 9.23612 0.812129 9.25751 1.04156C9.2789 1.27098 9.231 1.50155 9.12 1.70347C8.25279 3.29568 7.7999 5.08041 7.803 6.89347C7.803 12.925 12.72 17.809 18.78 17.809C19.5705 17.809 20.34 17.7265 21.0795 17.569C21.3062 17.5199 21.5423 17.5387 21.7584 17.623C21.9745 17.7073 22.1609 17.8533 22.2945 18.043C22.4355 18.2401 22.5074 18.4784 22.499 18.7206C22.4905 18.9629 22.4023 19.1955 22.248 19.3825C21.0715 20.8276 19.5874 21.992 17.9038 22.7908C16.2201 23.5895 14.3795 24.0024 12.516 23.9995C5.601 23.9995 0 18.4285 0 11.5645C0 6.39847 3.171 1.96747 7.686 0.0894712C7.91091 -0.00558103 8.16058 -0.0250901 8.39752 0.0338747C8.63447 0.0928394 8.84588 0.227094 9 0.416471ZM7.287 1.96597C5.55091 2.89721 4.09955 4.28143 3.0872 5.97151C2.07484 7.66159 1.5393 9.59439 1.5375 11.5645C1.5375 17.5945 6.456 22.4785 12.516 22.4785C13.9672 22.481 15.4044 22.1957 16.7446 21.639C18.0847 21.0823 19.3012 20.2654 20.3235 19.2355C19.818 19.2985 19.3035 19.33 18.78 19.33C11.865 19.33 6.2655 13.759 6.2655 6.89497C6.2655 5.14447 6.6285 3.47797 7.287 1.96597Z" fill="black"/>
</svg>
