<svg width="24" height="24" viewBox="0 0 24 24" fill="none" xmlns="http://www.w3.org/2000/svg">
<path fill-rule="evenodd" clip-rule="evenodd" d="M1.5 3C1.5 2.20435 1.81607 1.44129 2.37868 0.87868C2.94129 0.316071 3.70435 0 4.5 0L21 0C21.7956 0 22.5587 0.316071 23.1213 0.87868C23.6839 1.44129 24 2.20435 24 3V19.5C24 20.2956 23.6839 21.0587 23.1213 21.6213C22.5587 22.1839 21.7956 22.5 21 22.5H4.5C3.70435 22.5 2.94129 22.1839 2.37868 21.6213C1.81607 21.0587 1.5 20.2956 1.5 19.5V16.5H0.75C0.551088 16.5 0.360322 16.421 0.21967 16.2803C0.0790176 16.1397 0 15.9489 0 15.75V14.25C0 14.0511 0.0790176 13.8603 0.21967 13.7197C0.360322 13.579 0.551088 13.5 0.75 13.5H1.5V12H0.75C0.551088 12 0.360322 11.921 0.21967 11.7803C0.0790176 11.6397 0 11.4489 0 11.25V9.75C0 9.55109 0.0790176 9.36032 0.21967 9.21967C0.360322 9.07902 0.551088 9 0.75 9H1.5V7.5H0.75C0.551088 7.5 0.360322 7.42098 0.21967 7.28033C0.0790176 7.13968 0 6.94891 0 6.75V3.75C0 3.55109 0.0790176 3.36032 0.21967 3.21967C0.360322 3.07902 0.551088 3 0.75 3H1.5ZM3 19.5V3C3 2.60218 3.15804 2.22064 3.43934 1.93934C3.72064 1.65804 4.10218 1.5 4.5 1.5H21C21.3978 1.5 21.7794 1.65804 22.0607 1.93934C22.342 2.22064 22.5 2.60218 22.5 3V19.5C22.5 19.8978 22.342 20.2794 22.0607 20.5607C21.7794 20.842 21.3978 21 21 21H4.5C4.10218 21 3.72064 20.842 3.43934 20.5607C3.15804 20.2794 3 19.8978 3 19.5ZM17.25 3C17.4489 3 17.6397 3.07902 17.7803 3.21967C17.921 3.36032 18 3.55109 18 3.75V14.25C18 14.4489 17.921 14.6397 17.7803 14.7803C17.6397 14.921 17.4489 15 17.25 15C17.0511 15 16.8603 14.921 16.7197 14.7803C16.579 14.6397 16.5 14.4489 16.5 14.25V3.75C16.5 3.55109 16.579 3.36032 16.7197 3.21967C16.8603 3.07902 17.0511 3 17.25 3ZM20.25 3C20.4489 3 20.6397 3.07902 20.7803 3.21967C20.921 3.36032 21 3.55109 21 3.75V14.25C21 14.4489 20.921 14.6397 20.7803 14.7803C20.6397 14.921 20.4489 15 20.25 15C20.0511 15 19.8603 14.921 19.7197 14.7803C19.579 14.6397 19.5 14.4489 19.5 14.25V3.75C19.5 3.55109 19.579 3.36032 19.7197 3.21967C19.8603 3.07902 20.0511 3 20.25 3ZM5.25 15C5.05109 15 4.86032 15.079 4.71967 15.2197C4.57902 15.3603 4.5 15.5511 4.5 15.75C4.5 15.9489 4.57902 16.1397 4.71967 16.2803C4.86032 16.421 5.05109 16.5 5.25 16.5H14.25C14.4489 16.5 14.6397 16.421 14.7803 16.2803C14.921 16.1397 15 15.9489 15 15.75C15 15.5511 14.921 15.3603 14.7803 15.2197C14.6397 15.079 14.4489 15 14.25 15H5.25ZM5.25 18C5.05109 18 4.86032 18.079 4.71967 18.2197C4.57902 18.3603 4.5 18.5511 4.5 18.75C4.5 18.9489 4.57902 19.1397 4.71967 19.2803C4.86032 19.421 5.05109 19.5 5.25 19.5H14.25C14.4489 19.5 14.6397 19.421 14.7803 19.2803C14.921 19.1397 15 18.9489 15 18.75C15 18.5511 14.921 18.3603 14.7803 18.2197C14.6397 18.079 14.4489 18 14.25 18H5.25ZM7.5 4.5C7.10218 4.5 6.72064 4.65804 6.43934 4.93934C6.15804 5.22064 6 5.60218 6 6H5.25C5.05109 6 4.86032 6.07902 4.71967 6.21967C4.57902 6.36032 4.5 6.55109 4.5 6.75C4.5 6.94891 4.57902 7.13968 4.71967 7.28033C4.86032 7.42098 5.05109 7.5 5.25 7.5H6V9H5.25C5.05109 9 4.86032 9.07902 4.71967 9.21967C4.57902 9.36032 4.5 9.55109 4.5 9.75C4.5 9.94891 4.57902 10.1397 4.71967 10.2803C4.86032 10.421 5.05109 10.5 5.25 10.5H6C6 10.8978 6.15804 11.2794 6.43934 11.5607C6.72064 11.842 7.10218 12 7.5 12V12.75C7.5 12.9489 7.57902 13.1397 7.71967 13.2803C7.86032 13.421 8.05109 13.5 8.25 13.5C8.44891 13.5 8.63968 13.421 8.78033 13.2803C8.92098 13.1397 9 12.9489 9 12.75V12H10.5V12.75C10.5 12.9489 10.579 13.1397 10.7197 13.2803C10.8603 13.421 11.0511 13.5 11.25 13.5C11.4489 13.5 11.6397 13.421 11.7803 13.2803C11.921 13.1397 12 12.9489 12 12.75V12C12.3978 12 12.7794 11.842 13.0607 11.5607C13.342 11.2794 13.5 10.8978 13.5 10.5H14.25C14.4489 10.5 14.6397 10.421 14.7803 10.2803C14.921 10.1397 15 9.94891 15 9.75C15 9.55109 14.921 9.36032 14.7803 9.21967C14.6397 9.07902 14.4489 9 14.25 9H13.5V7.5H14.25C14.4489 7.5 14.6397 7.42098 14.7803 7.28033C14.921 7.13968 15 6.94891 15 6.75C15 6.55109 14.921 6.36032 14.7803 6.21967C14.6397 6.07902 14.4489 6 14.25 6H13.5C13.5 5.60218 13.342 5.22064 13.0607 4.93934C12.7794 4.65804 12.3978 4.5 12 4.5V3.75C12 3.55109 11.921 3.36032 11.7803 3.21967C11.6397 3.07902 11.4489 3 11.25 3C11.0511 3 10.8603 3.07902 10.7197 3.21967C10.579 3.36032 10.5 3.55109 10.5 3.75V4.5H9V3.75C9 3.55109 8.92098 3.36032 8.78033 3.21967C8.63968 3.07902 8.44891 3 8.25 3C8.05109 3 7.86032 3.07902 7.71967 3.21967C7.57902 3.36032 7.5 3.55109 7.5 3.75V4.5ZM7.5 9.75V6H12V10.5H7.5V9.75ZM17.25 16.5C17.0511 16.5 16.8603 16.579 16.7197 16.7197C16.579 16.8603 16.5 17.0511 16.5 17.25V18.75C16.5 18.9489 16.579 19.1397 16.7197 19.2803C16.8603 19.421 17.0511 19.5 17.25 19.5H20.25C20.4489 19.5 20.6397 19.421 20.7803 19.2803C20.921 19.1397 21 18.9489 21 18.75V17.25C21 17.0511 20.921 16.8603 20.7803 16.7197C20.6397 16.579 20.4489 16.5 20.25 16.5H17.25Z" fill="black"/>
</svg>
