<svg width="24" height="24" viewBox="0 0 24 24" fill="none" xmlns="http://www.w3.org/2000/svg">
<path d="M4.5 7.5C4.5 5.51088 5.29018 3.60322 6.6967 2.1967C8.10322 0.790176 10.0109 0 12 0C13.9891 0 15.8968 0.790176 17.3033 2.1967C18.7098 3.60322 19.5 5.51088 19.5 7.5V16.5C19.5 18.4891 18.7098 20.3968 17.3033 21.8033C15.8968 23.2098 13.9891 24 12 24C10.0109 24 8.10322 23.2098 6.6967 21.8033C5.29018 20.3968 4.5 18.4891 4.5 16.5V7.5ZM12.75 5.25C12.75 5.05109 12.671 4.86032 12.5303 4.71967C12.3897 4.57902 12.1989 4.5 12 4.5C11.8011 4.5 11.6103 4.57902 11.4697 4.71967C11.329 4.86032 11.25 5.05109 11.25 5.25V8.25C11.25 8.44891 11.329 8.63968 11.4697 8.78033C11.6103 8.92098 11.8011 9 12 9C12.1989 9 12.3897 8.92098 12.5303 8.78033C12.671 8.63968 12.75 8.44891 12.75 8.25V5.25Z" fill="black"/>
</svg>
