<svg width="24" height="24" viewBox="0 0 24 24" fill="none" xmlns="http://www.w3.org/2000/svg">
<path d="M9 19.5C9 21.1575 7.32 22.5 5.25 22.5C3.18 22.5 1.5 21.1575 1.5 19.5C1.5 17.844 3.18 16.5 5.25 16.5C7.32 16.5 9 17.844 9 19.5ZM22.5 16.5C22.5 18.1575 20.82 19.5 18.75 19.5C16.68 19.5 15 18.1575 15 16.5C15 14.8425 16.68 13.5 18.75 13.5C20.82 13.5 22.5 14.8425 22.5 16.5Z" fill="black"/>
<path fill-rule="evenodd" clip-rule="evenodd" d="M21 16.5V3H22.5V16.5H21ZM9 4.5V19.5H7.5V4.5H9Z" fill="black"/>
<path d="M7.5 4.35773C7.5 3.98588 7.63812 3.62727 7.88756 3.35149C8.13701 3.07571 8.48001 2.90242 8.85 2.86523L20.85 1.66523C21.0586 1.64427 21.2692 1.66726 21.4684 1.73272C21.6676 1.79818 21.8508 1.90466 22.0062 2.04529C22.1617 2.18592 22.286 2.35757 22.371 2.54918C22.4561 2.74079 22.5 2.9481 22.5 3.15773V4.50023L7.5 6.00023V4.35773Z" fill="black"/>
</svg>
