<svg width="24" height="24" viewBox="0 0 24 24" fill="none" xmlns="http://www.w3.org/2000/svg">
<path d="M18 19.5C18 21.1575 16.32 22.5 14.25 22.5C12.18 22.5 10.5 21.1575 10.5 19.5C10.5 17.8425 12.18 16.5 14.25 16.5C16.32 16.5 18 17.8425 18 19.5Z" fill="black"/>
<path fill-rule="evenodd" clip-rule="evenodd" d="M18 4.5V19.5H16.5V4.5H18Z" fill="black"/>
<path d="M16.5 4.23015C16.5002 3.88351 16.6205 3.54764 16.8403 3.27965C17.0602 3.01166 17.3661 2.82809 17.706 2.76015L22.206 1.86015C22.4235 1.81667 22.648 1.82198 22.8632 1.8757C23.0785 1.92942 23.2791 2.03021 23.4507 2.17081C23.6223 2.31141 23.7606 2.48832 23.8555 2.68879C23.9505 2.88927 23.9999 3.10831 24 3.33015V6.00015L16.5 7.50015V4.23015Z" fill="black"/>
<path fill-rule="evenodd" clip-rule="evenodd" d="M0 17.25C0 17.0511 0.0790176 16.8603 0.21967 16.7197C0.360322 16.579 0.551088 16.5 0.75 16.5H6C6.19891 16.5 6.38968 16.579 6.53033 16.7197C6.67098 16.8603 6.75 17.0511 6.75 17.25C6.75 17.4489 6.67098 17.6397 6.53033 17.7803C6.38968 17.921 6.19891 18 6 18H0.75C0.551088 18 0.360322 17.921 0.21967 17.7803C0.0790176 17.6397 0 17.4489 0 17.25ZM0 11.25C0 11.0511 0.0790176 10.8603 0.21967 10.7197C0.360322 10.579 0.551088 10.5 0.75 10.5H12C12.1989 10.5 12.3897 10.579 12.5303 10.7197C12.671 10.8603 12.75 11.0511 12.75 11.25C12.75 11.4489 12.671 11.6397 12.5303 11.7803C12.3897 11.921 12.1989 12 12 12H0.75C0.551088 12 0.360322 11.921 0.21967 11.7803C0.0790176 11.6397 0 11.4489 0 11.25ZM0 5.25C0 5.05109 0.0790176 4.86032 0.21967 4.71967C0.360322 4.57902 0.551088 4.5 0.75 4.5H12C12.1989 4.5 12.3897 4.57902 12.5303 4.71967C12.671 4.86032 12.75 5.05109 12.75 5.25C12.75 5.44891 12.671 5.63968 12.5303 5.78033C12.3897 5.92098 12.1989 6 12 6H0.75C0.551088 6 0.360322 5.92098 0.21967 5.78033C0.0790176 5.63968 0 5.44891 0 5.25Z" fill="black"/>
</svg>
