<svg width="24" height="24" viewBox="0 0 24 24" fill="none" xmlns="http://www.w3.org/2000/svg">
<path d="M13.5 19.5C13.5 21.1575 11.82 22.5 9.75 22.5C7.68 22.5 6 21.1575 6 19.5C6 17.8425 7.68 16.5 9.75 16.5C11.82 16.5 13.5 17.8425 13.5 19.5Z" fill="black"/>
<path fill-rule="evenodd" clip-rule="evenodd" d="M13.5 4.5V19.5H12V4.5H13.5Z" fill="black"/>
<path d="M12 4.23015C12.0002 3.88351 12.1205 3.54764 12.3403 3.27965C12.5602 3.01166 12.8661 2.82809 13.206 2.76015L17.706 1.86015C17.9235 1.81667 18.148 1.82198 18.3632 1.8757C18.5785 1.92942 18.7791 2.03021 18.9507 2.17081C19.1223 2.31141 19.2606 2.48832 19.3555 2.68879C19.4505 2.88927 19.4999 3.10831 19.5 3.33015V6.00015L12 7.50015V4.23015Z" fill="black"/>
</svg>
