<svg width="24" height="24" viewBox="0 0 24 24" fill="none" xmlns="http://www.w3.org/2000/svg">
<g clip-path="url(#clip0_2_7571)">
<path d="M4.50943e-06 3.75C4.50943e-06 3.15326 0.237057 2.58097 0.659014 2.15901C1.08097 1.73705 1.65327 1.5 2.25 1.5H18.75C19.3467 1.5 19.919 1.73705 20.341 2.15901C20.763 2.58097 21 3.15326 21 3.75V19.542C21 19.992 20.925 20.523 20.643 21H21.75C21.9489 21 22.1397 20.921 22.2803 20.7803C22.421 20.6397 22.5 20.4489 22.5 20.25V6.75C22.5 6.55109 22.579 6.36032 22.7197 6.21967C22.8603 6.07902 23.0511 6 23.25 6C23.4489 6 23.6397 6.07902 23.7803 6.21967C23.921 6.36032 24 6.55109 24 6.75V20.25C24 20.8467 23.763 21.419 23.341 21.841C22.919 22.2629 22.3467 22.5 21.75 22.5H2.2455C1.95024 22.5 1.65788 22.4418 1.38515 22.3286C1.11242 22.2155 0.864676 22.0497 0.656103 21.8407C0.44753 21.6317 0.282222 21.3837 0.16964 21.1107C0.0570577 20.8377 -0.000587199 20.5453 4.50943e-06 20.25V3.75ZM18 21C18.555 21 18.981 20.6835 19.2795 20.3385C19.4175 20.1795 19.5 19.92 19.5 19.542V3.75C19.5 3.55109 19.421 3.36032 19.2803 3.21967C19.1397 3.07902 18.9489 3 18.75 3H2.25C2.05109 3 1.86033 3.07902 1.71967 3.21967C1.57902 3.36032 1.5 3.55109 1.5 3.75V20.25C1.5 20.667 1.8345 21 2.2455 21H18Z" fill="black"/>
<path d="M3 4.5H18V7.5H3V4.5ZM3 9H9V13.5H3V9ZM3 15H9V16.5H3V15ZM3 18H9V19.5H3V18ZM10.5 9H13.5V10.5H10.5V9ZM15 9H18V10.5H15V9ZM10.5 12H13.5V13.5H10.5V12ZM15 12H18V13.5H15V12ZM10.5 15H13.5V16.5H10.5V15ZM15 15H18V16.5H15V15ZM10.5 18H13.5V19.5H10.5V18ZM15 18H18V19.5H15V18Z" fill="black"/>
</g>
<defs>
<clipPath id="clip0_2_7571">
<rect width="24" height="24" fill="white"/>
</clipPath>
</defs>
</svg>
