<svg width="24" height="24" viewBox="0 0 24 24" fill="none" xmlns="http://www.w3.org/2000/svg">
<path fill-rule="evenodd" clip-rule="evenodd" d="M24 12C24.0002 13.9243 23.2608 15.775 21.9348 17.1694C20.6087 18.5638 18.7973 19.3952 16.8755 19.4915C14.9536 19.5878 13.0682 18.9418 11.6093 17.687C10.1505 16.4322 9.22969 14.6646 9.0375 12.75H6C6 13.3467 5.76295 13.919 5.34099 14.341C4.91903 14.7629 4.34674 15 3.75 15H2.25C1.65326 15 1.08097 14.7629 0.65901 14.341C0.237053 13.919 0 13.3467 0 12.75L0 11.25C0 10.6532 0.237053 10.0809 0.65901 9.65898C1.08097 9.23702 1.65326 8.99997 2.25 8.99997H3.75C4.34674 8.99997 4.91903 9.23702 5.34099 9.65898C5.76295 10.0809 6 10.6532 6 11.25H9.0375C9.22969 9.33531 10.1505 7.56776 11.6093 6.31296C13.0682 5.05816 14.9536 4.4121 16.8755 4.50844C18.7973 4.60477 20.6087 5.43612 21.9348 6.83052C23.2608 8.22492 24.0002 10.0757 24 12ZM21 12C21 11.8011 20.921 11.6103 20.7803 11.4696C20.6397 11.329 20.4489 11.25 20.25 11.25H12.75C12.5511 11.25 12.3603 11.329 12.2197 11.4696C12.079 11.6103 12 11.8011 12 12C12 12.1989 12.079 12.3896 12.2197 12.5303C12.3603 12.671 12.5511 12.75 12.75 12.75H20.25C20.4489 12.75 20.6397 12.671 20.7803 12.5303C20.921 12.3896 21 12.1989 21 12Z" fill="black"/>
</svg>
