<svg width="24" height="24" viewBox="0 0 24 24" fill="none" xmlns="http://www.w3.org/2000/svg">
<path fill-rule="evenodd" clip-rule="evenodd" d="M16.5 6.00001C14.9087 6.00001 13.3826 6.63215 12.2574 7.75737C11.1321 8.88259 10.5 10.4087 10.5 12C10.5 13.5913 11.1321 15.1174 12.2574 16.2426C13.3826 17.3679 14.9087 18 16.5 18C18.0913 18 19.6174 17.3679 20.7426 16.2426C21.8679 15.1174 22.5 13.5913 22.5 12C22.5 10.4087 21.8679 8.88259 20.7426 7.75737C19.6174 6.63215 18.0913 6.00001 16.5 6.00001ZM9.0375 11.25C9.22991 9.33553 10.1508 7.56823 11.6096 6.31363C13.0684 5.05902 14.9537 4.41309 16.8754 4.50941C18.7971 4.60574 20.6083 5.43696 21.9343 6.83116C23.2604 8.22536 23.9999 10.0759 23.9999 12C23.9999 13.9241 23.2604 15.7747 21.9343 17.1689C20.6083 18.5631 18.7971 19.3943 16.8754 19.4906C14.9537 19.5869 13.0684 18.941 11.6096 17.6864C10.1508 16.4318 9.22991 14.6645 9.0375 12.75H6C6 13.3467 5.76295 13.919 5.34099 14.341C4.91903 14.763 4.34674 15 3.75 15H2.25C1.65326 15 1.08097 14.763 0.65901 14.341C0.237053 13.919 0 13.3467 0 12.75L0 11.25C0 10.6533 0.237053 10.081 0.65901 9.65902C1.08097 9.23706 1.65326 9.00001 2.25 9.00001H3.75C4.34674 9.00001 4.91903 9.23706 5.34099 9.65902C5.76295 10.081 6 10.6533 6 11.25H9.0375ZM2.25 10.5C2.05109 10.5 1.86032 10.579 1.71967 10.7197C1.57902 10.8603 1.5 11.0511 1.5 11.25V12.75C1.5 12.9489 1.57902 13.1397 1.71967 13.2803C1.86032 13.421 2.05109 13.5 2.25 13.5H3.75C3.94891 13.5 4.13968 13.421 4.28033 13.2803C4.42098 13.1397 4.5 12.9489 4.5 12.75V11.25C4.5 11.0511 4.42098 10.8603 4.28033 10.7197C4.13968 10.579 3.94891 10.5 3.75 10.5H2.25ZM12 12C12 11.8011 12.079 11.6103 12.2197 11.4697C12.3603 11.329 12.5511 11.25 12.75 11.25H20.25C20.4489 11.25 20.6397 11.329 20.7803 11.4697C20.921 11.6103 21 11.8011 21 12C21 12.1989 20.921 12.3897 20.7803 12.5303C20.6397 12.671 20.4489 12.75 20.25 12.75H12.75C12.5511 12.75 12.3603 12.671 12.2197 12.5303C12.079 12.3897 12 12.1989 12 12Z" fill="black"/>
</svg>
