<svg width="24" height="24" viewBox="0 0 24 24" fill="none" xmlns="http://www.w3.org/2000/svg">
<path d="M1.5 3.75C1.5 3.55109 1.57902 3.36032 1.71967 3.21967C1.86032 3.07902 2.05109 3 2.25 3H7.9455C8.08016 2.9999 8.21237 3.03606 8.32824 3.10469C8.44411 3.17331 8.53936 3.27186 8.604 3.39L16.5 19.5H21.75C21.9489 19.5 22.1397 19.579 22.2803 19.7197C22.421 19.8603 22.5 20.0511 22.5 20.25C22.5 20.4489 22.421 20.6397 22.2803 20.7803C22.1397 20.921 21.9489 21 21.75 21H16.0545C15.9198 21.0001 15.7876 20.9639 15.6718 20.8953C15.5559 20.8267 15.4606 20.7281 15.396 20.61L7.5 4.5H2.25C2.05109 4.5 1.86032 4.42098 1.71967 4.28033C1.57902 4.13968 1.5 3.94891 1.5 3.75ZM16.5 3.75C16.5 3.55109 16.579 3.36032 16.7197 3.21967C16.8603 3.07902 17.0511 3 17.25 3H21.75C21.9489 3 22.1397 3.07902 22.2803 3.21967C22.421 3.36032 22.5 3.55109 22.5 3.75C22.5 3.94891 22.421 4.13968 22.2803 4.28033C22.1397 4.42098 21.9489 4.5 21.75 4.5H17.25C17.0511 4.5 16.8603 4.42098 16.7197 4.28033C16.579 4.13968 16.5 3.94891 16.5 3.75Z" fill="black"/>
</svg>
