<svg width="24" height="24" viewBox="0 0 24 24" fill="none" xmlns="http://www.w3.org/2000/svg">
<path d="M9.28802 4.1698C8.60102 3.1543 7.89752 2.2978 7.26302 1.7053C6.94818 1.39654 6.58928 1.13621 6.19802 0.932797C5.87252 0.776797 5.35802 0.625297 4.87502 0.902797C4.32452 1.2223 4.23452 1.8478 4.23002 2.2468C4.22552 2.7028 4.32602 3.2428 4.48952 3.8128C4.78352 4.8433 5.32352 6.1048 6.04202 7.4158L1.12802 12.3298C0.712524 12.7453 0.724524 13.3138 0.801024 13.7068C0.883524 14.1313 1.08152 14.5963 1.34102 15.0613C1.86302 16.0018 2.72102 17.1028 3.78002 18.1633C4.84052 19.2238 5.94152 20.0803 6.88202 20.6023C7.34702 20.8618 7.81202 21.0598 8.23652 21.1423C8.62952 21.2173 9.19652 21.2308 9.61352 20.8153L18.036 12.3928C18.213 12.7783 18.174 13.1608 18.111 13.8013C18.066 14.2393 18.009 14.7988 18.0015 15.5653V15.7498H18.006C18.0375 16.1246 18.2086 16.4739 18.4854 16.7285C18.7623 16.9831 19.1247 17.1244 19.5008 17.1244C19.8769 17.1244 20.2393 16.9831 20.5161 16.7285C20.793 16.4739 20.9641 16.1246 20.9955 15.7498H21V15.6643C21.0014 15.6057 20.9994 15.5471 20.994 15.4888C20.9115 13.6138 19.944 11.3818 18.204 10.2478C18.1107 10.0251 18.0051 9.80773 17.8875 9.5968C17.364 8.6578 16.5075 7.5568 15.447 6.4963C14.3865 5.4358 13.2855 4.5778 12.345 4.0558C11.88 3.7978 11.415 3.5998 10.9905 3.5158C10.5975 3.4408 10.0305 3.4288 9.61352 3.8443L9.28802 4.1683V4.1698ZM6.24002 2.8003C6.81152 3.3343 7.50602 4.1833 8.20652 5.2483L7.15052 6.3058C6.57752 5.2153 6.16052 4.2028 5.93102 3.3988C5.83047 3.07008 5.76461 2.73173 5.73452 2.3893C5.87102 2.4808 6.04052 2.6143 6.24002 2.8003ZM6.83102 8.7478C7.64102 10.0258 8.49152 11.0983 9.24152 11.7973C9.31362 11.8645 9.39824 11.9168 9.49055 11.9513C9.58287 11.9857 9.68106 12.0017 9.77954 11.9982C9.87802 11.9947 9.97484 11.9719 10.0645 11.931C10.1541 11.8901 10.2349 11.8319 10.302 11.7598C10.3692 11.6877 10.4215 11.6031 10.456 11.5108C10.4904 11.4185 10.5064 11.3203 10.5029 11.2218C10.4994 11.1233 10.4766 11.0265 10.4357 10.9368C10.3948 10.8472 10.3366 10.7665 10.2645 10.6993C9.58502 10.0663 8.73902 8.9953 7.91852 7.6588L9.55052 6.0268C9.63152 6.2068 9.72302 6.3913 9.82502 6.5743C10.3485 7.5148 11.205 8.6158 12.2655 9.6763C13.3245 10.7368 14.4255 11.5933 15.3675 12.1153C15.5505 12.2173 15.7335 12.3103 15.915 12.3898L8.62352 19.6828C8.58925 19.6798 8.55519 19.6748 8.52152 19.6678C8.31602 19.6273 8.00852 19.5118 7.60952 19.2898C6.82352 18.8518 5.83052 18.0898 4.84052 17.0998C3.85052 16.1098 3.08852 15.1198 2.65052 14.3308C2.43002 13.9333 2.31302 13.6258 2.27402 13.4203C2.26699 13.3866 2.26198 13.3526 2.25902 13.3183L6.83102 8.7478ZM11.136 5.8453C10.9808 5.58104 10.8593 5.29833 10.7745 5.0038C10.977 5.0533 11.2605 5.1688 11.6175 5.3653C12.4035 5.8033 13.3965 6.5653 14.3865 7.5553C15.0615 8.2303 15.6315 8.9068 16.0635 9.5203C15.5267 9.48351 14.9874 9.52955 14.4645 9.6568C14.0689 9.32734 13.6885 8.97998 13.3245 8.6158C12.3345 7.6258 11.574 6.6328 11.1375 5.8453H11.136Z" fill="black"/>
</svg>
