<svg width="24" height="24" viewBox="0 0 24 24" fill="none" xmlns="http://www.w3.org/2000/svg">
<g clip-path="url(#clip0_2_7561)">
<path d="M0 0.75C0 0.551088 0.0790176 0.360322 0.21967 0.21967C0.360322 0.0790176 0.551088 0 0.75 0L8.25 0C8.44891 0 8.63968 0.0790176 8.78033 0.21967C8.92098 0.360322 9 0.551088 9 0.75V8.6655L15.2205 2.469C15.3611 2.3284 15.5519 2.24941 15.7507 2.24941C15.9496 2.24941 16.1404 2.3284 16.281 2.469L21.5835 7.773C21.6533 7.84267 21.7088 7.92543 21.7466 8.01655C21.7844 8.10767 21.8038 8.20535 21.8038 8.304C21.8038 8.40265 21.7844 8.50033 21.7466 8.59145C21.7088 8.68257 21.6533 8.76533 21.5835 8.835L15.3915 15H23.25C23.4489 15 23.6397 15.079 23.7803 15.2197C23.921 15.3603 24 15.5511 24 15.75V23.25C24 23.4489 23.921 23.6397 23.7803 23.7803C23.6397 23.921 23.4489 24 23.25 24H4.5C3.90898 24.0007 3.32365 23.8846 2.77765 23.6583C2.23166 23.432 1.73577 23.1001 1.3185 22.6815C0.489166 21.8549 0.0159661 20.7368 0 19.566L0 0.75ZM9 19.251L19.992 8.301L15.7485 4.059L9 10.782V19.2525V19.251ZM6.75 19.5C6.75 18.9033 6.51295 18.331 6.09099 17.909C5.66903 17.4871 5.09674 17.25 4.5 17.25C3.90326 17.25 3.33097 17.4871 2.90901 17.909C2.48705 18.331 2.25 18.9033 2.25 19.5C2.25 20.0967 2.48705 20.669 2.90901 21.091C3.33097 21.5129 3.90326 21.75 4.5 21.75C5.09674 21.75 5.66903 21.5129 6.09099 21.091C6.51295 20.669 6.75 20.0967 6.75 19.5ZM22.5 22.5V16.5H13.887L7.8645 22.5H22.5ZM0 0.75V19.4925V0.75Z" fill="black"/>
</g>
<defs>
<clipPath id="clip0_2_7561">
<rect width="24" height="24" fill="white"/>
</clipPath>
</defs>
</svg>
