<svg width="24" height="24" viewBox="0 0 24 24" fill="none" xmlns="http://www.w3.org/2000/svg">
<g clip-path="url(#clip0_2_8757)">
<path d="M8.89915 1.30529C9.3029 0.892104 9.78517 0.563784 10.3176 0.339627C10.8501 0.115471 11.4219 0 11.9996 0C12.5774 0 13.1492 0.115471 13.6817 0.339627C14.2141 0.563784 14.6964 0.892104 15.1001 1.30529L16.0331 2.26229L17.3681 2.24579C17.946 2.23895 18.5194 2.34773 19.0547 2.56572C19.5899 2.78372 20.0761 3.10653 20.4848 3.51518C20.8934 3.92383 21.2162 4.41006 21.4342 4.94529C21.6522 5.48051 21.761 6.05392 21.7541 6.63179L21.7391 7.96679L22.6931 8.89979C23.1063 9.30355 23.4347 9.78582 23.6588 10.3183C23.883 10.8507 23.9984 11.4226 23.9984 12.0003C23.9984 12.578 23.883 13.1499 23.6588 13.6823C23.4347 14.2148 23.1063 14.697 22.6931 15.1008L21.7376 16.0338L21.7541 17.3688C21.761 17.9467 21.6522 18.5201 21.4342 19.0553C21.2162 19.5905 20.8934 20.0768 20.4848 20.4854C20.0761 20.8941 19.5899 21.2169 19.0547 21.4349C18.5194 21.6529 17.946 21.7616 17.3681 21.7548L16.0331 21.7398L15.1001 22.6938C14.6964 23.107 14.2141 23.4353 13.6817 23.6595C13.1492 23.8836 12.5774 23.9991 11.9996 23.9991C11.4219 23.9991 10.8501 23.8836 10.3176 23.6595C9.78517 23.4353 9.3029 23.107 8.89915 22.6938L7.96615 21.7383L6.63115 21.7548C6.05327 21.7616 5.47986 21.6529 4.94464 21.4349C4.40942 21.2169 3.92318 20.8941 3.51454 20.4854C3.10589 20.0768 2.78307 19.5905 2.56508 19.0553C2.34708 18.5201 2.23831 17.9467 2.24515 17.3688L2.26015 16.0338L1.30615 15.1008C0.892958 14.697 0.564638 14.2148 0.340482 13.6823C0.116325 13.1499 0.000854492 12.578 0.000854492 12.0003C0.000854492 11.4226 0.116325 10.8507 0.340482 10.3183C0.564638 9.78582 0.892958 9.30355 1.30615 8.89979L2.26165 7.96679L2.24515 6.63179C2.23831 6.05392 2.34708 5.48051 2.56508 4.94529C2.78307 4.41006 3.10589 3.92383 3.51454 3.51518C3.92318 3.10653 4.40942 2.78372 4.94464 2.56572C5.47986 2.34773 6.05327 2.23895 6.63115 2.24579L7.96615 2.26079L8.89915 1.30679V1.30529ZM10.5026 16.5003C10.5026 16.6973 10.5414 16.8923 10.6168 17.0743C10.6922 17.2563 10.8027 17.4217 10.942 17.561C11.0813 17.7002 11.2466 17.8107 11.4286 17.8861C11.6106 17.9615 11.8057 18.0003 12.0026 18.0003C12.1996 18.0003 12.3947 17.9615 12.5767 17.8861C12.7587 17.8107 12.924 17.7002 13.0633 17.561C13.2026 17.4217 13.3131 17.2563 13.3885 17.0743C13.4638 16.8923 13.5026 16.6973 13.5026 16.5003C13.5026 16.1025 13.3446 15.7209 13.0633 15.4396C12.782 15.1583 12.4005 15.0003 12.0026 15.0003C11.6048 15.0003 11.2233 15.1583 10.942 15.4396C10.6607 15.7209 10.5026 16.1025 10.5026 16.5003ZM12.9056 13.4598C12.9656 12.6588 13.2026 12.2373 14.1746 11.5698C15.1856 10.8573 15.7496 9.93479 15.7496 8.59079C15.7496 6.60329 14.3696 5.25029 12.3566 5.25029C10.8266 5.25029 9.66865 5.98829 9.20665 7.18529C9.06664 7.51221 8.99615 7.86467 8.99965 8.22029C8.99965 8.80979 9.30415 9.18029 9.81715 9.18029C10.2251 9.18029 10.4996 8.95979 10.6631 8.41529C10.9001 7.52729 11.4506 7.04279 12.2741 7.04279C13.1891 7.04279 13.8191 7.71179 13.8191 8.66879C13.8191 9.51329 13.5071 9.99629 12.5861 10.6563C11.6576 11.3058 11.1971 12.0273 11.1971 13.1163V13.2828C11.1971 13.9248 11.5091 14.4003 12.0746 14.4003C12.5786 14.4003 12.8306 14.0403 12.9056 13.4598Z" fill="black"/>
</g>
<defs>
<clipPath id="clip0_2_8757">
<rect width="24" height="24" fill="white"/>
</clipPath>
</defs>
</svg>
