<svg width="24" height="24" viewBox="0 0 24 24" fill="none" xmlns="http://www.w3.org/2000/svg">
<g clip-path="url(#clip0_2_7553)">
<path d="M12 22.5C9.21523 22.5 6.54451 21.3938 4.57538 19.4246C2.60625 17.4555 1.5 14.7848 1.5 12C1.5 9.21523 2.60625 6.54451 4.57538 4.57538C6.54451 2.60625 9.21523 1.5 12 1.5C14.7848 1.5 17.4555 2.60625 19.4246 4.57538C21.3938 6.54451 22.5 9.21523 22.5 12C22.5 14.7848 21.3938 17.4555 19.4246 19.4246C17.4555 21.3938 14.7848 22.5 12 22.5ZM12 24C15.1826 24 18.2348 22.7357 20.4853 20.4853C22.7357 18.2348 24 15.1826 24 12C24 8.8174 22.7357 5.76516 20.4853 3.51472C18.2348 1.26428 15.1826 0 12 0C8.8174 0 5.76516 1.26428 3.51472 3.51472C1.26428 5.76516 0 8.8174 0 12C0 15.1826 1.26428 18.2348 3.51472 20.4853C5.76516 22.7357 8.8174 24 12 24Z" fill="black"/>
<path d="M7.5 9.375C7.5 8.87772 7.69754 8.40081 8.04917 8.04917C8.40081 7.69754 8.87772 7.5 9.375 7.5C9.87228 7.5 10.3492 7.69754 10.7008 8.04917C11.0525 8.40081 11.25 8.87772 11.25 9.375V14.625C11.25 15.1223 11.0525 15.5992 10.7008 15.9508C10.3492 16.3025 9.87228 16.5 9.375 16.5C8.87772 16.5 8.40081 16.3025 8.04917 15.9508C7.69754 15.5992 7.5 15.1223 7.5 14.625V9.375ZM12.75 9.375C12.75 8.87772 12.9475 8.40081 13.2992 8.04917C13.6508 7.69754 14.1277 7.5 14.625 7.5C15.1223 7.5 15.5992 7.69754 15.9508 8.04917C16.3025 8.40081 16.5 8.87772 16.5 9.375V14.625C16.5 15.1223 16.3025 15.5992 15.9508 15.9508C15.5992 16.3025 15.1223 16.5 14.625 16.5C14.1277 16.5 13.6508 16.3025 13.2992 15.9508C12.9475 15.5992 12.75 15.1223 12.75 14.625V9.375Z" fill="black"/>
</g>
<defs>
<clipPath id="clip0_2_7553">
<rect width="24" height="24" fill="white"/>
</clipPath>
</defs>
</svg>
