<svg width="24" height="24" viewBox="0 0 24 24" fill="none" xmlns="http://www.w3.org/2000/svg">
<g clip-path="url(#clip0_2_7550)">
<path fill-rule="evenodd" clip-rule="evenodd" d="M21.09 5.5695C21.27 3.963 20.9505 2.8215 20.037 1.7805C18.942 0.534 16.968 0 14.439 0H7.10096C6.85116 0.000108174 6.60958 0.0892713 6.41961 0.251477C6.22964 0.413682 6.10372 0.638303 6.06446 0.885L3.00746 20.2635C2.99314 20.3535 2.99852 20.4455 3.02322 20.5333C3.04792 20.621 3.09136 20.7023 3.15054 20.7716C3.20972 20.8409 3.28323 20.8965 3.366 20.9347C3.44877 20.9728 3.53883 20.9925 3.62996 20.9925H7.76396L7.46096 22.9125C7.43972 23.0469 7.44787 23.1844 7.48483 23.3153C7.5218 23.4463 7.5867 23.5677 7.67509 23.6712C7.76347 23.7747 7.87323 23.8579 7.99681 23.9149C8.1204 23.9719 8.25486 24.0014 8.39096 24.0015H12.21C12.8535 24.0015 13.3995 23.5365 13.503 22.905L13.5405 22.71L14.2605 18.1455L14.3055 17.8995L14.307 17.889C14.3263 17.7646 14.3896 17.6513 14.4854 17.5695C14.5812 17.4878 14.7031 17.4431 14.829 17.4435H15.399C17.298 17.4435 19.0365 17.0595 20.4165 16.0785C20.985 15.6735 21.4845 15.174 21.906 14.571C22.6059 13.5965 23.0589 12.4667 23.226 11.2785C23.589 9.4095 23.421 7.7445 22.371 6.5475C22.0473 6.18632 21.6611 5.88651 21.231 5.6625L21.09 5.571V5.5695ZM9.81446 13.23L8.54696 21.0495V21.051L8.23496 23.031C8.21996 23.13 8.29496 23.2155 8.39246 23.2155H12.21C12.4695 23.2155 12.69 23.028 12.732 22.7715V22.764L12.771 22.5705L13.491 18.006L13.536 17.76C13.5855 17.4528 13.7429 17.1732 13.9798 16.9715C14.2167 16.7697 14.5178 16.659 14.829 16.659H15.399C17.2005 16.659 18.759 16.293 19.9635 15.4365C21.159 14.586 22.0485 13.221 22.458 11.1255C22.8015 9.363 22.602 7.995 21.783 7.0605C21.5472 6.79749 21.2695 6.57547 20.961 6.4035L20.9565 6.4275C19.989 11.3955 16.677 13.1115 12.4485 13.1115H10.296C10.1283 13.1117 9.96309 13.1523 9.81446 13.23Z" fill="black"/>
</g>
<defs>
<clipPath id="clip0_2_7550">
<rect width="24" height="24" fill="white"/>
</clipPath>
</defs>
</svg>
