<svg width="24" height="24" viewBox="0 0 24 24" fill="none" xmlns="http://www.w3.org/2000/svg">
<g clip-path="url(#clip0_2_7891)">
<path fill-rule="evenodd" clip-rule="evenodd" d="M2.25 0C1.65326 0 1.08097 0.237053 0.65901 0.65901C0.237053 1.08097 0 1.65326 0 2.25L0 12.75C0 13.3467 0.237053 13.919 0.65901 14.341C1.08097 14.7629 1.65326 15 2.25 15H9V16.5H1.5C1.10218 16.5 0.720644 16.658 0.43934 16.9393C0.158035 17.2206 0 17.6022 0 18L0 22.5C0 22.8978 0.158035 23.2794 0.43934 23.5607C0.720644 23.842 1.10218 24 1.5 24H22.5C22.8978 24 23.2794 23.842 23.5607 23.5607C23.842 23.2794 24 22.8978 24 22.5V18C24 17.6022 23.842 17.2206 23.5607 16.9393C23.2794 16.658 22.8978 16.5 22.5 16.5H15V15H21.75C22.3467 15 22.919 14.7629 23.341 14.341C23.7629 13.919 24 13.3467 24 12.75V2.25C24 1.65326 23.7629 1.08097 23.341 0.65901C22.919 0.237053 22.3467 0 21.75 0L2.25 0ZM2.25 1.5C2.05109 1.5 1.86032 1.57902 1.71967 1.71967C1.57902 1.86032 1.5 2.05109 1.5 2.25V12.75C1.5 12.9489 1.57902 13.1397 1.71967 13.2803C1.86032 13.421 2.05109 13.5 2.25 13.5H21.75C21.9489 13.5 22.1397 13.421 22.2803 13.2803C22.421 13.1397 22.5 12.9489 22.5 12.75V2.25C22.5 2.05109 22.421 1.86032 22.2803 1.71967C22.1397 1.57902 21.9489 1.5 21.75 1.5H2.25ZM18 18.75C18 18.5511 18.079 18.3603 18.2197 18.2197C18.3603 18.079 18.5511 18 18.75 18C18.9489 18 19.1397 18.079 19.2803 18.2197C19.421 18.3603 19.5 18.5511 19.5 18.75C19.5 18.9489 19.421 19.1397 19.2803 19.2803C19.1397 19.421 18.9489 19.5 18.75 19.5C18.5511 19.5 18.3603 19.421 18.2197 19.2803C18.079 19.1397 18 18.9489 18 18.75ZM21 18.75C21 18.5511 21.079 18.3603 21.2197 18.2197C21.3603 18.079 21.5511 18 21.75 18C21.9489 18 22.1397 18.079 22.2803 18.2197C22.421 18.3603 22.5 18.5511 22.5 18.75C22.5 18.9489 22.421 19.1397 22.2803 19.2803C22.1397 19.421 21.9489 19.5 21.75 19.5C21.5511 19.5 21.3603 19.421 21.2197 19.2803C21.079 19.1397 21 18.9489 21 18.75ZM2.25 18C2.05109 18 1.86032 18.079 1.71967 18.2197C1.57902 18.3603 1.5 18.5511 1.5 18.75C1.5 18.9489 1.57902 19.1397 1.71967 19.2803C1.86032 19.421 2.05109 19.5 2.25 19.5H9.75C9.94891 19.5 10.1397 19.421 10.2803 19.2803C10.421 19.1397 10.5 18.9489 10.5 18.75C10.5 18.5511 10.421 18.3603 10.2803 18.2197C10.1397 18.079 9.94891 18 9.75 18H2.25ZM1.5 21.375C1.5 21.2755 1.53951 21.1802 1.60984 21.1098C1.68016 21.0395 1.77554 21 1.875 21H10.125C10.2245 21 10.3198 21.0395 10.3902 21.1098C10.4605 21.1802 10.5 21.2755 10.5 21.375C10.5 21.4745 10.4605 21.5698 10.3902 21.6402C10.3198 21.7105 10.2245 21.75 10.125 21.75H1.875C1.77554 21.75 1.68016 21.7105 1.60984 21.6402C1.53951 21.5698 1.5 21.4745 1.5 21.375Z" fill="black"/>
</g>
<defs>
<clipPath id="clip0_2_7891">
<rect width="24" height="24" fill="white"/>
</clipPath>
</defs>
</svg>
