<svg width="24" height="24" viewBox="0 0 24 24" fill="none" xmlns="http://www.w3.org/2000/svg">
<g clip-path="url(#clip0_2_7548)">
<path fill-rule="evenodd" clip-rule="evenodd" d="M1.5 9C1.10218 9 0.720644 9.15804 0.43934 9.43934C0.158035 9.72064 0 10.1022 0 10.5L0 15C0 15.3978 0.158035 15.7794 0.43934 16.0607C0.720644 16.342 1.10218 16.5 1.5 16.5H22.5C22.8978 16.5 23.2794 16.342 23.5607 16.0607C23.842 15.7794 24 15.3978 24 15V10.5C24 10.1022 23.842 9.72064 23.5607 9.43934C23.2794 9.15804 22.8978 9 22.5 9H1.5ZM18.75 10.5C18.5511 10.5 18.3603 10.579 18.2197 10.7197C18.079 10.8603 18 11.0511 18 11.25C18 11.4489 18.079 11.6397 18.2197 11.7803C18.3603 11.921 18.5511 12 18.75 12C18.9489 12 19.1397 11.921 19.2803 11.7803C19.421 11.6397 19.5 11.4489 19.5 11.25C19.5 11.0511 19.421 10.8603 19.2803 10.7197C19.1397 10.579 18.9489 10.5 18.75 10.5ZM21.75 10.5C21.5511 10.5 21.3603 10.579 21.2197 10.7197C21.079 10.8603 21 11.0511 21 11.25C21 11.4489 21.079 11.6397 21.2197 11.7803C21.3603 11.921 21.5511 12 21.75 12C21.9489 12 22.1397 11.921 22.2803 11.7803C22.421 11.6397 22.5 11.4489 22.5 11.25C22.5 11.0511 22.421 10.8603 22.2803 10.7197C22.1397 10.579 21.9489 10.5 21.75 10.5ZM1.5 11.25C1.5 11.0511 1.57902 10.8603 1.71967 10.7197C1.86032 10.579 2.05109 10.5 2.25 10.5H9.75C9.94891 10.5 10.1397 10.579 10.2803 10.7197C10.421 10.8603 10.5 11.0511 10.5 11.25C10.5 11.4489 10.421 11.6397 10.2803 11.7803C10.1397 11.921 9.94891 12 9.75 12H2.25C2.05109 12 1.86032 11.921 1.71967 11.7803C1.57902 11.6397 1.5 11.4489 1.5 11.25ZM1.875 13.5C1.77554 13.5 1.68016 13.5395 1.60984 13.6098C1.53951 13.6802 1.5 13.7755 1.5 13.875C1.5 13.9745 1.53951 14.0698 1.60984 14.1402C1.68016 14.2105 1.77554 14.25 1.875 14.25H10.125C10.2245 14.25 10.3198 14.2105 10.3902 14.1402C10.4605 14.0698 10.5 13.9745 10.5 13.875C10.5 13.7755 10.4605 13.6802 10.3902 13.6098C10.3198 13.5395 10.2245 13.5 10.125 13.5H1.875Z" fill="black"/>
</g>
<defs>
<clipPath id="clip0_2_7548">
<rect width="24" height="24" fill="white"/>
</clipPath>
</defs>
</svg>
