<svg width="24" height="24" viewBox="0 0 24 24" fill="none" xmlns="http://www.w3.org/2000/svg">
<g clip-path="url(#clip0_2_7545)">
<path d="M11.25 1.527C9.30596 1.66631 7.43906 2.34397 5.8583 3.48409C4.27754 4.62422 3.04531 6.18183 2.29956 7.98253C1.5538 9.78324 1.32396 11.756 1.63576 13.6799C1.94756 15.6038 2.78869 17.403 4.065 18.876L11.25 11.6895V1.527ZM12.75 1.527V11.6895L19.935 18.8745C21.2109 17.4015 22.0516 15.6024 22.3632 13.6787C22.6747 11.755 22.4448 9.78259 21.6991 7.98215C20.9534 6.18171 19.7213 4.62431 18.1408 3.48427C16.5603 2.34423 14.6938 1.66652 12.75 1.527ZM18.876 19.9365L12.75 13.8105V22.473C15.0131 22.3145 17.1633 21.4243 18.876 19.9365ZM11.25 22.473V13.8105L5.124 19.9365C6.83672 21.4243 8.98688 22.3145 11.25 22.473ZM0 12C0 8.8174 1.26428 5.76516 3.51472 3.51472C5.76516 1.26428 8.8174 0 12 0C15.1826 0 18.2348 1.26428 20.4853 3.51472C22.7357 5.76516 24 8.8174 24 12C24 15.1826 22.7357 18.2348 20.4853 20.4853C18.2348 22.7357 15.1826 24 12 24C8.8174 24 5.76516 22.7357 3.51472 20.4853C1.26428 18.2348 0 15.1826 0 12Z" fill="black"/>
</g>
<defs>
<clipPath id="clip0_2_7545">
<rect width="24" height="24" fill="white"/>
</clipPath>
</defs>
</svg>
