<svg width="24" height="24" viewBox="0 0 24 24" fill="none" xmlns="http://www.w3.org/2000/svg">
<g clip-path="url(#clip0_2_7885)">
<path d="M19.2809 0.219102C19.1402 0.0784983 18.9495 -0.000488281 18.7506 -0.000488281C18.5518 -0.000488281 18.361 0.0784983 18.2204 0.219102L15.7499 2.6896L21.3104 8.2501L23.7809 5.7811C23.8507 5.71143 23.9062 5.62867 23.944 5.53755C23.9818 5.44643 24.0012 5.34875 24.0012 5.2501C24.0012 5.15145 23.9818 5.05377 23.944 4.96265C23.9062 4.87153 23.8507 4.78877 23.7809 4.7191L19.2809 0.219102ZM20.2499 9.3106L14.6894 3.7501L4.93939 13.5001H5.24989C5.4488 13.5001 5.63957 13.5791 5.78022 13.7198C5.92087 13.8604 5.99989 14.0512 5.99989 14.2501V15.0001H6.74989C6.9488 15.0001 7.13957 15.0791 7.28022 15.2198C7.42087 15.3604 7.49989 15.5512 7.49989 15.7501V16.5001H8.24989C8.4488 16.5001 8.63957 16.5791 8.78022 16.7198C8.92087 16.8604 8.99989 17.0512 8.99989 17.2501V18.0001H9.74989C9.9488 18.0001 10.1396 18.0791 10.2802 18.2198C10.4209 18.3604 10.4999 18.5512 10.4999 18.7501V19.0606L20.2499 9.3106ZM9.04789 20.5126C9.01633 20.4287 9.00007 20.3398 8.99989 20.2501V19.5001H8.24989C8.05098 19.5001 7.86021 19.4211 7.71956 19.2804C7.57891 19.1398 7.49989 18.949 7.49989 18.7501V18.0001H6.74989C6.55098 18.0001 6.36021 17.9211 6.21956 17.7804C6.07891 17.6398 5.99989 17.449 5.99989 17.2501V16.5001H5.24989C5.05098 16.5001 4.86021 16.4211 4.71956 16.2804C4.57891 16.1398 4.49989 15.949 4.49989 15.7501V15.0001H3.74989C3.66022 15 3.57131 14.9837 3.48739 14.9521L3.21889 15.2191C3.14742 15.2911 3.09128 15.3768 3.05389 15.4711L0.0538922 22.9711C-0.000663785 23.1074 -0.014019 23.2567 0.0154821 23.4005C0.0449833 23.5443 0.116044 23.6763 0.219853 23.7801C0.323663 23.8839 0.455657 23.955 0.599471 23.9845C0.743286 24.014 0.892596 24.0007 1.02889 23.9461L8.52889 20.9461C8.62319 20.9087 8.70891 20.8526 8.78089 20.7811L9.04789 20.5141V20.5126Z" fill="black"/>
</g>
<defs>
<clipPath id="clip0_2_7885">
<rect width="24" height="24" fill="white"/>
</clipPath>
</defs>
</svg>
