<svg width="24" height="24" viewBox="0 0 24 24" fill="none" xmlns="http://www.w3.org/2000/svg">
<g clip-path="url(#clip0_2_7527)">
<path d="M6 24.0002C6 24.0002 4.5 24.0002 4.5 22.5002C4.5 21.0002 6 16.5002 12 16.5002C18 16.5002 19.5 21.0002 19.5 22.5002C19.5 24.0002 18 24.0002 18 24.0002H6ZM12 15.0752C12.9946 15.0752 13.9484 14.6801 14.6517 13.9768C15.3549 13.2736 15.75 12.3198 15.75 11.3252C15.75 10.3306 15.3549 9.37681 14.6517 8.67354C13.9484 7.97028 12.9946 7.5752 12 7.5752C11.0054 7.5752 10.0516 7.97028 9.34835 8.67354C8.64509 9.37681 8.25 10.3306 8.25 11.3252C8.25 12.3198 8.64509 13.2736 9.34835 13.9768C10.0516 14.6801 11.0054 15.0752 12 15.0752Z" fill="black"/>
<path d="M3 1.5C2.20435 1.5 1.44129 1.81607 0.87868 2.37868C0.316071 2.94129 0 3.70435 0 4.5L0 18.75C0 19.3467 0.237053 19.919 0.65901 20.341C1.08097 20.7629 1.65326 21 2.25 21H3.2295C3.54314 19.8977 4.08826 18.8749 4.8285 18H1.5V4.5C1.5 4.10218 1.65804 3.72064 1.93934 3.43934C2.22064 3.15804 2.60218 3 3 3H21C21.3978 3 21.7794 3.15804 22.0607 3.43934C22.342 3.72064 22.5 4.10218 22.5 4.5V18H19.1715C20.0025 18.981 20.5065 20.0595 20.7705 21H21.75C22.3467 21 22.919 20.7629 23.341 20.341C23.7629 19.919 24 19.3467 24 18.75V4.5C24 3.70435 23.6839 2.94129 23.1213 2.37868C22.5587 1.81607 21.7956 1.5 21 1.5H3Z" fill="black"/>
</g>
<defs>
<clipPath id="clip0_2_7527">
<rect width="24" height="24" fill="white"/>
</clipPath>
</defs>
</svg>
