<svg width="24" height="24" viewBox="0 0 24 24" fill="none" xmlns="http://www.w3.org/2000/svg">
<g clip-path="url(#clip0_2_8387)">
<path d="M15 13.5752C15.9946 13.5752 16.9484 13.1801 17.6517 12.4768C18.3549 11.7736 18.75 10.8198 18.75 9.8252C18.75 8.83063 18.3549 7.87681 17.6517 7.17354C16.9484 6.47028 15.9946 6.0752 15 6.0752C14.0054 6.0752 13.0516 6.47028 12.3483 7.17354C11.6451 7.87681 11.25 8.83063 11.25 9.8252C11.25 10.8198 11.6451 11.7736 12.3483 12.4768C13.0516 13.1801 14.0054 13.5752 15 13.5752Z" fill="black"/>
<path d="M3 1.5C2.20435 1.5 1.44129 1.81607 0.87868 2.37868C0.316071 2.94129 0 3.70435 0 4.5L0 18C0 18.7956 0.316071 19.5587 0.87868 20.1213C1.44129 20.6839 2.20435 21 3 21H21C21.7956 21 22.5587 20.6839 23.1213 20.1213C23.6839 19.5587 24 18.7956 24 18V4.5C24 3.70435 23.6839 2.94129 23.1213 2.37868C22.5587 1.81607 21.7956 1.5 21 1.5H3ZM1.5 4.5C1.5 4.10218 1.65804 3.72064 1.93934 3.43934C2.22064 3.15804 2.60218 3 3 3H6V6H1.5V4.5ZM7.5 19.5V3H21C21.3978 3 21.7794 3.15804 22.0607 3.43934C22.342 3.72064 22.5 4.10218 22.5 4.5V18C22.5 18.4275 22.32 18.8145 22.035 19.0875C21.225 17.241 19.233 15 15 15C10.4445 15 8.4825 17.595 7.803 19.5H7.5ZM1.5 16.5H6V19.5H3C2.60218 19.5 2.22064 19.342 1.93934 19.0607C1.65804 18.7794 1.5 18.3978 1.5 18V16.5ZM6 15H1.5V12H6V15ZM6 10.5H1.5V7.5H6V10.5Z" fill="black"/>
</g>
<defs>
<clipPath id="clip0_2_8387">
<rect width="24" height="24" fill="white"/>
</clipPath>
</defs>
</svg>
