<svg width="24" height="24" viewBox="0 0 24 24" fill="none" xmlns="http://www.w3.org/2000/svg">
<g clip-path="url(#clip0_2_7531)">
<path d="M12 13.5752C12.9946 13.5752 13.9484 13.1801 14.6517 12.4768C15.3549 11.7736 15.75 10.8198 15.75 9.8252C15.75 8.83063 15.3549 7.87681 14.6517 7.17354C13.9484 6.47028 12.9946 6.0752 12 6.0752C11.0054 6.0752 10.0516 6.47028 9.34835 7.17354C8.64509 7.87681 8.25 8.83063 8.25 9.8252C8.25 10.8198 8.64509 11.7736 9.34835 12.4768C10.0516 13.1801 11.0054 13.5752 12 13.5752Z" fill="black"/>
<path d="M1.5 1.5C1.10218 1.5 0.720644 1.65804 0.43934 1.93934C0.158035 2.22064 0 2.60218 0 3L0 19.5C0 19.8978 0.158035 20.2794 0.43934 20.5607C0.720644 20.842 1.10218 21 1.5 21H2.25C2.44891 21 2.63968 20.921 2.78033 20.7803C2.92098 20.6397 3 20.4489 3 20.25C3 20.0511 3.07902 19.8603 3.21967 19.7197C3.36032 19.579 3.55109 19.5 3.75 19.5C3.94891 19.5 4.13968 19.579 4.28033 19.7197C4.42098 19.8603 4.5 20.0511 4.5 20.25C4.5 20.4489 4.57902 20.6397 4.71967 20.7803C4.86032 20.921 5.05109 21 5.25 21H18.75C18.9489 21 19.1397 20.921 19.2803 20.7803C19.421 20.6397 19.5 20.4489 19.5 20.25C19.5 20.0511 19.579 19.8603 19.7197 19.7197C19.8603 19.579 20.0511 19.5 20.25 19.5C20.4489 19.5 20.6397 19.579 20.7803 19.7197C20.921 19.8603 21 20.0511 21 20.25C21 20.4489 21.079 20.6397 21.2197 20.7803C21.3603 20.921 21.5511 21 21.75 21H22.5C22.8978 21 23.2794 20.842 23.5607 20.5607C23.842 20.2794 24 19.8978 24 19.5V4.5C24 4.10218 23.842 3.72064 23.5607 3.43934C23.2794 3.15804 22.8978 3 22.5 3H10.0605L9 1.9395C8.71876 1.65818 8.33729 1.50008 7.9395 1.5H1.5ZM1.5 3H7.9395L9 4.0605C9.28124 4.34182 9.66271 4.49992 10.0605 4.5H22.5V19.5H22.3725C22.25 19.154 22.0448 18.8432 21.7747 18.5947C21.5045 18.3462 21.1777 18.1676 20.8227 18.0744C20.4677 17.9812 20.0953 17.9763 19.7379 18.0601C19.3805 18.1438 19.0491 18.3137 18.7725 18.555C17.8275 16.8345 15.831 15 12 15C8.1675 15 6.171 16.836 5.229 18.555C4.95239 18.3137 4.62095 18.1438 4.2636 18.0601C3.90625 17.9763 3.53382 17.9812 3.17881 18.0744C2.8238 18.1676 2.49697 18.3462 2.22684 18.5947C1.9567 18.8432 1.75146 19.154 1.629 19.5H1.5V3Z" fill="black"/>
</g>
<defs>
<clipPath id="clip0_2_7531">
<rect width="24" height="24" fill="white"/>
</clipPath>
</defs>
</svg>
