<svg width="24" height="24" viewBox="0 0 24 24" fill="none" xmlns="http://www.w3.org/2000/svg">
<g clip-path="url(#clip0_2_7522)">
<path d="M1.5 6.75C1.5 6.35218 1.65804 5.97064 1.93934 5.68934C2.22064 5.40804 2.60218 5.25 3 5.25H21C21.3978 5.25 21.7794 5.40804 22.0607 5.68934C22.342 5.97064 22.5 6.35218 22.5 6.75V15.75C22.5 16.1478 22.342 16.5294 22.0607 16.8107C21.7794 17.092 21.3978 17.25 21 17.25H3C2.60218 17.25 2.22064 17.092 1.93934 16.8107C1.65804 16.5294 1.5 16.1478 1.5 15.75V6.75ZM0 15.75C0 16.5456 0.316071 17.3087 0.87868 17.8713C1.44129 18.4339 2.20435 18.75 3 18.75H21C21.7956 18.75 22.5587 18.4339 23.1213 17.8713C23.6839 17.3087 24 16.5456 24 15.75V6.75C24 5.95435 23.6839 5.19129 23.1213 4.62868C22.5587 4.06607 21.7956 3.75 21 3.75H3C2.20435 3.75 1.44129 4.06607 0.87868 4.62868C0.316071 5.19129 0 5.95435 0 6.75L0 15.75Z" fill="black"/>
<path d="M21 11.25C21 10.8522 20.842 10.4706 20.5607 10.1893C20.2794 9.90804 19.8978 9.75 19.5 9.75C19.1022 9.75 18.7206 9.90804 18.4393 10.1893C18.158 10.4706 18 10.8522 18 11.25C18 11.6478 18.158 12.0294 18.4393 12.3107C18.7206 12.592 19.1022 12.75 19.5 12.75C19.8978 12.75 20.2794 12.592 20.5607 12.3107C20.842 12.0294 21 11.6478 21 11.25Z" fill="black"/>
</g>
<defs>
<clipPath id="clip0_2_7522">
<rect width="24" height="24" fill="white"/>
</clipPath>
</defs>
</svg>
