<svg width="24" height="24" viewBox="0 0 24 24" fill="none" xmlns="http://www.w3.org/2000/svg">
<g clip-path="url(#clip0_2_7520)">
<path d="M23.9775 12.75H12.3105L4.06053 21C5.74466 22.4858 7.81195 23.4691 10.0273 23.8382C12.2426 24.2073 14.5171 23.9473 16.5919 23.0878C18.6668 22.2283 20.4589 20.8037 21.7642 18.9762C23.0696 17.1486 23.8359 14.9915 23.976 12.75H23.9775ZM3.00003 19.938C1.51422 18.2538 0.530854 16.1865 0.161762 13.9712C-0.20733 11.7559 0.0526697 9.48143 0.912191 7.40654C1.77171 5.33166 3.19625 3.53962 5.0238 2.23425C6.85134 0.928875 9.00854 0.162561 11.25 0.0224609V11.6895L3.00003 19.9395V19.938ZM12.75 0.0224609V11.25H23.9775C23.7947 8.33214 22.5531 5.58139 20.4859 3.51413C18.4186 1.44687 15.6678 0.205284 12.75 0.0224609Z" fill="black"/>
</g>
<defs>
<clipPath id="clip0_2_7520">
<rect width="24" height="24" fill="white"/>
</clipPath>
</defs>
</svg>
