<svg width="24" height="24" viewBox="0 0 24 24" fill="none" xmlns="http://www.w3.org/2000/svg">
<g clip-path="url(#clip0_2_7852)">
<path fill-rule="evenodd" clip-rule="evenodd" d="M11.9461 2.29053C7.48056 2.29053 3.58956 4.84653 2.46605 8.47803H1.64105C1.42237 8.47827 1.20638 8.52632 1.00822 8.61882C0.810064 8.71132 0.634528 8.84603 0.493911 9.01351C0.353295 9.181 0.251 9.3772 0.194193 9.58838C0.137386 9.79956 0.127441 10.0206 0.165055 10.236L0.546055 12.426C0.636851 12.9481 0.909017 13.4214 1.31459 13.7625C1.72017 14.1036 2.23312 14.2906 2.76305 14.2905H3.15756C3.60755 15.06 4.18956 15.7575 4.87505 16.3635L3.78155 20.079C3.74867 20.1909 3.74233 20.3089 3.76302 20.4236C3.78372 20.5384 3.83089 20.6467 3.90078 20.7401C3.97067 20.8334 4.06136 20.9092 4.16565 20.9613C4.26994 21.0135 4.38495 21.0406 4.50155 21.0405H7.50156C7.65631 21.0405 7.80728 20.9927 7.93376 20.9035C8.06025 20.8144 8.15606 20.6883 8.20806 20.5425L8.93106 18.516C9.88356 18.7755 10.8961 18.9165 11.9476 18.9165C13.0081 18.9165 14.0296 18.774 14.9896 18.5085L15.8041 20.5665C15.8594 20.7064 15.9555 20.8263 16.0799 20.9108C16.2043 20.9954 16.3512 21.0406 16.5016 21.0405H19.5016C19.6186 21.0404 19.734 21.0129 19.8385 20.9602C19.943 20.9075 20.0337 20.8311 20.1034 20.7371C20.173 20.6431 20.2197 20.534 20.2397 20.4187C20.2598 20.3034 20.2525 20.185 20.2186 20.073L19.0771 16.314C20.7151 14.8425 21.7501 12.8385 21.7501 10.6035C21.7501 10.386 21.7396 10.1685 21.7201 9.95703C22.1116 9.79203 22.4821 9.55803 22.7776 9.29103C23.2501 9.75003 24.0001 9.75003 24.0001 8.66553C24.0001 9.00003 23.2501 9.00003 23.3086 8.62653C23.3716 8.50612 23.417 8.37731 23.4436 8.24403C23.4788 8.07029 23.4695 7.89046 23.4166 7.72128C23.3636 7.55211 23.2686 7.3991 23.1406 7.27653C23.0055 7.1373 22.8277 7.04721 22.6356 7.02058C22.4434 6.99395 22.2479 7.03229 22.0801 7.12953C21.9257 7.21482 21.7941 7.33588 21.6962 7.48256C21.5983 7.62925 21.5371 7.79727 21.5176 7.97253C21.4816 8.33703 21.6406 8.69253 21.9976 8.95353C21.8737 9.03916 21.7438 9.11586 21.6091 9.18303C20.8081 5.18703 16.6831 2.29053 11.9461 2.29053ZM22.7056 8.10453C22.6788 8.21856 22.6288 8.32581 22.5586 8.41953C22.5361 8.40782 22.5141 8.39531 22.4926 8.38203C22.2736 8.24703 22.2571 8.11953 22.2646 8.04753C22.2719 7.99371 22.2916 7.94231 22.322 7.89731C22.3525 7.85231 22.3929 7.81492 22.4401 7.78803C22.5136 7.74753 22.5601 7.75653 22.6096 7.80603C22.6513 7.8423 22.6822 7.88928 22.6992 7.94189C22.7161 7.99451 22.7183 8.05075 22.7056 8.10453ZM9.20706 7.12953C10.0979 6.87577 11.0198 6.74803 11.9461 6.75003C12.9451 6.75003 13.9006 6.89553 14.7856 7.15953C14.8806 7.19008 14.9807 7.20136 15.0802 7.1927C15.1796 7.18404 15.2763 7.15562 15.3646 7.10911C15.453 7.06259 15.5311 6.99891 15.5945 6.92181C15.6579 6.8447 15.7052 6.75572 15.7338 6.66007C15.7623 6.56443 15.7715 6.46405 15.7608 6.36481C15.75 6.26558 15.7196 6.16948 15.6712 6.08217C15.6229 5.99485 15.5576 5.91806 15.4792 5.8563C15.4007 5.79455 15.3108 5.74907 15.2146 5.72253C14.1538 5.40724 13.0527 5.24807 11.9461 5.25003C10.8451 5.25003 9.78456 5.40453 8.79306 5.68803C8.6017 5.74293 8.43999 5.87159 8.34351 6.04572C8.24702 6.21985 8.22366 6.42517 8.27855 6.61653C8.33346 6.80788 8.46212 6.96959 8.63625 7.06608C8.81038 7.16256 9.0157 7.18593 9.20706 7.13103V7.12953ZM7.50006 9.37503C7.50006 9.6734 7.38153 9.95954 7.17055 10.1705C6.95957 10.3815 6.67342 10.5 6.37506 10.5C6.07669 10.5 5.79054 10.3815 5.57956 10.1705C5.36858 9.95954 5.25005 9.6734 5.25005 9.37503C5.25005 9.07666 5.36858 8.79051 5.57956 8.57953C5.79054 8.36855 6.07669 8.25003 6.37506 8.25003C6.67342 8.25003 6.95957 8.36855 7.17055 8.57953C7.38153 8.79051 7.50006 9.07666 7.50006 9.37503Z" fill="black"/>
</g>
<defs>
<clipPath id="clip0_2_7852">
<rect width="24" height="24" fill="white"/>
</clipPath>
</defs>
</svg>
