<svg width="24" height="24" viewBox="0 0 24 24" fill="none" xmlns="http://www.w3.org/2000/svg">
<g clip-path="url(#clip0_2_7515)">
<path fill-rule="evenodd" clip-rule="evenodd" d="M4.65 16.8C4.71986 16.7069 4.81045 16.6313 4.91459 16.5792C5.01873 16.5271 5.13357 16.5 5.25 16.5H9C9.19891 16.5 9.38968 16.579 9.53033 16.7197C9.67098 16.8603 9.75 17.0511 9.75 17.25C9.75 17.4489 9.67098 17.6397 9.53033 17.7803C9.38968 17.921 9.19891 18 9 18H5.625L2.25 22.5H21.75L18.375 18H15C14.8011 18 14.6103 17.921 14.4697 17.7803C14.329 17.6397 14.25 17.4489 14.25 17.25C14.25 17.0511 14.329 16.8603 14.4697 16.7197C14.6103 16.579 14.8011 16.5 15 16.5H18.75C18.8664 16.5 18.9813 16.5271 19.0854 16.5792C19.1896 16.6313 19.2801 16.7069 19.35 16.8L23.85 22.8C23.9336 22.9114 23.9845 23.0439 23.997 23.1826C24.0095 23.3214 23.9831 23.4608 23.9208 23.5854C23.8585 23.71 23.7628 23.8148 23.6443 23.888C23.5258 23.9612 23.3893 24 23.25 24H0.75C0.610716 24 0.474184 23.9612 0.355702 23.888C0.23722 23.8148 0.14147 23.71 0.07918 23.5854C0.0168903 23.4608 -0.00947761 23.3214 0.00303087 23.1826C0.0155393 23.0439 0.06643 22.9114 0.15 22.8L4.65 16.8Z" fill="black"/>
<path fill-rule="evenodd" clip-rule="evenodd" d="M12 1.49993C11.4091 1.49993 10.8239 1.61633 10.2779 1.84247C9.73196 2.06862 9.23588 2.40009 8.81802 2.81795C8.40016 3.23582 8.06869 3.73189 7.84254 4.27786C7.6164 4.82382 7.5 5.40898 7.5 5.99993C7.5 6.59088 7.6164 7.17604 7.84254 7.72201C8.06869 8.26797 8.40016 8.76405 8.81802 9.18191C9.23588 9.59978 9.73196 9.93124 10.2779 10.1574C10.8239 10.3835 11.4091 10.4999 12 10.4999C13.1935 10.4999 14.3381 10.0258 15.182 9.18191C16.0259 8.338 16.5 7.19341 16.5 5.99993C16.5 4.80646 16.0259 3.66187 15.182 2.81795C14.3381 1.97404 13.1935 1.49993 12 1.49993ZM6 5.99993C6.00011 4.84527 6.33339 3.71517 6.95984 2.74522C7.5863 1.77527 8.47932 1.00669 9.53176 0.531692C10.5842 0.0566946 11.7513 -0.104539 12.8931 0.0673373C14.0349 0.239214 15.1029 0.7369 15.9688 1.50068C16.8348 2.26445 17.462 3.26188 17.7751 4.37326C18.0883 5.48465 18.0741 6.66279 17.7343 7.76631C17.3945 8.86984 16.7434 9.85187 15.8593 10.5946C14.9752 11.3373 13.8956 11.8091 12.75 11.9534V20.2499C12.75 20.4488 12.671 20.6396 12.5303 20.7803C12.3897 20.9209 12.1989 20.9999 12 20.9999C11.8011 20.9999 11.6103 20.9209 11.4697 20.7803C11.329 20.6396 11.25 20.4488 11.25 20.2499V11.9549C9.79945 11.7722 8.46553 11.0661 7.49882 9.96928C6.53211 8.87248 5.99913 7.46045 6 5.99843V5.99993Z" fill="black"/>
</g>
<defs>
<clipPath id="clip0_2_7515">
<rect width="24" height="24" fill="white"/>
</clipPath>
</defs>
</svg>
