<svg width="24" height="24" viewBox="0 0 24 24" fill="none" xmlns="http://www.w3.org/2000/svg">
<g clip-path="url(#clip0_2_7849)">
<path d="M12 22.5C9.21523 22.5 6.54451 21.3938 4.57538 19.4246C2.60625 17.4555 1.5 14.7848 1.5 12C1.5 9.21523 2.60625 6.54451 4.57538 4.57538C6.54451 2.60625 9.21523 1.5 12 1.5C14.7848 1.5 17.4555 2.60625 19.4246 4.57538C21.3938 6.54451 22.5 9.21523 22.5 12C22.5 14.7848 21.3938 17.4555 19.4246 19.4246C17.4555 21.3938 14.7848 22.5 12 22.5ZM12 24C15.1826 24 18.2348 22.7357 20.4853 20.4853C22.7357 18.2348 24 15.1826 24 12C24 8.8174 22.7357 5.76516 20.4853 3.51472C18.2348 1.26428 15.1826 0 12 0C8.8174 0 5.76516 1.26428 3.51472 3.51472C1.26428 5.76516 0 8.8174 0 12C0 15.1826 1.26428 18.2348 3.51472 20.4853C5.76516 22.7357 8.8174 24 12 24Z" fill="black"/>
<path d="M9.4065 7.58272C9.52918 7.51955 9.6669 7.49145 9.80452 7.50151C9.94214 7.51156 10.0743 7.55939 10.1865 7.63972L15.4365 11.3897C15.5337 11.4591 15.613 11.5507 15.6676 11.6569C15.7223 11.7631 15.7509 11.8808 15.7509 12.0002C15.7509 12.1197 15.7223 12.2374 15.6676 12.3436C15.613 12.4498 15.5337 12.5413 15.4365 12.6107L10.1865 16.3607C10.0743 16.441 9.94224 16.4888 9.80469 16.4988C9.66715 16.5089 9.52949 16.4808 9.40686 16.4177C9.28422 16.3546 9.18136 16.2589 9.10958 16.1412C9.03781 16.0234 8.99989 15.8881 9 15.7502V8.25022C8.99986 8.11235 9.03772 7.9771 9.10943 7.85934C9.18115 7.74158 9.28393 7.64587 9.4065 7.58272Z" fill="black"/>
</g>
<defs>
<clipPath id="clip0_2_7849">
<rect width="24" height="24" fill="white"/>
</clipPath>
</defs>
</svg>
