<svg width="24" height="24" viewBox="0 0 24 24" fill="none" xmlns="http://www.w3.org/2000/svg">
<path d="M21 11.25C21 11.5455 20.9418 11.8381 20.8287 12.111C20.7157 12.384 20.5499 12.6321 20.341 12.841C20.1321 13.0499 19.884 13.2157 19.611 13.3287C19.3381 13.4418 19.0455 13.5 18.75 13.5C18.4545 13.5 18.1619 13.4418 17.889 13.3287C17.616 13.2157 17.3679 13.0499 17.159 12.841C16.9501 12.6321 16.7843 12.384 16.6713 12.111C16.5582 11.8381 16.5 11.5455 16.5 11.25C16.5 10.6533 16.7371 10.081 17.159 9.65901C17.581 9.23705 18.1533 9 18.75 9C19.3467 9 19.919 9.23705 20.341 9.65901C20.7629 10.081 21 10.6533 21 11.25ZM3.75 9C3.55109 9 3.36032 9.07902 3.21967 9.21967C3.07902 9.36032 3 9.55109 3 9.75C3 9.94891 3.07902 10.1397 3.21967 10.2803C3.36032 10.421 3.55109 10.5 3.75 10.5H9.75C9.94891 10.5 10.1397 10.421 10.2803 10.2803C10.421 10.1397 10.5 9.94891 10.5 9.75C10.5 9.55109 10.421 9.36032 10.2803 9.21967C10.1397 9.07902 9.94891 9 9.75 9H3.75ZM3.75 12C3.55109 12 3.36032 12.079 3.21967 12.2197C3.07902 12.3603 3 12.5511 3 12.75C3 12.9489 3.07902 13.1397 3.21967 13.2803C3.36032 13.421 3.55109 13.5 3.75 13.5H9.75C9.94891 13.5 10.1397 13.421 10.2803 13.2803C10.421 13.1397 10.5 12.9489 10.5 12.75C10.5 12.5511 10.421 12.3603 10.2803 12.2197C10.1397 12.079 9.94891 12 9.75 12H3.75Z" fill="black"/>
<path fill-rule="evenodd" clip-rule="evenodd" d="M0 9C0 8.20435 0.316071 7.44129 0.87868 6.87868C1.44129 6.31607 2.20435 6 3 6H21C21.7956 6 22.5587 6.31607 23.1213 6.87868C23.6839 7.44129 24 8.20435 24 9V13.5C24 14.2956 23.6839 15.0587 23.1213 15.6213C22.5587 16.1839 21.7956 16.5 21 16.5C21 16.8978 20.842 17.2794 20.5607 17.5607C20.2794 17.842 19.8978 18 19.5 18H18C17.6022 18 17.2206 17.842 16.9393 17.5607C16.658 17.2794 16.5 16.8978 16.5 16.5H7.5C7.5 16.8978 7.34196 17.2794 7.06066 17.5607C6.77936 17.842 6.39782 18 6 18H4.5C4.10218 18 3.72064 17.842 3.43934 17.5607C3.15804 17.2794 3 16.8978 3 16.5C2.20435 16.5 1.44129 16.1839 0.87868 15.6213C0.316071 15.0587 0 14.2956 0 13.5V9ZM3 7.5H21C21.3978 7.5 21.7794 7.65804 22.0607 7.93934C22.342 8.22064 22.5 8.60218 22.5 9V13.5C22.5 13.8978 22.342 14.2794 22.0607 14.5607C21.7794 14.842 21.3978 15 21 15H3C2.60218 15 2.22064 14.842 1.93934 14.5607C1.65804 14.2794 1.5 13.8978 1.5 13.5V9C1.5 8.60218 1.65804 8.22064 1.93934 7.93934C2.22064 7.65804 2.60218 7.5 3 7.5Z" fill="black"/>
</svg>
