<svg width="24" height="24" viewBox="0 0 24 24" fill="none" xmlns="http://www.w3.org/2000/svg">
<path d="M4.668 5.4675C4.63766 5.15515 4.673 4.83991 4.77175 4.54203C4.87049 4.24416 5.03045 3.97023 5.24136 3.73785C5.45227 3.50547 5.70945 3.31978 5.99639 3.19271C6.28333 3.06564 6.59368 2.99999 6.9075 3H10.5C10.6989 3 10.8897 3.07902 11.0303 3.21967C11.171 3.36032 11.25 3.55109 11.25 3.75V4.323C11.25 5.367 10.5045 6.096 9.942 6.5265C9.87429 6.57461 9.81585 6.63458 9.7695 6.7035C9.76198 6.71521 9.75594 6.72781 9.7515 6.741L9.75 6.75V6.7545L9.7545 6.7695C9.7605 6.7845 9.7755 6.8115 9.8085 6.849C9.92329 6.97142 10.0609 7.07027 10.2135 7.14C10.635 7.35 11.265 7.5 12 7.5C12.738 7.5 13.368 7.35 13.785 7.14C13.9382 7.07044 14.0763 6.97158 14.1915 6.849C14.2164 6.82116 14.2362 6.78918 14.25 6.7545V6.741C14.2456 6.7278 14.2395 6.71521 14.232 6.7035C14.1856 6.63458 14.1272 6.57461 14.0595 6.5265C13.497 6.096 12.7515 5.367 12.7515 4.323V3.75C12.7515 3.55135 12.8303 3.36081 12.9706 3.2202C13.111 3.07959 13.3013 3.0004 13.5 3H17.0925C17.4063 2.99999 17.7167 3.06564 18.0036 3.19271C18.2905 3.31978 18.5477 3.50547 18.7586 3.73785C18.9695 3.97023 19.1295 4.24416 19.2283 4.54203C19.327 4.83991 19.3623 5.15515 19.332 5.4675L18.9675 9.75H19.323C19.6155 9.75 19.953 9.5295 20.3355 9.03C20.6505 8.619 21.1275 8.25 21.75 8.25C22.602 8.25 23.1705 8.9205 23.481 9.543C23.8155 10.2105 24 11.0805 24 12C24 12.9195 23.8155 13.7895 23.481 14.457C23.1705 15.0795 22.602 15.75 21.75 15.75C21.1275 15.75 20.6505 15.381 20.3355 14.97C19.953 14.4705 19.6155 14.25 19.323 14.25H18.9675L19.332 18.5325C19.3623 18.8448 19.327 19.1601 19.2283 19.458C19.1295 19.7558 18.9695 20.0298 18.7586 20.2622C18.5477 20.4945 18.2905 20.6802 18.0036 20.8073C17.7167 20.9344 17.4063 21 17.0925 21H13.5C13.3011 21 13.1103 20.921 12.9697 20.7803C12.829 20.6397 12.75 20.4489 12.75 20.25V19.677C12.75 18.633 13.4955 17.904 14.058 17.4735C14.1257 17.4254 14.1841 17.3654 14.2305 17.2965C14.238 17.2848 14.2441 17.2722 14.2485 17.259L14.25 17.25V17.2455C14.2363 17.2103 14.2165 17.1778 14.1915 17.1495C14.0766 17.0276 13.939 16.9293 13.7865 16.86C13.365 16.65 12.735 16.5 12 16.5C11.2635 16.5 10.632 16.65 10.215 16.86C10.0618 16.9295 9.9237 17.0284 9.8085 17.151C9.78365 17.1789 9.76386 17.2108 9.75 17.2455V17.25L9.7515 17.259C9.75594 17.2722 9.76198 17.2848 9.7695 17.2965C9.7935 17.337 9.8445 17.3985 9.942 17.4735C10.5045 17.904 11.25 18.633 11.25 19.677V20.25C11.25 20.4489 11.171 20.6397 11.0303 20.7803C10.8897 20.921 10.6989 21 10.5 21H6.9075C6.59368 21 6.28333 20.9344 5.99639 20.8073C5.70945 20.6802 5.45227 20.4945 5.24136 20.2622C5.03045 20.0298 4.87049 19.7558 4.77175 19.458C4.673 19.1601 4.63766 18.8448 4.668 18.5325L5.034 14.25H4.677C4.3845 14.25 4.047 14.4705 3.6645 14.97C3.3495 15.381 2.8725 15.75 2.25 15.75C1.398 15.75 0.8295 15.0795 0.519 14.457C0.1845 13.7895 0 12.9195 0 12C0 11.0805 0.1845 10.2105 0.519 9.543C0.8295 8.9205 1.398 8.25 2.25 8.25C2.8725 8.25 3.3495 8.619 3.6645 9.03C4.047 9.5295 4.3845 9.75 4.677 9.75H5.034L4.668 5.4675ZM6.9075 4.5C6.80262 4.49989 6.69888 4.52179 6.60299 4.56426C6.50709 4.60674 6.42118 4.66886 6.35078 4.7466C6.28038 4.82435 6.22708 4.916 6.1943 5.01562C6.16153 5.11525 6.15001 5.22064 6.1605 5.325L6.162 5.3355L6.597 10.4355C6.60594 10.539 6.59326 10.6433 6.55978 10.7416C6.52631 10.84 6.47275 10.9304 6.40252 11.0069C6.33228 11.0835 6.2469 11.1447 6.15179 11.1865C6.05668 11.2283 5.95391 11.25 5.85 11.25H4.677C3.633 11.25 2.904 10.5045 2.4735 9.942C2.42539 9.87429 2.36542 9.81585 2.2965 9.7695C2.28479 9.76197 2.2722 9.75592 2.259 9.7515L2.25 9.75H2.2455C2.21029 9.76367 2.17779 9.78348 2.1495 9.8085C2.02762 9.92342 1.92929 10.061 1.86 10.2135C1.65 10.635 1.5 11.265 1.5 12C1.5 12.7365 1.65 13.368 1.86 13.785C1.965 13.995 2.07 14.1225 2.151 14.1915C2.17884 14.2164 2.21082 14.2362 2.2455 14.25H2.25L2.259 14.2485C2.2722 14.2441 2.28479 14.238 2.2965 14.2305C2.36542 14.1841 2.42539 14.1257 2.4735 14.058C2.904 13.4955 3.633 12.75 4.677 12.75H5.85C5.95377 12.75 6.0564 12.7716 6.15141 12.8134C6.24641 12.8551 6.33171 12.9161 6.40192 12.9926C6.47213 13.069 6.52572 13.1591 6.5593 13.2573C6.59288 13.3555 6.60572 13.4596 6.597 13.563L6.162 18.675C6.15152 18.7792 6.163 18.8845 6.19569 18.984C6.22837 19.0835 6.28154 19.1751 6.35178 19.2528C6.42201 19.3306 6.50775 19.3927 6.60346 19.4353C6.69918 19.4778 6.80275 19.4999 6.9075 19.5H9.7245C9.6525 19.251 9.432 18.972 9.03 18.6645C8.619 18.3495 8.25 17.8725 8.25 17.25C8.25 16.398 8.9205 15.8295 9.543 15.519C10.2105 15.1845 11.0805 15 12 15C12.9195 15 13.7895 15.1845 14.457 15.519C15.0795 15.8295 15.75 16.398 15.75 17.25C15.75 17.8725 15.381 18.3495 14.97 18.6645C14.568 18.972 14.3475 19.2495 14.2755 19.5H17.0925C17.1974 19.5001 17.3011 19.4782 17.397 19.4357C17.4929 19.3933 17.5788 19.3311 17.6492 19.2534C17.7196 19.1757 17.7729 19.084 17.8057 18.9844C17.8385 18.8848 17.85 18.7794 17.8395 18.675L17.838 18.6645L17.403 13.5645C17.3941 13.461 17.4067 13.3567 17.4402 13.2584C17.4737 13.16 17.5272 13.0696 17.5975 12.9931C17.6677 12.9165 17.7531 12.8553 17.8482 12.8135C17.9433 12.7717 18.0461 12.75 18.15 12.75H19.323C20.367 12.75 21.096 13.4955 21.5265 14.058C21.6015 14.1555 21.663 14.2065 21.7035 14.2305C21.723 14.2425 21.735 14.2455 21.741 14.2485C21.7439 14.2495 21.7469 14.25 21.75 14.25H21.7545C21.7897 14.2363 21.8222 14.2165 21.8505 14.1915C21.9724 14.0766 22.0707 13.939 22.14 13.7865C22.35 13.3665 22.5 12.7365 22.5 12C22.5 11.262 22.35 10.632 22.14 10.215C22.0704 10.0618 21.9716 9.92373 21.849 9.8085C21.8211 9.78368 21.7891 9.76388 21.7545 9.75H21.75L21.741 9.7515C21.7278 9.75594 21.7152 9.76198 21.7035 9.7695C21.6346 9.81585 21.5746 9.87429 21.5265 9.942C21.096 10.5045 20.367 11.25 19.323 11.25H18.15C18.0461 11.25 17.9433 11.2283 17.8482 11.1865C17.7531 11.1447 17.6677 11.0835 17.5975 11.0069C17.5272 10.9304 17.4737 10.84 17.4402 10.7416C17.4067 10.6433 17.3941 10.539 17.403 10.4355L17.838 5.325C17.8485 5.22077 17.837 5.1155 17.8043 5.01598C17.7716 4.91645 17.7185 4.82488 17.6482 4.74716C17.578 4.66944 17.4923 4.60729 17.3965 4.56472C17.3008 4.52215 17.1973 4.5001 17.0925 4.5H14.2755C14.3475 4.749 14.568 5.028 14.97 5.3355C15.381 5.6505 15.75 6.1275 15.75 6.75C15.75 7.602 15.0795 8.1705 14.457 8.481C13.7895 8.8155 12.9195 9 12 9C11.0805 9 10.2105 8.8155 9.543 8.481C8.9205 8.1705 8.25 7.602 8.25 6.75C8.25 6.1275 8.619 5.6505 9.03 5.3355C9.432 5.028 9.6525 4.7505 9.7245 4.5H6.9075Z" fill="black"/>
</svg>
