<svg width="24" height="24" viewBox="0 0 24 24" fill="none" xmlns="http://www.w3.org/2000/svg">
<g clip-path="url(#clip0_2_8453)">
<path d="M21 1.5C21.3978 1.5 21.7794 1.65804 22.0607 1.93934C22.342 2.22064 22.5 2.60218 22.5 3V21C22.5 21.3978 22.342 21.7794 22.0607 22.0607C21.7794 22.342 21.3978 22.5 21 22.5H3C2.60218 22.5 2.22064 22.342 1.93934 22.0607C1.65804 21.7794 1.5 21.3978 1.5 21V3C1.5 2.60218 1.65804 2.22064 1.93934 1.93934C2.22064 1.65804 2.60218 1.5 3 1.5H21ZM3 0C2.20435 0 1.44129 0.316071 0.87868 0.87868C0.316071 1.44129 0 2.20435 0 3L0 21C0 21.7956 0.316071 22.5587 0.87868 23.1213C1.44129 23.6839 2.20435 24 3 24H21C21.7956 24 22.5587 23.6839 23.1213 23.1213C23.6839 22.5587 24 21.7956 24 21V3C24 2.20435 23.6839 1.44129 23.1213 0.87868C22.5587 0.316071 21.7956 0 21 0L3 0Z" fill="black"/>
<path d="M7.88252 8.679C7.88047 8.72744 7.88834 8.77579 7.90567 8.82107C7.92299 8.86636 7.94939 8.90762 7.98325 8.94232C8.01711 8.97703 8.05771 9.00444 8.10256 9.02287C8.1474 9.0413 8.19554 9.05036 8.24402 9.0495H9.48152C9.68852 9.0495 9.85352 8.88 9.88052 8.6745C10.0155 7.6905 10.6905 6.9735 11.8935 6.9735C12.9225 6.9735 13.8645 7.488 13.8645 8.7255C13.8645 9.678 13.3035 10.116 12.417 10.782C11.4075 11.5155 10.608 12.372 10.665 13.7625L10.6695 14.088C10.6711 14.1864 10.7113 14.2803 10.7815 14.3493C10.8516 14.4183 10.9461 14.457 11.0445 14.457H12.261C12.3605 14.457 12.4559 14.4175 12.5262 14.3472C12.5965 14.2768 12.636 14.1815 12.636 14.082V13.9245C12.636 12.8475 13.0455 12.534 14.151 11.6955C15.0645 11.001 16.017 10.23 16.017 8.6115C16.017 6.345 14.103 5.25 12.0075 5.25C10.107 5.25 8.02502 6.135 7.88252 8.679ZM10.218 17.3235C10.218 18.123 10.8555 18.714 11.733 18.714C12.6465 18.714 13.275 18.123 13.275 17.3235C13.275 16.4955 12.645 15.9135 11.7315 15.9135C10.8555 15.9135 10.218 16.4955 10.218 17.3235Z" fill="black"/>
</g>
<defs>
<clipPath id="clip0_2_8453">
<rect width="24" height="24" fill="white"/>
</clipPath>
</defs>
</svg>
