<svg width="24" height="24" viewBox="0 0 24 24" fill="none" xmlns="http://www.w3.org/2000/svg">
<g clip-path="url(#clip0_2_7492)">
<path d="M4.5 6.75C4.5 6.55109 4.57902 6.36032 4.71967 6.21967C4.86032 6.07902 5.05109 6 5.25 6H14.25C14.4489 6 14.6397 6.07902 14.7803 6.21967C14.921 6.36032 15 6.55109 15 6.75C15 6.94891 14.921 7.13968 14.7803 7.28033C14.6397 7.42098 14.4489 7.5 14.25 7.5H5.25C5.05109 7.5 4.86032 7.42098 4.71967 7.28033C4.57902 7.13968 4.5 6.94891 4.5 6.75ZM4.5 9.75C4.5 9.55109 4.57902 9.36032 4.71967 9.21967C4.86032 9.07902 5.05109 9 5.25 9H14.25C14.4489 9 14.6397 9.07902 14.7803 9.21967C14.921 9.36032 15 9.55109 15 9.75C15 9.94891 14.921 10.1397 14.7803 10.2803C14.6397 10.421 14.4489 10.5 14.25 10.5H5.25C5.05109 10.5 4.86032 10.421 4.71967 10.2803C4.57902 10.1397 4.5 9.94891 4.5 9.75ZM4.5 12.75C4.5 12.5511 4.57902 12.3603 4.71967 12.2197C4.86032 12.079 5.05109 12 5.25 12H14.25C14.4489 12 14.6397 12.079 14.7803 12.2197C14.921 12.3603 15 12.5511 15 12.75C15 12.9489 14.921 13.1397 14.7803 13.2803C14.6397 13.421 14.4489 13.5 14.25 13.5H5.25C5.05109 13.5 4.86032 13.421 4.71967 13.2803C4.57902 13.1397 4.5 12.9489 4.5 12.75ZM4.5 15.75C4.5 15.5511 4.57902 15.3603 4.71967 15.2197C4.86032 15.079 5.05109 15 5.25 15H14.25C14.4489 15 14.6397 15.079 14.7803 15.2197C14.921 15.3603 15 15.5511 15 15.75C15 15.9489 14.921 16.1397 14.7803 16.2803C14.6397 16.421 14.4489 16.5 14.25 16.5H5.25C5.05109 16.5 4.86032 16.421 4.71967 16.2803C4.57902 16.1397 4.5 15.9489 4.5 15.75ZM4.5 18.75C4.5 18.5511 4.57902 18.3603 4.71967 18.2197C4.86032 18.079 5.05109 18 5.25 18H14.25C14.4489 18 14.6397 18.079 14.7803 18.2197C14.921 18.3603 15 18.5511 15 18.75C15 18.9489 14.921 19.1397 14.7803 19.2803C14.6397 19.421 14.4489 19.5 14.25 19.5H5.25C5.05109 19.5 4.86032 19.421 4.71967 19.2803C4.57902 19.1397 4.5 18.9489 4.5 18.75ZM17.25 6C17.0511 6 16.8603 6.07902 16.7197 6.21967C16.579 6.36032 16.5 6.55109 16.5 6.75C16.5 6.94891 16.579 7.13968 16.7197 7.28033C16.8603 7.42098 17.0511 7.5 17.25 7.5H18.75C18.9489 7.5 19.1397 7.42098 19.2803 7.28033C19.421 7.13968 19.5 6.94891 19.5 6.75C19.5 6.55109 19.421 6.36032 19.2803 6.21967C19.1397 6.07902 18.9489 6 18.75 6H17.25ZM17.25 9C17.0511 9 16.8603 9.07902 16.7197 9.21967C16.579 9.36032 16.5 9.55109 16.5 9.75C16.5 9.94891 16.579 10.1397 16.7197 10.2803C16.8603 10.421 17.0511 10.5 17.25 10.5H18.75C18.9489 10.5 19.1397 10.421 19.2803 10.2803C19.421 10.1397 19.5 9.94891 19.5 9.75C19.5 9.55109 19.421 9.36032 19.2803 9.21967C19.1397 9.07902 18.9489 9 18.75 9H17.25ZM17.25 12C17.0511 12 16.8603 12.079 16.7197 12.2197C16.579 12.3603 16.5 12.5511 16.5 12.75C16.5 12.9489 16.579 13.1397 16.7197 13.2803C16.8603 13.421 17.0511 13.5 17.25 13.5H18.75C18.9489 13.5 19.1397 13.421 19.2803 13.2803C19.421 13.1397 19.5 12.9489 19.5 12.75C19.5 12.5511 19.421 12.3603 19.2803 12.2197C19.1397 12.079 18.9489 12 18.75 12H17.25ZM17.25 15C17.0511 15 16.8603 15.079 16.7197 15.2197C16.579 15.3603 16.5 15.5511 16.5 15.75C16.5 15.9489 16.579 16.1397 16.7197 16.2803C16.8603 16.421 17.0511 16.5 17.25 16.5H18.75C18.9489 16.5 19.1397 16.421 19.2803 16.2803C19.421 16.1397 19.5 15.9489 19.5 15.75C19.5 15.5511 19.421 15.3603 19.2803 15.2197C19.1397 15.079 18.9489 15 18.75 15H17.25ZM17.25 18C17.0511 18 16.8603 18.079 16.7197 18.2197C16.579 18.3603 16.5 18.5511 16.5 18.75C16.5 18.9489 16.579 19.1397 16.7197 19.2803C16.8603 19.421 17.0511 19.5 17.25 19.5H18.75C18.9489 19.5 19.1397 19.421 19.2803 19.2803C19.421 19.1397 19.5 18.9489 19.5 18.75C19.5 18.5511 19.421 18.3603 19.2803 18.2197C19.1397 18.079 18.9489 18 18.75 18H17.25Z" fill="black"/>
<path d="M3.531 0.968876C3.44696 0.884775 3.34414 0.821857 3.231 0.785311C3.11787 0.748766 2.99767 0.73964 2.88031 0.758686C2.76296 0.777733 2.65181 0.824406 2.55604 0.894856C2.46027 0.965306 2.38262 1.05751 2.3295 1.16388L1.5795 2.66388C1.52723 2.76817 1.50001 2.88322 1.5 2.99988V22.4999H0.75C0.551088 22.4999 0.360322 22.5789 0.21967 22.7195C0.0790176 22.8602 0 23.051 0 23.2499C0 23.4488 0.0790176 23.6396 0.21967 23.7802C0.360322 23.9209 0.551088 23.9999 0.75 23.9999H23.25C23.4489 23.9999 23.6397 23.9209 23.7803 23.7802C23.921 23.6396 24 23.4488 24 23.2499C24 23.051 23.921 22.8602 23.7803 22.7195C23.6397 22.5789 23.4489 22.4999 23.25 22.4999H22.5V2.99988C22.5 2.88322 22.4728 2.76817 22.4205 2.66388L21.6705 1.16388C21.6173 1.05778 21.5397 0.965829 21.4441 0.895568C21.3484 0.825306 21.2375 0.778744 21.1203 0.759709C21.0032 0.740674 20.8832 0.749708 20.7702 0.786071C20.6573 0.822433 20.5545 0.885084 20.4705 0.968876L19.5 1.93938L18.531 0.968876C18.4613 0.899031 18.3786 0.843617 18.2874 0.805807C18.1963 0.767997 18.0987 0.748535 18 0.748535C17.9013 0.748535 17.8037 0.767997 17.7126 0.805807C17.6214 0.843617 17.5387 0.899031 17.469 0.968876L16.5 1.93938L15.531 0.968876C15.4613 0.899031 15.3786 0.843617 15.2874 0.805807C15.1963 0.767997 15.0987 0.748535 15 0.748535C14.9013 0.748535 14.8037 0.767997 14.7126 0.805807C14.6214 0.843617 14.5387 0.899031 14.469 0.968876L13.5 1.93938L12.531 0.968876C12.4613 0.899031 12.3786 0.843617 12.2874 0.805807C12.1963 0.767997 12.0987 0.748535 12 0.748535C11.9013 0.748535 11.8037 0.767997 11.7125 0.805807C11.6214 0.843617 11.5387 0.899031 11.469 0.968876L10.5 1.93938L9.531 0.968876C9.46133 0.899031 9.37857 0.843617 9.28745 0.805807C9.19633 0.767997 9.09865 0.748535 9 0.748535C8.90135 0.748535 8.80367 0.767997 8.71255 0.805807C8.62143 0.843617 8.53867 0.899031 8.469 0.968876L7.5 1.93938L6.531 0.968876C6.46133 0.899031 6.37857 0.843617 6.28745 0.805807C6.19633 0.767997 6.09865 0.748535 6 0.748535C5.90135 0.748535 5.80367 0.767997 5.71255 0.805807C5.62143 0.843617 5.53867 0.899031 5.469 0.968876L4.5 1.93938L3.531 0.968876ZM3.2055 2.76588L3.9705 3.53088C4.11115 3.67148 4.30188 3.75047 4.50075 3.75047C4.69962 3.75047 4.89035 3.67148 5.031 3.53088L6 2.56038L6.969 3.53088C7.03867 3.60072 7.12143 3.65614 7.21255 3.69394C7.30367 3.73175 7.40135 3.75122 7.5 3.75122C7.59865 3.75122 7.69633 3.73175 7.78745 3.69394C7.87857 3.65614 7.96133 3.60072 8.031 3.53088L9 2.56038L9.969 3.53088C10.0387 3.60072 10.1214 3.65614 10.2125 3.69394C10.3037 3.73175 10.4013 3.75122 10.5 3.75122C10.5987 3.75122 10.6963 3.73175 10.7875 3.69394C10.8786 3.65614 10.9613 3.60072 11.031 3.53088L12 2.56038L12.969 3.53088C13.0387 3.60072 13.1214 3.65614 13.2126 3.69394C13.3037 3.73175 13.4013 3.75122 13.5 3.75122C13.5987 3.75122 13.6963 3.73175 13.7874 3.69394C13.8786 3.65614 13.9613 3.60072 14.031 3.53088L15 2.56038L15.969 3.53088C16.0387 3.60072 16.1214 3.65614 16.2126 3.69394C16.3037 3.73175 16.4013 3.75122 16.5 3.75122C16.5987 3.75122 16.6963 3.73175 16.7874 3.69394C16.8786 3.65614 16.9613 3.60072 17.031 3.53088L18 2.56038L18.969 3.53088C19.0387 3.60072 19.1214 3.65614 19.2126 3.69394C19.3037 3.73175 19.4013 3.75122 19.5 3.75122C19.5987 3.75122 19.6963 3.73175 19.7874 3.69394C19.8786 3.65614 19.9613 3.60072 20.031 3.53088L20.7945 2.76588L21 3.17688V22.4999H3V3.17688L3.2055 2.76588Z" fill="black"/>
</g>
<defs>
<clipPath id="clip0_2_7492">
<rect width="24" height="24" fill="white"/>
</clipPath>
</defs>
</svg>
