<svg width="24" height="24" viewBox="0 0 24 24" fill="none" xmlns="http://www.w3.org/2000/svg">
<path d="M0 17.25C0 17.0511 0.0790176 16.8603 0.21967 16.7197C0.360322 16.579 0.551088 16.5 0.75 16.5H3.75C3.94891 16.5 4.13968 16.579 4.28033 16.7197C4.42098 16.8603 4.5 17.0511 4.5 17.25V20.25C4.5 20.4489 4.42098 20.6397 4.28033 20.7803C4.13968 20.921 3.94891 21 3.75 21H0.75C0.551088 21 0.360322 20.921 0.21967 20.7803C0.0790176 20.6397 0 20.4489 0 20.25V17.25ZM6 20.25C6 20.0511 6.07902 19.8603 6.21967 19.7197C6.36032 19.579 6.55109 19.5 6.75 19.5H9.75C9.94891 19.5 10.1397 19.579 10.2803 19.7197C10.421 19.8603 10.5 20.0511 10.5 20.25C10.5 20.4489 10.421 20.6397 10.2803 20.7803C10.1397 20.921 9.94891 21 9.75 21H6.75C6.55109 21 6.36032 20.921 6.21967 20.7803C6.07902 20.6397 6 20.4489 6 20.25ZM12 20.25C12 20.0511 12.079 19.8603 12.2197 19.7197C12.3603 19.579 12.5511 19.5 12.75 19.5H15.75C15.9489 19.5 16.1397 19.579 16.2803 19.7197C16.421 19.8603 16.5 20.0511 16.5 20.25C16.5 20.4489 16.421 20.6397 16.2803 20.7803C16.1397 20.921 15.9489 21 15.75 21H12.75C12.5511 21 12.3603 20.921 12.2197 20.7803C12.079 20.6397 12 20.4489 12 20.25ZM18 20.25C18 20.0511 18.079 19.8603 18.2197 19.7197C18.3603 19.579 18.5511 19.5 18.75 19.5H21.75C21.9489 19.5 22.1397 19.579 22.2803 19.7197C22.421 19.8603 22.5 20.0511 22.5 20.25C22.5 20.4489 22.421 20.6397 22.2803 20.7803C22.1397 20.921 21.9489 21 21.75 21H18.75C18.5511 21 18.3603 20.921 18.2197 20.7803C18.079 20.6397 18 20.4489 18 20.25Z" fill="black"/>
</svg>
