<svg width="24" height="24" viewBox="0 0 24 24" fill="none" xmlns="http://www.w3.org/2000/svg">
<path d="M9.89699 7.51968C9.93013 7.5051 9.9664 7.49907 10.0025 7.50217C10.0385 7.50526 10.0733 7.51737 10.1034 7.53738C10.1336 7.55739 10.1582 7.58467 10.1751 7.6167C10.192 7.64873 10.2005 7.68448 10.2 7.72068V9.45018C10.2 9.6491 10.279 9.83986 10.4197 9.98051C10.5603 10.1212 10.7511 10.2002 10.95 10.2002C11.9505 10.2002 13.9695 10.2077 15.9 11.4332C17.376 12.3692 18.885 14.0732 19.7925 17.2472C18.2625 15.7727 16.515 14.9732 14.985 14.5487C14.0446 14.2889 13.0781 14.135 12.1035 14.0897C11.7046 14.0722 11.305 14.0762 10.9065 14.1017H10.887L10.8795 14.1032H10.878L10.95 14.8502L10.875 14.1032C10.6899 14.1218 10.5183 14.2085 10.3935 14.3466C10.2688 14.4846 10.1998 14.6641 10.2 14.8502V16.5797C10.2 16.7417 10.035 16.8437 9.89699 16.7807L3.92099 12.3812C3.90071 12.3661 3.87968 12.3521 3.85799 12.3392C3.82538 12.3196 3.79839 12.2919 3.77965 12.2588C3.76091 12.2256 3.75107 12.1882 3.75107 12.1502C3.75107 12.1121 3.76091 12.0747 3.77965 12.0416C3.79839 12.0085 3.82538 11.9808 3.85799 11.9612C3.87969 11.9483 3.90071 11.9342 3.92099 11.9192L9.89699 7.51968ZM11.7 15.5792C11.802 15.5792 11.9145 15.5837 12.0345 15.5882C12.6855 15.6182 13.5855 15.7172 14.5845 15.9947C16.5735 16.5467 18.9285 17.7977 20.4945 20.6147C20.5792 20.7667 20.7141 20.8846 20.8762 20.9481C21.0382 21.0116 21.2173 21.0167 21.3828 20.9626C21.5482 20.9086 21.6897 20.7986 21.783 20.6517C21.8762 20.5047 21.9155 20.3299 21.894 20.1572C21.198 14.5922 19.065 11.6642 16.704 10.1672C14.8365 8.98218 12.9135 8.75418 11.7 8.71068V7.72068C11.7001 7.41179 11.6169 7.10858 11.459 6.84305C11.3012 6.57753 11.0746 6.35953 10.8032 6.21207C10.5318 6.06461 10.2256 5.99314 9.91691 6.00522C9.60824 6.01729 9.30857 6.11246 9.04949 6.28068L3.05849 10.6907C2.81081 10.8453 2.60655 11.0604 2.46494 11.3157C2.32333 11.571 2.24902 11.8582 2.24902 12.1502C2.24902 12.4422 2.32333 12.7293 2.46494 12.9847C2.60655 13.24 2.81081 13.4551 3.05849 13.6097L9.04949 18.0197C9.30857 18.1879 9.60824 18.2831 9.91691 18.2951C10.2256 18.3072 10.5318 18.2358 10.8032 18.0883C11.0746 17.9408 11.3012 17.7228 11.459 17.4573C11.6169 17.1918 11.7001 16.8886 11.7 16.5797V15.5792Z" fill="black"/>
</svg>
