<svg width="24" height="24" viewBox="0 0 24 24" fill="none" xmlns="http://www.w3.org/2000/svg">
<g clip-path="url(#clip0_2_7482)">
<path fill-rule="evenodd" clip-rule="evenodd" d="M8.2875 4.53756C8.77501 4.04999 9.35379 3.66323 9.99079 3.39936C10.6278 3.13549 11.3105 2.99968 12 2.99968C12.6895 2.99968 13.3722 3.13549 14.0092 3.39936C14.6462 3.66323 15.225 4.04999 15.7125 4.53756C15.7817 4.60919 15.8644 4.66633 15.9559 4.70563C16.0474 4.74494 16.1459 4.76563 16.2454 4.7665C16.345 4.76736 16.4438 4.74839 16.536 4.71068C16.6281 4.67296 16.7119 4.61727 16.7823 4.54685C16.8527 4.47644 16.9084 4.3927 16.9461 4.30052C16.9838 4.20835 17.0028 4.10959 17.0019 4.01001C17.0011 3.91042 16.9804 3.81201 16.9411 3.72051C16.9018 3.629 16.8446 3.54624 16.773 3.47706C16.1462 2.85025 15.4021 2.35305 14.5831 2.01382C13.7642 1.6746 12.8864 1.5 12 1.5C11.1136 1.5 10.2358 1.6746 9.41687 2.01382C8.59791 2.35305 7.8538 2.85025 7.227 3.47706C7.09038 3.61851 7.01479 3.80796 7.01649 4.00461C7.0182 4.20126 7.09708 4.38937 7.23614 4.52842C7.37519 4.66748 7.5633 4.74636 7.75995 4.74806C7.9566 4.74977 8.14605 4.67418 8.2875 4.53756ZM10.41 6.66006C10.619 6.45097 10.8671 6.28511 11.1401 6.17195C11.4132 6.05878 11.7059 6.00054 12.0015 6.00054C12.2971 6.00054 12.5898 6.05878 12.8629 6.17195C13.1359 6.28511 13.384 6.45097 13.593 6.66006C13.7345 6.79668 13.9239 6.87227 14.1206 6.87056C14.3172 6.86886 14.5053 6.78998 14.6444 6.65092C14.7834 6.51187 14.8623 6.32376 14.864 6.12711C14.8657 5.93046 14.7901 5.74101 14.6535 5.59956C14.3053 5.25123 13.8918 4.97492 13.4368 4.78641C12.9818 4.59789 12.494 4.50086 12.0015 4.50086C11.509 4.50086 11.0212 4.59789 10.5662 4.78641C10.1112 4.97492 9.69773 5.25123 9.3495 5.59956C9.21288 5.74101 9.13729 5.93046 9.13899 6.12711C9.1407 6.32376 9.21958 6.51187 9.35864 6.65092C9.49769 6.78998 9.6858 6.86886 9.88245 6.87056C10.0791 6.87227 10.2685 6.79668 10.41 6.66006ZM4.461 3.51306C4.43275 3.41621 4.38525 3.32605 4.32135 3.24798C4.25744 3.16992 4.17844 3.10555 4.08908 3.05872C3.99972 3.0119 3.90182 2.98359 3.80126 2.97548C3.7007 2.96738 3.59954 2.97964 3.50383 3.01155C3.40812 3.04345 3.31983 3.09433 3.24424 3.16116C3.16866 3.22798 3.10733 3.30936 3.06394 3.40044C3.02054 3.49152 2.99596 3.59041 2.99168 3.69121C2.98739 3.792 3.00349 3.89263 3.039 3.98706L5.709 12.0001H2.25C1.65326 12.0001 1.08097 12.2371 0.65901 12.6591C0.237053 13.081 0 13.6533 0 14.2501L0 17.2501C0 17.8468 0.237053 18.4191 0.65901 18.841C1.08097 19.263 1.65326 19.5001 2.25 19.5001H3C3 19.699 3.07902 19.8897 3.21967 20.0304C3.36032 20.171 3.55109 20.2501 3.75 20.2501H6.75C6.94891 20.2501 7.13968 20.171 7.28033 20.0304C7.42098 19.8897 7.5 19.699 7.5 19.5001H16.5C16.5 19.699 16.579 19.8897 16.7197 20.0304C16.8603 20.171 17.0511 20.2501 17.25 20.2501H20.25C20.4489 20.2501 20.6397 20.171 20.7803 20.0304C20.921 19.8897 21 19.699 21 19.5001H21.75C22.3467 19.5001 22.919 19.263 23.341 18.841C23.7629 18.4191 24 17.8468 24 17.2501V14.2501C24 13.6533 23.7629 13.081 23.341 12.6591C22.919 12.2371 22.3467 12.0001 21.75 12.0001H18.291L20.961 3.98706C20.9965 3.89263 21.0126 3.792 21.0083 3.69121C21.004 3.59041 20.9795 3.49152 20.9361 3.40044C20.8927 3.30936 20.8313 3.22798 20.7558 3.16116C20.6802 3.09433 20.5919 3.04345 20.4962 3.01155C20.4005 2.97964 20.2993 2.96738 20.1987 2.97548C20.0982 2.98359 20.0003 3.0119 19.9109 3.05872C19.8216 3.10555 19.7426 3.16992 19.6787 3.24798C19.6147 3.32605 19.5672 3.41621 19.539 3.51306L16.71 12.0001H7.29L4.461 3.51306ZM3.75 16.5001C3.55109 16.5001 3.36032 16.421 3.21967 16.2804C3.07902 16.1397 3 15.949 3 15.7501C3 15.5511 3.07902 15.3604 3.21967 15.2197C3.36032 15.0791 3.55109 15.0001 3.75 15.0001C3.94891 15.0001 4.13968 15.0791 4.28033 15.2197C4.42098 15.3604 4.5 15.5511 4.5 15.7501C4.5 15.949 4.42098 16.1397 4.28033 16.2804C4.13968 16.421 3.94891 16.5001 3.75 16.5001ZM10.5 15.7501C10.5 15.949 10.579 16.1397 10.7197 16.2804C10.8603 16.421 11.0511 16.5001 11.25 16.5001C11.4489 16.5001 11.6397 16.421 11.7803 16.2804C11.921 16.1397 12 15.949 12 15.7501C12 15.5511 11.921 15.3604 11.7803 15.2197C11.6397 15.0791 11.4489 15.0001 11.25 15.0001C11.0511 15.0001 10.8603 15.0791 10.7197 15.2197C10.579 15.3604 10.5 15.5511 10.5 15.7501ZM14.25 16.5001C14.0511 16.5001 13.8603 16.421 13.7197 16.2804C13.579 16.1397 13.5 15.949 13.5 15.7501C13.5 15.5511 13.579 15.3604 13.7197 15.2197C13.8603 15.0791 14.0511 15.0001 14.25 15.0001C14.4489 15.0001 14.6397 15.0791 14.7803 15.2197C14.921 15.3604 15 15.5511 15 15.7501C15 15.949 14.921 16.1397 14.7803 16.2804C14.6397 16.421 14.4489 16.5001 14.25 16.5001ZM16.5 15.7501C16.5 15.949 16.579 16.1397 16.7197 16.2804C16.8603 16.421 17.0511 16.5001 17.25 16.5001C17.4489 16.5001 17.6397 16.421 17.7803 16.2804C17.921 16.1397 18 15.949 18 15.7501C18 15.5511 17.921 15.3604 17.7803 15.2197C17.6397 15.0791 17.4489 15.0001 17.25 15.0001C17.0511 15.0001 16.8603 15.0791 16.7197 15.2197C16.579 15.3604 16.5 15.5511 16.5 15.7501ZM19.5 15.7501C19.5 15.949 19.579 16.1397 19.7197 16.2804C19.8603 16.421 20.0511 16.5001 20.25 16.5001C20.4489 16.5001 20.6397 16.421 20.7803 16.2804C20.921 16.1397 21 15.949 21 15.7501C21 15.5511 20.921 15.3604 20.7803 15.2197C20.6397 15.0791 20.4489 15.0001 20.25 15.0001C20.0511 15.0001 19.8603 15.0791 19.7197 15.2197C19.579 15.3604 19.5 15.5511 19.5 15.7501ZM12.75 8.25006C12.75 8.44897 12.671 8.63974 12.5303 8.78039C12.3897 8.92104 12.1989 9.00006 12 9.00006C11.8011 9.00006 11.6103 8.92104 11.4697 8.78039C11.329 8.63974 11.25 8.44897 11.25 8.25006C11.25 8.05115 11.329 7.86038 11.4697 7.71973C11.6103 7.57908 11.8011 7.50006 12 7.50006C12.1989 7.50006 12.3897 7.57908 12.5303 7.71973C12.671 7.86038 12.75 8.05115 12.75 8.25006Z" fill="black"/>
</g>
<defs>
<clipPath id="clip0_2_7482">
<rect width="24" height="24" fill="white"/>
</clipPath>
</defs>
</svg>
