<svg width="24" height="24" viewBox="0 0 24 24" fill="none" xmlns="http://www.w3.org/2000/svg">
<g clip-path="url(#clip0_2_7784)">
<path d="M3 1.5C2.60218 1.5 2.22064 1.65804 1.93934 1.93934C1.65804 2.22064 1.5 2.60218 1.5 3V21C1.5 21.3978 1.65804 21.7794 1.93934 22.0607C2.22064 22.342 2.60218 22.5 3 22.5H21C21.3978 22.5 21.7794 22.342 22.0607 22.0607C22.342 21.7794 22.5 21.3978 22.5 21V3C22.5 2.60218 22.342 2.22064 22.0607 1.93934C21.7794 1.65804 21.3978 1.5 21 1.5H14.25C13.8522 1.5 13.4706 1.65804 13.1893 1.93934C12.908 2.22064 12.75 2.60218 12.75 3V13.9395L16.719 9.969C16.8598 9.82817 17.0508 9.74905 17.25 9.74905C17.4492 9.74905 17.6402 9.82817 17.781 9.969C17.9218 10.1098 18.0009 10.3008 18.0009 10.5C18.0009 10.6992 17.9218 10.8902 17.781 11.031L12.531 16.281C12.4613 16.3508 12.3786 16.4063 12.2874 16.4441C12.1963 16.4819 12.0987 16.5013 12 16.5013C11.9013 16.5013 11.8037 16.4819 11.7125 16.4441C11.6214 16.4063 11.5387 16.3508 11.469 16.281L6.219 11.031C6.14927 10.9613 6.09395 10.8785 6.05621 10.7874C6.01848 10.6963 5.99905 10.5986 5.99905 10.5C5.99905 10.4014 6.01848 10.3037 6.05621 10.2126C6.09395 10.1215 6.14927 10.0387 6.219 9.969C6.28873 9.89927 6.37152 9.84395 6.46262 9.80622C6.55373 9.76848 6.65138 9.74905 6.75 9.74905C6.84862 9.74905 6.94627 9.76848 7.03738 9.80622C7.12848 9.84395 7.21127 9.89927 7.281 9.969L11.25 13.9395V3C11.25 2.20435 11.5661 1.44129 12.1287 0.87868C12.6913 0.316071 13.4544 0 14.25 0L21 0C21.7956 0 22.5587 0.316071 23.1213 0.87868C23.6839 1.44129 24 2.20435 24 3V21C24 21.7956 23.6839 22.5587 23.1213 23.1213C22.5587 23.6839 21.7956 24 21 24H3C2.20435 24 1.44129 23.6839 0.87868 23.1213C0.316071 22.5587 0 21.7956 0 21V3C0 2.20435 0.316071 1.44129 0.87868 0.87868C1.44129 0.316071 2.20435 0 3 0L6.75 0C6.94891 0 7.13968 0.0790176 7.28033 0.21967C7.42098 0.360322 7.5 0.551088 7.5 0.75C7.5 0.948912 7.42098 1.13968 7.28033 1.28033C7.13968 1.42098 6.94891 1.5 6.75 1.5H3Z" fill="black"/>
</g>
<defs>
<clipPath id="clip0_2_7784">
<rect width="24" height="24" fill="white"/>
</clipPath>
</defs>
</svg>
