<svg width="24" height="24" viewBox="0 0 24 24" fill="none" xmlns="http://www.w3.org/2000/svg">
<path d="M5.25003 5.25C4.32903 3.924 5.13903 2.307 6.53703 1.5L12 10.839L17.463 1.5C18.861 2.307 19.671 3.924 18.75 5.25L13.215 12.915L15.549 16.9065C16.3761 16.4853 17.3299 16.3857 18.2261 16.627C19.1223 16.8683 19.8972 17.4334 20.4008 18.213C20.9045 18.9926 21.1012 19.9312 20.9528 20.8474C20.8045 21.7636 20.3216 22.5922 19.5977 23.173C18.8737 23.7538 17.9601 24.0455 17.0336 23.9917C16.107 23.9379 15.2333 23.5424 14.5815 22.8817C13.9297 22.221 13.546 21.342 13.5047 20.4148C13.4635 19.4876 13.7675 18.578 14.358 17.862L12 14.595L9.64203 17.8605C10.2326 18.5765 10.5366 19.4861 10.4953 20.4133C10.454 21.3405 10.0704 22.2195 9.41856 22.8802C8.76674 23.5409 7.89305 23.9364 6.96649 23.9902C6.03993 24.044 5.12633 23.7523 4.40239 23.1715C3.67845 22.5907 3.1956 21.7621 3.04725 20.8459C2.8989 19.9297 3.09557 18.9911 3.59923 18.2115C4.1029 17.4319 4.87776 16.8668 5.77396 16.6255C6.67016 16.3842 7.62401 16.4838 8.45103 16.905L10.785 12.915L5.25003 5.25ZM9.00003 20.25C9.00003 19.6533 8.76298 19.081 8.34102 18.659C7.91907 18.2371 7.34677 18 6.75003 18C6.1533 18 5.581 18.2371 5.15904 18.659C4.73709 19.081 4.50003 19.6533 4.50003 20.25C4.50003 20.8467 4.73709 21.419 5.15904 21.841C5.581 22.2629 6.1533 22.5 6.75003 22.5C7.34677 22.5 7.91907 22.2629 8.34102 21.841C8.76298 21.419 9.00003 20.8467 9.00003 20.25ZM19.5 20.25C19.5 19.6533 19.263 19.081 18.841 18.659C18.4191 18.2371 17.8468 18 17.25 18C16.6533 18 16.081 18.2371 15.659 18.659C15.2371 19.081 15 19.6533 15 20.25C15 20.8467 15.2371 21.419 15.659 21.841C16.081 22.2629 16.6533 22.5 17.25 22.5C17.8468 22.5 18.4191 22.2629 18.841 21.841C19.263 21.419 19.5 20.8467 19.5 20.25Z" fill="black"/>
</svg>
