<svg width="24" height="24" viewBox="0 0 24 24" fill="none" xmlns="http://www.w3.org/2000/svg">
<path fill-rule="evenodd" clip-rule="evenodd" d="M18.75 0H8.871C8.27446 0.000525156 7.70255 0.237923 7.281 0.66L3.6585 4.2795C3.4496 4.48853 3.28392 4.73667 3.17094 5.00975C3.05795 5.28282 2.99987 5.57548 3 5.871V21.75C3 22.3467 3.23705 22.919 3.65901 23.341C4.08097 23.7629 4.65326 24 5.25 24H18.75C19.3467 24 19.919 23.7629 20.341 23.341C20.7629 22.919 21 22.3467 21 21.75V2.25C21 1.65326 20.7629 1.08097 20.341 0.65901C19.919 0.237053 19.3467 0 18.75 0V0ZM8.25 4.125C8.54837 4.125 8.83452 4.24353 9.0455 4.4545C9.25647 4.66548 9.375 4.95163 9.375 5.25V8.25C9.375 8.54837 9.25647 8.83452 9.0455 9.0455C8.83452 9.25647 8.54837 9.375 8.25 9.375C7.95163 9.375 7.66548 9.25647 7.4545 9.0455C7.24353 8.83452 7.125 8.54837 7.125 8.25V5.25C7.125 4.95163 7.24353 4.66548 7.4545 4.4545C7.66548 4.24353 7.95163 4.125 8.25 4.125ZM11.25 4.125C11.5484 4.125 11.8345 4.24353 12.0455 4.4545C12.2565 4.66548 12.375 4.95163 12.375 5.25V8.25C12.375 8.54837 12.2565 8.83452 12.0455 9.0455C11.8345 9.25647 11.5484 9.375 11.25 9.375C10.9516 9.375 10.6655 9.25647 10.4545 9.0455C10.2435 8.83452 10.125 8.54837 10.125 8.25V5.25C10.125 4.95163 10.2435 4.66548 10.4545 4.4545C10.6655 4.24353 10.9516 4.125 11.25 4.125ZM15.375 5.25C15.375 4.95163 15.2565 4.66548 15.0455 4.4545C14.8345 4.24353 14.5484 4.125 14.25 4.125C13.9516 4.125 13.6655 4.24353 13.4545 4.4545C13.2435 4.66548 13.125 4.95163 13.125 5.25V8.25C13.125 8.54837 13.2435 8.83452 13.4545 9.0455C13.6655 9.25647 13.9516 9.375 14.25 9.375C14.5484 9.375 14.8345 9.25647 15.0455 9.0455C15.2565 8.83452 15.375 8.54837 15.375 8.25V5.25ZM17.25 4.125C17.5484 4.125 17.8345 4.24353 18.0455 4.4545C18.2565 4.66548 18.375 4.95163 18.375 5.25V8.25C18.375 8.54837 18.2565 8.83452 18.0455 9.0455C17.8345 9.25647 17.5484 9.375 17.25 9.375C16.9516 9.375 16.6655 9.25647 16.4545 9.0455C16.2435 8.83452 16.125 8.54837 16.125 8.25V5.25C16.125 4.95163 16.2435 4.66548 16.4545 4.4545C16.6655 4.24353 16.9516 4.125 17.25 4.125Z" fill="black"/>
</svg>
