<svg width="24" height="24" viewBox="0 0 24 24" fill="none" xmlns="http://www.w3.org/2000/svg">
<g clip-path="url(#clip0_2_7473)">
<path fill-rule="evenodd" clip-rule="evenodd" d="M23.946 1.0292C24.0006 0.892901 24.0139 0.743591 23.9844 0.599777C23.9549 0.455962 23.8839 0.323968 23.7801 0.220158C23.6763 0.116349 23.5443 0.0452885 23.4005 0.0157873C23.2566 -0.0137139 23.1073 -0.000358609 22.971 0.0541974L1.15054 8.7827C0.958369 8.85962 0.79115 8.98806 0.667282 9.1539C0.543414 9.31973 0.467698 9.51652 0.448469 9.72262C0.42924 9.92871 0.467242 10.1361 0.558294 10.322C0.649346 10.5079 0.789916 10.6651 0.964535 10.7762L8.45704 15.5432L10.7535 19.1522C10.862 19.316 11.0304 19.4306 11.2225 19.4716C11.4146 19.5125 11.6151 19.4765 11.7809 19.3712C11.9467 19.2659 12.0646 19.0997 12.1092 18.9084C12.1538 18.7172 12.1216 18.516 12.0195 18.3482L9.95554 15.1052L21.1965 3.8642L18.354 10.9712C18.315 11.063 18.2947 11.1618 18.2942 11.2616C18.2938 11.3614 18.3133 11.4602 18.3516 11.5524C18.3899 11.6446 18.4462 11.7282 18.5172 11.7983C18.5882 11.8684 18.6725 11.9237 18.7652 11.9608C18.8578 11.998 18.9569 12.0162 19.0567 12.0146C19.1565 12.0129 19.255 11.9913 19.3463 11.9511C19.4377 11.9109 19.5201 11.8529 19.5887 11.7805C19.6573 11.708 19.7108 11.6226 19.746 11.5292L23.946 1.0292ZM20.136 2.8037L8.89503 14.0447L2.38654 9.9032L20.136 2.8037ZM24 18.7502C24 20.1426 23.4469 21.4779 22.4623 22.4625C21.4778 23.4471 20.1424 24.0002 18.75 24.0002C17.3576 24.0002 16.0223 23.4471 15.0377 22.4625C14.0532 21.4779 13.5 20.1426 13.5 18.7502C13.5 17.3578 14.0532 16.0225 15.0377 15.0379C16.0223 14.0533 17.3576 13.5002 18.75 13.5002C20.1424 13.5002 21.4778 14.0533 22.4623 15.0379C23.4469 16.0225 24 17.3578 24 18.7502ZM15.75 18.7502C15.75 18.5513 15.8291 18.3605 15.9697 18.2199C16.1104 18.0792 16.3011 18.0002 16.5 18.0002H21C21.1989 18.0002 21.3897 18.0792 21.5304 18.2199C21.671 18.3605 21.75 18.5513 21.75 18.7502C21.75 18.9491 21.671 19.1399 21.5304 19.2805C21.3897 19.4212 21.1989 19.5002 21 19.5002H16.5C16.3011 19.5002 16.1104 19.4212 15.9697 19.2805C15.8291 19.1399 15.75 18.9491 15.75 18.7502Z" fill="black"/>
</g>
<defs>
<clipPath id="clip0_2_7473">
<rect width="24" height="24" fill="white"/>
</clipPath>
</defs>
</svg>
