<svg width="24" height="24" viewBox="0 0 24 24" fill="none" xmlns="http://www.w3.org/2000/svg">
<g clip-path="url(#clip0_2_7472)">
<path fill-rule="evenodd" clip-rule="evenodd" d="M23.9464 1.02871C24.0009 0.892413 24.0143 0.743103 23.9848 0.599288C23.9553 0.455474 23.8842 0.32348 23.7804 0.21967C23.6766 0.11586 23.5446 0.0448002 23.4008 0.015299C23.257 -0.0142021 23.1077 -0.000846891 22.9714 0.0537091L1.15089 8.78221H1.14939L0.471392 9.05221C0.342978 9.10343 0.23122 9.18915 0.148466 9.2999C0.0657109 9.41066 0.0151792 9.54212 0.00245241 9.67979C-0.0102744 9.81746 0.015299 9.95596 0.0763477 10.08C0.137396 10.2041 0.231545 10.3088 0.348392 10.3827L0.963392 10.7727L0.964892 10.7757L8.45739 15.5427L10.8424 19.2897C12.0004 20.9997 12.0004 19.4997 12.0004 18.7497C12.0002 17.7966 12.2019 16.8542 12.5921 15.9847C12.9824 15.1151 13.5524 14.3381 14.2646 13.7046C14.9768 13.0712 15.815 12.5958 16.7242 12.3097C17.6334 12.0236 18.5928 11.9333 19.5394 12.0447L23.9464 1.02871ZM21.1969 3.86371L21.9034 2.09671L20.1364 2.80321L8.89539 14.0442L9.40239 14.3667C9.49543 14.4258 9.5743 14.5047 9.63339 14.5977L9.95589 15.1047L21.1969 3.86371ZM18.7504 23.9997C20.1428 23.9997 21.4781 23.4466 22.4627 22.462C23.4473 21.4775 24.0004 20.1421 24.0004 18.7497C24.0004 17.3573 23.4473 16.022 22.4627 15.0374C21.4781 14.0528 20.1428 13.4997 18.7504 13.4997C17.358 13.4997 16.0226 14.0528 15.0381 15.0374C14.0535 16.022 13.5004 17.3573 13.5004 18.7497C13.5004 20.1421 14.0535 21.4775 15.0381 22.462C16.0226 23.4466 17.358 23.9997 18.7504 23.9997ZM19.5004 16.4997C19.5004 16.3008 19.4214 16.11 19.2807 15.9694C19.1401 15.8287 18.9493 15.7497 18.7504 15.7497C18.5515 15.7497 18.3607 15.8287 18.2201 15.9694C18.0794 16.11 18.0004 16.3008 18.0004 16.4997V18.7497C18.0004 18.9486 18.0794 19.1394 18.2201 19.28C18.3607 19.4207 18.5515 19.4997 18.7504 19.4997C18.9493 19.4997 19.1401 19.4207 19.2807 19.28C19.4214 19.1394 19.5004 18.9486 19.5004 18.7497V16.4997ZM19.5004 20.9997C19.5004 21.1986 19.4214 21.3894 19.2807 21.53C19.1401 21.6707 18.9493 21.7497 18.7504 21.7497C18.5515 21.7497 18.3607 21.6707 18.2201 21.53C18.0794 21.3894 18.0004 21.1986 18.0004 20.9997C18.0004 20.8008 18.0794 20.61 18.2201 20.4694C18.3607 20.3287 18.5515 20.2497 18.7504 20.2497C18.9493 20.2497 19.1401 20.3287 19.2807 20.4694C19.4214 20.61 19.5004 20.8008 19.5004 20.9997Z" fill="black"/>
</g>
<defs>
<clipPath id="clip0_2_7472">
<rect width="24" height="24" fill="white"/>
</clipPath>
</defs>
</svg>
