<svg width="24" height="24" viewBox="0 0 24 24" fill="none" xmlns="http://www.w3.org/2000/svg">
<path d="M8.00701 2.385C6.57839 2.77872 5.15948 3.20685 3.75151 3.669C3.62294 3.71065 3.50866 3.78756 3.42167 3.89099C3.33469 3.99442 3.2785 4.1202 3.25951 4.254C2.42851 10.4895 4.34851 15.039 6.63901 18.036C7.60878 19.3176 8.76512 20.4466 10.0695 21.3855C10.5885 21.7515 11.0475 22.0155 11.409 22.185C11.589 22.2705 11.736 22.3275 11.8485 22.362C11.8977 22.3793 11.9484 22.3918 12 22.3995C12.051 22.3912 12.1011 22.3787 12.15 22.362C12.264 22.3275 12.411 22.2705 12.591 22.185C12.951 22.0155 13.4115 21.75 13.9305 21.3855C15.2349 20.4466 16.3912 19.3176 17.361 18.036C19.6515 15.0405 21.5715 10.4895 20.7405 4.254C20.7217 4.12014 20.6656 3.99427 20.5786 3.89082C20.4915 3.78736 20.3772 3.71049 20.2485 3.669C19.272 3.3495 17.6235 2.829 15.993 2.3865C14.328 1.935 12.7965 1.6005 12 1.6005C11.205 1.6005 9.67201 1.935 8.00701 2.3865V2.385ZM7.60801 0.84C9.23551 0.3975 10.965 0 12 0C13.035 0 14.7645 0.3975 16.392 0.84C18.057 1.29 19.7355 1.8225 20.7225 2.145C21.1352 2.28128 21.501 2.5312 21.778 2.86605C22.055 3.20091 22.232 3.60711 22.2885 4.038C23.1825 10.7535 21.108 15.7305 18.591 19.023C17.5237 20.4315 16.251 21.6718 14.8155 22.7025C14.3191 23.0592 13.7932 23.3728 13.2435 23.64C12.8235 23.838 12.372 24 12 24C11.628 24 11.178 23.838 10.7565 23.64C10.2068 23.3728 9.68087 23.0592 9.18451 22.7025C7.74905 21.6717 6.47638 20.4314 5.40901 19.023C2.89201 15.7305 0.817508 10.7535 1.71151 4.038C1.76804 3.60711 1.94497 3.20091 2.22198 2.86605C2.49899 2.5312 2.86485 2.28128 3.27751 2.145C4.7103 1.67521 6.15422 1.24009 7.60801 0.84Z" fill="black"/>
<path d="M10.5015 16.5002C10.5015 16.1024 10.6595 15.7208 10.9408 15.4395C11.2221 15.1582 11.6036 15.0002 12.0015 15.0002C12.3993 15.0002 12.7808 15.1582 13.0621 15.4395C13.3434 15.7208 13.5015 16.1024 13.5015 16.5002C13.5015 16.898 13.3434 17.2795 13.0621 17.5608C12.7808 17.8421 12.3993 18.0002 12.0015 18.0002C11.6036 18.0002 11.2221 17.8421 10.9408 17.5608C10.6595 17.2795 10.5015 16.898 10.5015 16.5002ZM10.65 7.49268C10.63 7.30344 10.65 7.11211 10.7088 6.93112C10.7675 6.75012 10.8636 6.5835 10.9909 6.44206C11.1182 6.30062 11.2739 6.18752 11.4477 6.1101C11.6215 6.03268 11.8097 5.99268 12 5.99268C12.1903 5.99268 12.3784 6.03268 12.5522 6.1101C12.7261 6.18752 12.8817 6.30062 13.009 6.44206C13.1363 6.5835 13.2324 6.75012 13.2912 6.93112C13.3499 7.11211 13.3699 7.30344 13.35 7.49268L12.825 12.7532C12.8036 12.9571 12.7075 13.1459 12.5552 13.2832C12.4028 13.4204 12.205 13.4964 12 13.4964C11.7949 13.4964 11.5971 13.4204 11.4448 13.2832C11.2924 13.1459 11.1963 12.9571 11.175 12.7532L10.65 7.49268Z" fill="black"/>
</svg>
