<svg width="24" height="24" viewBox="0 0 24 24" fill="none" xmlns="http://www.w3.org/2000/svg">
<path fill-rule="evenodd" clip-rule="evenodd" d="M12 22.3995C12.051 22.3912 12.1011 22.3787 12.15 22.362C12.264 22.3275 12.411 22.2705 12.591 22.185C12.951 22.0155 13.4115 21.75 13.9305 21.3855C15.2349 20.4466 16.3912 19.3176 17.361 18.036C19.6515 15.0405 21.5715 10.4895 20.7405 4.254C20.7217 4.12014 20.6656 3.99427 20.5786 3.89082C20.4915 3.78736 20.3772 3.71049 20.2485 3.669C19.272 3.3495 17.6235 2.829 15.993 2.3865C14.328 1.935 12.7965 1.6005 12 1.6005V22.3995ZM7.60801 0.84C9.23551 0.3975 10.965 0 12 0C13.035 0 14.7645 0.3975 16.392 0.84C18.057 1.29 19.7355 1.8225 20.7225 2.145C21.1352 2.28128 21.501 2.5312 21.778 2.86605C22.055 3.20091 22.232 3.60711 22.2885 4.038C23.1825 10.7535 21.108 15.7305 18.591 19.023C17.5237 20.4315 16.251 21.6718 14.8155 22.7025C14.3191 23.0592 13.7932 23.3728 13.2435 23.64C12.8235 23.838 12.372 24 12 24C11.628 24 11.178 23.838 10.7565 23.64C10.2068 23.3728 9.68087 23.0592 9.18451 22.7025C7.74905 21.6717 6.47638 20.4314 5.40901 19.023C2.89201 15.7305 0.817508 10.7535 1.71151 4.038C1.76804 3.60711 1.94497 3.20091 2.22198 2.86605C2.49899 2.5312 2.86485 2.28128 3.27751 2.145C4.7103 1.67521 6.15422 1.24009 7.60801 0.84Z" fill="black"/>
</svg>
