<svg width="24" height="24" viewBox="0 0 24 24" fill="none" xmlns="http://www.w3.org/2000/svg">
<path fill-rule="evenodd" clip-rule="evenodd" d="M12 0C10.965 0 9.23551 0.3975 7.60801 0.84C5.94301 1.29 4.26451 1.8225 3.27751 2.145C2.86485 2.28128 2.49899 2.5312 2.22198 2.86605C1.94497 3.20091 1.76804 3.60711 1.71151 4.038C0.817508 10.7535 2.89201 15.7305 5.40901 19.023C6.47638 20.4314 7.74905 21.6717 9.18451 22.7025C9.76351 23.112 10.3005 23.4255 10.7565 23.64C11.1765 23.838 11.628 24 12 24C12.372 24 12.822 23.838 13.2435 23.64C13.7932 23.3728 14.3191 23.0592 14.8155 22.7025C16.251 21.6718 17.5237 20.4315 18.591 19.023C21.108 15.7305 23.1825 10.7535 22.2885 4.038C22.2321 3.6069 22.0552 3.20046 21.7782 2.86535C21.5012 2.53024 21.1353 2.28004 20.7225 2.1435C19.2897 1.67372 17.8458 1.23859 16.392 0.8385C14.7645 0.399 13.035 0 12 0ZM15.219 7.719C15.3598 7.57817 15.5508 7.49905 15.75 7.49905C15.9492 7.49905 16.1402 7.57817 16.281 7.719C16.4218 7.85983 16.501 8.05084 16.501 8.25C16.501 8.44916 16.4218 8.64017 16.281 8.781L11.781 13.281C11.7113 13.3508 11.6286 13.4063 11.5375 13.4441C11.4463 13.4819 11.3487 13.5013 11.25 13.5013C11.1514 13.5013 11.0537 13.4819 10.9626 13.4441C10.8714 13.4063 10.7887 13.3508 10.719 13.281L8.46901 11.031C8.39928 10.9613 8.34396 10.8785 8.30622 10.7874C8.26848 10.6963 8.24906 10.5986 8.24906 10.5C8.24906 10.4014 8.26848 10.3037 8.30622 10.2126C8.34396 10.1215 8.39928 10.0387 8.46901 9.969C8.53874 9.89927 8.62152 9.84395 8.71263 9.80622C8.80374 9.76848 8.90139 9.74905 9.00001 9.74905C9.09862 9.74905 9.19627 9.76848 9.28738 9.80622C9.37849 9.84395 9.46128 9.89927 9.53101 9.969L11.25 11.6895L15.219 7.719Z" fill="black"/>
</svg>
