<svg width="24" height="24" viewBox="0 0 24 24" fill="none" xmlns="http://www.w3.org/2000/svg">
<path d="M10.5 2.12109V6.00009H3C2.60218 6.00009 2.22064 6.15813 1.93934 6.43943C1.65804 6.72074 1.5 7.10227 1.5 7.50009V13.5001C1.5 13.8979 1.65804 14.2795 1.93934 14.5608C2.22064 14.8421 2.60218 15.0001 3 15.0001H10.5V24.0001H13.5V15.0001H18.798C19.0179 15 19.235 14.9516 19.4341 14.8583C19.6332 14.765 19.8093 14.629 19.95 14.4601L22.8495 10.9801C22.9618 10.8453 23.0232 10.6755 23.0232 10.5001C23.0232 10.3247 22.9618 10.1549 22.8495 10.0201L19.95 6.54009C19.8093 6.37116 19.6332 6.23522 19.4341 6.14191C19.235 6.04859 19.0179 6.00018 18.798 6.00009H13.5V2.12109C13.5 1.72327 13.342 1.34174 13.0607 1.06043C12.7794 0.779129 12.3978 0.621094 12 0.621094C11.6022 0.621094 11.2206 0.779129 10.9393 1.06043C10.658 1.34174 10.5 1.72327 10.5 2.12109ZM18.798 7.50009L21.297 10.5001L18.798 13.5001H3V7.50009H18.798Z" fill="black"/>
</svg>
