<svg width="24" height="24" viewBox="0 0 24 24" fill="none" xmlns="http://www.w3.org/2000/svg">
<g clip-path="url(#clip0_2_7465)">
<path d="M10.9395 1.06027C10.6582 1.34151 10.5001 1.72298 10.5 2.12077V2.99977H3C2.60218 2.99977 2.22064 3.15781 1.93934 3.43911C1.65804 3.72042 1.5 4.10195 1.5 4.49977V7.49977C1.5 7.8976 1.65804 8.27913 1.93934 8.56043C2.22064 8.84174 2.60218 8.99977 3 8.99977H10.5V10.4998H3.75C3.51713 10.4998 3.28746 10.554 3.07918 10.6581C2.8709 10.7623 2.68972 10.9135 2.55 11.0998L1.0875 13.0498C0.990133 13.1796 0.9375 13.3375 0.9375 13.4998C0.9375 13.6621 0.990133 13.82 1.0875 13.9498L2.55 15.8998C2.68972 16.0861 2.8709 16.2373 3.07918 16.3414C3.28746 16.4456 3.51713 16.4998 3.75 16.4998H10.5V23.9998H13.5V16.4998H21C21.3978 16.4998 21.7794 16.3417 22.0607 16.0604C22.342 15.7791 22.5 15.3976 22.5 14.9998V11.9998C22.5 11.6019 22.342 11.2204 22.0607 10.9391C21.7794 10.6578 21.3978 10.4998 21 10.4998H13.5V8.99977H20.25C20.4829 8.99977 20.7125 8.94556 20.9208 8.84142C21.1291 8.73727 21.3103 8.58607 21.45 8.39977L22.9125 6.44977C23.0099 6.31995 23.0625 6.16205 23.0625 5.99977C23.0625 5.8375 23.0099 5.6796 22.9125 5.54977L21.45 3.59977C21.3103 3.41348 21.1291 3.26227 20.9208 3.15813C20.7125 3.05399 20.4829 2.99977 20.25 2.99977H13.5V2.12077C13.4999 1.82415 13.4119 1.5342 13.2471 1.28759C13.0823 1.04097 12.848 0.848762 12.574 0.735257C12.2999 0.621752 11.9984 0.592048 11.7075 0.649899C11.4165 0.70775 11.1493 0.85056 10.9395 1.06027Z" fill="black"/>
</g>
<defs>
<clipPath id="clip0_2_7465">
<rect width="24" height="24" fill="white"/>
</clipPath>
</defs>
</svg>
