<svg width="24" height="24" viewBox="0 0 24 24" fill="none" xmlns="http://www.w3.org/2000/svg">
<g clip-path="url(#clip0_2_7833)">
<path d="M7.5 6.75C7.5 6.55109 7.57902 6.36032 7.71967 6.21967C7.86032 6.07902 8.05109 6 8.25 6H11.25V9H7.5V6.75ZM12.75 9V6H15.75C15.9489 6 16.1397 6.07902 16.2803 6.21967C16.421 6.36032 16.5 6.55109 16.5 6.75V9H12.75ZM7.5 10.5H16.5V13.5H7.5V10.5ZM12.75 15H16.5V17.25C16.5 17.4489 16.421 17.6397 16.2803 17.7803C16.1397 17.921 15.9489 18 15.75 18H12.75V15ZM11.25 15V18H8.25C8.05109 18 7.86032 17.921 7.71967 17.7803C7.57902 17.6397 7.5 17.4489 7.5 17.25V15H11.25Z" fill="black"/>
<path d="M5.25 2.30957e-07C4.65326 2.30957e-07 4.08097 0.237053 3.65901 0.65901C3.23705 1.08097 3 1.65326 3 2.25V21.75C3 22.3467 3.23705 22.919 3.65901 23.341C4.08097 23.7629 4.65326 24 5.25 24H18.75C19.3467 24 19.919 23.7629 20.341 23.341C20.7629 22.919 21 22.3467 21 21.75V5.121C20.9995 4.52446 20.7621 3.95255 20.34 3.531L17.4705 0.6585C17.2615 0.4496 17.0133 0.283925 16.7403 0.170938C16.4672 0.0579515 16.1745 -0.000133664 15.879 2.30957e-07H5.25ZM8.25 4.5H15.75C16.3467 4.5 16.919 4.73705 17.341 5.15901C17.7629 5.58097 18 6.15326 18 6.75V17.25C18 17.8467 17.7629 18.419 17.341 18.841C16.919 19.2629 16.3467 19.5 15.75 19.5H8.25C7.65326 19.5 7.08097 19.2629 6.65901 18.841C6.23705 18.419 6 17.8467 6 17.25V6.75C6 6.15326 6.23705 5.58097 6.65901 5.15901C7.08097 4.73705 7.65326 4.5 8.25 4.5Z" fill="black"/>
</g>
<defs>
<clipPath id="clip0_2_7833">
<rect width="24" height="24" fill="white"/>
</clipPath>
</defs>
</svg>
