<svg width="24" height="24" viewBox="0 0 24 24" fill="none" xmlns="http://www.w3.org/2000/svg">
<path d="M3 2.25C3 1.65326 3.23705 1.08097 3.65901 0.65901C4.08097 0.237053 4.65326 0 5.25 0L15.879 0C16.4755 0.000525156 17.0474 0.237923 17.469 0.66L20.3415 3.531C20.763 3.9528 20.9999 4.52468 21 5.121V21.75C21 22.3467 20.7629 22.919 20.341 23.341C19.919 23.7629 19.3467 24 18.75 24H5.25C4.65326 24 4.08097 23.7629 3.65901 23.341C3.23705 22.919 3 22.3467 3 21.75V2.25ZM5.25 1.5C5.05109 1.5 4.86032 1.57902 4.71967 1.71967C4.57902 1.86032 4.5 2.05109 4.5 2.25V21.75C4.5 21.9489 4.57902 22.1397 4.71967 22.2803C4.86032 22.421 5.05109 22.5 5.25 22.5H18.75C18.9489 22.5 19.1397 22.421 19.2803 22.2803C19.421 22.1397 19.5 21.9489 19.5 21.75V5.121C19.5 4.92247 19.4212 4.73206 19.281 4.5915L16.4085 1.719C16.2679 1.5788 16.0775 1.50004 15.879 1.5H5.25Z" fill="black"/>
<path d="M8.25 6C8.05109 6 7.86032 6.07902 7.71967 6.21967C7.57902 6.36032 7.5 6.55109 7.5 6.75V9H11.25V6H8.25ZM12.75 6V9H16.5V6.75C16.5 6.55109 16.421 6.36032 16.2803 6.21967C16.1397 6.07902 15.9489 6 15.75 6H12.75ZM16.5 10.5H7.5V13.5H16.5V10.5ZM16.5 15H12.75V18H15.75C15.9489 18 16.1397 17.921 16.2803 17.7803C16.421 17.6397 16.5 17.4489 16.5 17.25V15ZM11.25 18V15H7.5V17.25C7.5 17.4489 7.57902 17.6397 7.71967 17.7803C7.86032 17.921 8.05109 18 8.25 18H11.25ZM6 6.75C6 6.15326 6.23705 5.58097 6.65901 5.15901C7.08097 4.73705 7.65326 4.5 8.25 4.5H15.75C16.3467 4.5 16.919 4.73705 17.341 5.15901C17.7629 5.58097 18 6.15326 18 6.75V17.25C18 17.8467 17.7629 18.419 17.341 18.841C16.919 19.2629 16.3467 19.5 15.75 19.5H8.25C7.65326 19.5 7.08097 19.2629 6.65901 18.841C6.23705 18.419 6 17.8467 6 17.25V6.75Z" fill="black"/>
</svg>
