<svg width="24" height="24" viewBox="0 0 24 24" fill="none" xmlns="http://www.w3.org/2000/svg">
<g clip-path="url(#clip0_2_8558)">
<path d="M24 12C24 15.1826 22.7357 18.2348 20.4853 20.4853C18.2348 22.7357 15.1826 24 12 24C8.8174 24 5.76516 22.7357 3.51472 20.4853C1.26428 18.2348 0 15.1826 0 12C0 8.8174 1.26428 5.76516 3.51472 3.51472C5.76516 1.26428 8.8174 0 12 0C15.1826 0 18.2348 1.26428 20.4853 3.51472C22.7357 5.76516 24 8.8174 24 12ZM7.185 7.6395C7.07285 7.55965 6.9409 7.51221 6.80358 7.50238C6.66627 7.49254 6.52889 7.52069 6.40651 7.58374C6.28413 7.64679 6.18147 7.74231 6.10976 7.85983C6.03806 7.97735 6.00008 8.11233 6 8.25V15.75C6.00008 15.8877 6.03806 16.0227 6.10976 16.1402C6.18147 16.2577 6.28413 16.3532 6.40651 16.4163C6.52889 16.4793 6.66627 16.5075 6.80358 16.4976C6.9409 16.4878 7.07285 16.4403 7.185 16.3605L11.25 13.458V15.75C11.2501 15.8877 11.2881 16.0227 11.3598 16.1402C11.4315 16.2577 11.5341 16.3532 11.6565 16.4163C11.7789 16.4793 11.9163 16.5075 12.0536 16.4976C12.1909 16.4878 12.3229 16.4403 12.435 16.3605L16.5 13.458V15.75C16.5 15.9489 16.579 16.1397 16.7197 16.2803C16.8603 16.421 17.0511 16.5 17.25 16.5C17.4489 16.5 17.6397 16.421 17.7803 16.2803C17.921 16.1397 18 15.9489 18 15.75V8.25C18 8.05109 17.921 7.86032 17.7803 7.71967C17.6397 7.57902 17.4489 7.5 17.25 7.5C17.0511 7.5 16.8603 7.57902 16.7197 7.71967C16.579 7.86032 16.5 8.05109 16.5 8.25V10.542L12.435 7.6395C12.3229 7.55965 12.1909 7.51221 12.0536 7.50238C11.9163 7.49254 11.7789 7.52069 11.6565 7.58374C11.5341 7.64679 11.4315 7.74231 11.3598 7.85983C11.2881 7.97735 11.2501 8.11233 11.25 8.25V10.542L7.185 7.6395Z" fill="black"/>
</g>
<defs>
<clipPath id="clip0_2_8558">
<rect width="24" height="24" fill="white"/>
</clipPath>
</defs>
</svg>
