<svg width="24" height="24" viewBox="0 0 24 24" fill="none" xmlns="http://www.w3.org/2000/svg">
<g clip-path="url(#clip0_2_7742)">
<path d="M12 22.5C9.21523 22.5 6.54451 21.3938 4.57538 19.4246C2.60625 17.4555 1.5 14.7848 1.5 12C1.5 9.21523 2.60625 6.54451 4.57538 4.57538C6.54451 2.60625 9.21523 1.5 12 1.5C14.7848 1.5 17.4555 2.60625 19.4246 4.57538C21.3938 6.54451 22.5 9.21523 22.5 12C22.5 14.7848 21.3938 17.4555 19.4246 19.4246C17.4555 21.3938 14.7848 22.5 12 22.5ZM12 24C15.1826 24 18.2348 22.7357 20.4853 20.4853C22.7357 18.2348 24 15.1826 24 12C24 8.8174 22.7357 5.76516 20.4853 3.51472C18.2348 1.26428 15.1826 0 12 0C8.8174 0 5.76516 1.26428 3.51472 3.51472C1.26428 5.76516 0 8.8174 0 12C0 15.1826 1.26428 18.2348 3.51472 20.4853C5.76516 22.7357 8.8174 24 12 24Z" fill="black"/>
<path d="M17.5935 7.58272C17.4708 7.51955 17.3331 7.49145 17.1955 7.50151C17.0579 7.51156 16.9257 7.55939 16.8135 7.63972L12.75 10.5422V8.25022C12.7499 8.11256 12.7119 7.97757 12.6402 7.86005C12.5685 7.74253 12.4659 7.64701 12.3435 7.58396C12.2211 7.52092 12.0837 7.49277 11.9464 7.5026C11.8091 7.51244 11.6771 7.55988 11.565 7.63972L7.5 10.5422V8.25022C7.5 8.05131 7.42098 7.86055 7.28033 7.71989C7.13968 7.57924 6.94891 7.50022 6.75 7.50022C6.55109 7.50022 6.36032 7.57924 6.21967 7.71989C6.07902 7.86055 6 8.05131 6 8.25022V15.7502C6 15.9491 6.07902 16.1399 6.21967 16.2806C6.36032 16.4212 6.55109 16.5002 6.75 16.5002C6.94891 16.5002 7.13968 16.4212 7.28033 16.2806C7.42098 16.1399 7.5 15.9491 7.5 15.7502V13.4582L11.565 16.3607C11.6771 16.4406 11.8091 16.488 11.9464 16.4978C12.0837 16.5077 12.2211 16.4795 12.3435 16.4165C12.4659 16.3534 12.5685 16.2579 12.6402 16.1404C12.7119 16.0229 12.7499 15.8879 12.75 15.7502V13.4582L16.815 16.3607C16.9271 16.4406 17.0591 16.488 17.1964 16.4978C17.3337 16.5077 17.4711 16.4795 17.5935 16.4165C17.7159 16.3534 17.8185 16.2579 17.8902 16.1404C17.9619 16.0229 17.9999 15.8879 18 15.7502V8.25022C18.0001 8.11235 17.9623 7.9771 17.8906 7.85934C17.8189 7.74158 17.7161 7.64587 17.5935 7.58272Z" fill="black"/>
</g>
<defs>
<clipPath id="clip0_2_7742">
<rect width="24" height="24" fill="white"/>
</clipPath>
</defs>
</svg>
