<svg width="24" height="24" viewBox="0 0 24 24" fill="none" xmlns="http://www.w3.org/2000/svg">
<path d="M0.75 5.25C0.948912 5.25 1.13968 5.32902 1.28033 5.46967C1.42098 5.61032 1.5 5.80109 1.5 6V10.872L10.9005 5.418C11.6805 4.965 12.75 5.4825 12.75 6.462V10.872L22.1505 5.418C22.9305 4.965 24 5.4825 24 6.462V17.538C24 18.5175 22.9305 19.035 22.1505 18.582L12.75 13.128V17.538C12.75 18.5175 11.6805 19.035 10.9005 18.582L1.5 13.128V18C1.5 18.1989 1.42098 18.3897 1.28033 18.5303C1.13968 18.671 0.948912 18.75 0.75 18.75C0.551088 18.75 0.360322 18.671 0.21967 18.5303C0.0790176 18.3897 0 18.1989 0 18V6C0 5.80109 0.0790176 5.61032 0.21967 5.46967C0.360322 5.32902 0.551088 5.25 0.75 5.25ZM11.25 6.9495L2.544 12L11.25 17.0505V6.9495ZM22.5 6.9495L13.794 12L22.5 17.0505V6.9495Z" fill="black"/>
</svg>
