<svg width="24" height="24" viewBox="0 0 24 24" fill="none" xmlns="http://www.w3.org/2000/svg">
<path d="M0 15V3C0 2.20435 0.316071 1.44129 0.87868 0.87868C1.44129 0.316071 2.20435 0 3 0L21 0C21.7956 0 22.5587 0.316071 23.1213 0.87868C23.6839 1.44129 24 2.20435 24 3V15C24 15.7956 23.6839 16.5587 23.1213 17.1213C22.5587 17.6839 21.7956 18 21 18H3C2.20435 18 1.44129 17.6839 0.87868 17.1213C0.316071 16.5587 0 15.7956 0 15ZM7.185 4.6395C7.07285 4.55965 6.9409 4.51221 6.80358 4.50238C6.66627 4.49254 6.52889 4.52069 6.40651 4.58374C6.28413 4.64679 6.18147 4.74231 6.10976 4.85983C6.03806 4.97735 6.00008 5.11233 6 5.25V12.75C6.00008 12.8877 6.03806 13.0227 6.10976 13.1402C6.18147 13.2577 6.28413 13.3532 6.40651 13.4163C6.52889 13.4793 6.66627 13.5075 6.80358 13.4976C6.9409 13.4878 7.07285 13.4403 7.185 13.3605L11.25 10.458V12.75C11.2501 12.8877 11.2881 13.0227 11.3598 13.1402C11.4315 13.2577 11.5341 13.3532 11.6565 13.4163C11.7789 13.4793 11.9163 13.5075 12.0536 13.4976C12.1909 13.4878 12.3229 13.4403 12.435 13.3605L16.5 10.458V12.75C16.5 12.9489 16.579 13.1397 16.7197 13.2803C16.8603 13.421 17.0511 13.5 17.25 13.5C17.4489 13.5 17.6397 13.421 17.7803 13.2803C17.921 13.1397 18 12.9489 18 12.75V5.25C18 5.05109 17.921 4.86032 17.7803 4.71967C17.6397 4.57902 17.4489 4.5 17.25 4.5C17.0511 4.5 16.8603 4.57902 16.7197 4.71967C16.579 4.86032 16.5 5.05109 16.5 5.25V7.542L12.435 4.6395C12.3229 4.55965 12.1909 4.51221 12.0536 4.50238C11.9163 4.49254 11.7789 4.52069 11.6565 4.58374C11.5341 4.64679 11.4315 4.74231 11.3598 4.85983C11.2881 4.97735 11.2501 5.11233 11.25 5.25V7.542L7.185 4.6395Z" fill="black"/>
</svg>
