<svg width="24" height="24" viewBox="0 0 24 24" fill="none" xmlns="http://www.w3.org/2000/svg">
<g clip-path="url(#clip0_2_7735)">
<path d="M12 22.5C9.21523 22.5 6.54451 21.3938 4.57538 19.4246C2.60625 17.4555 1.5 14.7848 1.5 12C1.5 9.21523 2.60625 6.54451 4.57538 4.57538C6.54451 2.60625 9.21523 1.5 12 1.5C14.7848 1.5 17.4555 2.60625 19.4246 4.57538C21.3938 6.54451 22.5 9.21523 22.5 12C22.5 14.7848 21.3938 17.4555 19.4246 19.4246C17.4555 21.3938 14.7848 22.5 12 22.5ZM12 24C15.1826 24 18.2348 22.7357 20.4853 20.4853C22.7357 18.2348 24 15.1826 24 12C24 8.8174 22.7357 5.76516 20.4853 3.51472C18.2348 1.26428 15.1826 0 12 0C8.8174 0 5.76516 1.26428 3.51472 3.51472C1.26428 5.76516 0 8.8174 0 12C0 15.1826 1.26428 18.2348 3.51472 20.4853C5.76516 22.7357 8.8174 24 12 24Z" fill="black"/>
<path d="M6.4065 7.58272C6.52918 7.51955 6.6669 7.49145 6.80452 7.50151C6.94214 7.51156 7.07431 7.55939 7.1865 7.63972L11.25 10.5422V8.25022C11.2501 8.11256 11.2881 7.97757 11.3598 7.86005C11.4315 7.74253 11.5341 7.64701 11.6565 7.58396C11.7789 7.52092 11.9163 7.49277 12.0536 7.5026C12.1909 7.51244 12.3229 7.55988 12.435 7.63972L16.5 10.5422V8.25022C16.5 8.05131 16.579 7.86055 16.7197 7.71989C16.8603 7.57924 17.0511 7.50022 17.25 7.50022C17.4489 7.50022 17.6397 7.57924 17.7803 7.71989C17.921 7.86055 18 8.05131 18 8.25022V15.7502C18 15.9491 17.921 16.1399 17.7803 16.2806C17.6397 16.4212 17.4489 16.5002 17.25 16.5002C17.0511 16.5002 16.8603 16.4212 16.7197 16.2806C16.579 16.1399 16.5 15.9491 16.5 15.7502V13.4582L12.435 16.3607C12.3229 16.4406 12.1909 16.488 12.0536 16.4978C11.9163 16.5077 11.7789 16.4795 11.6565 16.4165C11.5341 16.3534 11.4315 16.2579 11.3598 16.1404C11.2881 16.0229 11.2501 15.8879 11.25 15.7502V13.4582L7.185 16.3607C7.07285 16.4406 6.9409 16.488 6.80358 16.4978C6.66627 16.5077 6.52889 16.4795 6.40651 16.4165C6.28413 16.3534 6.18147 16.2579 6.10976 16.1404C6.03806 16.0229 6.00009 15.8879 6 15.7502V8.25022C5.99986 8.11235 6.03772 7.9771 6.10943 7.85934C6.18115 7.74158 6.28393 7.64587 6.4065 7.58272Z" fill="black"/>
</g>
<defs>
<clipPath id="clip0_2_7735">
<rect width="24" height="24" fill="white"/>
</clipPath>
</defs>
</svg>
