<svg width="24" height="24" viewBox="0 0 24 24" fill="none" xmlns="http://www.w3.org/2000/svg">
<path d="M0 18V6C0 5.20435 0.316071 4.44129 0.87868 3.87868C1.44129 3.31607 2.20435 3 3 3H21C21.7956 3 22.5587 3.31607 23.1213 3.87868C23.6839 4.44129 24 5.20435 24 6V18C24 18.7956 23.6839 19.5587 23.1213 20.1213C22.5587 20.6839 21.7956 21 21 21H3C2.20435 21 1.44129 20.6839 0.87868 20.1213C0.316071 19.5587 0 18.7956 0 18ZM10.185 7.6395C10.0729 7.55965 9.9409 7.51221 9.80358 7.50238C9.66627 7.49254 9.52889 7.52069 9.40651 7.58374C9.28413 7.64679 9.18147 7.74231 9.10976 7.85983C9.03806 7.97735 9.00008 8.11233 9 8.25V15.75C9.00008 15.8877 9.03806 16.0227 9.10976 16.1402C9.18147 16.2577 9.28413 16.3532 9.40651 16.4163C9.52889 16.4793 9.66627 16.5075 9.80358 16.4976C9.9409 16.4878 10.0729 16.4403 10.185 16.3605L14.25 13.458V15.75C14.25 15.9489 14.329 16.1397 14.4697 16.2803C14.6103 16.421 14.8011 16.5 15 16.5C15.1989 16.5 15.3897 16.421 15.5303 16.2803C15.671 16.1397 15.75 15.9489 15.75 15.75V8.25C15.75 8.05109 15.671 7.86032 15.5303 7.71967C15.3897 7.57902 15.1989 7.5 15 7.5C14.8011 7.5 14.6103 7.57902 14.4697 7.71967C14.329 7.86032 14.25 8.05109 14.25 8.25V10.542L10.185 7.6395Z" fill="black"/>
</svg>
