<svg width="24" height="24" viewBox="0 0 24 24" fill="none" xmlns="http://www.w3.org/2000/svg">
<path d="M6 6C6 5.80109 6.07902 5.61032 6.21967 5.46967C6.36032 5.32902 6.55109 5.25 6.75 5.25C6.94891 5.25 7.13968 5.32902 7.28033 5.46967C7.42098 5.61032 7.5 5.80109 7.5 6V10.872L16.9005 5.418C17.7105 4.9485 18.7485 5.517 18.7485 6.462V17.538C18.7485 18.483 17.7105 19.053 16.9005 18.5835L7.5 13.1295V18C7.5 18.1989 7.42098 18.3897 7.28033 18.5303C7.13968 18.671 6.94891 18.75 6.75 18.75C6.55109 18.75 6.36032 18.671 6.21967 18.5303C6.07902 18.3897 6 18.1989 6 18V6Z" fill="black"/>
</svg>
