<svg width="24" height="24" viewBox="0 0 24 24" fill="none" xmlns="http://www.w3.org/2000/svg">
<g clip-path="url(#clip0_2_8658)">
<path d="M5.043 15.165C5.043 16.554 3.909 17.6865 2.5215 17.6865C1.134 17.6865 0 16.554 0 15.1665C0 13.779 1.134 12.645 2.52 12.645H5.043V15.165ZM6.312 15.165C6.312 13.779 7.446 12.645 8.8335 12.645C10.221 12.645 11.355 13.779 11.355 15.165V21.48C11.355 22.866 10.221 24 8.835 24C8.16674 23.9988 7.52615 23.733 7.05334 23.2608C6.58053 22.7885 6.31398 22.1483 6.312 21.48V15.165ZM8.835 5.043C7.446 5.043 6.312 3.909 6.312 2.5215C6.312 1.134 7.446 0 8.835 0C10.224 0 11.355 1.134 11.355 2.52V5.043H8.835ZM8.835 6.312C10.221 6.312 11.355 7.446 11.355 8.8335C11.355 10.221 10.221 11.355 8.835 11.355H2.52C1.1355 11.355 0 10.221 0 8.835C0 7.446 1.134 6.312 2.52 6.312H8.835ZM18.9585 8.835C18.9585 7.446 20.091 6.312 21.4785 6.312C22.866 6.312 24 7.446 24 8.8335C24 10.221 22.866 11.355 21.48 11.355H18.9585V8.835ZM17.6865 8.835C17.6865 10.221 16.554 11.355 15.1665 11.355C14.4985 11.3534 13.8583 11.0875 13.3858 10.6153C12.9133 10.143 12.647 9.503 12.645 8.835V2.52C12.645 1.1355 13.779 0 15.165 0C16.554 0 17.6865 1.134 17.6865 2.52V8.835ZM15.165 18.957C16.554 18.957 17.688 20.091 17.688 21.4785C17.688 22.866 16.554 24 15.165 24C13.776 24 12.6435 22.866 12.6435 21.48V18.957H15.1635H15.165ZM15.165 17.6865C13.779 17.6865 12.645 16.554 12.645 15.1665C12.645 13.779 13.779 12.645 15.165 12.645H21.48C22.866 12.645 24 13.779 24 15.165C24 16.554 22.866 17.6865 21.48 17.6865H15.165Z" fill="black"/>
</g>
<defs>
<clipPath id="clip0_2_8658">
<rect width="24" height="24" fill="white"/>
</clipPath>
</defs>
</svg>
