<svg width="24" height="24" viewBox="0 0 24 24" fill="none" xmlns="http://www.w3.org/2000/svg">
<path d="M17.031 6.96888C17.1008 7.03854 17.1562 7.12131 17.194 7.21242C17.2319 7.30354 17.2513 7.40122 17.2513 7.49988C17.2513 7.59853 17.2319 7.69621 17.194 7.78733C17.1562 7.87844 17.1008 7.96121 17.031 8.03088L8.03097 17.0309C7.89014 17.1717 7.69914 17.2508 7.49997 17.2508C7.30081 17.2508 7.1098 17.1717 6.96897 17.0309C6.82814 16.89 6.74902 16.699 6.74902 16.4999C6.74902 16.3007 6.82814 16.1097 6.96897 15.9689L15.969 6.96888C16.0386 6.89903 16.1214 6.84362 16.2125 6.80581C16.3036 6.768 16.4013 6.74854 16.5 6.74854C16.5986 6.74854 16.6963 6.768 16.7874 6.80581C16.8785 6.84362 16.9613 6.89903 17.031 6.96888Z" fill="black"/>
</svg>
