<svg width="24" height="24" viewBox="0 0 24 24" fill="none" xmlns="http://www.w3.org/2000/svg">
<g clip-path="url(#clip0_2_8623)">
<path d="M3 0C2.20435 0 1.44129 0.316071 0.87868 0.87868C0.316071 1.44129 0 2.20435 0 3L0 21C0 21.7956 0.316071 22.5587 0.87868 23.1213C1.44129 23.6839 2.20435 24 3 24H21C21.7956 24 22.5587 23.6839 23.1213 23.1213C23.6839 22.5587 24 21.7956 24 21V3C24 2.20435 23.6839 1.44129 23.1213 0.87868C22.5587 0.316071 21.7956 0 21 0L3 0ZM17.031 8.031L8.031 17.031C7.89017 17.1718 7.69916 17.2509 7.5 17.2509C7.30084 17.2509 7.10983 17.1718 6.969 17.031C6.82817 16.8902 6.74905 16.6992 6.74905 16.5C6.74905 16.3008 6.82817 16.1098 6.969 15.969L15.969 6.969C16.1098 6.82817 16.3008 6.74905 16.5 6.74905C16.6992 6.74905 16.8902 6.82817 17.031 6.969C17.1718 7.10983 17.2509 7.30084 17.2509 7.5C17.2509 7.69916 17.1718 7.89017 17.031 8.031Z" fill="black"/>
</g>
<defs>
<clipPath id="clip0_2_8623">
<rect width="24" height="24" fill="white"/>
</clipPath>
</defs>
</svg>
