<svg width="24" height="24" viewBox="0 0 24 24" fill="none" xmlns="http://www.w3.org/2000/svg">
<g clip-path="url(#clip0_2_7453)">
<path d="M21 1.5C21.3978 1.5 21.7794 1.65804 22.0607 1.93934C22.342 2.22064 22.5 2.60218 22.5 3V21C22.5 21.3978 22.342 21.7794 22.0607 22.0607C21.7794 22.342 21.3978 22.5 21 22.5H3C2.60218 22.5 2.22064 22.342 1.93934 22.0607C1.65804 21.7794 1.5 21.3978 1.5 21V3C1.5 2.60218 1.65804 2.22064 1.93934 1.93934C2.22064 1.65804 2.60218 1.5 3 1.5H21ZM3 0C2.20435 0 1.44129 0.316071 0.87868 0.87868C0.316071 1.44129 0 2.20435 0 3L0 21C0 21.7956 0.316071 22.5587 0.87868 23.1213C1.44129 23.6839 2.20435 24 3 24H21C21.7956 24 22.5587 23.6839 23.1213 23.1213C23.6839 22.5587 24 21.7956 24 21V3C24 2.20435 23.6839 1.44129 23.1213 0.87868C22.5587 0.316071 21.7956 0 21 0L3 0Z" fill="black"/>
<path d="M17.031 6.96888C17.1008 7.03854 17.1562 7.12131 17.194 7.21242C17.2318 7.30354 17.2513 7.40122 17.2513 7.49988C17.2513 7.59853 17.2318 7.69621 17.194 7.78733C17.1562 7.87844 17.1008 7.96121 17.031 8.03088L8.03097 17.0309C7.89014 17.1717 7.69913 17.2508 7.49997 17.2508C7.30081 17.2508 7.1098 17.1717 6.96897 17.0309C6.82814 16.89 6.74902 16.699 6.74902 16.4999C6.74902 16.3007 6.82814 16.1097 6.96897 15.9689L15.969 6.96888C16.0386 6.89903 16.1214 6.84362 16.2125 6.80581C16.3036 6.768 16.4013 6.74854 16.5 6.74854C16.5986 6.74854 16.6963 6.768 16.7874 6.80581C16.8785 6.84362 16.9613 6.89903 17.031 6.96888Z" fill="black"/>
</g>
<defs>
<clipPath id="clip0_2_7453">
<rect width="24" height="24" fill="white"/>
</clipPath>
</defs>
</svg>
