<svg width="24" height="24" viewBox="0 0 24 24" fill="none" xmlns="http://www.w3.org/2000/svg">
<g clip-path="url(#clip0_2_8620)">
<path d="M12 22.5C9.21523 22.5 6.54451 21.3938 4.57538 19.4246C2.60625 17.4555 1.5 14.7848 1.5 12C1.5 9.21523 2.60625 6.54451 4.57538 4.57538C6.54451 2.60625 9.21523 1.5 12 1.5C14.7848 1.5 17.4555 2.60625 19.4246 4.57538C21.3938 6.54451 22.5 9.21523 22.5 12C22.5 14.7848 21.3938 17.4555 19.4246 19.4246C17.4555 21.3938 14.7848 22.5 12 22.5ZM12 24C15.1826 24 18.2348 22.7357 20.4853 20.4853C22.7357 18.2348 24 15.1826 24 12C24 8.8174 22.7357 5.76516 20.4853 3.51472C18.2348 1.26428 15.1826 0 12 0C8.8174 0 5.76516 1.26428 3.51472 3.51472C1.26428 5.76516 0 8.8174 0 12C0 15.1826 1.26428 18.2348 3.51472 20.4853C5.76516 22.7357 8.8174 24 12 24Z" fill="black"/>
<path d="M17.031 6.96888C16.9613 6.89903 16.8785 6.84362 16.7874 6.80581C16.6963 6.768 16.5986 6.74854 16.5 6.74854C16.4013 6.74854 16.3036 6.768 16.2125 6.80581C16.1214 6.84362 16.0386 6.89903 15.969 6.96888L6.96897 15.9689C6.89924 16.0386 6.84392 16.1214 6.80619 16.2125C6.76845 16.3036 6.74902 16.4013 6.74902 16.4999C6.74902 16.5985 6.76845 16.6961 6.80619 16.7872C6.84392 16.8784 6.89924 16.9611 6.96897 17.0309C7.1098 17.1717 7.30081 17.2508 7.49997 17.2508C7.59859 17.2508 7.69624 17.2314 7.78735 17.1937C7.87846 17.1559 7.96124 17.1006 8.03097 17.0309L17.031 8.03088C17.1008 7.96121 17.1562 7.87844 17.194 7.78733C17.2318 7.69621 17.2513 7.59853 17.2513 7.49988C17.2513 7.40122 17.2318 7.30354 17.194 7.21242C17.1562 7.12131 17.1008 7.03854 17.031 6.96888Z" fill="black"/>
</g>
<defs>
<clipPath id="clip0_2_8620">
<rect width="24" height="24" fill="white"/>
</clipPath>
</defs>
</svg>
