<svg width="24" height="24" viewBox="0 0 24 24" fill="none" xmlns="http://www.w3.org/2000/svg">
<g clip-path="url(#clip0_2_8652)">
<path d="M24 12C24 15.1826 22.7357 18.2348 20.4853 20.4853C18.2348 22.7357 15.1826 24 12 24C8.8174 24 5.76516 22.7357 3.51472 20.4853C1.26428 18.2348 0 15.1826 0 12C0 8.8174 1.26428 5.76516 3.51472 3.51472C5.76516 1.26428 8.8174 0 12 0C15.1826 0 18.2348 1.26428 20.4853 3.51472C22.7357 5.76516 24 8.8174 24 12ZM17.031 8.031C17.1718 7.89017 17.2509 7.69916 17.2509 7.5C17.2509 7.30084 17.1718 7.10983 17.031 6.969C16.8902 6.82817 16.6992 6.74905 16.5 6.74905C16.3008 6.74905 16.1098 6.82817 15.969 6.969L6.969 15.969C6.89927 16.0387 6.84395 16.1215 6.80621 16.2126C6.76848 16.3037 6.74905 16.4014 6.74905 16.5C6.74905 16.5986 6.76848 16.6963 6.80621 16.7874C6.84395 16.8785 6.89927 16.9613 6.969 17.031C7.10983 17.1718 7.30084 17.2509 7.5 17.2509C7.59862 17.2509 7.69627 17.2315 7.78738 17.1938C7.87848 17.156 7.96127 17.1007 8.031 17.031L17.031 8.031Z" fill="black"/>
</g>
<defs>
<clipPath id="clip0_2_8652">
<rect width="24" height="24" fill="white"/>
</clipPath>
</defs>
</svg>
