<svg width="24" height="24" viewBox="0 0 24 24" fill="none" xmlns="http://www.w3.org/2000/svg">
<path d="M12 11.25C11.8011 11.25 11.6103 11.329 11.4697 11.4697C11.329 11.6103 11.25 11.8011 11.25 12C11.25 12.1989 11.329 12.3897 11.4697 12.5303C11.6103 12.671 11.8011 12.75 12 12.75C12.1989 12.75 12.3897 12.671 12.5303 12.5303C12.671 12.3897 12.75 12.1989 12.75 12C12.75 11.8011 12.671 11.6103 12.5303 11.4697C12.3897 11.329 12.1989 11.25 12 11.25Z" fill="black"/>
<path d="M12 24C11.8011 24 11.6103 23.921 11.4696 23.7803C11.329 23.6397 11.25 23.4489 11.25 23.25V21.3105L10.281 22.281C10.1401 22.4216 9.94922 22.5006 9.75019 22.5004C9.55117 22.5003 9.36035 22.4211 9.21972 22.2803C9.07909 22.1394 9.00017 21.9485 9.00031 21.7495C9.00045 21.5504 9.07964 21.3596 9.22047 21.219L11.25 19.1895V16.9245L8.17047 15.0765L6.14847 16.2435L5.40597 19.0185C5.38037 19.1136 5.33627 19.2028 5.2762 19.2809C5.21613 19.359 5.14127 19.4245 5.05589 19.4737C4.9705 19.5229 4.87627 19.5547 4.77857 19.5675C4.68087 19.5802 4.58162 19.5736 4.48647 19.548C4.39133 19.5224 4.30216 19.4783 4.22406 19.4182C4.14596 19.3582 4.08046 19.2833 4.03129 19.1979C3.98212 19.1125 3.95025 19.0183 3.9375 18.9206C3.92475 18.8229 3.93137 18.7236 3.95697 18.6285L4.31247 17.3055L2.63247 18.2745C2.4603 18.3724 2.25641 18.3982 2.06527 18.3463C1.87414 18.2944 1.71129 18.169 1.61227 17.9975C1.51324 17.826 1.48607 17.6223 1.5367 17.4308C1.58732 17.2393 1.71162 17.0757 1.88247 16.9755L3.56247 16.0065L2.23797 15.651C2.14138 15.6269 2.05055 15.5839 1.97077 15.5243C1.89099 15.4648 1.82386 15.39 1.7733 15.3042C1.72274 15.2185 1.68975 15.1235 1.67626 15.0249C1.66278 14.9262 1.66906 14.8259 1.69475 14.7297C1.72043 14.6336 1.76501 14.5435 1.82588 14.4647C1.88674 14.3859 1.96268 14.32 2.04927 14.2709C2.13585 14.2218 2.23135 14.1904 2.33019 14.1786C2.42903 14.1667 2.52924 14.1747 2.62497 14.202L5.39997 14.9445L7.49997 13.7325V10.2675L5.39997 9.0555L2.62497 9.798C2.52983 9.82351 2.4306 9.83003 2.33293 9.81719C2.23527 9.80435 2.14109 9.77239 2.05578 9.72315C1.97047 9.67392 1.89569 9.60836 1.83571 9.53022C1.77573 9.45208 1.73173 9.36289 1.70622 9.26775C1.68071 9.17261 1.67419 9.07337 1.68704 8.97571C1.69988 8.87805 1.73183 8.78387 1.78107 8.69856C1.83031 8.61324 1.89587 8.53846 1.97401 8.47849C2.05214 8.41851 2.14133 8.37451 2.23647 8.349L3.56247 7.9935L1.88247 7.0245C1.71162 6.92434 1.58732 6.76066 1.5367 6.56919C1.48607 6.37772 1.51324 6.17399 1.61227 6.00248C1.71129 5.83096 1.87414 5.70558 2.06527 5.65369C2.25641 5.6018 2.4603 5.62761 2.63247 5.7255L4.31247 6.6945L3.95697 5.37C3.92968 5.27427 3.92172 5.17406 3.93355 5.07522C3.94539 4.97638 3.97678 4.88088 4.0259 4.79429C4.07502 4.70771 4.14089 4.63177 4.21966 4.5709C4.29843 4.51004 4.38853 4.46546 4.48471 4.43977C4.58088 4.41409 4.68121 4.4078 4.77984 4.42129C4.87847 4.43478 4.97343 4.46776 5.05918 4.51832C5.14493 4.56889 5.21976 4.63602 5.2793 4.71579C5.33884 4.79557 5.3819 4.88641 5.40597 4.983L6.14847 7.7565L8.17047 8.9235L11.25 7.0755V4.8105L9.22047 2.781C9.15074 2.71137 9.09541 2.62868 9.05763 2.53766C9.01986 2.44664 9.00038 2.34908 9.00031 2.25053C9.00024 2.15198 9.01958 2.05439 9.05723 1.96332C9.09487 1.87225 9.15009 1.78948 9.21972 1.71975C9.28936 1.65002 9.37204 1.59468 9.46306 1.55691C9.55408 1.51913 9.65165 1.49965 9.75019 1.49958C9.84874 1.49951 9.94633 1.51885 10.0374 1.5565C10.1285 1.59415 10.2112 1.64937 10.281 1.719L11.25 2.6895V0.75C11.25 0.551088 11.329 0.360322 11.4696 0.21967C11.6103 0.0790176 11.8011 0 12 0C12.1989 0 12.3897 0.0790176 12.5303 0.21967C12.671 0.360322 12.75 0.551088 12.75 0.75V2.6895L13.7205 1.719C13.8613 1.57837 14.0522 1.49944 14.2513 1.49958C14.4503 1.49972 14.6411 1.57892 14.7817 1.71975C14.9224 1.86058 15.0013 2.05151 15.0011 2.25053C15.001 2.44955 14.9218 2.64037 14.781 2.781L12.75 4.8105V7.0755L15.8295 8.9235L17.8515 7.7565L18.594 4.9815C18.6457 4.78935 18.7716 4.62562 18.9441 4.52632C19.1165 4.42701 19.3213 4.40028 19.5135 4.452C19.7056 4.50372 19.8694 4.62965 19.9687 4.80209C20.068 4.97453 20.0947 5.17935 20.043 5.3715L19.689 6.6945L21.369 5.7255C21.5411 5.62761 21.745 5.6018 21.9362 5.65369C22.1273 5.70558 22.2902 5.83096 22.3892 6.00248C22.4882 6.17399 22.5154 6.37772 22.4648 6.56919C22.4141 6.76066 22.2898 6.92434 22.119 7.0245L20.439 7.9935L21.7635 8.349C21.9556 8.40072 22.1194 8.52665 22.2187 8.69909C22.318 8.87153 22.3447 9.07635 22.293 9.2685C22.2413 9.46065 22.1153 9.62438 21.9429 9.72369C21.7704 9.82299 21.5656 9.84972 21.3735 9.798L18.6015 9.0555L16.5015 10.2675V13.7325L18.6015 14.9445L21.375 14.202C21.5671 14.1505 21.7719 14.1774 21.9442 14.2768C22.1165 14.3763 22.2422 14.5401 22.2937 14.7323C22.3452 14.9244 22.3183 15.1291 22.2189 15.3014C22.1194 15.4737 21.9556 15.5995 21.7635 15.651L20.439 16.0065L22.119 16.9755C22.2898 17.0757 22.4141 17.2393 22.4648 17.4308C22.5154 17.6223 22.4882 17.826 22.3892 17.9975C22.2902 18.169 22.1273 18.2944 21.9362 18.3463C21.745 18.3982 21.5411 18.3724 21.369 18.2745L19.689 17.3055L20.043 18.63C20.0703 18.7257 20.0782 18.8259 20.0664 18.9248C20.0546 19.0236 20.0232 19.1191 19.974 19.2057C19.9249 19.2923 19.8591 19.3682 19.7803 19.4291C19.7015 19.49 19.6114 19.5345 19.5152 19.5602C19.4191 19.5859 19.3187 19.5922 19.2201 19.5787C19.1215 19.5652 19.0265 19.5322 18.9408 19.4817C18.855 19.4311 18.7802 19.364 18.7207 19.2842C18.6611 19.2044 18.618 19.1136 18.594 19.017L17.8515 16.2435L15.8295 15.0765L12.75 16.9245V19.1895L14.781 21.219C14.9218 21.3596 15.001 21.5504 15.0011 21.7495C15.0013 21.9485 14.9224 22.1394 14.7817 22.2803C14.6411 22.4211 14.4503 22.5003 14.2513 22.5004C14.0522 22.5006 13.8613 22.4216 13.7205 22.281L12.75 21.3105V23.25C12.75 23.4489 12.671 23.6397 12.5303 23.7803C12.3897 23.921 12.1989 24 12 24ZM15 13.8255V10.1745L12 8.3745L8.99997 10.1745V13.8255L12 15.6255L15 13.8255Z" fill="black"/>
</svg>
