<svg width="24" height="24" viewBox="0 0 24 24" fill="none" xmlns="http://www.w3.org/2000/svg">
<path d="M19.44 10.5H13.542V9.46345L17.4105 3.88345V3.80245H13.647V2.50195H19.3245V3.53845L15.474 9.11845V9.19945H19.4415V10.5H19.44Z" fill="black"/>
<path fill-rule="evenodd" clip-rule="evenodd" d="M15.123 18.9435L14.496 21H12.897L15.5805 13.002H17.4315L20.103 21H18.423L17.7945 18.9435H15.123ZM17.478 17.766L16.5 14.532H16.4295L15.4515 17.766H17.478Z" fill="black"/>
<path d="M6.74997 3.75C6.74997 3.55109 6.67095 3.36032 6.5303 3.21967C6.38965 3.07902 6.19888 3 5.99997 3C5.80106 3 5.61029 3.07902 5.46964 3.21967C5.32899 3.36032 5.24997 3.55109 5.24997 3.75V18.4395L3.53097 16.719C3.46124 16.6493 3.37846 16.594 3.28735 16.5562C3.19624 16.5185 3.09859 16.4991 2.99997 16.4991C2.90135 16.4991 2.8037 16.5185 2.7126 16.5562C2.62149 16.594 2.5387 16.6493 2.46897 16.719C2.39924 16.7887 2.34392 16.8715 2.30619 16.9626C2.26845 17.0537 2.24902 17.1514 2.24902 17.25C2.24902 17.3486 2.26845 17.4463 2.30619 17.5374C2.34392 17.6285 2.39924 17.7113 2.46897 17.781L5.46897 20.7795L5.47947 20.79C5.62028 20.9273 5.80965 21.0034 6.00632 21.0017C6.203 21 6.39103 20.9207 6.52947 20.781L9.52947 17.781C9.6703 17.6404 9.7495 17.4496 9.74964 17.2505C9.74978 17.0515 9.67085 16.8606 9.53022 16.7197C9.38959 16.5789 9.19877 16.4997 8.99975 16.4996C8.80073 16.4994 8.6098 16.5784 8.46897 16.719L6.74997 18.4395V3.75Z" fill="black"/>
</svg>
