<svg width="24" height="24" viewBox="0 0 24 24" fill="none" xmlns="http://www.w3.org/2000/svg">
<path d="M5.24997 5.25C5.24997 5.05109 5.17095 4.86032 5.0303 4.71967C4.88965 4.57902 4.69888 4.5 4.49997 4.5C4.30106 4.5 4.11029 4.57902 3.96964 4.71967C3.82899 4.86032 3.74997 5.05109 3.74997 5.25V18.4395L2.03097 16.719C1.96124 16.6493 1.87845 16.594 1.78735 16.5562C1.69624 16.5185 1.59859 16.4991 1.49997 16.4991C1.40135 16.4991 1.3037 16.5185 1.2126 16.5562C1.12149 16.594 1.0387 16.6493 0.968971 16.719C0.899239 16.7887 0.843925 16.8715 0.806186 16.9626C0.768447 17.0537 0.749023 17.1514 0.749023 17.25C0.749023 17.3486 0.768447 17.4463 0.806186 17.5374C0.843925 17.6285 0.899239 17.7113 0.968971 17.781L3.96897 20.7795L3.97947 20.79C4.12028 20.9273 4.30965 21.0034 4.50632 21.0017C4.70299 21 4.89103 20.9207 5.02947 20.781L8.02947 17.781C8.1703 17.6404 8.2495 17.4496 8.24964 17.2505C8.24978 17.0515 8.17085 16.8606 8.03022 16.7197C7.88959 16.5789 7.69877 16.4997 7.49975 16.4996C7.30073 16.4994 7.1098 16.5784 6.96897 16.719L5.24997 18.4395V5.25ZM11.25 6C11.0511 6 10.8603 5.92098 10.7196 5.78033C10.579 5.63968 10.5 5.44891 10.5 5.25C10.5 5.05109 10.579 4.86032 10.7196 4.71967C10.8603 4.57902 11.0511 4.5 11.25 4.5H12.75C12.9489 4.5 13.1396 4.57902 13.2803 4.71967C13.421 4.86032 13.5 5.05109 13.5 5.25C13.5 5.44891 13.421 5.63968 13.2803 5.78033C13.1396 5.92098 12.9489 6 12.75 6H11.25ZM11.25 10.5C11.0511 10.5 10.8603 10.421 10.7196 10.2803C10.579 10.1397 10.5 9.94891 10.5 9.75C10.5 9.55109 10.579 9.36032 10.7196 9.21967C10.8603 9.07902 11.0511 9 11.25 9H15.75C15.9489 9 16.1396 9.07902 16.2803 9.21967C16.421 9.36032 16.5 9.55109 16.5 9.75C16.5 9.94891 16.421 10.1397 16.2803 10.2803C16.1396 10.421 15.9489 10.5 15.75 10.5H11.25ZM11.25 15C11.0511 15 10.8603 14.921 10.7196 14.7803C10.579 14.6397 10.5 14.4489 10.5 14.25C10.5 14.0511 10.579 13.8603 10.7196 13.7197C10.8603 13.579 11.0511 13.5 11.25 13.5H18.75C18.9489 13.5 19.1396 13.579 19.2803 13.7197C19.421 13.8603 19.5 14.0511 19.5 14.25C19.5 14.4489 19.421 14.6397 19.2803 14.7803C19.1396 14.921 18.9489 15 18.75 15H11.25ZM10.5 18.75C10.5 18.9489 10.579 19.1397 10.7196 19.2803C10.8603 19.421 11.0511 19.5 11.25 19.5H21.75C21.9489 19.5 22.1396 19.421 22.2803 19.2803C22.421 19.1397 22.5 18.9489 22.5 18.75C22.5 18.5511 22.421 18.3603 22.2803 18.2197C22.1396 18.079 21.9489 18 21.75 18H11.25C11.0511 18 10.8603 18.079 10.7196 18.2197C10.579 18.3603 10.5 18.5511 10.5 18.75Z" fill="black"/>
</svg>
