<svg width="24" height="24" viewBox="0 0 24 24" fill="none" xmlns="http://www.w3.org/2000/svg">
<path d="M5.24997 20.2502C5.24997 20.4491 5.17095 20.6398 5.0303 20.7805C4.88965 20.9211 4.69888 21.0002 4.49997 21.0002C4.30106 21.0002 4.11029 20.9211 3.96964 20.7805C3.82899 20.6398 3.74997 20.4491 3.74997 20.2502V7.06066L2.03097 8.78116C1.96124 8.8509 1.87845 8.90621 1.78735 8.94395C1.69624 8.98169 1.59859 9.00111 1.49997 9.00111C1.30081 9.00111 1.1098 8.92199 0.968971 8.78116C0.828141 8.64033 0.749023 8.44933 0.749023 8.25016C0.749023 8.051 0.828141 7.85999 0.968971 7.71916L3.96897 4.72066L3.97947 4.71016C4.12047 4.57322 4.30977 4.49737 4.50632 4.49905C4.70287 4.50074 4.89084 4.57982 5.02947 4.71916L8.02947 7.71916C8.0992 7.7888 8.15454 7.87148 8.19231 7.9625C8.23009 8.05352 8.24957 8.15109 8.24964 8.24963C8.24971 8.34818 8.23037 8.44577 8.19272 8.53685C8.15507 8.62792 8.09985 8.71068 8.03022 8.78041C7.96059 8.85015 7.8779 8.90548 7.78688 8.94326C7.69586 8.98103 7.5983 9.00051 7.49975 9.00058C7.40121 9.00065 7.30361 8.98131 7.21254 8.94366C7.12147 8.90601 7.0387 8.8508 6.96897 8.78116L5.24997 7.06066V20.2502ZM11.25 6.00016C11.0511 6.00016 10.8603 5.92115 10.7196 5.78049C10.579 5.63984 10.5 5.44908 10.5 5.25016C10.5 5.05125 10.579 4.86049 10.7196 4.71983C10.8603 4.57918 11.0511 4.50016 11.25 4.50016H12.75C12.9489 4.50016 13.1396 4.57918 13.2803 4.71983C13.421 4.86049 13.5 5.05125 13.5 5.25016C13.5 5.44908 13.421 5.63984 13.2803 5.78049C13.1396 5.92115 12.9489 6.00016 12.75 6.00016H11.25ZM11.25 10.5002C11.0511 10.5002 10.8603 10.4211 10.7196 10.2805C10.579 10.1398 10.5 9.94908 10.5 9.75016C10.5 9.55125 10.579 9.36049 10.7196 9.21983C10.8603 9.07918 11.0511 9.00016 11.25 9.00016H15.75C15.9489 9.00016 16.1396 9.07918 16.2803 9.21983C16.421 9.36049 16.5 9.55125 16.5 9.75016C16.5 9.94908 16.421 10.1398 16.2803 10.2805C16.1396 10.4211 15.9489 10.5002 15.75 10.5002H11.25ZM11.25 15.0002C11.0511 15.0002 10.8603 14.9211 10.7196 14.7805C10.579 14.6398 10.5 14.4491 10.5 14.2502C10.5 14.0513 10.579 13.8605 10.7196 13.7198C10.8603 13.5792 11.0511 13.5002 11.25 13.5002H18.75C18.9489 13.5002 19.1396 13.5792 19.2803 13.7198C19.421 13.8605 19.5 14.0513 19.5 14.2502C19.5 14.4491 19.421 14.6398 19.2803 14.7805C19.1396 14.9211 18.9489 15.0002 18.75 15.0002H11.25ZM10.5 18.7502C10.5 18.9491 10.579 19.1398 10.7196 19.2805C10.8603 19.4211 11.0511 19.5002 11.25 19.5002H21.75C21.9489 19.5002 22.1396 19.4211 22.2803 19.2805C22.421 19.1398 22.5 18.9491 22.5 18.7502C22.5 18.5513 22.421 18.3605 22.2803 18.2198C22.1396 18.0792 21.9489 18.0002 21.75 18.0002H11.25C11.0511 18.0002 10.8603 18.0792 10.7196 18.2198C10.579 18.3605 10.5 18.5513 10.5 18.7502Z" fill="black"/>
</svg>
