<svg width="24" height="24" viewBox="0 0 24 24" fill="none" xmlns="http://www.w3.org/2000/svg">
<path fill-rule="evenodd" clip-rule="evenodd" d="M12.75 3C12.9489 3 13.1397 3.07902 13.2803 3.21967C13.421 3.36032 13.5 3.55109 13.5 3.75V20.25C13.5 20.4489 13.421 20.6397 13.2803 20.7803C13.1397 20.921 12.9489 21 12.75 21C12.5511 21 12.3603 20.921 12.2197 20.7803C12.079 20.6397 12 20.4489 12 20.25V3.75C12 3.55109 12.079 3.36032 12.2197 3.21967C12.3603 3.07902 12.5511 3 12.75 3ZM9.75 6C9.94891 6 10.1397 6.07902 10.2803 6.21967C10.421 6.36032 10.5 6.55109 10.5 6.75V17.25C10.5 17.4489 10.421 17.6397 10.2803 17.7803C10.1397 17.921 9.94891 18 9.75 18C9.55109 18 9.36032 17.921 9.21967 17.7803C9.07902 17.6397 9 17.4489 9 17.25V6.75C9 6.55109 9.07902 6.36032 9.21967 6.21967C9.36032 6.07902 9.55109 6 9.75 6ZM15.75 6C15.9489 6 16.1397 6.07902 16.2803 6.21967C16.421 6.36032 16.5 6.55109 16.5 6.75V17.25C16.5 17.4489 16.421 17.6397 16.2803 17.7803C16.1397 17.921 15.9489 18 15.75 18C15.5511 18 15.3603 17.921 15.2197 17.7803C15.079 17.6397 15 17.4489 15 17.25V6.75C15 6.55109 15.079 6.36032 15.2197 6.21967C15.3603 6.07902 15.5511 6 15.75 6ZM6.75 8.25C6.94891 8.25 7.13968 8.32902 7.28033 8.46967C7.42098 8.61032 7.5 8.80109 7.5 9V15C7.5 15.1989 7.42098 15.3897 7.28033 15.5303C7.13968 15.671 6.94891 15.75 6.75 15.75C6.55109 15.75 6.36032 15.671 6.21967 15.5303C6.07902 15.3897 6 15.1989 6 15V9C6 8.80109 6.07902 8.61032 6.21967 8.46967C6.36032 8.32902 6.55109 8.25 6.75 8.25ZM18.75 8.25C18.9489 8.25 19.1397 8.32902 19.2803 8.46967C19.421 8.61032 19.5 8.80109 19.5 9V15C19.5 15.1989 19.421 15.3897 19.2803 15.5303C19.1397 15.671 18.9489 15.75 18.75 15.75C18.5511 15.75 18.3603 15.671 18.2197 15.5303C18.079 15.3897 18 15.1989 18 15V9C18 8.80109 18.079 8.61032 18.2197 8.46967C18.3603 8.32902 18.5511 8.25 18.75 8.25ZM3.75 9.75C3.94891 9.75 4.13968 9.82902 4.28033 9.96967C4.42098 10.1103 4.5 10.3011 4.5 10.5V13.5C4.5 13.6989 4.42098 13.8897 4.28033 14.0303C4.13968 14.171 3.94891 14.25 3.75 14.25C3.55109 14.25 3.36032 14.171 3.21967 14.0303C3.07902 13.8897 3 13.6989 3 13.5V10.5C3 10.3011 3.07902 10.1103 3.21967 9.96967C3.36032 9.82902 3.55109 9.75 3.75 9.75ZM21.75 9.75C21.9489 9.75 22.1397 9.82902 22.2803 9.96967C22.421 10.1103 22.5 10.3011 22.5 10.5V13.5C22.5 13.6989 22.421 13.8897 22.2803 14.0303C22.1397 14.171 21.9489 14.25 21.75 14.25C21.5511 14.25 21.3603 14.171 21.2197 14.0303C21.079 13.8897 21 13.6989 21 13.5V10.5C21 10.3011 21.079 10.1103 21.2197 9.96967C21.3603 9.82902 21.5511 9.75 21.75 9.75Z" fill="black"/>
</svg>
