<svg width="24" height="24" viewBox="0 0 24 24" fill="none" xmlns="http://www.w3.org/2000/svg">
<g clip-path="url(#clip0_2_8251)">
<path d="M12 3C12.1989 3 12.3897 3.07902 12.5303 3.21967C12.671 3.36032 12.75 3.55109 12.75 3.75V6C12.75 6.19891 12.671 6.38968 12.5303 6.53033C12.3897 6.67098 12.1989 6.75 12 6.75C11.8011 6.75 11.6103 6.67098 11.4697 6.53033C11.329 6.38968 11.25 6.19891 11.25 6V3.75C11.25 3.55109 11.329 3.36032 11.4697 3.21967C11.6103 3.07902 11.8011 3 12 3ZM5.598 5.598C5.73865 5.4574 5.92938 5.37841 6.12825 5.37841C6.32712 5.37841 6.51785 5.4574 6.6585 5.598L8.031 6.969C8.17183 7.10983 8.25095 7.30084 8.25095 7.5C8.25095 7.69916 8.17183 7.89017 8.031 8.031C7.89017 8.17183 7.69916 8.25095 7.5 8.25095C7.30084 8.25095 7.10983 8.17183 6.969 8.031L5.598 6.6585C5.4574 6.51785 5.37841 6.32712 5.37841 6.12825C5.37841 5.92938 5.4574 5.73865 5.598 5.598ZM3 12C3 11.8011 3.07902 11.6103 3.21967 11.4697C3.36032 11.329 3.55109 11.25 3.75 11.25H6.129C6.32791 11.25 6.51868 11.329 6.65933 11.4697C6.79998 11.6103 6.879 11.8011 6.879 12C6.879 12.1989 6.79998 12.3897 6.65933 12.5303C6.51868 12.671 6.32791 12.75 6.129 12.75H3.75C3.55109 12.75 3.36032 12.671 3.21967 12.5303C3.07902 12.3897 3 12.1989 3 12ZM17.25 12C17.25 11.8011 17.329 11.6103 17.4697 11.4697C17.6103 11.329 17.8011 11.25 18 11.25H20.25C20.4489 11.25 20.6397 11.329 20.7803 11.4697C20.921 11.6103 21 11.8011 21 12C21 12.1989 20.921 12.3897 20.7803 12.5303C20.6397 12.671 20.4489 12.75 20.25 12.75H18C17.8011 12.75 17.6103 12.671 17.4697 12.5303C17.329 12.3897 17.25 12.1989 17.25 12ZM18.381 5.631C18.2771 5.52763 18.1381 5.46715 17.9916 5.46159C17.8451 5.45603 17.7019 5.5058 17.5905 5.601L11.3205 10.965C11.1761 11.0886 11.0591 11.2411 10.977 11.4126C10.8949 11.5841 10.8496 11.7708 10.8438 11.9608C10.8381 12.1509 10.8722 12.34 10.9438 12.5161C11.0154 12.6922 11.123 12.8514 11.2597 12.9835C11.3965 13.1156 11.5593 13.2177 11.7377 13.2833C11.9162 13.3488 12.1064 13.3763 12.2961 13.3641C12.4858 13.3518 12.6709 13.3001 12.8395 13.2122C13.008 13.1242 13.1564 13.0021 13.275 12.8535L18.426 6.408C18.5156 6.29582 18.5607 6.15454 18.5527 6.01119C18.5447 5.86784 18.4841 5.73247 18.3825 5.631H18.381Z" fill="black"/>
<path fill-rule="evenodd" clip-rule="evenodd" d="M9.99597 23.8336C8.44188 23.5704 6.95483 23.0037 5.61975 22.1659C4.28466 21.328 3.12767 20.2354 2.21485 18.9504C0.371322 16.3552 -0.365772 13.134 0.165722 9.99536C0.697216 6.85672 2.45376 4.05777 5.04894 2.21424C7.64411 0.370712 10.8653 -0.366382 14.004 0.165111C17.1428 0.696605 19.942 2.45323 21.7856 5.04854C23.6293 7.64386 24.3665 10.8653 23.835 14.0041C23.3035 17.1429 21.5469 19.9421 18.9515 21.7858C16.3562 23.6294 13.1348 24.3666 9.99597 23.8351V23.8336ZM2.99847 17.4091C5.734 15.8263 8.83952 14.9952 12 15.0001C15.279 15.0001 18.354 15.8776 21.0015 17.4091C21.9583 15.8159 22.4751 13.9972 22.4991 12.1389C22.5231 10.2806 22.0535 8.44921 21.1381 6.83178C20.2228 5.21436 18.8945 3.86886 17.2891 2.9327C15.6836 1.99655 13.8584 1.50328 12 1.50328C10.1415 1.50328 8.31633 1.99655 6.71087 2.9327C5.1054 3.86886 3.77717 5.21436 2.86183 6.83178C1.94649 8.44921 1.47684 10.2806 1.50085 12.1389C1.52485 13.9972 2.04166 15.8159 2.99847 17.4091Z" fill="black"/>
</g>
<defs>
<clipPath id="clip0_2_8251">
<rect width="24" height="24" fill="white"/>
</clipPath>
</defs>
</svg>
