<svg width="24" height="24" viewBox="0 0 24 24" fill="none" xmlns="http://www.w3.org/2000/svg">
<g clip-path="url(#clip0_2_8467)">
<path d="M11.4855 9.3707C11.6505 8.8757 12.3495 8.8757 12.5145 9.3707L13.482 12.2762C13.6949 12.9149 14.0537 13.4952 14.5299 13.9712C15.0061 14.4471 15.5866 14.8056 16.2255 15.0182L19.1295 15.9857C19.6245 16.1507 19.6245 16.8497 19.1295 17.0147L16.224 17.9822C15.5853 18.1952 15.0049 18.554 14.529 19.0302C14.053 19.5064 13.6946 20.0869 13.482 20.7257L12.5145 23.6297C12.4789 23.7381 12.41 23.8325 12.3176 23.8994C12.2252 23.9663 12.114 24.0023 12 24.0023C11.8859 24.0023 11.7747 23.9663 11.6823 23.8994C11.5899 23.8325 11.521 23.7381 11.4855 23.6297L10.518 20.7242C10.3052 20.0857 9.94658 19.5054 9.47065 19.0295C8.99472 18.5536 8.4145 18.195 7.77596 17.9822L4.87046 17.0147C4.76207 16.9791 4.66768 16.9102 4.60076 16.8178C4.53384 16.7254 4.49781 16.6143 4.49781 16.5002C4.49781 16.3861 4.53384 16.275 4.60076 16.1826C4.66768 16.0902 4.76207 16.0213 4.87046 15.9857L7.77596 15.0182C8.4145 14.8054 8.99472 14.4468 9.47065 13.9709C9.94658 13.495 10.3052 12.9147 10.518 12.2762L11.4855 9.3707ZM5.69096 1.7222C5.71247 1.65724 5.7539 1.60071 5.80937 1.56064C5.86485 1.52058 5.93153 1.49901 5.99996 1.49901C6.06839 1.49901 6.13507 1.52058 6.19054 1.56064C6.24602 1.60071 6.28745 1.65724 6.30896 1.7222L6.88946 3.4652C7.14896 4.2422 7.75796 4.8512 8.53496 5.1107L10.278 5.6912C10.3429 5.71271 10.3994 5.75414 10.4395 5.80961C10.4796 5.86508 10.5011 5.93177 10.5011 6.0002C10.5011 6.06862 10.4796 6.13531 10.4395 6.19078C10.3994 6.24625 10.3429 6.28769 10.278 6.3092L8.53496 6.8897C8.15175 7.01737 7.80354 7.23254 7.51792 7.51816C7.23231 7.80377 7.01713 8.15198 6.88946 8.5352L6.30896 10.2782C6.28745 10.3432 6.24602 10.3997 6.19054 10.4397C6.13507 10.4798 6.06839 10.5014 5.99996 10.5014C5.93153 10.5014 5.86485 10.4798 5.80937 10.4397C5.7539 10.3997 5.71247 10.3432 5.69096 10.2782L5.11046 8.5352C4.98278 8.15198 4.76761 7.80377 4.482 7.51816C4.19638 7.23254 3.84817 7.01737 3.46496 6.8897L1.72196 6.3092C1.657 6.28769 1.60047 6.24625 1.56041 6.19078C1.52034 6.13531 1.49878 6.06862 1.49878 6.0002C1.49878 5.93177 1.52034 5.86508 1.56041 5.80961C1.60047 5.75414 1.657 5.71271 1.72196 5.6912L3.46496 5.1107C3.84817 4.98302 4.19638 4.76785 4.482 4.48223C4.76761 4.19662 4.98278 3.84841 5.11046 3.4652L5.69096 1.7222ZM16.2945 0.148695C16.3093 0.105985 16.337 0.0689493 16.3738 0.0427378C16.4107 0.0165263 16.4548 0.00244141 16.5 0.00244141C16.5452 0.00244141 16.5892 0.0165263 16.6261 0.0427378C16.6629 0.0689493 16.6907 0.105985 16.7055 0.148695L17.0925 1.3097C17.265 1.8287 17.6715 2.2352 18.1905 2.4077L19.3515 2.7947C19.3942 2.8095 19.4312 2.83725 19.4574 2.87408C19.4836 2.91091 19.4977 2.95499 19.4977 3.0002C19.4977 3.0454 19.4836 3.08948 19.4574 3.12631C19.4312 3.16314 19.3942 3.19089 19.3515 3.2057L18.1905 3.5927C17.9347 3.67778 17.7023 3.82132 17.5117 4.01192C17.3211 4.20252 17.1775 4.43493 17.0925 4.6907L16.7055 5.8517C16.6907 5.89441 16.6629 5.93144 16.6261 5.95765C16.5892 5.98387 16.5452 5.99795 16.5 5.99795C16.4548 5.99795 16.4107 5.98387 16.3738 5.95765C16.337 5.93144 16.3093 5.89441 16.2945 5.8517L15.9075 4.6907C15.8224 4.43493 15.6788 4.20252 15.4882 4.01192C15.2976 3.82132 15.0652 3.67778 14.8095 3.5927L13.65 3.2057C13.6072 3.19089 13.5702 3.16314 13.544 3.12631C13.5178 3.08948 13.5037 3.0454 13.5037 3.0002C13.5037 2.95499 13.5178 2.91091 13.544 2.87408C13.5702 2.83725 13.6072 2.8095 13.65 2.7947L14.811 2.4077C15.33 2.2352 15.7365 1.8287 15.909 1.3097L16.2945 0.150195V0.148695Z" fill="black"/>
</g>
<defs>
<clipPath id="clip0_2_8467">
<rect width="24" height="24" fill="white"/>
</clipPath>
</defs>
</svg>
