<svg width="24" height="24" viewBox="0 0 24 24" fill="none" xmlns="http://www.w3.org/2000/svg">
<g clip-path="url(#clip0_2_7442)">
<path d="M4.29906 22.2752C4.18205 22.9412 4.83906 23.4617 5.41806 23.1647L12.0031 19.7807L18.5866 23.1647C19.1656 23.4617 19.8226 22.9412 19.7056 22.2767L18.4606 15.1817L23.7436 10.1477C24.2386 9.67675 23.9836 8.81575 23.3206 8.72275L15.9736 7.67875L12.6976 1.18825C12.6351 1.05668 12.5367 0.945525 12.4136 0.867689C12.2906 0.789853 12.1479 0.748535 12.0023 0.748535C11.8567 0.748535 11.7141 0.789853 11.591 0.867689C11.4679 0.945525 11.3695 1.05668 11.3071 1.18825L8.03106 7.68025L0.684055 8.72425C0.0225553 8.81725 -0.233945 9.67825 0.259555 10.1493L5.54406 15.1832L4.29906 22.2782V22.2752ZM11.6566 18.1248L6.12756 20.9657L7.16856 15.0302C7.19294 14.8936 7.1834 14.7531 7.14077 14.621C7.09814 14.4889 7.02372 14.3693 6.92406 14.2727L2.56506 10.1178L8.64305 9.25375C8.76891 9.23475 8.88829 9.18551 8.99095 9.11028C9.09362 9.03504 9.17652 8.93604 9.23256 8.82175L12.0001 3.33475L14.7706 8.82175C14.8266 8.93604 14.9095 9.03504 15.0122 9.11028C15.1148 9.18551 15.2342 9.23475 15.3601 9.25375L21.4381 10.1163L17.0791 14.2712C16.9792 14.368 16.9046 14.4878 16.862 14.6202C16.8193 14.7526 16.8099 14.8934 16.8346 15.0302L17.8756 20.9657L12.3466 18.1248C12.2396 18.0696 12.1211 18.0409 12.0008 18.0409C11.8805 18.0409 11.762 18.0696 11.6551 18.1248H11.6566Z" fill="black"/>
</g>
<defs>
<clipPath id="clip0_2_7442">
<rect width="24" height="24" fill="white"/>
</clipPath>
</defs>
</svg>
