<svg width="24" height="24" viewBox="0 0 24 24" fill="none" xmlns="http://www.w3.org/2000/svg">
<path d="M3.75 1.5C3.15326 1.5 2.58097 1.73705 2.15901 2.15901C1.73705 2.58097 1.5 3.15326 1.5 3.75V20.25C1.5 20.8467 1.73705 21.419 2.15901 21.841C2.58097 22.2629 3.15326 22.5 3.75 22.5H12.879C13.4755 22.4995 14.0474 22.2621 14.469 21.84L21.8415 14.469C22.263 14.0472 22.4999 13.4753 22.5 12.879V3.75C22.5 3.15326 22.2629 2.58097 21.841 2.15901C21.419 1.73705 20.8467 1.5 20.25 1.5H3.75ZM3 3.75C3 3.55109 3.07902 3.36032 3.21967 3.21967C3.36032 3.07902 3.55109 3 3.75 3H20.25C20.4489 3 20.6397 3.07902 20.7803 3.21967C20.921 3.36032 21 3.55109 21 3.75V12H14.25C13.6533 12 13.081 12.2371 12.659 12.659C12.2371 13.081 12 13.6533 12 14.25V21H3.75C3.55109 21 3.36032 20.921 3.21967 20.7803C3.07902 20.6397 3 20.4489 3 20.25V3.75ZM13.5 20.6895V14.25C13.5 14.0511 13.579 13.8603 13.7197 13.7197C13.8603 13.579 14.0511 13.5 14.25 13.5H20.6895L13.5 20.6895Z" fill="black"/>
</svg>
