<svg width="24" height="24" viewBox="0 0 24 24" fill="none" xmlns="http://www.w3.org/2000/svg">
<g clip-path="url(#clip0_2_8359)">
<path d="M9.75003 0C9.55112 0 9.36036 0.0790176 9.2197 0.21967C9.07905 0.360322 9.00003 0.551088 9.00003 0.75C9.00003 0.948912 9.07905 1.13968 9.2197 1.28033C9.36036 1.42098 9.55112 1.5 9.75003 1.5H10.5V3.105C7.87271 3.48474 5.48669 4.84541 3.82204 6.91325C2.15738 8.98108 1.33763 11.6026 1.52771 14.2504C1.71778 16.8983 2.90359 19.3758 4.84655 21.1847C6.7895 22.9935 9.34541 23.9994 12 24C14.0129 23.9999 15.9833 23.4213 17.6766 22.333C19.3699 21.2447 20.7147 19.6927 21.5508 17.8617C22.387 16.0307 22.6792 13.998 22.3927 12.0056C22.1063 10.0133 21.2532 8.14522 19.935 6.624C19.9416 6.61811 19.9481 6.61211 19.9545 6.606L20.4855 6.075L21.015 6.606C21.0842 6.67763 21.167 6.73477 21.2585 6.77408C21.35 6.81338 21.4484 6.83407 21.548 6.83494C21.6476 6.8358 21.7463 6.81683 21.8385 6.77912C21.9307 6.74141 22.0144 6.68572 22.0848 6.6153C22.1553 6.54488 22.2109 6.46114 22.2487 6.36897C22.2864 6.27679 22.3053 6.17803 22.3045 6.07845C22.3036 5.97886 22.2829 5.88045 22.2436 5.78895C22.2043 5.69744 22.1472 5.61469 22.0755 5.5455L19.9545 3.423C19.8853 3.35137 19.8026 3.29423 19.7111 3.25492C19.6196 3.21562 19.5212 3.19493 19.4216 3.19406C19.322 3.1932 19.2232 3.21217 19.1311 3.24988C19.0389 3.28759 18.9552 3.34328 18.8847 3.4137C18.8143 3.48412 18.7586 3.56786 18.7209 3.66003C18.6832 3.75221 18.6642 3.85097 18.6651 3.95055C18.666 4.05014 18.6867 4.14855 18.726 4.24005C18.7653 4.33156 18.8224 4.41432 18.894 4.4835L19.425 5.0145L18.894 5.5455C18.888 5.55143 18.882 5.55743 18.876 5.5635C17.3575 4.24466 15.491 3.39159 13.5 3.1065V1.5H14.25C14.4489 1.5 14.6397 1.42098 14.7804 1.28033C14.921 1.13968 15 0.948912 15 0.75C15 0.551088 14.921 0.360322 14.7804 0.21967C14.6397 0.0790176 14.4489 0 14.25 0L9.75003 0ZM12.75 8.4V13.5C12.75 13.6989 12.671 13.8897 12.5304 14.0303C12.3897 14.171 12.1989 14.25 12 14.25H6.75003C6.55112 14.25 6.36036 14.171 6.2197 14.0303C6.07905 13.8897 6.00003 13.6989 6.00003 13.5C6.00003 13.3011 6.07905 13.1103 6.2197 12.9697C6.36036 12.829 6.55112 12.75 6.75003 12.75H11.25V8.4C11.25 8.20109 11.3291 8.01032 11.4697 7.86967C11.6104 7.72902 11.8011 7.65 12 7.65C12.1989 7.65 12.3897 7.72902 12.5304 7.86967C12.671 8.01032 12.75 8.20109 12.75 8.4Z" fill="black"/>
</g>
<defs>
<clipPath id="clip0_2_8359">
<rect width="24" height="24" fill="white"/>
</clipPath>
</defs>
</svg>
