<svg width="24" height="24" viewBox="0 0 24 24" fill="none" xmlns="http://www.w3.org/2000/svg">
<path d="M12.576 1.83924C12.5124 1.74489 12.4266 1.66759 12.3262 1.61415C12.2258 1.56071 12.1137 1.53276 12 1.53276C11.8862 1.53276 11.7742 1.56071 11.6737 1.61415C11.5733 1.66759 11.4875 1.74489 11.424 1.83924L4.58396 11.5412C4.49048 11.6761 4.44039 11.8362 4.44039 12.0002C4.44039 12.1643 4.49048 12.3244 4.58396 12.4592L11.424 22.1627C11.4875 22.2571 11.5733 22.3344 11.6737 22.3878C11.7742 22.4413 11.8862 22.4692 12 22.4692C12.1137 22.4692 12.2258 22.4413 12.3262 22.3878C12.4266 22.3344 12.5124 22.2571 12.576 22.1627L19.416 12.4592C19.5094 12.3244 19.5595 12.1643 19.5595 12.0002C19.5595 11.8362 19.5094 11.6761 19.416 11.5412L12.576 1.83924ZM10.272 0.919742C10.4629 0.636983 10.7203 0.405394 11.0215 0.245291C11.3228 0.0851886 11.6588 0.00146484 12 0.00146484C12.3411 0.00146484 12.6771 0.0851886 12.9784 0.245291C13.2797 0.405394 13.537 0.636983 13.728 0.919742L20.568 10.6217C20.8493 11.0264 21 11.5074 21 12.0002C21 12.4931 20.8493 12.9741 20.568 13.3787L13.728 23.0807C13.537 23.3635 13.2797 23.5951 12.9784 23.7552C12.6771 23.9153 12.3411 23.999 12 23.999C11.6588 23.999 11.3228 23.9153 11.0215 23.7552C10.7203 23.5951 10.4629 23.3635 10.272 23.0807L3.43196 13.3802C3.15065 12.9756 2.99988 12.4946 2.99988 12.0017C2.99988 11.5089 3.15065 11.0279 3.43196 10.6232L10.272 0.919742Z" fill="black"/>
</svg>
