<svg width="24" height="24" viewBox="0 0 24 24" fill="none" xmlns="http://www.w3.org/2000/svg">
<g clip-path="url(#clip0_2_7432)">
<path d="M12 1.5C10.7071 1.5 9.46709 2.01361 8.55285 2.92785C7.63861 3.84209 7.12499 5.08207 7.12499 6.375C7.12499 6.654 7.12499 6.81 7.14899 6.99C7.16999 7.17 7.21649 7.395 7.32899 7.7805L7.61399 8.778L6.57599 8.736C5.74827 8.7017 4.92546 8.87891 4.18523 9.25089C3.445 9.62286 2.81178 10.1773 2.34533 10.862C1.87889 11.5466 1.59461 12.3388 1.51934 13.1639C1.44406 13.9889 1.58027 14.8194 1.91511 15.5772C2.24995 16.335 2.77236 16.9949 3.43305 17.4947C4.09373 17.9945 4.87089 18.3177 5.69115 18.4337C6.51142 18.5498 7.34773 18.4549 8.12115 18.1581C8.89456 17.8612 9.57957 17.3721 10.1115 16.737C10.2266 16.5975 10.3882 16.5043 10.5666 16.4746C10.745 16.4449 10.9281 16.4806 11.0822 16.5752C11.2364 16.6698 11.3511 16.8169 11.4054 16.9894C11.4596 17.1619 11.4497 17.3482 11.3775 17.514L11.373 17.5215L11.364 17.544L11.328 17.6265C11.1197 18.0915 10.9007 18.5517 10.671 19.0065C10.1008 20.14 9.46677 21.2403 8.77199 22.302C8.75249 22.329 8.74199 22.377 8.77349 22.437C8.78849 22.467 8.80499 22.482 8.81849 22.491C8.82781 22.4972 8.83882 22.5003 8.84999 22.5H15.15C15.165 22.5 15.174 22.497 15.183 22.491C15.2017 22.4774 15.2166 22.4594 15.2265 22.4385C15.2565 22.3785 15.2475 22.329 15.228 22.302C14.2561 20.8121 13.4015 19.2489 12.672 17.6265L12.636 17.5455L12.627 17.523L12.624 17.517C12.5533 17.3524 12.5438 17.168 12.5972 16.997C12.6507 16.8261 12.7635 16.6799 12.9154 16.5849C13.0673 16.4899 13.2481 16.4525 13.4252 16.4793C13.6023 16.5061 13.764 16.5954 13.881 16.731C14.7825 17.781 16.155 18.483 17.625 18.483C18.2703 18.4773 18.9081 18.3435 19.5013 18.0895C20.0946 17.8354 20.6314 17.4661 21.0808 17.0029C21.5302 16.5397 21.8832 15.9919 22.1192 15.3913C22.3553 14.7907 22.4697 14.1491 22.4559 13.5039C22.4421 12.8587 22.3003 12.2227 22.0388 11.6327C21.7773 11.0427 21.4012 10.5105 20.9325 10.067C20.4637 9.62345 19.9115 9.27741 19.3079 9.04894C18.7044 8.82046 18.0615 8.71409 17.4165 8.736L16.368 8.781L16.6665 7.7745C16.8765 7.0695 16.8765 6.657 16.875 6.384V6.375C16.875 5.08207 16.3614 3.84209 15.4471 2.92785C14.5329 2.01361 13.2929 1.5 12 1.5ZM15.3105 19.536C15.648 20.1435 16.041 20.808 16.4805 21.477C17.1555 22.5 16.4625 24 15.15 24H8.84999C7.53599 24 6.84299 22.5 7.51949 21.4755C7.95599 20.8125 8.34749 20.1555 8.68349 19.551C7.83822 19.8782 6.93287 20.0215 6.02786 19.9711C5.12285 19.9208 4.23898 19.678 3.43522 19.259C2.63145 18.8401 1.92627 18.2545 1.36672 17.5414C0.807162 16.8284 0.406102 16.0042 0.190291 15.1238C-0.0255206 14.2435 -0.0511214 13.3272 0.115196 12.4362C0.281514 11.5452 0.635926 10.6999 1.15479 9.95666C1.67365 9.21346 2.34504 8.58944 3.12415 8.12624C3.90327 7.66303 4.77221 7.3713 5.67299 7.2705C5.66812 7.23855 5.66362 7.20655 5.65949 7.1745C5.62499 6.894 5.62499 6.6525 5.62499 6.3945V6.375C5.62499 4.68425 6.29664 3.06274 7.49219 1.86719C8.68773 0.67165 10.3092 0 12 0C13.6907 0 15.3123 0.67165 16.5078 1.86719C17.7033 3.06274 18.375 4.68425 18.375 6.375C18.375 6.585 18.375 6.8745 18.315 7.269C19.9391 7.4423 21.4347 8.23234 22.4933 9.47613C23.5519 10.7199 24.0927 12.3226 24.0042 13.9535C23.9157 15.5844 23.2046 17.1191 22.0176 18.241C20.8306 19.3629 19.2583 19.9865 17.625 19.983C16.8322 19.9815 16.0469 19.8298 15.3105 19.536Z" fill="black"/>
</g>
<defs>
<clipPath id="clip0_2_7432">
<rect width="24" height="24" fill="white"/>
</clipPath>
</defs>
</svg>
