<svg width="24" height="24" viewBox="0 0 24 24" fill="none" xmlns="http://www.w3.org/2000/svg">
<g clip-path="url(#clip0_2_7427)">
<path d="M4.5 7.5C3.70435 7.5 2.94129 7.81607 2.37868 8.37868C1.81607 8.94129 1.5 9.70435 1.5 10.5V11.25H0.75C0.551088 11.25 0.360322 11.329 0.21967 11.4697C0.0790176 11.6103 0 11.8011 0 12C0 12.1989 0.0790176 12.3897 0.21967 12.5303C0.360322 12.671 0.551088 12.75 0.75 12.75H1.5V13.5C1.5 14.2956 1.81607 15.0587 2.37868 15.6213C2.94129 16.1839 3.70435 16.5 4.5 16.5H6C7.19347 16.5 8.33807 16.0259 9.18198 15.182C10.0259 14.3381 10.5 13.1935 10.5 12C10.5 11.6022 10.658 11.2206 10.9393 10.9393C11.2206 10.658 11.6022 10.5 12 10.5C12.3978 10.5 12.7794 10.658 13.0607 10.9393C13.342 11.2206 13.5 11.6022 13.5 12C13.5 13.1935 13.9741 14.3381 14.818 15.182C15.6619 16.0259 16.8065 16.5 18 16.5H19.5C20.2956 16.5 21.0587 16.1839 21.6213 15.6213C22.1839 15.0587 22.5 14.2956 22.5 13.5V12.75H23.25C23.4489 12.75 23.6397 12.671 23.7803 12.5303C23.921 12.3897 24 12.1989 24 12C24 11.8011 23.921 11.6103 23.7803 11.4697C23.6397 11.329 23.4489 11.25 23.25 11.25H22.5V10.5C22.5 9.70435 22.1839 8.94129 21.6213 8.37868C21.0587 7.81607 20.2956 7.5 19.5 7.5H16.5C15.8782 7.49977 15.2716 7.69278 14.7643 8.05233C14.2569 8.41189 13.8738 8.92021 13.668 9.507C13.1748 9.17579 12.5941 8.99926 12 9C11.4059 8.99926 10.8252 9.17579 10.332 9.507C10.1262 8.92021 9.74309 8.41189 9.23573 8.05233C8.72838 7.69278 8.12184 7.49977 7.5 7.5H4.5ZM4.5 9H5.9115C6.3075 9 6.4335 9.534 6.0795 9.711L5.394 10.053C4.81376 10.3432 4.34324 10.8138 4.053 11.394L3.711 12.0795C3.534 12.4335 3 12.3075 3 11.91V10.5C3 10.1022 3.15804 9.72064 3.43934 9.43934C3.72064 9.15804 4.10218 9 4.5 9Z" fill="black"/>
</g>
<defs>
<clipPath id="clip0_2_7427">
<rect width="24" height="24" fill="white"/>
</clipPath>
</defs>
</svg>
