<svg width="24" height="24" viewBox="0 0 24 24" fill="none" xmlns="http://www.w3.org/2000/svg">
<path d="M3 1.5C2.60218 1.5 2.22064 1.65804 1.93934 1.93934C1.65804 2.22064 1.5 2.60218 1.5 3V9.879C1.50008 10.2768 1.65818 10.6583 1.9395 10.9395L12.4395 21.4395C12.7208 21.7207 13.1023 21.8787 13.5 21.8787C13.8977 21.8787 14.2792 21.7207 14.5605 21.4395L21.4395 14.5605C21.7207 14.2792 21.8787 13.8977 21.8787 13.5C21.8787 13.1023 21.7207 12.7208 21.4395 12.4395L10.9395 1.9395C10.6583 1.65818 10.2768 1.50008 9.879 1.5H3ZM9 6.75C9 7.34674 8.76295 7.91903 8.34099 8.34099C7.91903 8.76295 7.34674 9 6.75 9C6.15326 9 5.58097 8.76295 5.15901 8.34099C4.73705 7.91903 4.5 7.34674 4.5 6.75C4.5 6.15326 4.73705 5.58097 5.15901 5.15901C5.58097 4.73705 6.15326 4.5 6.75 4.5C7.34674 4.5 7.91903 4.73705 8.34099 5.15901C8.76295 5.58097 9 6.15326 9 6.75Z" fill="black"/>
</svg>
