<svg width="24" height="24" viewBox="0 0 24 24" fill="none" xmlns="http://www.w3.org/2000/svg">
<g clip-path="url(#clip0_2_8351)">
<path fill-rule="evenodd" clip-rule="evenodd" d="M2.82772 0.766232C3.09018 0.504165 3.40534 0.300869 3.75231 0.169817C4.09929 0.0387646 4.47015 -0.0170519 4.84033 0.00606638C5.2105 0.0291847 5.57154 0.13071 5.89951 0.303914C6.22748 0.477118 6.5149 0.718046 6.74272 1.01073L9.43522 4.46973C9.92872 5.10423 10.1027 5.93073 9.90772 6.71073L9.08722 9.99573C9.0448 10.1659 9.04709 10.3441 9.09387 10.5131C9.14065 10.6821 9.23034 10.8361 9.35422 10.9602L13.0397 14.6457C13.164 14.7699 13.3183 14.8597 13.4875 14.9065C13.6568 14.9533 13.8354 14.9554 14.0057 14.9127L17.2892 14.0922C17.6741 13.996 18.0759 13.9885 18.4641 14.0704C18.8524 14.1522 19.2169 14.3213 19.5302 14.5647L22.9892 17.2557C24.2327 18.2232 24.3467 20.0607 23.2337 21.1722L21.6827 22.7232C20.5727 23.8332 18.9137 24.3207 17.3672 23.7762C13.409 22.3835 9.81513 20.1175 6.85222 17.1462C3.88115 14.1838 1.61513 10.5904 0.222218 6.63273C-0.320782 5.08773 0.166718 3.42723 1.27672 2.31723L2.82772 0.766232ZM16.7192 2.46873C16.7889 2.39889 16.8717 2.34347 16.9628 2.30566C17.0539 2.26785 17.1516 2.24839 17.2502 2.24839C17.3489 2.24839 17.4466 2.26785 17.5377 2.30566C17.6288 2.34347 17.7115 2.39889 17.7812 2.46873L19.5002 4.18923L21.2192 2.46873C21.36 2.3279 21.5511 2.24878 21.7502 2.24878C21.9494 2.24878 22.1404 2.3279 22.2812 2.46873C22.422 2.60956 22.5012 2.80057 22.5012 2.99973C22.5012 3.1989 22.422 3.3899 22.2812 3.53073L20.5607 5.24973L22.2812 6.96873C22.422 7.10956 22.5012 7.30057 22.5012 7.49973C22.5012 7.6989 22.422 7.8899 22.2812 8.03073C22.1404 8.17156 21.9494 8.25068 21.7502 8.25068C21.5511 8.25068 21.36 8.17156 21.2192 8.03073L19.5002 6.31023L17.7812 8.03073C17.7115 8.10046 17.6287 8.15578 17.5376 8.19352C17.4465 8.23126 17.3488 8.25068 17.2502 8.25068C17.1516 8.25068 17.054 8.23126 16.9628 8.19352C16.8717 8.15578 16.7889 8.10046 16.7192 8.03073C16.6495 7.961 16.5942 7.87822 16.5564 7.78711C16.5187 7.696 16.4993 7.59835 16.4993 7.49973C16.4993 7.40112 16.5187 7.30347 16.5564 7.21236C16.5942 7.12125 16.6495 7.03846 16.7192 6.96873L18.4397 5.24973L16.7192 3.53073C16.6494 3.46106 16.594 3.3783 16.5562 3.28718C16.5183 3.19606 16.4989 3.09838 16.4989 2.99973C16.4989 2.90108 16.5183 2.8034 16.5562 2.71228C16.594 2.62116 16.6494 2.5384 16.7192 2.46873Z" fill="black"/>
</g>
<defs>
<clipPath id="clip0_2_8351">
<rect width="24" height="24" fill="white"/>
</clipPath>
</defs>
</svg>
