<svg width="24" height="24" viewBox="0 0 24 24" fill="none" xmlns="http://www.w3.org/2000/svg">
<g clip-path="url(#clip0_2_7415)">
<path fill-rule="evenodd" clip-rule="evenodd" d="M2.82772 0.766232C3.09018 0.504165 3.40534 0.300869 3.75231 0.169817C4.09929 0.0387646 4.47015 -0.0170519 4.84033 0.00606638C5.2105 0.0291847 5.57154 0.13071 5.89951 0.303914C6.22748 0.477118 6.5149 0.718046 6.74272 1.01073L9.43522 4.46973C9.92872 5.10423 10.1027 5.93073 9.90772 6.71073L9.08722 9.99573C9.0448 10.1659 9.04709 10.3441 9.09387 10.5131C9.14065 10.6821 9.23034 10.8361 9.35422 10.9602L13.0397 14.6457C13.164 14.7699 13.3183 14.8597 13.4875 14.9065C13.6568 14.9533 13.8354 14.9554 14.0057 14.9127L17.2892 14.0922C17.6741 13.996 18.0759 13.9885 18.4641 14.0704C18.8524 14.1522 19.2169 14.3213 19.5302 14.5647L22.9892 17.2557C24.2327 18.2232 24.3467 20.0607 23.2337 21.1722L21.6827 22.7232C20.5727 23.8332 18.9137 24.3207 17.3672 23.7762C13.409 22.3835 9.81513 20.1175 6.85222 17.1462C3.88115 14.1838 1.61513 10.5904 0.222218 6.63273C-0.320782 5.08773 0.166718 3.42723 1.27672 2.31723L2.82772 0.766232ZM18.9692 0.968732C19.0389 0.898887 19.1217 0.843473 19.2128 0.805663C19.3039 0.767854 19.4016 0.748391 19.5002 0.748391C19.5989 0.748391 19.6966 0.767854 19.7877 0.805663C19.8788 0.843473 19.9615 0.898887 20.0312 0.968732L23.7812 4.71873C23.8511 4.7884 23.9065 4.87116 23.9443 4.96228C23.9821 5.0534 24.0016 5.15108 24.0016 5.24973C24.0016 5.34838 23.9821 5.44606 23.9443 5.53718C23.9065 5.6283 23.8511 5.71106 23.7812 5.78073L20.0312 9.53073C19.8904 9.67156 19.6994 9.75068 19.5002 9.75068C19.3011 9.75068 19.11 9.67156 18.9692 9.53073C18.8284 9.3899 18.7493 9.1989 18.7493 8.99973C18.7493 8.80057 18.8284 8.60956 18.9692 8.46873L21.4397 5.99973H14.2502C14.0513 5.99973 13.8605 5.92071 13.7199 5.78006C13.5792 5.63941 13.5002 5.44864 13.5002 5.24973C13.5002 5.05082 13.5792 4.86005 13.7199 4.7194C13.8605 4.57875 14.0513 4.49973 14.2502 4.49973H21.4397L18.9692 2.03073C18.8994 1.96106 18.844 1.8783 18.8062 1.78718C18.7683 1.69606 18.7489 1.59838 18.7489 1.49973C18.7489 1.40108 18.7683 1.3034 18.8062 1.21228C18.844 1.12116 18.8994 1.0384 18.9692 0.968732Z" fill="black"/>
</g>
<defs>
<clipPath id="clip0_2_7415">
<rect width="24" height="24" fill="white"/>
</clipPath>
</defs>
</svg>
