<svg width="24" height="24" viewBox="0 0 24 24" fill="none" xmlns="http://www.w3.org/2000/svg">
<g clip-path="url(#clip0_2_7413)">
<path fill-rule="evenodd" clip-rule="evenodd" d="M2.82772 0.766864C3.09018 0.504797 3.40534 0.301501 3.75231 0.170449C4.09929 0.0393967 4.47015 -0.0164198 4.84033 0.00669847C5.2105 0.0298168 5.57154 0.131342 5.89951 0.304546C6.22748 0.47775 6.5149 0.718678 6.74272 1.01136L9.43522 4.47036C9.92872 5.10486 10.1027 5.93136 9.90772 6.71136L9.08722 9.99636C9.0448 10.1665 9.04709 10.3447 9.09387 10.5137C9.14065 10.6827 9.23034 10.8368 9.35422 10.9609L13.0397 14.6464C13.164 14.7705 13.3183 14.8603 13.4875 14.9071C13.6568 14.9539 13.8354 14.9561 14.0057 14.9134L17.2892 14.0929C17.6741 13.9966 18.0759 13.9891 18.4641 14.071C18.8524 14.1529 19.2169 14.3219 19.5302 14.5654L22.9892 17.2564C24.2327 18.2239 24.3467 20.0614 23.2337 21.1729L21.6827 22.7239C20.5727 23.8339 18.9137 24.3214 17.3672 23.7769C13.409 22.3842 9.81513 20.1181 6.85222 17.1469C3.88115 14.1844 1.61513 10.5911 0.222218 6.63336C-0.320782 5.08836 0.166718 3.42786 1.27672 2.31786L2.82772 0.766864ZM23.7812 0.219364C23.8511 0.289033 23.9065 0.371796 23.9443 0.462914C23.9821 0.554031 24.0016 0.651713 24.0016 0.750364C24.0016 0.849015 23.9821 0.946697 23.9443 1.03781C23.9065 1.12893 23.8511 1.2117 23.7812 1.28136L17.5607 7.50036H21.7502C21.9491 7.50036 22.1399 7.57938 22.2805 7.72003C22.4212 7.86069 22.5002 8.05145 22.5002 8.25036C22.5002 8.44928 22.4212 8.64004 22.2805 8.78069C22.1399 8.92135 21.9491 9.00036 21.7502 9.00036H15.7502C15.5513 9.00036 15.3605 8.92135 15.2199 8.78069C15.0792 8.64004 15.0002 8.44928 15.0002 8.25036V2.25036C15.0002 2.05145 15.0792 1.86069 15.2199 1.72003C15.3605 1.57938 15.5513 1.50036 15.7502 1.50036C15.9491 1.50036 16.1399 1.57938 16.2805 1.72003C16.4212 1.86069 16.5002 2.05145 16.5002 2.25036V6.43986L22.7192 0.219364C22.7889 0.149519 22.8717 0.094105 22.9628 0.0562953C23.0539 0.0184856 23.1516 -0.000976563 23.2502 -0.000976562C23.3489 -0.000976562 23.4466 0.0184856 23.5377 0.0562953C23.6288 0.094105 23.7115 0.149519 23.7812 0.219364Z" fill="black"/>
</g>
<defs>
<clipPath id="clip0_2_7413">
<rect width="24" height="24" fill="white"/>
</clipPath>
</defs>
</svg>
