<svg width="24" height="24" viewBox="0 0 24 24" fill="none" xmlns="http://www.w3.org/2000/svg">
<path fill-rule="evenodd" clip-rule="evenodd" d="M3 3C2.60218 3 2.22064 3.15804 1.93934 3.43934C1.65804 3.72064 1.5 4.10218 1.5 4.5V19.5C1.5 19.8978 1.65804 20.2794 1.93934 20.5607C2.22064 20.842 2.60218 21 3 21H11.25V3H3ZM12.75 3V21H21C21.3978 21 21.7794 20.842 22.0607 20.5607C22.342 20.2794 22.5 19.8978 22.5 19.5V4.5C22.5 4.10218 22.342 3.72064 22.0607 3.43934C21.7794 3.15804 21.3978 3 21 3H12.75ZM0 4.5C0 3.70435 0.316071 2.94129 0.87868 2.37868C1.44129 1.81607 2.20435 1.5 3 1.5H21C21.7956 1.5 22.5587 1.81607 23.1213 2.37868C23.6839 2.94129 24 3.70435 24 4.5V19.5C24 20.2956 23.6839 21.0587 23.1213 21.6213C22.5587 22.1839 21.7956 22.5 21 22.5H3C2.20435 22.5 1.44129 22.1839 0.87868 21.6213C0.316071 21.0587 0 20.2956 0 19.5V4.5ZM3.219 4.719C3.28867 4.64915 3.37143 4.59374 3.46255 4.55593C3.55367 4.51812 3.65135 4.49866 3.75 4.49866C3.84865 4.49866 3.94633 4.51812 4.03745 4.55593C4.12857 4.59374 4.21133 4.64915 4.281 4.719L5.5155 5.955C5.72618 6.16594 5.84451 6.45187 5.84451 6.75C5.84451 7.04813 5.72618 7.33406 5.5155 7.545L4.281 8.781C4.14017 8.92183 3.94916 9.00095 3.75 9.00095C3.55084 9.00095 3.35983 8.92183 3.219 8.781C3.07817 8.64017 2.99905 8.44916 2.99905 8.25C2.99905 8.15138 3.01848 8.05373 3.05622 7.96262C3.09395 7.87152 3.14927 7.78873 3.219 7.719L4.1895 6.75L3.219 5.781C3.14915 5.71133 3.09374 5.62857 3.05593 5.53745C3.01812 5.44633 2.99866 5.34865 2.99866 5.25C2.99866 5.15135 3.01812 5.05367 3.05593 4.96255C3.09374 4.87143 3.14915 4.78867 3.219 4.719ZM6 9C6 8.80109 6.07902 8.61032 6.21967 8.46967C6.36032 8.32902 6.55109 8.25 6.75 8.25H8.25C8.44891 8.25 8.63968 8.32902 8.78033 8.46967C8.92098 8.61032 9 8.80109 9 9C9 9.19891 8.92098 9.38968 8.78033 9.53033C8.63968 9.67098 8.44891 9.75 8.25 9.75H6.75C6.55109 9.75 6.36032 9.67098 6.21967 9.53033C6.07902 9.38968 6 9.19891 6 9ZM15.531 4.719C15.3902 4.57817 15.1992 4.49905 15 4.49905C14.8008 4.49905 14.6098 4.57817 14.469 4.719C14.3282 4.85983 14.2491 5.05084 14.2491 5.25C14.2491 5.44916 14.3282 5.64017 14.469 5.781L15.4395 6.75L14.469 7.719C14.3282 7.85983 14.2491 8.05084 14.2491 8.25C14.2491 8.44916 14.3282 8.64017 14.469 8.781C14.6098 8.92183 14.8008 9.00095 15 9.00095C15.1992 9.00095 15.3902 8.92183 15.531 8.781L16.7655 7.545C16.9762 7.33406 17.0945 7.04813 17.0945 6.75C17.0945 6.45187 16.9762 6.16594 16.7655 5.955L15.531 4.719ZM18 8.25C17.8011 8.25 17.6103 8.32902 17.4697 8.46967C17.329 8.61032 17.25 8.80109 17.25 9C17.25 9.19891 17.329 9.38968 17.4697 9.53033C17.6103 9.67098 17.8011 9.75 18 9.75H19.5C19.6989 9.75 19.8897 9.67098 20.0303 9.53033C20.171 9.38968 20.25 9.19891 20.25 9C20.25 8.80109 20.171 8.61032 20.0303 8.46967C19.8897 8.32902 19.6989 8.25 19.5 8.25H18Z" fill="black"/>
</svg>
