<svg width="24" height="24" viewBox="0 0 24 24" fill="none" xmlns="http://www.w3.org/2000/svg">
<path d="M3 5.25C3 5.05109 3.07902 4.86032 3.21967 4.71967C3.36032 4.57902 3.55109 4.5 3.75 4.5H20.25C20.4489 4.5 20.6397 4.57902 20.7803 4.71967C20.921 4.86032 21 5.05109 21 5.25C21 5.44891 20.921 5.63968 20.7803 5.78033C20.6397 5.92098 20.4489 6 20.25 6H3.75C3.55109 6 3.36032 5.92098 3.21967 5.78033C3.07902 5.63968 3 5.44891 3 5.25ZM3.969 8.469C4.03867 8.39915 4.12143 8.34374 4.21255 8.30593C4.30367 8.26812 4.40135 8.24866 4.5 8.24866C4.59865 8.24866 4.69633 8.26812 4.78745 8.30593C4.87857 8.34374 4.96133 8.39915 5.031 8.469L8.031 11.469C8.10084 11.5387 8.15626 11.6214 8.19407 11.7125C8.23188 11.8037 8.25134 11.9013 8.25134 12C8.25134 12.0987 8.23188 12.1963 8.19407 12.2874C8.15626 12.3786 8.10084 12.4613 8.031 12.531L5.031 15.531C4.96127 15.6007 4.87848 15.656 4.78738 15.6938C4.69627 15.7315 4.59862 15.7509 4.5 15.7509C4.40138 15.7509 4.30373 15.7315 4.21262 15.6938C4.12152 15.656 4.03873 15.6007 3.969 15.531C3.89927 15.4613 3.84395 15.3785 3.80622 15.2874C3.76848 15.1963 3.74905 15.0986 3.74905 15C3.74905 14.9014 3.76848 14.8037 3.80622 14.7126C3.84395 14.6215 3.89927 14.5387 3.969 14.469L6.4395 12L3.969 9.531C3.89916 9.46133 3.84374 9.37857 3.80593 9.28745C3.76812 9.19633 3.74866 9.09865 3.74866 9C3.74866 8.90135 3.76812 8.80367 3.80593 8.71255C3.84374 8.62143 3.89916 8.53867 3.969 8.469ZM10.5 9.75C10.5 9.55109 10.579 9.36032 10.7197 9.21967C10.8603 9.07902 11.0511 9 11.25 9H20.25C20.4489 9 20.6397 9.07902 20.7803 9.21967C20.921 9.36032 21 9.55109 21 9.75C21 9.94891 20.921 10.1397 20.7803 10.2803C20.6397 10.421 20.4489 10.5 20.25 10.5H11.25C11.0511 10.5 10.8603 10.421 10.7197 10.2803C10.579 10.1397 10.5 9.94891 10.5 9.75ZM10.5 14.25C10.5 14.0511 10.579 13.8603 10.7197 13.7197C10.8603 13.579 11.0511 13.5 11.25 13.5H20.25C20.4489 13.5 20.6397 13.579 20.7803 13.7197C20.921 13.8603 21 14.0511 21 14.25C21 14.4489 20.921 14.6397 20.7803 14.7803C20.6397 14.921 20.4489 15 20.25 15H11.25C11.0511 15 10.8603 14.921 10.7197 14.7803C10.579 14.6397 10.5 14.4489 10.5 14.25ZM3 18.75C3 18.5511 3.07902 18.3603 3.21967 18.2197C3.36032 18.079 3.55109 18 3.75 18H20.25C20.4489 18 20.6397 18.079 20.7803 18.2197C20.921 18.3603 21 18.5511 21 18.75C21 18.9489 20.921 19.1397 20.7803 19.2803C20.6397 19.421 20.4489 19.5 20.25 19.5H3.75C3.55109 19.5 3.36032 19.421 3.21967 19.2803C3.07902 19.1397 3 18.9489 3 18.75Z" fill="black"/>
</svg>
