<svg width="24" height="24" viewBox="0 0 24 24" fill="none" xmlns="http://www.w3.org/2000/svg">
<g clip-path="url(#clip0_2_7394)">
<path d="M7.5 18.75C7.49978 19.1624 7.3862 19.5669 7.17167 19.9192C6.95713 20.2714 6.6499 20.5579 6.28354 20.7474C5.91718 20.9369 5.5058 21.022 5.09434 20.9934C4.68288 20.9649 4.28718 20.8238 3.95048 20.5856C3.61378 20.3474 3.34904 20.0212 3.18518 19.6427C3.02132 19.2642 2.96466 18.8479 3.02138 18.4394C3.07809 18.0309 3.24601 17.6458 3.50678 17.3263C3.76755 17.0067 4.11114 16.765 4.5 16.6275V3.75C4.5 3.55109 4.57902 3.36032 4.71967 3.21967C4.86032 3.07902 5.05109 3 5.25 3C5.44891 3 5.63968 3.07902 5.78033 3.21967C5.92098 3.36032 6 3.55109 6 3.75V16.6275C6.43887 16.7827 6.81881 17.0701 7.08746 17.4503C7.35611 17.8304 7.50025 18.2845 7.5 18.75Z" fill="black"/>
<path d="M1.5 3.75C1.5 2.75544 1.89509 1.80161 2.59835 1.09835C3.30161 0.395088 4.25544 0 5.25 0C6.24457 0 7.19839 0.395088 7.90165 1.09835C8.60492 1.80161 9 2.75544 9 3.75V15.075C9.72351 15.8134 10.2129 16.749 10.4068 17.7645C10.6007 18.7799 10.4905 19.83 10.0901 20.783C9.68957 21.7361 9.01663 22.5497 8.1556 23.1219C7.29457 23.694 6.28379 23.9992 5.25 23.9992C4.21621 23.9992 3.20543 23.694 2.3444 23.1219C1.48338 22.5497 0.810432 21.7361 0.409949 20.783C0.00946704 19.83 -0.100725 18.7799 0.0931917 17.7645C0.287108 16.749 0.776501 15.8134 1.5 15.075V3.75ZM5.25 1.5C4.65327 1.5 4.08097 1.73705 3.65901 2.15901C3.23706 2.58097 3 3.15326 3 3.75V15.7305L2.7495 15.9555C2.18336 16.4618 1.78429 17.128 1.60511 17.8661C1.42593 18.6042 1.47507 19.3792 1.74605 20.0887C2.01702 20.7982 2.49705 21.4088 3.1226 21.8395C3.74816 22.2702 4.48976 22.5008 5.24925 22.5008C6.00875 22.5008 6.75035 22.2702 7.3759 21.8395C8.00146 21.4088 8.48149 20.7982 8.75246 20.0887C9.02343 19.3792 9.07258 18.6042 8.8934 17.8661C8.71421 17.128 8.31514 16.4618 7.749 15.9555L7.5 15.729V3.75C7.5 3.15326 7.26295 2.58097 6.84099 2.15901C6.41904 1.73705 5.84674 1.5 5.25 1.5ZM12.75 3C12.9489 3 13.1397 3.07902 13.2803 3.21967C13.421 3.36032 13.5 3.55109 13.5 3.75V5.25C13.5 5.44891 13.421 5.63968 13.2803 5.78033C13.1397 5.92098 12.9489 6 12.75 6C12.5511 6 12.3603 5.92098 12.2197 5.78033C12.079 5.63968 12 5.44891 12 5.25V3.75C12 3.55109 12.079 3.36032 12.2197 3.21967C12.3603 3.07902 12.5511 3 12.75 3ZM19.1145 5.6355C19.2551 5.77615 19.3341 5.96688 19.3341 6.16575C19.3341 6.36462 19.2551 6.55535 19.1145 6.696L18.054 7.758C17.9132 7.89883 17.7222 7.97795 17.523 7.97795C17.3238 7.97795 17.1328 7.89883 16.992 7.758C16.8512 7.61717 16.7721 7.42616 16.7721 7.227C16.7721 7.02784 16.8512 6.83683 16.992 6.696L18.054 5.6355C18.1947 5.4949 18.3854 5.41591 18.5843 5.41591C18.7831 5.41591 18.9739 5.4949 19.1145 5.6355ZM12 8.25C12 8.05109 12.079 7.86032 12.2197 7.71967C12.3603 7.57902 12.5511 7.5 12.75 7.5C13.9435 7.5 15.0881 7.97411 15.932 8.81802C16.7759 9.66193 17.25 10.8065 17.25 12C17.25 13.1935 16.7759 14.3381 15.932 15.182C15.0881 16.0259 13.9435 16.5 12.75 16.5C12.5511 16.5 12.3603 16.421 12.2197 16.2803C12.079 16.1397 12 15.9489 12 15.75C12 15.5511 12.079 15.3603 12.2197 15.2197C12.3603 15.079 12.5511 15 12.75 15C13.5457 15 14.3087 14.6839 14.8713 14.1213C15.4339 13.5587 15.75 12.7956 15.75 12C15.75 11.2044 15.4339 10.4413 14.8713 9.87868C14.3087 9.31607 13.5457 9 12.75 9C12.5511 9 12.3603 8.92098 12.2197 8.78033C12.079 8.63968 12 8.44891 12 8.25ZM18.75 12C18.75 11.8011 18.829 11.6103 18.9697 11.4697C19.1103 11.329 19.3011 11.25 19.5 11.25H21C21.1989 11.25 21.3897 11.329 21.5303 11.4697C21.671 11.6103 21.75 11.8011 21.75 12C21.75 12.1989 21.671 12.3897 21.5303 12.5303C21.3897 12.671 21.1989 12.75 21 12.75H19.5C19.3011 12.75 19.1103 12.671 18.9697 12.5303C18.829 12.3897 18.75 12.1989 18.75 12ZM16.992 16.242C17.0617 16.1722 17.1444 16.1167 17.2356 16.0789C17.3267 16.0411 17.4244 16.0217 17.523 16.0217C17.6217 16.0217 17.7193 16.0411 17.8105 16.0789C17.9016 16.1167 17.9843 16.1722 18.054 16.242L19.1145 17.304C19.2511 17.4455 19.3267 17.6349 19.325 17.8316C19.3233 18.0282 19.2444 18.2163 19.1054 18.3554C18.9663 18.4944 18.7782 18.5733 18.5816 18.575C18.3849 18.5767 18.1955 18.5011 18.054 18.3645L16.992 17.304C16.9222 17.2343 16.8667 17.1516 16.8289 17.0604C16.7911 16.9693 16.7717 16.8717 16.7717 16.773C16.7717 16.6743 16.7911 16.5767 16.8289 16.4855C16.8667 16.3944 16.9222 16.3117 16.992 16.242ZM12.75 18C12.9489 18 13.1397 18.079 13.2803 18.2197C13.421 18.3603 13.5 18.5511 13.5 18.75V20.25C13.5 20.4489 13.421 20.6397 13.2803 20.7803C13.1397 20.921 12.9489 21 12.75 21C12.5511 21 12.3603 20.921 12.2197 20.7803C12.079 20.6397 12 20.4489 12 20.25V18.75C12 18.5511 12.079 18.3603 12.2197 18.2197C12.3603 18.079 12.5511 18 12.75 18Z" fill="black"/>
</g>
<defs>
<clipPath id="clip0_2_7394">
<rect width="24" height="24" fill="white"/>
</clipPath>
</defs>
</svg>
