<svg width="24" height="24" viewBox="0 0 24 24" fill="none" xmlns="http://www.w3.org/2000/svg">
<g clip-path="url(#clip0_2_7384)">
<path d="M13.5 16.5C14.442 15.246 15 13.689 15 12C15.0024 10.3768 14.4758 8.7971 13.5 7.5H19.5C20.6935 7.5 21.8381 7.97411 22.682 8.81802C23.5259 9.66193 24 10.8065 24 12C24 13.1935 23.5259 14.3381 22.682 15.182C21.8381 16.0259 20.6935 16.5 19.5 16.5H13.5Z" fill="black"/>
<path d="M7.5 18C5.9087 18 4.38258 17.3679 3.25736 16.2426C2.13214 15.1174 1.5 13.5913 1.5 12C1.5 10.4087 2.13214 8.88258 3.25736 7.75736C4.38258 6.63214 5.9087 6 7.5 6C9.0913 6 10.6174 6.63214 11.7426 7.75736C12.8679 8.88258 13.5 10.4087 13.5 12C13.5 13.5913 12.8679 15.1174 11.7426 16.2426C10.6174 17.3679 9.0913 18 7.5 18ZM7.5 19.5C9.48912 19.5 11.3968 18.7098 12.8033 17.3033C14.2098 15.8968 15 13.9891 15 12C15 10.0109 14.2098 8.10322 12.8033 6.6967C11.3968 5.29018 9.48912 4.5 7.5 4.5C5.51088 4.5 3.60322 5.29018 2.1967 6.6967C0.790176 8.10322 0 10.0109 0 12C0 13.9891 0.790176 15.8968 2.1967 17.3033C3.60322 18.7098 5.51088 19.5 7.5 19.5Z" fill="black"/>
</g>
<defs>
<clipPath id="clip0_2_7384">
<rect width="24" height="24" fill="white"/>
</clipPath>
</defs>
</svg>
