<svg width="24" height="24" viewBox="0 0 24 24" fill="none" xmlns="http://www.w3.org/2000/svg">
<g clip-path="url(#clip0_2_7385)">
<path d="M16.5 6C18.0913 6 19.6174 6.63214 20.7426 7.75736C21.8679 8.88258 22.5 10.4087 22.5 12C22.5 13.5913 21.8679 15.1174 20.7426 16.2426C19.6174 17.3679 18.0913 18 16.5 18H12C12.9322 17.302 13.6887 16.3963 14.2095 15.3547C14.7303 14.3132 15.0009 13.1645 15 12C15.0009 10.8355 14.7303 9.68683 14.2095 8.64526C13.6887 7.6037 12.9322 6.69795 12 6H16.5ZM7.5 18C5.9087 18 4.38258 17.3679 3.25736 16.2426C2.13214 15.1174 1.5 13.5913 1.5 12C1.5 10.4087 2.13214 8.88258 3.25736 7.75736C4.38258 6.63214 5.9087 6 7.5 6C9.0913 6 10.6174 6.63214 11.7426 7.75736C12.8679 8.88258 13.5 10.4087 13.5 12C13.5 13.5913 12.8679 15.1174 11.7426 16.2426C10.6174 17.3679 9.0913 18 7.5 18ZM0 12C0 13.9891 0.790176 15.8968 2.1967 17.3033C3.60322 18.7098 5.51088 19.5 7.5 19.5H16.5C18.4891 19.5 20.3968 18.7098 21.8033 17.3033C23.2098 15.8968 24 13.9891 24 12C24 10.0109 23.2098 8.10322 21.8033 6.6967C20.3968 5.29018 18.4891 4.5 16.5 4.5H7.5C5.51088 4.5 3.60322 5.29018 2.1967 6.6967C0.790176 8.10322 0 10.0109 0 12H0Z" fill="black"/>
</g>
<defs>
<clipPath id="clip0_2_7385">
<rect width="24" height="24" fill="white"/>
</clipPath>
</defs>
</svg>
