<svg width="24" height="24" viewBox="0 0 24 24" fill="none" xmlns="http://www.w3.org/2000/svg">
<g clip-path="url(#clip0_2_7383)">
<path d="M10.5 7.5H4.5C3.30653 7.5 2.16193 7.97411 1.31802 8.81802C0.474106 9.66193 0 10.8065 0 12C0 13.1935 0.474106 14.3381 1.31802 15.182C2.16193 16.0259 3.30653 16.5 4.5 16.5H10.5C10.1508 16.0357 9.85686 15.5323 9.624 15H4.5C3.70435 15 2.94129 14.6839 2.37868 14.1213C1.81607 13.5587 1.5 12.7956 1.5 12C1.5 11.2044 1.81607 10.4413 2.37868 9.87868C2.94129 9.31607 3.70435 9 4.5 9H9.624C9.858 8.4645 10.152 7.962 10.5 7.5Z" fill="black"/>
<path d="M24 12C24 13.9891 23.2098 15.8968 21.8033 17.3033C20.3968 18.7098 18.4891 19.5 16.5 19.5C14.5109 19.5 12.6032 18.7098 11.1967 17.3033C9.79018 15.8968 9 13.9891 9 12C9 10.0109 9.79018 8.10322 11.1967 6.6967C12.6032 5.29018 14.5109 4.5 16.5 4.5C18.4891 4.5 20.3968 5.29018 21.8033 6.6967C23.2098 8.10322 24 10.0109 24 12Z" fill="black"/>
</g>
<defs>
<clipPath id="clip0_2_7383">
<rect width="24" height="24" fill="white"/>
</clipPath>
</defs>
</svg>
