<svg width="24" height="24" viewBox="0 0 24 24" fill="none" xmlns="http://www.w3.org/2000/svg">
<g clip-path="url(#clip0_2_8216)">
<path d="M12.624 0.334407C12.5555 0.231688 12.4627 0.147467 12.3538 0.0892163C12.245 0.0309659 12.1234 0.000488281 12 0.000488281C11.8765 0.000488281 11.755 0.0309659 11.6461 0.0892163C11.5373 0.147467 11.4445 0.231688 11.376 0.334407L6.87598 7.08441C6.80082 7.19735 6.7577 7.32856 6.75122 7.46407C6.74474 7.59958 6.77513 7.73431 6.83916 7.85391C6.9032 7.97351 6.99847 8.0735 7.11484 8.14324C7.23121 8.21297 7.36431 8.24984 7.49998 8.24991H7.64698L4.61398 13.1024C4.54302 13.2159 4.50375 13.3464 4.50023 13.4802C4.49672 13.6141 4.52909 13.7464 4.59399 13.8635C4.65889 13.9806 4.75395 14.0782 4.86931 14.1461C4.98466 14.2141 5.1161 14.2499 5.24998 14.2499H5.53648L3.07948 19.1639C3.02218 19.2782 2.99507 19.4053 3.00074 19.5331C3.0064 19.6609 3.04464 19.7851 3.11183 19.8939C3.17902 20.0027 3.27292 20.0926 3.38462 20.1549C3.49631 20.2172 3.62208 20.2499 3.74998 20.2499H10.5V23.9999H13.5V20.2499H20.25C20.3779 20.2499 20.5036 20.2172 20.6153 20.1549C20.727 20.0926 20.8209 20.0027 20.8881 19.8939C20.9553 19.7851 20.9936 19.6609 20.9992 19.5331C21.0049 19.4053 20.9778 19.2782 20.9205 19.1639L18.465 14.2499H18.7515C18.8854 14.2499 19.0168 14.2141 19.1321 14.1461C19.2475 14.0782 19.3426 13.9806 19.4075 13.8635C19.4724 13.7464 19.5047 13.6141 19.5012 13.4802C19.4977 13.3464 19.4584 13.2159 19.3875 13.1024L16.353 8.24991H16.5C16.6356 8.24984 16.7687 8.21297 16.8851 8.14324C17.0015 8.0735 17.0968 7.97351 17.1608 7.85391C17.2248 7.73431 17.2552 7.59958 17.2487 7.46407C17.2422 7.32856 17.1991 7.19735 17.124 7.08441L12.624 0.334407ZM9.65547 7.13691C9.59069 7.01977 9.49574 6.92212 9.38047 6.85406C9.26521 6.78601 9.13383 6.75005 8.99998 6.74991H8.90098L12 2.10141L15.099 6.74991H15C14.8661 6.74991 14.7347 6.78574 14.6193 6.85369C14.504 6.92164 14.4089 7.01923 14.344 7.13633C14.2791 7.25343 14.2467 7.38576 14.2502 7.51959C14.2537 7.65343 14.293 7.78388 14.364 7.89741L17.397 12.7499H17.25C17.1221 12.7499 16.9963 12.7826 16.8846 12.8449C16.7729 12.9072 16.679 12.9971 16.6118 13.1059C16.5446 13.2147 16.5064 13.3389 16.5007 13.4667C16.4951 13.5945 16.5222 13.7216 16.5795 13.8359L19.035 18.7499H4.96348L7.42048 13.8359C7.47777 13.7216 7.50488 13.5945 7.49921 13.4667C7.49355 13.3389 7.45531 13.2147 7.38812 13.1059C7.32093 12.9971 7.22703 12.9072 7.11533 12.8449C7.00364 12.7826 6.87787 12.7499 6.74997 12.7499H6.60297L9.63597 7.89741C9.70675 7.7839 9.74588 7.65353 9.7493 7.51981C9.75273 7.38609 9.72034 7.25389 9.65547 7.13691Z" fill="black"/>
</g>
<defs>
<clipPath id="clip0_2_8216">
<rect width="24" height="24" fill="white"/>
</clipPath>
</defs>
</svg>
