<svg width="24" height="24" viewBox="0 0 24 24" fill="none" xmlns="http://www.w3.org/2000/svg">
<g clip-path="url(#clip0_2_7378)">
<path d="M12.0975 3.02417C12.0685 3.0083 12.036 3.00004 12.003 3.00017V20.9747L22.287 21.0002C22.3218 21.0014 22.3562 20.9926 22.386 20.9747C22.4202 20.952 22.448 20.921 22.467 20.8847C22.4917 20.843 22.5045 20.7954 22.504 20.747C22.5035 20.6986 22.4896 20.6513 22.464 20.6102L12.18 3.10967C12.1613 3.07431 12.1333 3.04474 12.099 3.02417H12.0975ZM10.533 2.34917C10.6815 2.09052 10.8956 1.87562 11.1537 1.72618C11.4118 1.57674 11.7048 1.49805 12.003 1.49805C12.3012 1.49805 12.5942 1.57674 12.8523 1.72618C13.1104 1.87562 13.3245 2.09052 13.473 2.34917L23.757 19.8497C24.444 21.0167 23.6205 22.5002 22.287 22.5002H1.71901C0.385506 22.5002 -0.436494 21.0152 0.249006 19.8497L10.533 2.34917Z" fill="black"/>
</g>
<defs>
<clipPath id="clip0_2_7378">
<rect width="24" height="24" fill="white"/>
</clipPath>
</defs>
</svg>
