<svg width="24" height="24" viewBox="0 0 24 24" fill="none" xmlns="http://www.w3.org/2000/svg">
<path d="M7.539 22.5001C16.596 22.5001 21.5505 14.9956 21.5505 8.49906C21.5505 8.28906 21.5505 8.07606 21.5415 7.86606C22.5061 7.16779 23.3386 6.30329 24 5.31306C23.099 5.71034 22.1441 5.97217 21.1665 6.09006C22.1963 5.47452 22.9676 4.50602 23.337 3.36456C22.3695 3.93775 21.3105 4.34012 20.2065 4.55406C19.4643 3.7636 18.4821 3.23994 17.4121 3.0642C16.3421 2.88846 15.2441 3.07045 14.288 3.58197C13.3319 4.09349 12.5712 4.90601 12.1237 5.89365C11.6761 6.8813 11.5668 7.98896 11.8125 9.04506C9.85461 8.94689 7.93922 8.43826 6.19056 7.55218C4.4419 6.66609 2.89903 5.42233 1.662 3.90156C1.03401 4.98619 0.842361 6.26916 1.12597 7.48996C1.40958 8.71076 2.14718 9.77786 3.189 10.4746C2.40831 10.448 1.64478 10.2384 0.96 9.86256V9.93006C0.961346 11.0663 1.35496 12.1672 2.07431 13.0467C2.79366 13.9262 3.79462 14.5304 4.908 14.7571C4.48539 14.8735 4.04884 14.9315 3.6105 14.9296C3.30148 14.9305 2.99307 14.9019 2.6895 14.8441C3.00418 15.8221 3.61691 16.6773 4.44187 17.2898C5.26683 17.9022 6.2627 18.2413 7.29 18.2596C5.54483 19.6303 3.3891 20.3737 1.17 20.3701C0.778981 20.3717 0.388235 20.3492 0 20.3026C2.25227 21.7385 4.86795 22.5009 7.539 22.5001Z" fill="black"/>
</svg>
