<svg width="24" height="24" viewBox="0 0 24 24" fill="none" xmlns="http://www.w3.org/2000/svg">
<path d="M11.4555 19.5V5.50354H9.5685V11.43H2.637V5.50504H0.75V19.5H2.637V13.092H9.567V19.5H11.4555ZM16.893 13.092H18.42C20.133 13.092 21.3225 14.097 21.3435 15.603C21.363 17.1105 20.1735 18.2085 18.3285 18.198C16.7085 18.1875 15.549 17.316 15.426 16.218H13.662C13.7655 18.2085 15.498 19.797 18.2865 19.797C21.189 19.797 23.301 18.0645 23.25 15.6135C23.2095 13.3485 21.3735 12.3735 20.1945 12.24V12.138C21.2505 11.9535 22.8405 10.773 22.779 8.79454C22.7265 6.76504 21.015 5.19454 18.348 5.21704C15.5385 5.22604 14.0625 6.96004 14.001 8.75404H15.795C15.888 7.71904 16.8615 6.80554 18.339 6.80554C19.836 6.80554 20.8815 7.73854 20.8815 9.09304C20.892 10.476 19.8045 11.481 18.339 11.481H16.893V13.092Z" fill="black"/>
</svg>
