<svg width="24" height="24" viewBox="0 0 24 24" fill="none" xmlns="http://www.w3.org/2000/svg">
<g clip-path="url(#clip0_2_7363)">
<path d="M10.5 3.75C10.5 3.55109 10.579 3.36032 10.7197 3.21967C10.8603 3.07902 11.0511 3 11.25 3H21.75C21.9489 3 22.1397 3.07902 22.2803 3.21967C22.421 3.36032 22.5 3.55109 22.5 3.75V5.25C22.5 5.44891 22.421 5.63968 22.2803 5.78033C22.1397 5.92098 21.9489 6 21.75 6H11.25C11.0511 6 10.8603 5.92098 10.7197 5.78033C10.579 5.63968 10.5 5.44891 10.5 5.25V3.75ZM3 1.5C2.20435 1.5 1.44129 1.81607 0.87868 2.37868C0.316071 2.94129 0 3.70435 0 4.5L0 7.5C0 8.29565 0.316071 9.05871 0.87868 9.62132C1.44129 10.1839 2.20435 10.5 3 10.5H6C6.79565 10.5 7.55871 10.1839 8.12132 9.62132C8.68393 9.05871 9 8.29565 9 7.5V4.5C9 3.70435 8.68393 2.94129 8.12132 2.37868C7.55871 1.81607 6.79565 1.5 6 1.5H3ZM3 13.5C2.20435 13.5 1.44129 13.8161 0.87868 14.3787C0.316071 14.9413 0 15.7044 0 16.5L0 19.5C0 20.2956 0.316071 21.0587 0.87868 21.6213C1.44129 22.1839 2.20435 22.5 3 22.5H6C6.79565 22.5 7.55871 22.1839 8.12132 21.6213C8.68393 21.0587 9 20.2956 9 19.5V16.5C9 15.7044 8.68393 14.9413 8.12132 14.3787C7.55871 13.8161 6.79565 13.5 6 13.5H3ZM4.281 8.031C4.21133 8.10084 4.12857 8.15626 4.03745 8.19407C3.94633 8.23188 3.84865 8.25134 3.75 8.25134C3.65135 8.25134 3.55367 8.23188 3.46255 8.19407C3.37143 8.15626 3.28867 8.10084 3.219 8.031L1.719 6.531C1.64927 6.46127 1.59395 6.37848 1.55622 6.28738C1.51848 6.19627 1.49905 6.09862 1.49905 6C1.49905 5.90138 1.51848 5.80373 1.55622 5.71263C1.59395 5.62152 1.64927 5.53873 1.719 5.469C1.78873 5.39927 1.87152 5.34395 1.96262 5.30622C2.05373 5.26848 2.15138 5.24905 2.25 5.24905C2.34862 5.24905 2.44627 5.26848 2.53737 5.30622C2.62848 5.34395 2.71127 5.39927 2.781 5.469L3.75 6.4395L6.219 3.969C6.28873 3.89927 6.37152 3.84395 6.46262 3.80622C6.55373 3.76848 6.65138 3.74905 6.75 3.74905C6.84862 3.74905 6.94627 3.76848 7.03738 3.80622C7.12848 3.84395 7.21127 3.89927 7.281 3.969C7.35073 4.03873 7.40605 4.12152 7.44379 4.21263C7.48152 4.30373 7.50095 4.40138 7.50095 4.5C7.50095 4.59862 7.48152 4.69627 7.44379 4.78737C7.40605 4.87848 7.35073 4.96127 7.281 5.031L4.281 8.031ZM4.281 20.031C4.21133 20.1008 4.12857 20.1563 4.03745 20.1941C3.94633 20.2319 3.84865 20.2513 3.75 20.2513C3.65135 20.2513 3.55367 20.2319 3.46255 20.1941C3.37143 20.1563 3.28867 20.1008 3.219 20.031L1.719 18.531C1.57817 18.3902 1.49905 18.1992 1.49905 18C1.49905 17.8008 1.57817 17.6098 1.719 17.469C1.85983 17.3282 2.05084 17.2491 2.25 17.2491C2.44916 17.2491 2.64017 17.3282 2.781 17.469L3.75 18.4395L6.219 15.969C6.35983 15.8282 6.55084 15.7491 6.75 15.7491C6.94916 15.7491 7.14017 15.8282 7.281 15.969C7.42183 16.1098 7.50095 16.3008 7.50095 16.5C7.50095 16.6992 7.42183 16.8902 7.281 17.031L4.281 20.031ZM10.5 15.75C10.5 15.5511 10.579 15.3603 10.7197 15.2197C10.8603 15.079 11.0511 15 11.25 15H21.75C21.9489 15 22.1397 15.079 22.2803 15.2197C22.421 15.3603 22.5 15.5511 22.5 15.75V17.25C22.5 17.4489 22.421 17.6397 22.2803 17.7803C22.1397 17.921 21.9489 18 21.75 18H11.25C11.0511 18 10.8603 17.921 10.7197 17.7803C10.579 17.6397 10.5 17.4489 10.5 17.25V15.75ZM10.5 8.25C10.5 8.05109 10.579 7.86032 10.7197 7.71967C10.8603 7.57902 11.0511 7.5 11.25 7.5H18.75C18.9489 7.5 19.1397 7.57902 19.2803 7.71967C19.421 7.86032 19.5 8.05109 19.5 8.25C19.5 8.44891 19.421 8.63968 19.2803 8.78033C19.1397 8.92098 18.9489 9 18.75 9H11.25C11.0511 9 10.8603 8.92098 10.7197 8.78033C10.579 8.63968 10.5 8.44891 10.5 8.25ZM10.5 20.25C10.5 20.0511 10.579 19.8603 10.7197 19.7197C10.8603 19.579 11.0511 19.5 11.25 19.5H18.75C18.9489 19.5 19.1397 19.579 19.2803 19.7197C19.421 19.8603 19.5 20.0511 19.5 20.25C19.5 20.4489 19.421 20.6397 19.2803 20.7803C19.1397 20.921 18.9489 21 18.75 21H11.25C11.0511 21 10.8603 20.921 10.7197 20.7803C10.579 20.6397 10.5 20.4489 10.5 20.25Z" fill="black"/>
</g>
<defs>
<clipPath id="clip0_2_7363">
<rect width="24" height="24" fill="white"/>
</clipPath>
</defs>
</svg>
