<svg width="24" height="24" viewBox="0 0 24 24" fill="none" xmlns="http://www.w3.org/2000/svg">
<g clip-path="url(#clip0_2_8198)">
<path d="M5.25 22.5C6.24456 22.5 7.19839 22.1049 7.90165 21.4016C8.60491 20.6984 9 19.7446 9 18.75C9 17.7554 8.60491 16.8016 7.90165 16.0984C7.19839 15.3951 6.24456 15 5.25 15C4.25544 15 3.30161 15.3951 2.59835 16.0984C1.89509 16.8016 1.5 17.7554 1.5 18.75C1.5 19.7446 1.89509 20.6984 2.59835 21.4016C3.30161 22.1049 4.25544 22.5 5.25 22.5ZM18.75 9C19.7446 9 20.6984 8.60491 21.4016 7.90165C22.1049 7.19839 22.5 6.24456 22.5 5.25C22.5 4.25544 22.1049 3.30161 21.4016 2.59835C20.6984 1.89509 19.7446 1.5 18.75 1.5C17.7554 1.5 16.8016 1.89509 16.0984 2.59835C15.3951 3.30161 15 4.25544 15 5.25C15 6.24456 15.3951 7.19839 16.0984 7.90165C16.8016 8.60491 17.7554 9 18.75 9ZM18.75 22.5C17.7554 22.5 16.8016 22.1049 16.0984 21.4016C15.3951 20.6984 15 19.7446 15 18.75C15 17.7554 15.3951 16.8016 16.0984 16.0984C16.8016 15.3951 17.7554 15 18.75 15C19.7446 15 20.6984 15.3951 21.4016 16.0984C22.1049 16.8016 22.5 17.7554 22.5 18.75C22.5 19.7446 22.1049 20.6984 21.4016 21.4016C20.6984 22.1049 19.7446 22.5 18.75 22.5ZM24 5.25C24 6.64239 23.4469 7.97774 22.4623 8.96231C21.4777 9.94688 20.1424 10.5 18.75 10.5C17.3576 10.5 16.0223 9.94688 15.0377 8.96231C14.0531 7.97774 13.5 6.64239 13.5 5.25C13.5 3.85761 14.0531 2.52226 15.0377 1.53769C16.0223 0.553123 17.3576 0 18.75 0C20.1424 0 21.4777 0.553123 22.4623 1.53769C23.4469 2.52226 24 3.85761 24 5.25ZM10.5 18.75C10.5 20.1424 9.94688 21.4777 8.96231 22.4623C7.97774 23.4469 6.64239 24 5.25 24C3.85761 24 2.52226 23.4469 1.53769 22.4623C0.553123 21.4777 0 20.1424 0 18.75C0 17.3576 0.553123 16.0223 1.53769 15.0377C2.52226 14.0531 3.85761 13.5 5.25 13.5C6.64239 13.5 7.97774 14.0531 8.96231 15.0377C9.94688 16.0223 10.5 17.3576 10.5 18.75ZM18.75 24C20.1424 24 21.4777 23.4469 22.4623 22.4623C23.4469 21.4777 24 20.1424 24 18.75C24 17.3576 23.4469 16.0223 22.4623 15.0377C21.4777 14.0531 20.1424 13.5 18.75 13.5C17.3576 13.5 16.0223 14.0531 15.0377 15.0377C14.0531 16.0223 13.5 17.3576 13.5 18.75C13.5 20.1424 14.0531 21.4777 15.0377 22.4623C16.0223 23.4469 17.3576 24 18.75 24ZM5.25 7.5C4.95453 7.5 4.66194 7.4418 4.38896 7.32873C4.11598 7.21566 3.86794 7.04992 3.65901 6.84099C3.45008 6.63206 3.28434 6.38402 3.17127 6.11104C3.0582 5.83806 3 5.54547 3 5.25C3 4.95453 3.0582 4.66194 3.17127 4.38896C3.28434 4.11598 3.45008 3.86794 3.65901 3.65901C3.86794 3.45008 4.11598 3.28434 4.38896 3.17127C4.66194 3.0582 4.95453 3 5.25 3C5.84674 3 6.41903 3.23705 6.84099 3.65901C7.26295 4.08097 7.5 4.65326 7.5 5.25C7.5 5.84674 7.26295 6.41903 6.84099 6.84099C6.41903 7.26295 5.84674 7.5 5.25 7.5ZM5.25 10.5C6.64239 10.5 7.97774 9.94688 8.96231 8.96231C9.94688 7.97774 10.5 6.64239 10.5 5.25C10.5 3.85761 9.94688 2.52226 8.96231 1.53769C7.97774 0.553123 6.64239 0 5.25 0C3.85761 0 2.52226 0.553123 1.53769 1.53769C0.553123 2.52226 0 3.85761 0 5.25C0 6.64239 0.553123 7.97774 1.53769 8.96231C2.52226 9.94688 3.85761 10.5 5.25 10.5Z" fill="black"/>
</g>
<defs>
<clipPath id="clip0_2_8198">
<rect width="24" height="24" fill="white"/>
</clipPath>
</defs>
</svg>
