<svg width="24" height="24" viewBox="0 0 24 24" fill="none" xmlns="http://www.w3.org/2000/svg">
<g clip-path="url(#clip0_2_8200)">
<path d="M10.5 3.75C10.5 3.55109 10.579 3.36032 10.7197 3.21967C10.8603 3.07902 11.0511 3 11.25 3H21.75C21.9489 3 22.1397 3.07902 22.2803 3.21967C22.421 3.36032 22.5 3.55109 22.5 3.75V5.25C22.5 5.44891 22.421 5.63968 22.2803 5.78033C22.1397 5.92098 21.9489 6 21.75 6H11.25C11.0511 6 10.8603 5.92098 10.7197 5.78033C10.579 5.63968 10.5 5.44891 10.5 5.25V3.75ZM6.70552e-08 18C6.70552e-08 16.8065 0.474106 15.6619 1.31802 14.818C2.16193 13.9741 3.30653 13.5 4.5 13.5C5.69347 13.5 6.83807 13.9741 7.68198 14.818C8.52589 15.6619 9 16.8065 9 18C9 19.1935 8.52589 20.3381 7.68198 21.182C6.83807 22.0259 5.69347 22.5 4.5 22.5C3.30653 22.5 2.16193 22.0259 1.31802 21.182C0.474106 20.3381 6.70552e-08 19.1935 6.70552e-08 18ZM10.5 15.75C10.5 15.5511 10.579 15.3603 10.7197 15.2197C10.8603 15.079 11.0511 15 11.25 15H21.75C21.9489 15 22.1397 15.079 22.2803 15.2197C22.421 15.3603 22.5 15.5511 22.5 15.75V17.25C22.5 17.4489 22.421 17.6397 22.2803 17.7803C22.1397 17.921 21.9489 18 21.75 18H11.25C11.0511 18 10.8603 17.921 10.7197 17.7803C10.579 17.6397 10.5 17.4489 10.5 17.25V15.75ZM10.5 8.25C10.5 8.05109 10.579 7.86032 10.7197 7.71967C10.8603 7.57902 11.0511 7.5 11.25 7.5H18.75C18.9489 7.5 19.1397 7.57902 19.2803 7.71967C19.421 7.86032 19.5 8.05109 19.5 8.25C19.5 8.44891 19.421 8.63968 19.2803 8.78033C19.1397 8.92098 18.9489 9 18.75 9H11.25C11.0511 9 10.8603 8.92098 10.7197 8.78033C10.579 8.63968 10.5 8.44891 10.5 8.25ZM10.5 20.25C10.5 20.0511 10.579 19.8603 10.7197 19.7197C10.8603 19.579 11.0511 19.5 11.25 19.5H18.75C18.9489 19.5 19.1397 19.579 19.2803 19.7197C19.421 19.8603 19.5 20.0511 19.5 20.25C19.5 20.4489 19.421 20.6397 19.2803 20.7803C19.1397 20.921 18.9489 21 18.75 21H11.25C11.0511 21 10.8603 20.921 10.7197 20.7803C10.579 20.6397 10.5 20.4489 10.5 20.25ZM4.5 1.5C3.90905 1.5 3.32389 1.6164 2.77792 1.84254C2.23196 2.06869 1.73588 2.40016 1.31802 2.81802C0.900156 3.23588 0.568688 3.73196 0.342542 4.27792C0.116396 4.82389 0 5.40905 0 6C0 6.59095 0.116396 7.17611 0.342542 7.72208C0.568688 8.26804 0.900156 8.76412 1.31802 9.18198C1.73588 9.59984 2.23196 9.93131 2.77792 10.1575C3.32389 10.3836 3.90905 10.5 4.5 10.5C5.69347 10.5 6.83807 10.0259 7.68198 9.18198C8.52589 8.33807 9 7.19347 9 6C9 4.80653 8.52589 3.66193 7.68198 2.81802C6.83807 1.97411 5.69347 1.5 4.5 1.5ZM4.5 8.25C3.90326 8.25 3.33097 8.01295 2.90901 7.59099C2.48705 7.16903 2.25 6.59674 2.25 6C2.25 5.40326 2.48705 4.83097 2.90901 4.40901C3.33097 3.98705 3.90326 3.75 4.5 3.75C5.09674 3.75 5.66903 3.98705 6.09099 4.40901C6.51295 4.83097 6.75 5.40326 6.75 6C6.75 6.59674 6.51295 7.16903 6.09099 7.59099C5.66903 8.01295 5.09674 8.25 4.5 8.25Z" fill="black"/>
</g>
<defs>
<clipPath id="clip0_2_8200">
<rect width="24" height="24" fill="white"/>
</clipPath>
</defs>
</svg>
