<svg width="24" height="24" viewBox="0 0 24 24" fill="none" xmlns="http://www.w3.org/2000/svg">
<path d="M4.5 6.75C4.5 6.55109 4.57902 6.36032 4.71967 6.21967C4.86032 6.07902 5.05109 6 5.25 6C5.44891 6 5.63968 6.07902 5.78033 6.21967C5.92098 6.36032 6 6.55109 6 6.75V17.25C6 17.4489 5.92098 17.6397 5.78033 17.7803C5.63968 17.921 5.44891 18 5.25 18C5.05109 18 4.86032 17.921 4.71967 17.7803C4.57902 17.6397 4.5 17.4489 4.5 17.25V6.75ZM7.5 6.75C7.5 6.55109 7.57902 6.36032 7.71967 6.21967C7.86032 6.07902 8.05109 6 8.25 6C8.44891 6 8.63968 6.07902 8.78033 6.21967C8.92098 6.36032 9 6.55109 9 6.75V17.25C9 17.4489 8.92098 17.6397 8.78033 17.7803C8.63968 17.921 8.44891 18 8.25 18C8.05109 18 7.86032 17.921 7.71967 17.7803C7.57902 17.6397 7.5 17.4489 7.5 17.25V6.75ZM10.5 6.75C10.5 6.55109 10.579 6.36032 10.7197 6.21967C10.8603 6.07902 11.0511 6 11.25 6C11.4489 6 11.6397 6.07902 11.7803 6.21967C11.921 6.36032 12 6.55109 12 6.75V17.25C12 17.4489 11.921 17.6397 11.7803 17.7803C11.6397 17.921 11.4489 18 11.25 18C11.0511 18 10.8603 17.921 10.7197 17.7803C10.579 17.6397 10.5 17.4489 10.5 17.25V6.75ZM13.5 6.75C13.5 6.55109 13.579 6.36032 13.7197 6.21967C13.8603 6.07902 14.0511 6 14.25 6H15.75C15.9489 6 16.1397 6.07902 16.2803 6.21967C16.421 6.36032 16.5 6.55109 16.5 6.75V17.25C16.5 17.4489 16.421 17.6397 16.2803 17.7803C16.1397 17.921 15.9489 18 15.75 18H14.25C14.0511 18 13.8603 17.921 13.7197 17.7803C13.579 17.6397 13.5 17.4489 13.5 17.25V6.75ZM18 6.75C18 6.55109 18.079 6.36032 18.2197 6.21967C18.3603 6.07902 18.5511 6 18.75 6C18.9489 6 19.1397 6.07902 19.2803 6.21967C19.421 6.36032 19.5 6.55109 19.5 6.75V17.25C19.5 17.4489 19.421 17.6397 19.2803 17.7803C19.1397 17.921 18.9489 18 18.75 18C18.5511 18 18.3603 17.921 18.2197 17.7803C18.079 17.6397 18 17.4489 18 17.25V6.75Z" fill="black"/>
</svg>
