<svg width="24" height="24" viewBox="0 0 24 24" fill="none" xmlns="http://www.w3.org/2000/svg">
<g clip-path="url(#clip0_2_7353)">
<path fill-rule="evenodd" clip-rule="evenodd" d="M4.0605 6C3.66271 6.00008 3.28124 6.15818 3 6.4395L0.4395 9C0.158176 9.28124 8.49561e-05 9.66271 0 10.0605L0 16.5C0 16.8978 0.158035 17.2794 0.43934 17.5607C0.720644 17.842 1.10218 18 1.5 18H22.5C22.8978 18 23.2794 17.842 23.5607 17.5607C23.842 17.2794 24 16.8978 24 16.5V10.0605C23.9999 9.66271 23.8418 9.28124 23.5605 9L21 6.4395C20.7188 6.15818 20.3373 6.00008 19.9395 6H4.0605ZM6.75 10.5C6.55109 10.5 6.36032 10.579 6.21967 10.7197C6.07902 10.8603 6 11.0511 6 11.25V12.75C6 12.9489 6.07902 13.1397 6.21967 13.2803C6.36032 13.421 6.55109 13.5 6.75 13.5H17.25C17.4489 13.5 17.6397 13.421 17.7803 13.2803C17.921 13.1397 18 12.9489 18 12.75V11.25C18 11.0511 17.921 10.8603 17.7803 10.7197C17.6397 10.579 17.4489 10.5 17.25 10.5H6.75Z" fill="black"/>
</g>
<defs>
<clipPath id="clip0_2_7353">
<rect width="24" height="24" fill="white"/>
</clipPath>
</defs>
</svg>
