<svg width="24" height="24" viewBox="0 0 24 24" fill="none" xmlns="http://www.w3.org/2000/svg">
<g clip-path="url(#clip0_2_7354)">
<path fill-rule="evenodd" clip-rule="evenodd" d="M0.75 7.5C0.551088 7.5 0.360322 7.57902 0.21967 7.71967C0.0790176 7.86032 0 8.05109 0 8.25L0 15.75C0 15.9489 0.0790176 16.1397 0.21967 16.2803C0.360322 16.421 0.551088 16.5 0.75 16.5H23.25C23.4489 16.5 23.6397 16.421 23.7803 16.2803C23.921 16.1397 24 15.9489 24 15.75V8.25C24 8.05109 23.921 7.86032 23.7803 7.71967C23.6397 7.57902 23.4489 7.5 23.25 7.5H0.75ZM3.375 9.75C3.27554 9.75 3.18016 9.78951 3.10984 9.85983C3.03951 9.93016 3 10.0255 3 10.125V11.625C3 11.832 3.168 12 3.375 12H20.625C20.7245 12 20.8198 11.9605 20.8902 11.8902C20.9605 11.8198 21 11.7245 21 11.625V10.125C21 10.0255 20.9605 9.93016 20.8902 9.85983C20.8198 9.78951 20.7245 9.75 20.625 9.75H3.375Z" fill="black"/>
</g>
<defs>
<clipPath id="clip0_2_7354">
<rect width="24" height="24" fill="white"/>
</clipPath>
</defs>
</svg>
