<svg width="24" height="24" viewBox="0 0 24 24" fill="none" xmlns="http://www.w3.org/2000/svg">
<path fill-rule="evenodd" clip-rule="evenodd" d="M15.969 0.968876C16.0387 0.899031 16.1214 0.843617 16.2125 0.805807C16.3036 0.767997 16.4013 0.748535 16.5 0.748535C16.5986 0.748535 16.6963 0.767997 16.7874 0.805807C16.8785 0.843617 16.9613 0.899031 17.031 0.968876L23.031 6.96888C23.1008 7.03854 23.1562 7.12131 23.194 7.21243C23.2319 7.30354 23.2513 7.40122 23.2513 7.49988C23.2513 7.59853 23.2319 7.69621 23.194 7.78733C23.1562 7.87844 23.1008 7.96121 23.031 8.03088L20.178 10.8839L18.9345 15.8534C18.8399 16.2318 18.6486 16.5791 18.3793 16.8613C18.1101 17.1434 17.7721 17.3507 17.3985 17.4629L1.88098 22.1189L6.53698 6.59988C6.64921 6.22677 6.8564 5.88919 7.13827 5.62021C7.42014 5.35122 7.76703 5.16004 8.14498 5.06538L13.1145 3.82338L15.969 0.968876ZM13.269 5.33088L8.50948 6.52038C8.38314 6.55191 8.26719 6.61579 8.17303 6.70574C8.07887 6.79569 8.00975 6.90861 7.97248 7.03338L4.11748 19.8809L16.968 16.0259C17.092 15.9883 17.2042 15.9192 17.2936 15.8254C17.3829 15.7315 17.4465 15.6161 17.478 15.4904L18.669 10.7294L13.269 5.32938V5.33088Z" fill="black"/>
<path fill-rule="evenodd" clip-rule="evenodd" d="M4.24802 19.842L12 13.5C12.2967 13.5 12.5867 13.412 12.8334 13.2472C13.08 13.0824 13.2723 12.8481 13.3858 12.574C13.4994 12.2999 13.5291 11.9983 13.4712 11.7074C13.4133 11.4164 13.2705 11.1491 13.0607 10.9393C12.8509 10.7296 12.5836 10.5867 12.2927 10.5288C12.0017 10.4709 11.7001 10.5006 11.426 10.6142C11.1519 10.7277 10.9176 10.92 10.7528 11.1666C10.588 11.4133 10.5 11.7033 10.5 12L4.15802 19.752L4.11902 19.881L4.24802 19.842Z" fill="black"/>
</svg>
