<svg width="24" height="24" viewBox="0 0 24 24" fill="none" xmlns="http://www.w3.org/2000/svg">
<path d="M4.5 0H19.5C20.2956 0 21.0587 0.316071 21.6213 0.87868C22.1839 1.44129 22.5 2.20435 22.5 3V7.5C22.5 8.29565 22.1839 9.05871 21.6213 9.62132C21.0587 10.1839 20.2956 10.5 19.5 10.5H4.5C3.70435 10.5 2.94129 10.1839 2.37868 9.62132C1.81607 9.05871 1.5 8.29565 1.5 7.5V3C1.5 2.20435 1.81607 1.44129 2.37868 0.87868C2.94129 0.316071 3.70435 0 4.5 0V0ZM4.5 1.5C4.10218 1.5 3.72064 1.65804 3.43934 1.93934C3.15804 2.22064 3 2.60218 3 3V7.5C3 7.89782 3.15804 8.27936 3.43934 8.56066C3.72064 8.84196 4.10218 9 4.5 9H19.5C19.8978 9 20.2794 8.84196 20.5607 8.56066C20.842 8.27936 21 7.89782 21 7.5V3C21 2.60218 20.842 2.22064 20.5607 1.93934C20.2794 1.65804 19.8978 1.5 19.5 1.5H4.5ZM4.5 13.5H19.5C20.2956 13.5 21.0587 13.8161 21.6213 14.3787C22.1839 14.9413 22.5 15.7044 22.5 16.5V21C22.5 21.7956 22.1839 22.5587 21.6213 23.1213C21.0587 23.6839 20.2956 24 19.5 24H4.5C3.70435 24 2.94129 23.6839 2.37868 23.1213C1.81607 22.5587 1.5 21.7956 1.5 21V16.5C1.5 15.7044 1.81607 14.9413 2.37868 14.3787C2.94129 13.8161 3.70435 13.5 4.5 13.5ZM4.5 15C4.10218 15 3.72064 15.158 3.43934 15.4393C3.15804 15.7206 3 16.1022 3 16.5V21C3 21.3978 3.15804 21.7794 3.43934 22.0607C3.72064 22.342 4.10218 22.5 4.5 22.5H19.5C19.8978 22.5 20.2794 22.342 20.5607 22.0607C20.842 21.7794 21 21.3978 21 21V16.5C21 16.1022 20.842 15.7206 20.5607 15.4393C20.2794 15.158 19.8978 15 19.5 15H4.5Z" fill="black"/>
</svg>
