<svg width="24" height="24" viewBox="0 0 24 24" fill="none" xmlns="http://www.w3.org/2000/svg">
<g clip-path="url(#clip0_2_8092)">
<path d="M10.5 12.75C10.5009 13.4485 10.3621 14.1402 10.0916 14.7842C9.82109 15.4282 9.42444 16.0116 8.925 16.5H15.075C14.2058 15.6484 13.6594 14.5212 13.5293 13.3113C13.3992 12.1014 13.6935 10.8839 14.3617 9.86691C15.03 8.84994 16.0308 8.0967 17.193 7.73597C18.3551 7.37525 19.6066 7.42945 20.7332 7.8893C21.8598 8.34916 22.7918 9.18611 23.3696 10.257C23.9474 11.328 24.1353 12.5664 23.9011 13.7605C23.6668 14.9547 23.0251 16.0303 22.0855 16.8036C21.1459 17.5769 19.9669 17.9998 18.75 18H5.25C4.21165 18 3.19662 17.6921 2.33326 17.1152C1.4699 16.5383 0.796995 15.7184 0.399635 14.7591C0.00227478 13.7998 -0.101693 12.7442 0.10088 11.7258C0.303452 10.7074 0.803466 9.77192 1.53769 9.03769C2.27192 8.30347 3.20738 7.80345 4.22578 7.60088C5.24418 7.39831 6.29978 7.50227 7.25909 7.89963C8.2184 8.29699 9.03834 8.9699 9.61522 9.83326C10.1921 10.6966 10.5 11.7117 10.5 12.75ZM1.5 12.75C1.5 13.7446 1.89509 14.6984 2.59835 15.4017C3.30161 16.1049 4.25544 16.5 5.25 16.5C6.24456 16.5 7.19839 16.1049 7.90165 15.4017C8.60491 14.6984 9 13.7446 9 12.75C9 11.7554 8.60491 10.8016 7.90165 10.0984C7.19839 9.39509 6.24456 9 5.25 9C4.25544 9 3.30161 9.39509 2.59835 10.0984C1.89509 10.8016 1.5 11.7554 1.5 12.75ZM22.5 12.75C22.5 11.7554 22.1049 10.8016 21.4017 10.0984C20.6984 9.39509 19.7446 9 18.75 9C17.7554 9 16.8016 9.39509 16.0984 10.0984C15.3951 10.8016 15 11.7554 15 12.75C15 13.7446 15.3951 14.6984 16.0984 15.4017C16.8016 16.1049 17.7554 16.5 18.75 16.5C19.7446 16.5 20.6984 16.1049 21.4017 15.4017C22.1049 14.6984 22.5 13.7446 22.5 12.75Z" fill="black"/>
</g>
<defs>
<clipPath id="clip0_2_8092">
<rect width="24" height="24" fill="white"/>
</clipPath>
</defs>
</svg>
