<svg width="24" height="24" viewBox="0 0 24 24" fill="none" xmlns="http://www.w3.org/2000/svg">
<path d="M10.0755 5.32515C10.2026 5.38636 10.3098 5.48216 10.3849 5.60156C10.46 5.72096 10.4999 5.8591 10.5 6.00015V18.0001C10.4998 18.1413 10.4598 18.2795 10.3846 18.3989C10.3093 18.5183 10.2019 18.614 10.0747 18.6751C9.9475 18.7362 9.80562 18.7602 9.6654 18.7443C9.52517 18.7284 9.39228 18.6732 9.282 18.5851L5.7375 15.7501H2.25C2.05109 15.7501 1.86032 15.6711 1.71967 15.5305C1.57902 15.3898 1.5 15.1991 1.5 15.0001V9.00015C1.5 8.80124 1.57902 8.61047 1.71967 8.46982C1.86032 8.32917 2.05109 8.25015 2.25 8.25015H5.7375L9.282 5.41515C9.39236 5.32693 9.52539 5.27168 9.66578 5.25576C9.80616 5.23983 9.94819 5.26389 10.0755 5.32515ZM9 7.56015L6.468 9.58515C6.33524 9.69166 6.1702 9.74985 6 9.75015H3V14.2501H6C6.1702 14.2505 6.33524 14.3086 6.468 14.4151L9 16.4401V7.56015ZM20.781 8.46915C20.8508 8.53882 20.9063 8.62158 20.9441 8.7127C20.9819 8.80382 21.0013 8.9015 21.0013 9.00015C21.0013 9.0988 20.9819 9.19648 20.9441 9.2876C20.9063 9.37872 20.8508 9.46148 20.781 9.53115L18.3105 12.0001L20.781 14.4691C20.9218 14.61 21.0009 14.801 21.0009 15.0001C21.0009 15.1993 20.9218 15.3903 20.781 15.5311C20.6402 15.672 20.4492 15.7511 20.25 15.7511C20.0508 15.7511 19.8598 15.672 19.719 15.5311L17.25 13.0606L14.781 15.5311C14.6402 15.672 14.4492 15.7511 14.25 15.7511C14.0508 15.7511 13.8598 15.672 13.719 15.5311C13.5782 15.3903 13.4991 15.1993 13.4991 15.0001C13.4991 14.801 13.5782 14.61 13.719 14.4691L16.1895 12.0001L13.719 9.53115C13.6493 9.46142 13.594 9.37863 13.5562 9.28752C13.5185 9.19641 13.4991 9.09876 13.4991 9.00015C13.4991 8.90153 13.5185 8.80388 13.5562 8.71277C13.594 8.62166 13.6493 8.53888 13.719 8.46915C13.8598 8.32832 14.0508 8.2492 14.25 8.2492C14.3486 8.2492 14.4463 8.26862 14.5374 8.30636C14.6285 8.3441 14.7113 8.39942 14.781 8.46915L17.25 10.9396L19.719 8.46915C19.7887 8.3993 19.8714 8.34389 19.9626 8.30608C20.0537 8.26827 20.1513 8.24881 20.25 8.24881C20.3487 8.24881 20.4463 8.26827 20.5374 8.30608C20.6286 8.34389 20.7113 8.3993 20.781 8.46915Z" fill="black"/>
</svg>
