<svg width="24" height="24" viewBox="0 0 24 24" fill="none" xmlns="http://www.w3.org/2000/svg">
<path d="M17.304 21.0149C18.4898 19.8324 19.4302 18.4272 20.0712 16.8801C20.7121 15.333 21.0411 13.6745 21.039 11.9999C21.0411 10.3252 20.7121 8.66672 20.0712 7.11963C19.4302 5.57253 18.4898 4.16736 17.304 2.98486L16.242 4.04536C17.2883 5.08875 18.118 6.32862 18.6836 7.69373C19.2492 9.05883 19.5393 10.5222 19.5375 11.9999C19.5375 15.1064 18.2775 17.9189 16.242 19.9544L17.304 21.0149Z" fill="black"/>
<path d="M15.1815 18.894C16.0882 17.9896 16.8073 16.915 17.2974 15.7319C17.7875 14.5488 18.039 13.2806 18.0375 12C18.039 10.7194 17.7875 9.45106 17.2974 8.26797C16.8073 7.08487 16.0882 6.01028 15.1815 5.10596L14.121 6.16646C14.8882 6.93168 15.4966 7.84096 15.9113 8.84207C16.326 9.84317 16.5388 10.9164 16.5375 12C16.5392 13.0837 16.3268 14.1571 15.9123 15.1585C15.4979 16.1598 14.8896 17.0694 14.1225 17.835L15.1815 18.894Z" fill="black"/>
<path d="M13.0605 16.7731C13.6882 16.147 14.186 15.403 14.5253 14.5839C14.8646 13.7648 15.0387 12.8867 15.0375 12.0001C15.0387 11.1136 14.8646 10.2355 14.5253 9.41636C14.186 8.59725 13.6882 7.85326 13.0605 7.22715L12 8.28765C12.4882 8.77465 12.8754 9.35334 13.1393 9.99046C13.4031 10.6276 13.5385 11.3106 13.5375 12.0001C13.5384 12.6897 13.403 13.3727 13.1391 14.0098C12.8753 14.6469 12.4882 15.2256 12 15.7126L13.0605 16.7731ZM10.0755 5.32515C10.2026 5.38636 10.3098 5.48216 10.3849 5.60156C10.46 5.72096 10.4999 5.8591 10.5 6.00015V18.0001C10.4998 18.1413 10.4598 18.2795 10.3846 18.3989C10.3093 18.5183 10.2019 18.614 10.0747 18.6751C9.9475 18.7362 9.80562 18.7602 9.6654 18.7443C9.52517 18.7284 9.39228 18.6732 9.282 18.5851L5.7375 15.7501H2.25C2.05109 15.7501 1.86032 15.6711 1.71967 15.5305C1.57902 15.3898 1.5 15.1991 1.5 15.0001V9.00015C1.5 8.80124 1.57902 8.61047 1.71967 8.46982C1.86032 8.32917 2.05109 8.25015 2.25 8.25015H5.7375L9.282 5.41515C9.39236 5.32693 9.52539 5.27168 9.66578 5.25576C9.80616 5.23983 9.94819 5.26389 10.0755 5.32515Z" fill="black"/>
</svg>
