<svg width="24" height="24" viewBox="0 0 24 24" fill="none" xmlns="http://www.w3.org/2000/svg">
<path d="M16.0755 5.32515C16.2026 5.38636 16.3098 5.48216 16.3849 5.60156C16.46 5.72096 16.4999 5.8591 16.5 6.00015V18.0001C16.4998 18.1413 16.4598 18.2795 16.3846 18.3989C16.3093 18.5183 16.2019 18.614 16.0747 18.6751C15.9475 18.7362 15.8056 18.7602 15.6654 18.7443C15.5252 18.7284 15.3923 18.6732 15.282 18.5851L11.7375 15.7501H8.25C8.05109 15.7501 7.86032 15.6711 7.71967 15.5305C7.57902 15.3898 7.5 15.1991 7.5 15.0001V9.00015C7.5 8.80124 7.57902 8.61047 7.71967 8.46982C7.86032 8.32917 8.05109 8.25015 8.25 8.25015H11.7375L15.282 5.41515C15.3924 5.32693 15.5254 5.27168 15.6658 5.25576C15.8062 5.23983 15.9482 5.26389 16.0755 5.32515ZM15 7.56015L12.468 9.58515C12.3352 9.69166 12.1702 9.74985 12 9.75015H9V14.2501H12C12.1702 14.2505 12.3352 14.3086 12.468 14.4151L15 16.4401V7.56015Z" fill="black"/>
</svg>
