<svg width="24" height="24" viewBox="0 0 24 24" fill="none" xmlns="http://www.w3.org/2000/svg">
<g clip-path="url(#clip0_2_8084)">
<path d="M18.204 0.489128C18.5356 0.406183 18.8817 0.399875 19.2161 0.470683C19.5505 0.541491 19.8644 0.687553 20.1339 0.897782C20.4034 1.10801 20.6214 1.37688 20.7715 1.68397C20.9216 1.99107 20.9997 2.32832 21 2.67013V4.50013H21.75C22.3467 4.50013 22.919 4.73718 23.341 5.15914C23.7629 5.5811 24 6.15339 24 6.75013V20.2501C24 20.8469 23.7629 21.4192 23.341 21.8411C22.919 22.2631 22.3467 22.5001 21.75 22.5001H2.25C1.65326 22.5001 1.08097 22.2631 0.65901 21.8411C0.237053 21.4192 1.47137e-07 20.8469 1.47137e-07 20.2501V6.75013C-0.000209191 6.17091 0.222964 5.61392 0.623066 5.1951C1.02317 4.77628 1.56938 4.52789 2.148 4.50163L18.204 0.489128ZM8.343 4.50013H19.5V2.67013C19.4997 2.55633 19.4736 2.44409 19.4235 2.34189C19.3735 2.2397 19.3008 2.15024 19.2111 2.08028C19.1213 2.01033 19.0168 1.96172 18.9055 1.93813C18.7941 1.91454 18.6789 1.91659 18.5685 1.94413L8.343 4.50013ZM2.25 6.00013C2.05109 6.00013 1.86032 6.07915 1.71967 6.2198C1.57902 6.36045 1.5 6.55122 1.5 6.75013V20.2501C1.5 20.449 1.57902 20.6398 1.71967 20.7805C1.86032 20.9211 2.05109 21.0001 2.25 21.0001H21.75C21.9489 21.0001 22.1397 20.9211 22.2803 20.7805C22.421 20.6398 22.5 20.449 22.5 20.2501V6.75013C22.5 6.55122 22.421 6.36045 22.2803 6.2198C22.1397 6.07915 21.9489 6.00013 21.75 6.00013H2.25Z" fill="black"/>
</g>
<defs>
<clipPath id="clip0_2_8084">
<rect width="24" height="24" fill="white"/>
</clipPath>
</defs>
</svg>
