<svg width="24" height="24" viewBox="0 0 24 24" fill="none" xmlns="http://www.w3.org/2000/svg">
<path d="M12.75 7.5C12.75 7.30109 12.671 7.11032 12.5303 6.96967C12.3897 6.82902 12.1989 6.75 12 6.75C11.8011 6.75 11.6103 6.82902 11.4697 6.96967C11.329 7.11032 11.25 7.30109 11.25 7.5V11.25H9C8.80109 11.25 8.61032 11.329 8.46967 11.4697C8.32902 11.6103 8.25 11.8011 8.25 12C8.25 12.1989 8.32902 12.3897 8.46967 12.5303C8.61032 12.671 8.80109 12.75 9 12.75H12C12.1989 12.75 12.3897 12.671 12.5303 12.5303C12.671 12.3897 12.75 12.1989 12.75 12V7.5Z" fill="black"/>
<path d="M8.50051 24C7.12051 24 6.00001 22.881 6.00001 21.4995V18.7095C5.05491 17.8661 4.29899 16.8322 3.78194 15.6758C3.26489 14.5194 2.9984 13.2667 3.00001 12C3.00001 9.3345 4.15801 6.939 6.00001 5.292V2.5005C6.00001 1.1205 7.11901 0 8.50051 0H15.4995C16.8795 0 18 1.119 18 2.5005V5.2905C19.525 6.65247 20.5399 8.49384 20.877 10.5105C20.9843 10.4932 21.0941 10.4993 21.1989 10.5284C21.3036 10.5576 21.4008 10.609 21.4837 10.6793C21.5667 10.7496 21.6334 10.837 21.6794 10.9355C21.7254 11.034 21.7494 11.1413 21.75 11.25V12.75C21.75 12.8589 21.7262 12.9664 21.6804 13.0652C21.6346 13.164 21.5678 13.2516 21.4848 13.3219C21.4017 13.3923 21.3043 13.4437 21.1994 13.4727C21.0944 13.5016 20.9844 13.5074 20.877 13.4895C20.5399 15.5062 19.525 17.3475 18 18.7095V21.4995C18 22.8795 16.881 24 15.4995 24H8.50051ZM19.5 12C19.5 10.0109 18.7098 8.10322 17.3033 6.6967C15.8968 5.29018 13.9891 4.5 12 4.5C10.0109 4.5 8.10323 5.29018 6.69671 6.6967C5.29018 8.10322 4.50001 10.0109 4.50001 12C4.50001 13.9891 5.29018 15.8968 6.69671 17.3033C8.10323 18.7098 10.0109 19.5 12 19.5C13.9891 19.5 15.8968 18.7098 17.3033 17.3033C18.7098 15.8968 19.5 13.9891 19.5 12Z" fill="black"/>
</svg>
