<svg width="24" height="24" viewBox="0 0 24 24" fill="none" xmlns="http://www.w3.org/2000/svg">
<g clip-path="url(#clip0_2_8064)">
<path d="M0.0540335 4.97094C0.128064 4.78638 0.272361 4.63877 0.455196 4.56057C0.638032 4.48238 0.844439 4.47999 1.02903 4.55394L3.66453 5.60844C4.20088 5.82294 4.79918 5.82294 5.33553 5.60844L6.85653 4.99944C7.7506 4.64181 8.74797 4.64181 9.64203 4.99944L11.1645 5.60844C11.7009 5.82294 12.2992 5.82294 12.8355 5.60844L14.3565 4.99944C15.2506 4.64181 16.248 4.64181 17.142 4.99944L18.6645 5.60844C19.2009 5.82294 19.7992 5.82294 20.3355 5.60844L22.971 4.55394C23.0629 4.51489 23.1616 4.49456 23.2614 4.49415C23.3612 4.49373 23.4601 4.51324 23.5522 4.55153C23.6444 4.58983 23.728 4.64613 23.7981 4.71714C23.8683 4.78815 23.9235 4.87244 23.9607 4.96508C23.9978 5.05772 24.0161 5.15684 24.0144 5.25662C24.0127 5.35641 23.9912 5.45487 23.951 5.54622C23.9108 5.63757 23.8528 5.71998 23.7803 5.78861C23.7078 5.85725 23.6224 5.91074 23.529 5.94594L20.892 7.00044C19.998 7.35808 19.0006 7.35808 18.1065 7.00044L16.5855 6.39144C16.0492 6.17694 15.4509 6.17694 14.9145 6.39144L13.392 7.00044C12.498 7.35808 11.5006 7.35808 10.6065 7.00044L9.08553 6.39144C8.54918 6.17694 7.95088 6.17694 7.41453 6.39144L5.89203 7.00044C4.99797 7.35808 4.0006 7.35808 3.10653 7.00044L0.471034 5.94594C0.286471 5.87191 0.138864 5.72761 0.0606661 5.54478C-0.0175314 5.36194 -0.0199171 5.15553 0.0540335 4.97094ZM0.0540335 9.47094C0.128064 9.28638 0.272361 9.13877 0.455196 9.06057C0.638032 8.98238 0.844439 8.97999 1.02903 9.05394L3.66453 10.1084C4.20088 10.3229 4.79918 10.3229 5.33553 10.1084L6.85653 9.49944C7.7506 9.14181 8.74797 9.14181 9.64203 9.49944L11.1645 10.1084C11.7009 10.3229 12.2992 10.3229 12.8355 10.1084L14.3565 9.49944C15.2506 9.14181 16.248 9.14181 17.142 9.49944L18.6645 10.1084C19.2009 10.3229 19.7992 10.3229 20.3355 10.1084L22.971 9.05394C23.0629 9.01489 23.1616 8.99456 23.2614 8.99415C23.3612 8.99373 23.4601 9.01324 23.5522 9.05153C23.6444 9.08982 23.728 9.14613 23.7981 9.21714C23.8683 9.28815 23.9235 9.37244 23.9607 9.46508C23.9978 9.55772 24.0161 9.65683 24.0144 9.75662C24.0127 9.85641 23.9912 9.95487 23.951 10.0462C23.9108 10.1376 23.8528 10.22 23.7803 10.2886C23.7078 10.3573 23.6224 10.4107 23.529 10.4459L20.892 11.5004C19.998 11.8581 19.0006 11.8581 18.1065 11.5004L16.5855 10.8914C16.0492 10.6769 15.4509 10.6769 14.9145 10.8914L13.392 11.5004C12.498 11.8581 11.5006 11.8581 10.6065 11.5004L9.08553 10.8914C8.54918 10.6769 7.95088 10.6769 7.41453 10.8914L5.89203 11.5004C4.99797 11.8581 4.0006 11.8581 3.10653 11.5004L0.471034 10.4459C0.286471 10.3719 0.138864 10.2276 0.0606661 10.0448C-0.0175314 9.86194 -0.0199171 9.65553 0.0540335 9.47094ZM0.0540335 13.9709C0.128064 13.7864 0.272361 13.6388 0.455196 13.5606C0.638032 13.4824 0.844439 13.48 1.02903 13.5539L3.66453 14.6084C4.20088 14.8229 4.79918 14.8229 5.33553 14.6084L6.85653 13.9994C7.7506 13.6418 8.74797 13.6418 9.64203 13.9994L11.1645 14.6084C11.7009 14.8229 12.2992 14.8229 12.8355 14.6084L14.3565 13.9994C15.2506 13.6418 16.248 13.6418 17.142 13.9994L18.6645 14.6084C19.2009 14.8229 19.7992 14.8229 20.3355 14.6084L22.971 13.5539C23.0629 13.5149 23.1616 13.4946 23.2614 13.4941C23.3612 13.4937 23.4601 13.5132 23.5522 13.5515C23.6444 13.5898 23.728 13.6461 23.7981 13.7171C23.8683 13.7881 23.9235 13.8724 23.9607 13.9651C23.9978 14.0577 24.0161 14.1568 24.0144 14.2566C24.0127 14.3564 23.9912 14.4549 23.951 14.5462C23.9108 14.6376 23.8528 14.72 23.7803 14.7886C23.7078 14.8573 23.6224 14.9107 23.529 14.9459L20.892 16.0004C19.998 16.3581 19.0006 16.3581 18.1065 16.0004L16.5855 15.3914C16.0492 15.1769 15.4509 15.1769 14.9145 15.3914L13.392 16.0004C12.498 16.3581 11.5006 16.3581 10.6065 16.0004L9.08553 15.3914C8.54918 15.1769 7.95088 15.1769 7.41453 15.3914L5.89203 16.0004C4.99797 16.3581 4.0006 16.3581 3.10653 16.0004L0.471034 14.9459C0.286471 14.8719 0.138864 14.7276 0.0606661 14.5448C-0.0175314 14.3619 -0.0199171 14.1555 0.0540335 13.9709ZM0.0540335 18.4709C0.128064 18.2864 0.272361 18.1388 0.455196 18.0606C0.638032 17.9824 0.844439 17.98 1.02903 18.0539L3.66453 19.1084C4.20088 19.3229 4.79918 19.3229 5.33553 19.1084L6.85653 18.4994C7.7506 18.1418 8.74797 18.1418 9.64203 18.4994L11.1645 19.1084C11.7009 19.3229 12.2992 19.3229 12.8355 19.1084L14.3565 18.4994C15.2506 18.1418 16.248 18.1418 17.142 18.4994L18.6645 19.1084C19.2009 19.3229 19.7992 19.3229 20.3355 19.1084L22.971 18.0539C23.0629 18.0149 23.1616 17.9946 23.2614 17.9941C23.3612 17.9937 23.4601 18.0132 23.5522 18.0515C23.6444 18.0898 23.728 18.1461 23.7981 18.2171C23.8683 18.2881 23.9235 18.3724 23.9607 18.4651C23.9978 18.5577 24.0161 18.6568 24.0144 18.7566C24.0127 18.8564 23.9912 18.9549 23.951 19.0462C23.9108 19.1376 23.8528 19.22 23.7803 19.2886C23.7078 19.3573 23.6224 19.4107 23.529 19.4459L20.892 20.5004C19.998 20.8581 19.0006 20.8581 18.1065 20.5004L16.5855 19.8914C16.0492 19.6769 15.4509 19.6769 14.9145 19.8914L13.392 20.5004C12.498 20.8581 11.5006 20.8581 10.6065 20.5004L9.08553 19.8914C8.54918 19.6769 7.95088 19.6769 7.41453 19.8914L5.89203 20.5004C4.99797 20.8581 4.0006 20.8581 3.10653 20.5004L0.471034 19.4459C0.286471 19.3719 0.138864 19.2276 0.0606661 19.0448C-0.0175314 18.8619 -0.0199171 18.6555 0.0540335 18.4709Z" fill="black"/>
</g>
<defs>
<clipPath id="clip0_2_8064">
<rect width="24" height="24" fill="white"/>
</clipPath>
</defs>
</svg>
