<svg width="24" height="24" viewBox="0 0 24 24" fill="none" xmlns="http://www.w3.org/2000/svg">
<g clip-path="url(#clip0_2_8077)">
<path fill-rule="evenodd" clip-rule="evenodd" d="M9.96595 16.641C10.0356 16.57 10.1187 16.5135 10.2103 16.4749C10.302 16.4362 10.4005 16.4162 10.5 16.416H13.4999C13.5994 16.4162 13.6979 16.4362 13.7896 16.4749C13.8812 16.5135 13.9643 16.57 14.0339 16.641C14.2965 16.9065 14.6189 17.1615 14.9384 17.385C15.3001 17.6359 15.6768 17.8643 16.0665 18.069L16.0814 18.078H16.0859C16.2378 18.1533 16.3596 18.2777 16.4317 18.431C16.5038 18.5844 16.5218 18.7576 16.4828 18.9225C16.4439 19.0874 16.3502 19.2342 16.2171 19.3391C16.0841 19.444 15.9194 19.5007 15.75 19.5H8.24995C8.08106 19.5 7.91712 19.443 7.78467 19.3382C7.65222 19.2334 7.55902 19.087 7.52014 18.9227C7.48127 18.7583 7.499 18.5856 7.57047 18.4326C7.64194 18.2796 7.76297 18.1552 7.91395 18.0795L7.91695 18.078L7.93195 18.069C8.04093 18.0147 8.14799 17.9567 8.25295 17.895C8.52955 17.7365 8.7993 17.5664 9.06145 17.385C9.38245 17.16 9.70345 16.9065 9.96595 16.641Z" fill="black"/>
<path d="M10.5 9.75C10.5 9.35218 10.658 8.97064 10.9393 8.68934C11.2206 8.40804 11.6022 8.25 12 8.25C12.3978 8.25 12.7794 8.40804 13.0607 8.68934C13.342 8.97064 13.5 9.35218 13.5 9.75C13.5 10.1478 13.342 10.5294 13.0607 10.8107C12.7794 11.092 12.3978 11.25 12 11.25C11.6022 11.25 11.2206 11.092 10.9393 10.8107C10.658 10.5294 10.5 10.1478 10.5 9.75Z" fill="black"/>
<path fill-rule="evenodd" clip-rule="evenodd" d="M3 4.5C2.20435 4.5 1.44129 4.81607 0.87868 5.37868C0.316071 5.94129 0 6.70435 0 7.5L0 12C0 12.7956 0.316071 13.5587 0.87868 14.1213C1.44129 14.6839 2.20435 15 3 15H21C21.7956 15 22.5587 14.6839 23.1213 14.1213C23.6839 13.5587 24 12.7956 24 12V7.5C24 6.70435 23.6839 5.94129 23.1213 5.37868C22.5587 4.81607 21.7956 4.5 21 4.5H3ZM12 6.75C11.2044 6.75 10.4413 7.06607 9.87868 7.62868C9.31607 8.19129 9 8.95435 9 9.75C9 10.5456 9.31607 11.3087 9.87868 11.8713C10.4413 12.4339 11.2044 12.75 12 12.75C12.7956 12.75 13.5587 12.4339 14.1213 11.8713C14.6839 11.3087 15 10.5456 15 9.75C15 8.95435 14.6839 8.19129 14.1213 7.62868C13.5587 7.06607 12.7956 6.75 12 6.75ZM18.75 10.5C18.9489 10.5 19.1397 10.421 19.2803 10.2803C19.421 10.1397 19.5 9.94891 19.5 9.75C19.5 9.55109 19.421 9.36032 19.2803 9.21967C19.1397 9.07902 18.9489 9 18.75 9C18.5511 9 18.3603 9.07902 18.2197 9.21967C18.079 9.36032 18 9.55109 18 9.75C18 9.94891 18.079 10.1397 18.2197 10.2803C18.3603 10.421 18.5511 10.5 18.75 10.5Z" fill="black"/>
</g>
<defs>
<clipPath id="clip0_2_8077">
<rect width="24" height="24" fill="white"/>
</clipPath>
</defs>
</svg>
