<svg width="24" height="24" viewBox="0 0 24 24" fill="none" xmlns="http://www.w3.org/2000/svg">
<path fill-rule="evenodd" clip-rule="evenodd" d="M0 9C0 8.20435 0.316071 7.44129 0.87868 6.87868C1.44129 6.31607 2.20435 6 3 6H21C21.7956 6 22.5587 6.31607 23.1213 6.87868C23.6839 7.44129 24 8.20435 24 9V13.5C24 14.2956 23.6839 15.0587 23.1213 15.6213C22.5587 16.1839 21.7956 16.5 21 16.5H13.9035C14.1195 16.743 14.3985 16.986 14.7 17.2125C15.1303 17.5329 15.5852 17.8188 16.0605 18.0675L16.0815 18.0765L16.086 18.0795C16.237 18.1552 16.358 18.2796 16.4295 18.4326C16.501 18.5856 16.5187 18.7583 16.4798 18.9226C16.4409 19.087 16.3477 19.2334 16.2153 19.3382C16.0828 19.443 15.9189 19.5 15.75 19.5H8.25C8.08111 19.5 7.91717 19.443 7.78472 19.3382C7.65227 19.2334 7.55907 19.087 7.52019 18.9226C7.48132 18.7583 7.49905 18.5856 7.57052 18.4326C7.64199 18.2796 7.76302 18.1552 7.914 18.0795L7.9185 18.0765L7.9395 18.066C8.07599 17.9966 8.21007 17.9226 8.3415 17.844C8.67268 17.6518 8.9927 17.441 9.3 17.2125C9.6 16.9875 9.8805 16.743 10.0965 16.5H3C2.20435 16.5 1.44129 16.1839 0.87868 15.6213C0.316071 15.0587 0 14.2956 0 13.5V9ZM3 7.5C2.60218 7.5 2.22064 7.65804 1.93934 7.93934C1.65804 8.22064 1.5 8.60218 1.5 9V13.5C1.5 13.8978 1.65804 14.2794 1.93934 14.5607C2.22064 14.842 2.60218 15 3 15H21C21.3978 15 21.7794 14.842 22.0607 14.5607C22.342 14.2794 22.5 13.8978 22.5 13.5V9C22.5 8.60218 22.342 8.22064 22.0607 7.93934C21.7794 7.65804 21.3978 7.5 21 7.5H3Z" fill="black"/>
<path fill-rule="evenodd" clip-rule="evenodd" d="M12 9.75C11.6022 9.75 11.2206 9.90804 10.9393 10.1893C10.658 10.4706 10.5 10.8522 10.5 11.25C10.5 11.6478 10.658 12.0294 10.9393 12.3107C11.2206 12.592 11.6022 12.75 12 12.75C12.3978 12.75 12.7794 12.592 13.0607 12.3107C13.342 12.0294 13.5 11.6478 13.5 11.25C13.5 10.8522 13.342 10.4706 13.0607 10.1893C12.7794 9.90804 12.3978 9.75 12 9.75ZM9 11.25C9 10.4544 9.31607 9.69129 9.87868 9.12868C10.4413 8.56607 11.2044 8.25 12 8.25C12.7956 8.25 13.5587 8.56607 14.1213 9.12868C14.6839 9.69129 15 10.4544 15 11.25C15 12.0456 14.6839 12.8087 14.1213 13.3713C13.5587 13.9339 12.7956 14.25 12 14.25C11.2044 14.25 10.4413 13.9339 9.87868 13.3713C9.31607 12.8087 9 12.0456 9 11.25Z" fill="black"/>
<path d="M19.5 11.25C19.5 11.4489 19.421 11.6397 19.2803 11.7803C19.1397 11.921 18.9489 12 18.75 12C18.5511 12 18.3603 11.921 18.2197 11.7803C18.079 11.6397 18 11.4489 18 11.25C18 11.0511 18.079 10.8603 18.2197 10.7197C18.3603 10.579 18.5511 10.5 18.75 10.5C18.9489 10.5 19.1397 10.579 19.2803 10.7197C19.421 10.8603 19.5 11.0511 19.5 11.25Z" fill="black"/>
</svg>
