<svg width="24" height="24" viewBox="0 0 24 24" fill="none" xmlns="http://www.w3.org/2000/svg">
<g clip-path="url(#clip0_2_7331)">
<path d="M18.75 3C17.7554 3 16.8016 3.39509 16.0984 4.09835C15.3951 4.80161 15 5.75544 15 6.75C15 6.94891 14.921 7.13968 14.7803 7.28033C14.6397 7.42098 14.4489 7.5 14.25 7.5C14.0511 7.5 13.8603 7.42098 13.7197 7.28033C13.579 7.13968 13.5 6.94891 13.5 6.75C13.5 5.71165 13.8079 4.69662 14.3848 3.83326C14.9617 2.9699 15.7816 2.29699 16.7409 1.89963C17.7002 1.50227 18.7558 1.39831 19.7742 1.60088C20.7926 1.80345 21.7281 2.30347 22.4623 3.03769C23.1965 3.77192 23.6966 4.70738 23.8991 5.72578C24.1017 6.74418 23.9977 7.79978 23.6004 8.75909C23.203 9.7184 22.5301 10.5383 21.6667 11.1152C20.8034 11.6921 19.7884 12 18.75 12H0.75C0.551088 12 0.360322 11.921 0.21967 11.7803C0.0790176 11.6397 0 11.4489 0 11.25C0 11.0511 0.0790176 10.8603 0.21967 10.7197C0.360322 10.579 0.551088 10.5 0.75 10.5H18.75C19.7446 10.5 20.6984 10.1049 21.4016 9.40165C22.1049 8.69839 22.5 7.74456 22.5 6.75C22.5 5.75544 22.1049 4.80161 21.4016 4.09835C20.6984 3.39509 19.7446 3 18.75 3ZM8.25 4.5C7.85218 4.5 7.47064 4.65804 7.18934 4.93934C6.90804 5.22065 6.75 5.60218 6.75 6C6.75 6.19891 6.67098 6.38968 6.53033 6.53033C6.38968 6.67098 6.19891 6.75 6 6.75C5.80109 6.75 5.61032 6.67098 5.46967 6.53033C5.32902 6.38968 5.25 6.19891 5.25 6C5.25 5.40666 5.42595 4.82664 5.75559 4.33329C6.08524 3.83994 6.55377 3.45543 7.10195 3.22836C7.65013 3.0013 8.25333 2.94189 8.83527 3.05765C9.41721 3.1734 9.95176 3.45912 10.3713 3.87868C10.7909 4.29824 11.0766 4.83279 11.1924 5.41473C11.3081 5.99667 11.2487 6.59987 11.0216 7.14805C10.7946 7.69623 10.4101 8.16477 9.91671 8.49441C9.42336 8.82406 8.84334 9 8.25 9H0.75C0.551088 9 0.360322 8.92098 0.21967 8.78033C0.0790176 8.63968 0 8.44891 0 8.25C0 8.05109 0.0790176 7.86032 0.21967 7.71967C0.360322 7.57902 0.551088 7.5 0.75 7.5H8.25C8.64782 7.5 9.02936 7.34197 9.31066 7.06066C9.59196 6.77936 9.75 6.39783 9.75 6C9.75 5.60218 9.59196 5.22065 9.31066 4.93934C9.02936 4.65804 8.64782 4.5 8.25 4.5ZM0 14.25C0 14.0511 0.0790176 13.8603 0.21967 13.7197C0.360322 13.579 0.551088 13.5 0.75 13.5H15.813C16.703 13.5 17.573 13.7639 18.3131 14.2584C19.0531 14.7529 19.6299 15.4557 19.9705 16.2779C20.3111 17.1002 20.4002 18.005 20.2265 18.8779C20.0529 19.7508 19.6243 20.5526 18.995 21.182C18.3656 21.8113 17.5638 22.2399 16.6909 22.4135C15.818 22.5872 14.9132 22.4981 14.0909 22.1575C13.2687 21.8169 12.5659 21.2401 12.0714 20.5001C11.5769 19.76 11.313 18.89 11.313 18C11.313 17.8011 11.392 17.6103 11.5327 17.4697C11.6733 17.329 11.8641 17.25 12.063 17.25C12.2619 17.25 12.4527 17.329 12.5933 17.4697C12.734 17.6103 12.813 17.8011 12.813 18C12.813 18.5933 12.9889 19.1734 13.3186 19.6667C13.6482 20.1601 14.1168 20.5446 14.6649 20.7716C15.2131 20.9987 15.8163 21.0581 16.3983 20.9424C16.9802 20.8266 17.5148 20.5409 17.9343 20.1213C18.3539 19.7018 18.6396 19.1672 18.7554 18.5853C18.8711 18.0033 18.8117 17.4001 18.5846 16.852C18.3576 16.3038 17.9731 15.8352 17.4797 15.5056C16.9864 15.176 16.4063 15 15.813 15H0.75C0.551088 15 0.360322 14.921 0.21967 14.7803C0.0790176 14.6397 0 14.4489 0 14.25Z" fill="black"/>
</g>
<defs>
<clipPath id="clip0_2_7331">
<rect width="24" height="24" fill="white"/>
</clipPath>
</defs>
</svg>
