<svg width="24" height="24" viewBox="0 0 24 24" fill="none" xmlns="http://www.w3.org/2000/svg">
<path fill-rule="evenodd" clip-rule="evenodd" d="M0 6C0 5.20435 0.316071 4.44129 0.87868 3.87868C1.44129 3.31607 2.20435 3 3 3H19.5C20.2956 3 21.0587 3.31607 21.6213 3.87868C22.1839 4.44129 22.5 5.20435 22.5 6V12C22.5 12.1989 22.421 12.3897 22.2803 12.5303C22.1397 12.671 21.9489 12.75 21.75 12.75C21.5511 12.75 21.3603 12.671 21.2197 12.5303C21.079 12.3897 21 12.1989 21 12V10.5H1.5V18C1.5 18.3978 1.65804 18.7794 1.93934 19.0607C2.22064 19.342 2.60218 19.5 3 19.5H11.25C11.4489 19.5 11.6397 19.579 11.7803 19.7197C11.921 19.8603 12 20.0511 12 20.25C12 20.4489 11.921 20.6397 11.7803 20.7803C11.6397 20.921 11.4489 21 11.25 21H3C2.20435 21 1.44129 20.6839 0.87868 20.1213C0.316071 19.5587 0 18.7956 0 18V6ZM1.5 9H21V6C21 5.60218 20.842 5.22064 20.5607 4.93934C20.2794 4.65804 19.8978 4.5 19.5 4.5H3C2.60218 4.5 2.22064 4.65804 1.93934 4.93934C1.65804 5.22064 1.5 5.60218 1.5 6V9ZM3.75 7.5C3.94891 7.5 4.13968 7.42098 4.28033 7.28033C4.42098 7.13968 4.5 6.94891 4.5 6.75C4.5 6.55109 4.42098 6.36032 4.28033 6.21967C4.13968 6.07902 3.94891 6 3.75 6C3.55109 6 3.36032 6.07902 3.21967 6.21967C3.07902 6.36032 3 6.55109 3 6.75C3 6.94891 3.07902 7.13968 3.21967 7.28033C3.36032 7.42098 3.55109 7.5 3.75 7.5ZM6 7.5C6.19891 7.5 6.38968 7.42098 6.53033 7.28033C6.67098 7.13968 6.75 6.94891 6.75 6.75C6.75 6.55109 6.67098 6.36032 6.53033 6.21967C6.38968 6.07902 6.19891 6 6 6C5.80109 6 5.61032 6.07902 5.46967 6.21967C5.32902 6.36032 5.25 6.55109 5.25 6.75C5.25 6.94891 5.32902 7.13968 5.46967 7.28033C5.61032 7.42098 5.80109 7.5 6 7.5ZM9 6.75C9 6.94891 8.92098 7.13968 8.78033 7.28033C8.63968 7.42098 8.44891 7.5 8.25 7.5C8.05109 7.5 7.86032 7.42098 7.71967 7.28033C7.57902 7.13968 7.5 6.94891 7.5 6.75C7.5 6.55109 7.57902 6.36032 7.71967 6.21967C7.86032 6.07902 8.05109 6 8.25 6C8.44891 6 8.63968 6.07902 8.78033 6.21967C8.92098 6.36032 9 6.55109 9 6.75ZM24 18.75C24 20.1424 23.4469 21.4777 22.4623 22.4623C21.4777 23.4469 20.1424 24 18.75 24C17.3576 24 16.0223 23.4469 15.0377 22.4623C14.0531 21.4777 13.5 20.1424 13.5 18.75C13.5 17.3576 14.0531 16.0223 15.0377 15.0377C16.0223 14.0531 17.3576 13.5 18.75 13.5C20.1424 13.5 21.4777 14.0531 22.4623 15.0377C23.4469 16.0223 24 17.3576 24 18.75ZM16.719 16.719C16.7887 16.6492 16.8714 16.5937 16.9626 16.5559C17.0537 16.5181 17.1513 16.4987 17.25 16.4987C17.3487 16.4987 17.4463 16.5181 17.5374 16.5559C17.6286 16.5937 17.7113 16.6492 17.781 16.719L18.75 17.6895L19.719 16.719C19.8598 16.5782 20.0508 16.4991 20.25 16.4991C20.4492 16.4991 20.6402 16.5782 20.781 16.719C20.9218 16.8598 21.0009 17.0508 21.0009 17.25C21.0009 17.4492 20.9218 17.6402 20.781 17.781L19.8105 18.75L20.781 19.719C20.9218 19.8598 21.0009 20.0508 21.0009 20.25C21.0009 20.4492 20.9218 20.6402 20.781 20.781C20.6402 20.9218 20.4492 21.0009 20.25 21.0009C20.0508 21.0009 19.8598 20.9218 19.719 20.781L18.75 19.8105L17.781 20.781C17.6402 20.9218 17.4492 21.0009 17.25 21.0009C17.0508 21.0009 16.8598 20.9218 16.719 20.781C16.5782 20.6402 16.4991 20.4492 16.4991 20.25C16.4991 20.0508 16.5782 19.8598 16.719 19.719L17.6895 18.75L16.719 17.781C16.6492 17.7113 16.5937 17.6286 16.5559 17.5374C16.5181 17.4463 16.4987 17.3487 16.4987 17.25C16.4987 17.1513 16.5181 17.0537 16.5559 16.9626C16.5937 16.8714 16.6492 16.7887 16.719 16.719Z" fill="black"/>
</svg>
