<svg width="24" height="24" viewBox="0 0 24 24" fill="none" xmlns="http://www.w3.org/2000/svg">
<g clip-path="url(#clip0_2_7324)">
<path d="M0.152415 3.33506C-0.0504717 4.0984 -0.0491472 4.90166 0.156256 5.66433C0.361659 6.427 0.763925 7.12228 1.32273 7.68048C1.88154 8.23867 2.57725 8.64018 3.34014 8.84476C4.10303 9.04933 4.9063 9.04978 5.66942 8.84606L15.1809 18.2241C14.9832 18.8956 14.9448 19.604 15.0686 20.2929C15.1925 20.9819 15.4752 21.6326 15.8943 22.1932C16.3135 22.7539 16.8575 23.2091 17.4833 23.5229C18.1091 23.8366 18.7994 24.0001 19.4994 24.0006C20.1443 23.9997 20.7815 23.8602 21.3678 23.5915C21.9541 23.3228 22.4758 22.9313 22.8975 22.4434C23.3193 21.9555 23.6312 21.3827 23.8122 20.7637C23.9932 20.1447 24.0391 19.494 23.9467 18.8558C23.8543 18.2175 23.6258 17.6066 23.2767 17.0644C22.9275 16.5221 22.4659 16.0613 21.9231 15.7131C21.3803 15.3648 20.769 15.1373 20.1306 15.0459C19.4922 14.9546 18.8416 15.0015 18.2229 15.1836L8.84492 5.67206C9.04962 4.90865 9.04992 4.10482 8.84579 3.34126C8.64166 2.57769 8.24027 1.88125 7.68192 1.32183C7.12357 0.762418 6.4279 0.359708 5.66472 0.154123C4.90154 -0.0514621 4.09772 -0.05269 3.33392 0.150563L6.54541 3.36356L5.99942 6.00056L3.36392 6.54656L0.152415 3.33506ZM20.2074 16.8636L20.9994 16.9026L21.4299 17.5701L22.0974 18.0006L22.1364 18.7941L22.4994 19.5006L22.1364 20.2071L22.0974 21.0006L21.4299 21.4311L20.9994 22.0986L20.2059 22.1376L19.4994 22.5006L18.7929 22.1376L17.9994 22.0986L17.5689 21.4311L16.9014 21.0006L16.8624 20.2071L16.4994 19.5006L16.8624 18.7941L16.9014 18.0006L17.5689 17.5701L17.9994 16.9026L18.7929 16.8636L19.4994 16.5006L20.2059 16.8636H20.2074Z" fill="black"/>
</g>
<defs>
<clipPath id="clip0_2_7324">
<rect width="24" height="24" fill="white"/>
</clipPath>
</defs>
</svg>
