<svg width="24" height="24" viewBox="0 0 24 24" fill="none" xmlns="http://www.w3.org/2000/svg">
<g clip-path="url(#clip0_2_8399)">
<path d="M21 1.5C21.3978 1.5 21.7794 1.65804 22.0607 1.93934C22.342 2.22064 22.5 2.60218 22.5 3V21C22.5 21.3978 22.342 21.7794 22.0607 22.0607C21.7794 22.342 21.3978 22.5 21 22.5H3C2.60218 22.5 2.22064 22.342 1.93934 22.0607C1.65804 21.7794 1.5 21.3978 1.5 21V3C1.5 2.60218 1.65804 2.22064 1.93934 1.93934C2.22064 1.65804 2.60218 1.5 3 1.5H21ZM3 0C2.20435 0 1.44129 0.316071 0.87868 0.87868C0.316071 1.44129 0 2.20435 0 3L0 21C0 21.7956 0.316071 22.5587 0.87868 23.1213C1.44129 23.6839 2.20435 24 3 24H21C21.7956 24 22.5587 23.6839 23.1213 23.1213C23.6839 22.5587 24 21.7956 24 21V3C24 2.20435 23.6839 1.44129 23.1213 0.87868C22.5587 0.316071 21.7956 0 21 0L3 0Z" fill="black"/>
<path d="M6.969 6.96888C7.03867 6.89903 7.12143 6.84362 7.21255 6.80581C7.30366 6.768 7.40135 6.74854 7.5 6.74854C7.59865 6.74854 7.69633 6.768 7.78745 6.80581C7.87857 6.84362 7.96133 6.89903 8.031 6.96888L12 10.9394L15.969 6.96888C16.0387 6.89914 16.1215 6.84383 16.2126 6.80609C16.3037 6.76835 16.4014 6.74893 16.5 6.74893C16.5986 6.74893 16.6963 6.76835 16.7874 6.80609C16.8785 6.84383 16.9613 6.89914 17.031 6.96888C17.1007 7.03861 17.156 7.12139 17.1938 7.2125C17.2315 7.30361 17.2509 7.40126 17.2509 7.49988C17.2509 7.59849 17.2315 7.69614 17.1938 7.78725C17.156 7.87836 17.1007 7.96114 17.031 8.03088L13.0605 11.9999L17.031 15.9689C17.1007 16.0386 17.156 16.1214 17.1938 16.2125C17.2315 16.3036 17.2509 16.4013 17.2509 16.4999C17.2509 16.5985 17.2315 16.6961 17.1938 16.7872C17.156 16.8784 17.1007 16.9611 17.031 17.0309C16.9613 17.1006 16.8785 17.1559 16.7874 17.1937C16.6963 17.2314 16.5986 17.2508 16.5 17.2508C16.4014 17.2508 16.3037 17.2314 16.2126 17.1937C16.1215 17.1559 16.0387 17.1006 15.969 17.0309L12 13.0604L8.031 17.0309C7.96127 17.1006 7.87848 17.1559 7.78737 17.1937C7.69626 17.2314 7.59861 17.2508 7.5 17.2508C7.40138 17.2508 7.30373 17.2314 7.21262 17.1937C7.12151 17.1559 7.03873 17.1006 6.969 17.0309C6.89927 16.9611 6.84395 16.8784 6.80621 16.7872C6.76847 16.6961 6.74905 16.5985 6.74905 16.4999C6.74905 16.4013 6.76847 16.3036 6.80621 16.2125C6.84395 16.1214 6.89927 16.0386 6.969 15.9689L10.9395 11.9999L6.969 8.03088C6.89915 7.96121 6.84374 7.87844 6.80593 7.78733C6.76812 7.69621 6.74866 7.59853 6.74866 7.49988C6.74866 7.40122 6.76812 7.30354 6.80593 7.21242C6.84374 7.12131 6.89915 7.03854 6.969 6.96888Z" fill="black"/>
</g>
<defs>
<clipPath id="clip0_2_8399">
<rect width="24" height="24" fill="white"/>
</clipPath>
</defs>
</svg>
