<svg width="24" height="24" viewBox="0 0 24 24" fill="none" xmlns="http://www.w3.org/2000/svg">
<g clip-path="url(#clip0_2_7317)">
<path d="M10.803 23.9501C8.90166 23.7542 7.07481 23.1061 5.475 22.0601C4.128 21.1826 3.8235 20.8211 3.8235 20.1011C3.8235 18.6536 5.4165 16.1171 8.142 13.2266C9.6885 11.5841 11.8455 9.65964 12.078 9.71214C12.531 9.81414 16.155 13.3466 17.511 15.0086C19.656 17.6381 20.643 19.7921 20.142 20.7521C19.761 21.4811 17.397 22.9076 15.6615 23.4551C14.2305 23.9066 12.351 24.0986 10.803 23.9501ZM2.004 18.5951C0.883503 16.8791 0.318003 15.1901 0.0450032 12.7451C-0.0449968 11.9366 -0.0119968 11.4761 0.250503 9.82014C0.577503 7.75464 1.7535 5.36514 3.168 3.89514C3.7695 3.26964 3.8235 3.25464 4.557 3.50064C5.4495 3.80064 6.402 4.45764 7.8765 5.79264L8.7375 6.57114L8.268 7.14864C6.084 9.82914 3.78 13.6286 2.91 15.9791C2.4375 17.2571 2.247 18.5396 2.451 19.0736C2.5875 19.4336 2.4615 19.2986 2.001 18.5951H2.004ZM21.6555 18.8876C21.7665 18.3476 21.627 17.3576 21.2985 16.3571C20.589 14.1926 18.216 10.1651 16.0365 7.42764L15.351 6.56514L16.092 5.88414C17.061 4.99464 17.7345 4.46214 18.462 4.00914C19.0335 3.65364 19.8525 3.33714 20.2035 3.33714C20.421 3.33714 21.1845 4.12914 21.801 4.99314C22.7819 6.39104 23.4674 7.9743 23.8155 9.64614C24.045 10.7381 24.0645 13.0751 23.8515 14.1641C23.6516 15.1395 23.3499 16.0912 22.9515 17.0036C22.683 17.5931 22.0155 18.7376 21.7215 19.1096C21.5715 19.3016 21.5715 19.3001 21.657 18.8876H21.6555ZM11.0025 2.92764C9.9975 2.41764 8.4465 1.87014 7.5885 1.72314C7.21176 1.66703 6.83068 1.64544 6.45 1.65864C5.7435 1.69464 5.775 1.65864 6.909 1.12164C7.79795 0.69472 8.73744 0.382229 9.705 0.19164C10.905 -0.0618598 13.164 -0.0633598 14.346 0.18414C15.621 0.45414 17.1255 1.01214 17.973 1.53414L18.225 1.68864L17.6475 1.65864C16.4985 1.60164 14.8275 2.06364 13.0305 2.93814C12.489 3.20214 12.0165 3.41214 11.982 3.40614C11.6503 3.25639 11.3232 3.09682 11.001 2.92764H11.0025Z" fill="black"/>
</g>
<defs>
<clipPath id="clip0_2_7317">
<rect width="24" height="24" fill="white"/>
</clipPath>
</defs>
</svg>
