<svg width="48" height="48" viewBox="0 0 48 48" fill="none" xmlns="http://www.w3.org/2000/svg">
<path fill-rule="evenodd" clip-rule="evenodd" d="M15.8797 28.242L20.1217 24L16.2427 20.121H28.8757C34.5007 20.121 36.0007 25.779 36.0007 29.121C36.0007 31.584 35.2987 33.933 34.0687 35.571C32.8027 37.263 31.0537 38.121 28.8757 38.121H12.0007V44.121H28.8757C32.9287 44.121 36.4747 42.363 38.8687 39.171C40.8877 36.48 42.0007 32.91 42.0007 29.121C42.0007 21.666 37.4917 14.121 28.8757 14.121H16.2427L20.1217 10.242L15.8797 6L6.87975 15C5.70675 16.173 5.70675 18.069 6.87975 19.242L15.8797 28.242Z" fill="#0B72D2"/>
</svg>
