<svg width="49" height="48" viewBox="0 0 49 48" fill="none" xmlns="http://www.w3.org/2000/svg">
<path fill-rule="evenodd" clip-rule="evenodd" d="M3.00573 0C0.462221 0 -0.927248 2.96657 0.70107 4.92055L15.0057 22.0862V42C15.0057 44.2301 17.3527 45.6806 19.3474 44.6833L31.3474 38.6833C32.3637 38.1751 33.0057 37.1363 33.0057 36V22.0862L47.3104 4.92055C48.9387 2.96657 47.5492 0 45.0057 0H3.00573ZM19.8995 19.0794L9 6H38.1898L27.2902 19.0794C26.8409 19.6186 26.5949 20.2982 26.5949 21V34.1459L20.5949 37.1459V21C20.5949 20.2982 20.3488 19.6186 19.8995 19.0794Z" fill="#0B72D2"/>
</svg>
