<svg width="32" height="32" viewBox="0 0 32 32" fill="none" xmlns="http://www.w3.org/2000/svg">
<path fill-rule="evenodd" clip-rule="evenodd" d="M14.77 6C9.934 6 6 9.934 6 14.77C6 19.606 9.934 23.54 14.77 23.54C19.606 23.54 23.54 19.606 23.54 14.77C23.54 9.934 19.606 6 14.77 6ZM9.0004 17H21.0004V13H9.0004V17ZM2 14.77C2 21.81 7.728 27.54 14.77 27.54C17.5708 27.54 20.1638 26.6336 22.2712 25.0988L28.5864 31.414L31.4144 28.586L25.0991 22.2707C26.6338 20.1631 27.54 17.5702 27.54 14.77C27.54 7.728 21.812 2 14.77 2C7.728 2 2 7.728 2 14.77Z" fill="#0B72D2"/>
</svg>
