<svg width="48" height="48" viewBox="0 0 48 48" fill="none" xmlns="http://www.w3.org/2000/svg">
<path fill-rule="evenodd" clip-rule="evenodd" d="M36 21C40.9706 21 45 16.9706 45 12C45 7.02944 40.9706 3 36 3C31.0294 3 27 7.02944 27 12C27 12.4537 27.0336 12.8996 27.0984 13.3353L21.062 17.3477C19.4625 15.8893 17.3351 15 15 15C10.0294 15 6 19.0294 6 24C6 28.9706 10.0294 33 15 33C17.3351 33 19.4625 32.1107 21.062 30.6523L27.0984 34.6647C27.0336 35.1004 27 35.5463 27 36C27 40.9706 31.0294 45 36 45C40.9706 45 45 40.9706 45 36C45 31.0294 40.9706 27 36 27C33.6649 27 31.5375 27.8893 29.938 29.3477L23.9016 25.3353C23.9664 24.8996 24 24.4537 24 24C24 23.5463 23.9664 23.1004 23.9016 22.6647L29.938 18.6523C31.5375 20.1107 33.6649 21 36 21ZM33 12C33 13.6569 34.3431 15 36 15C37.6569 15 39 13.6569 39 12C39 10.3431 37.6569 9 36 9C34.3431 9 33 10.3431 33 12ZM12 24C12 25.6569 13.3431 27 15 27C16.6569 27 18 25.6569 18 24C18 22.3431 16.6569 21 15 21C13.3431 21 12 22.3431 12 24ZM33 36C33 37.6569 34.3431 39 36 39C37.6569 39 39 37.6569 39 36C39 34.3431 37.6569 33 36 33C34.3431 33 33 34.3431 33 36Z" fill="#DABA01"/>
</svg>
