<svg width="17" height="16" viewBox="0 0 17 16" fill="none" xmlns="http://www.w3.org/2000/svg">
<path fill-rule="evenodd" clip-rule="evenodd" d="M14.5384 1.48394C13.6297 0.523626 12.3334 -0.021472 10.9845 0.000953126C9.91071 -0.0163934 8.8503 0.341405 7.99034 1.00329C7.15568 0.353786 6.09104 -0.011722 4.98967 0.000880426C3.66703 -0.0249927 2.36543 0.520397 1.43491 1.50334C0.496705 2.4483 -0.0265727 3.75649 0.00132363 5.1114C-0.0299353 6.42699 0.493602 7.74035 1.45138 8.70528L6.69541 14.0792C6.96963 14.326 7.20628 14.5065 7.45533 14.6687L8.00111 15.0242L8.54689 14.6687C8.79594 14.5065 9.03259 14.326 9.25489 14.1287L14.5568 8.69922C15.5086 7.74035 16.0322 6.42699 16.0008 5.06778C16.0255 3.75221 15.4976 2.44376 14.5384 1.48394ZM7.31337 3.09677L8.06273 3.80669L8.89608 2.86917C9.44197 2.30296 10.1985 1.98829 10.9854 2.00069C11.8058 1.98758 12.5631 2.30602 13.105 2.87834C13.6993 3.47358 14.016 4.25866 14.0013 5.07269C14.0202 5.92937 13.706 6.71739 13.1314 7.29635L7.99934 12.5554L2.87681 7.30241C2.29618 6.71739 1.98206 5.92937 2.00085 5.11385C1.98416 4.25729 2.29813 3.47237 2.8709 2.89523C3.43093 2.30406 4.19132 1.98545 4.98191 2.00063C5.79548 1.99179 6.54665 2.3099 7.08502 2.87841L7.31337 3.09677Z" fill="#DABA01"/>
</svg>
