<svg width="33" height="32" viewBox="0 0 33 32" fill="none" xmlns="http://www.w3.org/2000/svg">
<path fill-rule="evenodd" clip-rule="evenodd" d="M2.00382 0C0.308147 0 -0.618165 1.97772 0.46738 3.28037L10.0038 14.7241V28C10.0038 29.4868 11.5684 30.4538 12.8982 29.7889L20.8982 25.7889C21.5758 25.4501 22.0038 24.7575 22.0038 24V14.7241L31.5403 3.28037C32.6258 1.97772 31.6995 0 30.0038 0H2.00382ZM13.2664 12.7196L6 4H25.4598L18.1935 12.7196C17.8939 13.0791 17.7299 13.5321 17.7299 14V22.7639L13.7299 24.7639V14C13.7299 13.5321 13.5659 13.0791 13.2664 12.7196Z" fill="#DABA01"/>
</svg>
