<svg width="382" height="173" viewBox="0 0 382 173" fill="none" xmlns="http://www.w3.org/2000/svg">
<path opacity="0.08" d="M7.64959 172.571C7.64959 172.571 -15.2844 115.876 18.2678 82.0196C61.5414 38.3617 117.451 74.8608 138.431 73.7877C159.411 72.7307 160.597 30.8345 223.281 25.8216C271.743 21.9459 351.34 21.6416 334.363 90.0914C321.455 142.125 393.284 115.171 379.303 172.667L7.64959 172.571Z" fill="#61A9FF"/>
<path d="M86.5883 144.218C86.5883 144.218 82.1269 139.023 86.3136 135.713C86.3136 135.713 89.3621 133.869 91.861 134.012C91.861 134.012 88.3285 139.926 89.4798 140.515C90.6181 141.104 92.9339 133.633 92.9339 133.633C92.9339 133.633 99.8812 132.953 102.118 134.039C102.118 134.039 96.1786 138.906 97.4215 139.194C98.6775 139.481 105.088 134.706 105.088 134.706C105.088 134.706 111.565 135.805 111.212 139.756C110.871 143.707 108.634 144.924 107.653 144.819C106.672 144.715 100.941 142.53 100.81 143.328C100.679 144.126 104.133 146.756 106.554 146.874C106.554 146.874 101.988 151.898 98.9654 150.458C95.93 149.006 95.6814 146.703 93.7843 145.84C91.9003 144.976 90.2779 144.976 91.0629 145.853C91.8479 146.73 95.2627 147.593 96.3487 149.503C97.4346 151.414 98.4028 152.709 95.2627 152.238C92.1227 151.767 87.0332 149.477 86.8108 146.847C86.5883 144.218 86.5883 144.218 86.5883 144.218Z" fill="#7EB9FF"/>
<path d="M108.045 139.86C108.045 139.86 90.4739 139.18 86.5881 144.204C86.5881 144.204 85.7246 146.769 83.0948 149.111L82.6892 150.236C82.6892 150.236 85.7377 147.03 86.8236 146.834C86.8236 146.847 85.1097 140.619 108.045 139.86Z" fill="#7EB9FF"/>
<path d="M83.0949 149.124C83.0949 149.124 79.3269 151.91 79.0652 156.895L79.7455 156.961C79.7455 156.961 80.9492 151.806 83.1211 149.791C85.306 147.776 83.0949 149.124 83.0949 149.124Z" fill="#7EB9FF"/>
<path d="M71.0054 137.676C71.0054 137.676 78.0967 133.712 74.7865 128.321C74.7865 128.321 72.1437 125.011 69.3045 124.161C69.3045 124.161 70.8222 132.194 69.3045 132.39C67.7869 132.573 68.2709 123.31 68.2709 123.31C68.2709 123.31 60.8003 119.712 57.8696 120C57.8696 120 62.5011 127.85 60.9834 127.654C59.4657 127.471 54.2716 119.529 54.2716 119.529C54.2716 119.529 46.6177 118.116 45.3879 122.643C44.158 127.183 46.1467 129.446 47.2719 129.734C48.4102 130.022 55.6846 129.917 55.5014 130.872C55.3183 131.814 50.3989 133.332 47.6513 132.482C47.6513 132.482 50.6736 139.952 54.651 139.573C58.6153 139.194 59.8452 136.734 62.3049 136.551C64.7646 136.368 66.557 137.022 65.3272 137.689C64.0973 138.356 59.9367 137.911 57.9481 139.599C55.9594 141.287 54.3501 142.321 58.0396 143.079C61.7292 143.838 68.3494 143.367 69.6709 140.528C71.0054 137.676 71.0054 137.676 71.0054 137.676Z" fill="#7EB9FF"/>
<path d="M48.8945 124.069C48.8945 124.069 68.7422 130.493 71.0188 137.676C71.0188 137.676 70.9272 140.894 72.9028 144.571V145.997C72.9028 145.997 70.8225 141.182 69.6842 140.515C69.6842 140.515 74.1326 134.274 48.8945 124.069Z" fill="#7EB9FF"/>
<path d="M72.903 144.571C72.903 144.571 75.9645 149.215 74.2244 154.881L73.4394 154.671C73.4394 154.671 74.1982 148.443 72.602 145.303C70.9928 142.163 72.903 144.571 72.903 144.571Z" fill="#7EB9FF"/>
<path d="M82.2836 132.194C82.2836 132.194 72.942 126.96 77.2988 119.856C77.2988 119.856 80.7921 115.499 84.5209 114.374C84.5209 114.374 82.5322 124.972 84.5209 125.22C86.5096 125.469 85.8946 113.262 85.8946 113.262C85.8946 113.262 95.7334 108.526 99.6062 108.905C99.6062 108.905 93.4962 119.241 95.4979 118.993C97.4866 118.744 104.342 108.277 104.342 108.277C104.342 108.277 114.43 106.406 116.052 112.385C117.675 118.365 115.058 121.361 113.566 121.727C112.075 122.106 102.471 121.976 102.72 123.219C102.969 124.462 109.445 126.463 113.056 125.338C113.056 125.338 109.066 135.177 103.832 134.68C98.5987 134.183 96.9764 130.938 93.7447 130.689C90.5 130.441 88.1319 131.317 89.7543 132.181C91.3766 133.057 96.8586 132.469 99.4753 134.693C102.092 136.917 104.212 138.291 99.3445 139.285C94.4905 140.279 85.7638 139.665 84.0237 135.923C82.2836 132.194 82.2836 132.194 82.2836 132.194Z" fill="#7EB9FF"/>
<path d="M111.446 114.257C111.446 114.257 85.2794 122.735 82.2832 132.194C82.2832 132.194 82.4141 136.433 79.7974 141.287V143.158C79.7974 143.158 82.5449 136.799 84.0364 135.936C84.0364 135.936 78.175 127.72 111.446 114.257Z" fill="#7EB9FF"/>
<path d="M79.7977 141.3C79.7977 141.3 75.7679 147.423 78.0576 154.894L79.0912 154.619C79.0912 154.619 78.0837 146.403 80.1902 142.268C82.3097 138.121 79.7977 141.3 79.7977 141.3Z" fill="#7EB9FF"/>
<path d="M81.9694 171.065C92.0829 171.065 100.273 162.875 100.273 152.761H63.6655C63.6655 162.862 71.8689 171.065 81.9694 171.065Z" fill="#283252"/>
<path d="M86.4832 170.921C85.7374 171.013 84.9786 171.065 84.2067 171.065C74.0931 171.065 65.9028 162.875 65.9028 152.761H70.4559C70.4428 162.09 77.4425 169.796 86.4832 170.921Z" fill="#283252"/>
<path d="M100.535 171.994H63.417C63.417 170.751 64.4244 169.731 65.6804 169.731H98.2846C99.5275 169.731 100.535 170.738 100.535 171.994Z" fill="#283252"/>
<path d="M100.692 152.748H63.0635V153.311H100.692V152.748Z" fill="#283252"/>
<path d="M293.957 164.403C293.957 164.403 294.421 171.898 295.862 171.994C296.055 172.01 303.213 172.01 303.213 172.01L312.342 171.962C312.342 171.962 312.278 169.768 309.62 169.287C306.945 168.823 302.477 166.949 300.859 163.41C299.178 159.71 293.957 164.403 293.957 164.403Z" fill="#060632"/>
<path d="M289.088 75.8218C289.088 75.8218 293.396 78.2721 294.613 78.2721C295.814 78.2721 300.555 77.3593 301.884 78.0319C303.197 78.7045 305.6 81.4272 306.048 82.308C306.849 83.9095 302.797 83.2049 300.891 81.8436C300.619 81.6514 300.267 81.5713 299.93 81.6514C298.937 81.8756 296.871 82.2439 295.878 81.8756C294.533 81.3791 287.486 80.8346 287.486 80.8346L289.088 75.8218Z" fill="#FFB8B8"/>
<path d="M256.272 42.4135C256.272 42.4135 260.741 74.188 268.14 77.0388C271.791 78.4481 287.935 81.6192 292.707 81.9395C292.707 81.9395 293.876 80.9946 293.588 77.1348C293.588 77.1348 276.676 70.9209 274.273 67.5416C270.702 62.5128 276.5 47.0099 271.999 42.2854C267.531 37.5768 259.972 35.5429 256.272 42.4135Z" fill="#C6D3ED"/>
<path d="M257.778 109.374C259.075 111.584 260.597 113.666 262.15 115.62C266.955 121.69 272.192 126.687 273.105 131.411C273.281 132.356 273.569 133.365 273.953 134.438C274.338 135.527 274.802 136.664 275.347 137.833C277.381 142.27 280.44 147.234 283.483 151.735C288.752 159.534 293.7 166.036 293.7 166.036L302.781 165.652C302.413 164.739 298.457 153.977 293.156 140.812C291.01 135.463 288.72 129.794 286.509 124.3C286.221 123.564 285.917 122.843 285.629 122.122C284.956 120.441 284.283 118.791 283.643 117.189C278.678 104.826 274.706 94.9921 274.706 94.9921C274.706 94.9921 254.831 87.4649 252.765 92.3496C251.051 96.3854 252.445 100.325 257.778 109.374Z" fill="#1F2844"/>
<path d="M272.944 143.006C272.944 143.006 266.634 147.058 267.243 148.387C267.323 148.564 270.814 154.81 270.814 154.81L275.315 162.753C275.315 162.753 277.205 161.632 276.308 159.07C275.411 156.507 274.866 151.687 277.173 148.564C279.575 145.264 272.944 143.006 272.944 143.006Z" fill="#060632"/>
<path d="M276.035 150.133C276.035 150.133 272.095 146.658 271.391 144.095C271.391 144.095 287.646 124.621 291.17 120.248C291.33 120.056 291.298 119.832 291.074 119.592C288.415 116.597 258.835 110.479 254.959 104.473C253.63 102.407 252.877 100.437 252.461 98.7077C251.58 95.0401 252.284 92.5097 252.284 92.5097L281.833 91.6609C281.833 91.6609 306.432 106.972 309.219 117.414C312.006 127.856 276.035 150.133 276.035 150.133Z" fill="#283252"/>
<path d="M291.09 119.592C288.431 116.597 258.851 110.479 254.975 104.473C253.646 102.407 252.893 100.437 252.477 98.7076V94.976L265.033 93.0061C265.033 93.0061 268.588 103.961 279.142 108.077C289.024 111.92 290.881 118.743 291.09 119.592Z" fill="#1F2844"/>
<path d="M273.745 40.4116C267.771 41.949 257.858 36.4237 257.858 36.4237C257.858 36.4237 261.702 33.8453 263.127 28.1598C263.207 27.8715 263.271 27.5832 263.319 27.2789C263.944 27.1508 265.129 26.8946 266.394 26.6223L270.959 30.7062C270.959 30.7062 270.846 32.4039 270.286 35.3187C270.19 35.8312 270.078 36.3757 269.95 36.9522C272.4 38.4897 273.745 40.4116 273.745 40.4116Z" fill="#FFB8B8"/>
<path d="M251.532 65.1875C252.381 76.7025 251.26 94.2073 252.236 97.2503C253.069 99.8608 262.63 98.3073 266.442 97.4425C267.851 97.1222 269.565 96.6577 271.327 96.1132C276.244 94.5917 281.609 92.4136 282.185 90.7961C282.201 90.732 282.233 90.6679 282.233 90.6039C282.281 90.3637 282.281 90.1555 282.217 89.9312C282.025 89.1145 281.288 88.2176 281.192 86.1836C281.096 83.9095 281.112 81.2189 281.016 78.3361C281.016 78.0158 281 77.6635 280.968 77.3271V77.215C280.968 77.151 280.968 77.0869 280.968 77.0228C280.888 73.8037 280.712 70.4245 280.52 67.0773C280.392 64.9793 280.247 62.8813 280.087 60.8953C279.655 55.7384 279.078 51.158 278.31 48.2432C277.06 43.5187 274.306 40.4277 271.791 38.1695L269.982 36.616C267.948 37.0645 265.561 36.7602 263.383 35.7352C261.029 34.6141 260.228 33.8293 259.812 34.1176C254.431 38.2976 250.523 51.1099 251.532 65.1875Z" fill="#C6D3ED"/>
<path d="M271.327 96.0972C276.244 94.5758 281.609 92.3977 282.185 90.7801C282.201 90.7161 282.233 90.652 282.233 90.5879C282.233 90.3637 282.233 90.1395 282.217 89.9153C282.025 89.0985 281.288 88.2016 281.192 86.1677C281.096 83.8935 281.112 81.2029 281.016 78.3202C281.016 77.9998 281 77.6475 280.968 77.3112V77.1991C280.968 77.135 280.968 77.071 280.968 77.0069L261.061 51.6545C261.093 51.6706 247.704 79.5213 271.327 96.0972Z" fill="#C6D3ED"/>
<path d="M270.975 30.7223C270.975 30.7223 270.862 32.4199 270.302 35.3347C265.85 33.8933 263.816 29.8734 263.143 28.1598C263.223 27.8715 263.287 27.5832 263.335 27.2789C263.96 27.1508 265.145 26.8946 266.41 26.6223L270.975 30.7223Z" fill="#EA8888"/>
<path d="M271.567 33.2847C271.567 33.2847 261.846 31.6671 262.951 25.6293C264.056 19.5915 263.543 15.3154 269.789 16.1002C276.035 16.8849 276.82 19.3994 276.948 21.5134C277.076 23.6114 274.13 33.557 271.567 33.2847Z" fill="#FFB8B8"/>
<path d="M309.851 84.9812L310.704 85.2583L317.998 62.8083L317.145 62.5312L309.851 84.9812Z" fill="#283252"/>
<path d="M285.908 84.7032L310.679 85.2322L310.711 83.743L285.94 83.2141L285.908 84.7032Z" fill="#283252"/>
<path d="M286.429 85.8955C286.429 85.8955 294.389 87.9935 297.368 87.7693C300.347 87.5451 302.829 86.1357 303.213 85.383C303.582 84.6463 304.382 83.333 302.348 83.5733C300.315 83.8135 297.544 84.2459 297.464 83.8615C297.384 83.4772 299.113 83.5092 299.113 83.5092C299.113 83.5092 299.642 82.7405 298.969 82.7084C298.313 82.6764 296.375 82.1479 295.654 82.5162C294.933 82.8686 294.277 84.1979 293.748 84.1498C293.22 84.1018 287.086 81.3792 287.086 81.3792L286.429 85.8955Z" fill="#FFB8B8"/>
<path d="M258.242 43.7268C258.242 43.7268 259.187 75.8056 266.234 79.4571C269.709 81.2508 285.405 86.1996 290.113 87.0484C290.113 87.0484 291.378 86.2316 291.522 82.3559C291.522 82.3559 275.395 74.3162 273.377 70.6967C270.382 65.2995 277.845 50.5333 273.905 45.3443C269.966 40.1554 262.679 37.3046 258.242 43.7268Z" fill="#C6D3ED"/>
<path d="M263.143 28.1599C263.143 28.1599 263.031 26.094 264.312 24.9088C264.312 24.9088 263.864 22.8268 264.697 22.4905C265.513 22.1542 265.689 23.8999 266.074 23.6276C266.458 23.3553 268.124 22.0581 268.844 20.1362C269.565 18.2144 276.147 20.5366 276.916 20.889C277.685 21.2413 280.151 19.9601 280.632 18.9351C280.632 18.9351 279.254 17.846 278.646 17.0132C278.037 16.1965 273.713 10.6391 267.691 12.2246C261.67 13.7941 260.837 16.6769 261.189 19.1433C261.493 21.5936 260.677 27.3271 263.143 28.1599Z" fill="#283252"/>
<path d="M285.517 152.343C283.659 164.259 271.503 171.834 259.043 171.834H234.347L236.285 102.407C236.285 102.407 259.844 94.8481 265.754 102.039C270.943 108.333 284.988 133.285 285.741 148.051C285.805 149.541 285.725 150.966 285.517 152.343Z" fill="#DDE8FD"/>
<path d="M219.965 109.758C219.965 109.758 253.277 92.7501 259.587 103.865C262.935 109.758 272.159 133.285 272.832 148.051C273.489 162.401 261.061 171.834 248.281 171.834H225.571L219.965 109.758Z" fill="#AEC4F2"/>
<path d="M226.228 119.191C225.939 120.633 223.249 121.978 219.245 123.163C218.54 123.371 217.787 123.58 217.019 123.772C203.406 127.247 179.27 129.185 176.98 128.16C173.809 126.735 154.302 57.4521 154.302 57.4521C154.302 57.4521 172.912 56.7474 187.711 56.4111C192.771 56.299 197.384 56.2189 200.635 56.235C201.035 56.235 201.404 56.267 201.756 56.315C203.165 56.5232 204.222 57.0998 205.039 57.9966C207.426 60.5591 208.002 65.6039 210.212 71.1933C212.39 76.7186 215.065 83.6052 217.595 90.4438C218.252 92.2055 218.893 93.9672 219.517 95.6969C219.693 96.1933 219.869 96.6738 220.046 97.1543C223.793 107.66 226.676 116.853 226.228 119.191Z" fill="#BED2FA"/>
<path d="M285.516 152.343C283.659 164.259 271.503 171.834 259.043 171.834H246.935C254.991 166.357 262.294 149.492 285.516 152.343Z" fill="#BED2FA"/>
<path d="M220.046 97.1703C219.421 97.0742 218.62 96.9301 217.723 96.7859C217.531 96.5937 217.387 96.4015 217.291 96.2094C216.923 95.4086 217.179 93.1024 217.595 90.4598C215.065 83.6213 212.39 76.7347 210.212 71.2093C208.002 65.62 207.426 60.5751 205.039 58.0127C204.206 57.1158 203.165 56.5232 201.756 56.3311C199.786 56.3631 197.72 56.3951 195.574 56.4271C194.821 57.9326 193.508 59.358 191.234 60.5431C181.128 65.8602 188.623 76.8147 188.623 76.8147C188.704 76.8628 192.627 84.6943 192.627 84.6943C192.611 84.1498 193.14 83.1728 194.053 81.9236C194.725 86.6001 195.814 91.3727 197.112 94.8C196.391 98.4195 194.565 103.785 193.588 107.901C192.803 111.184 192.563 113.65 193.86 113.778C194.005 113.794 194.165 113.794 194.341 113.778C194.261 114.915 194.485 116.133 195.126 117.382C197.656 122.282 209.828 123.163 219.245 123.179C223.249 121.994 225.939 120.649 226.228 119.207C226.676 116.853 223.793 107.66 220.046 97.1703Z" fill="#ABBDE3"/>
<path d="M266.074 161.168C261.301 167.782 253.998 172.042 245.846 171.898L210.837 171.914L194.069 171.93L212.935 109.774C212.935 109.774 260.709 105.018 266.586 111.36C269.325 114.307 270.862 127.632 271.711 141.052C272.208 148.628 269.998 155.707 266.074 161.168Z" fill="#BED2FA"/>
<path d="M266.074 161.168C261.301 167.782 253.998 172.042 245.847 171.898L210.837 171.914C214.953 168.455 227.909 158.637 241.779 159.102C252.301 159.47 260.661 159.31 266.074 161.168Z" fill="#AEC4F2"/>
<path d="M223.024 66.2605C223.024 66.2605 225.939 70.5686 227.589 79.6173C229.046 87.5449 230.311 90.4758 232.409 92.0933C234.507 93.7109 246.199 98.5155 246.199 98.5155L245.318 100.565C245.318 100.565 228.181 98.2272 226.26 95.3605C224.338 92.4937 217.003 75.5815 217.563 71.6737C218.156 67.798 223.024 66.2605 223.024 66.2605Z" fill="#FCA09E"/>
<path d="M264.985 160.799C264.824 162.465 267.163 162.881 269.853 163.009C272.544 163.138 271.727 163.698 275.427 164.371C279.126 165.043 280.6 164.034 280.872 163.522C281.112 163.073 279.398 162.385 277.557 161.6C277.333 161.504 277.092 161.408 276.868 161.296C274.802 160.383 273.649 158.541 272.047 156.827C270.526 155.21 269.085 150.005 269.085 150.005L264.072 148.932C264.072 148.932 265.481 153.608 265.978 155.594C266.266 156.763 265.833 158.077 265.465 159.086C265.241 159.662 265.049 160.207 264.985 160.799Z" fill="#FDB3B1"/>
<path d="M269.854 163.01C272.544 163.138 271.727 163.698 275.427 164.371C279.126 165.044 280.6 164.035 280.872 163.522C281.112 163.074 279.399 162.385 277.557 161.6L277.525 161.632C277.525 161.632 274.93 162.513 271.936 161.696C269.485 161.04 267.131 159.566 265.449 159.102C265.241 159.646 265.049 160.207 264.985 160.783C264.841 162.465 267.163 162.881 269.854 163.01Z" fill="#FD396D"/>
<path d="M215.017 101.286C215.017 101.286 248.361 98.7717 254.639 102.743C260.917 106.699 270.99 152.856 270.99 152.856C270.99 152.856 270.366 153.352 268.988 153.496C267.691 153.64 264.857 152.872 264.857 152.872C264.857 152.872 250.379 132.228 249.37 127.023C248.345 121.818 248.601 117.173 246.279 117.061C243.956 116.933 215.033 120.585 210.644 112.865C206.272 105.162 209.892 97.5225 209.892 97.5225L215.017 101.286Z" fill="#353F61"/>
<path d="M252.236 166.148C252.076 167.814 254.414 168.23 257.105 168.359C259.796 168.487 258.979 169.047 262.678 169.72C266.378 170.392 267.851 169.384 268.124 168.871C268.364 168.423 266.65 167.734 264.808 166.949C264.584 166.853 264.344 166.757 264.12 166.645C262.054 165.732 260.901 163.89 259.299 162.177C257.778 160.559 256.336 155.354 256.336 155.354L251.323 154.281C251.323 154.281 252.733 158.958 253.229 160.943C253.518 162.113 253.085 163.426 252.717 164.435C252.493 165.011 252.284 165.572 252.236 166.148Z" fill="#FDB3B1"/>
<path d="M257.105 168.375C259.796 168.503 258.979 169.063 262.678 169.736C266.378 170.408 267.851 169.4 268.124 168.887C268.364 168.439 266.65 167.75 264.808 166.965L264.776 166.997C264.776 166.997 262.182 167.878 259.187 167.061C256.737 166.405 254.382 164.931 252.701 164.467C252.493 165.011 252.3 165.572 252.236 166.148C252.076 167.83 254.398 168.23 257.105 168.375Z" fill="#FD396D"/>
<path d="M208.482 103.352C208.482 103.352 238.111 104.761 244.229 108.957C250.346 113.153 258.61 159.662 258.61 159.662C258.61 159.662 257.97 160.143 256.576 160.239C255.279 160.335 252.477 159.454 252.477 159.454C252.477 159.454 238.815 138.25 237.999 133.013C237.182 127.776 237.614 123.147 235.292 122.939C232.97 122.731 203.918 125.245 199.85 117.366C195.782 109.502 208.482 103.352 208.482 103.352Z" fill="#353F61"/>
<path d="M219.037 38.1694C217.723 37.3046 216.09 37.1124 214.937 37.0964C215.257 36.8081 215.834 36.744 215.834 36.744C215.129 36.5839 213.495 37.1925 213.495 37.1925C203.87 32.7242 201.34 47.17 201.324 50.5653C201.308 53.9606 201.067 57.8523 195.942 60.5589C185.837 65.876 193.332 76.8305 193.332 76.8305C193.412 76.8786 197.336 84.7101 197.336 84.7101C197.272 81.9555 210.837 68.3904 217.691 64.5147C219.453 62.2725 220.302 58.1406 220.366 57.8203C219.869 61.1034 219.181 62.9132 218.604 63.9221C224.53 59.1495 222.528 40.4596 219.037 38.1694Z" fill="#E94A74"/>
<path d="M207.233 61.312C207.233 61.312 209.844 61.4241 212.614 61.6804C214.488 61.8565 216.49 62.0647 217.547 62.5132C220.158 63.6022 219.885 68.2307 214.408 67.3658C208.931 66.517 206.849 62.6733 207.233 61.312Z" fill="#FDB3B1"/>
<path d="M217.307 64.6749C217.339 64.691 218.092 68.6468 214.504 68.4866C212.15 68.3905 207.073 65.5398 207.522 63.5218C207.73 62.5609 209.507 60.0785 209.876 54.3931L210.308 54.5052L217.515 56.443C217.515 56.443 217.195 58.7332 217.051 60.8953C216.923 62.7211 216.907 64.4667 217.307 64.6749Z" fill="#FDB3B1"/>
<path d="M217.515 56.4591C217.515 56.4591 217.195 58.7493 217.051 60.9114C212.967 60.527 211.061 56.6513 210.308 54.5212L217.515 56.4591Z" fill="#FCA09E"/>
<path d="M209.604 53.6724C209.604 53.6724 207.682 50.149 207.362 47.2182C207.137 45.1202 208.691 37.5449 216.314 39.1624C216.314 39.1624 218.54 39.5308 220.542 41.0843C222.144 42.3175 224.386 44.928 221.247 51.4302L220.398 53.6403L209.604 53.6724Z" fill="#E94A74"/>
<path d="M218.732 58.6053C218.732 58.6053 209.059 58.1248 209.444 52.103C209.844 46.0813 208.851 41.9653 215.049 42.0134C221.247 42.0614 222.288 44.4477 222.656 46.4816C223.025 48.5156 221.263 58.5733 218.732 58.6053Z" fill="#FDB3B1"/>
<path d="M219.469 42.1413C219.469 42.1413 216.346 49.0279 212.214 49.8127C208.082 50.5814 206.385 49.3803 206.385 49.3803C206.385 49.3803 209.668 47.1061 210.597 42.83C210.613 42.83 217.707 38.6499 219.469 42.1413Z" fill="#E94A74"/>
<path d="M218.78 42.6697C218.78 42.6697 220.654 44.3833 221.038 45.9528C221.423 47.5223 221.423 50.6934 222.352 50.6453C222.352 50.6453 224.674 45.9688 222.608 43.1021C220.414 40.0592 218.78 42.6697 218.78 42.6697Z" fill="#E94A74"/>
<path d="M228.422 101.799C227.637 102.728 225.187 103.016 222.576 103.448C220.526 103.785 218.364 104.217 216.827 105.114C213.335 107.164 201.932 114.083 198.585 113.778C197.288 113.65 197.528 111.184 198.313 107.901C199.546 102.712 202.141 95.5207 202.141 92.3977C202.141 90.6841 202.701 86.6482 203.47 82.0198C203.534 81.6514 203.598 81.267 203.662 80.8987C205.167 71.914 207.249 61.3279 207.249 61.3279C207.249 61.3279 209.572 66.3887 214.088 66.3887C218.604 66.3887 217.563 62.529 217.563 62.529C217.563 62.529 221.679 63.0095 222.656 64.0665C223.633 65.1235 226.1 69.6559 226.596 70.8891C226.596 70.8891 226.692 72.4586 222.8 73.2113C222.8 73.2113 223.745 77.4874 223.857 80.3381C223.937 82.4362 222.416 89.0185 221.984 93.1184C221.823 94.5758 221.807 95.7129 222.048 96.2254C222.352 96.882 223.329 97.5387 224.434 98.1953C226.612 99.4445 229.351 100.678 228.422 101.799Z" fill="#FF9777"/>
<path d="M224.418 98.1634C226.916 102.423 217.643 103.705 216.106 104.618C212.614 106.668 201.948 114.099 198.601 113.778C197.304 113.65 197.544 111.184 198.329 107.901C199.562 102.712 202.156 95.5208 202.156 92.3978C202.156 90.6842 202.717 86.6483 203.486 82.0199L207.506 78.1602C207.506 78.1602 211.814 89.3069 215.93 91.1326C218.076 92.0935 220.334 92.7181 221.983 93.1025C221.823 94.5599 221.807 95.697 222.048 96.2095C222.336 96.8501 223.313 97.5228 224.418 98.1634Z" fill="#FF9777"/>
<path d="M206 64.643C206 64.643 202.557 62.561 199.241 66.5168C195.91 70.4726 201.612 98.8038 206.528 100.261C212.006 101.879 227.813 100.005 227.813 100.005L227.509 97.5386C227.509 97.5386 210.676 94.3035 209.972 93.4066C209.283 92.5098 207.746 65.1074 206 64.643Z" fill="#FDB3B1"/>
<path d="M207.233 61.312C207.233 61.312 200.17 61.9526 198.12 64.2749C196.07 66.5971 195.462 72.8911 195.462 72.8911C195.462 72.8911 201.676 77.92 209.171 75.9661L207.233 61.312Z" fill="#FF9777"/>
<path d="M238.799 101.318H229.462V102.423H238.799V101.318Z" fill="#4E5A7E"/>
<path d="M236.814 102.279C236.91 101.91 245.398 88.5857 245.398 88.5857H264.28L254.815 101.91L236.814 102.279Z" fill="#4E5A7E"/>
<path d="M237.615 102.423C237.711 102.055 246.215 88.5857 246.215 88.5857H264.28L255.263 102.423H237.615Z" fill="#283252"/>
<path d="M253.534 95.5526C253.342 96.0972 252.765 96.5296 252.22 96.5296C251.676 96.5296 251.388 96.0972 251.58 95.5526C251.772 95.0081 252.349 94.5757 252.893 94.5757C253.422 94.5757 253.71 95.0081 253.534 95.5526Z" fill="#7EB9FF"/>
<path d="M226.132 97.3784C226.132 97.3784 231.609 96.3214 232.233 96.5777C232.858 96.8499 236.301 99.9409 235.949 100.549C235.597 101.174 234.187 101.606 232.586 101.078C231 100.549 227.541 100.277 226.932 99.4925C226.308 98.7077 226.132 97.3784 226.132 97.3784Z" fill="#FDB3B1"/>
<path d="M237.054 152.952C235.052 164.499 224.066 171.818 212.807 171.818H190.097L191.875 102.391C191.875 102.391 213.543 94.8319 218.989 102.023C223.761 108.317 236.686 133.269 237.358 148.035C237.438 149.765 237.326 151.398 237.054 152.952Z" fill="#DDE8FD"/>
<path d="M237.054 152.952C235.052 164.499 224.065 171.818 212.807 171.818H194.629C203.133 166.068 214.584 150.133 237.054 152.952Z" fill="#BED2FA"/>
<path d="M201.852 171.786C201.676 171.802 201.516 171.802 201.34 171.818C200.987 171.834 200.619 171.85 200.267 171.85C200.155 171.85 200.026 171.85 199.914 171.85H177.204V171.834C176.772 171.834 176.34 171.85 175.891 171.85C173.553 171.882 171.119 171.914 168.844 171.93C168.46 171.93 168.092 171.93 167.723 171.946C167.579 171.946 167.451 171.946 167.323 171.946C165.081 171.962 163.111 171.962 161.702 171.962C159.716 171.946 157.842 171.802 156.08 171.53C153.806 171.177 151.724 170.585 149.818 169.736C149.13 169.432 148.473 169.095 147.832 168.727C146.967 168.23 146.151 167.67 145.366 167.045C143.348 165.444 141.602 163.394 140.129 160.895C139.104 159.15 138.191 157.18 137.406 154.97C136.413 152.183 135.629 149.028 135.02 145.457C134.155 140.348 133.643 134.406 133.499 127.535C133.434 124.765 133.434 121.85 133.482 118.775C133.563 113.858 133.787 108.557 134.139 102.824C134.636 94.7678 135.404 85.8953 136.413 76.1259C137.326 67.2054 138.399 60.9593 139.937 59.534C142.211 57.436 146.951 56.5871 150.251 56.2508C152.301 56.0426 153.79 56.0266 153.79 56.0266C157.826 56.0266 161.413 58.9254 162.695 63.2175C165.337 71.9779 170.03 87.641 174.93 104.025C174.962 104.105 174.978 104.185 175.01 104.265C175.299 105.21 175.571 106.155 175.859 107.1C175.907 107.244 175.939 107.388 175.987 107.532C176.26 107.404 176.548 107.276 176.852 107.148C176.868 107.148 176.868 107.132 176.884 107.132C178.053 106.619 179.383 106.043 180.824 105.466C181.561 105.162 182.345 104.858 183.13 104.553C185.372 103.688 187.791 102.84 190.241 102.119C191.33 101.799 192.419 101.494 193.508 101.222C194.902 100.87 196.295 100.581 197.64 100.357C197.688 100.341 197.72 100.341 197.752 100.341C197.912 100.309 198.073 100.293 198.233 100.261C204.062 99.4123 209.123 100.005 211.221 103.688C214.568 109.598 223.793 133.205 224.466 148.003C225.09 161.664 213.928 170.873 201.852 171.786Z" fill="#BED2FA"/>
<path d="M165.433 110.303C165.433 110.303 153.774 62.817 152.941 58.8292C152.573 57.0515 151.404 56.4109 150.25 56.2347C152.3 56.0265 153.79 56.0105 153.79 56.0105C157.826 56.0105 161.413 58.8933 162.694 63.1854C165.513 72.5384 170.718 89.7869 175.987 107.372C175.715 107.372 165.433 110.303 165.433 110.303Z" fill="#DDE8FD"/>
<path d="M110.873 39.4756L116.062 38.9791C116.479 38.9471 116.879 39.1713 117.039 39.5557L120.963 48.9887C121.203 49.5813 120.819 50.2379 120.178 50.302L114.781 50.8145C114.365 50.8625 113.964 50.6063 113.804 50.2219L110.104 40.7728C109.848 40.1803 110.249 39.5396 110.873 39.4756Z" fill="#283252"/>
<path d="M176.633 164.011L173.878 165.469C173.878 165.469 159 149.693 155.412 134.543C154.772 131.836 154.515 129.178 154.788 126.647C154.788 126.647 154.563 125.959 154.195 124.741C154.179 124.693 154.163 124.629 154.147 124.581C153.987 124.053 153.779 123.428 153.555 122.708C152.834 120.417 151.857 117.294 150.72 113.723C148.125 105.523 142.2 87.0092 139.669 79.3218L157.863 72.7395C157.863 72.7395 159.929 77.448 162.891 90.2603C163.356 91.9259 163.804 93.7837 164.237 95.8017C164.717 98.0758 165.182 100.574 165.55 103.281C166.191 107.845 166.607 112.986 166.639 118.624C166.655 120.914 166.591 123.3 166.463 125.75C166.367 127.544 166.623 129.946 167.136 132.669C169.458 145.129 176.633 164.011 176.633 164.011Z" fill="#1F2844"/>
<path d="M186.61 170.994H171.892C171.892 170.994 171.347 168.64 172.308 167.054C173.157 165.645 172.837 164.844 172.196 163.675C172.869 163.947 173.718 164.203 174.679 164.139C175.415 164.091 176.184 163.771 176.873 163.37C177.513 164.091 180.22 167.166 181.069 167.775C182.014 168.447 186.306 168.207 186.61 170.994Z" fill="#0D0D38"/>
<path d="M165.582 103.297L154.147 124.597C153.987 124.069 153.779 123.444 153.555 122.724C152.834 120.433 151.857 117.31 150.72 113.739C148.125 105.539 142.2 87.0253 139.669 79.3379L157.863 72.7556C157.863 72.7556 159.929 77.4641 162.891 90.2765C163.356 91.9421 163.804 93.7998 164.237 95.8178C164.765 98.092 165.214 100.59 165.582 103.297Z" fill="#1F2844"/>
<path d="M116.046 56.3078C115.95 56.3879 111.594 51.9356 109.272 49.4532L111.61 48.0278L124.342 56.0195L116.046 56.3078Z" fill="#FDB3B1"/>
<path d="M139.397 166.382C139.397 166.382 139.06 168.88 140.005 170.994H146.107C146.107 170.994 146.155 169.168 144.602 166.894C143.048 164.604 139.397 166.382 139.397 166.382Z" fill="#0D0D38"/>
<path d="M151.408 3.79331C151.489 3.40894 152.529 -0.771078 159 0.125783C159 0.125783 155.765 -0.0503862 154.98 1.24686C154.98 1.24686 157.43 -0.0984323 159.096 0.766399C160.761 1.63123 161.258 4.88235 161.082 5.89132C160.922 6.90029 159.368 9.99126 158.215 10.0713C157.783 10.1034 157.286 9.99126 156.87 9.83111C157.078 10.3436 157.286 10.9041 157.462 11.5287C159.112 17.2462 155.572 21.9387 153.49 20.9938C152.161 20.3852 151.344 22.6915 151.344 22.6915L139.701 9.36666C139.717 9.36666 146.492 -0.0503859 151.408 3.79331Z" fill="#283252"/>
<path d="M139.509 39.5238C141.03 40.5809 142.936 41.4457 145.322 41.9902C154.275 44.0562 157.718 36.4809 159 31.2919C157.782 30.5873 156.629 30.4431 155.973 30.363C155.332 30.283 154.643 30.2349 154.083 30.2029C153.074 29.4342 151.584 26.2791 151.248 21.3784L150.832 21.4905L143.769 23.4284C143.769 23.4284 144.089 25.6705 144.249 27.8006C144.377 29.4662 144.393 31.0517 144.073 31.4361C143.529 31.5482 143.192 31.6283 143.192 31.6283C143.08 31.7884 141.03 35.1677 139.509 39.5238Z" fill="#FDB3B1"/>
<path d="M143.753 23.4282C143.753 23.4282 144.073 25.6703 144.233 27.8004C148.237 27.4 150.095 23.5883 150.816 21.5063L143.753 23.4282Z" fill="#FC9492"/>
<path d="M142.552 25.5424C142.552 25.5424 152.049 25.0139 151.632 19.1042C151.216 13.1945 152.161 9.15864 146.075 9.23872C139.989 9.3188 138.98 11.657 138.644 13.659C138.308 15.6769 140.069 25.5264 142.552 25.5424Z" fill="#FDB3B1"/>
<path d="M138.692 10.3596C140.037 8.46982 141.158 8.79012 141.831 9.27059C146.812 6.05149 150.447 10.0233 150.447 10.0233C151.392 14.2193 154.611 16.4295 154.611 16.4295C154.611 16.4295 152.962 17.6146 148.894 16.8779C147.661 16.6537 146.508 15.8689 145.515 14.876C147.324 17.4705 149.663 19.2482 149.663 19.2482C144.746 17.3904 142.36 10.9042 142.119 10.2155C141.575 10.776 140.518 11.9932 140.246 13.1143C139.877 14.6518 139.893 17.7587 138.98 17.7267C138.98 17.7587 136.674 13.1783 138.692 10.3596Z" fill="#283252"/>
<path d="M141.014 31.1475C141.014 31.1475 156.485 27.3999 163.212 32.9412L159.848 79.8182L129.595 72.5152C129.595 72.5152 130.444 69.5524 136.242 61.6568C142.055 53.7772 139.525 42.1981 141.014 31.1475Z" fill="#FDB3B1"/>
<path d="M150.031 74.5972C150.031 74.5972 150.015 74.7574 149.983 75.0617C149.967 75.1898 149.951 75.35 149.935 75.5261C149.807 76.7433 149.55 79.0655 149.246 82.1085C148.413 90.0521 147.116 102.832 146.219 112.906C145.531 120.786 145.082 127.016 145.322 128.025C146.043 131.035 145.322 167.054 145.322 167.054C142.744 168.287 138.852 167.054 138.852 167.054C138.852 167.054 132.014 134.591 132.959 130.091C133.919 125.574 132.318 121.731 132.318 121.731C127.001 96.9707 127.577 83.2456 128.634 76.6792C128.939 74.7734 129.291 73.4602 129.547 72.6754C129.755 72.0028 129.916 71.6825 129.916 71.6825C141.639 68.5114 150.031 74.5972 150.031 74.5972Z" fill="#283252"/>
<path d="M159.848 79.8183C156.245 81.3397 152.641 81.9964 149.246 82.1085C146.139 82.2206 143.176 81.8522 140.518 81.2757C134.72 80.0105 130.3 77.6722 128.65 76.6632C128.955 74.7574 129.307 73.4441 129.563 72.6594C133.135 70.1129 141.959 72.5473 149.182 75.2539C149.438 75.35 149.695 75.4461 149.951 75.5422C155.46 77.6402 159.848 79.8183 159.848 79.8183Z" fill="#0D0D38"/>
<path d="M165.294 46.3142C164.541 51.9516 161.562 58.8542 160.489 62.5698C160.489 62.5698 162.267 75.4622 160.569 79.0016C160.377 79.4019 160.137 79.6902 159.848 79.8183C153.538 82.573 128.971 79.8984 127.946 71.9708C127.561 69.088 137.299 58.9663 137.875 57.7331C138.116 57.2206 138.356 55.5711 137.219 52.1598C135.601 57.1406 132.606 62.9061 129.611 63.883C126.312 64.9561 113.26 55.2347 113.26 55.2347C113.26 55.2347 113.18 54.0496 114.829 52.9285C115.886 52.2078 118.321 51.9676 118.321 51.9676L126.665 55.6992C127.706 53.9055 130.316 41.5095 133.231 35.9042C135.425 31.6921 141.271 31.0835 141.271 31.0835C141.271 31.0835 143.705 34.9432 149.599 34.3987C155.492 33.8542 156.565 30.2507 156.565 30.2507C156.565 30.2507 161.786 30.9394 163.404 32.2366C163.676 32.4929 166.271 38.9311 165.294 46.3142Z" fill="#FF6B93"/>
<path d="M160.489 62.5698C160.489 62.5698 162.267 75.4622 160.569 79.0016C155.973 76.6954 149.983 71.7146 151.809 63.9311C154.451 52.6243 165.294 46.3142 165.294 46.3142C164.541 51.9516 161.562 58.8543 160.489 62.5698Z" fill="#FF6B93"/>
<path d="M156.565 53.9055C156.565 53.9055 150.031 54.8504 149.503 55.3469C148.974 55.8274 147.18 58.6781 147.405 59.655C147.629 60.648 147.597 61.657 147.997 61.5929C148.397 61.5288 149.711 59.0144 150.191 58.9023C150.688 58.7902 151.088 58.4539 151.152 58.6621C151.216 58.8863 150.143 59.9433 150.207 60.2316C150.255 60.5359 151.104 60.1835 151.472 59.591C151.841 59.0144 152.786 58.7261 152.93 58.3578C153.074 57.9894 153.715 56.7883 154.595 56.8523C155.492 56.9164 156.565 53.9055 156.565 53.9055Z" fill="#FDB3B1"/>
<path d="M162.939 53.6492L156.565 53.9054L154.387 56.8683L163.052 57.1565L162.939 53.6492Z" fill="#FDB3B1"/>
<path d="M156.565 30.2668C156.565 30.2668 164.157 31.1637 166.239 34.4148C168.881 38.5308 178.202 52.1599 178.01 56.2918C178.01 56.2918 172.196 58.6141 156.565 57.3649C156.565 57.3649 156.277 54.9946 159.576 53.1048C159.576 53.1048 167.968 51.9517 168.897 51.1349L162.667 44.5205L156.565 30.2668Z" fill="#FF6B93"/>
<path d="M109.736 39.5718L114.925 39.0753C115.342 39.0433 115.742 39.2675 115.902 39.6518L119.826 49.0849C120.066 49.6775 119.682 50.3341 119.041 50.3982L113.644 50.9107C113.228 50.9587 112.827 50.7025 112.667 50.3181L108.967 40.869C108.711 40.2764 109.112 39.6358 109.736 39.5718Z" fill="#283252"/>
<path d="M109.272 49.453C109.272 49.453 107.894 47.0827 108.006 46.5061C108.103 45.9296 109.528 43.223 110.249 42.9507C111.546 42.4703 113.372 42.182 112.875 43.5433C112.539 44.4401 111.226 45.7534 111.466 46.1698C111.69 46.5862 111.61 48.0276 111.61 48.0276L109.272 49.453Z" fill="#FDB3B1"/>
</svg>
