<svg width="325" height="145" viewBox="0 0 325 145" fill="none" xmlns="http://www.w3.org/2000/svg">
<path d="M294.5 142H30.5C29.6716 142 29 142.672 29 143.5C29 144.328 29.6716 145 30.5 145H294.5C295.328 145 296 144.328 296 143.5C296 142.672 295.328 142 294.5 142Z" fill="#E5E9F2"/>
<g opacity="0.7">
<path opacity="0.7" d="M272.04 118.277V112.968H245.491V137.525C245.491 138.205 245.625 138.878 245.886 139.506C246.146 140.135 246.527 140.705 247.008 141.186C247.489 141.667 248.059 142.048 248.687 142.308C249.315 142.568 249.989 142.702 250.668 142.702H266.863C268.236 142.702 269.553 142.157 270.524 141.186C271.495 140.215 272.04 138.898 272.04 137.525V132.083C273.869 132.079 275.621 131.35 276.913 130.056C278.204 128.762 278.93 127.008 278.93 125.18C278.93 123.352 278.204 121.598 276.913 120.304C275.621 119.01 273.869 118.281 272.04 118.277ZM272.04 129.428V120.932C273.167 120.932 274.247 121.38 275.044 122.176C275.841 122.973 276.288 124.053 276.288 125.18C276.288 126.307 275.841 127.387 275.044 128.184C274.247 128.98 273.167 129.428 272.04 129.428Z" fill="url(#paint0_linear_3544_43725)"/>
</g>
<path d="M271.186 119.108C269.94 119.108 268.721 119.478 267.685 120.171C266.648 120.863 265.841 121.847 265.364 122.999C264.887 124.151 264.762 125.418 265.005 126.64C265.248 127.863 265.848 128.986 266.73 129.867C267.611 130.749 268.734 131.349 269.957 131.592C271.179 131.835 272.446 131.711 273.598 131.234C274.75 130.757 275.734 129.949 276.427 128.912C277.119 127.876 277.489 126.657 277.489 125.411C277.489 123.739 276.825 122.136 275.643 120.954C274.461 119.772 272.858 119.108 271.186 119.108ZM271.186 129.289C270.419 129.289 269.669 129.062 269.032 128.636C268.394 128.21 267.897 127.604 267.603 126.895C267.309 126.186 267.233 125.407 267.382 124.654C267.532 123.902 267.901 123.211 268.444 122.668C268.986 122.126 269.677 121.757 270.43 121.607C271.182 121.457 271.962 121.534 272.67 121.828C273.379 122.121 273.985 122.618 274.411 123.256C274.837 123.894 275.065 124.644 275.065 125.411C275.065 126.439 274.656 127.426 273.929 128.153C273.201 128.881 272.215 129.289 271.186 129.289Z" fill="#61A9FF"/>
<path d="M246.946 114.26H271.186V138.251C271.186 139.089 270.854 139.892 270.261 140.484C269.669 141.077 268.866 141.409 268.028 141.409H250.104C249.266 141.409 248.463 141.077 247.871 140.484C247.279 139.892 246.946 139.089 246.946 138.251V114.26Z" fill="#61A9FF"/>
<path opacity="0.1" d="M266.823 114.26V136.683C266.823 137.936 266.325 139.138 265.438 140.025C264.552 140.911 263.349 141.409 262.096 141.409H264.52C265.773 141.409 266.976 140.911 267.862 140.025C268.749 139.138 269.247 137.936 269.247 136.683V114.26H266.823Z" fill="black"/>
<path d="M251.729 96.1883C251.321 96.2583 250.859 96.3686 250.659 96.7318C250.341 97.3083 250.917 97.9582 251.443 98.3542C252.414 99.086 253.438 99.8048 254.099 100.826C254.759 101.847 254.966 103.273 254.244 104.252C253.302 105.53 251.053 105.805 250.836 107.378C250.696 108.387 251.569 109.249 252.454 109.756C254.637 111.007 257.452 111.34 259.034 113.297C259.688 111.952 261.151 111.174 262.61 110.842C264.069 110.51 265.584 110.535 267.063 110.31C267.541 110.237 268.078 110.091 268.292 109.658C268.705 108.819 267.527 107.813 267.934 106.97C268.243 106.329 269.152 106.379 269.816 106.122C270.898 105.704 271.343 104.313 271.037 103.195C270.73 102.077 269.863 101.204 268.952 100.487C266.495 98.5572 263.541 97.422 260.554 96.6055C259.165 96.2258 257.533 95.6303 256.09 95.5727C254.697 95.5172 253.108 95.9524 251.729 96.1883Z" fill="#EEEEEE"/>
<path d="M166.65 39.9397C175.1 39.9397 181.951 33.0889 181.951 24.6381C181.951 16.1872 175.1 9.33643 166.65 9.33643C158.199 9.33643 151.348 16.1872 151.348 24.6381C151.348 33.0889 158.199 39.9397 166.65 39.9397Z" fill="#FFB8B8"/>
<path d="M155.229 32.2888C155.229 32.2888 158.112 54.0216 153.677 56.461C149.241 58.9003 180.067 59.1221 180.067 59.1221C180.067 59.1221 173.192 40.2723 176.297 34.5064L155.229 32.2888Z" fill="#FFB8B8"/>
<path d="M202.575 59.2322L200.012 70.9057L194.591 95.6031L194.429 96.9557L192.558 112.614L191.314 123.016L190.479 130.003C185.406 132.611 181.729 134.411 181.729 134.411C181.729 134.411 181.413 132.825 180.903 130.796C177.343 131.864 170.755 133.635 165.172 133.988C167.205 136.254 168.139 138.383 166.872 139.954C163.048 144.69 147.258 134.769 141.736 131.069C141.607 131.955 141.558 132.85 141.59 133.745L137.364 130.495L137.782 123.016L138.488 110.362L139.374 94.494C139.094 93.8145 138.86 93.1173 138.673 92.4069C137.378 87.8041 135.807 78.6131 134.603 70.9057C133.633 64.7027 132.905 59.4611 132.751 58.3458C132.73 58.2001 132.719 58.1252 132.719 58.1252L156.114 47.7876C157.777 51.6434 165.54 52.8024 165.54 52.8024C171.972 52.3592 177.014 48.9674 177.014 48.9674L202.575 59.2322Z" fill="#C6D3ED"/>
<path d="M183.504 129.976C183.504 129.976 182.514 130.316 180.903 130.796C177.343 131.864 170.755 133.634 165.172 133.988C160.365 134.296 156.304 133.555 155.561 130.42C155.242 129.071 155.694 127.962 156.678 127.051C159.616 124.327 167.29 123.351 173.377 123.016C175.096 122.922 176.685 122.879 178.009 122.862C180.256 122.833 181.729 122.879 181.729 122.879L181.765 123.016L183.504 129.976Z" fill="#FFB8B8"/>
<path d="M153.921 10.1642L151.06 9.0188C151.06 9.0188 157.042 2.4328 165.365 3.00552L163.024 0.428364C163.024 0.428364 168.746 -1.8624 173.948 4.15088C176.682 7.31193 179.846 11.0276 181.818 15.2132H184.882L183.604 18.029L188.079 20.8447L183.486 20.3389C183.759 21.8809 183.801 23.455 183.61 25.0094C183.413 26.5642 182.62 27.9816 181.397 28.9625C181.397 28.9625 177.849 21.6181 177.849 20.4727V23.3362C177.849 23.3362 174.988 20.7591 174.988 19.041L173.428 21.0454L172.647 17.8956L163.024 21.0454L164.584 18.4683L158.602 19.3273L160.943 16.1775C160.943 16.1775 154.181 19.9 153.921 23.0499C153.661 26.1997 151.681 29.1843 151.681 29.1843C151.681 29.1843 146.378 14.4594 153.921 10.1642Z" fill="#283252"/>
<path d="M219.207 112.899C217.648 114.589 213.786 117.133 209.105 119.888C207.363 120.912 205.509 121.967 203.617 123.016C199.104 125.519 194.379 128 190.479 130.003C185.406 132.611 181.729 134.411 181.729 134.411C181.729 134.411 181.413 132.825 180.903 130.796C180.221 128.081 179.193 124.57 178.121 123.016C178.084 122.962 178.046 122.912 178.009 122.862C177.696 122.452 177.382 122.213 177.072 122.213L192.558 112.614L199.25 108.465L194.428 96.9556L188.382 82.5188L192.031 70.9057L195.7 59.2322H202.575C202.575 59.2322 204.851 64.2012 207.762 71.1304C208.197 72.1667 208.647 73.2466 209.105 74.3619C215.093 88.9278 222.559 109.268 219.207 112.899Z" fill="#C6D3ED"/>
<path d="M166.872 139.954C163.048 144.69 147.258 134.768 141.736 131.069C140.533 130.263 139.817 129.754 139.817 129.754L144.869 123.016L146.47 120.883C146.47 120.883 147.901 121.643 150.017 122.879C150.094 122.924 150.171 122.97 150.25 123.016C152.075 124.088 154.366 125.488 156.678 127.051C159.868 129.208 163.093 131.67 165.172 133.988C167.205 136.254 168.139 138.383 166.872 139.954Z" fill="#FFB8B8"/>
<path d="M150.018 122.879C149.453 122.877 148.889 122.923 148.332 123.016C143.548 123.838 142.137 128.168 141.736 131.069C141.607 131.955 141.558 132.85 141.59 133.745L137.364 130.495L135.824 129.311C132.118 128.019 128.816 125.723 125.953 123.016C123.469 120.626 121.241 117.984 119.304 115.132C117.376 112.321 115.657 109.372 114.161 106.309C113.743 105.454 113.519 104.518 113.503 103.567C113.488 102.616 113.682 101.673 114.071 100.805L119.304 89.1423L126.954 72.0961C127.01 71.6903 127.071 71.2936 127.139 70.9059C128.656 62.208 132.72 58.3459 132.72 58.3459H135.824L137.901 70.9059L140.481 86.51L138.673 92.4071L134.495 106.026L138.488 110.363L150.018 122.879Z" fill="#C6D3ED"/>
<path d="M214.037 137.415V138.679C214.037 139.025 213.973 139.369 213.847 139.692C213.791 139.836 213.724 139.975 213.645 140.108C213.397 140.524 213.046 140.869 212.624 141.108C212.203 141.348 211.727 141.473 211.242 141.473H118.322C117.838 141.473 117.362 141.348 116.94 141.108C116.519 140.869 116.167 140.524 115.919 140.108C115.841 139.975 115.773 139.836 115.717 139.692C115.591 139.369 115.527 139.025 115.528 138.679V137.415C115.528 137.048 115.6 136.685 115.74 136.346C115.881 136.007 116.087 135.699 116.346 135.439C116.606 135.18 116.914 134.974 117.253 134.833C117.592 134.693 117.955 134.621 118.322 134.621H123.678V134.032C123.678 134.017 123.681 134.002 123.687 133.987C123.693 133.973 123.702 133.96 123.713 133.95C123.723 133.939 123.736 133.93 123.75 133.924C123.765 133.918 123.78 133.916 123.795 133.916H126.59C126.605 133.916 126.62 133.918 126.634 133.924C126.648 133.93 126.661 133.939 126.672 133.95C126.683 133.96 126.691 133.973 126.697 133.987C126.703 134.002 126.706 134.017 126.706 134.032V134.621H128.452V134.032C128.452 134.017 128.455 134.002 128.461 133.987C128.467 133.973 128.475 133.96 128.486 133.95C128.497 133.939 128.51 133.93 128.524 133.924C128.538 133.918 128.553 133.916 128.568 133.916H131.363C131.378 133.916 131.393 133.918 131.408 133.924C131.422 133.93 131.435 133.939 131.445 133.95C131.456 133.96 131.465 133.973 131.471 133.987C131.477 134.002 131.48 134.017 131.48 134.032V134.621H133.227V134.032C133.227 134.017 133.23 134.002 133.236 133.987C133.242 133.973 133.251 133.96 133.261 133.95C133.272 133.939 133.285 133.93 133.299 133.924C133.313 133.918 133.329 133.916 133.344 133.916H136.138C136.154 133.916 136.169 133.918 136.183 133.924C136.197 133.93 136.21 133.939 136.221 133.95C136.232 133.96 136.24 133.973 136.246 133.987C136.252 134.002 136.255 134.017 136.255 134.032V134.621H138.001V134.032C138.001 134.017 138.004 134.002 138.01 133.987C138.016 133.973 138.024 133.96 138.035 133.95C138.046 133.939 138.059 133.93 138.073 133.924C138.087 133.918 138.102 133.916 138.117 133.916H140.912C140.927 133.916 140.942 133.918 140.957 133.924C140.971 133.93 140.984 133.939 140.994 133.95C141.005 133.96 141.014 133.973 141.02 133.987C141.025 134.002 141.028 134.017 141.028 134.032V134.621H142.774V134.032C142.774 134.017 142.777 134.002 142.783 133.987C142.789 133.973 142.798 133.96 142.808 133.95C142.819 133.939 142.832 133.93 142.846 133.924C142.86 133.918 142.876 133.916 142.891 133.916H145.685C145.701 133.916 145.716 133.918 145.73 133.924C145.744 133.93 145.757 133.939 145.768 133.95C145.779 133.96 145.787 133.973 145.793 133.987C145.799 134.002 145.802 134.017 145.802 134.032V134.621H147.55V134.032C147.55 134.017 147.553 134.002 147.559 133.987C147.564 133.973 147.573 133.96 147.584 133.95C147.595 133.939 147.608 133.93 147.622 133.924C147.636 133.918 147.651 133.916 147.666 133.916H150.461C150.476 133.916 150.491 133.918 150.506 133.924C150.52 133.93 150.533 133.939 150.543 133.95C150.554 133.96 150.563 133.973 150.569 133.987C150.574 134.002 150.577 134.017 150.577 134.032V134.621H152.323V134.032C152.323 134.017 152.326 134.002 152.332 133.987C152.338 133.973 152.347 133.96 152.357 133.95C152.368 133.939 152.381 133.93 152.395 133.924C152.409 133.918 152.424 133.916 152.44 133.916H174.33C174.345 133.916 174.361 133.918 174.375 133.924C174.389 133.93 174.402 133.939 174.413 133.95C174.423 133.96 174.432 133.973 174.438 133.987C174.444 134.002 174.447 134.017 174.447 134.032V134.621H176.195V134.032C176.195 134.017 176.198 134.002 176.203 133.987C176.209 133.973 176.218 133.96 176.229 133.95C176.239 133.939 176.252 133.93 176.266 133.924C176.281 133.918 176.296 133.916 176.311 133.916H179.106C179.136 133.916 179.166 133.928 179.188 133.95C179.21 133.972 179.222 134.001 179.222 134.032V134.621H180.968V134.032C180.968 134.017 180.971 134.002 180.977 133.987C180.983 133.973 180.991 133.96 181.002 133.95C181.013 133.939 181.026 133.93 181.04 133.924C181.054 133.918 181.069 133.916 181.085 133.916H183.879C183.894 133.916 183.91 133.918 183.924 133.924C183.938 133.93 183.951 133.939 183.962 133.95C183.972 133.96 183.981 133.973 183.987 133.987C183.993 134.002 183.996 134.017 183.996 134.032V134.621H185.741V134.032C185.741 134.017 185.744 134.002 185.75 133.987C185.756 133.973 185.765 133.96 185.776 133.95C185.786 133.939 185.799 133.93 185.813 133.924C185.828 133.918 185.843 133.916 185.858 133.916H188.653C188.668 133.916 188.683 133.918 188.697 133.924C188.711 133.93 188.724 133.939 188.735 133.95C188.746 133.96 188.754 133.973 188.76 133.987C188.766 134.002 188.769 134.017 188.769 134.032V134.621H190.517V134.032C190.517 134.017 190.52 134.002 190.526 133.987C190.532 133.973 190.54 133.96 190.551 133.95C190.562 133.939 190.575 133.93 190.589 133.924C190.603 133.918 190.618 133.916 190.633 133.916H193.428C193.459 133.916 193.488 133.928 193.509 133.95C193.531 133.972 193.543 134.001 193.542 134.032V134.621H195.29V134.032C195.29 134.017 195.293 134.002 195.299 133.987C195.305 133.973 195.314 133.96 195.324 133.95C195.335 133.939 195.348 133.93 195.362 133.924C195.376 133.918 195.392 133.916 195.407 133.916H198.201C198.217 133.916 198.232 133.918 198.246 133.924C198.26 133.93 198.273 133.939 198.284 133.95C198.295 133.96 198.303 133.973 198.309 133.987C198.315 134.002 198.318 134.017 198.318 134.032V134.621H200.064V134.032C200.064 134.017 200.067 134.002 200.073 133.987C200.078 133.973 200.087 133.96 200.098 133.95C200.109 133.939 200.122 133.93 200.136 133.924C200.15 133.918 200.165 133.916 200.18 133.916H202.975C202.99 133.916 203.005 133.918 203.02 133.924C203.034 133.93 203.047 133.939 203.057 133.95C203.068 133.96 203.077 133.973 203.083 133.987C203.088 134.002 203.091 134.017 203.091 134.032V134.621H211.242C211.609 134.621 211.973 134.693 212.312 134.833C212.651 134.974 212.959 135.18 213.218 135.439C213.478 135.699 213.684 136.007 213.824 136.346C213.965 136.685 214.037 137.048 214.037 137.415Z" fill="#283252"/>
<path d="M206.961 84.2231H172.327V83.5093H156.623V84.2231H121.846C121.538 84.2231 121.234 84.2837 120.949 84.4015C120.665 84.5192 120.407 84.6918 120.189 84.9093C119.972 85.1268 119.799 85.3851 119.681 85.6693C119.564 85.9536 119.503 86.2582 119.503 86.5659V133.99C119.503 134.612 119.75 135.208 120.189 135.647C120.629 136.086 121.225 136.333 121.846 136.333H206.961C207.582 136.333 208.178 136.086 208.618 135.647C209.057 135.208 209.304 134.612 209.304 133.99V86.5659C209.304 86.2582 209.243 85.9536 209.125 85.6693C209.008 85.3851 208.835 85.1268 208.618 84.9093C208.4 84.6918 208.142 84.5192 207.858 84.4015C207.573 84.2837 207.269 84.2231 206.961 84.2231Z" fill="#283252"/>
<path d="M163.827 107.855C166.7 107.855 169.029 105.526 169.029 102.653C169.029 99.78 166.7 97.4509 163.827 97.4509C160.954 97.4509 158.625 99.78 158.625 102.653C158.625 105.526 160.954 107.855 163.827 107.855Z" fill="#61A9FF"/>
<g filter="url(#filter0_d_3544_43725)">
<path d="M29 78.9468H115.255V65H29V78.9468Z" fill="white"/>
<path d="M36.3239 76.9441C39.2584 76.9441 41.6372 74.5653 41.6372 71.6308C41.6372 68.6963 39.2584 66.3174 36.3239 66.3174C33.3894 66.3174 31.0105 68.6963 31.0105 71.6308C31.0105 74.5653 33.3894 76.9441 36.3239 76.9441Z" fill="#61A9FF"/>
<path d="M101.471 69.5515H49.03V70.7066H101.471V69.5515Z" fill="#61A9FF"/>
<path d="M101.471 72.5547H49.03V73.7098H101.471V72.5547Z" fill="#61A9FF"/>
</g>
<g filter="url(#filter1_d_3544_43725)">
<path d="M220 52.3506H296.384V40H220V52.3506Z" fill="white"/>
<path d="M226.687 50.9281C229.286 50.9281 231.392 48.8215 231.392 46.2229C231.392 43.6242 229.286 41.5176 226.687 41.5176C224.088 41.5176 221.982 43.6242 221.982 46.2229C221.982 48.8215 224.088 50.9281 226.687 50.9281Z" fill="#BCC6DA"/>
<path d="M284.378 44.3816H237.939V45.4045H284.378V44.3816Z" fill="#BCC6DA"/>
<path d="M284.378 47.0413H237.939V48.0641H284.378V47.0413Z" fill="#BCC6DA"/>
</g>
<path d="M60.3004 116.396C65.4764 121.95 65.7439 130.114 65.7439 130.114C65.7439 130.114 57.6195 129.272 52.4435 123.718C47.2675 118.164 47 110 47 110C47 110 55.1244 110.842 60.3004 116.396Z" fill="#61A9FF"/>
<path d="M76.5949 125.065C71.0407 130.241 62.8772 130.509 62.8772 130.509C62.8772 130.509 63.7189 122.384 69.273 117.208C74.8272 112.032 82.9907 111.765 82.9907 111.765C82.9907 111.765 82.1491 119.889 76.5949 125.065Z" fill="#61A9FF"/>
<path d="M75.2144 141.55H54.7858C54.3939 141.55 54.0099 141.44 53.6777 141.232C53.3454 141.024 53.0783 140.727 52.9069 140.375L48.4591 131.232C48.3041 130.913 48.2327 130.561 48.2515 130.207C48.2703 129.853 48.3787 129.51 48.5666 129.21C48.7545 128.909 49.0156 128.662 49.3255 128.49C49.6354 128.318 49.9838 128.228 50.338 128.228H79.6622C80.0165 128.228 80.3649 128.318 80.6748 128.49C80.9846 128.662 81.2458 128.909 81.4337 129.21C81.6215 129.51 81.73 129.853 81.7488 130.207C81.7676 130.561 81.6962 130.913 81.5412 131.232L77.0934 140.375C76.9219 140.727 76.6548 141.024 76.3226 141.232C75.9904 141.44 75.6063 141.55 75.2144 141.55Z" fill="#283252"/>
<defs>
<filter id="filter0_d_3544_43725" x="0.714012" y="41.6333" width="142.827" height="70.5188" filterUnits="userSpaceOnUse" color-interpolation-filters="sRGB">
<feFlood flood-opacity="0" result="BackgroundImageFix"/>
<feColorMatrix in="SourceAlpha" type="matrix" values="0 0 0 0 0 0 0 0 0 0 0 0 0 0 0 0 0 0 127 0" result="hardAlpha"/>
<feOffset dy="4.9193"/>
<feGaussianBlur stdDeviation="14.143"/>
<feColorMatrix type="matrix" values="0 0 0 0 0 0 0 0 0 0 0 0 0 0 0 0 0 0 0.12 0"/>
<feBlend mode="normal" in2="BackgroundImageFix" result="effect1_dropShadow_3544_43725"/>
<feBlend mode="normal" in="SourceGraphic" in2="effect1_dropShadow_3544_43725" result="shape"/>
</filter>
<filter id="filter1_d_3544_43725" x="191.714" y="16.6333" width="132.956" height="68.9226" filterUnits="userSpaceOnUse" color-interpolation-filters="sRGB">
<feFlood flood-opacity="0" result="BackgroundImageFix"/>
<feColorMatrix in="SourceAlpha" type="matrix" values="0 0 0 0 0 0 0 0 0 0 0 0 0 0 0 0 0 0 127 0" result="hardAlpha"/>
<feOffset dy="4.9193"/>
<feGaussianBlur stdDeviation="14.143"/>
<feColorMatrix type="matrix" values="0 0 0 0 0 0 0 0 0 0 0 0 0 0 0 0 0 0 0.12 0"/>
<feBlend mode="normal" in2="BackgroundImageFix" result="effect1_dropShadow_3544_43725"/>
<feBlend mode="normal" in="SourceGraphic" in2="effect1_dropShadow_3544_43725" result="shape"/>
</filter>
<linearGradient id="paint0_linear_3544_43725" x1="262.217" y1="142.702" x2="262.217" y2="112.968" gradientUnits="userSpaceOnUse">
<stop stop-color="#808080" stop-opacity="0.25"/>
<stop offset="0.53514" stop-color="#808080" stop-opacity="0.12"/>
<stop offset="1" stop-color="#808080" stop-opacity="0.1"/>
</linearGradient>
</defs>
</svg>
