<svg width="271" height="139" viewBox="0 0 271 139" fill="none" xmlns="http://www.w3.org/2000/svg">
<path d="M228.085 117.642H213.527V118.293H228.085V117.642Z" fill="#E6E6E6"/>
<path d="M236 107.203V110.104C235.999 110.335 235.907 110.556 235.743 110.718C235.58 110.881 235.359 110.974 235.128 110.975H233.674C233.636 110.975 233.598 110.982 233.563 110.996C233.528 111.011 233.496 111.032 233.469 111.059C233.442 111.086 233.42 111.118 233.406 111.154C233.391 111.189 233.384 111.227 233.384 111.265V135.053C233.383 135.284 233.29 135.505 233.127 135.668C232.964 135.83 232.743 135.923 232.512 135.924H214.779C214.548 135.924 214.326 135.832 214.163 135.669C213.999 135.505 213.907 135.284 213.907 135.053V111.265C213.907 111.188 213.876 111.114 213.822 111.06C213.767 111.006 213.693 110.975 213.616 110.975H211.872C211.641 110.975 211.419 110.883 211.256 110.72C211.092 110.556 211 110.335 211 110.104V107.203C211 107.089 211.022 106.976 211.066 106.87C211.11 106.764 211.174 106.668 211.255 106.588C211.336 106.507 211.432 106.443 211.538 106.399C211.644 106.355 211.758 106.333 211.872 106.333H235.128C235.359 106.334 235.58 106.426 235.744 106.589C235.907 106.752 235.999 106.973 236 107.203Z" fill="#61A9FF"/>
<path d="M233.384 124.391C226.867 127.082 220.278 127.112 213.617 124.391V118.259C220.03 116.11 226.971 116.11 233.384 118.259V124.391Z" fill="#3D88E2"/>
<path d="M158.102 54.2953C162.47 54.2953 166.011 50.7618 166.011 46.4029C166.011 42.0441 162.47 38.5106 158.102 38.5106C153.735 38.5106 150.194 42.0441 150.194 46.4029C150.194 50.7618 153.735 54.2953 158.102 54.2953Z" fill="#283252"/>
<path d="M160.306 38.7277C161.674 38.7279 163.02 39.0825 164.21 39.7569C165.4 40.4312 166.394 41.4023 167.096 42.5751C167.798 43.7479 168.182 45.0823 168.212 46.4478C168.242 47.8133 167.917 49.1633 167.267 50.3657C167.953 49.5096 168.453 48.5203 168.734 47.461C169.015 46.4016 169.072 45.2954 168.902 44.2127C168.731 43.1301 168.336 42.0949 167.742 41.1729C167.148 40.251 166.369 39.4627 165.453 38.8581C164.537 38.2535 163.505 37.846 162.422 37.6615C161.34 37.4771 160.23 37.5197 159.165 37.7866C158.1 38.0535 157.103 38.539 156.236 39.212C155.369 39.885 154.652 40.7309 154.131 41.6956C154.871 40.7694 155.81 40.0215 156.879 39.5076C157.948 38.9938 159.119 38.7272 160.306 38.7277Z" fill="#283252"/>
<path d="M143.324 46.3862C156.154 46.3862 166.555 36.0065 166.555 23.2025C166.555 10.3985 156.154 0.0187988 143.324 0.0187988C130.494 0.0187988 120.093 10.3985 120.093 23.2025C120.093 36.0065 130.494 46.3862 143.324 46.3862Z" fill="#283252"/>
<path d="M125.092 8.81808C129.095 4.32544 134.69 1.56059 140.697 1.10705C146.704 0.65351 152.652 2.54676 157.287 6.38723C157.097 6.20702 156.909 6.02535 156.712 5.85023C152.106 1.76813 146.065 -0.321692 139.916 0.0402634C133.768 0.402219 128.014 3.18632 123.922 7.78041C119.83 12.3745 117.733 18.4025 118.093 24.5389C118.453 30.6754 121.24 36.418 125.842 40.504C126.039 40.6791 126.242 40.8441 126.444 41.0113C122.079 36.8678 119.498 31.194 119.246 25.1875C118.994 19.181 121.09 13.3116 125.092 8.81808Z" fill="#283252"/>
<path d="M143.127 46.1896C151.391 46.1896 158.09 39.5043 158.09 31.2577C158.09 23.011 151.391 16.3258 143.127 16.3258C134.864 16.3258 128.165 23.011 128.165 31.2577C128.165 39.5043 134.864 46.1896 143.127 46.1896Z" fill="#FFB8B8"/>
<path d="M150.771 50.2433L134.759 50.9616C134.759 50.9616 136.096 59.2253 127.433 60.0112C118.771 60.7971 110.896 58.4394 107.746 64.3336C104.596 70.2277 105.954 91.2153 105.954 91.2153C105.954 91.2153 111.86 112.434 116.585 115.578C121.31 118.721 162.653 114.399 162.653 114.399L179.956 92.5964L179.37 75.7821C179.063 67.0017 171.031 60.4095 162.379 62.0343C162.209 62.0663 162.038 62.1006 161.866 62.1374C161.866 62.1374 159.965 60.7198 154.75 58.1176C151.561 56.5263 150.771 50.2433 150.771 50.2433Z" fill="#C6D3ED"/>
<path d="M116.014 59.6182C116.014 59.6182 119.82 66.5091 118.245 76.3327C116.67 86.1563 123.278 106.933 123.278 106.933L128.003 105.754C128.003 105.754 124.853 85.3211 125.641 80.6057C126.428 75.8904 126.645 61.9758 122.708 59.6182C118.77 57.2605 116.014 59.6182 116.014 59.6182Z" fill="#283252"/>
<path d="M161.589 63.2315L163.244 106.737L166.394 108.701C166.394 108.701 170.922 60.9587 168.559 60.9587H163.752C163.468 60.9587 163.186 61.0147 162.923 61.1233C162.66 61.232 162.421 61.3912 162.22 61.592C162.019 61.7928 161.859 62.0311 161.751 62.2934C161.642 62.5557 161.586 62.8369 161.586 63.1208C161.586 63.1577 161.587 63.1947 161.589 63.2315Z" fill="#283252"/>
<path d="M125.444 105.951C126.531 105.951 127.413 105.071 127.413 103.986C127.413 102.901 126.531 102.021 125.444 102.021C124.357 102.021 123.475 102.901 123.475 103.986C123.475 105.071 124.357 105.951 125.444 105.951Z" fill="#61A9FF"/>
<path d="M164.819 107.915C165.906 107.915 166.787 107.036 166.787 105.951C166.787 104.866 165.906 103.986 164.819 103.986C163.731 103.986 162.85 104.866 162.85 105.951C162.85 107.036 163.731 107.915 164.819 107.915Z" fill="#61A9FF"/>
<path d="M130.331 12.5929V27.5248H133.796L138.206 22.8095L137.615 27.5248H152.932L151.987 22.8095L153.877 27.5248H156.318V12.5929H130.331Z" fill="#283252"/>
<path d="M127.968 30.2754C128.621 30.2754 129.15 29.3078 129.15 28.1142C129.15 26.9206 128.621 25.953 127.968 25.953C127.316 25.953 126.787 26.9206 126.787 28.1142C126.787 29.3078 127.316 30.2754 127.968 30.2754Z" fill="#FFB8B8"/>
<path d="M158.286 30.2754C158.939 30.2754 159.468 29.3078 159.468 28.1142C159.468 26.9206 158.939 25.953 158.286 25.953C157.634 25.953 157.105 26.9206 157.105 28.1142C157.105 29.3078 157.634 30.2754 158.286 30.2754Z" fill="#FFB8B8"/>
<path d="M191.059 131.941V133.257C191.06 133.618 190.993 133.976 190.861 134.313C190.803 134.463 190.732 134.608 190.65 134.747C190.392 135.181 190.024 135.54 189.584 135.789C189.144 136.038 188.647 136.169 188.141 136.169H91.1099C90.6039 136.169 90.1065 136.038 89.6666 135.789C89.2266 135.54 88.8591 135.181 88.6002 134.747C88.5182 134.608 88.4478 134.463 88.3894 134.313C88.258 133.976 88.1909 133.618 88.1917 133.257V131.941C88.1916 131.558 88.2669 131.18 88.4134 130.826C88.56 130.473 88.7748 130.152 89.0456 129.882C89.3164 129.611 89.638 129.397 89.9919 129.25C90.3458 129.104 90.7252 129.029 91.1083 129.028H96.7029V128.415C96.7029 128.399 96.706 128.383 96.7121 128.368C96.7182 128.354 96.7271 128.34 96.7383 128.329C96.7496 128.318 96.763 128.309 96.7777 128.303C96.7924 128.297 96.8082 128.293 96.8242 128.293H99.7428C99.775 128.293 99.8059 128.306 99.8288 128.329C99.8516 128.351 99.8644 128.382 99.8645 128.414V129.028H101.688V128.415C101.688 128.399 101.691 128.383 101.697 128.368C101.703 128.354 101.712 128.34 101.723 128.329C101.734 128.318 101.748 128.309 101.762 128.303C101.777 128.297 101.793 128.293 101.809 128.293H104.727C104.76 128.293 104.791 128.306 104.813 128.329C104.836 128.351 104.849 128.382 104.849 128.414V129.028H106.674V128.415C106.674 128.399 106.677 128.383 106.684 128.368C106.69 128.354 106.699 128.34 106.71 128.329C106.721 128.318 106.734 128.309 106.749 128.303C106.764 128.297 106.78 128.293 106.796 128.293H109.714C109.746 128.293 109.777 128.306 109.8 128.329C109.823 128.351 109.836 128.382 109.836 128.414V129.028H111.659V128.415C111.659 128.399 111.662 128.383 111.668 128.368C111.674 128.354 111.683 128.34 111.694 128.329C111.706 128.318 111.719 128.309 111.734 128.303C111.749 128.297 111.764 128.293 111.78 128.293H114.699C114.731 128.293 114.762 128.306 114.785 128.329C114.808 128.351 114.82 128.382 114.821 128.414V129.028H116.644V128.415C116.644 128.399 116.647 128.383 116.653 128.368C116.659 128.354 116.668 128.34 116.679 128.329C116.69 128.318 116.704 128.309 116.718 128.303C116.733 128.297 116.749 128.293 116.765 128.293H119.684C119.716 128.293 119.747 128.306 119.769 128.329C119.792 128.351 119.805 128.382 119.805 128.414V129.028H121.63V128.415C121.63 128.399 121.634 128.383 121.64 128.368C121.646 128.354 121.655 128.34 121.666 128.329C121.677 128.318 121.69 128.309 121.705 128.303C121.72 128.297 121.736 128.293 121.752 128.293H124.67C124.703 128.293 124.733 128.306 124.756 128.329C124.779 128.351 124.792 128.382 124.792 128.414V129.028H126.615V128.415C126.615 128.399 126.618 128.383 126.624 128.368C126.63 128.354 126.639 128.34 126.65 128.329C126.662 128.318 126.675 128.309 126.69 128.303C126.705 128.297 126.72 128.293 126.736 128.293H149.596C149.612 128.293 149.627 128.296 149.642 128.303C149.657 128.309 149.67 128.317 149.682 128.329C149.693 128.34 149.702 128.353 149.708 128.368C149.714 128.383 149.717 128.398 149.717 128.414V129.028H151.543V128.415C151.543 128.399 151.546 128.383 151.552 128.368C151.558 128.354 151.567 128.34 151.578 128.329C151.589 128.318 151.603 128.309 151.617 128.303C151.632 128.297 151.648 128.293 151.664 128.293H154.582C154.615 128.294 154.645 128.307 154.668 128.329C154.691 128.352 154.704 128.383 154.704 128.415V129.028H156.527V128.415C156.527 128.399 156.53 128.383 156.536 128.368C156.542 128.354 156.551 128.34 156.563 128.329C156.574 128.318 156.587 128.309 156.602 128.303C156.617 128.297 156.633 128.293 156.649 128.293H159.567C159.583 128.293 159.599 128.296 159.614 128.303C159.628 128.309 159.642 128.318 159.653 128.329C159.664 128.34 159.673 128.353 159.679 128.368C159.686 128.383 159.689 128.398 159.689 128.414V129.028H161.512V128.415C161.512 128.399 161.515 128.383 161.521 128.368C161.527 128.354 161.536 128.34 161.547 128.329C161.559 128.318 161.572 128.309 161.587 128.303C161.601 128.297 161.617 128.293 161.633 128.293H164.552C164.568 128.293 164.584 128.296 164.598 128.303C164.613 128.309 164.626 128.318 164.638 128.329C164.649 128.34 164.658 128.353 164.664 128.368C164.67 128.383 164.673 128.398 164.673 128.414V129.028H166.499V128.415C166.499 128.399 166.502 128.383 166.508 128.368C166.514 128.354 166.523 128.34 166.534 128.329C166.545 128.318 166.559 128.309 166.573 128.303C166.588 128.297 166.604 128.293 166.62 128.293H169.539C169.57 128.294 169.601 128.307 169.623 128.33C169.646 128.352 169.658 128.383 169.658 128.415V129.028H171.483V128.415C171.483 128.399 171.486 128.383 171.492 128.368C171.499 128.354 171.507 128.34 171.519 128.329C171.53 128.318 171.543 128.309 171.558 128.303C171.573 128.297 171.589 128.293 171.605 128.293H174.523C174.539 128.293 174.555 128.296 174.57 128.303C174.584 128.309 174.598 128.318 174.609 128.329C174.62 128.34 174.629 128.353 174.636 128.368C174.642 128.383 174.645 128.398 174.645 128.414V129.028H176.468V128.415C176.468 128.399 176.471 128.383 176.477 128.368C176.483 128.354 176.492 128.34 176.503 128.329C176.515 128.318 176.528 128.309 176.543 128.303C176.557 128.297 176.573 128.293 176.589 128.293H179.508C179.524 128.293 179.54 128.296 179.554 128.303C179.569 128.309 179.582 128.318 179.594 128.329C179.605 128.34 179.614 128.353 179.62 128.368C179.626 128.383 179.629 128.398 179.63 128.414V129.028H188.141C188.915 129.028 189.657 129.335 190.204 129.881C190.751 130.427 191.059 131.167 191.059 131.939L191.059 131.941Z" fill="#283252"/>
<path d="M269.5 136H1.5C0.671573 136 0 136.672 0 137.5C0 138.328 0.671576 139 1.5 139H269.5C270.328 139 271 138.328 271 137.5C271 136.672 270.328 136 269.5 136Z" fill="#E5E9F2"/>
<path d="M183.246 76.5071H94.3646C94.0433 76.5071 93.7252 76.5702 93.4284 76.6929C93.1316 76.8156 92.8619 76.9954 92.6347 77.2221C92.4076 77.4488 92.2274 77.718 92.1044 78.0142C91.9815 78.3104 91.9182 78.6279 91.9182 78.9485V128.371C91.9182 129.018 92.176 129.639 92.6347 130.097C93.0935 130.555 93.7158 130.812 94.3646 130.812H183.246C183.895 130.812 184.517 130.555 184.976 130.097C185.434 129.639 185.692 129.018 185.692 128.371V78.9485C185.692 78.301 185.434 77.68 184.976 77.2221C184.517 76.7643 183.895 76.5071 183.246 76.5071Z" fill="#283252"/>
<path d="M138.876 99.1827C141.876 99.1827 144.309 96.7556 144.309 93.7615C144.309 90.7675 141.876 88.3403 138.876 88.3403C135.876 88.3403 133.444 90.7675 133.444 93.7615C133.444 96.7556 135.876 99.1827 138.876 99.1827Z" fill="#61A9FF"/>
<path d="M175.228 60.6974L195.452 41.007H205V40.6974H195.318L195.271 40.7434L175 60.4797L175.228 60.6974Z" fill="#61A9FF"/>
<path d="M239 32.5184H216.032V34.5609H239V32.5184Z" fill="#61A9FF"/>
<path d="M213.233 35.8523H208.371V31H213.233V35.8523ZM208.685 35.5388H212.919V31.3135H208.685L208.685 35.5388Z" fill="#61A9FF"/>
<path d="M239 39.3265H216.032V41.369H239V39.3265Z" fill="#61A9FF"/>
<path d="M213.233 42.6605H208.371V37.8082H213.233V42.6605ZM208.685 42.347H212.919V38.1217H208.685L208.685 42.347Z" fill="#61A9FF"/>
<path d="M239 46.1348H216.032V48.1772H239V46.1348Z" fill="#61A9FF"/>
<path d="M213.233 49.4687H208.371V44.6165H213.233V49.4687ZM208.685 49.1552H212.919V44.93H208.685L208.685 49.1552Z" fill="#61A9FF"/>
<path d="M38.9389 109.703C44.3633 115.524 44.6437 124.079 44.6437 124.079C44.6437 124.079 36.1293 123.197 30.7048 117.376C25.2804 111.555 25 103 25 103C25 103 33.5144 103.882 38.9389 109.703Z" fill="#61A9FF"/>
<path d="M56.0156 118.788C50.1948 124.213 41.6394 124.493 41.6394 124.493C41.6394 124.493 42.5215 115.979 48.3423 110.554C54.1631 105.13 62.7185 104.85 62.7185 104.85C62.7185 104.85 61.8365 113.364 56.0156 118.788Z" fill="#61A9FF"/>
<path d="M54.569 136.065H33.1597C32.749 136.065 32.3465 135.949 31.9983 135.731C31.6502 135.513 31.3702 135.202 31.1906 134.833L26.5292 125.251C26.3668 124.917 26.292 124.548 26.3117 124.177C26.3314 123.806 26.445 123.447 26.6419 123.132C26.8388 122.817 27.1125 122.558 27.4372 122.378C27.762 122.198 28.1271 122.103 28.4984 122.103H59.2303C59.6016 122.103 59.9667 122.198 60.2915 122.378C60.6162 122.558 60.8899 122.817 61.0868 123.132C61.2836 123.447 61.3973 123.806 61.417 124.177C61.4367 124.548 61.3619 124.917 61.1994 125.251L56.5381 134.833C56.3585 135.202 56.0785 135.513 55.7303 135.731C55.3822 135.949 54.9797 136.065 54.569 136.065Z" fill="#283252"/>
<path d="M215.162 88.6204C214.753 88.6904 214.291 88.8008 214.091 89.164C213.773 89.7404 214.349 90.3903 214.875 90.7864C215.846 91.5181 216.87 92.2369 217.531 93.2582C218.191 94.2795 218.398 95.7048 217.677 96.6837C216.734 97.9617 214.486 98.2367 214.268 99.8097C214.128 100.82 215.001 101.681 215.886 102.188C218.069 103.439 220.884 103.772 222.466 105.73C223.12 104.384 224.583 103.607 226.042 103.274C227.501 102.942 229.016 102.967 230.495 102.742C230.973 102.669 231.511 102.523 231.724 102.09C232.137 101.251 230.959 100.245 231.366 99.4025C231.675 98.7614 232.585 98.8112 233.249 98.5544C234.33 98.1364 234.776 96.7449 234.469 95.6271C234.162 94.5093 233.295 93.6357 232.384 92.9195C229.927 90.9893 226.974 89.8542 223.986 89.0377C222.597 88.6579 220.966 88.0624 219.522 88.0049C218.129 87.9493 216.54 88.3846 215.162 88.6204Z" fill="#EEEEEE"/>
</svg>
