<svg width="163" height="157" viewBox="0 0 163 157" fill="none" xmlns="http://www.w3.org/2000/svg">
<path d="M34.1534 56.582C49.7914 56.582 62.4686 43.9156 62.4686 28.291C62.4686 12.6663 49.7914 0 34.1534 0C18.5153 0 5.83813 12.6663 5.83813 28.291C5.83813 43.9156 18.5153 56.582 34.1534 56.582Z" fill="#FF6B93"/>
<path d="M84.9455 151.954C125.895 151.954 159.09 118.787 159.09 77.873C159.09 36.9589 125.895 3.7915 84.9455 3.7915C43.9964 3.7915 10.8005 36.9589 10.8005 77.873C10.8005 118.787 43.9964 151.954 84.9455 151.954Z" fill="#F2F2F2"/>
<path d="M81.4427 156.038C126.422 156.038 162.885 154.079 162.885 151.663C162.885 149.247 126.422 147.288 81.4427 147.288C36.4632 147.288 0 149.247 0 151.663C0 154.079 36.4632 156.038 81.4427 156.038Z" fill="#3F3D56" fill-opacity="0.1"/>
<path d="M127.856 37.624C133.015 37.624 137.197 33.4454 137.197 28.2909C137.197 23.1363 133.015 18.9578 127.856 18.9578C122.697 18.9578 118.515 23.1363 118.515 28.2909C118.515 33.4454 122.697 37.624 127.856 37.624Z" fill="#283252"/>
<path d="M134.132 130.518L128.878 144.809C128.878 144.809 124.499 148.309 127.127 149.475C129.754 150.642 135.008 148.309 135.008 148.309L139.095 137.809L138.511 130.518H134.132Z" fill="#283252"/>
<path opacity="0.1" d="M134.132 130.518L128.878 144.809C128.878 144.809 124.499 148.309 127.127 149.475C129.754 150.642 135.008 148.309 135.008 148.309L139.095 137.809L138.511 130.518H134.132Z" fill="black"/>
<path d="M134.57 45.7905L138.949 46.3738C138.949 46.3738 140.992 62.4151 140.116 63.5818C139.241 64.7484 134.862 69.4149 133.111 68.2483C131.359 67.0817 134.57 45.7905 134.57 45.7905Z" fill="#C6D3ED"/>
<path d="M92.6812 75.1023C92.6812 75.1023 86.5511 77.7272 85.3835 78.0189C84.2158 78.3106 82.4644 81.2271 84.5077 81.8105C86.5511 82.3938 94.4327 76.5606 94.4327 76.5606L92.6812 75.1023Z" fill="#FFB8B8"/>
<path d="M136.176 136.351L139.387 148.309C139.387 148.309 139.679 152.684 141.138 152.975C142.598 153.267 146.976 151.517 146.976 150.934C146.976 150.35 145.225 145.684 145.225 145.684C145.225 145.684 145.225 142.184 143.474 140.726C141.722 139.267 140.144 134.382 140.144 134.382L136.176 136.351Z" fill="#283252"/>
<path d="M140.263 108.935C140.852 110.309 140.779 120.275 140.134 126.907C139.822 130.13 139.375 132.565 138.803 132.851L134.62 131.807L132.965 131.393L132.921 127.764L132.673 107.768L127.71 87.0604V81.8105L140.263 82.9772L142.253 86.1009L142.306 86.1854C142.306 86.1854 139.387 106.893 140.263 108.935Z" fill="#283252"/>
<path opacity="0.1" d="M137.635 115.351C138.26 116.288 139.302 121.893 140.134 126.907C139.822 130.13 139.375 132.565 138.803 132.851L134.62 131.807C134.556 131.673 134.492 131.533 134.424 131.393C133.89 130.273 133.388 129.036 132.921 127.764L132.673 107.768L127.71 87.0604V81.8105L140.263 82.9772L142.253 86.1009L130.63 85.3105L133.257 96.6852L136.468 108.643C136.468 108.643 136.468 113.601 137.635 115.351Z" fill="black"/>
<path d="M116.91 70.1441C116.91 70.1441 112.823 79.1856 118.661 91.7269C122.274 99.5315 125.489 107.514 128.294 115.643C128.294 115.643 130.338 125.268 133.257 131.393C136.176 137.517 135.592 137.809 135.592 137.809L140.262 135.184C140.262 135.184 137.635 117.101 136.468 115.351C135.3 113.601 135.3 108.643 135.3 108.643L132.089 96.6851L129.462 85.3104L142.306 86.1854C142.306 86.1854 142.306 69.5608 136.468 66.3525L116.91 70.1441Z" fill="#283252"/>
<path d="M121.726 32.6658C121.726 32.6658 121.726 37.3323 120.267 37.624C118.807 37.9156 115.888 37.9156 115.012 39.3739C114.137 40.8322 121.726 60.0818 121.726 60.0818L129.608 55.1235L132.235 41.9989C132.235 41.9989 128.44 39.6656 128.44 38.499V33.2491L121.726 32.6658Z" fill="#FFB8B8"/>
<path opacity="0.1" d="M121.726 32.6658C121.726 32.6658 121.726 37.3323 120.267 37.624C118.807 37.9156 115.888 37.9156 115.012 39.3739C114.137 40.8322 121.726 60.0818 121.726 60.0818L129.608 55.1235L132.235 41.9989C132.235 41.9989 128.44 39.6656 128.44 38.499V33.2491L121.726 32.6658Z" fill="#FFB8B8"/>
<path d="M126.251 37.7699C130.12 37.7699 133.257 34.636 133.257 30.7701C133.257 26.9042 130.12 23.7703 126.251 23.7703C122.382 23.7703 119.245 26.9042 119.245 30.7701C119.245 34.636 122.382 37.7699 126.251 37.7699Z" fill="#FFB8B8"/>
<path d="M122.602 54.2486C122.602 54.2486 119.975 37.624 119.391 37.624C118.807 37.624 110.634 39.374 110.05 39.6656C109.466 39.9573 107.423 42.5822 107.423 42.5822L111.509 54.2486C111.509 54.2486 113.261 62.4151 114.428 63.8734C115.596 65.3317 117.931 69.4149 116.764 69.9982C115.596 70.5815 114.428 71.4565 115.596 71.4565C116.764 71.4565 126.397 69.7066 126.981 70.5815C127.564 71.4565 137.197 67.3733 137.197 67.0816C137.197 66.79 136.03 53.082 136.03 53.082L138.949 46.3738L130.192 40.249L122.602 54.2486Z" fill="#C6D3ED"/>
<path d="M110.342 41.124L107.423 42.5823C107.423 42.5823 99.2493 61.2485 98.6655 61.5402C98.0817 61.8318 95.1626 67.3734 94.8707 68.54C94.5788 69.7066 93.9949 73.4982 93.1192 74.0815C92.6495 74.4003 92.1622 74.6924 91.6597 74.9565C91.6597 74.9565 93.4111 77.8731 94.2869 77.8731C95.1626 77.8731 98.0817 73.7899 98.0817 73.7899C98.0817 73.7899 104.504 77.8731 106.255 74.6649C108.007 71.4566 112.385 51.0404 112.385 51.0404L110.342 41.124Z" fill="#C6D3ED"/>
<path d="M133.257 50.0195C133.257 50.0195 129.17 40.1031 126.835 41.2697C124.499 42.4364 128.586 49.4362 131.213 50.6028L133.257 50.0195Z" fill="#FFB8B8"/>
<path opacity="0.1" d="M129.17 50.3113L133.265 49.3862L134.132 53.8112C134.132 53.8112 137.927 60.5194 137.051 63.436C136.176 66.3526 130.921 71.0191 129.17 68.3942C127.418 65.7693 125.959 61.686 127.126 59.3527C128.294 57.0195 130.045 51.4779 129.17 50.3113Z" fill="black"/>
<path d="M130.046 49.728L134.141 48.803L135.008 53.228C135.008 53.228 138.803 59.9361 137.927 62.8527C137.052 65.7693 131.797 70.4359 130.046 67.8109C128.294 65.186 126.835 61.1028 128.002 58.7695C129.17 56.4362 130.921 50.8947 130.046 49.728Z" fill="#C6D3ED"/>
<path d="M134.492 29.3647C135.279 27.6873 133.076 24.9979 129.572 23.358C126.068 21.718 122.59 21.7483 121.804 23.4258C121.017 25.1033 123.22 27.7926 126.724 29.4326C130.228 31.0726 133.706 31.0422 134.492 29.3647Z" fill="#283252"/>
<path d="M133.403 24.4995C135.66 24.4995 137.489 22.6713 137.489 20.4162C137.489 18.1611 135.66 16.333 133.403 16.333C131.146 16.333 129.316 18.1611 129.316 20.4162C129.316 22.6713 131.146 24.4995 133.403 24.4995Z" fill="#283252"/>
<path d="M129.608 18.9577C129.608 17.9507 129.981 16.9791 130.654 16.2299C131.328 15.4807 132.255 15.0065 133.257 14.8986C132.686 14.8364 132.109 14.8949 131.562 15.0705C131.015 15.2461 130.512 15.5348 130.085 15.9178C129.657 16.3007 129.315 16.7694 129.081 17.2932C128.847 17.8169 128.726 18.3841 128.726 18.9577C128.726 19.5314 128.847 20.0985 129.081 20.6223C129.315 21.1461 129.657 21.6148 130.085 21.9977C130.512 22.3807 131.015 22.6694 131.562 22.845C132.109 23.0205 132.686 23.0791 133.257 23.0168C132.255 22.909 131.328 22.4348 130.654 21.6856C129.981 20.9363 129.608 19.9648 129.608 18.9577Z" fill="#283252"/>
<path d="M115.012 80.7896H12.844V151.663H115.012V80.7896Z" fill="#94A4C4"/>
<path d="M34.4454 87.7896H21.0176V101.206H34.4454V87.7896Z" fill="#F2F2F2"/>
<path d="M34.4454 109.664H21.0176V123.08H34.4454V109.664Z" fill="#C6D3ED"/>
<path d="M34.4454 131.539H21.0176V144.955H34.4454V131.539Z" fill="#F2F2F2"/>
<path d="M104.795 92.0186H40.8672V93.1852H104.795V92.0186Z" fill="#F2F2F2"/>
<path d="M60.717 95.8101H40.8672V96.9767H60.717V95.8101Z" fill="#F2F2F2"/>
<path d="M104.795 113.893H40.8672V115.06H104.795V113.893Z" fill="#C6D3ED"/>
<path d="M60.717 117.685H40.8672V118.851H60.717V117.685Z" fill="#C6D3ED"/>
<path d="M104.795 135.767H40.8672V136.934H104.795V135.767Z" fill="#F2F2F2"/>
<path d="M60.717 139.559H40.8672V140.726H60.717V139.559Z" fill="#F2F2F2"/>
</svg>
