<svg width="305" height="145" viewBox="0 0 305 145" fill="none" xmlns="http://www.w3.org/2000/svg">
<g opacity="0.7">
<path d="M276.807 99.7959C276.807 99.7959 272.644 94.9491 276.55 91.8603C276.55 91.8603 279.395 90.1389 281.727 90.2732C281.727 90.2732 278.431 95.7915 279.505 96.3409C280.567 96.8902 282.728 89.9191 282.728 89.9191C282.728 89.9191 289.211 89.2843 291.298 90.2976C291.298 90.2976 285.756 94.8392 286.916 95.1078C288.088 95.3764 294.07 90.9202 294.07 90.9202C294.07 90.9202 300.113 91.9458 299.783 95.6328C299.466 99.3198 297.378 100.455 296.463 100.357C295.547 100.26 290.2 98.221 290.078 98.9657C289.955 99.7104 293.179 102.164 295.437 102.274C295.437 102.274 291.176 106.962 288.356 105.619C285.524 104.264 285.292 102.116 283.522 101.31C281.764 100.504 280.25 100.504 280.982 101.322C281.715 102.14 284.901 102.946 285.914 104.728C286.928 106.511 287.831 107.719 284.901 107.28C281.971 106.84 277.222 104.704 277.014 102.25C276.807 99.7959 276.807 99.7959 276.807 99.7959Z" fill="#7EB9FF"/>
<path d="M296.829 95.7301C296.829 95.7301 280.433 95.0953 276.807 99.7834C276.807 99.7834 276.001 102.176 273.547 104.362L273.168 105.412C273.168 105.412 276.013 102.42 277.026 102.237C277.026 102.25 275.427 96.4382 296.829 95.7301Z" fill="#7EB9FF"/>
<path d="M273.547 104.374C273.547 104.374 270.031 106.974 269.787 111.626L270.422 111.687C270.422 111.687 271.545 106.876 273.572 104.996C275.61 103.116 273.547 104.374 273.547 104.374Z" fill="#7EB9FF"/>
<path d="M262.266 93.6913C262.266 93.6913 268.883 89.9921 265.795 84.9622C265.795 84.9622 263.328 81.8734 260.679 81.0798C260.679 81.0798 262.095 88.5759 260.679 88.759C259.263 88.93 259.715 80.2863 259.715 80.2863C259.715 80.2863 252.744 76.9289 250.009 77.1975C250.009 77.1975 254.331 84.5227 252.915 84.3395C251.498 84.1686 246.652 76.758 246.652 76.758C246.652 76.758 239.51 75.4395 238.362 79.6636C237.214 83.9 239.07 86.0121 240.12 86.2807C241.182 86.5493 247.97 86.4516 247.799 87.3428C247.628 88.2219 243.038 89.6381 240.474 88.8445C240.474 88.8445 243.294 95.8156 247.006 95.4616C250.705 95.1075 251.852 92.8123 254.148 92.6414C256.443 92.4705 258.115 93.0809 256.968 93.7035C255.82 94.3262 251.938 93.9111 250.082 95.486C248.226 97.0609 246.725 98.0254 250.168 98.7335C253.61 99.4416 259.788 99.002 261.021 96.3528C262.266 93.6913 262.266 93.6913 262.266 93.6913Z" fill="#7EB9FF"/>
<path d="M241.634 80.9944C241.634 80.9944 260.154 86.9888 262.279 93.6913C262.279 93.6913 262.193 96.6946 264.037 100.125V101.456C264.037 101.456 262.095 96.9632 261.033 96.3406C261.033 96.3406 265.184 90.5171 241.634 80.9944Z" fill="#7EB9FF"/>
<path d="M264.037 100.125C264.037 100.125 266.894 104.459 265.27 109.745L264.538 109.55C264.538 109.55 265.246 103.739 263.756 100.809C262.255 97.8786 264.037 100.125 264.037 100.125Z" fill="#7EB9FF"/>
<path d="M272.79 88.576C272.79 88.576 264.073 83.6925 268.139 77.0633C268.139 77.0633 271.399 72.9978 274.878 71.9479C274.878 71.9479 273.022 81.8368 274.878 82.0688C276.734 82.3008 276.16 70.9101 276.16 70.9101C276.16 70.9101 285.341 66.4906 288.954 66.8447C288.954 66.8447 283.253 76.4895 285.121 76.2575C286.977 76.0255 293.374 66.2587 293.374 66.2587C293.374 66.2587 302.787 64.5128 304.301 70.0922C305.815 75.6715 303.373 78.4673 301.981 78.8091C300.589 79.1631 291.628 79.0411 291.86 80.2009C292.092 81.3607 298.135 83.2286 301.505 82.1787C301.505 82.1787 297.781 91.3595 292.898 90.8956C288.014 90.4317 286.501 87.4039 283.485 87.172C280.457 86.94 278.248 87.758 279.761 88.5638C281.275 89.3817 286.391 88.8323 288.832 90.9078C291.274 92.9833 293.252 94.2652 288.71 95.193C284.181 96.1209 276.038 95.5471 274.414 92.0554C272.79 88.576 272.79 88.576 272.79 88.576Z" fill="#7EB9FF"/>
<path d="M300.003 71.8378C300.003 71.8378 275.586 79.7489 272.79 88.5757C272.79 88.5757 272.912 92.5313 270.47 97.0607V98.8065C270.47 98.8065 273.034 92.8732 274.426 92.0674C274.426 92.0674 268.957 84.4004 300.003 71.8378Z" fill="#7EB9FF"/>
<path d="M270.471 97.0727C270.471 97.0727 266.71 102.786 268.847 109.757L269.811 109.501C269.811 109.501 268.871 101.834 270.837 97.9761C272.815 94.106 270.471 97.0727 270.471 97.0727Z" fill="#7EB9FF"/>
<path d="M272.497 124.848C281.934 124.848 289.577 117.205 289.577 107.768H255.417C255.417 117.193 263.072 124.848 272.497 124.848Z" fill="#121625"/>
<path d="M276.709 124.713C276.013 124.799 275.305 124.848 274.585 124.848C265.147 124.848 257.505 117.205 257.505 107.768H261.753C261.741 116.473 268.273 123.663 276.709 124.713Z" fill="#283252"/>
<path d="M289.821 125.715H255.185C255.185 124.555 256.125 123.603 257.297 123.603H287.721C288.881 123.603 289.821 124.543 289.821 125.715Z" fill="#121625"/>
<path d="M289.968 107.756H254.856V108.281H289.968V107.756Z" fill="#283252"/>
</g>
<path d="M20.5769 137.475C31.9024 137.475 41.0835 135.551 41.0835 133.178C41.0835 130.806 31.9024 128.882 20.5769 128.882C9.25142 128.882 0.0703125 130.806 0.0703125 133.178C0.0703125 135.551 9.25142 137.475 20.5769 137.475Z" fill="#BABFC5"/>
<path d="M11.7229 35.0331C15.6273 35.0331 18.7925 32.0417 18.7925 28.3516C18.7925 24.6615 15.6273 21.67 11.7229 21.67C7.81848 21.67 4.65332 24.6615 4.65332 28.3516C4.65332 32.0417 7.81848 35.0331 11.7229 35.0331Z" fill="#121625"/>
<path d="M32.3053 69.9756L34.0951 72.5037C34.0951 72.5037 42.686 74.3095 39.4644 77.0183C36.2428 79.727 31.5894 74.4901 31.5894 74.4901L29.0837 71.2397L32.3053 69.9756Z" fill="#FFB8B8"/>
<path d="M22.9985 41.2631C22.9985 41.2631 25.3252 41.2631 25.8621 44.5135C26.3991 47.764 26.936 58.5989 26.936 58.5989C26.936 58.5989 34.453 68.5309 33.2002 69.7949C31.9474 71.059 30.5155 73.4066 29.6207 73.0454C28.7258 72.6842 21.0298 62.0299 21.0298 62.0299L22.9985 41.2631Z" fill="#C6D3ED"/>
<path d="M15.8394 32.0535C15.8394 32.0535 16.0184 39.0962 18.1661 39.4573C20.3139 39.8185 19.5979 42.166 19.5979 42.166C19.5979 42.166 12.6179 46.3194 7.96446 42.166L7.06958 39.9991C7.06958 39.9991 10.2912 37.6515 8.85935 34.401L15.8394 32.0535Z" fill="#FFB8B8"/>
<path d="M27.8309 75.3931C27.8309 75.3931 38.3905 95.257 34.453 101.397C30.5156 107.537 24.6093 120.177 23.7144 120.177C22.8196 120.177 17.8082 117.649 18.1662 116.024C18.5241 114.399 23.8934 102.3 25.3252 101.216C26.757 100.133 26.0411 97.2434 25.8622 97.0629C25.6832 96.8823 19.777 87.3114 19.777 87.3114C19.777 87.3114 19.9559 102.48 19.24 104.828C18.5241 107.175 19.419 123.97 18.5241 124.692C17.6292 125.414 13.5128 126.678 12.7969 125.595C12.081 124.511 9.93325 108.078 11.3651 104.286L8.68042 78.2824L27.8309 75.3931Z" fill="#121625"/>
<path d="M18.1661 123.608L22.6405 131.915C22.6405 131.915 29.0837 136.61 24.6093 137.332C20.1348 138.055 17.4502 136.249 17.4502 136.249L13.5127 133.36V125.053L18.1661 123.608Z" fill="#121625"/>
<path d="M24.2515 118.913L21.9248 124.511C21.9248 124.511 21.0299 126.859 21.9248 127.401C22.8197 127.942 25.3253 131.193 23.7145 131.554C23.3905 131.618 23.0612 131.651 22.731 131.653C21.3897 131.675 20.0577 131.424 18.8151 130.914C17.5726 130.404 16.4452 129.645 15.5008 128.684L14.0498 127.22C14.0498 127.22 19.02 115.672 18.9511 115.758C18.8822 115.843 24.2515 118.913 24.2515 118.913Z" fill="#121625"/>
<path d="M11.365 36.3873C14.7258 36.3873 17.4502 33.6385 17.4502 30.2476C17.4502 26.8567 14.7258 24.1078 11.365 24.1078C8.00423 24.1078 5.27979 26.8567 5.27979 30.2476C5.27979 33.6385 8.00423 36.3873 11.365 36.3873Z" fill="#FFB8B8"/>
<path d="M7.87507 38.8252L9.75433 40.7213C9.75433 40.7213 15.4816 42.8883 18.1662 40.7213C18.1662 40.7213 17.1819 38.6446 17.1819 38.8252C17.1819 39.0058 24.9673 40.1796 25.6832 43.43C26.3991 46.6805 25.1463 52.2785 25.1463 52.2785C25.1463 52.2785 30.1577 76.1153 28.1889 76.657C26.2202 77.1988 7.78557 81.7133 7.96455 78.2823C8.14352 74.8512 6.53274 60.7659 6.53274 60.7659L0.268555 48.6669C0.268555 48.6669 1.16344 44.6941 3.31116 43.43C5.45887 42.166 7.87507 38.8252 7.87507 38.8252Z" fill="#C6D3ED"/>
<path d="M15.8394 74.129L18.1661 75.5737C18.1661 75.5737 27.1149 81.7135 22.4615 82.7969C17.8082 83.8804 15.1235 78.463 15.1235 78.463L13.3337 76.296L15.8394 74.129Z" fill="#FFB8B8"/>
<path opacity="0.1" d="M2.59508 47.5835L0.984285 49.2087C0.984285 49.2087 -0.0895736 64.3776 2.05815 67.4475C4.20586 70.5174 14.0496 78.8241 14.5865 78.2824C15.1234 77.7406 18.524 75.0319 17.8081 74.6707C17.0922 74.3096 7.57369 64.2748 7.57369 64.2748L8.32233 50.2922L2.59508 47.5835Z" fill="black"/>
<path d="M1.87926 47.0417L0.268465 48.667C0.268465 48.667 -0.805395 63.8358 1.34233 66.9057C3.49005 69.9756 13.3338 78.2824 13.8707 77.7406C14.4076 77.1989 17.8082 74.4901 17.0923 74.129C16.3764 73.7678 6.85787 63.733 6.85787 63.733L7.60651 49.7505L1.87926 47.0417Z" fill="#C6D3ED"/>
<path d="M13.8816 21.5265C13.8816 21.5265 15.9501 20.7675 18.7709 22.3803L17.2665 22.7597C17.2665 22.7597 19.523 22.9495 19.8051 25.9852H18.7709C18.7709 25.9852 19.429 28.6415 18.7709 29.4004L18.3477 28.594L17.1254 31.0606L16.8434 29.8273L16.2792 30.017L15.9031 28.0249C15.9031 28.0249 14.9629 29.4479 14.2107 29.5427V28.3095C14.2107 28.3095 12.1422 30.6811 11.484 30.5863L12.4242 29.2581L11.1079 29.5427L11.6721 28.5941L8.2872 29.5427L9.03939 28.594L6.6888 29.353L5.56051 29.8273C5.56051 29.8273 3.9621 26.1275 6.21867 23.5661C8.47525 21.0047 11.7661 20.4355 13.8816 21.5265Z" fill="#121625"/>
<path d="M228.77 18.1302H61.0715V126.495H228.77V18.1302Z" fill="#BABFC5"/>
<path d="M223.975 31.7219H65.8669V120.084H223.975V31.7219Z" fill="white"/>
<path d="M228.698 18.0344H61V25.2228H228.698V18.0344Z" fill="#61A9FF"/>
<path d="M66.2943 23.0418C67.0236 23.0418 67.6148 22.4453 67.6148 21.7095C67.6148 20.9737 67.0236 20.3772 66.2943 20.3772C65.5651 20.3772 64.9739 20.9737 64.9739 21.7095C64.9739 22.4453 65.5651 23.0418 66.2943 23.0418Z" fill="white"/>
<path d="M71.3063 23.0418C72.0356 23.0418 72.6268 22.4453 72.6268 21.7095C72.6268 20.9737 72.0356 20.3772 71.3063 20.3772C70.577 20.3772 69.9858 20.9737 69.9858 21.7095C69.9858 22.4453 70.577 23.0418 71.3063 23.0418Z" fill="white"/>
<path d="M76.3185 23.0418C77.0478 23.0418 77.639 22.4453 77.639 21.7095C77.639 20.9737 77.0478 20.3772 76.3185 20.3772C75.5892 20.3772 74.998 20.9737 74.998 21.7095C74.998 22.4453 75.5892 23.0418 76.3185 23.0418Z" fill="white"/>
<path d="M120.859 40.8903H80.2332V110.916H120.859V40.8903Z" fill="#BABFC5"/>
<path d="M161.728 40.8903H127.872V60.1656H161.728V40.8903Z" fill="#61A9FF"/>
<path d="M161.728 65.5333H127.872V86.2726H161.728V65.5333Z" fill="#BABFC5"/>
<path d="M161.728 91.6404H127.872V110.916H161.728V91.6404Z" fill="#BABFC5"/>
<path d="M209.608 40.8903H168.982V71.407H209.608V40.8903Z" fill="#BABFC5"/>
<path d="M209.608 80.399H168.982V110.916H209.608V80.399Z" fill="#61A9FF"/>
<path d="M145.149 49.6034L144.618 49.4613L156.192 5.53442H223.321V6.08787H156.613L145.149 49.6034Z" fill="#121625"/>
<path d="M228.807 11.6221C227.667 11.6221 226.554 11.2813 225.607 10.6428C224.66 10.0043 223.921 9.0967 223.486 8.03487C223.05 6.97304 222.936 5.80462 223.158 4.67739C223.38 3.55015 223.929 2.51472 224.734 1.70202C225.539 0.889331 226.566 0.335882 227.683 0.11166C228.8 -0.112561 229.958 0.00251862 231.011 0.442345C232.063 0.88217 232.962 1.62699 233.595 2.58261C234.228 3.53824 234.566 4.66175 234.566 5.81107C234.564 7.35172 233.957 8.82878 232.877 9.91818C231.797 11.0076 230.334 11.6204 228.807 11.6221ZM228.807 0.553439C227.776 0.553438 226.768 0.861792 225.912 1.43951C225.055 2.01722 224.387 2.83836 223.992 3.79906C223.598 4.75977 223.495 5.8169 223.696 6.83679C223.897 7.85667 224.393 8.79349 225.122 9.52878C225.851 10.2641 226.779 10.7648 227.79 10.9677C228.801 11.1706 229.848 11.0664 230.801 10.6685C231.753 10.2706 232.567 9.59667 233.139 8.73206C233.712 7.86744 234.017 6.85093 234.017 5.81107C234.016 4.41715 233.466 3.08077 232.489 2.09511C231.513 1.10946 230.188 0.555022 228.807 0.553439Z" fill="#121625"/>
<path d="M228.807 8.02489C230.018 8.02489 231.001 7.03377 231.001 5.81115C231.001 4.58854 230.018 3.59741 228.807 3.59741C227.595 3.59741 226.613 4.58854 226.613 5.81115C226.613 7.03377 227.595 8.02489 228.807 8.02489Z" fill="#61A9FF"/>
<path d="M178.554 139.466H111.424V138.912H178.132L189.597 95.3964L190.127 95.5385L178.554 139.466Z" fill="#121625"/>
<path d="M105.939 145C104.8 145 103.686 144.659 102.739 144.021C101.792 143.382 101.054 142.475 100.618 141.413C100.182 140.351 100.068 139.182 100.29 138.055C100.512 136.928 101.061 135.893 101.866 135.08C102.672 134.267 103.698 133.714 104.815 133.489C105.932 133.265 107.091 133.38 108.143 133.82C109.195 134.26 110.095 135.005 110.728 135.96C111.36 136.916 111.698 138.04 111.698 139.189C111.697 140.73 111.089 142.207 110.009 143.296C108.93 144.385 107.466 144.998 105.939 145ZM105.939 133.931C104.908 133.931 103.901 134.24 103.044 134.817C102.187 135.395 101.519 136.216 101.125 137.177C100.73 138.138 100.627 139.195 100.828 140.215C101.029 141.234 101.525 142.171 102.254 142.907C102.983 143.642 103.911 144.143 104.922 144.346C105.933 144.548 106.981 144.444 107.933 144.046C108.885 143.648 109.699 142.975 110.272 142.11C110.844 141.245 111.15 140.229 111.15 139.189C111.148 137.795 110.599 136.459 109.622 135.473C108.645 134.487 107.32 133.933 105.939 133.931Z" fill="#121625"/>
<path d="M105.939 141.403C107.15 141.403 108.133 140.412 108.133 139.189C108.133 137.966 107.15 136.975 105.939 136.975C104.727 136.975 103.745 137.966 103.745 139.189C103.745 140.412 104.727 141.403 105.939 141.403Z" fill="#61A9FF"/>
</svg>
