<svg width="265" height="188" viewBox="0 0 265 188" fill="none" xmlns="http://www.w3.org/2000/svg">
<path d="M263.739 61.1918C260.084 73.8733 249.41 82.7505 238.276 90.2915C236.722 91.3447 235.166 92.3736 233.611 93.3783C233.6 93.3829 233.589 93.3927 233.579 93.3974C233.504 93.4455 233.429 93.4937 233.359 93.5421C233.038 93.749 232.717 93.9561 232.399 94.1607L232.573 94.2393C232.573 94.2393 232.745 94.3306 232.557 94.2539C232.501 94.2305 232.443 94.2095 232.387 94.186C225.919 91.5773 219.336 88.7763 214.379 83.8894C209.237 78.8146 206.232 70.855 209.016 64.1882C209.382 63.3149 209.845 62.4852 210.395 61.7144C210.62 61.3912 210.864 61.0819 211.117 60.7783C212.653 58.9038 214.66 57.4722 216.933 56.6307C219.205 55.7892 221.661 55.5682 224.047 55.9904C226.434 56.4126 228.664 57.4627 230.51 59.0329C232.356 60.603 233.751 62.6365 234.55 64.9242C235.368 57.3081 229.088 50.9285 223.044 46.2213C216.998 41.5165 210.128 36.3928 208.959 28.819C208.306 24.6051 209.772 20.5213 212.441 17.2431C212.524 17.1435 212.606 17.044 212.691 16.9471C215.941 13.1289 220.511 10.677 225.489 10.0813C234.76 9.11777 243.766 14.0252 250.501 20.4713C261.341 30.8426 267.895 46.773 263.739 61.1918Z" fill="#ECEFF5"/>
<path d="M246.313 44.6053C248.092 47.3736 249.458 50.3866 250.368 53.5492C251.137 56.3759 251.48 59.3017 251.384 62.2297C251.217 68.248 249.366 74.129 246.452 79.367C244.198 83.3387 241.451 87.0095 238.276 90.2923C236.721 91.3454 235.166 92.3743 233.611 93.379C233.6 93.3836 233.589 93.3935 233.579 93.3982C233.504 93.4463 233.429 93.4945 233.359 93.5428C233.038 93.7498 232.717 93.9569 232.399 94.1614C232.399 94.1614 232.745 94.3313 232.557 94.2547C232.501 94.2313 232.443 94.2103 232.387 94.1867C232.967 89.4339 232.399 84.6113 230.731 80.1231C229.063 75.6349 226.343 71.6118 222.8 68.3911C219.249 65.2193 214.998 62.9319 210.395 61.7152C210.62 61.392 210.864 61.0827 211.117 60.7791C212.895 61.2777 214.625 61.9325 216.288 62.7358C222.231 65.59 227.098 70.2819 230.167 76.1171C232.922 81.4157 234.107 87.3901 233.584 93.3389C233.85 93.098 234.116 92.852 234.374 92.6082C239.289 88.0258 243.655 82.766 246.609 76.6957C249.173 71.555 250.432 65.8629 250.278 60.1207C250.037 53.8595 247.542 48.0599 243.93 43.0112C240.061 37.6077 235.21 32.8271 230.03 28.6857C224.724 24.4362 218.919 20.8519 212.742 18.0127C212.603 17.9477 212.494 17.8316 212.438 17.6885C212.382 17.5454 212.383 17.3862 212.441 17.2438C212.482 17.1161 212.572 17.0097 212.691 16.9479C212.752 16.9214 212.819 16.9092 212.886 16.912C212.952 16.9149 213.018 16.9327 213.076 16.9642C213.839 17.3153 214.596 17.6712 215.347 18.0424C221.604 21.1349 227.453 24.9928 232.758 29.5273C237.883 33.8965 242.708 38.8884 246.313 44.6053Z" fill="white"/>
<path d="M204.082 133.804C211.57 133.804 217.64 127.733 217.64 120.245C217.64 112.757 211.57 106.687 204.082 106.687C196.594 106.687 190.523 112.757 190.523 120.245C190.523 127.733 196.594 133.804 204.082 133.804Z" fill="#283252"/>
<path d="M193.501 112.935C195.692 110.744 196.136 107.636 194.492 105.992C192.849 104.349 189.741 104.793 187.55 106.984C185.359 109.175 184.915 112.283 186.558 113.927C188.201 115.57 191.31 115.126 193.501 112.935Z" fill="#283252"/>
<path d="M218.214 108.63C219.127 106.493 217.557 103.774 214.708 102.556C211.858 101.339 208.808 102.085 207.895 104.222C206.982 106.359 208.552 109.078 211.402 110.295C214.251 111.513 217.301 110.767 218.214 108.63Z" fill="#283252"/>
<path d="M232.797 178.46C230.467 180.079 228.005 181.498 225.437 182.704L225.058 182.033L221.424 175.654L221.105 175.095L219.247 171.833L219.243 171.829L213.374 161.518L210.357 156.224L219.315 149.942L222.8 157.309L224.69 161.311L232.467 177.759L232.797 178.46Z" fill="#FFB8B8"/>
<path d="M224.793 153.584L223.669 151.824L218.702 144.031C218.023 142.517 216.773 141.334 215.223 140.74C213.674 140.146 211.953 140.191 210.436 140.864C208.92 141.537 207.732 142.784 207.133 144.331C206.534 145.878 206.573 147.599 207.24 149.118L210.311 160.058C210.397 160.367 210.549 160.655 210.756 160.901C210.963 161.147 211.22 161.346 211.51 161.484C211.8 161.622 212.117 161.697 212.438 161.703C212.76 161.709 213.078 161.646 213.374 161.518C213.385 161.514 213.393 161.511 213.404 161.507L222.799 157.309L223.811 156.857C224.107 156.724 224.37 156.529 224.584 156.285C224.797 156.042 224.956 155.755 225.049 155.444C225.142 155.134 225.167 154.807 225.123 154.486C225.079 154.165 224.966 153.857 224.793 153.584H224.793Z" fill="#61A9FF"/>
<path d="M197.799 153.829L195.185 159.732L194.617 161.016L184.939 182.881L184.628 183.582C182.007 182.489 179.484 181.176 177.084 179.657L177.345 178.921L185.245 156.631L187.185 151.157L191.432 152.227L197.799 153.829Z" fill="#FFB8B8"/>
<path d="M214.609 129.002C217.658 123.425 215.608 116.434 210.032 113.386C204.456 110.337 197.464 112.387 194.416 117.963C191.368 123.539 193.417 130.531 198.993 133.579C204.57 136.627 211.561 134.578 214.609 129.002Z" fill="#FFB8B8"/>
<path d="M224.571 156.301C224.405 154.785 224.103 153.287 223.67 151.824C222.365 147.421 219.87 143.462 216.46 140.386C215.207 139.261 213.582 138.64 211.898 138.642H195.688C194.523 138.639 193.377 138.934 192.358 139.501C191.34 140.067 190.484 140.884 189.871 141.875C189.259 142.866 188.911 143.998 188.86 145.162C188.81 146.326 189.058 147.483 189.582 148.524L191.433 152.227L195.186 159.732L196.087 161.53L200.1 169.56L200.418 170.197L220.792 175.801L220.88 175.605C220.956 175.433 221.033 175.264 221.106 175.095C221.217 174.839 221.328 174.589 221.432 174.336C223.486 169.464 224.456 165.129 224.69 161.311C224.795 159.641 224.755 157.965 224.571 156.301Z" fill="#61A9FF"/>
<path d="M198.627 140.742C197.128 140.04 195.411 139.96 193.853 140.52C192.294 141.081 191.022 142.236 190.313 143.732L188.868 145.913L184.038 153.204C183.859 153.475 183.74 153.78 183.69 154.101C183.639 154.422 183.659 154.749 183.746 155.062C183.834 155.374 183.988 155.664 184.198 155.912C184.408 156.159 184.668 156.359 184.962 156.497L185.246 156.631L194.618 161.016L195.285 161.326C195.536 161.445 195.808 161.514 196.086 161.53C196.456 161.559 196.828 161.494 197.167 161.342C197.462 161.209 197.726 161.015 197.94 160.772C198.153 160.528 198.312 160.242 198.405 159.931L201.648 149.079C202.351 147.573 202.428 145.849 201.862 144.286C201.296 142.723 200.132 141.448 198.627 140.742Z" fill="#61A9FF"/>
<path d="M221.43 174.336C221.362 174.098 221.251 173.873 221.104 173.673C220.58 172.97 219.953 172.35 219.245 171.833L219.241 171.829C216.777 169.963 211.87 167.782 202.406 167.724H202.391C201.957 167.724 201.532 167.848 201.167 168.083C200.802 168.317 200.512 168.652 200.332 169.047L200.098 169.56L198.592 172.872C198.464 173.157 198.262 173.402 198.006 173.581C196.645 174.543 192.313 178.032 190.075 184.694C189.994 184.931 189.918 185.173 189.845 185.422C199.416 188.218 209.6 188.126 219.119 185.157L219.329 184.287L221.422 175.655L221.457 175.513C221.552 175.125 221.543 174.719 221.43 174.336Z" fill="#283252"/>
<path d="M192.423 116.244C195.052 118.057 198.173 119.021 201.367 119.009C200.228 119.798 198.931 120.332 197.566 120.572C201.812 121.483 206.2 121.508 210.456 120.645C211.402 120.493 212.315 120.18 213.155 119.718C213.573 119.484 213.937 119.165 214.224 118.781C214.511 118.398 214.714 117.958 214.82 117.49C215.103 115.875 213.844 114.407 212.536 113.418C210.533 111.926 208.223 110.899 205.774 110.409C203.325 109.92 200.798 109.981 198.375 110.588C196.794 110.997 195.209 111.688 194.182 112.958C193.154 114.228 192.85 116.187 193.829 117.495L192.423 116.244Z" fill="#283252"/>
<path d="M208.294 11.6836H0.415283V12.5168H208.294V11.6836Z" fill="#94A4C4"/>
<path d="M7.49906 8.75044C8.87952 8.75044 9.9986 7.63135 9.9986 6.25089C9.9986 4.87043 8.87952 3.75134 7.49906 3.75134C6.1186 3.75134 4.99951 4.87043 4.99951 6.25089C4.99951 7.63135 6.1186 8.75044 7.49906 8.75044Z" fill="#61A9FF"/>
<path d="M14.6839 8.75044C16.0643 8.75044 17.1834 7.63135 17.1834 6.25089C17.1834 4.87043 16.0643 3.75134 14.6839 3.75134C13.3034 3.75134 12.1843 4.87043 12.1843 6.25089C12.1843 7.63135 13.3034 8.75044 14.6839 8.75044Z" fill="#61A9FF"/>
<path d="M21.8689 8.75044C23.2494 8.75044 24.3685 7.63135 24.3685 6.25089C24.3685 4.87043 23.2494 3.75134 21.8689 3.75134C20.4885 3.75134 19.3694 4.87043 19.3694 6.25089C19.3694 7.63135 20.4885 8.75044 21.8689 8.75044Z" fill="#61A9FF"/>
<path d="M163.273 60.0361H45.2889C44.9377 60.0361 44.59 59.9669 44.2656 59.8326C43.9412 59.6982 43.6464 59.5012 43.3982 59.2529C43.1499 59.0046 42.9529 58.7099 42.8185 58.3855C42.6842 58.0611 42.615 57.7134 42.615 57.3622C42.615 57.0111 42.6842 56.6634 42.8185 56.339C42.9529 56.0146 43.1499 55.7198 43.3982 55.4715C43.6464 55.2232 43.9412 55.0263 44.2656 54.8919C44.59 54.7575 44.9377 54.6884 45.2889 54.6884H163.273C163.625 54.6884 163.972 54.7575 164.297 54.8919C164.621 55.0263 164.916 55.2232 165.164 55.4715C165.412 55.7198 165.609 56.0146 165.744 56.339C165.878 56.6634 165.947 57.0111 165.947 57.3622C165.947 57.7134 165.878 58.0611 165.744 58.3855C165.609 58.7099 165.412 59.0046 165.164 59.2529C164.916 59.5012 164.621 59.6982 164.297 59.8326C163.972 59.9669 163.625 60.0361 163.273 60.0361Z" fill="#94A4C4"/>
<path d="M163.273 88.7804H45.2889C44.9377 88.7804 44.59 88.7112 44.2656 88.5768C43.9412 88.4424 43.6464 88.2455 43.3982 87.9972C43.1499 87.7489 42.9529 87.4541 42.8185 87.1297C42.6842 86.8053 42.615 86.4576 42.615 86.1065C42.615 85.7554 42.6842 85.4076 42.8185 85.0832C42.9529 84.7588 43.1499 84.4641 43.3982 84.2158C43.6464 83.9675 43.9412 83.7705 44.2656 83.6361C44.59 83.5018 44.9377 83.4326 45.2889 83.4326H163.273C163.625 83.4326 163.972 83.5018 164.297 83.6361C164.621 83.7705 164.916 83.9675 165.164 84.2158C165.412 84.4641 165.609 84.7588 165.744 85.0832C165.878 85.4076 165.947 85.7554 165.947 86.1065C165.947 86.4576 165.878 86.8053 165.744 87.1297C165.609 87.4541 165.412 87.7489 165.164 87.9972C164.916 88.2455 164.621 88.4424 164.297 88.5768C163.972 88.7112 163.625 88.7804 163.273 88.7804Z" fill="#E5EAF2"/>
<path d="M163.273 99.8104H45.2889C44.5797 99.8104 43.8996 99.5287 43.3982 99.0272C42.8967 98.5258 42.615 97.8457 42.615 97.1365C42.615 96.4274 42.8967 95.7473 43.3982 95.2458C43.8996 94.7444 44.5797 94.4626 45.2889 94.4626H163.273C163.983 94.4626 164.663 94.7444 165.164 95.2458C165.666 95.7473 165.947 96.4274 165.947 97.1365C165.947 97.8457 165.666 98.5258 165.164 99.0272C164.663 99.5287 163.983 99.8104 163.273 99.8104Z" fill="#E5EAF2"/>
<path d="M144.057 48.6722H64.5088C63.7997 48.6722 63.1196 48.3905 62.6181 47.889C62.1167 47.3876 61.835 46.7075 61.835 45.9983C61.835 45.2892 62.1167 44.6091 62.6181 44.1076C63.1196 43.6062 63.7997 43.3245 64.5088 43.3245H144.057C144.766 43.3245 145.446 43.6062 145.947 44.1076C146.449 44.6091 146.73 45.2892 146.73 45.9983C146.73 46.7075 146.449 47.3876 145.947 47.889C145.446 48.3905 144.766 48.6722 144.057 48.6722Z" fill="#94A4C4"/>
<path d="M86.885 77.7502H45.44C45.0886 77.7506 44.7406 77.6818 44.4158 77.5476C44.091 77.4134 43.7959 77.2165 43.5472 76.9682C43.2986 76.7199 43.1014 76.4249 42.9668 76.1003C42.8322 75.7757 42.7629 75.4277 42.7629 75.0763C42.7629 74.7249 42.8322 74.377 42.9668 74.0524C43.1014 73.7277 43.2986 73.4328 43.5472 73.1845C43.7959 72.9362 44.091 72.7393 44.4158 72.6051C44.7406 72.4709 45.0886 72.402 45.44 72.4025H86.885C87.5942 72.4025 88.2743 72.6842 88.7758 73.1856C89.2772 73.6871 89.5589 74.3672 89.5589 75.0763C89.5589 75.7855 89.2772 76.4656 88.7758 76.9671C88.2743 77.4685 87.5942 77.7502 86.885 77.7502Z" fill="#E5EAF2"/>
<path d="M163.424 77.7502H121.979C121.628 77.7506 121.28 77.6818 120.955 77.5476C120.63 77.4134 120.335 77.2165 120.086 76.9682C119.838 76.7199 119.64 76.4249 119.506 76.1003C119.371 75.7757 119.302 75.4277 119.302 75.0763C119.302 74.7249 119.371 74.377 119.506 74.0524C119.64 73.7277 119.838 73.4328 120.086 73.1845C120.335 72.9362 120.63 72.7393 120.955 72.6051C121.28 72.4709 121.628 72.402 121.979 72.4025H163.424C163.776 72.402 164.124 72.4709 164.448 72.6051C164.773 72.7393 165.068 72.9362 165.317 73.1845C165.566 73.4328 165.763 73.7277 165.897 74.0524C166.032 74.377 166.101 74.7249 166.101 75.0763C166.101 75.4277 166.032 75.7757 165.897 76.1003C165.763 76.4249 165.566 76.7199 165.317 76.9682C165.068 77.2165 164.773 77.4134 164.448 77.5476C164.124 77.6818 163.776 77.7506 163.424 77.7502Z" fill="#E5EAF2"/>
<path d="M205.795 0H2.91325C2.14031 0.00117589 1.39942 0.309007 0.853222 0.855913C0.307028 1.40282 0.000169704 2.14411 0 2.91704V140.394C0.000973755 141.166 0.308215 141.907 0.854346 142.453C1.40048 142.999 2.14091 143.306 2.91325 143.307H154.626C154.588 143.031 154.557 142.751 154.527 142.475H2.91325C2.36137 142.475 1.83223 142.255 1.44199 141.865C1.05175 141.475 0.832276 140.946 0.831769 140.394V2.91704C0.832128 2.36477 1.05143 1.83516 1.44159 1.44428C1.83176 1.05341 2.36097 0.833156 2.91325 0.831798H205.795C206.348 0.832375 206.878 1.05225 207.269 1.44319C207.66 1.83412 207.88 2.36418 207.881 2.91704V87.174C208.157 87.1932 208.436 87.2162 208.713 87.243V2.91704C208.712 2.14349 208.405 1.40174 207.858 0.854767C207.311 0.307796 206.569 0.000355494 205.795 0Z" fill="#94A4C4"/>
<path d="M154.627 143.308C154.589 143.032 154.558 142.752 154.527 142.476C154.52 142.434 154.516 142.395 154.512 142.353C154.401 141.345 154.32 140.327 154.27 139.298C154.06 140.184 153.869 141.073 153.699 141.966C153.711 142.096 153.722 142.223 153.738 142.353C153.742 142.395 153.745 142.434 153.753 142.476C153.784 142.752 153.814 143.032 153.853 143.308C153.96 144.162 154.09 145.006 154.244 145.845C154.247 145.811 154.251 145.78 154.255 145.746C154.363 144.937 154.485 144.132 154.631 143.327C154.628 143.321 154.626 143.314 154.627 143.308ZM208.713 86.4732C208.437 86.4464 208.157 86.4234 207.881 86.4042C207.839 86.4004 207.801 86.4004 207.759 86.3965C206.532 86.3045 205.29 86.2585 204.04 86.2585C196.965 86.2607 189.969 87.7462 183.504 90.619C177.039 93.4919 171.247 97.6883 166.504 102.937C161.76 108.187 158.17 114.372 155.964 121.094C153.759 127.817 152.987 134.927 153.699 141.966C153.711 142.096 153.722 142.223 153.738 142.353C153.742 142.395 153.745 142.434 153.753 142.476C153.784 142.752 153.814 143.032 153.853 143.308C153.96 144.162 154.09 145.006 154.244 145.845C155.767 154.168 159.343 161.978 164.65 168.568C169.956 175.158 176.823 180.319 184.629 183.583C185.427 183.912 186.231 184.227 187.048 184.514C187.585 184.71 188.121 184.89 188.665 185.062C189.056 185.189 189.451 185.308 189.846 185.423C190.406 185.588 190.973 185.745 191.544 185.89C198.55 187.688 205.862 187.955 212.98 186.673C220.099 185.391 226.858 182.59 232.797 178.462H232.801C239.536 173.811 245.041 167.596 248.845 160.349C252.649 153.103 254.637 145.041 254.638 136.856C254.638 110.53 234.43 88.8383 208.713 86.4732ZM232.467 177.76C230.125 179.396 227.646 180.826 225.058 182.034C223.198 182.905 221.285 183.657 219.331 184.288C210.513 187.126 201.079 187.453 192.085 185.235C191.41 185.07 190.741 184.89 190.076 184.694C189.421 184.503 188.772 184.3 188.129 184.085C187.604 183.905 187.078 183.721 186.557 183.525C186.013 183.318 185.476 183.104 184.94 182.881C176.868 179.518 169.82 174.094 164.502 167.153C159.183 160.211 155.779 151.996 154.631 143.327C154.628 143.321 154.626 143.314 154.627 143.308C154.589 143.032 154.558 142.752 154.527 142.476C154.52 142.434 154.516 142.395 154.512 142.353C154.401 141.345 154.32 140.327 154.27 139.298C154.228 138.489 154.208 137.675 154.209 136.856C154.224 123.645 159.478 110.978 168.82 101.636C178.162 92.2943 190.829 87.0396 204.04 87.0252C205.29 87.0252 206.532 87.0712 207.759 87.1632C207.801 87.167 207.839 87.1708 207.881 87.1747C208.157 87.1938 208.437 87.2168 208.713 87.2437C234.008 89.6049 253.872 110.952 253.872 136.856C253.871 144.896 251.923 152.815 248.196 159.939C244.468 167.062 239.072 173.176 232.467 177.76ZM186.557 183.525C186.013 183.318 185.476 183.104 184.94 182.881C176.868 179.518 169.82 174.094 164.502 167.153C159.183 160.211 155.779 151.996 154.631 143.327C154.485 144.132 154.363 144.937 154.255 145.746C154.251 145.78 154.247 145.811 154.244 145.845C155.767 154.168 159.343 161.978 164.65 168.568C169.956 175.158 176.823 180.319 184.629 183.583C185.427 183.912 186.231 184.227 187.048 184.514C186.879 184.188 186.714 183.859 186.557 183.525ZM207.758 86.3965C206.532 86.3045 205.29 86.2585 204.04 86.2585C196.965 86.2607 189.969 87.7462 183.504 90.619C177.039 93.4919 171.247 97.6883 166.504 102.937C161.76 108.187 158.17 114.372 155.964 121.094C153.759 127.817 152.987 134.927 153.699 141.966C153.711 142.096 153.722 142.223 153.738 142.353C153.741 142.395 153.745 142.434 153.753 142.476H154.527C154.52 142.434 154.516 142.395 154.512 142.353C154.401 141.345 154.32 140.327 154.27 139.298C154.228 138.489 154.208 137.675 154.209 136.856C154.223 123.645 159.478 110.978 168.82 101.636C178.162 92.2943 190.829 87.0396 204.04 87.0252C205.29 87.0252 206.532 87.0712 207.758 87.1632C207.801 87.167 207.839 87.1708 207.881 87.1747V86.4042C207.839 86.4004 207.801 86.4004 207.759 86.3965H207.758Z" fill="#283252"/>
<path d="M245.168 99.209C260.71 99.4744 260.707 122.592 245.168 122.855C229.627 122.589 229.63 99.4721 245.168 99.209Z" fill="#61A9FF"/>
<path d="M245.168 117.469C244.948 117.469 244.737 117.381 244.581 117.225C244.425 117.069 244.337 116.858 244.337 116.638V112.233C244.337 112.134 244.298 112.04 244.229 111.971C244.159 111.901 244.065 111.862 243.967 111.862H239.561C239.341 111.862 239.13 111.775 238.974 111.619C238.818 111.463 238.73 111.252 238.73 111.031C238.73 110.811 238.818 110.599 238.974 110.444C239.13 110.288 239.341 110.2 239.561 110.2H243.967C244.065 110.2 244.159 110.161 244.229 110.092C244.298 110.022 244.337 109.928 244.337 109.83V105.424C244.337 105.204 244.425 104.993 244.581 104.837C244.736 104.681 244.948 104.594 245.168 104.594C245.388 104.594 245.6 104.681 245.755 104.837C245.911 104.993 245.999 105.204 245.999 105.424V109.83C245.999 109.928 246.038 110.022 246.107 110.092C246.177 110.161 246.271 110.2 246.369 110.2H250.775C250.995 110.2 251.206 110.288 251.362 110.444C251.518 110.599 251.606 110.811 251.606 111.031C251.606 111.252 251.518 111.463 251.362 111.619C251.206 111.775 250.995 111.862 250.775 111.862H246.369C246.271 111.862 246.177 111.901 246.107 111.971C246.038 112.04 245.999 112.134 245.999 112.233V116.638C245.999 116.858 245.911 117.069 245.755 117.225C245.599 117.381 245.388 117.469 245.168 117.469Z" fill="white"/>
</svg>
