<svg width="174" height="173" viewBox="0 0 174 173" fill="none" xmlns="http://www.w3.org/2000/svg">
<path d="M89.6712 84.635H81.8984L77.6328 99.2932H86.0691L80.8557 119.72L96.1169 93.6191H87.1118L89.6712 84.635Z" fill="#FF9777"/>
<path d="M55.038 151.469L53.823 168.594L115.971 173L117.186 155.875L55.038 151.469Z" fill="#61A9FF"/>
<path d="M75.1252 145.47H72.0456V149.437H64.5834V145.47H52.6794V140.557L62.4514 126.467H70.3873L61.7407 139.491H64.8795V135.999H72.164V139.491H75.2437V145.47H75.1252Z" fill="#61A9FF"/>
<path d="M81.2255 148.49C79.6857 147.542 78.442 146.181 77.5537 144.346C76.6653 142.51 76.2507 140.379 76.2507 137.893C76.2507 135.406 76.6653 133.275 77.5537 131.44C78.442 129.605 79.6857 128.243 81.2255 127.296C82.7653 126.349 84.6013 125.875 86.6149 125.875C88.6285 125.875 90.4644 126.349 92.0042 127.296C93.544 128.243 94.7877 129.605 95.6761 131.44C96.5644 133.216 96.979 135.406 96.979 137.893C96.979 140.379 96.5644 142.51 95.6761 144.346C94.7877 146.122 93.544 147.542 92.0042 148.49C90.4644 149.437 88.6285 149.91 86.6149 149.91C84.6013 149.91 82.7653 149.437 81.2255 148.49ZM89.2799 137.893C89.2799 134.045 88.3916 132.091 86.6741 132.091C84.8974 132.091 84.0683 134.045 84.0683 137.893C84.0683 141.741 84.9566 143.694 86.6741 143.694C88.3916 143.754 89.2799 141.8 89.2799 137.893Z" fill="#61A9FF"/>
<path d="M121.201 145.47H118.122V149.437H110.6V145.47H98.6963V140.557L108.468 126.467H116.404L107.758 139.491H110.896V135.999H118.181V139.491H121.26V145.47H121.201Z" fill="#61A9FF"/>
<path d="M70.2097 164.237L70.1505 165.006L64.2874 164.592L64.8796 156.304L70.5651 156.718L70.5058 157.488L65.7087 157.133L65.4718 160.093L69.7359 160.389L69.6767 161.158L65.4126 160.862L65.1757 163.941L70.2097 164.237Z" fill="white"/>
<path d="M77.8496 165.539L76.1322 162.757C75.8953 162.757 75.7176 162.757 75.4807 162.757L73.2894 162.579L73.1117 165.184L72.2234 165.125L72.8156 156.837L75.8953 157.073C77.9681 157.251 79.2118 158.376 79.0933 160.152C78.9749 161.454 78.2642 162.283 77.0205 162.638L78.8565 165.598L77.8496 165.539ZM78.1458 160.152C78.2642 158.849 77.4351 158.021 75.7768 157.902L73.5855 157.725L73.2894 161.869L75.4807 162.046C77.139 162.105 78.0865 161.395 78.1458 160.152Z" fill="white"/>
<path d="M86.3777 166.19L84.6602 163.408C84.4233 163.408 84.2457 163.408 84.0088 163.408L81.8175 163.23L81.6398 165.835L80.7515 165.776L81.3437 157.488L84.4233 157.725C86.4962 157.902 87.7399 159.027 87.6214 160.803C87.503 162.105 86.7923 162.934 85.5486 163.289L87.3845 166.249L86.3777 166.19ZM86.733 160.744C86.8515 159.441 86.0224 158.613 84.3641 158.494L82.1728 158.317L81.8767 162.461L84.068 162.638C85.667 162.757 86.6146 162.046 86.733 160.744Z" fill="white"/>
<path d="M88.8058 162.165C88.9835 159.738 90.9379 158.08 93.4253 158.258C95.9127 158.435 97.6301 160.33 97.4525 162.757C97.2748 165.184 95.3204 166.841 92.833 166.664C90.3456 166.486 88.6282 164.592 88.8058 162.165ZM96.6233 162.757C96.7418 160.803 95.3796 159.205 93.4253 159.086C91.4117 158.968 89.8126 160.27 89.6942 162.283C89.5757 164.296 90.9379 165.835 92.9515 165.953C94.9059 166.072 96.5049 164.71 96.6233 162.757Z" fill="white"/>
<path d="M104.796 167.493L103.079 164.71C102.842 164.71 102.664 164.71 102.427 164.71L100.177 164.533L99.9992 167.137L99.1108 167.078L99.7031 158.79L102.783 159.027C104.856 159.205 106.099 160.329 105.981 162.105C105.862 163.408 105.152 164.237 103.908 164.592L105.744 167.552L104.796 167.493ZM105.152 162.046C105.27 160.744 104.441 159.915 102.783 159.797L100.591 159.619L100.295 163.763L102.487 163.941C104.145 164.059 105.033 163.349 105.152 162.046Z" fill="white"/>
<path d="M166.774 46.1163C165.234 42.9787 161.977 40.7883 158.246 40.7883C157.002 40.7883 155.818 41.0251 154.692 41.4987C152.975 39.3084 150.31 37.9468 147.289 37.9468C144.743 37.9468 142.374 38.9532 140.656 40.6699C146.875 45.2283 151.139 52.1546 152.146 60.0873H172.163C173.289 58.6073 173.999 56.7722 173.999 54.7594C174.058 50.3786 170.92 46.8267 166.774 46.1163Z" fill="#61A9FF"/>
<path d="M74.0297 12.8463C82.321 12.8463 90.1385 16.1022 95.8832 21.9038C98.5483 21.1342 101.332 20.779 104.115 20.779C110.156 20.779 115.901 22.4958 120.757 25.6333C120.757 25.2781 120.816 24.9821 120.816 24.6269C120.816 18.2926 116.197 13.0831 110.156 12.0767C107.906 7.45912 103.168 4.26235 97.66 4.26235C95.824 4.26235 94.1065 4.61755 92.5075 5.26874C90.0201 2.01278 86.1113 0 81.7288 0C74.7996 0 69.0549 5.09114 68.0481 11.7215C63.9617 12.0767 60.349 14.1486 58.0393 17.2862C62.8364 14.3854 68.3442 12.8463 74.0297 12.8463Z" fill="#61A9FF"/>
<path d="M27.7167 44.6955C32.1585 39.9004 37.9624 36.7036 44.2401 35.4012C45.1284 32.1452 46.609 29.1261 48.445 26.3437C47.0236 25.8701 45.4838 25.5741 43.8848 25.5741C41.9896 25.5741 40.1537 25.9293 38.5546 26.6397C35.9488 23.3245 31.8623 21.2526 27.3613 21.2526C20.1953 21.2526 14.2729 26.5213 13.2069 33.3884C5.80392 33.9804 0 40.1372 0 47.6555C0 50.201 0.651461 52.6282 1.83593 54.7002H21.439C22.8603 51.0298 24.9924 47.6555 27.7167 44.6955Z" fill="#61A9FF"/>
<path d="M142.61 78.4984C145.749 74.4729 147.585 69.3817 147.585 63.8762C147.585 51.9771 138.938 42.15 127.567 40.2556C123.363 31.5533 114.42 25.5742 104.115 25.5742C100.68 25.5742 97.3634 26.2254 94.4022 27.4686C89.6051 21.4894 82.2613 17.6415 74.0293 17.6415C61 17.6415 50.2213 27.1726 48.2669 39.6636C34.8824 40.7884 24.3406 52.0363 24.3406 65.7113C24.3406 70.3881 25.5843 74.7097 27.7163 78.4984H142.61Z" fill="white"/>
<path opacity="0.1" d="M147.585 63.8762C147.585 61.5082 147.23 59.2586 146.578 57.0682C132.424 65.9481 88.7758 86.7271 25.7026 57.1866C24.8143 59.8506 24.2812 62.6922 24.2812 65.6521C24.2812 70.3289 25.5249 74.6504 27.657 78.4392H142.551C145.749 74.4728 147.585 69.3817 147.585 63.8762Z" fill="#414042"/>
</svg>
