<svg width="48" height="48" viewBox="0 0 48 48" fill="none" xmlns="http://www.w3.org/2000/svg">
<path fill-rule="evenodd" clip-rule="evenodd" d="M27 9C27 10.6569 25.6569 12 24 12C22.3431 12 21 10.6569 21 9C21 7.34315 22.3431 6 24 6C25.6569 6 27 7.34315 27 9ZM27 24C27 25.6569 25.6569 27 24 27C22.3431 27 21 25.6569 21 24C21 22.3431 22.3431 21 24 21C25.6569 21 27 22.3431 27 24ZM24 42C25.6569 42 27 40.6569 27 39C27 37.3431 25.6569 36 24 36C22.3431 36 21 37.3431 21 39C21 40.6569 22.3431 42 24 42Z" fill="#39A5ED"/>
</svg>
