<svg width="48" height="48" viewBox="0 0 48 48" fill="none" xmlns="http://www.w3.org/2000/svg">
<path fill-rule="evenodd" clip-rule="evenodd" d="M24 6C20.0469 6 16.83 9.21685 16.83 13.17C16.83 17.1231 20.0469 20.34 24 20.34C27.9531 20.34 31.17 17.1231 31.17 13.17C31.17 9.21685 27.9531 6 24 6ZM10.83 13.17C10.83 5.90315 16.7331 0 24 0C31.2669 0 37.17 5.90314 37.17 13.17C37.17 16.9934 35.5358 20.4393 32.9287 22.8465C33.4997 23.1335 34.0605 23.4482 34.6104 23.79C40.5644 27.4736 45 34.0793 45 42V45H3V42C3 33.4409 7.91757 26.1639 14.991 22.7718C12.4307 20.3683 10.83 16.954 10.83 13.17ZM31.4459 28.8877C29.145 27.457 26.6619 26.7239 24.0069 26.73L24 26.73C16.7887 26.73 10.6521 31.9021 9.28421 39H38.6924C37.803 34.7226 35.0602 31.1231 31.452 28.8914L31.4459 28.8877Z" fill="#39A5ED"/>
</svg>
