<svg width="32" height="32" viewBox="0 0 32 32" fill="none" xmlns="http://www.w3.org/2000/svg">
<path fill-rule="evenodd" clip-rule="evenodd" d="M6 14.77C6 9.934 9.934 6 14.77 6C19.606 6 23.54 9.934 23.54 14.77C23.54 19.606 19.606 23.54 14.77 23.54C9.934 23.54 6 19.606 6 14.77ZM17.0004 21H13.0004V17H9.0004V13H13.0004V9H17.0004V13H21.0004V17H17.0004V21ZM2 14.77C2 21.81 7.728 27.54 14.77 27.54C17.5708 27.54 20.1638 26.6336 22.2712 25.0988L28.5864 31.414L31.4144 28.586L25.0991 22.2707C26.6338 20.1631 27.54 17.5702 27.54 14.77C27.54 7.728 21.812 2 14.77 2C7.728 2 2 7.728 2 14.77Z" fill="#39A5ED"/>
</svg>
