<svg width="20" height="20" viewBox="0 0 20 20" fill="none" xmlns="http://www.w3.org/2000/svg">
<path fill-rule="evenodd" clip-rule="evenodd" d="M2.5 16.6075H8.41125L10.1875 18.3837C10.4225 18.6187 10.7413 18.75 11.0712 18.75C11.4037 18.75 11.7213 18.6187 11.955 18.3837L13.7312 16.6075H17.5C18.1912 16.6075 18.75 16.0475 18.75 15.3575V2.5C18.75 1.81 18.1912 1.25 17.5 1.25H2.5C1.80875 1.25 1.25 1.81 1.25 2.5V15.3575C1.25 16.0475 1.80875 16.6075 2.5 16.6075ZM3.75 3.75H16.25V14.1075H13.2137C12.8825 14.1075 12.565 14.2388 12.33 14.4738L11.0712 15.7325L9.8125 14.4738C9.5775 14.2388 9.26 14.1075 8.92875 14.1075H3.75V3.75ZM5.00025 10.0122L4.98775 7.51225L7.48775 7.49975L7.50025 10.0122H5.00025ZM11.2378 7.5L8.73775 7.5125L8.75025 10.0125H11.2502L11.2378 7.5ZM14.9875 7.49975L15 10.0122H12.5L12.4875 7.51225L14.9875 7.49975Z" fill="#39A5ED"/>
</svg>
