<svg width="24" height="24" viewBox="0 0 24 24" fill="none" xmlns="http://www.w3.org/2000/svg">
<g clip-path="url(#clip0_401_34279)">
<path d="M10 14H10.74L8.82 5.56C8.61 4.65 7.8 4 6.87 4H4C3.45 4 3 4.45 3 5C3 5.55 3.45 6 4 6H6.87L8.29 12.25H8.28C6.12 12.9 4.47 14.73 4.09 17H0V19H6V18C6 15.79 7.79 14 10 14Z" fill="black"/>
<path d="M18.75 8H18.19L16.84 4.31C16.55 3.52 15.8 3 14.96 3H12C11.45 3 11 3.45 11 4C11 4.55 11.45 5 12 5H14.96L16.06 8H10.4L10.86 10H15C14.57 10.58 14.25 11.25 14.1 12H11.31L11.77 14H14.1C14.54 16.23 16.41 17.88 18.75 17.99C21.91 18.14 24.63 15.16 23.87 11.89C23.34 9.57 21.13 8 18.75 8ZM18.88 16C17.34 15.94 16.04 14.63 16 13.08C15.98 12.12 16.39 11.28 17.05 10.72L17.67 12.42C17.86 12.94 18.43 13.21 18.95 13.02C19.47 12.83 19.74 12.26 19.55 11.74L18.92 10.01C18.92 10.01 18.92 10.01 18.93 10C20.64 9.96 22 11.29 22 13C22 14.72 20.62 16.06 18.88 16Z" fill="black"/>
<path d="M10 15C8.34 15 7 16.34 7 18C7 19.66 8.34 21 10 21C11.66 21 13 19.66 13 18C13 16.34 11.66 15 10 15ZM10 19C9.45 19 9 18.55 9 18C9 17.45 9.45 17 10 17C10.55 17 11 17.45 11 18C11 18.55 10.55 19 10 19Z" fill="black"/>
</g>
<defs>
<clipPath id="clip0_401_34279">
<rect width="24" height="24" fill="white"/>
</clipPath>
</defs>
</svg>
