<svg width="24" height="24" viewBox="0 0 24 24" fill="none" xmlns="http://www.w3.org/2000/svg">
<g clip-path="url(#clip0_401_32986)">
<path d="M4.37 3.55C4.89 2.62 5.87 2 7 2C7.38 2 7.72 1.78 7.89 1.47C8.04 1.16 8.39 1 8.73 1C9.47 1 9.99 1.8 9.63 2.45C9.11 3.38 8.13 4 7 4C6.62 4 6.28 4.22 6.11 4.53C5.96 4.84 5.61 5 5.27 5C4.53 5 4.01 4.2 4.37 3.55ZM22.39 12.19C22.05 12.63 21.43 12.71 20.99 12.38L20 11.62V20C20 20.55 19.55 21 19 21H5C4.45 21 4 20.55 4 20V11.62L3.01 12.38C2.57 12.72 1.94 12.63 1.61 12.19C1.28 11.75 1.36 11.12 1.8 10.79L4 9.11V7C4 6.45 4.45 6 5 6C5.55 6 6 6.45 6 7V7.58L11.39 3.46C11.75 3.19 12.25 3.19 12.6 3.46L22.2 10.79C22.64 11.13 22.73 11.76 22.39 12.19ZM10.06 7H13.95L12 5.52L10.06 7ZM6 10.1V11H18V10.1L16.56 9H7.44L6 10.1ZM6 13V15H18V13H6ZM18 19V17H6V19H18Z" fill="black"/>
</g>
<defs>
<clipPath id="clip0_401_32986">
<rect width="24" height="24" fill="white"/>
</clipPath>
</defs>
</svg>
