<svg width="24" height="24" viewBox="0 0 24 24" fill="none" xmlns="http://www.w3.org/2000/svg">
<g clip-path="url(#clip0_401_33534)">
<path d="M12 8.89002L12.94 12H15.76L13.49 13.62L14.42 16.63L12 14.79L9.58002 16.63L10.51 13.62L8.24002 12H11.06L12 8.89002ZM9.58002 10H5.12002C4.15002 10 3.75002 11.25 4.54002 11.81L8.18002 14.41L6.75002 19.02C6.46002 19.95 7.54002 20.7 8.31002 20.11L12 17.31L15.69 20.12C16.46 20.71 17.54 19.96 17.25 19.03L15.82 14.42L19.46 11.82C20.25 11.25 19.85 10.01 18.88 10.01H14.42L12.95 5.17002C12.66 4.22002 11.32 4.22002 11.04 5.17002L9.58002 10Z" fill="black"/>
</g>
<defs>
<clipPath id="clip0_401_33534">
<rect width="24" height="24" fill="white"/>
</clipPath>
</defs>
</svg>
