<svg width="24" height="24" viewBox="0 0 24 24" fill="none" xmlns="http://www.w3.org/2000/svg">
<g clip-path="url(#clip0_401_33885)">
<path d="M3.00999 13.28C2.86999 10.71 4.66999 8.54997 7.07999 8.09997L6.28999 8.87997C5.89999 9.26997 5.89999 9.89997 6.28999 10.29C6.67999 10.68 7.30999 10.68 7.69999 10.29L10.29 7.69997C10.68 7.30997 10.68 6.67997 10.29 6.28997L7.70999 3.69997C7.31999 3.30997 6.68999 3.30997 6.29999 3.69997C5.90999 4.08997 5.90999 4.71997 6.29999 5.10997L7.17999 5.98997V6.04997C3.53999 6.47997 0.749989 9.69997 1.02999 13.52C1.28999 17.22 4.54999 20 8.25999 20H9.99999C10.55 20 11 19.55 11 19C11 18.45 10.55 18 9.99999 18H8.21999C5.51999 18 3.14999 15.96 3.00999 13.28Z" fill="black"/>
<path d="M13 15V18C13 19.1 13.9 20 15 20H20C21.1 20 22 19.1 22 18V15C22 13.9 21.1 13 20 13H15C13.9 13 13 13.9 13 15ZM20 18H15V15H20V18Z" fill="black"/>
<path d="M20 4H15C13.9 4 13 4.9 13 6V9C13 10.1 13.9 11 15 11H20C21.1 11 22 10.1 22 9V6C22 4.9 21.1 4 20 4Z" fill="black"/>
</g>
<defs>
<clipPath id="clip0_401_33885">
<rect width="24" height="24" fill="white"/>
</clipPath>
</defs>
</svg>
