<svg width="24" height="24" viewBox="0 0 24 24" fill="none" xmlns="http://www.w3.org/2000/svg">
<g clip-path="url(#clip0_401_34379)">
<path d="M20.06 10.1401C20.62 10.6001 21.44 10.5601 21.95 10.0501C22.54 9.46011 22.5 8.48011 21.85 7.95011C18.26 5.01011 13.65 3.92011 9.29998 4.69011L11.89 7.28011C14.78 7.25011 17.69 8.20011 20.06 10.1401ZM17.79 11.9701C17.01 11.4001 16.16 10.9701 15.27 10.6701L18.22 13.6201C18.46 13.0401 18.32 12.3501 17.79 11.9701ZM13.95 16.2301C12.73 15.6001 11.27 15.6001 10.04 16.2301C9.44998 16.5401 9.33998 17.3501 9.80998 17.8201L11.28 19.2901C11.67 19.6801 12.3 19.6801 12.69 19.2901L14.16 17.8201C14.65 17.3501 14.55 16.5401 13.95 16.2301ZM19.68 17.9001L4.11997 2.34011C3.72997 1.95011 3.09998 1.95011 2.70998 2.34011C2.31998 2.73011 2.31998 3.36011 2.70998 3.75011L5.04998 6.10011C4.03998 6.60011 3.05998 7.21011 2.15998 7.95011C1.50998 8.48011 1.46997 9.46011 2.05997 10.0501C2.56997 10.5601 3.37998 10.6101 3.92998 10.1501C4.92998 9.33011 6.02997 8.69011 7.17998 8.22011L9.40998 10.4501C8.27997 10.7501 7.19998 11.2501 6.21997 11.9601C5.52997 12.4601 5.48998 13.4701 6.08998 14.0701L6.09998 14.0801C6.58998 14.5701 7.35997 14.6201 7.92998 14.2101C9.11998 13.3701 10.51 12.9501 11.9 12.9201L18.27 19.2901C18.66 19.6801 19.29 19.6801 19.68 19.2901C20.07 18.9201 20.07 18.2901 19.68 17.9001Z" fill="black"/>
</g>
<defs>
<clipPath id="clip0_401_34379">
<rect width="24" height="24" fill="white"/>
</clipPath>
</defs>
</svg>
