<svg width="24" height="24" viewBox="0 0 24 24" fill="none" xmlns="http://www.w3.org/2000/svg">
<g clip-path="url(#clip0_401_33918)">
<path d="M22 4C22 2.9 21.1 2 20 2H4C2.9 2 2.01 2.9 2.01 4L2 22L6 18H15V11C15 10.45 15.45 10 16 10H22V4Z" fill="black"/>
<path d="M21.69 16H20.3L21.7 12.7C21.84 12.37 21.6 12 21.24 12H17.5C17.22 12 17 12.22 17 12.5V17.5C17 17.78 17.22 18 17.5 18H19V21.94C19 22.2 19.36 22.29 19.47 22.05L22.13 16.72C22.3 16.39 22.06 16 21.69 16Z" fill="black"/>
</g>
<defs>
<clipPath id="clip0_401_33918">
<rect width="24" height="24" fill="white"/>
</clipPath>
</defs>
</svg>
