<svg width="24" height="24" viewBox="0 0 24 24" fill="none" xmlns="http://www.w3.org/2000/svg">
<g clip-path="url(#clip0_401_32650)">
<path d="M5.78 2.95C7.24 2.16 9.48 2 12 2C16.42 2 20 2.5 20 6V16C20 16.35 19.92 16.67 19.81 16.98L13.83 11H18V6H8.83L5.78 2.95ZM20.49 21.9C20.1 22.29 19.47 22.29 19.08 21.9L18.07 20.89C17.89 20.96 17.7 21 17.5 21C16.67 21 16 20.32 16 19.5V19H8V19.5C8 20.33 7.33 21 6.5 21C5.67 21 5 20.33 5 19.5V18.22C4.39 17.67 4 16.88 4 16V6.83L2.1 4.93C1.71 4.54 1.71 3.91 2.1 3.52C2.49 3.13 3.12 3.13 3.51 3.52L20.48 20.49C20.88 20.88 20.88 21.51 20.49 21.9ZM9 15.5C9 14.67 8.33 14 7.5 14C6.67 14 6 14.67 6 15.5C6 16.33 6.67 17 7.5 17C8.33 17 9 16.33 9 15.5ZM8.17 11L6 8.83V11H8.17Z" fill="black"/>
</g>
<defs>
<clipPath id="clip0_401_32650">
<rect width="24" height="24" fill="white"/>
</clipPath>
</defs>
</svg>
