<svg width="24" height="24" viewBox="0 0 24 24" fill="none" xmlns="http://www.w3.org/2000/svg">
<g clip-path="url(#clip0_401_33745)">
<path d="M12.04 8.03998H11.95L10.35 12.59H13.64L12.04 8.03998Z" fill="black"/>
<path d="M12 2C6.48 2 2 6.48 2 12C2 17.52 6.48 22 12 22C17.52 22 22 17.52 22 12C22 6.48 17.52 2 12 2ZM15 16.41L14.22 14.19H9.78L8.99 16.41C8.87 16.76 8.53 17 8.16 17C7.54 17 7.11 16.38 7.33 15.8L10.67 6.92C10.88 6.37 11.4 6 12 6C12.59 6 13.12 6.37 13.33 6.92L16.67 15.8C16.89 16.38 16.46 17 15.84 17C15.46 17 15.12 16.76 15 16.41Z" fill="black"/>
</g>
<defs>
<clipPath id="clip0_401_33745">
<rect width="24" height="24" fill="white"/>
</clipPath>
</defs>
</svg>
