<svg width="24" height="24" viewBox="0 0 24 24" fill="none" xmlns="http://www.w3.org/2000/svg">
<path d="M18.87 13C18.37 13 17.96 13.37 17.89 13.86C17.41 17.23 14.12 19.7 10.47 18.82C8.22001 18.28 6.56001 16.55 6.08001 14.29C5.27001 10.42 8.22001 7 11.95 7V9.79C11.95 10.24 12.49 10.46 12.8 10.14L16.59 6.35C16.79 6.15 16.79 5.84 16.59 5.64L12.8 1.85C12.49 1.54 11.95 1.76 11.95 2.2V5C7.01001 5 3.11001 9.48 4.11001 14.6C4.71001 17.71 7.01001 20.1 10.1 20.79C14.93 21.87 19.25 18.59 19.87 14.12C19.96 13.53 19.47 13 18.87 13ZM12.43 15.15C12.38 15.22 12.32 15.28 12.25 15.32C12.18 15.36 12.08 15.38 11.98 15.38C11.81 15.38 11.67 15.33 11.56 15.23C11.45 15.13 11.39 14.99 11.37 14.82H10.53C10.54 15.02 10.58 15.19 10.66 15.35C10.74 15.51 10.85 15.63 10.98 15.74C11.11 15.85 11.27 15.93 11.44 15.98C11.61 16.03 11.79 16.06 11.97 16.06C12.21 16.06 12.43 16.02 12.61 15.94C12.79 15.86 12.94 15.76 13.06 15.63C13.18 15.5 13.27 15.35 13.33 15.18C13.39 15.01 13.42 14.83 13.42 14.64C13.42 14.42 13.39 14.21 13.33 14.04C13.27 13.87 13.19 13.71 13.08 13.59C12.97 13.47 12.83 13.37 12.67 13.31C12.51 13.25 12.33 13.21 12.12 13.21C12.05 13.21 11.98 13.22 11.92 13.23C11.86 13.24 11.79 13.25 11.74 13.27C11.69 13.29 11.64 13.3 11.59 13.32C11.54 13.34 11.51 13.36 11.48 13.37L11.59 12.45H13.29V11.74H10.9L10.65 13.91L11.32 14.08C11.35 14.05 11.38 14.02 11.42 13.99C11.46 13.96 11.49 13.94 11.54 13.92C11.59 13.9 11.64 13.88 11.69 13.87C11.74 13.86 11.82 13.85 11.89 13.85C12.01 13.85 12.11 13.87 12.19 13.9C12.27 13.93 12.35 13.99 12.4 14.05C12.45 14.11 12.5 14.19 12.53 14.29C12.56 14.39 12.57 14.48 12.57 14.6C12.57 14.72 12.56 14.82 12.54 14.91C12.52 15 12.48 15.08 12.43 15.15Z" fill="black"/>
</svg>
