<svg width="24" height="24" viewBox="0 0 24 24" fill="none" xmlns="http://www.w3.org/2000/svg">
<g clip-path="url(#clip0_401_34164)">
<path d="M13 18H11V16H13V18ZM8.99998 15V19C8.99998 19.55 9.44998 20 9.99998 20H14C14.55 20 15 19.55 15 19V15C15 14.45 14.55 14 14 14H9.99998C9.44998 14 8.99998 14.45 8.99998 15ZM19 9.29997V4.99997C19 4.44997 18.55 3.99997 18 3.99997H17C16.45 3.99997 16 4.44997 16 4.99997V6.59997L12.67 3.59997C12.29 3.25997 11.71 3.25997 11.33 3.59997L2.96998 11.13C2.62998 11.43 2.83998 12 3.29998 12H4.60998C4.85998 12 5.09998 11.91 5.27998 11.74L12 5.68997L18.71 11.74C18.9 11.91 19.14 12 19.38 12H20.69C21.15 12 21.37 11.43 21.02 11.13L19 9.29997Z" fill="black"/>
</g>
<defs>
<clipPath id="clip0_401_34164">
<rect width="24" height="24" fill="white"/>
</clipPath>
</defs>
</svg>
