<svg width="24" height="24" viewBox="0 0 24 24" fill="none" xmlns="http://www.w3.org/2000/svg">
<g clip-path="url(#clip0_401_33503)">
<path d="M12 3V21C16.97 21 21 16.97 21 12C21 7.03 16.97 3 12 3Z" fill="black"/>
<path d="M6 15C6.55228 15 7 14.5523 7 14C7 13.4477 6.55228 13 6 13C5.44772 13 5 13.4477 5 14C5 14.5523 5.44772 15 6 15Z" fill="black"/>
<path d="M6 19C6.55228 19 7 18.5523 7 18C7 17.4477 6.55228 17 6 17C5.44772 17 5 17.4477 5 18C5 18.5523 5.44772 19 6 19Z" fill="black"/>
<path d="M6 11C6.55228 11 7 10.5523 7 10C7 9.44772 6.55228 9 6 9C5.44772 9 5 9.44772 5 10C5 10.5523 5.44772 11 6 11Z" fill="black"/>
<path d="M3 10.5C3.27614 10.5 3.5 10.2761 3.5 10C3.5 9.72386 3.27614 9.5 3 9.5C2.72386 9.5 2.5 9.72386 2.5 10C2.5 10.2761 2.72386 10.5 3 10.5Z" fill="black"/>
<path d="M6 7C6.55228 7 7 6.55228 7 6C7 5.44772 6.55228 5 6 5C5.44772 5 5 5.44772 5 6C5 6.55228 5.44772 7 6 7Z" fill="black"/>
<path d="M3 14.5C3.27614 14.5 3.5 14.2761 3.5 14C3.5 13.7239 3.27614 13.5 3 13.5C2.72386 13.5 2.5 13.7239 2.5 14C2.5 14.2761 2.72386 14.5 3 14.5Z" fill="black"/>
<path d="M10 21.5C10.2761 21.5 10.5 21.2761 10.5 21C10.5 20.7239 10.2761 20.5 10 20.5C9.72386 20.5 9.5 20.7239 9.5 21C9.5 21.2761 9.72386 21.5 10 21.5Z" fill="black"/>
<path d="M10 3.5C10.2761 3.5 10.5 3.27614 10.5 3C10.5 2.72386 10.2761 2.5 10 2.5C9.72386 2.5 9.5 2.72386 9.5 3C9.5 3.27614 9.72386 3.5 10 3.5Z" fill="black"/>
<path d="M10 7C10.5523 7 11 6.55228 11 6C11 5.44772 10.5523 5 10 5C9.44772 5 9 5.44772 9 6C9 6.55228 9.44772 7 10 7Z" fill="black"/>
<path d="M10 15.5C10.8284 15.5 11.5 14.8284 11.5 14C11.5 13.1716 10.8284 12.5 10 12.5C9.17157 12.5 8.5 13.1716 8.5 14C8.5 14.8284 9.17157 15.5 10 15.5Z" fill="black"/>
<path d="M10 11.5C10.8284 11.5 11.5 10.8284 11.5 10C11.5 9.17157 10.8284 8.5 10 8.5C9.17157 8.5 8.5 9.17157 8.5 10C8.5 10.8284 9.17157 11.5 10 11.5Z" fill="black"/>
<path d="M10 19C10.5523 19 11 18.5523 11 18C11 17.4477 10.5523 17 10 17C9.44772 17 9 17.4477 9 18C9 18.5523 9.44772 19 10 19Z" fill="black"/>
</g>
<defs>
<clipPath id="clip0_401_33503">
<rect width="24" height="24" fill="white"/>
</clipPath>
</defs>
</svg>
