<svg width="24" height="24" viewBox="0 0 24 24" fill="none" xmlns="http://www.w3.org/2000/svg">
<g clip-path="url(#clip0_401_32783)">
<path d="M19 3H5C3.9 3 3 3.9 3 5V19C3 20.1 3.9 21 5 21H19C20.1 21 21 20.1 21 19V5C21 3.9 20.1 3 19 3ZM10.25 13.5H10V14.25C10 14.66 9.66 15 9.25 15C8.84 15 8.5 14.66 8.5 14.25V13.5H6.5C5.95 13.5 5.5 13.05 5.5 12.5V9.75C5.5 9.34 5.84 9 6.25 9C6.66 9 7 9.34 7 9.75V12H8.5V9.75C8.5 9.34 8.84 9 9.25 9C9.66 9 10 9.34 10 9.75V12H10.25C10.66 12 11 12.34 11 12.75C11 13.16 10.66 13.5 10.25 13.5ZM15.09 15C14.87 15 14.67 14.9 14.54 14.73L13 12.75V14.3C13 14.69 12.69 15 12.3 15H12.2C11.81 15 11.5 14.69 11.5 14.3V9.7C11.5 9.31 11.81 9 12.2 9H12.29C12.69 9 13 9.31 13 9.7V11.25L14.54 9.27C14.67 9.1 14.88 9 15.09 9C15.67 9 16 9.66 15.65 10.12L14.25 12L15.66 13.88C16 14.34 15.67 15 15.09 15ZM18.5 12.5H17.5V13.5C17.5 13.78 17.28 14 17 14C16.72 14 16.5 13.78 16.5 13.5V12.5H15.5C15.22 12.5 15 12.28 15 12C15 11.72 15.22 11.5 15.5 11.5H16.5V10.5C16.5 10.22 16.72 10 17 10C17.28 10 17.5 10.22 17.5 10.5V11.5H18.5C18.78 11.5 19 11.72 19 12C19 12.28 18.78 12.5 18.5 12.5Z" fill="black"/>
</g>
<defs>
<clipPath id="clip0_401_32783">
<rect width="24" height="24" fill="white"/>
</clipPath>
</defs>
</svg>
