<svg width="24" height="24" viewBox="0 0 24 24" fill="none" xmlns="http://www.w3.org/2000/svg">
<g clip-path="url(#clip0_401_33048)">
<path d="M21.18 5.0099L18.1 2.4499C17.68 2.0999 17.05 2.1499 16.69 2.5799C16.34 2.9999 16.4 3.6299 16.82 3.9899L19.89 6.5499C20.31 6.8999 20.94 6.8499 21.3 6.4199C21.66 5.9999 21.6 5.3699 21.18 5.0099ZM4.10001 6.5499L7.17001 3.9899C7.60001 3.6299 7.66001 2.9999 7.30001 2.5799C6.95001 2.1499 6.32001 2.0999 5.90001 2.4499L2.82001 5.0099C2.40001 5.3699 2.34001 5.9999 2.70001 6.4199C3.05001 6.8499 3.68001 6.8999 4.10001 6.5499ZM12 3.9999C7.03001 3.9999 3.00001 8.0299 3.00001 12.9999C3.00001 17.9699 7.03001 21.9999 12 21.9999C16.97 21.9999 21 17.9699 21 12.9999C21 8.0299 16.97 3.9999 12 3.9999ZM12 19.9999C8.14001 19.9999 5.00001 16.8599 5.00001 12.9999C5.00001 9.1399 8.14001 5.9999 12 5.9999C15.86 5.9999 19 9.1399 19 12.9999C19 16.8599 15.86 19.9999 12 19.9999ZM15 11.9999H13V9.9999C13 9.4499 12.55 8.9999 12 8.9999C11.45 8.9999 11 9.4499 11 9.9999V11.9999H9.00001C8.45001 11.9999 8.00001 12.4499 8.00001 12.9999C8.00001 13.5499 8.45001 13.9999 9.00001 13.9999H11V15.9999C11 16.5499 11.45 16.9999 12 16.9999C12.55 16.9999 13 16.5499 13 15.9999V13.9999H15C15.55 13.9999 16 13.5499 16 12.9999C16 12.4499 15.55 11.9999 15 11.9999Z" fill="black"/>
</g>
<defs>
<clipPath id="clip0_401_33048">
<rect width="24" height="24" fill="white"/>
</clipPath>
</defs>
</svg>
