<svg width="24" height="24" viewBox="0 0 24 24" fill="none" xmlns="http://www.w3.org/2000/svg">
<g clip-path="url(#clip0_401_34120)">
<path d="M12 2C6.48 2 2 6.48 2 12C2 17.52 6.48 22 12 22C17.52 22 22 17.52 22 12C22 6.48 17.52 2 12 2ZM12 20C7.58 20 4 16.42 4 12C4 7.58 7.58 4 12 4C16.42 4 20 7.58 20 12C20 16.42 16.42 20 12 20Z" fill="black"/>
<path d="M7.5 13C8.32843 13 9 12.3284 9 11.5C9 10.6716 8.32843 10 7.5 10C6.67157 10 6 10.6716 6 11.5C6 12.3284 6.67157 13 7.5 13Z" fill="black"/>
<path d="M16.5 13C17.3284 13 18 12.3284 18 11.5C18 10.6716 17.3284 10 16.5 10C15.6716 10 15 10.6716 15 11.5C15 12.3284 15.6716 13 16.5 13Z" fill="black"/>
<path d="M9 17.5C9.82843 17.5 10.5 16.8284 10.5 16C10.5 15.1716 9.82843 14.5 9 14.5C8.17157 14.5 7.5 15.1716 7.5 16C7.5 16.8284 8.17157 17.5 9 17.5Z" fill="black"/>
<path d="M15 17.5C15.8284 17.5 16.5 16.8284 16.5 16C16.5 15.1716 15.8284 14.5 15 14.5C14.1716 14.5 13.5 15.1716 13.5 16C13.5 16.8284 14.1716 17.5 15 17.5Z" fill="black"/>
<path d="M15 7.5C15 6.67 14.33 6 13.5 6H10.5C9.67 6 9 6.67 9 7.5C9 8.33 9.67 9 10.5 9H13.5C14.33 9 15 8.33 15 7.5Z" fill="black"/>
</g>
<defs>
<clipPath id="clip0_401_34120">
<rect width="24" height="24" fill="white"/>
</clipPath>
</defs>
</svg>
