<svg width="24" height="24" viewBox="0 0 24 24" fill="none" xmlns="http://www.w3.org/2000/svg">
<g clip-path="url(#clip0_401_33719)">
<path d="M20.71 7.98L16.03 3.3C15.84 3.11 15.58 3 15.32 3H8.68C8.42 3 8.16 3.11 7.98 3.29L3.29 7.98C3.11 8.16 3 8.42 3 8.68V15.31C3 15.58 3.11 15.83 3.29 16.02L7.97 20.7C8.16 20.89 8.42 21 8.68 21H15.31C15.58 21 15.83 20.89 16.02 20.71L20.7 16.03C20.89 15.84 20.99 15.59 20.99 15.32V8.68C21 8.42 20.89 8.16 20.71 7.98ZM19 14.9L14.9 19H9.1L5 14.9V9.1L9.1 5H14.9L19 9.1V14.9Z" fill="black"/>
<path d="M12 17C12.5523 17 13 16.5523 13 16C13 15.4477 12.5523 15 12 15C11.4477 15 11 15.4477 11 16C11 16.5523 11.4477 17 12 17Z" fill="black"/>
<path d="M12 7C11.45 7 11 7.45 11 8V13C11 13.55 11.45 14 12 14C12.55 14 13 13.55 13 13V8C13 7.45 12.55 7 12 7Z" fill="black"/>
</g>
<defs>
<clipPath id="clip0_401_33719">
<rect width="24" height="24" fill="white"/>
</clipPath>
</defs>
</svg>
