<svg width="24" height="24" viewBox="0 0 24 24" fill="none" xmlns="http://www.w3.org/2000/svg">
<g clip-path="url(#clip0_401_33287)">
<path d="M15 5H21C21.55 5 22 5.45 22 6C22 6.55 21.55 7 21 7H15C14.45 7 14 6.55 14 6C14 5.45 14.45 5 15 5ZM15 10.5H21C21.55 10.5 22 10.95 22 11.5C22 12.05 21.55 12.5 21 12.5H15C14.45 12.5 14 12.05 14 11.5C14 10.95 14.45 10.5 15 10.5ZM15 16H21C21.55 16 22 16.45 22 17C22 17.55 21.55 18 21 18H15C14.45 18 14 17.55 14 17C14 16.45 14.45 16 15 16ZM9.85 19.15L11.64 17.36C11.84 17.16 11.84 16.85 11.64 16.65L9.85 14.86C9.54 14.54 9 14.76 9 15.21V18.8C9 19.24 9.54 19.46 9.85 19.15ZM9 16H8.7C6.35 16 4.25 14.29 4.02 11.95C3.76 9.27 5.87 7 8.5 7H11C11.55 7 12 6.55 12 6C12 5.45 11.55 5 11 5H8.5C4.64 5 1.54 8.4 2.06 12.36C2.48 15.64 5.43 18 8.73 18H9" fill="black"/>
</g>
<defs>
<clipPath id="clip0_401_33287">
<rect width="24" height="24" fill="white"/>
</clipPath>
</defs>
</svg>
