<svg width="24" height="24" viewBox="0 0 24 24" fill="none" xmlns="http://www.w3.org/2000/svg">
<g clip-path="url(#clip0_401_32983)">
<path d="M20 2H4C2.9 2 2 2.9 2 4V22L6 18H20C21.1 18 22 17.1 22 16V4C22 2.9 21.1 2 20 2ZM6 14V11.53L12.88 4.65C13.08 4.45 13.39 4.45 13.59 4.65L15.36 6.42C15.56 6.62 15.56 6.93 15.36 7.13L8.47 14H6ZM17 14H10.5L12.5 12H17C17.55 12 18 12.45 18 13C18 13.55 17.55 14 17 14Z" fill="black"/>
</g>
<defs>
<clipPath id="clip0_401_32983">
<rect width="24" height="24" fill="white"/>
</clipPath>
</defs>
</svg>
