<svg width="24" height="24" viewBox="0 0 24 24" fill="none" xmlns="http://www.w3.org/2000/svg">
<g clip-path="url(#clip0_401_33553)">
<path d="M10.67 13.02C10.45 13.01 10.23 13 10 13C7.58 13 5.32 13.67 3.39 14.82C2.51 15.34 2 16.32 2 17.35V19C2 19.55 2.45 20 3 20H11.26C10.47 18.87 10 17.49 10 16C10 14.93 10.25 13.93 10.67 13.02Z" fill="black"/>
<path d="M10 12C12.2091 12 14 10.2091 14 8C14 5.79086 12.2091 4 10 4C7.79086 4 6 5.79086 6 8C6 10.2091 7.79086 12 10 12Z" fill="black"/>
<path d="M20.75 15.9998C20.75 15.7798 20.72 15.5798 20.69 15.3698L21.53 14.6398C21.71 14.4798 21.75 14.2198 21.63 14.0098L21.04 12.9898C20.92 12.7798 20.67 12.6898 20.45 12.7698L19.39 13.1298C19.07 12.8598 18.71 12.6498 18.31 12.4998L18.09 11.4098C18.04 11.1798 17.84 11.0098 17.6 11.0098H16.42C16.18 11.0098 15.98 11.1798 15.93 11.4098L15.71 12.4998C15.31 12.6498 14.95 12.8598 14.63 13.1298L13.57 12.7698C13.34 12.6898 13.1 12.7898 12.98 12.9898L12.39 14.0098C12.27 14.2198 12.31 14.4798 12.49 14.6398L13.33 15.3698C13.3 15.5798 13.27 15.7798 13.27 15.9998C13.27 16.2198 13.3 16.4198 13.33 16.6298L12.49 17.3598C12.31 17.5198 12.27 17.7798 12.39 17.9898L12.98 19.0098C13.1 19.2198 13.35 19.3098 13.57 19.2298L14.63 18.8698C14.95 19.1398 15.31 19.3498 15.71 19.4998L15.93 20.5898C15.98 20.8198 16.18 20.9898 16.42 20.9898H17.6C17.84 20.9898 18.04 20.8198 18.09 20.5898L18.31 19.4998C18.71 19.3498 19.07 19.1398 19.39 18.8698L20.45 19.2298C20.68 19.3098 20.92 19.2098 21.04 19.0098L21.63 17.9898C21.75 17.7798 21.71 17.5198 21.53 17.3598L20.69 16.6298C20.72 16.4198 20.75 16.2198 20.75 15.9998ZM17 17.9998C15.9 17.9998 15 17.0998 15 15.9998C15 14.8998 15.9 13.9998 17 13.9998C18.1 13.9998 19 14.8998 19 15.9998C19 17.0998 18.1 17.9998 17 17.9998Z" fill="black"/>
</g>
<defs>
<clipPath id="clip0_401_33553">
<rect width="24" height="24" fill="white"/>
</clipPath>
</defs>
</svg>
