<svg width="24" height="24" viewBox="0 0 24 24" fill="none" xmlns="http://www.w3.org/2000/svg">
<g clip-path="url(#clip0_401_33968)">
<path d="M17.92 7.02C17.45 4.18 14.97 2 12 2C9.82 2 7.83 3.18 6.78 5.06C4.09 5.41 2 7.74 2 10.5C2 13.53 4.47 16 7.5 16H17.5C19.98 16 22 13.98 22 11.5C22 9.16 20.21 7.23 17.92 7.02Z" fill="black"/>
<path d="M15.95 20.11L15.11 19.69L16.01 18.66C16.37 18.24 16.33 17.61 15.92 17.25C15.5 16.89 14.87 16.93 14.51 17.34L12.76 19.34C12.56 19.57 12.47 19.89 12.53 20.19C12.59 20.49 12.79 20.75 13.06 20.89L13.9 21.31L13 22.34C12.64 22.76 12.68 23.39 13.09 23.75C13.28 23.92 13.51 24 13.75 24C14.03 24 14.3 23.88 14.5 23.66L16.25 21.66C16.45 21.43 16.54 21.11 16.48 20.81C16.42 20.5 16.22 20.24 15.95 20.11Z" fill="black"/>
<path d="M9.94998 20.1099L9.09998 19.6799L9.99998 18.6499C10.36 18.2299 10.32 17.5999 9.90998 17.2399C9.48998 16.8799 8.85998 16.9199 8.49998 17.3299L6.74998 19.3299C6.54998 19.5599 6.45998 19.8799 6.51998 20.1799C6.57998 20.4799 6.77998 20.7399 7.04998 20.8799L7.88998 21.2999L6.99998 22.3399C6.63998 22.7599 6.67998 23.3899 7.08998 23.7499C7.27998 23.9199 7.51998 23.9999 7.74998 23.9999C8.02998 23.9999 8.29998 23.8799 8.49998 23.6599L10.25 21.6599C10.45 21.4299 10.54 21.1099 10.48 20.8099C10.42 20.4999 10.22 20.2399 9.94998 20.1099Z" fill="black"/>
</g>
<defs>
<clipPath id="clip0_401_33968">
<rect width="24" height="24" fill="white"/>
</clipPath>
</defs>
</svg>
