<svg width="24" height="24" viewBox="0 0 24 24" fill="none" xmlns="http://www.w3.org/2000/svg">
<path d="M11.99 5.00003V2.21003C11.99 1.76003 11.45 1.54003 11.14 1.86003L7.35002 5.65003C7.15002 5.85003 7.15002 6.16003 7.35002 6.36003L11.14 10.15C11.45 10.46 11.99 10.24 11.99 9.80003V7.00003C15.72 7.00003 18.67 10.42 17.85 14.29C17.38 16.56 15.54 18.39 13.28 18.86C9.71002 19.61 6.53002 17.16 6.05002 13.85C5.99002 13.37 5.57002 13 5.07002 13C4.47002 13 3.99002 13.53 4.07002 14.13C4.69002 18.52 8.87002 21.77 13.6 20.85C16.72 20.24 19.23 17.73 19.84 14.61C20.83 9.48003 16.94 5.00003 11.99 5.00003ZM10.89 16H10.04V12.74L9.03002 13.05V12.36L10.8 11.73H10.89V16ZM15.17 14.24C15.17 14.56 15.14 14.84 15.07 15.06C15 15.28 14.9 15.48 14.78 15.63C14.66 15.78 14.5 15.89 14.33 15.96C14.16 16.03 13.96 16.06 13.74 16.06C13.52 16.06 13.33 16.03 13.15 15.96C12.97 15.89 12.82 15.78 12.69 15.63C12.56 15.48 12.46 15.29 12.39 15.06C12.32 14.83 12.28 14.56 12.28 14.24V13.5C12.28 13.18 12.31 12.9 12.38 12.68C12.45 12.46 12.55 12.26 12.67 12.11C12.79 11.96 12.95 11.85 13.12 11.78C13.29 11.71 13.49 11.68 13.71 11.68C13.93 11.68 14.12 11.71 14.3 11.78C14.48 11.85 14.63 11.96 14.76 12.11C14.89 12.26 14.99 12.45 15.06 12.68C15.13 12.91 15.17 13.18 15.17 13.5V14.24ZM14.32 13.38C14.32 13.19 14.31 13.03 14.28 12.9C14.25 12.77 14.21 12.67 14.16 12.59C14.11 12.51 14.05 12.45 13.97 12.42C13.89 12.39 13.81 12.37 13.72 12.37C13.63 12.37 13.54 12.39 13.47 12.42C13.4 12.45 13.33 12.51 13.28 12.59C13.23 12.67 13.19 12.77 13.16 12.9C13.13 13.03 13.12 13.19 13.12 13.38V14.35C13.12 14.54 13.13 14.7 13.16 14.83C13.19 14.96 13.23 15.07 13.28 15.15C13.33 15.23 13.39 15.29 13.47 15.32C13.55 15.35 13.63 15.37 13.72 15.37C13.81 15.37 13.9 15.35 13.97 15.32C14.04 15.29 14.11 15.23 14.16 15.15C14.21 15.07 14.25 14.96 14.27 14.83C14.29 14.7 14.31 14.54 14.31 14.35V13.38H14.32Z" fill="black"/>
</svg>
