<svg width="24" height="24" viewBox="0 0 24 24" fill="none" xmlns="http://www.w3.org/2000/svg">
<g clip-path="url(#clip0_401_33077)">
<path d="M3.00999 10.72C2.86999 13.29 4.66999 15.45 7.07999 15.9L6.28999 15.11C5.89999 14.72 5.89999 14.09 6.28999 13.7C6.67999 13.31 7.30999 13.31 7.69999 13.7L10.29 16.29C10.68 16.68 10.68 17.31 10.29 17.7L7.70999 20.3C7.31999 20.69 6.68999 20.69 6.29999 20.3C5.90999 19.91 5.90999 19.28 6.29999 18.89L7.17999 18.01V17.95C3.53999 17.52 0.749989 14.3 1.02999 10.48C1.28999 6.78 4.54999 4 8.25999 4H9.99999C10.55 4 11 4.45 11 5C11 5.55 10.55 6 9.99999 6H8.21999C5.51999 6 3.14999 8.04 3.00999 10.72Z" fill="black"/>
<path d="M15 11H20C21.1 11 22 10.1 22 9V6C22 4.9 21.1 4 20 4H15C13.9 4 13 4.9 13 6V9C13 10.1 13.9 11 15 11ZM20 9H15V6H20V9Z" fill="black"/>
<path d="M20 20H15C13.9 20 13 19.1 13 18V15C13 13.9 13.9 13 15 13H20C21.1 13 22 13.9 22 15V18C22 19.1 21.1 20 20 20Z" fill="black"/>
</g>
<defs>
<clipPath id="clip0_401_33077">
<rect width="24" height="24" fill="white"/>
</clipPath>
</defs>
</svg>
