<svg width="24" height="24" viewBox="0 0 24 24" fill="none" xmlns="http://www.w3.org/2000/svg">
<g clip-path="url(#clip0_401_33433)">
<path d="M22.92 8H17V15.99L12.71 20.29C12.32 20.68 11.69 20.68 11.29 20.29L0.730011 9.71C0.320011 9.3 0.350011 8.63 0.790011 8.24C3.78001 5.6 7.70001 4 12 4C16.16 4 19.97 5.51 22.92 8ZM20 18C19.45 18 19 18.45 19 19C19 19.55 19.45 20 20 20C20.55 20 21 19.55 21 19C21 18.45 20.55 18 20 18ZM20 10C19.45 10 19 10.45 19 11V15C19 15.55 19.45 16 20 16C20.55 16 21 15.55 21 15V11C21 10.45 20.55 10 20 10Z" fill="black"/>
</g>
<defs>
<clipPath id="clip0_401_33433">
<rect width="24" height="24" fill="white"/>
</clipPath>
</defs>
</svg>
