<svg width="24" height="24" viewBox="0 0 24 24" fill="none" xmlns="http://www.w3.org/2000/svg">
<g clip-path="url(#clip0_401_33074)">
<path d="M20.5 19.0001H3.5C2.95 19.0001 2.5 19.4501 2.5 20.0001C2.5 20.5501 2.95 21.0001 3.5 21.0001H20.5C21.05 21.0001 21.5 20.5501 21.5 20.0001C21.5 19.4501 21.05 19.0001 20.5 19.0001ZM3.51 11.6101L19.34 15.8501C20.14 16.0601 20.96 15.5901 21.18 14.7901C21.39 13.9901 20.92 13.1701 20.12 12.9501L14.81 11.5301L12.23 3.08011C12.12 2.72011 11.84 2.45011 11.48 2.35011C10.8 2.17011 10.13 2.68011 10.13 3.39011V10.2701L5.15 8.95011L4.4 7.09011C4.28 6.80011 4.04 6.58011 3.73 6.50011L3.4 6.41011C3.08 6.32011 2.77 6.56011 2.77 6.89011V10.6401C2.77 11.1001 3.07 11.4901 3.51 11.6101Z" fill="black"/>
</g>
<defs>
<clipPath id="clip0_401_33074">
<rect width="24" height="24" fill="white"/>
</clipPath>
</defs>
</svg>
