<svg width="24" height="24" viewBox="0 0 24 24" fill="none" xmlns="http://www.w3.org/2000/svg">
<g clip-path="url(#clip0_401_34298)">
<path d="M2.81002 2.81008C2.42002 2.42008 1.79002 2.42008 1.40002 2.81008C1.00002 3.20008 1.00002 3.83008 1.39002 4.22008L2.24002 5.07008C2.10002 5.35008 2.01002 5.66008 2.01002 6.00008L2.00002 18.0001C2.00002 19.1001 2.90002 20.0001 4.00002 20.0001H17.17L19.78 22.6101C20.17 23.0001 20.8 23.0001 21.19 22.6101C21.58 22.2201 21.58 21.5901 21.19 21.2001L2.81002 2.81008Z" fill="black"/>
<path d="M20 6H12L10.59 4.59C10.21 4.21 9.70002 4 9.17002 4H6.83002L21.76 18.93C21.91 18.65 22 18.34 22 18V8C22 6.9 21.1 6 20 6Z" fill="black"/>
</g>
<defs>
<clipPath id="clip0_401_34298">
<rect width="24" height="24" fill="white"/>
</clipPath>
</defs>
</svg>
