<svg width="24" height="24" viewBox="0 0 24 24" fill="none" xmlns="http://www.w3.org/2000/svg">
<g clip-path="url(#clip0_401_33662)">
<path d="M20.59 10H12.65C11.7 7.31 8.89 5.5 5.77 6.12C3.48 6.58 1.62 8.42 1.14 10.7C0.320001 14.58 3.26 18 7 18C9.61 18 11.83 16.33 12.65 14H13L14.29 15.29C14.68 15.68 15.31 15.68 15.7 15.29L17 14L18.29 15.29C18.68 15.68 19.32 15.68 19.71 15.29L22.3 12.68C22.69 12.29 22.69 11.65 22.29 11.26L21.3 10.29C21.1 10.1 20.85 10 20.59 10ZM7 15C5.35 15 4 13.65 4 12C4 10.35 5.35 9 7 9C8.65 9 10 10.35 10 12C10 13.65 8.65 15 7 15Z" fill="black"/>
</g>
<defs>
<clipPath id="clip0_401_33662">
<rect width="24" height="24" fill="white"/>
</clipPath>
</defs>
</svg>
