<svg width="24" height="24" viewBox="0 0 24 24" fill="none" xmlns="http://www.w3.org/2000/svg">
<g clip-path="url(#clip0_401_34294)">
<path d="M10.75 9C10.34 9 10 9.34 10 9.75V14C10 14.55 10.45 15 11 15H13.25C13.66 15 14 14.66 14 14.25C14 13.84 13.66 13.5 13.25 13.5H11.5V9.75C11.5 9.34 11.16 9 10.75 9ZM19.04 10.5C19.14 10.79 19.42 11 19.75 11C20.16 11 20.5 10.66 20.5 10.25V10C20.5 9.45 20.05 9 19.5 9H16.5C15.95 9 15.5 9.45 15.5 10V11.5C15.5 12.05 15.95 12.5 16.5 12.5H19V13.5H16.96C16.86 13.21 16.58 13 16.25 13C15.84 13 15.5 13.34 15.5 13.75V14C15.5 14.55 15.95 15 16.5 15H19.5C20.05 15 20.5 14.55 20.5 14V12.5C20.5 11.95 20.05 11.5 19.5 11.5H17V10.5H19.04ZM8 9.75C8 9.34 7.66 9 7.25 9C6.84 9 6.5 9.34 6.5 9.75V11H4.5V9.75C4.5 9.34 4.16 9 3.75 9C3.34 9 3 9.34 3 9.75V14.25C3 14.66 3.34 15 3.75 15C4.16 15 4.5 14.66 4.5 14.25V12.5H6.5V14.25C6.5 14.66 6.84 15 7.25 15C7.66 15 8 14.66 8 14.25V9.75Z" fill="black"/>
</g>
<defs>
<clipPath id="clip0_401_34294">
<rect width="24" height="24" fill="white"/>
</clipPath>
</defs>
</svg>
