<svg width="24" height="24" viewBox="0 0 24 24" fill="none" xmlns="http://www.w3.org/2000/svg">
<g clip-path="url(#clip0_401_33107)">
<path d="M16 9C16.55 9 17 8.55 17 8C17 7.45 16.55 7 16 7H11C9.9 7 9 7.9 9 9V15C9 16.1 9.9 17 11 17H15C16.1 17 17 16.1 17 15V12C17 11.45 16.55 11 16 11H14C13.45 11 13 11.45 13 12C13 12.55 13.45 13 14 13H15V15H11V9H16Z" fill="black"/>
<path d="M23 11H22V10C22 9.45 21.55 9 21 9C20.45 9 20 9.45 20 10V11H19C18.45 11 18 11.45 18 12C18 12.55 18.45 13 19 13H20V14C20 14.55 20.45 15 21 15C21.55 15 22 14.55 22 14V13H23C23.55 13 24 12.55 24 12C24 11.45 23.55 11 23 11Z" fill="black"/>
<path d="M7 12V8C7 7.45 6.55 7 6 7C5.45 7 5 7.45 5 8V12H3V8C3 7.45 2.55 7 2 7C1.45 7 1 7.45 1 8V13C1 13.55 1.45 14 2 14H5V16C5 16.55 5.45 17 6 17C6.55 17 7 16.55 7 16V14C7.55 14 8 13.55 8 13C8 12.45 7.55 12 7 12Z" fill="black"/>
</g>
<defs>
<clipPath id="clip0_401_33107">
<rect width="24" height="24" fill="white"/>
</clipPath>
</defs>
</svg>
