<svg width="24" height="24" viewBox="0 0 24 24" fill="none" xmlns="http://www.w3.org/2000/svg">
<g clip-path="url(#clip0_401_34314)">
<path d="M23.09 16.2C16.76 10.61 7.23001 10.61 0.910014 16.2C0.0700145 16.94 0.0700144 18.25 0.860014 19.04L2.06001 20.24C2.77001 20.95 3.90001 21.01 4.68001 20.39L6.65001 18.82C7.12001 18.45 7.40001 17.88 7.40001 17.27V14.7C10.38 13.73 13.61 13.72 16.6 14.7V17.28C16.6 17.88 16.88 18.45 17.35 18.83L19.31 20.39C20.1 21.01 21.22 20.95 21.93 20.24L23.13 19.04C23.93 18.25 23.92 16.94 23.09 16.2ZM6.00001 9C6.55001 9 7.00001 8.55 7.00001 8V6.43L11.24 10.67C11.63 11.06 12.26 11.06 12.65 10.67L18.31 5.01C18.7 4.62 18.7 3.99 18.31 3.6C17.92 3.21 17.29 3.21 16.9 3.6L11.95 8.55L8.40001 5H10C10.55 5 11 4.55 11 4C11 3.45 10.55 3 10 3H6.00001C5.45001 3 5.00001 3.45 5.00001 4V8C5.00001 8.55 5.45001 9 6.00001 9Z" fill="black"/>
</g>
<defs>
<clipPath id="clip0_401_34314">
<rect width="24" height="24" fill="white"/>
</clipPath>
</defs>
</svg>
