<svg width="24" height="24" viewBox="0 0 24 24" fill="none" xmlns="http://www.w3.org/2000/svg">
<g clip-path="url(#clip0_401_32537)">
<path d="M12 6C13.1046 6 14 5.10457 14 4C14 2.89543 13.1046 2 12 2C10.8954 2 10 2.89543 10 4C10 5.10457 10.8954 6 12 6Z" fill="black"/>
<path d="M15.89 8.11C15.5 7.72 14.83 7 13.53 7C13.32 7 12.11 7 10.99 7C8.52999 6.99 6.47999 5.2 6.06999 2.85C5.98999 2.36 5.57999 2 5.08999 2C4.47999 2 3.99999 2.54 4.08999 3.14C4.52999 5.8 6.46999 7.95 8.99999 8.71V21C8.99999 21.55 9.44999 22 9.99999 22C10.55 22 11 21.55 11 21V16H13V21C13 21.55 13.45 22 14 22C14.55 22 15 21.55 15 21V10.05L18.24 13.29C18.63 13.68 19.26 13.68 19.65 13.29C20.04 12.9 20.04 12.27 19.65 11.88L15.89 8.11Z" fill="black"/>
</g>
<defs>
<clipPath id="clip0_401_32537">
<rect width="24" height="24" fill="white"/>
</clipPath>
</defs>
</svg>
