<svg width="24" height="24" viewBox="0 0 24 24" fill="none" xmlns="http://www.w3.org/2000/svg">
<g clip-path="url(#clip0_401_33752)">
<path d="M20.7 17.87C21.46 17.59 22 16.85 22 16V8.00003C22 6.90003 21.1 6.00003 20 6.00003H8.83L20.7 17.87ZM17.5 9.00003C18.33 9.00003 19 9.67003 19 10.5C19 11.33 18.33 12 17.5 12C16.67 12 16 11.33 16 10.5C16 9.67003 16.67 9.00003 17.5 9.00003ZM20.49 20.49L3.51 3.51003C3.12 3.12003 2.49 3.12003 2.1 3.51003C1.71 3.90003 1.71 4.53003 2.1 4.92003L3.3 6.12003C2.54 6.41003 2 7.15003 2 8.00003V16C2 17.1 2.9 18 4 18H15.17L19.07 21.9C19.46 22.29 20.09 22.29 20.48 21.9C20.88 21.51 20.88 20.88 20.49 20.49ZM10 13H9V14C9 14.55 8.55 15 8 15C7.45 15 7 14.55 7 14V13H6C5.45 13 5 12.55 5 12C5 11.45 5.45 11 6 11H7V10C7 9.95003 7.01 9.89003 7.01 9.84003L10.15 12.98C10.11 12.99 10.05 13 10 13Z" fill="black"/>
</g>
<defs>
<clipPath id="clip0_401_33752">
<rect width="24" height="24" fill="white"/>
</clipPath>
</defs>
</svg>
