<svg width="24" height="24" viewBox="0 0 24 24" fill="none" xmlns="http://www.w3.org/2000/svg">
<g clip-path="url(#clip0_401_32867)">
<path d="M17.59 3.41L15 6V5C15 3.9 14.1 3 13 3H9C6.24 3 4 5.24 4 8H9V11H15V8L17.59 10.59C17.85 10.85 18.21 11 18.59 11H18.6C19.37 11 20 10.37 20 9.59V4.41C20 3.63 19.37 3 18.59 3H18.58C18.21 3 17.85 3.15 17.59 3.41Z" fill="black"/>
<path d="M9 13V20C9 20.55 9.45 21 10 21H14C14.55 21 15 20.55 15 20V13H9Z" fill="black"/>
</g>
<defs>
<clipPath id="clip0_401_32867">
<rect width="24" height="24" fill="white"/>
</clipPath>
</defs>
</svg>
