<svg width="24" height="24" viewBox="0 0 24 24" fill="none" xmlns="http://www.w3.org/2000/svg">
<g clip-path="url(#clip0_401_33191)">
<path d="M18 12.1799L16.5 13.8199L18.5 15.9999H5.5L7.5 13.8199L6 12.1799L3 15.4499V19.9999C3 21.0999 3.9 21.9999 5 21.9999H19C20.1 21.9999 21 21.0999 21 19.9999V15.4599L18 12.1799Z" fill="black"/>
<path d="M10.59 14.4199C11.37 15.2099 12.64 15.2199 13.43 14.4299L18.41 9.44988C19.19 8.66988 19.19 7.39988 18.41 6.61988L14.87 3.08988C14.09 2.30988 12.82 2.30988 12.04 3.08988L7.08998 8.03988C6.30998 8.81988 6.30998 10.0699 7.07998 10.8599L10.59 14.4199ZM13.46 4.49988L16.99 8.02988L12.05 12.9699L8.51998 9.43988L13.46 4.49988Z" fill="black"/>
</g>
<defs>
<clipPath id="clip0_401_33191">
<rect width="24" height="24" fill="white"/>
</clipPath>
</defs>
</svg>
