<svg width="24" height="24" viewBox="0 0 24 24" fill="none" xmlns="http://www.w3.org/2000/svg">
<g clip-path="url(#clip0_401_33575)">
<path d="M2.1 3.51003C1.71 3.90003 1.71 4.53003 2.1 4.92003L8 10.82V17.17C8 17.96 8.87 18.44 9.54 18.01L12.99 15.81L19.07 21.89C19.46 22.28 20.09 22.28 20.48 21.89C20.87 21.5 20.87 20.87 20.48 20.48L3.51 3.51003C3.12 3.12003 2.49 3.12003 2.1 3.51003ZM17.68 12.84C18.3 12.45 18.3 11.55 17.68 11.15L9.54 5.98003C9.27 5.81003 8.97 5.79003 8.7 5.87003L16.45 13.62L17.68 12.84Z" fill="black"/>
</g>
<defs>
<clipPath id="clip0_401_33575">
<rect width="24" height="24" fill="white"/>
</clipPath>
</defs>
</svg>
