<svg width="24" height="24" viewBox="0 0 24 24" fill="none" xmlns="http://www.w3.org/2000/svg">
<g clip-path="url(#clip0_401_32615)">
<path d="M18 2H10.83C10.3 2 9.79 2.21 9.41 2.59L4.59 7.41C4.21 7.79 4 8.3 4 8.83V20C4 21.1 4.9 22 6 22H18C19.1 22 20 21.1 20 20V4C20 2.9 19.1 2 18 2ZM11.65 16.65L8.86 13.86C8.54 13.54 8.76 13 9.21 13H11V10.01C11 9.46 11.44 9.02 11.99 9.01C12.55 9 13 9.45 13 10.01V13H14.79C15.24 13 15.46 13.54 15.14 13.85L12.35 16.64C12.16 16.84 11.84 16.84 11.65 16.65Z" fill="black"/>
</g>
<defs>
<clipPath id="clip0_401_32615">
<rect width="24" height="24" fill="white"/>
</clipPath>
</defs>
</svg>
