<svg width="24" height="24" viewBox="0 0 24 24" fill="none" xmlns="http://www.w3.org/2000/svg">
<g clip-path="url(#clip0_401_32741)">
<path d="M17.5 10.5H15.5V11.5H17.5V10.5Z" fill="black"/>
<path d="M20 4H4C2.9 4 2 4.9 2 6V18C2 19.1 2.9 20 4 20H20C21.1 20 22 19.1 22 18V6C22 4.9 21.1 4 20 4ZM10 9.75C10 10.16 9.66 10.5 9.25 10.5H6.5V11.25H9C9.55 11.25 10 11.7 10 12.25V14C10 14.55 9.55 15 9 15H5.75C5.34 15 5 14.66 5 14.25C5 13.84 5.34 13.5 5.75 13.5H8.5V12.75H6C5.45 12.75 5 12.3 5 11.75V10C5 9.45 5.45 9 6 9H9.25C9.66 9 10 9.34 10 9.75ZM12 15C11.45 15 11 14.55 11 14V10C11 9.45 11.45 9 12 9C12.55 9 13 9.45 13 10V14C13 14.55 12.55 15 12 15ZM19 12C19 12.55 18.55 13 18 13H15.5V14.25C15.5 14.66 15.16 15 14.75 15C14.34 15 14 14.66 14 14.25V10C14 9.45 14.45 9 15 9H18C18.55 9 19 9.45 19 10V12Z" fill="black"/>
</g>
<defs>
<clipPath id="clip0_401_32741">
<rect width="24" height="24" fill="white"/>
</clipPath>
</defs>
</svg>
