<svg width="24" height="24" viewBox="0 0 24 24" fill="none" xmlns="http://www.w3.org/2000/svg">
<g clip-path="url(#clip0_401_33558)">
<path d="M7.99998 6.82998L8.87998 7.70998C9.26998 8.09998 9.89998 8.09998 10.29 7.70998C10.68 7.31998 10.68 6.68998 10.29 6.29998L7.70998 3.70998C7.31998 3.31998 6.68998 3.31998 6.29998 3.70998L3.70998 6.28998C3.31998 6.67998 3.31998 7.30998 3.70998 7.69998C4.09998 8.08998 4.72998 8.08998 5.11998 7.69998L5.99998 6.82998V13C5.99998 14.1 6.89998 15 7.99998 15H16V20C16 20.55 16.45 21 17 21C17.55 21 18 20.55 18 20V15C18 13.9 17.1 13 16 13H7.99998V6.82998Z" fill="black"/>
</g>
<defs>
<clipPath id="clip0_401_33558">
<rect width="24" height="24" fill="white"/>
</clipPath>
</defs>
</svg>
