<svg width="24" height="24" viewBox="0 0 24 24" fill="none" xmlns="http://www.w3.org/2000/svg">
<g clip-path="url(#clip0_401_33691)">
<path d="M10.67 21C10.32 21 10.05 20.69 10.1 20.34L11 14H7.49997C6.61997 14 7.16997 13.25 7.18997 13.22C8.44997 10.99 10.34 7.69 12.84 3.29C12.94 3.11 13.14 3 13.34 3C13.69 3 13.96 3.31 13.91 3.66L13.01 10H16.52C16.92 10 17.14 10.19 16.92 10.66C13.63 16.4 11.72 19.75 11.17 20.71C11.07 20.89 10.88 21 10.67 21Z" fill="black"/>
</g>
<defs>
<clipPath id="clip0_401_33691">
<rect width="24" height="24" fill="white"/>
</clipPath>
</defs>
</svg>
