<svg width="24" height="24" viewBox="0 0 24 24" fill="none" xmlns="http://www.w3.org/2000/svg">
<g clip-path="url(#clip0_401_34289)">
<path d="M21 13C21.55 13 22 12.55 22 12C22 11.45 21.55 11 21 11H16.9C16.44 8.72 14.42 7 12 7C9.58 7 7.56 8.72 7.1 11H3C2.45 11 2 11.45 2 12C2 12.55 2.45 13 3 13H7.1C7.56 15.28 9.58 17 12 17C14.42 17 16.44 15.28 16.9 13H21ZM12 15C10.34 15 9 13.66 9 12C9 10.34 10.34 9 12 9C13.66 9 15 10.34 15 12C15 13.66 13.66 15 12 15Z" fill="black"/>
</g>
<defs>
<clipPath id="clip0_401_34289">
<rect width="24" height="24" fill="white"/>
</clipPath>
</defs>
</svg>
