<svg width="24" height="24" viewBox="0 0 24 24" fill="none" xmlns="http://www.w3.org/2000/svg">
<g clip-path="url(#clip0_401_32786)">
<path d="M21 5C21 3.9 20.1 3 19 3H10V8H21V5Z" fill="black"/>
<path d="M3 19C3 20.1 3.9 21 5 21H8V10H3V19Z" fill="black"/>
<path d="M3 5V8H8V3H5C3.9 3 3 3.9 3 5Z" fill="black"/>
<path d="M17.65 9.35001L14.86 12.14C14.54 12.46 14.76 13 15.21 13H17V15C17 16.1 16.1 17 15 17H13V15.21C13 14.76 12.46 14.54 12.15 14.86L9.36002 17.65C9.16002 17.85 9.16002 18.16 9.36002 18.36L12.15 21.15C12.46 21.46 13 21.24 13 20.8V19H15C17.21 19 19 17.21 19 15V13H20.79C21.24 13 21.46 12.46 21.14 12.15L18.35 9.36001C18.16 9.16001 17.84 9.16001 17.65 9.35001Z" fill="black"/>
</g>
<defs>
<clipPath id="clip0_401_32786">
<rect width="24" height="24" fill="white"/>
</clipPath>
</defs>
</svg>
