<svg width="24" height="24" viewBox="0 0 24 24" fill="none" xmlns="http://www.w3.org/2000/svg">
<g clip-path="url(#clip0_401_34214)">
<path d="M13 3C13 1.9 13.9 1 15 1C16.1 1 17 1.9 17 3C17 4.1 16.1 5 15 5C13.9 5 13 4.1 13 3ZM7.25 22.5C6.84 22.5 6.5 22.84 6.5 23.25C6.5 23.66 6.84 24 7.25 24C7.66 24 8 23.66 8 23.25C8 22.84 7.66 22.5 7.25 22.5ZM15.75 22.5C15.34 22.5 15 22.84 15 23.25C15 23.66 15.34 24 15.75 24C16.16 24 16.5 23.66 16.5 23.25C16.5 22.84 16.16 22.5 15.75 22.5ZM19.24 19C19 19 18.79 19.11 18.65 19.3C18.1 20.03 17.23 20.5 16.25 20.5H16V15.62C16 14.93 15.64 14.28 15.05 13.92L11.68 11.84L13.48 8.95C14.44 10.48 16.02 11.59 17.87 11.91C18.47 12.02 19 11.52 19 10.92C19 10.44 18.65 10.03 18.17 9.94C16.68 9.66 15.45 8.65 14.87 7.3L14.35 6.09C14.16 5.64 13.61 5 12.7 5H8.11C7.42 5 6.78 5.36 6.41 5.94L5.03 8.15C4.74 8.62 4.88 9.24 5.35 9.53C5.82 9.82 6.44 9.68 6.73 9.21L8.1 7H10.45L8.05 10.84C7.74 11.34 7.66 11.95 7.84 12.51L9.18 16.66L6.06 20.42C5.36 20.26 4.76 19.85 4.35 19.3C4.21 19.11 3.99 19 3.75 19C3.31 19 3 19.36 3 19.75C3 19.9 3.05 20.06 3.15 20.2C3.97 21.3 5.28 22 6.75 22H16.25C17.72 22 19.03 21.3 19.85 20.2C19.95 20.06 20 19.9 20 19.75C20 19.36 19.68 19 19.24 19ZM14 20.5H8.6L10.81 17.83C11.24 17.31 11.38 16.62 11.18 15.97L10.5 13.7L14 15.9V20.5Z" fill="black"/>
</g>
<defs>
<clipPath id="clip0_401_34214">
<rect width="24" height="24" fill="white"/>
</clipPath>
</defs>
</svg>
