<svg width="24" height="24" viewBox="0 0 24 24" fill="none" xmlns="http://www.w3.org/2000/svg">
<g clip-path="url(#clip0_401_32820)">
<path d="M12 17H20C20.55 17 21 16.55 21 16C21 15.45 20.55 15 20 15H12C11.45 15 11 15.45 11 16C11 16.55 11.45 17 12 17ZM3.35 12.35L6.14 15.14C6.46 15.46 7 15.24 7 14.79V9.21C7 8.76 6.46 8.54 6.15 8.86L3.36 11.65C3.16 11.84 3.16 12.16 3.35 12.35ZM4 21H20C20.55 21 21 20.55 21 20C21 19.45 20.55 19 20 19H4C3.45 19 3 19.45 3 20C3 20.55 3.45 21 4 21ZM3 4C3 4.55 3.45 5 4 5H20C20.55 5 21 4.55 21 4C21 3.45 20.55 3 20 3H4C3.45 3 3 3.45 3 4ZM12 9H20C20.55 9 21 8.55 21 8C21 7.45 20.55 7 20 7H12C11.45 7 11 7.45 11 8C11 8.55 11.45 9 12 9ZM12 13H20C20.55 13 21 12.55 21 12C21 11.45 20.55 11 20 11H12C11.45 11 11 11.45 11 12C11 12.55 11.45 13 12 13Z" fill="black"/>
</g>
<defs>
<clipPath id="clip0_401_32820">
<rect width="24" height="24" fill="white"/>
</clipPath>
</defs>
</svg>
