<svg width="24" height="24" viewBox="0 0 24 24" fill="none" xmlns="http://www.w3.org/2000/svg">
<g clip-path="url(#clip0_401_32613)">
<path d="M11 6C11 6.55 11.45 7 12 7H13.25L14.7 8.3L11 11L1.88 10.04C0.88 9.93 0 10.72 0 11.73C0 12.48 0.49 13.14 1.21 13.36L4.54 14.36L1.05 16.24C-0.77 17.22 -0.0699999 20 2 20H8C10.21 20 12 18.21 12 16H16L18 18H16C15.45 18 15 18.45 15 19C15 19.55 15.45 20 16 20H21C22.13 20 23.11 19.38 23.63 18.45C23.99 17.8 23.48 17 22.73 17C22.39 17 22.05 17.16 21.89 17.47C21.72 17.78 21.38 18 21 18H20.83L18.63 15.8C20.58 15.37 22 14.4 22 13C22 12.11 14.28 5.25 14.28 5.25C14.1 5.09 13.87 5 13.62 5H12C11.45 5 11 5.45 11 6ZM8 18H2L7.25 15.17L10 16C10 17.1 9.11 18 8 18Z" fill="black"/>
</g>
<defs>
<clipPath id="clip0_401_32613">
<rect width="24" height="24" fill="white"/>
</clipPath>
</defs>
</svg>
