<svg width="24" height="24" viewBox="0 0 24 24" fill="none" xmlns="http://www.w3.org/2000/svg">
<g clip-path="url(#clip0_401_34324)">
<path d="M10.66 7.13998C8.41998 7.61998 6.61998 9.43998 6.13998 11.68C5.76998 13.43 6.15998 15.06 7.02998 16.34C7.36998 16.85 8.10998 16.89 8.53998 16.45C8.88998 16.1 8.90998 15.57 8.63998 15.17C8.13998 14.41 7.88998 13.46 8.02998 12.44C8.25998 10.7 9.69998 9.26998 11.44 9.03998C13.9 8.70998 16 10.61 16 13C16 13.8 15.76 14.54 15.36 15.16C15.09 15.57 15.11 16.11 15.46 16.45C15.89 16.88 16.63 16.85 16.97 16.34C17.62 15.4 18 14.25 18 13C18 9.24998 14.55 6.29998 10.66 7.13998ZM10.25 3.14998C6.19998 3.83998 3.05998 6.83998 2.21998 10.87C1.55998 14.04 2.41998 17.03 4.18998 19.25C4.55998 19.71 5.25998 19.74 5.67998 19.32C6.03998 18.96 6.06998 18.39 5.74998 18C4.40998 16.33 3.71998 14.1 4.08998 11.72C4.63998 8.24998 7.50998 5.47998 11.01 5.06998C13.77 4.73998 16.28 5.80998 17.94 7.65998C18.14 7.86998 18.41 7.99998 18.7 7.99998C19.55 7.99998 20.04 6.98998 19.47 6.34998C17.28 3.89998 13.91 2.52998 10.25 3.14998ZM12 11C10.9 11 9.99998 11.9 9.99998 13C9.99998 13.55 10.23 14.05 10.59 14.41C10.95 14.77 11.45 15 12 15C12.55 15 13.05 14.77 13.41 14.41C13.77 14.05 14 13.55 14 13C14 11.9 13.1 11 12 11ZM21 9.99998C21.55 9.99998 22 10.45 22 11V15C22 15.55 21.55 16 21 16C20.45 16 20 15.55 20 15V11C20 10.45 20.45 9.99998 21 9.99998ZM21 18C21.55 18 22 18.45 22 19C22 19.55 21.55 20 21 20C20.45 20 20 19.55 20 19C20 18.45 20.45 18 21 18Z" fill="black"/>
</g>
<defs>
<clipPath id="clip0_401_34324">
<rect width="24" height="24" fill="white"/>
</clipPath>
</defs>
</svg>
