<svg width="24" height="24" viewBox="0 0 24 24" fill="none" xmlns="http://www.w3.org/2000/svg">
<g clip-path="url(#clip0_401_33838)">
<path d="M22.6 11.2899L20 8.68992V4.99992C20 4.44992 19.55 3.99992 19 3.99992H15.31L12.71 1.39992C12.32 1.00992 11.69 1.00992 11.3 1.39992L8.68998 3.99992H4.99998C4.44998 3.99992 3.99998 4.44992 3.99998 4.99992V8.68992L1.39998 11.2899C1.00998 11.6799 1.00998 12.3099 1.39998 12.6999L3.99998 15.2999V18.9999C3.99998 19.5499 4.44998 19.9999 4.99998 19.9999H8.68998L11.29 22.5999C11.68 22.9899 12.31 22.9899 12.7 22.5999L15.3 19.9999H19C19.55 19.9999 20 19.5499 20 18.9999V15.3099L22.6 12.7099C22.99 12.3199 22.99 11.6799 22.6 11.2899ZM17.92 12.9799C17.58 15.0999 16.07 16.9199 14.04 17.6399C12.83 18.0699 11.63 18.0899 10.54 17.8199C10.13 17.7199 10.06 17.1699 10.41 16.9199C11.98 15.8399 13 14.0399 13 11.9999C13 9.95992 11.98 8.15992 10.42 7.07992C10.07 6.83992 10.13 6.28992 10.55 6.17992C11.64 5.90992 12.84 5.92992 14.05 6.35992C16.07 7.07992 17.59 8.89992 17.93 11.0199C17.98 11.3499 18 11.6799 18 11.9999C17.99 12.3199 17.97 12.6499 17.92 12.9799Z" fill="black"/>
</g>
<defs>
<clipPath id="clip0_401_33838">
<rect width="24" height="24" fill="white"/>
</clipPath>
</defs>
</svg>
