<svg width="24" height="24" viewBox="0 0 24 24" fill="none" xmlns="http://www.w3.org/2000/svg">
<g clip-path="url(#clip0_401_34292)">
<path d="M6.5 9H4C3.45 9 3 9.45 3 10V14.31C3 14.69 3.31 15 3.69 15H3.8C4.18 15 4.49 14.69 4.49 14.31V13H5.59L6.31 14.59C6.43 14.84 6.68 15 6.95 15C7.45 15 7.78 14.49 7.59 14.03L7.1 12.9C7.6 12.6 8 12.1 8 11.5V10.5C8 9.68 7.32 9 6.5 9ZM6.5 11.5H4.5V10.5H6.5V11.5Z" fill="black"/>
<path d="M11.5 9C10.77 9 10.13 9.5 9.95 10.21L8.98 14.1C8.86 14.56 9.21 15 9.68 15C10.01 15 10.3 14.77 10.38 14.45L10.62 13.5H12.37L12.6 14.45C12.68 14.77 12.97 15 13.31 15C13.78 15 14.13 14.56 14.02 14.1L13.05 10.22C12.87 9.5 12.23 9 11.5 9ZM11 12L11.25 11H11.75L12 12H11Z" fill="black"/>
<path d="M19.84 9.55L19.24 12L18.68 9.74C18.58 9.3 18.19 9 17.74 9C17.29 9 16.9 9.3 16.8 9.74L16.24 12L15.64 9.55C15.56 9.23 15.27 9 14.93 9C14.46 9 14.11 9.44 14.22 9.9L15.31 14.28C15.43 14.7 15.81 15 16.24 15C16.67 15 17.05 14.7 17.16 14.28L17.74 11.96L18.32 14.28C18.43 14.7 18.81 15 19.24 15C19.67 15 20.05 14.7 20.16 14.28L21.25 9.9C21.37 9.44 21.02 9 20.55 9C20.21 9 19.92 9.23 19.84 9.55Z" fill="black"/>
</g>
<defs>
<clipPath id="clip0_401_34292">
<rect width="24" height="24" fill="white"/>
</clipPath>
</defs>
</svg>
