<svg width="24" height="24" viewBox="0 0 24 24" fill="none" xmlns="http://www.w3.org/2000/svg">
<g clip-path="url(#clip0_401_32648)">
<path d="M15.6 10.79C16.57 10.12 17.25 9.02 17.25 8C17.25 5.74 15.5 4 13.25 4H8C7.45 4 7 4.45 7 5V17C7 17.55 7.45 18 8 18H13.78C15.85 18 17.74 16.31 17.75 14.23C17.76 12.7 16.9 11.39 15.6 10.79ZM10 6.5H13C13.83 6.5 14.5 7.17 14.5 8C14.5 8.83 13.83 9.5 13 9.5H10V6.5ZM13.5 15.5H10V12.5H13.5C14.33 12.5 15 13.17 15 14C15 14.83 14.33 15.5 13.5 15.5Z" fill="black"/>
</g>
<defs>
<clipPath id="clip0_401_32648">
<rect width="24" height="24" fill="white"/>
</clipPath>
</defs>
</svg>
