<svg width="24" height="24" viewBox="0 0 24 24" fill="none" xmlns="http://www.w3.org/2000/svg">
<g clip-path="url(#clip0_401_33803)">
<path d="M21.29 6.75C20.9 6.36 20.28 6.36 19.89 6.75L19 7.63L19.03 7.07L15.57 3.59C15.19 3.21 14.68 3 14.15 3H9.85003C9.32003 3 8.81003 3.21 8.43003 3.59L4.97003 7.07L5.00003 7.57L4.11003 6.7C3.72003 6.32 3.10003 6.32 2.72003 6.71L2.70003 6.73C2.32003 7.12 2.32003 7.75 2.72003 8.13L4.66003 10H19.35L21.27 8.16C21.67 7.78 21.68 7.14 21.29 6.75Z" fill="black"/>
<path d="M5.79005 18.1498C5.87005 19.1898 6.74005 19.9998 7.79005 19.9998H16.22C17.27 19.9998 18.14 19.1898 18.21 18.1498L18.7 11.5498H5.30005L5.79005 18.1498Z" fill="black"/>
</g>
<defs>
<clipPath id="clip0_401_33803">
<rect width="24" height="24" fill="white"/>
</clipPath>
</defs>
</svg>
