<svg width="24" height="24" viewBox="0 0 24 24" fill="none" xmlns="http://www.w3.org/2000/svg">
<g clip-path="url(#clip0_401_32810)">
<path d="M3 9H5V7H3V9ZM3 5H5V3H3V5ZM7 21H9V19H7V21ZM7 13H9V11H7V13ZM3 13H5V11H3V13ZM3 21H5V19H3V21ZM3 17H5V15H3V17ZM7 5H9V3H7V5ZM19 17H21V15H19V17ZM12 21C12.55 21 13 20.55 13 20V4C13 3.45 12.55 3 12 3C11.45 3 11 3.45 11 4V20C11 20.55 11.45 21 12 21ZM19 21H21V19H19V21ZM19 13H21V11H19V13ZM19 3V5H21V3H19ZM19 9H21V7H19V9ZM15 5H17V3H15V5ZM15 21H17V19H15V21ZM15 13H17V11H15V13Z" fill="black"/>
</g>
<defs>
<clipPath id="clip0_401_32810">
<rect width="24" height="24" fill="white"/>
</clipPath>
</defs>
</svg>
