<svg width="24" height="24" viewBox="0 0 24 24" fill="none" xmlns="http://www.w3.org/2000/svg">
<g clip-path="url(#clip0_401_34507)">
<path d="M22 6C22 4.9 21.1 4 20 4H5C4.45 4 4 4.45 4 5C4 5.55 4.45 6 5 6H20V8.59C20.73 8.88 21.4 9.28 22 9.76V6Z" fill="black"/>
<path d="M8 9H3C2.5 9 2 9.5 2 10V19C2 19.5 2.5 20 3 20H8C8.5 20 9 19.5 9 19V10C9 9.5 8.5 9 8 9ZM7 18H4V11H7V18Z" fill="black"/>
<path d="M17.75 16.97C18.05 16.74 18.25 16.4 18.25 16C18.25 15.31 17.69 14.75 17 14.75C16.31 14.75 15.75 15.31 15.75 16C15.75 16.4 15.95 16.75 16.25 16.97V21.25C16.25 21.66 16.59 22 17 22C17.41 22 17.75 21.66 17.75 21.25V16.97Z" fill="black"/>
<path d="M17.54 13.5602C18.52 13.7702 19.3 14.5902 19.47 15.5802C19.58 16.2202 19.44 16.8302 19.13 17.3202C18.95 17.6102 19 17.9902 19.25 18.2302C19.59 18.5602 20.15 18.5202 20.41 18.1102C20.92 17.2902 21.14 16.2802 20.94 15.2102C20.64 13.6502 19.38 12.3802 17.82 12.0802C15.24 11.5802 13 13.5302 13 16.0002C13 16.7802 13.22 17.5002 13.6 18.1102C13.85 18.5202 14.43 18.5702 14.76 18.2302C15 17.9902 15.05 17.6002 14.87 17.3102C14.63 16.9302 14.5 16.4802 14.5 16.0002C14.5 14.4502 15.93 13.2202 17.54 13.5602Z" fill="black"/>
<path d="M16.25 9.54023C13.31 9.87023 10.93 12.2202 10.56 15.1502C10.33 16.9702 10.85 18.6602 11.86 19.9702C12.13 20.3202 12.66 20.3402 12.98 20.0302C13.25 19.7602 13.26 19.3302 13.03 19.0302C12.23 17.9802 11.83 16.6002 12.08 15.1402C12.42 13.1102 14.03 11.4702 16.06 11.0902C19.22 10.5002 22 12.9302 22 16.0002C22 17.1302 21.62 18.1802 20.98 19.0202C20.75 19.3202 20.77 19.7502 21.04 20.0202C21.35 20.3302 21.88 20.3202 22.15 19.9602C23 18.8702 23.5 17.4902 23.5 16.0002C23.5 12.1602 20.17 9.10023 16.25 9.54023Z" fill="black"/>
</g>
<defs>
<clipPath id="clip0_401_34507">
<rect width="24" height="24" fill="white"/>
</clipPath>
</defs>
</svg>
