<svg width="24" height="24" viewBox="0 0 24 24" fill="none" xmlns="http://www.w3.org/2000/svg">
<g clip-path="url(#clip0_401_32676)">
<path d="M21 7.00004C21 6.45004 20.55 6.00004 20 6.00004H8.83L10.83 8.00004H20C20.55 8.00004 21 7.55004 21 7.00004ZM18 12C18 11.45 17.55 11 17 11H13.83L15.83 13H17C17.55 13 18 12.55 18 12ZM13.98 16.81C13.99 16.87 14 16.94 14 17C14 17.55 13.55 18 13 18H11C10.45 18 10 17.55 10 17C10 16.45 10.45 16 11 16H13C13.06 16 13.13 16.01 13.19 16.02L10.17 13H7C6.45 13 6 12.55 6 12C6 11.45 6.45 11 7 11H8.17L5.17 8.00004H4C3.45 8.00004 3 7.55004 3 7.00004C3 6.68004 3.15 6.40004 3.38 6.21004L2.1 4.93004C1.71 4.54004 1.71 3.91004 2.1 3.52004C2.49 3.13004 3.12 3.13004 3.51 3.52004L20.48 20.49C20.87 20.88 20.87 21.51 20.48 21.9C20.09 22.29 19.46 22.29 19.07 21.9L13.98 16.81Z" fill="black"/>
</g>
<defs>
<clipPath id="clip0_401_32676">
<rect width="24" height="24" fill="white"/>
</clipPath>
</defs>
</svg>
