<svg width="24" height="24" viewBox="0 0 24 24" fill="none" xmlns="http://www.w3.org/2000/svg">
<g clip-path="url(#clip0_401_33782)">
<path d="M18 13C18 12.45 17.55 12 17 12H13C12.45 12 12 12.45 12 13V17C12 17.55 12.45 18 13 18H17C17.55 18 18 17.55 18 17V16L19.27 16.67C19.6 16.85 20 16.61 20 16.23V13.77C20 13.39 19.6 13.15 19.27 13.33L18 14V13ZM10.8 3.9L4.8 8.4C4.3 8.78 4 9.37 4 10V19C4 20.1 4.9 21 6 21H19C19.55 21 20 20.55 20 20C20 19.45 19.55 19 19 19H6V10L12 5.5L18 10V11H20V10C20 9.37 19.7 8.78 19.2 8.4L13.2 3.9C12.49 3.37 11.51 3.37 10.8 3.9Z" fill="black"/>
</g>
<defs>
<clipPath id="clip0_401_33782">
<rect width="24" height="24" fill="white"/>
</clipPath>
</defs>
</svg>
