<svg width="24" height="24" viewBox="0 0 24 24" fill="none" xmlns="http://www.w3.org/2000/svg">
<g clip-path="url(#clip0_401_34548)">
<path d="M16.5 15.5H14.5V11.5H16.5V15.5ZM20 6H12L10.59 4.59C10.21 4.21 9.7 4 9.17 4H4C2.9 4 2.01 4.9 2.01 6L2 18C2 19.1 2.9 20 4 20H20C21.1 20 22 19.1 22 18V8C22 6.9 21.1 6 20 6ZM18.25 11.5H18V15.5C18 16.33 17.33 17 16.5 17H14.5C13.67 17 13 16.33 13 15.5V11.5H12.75C12.34 11.5 12 11.16 12 10.75C12 10.34 12.34 10 12.75 10H14.5V9.75C14.5 9.34 14.84 9 15.25 9H15.75C16.16 9 16.5 9.34 16.5 9.75V10H18.25C18.66 10 19 10.34 19 10.75C19 11.16 18.66 11.5 18.25 11.5Z" fill="black"/>
</g>
<defs>
<clipPath id="clip0_401_34548">
<rect width="24" height="24" fill="white"/>
</clipPath>
</defs>
</svg>
