<svg width="24" height="24" viewBox="0 0 24 24" fill="none" xmlns="http://www.w3.org/2000/svg">
<g clip-path="url(#clip0_401_33008)">
<path d="M8.64999 5.82003C9.35999 4.72003 10.6 4.00003 12 4.00003C14.21 4.00003 16 5.79003 16 8.00003C16 9.40003 15.28 10.64 14.18 11.35L8.64999 5.82003ZM20 17.17C19.98 16.07 19.37 15.06 18.39 14.55C17.85 14.27 17.26 14.01 16.62 13.79L20 17.17ZM20.49 20.49L3.51 3.51003C3.12 3.12003 2.49 3.12003 2.1 3.51003C1.71 3.90003 1.71 4.53003 2.1 4.92003L10.28 13.1C8.45999 13.33 6.87 13.9 5.58 14.56C4.6 15.08 4 16.11 4 17.22V20H17.17L19.07 21.9C19.46 22.29 20.09 22.29 20.48 21.9C20.88 21.51 20.88 20.88 20.49 20.49Z" fill="black"/>
</g>
<defs>
<clipPath id="clip0_401_33008">
<rect width="24" height="24" fill="white"/>
</clipPath>
</defs>
</svg>
