<svg width="24" height="24" viewBox="0 0 24 24" fill="none" xmlns="http://www.w3.org/2000/svg">
<g clip-path="url(#clip0_401_34224)">
<path d="M7.25 15C6.84 15 6.5 14.66 6.5 14.25V13.5H4.5V14.25C4.5 14.66 4.16 15 3.75 15C3.34 15 3 14.66 3 14.25V10C3 9.45 3.45 9 4 9H7C7.55 9 8 9.45 8 10V14.25C8 14.66 7.66 15 7.25 15ZM6.5 10.5H4.5V12H6.5V10.5ZM13.5 12C14.05 12 14.5 12.45 14.5 13V14C14.5 14.55 14.05 15 13.5 15H10.5C9.95 15 9.5 14.55 9.5 14V10C9.5 9.45 9.95 9 10.5 9H13.5C14.05 9 14.5 9.45 14.5 10V11C14.5 11.55 14.05 12 13.5 12ZM11 10.5V11.25H13V10.5H11ZM13 12.75H11V13.5H13V12.75ZM21 10.25C21 10.66 20.66 11 20.25 11C19.92 11 19.65 10.79 19.54 10.5H17.5V13.5H19.54C19.64 13.21 19.92 13 20.25 13C20.66 13 21 13.34 21 13.75V14C21 14.55 20.55 15 20 15H17C16.45 15 16 14.55 16 14V10C16 9.45 16.45 9 17 9H20C20.55 9 21 9.45 21 10V10.25Z" fill="black"/>
</g>
<defs>
<clipPath id="clip0_401_34224">
<rect width="24" height="24" fill="white"/>
</clipPath>
</defs>
</svg>
