<svg width="24" height="24" viewBox="0 0 24 24" fill="none" xmlns="http://www.w3.org/2000/svg">
<g clip-path="url(#clip0_401_33678)">
<path d="M7.99998 24C8.54998 24 8.99998 23.55 8.99998 23C8.99998 22.45 8.54998 22 7.99998 22C7.44998 22 6.99998 22.45 6.99998 23C6.99998 23.55 7.44998 24 7.99998 24ZM12 24C12.55 24 13 23.55 13 23C13 22.45 12.55 22 12 22C11.45 22 11 22.45 11 23C11 23.55 11.45 24 12 24ZM16 24C16.55 24 17 23.55 17 23C17 22.45 16.55 22 16 22C15.45 22 15 22.45 15 23C15 23.55 15.45 24 16 24ZM8.99998 10V4C8.99998 2.34 10.34 1 12 1C13.66 1 15 2.34 15 4V10C15 11.66 13.66 13 12 13C10.34 13 8.99998 11.66 8.99998 10ZM17.91 10C18.52 10 19 10.54 18.91 11.14C18.42 14.14 16.02 16.48 13 16.92V19C13 19.55 12.55 20 12 20C11.45 20 11 19.55 11 19V16.92C7.97998 16.48 5.57998 14.14 5.08998 11.14C4.98998 10.54 5.47998 10 6.08998 10C6.57998 10 6.98998 10.36 7.06998 10.85C7.47998 13.21 9.52998 15 12 15C14.47 15 16.52 13.21 16.93 10.85C17.01 10.36 17.42 10 17.91 10Z" fill="black"/>
</g>
<defs>
<clipPath id="clip0_401_33678">
<rect width="24" height="24" fill="white"/>
</clipPath>
</defs>
</svg>
