<svg width="24" height="24" viewBox="0 0 24 24" fill="none" xmlns="http://www.w3.org/2000/svg">
<g clip-path="url(#clip0_401_34038)">
<path d="M20.68 9.27L20.69 9.21C20.85 8.59 20.39 8 19.76 8H17L17.7 5.21C17.85 4.59 17.39 4 16.76 4C16.31 4 15.93 4.3 15.82 4.73L15 8H11L11.7 5.21C11.85 4.59 11.39 4 10.76 4C10.31 4 9.93003 4.3 9.82003 4.73L9.00003 8H5.76003C5.31003 8 4.92003 8.3 4.82003 8.73L4.80003 8.79C4.65003 9.41 5.11003 10 5.74003 10H8.50003L7.50003 14H4.26003C3.81003 14 3.43003 14.3 3.32003 14.73L3.30003 14.79C3.15003 15.41 3.61003 16 4.24003 16H7.00003L6.30003 18.79C6.15003 19.41 6.61003 20 7.24003 20C7.69003 20 8.07003 19.7 8.18003 19.27L9.00003 16H13L12.3 18.79C12.15 19.41 12.61 20 13.24 20C13.69 20 14.07 19.7 14.18 19.27L15 16H18.24C18.69 16 19.07 15.7 19.18 15.27L19.19 15.21C19.34 14.6 18.88 14 18.25 14H15.5L16.5 10H19.74C20.19 10 20.58 9.7 20.68 9.27ZM13.5 14H9.50003L10.5 10H14.5L13.5 14Z" fill="black"/>
</g>
<defs>
<clipPath id="clip0_401_34038">
<rect width="24" height="24" fill="white"/>
</clipPath>
</defs>
</svg>
