<svg width="24" height="24" viewBox="0 0 24 24" fill="none" xmlns="http://www.w3.org/2000/svg">
<g clip-path="url(#clip0_401_34194)">
<path d="M17.58 6.25L19.35 8.02L14.51 12.86C14.42 12.95 14.29 13 14.16 13H13.1C12.82 13 12.6 12.78 12.6 12.5V11.44C12.6 11.31 12.65 11.18 12.75 11.09L17.58 6.25ZM20.85 5.81L19.79 4.75C19.59 4.55 19.28 4.55 19.08 4.75L18.23 5.6L20 7.37L20.85 6.52C21.05 6.32 21.05 6 20.85 5.81ZM20 18C20 18.55 19.55 19 19 19H5C4.45 19 4 18.55 4 18C4 17.45 4.45 17 5 17H6V10C6 7.21 7.91 4.86 10.5 4.2V3.5C10.5 2.67 11.17 2 12 2C12.83 2 13.5 2.67 13.5 3.5V4.2C14.32 4.41 15.07 4.79 15.71 5.29L11.19 9.81C10.81 10.19 10.6 10.69 10.6 11.22V13C10.6 14.1 11.5 15 12.6 15H14.37C14.9 15 15.41 14.79 15.78 14.41L18 12.2V17H19C19.55 17 20 17.45 20 18ZM10 20H14C14 21.1 13.1 22 12 22C10.9 22 10 21.1 10 20Z" fill="black"/>
</g>
<defs>
<clipPath id="clip0_401_34194">
<rect width="24" height="24" fill="white"/>
</clipPath>
</defs>
</svg>
