<svg width="24" height="24" viewBox="0 0 24 24" fill="none" xmlns="http://www.w3.org/2000/svg">
<g clip-path="url(#clip0_401_33033)">
<path d="M20 6H12L10.59 4.59C10.21 4.21 9.7 4 9.17 4H4C2.9 4 2.01 4.9 2.01 6L2 18C2 19.1 2.9 20 4 20H20C21.1 20 22 19.1 22 18V8C22 6.9 21.1 6 20 6ZM13 13V16C13 16.55 12.55 17 12 17C11.45 17 11 16.55 11 16V13H9.21C8.76 13 8.54 12.46 8.86 12.15L11.66 9.36C11.86 9.16 12.17 9.17 12.37 9.36L15.16 12.15C15.46 12.46 15.24 13 14.8 13H13Z" fill="black"/>
</g>
<defs>
<clipPath id="clip0_401_33033">
<rect width="24" height="24" fill="white"/>
</clipPath>
</defs>
</svg>
