<svg width="24" height="24" viewBox="0 0 24 24" fill="none" xmlns="http://www.w3.org/2000/svg">
<g clip-path="url(#clip0_401_34418)">
<path d="M12 7.5C12.97 7.5 13.75 6.72 13.75 5.75C13.75 4.78 12.97 4 12 4C11.03 4 10.25 4.78 10.25 5.75C10.25 6.72 11.03 7.5 12 7.5ZM14 16V19C14 19.55 13.55 20 13 20H11C10.45 20 9.99998 19.55 9.99998 19V16H9.43998C8.73998 16 8.25998 15.3 8.49998 14.65L10.38 9.62C10.63 8.95 11.28 8.5 12 8.5C12.72 8.5 13.37 8.95 13.62 9.62L15.5 14.65C15.74 15.3 15.26 16 14.56 16H14Z" fill="black"/>
</g>
<defs>
<clipPath id="clip0_401_34418">
<rect width="24" height="24" fill="white"/>
</clipPath>
</defs>
</svg>
