<svg width="24" height="24" viewBox="0 0 24 24" fill="none" xmlns="http://www.w3.org/2000/svg">
<g clip-path="url(#clip0_401_33654)">
<path d="M15 18.5C12.49 18.5 10.32 17.08 9.24001 15H14.38C14.76 15 15.11 14.79 15.27 14.45C15.6 13.79 15.12 13 14.38 13H8.58001C8.53001 12.67 8.50001 12.34 8.50001 12C8.50001 11.66 8.53001 11.33 8.58001 11H14.38C14.76 11 15.11 10.79 15.27 10.45C15.61 9.78 15.13 9 14.38 9H9.24001C10.32 6.92 12.5 5.5 15 5.5C16.25 5.5 17.42 5.86 18.42 6.47C18.92 6.78 19.57 6.73 19.99 6.31C20.57 5.73 20.44 4.78 19.74 4.35C18.36 3.5 16.73 3 15 3C11.08 3 7.76001 5.51 6.52001 9H3.62001C3.24001 9 2.89001 9.21 2.72001 9.55C2.39001 10.22 2.87001 11 3.62001 11H6.06001C6.02001 11.33 6.00001 11.66 6.00001 12C6.00001 12.34 6.02001 12.67 6.06001 13H3.62001C3.24001 13 2.89001 13.21 2.73001 13.55C2.39001 14.22 2.87001 15 3.62001 15H6.52001C7.76001 18.49 11.08 21 15 21C16.74 21 18.36 20.51 19.74 19.65C20.43 19.22 20.56 18.26 19.98 17.68C19.56 17.26 18.91 17.21 18.41 17.53C17.42 18.15 16.26 18.5 15 18.5Z" fill="black"/>
</g>
<defs>
<clipPath id="clip0_401_33654">
<rect width="24" height="24" fill="white"/>
</clipPath>
</defs>
</svg>
