<svg width="24" height="24" viewBox="0 0 24 24" fill="none" xmlns="http://www.w3.org/2000/svg">
<g clip-path="url(#clip0_401_33170)">
<path d="M12 2C6.48 2 2 6.48 2 12C2 17.52 6.48 22 12 22C17.52 22 22 17.52 22 12C22 6.48 17.52 2 12 2ZM16.5 16H8C6.34 16 5 14.66 5 13C5 11.34 6.34 10 8 10H8.14C8.58 8.27 10.13 7 12 7C14.21 7 16 8.79 16 11H16.5C17.88 11 19 12.12 19 13.5C19 14.88 17.88 16 16.5 16Z" fill="black"/>
</g>
<defs>
<clipPath id="clip0_401_33170">
<rect width="24" height="24" fill="white"/>
</clipPath>
</defs>
</svg>
