<svg width="24" height="24" viewBox="0 0 24 24" fill="none" xmlns="http://www.w3.org/2000/svg">
<g clip-path="url(#clip0_401_32781)">
<path d="M17 16.9899C15.65 16.9899 14.8 17.4099 14.05 17.7899C13.4 18.1199 12.87 18.3899 12 18.3899C11.1 18.3899 10.6 18.1399 9.95 17.7899C9.2 17.4099 8.38 16.9899 7 16.9899C5.62 16.9899 4.8 17.4099 4.05 17.7899C3.62 18.0099 3.24 18.1999 2.78 18.3099C2.33 18.4099 2 18.7699 2 19.2199V19.3199C2 19.9199 2.56 20.3499 3.14 20.2299C3.88 20.0799 4.44 19.7999 4.95 19.5399C5.6 19.2099 6.12 18.9399 7 18.9399C7.88 18.9399 8.4 19.1899 9.05 19.5399C9.8 19.9199 10.62 20.3399 12 20.3399C13.38 20.3399 14.2 19.9199 14.95 19.5399C15.6 19.2099 16.13 18.9399 17 18.9399C17.9 18.9399 18.4 19.1899 19.05 19.5399C19.57 19.7999 20.13 20.0899 20.88 20.2399C21.46 20.3499 22 19.9099 22 19.3299V19.2399C22 18.7799 21.66 18.4199 21.21 18.3199C20.75 18.2199 20.38 18.0299 19.95 17.7999C19.2 17.4099 18.35 16.9899 17 16.9899ZM17 12.5399C15.65 12.5399 14.8 12.9699 14.05 13.3399C13.4 13.6599 12.87 13.9399 12 13.9399C11.1 13.9399 10.6 13.6899 9.95 13.3399C9.2 12.9599 8.38 12.5399 7 12.5399C5.62 12.5399 4.8 12.9699 4.05 13.3399C3.62 13.5499 3.24 13.7499 2.77 13.8599C2.33 13.9599 2 14.3199 2 14.7699V14.8699C2 15.4599 2.54 15.8999 3.12 15.7799C3.87 15.6299 4.43 15.3399 4.95 15.0899C5.6 14.7399 6.1 14.4899 7 14.4899C7.9 14.4899 8.4 14.7399 9.05 15.0899C9.8 15.4699 10.62 15.8899 12 15.8899C13.38 15.8899 14.2 15.4599 14.95 15.0899C15.6 14.7399 16.1 14.4899 17 14.4899C17.9 14.4899 18.4 14.7399 19.05 15.0899C19.57 15.3499 20.13 15.6399 20.88 15.7899C21.46 15.8999 22 15.4599 22 14.8699V14.7799C22 14.3199 21.66 13.9599 21.21 13.8599C20.75 13.7599 20.38 13.5699 19.95 13.3399C19.2 12.9599 18.35 12.5399 17 12.5399ZM19.95 4.45991C19.2 4.07991 18.37 3.65991 17 3.65991C15.63 3.65991 14.8 4.07991 14.05 4.45991C13.4 4.77991 12.87 5.05991 12 5.05991C11.1 5.05991 10.6 4.80991 9.95 4.45991C9.2 4.08991 8.38 3.65991 7 3.65991C5.62 3.65991 4.8 4.07991 4.05 4.45991C3.62 4.67991 3.24 4.86991 2.78 4.97991C2.33 5.07991 2 5.43991 2 5.88991V5.95991C2 6.55991 2.54 6.99991 3.12 6.87991C3.87 6.72991 4.43 6.43991 4.95 6.18991C5.6 5.85991 6.12 5.58991 7 5.58991C7.88 5.58991 8.4 5.83991 9.05 6.18991C9.8 6.56991 10.62 6.98991 12 6.98991C13.38 6.98991 14.2 6.55991 14.95 6.18991C15.6 5.86991 16.13 5.58991 17 5.58991C17.9 5.58991 18.4 5.83991 19.05 6.18991C19.57 6.44991 20.13 6.73991 20.88 6.88991C21.46 6.99991 22 6.55991 22 5.96991V5.87991C22 5.41991 21.66 5.05991 21.21 4.95991C20.75 4.85991 20.38 4.67991 19.95 4.45991ZM17 8.08991C15.65 8.08991 14.8 8.51991 14.05 8.88991C13.4 9.23991 12.9 9.48991 12 9.48991C11.1 9.48991 10.6 9.23991 9.95 8.88991C9.2 8.50991 8.38 8.08991 7 8.08991C5.62 8.08991 4.8 8.51991 4.05 8.88991C3.62 9.11991 3.25 9.30991 2.79 9.40991C2.34 9.50991 2 9.86991 2 10.3299V10.4199C2 11.0099 2.54 11.4499 3.12 11.3299C3.87 11.1799 4.43 10.8899 4.95 10.6399C5.6 10.3199 6.13 10.0399 7 10.0399C7.87 10.0399 8.4 10.2899 9.05 10.6399C9.8 11.0199 10.62 11.4399 12 11.4399C13.38 11.4399 14.2 11.0099 14.95 10.6399C15.6 10.3199 16.13 10.0399 17 10.0399C17.9 10.0399 18.4 10.2899 19.05 10.6399C19.57 10.8999 20.13 11.1899 20.88 11.3399C21.46 11.4499 22 11.0099 22 10.4299V10.3399C22 9.87991 21.66 9.51991 21.21 9.41991C20.75 9.31991 20.38 9.12991 19.95 8.89991C19.2 8.50991 18.35 8.08991 17 8.08991Z" fill="black"/>
</g>
<defs>
<clipPath id="clip0_401_32781">
<rect width="24" height="24" fill="white"/>
</clipPath>
</defs>
</svg>
