<svg width="24" height="24" viewBox="0 0 24 24" fill="none" xmlns="http://www.w3.org/2000/svg">
<g clip-path="url(#clip0_401_32717)">
<path d="M8.2 17.43C8.2 16.78 8.8 16.3 9.44 16.44L13 17.24V6.5C13 5.67 13.67 5 14.5 5C15.33 5 16 5.67 16 6.5V12.5H16.91C17.22 12.5 17.53 12.57 17.8 12.71L21.89 14.75C22.66 15.13 23.1 15.97 22.98 16.82L22.35 21.28C22.21 22.27 21.36 23 20.37 23H14.21C13.68 23 12.92 22.79 12.55 22.41L8.48 18.12C8.3 17.94 8.2 17.69 8.2 17.43ZM9.5 5.25C9.5 5.66 9.84 6 10.25 6C10.66 6 11 5.66 11 5.25V2C11 1.45 10.55 1 10 1H6.75C6.34 1 6 1.34 6 1.75C6 2.16 6.34 2.5 6.75 2.5H8.44L2.5 8.44V6.75C2.5 6.34 2.16 6 1.75 6C1.34 6 1 6.34 1 6.75V10C1 10.55 1.45 11 2 11H5.25C5.66 11 6 10.66 6 10.25C6 9.84 5.66 9.5 5.25 9.5H3.56L9.5 3.56V5.25Z" fill="black"/>
</g>
<defs>
<clipPath id="clip0_401_32717">
<rect width="24" height="24" fill="white"/>
</clipPath>
</defs>
</svg>
