<svg width="24" height="24" viewBox="0 0 24 24" fill="none" xmlns="http://www.w3.org/2000/svg">
<g clip-path="url(#clip0_401_32794)">
<path d="M10.5 12.9999H9.5C8.67 12.9999 8 12.3299 8 11.4999C8 10.6699 8.67 9.99994 9.5 9.99994H10.5V8.99994C10.5 8.16994 11.17 7.49994 12 7.49994C12.83 7.49994 13.5 8.16994 13.5 8.99994V9.99994H14.5C15.33 9.99994 16 10.6699 16 11.4999C16 12.3299 15.33 12.9999 14.5 12.9999H13.5V13.9999C13.5 14.8299 12.83 15.4999 12 15.4999C11.17 15.4999 10.5 14.8299 10.5 13.9999V12.9999ZM11.3 2.25994L5.3 4.50994C4.52 4.80994 4 5.54994 4 6.38994V11.0899C4 16.1399 7.41 20.8499 12 21.9999C16.59 20.8499 20 16.1399 20 11.0899V6.38994C20 5.55994 19.48 4.80994 18.7 4.51994L12.7 2.26994C12.25 2.08994 11.75 2.08994 11.3 2.25994Z" fill="black"/>
</g>
<defs>
<clipPath id="clip0_401_32794">
<rect width="24" height="24" fill="white"/>
</clipPath>
</defs>
</svg>
