<svg width="24" height="24" viewBox="0 0 24 24" fill="none" xmlns="http://www.w3.org/2000/svg">
<g clip-path="url(#clip0_401_33523)">
<path d="M3 22C2.45 22 2 21.55 2 21V3C2 2.45 2.45 2 3 2C3.55 2 4 2.45 4 3V21C4 21.55 3.55 22 3 22ZM20.5 7H7.5C6.67 7 6 7.67 6 8.5C6 9.33 6.67 10 7.5 10H20.5C21.33 10 22 9.33 22 8.5C22 7.67 21.33 7 20.5 7ZM14.5 14H7.5C6.67 14 6 14.67 6 15.5C6 16.33 6.67 17 7.5 17H14.5C15.33 17 16 16.33 16 15.5C16 14.67 15.33 14 14.5 14Z" fill="black"/>
</g>
<defs>
<clipPath id="clip0_401_33523">
<rect width="24" height="24" fill="white"/>
</clipPath>
</defs>
</svg>
