<svg width="24" height="24" viewBox="0 0 24 24" fill="none" xmlns="http://www.w3.org/2000/svg">
<g clip-path="url(#clip0_401_33062)">
<path d="M18.49 12.13C16.67 10.79 14.43 10 12 10C9.57002 10 7.33002 10.79 5.51002 12.13C4.79002 12.66 4.75002 13.73 5.38002 14.37C5.91002 14.91 6.75002 14.94 7.36002 14.49C8.67002 13.55 10.27 13 12 13C13.73 13 15.33 13.55 16.64 14.49C17.26 14.93 18.09 14.9 18.62 14.37C19.26 13.73 19.22 12.66 18.49 12.13ZM22.8 7.89C19.86 5.46 16.1 4 12 4C7.90002 4 4.14002 5.46 1.20002 7.89C0.530022 8.44 0.490022 9.47 1.11002 10.1C1.66002 10.65 2.53002 10.68 3.13002 10.19C5.55002 8.2 8.64002 7 12 7C15.36 7 18.45 8.2 20.87 10.19C21.47 10.68 22.34 10.65 22.89 10.1C23.51 9.47 23.47 8.44 22.8 7.89ZM12 16C10.9 16 10 16.9 10 18C10 19.1 10.9 20 12 20C13.1 20 14 19.1 14 18C14 16.9 13.1 16 12 16ZM23 19V18C23 16.9 22.1 16 21 16C19.9 16 19 16.9 19 18V19C18.45 19 18 19.45 18 20V23C18 23.55 18.45 24 19 24H23C23.55 24 24 23.55 24 23V20C24 19.45 23.55 19 23 19ZM22 19H20V18C20 17.45 20.45 17 21 17C21.55 17 22 17.45 22 18V19Z" fill="black"/>
</g>
<defs>
<clipPath id="clip0_401_33062">
<rect width="24" height="24" fill="white"/>
</clipPath>
</defs>
</svg>
