<svg width="24" height="24" viewBox="0 0 24 24" fill="none" xmlns="http://www.w3.org/2000/svg">
<g clip-path="url(#clip0_401_33554)">
<path d="M16.23 6.99997H18.83C18.77 6.52997 18.47 6.05997 18.04 5.82997L11.4 2.44997C10.84 2.15997 10.17 2.15997 9.6 2.43997L2.8 5.82997C2.32 6.08997 2 6.63997 2 7.16997V15C2 16.1 2.9 17 4 17V7.39997L10.5 3.99997L16.23 6.99997Z" fill="black"/>
<path d="M20 8H7C5.9 8 5 8.9 5 10V19C5 20.1 5.9 21 7 21H20C21.1 21 22 20.1 22 19V10C22 8.9 21.1 8 20 8ZM20 11.46C20 11.79 19.81 12.1 19.52 12.25L13.91 15.13C13.66 15.26 13.35 15.26 13.1 15.13L7.49 12.25C7.19 12.1 7 11.79 7 11.46C7 10.79 7.7 10.36 8.3 10.67L13.5 13.34L18.7 10.67C19.3 10.36 20 10.79 20 11.46Z" fill="black"/>
</g>
<defs>
<clipPath id="clip0_401_33554">
<rect width="24" height="24" fill="white"/>
</clipPath>
</defs>
</svg>
