<svg width="24" height="24" viewBox="0 0 24 24" fill="none" xmlns="http://www.w3.org/2000/svg">
<g clip-path="url(#clip0_401_33166)">
<path d="M21 6C21 6.55 20.55 7 20 7H19V8C19 8.55 18.55 9 18 9C17.45 9 17 8.55 17 8V7H16C15.45 7 15 6.55 15 6C15 5.45 15.45 5 16 5H17V4C17 3.45 17.45 3 18 3C18.55 3 19 3.45 19 4V5H20C20.55 5 21 5.45 21 6ZM19 19.48C19 20.2 18.27 20.68 17.61 20.4L12 18L6.39 20.4C5.73 20.69 5 20.2 5 19.48V5C5 3.9 5.9 3 7 3H14C13.37 3.84 13 4.87 13 6C13 8.76 15.24 11 18 11C18.34 11 18.68 10.97 19 10.9V19.48Z" fill="black"/>
</g>
<defs>
<clipPath id="clip0_401_33166">
<rect width="24" height="24" fill="white"/>
</clipPath>
</defs>
</svg>
