<svg width="24" height="24" viewBox="0 0 24 24" fill="none" xmlns="http://www.w3.org/2000/svg">
<g clip-path="url(#clip0_401_33602)">
<path d="M20.95 14.88C20.55 18.06 18.06 20.55 14.88 20.95C14.37 21.01 14 21.44 14 21.94C14 21.98 14 22.02 14.01 22.06C14.08 22.61 14.58 23 15.13 22.93C19.22 22.42 22.43 19.21 22.94 15.12C23 14.57 22.61 14.07 22.06 14.01C21.51 13.94 21.01 14.33 20.95 14.88ZM18.84 15.26C18.98 14.73 18.66 14.18 18.12 14.04C17.58 13.9 17.04 14.22 16.9 14.76C16.63 15.81 15.81 16.63 14.75 16.91C14.3 17.03 14 17.43 14 17.88C14 17.96 14.01 18.05 14.03 18.13C14.17 18.66 14.72 18.98 15.25 18.85C17.02 18.38 18.39 17.01 18.84 15.26ZM21.8 4.12L18.26 0.579995C17.48 -0.200005 16.21 -0.200005 15.43 0.579995L12.25 3.75999C11.47 4.54 11.47 5.81 12.25 6.59L13.49 7.83L12.78 8.54L11.55 7.3C10.77 6.52 9.5 6.52 8.72001 7.3L7.3 8.72C6.52001 9.5 6.52001 10.77 7.3 11.55L8.54 12.79L7.83 13.5L6.6 12.25C5.82 11.47 4.55 11.47 3.77 12.25L0.590005 15.43C-0.189995 16.21 -0.189995 17.48 0.590005 18.26L4.13 21.8C4.91 22.58 6.18001 22.58 6.96 21.8L10.14 18.62C10.92 17.84 10.92 16.57 10.14 15.79L8.9 14.55L9.61 13.84L10.85 15.08C11.63 15.86 12.9 15.86 13.68 15.08L15.09 13.67C15.87 12.89 15.87 11.62 15.09 10.84L13.84 9.6L14.55 8.89L15.79 10.13C16.57 10.91 17.84 10.91 18.62 10.13L21.8 6.95C22.58 6.17 22.58 4.89999 21.8 4.12ZM5.54 20.38L2 16.85L3.06 15.79L6.6 19.33L5.54 20.38ZM7.66 18.26L4.12 14.72L5.18 13.66L8.72001 17.2L7.66 18.26ZM17.2 8.72L13.66 5.18L14.72 4.12L18.26 7.66L17.2 8.72ZM19.32 6.6L15.78 3.06L16.85 2L20.39 5.54L19.32 6.6Z" fill="black"/>
</g>
<defs>
<clipPath id="clip0_401_33602">
<rect width="24" height="24" fill="white"/>
</clipPath>
</defs>
</svg>
