<svg width="24" height="24" viewBox="0 0 24 24" fill="none" xmlns="http://www.w3.org/2000/svg">
<g clip-path="url(#clip0_401_34233)">
<path d="M10.5 14.5H8.5V15.5H10.5V14.5Z" fill="black"/>
<path d="M16 7.5H14.5V10.5H16V7.5Z" fill="black"/>
<path d="M12 2C6.48 2 2 6.48 2 12C2 17.52 6.48 22 12 22C17.52 22 22 17.52 22 12C22 6.48 17.52 2 12 2ZM12 15.5C12 16.1 11.6 16.6 11.1 16.9L11.59 18.03C11.79 18.49 11.45 19 10.95 19C10.68 19 10.43 18.84 10.32 18.59L9.6 17H8.5V18.31C8.5 18.69 8.19 19 7.81 19H7.69C7.31 19 7 18.69 7 18.31V14C7 13.45 7.45 13 8 13H10.5C11.32 13 12 13.68 12 14.5V15.5ZM11.25 12C10.84 12 10.5 11.66 10.5 11.25V9.5H8.5V11.25C8.5 11.66 8.16 12 7.75 12C7.34 12 7 11.66 7 11.25V6.75C7 6.34 7.34 6 7.75 6C8.16 6 8.5 6.34 8.5 6.75V8H10.5V6.75C10.5 6.34 10.84 6 11.25 6C11.66 6 12 6.34 12 6.75V11.25C12 11.66 11.66 12 11.25 12ZM16.75 16H16V16.75C16 17.16 15.66 17.5 15.25 17.5C14.84 17.5 14.5 17.16 14.5 16.75V16H13.75C13.34 16 13 15.66 13 15.25C13 14.84 13.34 14.5 13.75 14.5H14.5V13.75C14.5 13.34 14.84 13 15.25 13C15.66 13 16 13.34 16 13.75V14.49H16.75C17.16 14.49 17.5 14.83 17.5 15.24V15.25C17.5 15.66 17.16 16 16.75 16ZM17.5 10.5C17.5 11.32 16.83 12 16 12H13.5C13.22 12 13 11.78 13 11.5V6.5C13 6.22 13.22 6 13.5 6H16C16.83 6 17.5 6.68 17.5 7.5V10.5Z" fill="black"/>
</g>
<defs>
<clipPath id="clip0_401_34233">
<rect width="24" height="24" fill="white"/>
</clipPath>
</defs>
</svg>
