<svg width="24" height="24" viewBox="0 0 24 24" fill="none" xmlns="http://www.w3.org/2000/svg">
<g clip-path="url(#clip0_401_33588)">
<path d="M11.41 2.8698C11.76 2.6098 12.23 2.6098 12.59 2.8698C13.81 3.7498 16.5 6.4598 16.5 12.9998C16.5 15.1598 15.72 17.7598 15.14 19.3498C15 19.7398 14.63 19.9998 14.21 19.9998H9.8C9.38 19.9998 9 19.7398 8.86 19.3498C8.28 17.7598 7.5 15.1598 7.5 12.9998C7.5 6.4598 10.19 3.7498 11.41 2.8698ZM14 10.9998C14 9.8998 13.1 8.9998 12 8.9998C10.9 8.9998 10 9.8998 10 10.9998C10 12.0998 10.9 12.9998 12 12.9998C13.1 12.9998 14 12.0998 14 10.9998ZM7.69 20.5198C7.21 19.2898 6.17 16.3498 6.02 13.6498L4.89 14.3998C4.33 14.7798 4 15.3998 4 16.0698V20.5198C4 21.2298 4.71 21.7098 5.37 21.4498L7.69 20.5198ZM20 20.5198V16.0698C20 15.3998 19.67 14.7798 19.11 14.4098L17.98 13.6598C17.83 16.3498 16.78 19.2998 16.31 20.5298L18.63 21.4598C19.29 21.7098 20 21.2298 20 20.5198Z" fill="black"/>
</g>
<defs>
<clipPath id="clip0_401_33588">
<rect width="24" height="24" fill="white"/>
</clipPath>
</defs>
</svg>
