<svg width="24" height="24" viewBox="0 0 24 24" fill="none" xmlns="http://www.w3.org/2000/svg">
<g clip-path="url(#clip0_401_34470)">
<path d="M20 5H16.83L15.59 3.65C15.22 3.24 14.68 3 14.12 3H9.88C9.32 3 8.78 3.24 8.41 3.65L7.17 5H4C2.9 5 2 5.9 2 7V19C2 20.1 2.9 21 4 21H20C21.1 21 22 20.1 22 19V7C22 5.9 21.1 5 20 5ZM12 9C13.1 9 14 9.9 14 11C14 12.1 13.1 13 12 13C10.9 13 10 12.1 10 11C10 9.9 10.9 9 12 9ZM16 17H8V16.43C8 15.62 8.48 14.9 9.22 14.58C10.07 14.21 11.01 14 12 14C12.99 14 13.93 14.21 14.78 14.58C15.52 14.9 16 15.62 16 16.43V17Z" fill="black"/>
</g>
<defs>
<clipPath id="clip0_401_34470">
<rect width="24" height="24" fill="white"/>
</clipPath>
</defs>
</svg>
