<svg width="24" height="24" viewBox="0 0 24 24" fill="none" xmlns="http://www.w3.org/2000/svg">
<path d="M12 16C10.9 16 10 16.9 10 18C10 19.1 10.9 20 12 20C13.1 20 14 19.1 14 18C14 16.9 13.1 16 12 16ZM5.38002 14.37C4.75002 13.74 4.79002 12.66 5.51002 12.13C7.33002 10.79 9.57002 10 12 10C14.43 10 16.67 10.79 18.49 12.13C19.21 12.66 19.25 13.73 18.62 14.37C18.09 14.91 17.25 14.94 16.64 14.49C15.33 13.55 13.73 13 12 13C10.27 13 8.67002 13.55 7.36002 14.49C6.75002 14.93 5.91002 14.9 5.38002 14.37Z" fill="black"/>
</svg>
