<svg width="24" height="24" viewBox="0 0 24 24" fill="none" xmlns="http://www.w3.org/2000/svg">
<g clip-path="url(#clip0_401_33271)">
<path d="M20 19V5C20 3.9 19.1 3 18 3H12.75V19H11.25V3H6C4.9 3 4 3.9 4 5V19C3.45 19 3 19.45 3 20C3 20.55 3.45 21 4 21H20C20.55 21 21 20.55 21 20C21 19.45 20.55 19 20 19ZM9 13C8.45 13 8 12.55 8 12C8 11.45 8.45 11 9 11C9.55 11 10 11.45 10 12C10 12.55 9.55 13 9 13ZM15 13C14.45 13 14 12.55 14 12C14 11.45 14.45 11 15 11C15.55 11 16 11.45 16 12C16 12.55 15.55 13 15 13Z" fill="black"/>
</g>
<defs>
<clipPath id="clip0_401_33271">
<rect width="24" height="24" fill="white"/>
</clipPath>
</defs>
</svg>
