<svg width="24" height="24" viewBox="0 0 24 24" fill="none" xmlns="http://www.w3.org/2000/svg">
<g clip-path="url(#clip0_401_33222)">
<path d="M16.5 14H15V15.5H16.5V14Z" fill="black"/>
<path d="M19 3H5C3.9 3 3 3.9 3 5V19C3 20.1 3.9 21 5 21H19C20.1 21 21 20.1 21 19V5C21 3.9 20.1 3 19 3ZM10 6.5C10 5.95 10.45 5.5 11 5.5H13.75C14.16 5.5 14.5 5.84 14.5 6.25C14.5 6.66 14.16 7 13.75 7H11.5V8H13.5C14.05 8 14.5 8.45 14.5 9V10.5C14.5 11.05 14.05 11.5 13.5 11.5H11C10.45 11.5 10 11.05 10 10.5V6.5ZM12.5 17.75C12.5 18.16 12.16 18.5 11.75 18.5C11.34 18.5 11 18.16 11 17.75V14H10V16.25C10 16.66 9.66 17 9.25 17C8.84 17 8.5 16.66 8.5 16.25V14H7.5V17.75C7.5 18.16 7.16 18.5 6.75 18.5C6.34 18.5 6 18.16 6 17.75V13.5C6 12.95 6.45 12.5 7 12.5H11.5C12.05 12.5 12.5 12.95 12.5 13.5V17.75ZM18 16C18 16.55 17.55 17 17 17H15V17.75C15 18.16 14.66 18.5 14.25 18.5C13.84 18.5 13.5 18.16 13.5 17.75V13.5C13.5 12.95 13.95 12.5 14.5 12.5H17C17.55 12.5 18 12.95 18 13.5V16Z" fill="black"/>
<path d="M13 9H11.5V10.5H13V9Z" fill="black"/>
</g>
<defs>
<clipPath id="clip0_401_33222">
<rect width="24" height="24" fill="white"/>
</clipPath>
</defs>
</svg>
