<svg width="24" height="24" viewBox="0 0 24 24" fill="none" xmlns="http://www.w3.org/2000/svg">
<g clip-path="url(#clip0_401_33604)">
<path d="M15 5C14.54 5 14.13 5.27 13.95 5.69L10.07 14.66C9.80003 15.29 10.27 16 10.96 16C11.35 16 11.7 15.76 11.85 15.4L12.51 13.8H17.51L18.17 15.4C18.32 15.76 18.67 16 19.06 16C19.75 16 20.21 15.29 19.94 14.66L16.06 5.69C15.87 5.27 15.46 5 15 5ZM13.13 12L15 6.98L16.87 12H13.13ZM6.35003 19.64L8.14003 17.85C8.46003 17.54 8.24003 17 7.79003 17H7.00003V5C7.00003 4.45 6.55003 4 6.00003 4C5.45003 4 5.00003 4.44 5.00003 5V17H4.21003C3.76003 17 3.54003 17.54 3.86003 17.85L5.65003 19.64C5.84003 19.84 6.16003 19.84 6.35003 19.64Z" fill="black"/>
</g>
<defs>
<clipPath id="clip0_401_33604">
<rect width="24" height="24" fill="white"/>
</clipPath>
</defs>
</svg>
