<svg width="24" height="24" viewBox="0 0 24 24" fill="none" xmlns="http://www.w3.org/2000/svg">
<g clip-path="url(#clip0_401_33160)">
<path d="M6.56002 7.98002C6.10002 7.52002 5.31002 7.60002 5.00002 8.17002C4.72002 8.68002 4.50002 9.20002 4.33002 9.75002C4.14002 10.38 4.64002 11 5.29002 11H5.30002C5.73002 11 6.12002 10.72 6.24002 10.3C6.36002 9.90002 6.52002 9.51002 6.72002 9.13002C6.94002 8.76002 6.87002 8.29002 6.56002 7.98002ZM5.31002 13H5.29002C4.64002 13 4.14002 13.62 4.33002 14.25C4.49002 14.79 4.71002 15.32 4.99002 15.83C5.30002 16.4 6.10002 16.49 6.56002 16.03C6.86002 15.72 6.94002 15.26 6.73002 14.88C6.53002 14.51 6.37002 14.12 6.25002 13.72C6.13002 13.28 5.74002 13 5.31002 13ZM8.16002 19.02C8.67002 19.3 9.20002 19.52 9.75002 19.68C10.37 19.86 10.99 19.36 10.99 18.72V18.69C10.99 18.26 10.71 17.87 10.29 17.75C9.89002 17.63 9.51002 17.47 9.14002 17.27C8.76002 17.06 8.28002 17.13 7.98002 17.44L7.95002 17.47C7.50002 17.92 7.59002 18.71 8.16002 19.02ZM13 4.07002V3.41002C13 2.52002 11.92 2.07002 11.29 2.70002L9.17002 4.83002C8.77002 5.23002 8.77002 5.87002 9.17002 6.26002L11.3 8.34002C11.93 8.96002 13 8.51002 13 7.62002V6.09002C15.84 6.57002 18 9.03002 18 12C18 14.73 16.18 17.02 13.68 17.75C13.27 17.87 13 18.26 13 18.69V18.71C13 19.36 13.61 19.85 14.23 19.67C17.57 18.71 20 15.64 20 12C20 7.92002 16.95 4.56002 13 4.07002Z" fill="black"/>
</g>
<defs>
<clipPath id="clip0_401_33160">
<rect width="24" height="24" fill="white"/>
</clipPath>
</defs>
</svg>
