<svg width="24" height="24" viewBox="0 0 24 24" fill="none" xmlns="http://www.w3.org/2000/svg">
<g clip-path="url(#clip0_401_34398)">
<path d="M21 11H17V7.5C17 6.67 16.33 6 15.5 6C14.67 6 14 6.67 14 7.5V11H10V4.5C10 3.67 9.33003 3 8.50003 3C7.67003 3 7.00003 3.67 7.00003 4.5V11H2.84003C2.29003 11 1.84003 11.45 1.84003 12C1.84003 12.55 2.29003 13 2.84003 13H7.00003V19.5C7.00003 20.33 7.67003 21 8.50003 21C9.33003 21 10 20.33 10 19.5V13H14V16.5C14 17.33 14.67 18 15.5 18C16.33 18 17 17.33 17 16.5V13H21C21.55 13 22 12.55 22 12C22 11.45 21.55 11 21 11Z" fill="black"/>
</g>
<defs>
<clipPath id="clip0_401_34398">
<rect width="24" height="24" fill="white"/>
</clipPath>
</defs>
</svg>
