<svg width="24" height="24" viewBox="0 0 24 24" fill="none" xmlns="http://www.w3.org/2000/svg">
<g clip-path="url(#clip0_401_32703)">
<path d="M8.99998 20C8.99998 20.55 9.44998 21 9.99998 21C10.55 21 11 20.55 11 20V17C11.73 14.42 14.07 13.53 16.17 14L15.29 14.88C14.9 15.27 14.9 15.9 15.29 16.29C15.68 16.68 16.31 16.68 16.7 16.29L19.29 13.7C19.68 13.31 19.68 12.68 19.29 12.29L16.7 9.69998C16.31 9.30998 15.68 9.30998 15.29 9.69998C14.9 10.09 14.9 10.72 15.29 11.11L16.17 12C14.66 11.67 12.44 12.08 11 13.36V6.82998L11.88 7.70998C12.27 8.09998 12.9 8.09998 13.29 7.70998C13.68 7.31998 13.68 6.68998 13.29 6.29998L10.7 3.70998C10.31 3.31998 9.67998 3.31998 9.28998 3.70998L6.70998 6.28998C6.31998 6.67998 6.31998 7.30998 6.70998 7.69998C7.09998 8.08998 7.72998 8.08998 8.11998 7.69998L8.99998 6.82998V20Z" fill="black"/>
</g>
<defs>
<clipPath id="clip0_401_32703">
<rect width="24" height="24" fill="white"/>
</clipPath>
</defs>
</svg>
