<svg width="24" height="24" viewBox="0 0 24 24" fill="none" xmlns="http://www.w3.org/2000/svg">
<g clip-path="url(#clip0_401_33121)">
<path d="M10 3H5C3.9 3 3 3.9 3 5V19C3 20.1 3.9 21 5 21H10V22C10 22.55 10.45 23 11 23C11.55 23 12 22.55 12 22V2C12 1.45 11.55 1 11 1C10.45 1 10 1.45 10 2V3ZM10 18H5L10 12V18ZM19 3H14V5H18C18.55 5 19 5.45 19 6V18L14 12V21H19C20.1 21 21 20.1 21 19V5C21 3.9 20.1 3 19 3Z" fill="black"/>
</g>
<defs>
<clipPath id="clip0_401_33121">
<rect width="24" height="24" fill="white"/>
</clipPath>
</defs>
</svg>
