<svg width="24" height="24" viewBox="0 0 24 24" fill="none" xmlns="http://www.w3.org/2000/svg">
<g clip-path="url(#clip0_401_33821)">
<path d="M12 1C7.19 1 3.7 3.39 2.41 5.92C2.16 6.41 2.53 7 3.09 7C3.37 7 3.63 6.85 3.75 6.6C4.73 4.69 7.58 2.5 12 2.5C15.03 2.5 17.79 3.64 19.91 5.5H17.75C17.34 5.5 17 5.84 17 6.25C17 6.66 17.34 7 17.75 7H21C21.55 7 22 6.55 22 6V2.75C22 2.34 21.66 2 21.25 2C20.84 2 20.5 2.34 20.5 2.75V4.02C18.18 2.13 15.22 1 12 1ZM5.2 17.43C5.2 16.78 5.8 16.3 6.44 16.44L10 17.24V6.5C10 5.67 10.67 5 11.5 5C12.33 5 13 5.67 13 6.5V12.5H13.91C14.22 12.5 14.53 12.57 14.8 12.71L18.89 14.75C19.66 15.13 20.1 15.97 19.98 16.82L19.35 21.28C19.21 22.27 18.36 23 17.37 23H11.21C10.68 23 9.92 22.79 9.55 22.41L5.48 18.12C5.3 17.94 5.2 17.69 5.2 17.43Z" fill="black"/>
</g>
<defs>
<clipPath id="clip0_401_33821">
<rect width="24" height="24" fill="white"/>
</clipPath>
</defs>
</svg>
