<svg width="24" height="24" viewBox="0 0 24 24" fill="none" xmlns="http://www.w3.org/2000/svg">
<g clip-path="url(#clip0_401_34099)">
<path d="M16.5 14H15V15.5H16.5V14Z" fill="black"/>
<path d="M19 3H5C3.9 3 3 3.9 3 5V19C3 20.1 3.9 21 5 21H19C20.1 21 21 20.1 21 19V5C21 3.9 20.1 3 19 3ZM7.5 9C7.5 8.45 7.95 8 8.5 8H10.5V7H8.25C7.84 7 7.5 6.66 7.5 6.25C7.5 5.84 7.84 5.5 8.25 5.5H11C11.55 5.5 12 5.95 12 6.5V8C12 8.55 11.55 9 11 9H9V10H11.25C11.66 10 12 10.34 12 10.75C12 11.16 11.66 11.5 11.25 11.5H8.5C7.95 11.5 7.5 11.05 7.5 10.5V9ZM12.5 17.75C12.5 18.16 12.16 18.5 11.75 18.5C11.34 18.5 11 18.16 11 17.75V14H10V16.25C10 16.66 9.66 17 9.25 17C8.84 17 8.5 16.66 8.5 16.25V14H7.5V17.75C7.5 18.16 7.16 18.5 6.75 18.5C6.34 18.5 6 18.16 6 17.75V13.5C6 12.95 6.45 12.5 7 12.5H11.5C12.05 12.5 12.5 12.95 12.5 13.5V17.75ZM13 6.25C13 5.84 13.34 5.5 13.75 5.5H15C15.55 5.5 16 5.95 16 6.5V10.75C16 11.16 15.66 11.5 15.25 11.5C14.84 11.5 14.5 11.16 14.5 10.75V7H13.75C13.34 7 13 6.66 13 6.25ZM18 16C18 16.55 17.55 17 17 17H15V17.75C15 18.16 14.66 18.5 14.25 18.5C13.84 18.5 13.5 18.16 13.5 17.75V13.5C13.5 12.95 13.95 12.5 14.5 12.5H17C17.55 12.5 18 12.95 18 13.5V16Z" fill="black"/>
</g>
<defs>
<clipPath id="clip0_401_34099">
<rect width="24" height="24" fill="white"/>
</clipPath>
</defs>
</svg>
