<svg width="24" height="24" viewBox="0 0 24 24" fill="none" xmlns="http://www.w3.org/2000/svg">
<g clip-path="url(#clip0_401_32805)">
<path d="M21.59 12.5799C21.84 12.2299 21.84 11.7699 21.59 11.4199L17.63 5.83995C17.27 5.32995 16.67 4.99995 16 4.99995H8.65998L19.36 15.7299L21.59 12.5799ZM2.71998 4.71995L3.58998 5.58995C3.22998 5.94995 2.99998 6.44995 2.99998 6.99995V16.9999C2.99998 18.0999 3.89998 18.9999 4.99998 18.9999H17L18.29 20.2899C18.68 20.6799 19.31 20.6799 19.7 20.2899C20.09 19.8999 20.09 19.2699 19.7 18.8799L4.13998 3.30995C3.75998 2.92995 3.12998 2.91995 2.73998 3.29995C2.32998 3.67995 2.32998 4.32995 2.71998 4.71995Z" fill="black"/>
</g>
<defs>
<clipPath id="clip0_401_32805">
<rect width="24" height="24" fill="white"/>
</clipPath>
</defs>
</svg>
