<svg width="24" height="24" viewBox="0 0 24 24" fill="none" xmlns="http://www.w3.org/2000/svg">
<g clip-path="url(#clip0_401_33903)">
<path d="M20.74 4.96C20.61 4.43 20.07 4.11 19.54 4.23C17.16 4.77 14.49 5 12 5C9.51002 5 6.84002 4.77 4.46002 4.24C3.92002 4.12 3.39002 4.43 3.26002 4.97L3.24002 5.02C3.11002 5.56 3.43002 6.12 3.97002 6.24C5.59002 6.61 7.34002 6.86 9.00002 7V18C9.00002 18.55 9.45002 19 10 19C10.55 19 11 18.55 11 18V13H13V18C13 18.55 13.45 19 14 19C14.55 19 15 18.55 15 18V7C16.66 6.86 18.41 6.61 20.03 6.24C20.57 6.12 20.89 5.56 20.76 5.02L20.74 4.96ZM12 4C13.1 4 14 3.1 14 2C14 0.9 13.1 0 12 0C10.9 0 10 0.9 10 2C10 3.1 10.9 4 12 4ZM8.00002 24C8.55002 24 9.00002 23.55 9.00002 23C9.00002 22.45 8.55002 22 8.00002 22C7.45002 22 7.00002 22.45 7.00002 23C7.00002 23.55 7.45002 24 8.00002 24ZM12 24C12.55 24 13 23.55 13 23C13 22.45 12.55 22 12 22C11.45 22 11 22.45 11 23C11 23.55 11.45 24 12 24ZM16 24C16.55 24 17 23.55 17 23C17 22.45 16.55 22 16 22C15.45 22 15 22.45 15 23C15 23.55 15.45 24 16 24Z" fill="black"/>
</g>
<defs>
<clipPath id="clip0_401_33903">
<rect width="24" height="24" fill="white"/>
</clipPath>
</defs>
</svg>
