<svg width="24" height="24" viewBox="0 0 24 24" fill="none" xmlns="http://www.w3.org/2000/svg">
<g clip-path="url(#clip0_401_32763)">
<path d="M6.83 4.00004H19C20.1 4.00004 21 4.90004 21 6.00004V18C21 18.05 20.99 18.1 20.98 18.16L17.6 14.78C17.84 14.59 18 14.32 18 14V13.5C18 13.22 17.78 13 17.5 13H17C16.72 13 16.5 13.22 16.5 13.5H16.33L14.5 11.67V10.5H16.5C16.5 10.78 16.72 11 17 11H17.5C17.78 11 18 10.78 18 10.5V10C18 9.45004 17.55 9.00004 17 9.00004H14C13.45 9.00004 13 9.45004 13 10V10.17L6.83 4.00004ZM20.49 21.9C20.1 22.29 19.47 22.29 19.08 21.9L17.18 20H5C3.89 20 3 19.1 3 18V6.00004C3 5.95004 3.02 5.90004 3.02 5.85004L2.1 4.93004C1.71 4.54004 1.71 3.91004 2.1 3.52004C2.49 3.13004 3.12 3.13004 3.51 3.52004L20.48 20.49C20.88 20.88 20.88 21.51 20.49 21.9ZM11 13.83L10.17 13H10C9.72 13 9.5 13.22 9.5 13.5H7.5V10.5H7.67L6.4 9.22004C6.16 9.41004 6 9.68004 6 10V14C6 14.55 6.45 15 7 15H10C10.55 15 11 14.55 11 14V13.83Z" fill="black"/>
</g>
<defs>
<clipPath id="clip0_401_32763">
<rect width="24" height="24" fill="white"/>
</clipPath>
</defs>
</svg>
