<svg width="24" height="24" viewBox="0 0 24 24" fill="none" xmlns="http://www.w3.org/2000/svg">
<g clip-path="url(#clip0_401_33694)">
<path d="M10 13C12.2091 13 14 11.2091 14 9C14 6.79086 12.2091 5 10 5C7.79086 5 6 6.79086 6 9C6 11.2091 7.79086 13 10 13Z" fill="black"/>
<path d="M16.39 15.56C14.71 14.7 12.53 14 10 14C7.47 14 5.29 14.7 3.61 15.56C2.61 16.07 2 17.1 2 18.22V19C2 20.1 2.9 21 4 21H16C17.1 21 18 20.1 18 19V18.22C18 17.1 17.39 16.07 16.39 15.56Z" fill="black"/>
<path d="M21.11 1.85003C20.74 1.37003 20.03 1.33003 19.61 1.76003C19.26 2.11003 19.22 2.67003 19.52 3.06003C20.69 4.56003 22.16 8.29003 19.52 11.67C19.22 12.06 19.26 12.62 19.61 12.97C20.04 13.4 20.74 13.35 21.11 12.88C22.61 10.95 24.46 6.16003 21.11 1.85003Z" fill="black"/>
<path d="M18.31 4.84005C17.98 4.27005 17.2 4.17005 16.73 4.63005C16.4 4.96005 16.37 5.47005 16.6 5.88005C16.85 6.32005 17.34 7.57005 16.59 8.87005C16.36 9.27005 16.4 9.77005 16.73 10.09C17.2 10.56 17.98 10.44 18.31 9.87005C19.47 7.88005 18.89 5.85005 18.31 4.84005Z" fill="black"/>
</g>
<defs>
<clipPath id="clip0_401_33694">
<rect width="24" height="24" fill="white"/>
</clipPath>
</defs>
</svg>
