<svg width="24" height="24" viewBox="0 0 24 24" fill="none" xmlns="http://www.w3.org/2000/svg">
<g clip-path="url(#clip0_401_34119)">
<path d="M16 8.99998V14H18V7.99998C18 6.89998 17.1 5.99998 16 5.99998H10V7.99998H15C15.55 7.99998 16 8.44998 16 8.99998ZM19 16H9.00003C8.45003 16 8.00003 15.55 8.00003 15V4.99998C8.00003 4.44998 7.55003 3.99998 7.00003 3.99998C6.45003 3.99998 6.00003 4.44998 6.00003 4.99998V5.99998H5.00003C4.45003 5.99998 4.00003 6.44998 4.00003 6.99998C4.00003 7.54998 4.45003 7.99998 5.00003 7.99998H6.00003V16C6.00003 17.1 6.90003 18 8.00003 18H16V19C16 19.55 16.45 20 17 20C17.55 20 18 19.55 18 19V18H19C19.55 18 20 17.55 20 17C20 16.45 19.55 16 19 16ZM17.66 1.39998C15.99 0.509979 13.83 -0.110021 11.39 0.0399792L15.2 3.84998L16.53 2.51998C19.62 3.97998 21.87 6.88998 22.42 10.38C22.48 10.79 22.86 11.07 23.28 11C23.69 10.94 23.97 10.55 23.9 10.14C23.3 6.33998 20.94 3.13998 17.66 1.39998ZM7.47003 21.49C4.38002 20.03 2.13003 17.12 1.58003 13.63C1.52003 13.22 1.14003 12.94 0.720026 13.01C0.310026 13.07 0.0300255 13.46 0.100026 13.87C0.700026 17.68 3.06003 20.88 6.34003 22.62C8.01003 23.51 10.17 24.13 12.61 23.98L8.80003 20.16L7.47003 21.49Z" fill="black"/>
</g>
<defs>
<clipPath id="clip0_401_34119">
<rect width="24" height="24" fill="white"/>
</clipPath>
</defs>
</svg>
