<svg width="24" height="24" viewBox="0 0 24 24" fill="none" xmlns="http://www.w3.org/2000/svg">
<g clip-path="url(#clip0_401_34431)">
<path d="M18.15 1.35L14.15 5.35C14.05 5.45 14 5.57 14 5.71V13.88C14 14.31 14.51 14.54 14.83 14.25L18.83 10.65C18.94 10.56 19 10.42 19 10.28V1.71C19 1.26 18.46 1.04 18.15 1.35ZM22.47 5.2C22 4.96 21.51 4.76 21 4.59V16.62C19.86 16.21 18.69 16 17.5 16C15.6 16 13.72 16.54 12 17.58V5.48C10.38 4.55 8.51 4 6.5 4C4.71 4 3.02 4.44 1.53 5.2C1.2 5.36 1 5.71 1 6.08V18.16C1 18.92 1.81 19.39 2.48 19.03C3.69 18.4 5.05 18 6.5 18C8.57 18 10.48 18.82 12 20C13.52 18.82 15.43 18 17.5 18C18.95 18 20.31 18.4 21.52 19.04C22.19 19.4 23 18.93 23 18.17V6.08C23 5.71 22.8 5.36 22.47 5.2Z" fill="black"/>
</g>
<defs>
<clipPath id="clip0_401_34431">
<rect width="24" height="24" fill="white"/>
</clipPath>
</defs>
</svg>
