<svg width="24" height="24" viewBox="0 0 24 24" fill="none" xmlns="http://www.w3.org/2000/svg">
<g clip-path="url(#clip0_401_33476)">
<path d="M9.6 5.19989L11.6 2.52989C11.8 2.25989 12.2 2.25989 12.4 2.52989L14.4 5.19989C14.65 5.52989 14.41 5.99989 14 5.99989H13V10.1699L11 8.16989V5.99989H10C9.59 5.99989 9.35 5.52989 9.6 5.19989ZM15.5 11.9999H16V13.1699L17.77 14.9399C17.91 14.6599 18 14.3399 18 13.9999V11.9999H18.5C18.78 11.9999 19 11.7799 19 11.4999V8.49989C19 8.21989 18.78 7.99989 18.5 7.99989H15.5C15.22 7.99989 15 8.21989 15 8.49989V11.4999C15 11.7799 15.22 11.9999 15.5 11.9999ZM20.49 21.8999C20.1 22.2899 19.47 22.2899 19.08 21.8999L13.18 15.9999H13V18.2799C13.6 18.6199 14 19.2599 14 19.9999C14 21.1999 12.93 22.1599 11.69 21.9799C10.81 21.8499 10.1 21.0999 10.01 20.2099C9.93 19.3799 10.34 18.6599 11 18.2799V15.9999H8C6.9 15.9999 6 15.0999 6 13.9999V11.7199C5.4 11.3799 5 10.7399 5 9.99989C5 9.40989 5.25999 8.86989 5.68 8.49989L2.1 4.92989C1.71 4.53989 1.71 3.90989 2.1 3.51989C2.49 3.12989 3.12 3.12989 3.51 3.51989L20.48 20.4899C20.88 20.8799 20.88 21.5099 20.49 21.8999ZM11 13.8299L8.49 11.3199C8.35 11.4799 8.18 11.6099 8 11.7199V13.9999H11V13.8299Z" fill="black"/>
</g>
<defs>
<clipPath id="clip0_401_33476">
<rect width="24" height="24" fill="white"/>
</clipPath>
</defs>
</svg>
