<svg width="24" height="24" viewBox="0 0 24 24" fill="none" xmlns="http://www.w3.org/2000/svg">
<g clip-path="url(#clip0_401_32602)">
<path d="M14.09 7.51L15.29 5.51C15.48 5.19 15.48 4.8 15.29 4.48L14.09 2.48C13.91 2.18 13.58 2 13.23 2H10.78C10.43 2 10.1 2.18 9.92001 2.49L8.72001 4.49C8.53001 4.81 8.53001 5.2 8.72001 5.52L9.92001 7.52C10.09 7.82 10.42 8 10.77 8H13.22C13.58 8 13.91 7.82 14.09 7.51Z" fill="black"/>
<path d="M9.91 9.49L8.71 11.49C8.52 11.81 8.52 12.2 8.71 12.52L9.91 14.52C10.09 14.82 10.42 15.01 10.77 15.01H13.23C13.58 15.01 13.91 14.83 14.09 14.52L15.29 12.52C15.48 12.2 15.48 11.81 15.29 11.49L14.09 9.49C13.91 9.18 13.58 9 13.23 9H10.77C10.42 9 10.09 9.18 9.91 9.49Z" fill="black"/>
<path d="M17.01 11.51H19.46C19.81 11.51 20.14 11.33 20.32 11.02L21.52 9.02C21.71 8.7 21.71 8.31 21.52 7.99L20.32 5.99C20.14 5.69 19.81 5.5 19.46 5.5H17.01C16.66 5.5 16.33 5.68 16.15 5.99L14.95 7.99C14.76 8.31 14.76 8.7 14.95 9.02L16.15 11.02C16.34 11.33 16.66 11.51 17.01 11.51Z" fill="black"/>
<path d="M19.47 12.5098H17.01C16.66 12.5098 16.33 12.6898 16.15 12.9998L14.95 14.9998C14.76 15.3198 14.76 15.7098 14.95 16.0298L16.15 18.0298C16.33 18.3298 16.66 18.5198 17.01 18.5198H19.47C19.82 18.5198 20.15 18.3398 20.33 18.0298L21.53 16.0298C21.72 15.7098 21.72 15.3198 21.53 14.9998L20.33 12.9998C20.15 12.6998 19.82 12.5098 19.47 12.5098Z" fill="black"/>
<path d="M7.84001 11.0298L9.04001 9.02977C9.23001 8.70977 9.23001 8.31977 9.04001 7.99977L7.84001 5.99977C7.66002 5.69977 7.34001 5.50977 6.99001 5.50977H4.53001C4.18001 5.50977 3.85001 5.69977 3.67001 5.99977L2.47001 7.99977C2.28001 8.31977 2.28001 8.70977 2.47001 9.02977L3.67001 11.0298C3.85001 11.3298 4.18001 11.5198 4.53001 11.5198H6.98001C7.34001 11.5098 7.66002 11.3298 7.84001 11.0298Z" fill="black"/>
<path d="M6.99001 12.5098H4.53001C4.18001 12.5098 3.85001 12.6898 3.67001 12.9998L2.47001 14.9998C2.28001 15.3198 2.28001 15.7098 2.47001 16.0298L3.67001 18.0298C3.85001 18.3298 4.18001 18.5198 4.53001 18.5198H6.99001C7.34001 18.5198 7.67001 18.3398 7.85001 18.0298L9.05001 16.0298C9.24002 15.7098 9.24002 15.3198 9.05001 14.9998L7.85001 12.9998C7.66001 12.6998 7.34001 12.5098 6.99001 12.5098Z" fill="black"/>
<path d="M9.91 16.49L8.71 18.49C8.52 18.81 8.52 19.2 8.71 19.52L9.91 21.52C10.09 21.82 10.42 22.01 10.77 22.01H13.23C13.58 22.01 13.91 21.83 14.09 21.52L15.29 19.52C15.48 19.2 15.48 18.81 15.29 18.49L14.09 16.49C13.91 16.19 13.58 16 13.23 16H10.77C10.42 16 10.09 16.18 9.91 16.49Z" fill="black"/>
</g>
<defs>
<clipPath id="clip0_401_32602">
<rect width="24" height="24" fill="white"/>
</clipPath>
</defs>
</svg>
