<svg width="24" height="24" viewBox="0 0 24 24" fill="none" xmlns="http://www.w3.org/2000/svg">
<g clip-path="url(#clip0_401_34469)">
<path d="M20 21C18.81 21 17.62 20.65 16.53 20.02C16.2 19.83 15.8 19.83 15.46 20.02C13.29 21.28 10.7 21.28 8.53 20.02C8.2 19.83 7.8 19.83 7.46 20.02C6.38 20.65 5.19 21 4 21H3C2.45 21 2 21.45 2 22C2 22.55 2.45 23 3 23H4C5.38 23 6.74 22.65 8 22.01C10.52 23.3 13.48 23.3 16 22.01C17.26 22.66 18.62 23 20 23H21C21.55 23 22 22.55 22 22C22 21.45 21.55 21 21 21H20ZM3.95 19H4C5.27 19 6.42 18.45 7.33 17.67C7.72 17.33 8.28 17.33 8.67 17.67C9.58 18.45 10.73 19 12 19C13.27 19 14.42 18.45 15.33 17.67C15.72 17.33 16.28 17.33 16.67 17.67C17.58 18.45 18.73 19 20 19H20.05L21.95 12.32C22.06 11.95 21.99 11.26 21.29 11.04L20 10.62V6C20 4.9 19.1 4 18 4H15V2C15 1.45 14.55 1 14 1H10C9.45 1 9 1.45 9 2V4H6C4.9 4 4 4.9 4 6V10.62L2.71 11.04C2.08 11.23 1.9 11.88 2.05 12.32L3.95 19ZM6 6H18V9.97L12.62 8.2C12.21 8.07 11.78 8.07 11.37 8.2L6 9.97V6Z" fill="black"/>
</g>
<defs>
<clipPath id="clip0_401_34469">
<rect width="24" height="24" fill="white"/>
</clipPath>
</defs>
</svg>
