<svg width="24" height="24" viewBox="0 0 24 24" fill="none" xmlns="http://www.w3.org/2000/svg">
<g clip-path="url(#clip0_401_34449)">
<path d="M22 12C22 6.48 17.52 2 12 2C6.48 2 2 6.48 2 12C2 17.52 6.48 22 12 22C17.52 22 22 17.52 22 12ZM12 14.79V13H9C8.45 13 8 12.55 8 12C8 11.45 8.45 11 9 11H12V9.21C12 8.76 12.54 8.54 12.85 8.86L15.64 11.65C15.84 11.85 15.84 12.16 15.64 12.36L12.85 15.15C12.54 15.46 12 15.24 12 14.79Z" fill="black"/>
</g>
<defs>
<clipPath id="clip0_401_34449">
<rect width="24" height="24" fill="white"/>
</clipPath>
</defs>
</svg>
