<svg width="24" height="24" viewBox="0 0 24 24" fill="none" xmlns="http://www.w3.org/2000/svg">
<path d="M19 3H5C3.89 3 3 3.9 3 5V19C3 20.1 3.89 21 5 21H19C20.1 21 21 20.1 21 19V5C21 3.9 20.1 3 19 3ZM10.25 15C9.84 15 9.5 14.66 9.5 14.25V13H7.5V14.25C7.5 14.66 7.16 15 6.75 15C6.34 15 6 14.66 6 14.25V9.75C6 9.34 6.34 9 6.75 9C7.16 9 7.5 9.34 7.5 9.75V11.5H9.5V9.75C9.5 9.34 9.84 9 10.25 9C10.66 9 11 9.34 11 9.75V14.25C11 14.66 10.66 15 10.25 15ZM13.5 9H17C17.55 9 18 9.45 18 10V14C18 14.55 17.55 15 17 15H13.5C13.22 15 13 14.78 13 14.5V9.5C13 9.22 13.22 9 13.5 9ZM14.5 13.5H16.5V10.5H14.5V13.5Z" fill="black"/>
</svg>
