<svg width="24" height="24" viewBox="0 0 24 24" fill="none" xmlns="http://www.w3.org/2000/svg">
<g clip-path="url(#clip0_401_33341)">
<path d="M3.37001 14.28C4.16001 13.99 4.54001 13.5 5.36001 13.5C6.55001 13.5 6.78001 14.5 8.69001 14.5C10.64 14.5 10.78 13.5 12.02 13.5C13.21 13.5 13.44 14.5 15.35 14.5C17.3 14.5 17.44 13.5 18.68 13.5C19.49 13.5 19.85 13.96 20.61 14.26C21.28 14.52 22 14.01 22 13.3C22 12.87 21.72 12.49 21.31 12.34C20.34 11.99 20.09 11.51 18.66 11.51C16.71 11.51 16.57 12.51 15.33 12.51C14.14 12.51 13.91 11.51 12 11.51C10.05 11.51 9.91001 12.51 8.67001 12.51C7.48001 12.51 7.25001 11.51 5.34001 11.51C3.79001 11.51 3.38001 12.14 2.66001 12.4C2.27001 12.54 2.01001 12.92 2.01001 13.34C2.01001 14.03 2.71001 14.52 3.37001 14.28Z" fill="black"/>
<path d="M2 19C2 20.1 2.9 21 4 21H20C21.1 21 22 20.1 22 19V18C22 16.9 21.1 16 20 16H4C2.9 16 2 16.9 2 18V19Z" fill="black"/>
<path d="M22 9C22.02 5 17.72 3 12 3C6.29 3 2 5 2 9C2 9.55 2.45 10 3 10H21C21.55 10 22 9.55 22 9Z" fill="black"/>
</g>
<defs>
<clipPath id="clip0_401_33341">
<rect width="24" height="24" fill="white"/>
</clipPath>
</defs>
</svg>
