<svg width="24" height="24" viewBox="0 0 24 24" fill="none" xmlns="http://www.w3.org/2000/svg">
<g clip-path="url(#clip0_401_32839)">
<path d="M3 5V19C3 20.1 3.9 21 5 21H19C20.1 21 21 20.1 21 19V5C21 3.9 20.1 3 19 3H5C3.9 3 3 3.9 3 5ZM9 8C9 8.55 8.55 9 8 9C7.45 9 7 8.55 7 8C7 7.45 7.45 7 8 7C8.55 7 9 7.45 9 8ZM13 8C13 8.55 12.55 9 12 9C11.45 9 11 8.55 11 8C11 7.45 11.45 7 12 7C12.55 7 13 7.45 13 8ZM17 8C17 8.55 16.55 9 16 9C15.45 9 15 8.55 15 8C15 7.45 15.45 7 16 7C16.55 7 17 7.45 17 8ZM17 12C17 12.55 16.55 13 16 13C15.45 13 15 12.55 15 12C15 11.45 15.45 11 16 11C16.55 11 17 11.45 17 12ZM13 12C13 12.55 12.55 13 12 13C11.45 13 11 12.55 11 12C11 11.45 11.45 11 12 11C12.55 11 13 11.45 13 12ZM9 12C9 12.55 8.55 13 8 13C7.45 13 7 12.55 7 12C7 11.45 7.45 11 8 11C8.55 11 9 11.45 9 12Z" fill="black"/>
</g>
<defs>
<clipPath id="clip0_401_32839">
<rect width="24" height="24" fill="white"/>
</clipPath>
</defs>
</svg>
