<svg width="24" height="24" viewBox="0 0 24 24" fill="none" xmlns="http://www.w3.org/2000/svg">
<g clip-path="url(#clip0_401_33292)">
<path d="M12 22C13.1 22 14 21.1 14 20H9.99999C9.99999 21.1 10.89 22 12 22ZM19.29 17.29L18 16V11C18 7.93 16.36 5.36 13.5 4.68V4C13.5 3.17 12.83 2.5 12 2.5C11.17 2.5 10.5 3.17 10.5 4V4.68C7.62999 5.36 5.99999 7.92 5.99999 11V16L4.70999 17.29C4.07999 17.92 4.51999 19 5.40999 19H18.58C19.48 19 19.92 17.92 19.29 17.29ZM14.5 9.33C14.5 9.64 14.39 9.93 14.2 10.17L11.7 13.2H13.6C14.1 13.2 14.5 13.6 14.5 14.1C14.5 14.6 14.1 15 13.6 15H10.82C10.09 15 9.49999 14.41 9.49999 13.68V13.67C9.49999 13.36 9.60999 13.07 9.79999 12.83L12.3 9.8H10.4C9.89999 9.8 9.49999 9.4 9.49999 8.9C9.49999 8.4 9.89999 8 10.4 8H13.18C13.91 8 14.5 8.59 14.5 9.33Z" fill="black"/>
</g>
<defs>
<clipPath id="clip0_401_33292">
<rect width="24" height="24" fill="white"/>
</clipPath>
</defs>
</svg>
