<svg width="24" height="24" viewBox="0 0 24 24" fill="none" xmlns="http://www.w3.org/2000/svg">
<g clip-path="url(#clip0_401_33492)">
<path d="M5 5C5 3.9 5.9 3 7 3H14C13.37 3.84 13 4.87 13 6C13 8.76 15.24 11 18 11C18.34 11 18.68 10.97 19 10.9V19.48C19 20.2 18.27 20.68 17.61 20.4L12 18L6.39 20.4C5.73 20.69 5 20.2 5 19.48V5ZM22.07 3.34C22.46 3.73 22.46 4.36 22.07 4.75L18.53 8.29C18.14 8.68 17.51 8.68 17.12 8.29L15.71 6.88C15.32 6.49 15.32 5.86 15.71 5.47C16.1 5.08 16.73 5.08 17.12 5.47L17.83 6.18L20.66 3.35C21.05 2.95 21.68 2.95 22.07 3.34Z" fill="black"/>
</g>
<defs>
<clipPath id="clip0_401_33492">
<rect width="24" height="24" fill="white"/>
</clipPath>
</defs>
</svg>
