<svg width="24" height="24" viewBox="0 0 24 24" fill="none" xmlns="http://www.w3.org/2000/svg">
<g clip-path="url(#clip0_401_34452)">
<path d="M20 19H19V5C19 3.9 18.1 3 17 3H7C5.9 3 5 3.9 5 5V19H4C3.45 19 3 19.45 3 20C3 20.55 3.45 21 4 21H20C20.55 21 21 20.55 21 20C21 19.45 20.55 19 20 19ZM10 13C9.45 13 9 12.55 9 12C9 11.45 9.45 11 10 11C10.55 11 11 11.45 11 12C11 12.55 10.55 13 10 13Z" fill="black"/>
</g>
<defs>
<clipPath id="clip0_401_34452">
<rect width="24" height="24" fill="white"/>
</clipPath>
</defs>
</svg>
