<svg width="24" height="24" viewBox="0 0 24 24" fill="none" xmlns="http://www.w3.org/2000/svg">
<g clip-path="url(#clip0_401_33338)">
<path d="M2.1 3.5101C1.71 3.9001 1.71 4.5301 2.1 4.9201L9.29 12.1101C9.47 12.3101 9.47 12.6101 9.28 12.8101C9.18 12.9101 9.05 12.9601 8.93 12.9601C8.81 12.9601 8.67 12.9101 8.58 12.8101L6.87 11.1001C6.76 11.5001 6.61 11.8801 6.42 12.2201L7.82 13.6201C8.02 13.8201 8.02 14.1301 7.82 14.3301C7.72 14.4301 7.59 14.4801 7.47 14.4801C7.35 14.4801 7.21 14.4301 7.12 14.3301L5.85 13.0601C5.61 13.3501 5.35 13.6201 5.08 13.8601L6.36 15.1401C6.56 15.3401 6.56 15.6501 6.36 15.8501C6.26 15.9501 6.13 16.0001 6 16.0001C5.87 16.0001 5.74 15.9501 5.65 15.8501L4.27 14.4701C3.56 14.9401 2.84 15.2801 2.25 15.5101C1.49 15.8101 1 16.5501 1 17.3701V18.0001C1 19.1001 1.9 20.0001 3 20.0001H9.67C10.2 20.0001 10.71 19.7901 11.08 19.4101L13.82 16.6701L19.05 21.9001C19.44 22.2901 20.07 22.2901 20.46 21.9001C20.85 21.5101 20.85 20.8801 20.46 20.4901L3.51 3.5101C3.12 3.1201 2.49 3.1201 2.1 3.5101ZM18.51 15.6801L17.1 14.2701L21.58 9.7901C22.36 10.5701 22.36 11.8401 21.58 12.6201L18.51 15.6801ZM20.88 9.0801L16.4 13.5601L9.3 6.4701L12.39 3.4001C13.17 2.6201 14.43 2.6301 15.21 3.4001L20.88 9.0801Z" fill="black"/>
</g>
<defs>
<clipPath id="clip0_401_33338">
<rect width="24" height="24" fill="white"/>
</clipPath>
</defs>
</svg>
