<svg width="24" height="24" viewBox="0 0 24 24" fill="none" xmlns="http://www.w3.org/2000/svg">
<g clip-path="url(#clip0_401_32564)">
<path d="M2.81002 2.81008C2.42002 2.42008 1.79002 2.42008 1.40002 2.81008C1.00002 3.20008 1.00002 3.83008 1.39002 4.22008L9.58002 12.4101L6.58002 15.4201C6.21002 15.8001 6.00002 16.3101 6.00002 16.8401V20.0001C6.00002 21.1001 6.90002 22.0001 8.00002 22.0001H16C16.86 22.0001 17.58 21.4601 17.87 20.7001L19.78 22.6101C20.17 23.0001 20.8 23.0001 21.19 22.6101C21.58 22.2201 21.58 21.5901 21.19 21.2001L2.81002 2.81008ZM16 19.0001C16 19.5501 15.55 20.0001 15 20.0001H9.00002C8.45002 20.0001 8.00002 19.5501 8.00002 19.0001V16.5001L10.84 13.6601L16 18.8301V19.0001Z" fill="black"/>
<path d="M8 5C8 4.45 8.45 4 9 4H15C15.55 4 16 4.45 16 5V7.5L13.16 10.34L14.41 11.59L17.41 8.6C17.79 8.22 18 7.71 18 7.18V4C18 2.89 17.1 2 16 2H8C7.14 2 6.42 2.54 6.13 3.3L8 5.17V5Z" fill="black"/>
</g>
<defs>
<clipPath id="clip0_401_32564">
<rect width="24" height="24" fill="white"/>
</clipPath>
</defs>
</svg>
