<svg width="24" height="24" viewBox="0 0 24 24" fill="none" xmlns="http://www.w3.org/2000/svg">
<g clip-path="url(#clip0_401_34252)">
<path d="M8 24C8.55 24 9 23.55 9 23C9 22.45 8.55 22 8 22C7.45 22 7 22.45 7 23C7 23.55 7.45 24 8 24ZM12 24C12.55 24 13 23.55 13 23C13 22.45 12.55 22 12 22C11.45 22 11 22.45 11 23C11 23.55 11.45 24 12 24ZM16 24C16.55 24 17 23.55 17 23C17 22.45 16.55 22 16 22C15.45 22 15 22.45 15 23C15 23.55 15.45 24 16 24ZM16 0.01L8 0C6.9 0 6 0.9 6 2V18C6 19.1 6.9 20 8 20H16C17.1 20 18 19.1 18 18V2C18 0.9 17.1 0.01 16 0.01ZM16 16H8V4H16V16Z" fill="black"/>
</g>
<defs>
<clipPath id="clip0_401_34252">
<rect width="24" height="24" fill="white"/>
</clipPath>
</defs>
</svg>
