<svg width="24" height="24" viewBox="0 0 24 24" fill="none" xmlns="http://www.w3.org/2000/svg">
<g clip-path="url(#clip0_401_34526)">
<path d="M10 3H14C14.55 3 15 2.55 15 2C15 1.45 14.55 1 14 1H10C9.45 1 9 1.45 9 2C9 2.55 9.45 3 10 3Z" fill="black"/>
<path d="M12 8C12.55 8 13 8.45 13 9V10.17L19.98 17.15C20.63 15.91 21 14.5 21 13C21 10.88 20.26 8.93 19.03 7.39L19.78 6.64C20.16 6.26 20.17 5.63 19.78 5.24L19.77 5.23C19.38 4.84 18.76 4.85 18.37 5.23L17.62 5.98C16.07 4.74 14.12 4 12 4C10.52 4 9.11 4.38 7.87 5.04L11.23 8.4C11.41 8.16 11.68 8 12 8Z" fill="black"/>
<path d="M2.1 3.51003C1.71 3.90003 1.71 4.53003 2.1 4.92003L4.82 7.64003C3.73 9.09003 3.05 10.86 3 12.76C2.87 17.84 6.94 22 12 22C14.02 22 15.88 21.33 17.38 20.21L19.07 21.9C19.46 22.29 20.09 22.29 20.48 21.9C20.87 21.51 20.87 20.88 20.48 20.49L3.51 3.51003C3.12 3.12003 2.49 3.12003 2.1 3.51003Z" fill="black"/>
</g>
<defs>
<clipPath id="clip0_401_34526">
<rect width="24" height="24" fill="white"/>
</clipPath>
</defs>
</svg>
