<svg width="24" height="24" viewBox="0 0 24 24" fill="none" xmlns="http://www.w3.org/2000/svg">
<g clip-path="url(#clip0_401_33982)">
<path d="M18.5 3H6C4.9 3 4 3.9 4 5V10.71C4 14.54 6.95 17.89 10.78 18C14.74 18.12 18 14.94 18 11V10H18.5C20.43 10 22 8.43 22 6.5C22 4.57 20.43 3 18.5 3ZM16 5V8H6V5H16ZM18.5 8H18V5H18.5C19.33 5 20 5.67 20 6.5C20 7.33 19.33 8 18.5 8ZM5 19H19C19.55 19 20 19.45 20 20C20 20.55 19.55 21 19 21H5C4.45 21 4 20.55 4 20C4 19.45 4.45 19 5 19Z" fill="black"/>
</g>
<defs>
<clipPath id="clip0_401_33982">
<rect width="24" height="24" fill="white"/>
</clipPath>
</defs>
</svg>
