<svg width="24" height="24" viewBox="0 0 24 24" fill="none" xmlns="http://www.w3.org/2000/svg">
<g clip-path="url(#clip0_401_33379)">
<path d="M22 3C22 3.55 21.55 4 21 4H3C2.45 4 2 3.55 2 3C2 2.45 2.45 2 3 2H21C21.55 2 22 2.45 22 3ZM7 12C7 12.83 7.67 13.5 8.5 13.5H15.5C16.33 13.5 17 12.83 17 12C17 11.17 16.33 10.5 15.5 10.5H8.5C7.67 10.5 7 11.17 7 12ZM2 21C2 21.55 2.45 22 3 22H21C21.55 22 22 21.55 22 21C22 20.45 21.55 20 21 20H3C2.45 20 2 20.45 2 21Z" fill="black"/>
</g>
<defs>
<clipPath id="clip0_401_33379">
<rect width="24" height="24" fill="white"/>
</clipPath>
</defs>
</svg>
