<svg width="24" height="24" viewBox="0 0 24 24" fill="none" xmlns="http://www.w3.org/2000/svg">
<g clip-path="url(#clip0_401_32498)">
<path d="M21.54 4.8C20.17 3.67 18.41 3 16.49 3C14.57 3 12.82 3.67 11.44 4.8C11.1 5.08 11.08 5.59 11.39 5.9L11.4 5.91C11.67 6.18 12.1 6.2 12.4 5.96C13.52 5.05 14.94 4.51 16.49 4.51C18.04 4.51 19.46 5.06 20.58 5.96C20.88 6.2 21.31 6.19 21.58 5.91L21.59 5.9C21.9 5.59 21.88 5.07 21.54 4.8Z" fill="black"/>
<path d="M19.45 8.04C19.78 7.71 19.73 7.16 19.34 6.89C18.54 6.33 17.55 6 16.49 6C15.43 6 14.45 6.33 13.64 6.89C13.26 7.16 13.2 7.71 13.53 8.04C13.78 8.29 14.18 8.35 14.47 8.14C15.04 7.74 15.74 7.5 16.49 7.5C17.24 7.5 17.94 7.74 18.51 8.14C18.8 8.35 19.2 8.29 19.45 8.04Z" fill="black"/>
<path d="M16.49 8.8999C16.17 8.8999 15.87 8.9799 15.6 9.1099C15.3 9.2599 15.26 9.6699 15.49 9.8999L16.14 10.5499C16.34 10.7499 16.65 10.7499 16.85 10.5499L17.5 9.8999C17.73 9.6699 17.69 9.2599 17.39 9.1099C17.12 8.9699 16.81 8.8999 16.49 8.8999Z" fill="black"/>
<path d="M15.63 14.4L13.11 16.9C10.61 15.47 8.54002 13.4 7.11002 10.9L9.61002 8.38C9.84002 8.14 9.94002 7.81 9.88002 7.48L9.13002 3.8C9.04002 3.34 8.63002 3 8.15002 3H4.00002C3.44002 3 2.97002 3.47 3.00002 4.03C3.17002 6.92 4.05002 9.63 5.43002 12C7.01002 14.73 9.28002 16.99 12 18.57C14.37 19.94 17.08 20.83 19.97 21C20.53 21.03 21 20.56 21 20V15.85C21 15.37 20.66 14.96 20.2 14.87L16.53 14.14C16.2 14.07 15.86 14.17 15.63 14.4Z" fill="black"/>
</g>
<defs>
<clipPath id="clip0_401_32498">
<rect width="24" height="24" fill="white"/>
</clipPath>
</defs>
</svg>
