<svg width="24" height="24" viewBox="0 0 24 24" fill="none" xmlns="http://www.w3.org/2000/svg">
<g clip-path="url(#clip0_401_32661)">
<path d="M2 6C1.45 6 1 6.45 1 7V19C1 20.1 1.9 21 3 21H19C19.55 21 20 20.55 20 20C20 19.45 19.55 19 19 19H3V7C3 6.45 2.55 6 2 6Z" fill="black"/>
<path d="M21 4H14L12.59 2.59C12.21 2.21 11.7 2 11.17 2H7C5.9 2 5.01 2.9 5.01 4L5 15C5 16.1 5.9 17 7 17H21C22.1 17 23 16.1 23 15V6C23 4.9 22.1 4 21 4Z" fill="black"/>
</g>
<defs>
<clipPath id="clip0_401_32661">
<rect width="24" height="24" fill="white"/>
</clipPath>
</defs>
</svg>
