<svg width="24" height="24" viewBox="0 0 24 24" fill="none" xmlns="http://www.w3.org/2000/svg">
<g clip-path="url(#clip0_401_32818)">
<path d="M20.18 13.16L16.63 18.16C16.25 18.69 15.65 19 15 19H12V17V16C12 14.34 10.66 13 9 13C9 11.34 7.66 10 6 10H3V7C3 5.9 3.9 5 5 5H15C15.65 5 16.26 5.31 16.63 5.84L20.18 10.84C20.67 11.54 20.67 12.46 20.18 13.16ZM10 16C10 15.45 9.55 15 9 15H7V13C7 12.45 6.55 12 6 12C5.45 12 5 12.45 5 13V15H3C2.45 15 2 15.45 2 16C2 16.55 2.45 17 3 17H5V19C5 19.55 5.45 20 6 20C6.55 20 7 19.55 7 19V17H9C9.55 17 10 16.55 10 16Z" fill="black"/>
</g>
<defs>
<clipPath id="clip0_401_32818">
<rect width="24" height="24" fill="white"/>
</clipPath>
</defs>
</svg>
