<svg width="24" height="24" viewBox="0 0 24 24" fill="none" xmlns="http://www.w3.org/2000/svg">
<g clip-path="url(#clip0_401_32923)">
<path d="M18.5 14.5C18.5 14.78 18.28 15 18 15C16.49 15 15.23 16.12 15.03 17.58C15 17.82 14.78 18 14.54 18C14.24 18 14 17.73 14.04 17.43C14.3 15.66 15.72 14.26 17.5 14.03V3.25C17.5 2.56 16.94 2 16.25 2C15.56 2 15 2.56 15 3.25V10.5C15 10.78 14.78 11 14.5 11C14.22 11 14 10.78 14 10.5V1.25C14 0.56 13.44 0 12.75 0C12.06 0 11.5 0.56 11.5 1.25V10.5C11.5 10.78 11.28 11 11 11C10.72 11 10.5 10.78 10.5 10.5V2.75C10.5 2.06 9.94 1.5 9.25 1.5C8.56 1.5 8 2.06 8 2.75V11.5C8 11.78 7.78 12 7.5 12C7.22 12 7 11.78 7 11.5V5.75C7 5.06 6.44 4.5 5.75 4.5C5.06 4.5 4.5 5.06 4.5 5.75V15.75C4.5 20.31 8.19 24 12.75 24C17.31 24 21 20.31 21 15.75V9.25C21 8.56 20.44 8 19.75 8C19.06 8 18.5 8.56 18.5 9.25V14.5Z" fill="black"/>
</g>
<defs>
<clipPath id="clip0_401_32923">
<rect width="24" height="24" fill="white"/>
</clipPath>
</defs>
</svg>
