<svg width="24" height="24" viewBox="0 0 24 24" fill="none" xmlns="http://www.w3.org/2000/svg">
<g clip-path="url(#clip0_401_33949)">
<path d="M9 4.00002C4.58 4.00002 1 7.58002 1 12C1 16.42 4.58 20 9 20C13.42 20 17 16.42 17 12C17 7.58002 13.42 4.00002 9 4.00002ZM9 15.5C8.45 15.5 8 15.05 8 14.5V10.5H6.75C6.34 10.5 6 10.16 6 9.75002C6 9.34002 6.34 9.00002 6.75 9.00002H11.25C11.66 9.00002 12 9.34002 12 9.75002C12 10.16 11.66 10.5 11.25 10.5H10V14.5C10 15.05 9.55 15.5 9 15.5ZM20.25 3.75002L22 4.54002C22.39 4.72002 22.39 5.27002 22 5.45002L20.25 6.24002L19.46 8.00002C19.28 8.39002 18.73 8.39002 18.55 8.00002L17.76 6.25002L16 5.46002C15.61 5.28002 15.61 4.73002 16 4.55002L17.75 3.76002L18.54 2.00002C18.72 1.61002 19.27 1.61002 19.45 2.00002L20.25 3.75002ZM20.25 17.75L22 18.54C22.39 18.72 22.39 19.27 22 19.45L20.25 20.24L19.46 22C19.28 22.39 18.73 22.39 18.55 22L17.76 20.25L16 19.46C15.61 19.28 15.61 18.73 16 18.55L17.75 17.76L18.54 16C18.72 15.61 19.27 15.61 19.45 16L20.25 17.75Z" fill="black"/>
</g>
<defs>
<clipPath id="clip0_401_33949">
<rect width="24" height="24" fill="white"/>
</clipPath>
</defs>
</svg>
