<svg width="24" height="24" viewBox="0 0 24 24" fill="none" xmlns="http://www.w3.org/2000/svg">
<g clip-path="url(#clip0_401_34524)">
<path d="M19.41 7.41L14.58 2.58C14.21 2.21 13.7 2 13.17 2H6C4.9 2 4.01 2.9 4.01 4L4 20C4 21.1 4.89 22 5.99 22H18C19.1 22 20 21.1 20 20V8.83C20 8.3 19.79 7.79 19.41 7.41ZM10.23 17.29L8.11 15.17C7.72 14.78 7.72 14.15 8.11 13.76C8.5 13.37 9.13 13.37 9.52 13.76L10.93 15.17L14.47 11.63C14.86 11.24 15.49 11.24 15.88 11.63C16.27 12.02 16.27 12.65 15.88 13.04L11.64 17.28C11.26 17.68 10.62 17.68 10.23 17.29ZM14 9C13.45 9 13 8.55 13 8V3.5L18.5 9H14Z" fill="black"/>
</g>
<defs>
<clipPath id="clip0_401_34524">
<rect width="24" height="24" fill="white"/>
</clipPath>
</defs>
</svg>
