<svg width="24" height="24" viewBox="0 0 24 24" fill="none" xmlns="http://www.w3.org/2000/svg">
<g clip-path="url(#clip0_401_33910)">
<path d="M9 15.84L7.53 16.76C6.86 17.18 6 16.7 6 15.91C6 15.57 6.18 15.25 6.47 15.06L9 13.48V11.12L7.53 12.04C6.86 12.46 6 11.98 6 11.19C6 10.85 6.18 10.53 6.47 10.34L9 8.76V4C9 3.45 9.45 3 10 3C10.55 3 11 3.45 11 4V7.51L13.47 5.96C14.14 5.54 15 6.02 15 6.81C15 7.15 14.82 7.47 14.53 7.66L11 9.87L11.01 12.22L13.47 10.68C14.14 10.26 15 10.74 15 11.53C15 11.87 14.82 12.19 14.53 12.38L11 14.59V19C13.47 19 15.52 17.21 15.93 14.85C16.01 14.36 16.42 14 16.91 14C17.52 14 18 14.54 17.91 15.14C17.37 18.46 14.48 21 11 21H10C9.45 21 9 20.55 9 20V15.84Z" fill="black"/>
</g>
<defs>
<clipPath id="clip0_401_33910">
<rect width="24" height="24" fill="white"/>
</clipPath>
</defs>
</svg>
