<svg width="24" height="24" viewBox="0 0 24 24" fill="none" xmlns="http://www.w3.org/2000/svg">
<g clip-path="url(#clip0_401_32961)">
<path d="M22 12C22 6.48 17.52 2 12 2C6.48 2 2 6.48 2 12C2 13.33 2.26 14.61 2.74 15.77L7.35 11.15C7.72 10.78 8.3 10.76 8.7 11.09L11.3 13.28L14.58 10H14C13.45 10 13 9.55 13 9C13 8.45 13.45 8 14 8H17C17.55 8 18 8.45 18 9V12C18 12.55 17.55 13 17 13C16.45 13 16 12.55 16 12V11.42L12.06 15.35C11.69 15.72 11.1 15.74 10.71 15.4L8.12 13.21L3.72 17.61C5.52 20.26 8.56 22 12 22H20C21.1 22 22 21.1 22 20V12ZM19.5 20.5C18.95 20.5 18.5 20.05 18.5 19.5C18.5 18.95 18.95 18.5 19.5 18.5C20.05 18.5 20.5 18.95 20.5 19.5C20.5 20.05 20.05 20.5 19.5 20.5Z" fill="black"/>
</g>
<defs>
<clipPath id="clip0_401_32961">
<rect width="24" height="24" fill="white"/>
</clipPath>
</defs>
</svg>
