<svg width="24" height="24" viewBox="0 0 24 24" fill="none" xmlns="http://www.w3.org/2000/svg">
<g clip-path="url(#clip0_401_32660)">
<path d="M22 4C22 2.9 21.1 2 20 2H4C2.9 2 2 2.9 2 4V16C2 17.1 2.9 18 4 18H18L22 22V4ZM16 11H13V14C13 14.55 12.55 15 12 15C11.45 15 11 14.55 11 14V11H8C7.45 11 7 10.55 7 10C7 9.45 7.45 9 8 9H11V6C11 5.45 11.45 5 12 5C12.55 5 13 5.45 13 6V9H16C16.55 9 17 9.45 17 10C17 10.55 16.55 11 16 11Z" fill="black"/>
</g>
<defs>
<clipPath id="clip0_401_32660">
<rect width="24" height="24" fill="white"/>
</clipPath>
</defs>
</svg>
