<svg width="24" height="24" viewBox="0 0 24 24" fill="none" xmlns="http://www.w3.org/2000/svg">
<g clip-path="url(#clip0_401_33280)">
<path d="M6.59998 11H17.4L16.5 8H7.49998L6.59998 11Z" fill="black"/>
<path d="M20 12V13H4V12C4 11.45 3.55 11 3 11C2.45 11 2 11.45 2 12V20C2 21.1 2.9 22 4 22H10V19C10 17.9 10.9 17 12 17C13.1 17 14 17.9 14 19V22H20C21.1 22 22 21.1 22 20V12C22 11.45 21.55 11 21 11C20.45 11 20 11.45 20 12Z" fill="black"/>
<path d="M15.9 6L15 3V2C15 1.45 14.55 1 14 1C13.45 1 13 1.45 13 2V3H10.97V2C10.97 1.45 10.52 1 9.96998 1C9.41998 1 8.96998 1.45 8.96998 2V3.12L8.09998 6H15.9Z" fill="black"/>
</g>
<defs>
<clipPath id="clip0_401_33280">
<rect width="24" height="24" fill="white"/>
</clipPath>
</defs>
</svg>
