<svg width="24" height="24" viewBox="0 0 24 24" fill="none" xmlns="http://www.w3.org/2000/svg">
<g clip-path="url(#clip0_401_34059)">
<path d="M12.68 6.8001C12.29 6.4501 11.7 6.4501 11.31 6.8001C9.35 8.5601 9 10.8401 9 12.0001C9 13.1501 9.35 15.4401 11.32 17.2001C11.71 17.5501 12.3 17.5501 12.69 17.2001C14.65 15.4401 15 13.1601 15 12.0001C15 10.8501 14.65 8.5601 12.68 6.8001Z" fill="black"/>
<path d="M7.5 12C7.5 11.03 7.73 7.84 10.53 5.5C9.75 5.19 8.9 5 8 5C4.14 5 1 8.14 1 12C1 15.86 4.14 19 8 19C8.9 19 9.75 18.81 10.53 18.5C7.73 16.16 7.5 12.97 7.5 12Z" fill="black"/>
<path d="M16 5C15.1 5 14.25 5.19 13.47 5.5C16.27 7.84 16.5 11.03 16.5 12C16.5 12.97 16.27 16.16 13.47 18.5C14.25 18.81 15.1 19 16 19C19.86 19 23 15.86 23 12C23 8.14 19.86 5 16 5Z" fill="black"/>
</g>
<defs>
<clipPath id="clip0_401_34059">
<rect width="24" height="24" fill="white"/>
</clipPath>
</defs>
</svg>
