<svg width="24" height="24" viewBox="0 0 24 24" fill="none" xmlns="http://www.w3.org/2000/svg">
<g clip-path="url(#clip0_401_33519)">
<path d="M12.03 6.30005H11.97L10.95 9.19005H13.05L12.03 6.30005Z" fill="black"/>
<path d="M4 22C4.55 22 5 21.55 5 21V18C5 17.45 4.55 17 4 17C3.45 17 3 17.45 3 18V21C3 21.55 3.45 22 4 22Z" fill="black"/>
<path d="M12 15C15.31 15 18 12.31 18 9C18 5.69 15.31 3 12 3C8.69 3 6 5.69 6 9C6 12.31 8.69 15 12 15ZM12 5C12.38 5 12.71 5.23 12.85 5.59L14.97 11.24C15.11 11.61 14.84 12 14.44 12C14.2 12 13.99 11.85 13.91 11.62L13.42 10.21H10.59L10.09 11.62C10.01 11.85 9.8 12 9.56 12C9.17 12 8.89 11.61 9.03 11.24L11.15 5.59C11.29 5.23 11.62 5 12 5Z" fill="black"/>
<path d="M8 22C8.55 22 9 21.55 9 21V18C9 17.45 8.55 17 8 17C7.45 17 7 17.45 7 18V21C7 21.55 7.45 22 8 22Z" fill="black"/>
<path d="M12 22C12.55 22 13 21.55 13 21V18C13 17.45 12.55 17 12 17C11.45 17 11 17.45 11 18V21C11 21.55 11.45 22 12 22Z" fill="black"/>
<path d="M15 18V21C15 21.55 15.45 22 16 22H20C20.55 22 21 21.55 21 21V18C21 17.45 20.55 17 20 17H16C15.45 17 15 17.45 15 18Z" fill="black"/>
</g>
<defs>
<clipPath id="clip0_401_33519">
<rect width="24" height="24" fill="white"/>
</clipPath>
</defs>
</svg>
