<svg width="24" height="24" viewBox="0 0 24 24" fill="none" xmlns="http://www.w3.org/2000/svg">
<g clip-path="url(#clip0_401_33372)">
<path d="M3 9H7V5H5C3.9 5 3 5.9 3 7V9ZM3 14H7V10H3V14ZM8 14H12V10H8V14ZM13 14H17V10H13V14ZM8 9H12V5H8V9ZM13 5V9H17V5H13ZM18 14H22V10H18V14ZM5 19H7V15H3V17C3 18.1 3.9 19 5 19ZM8 19H12V15H8V19ZM13 19H17V15H13V19ZM18 19H20C21.1 19 22 18.1 22 17V15H18V19ZM18 5V9H22V7C22 5.9 21.1 5 20 5H18Z" fill="black"/>
</g>
<defs>
<clipPath id="clip0_401_33372">
<rect width="24" height="24" fill="white"/>
</clipPath>
</defs>
</svg>
