<svg width="24" height="24" viewBox="0 0 24 24" fill="none" xmlns="http://www.w3.org/2000/svg">
<g clip-path="url(#clip0_401_33748)">
<path d="M17 1.01L7 1C5.9 1 5 1.9 5 3V21C5 22.1 5.9 23 7 23H17C18.1 23 19 22.1 19 21V3C19 1.9 18.1 1.01 17 1.01ZM17 18H7V6H17V18ZM14.79 12.21H13V9C13 8.45 12.55 8 12 8C11.45 8 11 8.45 11 9V12.21H9.21C8.76 12.21 8.54 12.75 8.86 13.06L11.65 15.85C11.85 16.05 12.16 16.05 12.36 15.85L15.15 13.06C15.46 12.75 15.24 12.21 14.79 12.21Z" fill="black"/>
</g>
<defs>
<clipPath id="clip0_401_33748">
<rect width="24" height="24" fill="white"/>
</clipPath>
</defs>
</svg>
