<svg width="24" height="24" viewBox="0 0 24 24" fill="none" xmlns="http://www.w3.org/2000/svg">
<g clip-path="url(#clip0_401_33845)">
<path d="M6 3C6 1.9 6.9 1 8 1C9.1 1 10 1.9 10 3C10 4.1 9.1 5 8 5C6.9 5 6 4.1 6 3ZM16.03 3.97C16.32 4.26 16.8 4.26 17.09 3.97L20.06 1H17.94L16.03 2.91C15.74 3.2 15.74 3.68 16.03 3.97ZM19.15 12C17.86 12 16.04 12.53 14.09 13.38L13 12.16C12.62 11.74 12.08 11.5 11.51 11.5H9.6V8H11C12.52 8 13.94 7.51 15.09 6.68C15.58 6.33 15.61 5.61 15.18 5.18C14.83 4.83 14.28 4.8 13.88 5.09C13.06 5.66 12.07 6 11 6H8C6.9 6 6 6.9 6 8V12.04C6 12.68 6.15 13.31 6.45 13.87L8 16.84C7.47 17.22 6.97 17.62 6.51 18.01C7.19 18.59 8.06 19 9 19C10.2 19 11.27 18.34 12 17.5C12.73 18.34 13.8 19 15 19C15.33 19 15.65 18.95 15.96 18.86C18.81 16.9 21 14.72 21 13.28C21 12.25 19.99 12 19.15 12ZM9.83 15.61L9 13.6L11.5 13.5L12.2 14.27C11.64 14.55 10.42 15.23 9.83 15.61ZM22 22C22 21.45 21.55 21 21 21C20.13 21 19.27 20.76 18.47 20.3C18.18 20.14 17.82 20.13 17.53 20.3C15.94 21.2 14.06 21.2 12.47 20.3C12.18 20.14 11.82 20.14 11.53 20.3C9.94 21.2 8.06 21.2 6.47 20.3C6.18 20.14 5.82 20.14 5.53 20.3C4.73 20.76 3.87 21 3 21C2.45 21 2 21.45 2 22C2 22.55 2.45 23 3 23C4.15 23 5.3 22.69 6.33 22.06C7.99 23.17 10.11 23.07 11.91 22.2C13.82 23.25 16.08 23.27 18 22.25C18.95 22.75 19.97 23 21 23C21.55 23 22 22.55 22 22Z" fill="black"/>
</g>
<defs>
<clipPath id="clip0_401_33845">
<rect width="24" height="24" fill="white"/>
</clipPath>
</defs>
</svg>
