<svg width="24" height="24" viewBox="0 0 24 24" fill="none" xmlns="http://www.w3.org/2000/svg">
<g clip-path="url(#clip0_401_33411)">
<path d="M19 6H17C17 3.24 14.76 1 12 1C9.24 1 7 3.24 7 6H5C3.9 6 3 6.9 3 8V20C3 21.1 3.9 22 5 22H19C20.1 22 21 21.1 21 20V8C21 6.9 20.1 6 19 6ZM12 3C13.66 3 15 4.34 15 6H9C9 4.34 10.34 3 12 3ZM12 13C9.67 13 7.71 11.41 7.16 9.25C6.99 8.62 7.48 8 8.13 8C8.6 8 8.98 8.34 9.11 8.8C9.46 10.07 10.62 11 12 11C13.38 11 14.54 10.07 14.89 8.8C15.02 8.34 15.4 8 15.87 8C16.52 8 17 8.62 16.84 9.25C16.29 11.41 14.33 13 12 13Z" fill="black"/>
</g>
<defs>
<clipPath id="clip0_401_33411">
<rect width="24" height="24" fill="white"/>
</clipPath>
</defs>
</svg>
