<svg width="24" height="24" viewBox="0 0 24 24" fill="none" xmlns="http://www.w3.org/2000/svg">
<g clip-path="url(#clip0_401_34044)">
<path d="M13.54 13H10C9.45 13 9 12.55 9 12V8.46C9 8.2 9.11 7.94 9.29 7.76L14.61 2.44C13.78 2.16 12.9 2 12 2C7.8 2 4 5.22 4 10.2C4 13.38 6.44 17.12 11.33 21.42C11.71 21.75 12.29 21.75 12.67 21.42C17.56 17.12 20 13.37 20 10.2C20 9.19 19.84 8.26 19.55 7.4L14.24 12.71C14.06 12.89 13.8 13 13.54 13Z" fill="black"/>
<path d="M11 11H13.12L19.28 4.83997L17.16 2.71997L11 8.87997V11Z" fill="black"/>
<path d="M20.71 2L20 1.29C19.61 0.899998 18.98 0.899998 18.59 1.29L17.87 2.01L19.99 4.13L20.71 3.41C21.1 3.02 21.1 2.39 20.71 2Z" fill="black"/>
</g>
<defs>
<clipPath id="clip0_401_34044">
<rect width="24" height="24" fill="white"/>
</clipPath>
</defs>
</svg>
