<svg width="24" height="24" viewBox="0 0 24 24" fill="none" xmlns="http://www.w3.org/2000/svg">
<g clip-path="url(#clip0_401_32931)">
<path d="M18.32 18.32C17.96 17.96 17.4 17.92 17.01 18.24C16.69 18.49 16.36 18.72 16.01 18.93V16H18.01C19.11 16 20.01 15.1 20.01 14V11C20.01 9.9 19.11 9 18.01 9H12.01V6C12.01 4.9 11.11 4 10.01 4H8C5.79 4 4 5.79 4 8V14C4 15.1 4.9 16 6 16H8V18.93C7.65 18.73 7.31 18.5 7 18.24C6.61 17.92 6.04 17.97 5.69 18.32C5.27 18.74 5.3 19.44 5.77 19.82C7.47 21.18 9.64 22 12 22C14.36 22 16.53 21.18 18.24 19.82C18.71 19.44 18.74 18.74 18.32 18.32ZM14 19.75C13.36 19.91 12.69 20 12 20C11.31 20 10.64 19.91 10 19.75V16H14V19.75Z" fill="black"/>
</g>
<defs>
<clipPath id="clip0_401_32931">
<rect width="24" height="24" fill="white"/>
</clipPath>
</defs>
</svg>
