<svg width="24" height="24" viewBox="0 0 24 24" fill="none" xmlns="http://www.w3.org/2000/svg">
<g clip-path="url(#clip0_401_33163)">
<path d="M19 3H5C3.9 3 3 3.9 3 5V19C3 20.1 3.9 21 5 21H19C20.1 21 21 20.1 21 19V5C21 3.9 20.1 3 19 3ZM9.25 10.5H7.5V11.5H9C9.55 11.5 10 11.95 10 12.5V14C10 14.55 9.55 15 9 15H6.75C6.34 15 6 14.66 6 14.25C6 13.84 6.34 13.5 6.75 13.5H8.5V12.5H7C6.45 12.5 6 12.05 6 11.5V10C6 9.45 6.45 9 7 9H9.25C9.66 9 10 9.34 10 9.75C10 10.16 9.66 10.5 9.25 10.5ZM14.59 15C14.37 15 14.17 14.9 14.04 14.73L12.5 12.75V14.25C12.5 14.66 12.16 15 11.75 15C11.34 15 11 14.66 11 14.25V9.75C11 9.34 11.34 9 11.75 9C12.16 9 12.5 9.34 12.5 9.75V11.25L14.04 9.27C14.17 9.1 14.38 9 14.59 9C15.17 9 15.5 9.66 15.15 10.12L13.75 12L15.16 13.88C15.5 14.34 15.17 15 14.59 15ZM18.5 12.5H17.5V13.5C17.5 13.78 17.28 14 17 14C16.72 14 16.5 13.78 16.5 13.5V12.5H15.5C15.22 12.5 15 12.28 15 12C15 11.72 15.22 11.5 15.5 11.5H16.5V10.5C16.5 10.22 16.72 10 17 10C17.28 10 17.5 10.22 17.5 10.5V11.5H18.5C18.78 11.5 19 11.72 19 12C19 12.28 18.78 12.5 18.5 12.5Z" fill="black"/>
</g>
<defs>
<clipPath id="clip0_401_33163">
<rect width="24" height="24" fill="white"/>
</clipPath>
</defs>
</svg>
