<svg width="24" height="24" viewBox="0 0 24 24" fill="none" xmlns="http://www.w3.org/2000/svg">
<g clip-path="url(#clip0_401_32567)">
<path d="M11 10.9998H9C8.45 10.9998 8 11.4498 8 11.9998C8 12.5498 8.45 12.9998 9 12.9998H11V14.9998C11 15.5498 11.45 15.9998 12 15.9998C12.55 15.9998 13 15.5498 13 14.9998V12.9998H15C15.55 12.9998 16 12.5498 16 11.9998C16 11.4498 15.55 10.9998 15 10.9998H13V8.9998C13 8.4498 12.55 7.9998 12 7.9998C11.45 7.9998 11 8.4498 11 8.9998V10.9998ZM12 18.9998C8.13 18.9998 5 15.8698 5 11.9998C5 8.4698 7.61 5.5698 11 5.0798V2.0498C5.94 2.5498 2 6.8098 2 11.9998C2 17.5198 6.47 21.9998 11.99 21.9998C15.3 21.9998 18.23 20.3898 20.05 17.9098L17.45 16.3798C16.17 17.9798 14.21 18.9998 12 18.9998ZM13 2.0498V5.0798C16.39 5.5698 19 8.4698 19 11.9998C19 12.8998 18.82 13.7498 18.52 14.5398L21.12 16.0698C21.68 14.8298 22 13.4498 22 11.9998C22 6.8198 18.05 2.5498 13 2.0498Z" fill="black"/>
</g>
<defs>
<clipPath id="clip0_401_32567">
<rect width="24" height="24" fill="white"/>
</clipPath>
</defs>
</svg>
