<svg width="24" height="24" viewBox="0 0 24 24" fill="none" xmlns="http://www.w3.org/2000/svg">
<g clip-path="url(#clip0_401_32798)">
<path d="M18.38 6.24C17.79 3.24 15.14 1 12 1C8.86 1 6.21 3.24 5.62 6.24C4.08 6.81 3 8.29 3 10C3 12.21 4.79 14 7 14C7.12 14 7.23 13.98 7.34 13.98L11.17 21.29C11.55 22.01 12.58 22 12.95 21.28L16.68 13.97C16.79 13.98 16.89 14 17 14C19.21 14 21 12.21 21 10C21 8.29 19.92 6.81 18.38 6.24ZM12.05 18.63L9.32 13.42C10.15 13.79 11.06 14 12 14C12.95 14 13.88 13.79 14.72 13.4L12.05 18.63Z" fill="black"/>
</g>
<defs>
<clipPath id="clip0_401_32798">
<rect width="24" height="24" fill="white"/>
</clipPath>
</defs>
</svg>
