<svg width="24" height="24" viewBox="0 0 24 24" fill="none" xmlns="http://www.w3.org/2000/svg">
<g clip-path="url(#clip0_401_33673)">
<path d="M19 3H5C3.9 3 3 3.9 3 5V19C3 20.1 3.9 21 5 21H19C20.1 21 21 20.1 21 19V5C21 3.9 20.1 3 19 3ZM7 9H11.5C12.05 9 12.5 9.45 12.5 10V14.25C12.5 14.66 12.16 15 11.75 15C11.34 15 11 14.66 11 14.25V10.5H10V12.75C10 13.16 9.66 13.5 9.25 13.5C8.84 13.5 8.5 13.16 8.5 12.75V10.5H7.5V14.25C7.5 14.66 7.16 15 6.75 15C6.34 15 6 14.66 6 14.25V10C6 9.45 6.45 9 7 9ZM14.25 15C13.84 15 13.5 14.67 13.5 14.25V10C13.5 9.45 13.95 9 14.5 9H17C17.55 9 18 9.45 18 10V12.5C18 13.05 17.55 13.5 17 13.5H15V14.25C15 14.66 14.66 15 14.25 15ZM15 12H16.5V10.5H15V12Z" fill="black"/>
</g>
<defs>
<clipPath id="clip0_401_33673">
<rect width="24" height="24" fill="white"/>
</clipPath>
</defs>
</svg>
