<svg width="24" height="24" viewBox="0 0 24 24" fill="none" xmlns="http://www.w3.org/2000/svg">
<g clip-path="url(#clip0_401_34400)">
<path d="M21.15 2.85L20.13 3.87C18.69 2.17 15.6 1 12 1C8.4 1 5.31 2.17 3.87 3.87L2.85 2.85C2.54 2.54 2 2.76 2 3.21V6.5C2 6.78 2.22 7 2.5 7H5.79C6.24 7 6.46 6.46 6.14 6.15L4.93 4.93C5.93 3.64 8.63 2.5 12 2.5C15.37 2.5 18.07 3.64 19.07 4.93L17.85 6.15C17.54 6.46 17.76 7 18.21 7H21.5C21.78 7 22 6.78 22 6.5V3.21C22 2.76 21.46 2.54 21.15 2.85Z" fill="black"/>
<path d="M14.5 12.71C14.22 12.57 13.92 12.5 13.61 12.5H13V6.5C13 5.67 12.33 5 11.5 5C10.67 5 10 5.67 10 6.5V17.24L6.56 16.52C6.19 16.44 5.8 16.56 5.53 16.83C5.1 17.27 5.1 17.97 5.54 18.41L9.55 22.42C9.92 22.79 10.43 23 10.96 23H17.37C18.37 23 19.21 22.27 19.35 21.28L19.98 16.82C20.1 15.97 19.66 15.13 18.89 14.75L14.5 12.71Z" fill="black"/>
</g>
<defs>
<clipPath id="clip0_401_34400">
<rect width="24" height="24" fill="white"/>
</clipPath>
</defs>
</svg>
