<svg width="24" height="24" viewBox="0 0 24 24" fill="none" xmlns="http://www.w3.org/2000/svg">
<g clip-path="url(#clip0_401_33958)">
<path d="M12 2C7.8 2 4 5.22 4 10.2C4 13.38 6.45 17.12 11.34 21.42C11.7 21.74 12.31 21.74 12.67 21.42C17.55 17.12 20 13.38 20 10.2C20 5.22 16.2 2 12 2ZM7.69 12.49C8.88 11.56 10.37 11 12 11C13.63 11 15.12 11.56 16.31 12.49C15.45 13.98 13.85 15 12 15C10.15 15 8.55 13.98 7.69 12.49ZM12 6C13.1 6 14 6.9 14 8C14 9.1 13.1 10 12 10C10.9 10 10 9.1 10 8C10 6.9 10.9 6 12 6Z" fill="black"/>
</g>
<defs>
<clipPath id="clip0_401_33958">
<rect width="24" height="24" fill="white"/>
</clipPath>
</defs>
</svg>
