<svg width="24" height="24" viewBox="0 0 24 24" fill="none" xmlns="http://www.w3.org/2000/svg">
<g clip-path="url(#clip0_401_33955)">
<path d="M15.54 10.5C15.64 10.79 15.92 11 16.25 11C16.66 11 17 10.66 17 10.25V10C17 9.45 16.55 9 16 9H13C12.45 9 12 9.45 12 10V11.5C12 12.05 12.45 12.5 13 12.5H15.5V13.5H13.46C13.36 13.21 13.08 13 12.75 13C12.34 13 12 13.34 12 13.75V14C12 14.55 12.45 15 13 15H16C16.55 15 17 14.55 17 14V12.5C17 11.95 16.55 11.5 16 11.5H13.5V10.5H15.54ZM7.5 13.5H9V9.75C9 9.34 9.34 9 9.75 9C10.16 9 10.5 9.34 10.5 9.75V13.5C10.5 14.33 9.83 15 9 15H7.5C6.67 15 6 14.33 6 13.5V13.25C6 12.84 6.34 12.5 6.75 12.5C7.16 12.5 7.5 12.84 7.5 13.25V13.5Z" fill="black"/>
</g>
<defs>
<clipPath id="clip0_401_33955">
<rect width="24" height="24" fill="white"/>
</clipPath>
</defs>
</svg>
