<svg width="24" height="24" viewBox="0 0 24 24" fill="none" xmlns="http://www.w3.org/2000/svg">
<g clip-path="url(#clip0_401_33018)">
<path d="M18.53 9.28988C19.16 9.91988 18.71 10.9999 17.82 10.9999C17.55 10.9999 17.3 10.8899 17.11 10.7099L10.4 3.99988L5.41 8.99988H7C7.55 8.99988 8 9.44988 8 9.99988C8 10.5499 7.55 10.9999 7 10.9999H3C2.45 10.9999 2 10.5499 2 9.99988V5.99988C2 5.44988 2.45 4.99988 3 4.99988C3.55 4.99988 4 5.44988 4 5.99988V7.58988L9 2.58988C9.78 1.80988 11.05 1.80988 11.83 2.58988L18.53 9.28988Z" fill="black"/>
<path d="M5.46998 14.71C4.83998 14.08 5.28998 13 6.17998 13C6.44998 13 6.69998 13.11 6.88998 13.29L13.6 20L18.59 15H17C16.45 15 16 14.55 16 14C16 13.45 16.45 13 17 13H21C21.55 13 22 13.45 22 14V18C22 18.55 21.55 19 21 19C20.45 19 20 18.55 20 18V16.41L15 21.41C14.22 22.19 12.95 22.19 12.17 21.41L5.46998 14.71Z" fill="black"/>
</g>
<defs>
<clipPath id="clip0_401_33018">
<rect width="24" height="24" fill="white"/>
</clipPath>
</defs>
</svg>
