<svg width="24" height="24" viewBox="0 0 24 24" fill="none" xmlns="http://www.w3.org/2000/svg">
<g clip-path="url(#clip0_401_33622)">
<path d="M20.08 11.42L16.04 5.77C15.7 5.29 15.15 5 14.56 5C13.07 5 12.21 6.68 13.07 7.89L16 12L13.07 16.11C12.2 17.32 13.07 19 14.56 19C15.15 19 15.71 18.71 16.05 18.23L20.09 12.58C20.33 12.23 20.33 11.77 20.08 11.42Z" fill="black"/>
<path d="M13.08 11.42L9.04998 5.77C8.69998 5.29 8.14998 5 7.55998 5C6.06998 5 5.19998 6.68 6.06998 7.89L8.99998 12L6.06998 16.11C5.19998 17.32 6.06998 19 7.55998 19C8.14998 19 8.70998 18.71 9.04998 18.23L13.09 12.58C13.33 12.23 13.33 11.77 13.08 11.42Z" fill="black"/>
</g>
<defs>
<clipPath id="clip0_401_33622">
<rect width="24" height="24" fill="white"/>
</clipPath>
</defs>
</svg>
