<svg width="24" height="24" viewBox="0 0 24 24" fill="none" xmlns="http://www.w3.org/2000/svg">
<g clip-path="url(#clip0_401_33526)">
<path d="M10.94 8.11996L7.47997 4.65996L8.39997 3.64996C8.77997 3.23996 9.31997 2.99996 9.87997 2.99996H14.12C14.68 2.99996 15.22 3.23996 15.59 3.64996L16.83 4.99996H20C21.1 4.99996 22 5.89996 22 6.99996V19C22 19.05 21.99 19.1 21.98 19.16L16.88 14.06C16.96 13.71 17 13.36 17 13C17 10.24 14.76 7.99996 12 7.99996C11.64 7.99996 11.29 8.03996 10.94 8.11996ZM19.78 22.61L18.17 21H3.99997C2.89997 21 1.99997 20.1 1.99997 19V6.99996C1.99997 6.40996 2.26997 5.87996 2.67997 5.50996L1.38997 4.21996C0.999973 3.82996 0.999973 3.19996 1.38997 2.80996C1.77997 2.41996 2.40997 2.41996 2.79997 2.80996L21.18 21.19C21.57 21.58 21.57 22.21 21.18 22.6C20.8 23 20.17 23 19.78 22.61ZM14.49 17.32L12.99 15.82C12.67 15.92 12.35 16 12 16C10.34 16 8.99997 14.66 8.99997 13C8.99997 12.65 9.07997 12.33 9.18997 12.02L7.68997 10.52C7.24997 11.24 6.99997 12.09 6.99997 13C6.99997 15.76 9.23997 18 12 18C12.91 18 13.76 17.75 14.49 17.32Z" fill="black"/>
</g>
<defs>
<clipPath id="clip0_401_33526">
<rect width="24" height="24" fill="white"/>
</clipPath>
</defs>
</svg>
