<svg width="24" height="24" viewBox="0 0 24 24" fill="none" xmlns="http://www.w3.org/2000/svg">
<g clip-path="url(#clip0_401_32607)">
<path d="M8.94 16.5602C9.23 16.8502 9.62 17.0002 10 17.0002C10.38 17.0002 10.77 16.8502 11.06 16.5602L16.56 11.0602C17.15 10.4802 17.15 9.53021 16.56 8.94021L8.32 0.700215C7.93 0.310215 7.3 0.310215 6.91 0.700215C6.52 1.09021 6.52 1.72021 6.91 2.11021L8.59 3.79021L3.44 8.94021C2.85 9.53021 2.85 10.4802 3.44 11.0602L8.94 16.5602ZM10 5.21022L14.79 10.0002H5.21L10 5.21022Z" fill="black"/>
<path d="M19 17C20.1 17 21 16.1 21 15C21 13.67 19 11.5 19 11.5C19 11.5 17 13.67 17 15C17 16.1 17.9 17 19 17Z" fill="black"/>
<path d="M20 20H4C2.9 20 2 20.9 2 22C2 23.1 2.9 24 4 24H20C21.1 24 22 23.1 22 22C22 20.9 21.1 20 20 20Z" fill="black"/>
</g>
<defs>
<clipPath id="clip0_401_32607">
<rect width="24" height="24" fill="white"/>
</clipPath>
</defs>
</svg>
