<svg width="24" height="24" viewBox="0 0 24 24" fill="none" xmlns="http://www.w3.org/2000/svg">
<g clip-path="url(#clip0_401_33469)">
<path d="M2.87 5H13.13C13.93 5 14.41 5.89 13.96 6.55L9 14V18H10C10.55 18 11 18.45 11 19C11 19.55 10.55 20 10 20H6C5.45 20 5 19.55 5 19C5 18.45 5.45 18 6 18H7V14L2.04 6.55C1.59 5.89 2.07 5 2.87 5ZM10.1 9L11.5 7H4.49L5.89 9H10.1ZM19 5H20.5C21.33 5 22 5.67 22 6.5C22 7.33 21.33 8 20.5 8H19V17C19 18.84 17.36 20.28 15.46 19.95C14.25 19.74 13.26 18.75 13.05 17.54C12.72 15.64 14.16 14 16 14C16.35 14 16.69 14.06 17 14.17V7C17 5.9 17.9 5 19 5Z" fill="black"/>
</g>
<defs>
<clipPath id="clip0_401_33469">
<rect width="24" height="24" fill="white"/>
</clipPath>
</defs>
</svg>
