<svg width="24" height="24" viewBox="0 0 24 24" fill="none" xmlns="http://www.w3.org/2000/svg">
<g clip-path="url(#clip0_401_33643)">
<path d="M17 7C14.59 7 12.57 8.72 12.1 11H6.79C6.4 10.12 5.52 9.5 4.5 9.5C3.12 9.5 2 10.62 2 12C2 13.38 3.12 14.5 4.5 14.5C5.52 14.5 6.4 13.88 6.79 13H12.1C12.56 15.28 14.58 17 17 17C19.76 17 22 14.76 22 12C22 9.24 19.76 7 17 7ZM17 15C15.35 15 14 13.65 14 12C14 10.35 15.35 9 17 9C18.65 9 20 10.35 20 12C20 13.65 18.65 15 17 15Z" fill="black"/>
</g>
<defs>
<clipPath id="clip0_401_33643">
<rect width="24" height="24" fill="white"/>
</clipPath>
</defs>
</svg>
