<svg width="24" height="24" viewBox="0 0 24 24" fill="none" xmlns="http://www.w3.org/2000/svg">
<g clip-path="url(#clip0_401_33129)">
<path d="M15.5 13.9999H14.71L14.43 13.7299C15.63 12.3299 16.25 10.4199 15.91 8.3899C15.44 5.6099 13.12 3.3999 10.33 3.0499C6.54003 2.5799 3.30003 5.3799 3.03003 8.9999H5.05003C5.29003 6.8799 6.97003 5.1999 9.11003 5.0199C11.65 4.7999 14 6.9499 14 9.4999C14 11.9899 11.99 13.9999 9.50003 13.9999C9.33003 13.9999 9.17003 13.9699 9.00003 13.9499V15.9699C9.00003 15.9699 9.00003 15.9699 9.01003 15.9799C10.81 16.1099 12.48 15.5099 13.73 14.4299L14 14.7099V15.4999L18.25 19.7499C18.66 20.1599 19.33 20.1599 19.74 19.7499C20.15 19.3399 20.15 18.6699 19.74 18.2599L15.5 13.9999Z" fill="black"/>
<path d="M6.12002 11.17L4.00002 13.29L1.88002 11.17C1.68002 10.97 1.37002 10.97 1.17002 11.17C0.97002 11.37 0.97002 11.68 1.17002 11.88L3.29002 14L1.17002 16.12C0.97002 16.32 0.97002 16.63 1.17002 16.83C1.37002 17.03 1.68002 17.03 1.88002 16.83L4.00002 14.71L6.12002 16.83C6.32002 17.03 6.63002 17.03 6.83002 16.83C7.03002 16.63 7.03002 16.32 6.83002 16.12L4.71002 14L6.83002 11.88C7.03002 11.68 7.03002 11.37 6.83002 11.17C6.63002 10.98 6.32002 10.98 6.12002 11.17Z" fill="black"/>
</g>
<defs>
<clipPath id="clip0_401_33129">
<rect width="24" height="24" fill="white"/>
</clipPath>
</defs>
</svg>
