<svg width="24" height="24" viewBox="0 0 24 24" fill="none" xmlns="http://www.w3.org/2000/svg">
<g clip-path="url(#clip0_401_34405)">
<path d="M4 5H20C20.55 5 21 4.55 21 4C21 3.45 20.55 3 20 3H4C3.45 3 3 3.45 3 4C3 4.55 3.45 5 4 5Z" fill="black"/>
<path d="M20 19H4C3.45 19 3 19.45 3 20C3 20.55 3.45 21 4 21H20C20.55 21 21 20.55 21 20C21 19.45 20.55 19 20 19Z" fill="black"/>
<path d="M20 11H4C3.45 11 3 11.45 3 12C3 12.55 3.45 13 4 13H20C20.55 13 21 12.55 21 12C21 11.45 20.55 11 20 11Z" fill="black"/>
</g>
<defs>
<clipPath id="clip0_401_34405">
<rect width="24" height="24" fill="white"/>
</clipPath>
</defs>
</svg>
