<svg width="24" height="24" viewBox="0 0 24 24" fill="none" xmlns="http://www.w3.org/2000/svg">
<g clip-path="url(#clip0_401_33925)">
<path d="M15.5 15.38V8.62002L18.88 12L15.5 15.38ZM20.29 12.71C20.68 12.32 20.68 11.69 20.29 11.3L15.7 6.71002C15.08 6.08002 14 6.52002 14 7.41002V16.58C14 17.47 15.08 17.92 15.71 17.29L20.29 12.71ZM9.99997 16.59V7.41002C9.99997 6.52002 8.91997 6.07002 8.28997 6.70002L3.69997 11.29C3.30997 11.68 3.30997 12.31 3.69997 12.7L8.28997 17.29C8.91997 17.92 9.99997 17.48 9.99997 16.59Z" fill="black"/>
</g>
<defs>
<clipPath id="clip0_401_33925">
<rect width="24" height="24" fill="white"/>
</clipPath>
</defs>
</svg>
