<svg width="24" height="24" viewBox="0 0 24 24" fill="none" xmlns="http://www.w3.org/2000/svg">
<g clip-path="url(#clip0_401_34310)">
<path d="M22 12C22 6.52 17.6 2.07 12.14 2C8.52002 1.95 5.29002 4.03 3.43002 7.14C0.100017 12.69 2.98002 18.27 8.00002 20.25V20.5C8.00002 21.33 8.67002 22 9.50002 22H14.5C15.33 22 16 21.33 16 20.5V20.25C19.53 18.86 22 15.69 22 12ZM20 12H16V5.08C18.39 6.47 20 9.05 20 12ZM14 4.26V12H10V4.26C10.64 4.1 11.31 4 12 4C12.69 4 13.36 4.1 14 4.26ZM4.00002 12C4.00002 9.05 5.61002 6.47 8.00002 5.08V12H4.00002Z" fill="black"/>
</g>
<defs>
<clipPath id="clip0_401_34310">
<rect width="24" height="24" fill="white"/>
</clipPath>
</defs>
</svg>
