<svg width="24" height="24" viewBox="0 0 24 24" fill="none" xmlns="http://www.w3.org/2000/svg">
<g clip-path="url(#clip0_401_33661)">
<path d="M15 9H9C8.45 9 8 9.45 8 10V22C8 22.55 8.45 23 9 23H15C15.55 23 16 22.55 16 22V10C16 9.45 15.55 9 15 9ZM12 14.25C11.31 14.25 10.75 13.69 10.75 13C10.75 12.31 11.31 11.75 12 11.75C12.69 11.75 13.25 12.31 13.25 13C13.25 13.69 12.69 14.25 12 14.25Z" fill="black"/>
<path d="M7.82002 6.82C8.17002 7.17 8.72002 7.2 9.12002 6.92C9.93002 6.34 10.93 6 12 6C13.07 6 14.07 6.34 14.88 6.91C15.28 7.19 15.83 7.17 16.18 6.82C16.61 6.39 16.57 5.67 16.09 5.32C14.94 4.49 13.53 4 12 4C10.47 4 9.06002 4.49 7.91002 5.32C7.42002 5.67 7.39002 6.39 7.82002 6.82Z" fill="black"/>
<path d="M12 0C9.36 0 6.94 0.93 5.05 2.47C4.59 2.85 4.55 3.54 4.97 3.96C5.33 4.32 5.9 4.35 6.29 4.03C7.84 2.77 9.83 2 12 2C14.17 2 16.16 2.77 17.7 4.04C18.09 4.36 18.66 4.33 19.02 3.97C19.44 3.55 19.4 2.86 18.94 2.48C17.06 0.93 14.64 0 12 0Z" fill="black"/>
</g>
<defs>
<clipPath id="clip0_401_33661">
<rect width="24" height="24" fill="white"/>
</clipPath>
</defs>
</svg>
