<svg width="24" height="24" viewBox="0 0 24 24" fill="none" xmlns="http://www.w3.org/2000/svg">
<g clip-path="url(#clip0_401_33809)">
<path d="M5 5C4.45 5 4 5.45 4 6V21C4 22.1 4.9 23 6 23H15C15.55 23 16 22.55 16 22C16 21.45 15.55 21 15 21H6V6C6 5.45 5.55 5 5 5Z" fill="black"/>
<path d="M18 1H10C8.9 1 8 1.9 8 3V17C8 18.1 8.9 19 10 19H18C19.1 19 20 18.1 20 17V3C20 1.9 19.1 1 18 1ZM18 15H10V5H18V15Z" fill="black"/>
<path d="M12.5 10.25H14.5V10.79C14.5 11.24 15.04 11.46 15.35 11.14L16.64 9.85003C16.84 9.65003 16.84 9.34003 16.64 9.14003L15.35 7.85003C15.04 7.54003 14.5 7.76003 14.5 8.20003V8.74003H12C11.45 8.74003 11 9.19003 11 9.74003V11.24C11 11.65 11.34 11.99 11.75 11.99C12.16 11.99 12.5 11.65 12.5 11.24V10.25Z" fill="black"/>
</g>
<defs>
<clipPath id="clip0_401_33809">
<rect width="24" height="24" fill="white"/>
</clipPath>
</defs>
</svg>
