<svg width="24" height="24" viewBox="0 0 24 24" fill="none" xmlns="http://www.w3.org/2000/svg">
<g clip-path="url(#clip0_401_33055)">
<path d="M10.51 12.73L7.29999 7.72C6.81999 6.97 7.34999 6 8.22999 6C8.61999 6 8.96999 6.2 9.17999 6.53L11.94 10.99H12.06L14.8 6.54C15 6.2 15.36 6 15.75 6C16.63 6 17.17 6.98 16.69 7.72L13.46 12.72L17.01 18.27C17.5 19.02 16.96 20 16.08 20C15.7 20 15.34 19.8 15.13 19.48L12.06 14.59H11.94L8.86999 19.48C8.65999 19.8 8.30999 20 7.91999 20C7.03999 20 6.49999 19.03 6.97999 18.28L10.51 12.73ZM23 8.5C23 8.22 22.78 8 22.5 8H20V7H22C22.55 7 23 6.55 23 6V5C23 4.45 22.55 4 22 4H19.5C19.22 4 19 4.22 19 4.5C19 4.78 19.22 5 19.5 5H22V6H20C19.45 6 19 6.45 19 7V8C19 8.55 19.45 9 20 9H22.5C22.78 9 23 8.78 23 8.5Z" fill="black"/>
</g>
<defs>
<clipPath id="clip0_401_33055">
<rect width="24" height="24" fill="white"/>
</clipPath>
</defs>
</svg>
