<svg width="24" height="24" viewBox="0 0 24 24" fill="none" xmlns="http://www.w3.org/2000/svg">
<g clip-path="url(#clip0_401_33025)">
<path d="M20 5H16.83L15.59 3.65C15.22 3.24 14.68 3 14.12 3H9.88C9.32 3 8.78 3.24 8.4 3.65L7.17 5H4C2.9 5 2 5.9 2 7V19C2 20.1 2.9 21 4 21H20C21.1 21 22 20.1 22 19V7C22 5.9 21.1 5 20 5ZM16.66 16.58C15.52 18.44 13.66 15.55 12.85 16.67C12.46 17.24 12.76 18.16 12.98 19C12.98 19.47 12.6 19.85 12.13 19.85C11.66 19.85 11.27 19.47 11.27 19C11.41 18.02 11.69 16.95 11.11 16.57C10.22 15.98 9.84 18.63 8.31 17.92C6.92 16.8 9.36 16.63 8.81 14.65C8.59 13.86 6.53 15.01 6.41 13.41C6.33 12.41 7.9 12.67 7.92 11.92C7.95 11.17 6.89 10.87 7.67 10.01C7.89 9.77 8.38 9.75 8.58 9.82C9.37 10.09 10.13 11.64 11.09 11.01C12.12 10.35 9.21 8.66 11.09 8.15C12.73 7.71 12.4 10.23 13.74 10.59C15.68 11.11 16.39 6.04 18.15 8.26C20 10.59 14.72 10.53 15.3 12.27C15.64 13.28 17.45 11.07 18.06 12.8C18.7 14.63 14.97 13.62 15.02 14.46C15.08 15.29 17.43 15.01 16.66 16.58ZM18.14 18.01C17.67 18.01 17.28 17.63 17.28 17.15C17.28 16.67 17.66 16.29 18.14 16.29C18.61 16.29 19 16.67 19 17.15C19 17.63 18.62 18.01 18.14 18.01Z" fill="black"/>
</g>
<defs>
<clipPath id="clip0_401_33025">
<rect width="24" height="24" fill="white"/>
</clipPath>
</defs>
</svg>
