<svg width="24" height="24" viewBox="0 0 24 24" fill="none" xmlns="http://www.w3.org/2000/svg">
<g clip-path="url(#clip0_401_33938)">
<path d="M19.79 5.61C20.3 4.95 19.83 4 19 4H6.83002L14.8 11.97L19.79 5.61Z" fill="black"/>
<path d="M20.49 20.49L3.51 3.51003C3.12 3.12003 2.49 3.12003 2.1 3.51003C1.71 3.90003 1.71 4.53003 2.1 4.92003L10 13V18C10 19.1 10.9 20 12 20C13.1 20 14 19.1 14 18V16.83L19.07 21.9C19.46 22.29 20.09 22.29 20.48 21.9C20.87 21.51 20.88 20.88 20.49 20.49Z" fill="black"/>
</g>
<defs>
<clipPath id="clip0_401_33938">
<rect width="24" height="24" fill="white"/>
</clipPath>
</defs>
</svg>
