<svg width="24" height="24" viewBox="0 0 24 24" fill="none" xmlns="http://www.w3.org/2000/svg">
<g clip-path="url(#clip0_401_32920)">
<path d="M8.57999 10H2.55999C2.06999 10 1.86999 10.62 2.26999 10.91L7.17999 14.42L5.28999 20.52C5.14999 20.98 5.67999 21.36 6.06999 21.07L11 17.31L15.93 21.06C16.32 21.35 16.85 20.98 16.71 20.51L14.82 14.41L19.73 10.9C20.13 10.62 19.93 9.99003 19.44 9.99003H13.42L11.47 3.57003C11.33 3.10003 10.66 3.10003 10.51 3.57003L8.57999 10ZM20.9 20.51L19.5 15.99L22.41 13.91C22.81 13.63 22.61 13 22.12 13H20.24L17.16 15.2L18.62 19.92L20.12 21.06C20.51 21.35 21.04 20.97 20.9 20.51ZM17 8.00003L15.66 3.58003C15.52 3.11003 14.85 3.11003 14.7 3.58003L14.13 5.45003L14.91 8.00003H17Z" fill="black"/>
</g>
<defs>
<clipPath id="clip0_401_32920">
<rect width="24" height="24" fill="white"/>
</clipPath>
</defs>
</svg>
