<svg width="24" height="24" viewBox="0 0 24 24" fill="none" xmlns="http://www.w3.org/2000/svg">
<g clip-path="url(#clip0_401_33851)">
<path d="M15 18C15 18.55 14.55 19 14 19H10C9.45 19 9 18.55 9 18C9 17.45 9.45 17 10 17H11C10.53 12.79 7.11 9.45 2.88 9.04C2.37 8.99 2 8.56 2 8.05C2 7.46 2.52 6.99 3.11 7.05C7.03 7.44 10.37 9.87 12 13.3C13.13 10.87 14.99 9.05 16.78 7.78L14.86 5.86C14.54 5.54 14.76 5 15.21 5H20.5C20.78 5 21 5.22 21 5.5V10.79C21 11.24 20.46 11.46 20.15 11.14L18.21 9.2C15.93 10.78 13.45 13.3 13 17H14C14.55 17 15 17.45 15 18Z" fill="black"/>
</g>
<defs>
<clipPath id="clip0_401_33851">
<rect width="24" height="24" fill="white"/>
</clipPath>
</defs>
</svg>
