<svg width="24" height="24" viewBox="0 0 24 24" fill="none" xmlns="http://www.w3.org/2000/svg">
<g clip-path="url(#clip0_401_34487)">
<path d="M20.99 17.99L16.05 13.05L13.93 15.17L18.87 20.11C19.46 20.7 20.41 20.7 20.99 20.11C21.57 19.52 21.57 18.57 20.99 17.99Z" fill="black"/>
<path d="M17.65 10C19.58 10 21.15 8.43005 21.15 6.50005C21.15 5.92005 20.99 5.38005 20.74 4.90005L18.04 7.60005L16.55 6.11005L19.25 3.41005C18.77 3.16005 18.23 3.00005 17.65 3.00005C15.72 3.00005 14.15 4.57005 14.15 6.50005C14.15 6.91005 14.23 7.30005 14.36 7.66005L12.51 9.51005L10.73 7.73005C11.12 7.34005 11.12 6.71005 10.73 6.32005L10.02 5.61005L12.14 3.49005C10.97 2.32005 9.06998 2.32005 7.89998 3.49005L5.07998 6.32005C4.68998 6.71005 4.68998 7.34005 5.07998 7.73005L5.78998 8.44005H3.24998C3.05998 8.44005 2.87998 8.51005 2.74998 8.65005C2.46998 8.93005 2.46998 9.37005 2.74998 9.65005L5.28998 12.19C5.56998 12.47 6.00998 12.47 6.28998 12.19C6.41998 12.06 6.49998 11.88 6.49998 11.69V9.15005L7.19998 9.85005C7.58998 10.24 8.21998 10.24 8.60998 9.85005L10.39 11.63L4.03998 17.98C3.44998 18.57 3.44998 19.5201 4.03998 20.1C4.62998 20.6901 5.57998 20.6901 6.15998 20.1L16.48 9.79005C16.85 9.92005 17.24 10 17.65 10Z" fill="black"/>
</g>
<defs>
<clipPath id="clip0_401_34487">
<rect width="24" height="24" fill="white"/>
</clipPath>
</defs>
</svg>
