<svg width="24" height="24" viewBox="0 0 24 24" fill="none" xmlns="http://www.w3.org/2000/svg">
<g clip-path="url(#clip0_401_33773)">
<path d="M17 9.99995C18.08 9.99995 19.09 10.2499 20 10.6799V6.37995C20 5.54995 19.48 4.79995 18.7 4.50995L12.7 2.25995C12.25 2.08995 11.75 2.08995 11.3 2.25995L5.3 4.50995C4.52 4.80995 4 5.54995 4 6.38995V11.0899C4 16.1399 7.41 20.8499 12 21.9999C12.03 21.9899 12.05 21.9799 12.08 21.9799C10.8 20.7099 10 18.9499 10 16.9999C10 13.1299 13.13 9.99995 17 9.99995Z" fill="black"/>
<path d="M17 12C14.24 12 12 14.24 12 17C12 19.76 14.24 22 17 22C19.76 22 22 19.76 22 17C22 14.24 19.76 12 17 12ZM19.5 17.5H17.5V19.5C17.5 19.78 17.28 20 17 20C16.72 20 16.5 19.78 16.5 19.5V17.5H14.5C14.22 17.5 14 17.28 14 17C14 16.72 14.22 16.5 14.5 16.5H16.5V14.5C16.5 14.22 16.72 14 17 14C17.28 14 17.5 14.22 17.5 14.5V16.5H19.5C19.78 16.5 20 16.72 20 17C20 17.28 19.78 17.5 19.5 17.5Z" fill="black"/>
</g>
<defs>
<clipPath id="clip0_401_33773">
<rect width="24" height="24" fill="white"/>
</clipPath>
</defs>
</svg>
