<svg width="24" height="24" viewBox="0 0 24 24" fill="none" xmlns="http://www.w3.org/2000/svg">
<g clip-path="url(#clip0_401_34490)">
<path d="M13 8V16H10V8H13ZM13 5H10C8.34 5 7 6.34 7 8V16C7 17.66 8.34 19 10 19H13C14.66 19 16 17.66 16 16V8C16 6.34 14.66 5 13 5ZM2.5 8H3V17.5C3 18.33 3.67 19 4.5 19C5.33 19 6 18.33 6 17.5V7C6 5.9 5.1 5 4 5H2.5C1.67 5 1 5.67 1 6.5C1 7.33 1.67 8 2.5 8ZM18.5 11C17.67 11 17 11.68 17 12.5V14.5C17 15.32 17.67 16 18.5 16H21V17H18C17.45 17 17 17.45 17 18C17 18.55 17.45 19 18 19H21.5C22.33 19 23 18.33 23 17.5V15.5C23 14.67 22.33 14 21.5 14H19V13H22C22.55 13 23 12.55 23 12C23 11.45 22.55 11 22 11H18.5Z" fill="black"/>
</g>
<defs>
<clipPath id="clip0_401_34490">
<rect width="24" height="24" fill="white"/>
</clipPath>
</defs>
</svg>
