<svg width="24" height="24" viewBox="0 0 24 24" fill="none" xmlns="http://www.w3.org/2000/svg">
<g clip-path="url(#clip0_401_32788)">
<path d="M8.82998 19.1C8.56998 18.5 8.91999 17.82 9.55999 17.69L13.14 16.98L8.78998 7.16998C8.44998 6.40998 8.78998 5.52998 9.54998 5.18998C10.31 4.84998 11.19 5.18998 11.53 5.94998L13.96 11.44L14.8 11.07C15.08 10.94 15.39 10.89 15.7 10.9L20.26 11.11C21.12 11.15 21.86 11.74 22.09 12.56L23.32 16.89C23.59 17.85 23.12 18.86 22.21 19.26L16.58 21.75C16.1 21.96 15.32 22.08 14.82 21.89L9.36998 19.62C9.12998 19.53 8.92998 19.34 8.82998 19.1ZM6.74998 13.38C7.00998 13.12 7.03998 12.72 6.83998 12.43C5.67999 10.74 4.99998 8.69998 4.99998 6.49998C4.99998 5.61998 5.10998 4.75998 5.31998 3.93998L6.40998 5.02998C6.70998 5.32998 7.19998 5.31998 7.48998 5.00998C7.76998 4.70998 7.73998 4.22998 7.44998 3.93998L5.20998 1.70998C4.81998 1.31998 4.18998 1.31998 3.79998 1.70998L1.52998 3.96998C1.22998 4.26998 1.23998 4.75998 1.54998 5.04998C1.84998 5.32998 2.32998 5.29998 2.61998 5.00998L3.79998 3.81998C3.59998 4.67998 3.49998 5.57998 3.49998 6.49998C3.49998 9.00998 4.26998 11.35 5.58998 13.27C5.85998 13.66 6.40998 13.72 6.74998 13.38Z" fill="black"/>
</g>
<defs>
<clipPath id="clip0_401_32788">
<rect width="24" height="24" fill="white"/>
</clipPath>
</defs>
</svg>
