<svg width="24" height="24" viewBox="0 0 24 24" fill="none" xmlns="http://www.w3.org/2000/svg">
<g clip-path="url(#clip0_401_34457)">
<path d="M6 19C6 20.1 6.9 21 8 21H16C17.1 21 18 20.1 18 19V7H6V19ZM9.17 12.59C8.78 12.2 8.78 11.57 9.17 11.18C9.56 10.79 10.19 10.79 10.58 11.18L12 12.59L13.41 11.18C13.8 10.79 14.43 10.79 14.82 11.18C15.21 11.57 15.21 12.2 14.82 12.59L13.41 14L14.82 15.41C15.21 15.8 15.21 16.43 14.82 16.82C14.43 17.21 13.8 17.21 13.41 16.82L12 15.41L10.59 16.82C10.2 17.21 9.57 17.21 9.18 16.82C8.79 16.43 8.79 15.8 9.18 15.41L10.59 14L9.17 12.59ZM18 4H15.5L14.79 3.29C14.61 3.11 14.35 3 14.09 3H9.91C9.65 3 9.39 3.11 9.21 3.29L8.5 4H6C5.45 4 5 4.45 5 5C5 5.55 5.45 6 6 6H18C18.55 6 19 5.55 19 5C19 4.45 18.55 4 18 4Z" fill="black"/>
</g>
<defs>
<clipPath id="clip0_401_34457">
<rect width="24" height="24" fill="white"/>
</clipPath>
</defs>
</svg>
