<svg width="24" height="24" viewBox="0 0 24 24" fill="none" xmlns="http://www.w3.org/2000/svg">
<g clip-path="url(#clip0_401_34321)">
<path d="M3.5 4.02V2.75C3.5 2.34 3.16 2 2.75 2C2.34 2 2 2.34 2 2.75V6C2 6.55 2.45 7 3 7H6.25C6.66 7 7 6.66 7 6.25C7 5.84 6.66 5.5 6.25 5.5H4.09C6.2 3.64 8.97 2.5 12 2.5C16.42 2.5 19.27 4.69 20.25 6.6C20.37 6.85 20.63 7 20.91 7C21.47 7 21.84 6.41 21.58 5.92C20.3 3.39 16.81 1 12 1C8.78 1 5.82 2.13 3.5 4.02ZM5.2 17.43C5.2 16.78 5.8 16.3 6.44 16.44L10 17.24V6.5C10 5.67 10.67 5 11.5 5C12.33 5 13 5.67 13 6.5V12.5H13.91C14.22 12.5 14.53 12.57 14.8 12.71L18.89 14.75C19.66 15.13 20.1 15.97 19.98 16.82L19.35 21.28C19.21 22.27 18.36 23 17.37 23H11.21C10.68 23 9.92 22.79 9.55 22.41L5.48 18.12C5.3 17.94 5.2 17.69 5.2 17.43Z" fill="black"/>
</g>
<defs>
<clipPath id="clip0_401_34321">
<rect width="24" height="24" fill="white"/>
</clipPath>
</defs>
</svg>
