<svg width="24" height="24" viewBox="0 0 24 24" fill="none" xmlns="http://www.w3.org/2000/svg">
<g clip-path="url(#clip0_401_33663)">
<path d="M20.49 21.9C20.1 22.29 19.47 22.29 19.08 21.9L18.16 20.98C18.1 20.98 18.05 21 18 21H14.2C14.2 18.29 12.04 18 11.5 18C10.96 18 8.8 18.29 8.8 21H5C3.9 21 3 20.1 3 19V15.2C5.71 15.2 6 13.04 6 12.5C6 11.96 5.7 9.8 3.01 9.8V6C3.01 5.95 3.03 5.91 3.03 5.86L2.1 4.93C1.71 4.54 1.71 3.91 2.1 3.52C2.49 3.13 3.12 3.13 3.51 3.52L20.48 20.49C20.88 20.88 20.88 21.51 20.49 21.9ZM20 17.17V15C21.38 15 22.5 13.88 22.5 12.5C22.5 11.12 21.38 10 20 10V6C20 4.9 19.1 4 18 4H14C14 2.62 12.88 1.5 11.5 1.5C10.12 1.5 9 2.62 9 4H6.83L20 17.17Z" fill="black"/>
</g>
<defs>
<clipPath id="clip0_401_33663">
<rect width="24" height="24" fill="white"/>
</clipPath>
</defs>
</svg>
