<svg width="24" height="24" viewBox="0 0 24 24" fill="none" xmlns="http://www.w3.org/2000/svg">
<g clip-path="url(#clip0_401_33493)">
<path d="M10.79 20H5V10H19V12.96C19 13.85 20.08 14.3 20.71 13.67C20.9 13.48 21 13.23 21 12.96V6C21 4.9 20.1 4 19 4H18V3C18 2.45 17.55 2 17 2C16.45 2 16 2.45 16 3V4H8V3C8 2.45 7.55 2 7 2C6.45 2 6 2.45 6 3V4H5C3.89 4 3.01 4.9 3.01 6L3 20C3 21.1 3.89 22 5 22H10.79C11.68 22 12.13 20.92 11.5 20.29C11.31 20.11 11.06 20 10.79 20ZM13.71 18.26C14.1 17.87 14.73 17.87 15.12 18.26L16.53 19.67L20.07 16.13C20.46 15.74 21.09 15.74 21.48 16.13C21.87 16.52 21.87 17.15 21.48 17.54L17.24 21.78C16.85 22.17 16.22 22.17 15.83 21.78L13.71 19.66C13.32 19.28 13.32 18.65 13.71 18.26ZM11.29 16.29C10.9 16.68 10.27 16.68 9.88 16.29L9 15.41L8.12 16.29C7.73 16.68 7.1 16.68 6.71 16.29C6.32 15.9 6.32 15.27 6.71 14.88L7.59 14L6.71 13.12C6.32 12.73 6.32 12.1 6.71 11.71C7.1 11.32 7.73 11.32 8.12 11.71L9 12.59L9.88 11.71C10.27 11.32 10.9 11.32 11.29 11.71C11.68 12.1 11.68 12.73 11.29 13.12L10.41 14L11.29 14.88C11.68 15.27 11.68 15.9 11.29 16.29Z" fill="black"/>
</g>
<defs>
<clipPath id="clip0_401_33493">
<rect width="24" height="24" fill="white"/>
</clipPath>
</defs>
</svg>
