<svg width="24" height="24" viewBox="0 0 24 24" fill="none" xmlns="http://www.w3.org/2000/svg">
<g clip-path="url(#clip0_401_34376)">
<path d="M3.85999 18.46C6.50999 21.91 10.97 22.83 14.6 21.25C15.21 20.98 15.34 20.16 14.87 19.69L14.82 19.64C14.53 19.35 14.1 19.29 13.72 19.45C10.76 20.69 7.12999 19.82 5.13999 16.83C3.55999 14.46 3.58999 11.46 5.18999 9.1C6.59999 7.03 8.79999 6.03 11 6.03V7.79C11 8.24 11.54 8.46 11.86 8.15L14.65 5.36C14.85 5.16 14.85 4.85 14.65 4.65L11.85 1.86C11.54 1.54 11 1.76 11 2.21V4.01C8.23999 4.01 5.47999 5.26 3.65999 7.79C1.37999 10.96 1.45999 15.37 3.85999 18.46Z" fill="black"/>
<path d="M17.7 7.71001C17.31 7.32001 16.68 7.32001 16.29 7.71001L11.7 12.29C11.31 12.68 11.31 13.31 11.7 13.7L16.29 18.29C16.68 18.68 17.31 18.68 17.7 18.29L22.29 13.7C22.68 13.31 22.68 12.68 22.29 12.29L17.7 7.71001Z" fill="black"/>
</g>
<defs>
<clipPath id="clip0_401_34376">
<rect width="24" height="24" fill="white"/>
</clipPath>
</defs>
</svg>
