<svg width="24" height="24" viewBox="0 0 24 24" fill="none" xmlns="http://www.w3.org/2000/svg">
<g clip-path="url(#clip0_401_32824)">
<path d="M18 11C18.7 11 19.37 11.1 20 11.29V10C20 8.9 19.1 8 18 8H17V6C17 3.24 14.76 1 12 1C9.24 1 7 3.24 7 6V8H6C4.9 8 4 8.9 4 10V20C4 21.1 4.9 22 6 22H12.26C11.47 20.87 11 19.49 11 18C11 14.13 14.13 11 18 11ZM9 6C9 4.34 10.34 3 12 3C13.66 3 15 4.34 15 6V8H9V6Z" fill="black"/>
<path d="M18 13C15.24 13 13 15.24 13 18C13 20.76 15.24 23 18 23C20.76 23 23 20.76 23 18C23 15.24 20.76 13 18 13ZM20 20C19.8 20.2 19.49 20.2 19.29 20L17.64 18.35C17.55 18.26 17.49 18.13 17.49 18V15.5C17.49 15.22 17.71 15 17.99 15C18.27 15 18.49 15.22 18.49 15.5V17.79L19.99 19.29C20.2 19.49 20.2 19.8 20 20Z" fill="black"/>
</g>
<defs>
<clipPath id="clip0_401_32824">
<rect width="24" height="24" fill="white"/>
</clipPath>
</defs>
</svg>
