<svg width="24" height="24" viewBox="0 0 24 24" fill="none" xmlns="http://www.w3.org/2000/svg">
<g clip-path="url(#clip0_401_33976)">
<path d="M21 3H3C2 3 1 4 1 5V19C1 20.1 1.9 21 3 21H21C22 21 23 20 23 19V5C23 4 22 3 21 3ZM5.63 16.19L8.12 12.99C8.32 12.74 8.7 12.73 8.9 12.98L11 15.51L14.1 11.52C14.3 11.26 14.7 11.26 14.9 11.53L18.41 16.21C18.66 16.54 18.42 17.01 18.01 17.01H6.02C5.61 17 5.37 16.52 5.63 16.19Z" fill="black"/>
</g>
<defs>
<clipPath id="clip0_401_33976">
<rect width="24" height="24" fill="white"/>
</clipPath>
</defs>
</svg>
