<svg width="24" height="24" viewBox="0 0 24 24" fill="none" xmlns="http://www.w3.org/2000/svg">
<g clip-path="url(#clip0_401_33832)">
<path d="M12.34 5C12.34 4.45 12.79 4 13.34 4H17C17.55 4 18 4.45 18 5V8.66C18 9.21 17.55 9.66 17 9.66C16.45 9.66 16 9.21 16 8.66V7.41L11 12.41V19C11 19.55 10.55 20 10 20C9.45 20 9 19.55 9 19V12.42C9 11.89 9.21 11.38 9.59 11.01L14.59 6.01H13.35C12.79 6 12.34 5.55 12.34 5Z" fill="black"/>
</g>
<defs>
<clipPath id="clip0_401_33832">
<rect width="24" height="24" fill="white"/>
</clipPath>
</defs>
</svg>
