<svg width="24" height="24" viewBox="0 0 24 24" fill="none" xmlns="http://www.w3.org/2000/svg">
<g clip-path="url(#clip0_401_33351)">
<path d="M11 13.0001V3.5901C11 3.1001 10.37 2.9001 10.09 3.3001L3.55 12.7101C3.32 13.0401 3.56 13.5001 3.96 13.5001H10.5C10.78 13.5001 11 13.2801 11 13.0001ZM20.99 12.9801C20.72 7.0701 15.9 2.3201 13.4 1.2301C13.03 1.0701 12.63 1.4301 12.73 1.8201C13.03 2.9501 13.49 5.1001 13.49 7.5001C13.49 9.9401 13 11.8901 12.71 12.8501C12.61 13.1701 12.85 13.5001 13.19 13.5001H20.47C20.76 13.5001 21 13.2601 20.99 12.9801ZM20.62 15.0001H3.38C2.65 15.0001 2.16 15.7601 2.46 16.4201C2.89 17.3401 3.53 18.1301 4.32 18.7301C4.7 18.5701 5.06 18.3501 5.38 18.1001C5.73 17.8101 6.25 17.8101 6.61 18.1001C7.28 18.6301 8.1 19.0001 9 19.0001C9.9 19.0001 10.72 18.6301 11.39 18.0901C11.74 17.8101 12.26 17.8101 12.61 18.0901C13.28 18.6301 14.1 19.0001 15 19.0001C15.9 19.0001 16.72 18.6301 17.39 18.0901C17.74 17.8001 18.26 17.8101 18.62 18.0901C18.94 18.3501 19.29 18.5701 19.68 18.7201C20.47 18.1201 21.11 17.3301 21.54 16.4101C21.84 15.7601 21.35 15.0001 20.62 15.0001ZM22 22.0001C22 21.4501 21.55 21.0001 21 21.0001C20.13 21.0001 19.27 20.7601 18.47 20.3001C18.18 20.1401 17.82 20.1301 17.53 20.3001C15.94 21.2001 14.06 21.2001 12.47 20.3001C12.18 20.1401 11.82 20.1401 11.53 20.3001C9.94 21.2001 8.06 21.2001 6.47 20.3001C6.18 20.1401 5.82 20.1401 5.53 20.3001C4.73 20.7601 3.87 21.0001 3 21.0001C2.45 21.0001 2 21.4501 2 22.0001C2 22.5501 2.45 23.0001 3 23.0001C4.15 23.0001 5.3 22.6901 6.33 22.0601C7.99 23.1701 10.11 23.0701 11.91 22.2001C13.82 23.2501 16.08 23.2701 18 22.2501C18.95 22.7501 19.97 23.0001 21 23.0001C21.55 23.0001 22 22.5501 22 22.0001Z" fill="black"/>
</g>
<defs>
<clipPath id="clip0_401_33351">
<rect width="24" height="24" fill="white"/>
</clipPath>
</defs>
</svg>
