<svg width="24" height="24" viewBox="0 0 24 24" fill="none" xmlns="http://www.w3.org/2000/svg">
<g clip-path="url(#clip0_401_33496)">
<path d="M20 4H6.83002L14.83 12H19C19.55 12 20 12.45 20 13C20 13.55 19.55 14 19 14H16.83L21.76 18.93C21.91 18.65 22 18.34 22 18V6C22 4.9 21.1 4 20 4Z" fill="black"/>
<path d="M20 20.0001L14 14.0001L12.29 12.2901L12 12.0001L3.16002 3.16005C2.77002 2.77005 2.14002 2.77005 1.75002 3.16005C1.36002 3.55005 1.36002 4.18005 1.75002 4.57005L2.24002 5.06005C2.09002 5.35005 2.00002 5.66005 2.00002 6.00005V18.0001C2.00002 19.1001 2.90002 20.0001 4.00002 20.0001H17.17L19.42 22.2501C19.81 22.6401 20.44 22.6401 20.83 22.2501C21.22 21.8601 21.22 21.2301 20.83 20.8401L20 20.0001ZM8.00002 13.0001C8.00002 13.5501 7.55002 14.0001 7.00002 14.0001H5.00002C4.45002 14.0001 4.00002 13.5501 4.00002 13.0001C4.00002 12.4501 4.45002 12.0001 5.00002 12.0001H7.00002C7.55002 12.0001 8.00002 12.4501 8.00002 13.0001ZM14 17.0001C14 17.5501 13.55 18.0001 13 18.0001H5.00002C4.45002 18.0001 4.00002 17.5501 4.00002 17.0001C4.00002 16.4501 4.45002 16.0001 5.00002 16.0001H13C13.08 16.0001 13.14 16.0301 13.21 16.0401L13.95 16.7801C13.97 16.8601 14 16.9201 14 17.0001Z" fill="black"/>
</g>
<defs>
<clipPath id="clip0_401_33496">
<rect width="24" height="24" fill="white"/>
</clipPath>
</defs>
</svg>
