<svg width="24" height="24" viewBox="0 0 24 24" fill="none" xmlns="http://www.w3.org/2000/svg">
<g clip-path="url(#clip0_401_33717)">
<path d="M21.34 6.77006C20.94 6.37006 20.27 6.38006 19.89 6.81006L16.56 10.5501L10.91 5.31006C10.12 4.58006 8.89997 4.60006 8.13997 5.36006L2.69997 10.8101C2.30997 11.2001 2.30997 11.8301 2.69997 12.2201L2.78997 12.3101C3.17997 12.7001 3.80997 12.7001 4.19997 12.3101L9.63997 6.86006L15.23 12.0501L13.5 14.0001L10.92 11.4201C10.14 10.6401 8.86997 10.6401 8.08997 11.4201L2.69997 16.8001C2.30997 17.1901 2.30997 17.8201 2.69997 18.2101L2.79997 18.3001C3.18997 18.6901 3.81997 18.6901 4.20997 18.3001L9.50997 13.0001L12.01 15.5001C12.82 16.3101 14.15 16.2701 14.92 15.4101L16.7 13.4001L19.89 16.3601C20.28 16.7201 20.89 16.7101 21.27 16.3301L21.28 16.3201C21.68 15.9201 21.67 15.2701 21.25 14.8901L18.03 11.9001L21.38 8.13006C21.73 7.74006 21.71 7.14006 21.34 6.77006Z" fill="black"/>
</g>
<defs>
<clipPath id="clip0_401_33717">
<rect width="24" height="24" fill="white"/>
</clipPath>
</defs>
</svg>
