<svg width="24" height="24" viewBox="0 0 24 24" fill="none" xmlns="http://www.w3.org/2000/svg">
<g clip-path="url(#clip0_401_33257)">
<path d="M9 6.17V4C9 3.45 9.45 3 10 3H14C14.55 3 15 3.45 15 4V9H16.59C17.48 9 17.92 10.08 17.29 10.71L15.41 12.59L9 6.17ZM20.49 20.49L3.51 3.51C3.12 3.12 2.49 3.12 2.1 3.51C1.71 3.9 1.71 4.53 2.1 4.92L6.6 9.42C6.34 9.79 6.31999 10.33 6.7 10.7L11.29 15.29C11.64 15.64 12.17 15.66 12.56 15.38L15.17 18H6C5.45 18 5 18.45 5 19C5 19.55 5.45 20 6 20H17.17L19.07 21.9C19.46 22.29 20.09 22.29 20.48 21.9C20.88 21.51 20.88 20.88 20.49 20.49Z" fill="black"/>
</g>
<defs>
<clipPath id="clip0_401_33257">
<rect width="24" height="24" fill="white"/>
</clipPath>
</defs>
</svg>
