<svg width="24" height="24" viewBox="0 0 24 24" fill="none" xmlns="http://www.w3.org/2000/svg">
<g clip-path="url(#clip0_401_32935)">
<path d="M19 12H20.7C21.16 12 21.38 11.43 21.03 11.13L12.67 3.59997C12.29 3.25997 11.71 3.25997 11.33 3.59997L2.96998 11.13C2.62998 11.43 2.83998 12 3.29998 12H4.99998V15H3.99998C3.44998 15 2.99998 15.45 2.99998 16C2.99998 16.55 3.44998 17 3.99998 17H4.99998V19C4.99998 19.55 5.44998 20 5.99998 20C6.54998 20 6.99998 19.55 6.99998 19V17H11V19C11 19.55 11.45 20 12 20C12.55 20 13 19.55 13 19V17H17V19C17 19.55 17.45 20 18 20C18.55 20 19 19.55 19 19V17H20C20.55 17 21 16.55 21 16C21 15.45 20.55 15 20 15H19V12ZM6.99998 15V10.19L11 6.58997V15H6.99998ZM13 15V6.58997L17 10.19V15H13Z" fill="black"/>
</g>
<defs>
<clipPath id="clip0_401_32935">
<rect width="24" height="24" fill="white"/>
</clipPath>
</defs>
</svg>
