<svg width="24" height="24" viewBox="0 0 24 24" fill="none" xmlns="http://www.w3.org/2000/svg">
<g clip-path="url(#clip0_401_33999)">
<path d="M21.27 10.9C20.06 10.57 18.96 9.44002 18.98 8.01002C18.99 7.45002 18.58 6.99002 18.02 7.00002C15.83 7.03002 14 5.22002 14 3.02002C14 2.53002 13.65 2.12002 13.16 2.06002C6.53 1.22002 2 6.81002 2 12C2 17.52 6.48 22 12 22C17.61 22 22.11 17.38 22 11.82C21.99 11.38 21.69 11.01 21.27 10.9ZM8.5 15C7.67 15 7 14.33 7 13.5C7 12.67 7.67 12 8.5 12C9.33 12 10 12.67 10 13.5C10 14.33 9.33 15 8.5 15ZM10.5 10C9.67 10 9 9.33002 9 8.50002C9 7.67002 9.67 7.00002 10.5 7.00002C11.33 7.00002 12 7.67002 12 8.50002C12 9.33002 11.33 10 10.5 10ZM15 16C14.45 16 14 15.55 14 15C14 14.45 14.45 14 15 14C15.55 14 16 14.45 16 15C16 15.55 15.55 16 15 16Z" fill="black"/>
</g>
<defs>
<clipPath id="clip0_401_33999">
<rect width="24" height="24" fill="white"/>
</clipPath>
</defs>
</svg>
