<svg width="24" height="24" viewBox="0 0 24 24" fill="none" xmlns="http://www.w3.org/2000/svg">
<g clip-path="url(#clip0_401_34575)">
<path d="M21.41 13.4199L18.83 15.9999L17.02 14.1899L19.2 11.9999L12 4.79988L9.81 6.98988L8 5.16988L10.58 2.58988C11.36 1.80988 12.63 1.80988 13.41 2.58988L21.41 10.5899C22.2 11.3699 22.2 12.6299 21.41 13.4199ZM20.48 21.8999C20.09 22.2899 19.46 22.2899 19.07 21.8999L16 18.8299L13.42 21.4099C12.64 22.1899 11.37 22.1899 10.59 21.4099L2.59 13.4099C1.81 12.6299 1.81 11.3599 2.59 10.5799L5.17 7.99988L2.1 4.92988C1.71 4.53988 1.71 3.90988 2.1 3.51988C2.49 3.12988 3.12 3.12988 3.51 3.51988L20.49 20.4899C20.87 20.8699 20.87 21.5099 20.48 21.8999ZM14.19 17.0199L12.8 15.6299L12.71 15.7199C12.32 16.1099 11.69 16.1099 11.29 15.7199L8.27999 12.7099C7.89 12.3199 7.89 11.6899 8.27999 11.2999L8.37 11.2099L6.97 9.81988L4.8 11.9999L12 19.1999L14.19 17.0199ZM15.71 11.2899L12.7 8.27988C12.31 7.88988 11.68 7.88988 11.29 8.27988L11.2 8.37988L15.62 12.7999L15.71 12.7099C16.1 12.3199 16.1 11.6799 15.71 11.2899Z" fill="black"/>
</g>
<defs>
<clipPath id="clip0_401_34575">
<rect width="24" height="24" fill="white"/>
</clipPath>
</defs>
</svg>
