<svg width="24" height="24" viewBox="0 0 24 24" fill="none" xmlns="http://www.w3.org/2000/svg">
<g clip-path="url(#clip0_401_34014)">
<path d="M12 24C12.5523 24 13 23.5523 13 23C13 22.4477 12.5523 22 12 22C11.4477 22 11 22.4477 11 23C11 23.5523 11.4477 24 12 24Z" fill="black"/>
<path d="M8 24C8.55228 24 9 23.5523 9 23C9 22.4477 8.55228 22 8 22C7.44772 22 7 22.4477 7 23C7 23.5523 7.44772 24 8 24Z" fill="black"/>
<path d="M16 24C16.5523 24 17 23.5523 17 23C17 22.4477 16.5523 22 16 22C15.4477 22 15 22.4477 15 23C15 23.5523 15.4477 24 16 24Z" fill="black"/>
<path d="M13.41 10L17 6.42C17.39 6.03 17.39 5.4 17 5L12.21 0.21C12.07 0.07 11.89 0 11.71 0C11.32 0 11 0.32 11 0.71V7.59L7.10997 3.71C6.71997 3.32 6.08997 3.32 5.69997 3.71C5.30997 4.1 5.30997 4.73 5.69997 5.12L10.59 10L5.69997 14.89C5.30997 15.28 5.30997 15.91 5.69997 16.3C6.08997 16.69 6.71997 16.69 7.10997 16.3L11 12.41V19.29C11 19.68 11.32 20 11.71 20C11.9 20 12.08 19.93 12.21 19.79L17 15C17.39 14.61 17.39 13.98 17 13.58L13.41 10ZM13 3.83L14.88 5.71L13 7.59V3.83ZM13 16.17V12.41L14.88 14.29L13 16.17Z" fill="black"/>
</g>
<defs>
<clipPath id="clip0_401_34014">
<rect width="24" height="24" fill="white"/>
</clipPath>
</defs>
</svg>
