<svg width="24" height="24" viewBox="0 0 24 24" fill="none" xmlns="http://www.w3.org/2000/svg">
<g clip-path="url(#clip0_401_32971)">
<path d="M11 6V10.59H8.71001C8.26001 10.59 8.04001 11.13 8.36001 11.44L11.65 14.73C11.85 14.93 12.16 14.93 12.36 14.73L15.65 11.44C15.96 11.13 15.74 10.59 15.3 10.59H13V6C13 5.45 12.55 5 12 5C11.45 5 11 5.45 11 6ZM7.10001 14C6.49001 14 5.99001 14.55 6.11001 15.15C6.65001 17.91 9.08001 20 12 20C14.92 20 17.35 17.91 17.89 15.15C18.01 14.55 17.51 14 16.9 14C16.41 14 16.02 14.35 15.92 14.83C15.53 16.64 13.93 18 12 18C10.07 18 8.47001 16.64 8.09001 14.83C7.99001 14.35 7.59001 14 7.10001 14Z" fill="black"/>
</g>
<defs>
<clipPath id="clip0_401_32971">
<rect width="24" height="24" fill="white"/>
</clipPath>
</defs>
</svg>
