<svg width="24" height="24" viewBox="0 0 24 24" fill="none" xmlns="http://www.w3.org/2000/svg">
<g clip-path="url(#clip0_401_32641)">
<path d="M20 15.3099L22.6 12.7099C22.99 12.3199 22.99 11.6899 22.6 11.2999L20 8.68992V4.99992C20 4.44992 19.55 3.99992 19 3.99992H15.31L12.71 1.39992C12.32 1.00992 11.69 1.00992 11.3 1.39992L8.68998 3.99992H4.99998C4.44998 3.99992 3.99998 4.44992 3.99998 4.99992V8.68992L1.39998 11.2899C1.00998 11.6799 1.00998 12.3099 1.39998 12.6999L3.99998 15.2999V18.9999C3.99998 19.5499 4.44998 19.9999 4.99998 19.9999H8.68998L11.29 22.5999C11.68 22.9899 12.31 22.9899 12.7 22.5999L15.3 19.9999H19C19.55 19.9999 20 19.5499 20 18.9999V15.3099ZM12 16.8999V7.09992C12 6.48992 12.55 5.98992 13.15 6.10992C15.91 6.64992 18 9.07992 18 11.9999C18 14.9199 15.91 17.3499 13.15 17.8899C12.55 18.0099 12 17.5099 12 16.8999Z" fill="black"/>
</g>
<defs>
<clipPath id="clip0_401_32641">
<rect width="24" height="24" fill="white"/>
</clipPath>
</defs>
</svg>
