<svg width="24" height="24" viewBox="0 0 24 24" fill="none" xmlns="http://www.w3.org/2000/svg">
<g clip-path="url(#clip0_401_34531)">
<path d="M16 11H15V4C15 2.34 13.66 1 12 1C10.34 1 9 2.34 9 4V11H8C5.24 11 3 13.24 3 16V21C3 22.1 3.9 23 5 23H19C20.1 23 21 22.1 21 21V16C21 13.24 18.76 11 16 11ZM19 21H17V18C17 17.45 16.55 17 16 17C15.45 17 15 17.45 15 18V21H13V18C13 17.45 12.55 17 12 17C11.45 17 11 17.45 11 18V21H9V18C9 17.45 8.55 17 8 17C7.45 17 7 17.45 7 18V21H5V16C5 14.35 6.35 13 8 13H16C17.65 13 19 14.35 19 16V21Z" fill="black"/>
</g>
<defs>
<clipPath id="clip0_401_34531">
<rect width="24" height="24" fill="white"/>
</clipPath>
</defs>
</svg>
