<svg width="24" height="24" viewBox="0 0 24 24" fill="none" xmlns="http://www.w3.org/2000/svg">
<g clip-path="url(#clip0_401_32591)">
<path d="M7 8C6.45 8 6 8.45 6 9V15C6 16.1 6.9 17 8 17H16C16.55 17 17 16.55 17 16C17 15.45 16.55 15 16 15H8V9C8 8.45 7.55 8 7 8Z" fill="black"/>
<path d="M20 3H12C10.9 3 10 3.9 10 5V11C10 12.1 10.9 13 12 13H20C21.1 13 22 12.1 22 11V5C22 3.9 21.1 3 20 3ZM20 11H12V7H20V11Z" fill="black"/>
<path d="M3 12C2.45 12 2 12.45 2 13V19C2 20.1 2.9 21 4 21H12C12.55 21 13 20.55 13 20C13 19.45 12.55 19 12 19H4V13C4 12.45 3.55 12 3 12Z" fill="black"/>
</g>
<defs>
<clipPath id="clip0_401_32591">
<rect width="24" height="24" fill="white"/>
</clipPath>
</defs>
</svg>
