<svg width="24" height="24" viewBox="0 0 24 24" fill="none" xmlns="http://www.w3.org/2000/svg">
<g clip-path="url(#clip0_401_33525)">
<path d="M15 20H3C2.45 20 2 19.55 2 19V5C2 4.45 2.45 4 3 4H15C15.55 4 16 4.45 16 5V19C16 19.55 15.55 20 15 20ZM19 8H21C21.55 8 22 7.55 22 7V5C22 4.45 21.55 4 21 4H19C18.45 4 18 4.45 18 5V7C18 7.55 18.45 8 19 8ZM19 20H21C21.55 20 22 19.55 22 19V17C22 16.45 21.55 16 21 16H19C18.45 16 18 16.45 18 17V19C18 19.55 18.45 20 19 20ZM19 14H21C21.55 14 22 13.55 22 13V11C22 10.45 21.55 10 21 10H19C18.45 10 18 10.45 18 11V13C18 13.55 18.45 14 19 14Z" fill="black"/>
</g>
<defs>
<clipPath id="clip0_401_33525">
<rect width="24" height="24" fill="white"/>
</clipPath>
</defs>
</svg>
