<svg width="24" height="24" viewBox="0 0 24 24" fill="none" xmlns="http://www.w3.org/2000/svg">
<g clip-path="url(#clip0_401_34407)">
<path d="M22 3H7.00002C6.31002 3 5.77002 3.35 5.41002 3.88L0.370017 11.45C0.150017 11.79 0.150017 12.22 0.370017 12.56L5.41002 20.12C5.77002 20.64 6.31002 21 7.00002 21H22C23.1 21 24 20.1 24 19V5C24 3.9 23.1 3 22 3ZM18.3 16.3C17.91 16.69 17.28 16.69 16.89 16.3L14 13.41L11.11 16.3C10.72 16.69 10.09 16.69 9.70002 16.3C9.31002 15.91 9.31002 15.28 9.70002 14.89L12.59 12L9.70002 9.11C9.31002 8.72 9.31002 8.09 9.70002 7.7C10.09 7.31 10.72 7.31 11.11 7.7L14 10.59L16.89 7.7C17.28 7.31 17.91 7.31 18.3 7.7C18.69 8.09 18.69 8.72 18.3 9.11L15.41 12L18.3 14.89C18.68 15.27 18.68 15.91 18.3 16.3Z" fill="black"/>
</g>
<defs>
<clipPath id="clip0_401_34407">
<rect width="24" height="24" fill="white"/>
</clipPath>
</defs>
</svg>
