<svg width="24" height="24" viewBox="0 0 24 24" fill="none" xmlns="http://www.w3.org/2000/svg">
<g clip-path="url(#clip0_401_33857)">
<path d="M19.3 16.9C19.88 15.89 20.25 14.67 19.81 13.25C19.28 11.53 17.77 10.2 15.97 10.03C13.1 9.75 10.74 12.1 11.02 14.98C11.2 16.77 12.52 18.29 14.24 18.82C15.67 19.26 16.88 18.89 17.89 18.31L20.39 20.81C20.78 21.2 21.4 21.2 21.79 20.81C22.18 20.42 22.18 19.8 21.79 19.41L19.3 16.9ZM15.5 17C14.1 17 13 15.9 13 14.5C13 13.1 14.1 12 15.5 12C16.9 12 18 13.1 18 14.5C18 15.9 16.9 17 15.5 17ZM12 20V22C6.48 22 2 17.52 2 12C2 6.48 6.48 2 12 2C16.84 2 20.87 5.44 21.8 10H19.73C19.09 7.54 17.33 5.53 15 4.59V5C15 6.1 14.1 7 13 7H11V9C11 9.55 10.55 10 10 10H8V12H10V15H9L4.21 10.21C4.08 10.79 4 11.38 4 12C4 16.41 7.59 20 12 20Z" fill="black"/>
</g>
<defs>
<clipPath id="clip0_401_33857">
<rect width="24" height="24" fill="white"/>
</clipPath>
</defs>
</svg>
