<svg width="24" height="24" viewBox="0 0 24 24" fill="none" xmlns="http://www.w3.org/2000/svg">
<g clip-path="url(#clip0_401_33400)">
<path d="M0 12C0 15.22 1.13 18.18 3.02 20.5H1.75C1.34 20.5 1 20.84 1 21.25C1 21.66 1.34 22 1.75 22H5C5.55 22 6 21.55 6 21V17.75C6 17.34 5.66 17 5.25 17C4.84 17 4.5 17.34 4.5 17.75V19.91C2.64 17.8 1.5 15.03 1.5 12C1.5 8.97 2.64 6.21 4.5 4.09V6.25C4.5 6.66 4.84 7 5.25 7C5.66 7 6 6.66 6 6.25V3C6 2.45 5.55 2 5 2H1.75C1.34 2 1 2.34 1 2.75C1 3.16 1.34 3.5 1.75 3.5H3.02C1.13 5.82 0 8.78 0 12ZM8.83 19.1C8.57 18.5 8.92 17.82 9.56 17.69L13.14 16.98L8.79 7.17C8.45 6.41 8.79 5.53 9.55 5.19C10.31 4.85 11.19 5.19 11.53 5.95L13.96 11.44L14.8 11.07C15.08 10.94 15.39 10.89 15.7 10.9L20.26 11.11C21.12 11.15 21.86 11.74 22.09 12.56L23.32 16.89C23.59 17.85 23.12 18.86 22.21 19.26L16.58 21.75C16.1 21.96 15.32 22.08 14.82 21.89L9.37 19.62C9.13 19.53 8.93 19.34 8.83 19.1Z" fill="black"/>
</g>
<defs>
<clipPath id="clip0_401_33400">
<rect width="24" height="24" fill="white"/>
</clipPath>
</defs>
</svg>
