<svg width="24" height="24" viewBox="0 0 24 24" fill="none" xmlns="http://www.w3.org/2000/svg">
<g clip-path="url(#clip0_401_33861)">
<path d="M8 12.5H9.5V14H8V12.5ZM8 10H9.5V11.5H8V10ZM19 3H5C3.9 3 3 3.9 3 5V19C3 20.1 3.9 21 5 21H19C20.1 21 21 20.1 21 19V5C21 3.9 20.1 3 19 3ZM11 14C11 14.55 10.55 15 10 15H7.5C6.95 15 6.5 14.55 6.5 14V10C6.5 9.45 6.95 9 7.5 9H10C10.55 9 11 9.45 11 10V14ZM16.59 15C16.37 15 16.17 14.9 16.04 14.73L14.5 12.75V14.3C14.5 14.69 14.19 15 13.8 15H13.7C13.31 15 13 14.69 13 14.3V9.7C13 9.31 13.31 9 13.7 9H13.79C14.18 9 14.49 9.31 14.49 9.7V11.25L16.03 9.27C16.17 9.1 16.38 9 16.59 9C17.17 9 17.5 9.66 17.15 10.12L15.75 12L17.16 13.88C17.5 14.34 17.17 15 16.59 15Z" fill="black"/>
</g>
<defs>
<clipPath id="clip0_401_33861">
<rect width="24" height="24" fill="white"/>
</clipPath>
</defs>
</svg>
