<svg width="24" height="24" viewBox="0 0 24 24" fill="none" xmlns="http://www.w3.org/2000/svg">
<g clip-path="url(#clip0_401_32681)">
<path d="M2 20.9999H12C12.55 20.9999 13 21.4499 13 21.9999C13 22.5499 12.55 22.9999 12 22.9999H2C1.45 22.9999 1 22.5499 1 21.9999C1 21.4499 1.45 20.9999 2 20.9999ZM5.24 8.06993L8.07 5.23993L20.8 17.9699C21.58 18.7499 21.58 20.0199 20.8 20.7999C20.02 21.5799 18.75 21.5799 17.97 20.7999L5.24 8.06993ZM13.73 2.40993L16.56 5.23993C17.34 6.01993 17.34 7.28993 16.56 8.06993L15.14 9.48993L9.49 3.82993L10.9 2.41993C11.68 1.62993 12.95 1.62993 13.73 2.40993ZM3.83 9.47993L9.49 15.1399L8.08 16.5499C7.3 17.3299 6.03 17.3299 5.25 16.5499L2.42 13.7199C1.64 12.9399 1.64 11.6699 2.42 10.8899L3.83 9.47993Z" fill="black"/>
</g>
<defs>
<clipPath id="clip0_401_32681">
<rect width="24" height="24" fill="white"/>
</clipPath>
</defs>
</svg>
