<svg width="24" height="24" viewBox="0 0 24 24" fill="none" xmlns="http://www.w3.org/2000/svg">
<g clip-path="url(#clip0_401_32759)">
<path d="M17 10C18.1 10 19 9.1 19 8V5C19 3.9 18.1 3 17 3H7C5.9 3 5 3.9 5 5V8C5 9.1 5.9 10 7 10H8V12H7C5.9 12 5 12.9 5 14V20C5 20.55 5.45 21 6 21C6.55 21 7 20.55 7 20V18H17V20C17 20.55 17.45 21 18 21C18.55 21 19 20.55 19 20V14C19 12.9 18.1 12 17 12H16V10H17ZM7 8V5H17V8H7ZM17 16H7V14H17V16ZM14 12H10V10H14V12Z" fill="black"/>
</g>
<defs>
<clipPath id="clip0_401_32759">
<rect width="24" height="24" fill="white"/>
</clipPath>
</defs>
</svg>
