<svg width="24" height="24" viewBox="0 0 24 24" fill="none" xmlns="http://www.w3.org/2000/svg">
<g clip-path="url(#clip0_401_34138)">
<path d="M12 7V5C12 3.9 11.1 3 10 3H4C2.9 3 2 3.9 2 5V19C2 20.1 2.9 21 4 21H20C21.1 21 22 20.1 22 19V9C22 7.9 21.1 7 20 7H12ZM10 19H4V17H10V19ZM10 15H4V13H10V15ZM10 11H4V9H10V11ZM10 7H4V5H10V7ZM20 19H12V9H20V19ZM18 11H14V13H18V11ZM18 15H14V17H18V15Z" fill="black"/>
</g>
<defs>
<clipPath id="clip0_401_34138">
<rect width="24" height="24" fill="white"/>
</clipPath>
</defs>
</svg>
