<svg width="24" height="24" viewBox="0 0 24 24" fill="none" xmlns="http://www.w3.org/2000/svg">
<g clip-path="url(#clip0_401_33947)">
<path d="M12 6C11.08 6 10.2 6.22 9.41998 6.59L17.41 14.58C17.78 13.8 18 12.92 18 12C18 8.69 15.31 6 12 6Z" fill="black"/>
<path d="M2.1 3.51C1.71 3.9 1.71 4.54 2.1 4.93L3.66 6.49C2.41 8.37 1.78 10.7 2.07 13.19C2.59 17.73 6.27999 21.42 10.82 21.94C13.31 22.22 15.63 21.6 17.51 20.35L19.07 21.91C19.46 22.3 20.1 22.3 20.49 21.91C20.88 21.52 20.88 20.89 20.49 20.5L3.51 3.51C3.13 3.13 2.49 3.12 2.1 3.51ZM12 20C7.59 20 4 16.41 4 12C4 10.52 4.41 9.14 5.12 7.94L6.59 9.41C6.22 10.2 6 11.08 6 12C6 15.31 8.69 18 12 18C12.92 18 13.8 17.78 14.58 17.41L16.05 18.88C14.86 19.59 13.48 20 12 20Z" fill="black"/>
<path d="M12 4C16.41 4 20 7.59 20 12C20 13.48 19.59 14.86 18.88 16.05L20.33 17.5C21.39 15.93 22 14.04 22 12C22 6.48 17.52 2 12 2C9.95999 2 8.06999 2.61 6.48999 3.66L7.93999 5.11C9.13999 4.41 10.52 4 12 4Z" fill="black"/>
</g>
<defs>
<clipPath id="clip0_401_33947">
<rect width="24" height="24" fill="white"/>
</clipPath>
</defs>
</svg>
