<svg width="24" height="24" viewBox="0 0 24 24" fill="none" xmlns="http://www.w3.org/2000/svg">
<g clip-path="url(#clip0_401_33571)">
<path d="M6.99998 7.55977C6.99998 6.61977 5.85998 6.13977 5.18998 6.80977L0.70998 11.2898C0.31998 11.6798 0.31998 12.3098 0.70998 12.6998L5.18998 17.1798C5.85998 17.8598 6.99998 17.3798 6.99998 16.4398C6.99998 16.1598 6.88998 15.8898 6.68998 15.6898L2.99998 11.9998L6.68998 8.30977C6.88998 8.10977 6.99998 7.83977 6.99998 7.55977ZM13 8.99977V7.40977C13 6.51977 11.92 6.06977 11.29 6.69977L6.69998 11.2898C6.30998 11.6798 6.30998 12.3098 6.69998 12.6998L11.29 17.2898C11.92 17.9198 13 17.4698 13 16.5798V14.8998C18 14.8998 21.5 16.4998 24 19.9998C23 14.9998 20 9.99977 13 8.99977Z" fill="black"/>
</g>
<defs>
<clipPath id="clip0_401_33571">
<rect width="24" height="24" fill="white"/>
</clipPath>
</defs>
</svg>
