<svg width="24" height="24" viewBox="0 0 24 24" fill="none" xmlns="http://www.w3.org/2000/svg">
<g clip-path="url(#clip0_401_33609)">
<path d="M19.06 2.59998L11.6 8.69998L10.39 7.65998L12.87 6.22998C13.44 5.89998 13.54 5.11998 13.08 4.65998L10.13 1.70998C9.74001 1.31998 9.11001 1.31998 8.72001 1.70998C8.33001 2.09998 8.33001 2.72998 8.72001 3.11998L10.75 5.14998L5.35001 8.25998C5.12001 8.38998 4.96001 8.60998 4.89001 8.85998L3.93001 12.35C3.86001 12.61 3.89001 12.88 4.03001 13.12L5.77001 16.14C6.05001 16.62 6.66001 16.78 7.14001 16.51C7.62001 16.23 7.78001 15.62 7.51001 15.14L5.98001 12.48L6.34001 11.19L9.50001 13L9.94001 21C9.97001 21.56 10.43 22 10.99 22C11.55 22 12.01 21.56 12.04 21L12.49 12L20.36 4.03998C20.72 3.67998 20.74 3.10998 20.41 2.71998C20.07 2.31998 19.47 2.26998 19.06 2.59998Z" fill="black"/>
<path d="M5 7C6.10457 7 7 6.10457 7 5C7 3.89543 6.10457 3 5 3C3.89543 3 3 3.89543 3 5C3 6.10457 3.89543 7 5 7Z" fill="black"/>
</g>
<defs>
<clipPath id="clip0_401_33609">
<rect width="24" height="24" fill="white"/>
</clipPath>
</defs>
</svg>
