<svg width="24" height="24" viewBox="0 0 24 24" fill="none" xmlns="http://www.w3.org/2000/svg">
<g clip-path="url(#clip0_401_33197)">
<path d="M7.02 13C4.81 13 3.02 14.79 3.02 17C3.02 19.21 4.81 21 7.02 21C9.23 21 11.02 19.21 11.02 17C11.02 14.79 9.23 13 7.02 13ZM13 14V20C13 20.55 13.45 21 14 21H20C20.55 21 21 20.55 21 20V14C21 13.45 20.55 13 20 13H14C13.45 13 13 13.45 13 14ZM6.13 3.57L2.83 9.51C2.46 10.18 2.94 11 3.7 11H10.3C11.06 11 11.54 10.18 11.17 9.51L7.87 3.57C7.49 2.89 6.51 2.89 6.13 3.57ZM19.25 2.5C18.19 2.5 17.44 3.06 17 3.67C16.56 3.06 15.81 2.5 14.75 2.5C13.19 2.5 12 3.78 12 5.25C12 7.08 14.03 8.42 16.35 10.43C16.72 10.75 17.27 10.75 17.65 10.43C19.97 8.42 22 7.08 22 5.25C22 3.78 20.81 2.5 19.25 2.5Z" fill="black"/>
</g>
<defs>
<clipPath id="clip0_401_33197">
<rect width="24" height="24" fill="white"/>
</clipPath>
</defs>
</svg>
