<svg width="24" height="24" viewBox="0 0 24 24" fill="none" xmlns="http://www.w3.org/2000/svg">
<path d="M12 16C12.55 16 13 16.45 13 17V21H16C16.55 21 17 20.5499 17 20V14.79L17.57 15.71C17.86 16.18 18.48 16.32 18.95 16.03C19.42 15.74 19.56 15.12 19.27 14.65L12.85 4.35995C12.46 3.72995 11.54 3.72995 11.15 4.35995L4.72999 14.65C4.43999 15.12 4.57999 15.74 5.04999 16.03C5.51999 16.32 6.12999 16.18 6.42999 15.71L6.99999 14.8V20C6.99999 20.5499 7.44999 21 7.99999 21H11V17C11 16.45 11.45 16 12 16ZM13 13C13 13.55 12.55 14 12 14C11.45 14 11 13.55 11 13C11 12.45 11.45 12 12 12C12.55 12 13 12.45 13 13Z" fill="black"/>
</svg>
