<svg width="24" height="24" viewBox="0 0 24 24" fill="none" xmlns="http://www.w3.org/2000/svg">
<g clip-path="url(#clip0_401_33778)">
<path d="M9.21 11H11V13C11 13.55 11.45 14 12 14C12.55 14 13 13.55 13 13V11H14.79C15.24 11 15.46 10.46 15.14 10.15L12.35 7.35996C12.15 7.15996 11.84 7.15996 11.64 7.35996L8.85 10.15C8.54 10.46 8.76 11 9.21 11Z" fill="black"/>
<path d="M19 3H5C3.9 3 3 3.9 3 5V19C3 20.1 3.9 21 5 21H19C20.1 21 21 20.1 21 19V5C21 3.9 20.1 3 19 3ZM19 14H15.98C15.35 14 14.76 14.3 14.38 14.8C13.84 15.53 12.98 16 12 16C11.02 16 10.16 15.53 9.62 14.8C9.24 14.3 8.65 14 8.02 14H5V5H19V14Z" fill="black"/>
</g>
<defs>
<clipPath id="clip0_401_33778">
<rect width="24" height="24" fill="white"/>
</clipPath>
</defs>
</svg>
