<svg width="24" height="24" viewBox="0 0 24 24" fill="none" xmlns="http://www.w3.org/2000/svg">
<g clip-path="url(#clip0_401_33386)">
<path d="M3 7C3.55 7 4 7.45 4 8V21H17C17.55 21 18 21.45 18 22C18 22.55 17.55 23 17 23H4C2.9 23 2 22.1 2 21V8C2 7.45 2.45 7 3 7ZM15.59 1.59C15.21 1.21 14.7 1 14.17 1H8C6.9 1 6.01 1.9 6.01 3L6 17C6 18.1 6.89 19 7.99 19H19C20.1 19 21 18.1 21 17V7.83C21 7.3 20.79 6.79 20.41 6.42L15.59 1.59ZM15.5 15H11.5C10.95 15 10.5 14.55 10.5 14C10.5 13.45 10.95 13 11.5 13H15.5C16.05 13 16.5 13.45 16.5 14C16.5 14.55 16.05 15 15.5 15ZM15.5 9H14.5V10C14.5 10.55 14.05 11 13.5 11C12.95 11 12.5 10.55 12.5 10V9H11.5C10.95 9 10.5 8.55 10.5 8C10.5 7.45 10.95 7 11.5 7H12.5V6C12.5 5.45 12.95 5 13.5 5C14.05 5 14.5 5.45 14.5 6V7H15.5C16.05 7 16.5 7.45 16.5 8C16.5 8.55 16.05 9 15.5 9Z" fill="black"/>
</g>
<defs>
<clipPath id="clip0_401_33386">
<rect width="24" height="24" fill="white"/>
</clipPath>
</defs>
</svg>
