<svg width="24" height="24" viewBox="0 0 24 24" fill="none" xmlns="http://www.w3.org/2000/svg">
<g clip-path="url(#clip0_401_33109)">
<path d="M21.6 18.2L13 11.75V10.84C14.65 10.35 15.8 8.67001 15.43 6.79001C15.17 5.48001 14.13 4.39001 12.82 4.09001C11.06 3.69001 9.45002 4.62001 8.80002 6.07001C8.50002 6.74001 8.98002 7.50001 9.71002 7.50001C10.1 7.50001 10.46 7.28001 10.61 6.93001C10.84 6.38001 11.37 6.00001 12 6.00001C12.83 6.00001 13.5 6.67001 13.5 7.50001C13.5 8.34001 12.81 9.02001 11.97 9.00001C11.43 8.99001 11 9.45001 11 9.99001V11.75L2.40002 18.2C1.63002 18.78 2.04002 20 3.00002 20H12H21C21.96 20 22.37 18.78 21.6 18.2ZM6.00002 18L12 13.5L18 18H6.00002Z" fill="black"/>
</g>
<defs>
<clipPath id="clip0_401_33109">
<rect width="24" height="24" fill="white"/>
</clipPath>
</defs>
</svg>
