<svg width="24" height="24" viewBox="0 0 24 24" fill="none" xmlns="http://www.w3.org/2000/svg">
<g clip-path="url(#clip0_401_34517)">
<path d="M19 3H5C3.9 3 3 3.9 3 5V19C3 20.1 3.9 21 5 21H19C20.1 21 21 20.1 21 19V5C21 3.9 20.1 3 19 3ZM19 14H15.44C15.08 14 14.76 14.19 14.58 14.5C14.06 15.4 13.11 16 12 16C10.89 16 9.94 15.4 9.42 14.5C9.24 14.19 8.91 14 8.56 14H5V5H19V14ZM14.79 10H13V7C13 6.45 12.55 6 12 6C11.45 6 11 6.45 11 7V10H9.21C8.76 10 8.54 10.54 8.86 10.85L11.65 13.64C11.85 13.84 12.16 13.84 12.36 13.64L15.15 10.85C15.46 10.54 15.24 10 14.79 10Z" fill="black"/>
</g>
<defs>
<clipPath id="clip0_401_34517">
<rect width="24" height="24" fill="white"/>
</clipPath>
</defs>
</svg>
