<svg width="24" height="24" viewBox="0 0 24 24" fill="none" xmlns="http://www.w3.org/2000/svg">
<g clip-path="url(#clip0_401_33647)">
<path d="M10 10V14C10 14.55 10.45 15 11 15C11.55 15 12 14.55 12 14V4H14V14C14 14.55 14.45 15 15 15C15.55 15 16 14.55 16 14V4H17C17.55 4 18 3.55 18 3C18 2.45 17.55 2 17 2H10.17C8.08002 2 6.22002 3.53 6.02002 5.61C5.79002 7.99 7.66002 10 10 10ZM8.00002 17V15.21C8.00002 14.76 7.46002 14.54 7.15002 14.86L4.36002 17.65C4.16002 17.85 4.16002 18.16 4.36002 18.36L7.15002 21.15C7.46002 21.46 8.00002 21.24 8.00002 20.79V19H19C19.55 19 20 18.55 20 18C20 17.45 19.55 17 19 17H8.00002Z" fill="black"/>
</g>
<defs>
<clipPath id="clip0_401_33647">
<rect width="24" height="24" fill="white"/>
</clipPath>
</defs>
</svg>
