<svg width="24" height="24" viewBox="0 0 24 24" fill="none" xmlns="http://www.w3.org/2000/svg">
<g clip-path="url(#clip0_401_33842)">
<path d="M11.3 2.25994L5.3 4.50994C4.52 4.80994 4 5.54994 4 6.38994V11.0899C4 15.9199 7.13 20.4599 11.43 21.8399C11.8 21.9599 12.2 21.9599 12.57 21.8399C16.87 20.4599 20 15.9299 20 11.0899V6.38994C20 5.55994 19.48 4.80994 18.7 4.51994L12.7 2.26994C12.25 2.08994 11.75 2.08994 11.3 2.25994ZM15.97 14.4099C14.13 16.5799 10.76 16.5099 9.01 14.3399C6.82 11.6199 8.36 7.61994 11.7 7.00994C12.04 6.94994 12.33 7.27994 12.21 7.60994C11.75 8.83994 11.82 10.2499 12.53 11.4699C13.24 12.6899 14.42 13.4599 15.71 13.6699C16.05 13.7199 16.2 14.1399 15.97 14.4099Z" fill="black"/>
</g>
<defs>
<clipPath id="clip0_401_33842">
<rect width="24" height="24" fill="white"/>
</clipPath>
</defs>
</svg>
