<svg width="24" height="24" viewBox="0 0 24 24" fill="none" xmlns="http://www.w3.org/2000/svg">
<g clip-path="url(#clip0_401_34253)">
<path d="M8.41001 14.96C8.22001 14.96 8.04001 14.93 7.89001 14.88C7.73001 14.82 7.60001 14.75 7.49001 14.64C7.38001 14.54 7.29001 14.42 7.23001 14.27C7.17001 14.13 7.14001 13.97 7.14001 13.8H5.84001C5.84001 14.16 5.91001 14.48 6.05001 14.75C6.19001 15.02 6.38001 15.25 6.61001 15.44C6.85001 15.62 7.12001 15.76 7.43001 15.85C7.73001 15.95 8.05001 16 8.39001 16C8.76001 16 9.11001 15.95 9.42001 15.85C9.74001 15.75 10.02 15.6 10.25 15.41C10.48 15.22 10.67 14.98 10.8 14.69C10.93 14.4 11 14.08 11 13.72C11 13.53 10.98 13.34 10.93 13.16C10.88 12.98 10.81 12.81 10.7 12.65C10.6 12.49 10.46 12.35 10.3 12.22C10.13 12.09 9.93001 11.99 9.69001 11.91C9.89001 11.82 10.06 11.71 10.21 11.58C10.36 11.45 10.48 11.31 10.58 11.16C10.68 11.01 10.75 10.86 10.8 10.7C10.85 10.54 10.87 10.38 10.87 10.22C10.87 9.85999 10.81 9.53999 10.69 9.25999C10.57 8.97999 10.4 8.74999 10.18 8.56999C9.98001 8.37999 9.71001 8.23999 9.41001 8.13999C9.10001 8.04999 8.76001 7.99999 8.39001 7.99999C8.03001 7.99999 7.70001 8.04999 7.39001 8.15999C7.09001 8.26999 6.82001 8.41999 6.60001 8.60999C6.39001 8.79999 6.22001 9.01999 6.09001 9.27999C5.97001 9.53999 5.91001 9.81999 5.91001 10.13H7.21001C7.21001 9.95999 7.24001 9.80999 7.30001 9.67999C7.36001 9.54999 7.44001 9.42999 7.55001 9.33999C7.66001 9.24999 7.78001 9.16999 7.93001 9.11999C8.08001 9.06999 8.23001 9.03999 8.41001 9.03999C8.81001 9.03999 9.11001 9.13999 9.30001 9.34999C9.49001 9.54999 9.59001 9.83999 9.59001 10.21C9.59001 10.39 9.56001 10.55 9.51001 10.7C9.46001 10.85 9.37001 10.97 9.26001 11.07C9.15001 11.17 9.01001 11.25 8.85001 11.31C8.69001 11.37 8.49001 11.4 8.27001 11.4H7.50001V12.43H8.27001C8.49001 12.43 8.69001 12.45 8.87001 12.5C9.05001 12.55 9.20001 12.63 9.32001 12.73C9.44001 12.84 9.54001 12.97 9.61001 13.13C9.68001 13.29 9.71001 13.48 9.71001 13.7C9.71001 14.11 9.59001 14.42 9.36001 14.63C9.13001 14.86 8.81001 14.96 8.41001 14.96ZM17.71 10.24C17.53 9.76999 17.28 9.36999 16.96 9.03999C16.64 8.70999 16.26 8.44999 15.82 8.26999C15.39 8.08999 14.9 7.99999 14.36 7.99999H12V16H14.3C14.85 16 15.36 15.91 15.81 15.73C16.26 15.55 16.65 15.3 16.97 14.97C17.29 14.64 17.54 14.24 17.71 13.78C17.88 13.31 17.97 12.79 17.97 12.21V11.81C17.97 11.23 17.88 10.71 17.71 10.24ZM16.58 12.2C16.58 12.62 16.53 12.99 16.44 13.33C16.34 13.66 16.2 13.95 16.01 14.18C15.82 14.41 15.58 14.59 15.3 14.71C15.01 14.83 14.68 14.89 14.31 14.89H13.4V9.10999H14.37C15.09 9.10999 15.64 9.33999 16.01 9.79999C16.39 10.26 16.58 10.92 16.58 11.79V12.2ZM15.15 3.83999L16.48 2.50999C19.57 3.96999 21.82 6.87999 22.37 10.37C22.43 10.78 22.81 11.06 23.23 10.99C23.64 10.93 23.92 10.54 23.85 10.13C23.25 6.31999 20.89 3.11999 17.61 1.37999C15.94 0.48999 13.78 -0.13001 11.34 0.0199902L15.15 3.83999ZM8.85001 20.15L7.52001 21.48C4.43001 20.02 2.18001 17.11 1.63001 13.62C1.57001 13.21 1.19001 12.93 0.770013 13C0.360013 13.06 0.0800133 13.45 0.150013 13.86C0.750013 17.67 3.11001 20.87 6.39001 22.61C8.06001 23.5 10.22 24.12 12.66 23.97L8.85001 20.15Z" fill="black"/>
</g>
<defs>
<clipPath id="clip0_401_34253">
<rect width="24" height="24" fill="white"/>
</clipPath>
</defs>
</svg>
