<svg width="24" height="24" viewBox="0 0 24 24" fill="none" xmlns="http://www.w3.org/2000/svg">
<g clip-path="url(#clip0_401_33063)">
<path d="M9.99998 15C9.44998 15 8.99998 15.45 8.99998 16V20H5.99998C5.44998 20 4.99998 19.55 4.99998 19V15.33L4.61998 15.71C4.22998 16.1 3.59998 16.1 3.20998 15.71C2.81998 15.32 2.81998 14.69 3.20998 14.3L9.29998 8.21C9.68998 7.82 10.32 7.82 10.71 8.21L16.8 14.3C17.19 14.69 17.19 15.32 16.8 15.71C16.41 16.1 15.78 16.1 15.39 15.71L15 15.33V19C15 19.55 14.55 20 14 20H11V16C11 15.45 10.55 15 9.99998 15ZM17.5 7.5V8.39L16.42 9.47C16.24 9.65 16.21 9.95 16.37 10.16C16.56 10.39 16.9 10.4 17.11 10.2L17.5 9.81V10.5C17.5 10.78 17.72 11 18 11C18.28 11 18.5 10.78 18.5 10.5V9.81L18.89 10.2C19.1 10.41 19.44 10.39 19.63 10.16C19.8 9.96 19.77 9.66 19.58 9.47L18.5 8.39V7.5H19.39L20.47 8.58C20.65 8.76 20.95 8.79 21.16 8.63C21.39 8.44 21.4 8.1 21.2 7.89L20.81 7.5H21.5C21.78 7.5 22 7.28 22 7C22 6.72 21.78 6.5 21.5 6.5H20.81L21.2 6.11C21.41 5.9 21.39 5.56 21.16 5.37C20.96 5.2 20.66 5.23 20.47 5.42L19.39 6.5H18.5V5.61L19.58 4.53C19.76 4.35 19.79 4.05 19.63 3.84C19.44 3.61 19.1 3.6 18.89 3.8L18.5 4.19V3.5C18.5 3.22 18.28 3 18 3C17.72 3 17.5 3.22 17.5 3.5V4.19L17.11 3.8C16.9 3.59 16.56 3.61 16.37 3.84C16.2 4.04 16.23 4.34 16.42 4.53L17.5 5.61V6.5H16.61L15.53 5.42C15.35 5.24 15.05 5.21 14.84 5.37C14.61 5.56 14.6 5.9 14.8 6.11L15.19 6.5H14.5C14.22 6.5 14 6.72 14 7C14 7.28 14.22 7.5 14.5 7.5H15.19L14.8 7.89C14.59 8.1 14.61 8.44 14.84 8.63C15.04 8.8 15.34 8.77 15.53 8.58L16.61 7.5H17.5Z" fill="black"/>
</g>
<defs>
<clipPath id="clip0_401_33063">
<rect width="24" height="24" fill="white"/>
</clipPath>
</defs>
</svg>
