<svg width="24" height="24" viewBox="0 0 24 24" fill="none" xmlns="http://www.w3.org/2000/svg">
<g clip-path="url(#clip0_401_33302)">
<path d="M3 21H5V19H3V21ZM7 21H9V19H7V21ZM5 7H3V9H5V7ZM3 17H5V15H3V17ZM9 3H7V5H9V3ZM5 3H3V5H5V3ZM17 3H15V5H17V3ZM19 9H21V7H19V9ZM19 3V5H21V3H19ZM15 21H17V19H15V21ZM12 3C11.45 3 11 3.45 11 4V11H4C3.45 11 3 11.45 3 12C3 12.55 3.45 13 4 13H11V20C11 20.55 11.45 21 12 21C12.55 21 13 20.55 13 20V13H20C20.55 13 21 12.55 21 12C21 11.45 20.55 11 20 11H13V4C13 3.45 12.55 3 12 3ZM19 21H21V19H19V21ZM19 17H21V15H19V17Z" fill="black"/>
</g>
<defs>
<clipPath id="clip0_401_33302">
<rect width="24" height="24" fill="white"/>
</clipPath>
</defs>
</svg>
