<svg width="24" height="24" viewBox="0 0 24 24" fill="none" xmlns="http://www.w3.org/2000/svg">
<g clip-path="url(#clip0_401_32559)">
<path d="M7 19.0004C5.9 19.0004 5 19.9004 5 21.0004H19C19 19.9004 18.1 19.0004 17 19.0004H13V17.0004H16C17.1 17.0004 18 16.1004 18 15.0004H10C8.34 15.0004 7 13.6604 7 12.0004C7 10.9104 7.59 9.96037 8.46 9.44037C8.17 9.03037 8 8.54037 8 8.00037C8 7.79037 8.04 7.58037 8.09 7.38037C6.28 8.13037 5 9.92037 5 12.0004C5 14.7604 7.24 17.0004 10 17.0004V19.0004H7Z" fill="black"/>
<path d="M10.56 5.51015C11.91 5.54015 13 6.64015 13 8.00015C13 8.75015 12.67 9.41015 12.15 9.87015L12.4 10.5501C12.59 11.0702 13.16 11.3401 13.68 11.1501C13.87 11.6701 14.44 11.9401 14.96 11.7501C15.48 11.5602 15.75 10.9902 15.56 10.4701C16.08 10.2802 16.35 9.71015 16.16 9.19015L14.1 3.54015C13.91 3.02015 13.34 2.75015 12.82 2.94015C12.63 2.42015 12.06 2.15015 11.54 2.34015C11.02 2.53015 10.75 3.10015 10.94 3.62015C10.42 3.81015 10.15 4.38015 10.34 4.90015L10.56 5.51015Z" fill="black"/>
<path d="M10.5 9.5C11.3284 9.5 12 8.82843 12 8C12 7.17157 11.3284 6.5 10.5 6.5C9.67157 6.5 9 7.17157 9 8C9 8.82843 9.67157 9.5 10.5 9.5Z" fill="black"/>
</g>
<defs>
<clipPath id="clip0_401_32559">
<rect width="24" height="24" fill="white"/>
</clipPath>
</defs>
</svg>
