<svg width="24" height="24" viewBox="0 0 24 24" fill="none" xmlns="http://www.w3.org/2000/svg">
<g clip-path="url(#clip0_401_33102)">
<path d="M6.5 20C5.67 20 5 19.33 5 18.5V15.5C5 14.67 5.67 14 6.5 14C7.33 14 8 14.67 8 15.5V18.5C8 19.33 7.33 20 6.5 20ZM12.5 20C11.67 20 11 19.33 11 18.5V10.5C11 9.67 11.67 9 12.5 9C13.33 9 14 9.67 14 10.5V18.5C14 19.33 13.33 20 12.5 20Z" fill="black"/>
</g>
<defs>
<clipPath id="clip0_401_33102">
<rect width="24" height="24" fill="white"/>
</clipPath>
</defs>
</svg>
