<svg width="24" height="24" viewBox="0 0 24 24" fill="none" xmlns="http://www.w3.org/2000/svg">
<g clip-path="url(#clip0_401_33833)">
<path d="M20 2H4C2.9 2 2 2.9 2 4V20C2 21.1 2.9 22 4 22H20C21.1 22 22 21.1 22 20V4C22 2.9 21.1 2 20 2ZM19 20H5C4.45 20 4 19.55 4 19V5C4 4.45 4.45 4 5 4H19C19.55 4 20 4.45 20 5V19C20 19.55 19.55 20 19 20ZM16 6H13C11.9 6 11 6.9 11 8V10.28C10.4 10.63 10 11.26 10 12C10 13.1 10.9 14 12 14C13.1 14 14 13.1 14 12C14 11.26 13.6 10.62 13 10.28V8H16V15C16 15.55 15.55 16 15 16H9C8.45 16 8 15.55 8 15V8H9C9.55 8 10 7.55 10 7C10 6.45 9.55 6 9 6H8C6.9 6 6 6.9 6 8V16C6 17.1 6.9 18 8 18H16C17.1 18 18 17.1 18 16V8C18 6.9 17.1 6 16 6Z" fill="black"/>
</g>
<defs>
<clipPath id="clip0_401_33833">
<rect width="24" height="24" fill="white"/>
</clipPath>
</defs>
</svg>
