<svg width="24" height="24" viewBox="0 0 24 24" fill="none" xmlns="http://www.w3.org/2000/svg">
<g clip-path="url(#clip0_401_34478)">
<path d="M18 12.22V10.23C18 9.47 17.57 8.78 16.89 8.44L13 6.5V5H14C14.55 5 15 4.55 15 4C15 3.45 14.55 3 14 3H13V2C13 1.45 12.55 1 12 1C11.45 1 11 1.45 11 2V3H10C9.45 3 9 3.45 9 4C9 4.55 9.45 5 10 5H11V6.5L7.11 8.45C6.43 8.79 6 9.48 6 10.24V12.23L3.19 13.48C2.47 13.79 2 14.51 2 15.3V20C2 21.1 2.9 22 4 22H10V19.11C10 18.11 10.68 17.19 11.66 17.03C12.92 16.82 14 17.79 14 19V22H20C21.1 22 22 21.1 22 20V15.3C22 14.51 21.53 13.79 20.81 13.47L18 12.22ZM12 13.5C11.17 13.5 10.5 12.83 10.5 12C10.5 11.17 11.17 10.5 12 10.5C12.83 10.5 13.5 11.17 13.5 12C13.5 12.83 12.83 13.5 12 13.5Z" fill="black"/>
</g>
<defs>
<clipPath id="clip0_401_34478">
<rect width="24" height="24" fill="white"/>
</clipPath>
</defs>
</svg>
