<svg width="24" height="24" viewBox="0 0 24 24" fill="none" xmlns="http://www.w3.org/2000/svg">
<g clip-path="url(#clip0_401_33330)">
<path d="M4 11V7.99999H11.29C10.52 5.39999 11.5 3.38999 11.66 3.02999C2.97 2.66999 2 5.01999 2 6.99999V16.5C2 17.45 2.38 18.31 3 18.94V20.5C3 21.33 3.67 22 4.5 22C5.33 22 6 21.33 6 20.5V20H14V20.5C14 21.32 14.67 22 15.5 22C16.32 22 17 21.33 17 20.5V18.94C17.62 18.31 18 17.45 18 16.5V13C16.09 13 14.37 12.24 13.11 11H4ZM6.5 17C5.67 17 5 16.33 5 15.5C5 14.67 5.67 14 6.5 14C7.33 14 8 14.67 8 15.5C8 16.33 7.33 17 6.5 17ZM15 15.5C15 16.33 14.33 17 13.5 17C12.67 17 12 16.33 12 15.5C12 14.67 12.67 14 13.5 14C14.33 14 15 14.67 15 15.5Z" fill="black"/>
<path d="M18 1C15.24 1 13 3.24 13 6C13 8.76 15.24 11 18 11C20.76 11 23 8.76 23 6C23 3.24 20.76 1 18 1ZM18.5 6.5C18.5 6.78 18.28 7 18 7C17.72 7 17.5 6.78 17.5 6.5V3.5C17.5 3.22 17.72 3 18 3C18.28 3 18.5 3.22 18.5 3.5V6.5ZM18.5 8.5C18.5 8.78 18.28 9 18 9C17.72 9 17.5 8.78 17.5 8.5C17.5 8.22 17.72 8 18 8C18.28 8 18.5 8.22 18.5 8.5Z" fill="black"/>
</g>
<defs>
<clipPath id="clip0_401_33330">
<rect width="24" height="24" fill="white"/>
</clipPath>
</defs>
</svg>
