<svg width="24" height="24" viewBox="0 0 24 24" fill="none" xmlns="http://www.w3.org/2000/svg">
<g clip-path="url(#clip0_401_34191)">
<path d="M21 3H3C1.9 3 1 3.9 1 5V19C1 20.1 1.9 21 3 21H21C22.1 21 23 20.1 23 19V5C23 3.9 22.1 3 21 3ZM21 18C21 18.55 20.55 19 20 19H4C3.45 19 3 18.55 3 18V6C3 5.45 3.45 5 4 5H20C20.55 5 21 5.45 21 6V18ZM10 8C9.45 8 9 8.45 9 9V15C9 15.55 9.45 16 10 16C10.55 16 11 15.55 11 15V9C11 8.45 10.55 8 10 8ZM14 8C13.45 8 13 8.45 13 9V15C13 15.55 13.45 16 14 16C14.55 16 15 15.55 15 15V9C15 8.45 14.55 8 14 8Z" fill="black"/>
</g>
<defs>
<clipPath id="clip0_401_34191">
<rect width="24" height="24" fill="white"/>
</clipPath>
</defs>
</svg>
