<svg width="24" height="24" viewBox="0 0 24 24" fill="none" xmlns="http://www.w3.org/2000/svg">
<g clip-path="url(#clip0_401_34181)">
<path d="M22 3H7.00002C6.31002 3 5.77002 3.35 5.41002 3.88L0.370017 11.45C0.150017 11.79 0.150017 12.22 0.370017 12.56L5.41002 20.12C5.77002 20.64 6.38002 21 7.07002 21H22C23.1 21 24 20.1 24 19V5C24 3.9 23.1 3 22 3ZM9.00002 13.5C8.17002 13.5 7.50002 12.83 7.50002 12C7.50002 11.17 8.17002 10.5 9.00002 10.5C9.83002 10.5 10.5 11.17 10.5 12C10.5 12.83 9.83002 13.5 9.00002 13.5ZM14 13.5C13.17 13.5 12.5 12.83 12.5 12C12.5 11.17 13.17 10.5 14 10.5C14.83 10.5 15.5 11.17 15.5 12C15.5 12.83 14.83 13.5 14 13.5ZM19 13.5C18.17 13.5 17.5 12.83 17.5 12C17.5 11.17 18.17 10.5 19 10.5C19.83 10.5 20.5 11.17 20.5 12C20.5 12.83 19.83 13.5 19 13.5Z" fill="black"/>
</g>
<defs>
<clipPath id="clip0_401_34181">
<rect width="24" height="24" fill="white"/>
</clipPath>
</defs>
</svg>
