<svg width="24" height="24" viewBox="0 0 24 24" fill="none" xmlns="http://www.w3.org/2000/svg">
<g clip-path="url(#clip0_401_32985)">
<path d="M21 13H15V11H21C21.55 11 22 10.55 22 10C22 9.45 21.55 9 21 9H15V3C15 2.45 14.55 2 14 2C13.45 2 13 2.45 13 3V9H11V3C11 2.45 10.55 2 10 2C9.45 2 9 2.45 9 3V9H3C2.45 9 2 9.45 2 10C2 10.55 2.45 11 3 11H9V13H3C2.45 13 2 13.45 2 14C2 14.55 2.45 15 3 15H9V21C9 21.55 9.45 22 10 22C10.55 22 11 21.55 11 21V15H13V21C13 21.55 13.45 22 14 22C14.55 22 15 21.55 15 21V15H21C21.55 15 22 14.55 22 14C22 13.45 21.55 13 21 13ZM13 13H11V11H13V13Z" fill="black"/>
</g>
<defs>
<clipPath id="clip0_401_32985">
<rect width="24" height="24" fill="white"/>
</clipPath>
</defs>
</svg>
