<svg width="24" height="24" viewBox="0 0 24 24" fill="none" xmlns="http://www.w3.org/2000/svg">
<g clip-path="url(#clip0_401_34225)">
<path d="M14 6.0001H17V13.8801L19 15.8801V5.0001C19 4.4501 18.55 4.0001 18 4.0001H14C14 3.4501 13.55 3.0001 13 3.0001H6.11998L14 10.8801V6.0001ZM21.17 20.8801L12 11.7101V13.0001H9.99998V11.0001H11.29L3.11998 2.8301C2.72998 2.4401 2.09998 2.4401 1.70998 2.8301C1.31998 3.2201 1.31998 3.8501 1.70998 4.2401L4.99998 7.5401V19.0001H3.99998C3.44998 19.0001 2.99998 19.4501 2.99998 20.0001C2.99998 20.5501 3.44998 21.0001 3.99998 21.0001H13C13.55 21.0001 14 20.5501 14 20.0001V16.5401L19.75 22.2901C20.14 22.6801 20.77 22.6801 21.16 22.2901C21.56 21.9001 21.56 21.2701 21.17 20.8801Z" fill="black"/>
</g>
<defs>
<clipPath id="clip0_401_34225">
<rect width="24" height="24" fill="white"/>
</clipPath>
</defs>
</svg>
