<svg width="24" height="24" viewBox="0 0 24 24" fill="none" xmlns="http://www.w3.org/2000/svg">
<g clip-path="url(#clip0_401_32546)">
<path d="M21 4.45C21 3.65 20.35 3 19.55 3H4.45C3.65 3 3 3.65 3 4.45C3 4.8 3.13 5.15 3.37 5.41L11 14V19H7C6.45 19 6 19.45 6 20C6 20.55 6.45 21 7 21H17C17.55 21 18 20.55 18 20C18 19.45 17.55 19 17 19H13V14L20.63 5.41C20.87 5.15 21 4.8 21 4.45ZM7.43 7L5.66 5H18.35L16.57 7H7.43Z" fill="black"/>
</g>
<defs>
<clipPath id="clip0_401_32546">
<rect width="24" height="24" fill="white"/>
</clipPath>
</defs>
</svg>
