<svg width="24" height="24" viewBox="0 0 24 24" fill="none" xmlns="http://www.w3.org/2000/svg">
<g clip-path="url(#clip0_401_34432)">
<path d="M17 5H15V3H17V5ZM19 9H21V7H19V9ZM19 13H21V11H19V13ZM11 21H13V19H11V21ZM7 5H9V3H7V5ZM3 17H5V15H3V17ZM5 21V19H3C3 20.1 3.9 21 5 21ZM19 3V5H21C21 3.9 20.1 3 19 3ZM11 5H13V3H11V5ZM3 9H5V7H3V9ZM7 21H9V19H7V21ZM3 13H5V11H3V13ZM3 5H5V3C3.9 3 3 3.9 3 5ZM18.71 17.29L20.15 15.85C20.47 15.53 20.24 15 19.8 15H16C15.45 15 15 15.45 15 16V19.79C15 20.24 15.54 20.46 15.85 20.14L17.29 18.7L19.29 20.7C19.68 21.09 20.31 21.09 20.7 20.7C21.09 20.31 21.09 19.68 20.7 19.29L18.71 17.29Z" fill="black"/>
</g>
<defs>
<clipPath id="clip0_401_34432">
<rect width="24" height="24" fill="white"/>
</clipPath>
</defs>
</svg>
