<svg width="24" height="24" viewBox="0 0 24 24" fill="none" xmlns="http://www.w3.org/2000/svg">
<g clip-path="url(#clip0_401_33457)">
<path d="M7.75997 7.83L7.77997 7.85C8.12997 8.2 8.66997 8.23 9.07997 7.94C9.90997 7.37 10.92 7.02 12 7.02C13.08 7.02 14.09 7.37 14.92 7.95C15.32 8.24 15.87 8.21 16.22 7.86L16.24 7.84C16.66 7.42 16.63 6.7 16.15 6.35C14.98 5.5 13.55 5 12 5C10.45 5 9.01997 5.5 7.85997 6.34C7.36997 6.69 7.33997 7.41 7.75997 7.83Z" fill="black"/>
<path d="M12 1C9.37999 1 6.96999 1.93 5.07999 3.47C4.61999 3.84 4.56999 4.53 4.99999 4.96C5.35999 5.32 5.92999 5.35 6.31999 5.03C7.85999 3.76 9.84999 3 12 3C14.15 3 16.14 3.76 17.69 5.03C18.08 5.35 18.65 5.32 19.01 4.96C19.43 4.54 19.39 3.85 18.93 3.47C17.03 1.93 14.62 1 12 1Z" fill="black"/>
<path d="M15 10H9C8.45 10 8 10.45 8 11V21C8 21.55 8.45 22 9 22H14.99C15.54 22 15.99 21.55 15.99 21L16 11C16 10.45 15.55 10 15 10ZM15 20H9V12H15V20Z" fill="black"/>
</g>
<defs>
<clipPath id="clip0_401_33457">
<rect width="24" height="24" fill="white"/>
</clipPath>
</defs>
</svg>
