<svg width="24" height="24" viewBox="0 0 24 24" fill="none" xmlns="http://www.w3.org/2000/svg">
<g clip-path="url(#clip0_401_33527)">
<path d="M13 8.56982C12.21 8.56982 11.57 9.20982 11.57 9.99982C11.57 10.7898 12.21 11.4298 13 11.4298C13.79 11.4298 14.43 10.7898 14.43 9.99982C14.43 9.20982 13.79 8.56982 13 8.56982Z" fill="black"/>
<path d="M13.21 3.00002C9.37001 2.89002 6.21001 5.87002 6.02001 9.64002L4.10001 12.2C3.85001 12.53 4.09001 13 4.50001 13H6.00001V16C6.00001 17.1 6.90001 18 8.00001 18H9.00001V20C9.00001 20.55 9.45001 21 10 21H15C15.55 21 16 20.55 16 20V16.32C18.44 15.16 20.1 12.64 20 9.74002C19.86 6.12002 16.82 3.11002 13.21 3.00002ZM16 10C16 10.13 15.99 10.26 15.98 10.39L16.81 11.05C16.89 11.11 16.91 11.21 16.86 11.3L16.06 12.69C16.01 12.78 15.9 12.81 15.82 12.78L14.83 12.38C14.62 12.54 14.4 12.67 14.16 12.77L14 13.83C13.99 13.93 13.9 14 13.8 14H12.2C12.1 14 12.02 13.93 12 13.83L11.85 12.77C11.6 12.67 11.38 12.54 11.17 12.38L10.18 12.78C10.09 12.81 9.98001 12.78 9.93001 12.69L9.13001 11.3C9.08001 11.22 9.10001 11.11 9.18001 11.05L10.02 10.39C10.01 10.26 10 10.13 10 10C10 9.87002 10.02 9.73002 10.04 9.61002L9.19001 8.95002C9.11001 8.89002 9.09001 8.79002 9.14001 8.69002L9.94001 7.31002C9.99001 7.22002 10.09 7.19002 10.18 7.22002L11.18 7.62002C11.38 7.47002 11.61 7.33002 11.85 7.23002L12 6.17002C12.02 6.07002 12.1 6.00002 12.2 6.00002H13.8C13.9 6.00002 13.98 6.07002 14 6.17002L14.15 7.23002C14.39 7.33002 14.61 7.46002 14.82 7.62002L15.82 7.22002C15.91 7.19002 16.02 7.22002 16.06 7.31002L16.86 8.69002C16.91 8.78002 16.89 8.89002 16.81 8.95002L15.96 9.61002C15.99 9.73002 16 9.86002 16 10Z" fill="black"/>
</g>
<defs>
<clipPath id="clip0_401_33527">
<rect width="24" height="24" fill="white"/>
</clipPath>
</defs>
</svg>
