<svg width="24" height="24" viewBox="0 0 24 24" fill="none" xmlns="http://www.w3.org/2000/svg">
<g clip-path="url(#clip0_401_33666)">
<path d="M7 21H4C3.45 21 3 20.55 3 20V8.68998C3 8.26998 3.25 7.89998 3.64 7.74998L14.64 3.51998C15.3 3.26998 16 3.74998 16 4.45998V9.99998H8C7.45 9.99998 7 10.45 7 11V21ZM17 12H10C9.45 12 9 12.45 9 13V20C9 20.55 9.45 21 10 21H14V17C14 16.45 14.45 16 15 16C15.55 16 16 16.45 16 17V21H20C20.55 21 21 20.55 21 20V12C21 10.9 20.1 9.99998 19 9.99998C17.9 9.99998 17 10.9 17 12Z" fill="black"/>
</g>
<defs>
<clipPath id="clip0_401_33666">
<rect width="24" height="24" fill="white"/>
</clipPath>
</defs>
</svg>
