<svg width="24" height="24" viewBox="0 0 24 24" fill="none" xmlns="http://www.w3.org/2000/svg">
<g clip-path="url(#clip0_401_33495)">
<path d="M15.67 4H14V3C14 2.45 13.55 2 13 2H11C10.45 2 10 2.45 10 3V4H8.33C7.6 4 7 4.6 7 5.33V20.66C7 21.4 7.6 22 8.34 22H15.66C16.4 22 17 21.4 17 20.67V5.33C17 4.6 16.4 4 15.67 4ZM13 18H11V16H13V18ZM14.3 12.69C14.3 12.69 13.92 13.11 13.63 13.4C13.49 13.54 13.36 13.71 13.24 13.87L13.15 14.02C13.07 14.14 13.01 14.27 12.96 14.39C12.87 14.61 12.8 14.82 12.8 15H11.2C11.2 14.58 11.32 14.2 11.49 13.87C11.55 13.76 11.62 13.66 11.69 13.56C11.72 13.51 11.75 13.45 11.79 13.4C11.9 13.26 12.02 13.12 12.13 13L13.06 12.06C13.33 11.79 13.5 11.41 13.5 11C13.5 10.17 12.83 9.5 12 9.5C11.35 9.5 10.79 9.91 10.59 10.49C10.48 10.8 10.2 11 9.88 11C9.36 11 9 10.48 9.17 9.99C9.59 8.83 10.69 8 12 8C13.66 8 15 9.34 15 11C15 11.66 14.73 12.26 14.3 12.69Z" fill="black"/>
</g>
<defs>
<clipPath id="clip0_401_33495">
<rect width="24" height="24" fill="white"/>
</clipPath>
</defs>
</svg>
