<svg width="24" height="24" viewBox="0 0 24 24" fill="none" xmlns="http://www.w3.org/2000/svg">
<g clip-path="url(#clip0_401_33914)">
<path d="M6.14998 13.5C5.68998 13.5 5.34998 13.08 5.43998 12.63C5.47998 12.45 5.49998 12.24 5.49998 12C5.49998 11 4.49998 9.15 4.49998 8.38C4.49998 8.09 4.52998 7.79 4.66998 7.45C4.77998 7.18 5.03998 7 5.33998 7C5.78998 7 6.13998 7.42 6.04998 7.86C6.00998 8.04 5.99998 8.21 5.99998 8.38C5.99998 9.15 6.99998 11 6.99998 12C6.99998 12.42 6.91998 12.76 6.82998 13.01C6.72998 13.31 6.45998 13.5 6.14998 13.5ZM12.65 13.5C12.96 13.5 13.23 13.31 13.33 13.01C13.42 12.76 13.5 12.42 13.5 12C13.5 11 12.5 9.15 12.5 8.38C12.5 8.21 12.51 8.04 12.54 7.87C12.63 7.42 12.29 7 11.84 7C11.55 7 11.28 7.18 11.17 7.45C11.03 7.79 11 8.08 11 8.38C11 9.15 12 11 12 12C12 12.24 11.98 12.45 11.94 12.63C11.85 13.08 12.19 13.5 12.65 13.5ZM9.39998 13.5C9.70998 13.5 9.97998 13.31 10.08 13.01C10.17 12.76 10.25 12.42 10.25 12C10.25 11 9.24998 9.15 9.24998 8.38C9.24998 8.21 9.25998 8.04 9.28998 7.87C9.37998 7.42 9.03998 7 8.58998 7C8.28998 7 8.02998 7.18 7.91998 7.45C7.77998 7.79 7.74998 8.08 7.74998 8.38C7.74998 9.15 8.74998 11.01 8.74998 12C8.74998 12.24 8.72998 12.45 8.68998 12.63C8.59998 13.08 8.93998 13.5 9.39998 13.5ZM20.46 6.37C21.03 6.44 21.54 6.03 21.58 5.46C21.59 5.28 21.6 5.12 21.6 5C21.6 3.35 20.25 2 18.6 2C17.06 2 15.79 3.16 15.62 4.65L14.53 15H3.98998C3.38998 15 2.91998 15.54 3.00998 16.14C3.53998 19.46 6.38998 22 9.74998 22C13.23 22 16.09 19.27 16.46 15.77L17.61 4.9C17.66 4.39 18.08 4 18.6 4C19.15 4 19.6 4.45 19.6 5C19.6 5.07 19.59 5.18 19.59 5.31C19.55 5.84 19.93 6.3 20.46 6.37Z" fill="black"/>
</g>
<defs>
<clipPath id="clip0_401_33914">
<rect width="24" height="24" fill="white"/>
</clipPath>
</defs>
</svg>
