<svg width="24" height="24" viewBox="0 0 24 24" fill="none" xmlns="http://www.w3.org/2000/svg">
<g clip-path="url(#clip0_401_32714)">
<path d="M23 17.9998H21.8L23.59 19.7898C23.83 19.6098 24 19.3298 24 18.9998C24 18.4498 23.55 17.9998 23 17.9998ZM3.23 2.2798C2.84 1.8898 2.2 1.8898 1.81 2.2798C1.42 2.6698 1.42 3.2998 1.81 3.6898L2.65 4.5498C2.65 4.5498 1.99 5.1198 1.99 6.0198C2 6.9198 2 15.9998 2 15.9998L2.01 16.0098C2.01 17.0998 2.89 17.9898 3.98 17.9998H1C0.45 17.9998 0 18.4498 0 18.9998C0 19.5498 0.45 19.9998 1 19.9998H18.13L20.13 21.9998C20.52 22.3898 21.15 22.3898 21.54 21.9998C21.93 21.6098 21.93 20.9798 21.54 20.5898L3.23 2.2798ZM7 14.9998C7.31 13.5198 7.94 12.0698 9.08 10.9498L10.67 12.5398C9.13 12.9198 7.96 13.7098 7 14.9998ZM13 9.1298V8.1498C13 7.7098 13.52 7.4898 13.84 7.7798L15 8.8698L16.61 10.3698C16.82 10.5698 16.82 10.8998 16.61 11.0998L15.72 11.9298L21.3 17.5098C21.73 17.1398 22 16.6098 22 15.9998V5.9998C22 4.9098 21.11 4.0198 20.02 4.0198H7.8L12.94 9.1498C12.96 9.1398 12.98 9.1298 13 9.1298Z" fill="black"/>
</g>
<defs>
<clipPath id="clip0_401_32714">
<rect width="24" height="24" fill="white"/>
</clipPath>
</defs>
</svg>
