<svg width="24" height="24" viewBox="0 0 24 24" fill="none" xmlns="http://www.w3.org/2000/svg">
<g clip-path="url(#clip0_401_33238)">
<path d="M10.04 6.85L7.3 10H4.5C3.67 10 3 10.67 3 11.5V14.5C3 15.33 3.67 16 4.5 16H7.5C7.64 16 7.77 15.98 7.89 15.95L15 19.5V20.5C15 21.33 15.67 22 16.5 22H19.5C20.33 22 21 21.33 21 20.5V17.5C21 16.67 20.33 16 19.5 16H16.5C15.75 16 15.13 16.55 15.02 17.27L9 14.26V11.5C9 11.38 8.99 11.26 8.96 11.14L11.7 8H14.5C15.33 8 16 7.33 16 6.5V3.5C16 2.67 15.33 2 14.5 2H11.5C10.67 2 10 2.67 10 3.5V6.5C10 6.62 10.01 6.74 10.04 6.85Z" fill="black"/>
</g>
<defs>
<clipPath id="clip0_401_33238">
<rect width="24" height="24" fill="white"/>
</clipPath>
</defs>
</svg>
