<svg width="24" height="24" viewBox="0 0 24 24" fill="none" xmlns="http://www.w3.org/2000/svg">
<g clip-path="url(#clip0_401_33419)">
<path d="M14 10.0001V8.48008C14 7.77008 13.29 7.29008 12.63 7.55008L9 9.00008V8.52008C9 7.80008 8.27 7.31008 7.61 7.60008L3.21 9.48008C2.48 9.80008 2 10.5201 2 11.3201V20.0001C2 21.1001 2.9 22.0001 4 22.0001H20C21.1 22.0001 22 21.1001 22 20.0001V10.0001H14ZM9 17.0001C9 17.5501 8.55 18.0001 8 18.0001C7.45 18.0001 7 17.5501 7 17.0001V15.0001C7 14.4501 7.45 14.0001 8 14.0001C8.55 14.0001 9 14.4501 9 15.0001V17.0001ZM13 17.0001C13 17.5501 12.55 18.0001 12 18.0001C11.45 18.0001 11 17.5501 11 17.0001V15.0001C11 14.4501 11.45 14.0001 12 14.0001C12.55 14.0001 13 14.4501 13 15.0001V17.0001ZM17 17.0001C17 17.5501 16.55 18.0001 16 18.0001C15.45 18.0001 15 17.5501 15 17.0001V15.0001C15 14.4501 15.45 14.0001 16 14.0001C16.55 14.0001 17 14.4501 17 15.0001V17.0001Z" fill="black"/>
<path d="M20.12 2H18.89C18.38 2 17.96 2.38 17.9 2.88L17.2 8.5H21.8L21.11 2.88C21.05 2.38 20.62 2 20.12 2Z" fill="black"/>
</g>
<defs>
<clipPath id="clip0_401_33419">
<rect width="24" height="24" fill="white"/>
</clipPath>
</defs>
</svg>
