<svg width="24" height="24" viewBox="0 0 24 24" fill="none" xmlns="http://www.w3.org/2000/svg">
<g clip-path="url(#clip0_401_32835)">
<path d="M8.83 6L5.13 2.3C5.42 1.55 6.15 1 7 1L17 1.01C18.1 1.01 19 1.9 19 3V16.17L17 14.17V6H8.83ZM20.49 21.9C20.1 22.29 19.47 22.29 19.08 21.9L18.88 21.7C18.58 22.45 17.85 23 17 23H7C5.9 23 5 22.1 5 21V7.83L2.1 4.93C1.71 4.54 1.71 3.91 2.1 3.52C2.49 3.13 3.12 3.13 3.51 3.52L20.48 20.49C20.88 20.88 20.88 21.51 20.49 21.9ZM15.17 18L7 9.83V18H15.17Z" fill="black"/>
</g>
<defs>
<clipPath id="clip0_401_32835">
<rect width="24" height="24" fill="white"/>
</clipPath>
</defs>
</svg>
