<svg width="24" height="24" viewBox="0 0 24 24" fill="none" xmlns="http://www.w3.org/2000/svg">
<path d="M22.42 11.3401L20.56 9.22007L20.82 6.41007C20.87 5.91007 20.53 5.45007 20.05 5.34007L17.29 4.71007L15.85 2.28007C15.59 1.85007 15.06 1.67007 14.6 1.87007L12 3.00007L9.41002 1.89007C8.95002 1.69007 8.41002 1.87007 8.16002 2.30007L6.71002 4.72007L3.96002 5.34007C3.47002 5.45007 3.13002 5.90007 3.18002 6.41007L3.44002 9.21007L1.58002 11.3401C1.25002 11.7201 1.25002 12.2801 1.58002 12.6601L3.44002 14.7801L3.18002 17.6001C3.13002 18.1001 3.47002 18.5601 3.95002 18.6701L6.71002 19.3001L8.15002 21.7201C8.41002 22.1501 8.94002 22.3301 9.41002 22.1301L12 21.0001L14.59 22.1101C15.05 22.3101 15.59 22.1301 15.84 21.7001L17.28 19.2701L20.04 18.6401C20.53 18.5301 20.86 18.0701 20.81 17.5701L20.55 14.7601L22.41 12.6401C22.75 12.2801 22.75 11.7201 22.42 11.3401ZM13 17.0001H11V15.0001H13V17.0001ZM12 13.0001C11.45 13.0001 11 12.5501 11 12.0001V8.00007C11 7.45007 11.45 7.00007 12 7.00007C12.55 7.00007 13 7.45007 13 8.00007V12.0001C13 12.5501 12.55 13.0001 12 13.0001Z" fill="black"/>
</svg>
