<svg width="24" height="24" viewBox="0 0 24 24" fill="none" xmlns="http://www.w3.org/2000/svg">
<g clip-path="url(#clip0_401_32527)">
<path d="M10 20H14C14 21.1 13.1 22 12 22C10.9 22 10 21.1 10 20ZM14 9C14 11.61 15.67 13.83 18 14.66V17H19C19.55 17 20 17.45 20 18C20 18.55 19.55 19 19 19H5C4.45 19 4 18.55 4 18C4 17.45 4.45 17 5 17H6V10C6 7.21 7.91 4.86 10.5 4.2V3.5C10.5 2.67 11.17 2 12 2C12.83 2 13.5 2.67 13.5 3.5V4.2C14.21 4.38 14.86 4.69 15.45 5.1C14.54 6.14 14 7.51 14 9ZM23 8H21V6C21 5.45 20.55 5 20 5C19.45 5 19 5.45 19 6V8H17C16.45 8 16 8.45 16 9C16 9.55 16.45 10 17 10H19V12C19 12.55 19.45 13 20 13C20.55 13 21 12.55 21 12V10H23C23.55 10 24 9.55 24 9C24 8.45 23.55 8 23 8Z" fill="black"/>
</g>
<defs>
<clipPath id="clip0_401_32527">
<rect width="24" height="24" fill="white"/>
</clipPath>
</defs>
</svg>
