<svg width="24" height="24" viewBox="0 0 24 24" fill="none" xmlns="http://www.w3.org/2000/svg">
<g clip-path="url(#clip0_401_32797)">
<path d="M12 22C16.56 22 20.33 18.6 20.92 14.2C21.01 13.56 20.44 12.99 19.8 13.08C15.4 13.67 12 17.44 12 22ZM5.60002 10.25C5.60002 11.63 6.72002 12.75 8.10002 12.75C8.63002 12.75 9.11002 12.59 9.52002 12.31L9.50002 12.5C9.50002 13.88 10.62 15 12 15C13.38 15 14.5 13.88 14.5 12.5L14.48 12.31C14.88 12.59 15.37 12.75 15.9 12.75C17.28 12.75 18.4 11.63 18.4 10.25C18.4 9.25 17.81 8.4 16.97 8C17.81 7.6 18.4 6.75 18.4 5.75C18.4 4.37 17.28 3.25 15.9 3.25C15.37 3.25 14.89 3.41 14.48 3.69L14.5 3.5C14.5 2.12 13.38 1 12 1C10.62 1 9.50002 2.12 9.50002 3.5L9.52002 3.69C9.12002 3.41 8.63002 3.25 8.10002 3.25C6.72002 3.25 5.60002 4.37 5.60002 5.75C5.60002 6.75 6.19002 7.6 7.03002 8C6.19002 8.4 5.60002 9.25 5.60002 10.25ZM12 5.5C13.38 5.5 14.5 6.62 14.5 8C14.5 9.38 13.38 10.5 12 10.5C10.62 10.5 9.50002 9.38 9.50002 8C9.50002 6.62 10.62 5.5 12 5.5ZM3.08002 14.2C3.67002 18.6 7.44002 22 12 22C12 17.44 8.60002 13.67 4.20002 13.08C3.56002 12.99 2.99002 13.56 3.08002 14.2Z" fill="black"/>
</g>
<defs>
<clipPath id="clip0_401_32797">
<rect width="24" height="24" fill="white"/>
</clipPath>
</defs>
</svg>
