<svg width="24" height="24" viewBox="0 0 24 24" fill="none" xmlns="http://www.w3.org/2000/svg">
<g clip-path="url(#clip0_401_33233)">
<path d="M8 16.9999L11.39 12.3399C11.72 11.8799 12.37 11.7899 12.81 12.1399L21 18.4999V18.9999C21 19.5499 20.55 19.9999 20 19.9999H4C3.45 19.9999 3 19.5499 3 18.9999V13.2799C3.22 13.2799 3.44 13.3499 3.62 13.4999L8 16.9999ZM3 10.9999C3.44 10.9999 3.88 11.1499 4.25 11.4399L7.62 14.1299L10.39 10.3199C11.05 9.40991 12.34 9.21991 13.24 9.91991L21 15.9699V7.99991C21 7.44991 20.55 6.99991 20 6.99991H17L12.82 3.65991C12.37 3.29991 11.72 3.38991 11.38 3.85991L7 9.99991L3.6 7.44991C3.42 7.31991 3.21 7.24991 3 7.24991V10.9999Z" fill="black"/>
</g>
<defs>
<clipPath id="clip0_401_33233">
<rect width="24" height="24" fill="white"/>
</clipPath>
</defs>
</svg>
