<svg width="24" height="24" viewBox="0 0 24 24" fill="none" xmlns="http://www.w3.org/2000/svg">
<g clip-path="url(#clip0_401_34303)">
<path d="M13.9 11C13.44 8.72 11.42 7 9 7C6.24 7 4 9.24 4 12C4 14.76 6.24 17 9 17C11.42 17 13.44 15.28 13.9 13H18.17L17.29 13.88C16.9 14.27 16.9 14.9 17.29 15.29C17.68 15.68 18.31 15.68 18.7 15.29L21.29 12.7C21.68 12.31 21.68 11.68 21.29 11.29L18.7 8.7C18.31 8.31 17.68 8.31 17.29 8.7C16.9 9.09 16.9 9.72 17.29 10.11L18.17 11H13.9Z" fill="black"/>
</g>
<defs>
<clipPath id="clip0_401_34303">
<rect width="24" height="24" fill="white"/>
</clipPath>
</defs>
</svg>
