<svg width="24" height="24" viewBox="0 0 24 24" fill="none" xmlns="http://www.w3.org/2000/svg">
<g clip-path="url(#clip0_401_33123)">
<path d="M14.27 6.00002C13.72 6.95002 14.05 8.18002 15 8.73002C15.95 9.28001 17.18 8.95002 17.73 8.00002C18.28 7.05002 17.95 5.82002 17 5.27002C16.05 4.72002 14.82 5.05002 14.27 6.00002Z" fill="black"/>
<path d="M15.84 10.4098C15.84 10.4098 14.21 9.46983 13.24 8.90983C11.11 7.66983 10.23 5.07983 11.06 2.83983C11.23 2.37983 11.05 1.86983 10.63 1.62983C10.1 1.32983 9.40998 1.55983 9.19998 2.12983C8.24998 4.63983 8.84998 7.47983 10.66 9.39983L6.00998 17.4498C5.72998 17.9298 5.89998 18.5398 6.37998 18.8198C6.85998 19.0998 7.46998 18.9298 7.74998 18.4498L8.74998 16.7198L10.48 17.7198L7.97998 22.0498C7.69998 22.5298 7.86998 23.1398 8.34998 23.4198C8.82998 23.6998 9.43998 23.5298 9.71998 23.0498L15.51 13.0298C16.49 14.3698 16.77 16.1498 16.17 17.7498C16 18.1998 16.19 18.7098 16.6 18.9498C17.13 19.2598 17.82 19.0298 18.04 18.4498C19.01 15.8298 18.45 12.6098 15.84 10.4098Z" fill="black"/>
<path d="M12.75 3.7999C13.47 4.2099 14.38 3.9699 14.8 3.2499C15.21 2.5299 14.97 1.6199 14.25 1.1999C13.53 0.789899 12.62 1.0299 12.2 1.7499C11.79 2.4699 12.03 3.3899 12.75 3.7999Z" fill="black"/>
</g>
<defs>
<clipPath id="clip0_401_33123">
<rect width="24" height="24" fill="white"/>
</clipPath>
</defs>
</svg>
