<svg width="24" height="24" viewBox="0 0 24 24" fill="none" xmlns="http://www.w3.org/2000/svg">
<g clip-path="url(#clip0_401_33139)">
<path d="M12 8C13.1046 8 14 7.10457 14 6C14 4.89543 13.1046 4 12 4C10.8954 4 10 4.89543 10 6C10 7.10457 10.8954 8 12 8Z" fill="black"/>
<path d="M6 20C7.10457 20 8 19.1046 8 18C8 16.8954 7.10457 16 6 16C4.89543 16 4 16.8954 4 18C4 19.1046 4.89543 20 6 20Z" fill="black"/>
<path d="M6 14C7.10457 14 8 13.1046 8 12C8 10.8954 7.10457 10 6 10C4.89543 10 4 10.8954 4 12C4 13.1046 4.89543 14 6 14Z" fill="black"/>
<path d="M6 8C7.10457 8 8 7.10457 8 6C8 4.89543 7.10457 4 6 4C4.89543 4 4 4.89543 4 6C4 7.10457 4.89543 8 6 8Z" fill="black"/>
<path d="M18 8C19.1046 8 20 7.10457 20 6C20 4.89543 19.1046 4 18 4C16.8954 4 16 4.89543 16 6C16 7.10457 16.8954 8 18 8Z" fill="black"/>
<path d="M11 18.0699V19.4999C11 19.7799 11.22 19.9999 11.5 19.9999H12.9C13.03 19.9999 13.16 19.9499 13.25 19.8499L19.08 14.0199L16.96 11.8999L11.15 17.7099C11.05 17.8099 11 17.9399 11 18.0699Z" fill="black"/>
<path d="M12.03 14L14 12.03V12C14 10.9 13.1 10 12 10C10.9 10 10 10.9 10 12C10 13.1 10.9 14 12 14H12.03Z" fill="black"/>
<path d="M20.85 11.56L19.44 10.15C19.24 9.95 18.93 9.95 18.73 10.15L17.67 11.21L19.79 13.33L20.85 12.27C21.05 12.07 21.05 11.76 20.85 11.56Z" fill="black"/>
</g>
<defs>
<clipPath id="clip0_401_33139">
<rect width="24" height="24" fill="white"/>
</clipPath>
</defs>
</svg>
