<svg width="24" height="24" viewBox="0 0 24 24" fill="none" xmlns="http://www.w3.org/2000/svg">
<g clip-path="url(#clip0_401_32626)">
<path d="M14.99 3H6.00002C5.20002 3 4.48002 3.48 4.17002 4.21L0.910022 11.82C0.0600216 13.8 1.51002 16 3.66002 16H9.31002L8.36002 20.58C8.26002 21.08 8.41002 21.59 8.77002 21.95C9.06002 22.24 9.44002 22.38 9.82002 22.38C10.2 22.38 10.59 22.23 10.88 21.94L16.41 16.4C16.78 16.03 16.99 15.52 16.99 14.99V5C16.99 3.9 16.09 3 14.99 3ZM10.66 19.33L11.27 16.41L11.77 14H9.31002H3.66002C3.19002 14 2.94002 13.72 2.83002 13.55C2.72002 13.38 2.56002 13.04 2.75002 12.6L6.00002 5H14.99V14.99L10.66 19.33Z" fill="black"/>
<path d="M21 3C19.9 3 19 3.9 19 5V13C19 14.1 19.9 15 21 15C22.1 15 23 14.1 23 13V5C23 3.9 22.1 3 21 3Z" fill="black"/>
</g>
<defs>
<clipPath id="clip0_401_32626">
<rect width="24" height="24" fill="white"/>
</clipPath>
</defs>
</svg>
