<svg width="24" height="24" viewBox="0 0 24 24" fill="none" xmlns="http://www.w3.org/2000/svg">
<g clip-path="url(#clip0_401_32683)">
<path d="M4 20C4 21.1 4.89 22 5.99 22H18C19.1 22 20 21.1 20 20V17H4V20Z" fill="black"/>
<path d="M19.41 7.41L14.58 2.58C14.21 2.21 13.7 2 13.17 2H6.00001C4.90001 2 4.01001 2.89 4.01001 3.99V11H20V8.83C20 8.3 19.79 7.79 19.41 7.41ZM13 8V3.5L18.5 9H14C13.45 9 13 8.55 13 8Z" fill="black"/>
<path d="M15 14C15 13.45 14.55 13 14 13H10C9.45 13 9 13.45 9 14C9 14.55 9.45 15 10 15H14C14.55 15 15 14.55 15 14Z" fill="black"/>
<path d="M17 14C17 14.55 17.45 15 18 15H22C22.55 15 23 14.55 23 14C23 13.45 22.55 13 22 13H18C17.45 13 17 13.45 17 14Z" fill="black"/>
<path d="M6 13H2C1.45 13 1 13.45 1 14C1 14.55 1.45 15 2 15H6C6.55 15 7 14.55 7 14C7 13.45 6.55 13 6 13Z" fill="black"/>
</g>
<defs>
<clipPath id="clip0_401_32683">
<rect width="24" height="24" fill="white"/>
</clipPath>
</defs>
</svg>
