<svg width="24" height="24" viewBox="0 0 24 24" fill="none" xmlns="http://www.w3.org/2000/svg">
<g clip-path="url(#clip0_401_33768)">
<path d="M20 2H4C2.9 2 2 2.9 2 4V22L6 18H20C21.1 18 22 17.1 22 16V4C22 2.9 21.1 2 20 2ZM5.63 13.19L8.12 9.99C8.32 9.74 8.7 9.73 8.9 9.98L11 12.51L14.1 8.52C14.3 8.26 14.7 8.26 14.9 8.53L18.41 13.21C18.66 13.54 18.42 14.01 18.01 14.01H6.02C5.61 14 5.37 13.52 5.63 13.19Z" fill="black"/>
</g>
<defs>
<clipPath id="clip0_401_33768">
<rect width="24" height="24" fill="white"/>
</clipPath>
</defs>
</svg>
