<svg width="24" height="24" viewBox="0 0 24 24" fill="none" xmlns="http://www.w3.org/2000/svg">
<g clip-path="url(#clip0_401_33269)">
<path d="M2 5C1.45 5 1 5.45 1 6V21C1 22.1 1.9 23 3 23H18C18.55 23 19 22.55 19 22C19 21.45 18.55 21 18 21H4C3.45 21 3 20.55 3 20V6C3 5.45 2.55 5 2 5ZM16 15C16.55 15 17 14.55 17 14V6C17 5.45 16.55 5 16 5C15.45 5 15 5.45 15 6V9H13V6C13 5.45 12.55 5 12 5C11.45 5 11 5.45 11 6V10C11 10.55 11.45 11 12 11H15V14C15 14.55 15.45 15 16 15ZM21 1H7C5.9 1 5 1.9 5 3V17C5 18.1 5.9 19 7 19H21C22.1 19 23 18.1 23 17V3C23 1.9 22.1 1 21 1ZM20 17H8C7.45 17 7 16.55 7 16V4C7 3.45 7.45 3 8 3H20C20.55 3 21 3.45 21 4V16C21 16.55 20.55 17 20 17Z" fill="black"/>
</g>
<defs>
<clipPath id="clip0_401_33269">
<rect width="24" height="24" fill="white"/>
</clipPath>
</defs>
</svg>
