<svg width="24" height="24" viewBox="0 0 24 24" fill="none" xmlns="http://www.w3.org/2000/svg">
<g clip-path="url(#clip0_401_32583)">
<path d="M19.66 3.99017C17.02 2.19017 13.76 3.03017 12 5.09017C10.24 3.03017 6.98003 2.18017 4.34003 3.99017C2.94003 4.95017 2.06003 6.57017 2.00003 8.28017C1.86003 12.1602 5.30003 15.2702 10.55 20.0402L10.65 20.1302C11.41 20.8202 12.58 20.8202 13.34 20.1202L13.45 20.0202C18.7 15.2602 22.13 12.1502 22 8.27017C21.94 6.57017 21.06 4.95017 19.66 3.99017ZM12.1 18.5502L12 18.6502L11.9 18.5502C7.14003 14.2402 4.00003 11.3902 4.00003 8.50017C4.00003 6.50017 5.50003 5.00017 7.50003 5.00017C9.04003 5.00017 10.54 5.99017 11.07 7.36017H12.94C13.46 5.99017 14.96 5.00017 16.5 5.00017C18.5 5.00017 20 6.50017 20 8.50017C20 11.3902 16.86 14.2402 12.1 18.5502Z" fill="black"/>
</g>
<defs>
<clipPath id="clip0_401_32583">
<rect width="24" height="24" fill="white"/>
</clipPath>
</defs>
</svg>
