<svg width="24" height="24" viewBox="0 0 24 24" fill="none" xmlns="http://www.w3.org/2000/svg">
<g clip-path="url(#clip0_401_33713)">
<path d="M11.1 12.08C9.10003 8.19998 10.18 4.71998 11.17 2.80998C11.36 2.44998 11.05 2.03998 10.64 2.08998C5.62003 2.76998 1.78003 7.15998 1.99003 12.41C2.00003 12.41 2.00003 12.41 2.00003 12.42C2.62003 12.15 3.29003 12 4.00003 12C5.66003 12 7.18003 12.83 8.10003 14.15C9.77003 14.63 11 16.17 11 18C11 19.52 10.13 20.83 8.88003 21.51C9.86003 21.83 10.91 22.01 11.99 22.01C15.12 22.01 17.91 20.57 19.75 18.32C20.01 18 19.79 17.53 19.38 17.5C16.89 17.37 13.1 15.97 11.1 12.08Z" fill="black"/>
<path d="M7 16H6.82C6.4 14.84 5.3 14 4 14C2.34 14 1 15.34 1 17C1 18.66 2.34 20 4 20C4.62 20 6.49 20 7 20C8.1 20 9 19.1 9 18C9 16.9 8.1 16 7 16Z" fill="black"/>
</g>
<defs>
<clipPath id="clip0_401_33713">
<rect width="24" height="24" fill="white"/>
</clipPath>
</defs>
</svg>
