<svg width="24" height="24" viewBox="0 0 24 24" fill="none" xmlns="http://www.w3.org/2000/svg">
<g clip-path="url(#clip0_401_32981)">
<path d="M12 6.34012L18.95 3.76012C19.75 3.46012 20.53 4.24012 20.24 5.05012L17.66 12.0001L12 6.34012ZM21.9 19.0701L4.93 2.10012C4.54 1.71012 3.91 1.71012 3.52 2.10012C3.13 2.49012 3.13 3.12012 3.52 3.51012L7.88 7.87012L3.68 9.43012C3.27 9.59012 3 9.97012 3 10.4001C3 10.8201 3.26 11.2001 3.65 11.3601L10.07 13.9301L12.64 20.3501C12.8 20.7401 13.18 21.0001 13.6 21.0001C14.03 21.0001 14.42 20.7301 14.57 20.3301L16.13 16.1301L20.49 20.4901C20.88 20.8801 21.51 20.8801 21.9 20.4901C22.29 20.0901 22.29 19.4601 21.9 19.0701Z" fill="black"/>
</g>
<defs>
<clipPath id="clip0_401_32981">
<rect width="24" height="24" fill="white"/>
</clipPath>
</defs>
</svg>
