<svg width="24" height="24" viewBox="0 0 24 24" fill="none" xmlns="http://www.w3.org/2000/svg">
<g clip-path="url(#clip0_401_33175)">
<path d="M20.5 16.5C19.67 16.5 19 15.83 19 15V12.5C19 11.67 19.67 11 20.5 11C21.33 11 22 11.67 22 12.5V15C22 15.83 21.33 16.5 20.5 16.5ZM20.5 20C20.78 20 21 19.78 21 19.5C21 19.05 21 18.46 21 18.46C22.51 18.24 23.71 17.06 23.95 15.57C24 15.27 23.76 15 23.46 15C23.22 15 23.01 15.17 22.97 15.41C22.77 16.59 21.74 17.5 20.5 17.5C19.26 17.5 18.23 16.6 18.03 15.41C17.99 15.17 17.78 15 17.54 15C17.24 15 17 15.27 17.04 15.57C17.29 17.07 18.49 18.25 19.99 18.46C19.99 18.46 19.99 19.05 19.99 19.5C20 19.78 20.22 20 20.5 20ZM9 12C6.79 12 5 10.21 5 8C5 5.79 6.79 4 9 4C9.47 4 9.92 4.08 10.34 4.23C9.5 5.26 9 6.57 9 8C9 9.43 9.5 10.74 10.34 11.77C9.92 11.92 9.47 12 9 12ZM7.11 13.13C5.79 14.05 5 15.57 5 17.22V20H1V17.22C1 16.1 1.61 15.07 2.61 14.56C3.85 13.92 5.37 13.37 7.11 13.13ZM11 8C11 5.79 12.79 4 15 4C17.21 4 19 5.79 19 8C19 10.21 17.21 12 15 12C12.79 12 11 10.21 11 8ZM18.32 20C16.65 19.19 15.5 17.48 15.5 15.5C15.5 14.61 15.73 13.77 16.14 13.05C15.77 13.02 15.39 13 15 13C12.47 13 10.29 13.7 8.61 14.56C7.61 15.07 7 16.1 7 17.22V20H18.32Z" fill="black"/>
</g>
<defs>
<clipPath id="clip0_401_33175">
<rect width="24" height="24" fill="white"/>
</clipPath>
</defs>
</svg>
