<svg width="24" height="24" viewBox="0 0 24 24" fill="none" xmlns="http://www.w3.org/2000/svg">
<g clip-path="url(#clip0_401_32596)">
<path d="M8 7C7.45 7 7 7.45 7 8V12H5V8C5 7.45 4.55 7 4 7C3.45 7 3 7.45 3 8V13C3 13.55 3.45 14 4 14H7V16C7 16.55 7.45 17 8 17C8.55 17 9 16.55 9 16V14H10C10.55 14 11 13.55 11 13C11 12.45 10.55 12 10 12H9V8C9 7.45 8.55 7 8 7ZM17 12C17 12.55 17.45 13 18 13H19V15H14V9H20C20.55 9 21 8.55 21 8C21 7.45 20.55 7 20 7H14C12.9 7 12 7.9 12 9V15C12 16.1 12.9 17 14 17H19C20.1 17 21 16.1 21 15V12C21 11.45 20.55 11 20 11H18C17.45 11 17 11.45 17 12Z" fill="black"/>
</g>
<defs>
<clipPath id="clip0_401_32596">
<rect width="24" height="24" fill="white"/>
</clipPath>
</defs>
</svg>
