<svg width="24" height="24" viewBox="0 0 24 24" fill="none" xmlns="http://www.w3.org/2000/svg">
<g clip-path="url(#clip0_401_34390)">
<path d="M16.29 13.29C16.68 13.68 17.31 13.68 17.7 13.29L20.29 10.7C20.68 10.31 20.68 9.67997 20.29 9.28997L17.7 6.69997C17.31 6.30997 16.68 6.30997 16.29 6.69997C15.9 7.08997 15.9 7.71997 16.29 8.10997L17.17 8.99997H9C7.9 8.99997 7 9.89997 7 11V19C7 19.55 7.45 20 8 20C8.55 20 9 19.55 9 19V11H17.17L16.29 11.88C15.9 12.27 15.9 12.9 16.29 13.29Z" fill="black"/>
</g>
<defs>
<clipPath id="clip0_401_34390">
<rect width="24" height="24" fill="white"/>
</clipPath>
</defs>
</svg>
