<svg width="24" height="24" viewBox="0 0 24 24" fill="none" xmlns="http://www.w3.org/2000/svg">
<g clip-path="url(#clip0_401_34068)">
<path d="M16.34 8.36L14.05 9.18C13.87 9.05 13.67 8.93 13.47 8.84C13.64 8.01 14.1 7.26 14.83 6.78C16.85 5.44 16.18 2 13.39 2C10.31 2 8.48997 3.47 8.08997 5.26L18.73 15.9C20.23 16.29 22 15.39 22 13.39C22 9 18.99 7.16 16.34 8.36Z" fill="black"/>
<path d="M2.1 3.51003C1.71 3.90003 1.71 4.53003 2.1 4.92003L5.27 8.10003C3.77 7.70003 2 8.61003 2 10.61C2 15.01 5.00999 16.85 7.66 15.64L9.95 14.82C10.13 14.95 10.33 15.07 10.53 15.16C10.36 15.99 9.9 16.74 9.17 17.22C7.15 18.56 7.81999 22 10.61 22C13.69 22 15.51 20.53 15.91 18.74L19.07 21.9C19.46 22.29 20.09 22.29 20.48 21.9C20.87 21.51 20.87 20.88 20.48 20.49L3.51 3.51003C3.12 3.12003 2.49 3.12003 2.1 3.51003Z" fill="black"/>
</g>
<defs>
<clipPath id="clip0_401_34068">
<rect width="24" height="24" fill="white"/>
</clipPath>
</defs>
</svg>
