<svg width="24" height="24" viewBox="0 0 24 24" fill="none" xmlns="http://www.w3.org/2000/svg">
<g clip-path="url(#clip0_401_33683)">
<path d="M8 21C8.55 21 9 20.55 9 20V14.91C9 13.93 8.29 13.11 7.33 12.94C5.44 12.63 4 10.98 4 9C4 6.79 5.79 5 8 5C9.98 5 11.63 6.44 11.94 8.33C12.11 9.29 12.93 10 13.91 10H18.17L17.29 10.88C16.9 11.27 16.9 11.9 17.29 12.29C17.68 12.68 18.31 12.68 18.7 12.29L21.29 9.7C21.68 9.31 21.68 8.68 21.29 8.29L18.7 5.7C18.31 5.31 17.68 5.31 17.29 5.7C16.9 6.09 16.9 6.72 17.29 7.11L18.17 8H13.92C13.44 5.16 10.97 3 8 3C4.69 3 2 5.69 2 9C2 11.97 4.16 14.44 7 14.92V20C7 20.55 7.45 21 8 21Z" fill="black"/>
</g>
<defs>
<clipPath id="clip0_401_33683">
<rect width="24" height="24" fill="white"/>
</clipPath>
</defs>
</svg>
