<svg width="24" height="24" viewBox="0 0 24 24" fill="none" xmlns="http://www.w3.org/2000/svg">
<g clip-path="url(#clip0_401_34549)">
<path d="M17 18H7V6H17V7H19V3C19 1.9 18.1 1 17 1L7 1.01C5.9 1.01 5 1.9 5 3V21C5 22.1 5.9 23 7 23H17C18.1 23 19 22.1 19 21V17H17V18Z" fill="black"/>
<path d="M20 11V10C20 8.9 19.1 8 18 8C16.9 8 16 8.9 16 10V11C15.45 11 15 11.45 15 12V15C15 15.55 15.45 16 16 16H20C20.55 16 21 15.55 21 15V12C21 11.45 20.55 11 20 11ZM19 11H17V10C17 9.45 17.45 9 18 9C18.55 9 19 9.45 19 10V11Z" fill="black"/>
</g>
<defs>
<clipPath id="clip0_401_34549">
<rect width="24" height="24" fill="white"/>
</clipPath>
</defs>
</svg>
