<svg width="24" height="24" viewBox="0 0 24 24" fill="none" xmlns="http://www.w3.org/2000/svg">
<g clip-path="url(#clip0_401_33337)">
<path d="M17 4C16.45 4 16 4.45 16 5V11.9L18 9.9V5C18 4.45 17.55 4 17 4Z" fill="black"/>
<path d="M5 20C5.55 20 6 19.55 6 19V5C6 4.45 5.55 4 5 4C4.45 4 4 4.45 4 5V19C4 19.55 4.45 20 5 20Z" fill="black"/>
<path d="M11 8C11.55 8 12 7.55 12 7V5C12 4.45 11.55 4 11 4C10.45 4 10 4.45 10 5V7C10 7.55 10.45 8 11 8Z" fill="black"/>
<path d="M11 14C11.55 14 12 13.55 12 13V11C12 10.45 11.55 10 11 10C10.45 10 10 10.45 10 11V13C10 13.55 10.45 14 11 14Z" fill="black"/>
<path d="M11 20C11.55 20 12 19.55 12 19V17C12 16.45 11.55 16 11 16C10.45 16 10 16.45 10 17V19C10 19.55 10.45 20 11 20Z" fill="black"/>
<path d="M22.56 12.5901L21.41 11.4401C20.82 10.8501 19.87 10.8501 19.29 11.4401L14 16.7301V19.5001C14 19.7801 14.22 20.0001 14.5 20.0001H17.27L22.56 14.7101C23.15 14.1201 23.15 13.1701 22.56 12.5901ZM16.58 18.4501H15.55V17.4201L19 13.9701L20.03 15.0001L16.58 18.4501Z" fill="black"/>
</g>
<defs>
<clipPath id="clip0_401_33337">
<rect width="24" height="24" fill="white"/>
</clipPath>
</defs>
</svg>
