<svg width="24" height="24" viewBox="0 0 24 24" fill="none" xmlns="http://www.w3.org/2000/svg">
<g clip-path="url(#clip0_401_32515)">
<path d="M4.50997 15.4799L6.50997 13.8899C6.98997 13.5099 7.26997 12.9299 7.26997 12.3199V9.71986C10.29 8.73986 13.56 8.72986 16.59 9.71986V12.3299C16.59 12.9399 16.87 13.5199 17.35 13.8999L19.34 15.4799C20.14 16.1099 21.28 16.0499 22 15.3299L23.22 14.1099C24.02 13.3099 24.02 11.9799 23.17 11.2299C16.76 5.56986 7.09997 5.56986 0.689974 11.2299C-0.160026 11.9799 -0.160026 13.3099 0.639974 14.1099L1.85997 15.3299C2.56997 16.0499 3.70997 16.1099 4.50997 15.4799Z" fill="black"/>
</g>
<defs>
<clipPath id="clip0_401_32515">
<rect width="24" height="24" fill="white"/>
</clipPath>
</defs>
</svg>
