<svg width="24" height="24" viewBox="0 0 24 24" fill="none" xmlns="http://www.w3.org/2000/svg">
<g clip-path="url(#clip0_401_34319)">
<path d="M14 14.13C14 14.36 14.09 14.59 14.26 14.76L19.24 19.74C19.41 19.91 19.63 20 19.86 20C20.65 20 21.04 19.05 20.48 18.49L15.5 13.51C14.95 12.95 14 13.35 14 14.13ZM15 20H17L14 17V19C14 19.55 14.45 20 15 20ZM7.65 4.35002L2.85 9.15002C2.54 9.46002 2.76 10 3.21 10H4V19C4 19.55 4.45 20 5 20H11C11.55 20 12 19.55 12 19V10H12.79C13.24 10 13.46 9.46002 13.14 9.15002L8.35 4.35002C8.16 4.16002 7.84 4.16002 7.65 4.35002ZM9 14H7V10H9V14Z" fill="black"/>
</g>
<defs>
<clipPath id="clip0_401_34319">
<rect width="24" height="24" fill="white"/>
</clipPath>
</defs>
</svg>
