<svg width="24" height="24" viewBox="0 0 24 24" fill="none" xmlns="http://www.w3.org/2000/svg">
<g clip-path="url(#clip0_401_32599)">
<path d="M15.72 6.41017C15.37 6.76017 15.28 7.29017 15.47 7.76017C15.77 8.51017 15.79 9.34017 15.52 10.1002C15.36 10.5602 15.46 11.0802 15.81 11.4202C16.41 12.0202 17.47 11.8902 17.83 11.1102C18.47 9.72017 18.43 8.12017 17.71 6.70017C17.31 5.95017 16.3 5.82017 15.72 6.41017ZM19.18 2.89017C18.78 3.29017 18.72 3.91017 19.05 4.37017C20.98 7.05017 21 10.6202 19.14 13.4402C18.83 13.9002 18.91 14.5202 19.3 14.9102C19.81 15.4202 20.68 15.3702 21.11 14.7802C23.68 11.2702 23.63 6.58017 20.94 3.01017C20.51 2.45017 19.68 2.39017 19.18 2.89017ZM9.43 5.04017L12.96 8.57017C12.76 6.71017 11.29 5.24017 9.43 5.04017ZM3.71 3.56017C3.32 3.95017 3.32 4.58017 3.71 4.97017L5.62 6.88017C5.06 7.77017 4.83 8.89017 5.15 10.0802C5.51 11.4102 6.59 12.4802 7.92 12.8502C9.11 13.1802 10.23 12.9402 11.12 12.3802L15.52 16.7802C13.74 15.6002 10.78 15.0002 9 15.0002C6.33 15.0002 1 16.3402 1 19.0002V20.0002C1 20.5502 1.45 21.0002 2 21.0002H16C16.55 21.0002 17 20.5502 17 20.0002V19.0002C17 18.6302 16.89 18.3002 16.71 17.9802L19.02 20.2902C19.41 20.6802 20.04 20.6802 20.43 20.2902C20.82 19.9002 20.82 19.2702 20.43 18.8802L5.12 3.56017C4.73 3.17017 4.1 3.17017 3.71 3.56017Z" fill="black"/>
</g>
<defs>
<clipPath id="clip0_401_32599">
<rect width="24" height="24" fill="white"/>
</clipPath>
</defs>
</svg>
