<svg width="24" height="24" viewBox="0 0 24 24" fill="none" xmlns="http://www.w3.org/2000/svg">
<g clip-path="url(#clip0_401_32845)">
<path d="M7.29 6.99995C7.74 6.99995 7.96 6.45995 7.64 6.14995L5.35 3.84995C5.15 3.64995 4.84 3.64995 4.64 3.84995L2.35 6.14995C2.04 6.45995 2.26 6.99995 2.71 6.99995H4V17H2.71C2.26 17 2.04 17.54 2.36 17.85L4.65 20.1399C4.85 20.34 5.16 20.34 5.36 20.1399L7.65 17.85C7.96 17.54 7.74 17 7.29 17H6V6.99995H7.29ZM11 6.99995H21C21.55 6.99995 22 6.54995 22 5.99995C22 5.44995 21.55 4.99995 21 4.99995H11C10.45 4.99995 10 5.44995 10 5.99995C10 6.54995 10.45 6.99995 11 6.99995ZM21 17H11C10.45 17 10 17.45 10 18C10 18.55 10.45 19 11 19H21C21.55 19 22 18.55 22 18C22 17.45 21.55 17 21 17ZM21 11H11C10.45 11 10 11.45 10 12C10 12.55 10.45 13 11 13H21C21.55 13 22 12.55 22 12C22 11.45 21.55 11 21 11Z" fill="black"/>
</g>
<defs>
<clipPath id="clip0_401_32845">
<rect width="24" height="24" fill="white"/>
</clipPath>
</defs>
</svg>
