<svg width="24" height="24" viewBox="0 0 24 24" fill="none" xmlns="http://www.w3.org/2000/svg">
<g clip-path="url(#clip0_401_32720)">
<path d="M11 13V9C11 8.45 10.55 8 10 8H6V6H10C10.55 6 11 5.55 11 5C11 4.45 10.55 4 10 4H8.5C8.5 3.45 8.05 3 7.5 3C6.95 3 6.5 3.45 6.5 4H5C4.45 4 4 4.45 4 5V9C4 9.55 4.45 10 5 10H9V12H5C4.45 12 4 12.45 4 13C4 13.55 4.45 14 5 14H6.5C6.5 14.55 6.95 15 7.5 15C8.05 15 8.5 14.55 8.5 14H10C10.55 14 11 13.55 11 13Z" fill="black"/>
<path d="M18.88 13.2202L13.93 18.1702L11.81 16.0502C11.42 15.6602 10.79 15.6602 10.4 16.0502C10.01 16.4402 10.01 17.0702 10.4 17.4602L13.23 20.2902C13.62 20.6802 14.25 20.6802 14.64 20.2902L20.3 14.6302C20.69 14.2402 20.69 13.6102 20.3 13.2202C19.9 12.8302 19.27 12.8302 18.88 13.2202Z" fill="black"/>
</g>
<defs>
<clipPath id="clip0_401_32720">
<rect width="24" height="24" fill="white"/>
</clipPath>
</defs>
</svg>
