<svg width="24" height="24" viewBox="0 0 24 24" fill="none" xmlns="http://www.w3.org/2000/svg">
<g clip-path="url(#clip0_401_34128)">
<path d="M6.5 10.5H4.5V11.5H6.5V10.5ZM20 10.5H18V11.5H20V10.5ZM13 12.5H11V14.25C11 14.66 10.66 15 10.25 15C9.84 15 9.5 14.66 9.5 14.25V9.75C9.5 9.34 9.84 9 10.25 9C10.66 9 11 9.34 11 9.75V11H13V9.75C13 9.34 13.34 9 13.75 9C14.16 9 14.5 9.34 14.5 9.75V14.25C14.5 14.66 14.16 15 13.75 15C13.34 15 13 14.66 13 14.25V12.5ZM18 14.25C18 14.66 17.66 15 17.25 15C16.84 15 16.5 14.66 16.5 14.25V10C16.5 9.45 16.95 9 17.5 9H20C20.83 9 21.5 9.68 21.5 10.5V11.5C21.5 12.32 20.83 13 20 13H18V14.25ZM3 10C3 9.45 3.45 9 4 9H6.5C7.33 9 8 9.68 8 10.5V11.5C8 12.32 7.33 13 6.5 13H4.5V14.25C4.5 14.66 4.16 15 3.75 15C3.34 15 3 14.66 3 14.25V10Z" fill="black"/>
</g>
<defs>
<clipPath id="clip0_401_34128">
<rect width="24" height="24" fill="white"/>
</clipPath>
</defs>
</svg>
