<svg width="24" height="24" viewBox="0 0 24 24" fill="none" xmlns="http://www.w3.org/2000/svg">
<g clip-path="url(#clip0_401_33652)">
<path d="M18 10.48V6C18 4.9 17.1 4 16 4H4C2.9 4 2 4.9 2 6V18C2 19.1 2.9 20 4 20H16C17.1 20 18 19.1 18 18V13.52L21.15 16.65C21.46 16.97 22 16.74 22 16.3V7.7C22 7.26 21.46 7.03 21.15 7.35L18 10.48ZM10 8C11.1 8 12 8.9 12 10C12 11.1 11.1 12 10 12C8.9 12 8 11.1 8 10C8 8.9 8.9 8 10 8ZM14 16H6V15.43C6 14.62 6.48 13.9 7.22 13.58C8.07 13.21 9.01 13 10 13C10.99 13 11.93 13.21 12.78 13.58C13.52 13.9 14 14.62 14 15.43V16Z" fill="black"/>
</g>
<defs>
<clipPath id="clip0_401_33652">
<rect width="24" height="24" fill="white"/>
</clipPath>
</defs>
</svg>
