<svg width="24" height="24" viewBox="0 0 24 24" fill="none" xmlns="http://www.w3.org/2000/svg">
<g clip-path="url(#clip0_401_32890)">
<path d="M17 18H7V6H17V7H19V3C19 1.9 18.1 1 17 1H7C5.9 1 5 1.9 5 3V21C5 22.1 5.9 23 7 23H17C18.1 23 19 22.1 19 21V17H17V18Z" fill="black"/>
<path d="M20.38 9.62L20.78 10.49C20.87 10.69 21.15 10.69 21.24 10.49L21.64 9.62L22.51 9.22C22.71 9.13 22.71 8.85 22.51 8.76L21.64 8.36L21.24 7.49C21.15 7.29 20.87 7.29 20.78 7.49L20.38 8.36L19.51 8.76C19.31 8.85 19.31 9.13 19.51 9.22L20.38 9.62Z" fill="black"/>
<path d="M15.54 9L14.75 10.75L13 11.54C12.61 11.72 12.61 12.27 13 12.45L14.75 13.24L15.54 15C15.72 15.39 16.27 15.39 16.45 15L17.24 13.25L19 12.46C19.39 12.28 19.39 11.73 19 11.55L17.25 10.76L16.46 9C16.28 8.61 15.72 8.61 15.54 9Z" fill="black"/>
<path d="M20.77 13.5L20.37 14.37L19.5 14.77C19.3 14.86 19.3 15.14 19.5 15.23L20.37 15.63L20.77 16.5C20.86 16.7 21.14 16.7 21.23 16.5L21.63 15.63L22.5 15.23C22.7 15.14 22.7 14.86 22.5 14.77L21.63 14.37L21.23 13.5C21.14 13.31 20.86 13.31 20.77 13.5Z" fill="black"/>
</g>
<defs>
<clipPath id="clip0_401_32890">
<rect width="24" height="24" fill="white"/>
</clipPath>
</defs>
</svg>
