<svg width="24" height="24" viewBox="0 0 24 24" fill="none" xmlns="http://www.w3.org/2000/svg">
<g clip-path="url(#clip0_401_33187)">
<path d="M8 20C8 21.1 7.1 22 6 22C4.9 22 4 21.1 4 20C4 18.9 4.9 18 6 18C7.1 18 8 18.9 8 20ZM14.3 4.1C13.03 3.4 11.56 3 10 3C8.77 3 7.61 3.26 6.54 3.71L10.91 8.08L14.3 4.1ZM20.49 21.9C20.88 21.51 20.88 20.88 20.49 20.49L10.67 10.67L3.51 3.51C3.12 3.12 2.49 3.12 2.1 3.51C1.71 3.9 1.71 4.53 2.1 4.92L9.35999 12.18L6.7 15.3C6.14999 15.95 6.61 16.95 7.46 16.95H14.12L15.29 18.12C14.41 18.45 13.82 19.37 14.03 20.4C14.18 21.16 14.81 21.79 15.57 21.94C16.6 22.15 17.52 21.56 17.85 20.68L19.05 21.88C19.46 22.29 20.09 22.29 20.49 21.9ZM17 6.27C17.58 5.59 17.97 5 18.65 5C19.33 5 19.87 5.52 19.98 6.21C20.08 6.66 20.48 7 20.96 7C21.51 7 21.96 6.55 21.96 6C21.96 5.94 21.96 5.89 21.95 5.84V5.83C21.65 4.22 20.3 3 18.65 3C16.99 3 16.11 4.27 15.47 5.03L11.97 9.14L17 14.17V6.27Z" fill="black"/>
</g>
<defs>
<clipPath id="clip0_401_33187">
<rect width="24" height="24" fill="white"/>
</clipPath>
</defs>
</svg>
