<svg width="24" height="24" viewBox="0 0 24 24" fill="none" xmlns="http://www.w3.org/2000/svg">
<g clip-path="url(#clip0_401_33190)">
<path d="M6 8.93998V21H10V16.11C10 15.11 10.68 14.19 11.66 14.03C12.92 13.82 14 14.79 14 16V21H18V8.93998C18 8.34998 17.74 7.77998 17.28 7.39998L13.28 4.06998C12.54 3.44998 11.46 3.44998 10.72 4.06998L6.72 7.39998C6.26 7.77998 6 8.33998 6 8.93998ZM13.5 9.99998C13.5 10.83 12.83 11.5 12 11.5C11.17 11.5 10.5 10.83 10.5 9.99998C10.5 9.16998 11.17 8.49998 12 8.49998C12.83 8.49998 13.5 9.16998 13.5 9.99998Z" fill="black"/>
<path d="M3 5C1.9 5 1 5.9 1 7V8H5V7C5 5.9 4.1 5 3 5Z" fill="black"/>
<path d="M3 21H5V9H1V19C1 20.1 1.9 21 3 21Z" fill="black"/>
<path d="M21 5C19.9 5 19 5.9 19 7V8H23V7C23 5.9 22.1 5 21 5Z" fill="black"/>
<path d="M19 21H21C22.1 21 23 20.1 23 19V9H19V21Z" fill="black"/>
</g>
<defs>
<clipPath id="clip0_401_33190">
<rect width="24" height="24" fill="white"/>
</clipPath>
</defs>
</svg>
