<svg width="24" height="24" viewBox="0 0 24 24" fill="none" xmlns="http://www.w3.org/2000/svg">
<g clip-path="url(#clip0_401_34151)">
<path d="M4 16V20C4 21.1 4.9 22 6 22H18C19.1 22 20 21.1 20 20V16C20 14.9 19.1 14 18 14H6C4.9 14 4 14.9 4 16ZM17 18H7C6.45 18 6 17.55 6 17C6 16.45 6.45 16 7 16H17C17.55 16 18 16.45 18 17C18 17.55 17.55 18 17 18ZM12 2C9.54 2 7.48 3.79 7.07 6.13C6.99 6.65 7.13 7.18 7.43 7.6L11.19 12.86C11.59 13.42 12.42 13.42 12.82 12.86L16.58 7.6C16.88 7.18 17.02 6.65 16.93 6.13C16.52 3.79 14.46 2 12 2Z" fill="black"/>
</g>
<defs>
<clipPath id="clip0_401_34151">
<rect width="24" height="24" fill="white"/>
</clipPath>
</defs>
</svg>
