<svg width="24" height="24" viewBox="0 0 24 24" fill="none" xmlns="http://www.w3.org/2000/svg">
<g clip-path="url(#clip0_401_34275)">
<path d="M12 21C11.45 21 11 20.55 11 20V6.82998L10.12 7.70998C9.72998 8.09998 9.09998 8.09998 8.70998 7.70998C8.31998 7.31998 8.31998 6.68998 8.70998 6.29998L11.3 3.70998C11.69 3.31998 12.32 3.31998 12.71 3.70998L15.3 6.29998C15.69 6.68998 15.69 7.31998 15.3 7.70998C14.91 8.09998 14.28 8.09998 13.89 7.70998L13 6.82998V8.99998C13 12.62 15.89 15.22 17.97 16.62C18.49 16.97 18.56 17.71 18.11 18.15C17.78 18.48 17.24 18.55 16.85 18.28C15.26 17.22 13.96 16 13 14.69V19.99C13 20.55 12.55 21 12 21Z" fill="black"/>
</g>
<defs>
<clipPath id="clip0_401_34275">
<rect width="24" height="24" fill="white"/>
</clipPath>
</defs>
</svg>
