<svg width="24" height="24" viewBox="0 0 24 24" fill="none" xmlns="http://www.w3.org/2000/svg">
<g clip-path="url(#clip0_401_34536)">
<path d="M18 1C15.24 1 13 3.24 13 6C13 8.76 15.24 11 18 11C20.76 11 23 8.76 23 6C23 3.24 20.76 1 18 1ZM18 7C17.72 7 17.5 6.78 17.5 6.5V3.5C17.5 3.22 17.72 3 18 3C18.28 3 18.5 3.22 18.5 3.5V6.5C18.5 6.78 18.28 7 18 7ZM18.5 8.5C18.5 8.78 18.28 9 18 9C17.72 9 17.5 8.78 17.5 8.5C17.5 8.22 17.72 8 18 8C18.28 8 18.5 8.22 18.5 8.5ZM19.5 20C20.32 20 21 19.33 21 18.5V12.32C19.95 12.83 18.84 13.01 17.91 13C17.97 13.16 18 13.33 18 13.5C18 14.33 17.33 15 16.5 15C15.67 15 15 14.33 15 13.5C15 13.11 15.15 12.76 15.39 12.49C13.76 11.83 12.43 10.58 11.68 9H5.81L6.85 6H11C11 5.31 11.1 4.63 11.29 4H6.5C5.84 4 5.29 4.42 5.08 5.01L3.11 10.68C3.04 10.89 3 11.11 3 11.34V18.5C3 19.33 3.67 20 4.5 20C5.33 20 6 19.33 6 18.5V18H18V18.5C18 19.33 18.68 20 19.5 20ZM7.5 15C6.67 15 6 14.33 6 13.5C6 12.67 6.67 12 7.5 12C8.33 12 9 12.67 9 13.5C9 14.33 8.33 15 7.5 15Z" fill="black"/>
</g>
<defs>
<clipPath id="clip0_401_34536">
<rect width="24" height="24" fill="white"/>
</clipPath>
</defs>
</svg>
