<svg width="24" height="24" viewBox="0 0 24 24" fill="none" xmlns="http://www.w3.org/2000/svg">
<g clip-path="url(#clip0_401_32724)">
<path d="M9.19002 6.34976C7.15002 8.63976 5.75002 11.9298 5.62002 12.2398L3.36002 11.2698C2.71002 10.9898 2.55002 10.1398 3.05002 9.63976L6.06002 6.62976C6.53002 6.15976 7.21002 5.94976 7.87002 6.07976L9.19002 6.34976ZM10.68 16.5098C10.98 16.8098 11.42 16.8898 11.8 16.7098C12.96 16.1698 15.45 14.8998 17.06 13.2898C21.65 8.69976 21.69 4.95976 21.42 3.35976C21.35 2.95976 21.03 2.63976 20.63 2.56976C19.03 2.29976 15.29 2.33976 10.7 6.92976C9.09002 8.53976 7.83002 11.0298 7.28002 12.1898C7.10002 12.5698 7.19002 13.0198 7.48002 13.3098L10.68 16.5098ZM17.65 14.8098C15.36 16.8498 12.07 18.2498 11.76 18.3798L12.73 20.6398C13.01 21.2898 13.86 21.4498 14.36 20.9498L17.37 17.9398C17.84 17.4698 18.05 16.7898 17.92 16.1298L17.65 14.8098ZM8.94002 17.4098C9.14002 18.4698 8.79002 19.4498 8.12002 20.1198C7.35002 20.8898 4.96002 21.4598 3.41002 21.7598C2.72002 21.8898 2.11002 21.2798 2.24002 20.5898C2.54002 19.0398 3.10002 16.6498 3.88002 15.8798C4.55002 15.2098 5.53002 14.8598 6.59002 15.0598C7.76002 15.2798 8.72002 16.2398 8.94002 17.4098ZM13 8.99976C13 7.89976 13.9 6.99976 15 6.99976C16.1 6.99976 17 7.89976 17 8.99976C17 10.0998 16.1 10.9998 15 10.9998C13.9 10.9998 13 10.0998 13 8.99976Z" fill="black"/>
</g>
<defs>
<clipPath id="clip0_401_32724">
<rect width="24" height="24" fill="white"/>
</clipPath>
</defs>
</svg>
