<svg width="24" height="24" viewBox="0 0 24 24" fill="none" xmlns="http://www.w3.org/2000/svg">
<g clip-path="url(#clip0_401_34541)">
<path d="M20.49 20.49L3.51 3.51C3.12 3.12 2.49 3.12 2.1 3.51C1.71 3.9 1.71 4.53 2.1 4.92L5.02 7.84C5.02 7.9 5 7.95 5 8V19C5 20.1 5.9 21 7 21C7 21.55 7.45 22 8 22C8.55 22 9 21.55 9 21H15C15 21.55 15.45 22 16 22C16.55 22 17 21.55 17 21C17.34 21 17.65 20.91 17.93 20.76L19.07 21.9C19.46 22.29 20.09 22.29 20.48 21.9C20.88 21.51 20.88 20.88 20.49 20.49ZM8.75 18C8.34 18 8 17.66 8 17.25V10.83L9.5 12.33V17.25C9.5 17.66 9.16 18 8.75 18ZM12 18C11.59 18 11.25 17.66 11.25 17.25V14.08L12.75 15.58V17.25C12.75 17.66 12.41 18 12 18ZM12 9C12.41 9 12.75 9.34 12.75 9.75V9.92L14.5 11.67V9.75C14.5 9.34 14.84 9 15.25 9C15.66 9 16 9.34 16 9.75V13.17L19 16.17V8C19 6.9 18.1 6 17 6H15V3C15 2.45 14.55 2 14 2H10C9.45 2 9 2.45 9 3V6H8.83L11.86 9.03C11.91 9.02 11.95 9 12 9ZM10.5 3.5H13.5V6H10.5V3.5Z" fill="black"/>
</g>
<defs>
<clipPath id="clip0_401_34541">
<rect width="24" height="24" fill="white"/>
</clipPath>
</defs>
</svg>
