<svg width="24" height="24" viewBox="0 0 24 24" fill="none" xmlns="http://www.w3.org/2000/svg">
<g clip-path="url(#clip0_401_33325)">
<path d="M19.88 18.4701C20.36 17.7001 20.63 16.8001 20.57 15.8101C20.44 13.6601 18.73 11.8401 16.6 11.6101C13.88 11.3101 11.58 13.4201 11.58 16.0801C11.58 18.5701 13.59 20.5801 16.07 20.5801C16.95 20.5801 17.77 20.3201 18.46 19.8801L20.87 22.2901C21.26 22.6801 21.9 22.6801 22.29 22.2901C22.68 21.9001 22.68 21.2601 22.29 20.8701L19.88 18.4701ZM16.08 18.5801C14.7 18.5801 13.58 17.4601 13.58 16.0801C13.58 14.7001 14.7 13.5801 16.08 13.5801C17.46 13.5801 18.58 14.7001 18.58 16.0801C18.58 17.4601 17.46 18.5801 16.08 18.5801ZM15.72 10.0801C14.98 10.1001 14.27 10.2601 13.62 10.5301L13.07 9.70005L9.98998 14.7101C9.62998 15.2901 8.81999 15.3501 8.37999 14.8401L6.25999 12.3701L3.19999 17.2701C2.88999 17.7601 2.22998 17.8901 1.75998 17.5501C1.33998 17.2401 1.21998 16.6601 1.49998 16.2101L5.27999 10.1601C5.63999 9.59005 6.44999 9.53005 6.88999 10.0401L8.99999 12.5001L12.18 7.33005C12.56 6.71005 13.46 6.69005 13.86 7.30005L15.72 10.0801ZM18.31 10.5801C17.67 10.3001 16.98 10.1301 16.26 10.0901L20.8 2.90005C21.11 2.41005 21.77 2.29005 22.23 2.63005C22.66 2.94005 22.77 3.53005 22.49 3.97005L18.31 10.5801Z" fill="black"/>
</g>
<defs>
<clipPath id="clip0_401_33325">
<rect width="24" height="24" fill="white"/>
</clipPath>
</defs>
</svg>
