<svg width="24" height="24" viewBox="0 0 24 24" fill="none" xmlns="http://www.w3.org/2000/svg">
<g clip-path="url(#clip0_401_32743)">
<path d="M21.85 9.01012C21.44 9.01012 21.03 9.25012 20.9 9.64012C20.64 10.4301 19.89 11.0001 19.02 11.0001H4.97997C4.10997 11.0001 3.35997 10.4301 3.09997 9.64012C2.96997 9.25012 2.56997 9.02012 2.15997 9.02012C1.49997 9.02012 0.999975 9.66012 1.20997 10.2801C1.63997 11.5501 2.68997 12.5201 3.99997 12.8601V20.0001C3.99997 21.1001 4.89997 22.0001 5.99997 22.0001H9.99997V19.1101C9.99997 18.1101 10.68 17.1901 11.66 17.0301C12.92 16.8201 14 17.7901 14 19.0001V22.0001H18C19.1 22.0001 20 21.1001 20 20.0001V12.8601C20.46 12.7401 22.22 12.1001 22.81 10.2801C23.01 9.65012 22.51 9.00012 21.85 9.01012Z" fill="black"/>
<path d="M5.99997 8.86001V10H18V8.86001C18.46 8.74001 20.22 8.10001 20.81 6.28001C21.01 5.65001 20.51 5.01001 19.85 5.01001C19.44 5.01001 19.03 5.25001 18.9 5.64001C18.64 6.43001 17.89 7.00001 17.02 7.00001H6.97997C6.10997 7.00001 5.35997 6.43001 5.09997 5.64001C4.96997 5.25001 4.56997 5.02001 4.15997 5.02001C3.49997 5.02001 2.99997 5.66001 3.20997 6.28001C3.63997 7.55001 4.68997 8.53001 5.99997 8.86001Z" fill="black"/>
<path d="M11.2 2.07004L8.25 6.00004H15.75L12.8 2.07004C12.4 1.53004 11.6 1.53004 11.2 2.07004Z" fill="black"/>
</g>
<defs>
<clipPath id="clip0_401_32743">
<rect width="24" height="24" fill="white"/>
</clipPath>
</defs>
</svg>
