<svg width="24" height="24" viewBox="0 0 24 24" fill="none" xmlns="http://www.w3.org/2000/svg">
<g clip-path="url(#clip0_401_34553)">
<path d="M11.3 2.26007L5.3 4.51007C4.52 4.81007 4 5.55007 4 6.39007V11.1001C4 16.1501 7.41 20.8601 12 22.0101C16.59 20.8601 20 16.1501 20 11.1001V6.39007C20 5.56007 19.48 4.81007 18.7 4.52007L12.7 2.27007C12.25 2.09007 11.75 2.09007 11.3 2.26007ZM10.23 14.8301L8.11 12.7101C7.72 12.3201 7.72 11.6901 8.11 11.3001C8.5 10.9101 9.13 10.9101 9.52 11.3001L10.93 12.7101L14.47 9.17007C14.86 8.78007 15.49 8.78007 15.88 9.17007C16.27 9.56007 16.27 10.1901 15.88 10.5801L11.64 14.8201C11.26 15.2201 10.62 15.2201 10.23 14.8301Z" fill="black"/>
</g>
<defs>
<clipPath id="clip0_401_34553">
<rect width="24" height="24" fill="white"/>
</clipPath>
</defs>
</svg>
