<svg width="24" height="24" viewBox="0 0 24 24" fill="none" xmlns="http://www.w3.org/2000/svg">
<g clip-path="url(#clip0_401_34534)">
<path d="M20 4H4C2.9 4 2 4.9 2 6V18C2 19.1 2.9 20 4 20H20C21.1 20 22 19.1 22 18V6C22 4.9 21.1 4 20 4ZM17.15 12.35L16 13.5V15.5C16 15.78 15.78 16 15.5 16H13.5L12.35 17.15C12.15 17.35 11.84 17.35 11.64 17.15L10.5 16H8.5C8.22 16 8 15.78 8 15.5V13.5L6.85 12.35C6.65 12.15 6.65 11.84 6.85 11.64L8 10.5V8.5C8 8.22 8.22 8 8.5 8H10.5L11.65 6.85C11.85 6.65 12.16 6.65 12.36 6.85L13.5 8H15.5C15.78 8 16 8.22 16 8.5V10.5L17.15 11.65C17.34 11.84 17.34 12.16 17.15 12.35ZM12 9V15C13.66 15 15 13.66 15 12C15 10.34 13.66 9 12 9Z" fill="black"/>
</g>
<defs>
<clipPath id="clip0_401_34534">
<rect width="24" height="24" fill="white"/>
</clipPath>
</defs>
</svg>
