<svg width="24" height="24" viewBox="0 0 24 24" fill="none" xmlns="http://www.w3.org/2000/svg">
<g clip-path="url(#clip0_401_32592)">
<path d="M7.4 10.0002H8.99V15.0002C8.99 15.5502 9.44 16.0002 9.99 16.0002H13.99C14.54 16.0002 14.99 15.5502 14.99 15.0002V10.0002H16.58C17.47 10.0002 17.92 8.92021 17.29 8.29021L12.7 3.70021C12.31 3.31021 11.68 3.31021 11.29 3.70021L6.7 8.29021C6.07 8.92021 6.51 10.0002 7.4 10.0002ZM5 19.0002C5 19.5502 5.45 20.0002 6 20.0002H18C18.55 20.0002 19 19.5502 19 19.0002C19 18.4502 18.55 18.0002 18 18.0002H6C5.45 18.0002 5 18.4502 5 19.0002Z" fill="black"/>
</g>
<defs>
<clipPath id="clip0_401_32592">
<rect width="24" height="24" fill="white"/>
</clipPath>
</defs>
</svg>
