<svg width="24" height="24" viewBox="0 0 24 24" fill="none" xmlns="http://www.w3.org/2000/svg">
<g clip-path="url(#clip0_401_33052)">
<path d="M20.29 7.68L7.70002 20.29C7.07002 20.92 7.52002 22 8.41002 22H21C21.55 22 22 21.55 22 21V8.39C22 7.5 20.92 7.05 20.29 7.68ZM20 20H18V12.78L20 10.78V20Z" fill="black"/>
<path d="M9.61001 10.6799C9.33001 10.8499 9.29002 11.2399 9.52002 11.4699L10.34 12.2899C10.73 12.6799 11.36 12.6799 11.75 12.2899L12.57 11.4699C12.8 11.2399 12.75 10.8499 12.48 10.6799C11.61 10.1399 10.49 10.1399 9.61001 10.6799Z" fill="black"/>
<path d="M8.41999 9.29983C9.98999 8.17983 12.12 8.17983 13.69 9.29983C14.05 9.55983 14.54 9.51983 14.85 9.19983C15.24 8.80983 15.2 8.13983 14.75 7.81983C12.55 6.24983 9.55999 6.24983 7.34999 7.81983C6.89999 8.13983 6.84999 8.80983 7.24999 9.19983C7.56999 9.51983 8.05999 9.55983 8.41999 9.29983Z" fill="black"/>
<path d="M16.26 6.68991C16.6 6.96991 17.09 6.96991 17.4 6.65991L17.52 6.53991C17.87 6.18991 17.83 5.61991 17.44 5.29991C13.77 2.24991 8.42001 2.22991 4.74001 5.23991C4.31001 5.58991 4.27001 6.22991 4.66001 6.60991C4.98001 6.93991 5.50001 6.97991 5.85001 6.68991C8.86001 4.20991 13.25 4.20991 16.26 6.68991Z" fill="black"/>
</g>
<defs>
<clipPath id="clip0_401_33052">
<rect width="24" height="24" fill="white"/>
</clipPath>
</defs>
</svg>
