<svg width="24" height="24" viewBox="0 0 24 24" fill="none" xmlns="http://www.w3.org/2000/svg">
<g clip-path="url(#clip0_401_33434)">
<path d="M21.96 9.73L20.53 4.73C20.41 4.3 20.02 4 19.57 4H4.43003C3.98003 4 3.59003 4.3 3.47003 4.73L2.04003 9.73C1.86003 10.36 2.34003 11 3.00003 11H5.20003L4.15003 18.88C4.07003 19.47 4.53003 20 5.13003 20C5.63003 20 6.05003 19.63 6.11003 19.14L6.67003 15H17.34L17.89 19.14C17.96 19.63 18.38 20 18.87 20C19.47 20 19.93 19.47 19.85 18.88L18.8 11H21C21.66 11 22.14 10.36 21.96 9.73ZM6.93003 13L7.20003 11H16.8L17.07 13H6.93003Z" fill="black"/>
</g>
<defs>
<clipPath id="clip0_401_33434">
<rect width="24" height="24" fill="white"/>
</clipPath>
</defs>
</svg>
