<svg width="24" height="24" viewBox="0 0 24 24" fill="none" xmlns="http://www.w3.org/2000/svg">
<g clip-path="url(#clip0_401_33383)">
<path d="M9.00003 5V5.38C8.17003 5.05 7.28003 4.88 6.39003 4.88C4.97003 4.88 3.55003 5.31 2.34003 6.17C1.83003 6.53 1.77003 7.26 2.21003 7.7L4.78003 10.27H5.89003V11.38C6.75003 12.24 7.87003 12.69 9.00003 12.74V15H7.00003C6.45003 15 6.00003 15.45 6.00003 16V18C6.00003 19.1 6.90003 20 8.00003 20H18C19.66 20 21 18.66 21 17V5C21 4.45 20.55 4 20 4H10C9.45003 4 9.00003 4.45 9.00003 5ZM7.89003 10.41V8.26H5.61003L4.57003 7.22C5.14003 7 5.76003 6.88 6.39003 6.88C7.73003 6.88 8.98003 7.4 9.93003 8.34L11.34 9.75L11.14 9.95C10.63 10.46 9.95003 10.75 9.22003 10.75C8.75003 10.75 8.29003 10.63 7.89003 10.41ZM19 17C19 17.55 18.55 18 18 18C17.45 18 17 17.55 17 17V16C17 15.45 16.55 15 16 15H11V12.41C11.57 12.18 12.1 11.84 12.56 11.38L12.76 11.18L15.59 14H17V12.59L11 6.62V6H19V17Z" fill="black"/>
</g>
<defs>
<clipPath id="clip0_401_33383">
<rect width="24" height="24" fill="white"/>
</clipPath>
</defs>
</svg>
