<svg width="24" height="24" viewBox="0 0 24 24" fill="none" xmlns="http://www.w3.org/2000/svg">
<g clip-path="url(#clip0_401_34318)">
<path d="M21.98 14H22H21.98ZM5.35 13C6.54 13 6.77 14 8.68 14C10.63 14 10.77 13 12.01 13C13.2 13 13.43 14 15.34 14C17.29 14 17.43 13 18.67 13C19.6 13 19.72 13.45 20.68 13.79C21.31 14.01 21.98 13.55 21.98 12.88C21.98 12.36 21.75 12.05 21.34 11.91C20.74 11.69 20.19 11.01 18.65 11.01C16.7 11.01 16.56 12.01 15.32 12.01C14.13 12.01 13.9 11.01 11.99 11.01C10.04 11.01 9.9 12.01 8.66 12.01C7.47 12.01 7.24 11.01 5.33 11.01C3.79 11.01 3.2 11.72 2.65 11.92C2.24 12.05 2 12.35 2 12.89C2 13.56 2.66 14.02 3.29 13.8C4.35 13.44 4.39 13 5.35 13ZM18.67 15C16.72 15 16.58 16 15.34 16C14.15 16 13.92 15 12.01 15C10.06 15 9.91 16 8.67 16C7.43 16 7.29 15 5.34 15C3.81 15 3.19 15.71 2.65 15.91C2.24 16.05 2 16.36 2 16.89C2 17.56 2.66 18.02 3.3 17.8C4.32 17.44 4.38 17 5.34 17C6.58 17 6.72 18 8.67 18C10.62 18 10.77 17 12.01 17C13.2 17 13.43 18 15.34 18C17.28 18 17.43 17 18.67 17C19.61 17 19.73 17.46 20.7 17.8C21.33 18.02 22 17.56 22 16.89C22 16.36 21.76 16.06 21.35 15.91C20.82 15.72 20.21 15 18.67 15ZM5.35 9C6.54 9 6.77 10 8.68 10C10.63 10 10.77 9 12.01 9C13.2 9 13.43 10 15.34 10C17.29 10 17.43 9 18.67 9C19.6 9 19.72 9.45 20.68 9.79C21.31 10.01 21.98 9.55 21.98 8.88C21.98 8.36 21.75 8.05 21.34 7.91C20.74 7.68 20.19 7 18.65 7C16.7 7 16.56 8 15.32 8C14.13 8 13.9 7 11.99 7C10.04 7 9.9 8 8.66 8C7.47 8 7.24 7 5.33 7C3.79 7 3.2 7.71 2.65 7.91C2.24 8.05 2 8.35 2 8.89C2 9.56 2.66 10.02 3.29 9.8C4.35 9.44 4.39 9 5.35 9Z" fill="black"/>
</g>
<defs>
<clipPath id="clip0_401_34318">
<rect width="24" height="24" fill="white"/>
</clipPath>
</defs>
</svg>
