<svg width="24" height="24" viewBox="0 0 24 24" fill="none" xmlns="http://www.w3.org/2000/svg">
<g clip-path="url(#clip0_401_34039)">
<path d="M11.5 9C10.12 9 9 10.12 9 11.5C9 12.88 10.12 14 11.5 14C12.88 14 14 12.88 14 11.5C14 10.12 12.88 9 11.5 9ZM20 4H4C2.9 4 2 4.9 2 6V18C2 19.1 2.9 20 4 20H20C21.1 20 22 19.1 22 18V6C22 4.9 21.1 4 20 4ZM16.08 17.5L13.88 15.3C12.98 15.88 11.85 16.14 10.66 15.92C8.78 15.57 7.28 13.99 7.04 12.09C6.66 9.08 9.22 6.57 12.25 7.05C14.13 7.35 15.64 8.89 15.95 10.76C16.14 11.92 15.87 12.99 15.31 13.88L17.51 16.07C17.9 16.46 17.9 17.1 17.51 17.49C17.11 17.89 16.47 17.89 16.08 17.5Z" fill="black"/>
</g>
<defs>
<clipPath id="clip0_401_34039">
<rect width="24" height="24" fill="white"/>
</clipPath>
</defs>
</svg>
