<svg width="24" height="24" viewBox="0 0 24 24" fill="none" xmlns="http://www.w3.org/2000/svg">
<g clip-path="url(#clip0_401_34416)">
<path d="M10.8 3.9L4.8 8.4C4.3 8.78 4 9.37 4 10V19C4 20.1 4.9 21 6 21H18C19.1 21 20 20.1 20 19V10C20 9.37 19.7 8.78 19.2 8.4L13.2 3.9C12.49 3.37 11.51 3.37 10.8 3.9ZM12 17.5C11.45 17.5 11 17.05 11 16.5H13C13 17.05 12.55 17.5 12 17.5ZM15.5 16H8.5C8.22 16 8 15.78 8 15.5C8 15.22 8.22 15 8.5 15H9V12.66C9 11.12 9.82 9.84 11.25 9.5V9.25C11.25 8.84 11.59 8.5 12 8.5C12.41 8.5 12.75 8.84 12.75 9.25V9.5C14.19 9.84 15 11.12 15 12.66V15H15.5C15.78 15 16 15.22 16 15.5C16 15.78 15.78 16 15.5 16Z" fill="black"/>
</g>
<defs>
<clipPath id="clip0_401_34416">
<rect width="24" height="24" fill="white"/>
</clipPath>
</defs>
</svg>
