<svg width="24" height="24" viewBox="0 0 24 24" fill="none" xmlns="http://www.w3.org/2000/svg">
<g clip-path="url(#clip0_401_33930)">
<path d="M19.48 12.35C17.91 8.26999 12.32 8.04999 13.67 2.11999C13.77 1.67999 13.3 1.33999 12.92 1.56999C9.29 3.70999 6.68 7.99999 8.87 13.62C9.05 14.08 8.51 14.51 8.12 14.21C6.31 12.84 6.12 10.87 6.28 9.45999C6.34 8.93999 5.66 8.68999 5.37 9.11999C4.69 10.16 4 11.84 4 14.37C4.38 19.97 9.11 21.69 10.81 21.91C13.24 22.22 15.87 21.77 17.76 20.04C19.84 18.11 20.6 15.03 19.48 12.35ZM10.2 17.38C11.64 17.03 12.38 15.99 12.58 15.07C12.91 13.64 11.62 12.24 12.49 9.97999C12.82 11.85 15.76 13.02 15.76 15.06C15.84 17.59 13.1 19.76 10.2 17.38Z" fill="black"/>
<path d="M19.48 12.35C17.91 8.26999 12.32 8.04999 13.67 2.11999C13.77 1.67999 13.3 1.33999 12.92 1.56999C9.29 3.70999 6.68 7.99999 8.87 13.62C9.05 14.08 8.51 14.51 8.12 14.21C6.31 12.84 6.12 10.87 6.28 9.45999C6.34 8.93999 5.66 8.68999 5.37 9.11999C4.69 10.16 4 11.84 4 14.37C4.38 19.97 9.11 21.69 10.81 21.91C13.24 22.22 15.87 21.77 17.76 20.04C19.84 18.11 20.6 15.03 19.48 12.35ZM10.2 17.38C11.64 17.03 12.38 15.99 12.58 15.07C12.91 13.64 11.62 12.24 12.49 9.97999C12.82 11.85 15.76 13.02 15.76 15.06C15.84 17.59 13.1 19.76 10.2 17.38Z" fill="black"/>
</g>
<defs>
<clipPath id="clip0_401_33930">
<rect width="24" height="24" fill="white"/>
</clipPath>
</defs>
</svg>
