<svg width="24" height="24" viewBox="0 0 24 24" fill="none" xmlns="http://www.w3.org/2000/svg">
<g clip-path="url(#clip0_401_32633)">
<path d="M9.22 7H4.78C4.3 6.47 4 5.77 4 5C4 3.34 5.34 2 7 2C8.66 2 10 3.34 10 5C10 5.77 9.7 6.47 9.22 7ZM16.24 2.01C18.32 2.13 20 4.08 20 6.16V21C20 21.55 19.55 22 19 22C18.45 22 18 21.55 18 21V6.09C18 5.13 17.36 4.23 16.42 4.04C15.14 3.78 14 4.76 14 6V17.84C14 19.92 12.32 21.87 10.24 21.99C7.92 22.13 6 20.29 6 18H5.45C5.19 18 4.98 17.81 4.95 17.55L4.11 9.1C4.05 8.51 4.51 8 5.1 8H8.9C9.49 8 9.95 8.51 9.9 9.1L9.05 17.55C9.02 17.81 8.8 18 8.55 18H8C8 19.24 9.14 20.22 10.42 19.96C11.36 19.77 12 18.87 12 17.91V6C12 3.71 13.92 1.87 16.24 2.01Z" fill="black"/>
</g>
<defs>
<clipPath id="clip0_401_32633">
<rect width="24" height="24" fill="white"/>
</clipPath>
</defs>
</svg>
