<svg width="24" height="24" viewBox="0 0 24 24" fill="none" xmlns="http://www.w3.org/2000/svg">
<g clip-path="url(#clip0_401_33731)">
<path d="M13.5 7H10.5C9.4 7 8.5 7.9 8.5 9V15C8.5 16.1 9.4 17 10.5 17H13.5C14.6 17 15.5 16.1 15.5 15V9C15.5 7.9 14.6 7 13.5 7ZM13.5 15H10.5V9H13.5V15ZM3 9V11H5C6.1 11 7 11.9 7 13V15C7 16.1 6.1 17 5 17H2C1.45 17 1 16.55 1 16C1 15.45 1.45 15 2 15H5V13H3C1.9 13 1 12.1 1 11V9C1 7.9 1.9 7 3 7H6C6.55 7 7 7.45 7 8C7 8.55 6.55 9 6 9H3ZM19 9V11H21C22.1 11 23 11.9 23 13V15C23 16.1 22.1 17 21 17H18C17.45 17 17 16.55 17 16C17 15.45 17.45 15 18 15H21V13H19C17.9 13 17 12.1 17 11V9C17 7.9 17.9 7 19 7H22C22.55 7 23 7.45 23 8C23 8.55 22.55 9 22 9H19Z" fill="black"/>
</g>
<defs>
<clipPath id="clip0_401_33731">
<rect width="24" height="24" fill="white"/>
</clipPath>
</defs>
</svg>
