<svg width="24" height="24" viewBox="0 0 24 24" fill="none" xmlns="http://www.w3.org/2000/svg">
<g clip-path="url(#clip0_401_33030)">
<path d="M20 7H15V4C15 2.9 14.1 2 13 2H11C9.9 2 9 2.9 9 4V7H4C2.9 7 2 7.9 2 9V20C2 21.1 2.9 22 4 22H20C21.1 22 22 21.1 22 20V9C22 7.9 21.1 7 20 7ZM11 4H13V9H11V4ZM7 16H6C5.45 16 5 15.55 5 15C5 14.45 5.45 14 6 14H7V13C7 12.45 7.45 12 8 12C8.55 12 9 12.45 9 13V14H10C10.55 14 11 14.45 11 15C11 15.55 10.55 16 10 16H9V17C9 17.55 8.55 18 8 18C7.45 18 7 17.55 7 17V16ZM13.75 14.5C13.34 14.5 13 14.16 13 13.75C13 13.34 13.34 13 13.75 13H18.25C18.66 13 19 13.34 19 13.75C19 14.16 18.66 14.5 18.25 14.5H13.75ZM13.75 17.5C13.34 17.5 13 17.16 13 16.75C13 16.34 13.34 16 13.75 16H16.25C16.66 16 17 16.34 17 16.75C17 17.16 16.66 17.5 16.25 17.5H13.75Z" fill="black"/>
</g>
<defs>
<clipPath id="clip0_401_33030">
<rect width="24" height="24" fill="white"/>
</clipPath>
</defs>
</svg>
