<svg width="24" height="24" viewBox="0 0 24 24" fill="none" xmlns="http://www.w3.org/2000/svg">
<g clip-path="url(#clip0_401_33518)">
<path d="M15 4C15.55 4 16 4.45 16 5C16 5.55 15.55 6 15 6C14.45 6 14 5.55 14 5C14 4.45 14.45 4 15 4ZM14 7C14.55 7 15 7.45 15 8C15 8.55 14.55 9 14 9C13.45 9 13 8.55 13 8C13 7.45 13.45 7 14 7ZM12 4C12.55 4 13 4.45 13 5C13 5.55 12.55 6 12 6C11.45 6 11 5.55 11 5C11 4.45 11.45 4 12 4ZM17 9C16.45 9 16 8.55 16 8C16 7.45 16.45 7 17 7C17.55 7 18 7.45 18 8C18 8.55 17.55 9 17 9ZM18 6C17.45 6 17 5.55 17 5C17 4.45 17.45 4 18 4C18.55 4 19 4.45 19 5C19 5.55 18.55 6 18 6ZM20 9C19.45 9 19 8.55 19 8C19 7.45 19.45 7 20 7C20.55 7 21 7.45 21 8C21 8.55 20.55 9 20 9ZM21 6C20.45 6 20 5.55 20 5C20 4.45 20.45 4 21 4C21.55 4 22 4.45 22 5C22 5.55 21.55 6 21 6ZM14.62 14.38L12.1 16.9C9.59999 15.47 7.52999 13.4 6.09999 10.9L8.61999 8.38C8.85999 8.14 8.95999 7.8 8.89999 7.48L8.15999 3.8C8.06999 3.34 7.65999 3 7.17999 3H3.02999C2.46999 3 1.99999 3.47 2.02999 4.03C2.19999 6.92 3.04999 9.63 4.42999 12C6.00999 14.73 8.27999 16.99 11 18.57C13.37 19.94 16.08 20.8 18.97 20.97C19.53 21 20 20.53 20 19.97V15.82C20 15.34 19.66 14.93 19.2 14.84L15.53 14.11C15.2 14.04 14.86 14.14 14.62 14.38ZM15 10C15.55 10 16 10.45 16 11C16 11.55 15.55 12 15 12C14.45 12 14 11.55 14 11C14 10.45 14.45 10 15 10ZM12 10C12.55 10 13 10.45 13 11C13 11.55 12.55 12 12 12C11.45 12 11 11.55 11 11C11 10.45 11.45 10 12 10ZM18 12C17.45 12 17 11.55 17 11C17 10.45 17.45 10 18 10C18.55 10 19 10.45 19 11C19 11.55 18.55 12 18 12ZM21 12C20.45 12 20 11.55 20 11C20 10.45 20.45 10 21 10C21.55 10 22 10.45 22 11C22 11.55 21.55 12 21 12Z" fill="black"/>
</g>
<defs>
<clipPath id="clip0_401_33518">
<rect width="24" height="24" fill="white"/>
</clipPath>
</defs>
</svg>
