<svg width="24" height="24" viewBox="0 0 24 24" fill="none" xmlns="http://www.w3.org/2000/svg">
<g clip-path="url(#clip0_401_32696)">
<path d="M6 10H9V18.5C9 19.33 8.33 20 7.5 20C6.67 20 6 19.33 6 18.5V10ZM7.5 5C8.33 5 9 5.67 9 6.5V9H6V6.5C6 5.67 6.67 5 7.5 5ZM16 16H19V18.5C19 19.33 18.33 20 17.5 20C16.67 20 16 19.33 16 18.5V16ZM11 13H14V18.5C14 19.33 13.33 20 12.5 20C11.67 20 11 19.33 11 18.5V13ZM12.5 9C13.33 9 14 9.67 14 10.5V12H11V10.5C11 9.67 11.67 9 12.5 9ZM19 15H16V14.5C16 13.67 16.67 13 17.5 13C18.33 13 19 13.67 19 14.5V15Z" fill="black"/>
</g>
<defs>
<clipPath id="clip0_401_32696">
<rect width="24" height="24" fill="white"/>
</clipPath>
</defs>
</svg>
