<svg width="24" height="24" viewBox="0 0 24 24" fill="none" xmlns="http://www.w3.org/2000/svg">
<g clip-path="url(#clip0_401_34090)">
<path d="M7 15H17C18.1 15 19 14.1 19 13V11C19 9.9 18.1 9 17 9H7C5.9 9 5 9.9 5 11V13C5 14.1 5.9 15 7 15Z" fill="black"/>
<path d="M12 2C11.44 2 11 2.45 11 3V4C11 4.55 11.45 5 12 5C12.55 5 13 4.55 13 4V3C13 2.45 12.55 2 12 2Z" fill="black"/>
<path d="M19.79 5.29995C19.4 4.90995 18.77 4.90995 18.38 5.29995L18 5.67995C17.61 6.06995 17.61 6.69995 18 7.08995C18.39 7.47995 19.02 7.47995 19.41 7.08995L19.79 6.70995C20.18 6.32995 20.18 5.68995 19.79 5.29995Z" fill="black"/>
<path d="M12 22C12.56 22 13 21.55 13 21V20C13 19.45 12.55 19 12 19C11.45 19 11 19.45 11 20V21C11 21.55 11.45 22 12 22Z" fill="black"/>
<path d="M17.9899 18.41L18.3699 18.8C18.7599 19.19 19.3899 19.19 19.7799 18.8L19.7899 18.79C20.1799 18.4 20.1799 17.77 19.7899 17.38L19.3999 17C19.0099 16.61 18.3799 16.61 17.9899 17C17.5999 17.4 17.5999 18.03 17.9899 18.41Z" fill="black"/>
<path d="M5.99997 5.68996L5.60997 5.30996C5.21997 4.91996 4.58997 4.91996 4.19997 5.30996C3.80997 5.69996 3.80997 6.32996 4.19997 6.71996L4.58997 7.09996C4.97997 7.48996 5.60997 7.48996 5.99997 7.09996C6.37997 6.70996 6.37997 6.06996 5.99997 5.68996Z" fill="black"/>
<path d="M4.19997 18.79C4.58997 19.19 5.22997 19.19 5.61997 18.79L5.99997 18.4C6.38997 18.01 6.38997 17.38 5.99997 16.99C5.60997 16.6 4.97997 16.6 4.58997 16.99L4.19997 17.38C3.80997 17.77 3.80997 18.4 4.19997 18.79Z" fill="black"/>
</g>
<defs>
<clipPath id="clip0_401_34090">
<rect width="24" height="24" fill="white"/>
</clipPath>
</defs>
</svg>
