<svg width="24" height="24" viewBox="0 0 24 24" fill="none" xmlns="http://www.w3.org/2000/svg">
<g clip-path="url(#clip0_401_32731)">
<path d="M20.45 6.00002L20.94 4.94002L22 4.45002C22.39 4.27002 22.39 3.72002 22 3.54002L20.94 3.05002L20.45 2.00002C20.27 1.61002 19.72 1.61002 19.54 2.00002L19.05 3.06002L18 3.55002C17.61 3.73002 17.61 4.28002 18 4.46002L19.06 4.95002L19.55 6.00002C19.72 6.39002 20.28 6.39002 20.45 6.00002Z" fill="black"/>
<path d="M8.95002 6.00002L9.44002 4.94002L10.5 4.45002C10.89 4.27002 10.89 3.72002 10.5 3.54002L9.44002 3.06002L8.95002 2.00002C8.78002 1.61002 8.22002 1.61002 8.05002 2.00002L7.56002 3.06002L6.50002 3.55002C6.11002 3.73002 6.11002 4.28002 6.50002 4.46002L7.56002 4.95002L8.05002 6.00002C8.22002 6.39002 8.78002 6.39002 8.95002 6.00002Z" fill="black"/>
<path d="M19.55 13.4998L19.06 14.5598L18 15.0498C17.61 15.2298 17.61 15.7798 18 15.9598L19.06 16.4498L19.55 17.5098C19.73 17.8998 20.28 17.8998 20.46 17.5098L20.95 16.4498L22 15.9498C22.39 15.7698 22.39 15.2198 22 15.0398L20.94 14.5498L20.45 13.4898C20.28 13.1098 19.72 13.1098 19.55 13.4998Z" fill="black"/>
<path d="M17.71 9.12006L14.88 6.29006C14.49 5.90006 13.86 5.90006 13.47 6.29006L2.29 17.4601C1.9 17.8501 1.9 18.4801 2.29 18.8701L5.12 21.7001C5.51 22.0901 6.14 22.0901 6.53 21.7001L17.7 10.5301C18.1 10.1501 18.1 9.51006 17.71 9.12006ZM14.21 11.2101L12.8 9.80006L14.18 8.42006L15.59 9.83006L14.21 11.2101Z" fill="black"/>
</g>
<defs>
<clipPath id="clip0_401_32731">
<rect width="24" height="24" fill="white"/>
</clipPath>
</defs>
</svg>
