<svg width="24" height="24" viewBox="0 0 24 24" fill="none" xmlns="http://www.w3.org/2000/svg">
<g clip-path="url(#clip0_401_33229)">
<path d="M10.04 6.28992C10.66 6.10992 11.32 5.99992 12 5.99992C15.86 5.99992 19 9.13992 19 12.9999C19 13.6799 18.89 14.3399 18.71 14.9599L20.27 16.5199C20.74 15.4399 21 14.2499 21 12.9999C21 8.02992 16.97 3.99992 12 3.99992C10.75 3.99992 9.56001 4.25992 8.47001 4.71992L10.04 6.28992ZM3.71001 2.78992C3.33001 2.40992 2.71001 2.40992 2.32001 2.78992L2.30001 2.81992C1.91001 3.20992 1.91001 3.82992 2.30001 4.20992L2.98001 4.88992L2.81001 5.02992C2.39001 5.36992 2.34001 5.98992 2.68001 6.40992L2.71001 6.43992C3.06001 6.85992 3.67001 6.90992 4.09001 6.55992L4.40001 6.30992L5.20001 7.10992C3.83001 8.68992 3.00001 10.7499 3.00001 12.9999C3.00001 17.9699 7.03001 21.9999 12 21.9999C14.25 21.9999 16.31 21.1699 17.89 19.7999L19.3 21.2099C19.68 21.5899 20.3 21.5899 20.69 21.2099L20.72 21.1799C21.1 20.7999 21.1 20.1799 20.72 19.7899L3.71001 2.78992ZM12 19.9999C8.14001 19.9999 5.00001 16.8599 5.00001 12.9999C5.00001 11.2999 5.61001 9.73992 6.62001 8.52992L16.47 18.3799C15.26 19.3899 13.7 19.9999 12 19.9999ZM19.91 6.55992C20.33 6.90992 20.94 6.84992 21.29 6.43992L21.32 6.40992C21.67 5.98992 21.61 5.37992 21.2 5.02992L18.1 2.43992C17.68 2.08992 17.07 2.14992 16.72 2.55992L16.69 2.58992C16.34 3.00992 16.4 3.61992 16.81 3.96992L19.91 6.55992ZM7.43001 3.67992C7.61001 3.33992 7.58001 2.90992 7.32001 2.58992L7.29001 2.55992C6.99001 2.19992 6.49001 2.12992 6.09001 2.33992L7.43001 3.67992Z" fill="black"/>
</g>
<defs>
<clipPath id="clip0_401_33229">
<rect width="24" height="24" fill="white"/>
</clipPath>
</defs>
</svg>
