<svg width="24" height="24" viewBox="0 0 24 24" fill="none" xmlns="http://www.w3.org/2000/svg">
<g clip-path="url(#clip0_401_34198)">
<path d="M14 11.9999C14 12.7399 13.6 13.3799 13 13.7199V20.9999C13 21.5499 12.55 21.9999 12 21.9999C11.45 21.9999 11 21.5499 11 20.9999V13.7199C10.4 13.3699 10 12.7399 10 11.9999C10 10.8999 10.9 9.99995 12 9.99995C13.1 9.99995 14 10.8999 14 11.9999ZM10.75 6.12995C8.48002 6.58995 6.63002 8.40995 6.14002 10.6799C5.74002 12.5399 6.21002 14.2999 7.22002 15.6199C7.57002 16.0699 8.25002 16.0899 8.65002 15.6899L8.72002 15.6199C9.06002 15.2799 9.06002 14.7499 8.78002 14.3699C8.10002 13.4699 7.80002 12.2699 8.12002 10.9999C8.47002 9.57995 9.64002 8.42995 11.07 8.11995C13.69 7.51995 16 9.48995 16 11.9999C16 12.8699 15.72 13.6699 15.24 14.3199C14.94 14.7299 14.95 15.2899 15.31 15.6499C15.75 16.0899 16.48 16.0199 16.85 15.5099C17.57 14.5299 18 13.3099 18 11.9999C18 8.27995 14.61 5.34995 10.75 6.12995ZM10.83 2.06995C6.30002 2.57995 2.61002 6.24995 2.07002 10.7799C1.72002 13.7299 2.66002 16.4499 4.39002 18.4799C4.76002 18.9099 5.42002 18.9399 5.82002 18.5399L5.87002 18.4899C6.22002 18.1399 6.25002 17.5699 5.92002 17.1899C4.36002 15.3599 3.59002 12.8199 4.22002 10.1299C4.92002 7.11995 7.40002 4.73995 10.44 4.15995C15.53 3.17995 20 7.07995 20 11.9999C20 13.9599 19.28 15.7599 18.1 17.1599C17.76 17.5599 17.79 18.1399 18.15 18.5099C18.57 18.9299 19.26 18.8999 19.64 18.4399C21.11 16.6999 22 14.4599 22 11.9999C22 6.08995 16.87 1.37995 10.83 2.06995Z" fill="black"/>
</g>
<defs>
<clipPath id="clip0_401_34198">
<rect width="24" height="24" fill="white"/>
</clipPath>
</defs>
</svg>
