<svg width="24" height="24" viewBox="0 0 24 24" fill="none" xmlns="http://www.w3.org/2000/svg">
<g clip-path="url(#clip0_401_33306)">
<path d="M11.73 21.5C6.77998 21.36 2.64998 17.23 2.50998 12.28C2.34998 6.91003 6.66998 2.50003 12 2.50003V1.21003C12 0.760031 12.54 0.540031 12.85 0.860031L15.64 3.65003C15.84 3.85003 15.84 4.16003 15.64 4.36003L12.85 7.15003C12.54 7.46003 12 7.24003 12 6.79003V5.50003C8.41998 5.50003 5.49998 8.42003 5.49998 12C5.49998 14.21 6.60998 16.17 8.30998 17.35C8.81998 16.43 9.93998 15.73 11.29 15.55C11.2 14.86 11.03 14.13 10.8 13.52C10.47 13.8 10.05 13.98 9.57998 14C8.43998 14.05 7.49998 13.01 7.49998 11.87V11.01C7.49998 10.72 7.44998 10.44 7.35998 10.18C7.23998 9.84003 7.49998 9.49003 7.85998 9.52003C9.15998 9.61003 11.46 10.04 11.5 12C11.5 12.29 11.44 12.56 11.33 12.8C10.91 12.48 10.47 12.2 9.99998 12C10.58 12.43 11.37 13.37 12 14.6C12.67 12.98 13.68 11.33 15 10C14.24 10.52 13.53 11.12 12.87 11.81C12.61 11.39 12.47 10.88 12.51 10.34C12.59 9.00003 13.79 8.00003 15.13 8.00003H16C16.56 8.00003 16.97 7.86003 17.28 7.69003C17.62 7.50003 18.04 7.74003 18.03 8.13003C17.99 9.87003 17.56 13 15 13C14.51 13 14.06 12.86 13.68 12.62C13.44 13.26 13.09 14.38 12.92 15.58C14.18 15.8 15.2 16.47 15.69 17.35C17.26 16.26 18.33 14.5 18.48 12.48C18.5 12.22 18.71 12 18.98 12H20.8C21.27 12 21.51 12.24 21.49 12.52C21.21 17.61 16.91 21.64 11.73 21.5Z" fill="black"/>
</g>
<defs>
<clipPath id="clip0_401_33306">
<rect width="24" height="24" fill="white"/>
</clipPath>
</defs>
</svg>
