<svg width="24" height="24" viewBox="0 0 24 24" fill="none" xmlns="http://www.w3.org/2000/svg">
<g clip-path="url(#clip0_401_32951)">
<path d="M20 12V6H4V18H14V20H4C2.9 20 2 19.1 2 18V6C2 4.9 2.9 4 4 4H20C21.1 4 22 4.9 22 6V12H20ZM19 14C17.34 14 16 15.34 16 17C16 18.66 17.34 20 19 20C20.66 20 22 18.66 22 17C22 15.34 20.66 14 19 14ZM14.66 13.66C15.05 13.27 15.05 12.64 14.66 12.25L12.54 10.13L13.81 8.86C14.12 8.54 13.9 8 13.45 8H9.5C9.22 8 9 8.22 9 8.5V12.45C9 12.9 9.54 13.12 9.85 12.8L11.12 11.53L13.24 13.65C13.63 14.05 14.27 14.05 14.66 13.66Z" fill="black"/>
</g>
<defs>
<clipPath id="clip0_401_32951">
<rect width="24" height="24" fill="white"/>
</clipPath>
</defs>
</svg>
