<svg width="24" height="24" viewBox="0 0 24 24" fill="none" xmlns="http://www.w3.org/2000/svg">
<g clip-path="url(#clip0_401_33611)">
<path d="M12 21C11.45 21 11 20.55 11 20V14H7.00001C6.45001 14 6.00001 13.55 6.00001 13C6.00001 12.45 6.45001 12 7.00001 12H10.72L5.98001 4.54C5.55001 3.87 6.03001 3 6.82001 3C7.16001 3 7.48001 3.17 7.66001 3.46L12 10.29L16.34 3.46C16.52 3.17 16.84 3 17.18 3C17.97 3 18.45 3.87 18.02 4.54L13.28 12H17C17.55 12 18 12.45 18 13C18 13.55 17.55 14 17 14H13V20C13 20.55 12.55 21 12 21Z" fill="black"/>
</g>
<defs>
<clipPath id="clip0_401_33611">
<rect width="24" height="24" fill="white"/>
</clipPath>
</defs>
</svg>
