<svg width="24" height="24" viewBox="0 0 24 24" fill="none" xmlns="http://www.w3.org/2000/svg">
<g clip-path="url(#clip0_401_34160)">
<path d="M12.72 2.03001C6.63001 1.60001 1.60001 6.63001 2.03001 12.72C2.39001 18.01 7.01001 22 12.31 22H16C16.55 22 17 21.55 17 21C17 20.45 16.55 20 16 20H12.33C8.60001 20 5.18001 17.58 4.25001 13.97C2.76001 8.17001 8.16001 2.76001 13.96 4.26001C17.58 5.18001 20 8.60001 20 12.33V13.43C20 14.22 19.29 15 18.5 15C17.71 15 17 14.22 17 13.43V12.18C17 9.67001 15.22 7.41001 12.74 7.06001C9.34001 6.57001 6.47001 9.51001 7.08001 12.93C7.42001 14.84 8.91001 16.42 10.8 16.87C12.64 17.3 14.39 16.71 15.54 15.54C16.43 16.76 18.21 17.4 19.84 16.75C21.18 16.22 22 14.85 22 13.41V12.32C22 7.01001 18.01 2.39001 12.72 2.03001ZM12 15C10.34 15 9.00001 13.66 9.00001 12C9.00001 10.34 10.34 9.00001 12 9.00001C13.66 9.00001 15 10.34 15 12C15 13.66 13.66 15 12 15Z" fill="black"/>
</g>
<defs>
<clipPath id="clip0_401_34160">
<rect width="24" height="24" fill="white"/>
</clipPath>
</defs>
</svg>
