<svg width="24" height="24" viewBox="0 0 24 24" fill="none" xmlns="http://www.w3.org/2000/svg">
<g clip-path="url(#clip0_401_32508)">
<path d="M21 22H3C2.45 22 2 21.55 2 21C2 20.45 2.45 20 3 20H21C21.55 20 22 20.45 22 21C22 21.55 21.55 22 21 22ZM8.5 2C7.67 2 7 2.67 7 3.5V16.5C7 17.33 7.67 18 8.5 18C9.33 18 10 17.33 10 16.5V3.5C10 2.67 9.33 2 8.5 2ZM15.5 8C14.67 8 14 8.67 14 9.5V16.5C14 17.33 14.67 18 15.5 18C16.33 18 17 17.33 17 16.5V9.5C17 8.67 16.33 8 15.5 8Z" fill="black"/>
</g>
<defs>
<clipPath id="clip0_401_32508">
<rect width="24" height="24" fill="white"/>
</clipPath>
</defs>
</svg>
