<svg width="24" height="24" viewBox="0 0 24 24" fill="none" xmlns="http://www.w3.org/2000/svg">
<g clip-path="url(#clip0_401_33531)">
<path d="M15 16L11 20H19C20.1 20 21 19.1 21 18C21 16.9 20.1 16 19 16H15Z" fill="black"/>
<path d="M12.06 7.19006L3.29 15.9601C3.11 16.1401 3 16.4001 3 16.6601V19.0001C3 19.5501 3.45 20.0001 4 20.0001H6.34C6.61 20.0001 6.86 19.8901 7.05 19.7101L15.82 10.9401L12.06 7.19006Z" fill="black"/>
<path d="M18.71 8.04006C19.1 7.65006 19.1 7.02006 18.71 6.63006L16.37 4.29006C15.98 3.90006 15.35 3.90006 14.96 4.29006L13.13 6.12006L16.88 9.87006L18.71 8.04006Z" fill="black"/>
</g>
<defs>
<clipPath id="clip0_401_33531">
<rect width="24" height="24" fill="white"/>
</clipPath>
</defs>
</svg>
