<svg width="24" height="24" viewBox="0 0 24 24" fill="none" xmlns="http://www.w3.org/2000/svg">
<g clip-path="url(#clip0_401_33907)">
<path d="M16 6.82998L15.12 7.70998C14.73 8.09998 14.1 8.09998 13.71 7.70998C13.32 7.31998 13.32 6.68998 13.71 6.29998L16.3 3.70998C16.69 3.31998 17.32 3.31998 17.71 3.70998L20.3 6.29998C20.69 6.68998 20.69 7.31998 20.3 7.70998C19.91 8.09998 19.28 8.09998 18.89 7.70998L18 6.82998V13C18 14.1 17.1 15 16 15H8V20C8 20.55 7.55 21 7 21C6.45 21 6 20.55 6 20V15C6 13.9 6.9 13 8 13H16V6.82998Z" fill="black"/>
</g>
<defs>
<clipPath id="clip0_401_33907">
<rect width="24" height="24" fill="white"/>
</clipPath>
</defs>
</svg>
