<svg width="24" height="24" viewBox="0 0 24 24" fill="none" xmlns="http://www.w3.org/2000/svg">
<g clip-path="url(#clip0_401_34573)">
<path d="M5.68 18.32C5.25999 18.74 4.56 18.71 4.18 18.24C2.82 16.53 2 14.36 2 12C2 9.96004 2.61 8.07004 3.66 6.49004L2.1 4.93004C1.71 4.54004 1.71 3.91004 2.1 3.52004C2.49 3.13004 3.12 3.13004 3.51 3.52004L20.48 20.49C20.87 20.88 20.87 21.51 20.48 21.9C20.09 22.29 19.46 22.29 19.07 21.9L8.14 10.96C8.05 11.29 8 11.64 8 12C8 12.8 8.24 13.55 8.64 14.17C8.91 14.58 8.88 15.11 8.54 15.46C8.11 15.89 7.37 15.86 7.03 15.35C6.38 14.4 6 13.24 6 12C6 11.07 6.21 10.2 6.58 9.41004L5.11 7.94004C4.4 9.13004 4 10.52 4 12C4 13.89 4.66 15.63 5.76 17C6.08 17.39 6.04 17.96 5.68 18.32ZM15.46 8.54004C15.11 8.89004 15.09 9.42004 15.35 9.83004C15.76 10.45 16 11.2 16 12C16 12.36 15.95 12.71 15.86 13.04L17.41 14.59C17.79 13.8 18 12.93 18 12C18 10.76 17.62 9.60004 16.97 8.64004C16.63 8.14004 15.9 8.10004 15.46 8.54004ZM18.32 5.68004C17.96 6.04004 17.92 6.60004 18.24 7.00004C19.34 8.37004 20 10.11 20 12C20 13.48 19.6 14.87 18.89 16.06L20.34 17.51C21.39 15.93 22 14.04 22 12C22 9.64004 21.18 7.47004 19.82 5.76004C19.44 5.29004 18.74 5.26004 18.32 5.68004Z" fill="black"/>
</g>
<defs>
<clipPath id="clip0_401_34573">
<rect width="24" height="24" fill="white"/>
</clipPath>
</defs>
</svg>
