<svg width="24" height="24" viewBox="0 0 24 24" fill="none" xmlns="http://www.w3.org/2000/svg">
<g clip-path="url(#clip0_401_32644)">
<path d="M18.04 7.99004L17.41 6.59004L16.01 5.96004C15.62 5.78004 15.62 5.23004 16.01 5.05004L17.41 4.42004L18.04 3.02004C18.22 2.63004 18.77 2.63004 18.95 3.02004L19.58 4.42004L20.98 5.05004C21.37 5.23004 21.37 5.78004 20.98 5.96004L19.58 6.59004L18.95 7.99004C18.78 8.38004 18.22 8.38004 18.04 7.99004ZM21.28 12.72L20.96 12C20.78 11.61 20.23 11.61 20.05 12L19.73 12.72L19 13.04C18.61 13.22 18.61 13.77 19 13.95L19.72 14.27L20.04 15C20.22 15.39 20.77 15.39 20.95 15L21.27 14.28L22 13.96C22.39 13.78 22.39 13.23 22 13.05L21.28 12.72ZM16.24 14.37L17.47 15.3C17.87 15.6 17.98 16.16 17.73 16.6L16.11 19.4C15.86 19.84 15.32 20.02 14.86 19.82L13.43 19.22C13.23 19.35 13.01 19.48 12.79 19.59L12.6 21.13C12.54 21.63 12.11 22.01 11.61 22.01H8.38001C7.88001 22.01 7.45001 21.63 7.39001 21.13L7.20001 19.59C6.98001 19.48 6.77001 19.36 6.56001 19.22L5.13001 19.82C4.67001 20.02 4.13001 19.84 3.88001 19.4L2.26001 16.6C2.01001 16.16 2.12001 15.61 2.52001 15.3L3.75001 14.37C3.75001 14.25 3.75001 14.12 3.75001 14C3.75001 13.88 3.75001 13.75 3.76001 13.63L2.53001 12.7C2.13001 12.4 2.02001 11.84 2.27001 11.4L3.89001 8.60004C4.14001 8.16004 4.68001 7.98004 5.14001 8.18004L6.57001 8.78004C6.77001 8.65004 6.99001 8.52004 7.21001 8.41004L7.40001 6.87004C7.45001 6.38004 7.88001 6.00004 8.38001 6.00004H11.61C12.11 6.00004 12.54 6.38004 12.6 6.88004L12.79 8.42004C13.01 8.53004 13.22 8.65004 13.43 8.79004L14.86 8.19004C15.32 7.99004 15.86 8.17004 16.11 8.61004L17.73 11.41C17.98 11.85 17.87 12.4 17.47 12.71L16.24 13.64C16.25 13.76 16.25 13.88 16.25 14.01C16.25 14.14 16.25 14.25 16.24 14.37ZM13 14C13 12.34 11.66 11 10 11C8.34001 11 7.00001 12.34 7.00001 14C7.00001 15.66 8.34001 17 10 17C11.66 17 13 15.66 13 14Z" fill="black"/>
</g>
<defs>
<clipPath id="clip0_401_32644">
<rect width="24" height="24" fill="white"/>
</clipPath>
</defs>
</svg>
