<svg width="24" height="24" viewBox="0 0 24 24" fill="none" xmlns="http://www.w3.org/2000/svg">
<g clip-path="url(#clip0_401_32787)">
<path d="M12.66 2.58002C12.28 2.25002 11.71 2.25002 11.33 2.58002C6.45 6.88002 4 10.62 4 13.8C4 18.78 7.8 22 12 22C16.2 22 20 18.78 20 13.8C20 10.62 17.55 6.88002 12.66 2.58002ZM14 18H10C9.45 18 9 17.55 9 17C9 16.45 9.45 16 10 16H14C14.55 16 15 16.45 15 17C15 17.55 14.55 18 14 18ZM14 13H13V14C13 14.55 12.55 15 12 15C11.45 15 11 14.55 11 14V13H10C9.45 13 9 12.55 9 12C9 11.45 9.45 11 10 11H11V10C11 9.45002 11.45 9.00002 12 9.00002C12.55 9.00002 13 9.45002 13 10V11H14C14.55 11 15 11.45 15 12C15 12.55 14.55 13 14 13Z" fill="black"/>
</g>
<defs>
<clipPath id="clip0_401_32787">
<rect width="24" height="24" fill="white"/>
</clipPath>
</defs>
</svg>
