<svg width="24" height="24" viewBox="0 0 24 24" fill="none" xmlns="http://www.w3.org/2000/svg">
<g clip-path="url(#clip0_401_34501)">
<path d="M17 11V13H15.83L20.34 17.51C21.39 15.93 22 14.04 22 12C22 6.48 17.52 2 12 2C9.96 2 8.06999 2.61 6.49 3.66L13.83 11H17ZM2.1 4.93L3.66 6.49C2.29 8.56 1.66 11.17 2.18 13.94C2.93 17.89 6.1 21.07 10.06 21.82C12.83 22.34 15.44 21.72 17.51 20.34L19.07 21.9C19.46 22.29 20.09 22.29 20.48 21.9C20.87 21.51 20.87 20.88 20.48 20.49L3.51 3.51C3.12 3.12 2.49 3.12 2.1 3.51C1.71 3.91 1.71 4.54 2.1 4.93ZM7 11H8.17L10.17 13H7V11Z" fill="black"/>
</g>
<defs>
<clipPath id="clip0_401_34501">
<rect width="24" height="24" fill="white"/>
</clipPath>
</defs>
</svg>
