<svg width="24" height="24" viewBox="0 0 24 24" fill="none" xmlns="http://www.w3.org/2000/svg">
<g clip-path="url(#clip0_401_34212)">
<path d="M22 7.99997C22 7.44997 21.55 6.99997 21 6.99997H14C13.45 6.99997 13 7.44997 13 7.99997C13 8.54997 13.45 8.99997 14 8.99997H21C21.55 8.99997 22 8.54997 22 7.99997ZM13 16C13 16.55 13.45 17 14 17H21C21.55 17 22 16.55 22 16C22 15.45 21.55 15 21 15H14C13.45 15 13 15.45 13 16ZM10.47 4.62997C10.86 5.01997 10.86 5.64997 10.47 6.03997L6.23997 10.29C5.84997 10.68 5.21997 10.68 4.81997 10.29L2.69997 8.15997C2.30997 7.76997 2.30997 7.13997 2.69997 6.74997C3.08997 6.35997 3.71997 6.35997 4.10997 6.74997L5.52997 8.16997L9.06997 4.62997C9.44997 4.24997 10.09 4.24997 10.47 4.62997ZM10.48 12.64C10.87 13.03 10.87 13.66 10.48 14.05L6.24997 18.3C5.85997 18.69 5.22997 18.69 4.82997 18.3L2.69997 16.16C2.30997 15.77 2.30997 15.14 2.69997 14.75C3.08997 14.36 3.71997 14.36 4.10997 14.75L5.52997 16.17L9.06997 12.63C9.44997 12.25 10.09 12.25 10.48 12.64Z" fill="black"/>
</g>
<defs>
<clipPath id="clip0_401_34212">
<rect width="24" height="24" fill="white"/>
</clipPath>
</defs>
</svg>
