<svg width="24" height="24" viewBox="0 0 24 24" fill="none" xmlns="http://www.w3.org/2000/svg">
<g clip-path="url(#clip0_401_32687)">
<path d="M4 7C4.55 7 5 7.45 5 8V13C5 13.55 4.55 14 4 14C3.45 14 3 13.55 3 13V8C3 7.45 3.45 7 4 7ZM1 10C1.55 10 2 10.45 2 11V16C2 16.55 1.55 17 1 17C0.45 17 0 16.55 0 16V11C0 10.45 0.45 10 1 10ZM23 7C23.55 7 24 7.45 24 8V13C24 13.55 23.55 14 23 14C22.45 14 22 13.55 22 13V8C22 7.45 22.45 7 23 7ZM20 10C20.55 10 21 10.45 21 11V16C21 16.55 20.55 17 20 17C19.45 17 19 16.55 19 16V11C19 10.45 19.45 10 20 10ZM16 2.01L8 2C6.9 2 6 2.9 6 4V20C6 21.1 6.9 22 8 22H16C17.1 22 18 21.1 18 20V4C18 2.9 17.1 2.01 16 2.01ZM16 17H8V7H16V17Z" fill="black"/>
</g>
<defs>
<clipPath id="clip0_401_32687">
<rect width="24" height="24" fill="white"/>
</clipPath>
</defs>
</svg>
