<svg width="24" height="24" viewBox="0 0 24 24" fill="none" xmlns="http://www.w3.org/2000/svg">
<g clip-path="url(#clip0_401_32924)">
<path d="M21 1H3C1.9 1 1 1.9 1 3V21C1 22.1 1.9 23 3 23H21C22.1 23 23 22.1 23 21V3C23 1.9 22.1 1 21 1ZM19 18C19 18.55 18.55 19 18 19H7V20.79C7 21.24 6.46 21.46 6.15 21.15L3.36 18.36C3.16 18.16 3.16 17.85 3.36 17.65L6.15 14.86C6.46 14.54 7 14.76 7 15.21V17H17V14C17 13.45 17.45 13 18 13C18.55 13 19 13.45 19 14V18ZM10.75 10.5C10.34 10.5 10 10.16 10 9.75C10 9.34 10.34 9 10.75 9H12.25C12.66 9 13 9.34 13 9.75V14.25C13 14.66 12.66 15 12.25 15C11.84 15 11.5 14.66 11.5 14.25V10.5H10.75ZM20.64 6.35L17.85 9.14C17.54 9.46 17 9.24 17 8.79V7H7V10C7 10.55 6.55 11 6 11C5.45 11 5 10.55 5 10V6C5 5.45 5.45 5 6 5H17V3.21C17 2.76 17.54 2.54 17.85 2.85L20.64 5.64C20.84 5.84 20.84 6.15 20.64 6.35Z" fill="black"/>
</g>
<defs>
<clipPath id="clip0_401_32924">
<rect width="24" height="24" fill="white"/>
</clipPath>
</defs>
</svg>
