<svg width="24" height="24" viewBox="0 0 24 24" fill="none" xmlns="http://www.w3.org/2000/svg">
<g clip-path="url(#clip0_401_32656)">
<path d="M14 3C14 1.9 14.9 1 16 1C17.1 1 18 1.9 18 3C18 4.1 17.1 5 16 5C14.9 5 14 4.1 14 3ZM6.35002 9.53C6.82002 9.82 7.44002 9.68 7.73002 9.21L9.10002 7H11.45L8.94002 10.99C8.66002 11.44 8.57002 11.99 8.69002 12.51L9.50002 16L6.00002 18.35L5.53002 18.25C4.57002 18.05 3.82002 17.4 3.43002 16.58C3.33002 16.37 3.15002 16.21 2.92002 16.16C2.49002 16.07 2.10002 16.36 2.02002 16.74C1.98002 16.88 2.00002 17.05 2.07002 17.2C2.65002 18.44 3.78002 19.4 5.22002 19.71L17.85 22.4C19.29 22.71 20.71 22.29 21.75 21.39C21.88 21.28 21.96 21.13 21.99 20.98C22.07 20.6 21.83 20.18 21.4 20.09C21.17 20.04 20.94 20.11 20.76 20.26C20.07 20.86 19.12 21.14 18.16 20.93L17 20.69L16.12 15.26C16.04 14.77 15.78 14.33 15.4 14.02L12.68 11.83L14.48 8.94C15.44 10.47 17.02 11.58 18.87 11.9C19.47 12.01 20 11.51 20 10.9C20 10.42 19.65 10.01 19.17 9.92C17.68 9.64 16.45 8.63 15.87 7.28L15.35 6.07C15.16 5.64 14.61 5 13.7 5H9.11002C8.42002 5 7.78002 5.36 7.41002 5.94L6.03002 8.15C5.74002 8.62 5.88002 9.24 6.35002 9.53ZM8.73002 18.93L10.98 17.42C11.45 17.1 11.71 16.54 11.63 15.98L11.31 13.58L14.15 15.6L14.9 20.24L8.73002 18.93Z" fill="black"/>
</g>
<defs>
<clipPath id="clip0_401_32656">
<rect width="24" height="24" fill="white"/>
</clipPath>
</defs>
</svg>
