<svg width="24" height="24" viewBox="0 0 24 24" fill="none" xmlns="http://www.w3.org/2000/svg">
<g clip-path="url(#clip0_401_34192)">
<path d="M13 2.05V5.08C16.39 5.57 19 8.47 19 12C19 12.9 18.82 13.75 18.52 14.54L21.12 16.07C21.68 14.83 22 13.45 22 12C22 6.82 18.05 2.55 13 2.05ZM12 19C8.13 19 5 15.87 5 12C5 8.47 7.61 5.57 11 5.08V2.05C5.94 2.55 2 6.81 2 12C2 17.52 6.47 22 11.99 22C15.3 22 18.23 20.39 20.05 17.91L17.45 16.38C16.17 17.98 14.21 19 12 19Z" fill="black"/>
</g>
<defs>
<clipPath id="clip0_401_34192">
<rect width="24" height="24" fill="white"/>
</clipPath>
</defs>
</svg>
