<svg width="24" height="24" viewBox="0 0 24 24" fill="none" xmlns="http://www.w3.org/2000/svg">
<g clip-path="url(#clip0_401_32950)">
<path d="M9 6.17V5C9 3.9 9.89999 3 11 3H13C14.1 3 15 3.9 15 5C15 6.1 14.1 7 13 7H11V8.17L9 6.17ZM19.42 15L21.6 17.17C21.82 17.39 21.82 17.75 21.6 17.97C21.38 18.19 21.02 18.19 20.8 17.97L14.82 11.99C14.6 11.77 14.6 11.41 14.82 11.19C15.04 10.97 15.4 10.97 15.62 11.19L17.97 13.54V9.61C17.97 9.16 18.51 8.94 18.82 9.26L21.64 12.08C21.84 12.28 21.84 12.59 21.64 12.79L19.42 15ZM19.17 13.55L20.3 12.42L19.17 11.29V13.55ZM20.49 20.49C20.88 20.88 20.88 21.51 20.49 21.9C20.1 22.29 19.47 22.29 19.08 21.9L15.8 18.62L15.64 18.78C15.41 19.01 15.02 19.01 14.79 18.78C14.56 18.55 14.56 18.16 14.79 17.93L14.95 17.77L11 13.83V16.85C11 18.92 9.32 20.86 7.26 20.99C4.94 21.13 3 19.29 3 17C3 14.79 4.79 13 7.01 13C7.74 13 8.42 13.21 9.01 13.55V11.83L2.1 4.92C1.71 4.53 1.71 3.9 2.1 3.51C2.49 3.12 3.12 3.12 3.51 3.51L20.49 20.49Z" fill="black"/>
</g>
<defs>
<clipPath id="clip0_401_32950">
<rect width="24" height="24" fill="white"/>
</clipPath>
</defs>
</svg>
