<svg width="24" height="24" viewBox="0 0 24 24" fill="none" xmlns="http://www.w3.org/2000/svg">
<g clip-path="url(#clip0_401_32672)">
<path d="M15.88 10.5L17.5 12.12V15.5H14.5V10.5H15.88ZM22 8V18C22 19.1 21.1 20 20 20H4C2.9 20 2 19.1 2 18L2.01 6C2.01 4.9 2.9 4 4 4H9.17C9.7 4 10.21 4.21 10.58 4.59L12 6H20C21.1 6 22 6.9 22 8ZM19 11.91C19 11.64 18.89 11.39 18.71 11.2L16.8 9.29C16.61 9.11 16.35 9 16.09 9H14C13.45 9 13 9.45 13 10V16C13 16.55 13.45 17 14 17H18C18.55 17 19 16.55 19 16V11.91Z" fill="black"/>
</g>
<defs>
<clipPath id="clip0_401_32672">
<rect width="24" height="24" fill="white"/>
</clipPath>
</defs>
</svg>
