<svg width="24" height="24" viewBox="0 0 24 24" fill="none" xmlns="http://www.w3.org/2000/svg">
<g clip-path="url(#clip0_401_33387)">
<path d="M12 2C6.48 2 2 6.48 2 12C2 17.52 6.48 22 12 22C17.52 22 22 17.52 22 12C22 6.48 17.52 2 12 2ZM18 11.8C18.02 11.97 17.98 12.15 17.9 12.3L15.8 17.2C15.58 17.71 15.06 18.03 14.5 18H9C7.9 18 7 17.1 7 16V11C6.98 10.62 7.13 10.26 7.4 10L12 5L12.69 5.69C12.87 5.88 12.98 6.13 12.99 6.39V6.59L12.41 10H17C17.55 10 18 10.45 18 11V11.8Z" fill="black"/>
</g>
<defs>
<clipPath id="clip0_401_33387">
<rect width="24" height="24" fill="white"/>
</clipPath>
</defs>
</svg>
