<svg width="24" height="24" viewBox="0 0 24 24" fill="none" xmlns="http://www.w3.org/2000/svg">
<g clip-path="url(#clip0_401_33012)">
<path d="M20.42 4.49997L21.8 3.11997C22.19 2.72997 22.19 2.09997 21.8 1.70997C21.41 1.31997 20.78 1.31997 20.39 1.70997L19 3.07997L17.62 1.69997C17.23 1.30997 16.6 1.30997 16.21 1.69997C15.82 2.08997 15.82 2.71997 16.21 3.10997L17.59 4.48997L16.21 5.86997C15.82 6.25997 15.82 6.88997 16.21 7.27997C16.6 7.66997 17.23 7.66997 17.62 7.27997L19 5.91997L20.38 7.29997C20.77 7.68997 21.4 7.68997 21.79 7.29997C22.18 6.90997 22.18 6.27997 21.79 5.88997L20.42 4.49997Z" fill="black"/>
<path d="M19.67 8L19 7.33L18.41 7.92C17.71 8.62 16.57 8.8 15.76 8.22C14.73 7.48 14.64 6.03 15.5 5.17L16.17 4.5L15.5 3.83C15.14 3.47 14.96 3.02 14.93 2.55C14.01 2.19 13.02 2 12 2C7.8 2 4 5.22 4 10.2C4 13.38 6.45 17.12 11.34 21.43C11.72 21.76 12.29 21.76 12.67 21.43C17.55 17.12 20 13.38 20 10.2C20 9.44 19.9 8.73 19.74 8.06C19.72 8.04 19.69 8.02 19.67 8ZM12 12C10.9 12 10 11.1 10 10C10 8.9 10.9 8 12 8C13.1 8 14 8.9 14 10C14 11.1 13.1 12 12 12Z" fill="black"/>
</g>
<defs>
<clipPath id="clip0_401_33012">
<rect width="24" height="24" fill="white"/>
</clipPath>
</defs>
</svg>
