<svg width="24" height="24" viewBox="0 0 24 24" fill="none" xmlns="http://www.w3.org/2000/svg">
<g clip-path="url(#clip0_401_34367)">
<path d="M20.49 20.49L3.51 3.50995C3.12 3.11995 2.49 3.11995 2.1 3.50995C1.71 3.89995 1.71 4.52995 2.1 4.91995L4.41 7.22995C3.57 8.55995 3.05 10.09 3 11.74C2.86 16.83 6.94 21 12 21C13.76 21 15.39 20.48 16.78 19.61L19.07 21.9C19.46 22.29 20.09 22.29 20.48 21.9C20.88 21.51 20.88 20.88 20.49 20.49ZM10.72 18.89C7.94 18.4 5.68 16.18 5.14 13.42C4.8 11.7 5.11 10.06 5.86 8.68995L15.32 18.15C13.98 18.87 12.4 19.18 10.72 18.89ZM13 7.99995V10.17L11 8.16995V7.99995C11 7.44995 11.45 6.99995 12 6.99995C12.55 6.99995 13 7.44995 13 7.99995ZM20.72 14.23C20.49 15.15 20.11 16 19.62 16.78L18.15 15.31C18.42 14.81 18.64 14.28 18.78 13.72C18.89 13.3 19.29 13 19.73 13C20.38 13 20.88 13.61 20.72 14.23ZM7.24 4.40995C8.7 3.47995 10.42 2.95995 12.24 2.99995C14.89 3.06995 17.24 4.27995 18.84 6.15995L20.15 4.84995C20.46 4.53995 21 4.75995 21 5.20995V9.49995C21 9.77995 20.78 9.99995 20.5 9.99995H16.21C15.76 9.99995 15.54 9.45995 15.86 9.14995L17.41 7.59995C16.12 6.01995 14.18 4.99995 12 4.99995C10.8 4.99995 9.67 5.30995 8.68 5.84995L7.24 4.40995Z" fill="black"/>
</g>
<defs>
<clipPath id="clip0_401_34367">
<rect width="24" height="24" fill="white"/>
</clipPath>
</defs>
</svg>
