<svg width="24" height="24" viewBox="0 0 24 24" fill="none" xmlns="http://www.w3.org/2000/svg">
<g clip-path="url(#clip0_401_34027)">
<path d="M5 7H19C20.1 7 21 7.9 21 9V15C21 16.1 20.1 17 19 17H5C3.9 17 3 16.1 3 15V9C3 7.9 3.9 7 5 7ZM4 3H20C20.55 3 21 3.45 21 4C21 4.55 20.55 5 20 5H4C3.45 5 3 4.55 3 4C3 3.45 3.45 3 4 3ZM4 19H20C20.55 19 21 19.45 21 20C21 20.55 20.55 21 20 21H4C3.45 21 3 20.55 3 20C3 19.45 3.45 19 4 19Z" fill="black"/>
</g>
<defs>
<clipPath id="clip0_401_34027">
<rect width="24" height="24" fill="white"/>
</clipPath>
</defs>
</svg>
