<svg width="24" height="24" viewBox="0 0 24 24" fill="none" xmlns="http://www.w3.org/2000/svg">
<g clip-path="url(#clip0_401_32922)">
<path d="M17.63 7H6.37C3.96 7 2 9.24 2 12C2 14.76 3.96 17 6.37 17H17.63C20.04 17 22 14.76 22 12C22 9.24 20.04 7 17.63 7ZM11.11 10.6L7.6 14.11C7.5 14.21 7.37 14.26 7.25 14.26C7.13 14.26 6.99 14.21 6.9 14.11L5.04 12.25C4.84 12.05 4.84 11.74 5.04 11.54C5.24 11.34 5.55 11.34 5.75 11.54L7.26 13.05L10.42 9.89C10.62 9.69 10.93 9.69 11.13 9.89C11.33 10.09 11.3 10.4 11.11 10.6Z" fill="black"/>
</g>
<defs>
<clipPath id="clip0_401_32922">
<rect width="24" height="24" fill="white"/>
</clipPath>
</defs>
</svg>
