<svg width="24" height="24" viewBox="0 0 24 24" fill="none" xmlns="http://www.w3.org/2000/svg">
<g clip-path="url(#clip0_401_34210)">
<path d="M13.5 10H9C8.45 10 8 10.45 8 11V14C8 14.55 8.45 15 9 15C9.55 15 10 14.55 10 14V12H13.5V13.29C13.5 13.74 14.04 13.96 14.35 13.64L16.64 11.35C16.84 11.15 16.84 10.84 16.64 10.64L14.35 8.35C14.04 8.04 13.5 8.26 13.5 8.7V10ZM12 1C5.9 1 1 5.9 1 12C1 18.1 5.9 23 12 23C18.1 23 23 18.1 23 12C23 5.9 18.1 1 12 1ZM19.73 12.58L12.54 19.8C12.19 20.07 11.75 20.07 11.39 19.8L4.2 12.58C3.93 12.22 3.93 11.78 4.2 11.42L11.39 4.2C11.74 3.93 12.18 3.93 12.54 4.2L19.73 11.42C20.09 11.69 20.09 12.22 19.73 12.58Z" fill="black"/>
</g>
<defs>
<clipPath id="clip0_401_34210">
<rect width="24" height="24" fill="white"/>
</clipPath>
</defs>
</svg>
