<svg width="24" height="24" viewBox="0 0 24 24" fill="none" xmlns="http://www.w3.org/2000/svg">
<g clip-path="url(#clip0_401_33915)">
<path d="M19 8V16H15V8H19ZM19 5H15C13.34 5 12 6.34 12 8V16C12 17.66 13.34 19 15 19H19C20.66 19 22 17.66 22 16V8C22 6.34 20.66 5 19 5ZM10 6.5C10 5.67 9.33 5 8.5 5H5C3.34 5 2 6.34 2 8V16C2 17.66 3.34 19 5 19H8C9.66 19 11 17.66 11 16V13C11 11.34 9.66 10 8 10H5V8H8.5C9.33 8 10 7.33 10 6.5ZM8 13V16H5V13H8Z" fill="black"/>
</g>
<defs>
<clipPath id="clip0_401_33915">
<rect width="24" height="24" fill="white"/>
</clipPath>
</defs>
</svg>
