<svg width="24" height="24" viewBox="0 0 24 24" fill="none" xmlns="http://www.w3.org/2000/svg">
<g clip-path="url(#clip0_401_32819)">
<path d="M14 10.5V11H11V10.5C11 9.67 10.33 9 9.5 9H8.5V7H9.5C10.33 7 11 6.33 11 5.5V2.5C11 1.67 10.33 1 9.5 1H5.5C4.67 1 4 1.67 4 2.5V5.5C4 6.33 4.67 7 5.5 7H6.5V9H5.5C4.67 9 4 9.67 4 10.5V13.5C4 14.33 4.67 15 5.5 15H6.5V17H5.5C4.67 17 4 17.67 4 18.5V21.5C4 22.33 4.67 23 5.5 23H9.5C10.33 23 11 22.33 11 21.5V18.5C11 17.67 10.33 17 9.5 17H8.5V15H9.5C10.33 15 11 14.33 11 13.5V13H14V13.5C14 14.33 14.67 15 15.5 15H19.5C20.33 15 21 14.33 21 13.5V10.5C21 9.67 20.33 9 19.5 9H15.5C14.67 9 14 9.67 14 10.5Z" fill="black"/>
</g>
<defs>
<clipPath id="clip0_401_32819">
<rect width="24" height="24" fill="white"/>
</clipPath>
</defs>
</svg>
