<svg width="24" height="24" viewBox="0 0 24 24" fill="none" xmlns="http://www.w3.org/2000/svg">
<g clip-path="url(#clip0_401_33825)">
<path d="M4 11.4999V15.4999C4 16.3299 4.67 16.9999 5.5 16.9999C6.33 16.9999 7 16.3299 7 15.4999V11.4999C7 10.6699 6.33 9.99995 5.5 9.99995C4.67 9.99995 4 10.6699 4 11.4999ZM10 11.4999V15.4999C10 16.3299 10.67 16.9999 11.5 16.9999C12.33 16.9999 13 16.3299 13 15.4999V11.4999C13 10.6699 12.33 9.99995 11.5 9.99995C10.67 9.99995 10 10.6699 10 11.4999ZM3.5 21.9999H19.5C20.33 21.9999 21 21.3299 21 20.4999C21 19.6699 20.33 18.9999 19.5 18.9999H3.5C2.67 18.9999 2 19.6699 2 20.4999C2 21.3299 2.67 21.9999 3.5 21.9999ZM16 11.4999V15.4999C16 16.3299 16.67 16.9999 17.5 16.9999C18.33 16.9999 19 16.3299 19 15.4999V11.4999C19 10.6699 18.33 9.99995 17.5 9.99995C16.67 9.99995 16 10.6699 16 11.4999ZM10.57 1.48995L2.67 5.64995C2.26 5.85995 2 6.28995 2 6.74995C2 7.43995 2.56 7.99995 3.25 7.99995H19.76C20.44 7.99995 21 7.43995 21 6.74995C21 6.28995 20.74 5.85995 20.33 5.64995L12.43 1.48995C11.85 1.17995 11.15 1.17995 10.57 1.48995Z" fill="black"/>
</g>
<defs>
<clipPath id="clip0_401_33825">
<rect width="24" height="24" fill="white"/>
</clipPath>
</defs>
</svg>
