<svg width="24" height="24" viewBox="0 0 24 24" fill="none" xmlns="http://www.w3.org/2000/svg">
<g clip-path="url(#clip0_401_33676)">
<path d="M12.83 10L16.92 14.09L17 14L18.29 15.29C18.68 15.68 19.32 15.68 19.71 15.29L22.3 12.68C22.69 12.29 22.69 11.65 22.29 11.26L21.3 10.29C21.1 10.1 20.85 10 20.59 10H12.83ZM19.07 21.9C19.46 22.29 20.09 22.29 20.48 21.9C20.87 21.51 20.87 20.88 20.48 20.49L3.51 3.51003C3.12 3.12003 2.49 3.12003 2.1 3.51003C1.71 3.90003 1.71 4.53003 2.1 4.92003L3.98 6.80003C2.2 7.85003 1 9.79003 1 12C1 15.31 3.69 18 7 18C9.21 18 11.15 16.8 12.18 15.01L19.07 21.9ZM9.91 12.74C9.58 14.03 8.4 15 7 15C5.35 15 4 13.65 4 12C4 10.6 4.97 9.42003 6.26 9.09003L9.91 12.74Z" fill="black"/>
</g>
<defs>
<clipPath id="clip0_401_33676">
<rect width="24" height="24" fill="white"/>
</clipPath>
</defs>
</svg>
