<svg width="24" height="24" viewBox="0 0 24 24" fill="none" xmlns="http://www.w3.org/2000/svg">
<g clip-path="url(#clip0_401_33799)">
<path d="M17.12 6.28L14.5 6.92L13 5.77V3.88V3.4C13 3.14 13.22 2.92 13.5 2.92C13.73 2.92 13.93 3.08 13.99 3.28C14.1 3.7 14.49 4 14.94 4C15.49 4 15.94 3.55 15.94 3C15.94 2.9 15.92 2.8 15.89 2.7C15.59 1.72 14.63 1 13.5 1C12.12 1 11 2.07 11 3.4V3.88V5.77L9.5 6.92L6.88 6.28C6.5 6.19 6.16 6.55 6.28 6.92L11.05 21.31C11.2 21.77 11.6 22 12 22C12.4 22 12.8 21.77 12.95 21.31L17.72 6.92C17.84 6.55 17.5 6.19 17.12 6.28ZM11 14.8L9.03 8.86L9.95 9.09L10.71 8.51L11 8.29V14.8ZM13 14.8V8.29L13.28 8.51L14.04 9.09L14.96 8.86L13 14.8Z" fill="black"/>
</g>
<defs>
<clipPath id="clip0_401_33799">
<rect width="24" height="24" fill="white"/>
</clipPath>
</defs>
</svg>
