<svg width="24" height="24" viewBox="0 0 24 24" fill="none" xmlns="http://www.w3.org/2000/svg">
<g clip-path="url(#clip0_401_33355)">
<path d="M19 3H5C3.9 3 3 3.9 3 5V19C3 20.1 3.9 21 5 21H19C20.1 21 21 20.1 21 19V5C21 3.9 20.1 3 19 3ZM10 14C10 14.55 9.55 15 9 15H7C6.45 15 6 14.55 6 14V10C6 9.45 6.45 9 7 9H9C9.55 9 10 9.45 10 10V14ZM14.59 15C14.37 15 14.17 14.9 14.04 14.73L12.5 12.75V14.3C12.5 14.69 12.19 15 11.8 15H11.7C11.31 15 11 14.69 11 14.3V9.7C11 9.31 11.31 9 11.7 9H11.79C12.18 9 12.49 9.31 12.49 9.7V11.25L14.03 9.27C14.17 9.1 14.38 9 14.59 9C15.17 9 15.5 9.66 15.15 10.12L13.75 12L15.16 13.88C15.5 14.34 15.17 15 14.59 15ZM19 12.5H17.5V14H16.5V12.5H15V11.5H16.5V10H17.5V11.5H19V12.5Z" fill="black"/>
<path d="M8.5 12.5H7.5V14H8.5V12.5Z" fill="black"/>
<path d="M8.5 10H7.5V11.5H8.5V10Z" fill="black"/>
</g>
<defs>
<clipPath id="clip0_401_33355">
<rect width="24" height="24" fill="white"/>
</clipPath>
</defs>
</svg>
