<svg width="24" height="24" viewBox="0 0 24 24" fill="none" xmlns="http://www.w3.org/2000/svg">
<g clip-path="url(#clip0_401_33198)">
<path d="M20 19V5C20 3.9 19.1 3 18 3H6C4.9 3 4 3.9 4 5V19H3C2.45 19 2 19.45 2 20C2 20.55 2.45 21 3 21H21C21.55 21 22 20.55 22 20C22 19.45 21.55 19 21 19H20ZM8.19 12C10.23 10.65 11.69 8.06 11.95 5H12.04C12.3 8.06 13.76 10.65 15.8 12C13.76 13.35 12.3 15.94 12.04 19H11.95C11.69 15.94 10.23 13.35 8.19 12Z" fill="black"/>
</g>
<defs>
<clipPath id="clip0_401_33198">
<rect width="24" height="24" fill="white"/>
</clipPath>
</defs>
</svg>
