<svg width="24" height="24" viewBox="0 0 24 24" fill="none" xmlns="http://www.w3.org/2000/svg">
<g clip-path="url(#clip0_401_34227)">
<path d="M3 6C2.45 6 2 5.55 2 5V2C2 1.45 2.45 1 3 1H6C6.55 1 7 1.45 7 2C7 2.55 6.55 3 6 3H4V5C4 5.55 3.55 6 3 6ZM17 2C17 2.55 17.45 3 18 3H20V5C20 5.55 20.45 6 21 6C21.55 6 22 5.55 22 5V2C22 1.45 21.55 1 21 1H18C17.45 1 17 1.45 17 2ZM3 18C2.45 18 2 18.45 2 19V22C2 22.55 2.45 23 3 23H6C6.55 23 7 22.55 7 22C7 21.45 6.55 21 6 21H4V19C4 18.45 3.55 18 3 18ZM17 22C17 22.55 17.45 23 18 23H21C21.55 23 22 22.55 22 22V19C22 18.45 21.55 18 21 18C20.45 18 20 18.45 20 19V21H18C17.45 21 17 21.45 17 22ZM19 18C19 19.1 18.1 20 17 20H7C5.9 20 5 19.1 5 18V6C5 4.9 5.9 4 7 4H17C18.1 4 19 4.9 19 6V18ZM9 9C9 9.55 9.45 10 10 10H14C14.55 10 15 9.55 15 9C15 8.45 14.55 8 14 8H10C9.45 8 9 8.45 9 9ZM9 12C9 12.55 9.45 13 10 13H14C14.55 13 15 12.55 15 12C15 11.45 14.55 11 14 11H10C9.45 11 9 11.45 9 12ZM9 15C9 15.55 9.45 16 10 16H14C14.55 16 15 15.55 15 15C15 14.45 14.55 14 14 14H10C9.45 14 9 14.45 9 15Z" fill="black"/>
</g>
<defs>
<clipPath id="clip0_401_34227">
<rect width="24" height="24" fill="white"/>
</clipPath>
</defs>
</svg>
