<svg width="24" height="24" viewBox="0 0 24 24" fill="none" xmlns="http://www.w3.org/2000/svg">
<g clip-path="url(#clip0_401_33677)">
<path d="M17.83 15H19.5C20.05 15 20.5 14.55 20.5 14V12.5C20.5 11.95 20.05 11.5 19.5 11.5H17V10.5H19.04C19.14 10.79 19.42 11 19.75 11C20.16 11 20.5 10.66 20.5 10.25V10C20.5 9.45003 20.05 9.00003 19.5 9.00003H16.5C15.95 9.00003 15.5 9.45003 15.5 10V11.5C15.5 12.05 15.95 12.5 16.5 12.5H19V13.5H16.96C16.86 13.21 16.58 13 16.25 13C16.13 13 16.01 13.03 15.91 13.08L17.83 15ZM19.07 21.9C19.46 22.29 20.09 22.29 20.48 21.9C20.87 21.51 20.87 20.88 20.48 20.49L3.51 3.51003C3.12 3.12003 2.49 3.12003 2.1 3.51003C1.71 3.90003 1.71 4.53003 2.1 4.92003L6.58 9.40003C6.52999 9.51003 6.5 9.63003 6.5 9.75003V11H4.5V9.75003C4.5 9.34003 4.16 9.00003 3.75 9.00003C3.34 9.00003 3 9.34003 3 9.75003V14.25C3 14.66 3.34 15 3.75 15C4.16 15 4.5 14.66 4.5 14.25V12.5H6.5V14.25C6.5 14.66 6.84 15 7.25 15C7.66 15 8 14.66 8 14.25V10.83L10 12.83V14C10 14.55 10.45 15 11 15H12.17L19.07 21.9Z" fill="black"/>
</g>
<defs>
<clipPath id="clip0_401_33677">
<rect width="24" height="24" fill="white"/>
</clipPath>
</defs>
</svg>
