<svg width="24" height="24" viewBox="0 0 24 24" fill="none" xmlns="http://www.w3.org/2000/svg">
<g clip-path="url(#clip0_401_32803)">
<path d="M21.9 7.89L20.85 4.52C20.63 3.62 19.85 3 18.94 3H5.05001C4.15001 3 3.36001 3.63 3.15001 4.52L2.10001 7.89C1.64001 9.86 2.95001 11 3.00001 11.06V19C3.00001 20.1 3.90001 21 5.00001 21H19C20.1 21 21 20.1 21 19V11.06C22.12 9.94 22.09 8.65 21.9 7.89ZM13 5H14.96L15.5 8.52C15.59 9.23 15.11 10 14.22 10C13.55 10 13 9.41 13 8.69V5ZM6.44001 8.86C6.36001 9.51 5.84001 10 5.23001 10C4.30001 10 3.88001 9.03 4.04001 8.36L5.05001 5H7.02001L6.44001 8.86ZM10.5 16H9.00001V17H10.5C10.78 17 11 17.22 11 17.5C11 17.78 10.78 18 10.5 18H8.50001C8.22001 18 8.00001 17.78 8.00001 17.5V15.5C8.00001 15.22 8.22001 15 8.50001 15H10V14H8.50001C8.22001 14 8.00001 13.78 8.00001 13.5C8.00001 13.22 8.22001 13 8.50001 13H10.5C10.78 13 11 13.22 11 13.5V15.5C11 15.78 10.78 16 10.5 16ZM11 8.69C11 9.41 10.45 10 9.71001 10C8.96001 10 8.41001 9.3 8.49001 8.52L9.04001 5H11V8.69ZM15.5 18C15.22 18 15 17.78 15 17.5V16H13.5C13.22 16 13 15.78 13 15.5V13.5C13 13.22 13.22 13 13.5 13C13.78 13 14 13.22 14 13.5V15H15V13.5C15 13.22 15.22 13 15.5 13C15.78 13 16 13.22 16 13.5V17.5C16 17.78 15.78 18 15.5 18ZM18.77 10C18.16 10 17.63 9.51 17.56 8.86L16.98 5L18.91 4.99L19.96 8.36C20.12 9.03 19.71 10 18.77 10Z" fill="black"/>
</g>
<defs>
<clipPath id="clip0_401_32803">
<rect width="24" height="24" fill="white"/>
</clipPath>
</defs>
</svg>
