<svg width="24" height="24" viewBox="0 0 24 24" fill="none" xmlns="http://www.w3.org/2000/svg">
<g clip-path="url(#clip0_401_32542)">
<path d="M12.5 6.9C13.92 6.9 14.63 7.44 14.89 8.3C15.02 8.73 15.45 9 15.9 9H15.96C16.66 9 17.18 8.29 16.93 7.64C16.49 6.49 15.52 5.56 14 5.19V4.5C14 3.67 13.33 3 12.5 3C11.67 3 11 3.67 11 4.5V5.16C10.61 5.24 10.25 5.37 9.89998 5.52L11.41 7.03C11.73 6.95 12.1 6.9 12.5 6.9ZM4.76998 4.62C4.37998 5.01 4.37998 5.64 4.76998 6.03L7.49998 8.77C7.49998 10.85 9.05998 11.99 11.41 12.68L14.92 16.19C14.58 16.68 13.87 17.1 12.5 17.1C10.85 17.1 9.99998 16.51 9.66998 15.67C9.51998 15.28 9.17998 15 8.76998 15H8.59998C7.87998 15 7.35998 15.74 7.64998 16.39C8.23998 17.72 9.53998 18.51 11.01 18.83V19.5C11.01 20.33 11.68 21 12.51 21C13.34 21 14.01 20.33 14.01 19.5V18.85C14.97 18.67 15.84 18.3 16.47 17.73L17.98 19.24C18.37 19.63 19 19.63 19.39 19.24C19.78 18.85 19.78 18.22 19.39 17.83L6.17998 4.62C5.78998 4.23 5.15998 4.23 4.76998 4.62Z" fill="black"/>
</g>
<defs>
<clipPath id="clip0_401_32542">
<rect width="24" height="24" fill="white"/>
</clipPath>
</defs>
</svg>
