<svg width="24" height="24" viewBox="0 0 24 24" fill="none" xmlns="http://www.w3.org/2000/svg">
<g clip-path="url(#clip0_401_34328)">
<path d="M17 1H7C5.9 1 5 1.9 5 3V21C5 22.1 5.9 23 7 23H17C18.1 23 19 22.1 19 21V3C19 1.9 18.1 1 17 1ZM16 19H8C7.45 19 7 18.55 7 18V6C7 5.45 7.45 5 8 5H16C16.55 5 17 5.45 17 6V18C17 18.55 16.55 19 16 19Z" fill="black"/>
<path d="M15 6H9C8.45 6 8 6.45 8 7C8 7.55 8.45 8 9 8H15C15.55 8 16 7.55 16 7C16 6.45 15.55 6 15 6Z" fill="black"/>
</g>
<defs>
<clipPath id="clip0_401_34328">
<rect width="24" height="24" fill="white"/>
</clipPath>
</defs>
</svg>
