<svg width="151" height="142" viewBox="0 0 151 142" fill="none" xmlns="http://www.w3.org/2000/svg">
<g clip-path="url(#clip0)">
<path d="M117.311 13.5735L121.577 9.53334C119.566 7.46382 117.073 7.35342 114.623 7.38215C111.424 7.46318 108.328 8.53109 105.76 10.4396C100.975 13.866 96.3053 17.4493 91.7491 21.1895C85.8416 26.0373 80.2482 31.2784 74.2246 35.9704C71.5297 38.0693 68.1289 39.2692 65.0159 40.8107C64.5937 41.0195 63.9797 40.8394 62.8671 40.8394C63.1863 39.4595 63.1563 38.0834 63.7856 37.1543C65.3031 34.913 66.8497 32.551 68.8776 30.8225C77.3587 23.5993 85.8965 16.4291 94.6802 9.58264C98.4531 6.6136 102.59 4.13862 106.99 2.2177C114.117 -0.833911 121.077 -0.164135 127.124 5.25328C129.88 4.31207 132.583 3.15627 135.401 2.4743C137.746 1.88374 140.216 2.02811 142.476 2.88773C144.737 3.74736 146.678 5.28083 148.039 7.28069C151.071 11.7843 151.402 17.6851 148.127 21.708C144.704 25.9128 140.693 29.6386 136.555 33.9763C137.666 37.0815 136.132 39.987 133.403 42.575C123.337 52.1238 113.564 61.9995 103.212 71.2255C88.8614 84.0162 74.0689 96.3095 59.5071 108.864C54.2093 113.428 48.8763 117.964 43.8522 122.817C38.7691 127.766 32.7171 131.61 26.0769 134.105C20.6718 136.148 15.2725 138.202 9.84181 140.171C8.52705 140.702 7.13225 141.009 5.71586 141.077C2.47649 141.094 0.578865 138.413 1.3844 135.233C1.49197 134.81 1.64319 134.399 1.83566 134.007C6.5165 124.511 11.2099 115.021 15.9159 105.537C16.4166 104.572 17.0726 103.696 17.8576 102.943C31.1546 89.9732 44.4267 76.9763 57.8099 64.0955C72.0595 50.3811 86.3714 36.732 100.747 23.1485C103.439 20.5943 106.428 18.3517 109.101 15.7796C111.527 13.4521 114.135 12.3916 117.311 13.5735ZM64.5995 94.8147C86.2419 76.4431 107.25 57.9243 126.736 37.6153L114.104 20.6881L50.9954 80.3599L64.5995 94.8147ZM45.979 85.3291L23.7797 106.056C27.6733 111.067 31.1725 116.254 35.1905 120.941L57.5801 100.515C53.7337 95.4807 49.9652 90.5453 45.979 85.3291ZM130.166 27.914C132.434 26.1995 134.634 24.7487 136.574 23.0125C138.509 21.2662 140.306 19.3718 141.947 17.3466C143.486 15.4629 143.356 13.2115 142.182 11.2128C140.999 9.20143 138.981 8.76837 136.77 9.16107C136.123 9.24453 135.484 9.38092 134.86 9.56859C129.836 11.3682 125.287 14.2839 121.552 18.0964C124.734 21.7195 127.807 25.2257 130.166 27.914ZM18.0932 112.29C15.7353 118.653 13.5471 124.56 11.3584 130.466L11.9597 130.883L26.7242 125.279L18.0932 112.29Z" fill="black"/>
</g>
<defs>
<clipPath id="clip0">
<rect width="150" height="141.118" fill="white" transform="translate(0.777344)"/>
</clipPath>
</defs>
</svg>
