<svg width="20" height="20" viewBox="0 0 20 20" fill="none" xmlns="http://www.w3.org/2000/svg">
<path fill-rule="evenodd" clip-rule="evenodd" d="M6.61656 11.7675L8.38406 10L6.76781 8.38375H12.0316C14.3753 8.38375 15.0003 10.7412 15.0003 12.1337C15.0003 13.16 14.7078 14.1388 14.1953 14.8213C13.6678 15.5263 12.9391 15.8837 12.0316 15.8837H5.00031V18.3837H12.0316C13.7203 18.3837 15.1978 17.6513 16.1953 16.3213C17.0366 15.2 17.5003 13.7125 17.5003 12.1337C17.5003 9.0275 15.6216 5.88375 12.0316 5.88375H6.76781L8.38406 4.2675L6.61656 2.5L2.86656 6.25C2.37781 6.73875 2.37781 7.52875 2.86656 8.0175L6.61656 11.7675Z" fill="#C02445"/>
</svg>
