<svg width="32" height="32" viewBox="0 0 32 32" fill="none" xmlns="http://www.w3.org/2000/svg">
<path fill-rule="evenodd" clip-rule="evenodd" d="M0.211836 23.896C0.549836 24.574 1.24184 25 1.99984 25H9.33384V25.334C9.33384 28.948 12.3858 32 15.9998 32C19.6138 32 22.6678 28.948 22.6678 25.334V25H29.9998C30.7578 25 31.4498 24.574 31.7898 23.896C32.1278 23.218 32.0558 22.408 31.5998 21.802L24.9818 12.976C24.7958 9.372 23.1298 3.74 17.9998 2.566V2C17.9998 0.896 17.1038 0 15.9998 0C14.8958 0 13.9998 0.896 13.9998 2V2.566C8.87184 3.74 7.20584 9.372 7.01784 12.976L0.399836 21.802C-0.054164 22.408 -0.128164 23.218 0.211836 23.896ZM10.5998 14.866C10.8598 14.52 10.9998 14.1 10.9998 13.666C10.9998 13.368 11.0578 6.334 15.9998 6.334C20.9038 6.334 20.9978 13.372 20.9998 13.666C20.9998 14.1 21.1418 14.52 21.3998 14.866L25.9998 21H5.99984L10.5998 14.866ZM15.9998 28C17.4218 28 18.6678 26.754 18.6678 25.334V25H13.3338V25.334C13.3338 26.754 14.5798 28 15.9998 28Z" fill="#C02445"/>
</svg>
