<svg width="16" height="16" viewBox="0 0 16 16" fill="none" xmlns="http://www.w3.org/2000/svg">
<path fill-rule="evenodd" clip-rule="evenodd" d="M15.0211 5.99779C14.6757 5.9598 14.3794 5.73432 14.2413 5.38883C14.103 5.06499 14.1572 4.69096 14.3819 4.41976C14.6759 4.06483 14.6893 3.55491 14.4142 3.18507C13.9488 2.55921 13.3944 2.00477 12.7685 1.53935C12.3959 1.26223 11.8814 1.27813 11.5266 1.57776C11.2613 1.80182 10.894 1.86133 10.5715 1.73253C10.249 1.60373 10.0238 1.3076 9.9858 0.962403C9.93592 0.509245 9.58587 0.147181 9.13465 0.0820535C8.37668 -0.0273512 7.60692 -0.0273512 6.84894 0.0820535C6.39244 0.147943 6.04023 0.5175 5.99634 0.976633C5.96309 1.32442 5.7397 1.62508 5.4163 1.75728C5.09291 1.88949 4.72287 1.83143 4.45551 1.60653C4.10066 1.30804 3.58716 1.29265 3.21507 1.56935C2.58921 2.03477 2.03477 2.58921 1.56935 3.21507C1.29265 3.58716 1.30804 4.10066 1.60653 4.45551C1.83143 4.72287 1.88949 5.09291 1.75728 5.4163C1.62508 5.7397 1.32442 5.96309 0.976633 5.99634C0.5175 6.04023 0.147943 6.39244 0.0820535 6.84894C-0.0273512 7.60692 -0.0273512 8.37668 0.0820535 9.13465C0.147774 9.58998 0.515667 9.94172 0.973484 9.98695C1.31845 10.021 1.61666 10.2422 1.74941 10.5624C1.88216 10.8826 1.8279 11.2499 1.60823 11.5181C1.31745 11.873 1.30555 12.3803 1.57935 12.7485C2.04477 13.3744 2.59921 13.9288 3.22507 14.3942C3.59495 14.6693 4.10491 14.6559 4.45984 14.3618C4.72862 14.1391 5.09869 14.0836 5.42094 14.2178C5.74319 14.352 5.96455 14.6537 5.99582 15.0014C6.03733 15.4628 6.39037 15.8354 6.84894 15.9015C7.60692 16.0109 8.37668 16.0109 9.13465 15.9015C9.58998 15.8358 9.94172 15.4679 9.98695 15.0101C10.021 14.6651 10.2422 14.3669 10.5624 14.2342C10.8826 14.1014 11.2499 14.1557 11.5181 14.3754C11.873 14.6661 12.3803 14.678 12.7485 14.4042C13.3744 13.9388 13.9288 13.3844 14.3942 12.7585C14.6693 12.3886 14.6559 11.8787 14.3618 11.5238C14.1391 11.255 14.0836 10.8849 14.2178 10.5627C14.352 10.2404 14.6537 10.019 15.0014 9.98778C15.4628 9.94627 15.8354 9.59322 15.9015 9.13465C16.0109 8.37668 16.0109 7.60692 15.9015 6.84894C15.8364 6.3977 15.4743 6.04764 15.0211 5.99779ZM12.0775 3.56226C12.1874 3.66427 12.2934 3.77037 12.3953 3.88032C12.0929 4.59991 12.0847 5.42306 12.3974 6.16348C12.6942 6.89897 13.2696 7.47161 13.9796 7.77166C13.9848 7.9143 13.9849 8.05707 13.98 8.19972C13.2633 8.49068 12.6778 9.0582 12.3715 9.79383C12.0645 10.5311 12.0748 11.3485 12.3752 12.0633C12.2713 12.1755 12.163 12.2837 12.0508 12.3876C11.3398 12.0922 10.5288 12.0831 9.79651 12.3866C9.06506 12.6899 8.49884 13.2691 8.20513 13.9798C8.06476 13.9848 7.92425 13.9849 7.78387 13.98C7.49292 13.2633 6.92539 12.6778 6.18976 12.3715C5.45245 12.0645 4.6351 12.0748 3.92028 12.3752C3.80809 12.2713 3.69991 12.163 3.59599 12.0508C3.8914 11.3398 3.90053 10.5288 3.59695 9.79651C3.29372 9.06506 2.71446 8.49884 2.00379 8.20513C1.99876 8.06361 1.99874 7.92194 2.00372 7.78042C2.7216 7.48563 3.30606 6.91307 3.60856 6.17312C3.91034 5.43491 3.89515 4.61899 3.59145 3.90693C3.69266 3.79789 3.79789 3.69266 3.90693 3.59145C4.61899 3.89515 5.43491 3.91034 6.17312 3.60856C6.91307 3.30606 7.48563 2.7216 7.78042 2.00372C7.92422 1.99866 8.06817 1.99876 8.21197 2.00404C8.51334 2.717 9.08964 3.29431 9.82975 3.58989C10.5638 3.88306 11.372 3.8643 12.0775 3.56226ZM8 11C6.34315 11 5 9.65685 5 8C5 6.34315 6.34315 5 8 5C9.65685 5 11 6.34315 11 8C11 9.65685 9.65685 11 8 11ZM9 8C9 8.55228 8.55228 9 8 9C7.44772 9 7 8.55228 7 8C7 7.44772 7.44772 7 8 7C8.55228 7 9 7.44772 9 8Z" fill="#C02445"/>
</svg>
