<svg width="20" height="20" viewBox="0 0 20 20" fill="none" xmlns="http://www.w3.org/2000/svg">
<path fill-rule="evenodd" clip-rule="evenodd" d="M0 10C0 15.5228 4.47715 20 10 20C15.5228 20 20 15.5228 20 10C20 4.47715 15.5228 0 10 0C4.47715 0 0 4.47715 0 10ZM17.5 10C17.5 14.1421 14.1421 17.5 10 17.5C5.85786 17.5 2.5 14.1421 2.5 10C2.5 5.85786 5.85786 2.5 10 2.5C14.1421 2.5 17.5 5.85786 17.5 10ZM8.23223 10L5.57862 12.6536L7.34638 14.4214L10 11.7678L12.6536 14.4214L14.4214 12.6536L11.7678 10L14.4214 7.34638L12.6536 5.57862L10 8.23223L7.34638 5.57862L5.57862 7.34638L8.23223 10Z" fill="#C02445"/>
</svg>
