<svg width="24" height="24" viewBox="0 0 24 24" fill="none" xmlns="http://www.w3.org/2000/svg">
<path d="M9.38095 7.74763C6.21053 7.74763 3.89474 10.0873 3.89474 12.9734C3.89474 15.0253 5.04623 16.8009 6.76191 17.656M9.38095 7.74763H18.9474L20.6842 6.0057H21.5585C22.2563 6.0057 22.7395 6.70232 22.4951 7.35592L21.2632 10.6509L14.3158 12.9734C14.3158 15.0253 13.1919 16.8009 11.4762 17.656M9.38095 7.74763V4.58824M9.38095 10.4118V15.7059M6.76191 13.0588H12M6.76191 17.656C7.45951 18.0037 8.27341 18.1992 9.10526 18.1992C9.93712 18.1992 10.7786 18.0037 11.4762 17.656M6.76191 17.656V21M6.76191 21H11.4762M6.76191 21H4.14593C3.61448 21 3.10489 20.7885 2.72965 20.4121L2.15789 19.8387M11.4762 17.656V21M11.4762 21H16.7143M9.38095 3V4.58824M9.38095 4.58824H1M9.38095 4.58824H17.7895" stroke="black" stroke-width="1.2"/>
</svg>
