<svg width="24" height="24" viewBox="0 0 24 24" fill="none" xmlns="http://www.w3.org/2000/svg">
<g clip-path="url(#clip0_234_5201)">
<path d="M7.95 6.99997C9.75 6.99997 10.2 7.88232 12 7.88232C13.8 7.88232 14.25 6.99997 16.05 6.99997C18.3 6.99997 21 9.20585 21 13.6176C21 18.0294 17.85 22 16.05 22C14.25 22 13.35 21.1176 12 21.1176C10.65 21.1176 9.75 22 7.95 22C6.15 22 3 18.0294 3 13.6176C3 9.20585 5.7 6.99997 7.95 6.99997Z" stroke="black" stroke-width="1.2"/>
<path d="M12.0131 5.63317C13.3553 5.962 14.9167 5.57345 16.05 4.49997C17.1833 3.42649 17.5903 1.95053 17.2384 0.683641C15.8961 0.354809 14.3347 0.743362 13.2014 1.81684C12.0681 2.89032 11.6612 4.36628 12.0131 5.63317Z" stroke="black" stroke-width="1.2"/>
</g>
<defs>
<clipPath id="clip0_234_5201">
<rect width="24" height="24" fill="white"/>
</clipPath>
</defs>
</svg>
