<svg width="24" height="24" viewBox="0 0 24 24" fill="none" xmlns="http://www.w3.org/2000/svg">
<path d="M4 17.5L3.57574 17.0757L3.4 17.2515V17.5H4ZM6.5 20V20.6H6.74853L6.92426 20.4243L6.5 20ZM4 20H3.4V20.6H4V20ZM19 11L19.4243 11.4243L19.8485 11L19.4243 10.5757L19 11ZM20.4243 4.42426C20.6586 4.18995 20.6586 3.81005 20.4243 3.57574C20.1899 3.34142 19.8101 3.34142 19.5757 3.57574L20.4243 4.42426ZM19.2929 5.79289L19.7172 5.36863L19.2929 5.79289ZM18.2071 4.70711L17.7828 5.13137L18.2071 4.70711ZM6.5 19.4H4V20.6H6.5V19.4ZM4.6 20V17.5H3.4V20H4.6ZM16.3686 4.28284L5.57574 15.0757L6.42426 15.9243L17.2172 5.13137L16.3686 4.28284ZM5.57574 15.0757L3.57574 17.0757L4.42426 17.9243L6.42426 15.9243L5.57574 15.0757ZM6.92426 20.4243L8.92426 18.4243L8.07574 17.5757L6.07574 19.5757L6.92426 20.4243ZM8.92426 18.4243L19.7172 7.63137L18.8686 6.78284L8.07574 17.5757L8.92426 18.4243ZM5.57574 15.9243L8.07574 18.4243L8.92426 17.5757L6.42426 15.0757L5.57574 15.9243ZM14.3257 7.17426L18.5757 11.4243L19.4243 10.5757L15.1743 6.32574L14.3257 7.17426ZM18.5757 10.5757L14.5757 14.5757L15.4243 15.4243L19.4243 11.4243L18.5757 10.5757ZM19.7172 5.36863L19.1743 4.82574L18.3257 5.67426L18.8686 6.21716L19.7172 5.36863ZM19.1743 4.82574L18.6314 4.28284L17.7828 5.13137L18.3257 5.67426L19.1743 4.82574ZM19.1743 5.67426L20.4243 4.42426L19.5757 3.57574L18.3257 4.82574L19.1743 5.67426ZM19.7172 7.63137C20.342 7.00653 20.342 5.99347 19.7172 5.36863L18.8686 6.21716C19.0248 6.37337 19.0248 6.62663 18.8686 6.78284L19.7172 7.63137ZM17.2172 5.13137C17.3734 4.97516 17.6266 4.97516 17.7828 5.13137L18.6314 4.28284C18.0065 3.658 16.9935 3.658 16.3686 4.28284L17.2172 5.13137Z" fill="black"/>
</svg>
