<svg width="24" height="24" viewBox="0 0 24 24" fill="none" xmlns="http://www.w3.org/2000/svg">
<path d="M16.6335 5.61686L18.8448 14.2318C19.3512 16.2051 18.5914 18.2952 16.9584 19.4208L13.1301 22.0595C12.709 22.3497 12.246 22.5671 11.7587 22.7034L11.2294 22.8514C9.01772 23.4701 6.74435 22.0999 6.15172 19.791C5.94111 18.9705 5.96927 18.1174 6.21354 17.3328C6.55756 16.2278 7.51102 15.4648 8.43936 14.7738L9.7424 13.8039C9.80429 13.7578 9.863 13.7062 9.9036 13.6406C10.02 13.4524 10.0564 13.2199 10 13L8.72908 7.8279M16.6335 5.61686L8.72908 7.8279M16.6335 5.61686C17.1186 5.48118 17.4065 4.9607 17.2765 4.45434L16.5705 1.70376C16.4405 1.1974 15.9419 0.896898 15.4569 1.03258L6.67415 3.48929C6.18909 3.62497 5.90124 4.14545 6.03121 4.65182L6.73721 7.40239C6.86718 7.90875 7.36575 8.20925 7.85081 8.07357L8.72908 7.8279" stroke="black" stroke-width="1.2"/>
</svg>
