<svg width="24" height="24" viewBox="0 0 24 24" fill="none" xmlns="http://www.w3.org/2000/svg">
<path d="M22.4 12C22.4 14.872 21.2366 17.4712 19.3539 19.3539C17.4712 21.2366 14.872 22.4 12 22.4C6.25624 22.4 1.6 17.7438 1.6 12C1.6 9.12795 2.7634 6.52878 4.64609 4.64609C6.52878 2.7634 9.12795 1.6 12 1.6C17.7438 1.6 22.4 6.25624 22.4 12Z" stroke="black" stroke-width="1.2"/>
<path fill-rule="evenodd" clip-rule="evenodd" d="M17.8971 7.33771C18.3791 6.5343 17.4657 5.62087 16.6623 6.10292L10.2556 9.94694C10.1289 10.0229 10.0229 10.129 9.94688 10.2556L6.10286 16.6623C5.62081 17.4657 6.53424 18.3792 7.33765 17.8971L13.7443 14.0531C13.871 13.9771 13.977 13.8711 14.053 13.7444L17.8971 7.33771ZM10.9373 10.9373L16.2507 7.74931L13.0626 13.0627L7.74925 16.2507L10.9373 10.9373ZM12.7071 12.7071C12.888 12.5262 13 12.2762 13 12C13 11.4477 12.5522 11 12 11C11.7238 11 11.4738 11.112 11.2929 11.2929C11.1119 11.4739 11 11.7239 11 12C11 12.5523 11.4477 13 12 13C12.2761 13 12.5261 12.8881 12.7071 12.7071Z" fill="black"/>
</svg>
