<svg width="24" height="24" viewBox="0 0 24 24" fill="none" xmlns="http://www.w3.org/2000/svg">
<path d="M2.93502 8.76996L3.19722 8.68356L3.30219 8.42824C4.70869 5.00707 8.07396 2.6 12 2.6C15.926 2.6 19.2913 5.00707 20.6978 8.42824L20.8028 8.68356L21.065 8.76996C22.4218 9.21703 23.4 10.4951 23.4 12C23.4 13.5049 22.4218 14.783 21.065 15.23L20.8028 15.3164L20.6978 15.5718C19.2913 18.9929 15.926 21.4 12 21.4C8.07396 21.4 4.70869 18.9929 3.30219 15.5718L3.19722 15.3164L2.93502 15.23C1.57816 14.783 0.6 13.5049 0.6 12C0.6 10.4951 1.57816 9.21703 2.93502 8.76996Z" stroke="black" stroke-width="1.2"/>
<path d="M7 14C7.99804 15.7934 9.86346 17 12 17C14.1365 17 16.002 15.7934 17 14" stroke="black" stroke-width="1.2"/>
<path d="M9 11.4C8.2268 11.4 7.6 10.7732 7.6 10C7.6 9.2268 8.2268 8.6 9 8.6C9.7732 8.6 10.4 9.2268 10.4 10C10.4 10.7732 9.7732 11.4 9 11.4ZM15 11.4C14.2268 11.4 13.6 10.7732 13.6 10C13.6 9.2268 14.2268 8.6 15 8.6C15.7732 8.6 16.4 9.2268 16.4 10C16.4 10.7732 15.7732 11.4 15 11.4Z" stroke="black" stroke-width="1.2"/>
</svg>
