<svg width="24" height="24" viewBox="0 0 24 24" fill="none" xmlns="http://www.w3.org/2000/svg">
<path d="M2.99985 12C2.99985 16.9706 7.02929 21 11.9998 21C16.9704 21 20.9999 16.9706 20.9999 12C20.9999 10.4228 20.5942 8.94045 19.8815 7.65145C21.5 6 21.4999 3.5 19.9998 2C19 4 18.5238 3.97588 17.5698 4.93013C16.0376 3.72135 14.1029 3 11.9998 3C9.89676 3 7.96216 3.72135 6.42996 4.93013C5.47591 3.97588 5 4 3.99993 2C2.49983 3.5 2.49998 6 4.11827 7.65145C3.40558 8.94045 2.99985 10.4228 2.99985 12Z" stroke="black" stroke-width="1.2"/>
<path d="M7 14C7.99804 15.7934 9.86346 17 12 17C14.1365 17 16.002 15.7934 17 14" stroke="black" stroke-width="1.2"/>
<path d="M9 11.4C8.2268 11.4 7.6 10.7732 7.6 10C7.6 9.2268 8.2268 8.6 9 8.6C9.7732 8.6 10.4 9.2268 10.4 10C10.4 10.7732 9.7732 11.4 9 11.4ZM15 11.4C14.2268 11.4 13.6 10.7732 13.6 10C13.6 9.2268 14.2268 8.6 15 8.6C15.7732 8.6 16.4 9.2268 16.4 10C16.4 10.7732 15.7732 11.4 15 11.4Z" stroke="black" stroke-width="1.2"/>
</svg>
