<svg width="24" height="24" viewBox="0 0 24 24" fill="none" xmlns="http://www.w3.org/2000/svg">
<path d="M14 5H13.4C13.4 4.75732 13.5462 4.53854 13.7704 4.44567C13.9946 4.3528 14.2527 4.40414 14.4243 4.57574L14 5ZM14 9H14.6V9.6H14V9ZM3 20L3.48 20.36C3.31403 20.5813 3.01828 20.6604 2.76396 20.5516C2.50965 20.4428 2.36269 20.1742 2.40816 19.9014L3 20ZM14 15V14.4H14.6V15H14ZM14 19L14.4243 19.4243C14.2527 19.5959 13.9946 19.6472 13.7704 19.5543C13.5462 19.4615 13.4 19.2427 13.4 19H14ZM21 12L21.4243 11.5757L21.8485 12L21.4243 12.4243L21 12ZM14.6 5V9H13.4V5H14.6ZM14 9.6C10.3134 9.6 4.74699 13.1677 3.59184 20.0986L2.40816 19.9014C3.65301 12.4323 9.68662 8.4 14 8.4V9.6ZM2.52 19.64C3.28265 18.6231 4.34006 17.2955 6.13162 16.2338C7.92614 15.1704 10.4105 14.4 14 14.4V15.6C10.5895 15.6 8.32386 16.3296 6.74338 17.2662C5.15994 18.2045 4.21735 19.3769 3.48 20.36L2.52 19.64ZM14.6 15V19H13.4V15H14.6ZM13.5757 18.5757L20.5757 11.5757L21.4243 12.4243L14.4243 19.4243L13.5757 18.5757ZM20.5757 12.4243L13.5757 5.42426L14.4243 4.57574L21.4243 11.5757L20.5757 12.4243Z" fill="black"/>
</svg>
