<svg width="24" height="24" viewBox="0 0 24 24" fill="none" xmlns="http://www.w3.org/2000/svg">
<path d="M9.72579 2V1.4H9.12579V2H9.72579ZM14.2742 2H14.8742V1.4H14.2742V2ZM14.2742 22V22.6H14.8742V22H14.2742ZM9.72579 22H9.12579V22.6H9.72579V22ZM2 8.92451L1.48343 8.61929L1.17204 9.14631L1.70519 9.44708L2 8.92451ZM4.27421 5.0755L4.56903 4.55293L4.05681 4.26396L3.75765 4.77029L4.27421 5.0755ZM22 15.0755L22.5165 15.3807L22.8279 14.8537L22.2948 14.5529L22 15.0755ZM19.7257 18.9245L19.4309 19.4471L19.9431 19.736L20.2423 19.2297L19.7257 18.9245ZM19.7258 5.07549L20.2424 4.77028L19.9432 4.26395L19.431 4.55292L19.7258 5.07549ZM22 8.9245L22.2948 9.44707L22.828 9.1463L22.5166 8.61928L22 8.9245ZM4.27426 18.9245L3.75769 19.2297L4.05686 19.736L4.56907 19.4471L4.27426 18.9245ZM2.00005 15.0755L1.70524 14.5529L1.17209 14.8537L1.48348 15.3807L2.00005 15.0755ZM9.72579 8.15102L9.43097 8.67359C9.61674 8.7784 9.84419 8.7767 10.0284 8.66913C10.2126 8.56157 10.3258 8.36431 10.3258 8.15102H9.72579ZM14.2742 8.15101H13.6742C13.6742 8.3643 13.7874 8.56156 13.9716 8.66912C14.1558 8.77669 14.3833 8.77839 14.569 8.67358L14.2742 8.15101ZM16.5484 12L16.2536 11.4774C16.065 11.5838 15.9484 11.7835 15.9484 12C15.9484 12.2165 16.065 12.4162 16.2536 12.5226L16.5484 12ZM7.45156 12L7.74638 12.5226C7.93493 12.4162 8.05156 12.2165 8.05156 12C8.05156 11.7835 7.93493 11.5838 7.74638 11.4774L7.45156 12ZM9.72579 15.849H10.3258C10.3258 15.6357 10.2126 15.4385 10.0284 15.3309C9.84419 15.2233 9.61674 15.2216 9.43097 15.3264L9.72579 15.849ZM14.2742 15.849L14.569 15.3264C14.3833 15.2216 14.1558 15.2233 13.9716 15.3309C13.7874 15.4385 13.6742 15.6357 13.6742 15.849H14.2742ZM9.72579 2.6H14.2742V1.4H9.72579V2.6ZM14.2742 21.4H9.72579V22.6H14.2742V21.4ZM2.51657 9.22972L4.79078 5.38072L3.75765 4.77029L1.48343 8.61929L2.51657 9.22972ZM21.4834 14.7703L19.2092 18.6193L20.2423 19.2297L22.5165 15.3807L21.4834 14.7703ZM19.2092 5.38071L21.4834 9.22971L22.5166 8.61928L20.2424 4.77028L19.2092 5.38071ZM4.79083 18.6193L2.51662 14.7703L1.48348 15.3807L3.75769 19.2297L4.79083 18.6193ZM3.9794 5.59808L9.43097 8.67359L10.0206 7.62844L4.56903 4.55293L3.9794 5.59808ZM10.3258 8.15102V2H9.12579V8.15102H10.3258ZM14.569 8.67358L20.0206 5.59807L19.431 4.55292L13.9794 7.62843L14.569 8.67358ZM13.6742 2V8.15101H14.8742V2H13.6742ZM16.2536 12.5226L21.7051 15.5981L22.2948 14.5529L16.8432 11.4774L16.2536 12.5226ZM21.7052 8.40192L16.2536 11.4774L16.8432 12.5226L22.2948 9.44707L21.7052 8.40192ZM2.29486 15.5981L7.74638 12.5226L7.15675 11.4774L1.70524 14.5529L2.29486 15.5981ZM7.74638 11.4774L2.29481 8.40193L1.70519 9.44708L7.15675 12.5226L7.74638 11.4774ZM9.43097 15.3264L3.97945 18.4019L4.56907 19.4471L10.0206 16.3716L9.43097 15.3264ZM10.3258 22V15.849H9.12579V22H10.3258ZM20.0205 18.4019L14.569 15.3264L13.9794 16.3716L19.4309 19.4471L20.0205 18.4019ZM13.6742 15.849V22H14.8742V15.849H13.6742Z" fill="black"/>
</svg>
