<svg width="24" height="24" viewBox="0 0 24 24" fill="none" xmlns="http://www.w3.org/2000/svg">
<path d="M18.2998 12.7157C19.2814 10.2473 19.2317 7.47455 18.1461 5.06473L14.8689 5.00002C14.8146 4.99895 14.77 5.04244 14.7696 5.0967L14.742 9.11687C14.7418 9.14292 14.7521 9.16796 14.7705 9.18639L18.2998 12.7157ZM18.2998 12.7157C17.8132 13.9391 17.0733 15.0879 16.0806 16.0806C15.0879 17.0733 13.9391 17.8132 12.7157 18.2998M12.7157 18.2998C10.2473 19.2814 7.47455 19.2317 5.06473 18.1461L5.00002 14.8689C4.99895 14.8146 5.04244 14.77 5.0967 14.7696L9.11687 14.742C9.14292 14.7418 9.16796 14.7521 9.18639 14.7705L12.7157 18.2998Z" stroke="black" stroke-width="1.2"/>
</svg>
