<svg width="24" height="24" viewBox="0 0 24 24" fill="none" xmlns="http://www.w3.org/2000/svg">
<path d="M9.4 6.5C9.4 8.10163 8.10163 9.4 6.5 9.4C4.89837 9.4 3.6 8.10163 3.6 6.5C3.6 4.89837 4.89837 3.6 6.5 3.6C8.10163 3.6 9.4 4.89837 9.4 6.5ZM9.4 17.5C9.4 19.1016 8.10163 20.4 6.5 20.4C4.89837 20.4 3.6 19.1016 3.6 17.5C3.6 15.8984 4.89837 14.6 6.5 14.6C8.10163 14.6 9.4 15.8984 9.4 17.5Z" stroke="black" stroke-width="1.2"/>
<path fill-rule="evenodd" clip-rule="evenodd" d="M12.7415 11.59L8.57568 7.42421L9.42421 6.57568L13.7657 10.9172L13.9415 11.0929V11.3415V12.6584V12.9069L13.7657 13.0827L9.42421 17.4242L8.57568 16.5757L12.7415 12.4099V11.59Z" fill="black"/>
<path fill-rule="evenodd" clip-rule="evenodd" d="M17.8485 11.1515L23 6V5.2V4H21.8H20L13 11V13L20 20H21.8H23V18.8V18L17.8485 12.8485L17 12L17.8485 11.1515ZM21.8 18.4971L16.1515 12.8485L15.3029 12L16.1515 11.1515L21.8 5.50294V5.2H20.4971L14.2 11.4971V12.5029L20.4971 18.8H21.8V18.4971Z" fill="black"/>
</svg>
