<svg width="24" height="24" viewBox="0 0 24 24" fill="none" xmlns="http://www.w3.org/2000/svg">
<path d="M11.9999 22L11.8331 22.5763L11.9999 22.6246L12.1667 22.5763L11.9999 22ZM1.21663 11.1602L0.635817 11.3107C0.660987 11.4078 0.710112 11.4971 0.778697 11.5703L1.21663 11.1602ZM22.7834 11.1602L23.2213 11.5703C23.2899 11.4971 23.339 11.4078 23.3642 11.3107L22.7834 11.1602ZM20.618 19.5059L20.7848 20.0822L20.618 19.5059ZM21.8008 17.6149L21.2365 17.8187L21.8008 17.6149ZM3.38175 19.5059L3.54855 18.9295L3.38175 19.5059ZM11.3999 3.2766L11.3999 22L12.5999 22L12.5999 3.27659L11.3999 3.2766ZM12.556 21.7746L5.36714 4.03668L4.255 4.4874L11.4439 22.2254L12.556 21.7746ZM12.1667 21.4237L3.54855 18.9295L3.21496 20.0822L11.8331 22.5763L12.1667 21.4237ZM12.4165 21.5682L5.87607 15.2587L5.04293 16.1224L11.5834 22.4318L12.4165 21.5682ZM5.89743 15.2804L1.65456 10.75L0.778697 11.5703L5.02157 16.1007L5.89743 15.2804ZM1.79744 11.0096C1.56564 10.1152 1.47488 8.90791 1.88111 7.76671C2.27778 6.65237 3.16892 5.53883 5.02707 4.82181L4.59507 3.70227C2.42835 4.53835 1.27071 5.90318 0.750601 7.36428C0.240055 8.79852 0.364513 10.2638 0.635817 11.3107L1.79744 11.0096ZM5.30467 4.60316C5.76623 3.93527 6.56343 3.12172 7.61328 2.77359C8.62011 2.43973 9.96337 2.49867 11.6398 3.75652L12.36 2.79667C10.414 1.3366 8.66601 1.16025 7.23558 1.63458C5.84817 2.09465 4.86214 3.13279 4.31747 3.92092L5.30467 4.60316ZM2.76332 17.8187C2.93771 17.3357 3.21287 16.9058 3.60987 16.6227C3.99429 16.3485 4.54991 16.1709 5.37759 16.2849L5.54141 15.0962C4.45123 14.9459 3.57856 15.1711 2.91316 15.6456C2.26036 16.1111 1.86419 16.7755 1.63466 17.4111L2.76332 17.8187ZM12.556 22.2254L19.745 4.48742L18.6329 4.03669L11.4439 21.7746L12.556 22.2254ZM12.1667 22.5763L20.7848 20.0822L20.4512 18.9295L11.8331 21.4237L12.1667 22.5763ZM12.4165 22.4318L18.9568 16.1224L18.1237 15.2587L11.5834 21.5682L12.4165 22.4318ZM18.9782 16.1007L23.2213 11.5703L22.3455 10.75L18.1023 15.2804L18.9782 16.1007ZM23.3642 11.3107C23.6355 10.2638 23.7599 8.79852 23.2494 7.36429C22.7293 5.90319 21.5716 4.53837 19.4049 3.70228L18.9729 4.82183C20.8311 5.53884 21.7222 6.65238 22.1189 7.76672C22.5251 8.90791 22.4344 10.1152 22.2026 11.0096L23.3642 11.3107ZM19.6825 3.92094C19.1378 3.13279 18.1517 2.09465 16.7643 1.63459C15.3338 1.16026 13.5857 1.33659 11.6398 2.79667L12.36 3.75652C14.0364 2.49868 15.3797 2.43973 16.3866 2.7736C17.4365 3.12174 18.2338 3.9353 18.6953 4.60317L19.6825 3.92094ZM22.3651 17.4111C22.1356 16.7755 21.7394 16.1111 21.0866 15.6456C20.4212 15.1711 19.5485 14.9459 18.4584 15.0962L18.6222 16.2849C19.4499 16.1709 20.0055 16.3485 20.3899 16.6227C20.7869 16.9058 21.0621 17.3357 21.2365 17.8187L22.3651 17.4111ZM20.7848 20.0822C21.3354 19.9229 21.8294 19.5807 22.1415 19.1163C22.4605 18.6417 22.5895 18.0324 22.3651 17.4111L21.2365 17.8187C21.3145 18.0348 21.2798 18.2472 21.1456 18.4469C21.0046 18.6567 20.756 18.8413 20.4512 18.9295L20.7848 20.0822ZM3.54855 18.9295C3.24376 18.8413 2.99522 18.6567 2.85418 18.4469C2.71996 18.2472 2.68527 18.0348 2.76332 17.8187L1.63466 17.4111C1.41027 18.0324 1.53929 18.6417 1.85823 19.1163C2.17035 19.5807 2.66441 19.9229 3.21496 20.0822L3.54855 18.9295Z" fill="black"/>
</svg>
