<svg width="24" height="24" viewBox="0 0 24 24" fill="none" xmlns="http://www.w3.org/2000/svg">
<path d="M3 3L3.36 2.52C3.17819 2.38364 2.93494 2.36171 2.73167 2.46334C2.5284 2.56498 2.4 2.77274 2.4 3H3ZM21 3H21.6C21.6 2.77274 21.4716 2.56498 21.2683 2.46334C21.0651 2.36171 20.8218 2.38364 20.64 2.52L21 3ZM20.4 13C20.4 17.6392 16.6392 21.4 12 21.4V22.6C17.3019 22.6 21.6 18.3019 21.6 13H20.4ZM12 21.4C7.36081 21.4 3.6 17.6392 3.6 13H2.4C2.4 18.3019 6.69807 22.6 12 22.6V21.4ZM3.6 13V3H2.4V13H3.6ZM20.4 3V13H21.6V3H20.4ZM3 3C2.64 3.48 2.64016 3.48012 2.64033 3.48025C2.6404 3.4803 2.64059 3.48044 2.64075 3.48056C2.64106 3.48079 2.64143 3.48107 2.64186 3.48139C2.64273 3.48204 2.64384 3.48287 2.64519 3.48387C2.6479 3.48588 2.65158 3.48861 2.65623 3.49202C2.66552 3.49885 2.67866 3.50844 2.69556 3.52061C2.72936 3.54495 2.77821 3.5796 2.84138 3.62309C2.96769 3.71006 3.15143 3.8325 3.38671 3.97853C3.85692 4.27039 4.53495 4.65772 5.37357 5.04478C7.04584 5.8166 9.38409 6.6 12 6.6V5.4C9.61591 5.4 7.45416 4.6834 5.87643 3.95522C5.09005 3.59228 4.45558 3.22961 4.01954 2.95897C3.80169 2.82375 3.63387 2.71181 3.5219 2.63472C3.46593 2.59618 3.42396 2.56638 3.39673 2.54677C3.38311 2.53697 3.37318 2.52971 3.36703 2.52519C3.36395 2.52293 3.36182 2.52135 3.36064 2.52048C3.36006 2.52004 3.35971 2.51978 3.3596 2.5197C3.35955 2.51966 3.35955 2.51966 3.35962 2.51971C3.35965 2.51974 3.35975 2.51981 3.35976 2.51982C3.35987 2.51991 3.36 2.52 3 3ZM12 6.6C14.6159 6.6 16.9542 5.8166 18.6264 5.04478C19.465 4.65772 20.1431 4.27039 20.6133 3.97853C20.8486 3.8325 21.0323 3.71006 21.1586 3.62309C21.2218 3.5796 21.2706 3.54495 21.3044 3.52061C21.3213 3.50844 21.3345 3.49885 21.3438 3.49202C21.3484 3.48861 21.3521 3.48588 21.3548 3.48387C21.3562 3.48287 21.3573 3.48204 21.3581 3.48139C21.3586 3.48107 21.3589 3.48079 21.3593 3.48056C21.3594 3.48044 21.3596 3.4803 21.3597 3.48025C21.3598 3.48012 21.36 3.48 21 3C20.64 2.52 20.6401 2.51991 20.6402 2.51982C20.6403 2.51981 20.6403 2.51974 20.6404 2.51971C20.6404 2.51966 20.6405 2.51966 20.6404 2.5197C20.6403 2.51978 20.6399 2.52004 20.6394 2.52048C20.6382 2.52135 20.6361 2.52293 20.633 2.52519C20.6268 2.52971 20.6169 2.53697 20.6033 2.54677C20.576 2.56638 20.5341 2.59618 20.4781 2.63472C20.3661 2.71181 20.1983 2.82375 19.9805 2.95897C19.5444 3.22961 18.91 3.59228 18.1236 3.95522C16.5458 4.6834 14.3841 5.4 12 5.4V6.6Z" fill="black"/>
<path d="M16.3024 16L16.7571 16.3915C16.9101 16.2137 16.9455 15.9631 16.8478 15.7499C16.75 15.5367 16.5369 15.4 16.3024 15.4V16ZM7.69751 16V15.4C7.46295 15.4 7.24989 15.5367 7.15212 15.7499C7.05435 15.9631 7.08978 16.2137 7.24283 16.3915L7.69751 16ZM15.8477 15.6085C14.7917 16.8349 13.7056 17.9 12 17.9V19.1C14.2944 19.1 15.6992 17.6201 16.7571 16.3915L15.8477 15.6085ZM12 17.9C10.2944 17.9 9.20817 16.8349 8.15219 15.6085L7.24283 16.3915C8.30072 17.6201 9.70561 19.1 12 19.1V17.9ZM16.3024 15.4H7.69751V16.6H16.3024V15.4Z" fill="black"/>
<path d="M9 12.4C8.2268 12.4 7.6 11.7732 7.6 11C7.6 10.2268 8.2268 9.6 9 9.6C9.7732 9.6 10.4 10.2268 10.4 11C10.4 11.7732 9.7732 12.4 9 12.4ZM15 12.4C14.2268 12.4 13.6 11.7732 13.6 11C13.6 10.2268 14.2268 9.6 15 9.6C15.7732 9.6 16.4 10.2268 16.4 11C16.4 11.7732 15.7732 12.4 15 12.4Z" stroke="black" stroke-width="1.2"/>
</svg>
