<svg width="24" height="24" viewBox="0 0 24 24" fill="none" xmlns="http://www.w3.org/2000/svg">
<path d="M20 5H4.00003C3.44775 5 3.00003 5.44771 3.00003 5.99999L3 10C4.10457 10 5 10.8954 5 12C5 13.1046 4.10457 14 3 14L3.00003 18C3.00003 18.5523 3.44775 19 4.00003 19H20C20.5523 19 21 18.5523 21 18V14C19.8954 14 19 13.1046 19 12C19 10.8954 19.8954 10 21 10V6C21 5.44772 20.5523 5 20 5Z" stroke="black" stroke-width="1.2"/>
<path d="M11.4482 10.5456L12 9.26413L12.5518 10.5456C12.6677 10.8145 12.9212 10.9987 13.2127 11.0257L14.602 11.1546L13.5538 12.0754C13.3338 12.2686 13.237 12.5666 13.3013 12.8523L13.6081 14.2134L12.4084 13.501C12.1567 13.3515 11.8433 13.3515 11.5916 13.501L10.3919 14.2134L10.6987 12.8523C10.763 12.5666 10.6662 12.2686 10.4462 12.0754L9.39804 11.1546L10.7873 11.0257C11.0788 10.9987 11.3323 10.8145 11.4482 10.5456ZM14.9509 10.8481L14.9507 10.8482L14.9509 10.8481ZM9.99257 14.4505C9.99265 14.4504 9.99273 14.4504 9.99282 14.4503L9.99257 14.4505ZM12.1835 8.83794L12.1837 8.83759L12 8.75848L12.1837 8.83759C12.1836 8.8377 12.1836 8.83782 12.1835 8.83794Z" stroke="black" stroke-linecap="round" stroke-linejoin="round"/>
</svg>
