<svg width="24" height="24" viewBox="0 0 24 24" fill="none" xmlns="http://www.w3.org/2000/svg">
<path d="M15.9999 16V14.5V13M15.9999 16H7.73231M15.9999 16H16.2674M15.9999 9.00001V5.00001L2.99994 5C2.44766 5 1.99994 5.44771 1.99994 5.99999L1.99988 16H4.26744M15.9999 9.00001H19.4999L21.9999 12V13M15.9999 9.00001V13M21.9999 13H15.9999M21.9999 13V16H19.7323M7.73231 16C7.3865 15.4022 6.74016 15 5.99988 15C5.2596 15 4.61325 15.4022 4.26744 16M7.73231 16C7.90248 16.2942 7.99988 16.6357 7.99988 17C7.99988 18.1046 7.10445 19 5.99988 19C4.89531 19 3.99988 18.1046 3.99988 17C3.99988 16.6357 4.09727 16.2942 4.26744 16M16.2674 16C16.0973 16.2942 15.9999 16.6357 15.9999 17C15.9999 18.1046 16.8953 19 17.9999 19C19.1044 19 19.9999 18.1046 19.9999 17C19.9999 16.6357 19.9025 16.2942 19.7323 16M16.2674 16C16.6133 15.4022 17.2596 15 17.9999 15C18.7402 15 19.3865 15.4022 19.7323 16" stroke="black" stroke-width="1.2"/>
</svg>
