<svg width="24" height="24" viewBox="0 0 24 24" fill="none" xmlns="http://www.w3.org/2000/svg">
<path d="M5 8.5C5 9.32843 4.32843 10 3.5 10C2.67157 10 2 9.32843 2 8.5C2 7.67157 2.67157 7 3.5 7C4.32843 7 5 7.67157 5 8.5ZM5 8.5H10.5M19 8.5C19 9.32843 19.6716 10 20.5 10C21.3284 10 22 9.32843 22 8.5C22 7.67157 21.3284 7 20.5 7C19.6716 7 19 7.67157 19 8.5ZM19 8.5H13.5M17.9795 14.0001C17.1605 14.0111 16.5 14.6784 16.5 15.5C16.5 16.3284 17.1716 17 18 17C18.8284 17 19.5 16.3284 19.5 15.5C19.5 14.6716 18.8284 14 18 14C17.9931 14 17.9863 14 17.9795 14.0001ZM17.9795 14.0001C17.7673 11.4275 15.932 9.31499 13.5 8.68903M6.02053 14.0001C6.01369 14 6.00685 14 6 14C5.17157 14 4.5 14.6716 4.5 15.5C4.5 16.3284 5.17157 17 6 17C6.82843 17 7.5 16.3284 7.5 15.5C7.5 14.6784 6.83949 14.0111 6.02053 14.0001ZM6.02053 14.0001C6.23271 11.4275 8.06797 9.31499 10.5 8.68903M10.5 8.5V7H13.5V8.5M10.5 8.5V8.68903M10.5 8.68903V10H13.5V8.68903M13.5 8.68903V8.5" stroke="black" stroke-width="1.2"/>
</svg>
