<svg width="24" height="24" viewBox="0 0 24 24" fill="none" xmlns="http://www.w3.org/2000/svg">
<path d="M9.38095 10.4118V15.7059M6.76191 13.0588H12M6.76191 17.656V21M6.76191 21H11.4762M6.76191 21H4.14593C3.61448 21 3.10489 20.7885 2.72965 20.4121L2.15789 19.8387M11.4762 17.656V21M11.4762 21H16.7143M9.38095 3V4.58824M9.38095 4.58824H1M9.38095 4.58824H17.7895" stroke="#7D909B" stroke-width="2"/>
<path d="M9.38099 7.74763C6.21056 7.74763 3.89478 10.0873 3.89478 12.9734C3.89478 15.0253 5.04627 16.8009 6.76194 17.656C7.45955 18.0037 8.27345 18.1992 9.1053 18.1992C9.93716 18.1992 10.7786 18.0037 11.4762 17.656C13.1919 16.8009 14.3158 15.0253 14.3158 12.9734L21.2632 10.6509L22.4952 7.35592C22.7396 6.70232 22.2563 6.0057 21.5585 6.0057H20.6842L18.9474 7.74763H9.38099ZM9.38099 7.74763V5.58594" stroke="#283238" stroke-width="2"/>
</svg>
