<svg width="24" height="24" viewBox="0 0 24 24" fill="none" xmlns="http://www.w3.org/2000/svg">
<path d="M19 11L19.7071 11.7071L20.4142 11L19.7071 10.2929L19 11ZM20.7071 4.70711C21.0976 4.31658 21.0976 3.68342 20.7071 3.29289C20.3166 2.90237 19.6834 2.90237 19.2929 3.29289L20.7071 4.70711ZM5.29289 16.2071L7.79289 18.7071L9.20711 17.2929L6.70711 14.7929L5.29289 16.2071ZM14.0429 7.45711L18.2929 11.7071L19.7071 10.2929L15.4571 6.04289L14.0429 7.45711ZM18.2929 10.2929L14.2929 14.2929L15.7071 15.7071L19.7071 11.7071L18.2929 10.2929ZM19.4571 5.95711L20.7071 4.70711L19.2929 3.29289L18.0429 4.54289L19.4571 5.95711Z" fill="#7D909B"/>
<path d="M4 17.5L6 15.5L16.7929 4.70711C17.1834 4.31658 17.8166 4.31658 18.2071 4.70711L18.75 5.25L19.2929 5.79289C19.6834 6.18342 19.6834 6.81658 19.2929 7.20711L8.5 18L6.5 20H4V17.5Z" stroke="#283238" stroke-width="2"/>
</svg>
