<svg width="24" height="24" viewBox="0 0 24 24" fill="none" xmlns="http://www.w3.org/2000/svg">
<g clip-path="url(#clip0_242_9437)">
<path d="M18.8448 14.2318L16.8876 6.60648C16.7482 6.06338 16.1895 5.74102 15.6496 5.89206L9.66196 7.56691C9.14201 7.71235 8.83139 8.24426 8.96023 8.76857L9.99999 13C10.0564 13.2198 10.02 13.4524 9.90358 13.6406C9.86299 13.7062 9.80428 13.7578 9.74239 13.8039L8.43935 14.7737C7.51101 15.4647 6.55754 16.2278 6.21353 17.3327C5.96926 18.1173 5.9411 18.9705 6.15171 19.791C6.74434 22.0999 9.01771 23.4701 11.2294 22.8514L11.7586 22.7034C12.246 22.5671 12.709 22.3496 13.13 22.0594L16.9584 19.4207C18.5914 18.2952 19.3512 16.205 18.8448 14.2318Z" stroke="#283238" stroke-width="2"/>
<path d="M6.03121 4.65182C5.90124 4.14545 6.18909 3.62497 6.67415 3.48929L15.4569 1.03258C15.9419 0.896898 16.4405 1.1974 16.5705 1.70376L17.2765 4.45434C17.4065 4.9607 17.1186 5.48118 16.6335 5.61686L8.72908 7.8279L7.85081 8.07357C7.36575 8.20925 6.86718 7.90875 6.73721 7.40239L6.03121 4.65182Z" stroke="#7D909B" stroke-width="2"/>
</g>
<defs>
<clipPath id="clip0_242_9437">
<rect width="24" height="24" fill="white"/>
</clipPath>
</defs>
</svg>
