<svg width="24" height="24" viewBox="0 0 24 24" fill="none" xmlns="http://www.w3.org/2000/svg">
<g clip-path="url(#clip0_242_9366)">
<path d="M15.8137 9.32635L15.4427 8.40939L15.8137 9.32635C16.3331 9.11621 16.9018 9 17.5 9C19.9853 9 22 11.0147 22 13.5C22 15.9853 19.9853 18 17.5 18H8.5C4.91015 18 2 15.0899 2 11.5C2 7.91015 4.91015 5 8.5 5C11.1125 5 13.367 6.54123 14.4001 8.76837C14.6481 9.30288 15.2709 9.54592 15.8137 9.32635Z" stroke="#283238" stroke-width="2"/>
<mask id="mask0_242_9366" style="mask-type:alpha" maskUnits="userSpaceOnUse" x="3" y="5" width="25" height="24">
<rect x="18.5765" y="5.20618" width="12.159" height="20.7173" transform="rotate(45 18.5765 5.20618)" fill="black"/>
</mask>
<g mask="url(#mask0_242_9366)">
<path d="M15.8137 9.32635L15.4427 8.40939L15.8137 9.32635C16.3331 9.11621 16.9018 9 17.5 9C19.9853 9 22 11.0147 22 13.5C22 15.9853 19.9853 18 17.5 18H8.5C4.91015 18 2 15.0899 2 11.5C2 7.91015 4.91015 5 8.5 5C11.1125 5 13.367 6.54123 14.4001 8.76837C14.6481 9.30288 15.2709 9.54592 15.8137 9.32635Z" stroke="#7D909B" stroke-width="2"/>
</g>
</g>
<defs>
<clipPath id="clip0_242_9366">
<rect width="24" height="24" fill="white"/>
</clipPath>
</defs>
</svg>
