<svg width="24" height="24" viewBox="0 0 24 24" fill="none" xmlns="http://www.w3.org/2000/svg">
<path d="M11.4999 10.2629C12.1702 11.0785 13.1951 11.6 14.3437 11.6C15.0714 11.6 15.7495 11.3907 16.3192 11.0298L11.5931 22.7686C11.5594 22.8523 11.4409 22.8521 11.4075 22.7684L6.73328 11.0625C7.29192 11.4033 7.95072 11.6 8.65619 11.6C9.80477 11.6 10.8296 11.0785 11.4999 10.2629Z" stroke="#283238" stroke-width="2"/>
<path d="M9.25376 4.44784C9.74171 3.02467 11.1087 2 12.7188 2C14.5198 2 16.0167 3.28225 16.3192 4.97019M9.25376 4.44784C9.05933 4.41637 8.85973 4.4 8.65625 4.4C6.63696 4.4 5 6.01177 5 8C5 9.29361 5.69296 10.4279 6.73333 11.0625C7.29197 11.4033 7.95078 11.6 8.65625 11.6C9.80483 11.6 10.8297 11.0785 11.5 10.2629M9.25376 4.44784C10.1568 4.594 10.9485 5.06596 11.5 5.73707M16.3192 4.97019C15.7495 4.60934 15.0715 4.4 14.3438 4.4C13.1952 4.4 12.1703 4.92147 11.5 5.73707M16.3192 4.97019C17.3303 5.61062 18 6.72831 18 8C18 9.27169 17.3303 10.3894 16.3192 11.0298C15.7495 11.3907 15.0715 11.6 14.3438 11.6C13.1952 11.6 12.1703 11.0785 11.5 10.2629M11.5 5.73707C10.9919 6.35536 10.6875 7.14268 10.6875 8C10.6875 8.85732 10.9919 9.64464 11.5 10.2629" stroke="#7D909B" stroke-width="2"/>
</svg>
