<svg width="24" height="24" viewBox="0 0 24 24" fill="none" xmlns="http://www.w3.org/2000/svg">
<path d="M4 8L9.16024 15.7404C9.7078 16.5617 9.99999 17.5268 9.99999 18.5139V21M16 4V6.00001C16 6.82843 15.3284 7.5 14.5 7.5H14.25C13.5596 7.5 13 8.05965 13 8.75V8.8C13 9.46275 12.4627 10 11.8 10C10.8059 10 9.99999 10.8059 9.99999 11.8V12.4C9.99999 13.2837 10.7163 14 11.6 14H14.5C16.1568 14 17.5 15.3432 17.5 17V19" stroke="#7D909B" stroke-width="2"/>
<path d="M21 12C21 16.9706 16.9706 21 12 21C11.3823 21 10.78 20.9379 10.1989 20.82C6.09132 19.9861 3 16.353 3 12C3 10.3604 3.43754 8.826 4.20155 7.50397C5.75874 4.80947 8.66865 3 12 3C13.2818 3 14.4986 3.26737 15.5996 3.74844C18.7803 5.13816 21 8.31098 21 12Z" stroke="#283238" stroke-width="2"/>
</svg>
