<svg width="24" height="24" viewBox="0 0 24 24" fill="none" xmlns="http://www.w3.org/2000/svg">
<g clip-path="url(#clip0_242_9826)">
<path d="M18 15C18 18.3137 15.3137 21 12 21C8.68629 21 6 18.3137 6 15C6 11.6863 7.5 4.5 12 4.5C16.5 4.5 18 11.6863 18 15Z" stroke="#283238" stroke-width="2"/>
<mask id="mask0_242_9826" style="mask-type:alpha" maskUnits="userSpaceOnUse" x="12" y="0" width="12" height="26">
<rect x="12.0037" width="11.9963" height="25.1811" fill="black"/>
</mask>
<g mask="url(#mask0_242_9826)">
<path d="M18 15C18 18.3137 15.3137 21 12 21C8.68629 21 6 18.3137 6 15C6 11.6863 7.5 4.5 12 4.5C16.5 4.5 18 11.6863 18 15Z" stroke="#7D909B" stroke-width="2"/>
</g>
</g>
<defs>
<clipPath id="clip0_242_9826">
<rect width="24" height="24" fill="white"/>
</clipPath>
</defs>
</svg>
