<svg width="24" height="24" viewBox="0 0 24 24" fill="none" xmlns="http://www.w3.org/2000/svg">
<path d="M18 6H15.6M15.6 6V20M15.6 6H12M12 6H10.2C7.8804 6 6 7.82817 6 10.0833C6 12.3385 7.8804 14.1667 10.2 14.1667H12M12 6V14.1667M12 20V14.1667" stroke="#283238" stroke-width="2"/>
<mask id="mask0_242_9134" style="mask-type:alpha" maskUnits="userSpaceOnUse" x="11" y="1" width="8" height="22">
<rect width="8" height="22" transform="matrix(-1 0 0 1 19 1)" fill="black"/>
</mask>
<g mask="url(#mask0_242_9134)">
<path d="M18 6H15.6M15.6 6V20M15.6 6H12M12 6H10.2C7.8804 6 6 7.82817 6 10.0833C6 12.3385 7.8804 14.1667 10.2 14.1667H12M12 6V14.1667M12 20V14.1667" stroke="#7D909B" stroke-width="2"/>
</g>
</svg>
