<svg width="24" height="24" viewBox="0 0 24 24" fill="none" xmlns="http://www.w3.org/2000/svg">
<path d="M11.4746 12.5255C12.2234 13.2743 13.4376 13.2743 14.1864 12.5255C14.9353 11.7766 14.9353 10.5625 14.1864 9.8136C13.4376 9.06474 12.2234 9.06474 11.4746 9.8136C10.7257 10.5625 10.7257 11.7766 11.4746 12.5255ZM11.4746 12.5255L3 21" stroke="#7D909B" stroke-width="2"/>
<path d="M15.5089 4.35636C13.3781 6.10222 10.6712 6.79156 8.08541 6.42439L3 21L17.5756 15.9146C17.2084 13.3288 17.8978 10.6219 19.6436 8.4911M15.5089 4.35636L14.8644 3.71186L16.8983 1M15.5089 4.35636L19.6436 8.4911M19.6436 8.4911L20.2881 9.13559L23 7.1017" stroke="#283238" stroke-width="2"/>
</svg>
