<svg width="24" height="24" viewBox="0 0 24 24" fill="none" xmlns="http://www.w3.org/2000/svg">
<path d="M11.9998 3.27661L11.9999 22M11.9999 22L4.81104 4.26206M11.9999 22L19.1889 4.26207M11.9999 22L13.5625 21.5284H10.4531L11.9999 22Z" stroke="#7D909B" stroke-width="2" stroke-linecap="round"/>
<path d="M11.9999 3.2766L11.3997 4.07647C11.7553 4.3433 12.2444 4.3433 12.6 4.07647L11.9999 3.2766ZM11.9999 22L11.7219 22.9606L11.9999 23.041L12.2779 22.9606L11.9999 22ZM4.81107 4.26204L5.17107 5.19499C5.35837 5.12272 5.51959 4.99573 5.63373 4.83057L4.81107 4.26204ZM1.21663 11.1602L0.248603 11.411C0.290554 11.5729 0.372429 11.7217 0.486737 11.8437L1.21663 11.1602ZM19.1889 4.26206L18.3662 4.83058C18.4804 4.99575 18.6416 5.12273 18.8289 5.19501L19.1889 4.26206ZM22.7834 11.1602L23.5132 11.8437C23.6276 11.7217 23.7094 11.5729 23.7514 11.411L22.7834 11.1602ZM3.38175 19.5059L3.10375 20.4664L3.38175 19.5059ZM12.2779 21.0394L3.65975 18.5453L3.10375 20.4664L11.7219 22.9606L12.2779 21.0394ZM12.6942 21.2803L6.15378 14.9708L4.76521 16.4102L11.3056 22.7197L12.6942 21.2803ZM6.18938 15.007L1.94651 10.4766L0.486737 11.8437L4.72961 16.3741L6.18938 15.007ZM2.18465 10.9093C1.96601 10.0656 1.88648 8.94437 2.25794 7.90085C2.61347 6.9021 3.41577 5.87232 5.17107 5.19499L4.45106 3.32909C2.18148 4.20486 0.935013 5.65345 0.37376 7.23014C-0.171558 8.76206 -0.0358675 10.3133 0.248603 11.411L2.18465 10.9093ZM5.63373 4.83057C6.0676 4.20276 6.80184 3.46408 7.73917 3.15326C8.6048 2.86622 9.81314 2.88603 11.3997 4.07647L12.6 2.47672C10.5643 0.949239 8.68131 0.733758 7.10968 1.25491C5.60975 1.75229 4.56077 2.86529 3.9884 3.69351L5.63373 4.83057ZM3.13954 17.9545C3.29555 17.5225 3.53037 17.1706 3.84211 16.9483C4.13286 16.741 4.5828 16.5792 5.32297 16.6812L5.59602 14.6999C4.41833 14.5376 3.43998 14.7787 2.68092 15.32C1.94285 15.8463 1.50635 16.5887 1.25844 17.2752L3.13954 17.9545ZM12.2779 22.9606L20.896 20.4664L20.34 18.5453L11.7219 21.0394L12.2779 22.9606ZM12.6942 22.7197L19.2346 16.4102L17.846 14.9708L11.3056 21.2803L12.6942 22.7197ZM19.2701 16.3741L23.5132 11.8437L22.0535 10.4766L17.8104 15.007L19.2701 16.3741ZM23.7514 11.411C24.0359 10.3133 24.1716 8.76206 23.6262 7.23014C23.065 5.65346 21.8185 4.20488 19.5489 3.3291L18.8289 5.19501C20.5842 5.87233 21.3865 6.90211 21.742 7.90086C22.1135 8.94438 22.034 10.0656 21.8154 10.9093L23.7514 11.411ZM20.0116 3.69353C19.4392 2.86528 18.3902 1.75229 16.8902 1.25492C15.3185 0.733769 13.4355 0.949229 11.3997 2.47672L12.6 4.07647C14.1866 2.88604 15.395 2.86622 16.2607 3.15327C17.1981 3.4641 17.9324 4.2028 18.3662 4.83058L20.0116 3.69353ZM22.7413 17.2752C22.4934 16.5887 22.0569 15.8463 21.3188 15.32C20.5598 14.7787 19.5814 14.5376 18.4037 14.6999L18.6768 16.6812C19.417 16.5792 19.8669 16.741 20.1577 16.9483C20.4694 17.1706 20.7042 17.5225 20.8602 17.9545L22.7413 17.2752ZM20.896 20.4664C21.5285 20.2834 22.1044 19.8887 22.4735 19.3394C22.854 18.7733 23.0145 18.0317 22.7413 17.2752L20.8602 17.9545C20.8895 18.0356 20.8862 18.1157 20.8136 18.2238C20.7296 18.3488 20.5629 18.4808 20.34 18.5453L20.896 20.4664ZM3.65975 18.5453C3.43687 18.4808 3.27017 18.3488 3.18616 18.2238C3.11352 18.1157 3.11026 18.0356 3.13954 17.9545L1.25844 17.2752C0.985266 18.0317 1.14572 18.7733 1.52624 19.3394C1.89539 19.8887 2.47129 20.2834 3.10375 20.4664L3.65975 18.5453Z" fill="#283238"/>
</svg>
