<svg width="24" height="24" viewBox="0 0 24 24" fill="none" xmlns="http://www.w3.org/2000/svg">
<path d="M14.3099 12L13.155 14.0004M14.3099 12L13.155 9.99959M14.3099 12L8.82166 21.4843M13.155 14.0004H10.8451M13.155 14.0004L10.8451 9.99959M10.8451 14.0004L9.69019 12M10.8451 14.0004H2.20013M10.8451 14.0004L5.3362 4.54377M9.69019 12L10.8451 9.99959M9.69019 12L15.1515 2.50671M10.8451 9.99959H13.155M13.155 9.99959H21.7999M13.155 9.99959L18.6402 19.4773" stroke="#7D909B" stroke-width="2"/>
<path d="M12 22C14.5484 22 16.8742 21.0467 18.6402 19.4773C20.7014 17.6455 22 14.9744 22 12C22 11.3149 21.9311 10.6459 21.7999 9.99958C21.0841 6.47417 18.5137 3.62229 15.1514 2.5067C14.1607 2.17797 13.1011 2 12 2C9.44019 2 7.10503 2.96181 5.33618 4.54376C3.2887 6.37491 2 9.03696 2 12C2 12.6851 2.06889 13.3541 2.20012 14.0004C2.91398 17.5164 5.47258 20.3625 8.82164 21.4843C9.82014 21.8188 10.8889 22 12 22Z" stroke="#283238" stroke-width="2"/>
</svg>
