<svg width="24" height="24" viewBox="0 0 24 24" fill="none" xmlns="http://www.w3.org/2000/svg">
<path d="M8.5 18H7.5C5.567 18 4 16.433 4 14.5C4 12.567 5.567 11 7.5 11H14.5C16.433 11 18 12.567 18 14.5C18 16.433 16.433 18 14.5 18H13.5M8.5 18V9M8.5 18H13.5M13.5 18V9" stroke="#7D909B" stroke-width="2"/>
<path d="M14.5 11H7.5H1M14.5 11C16.2531 11 19.0909 10.6172 21 9.3777M14.5 11C16.2531 11 19.0909 11.3828 21 12.6223M1 11V9.5M1 11V12.5M21 9.3777C22.1763 8.61398 23 7.52502 23 6V16C23 14.475 22.1763 13.386 21 12.6223M21 9.3777V12.6223" stroke="#283238" stroke-width="2"/>
</svg>
