<svg width="24" height="24" viewBox="0 0 24 24" fill="none" xmlns="http://www.w3.org/2000/svg">
<g clip-path="url(#clip0_242_9735)">
<mask id="mask0_242_9735" style="mask-type:alpha" maskUnits="userSpaceOnUse" x="0" y="0" width="24" height="24">
<path d="M8 16V24H0V0H24V24H16V16H8Z" fill="white"/>
</mask>
<g mask="url(#mask0_242_9735)">
<path d="M15.8137 9.32635L15.4427 8.40939L15.8137 9.32635C16.3331 9.11621 16.9018 9 17.5 9C19.9853 9 22 11.0147 22 13.5C22 15.9853 19.9853 18 17.5 18H13H8.5C4.91015 18 2 15.0899 2 11.5C2 7.91015 4.91015 5 8.5 5C11.1125 5 13.367 6.54123 14.4001 8.76837C14.6481 9.30288 15.2709 9.54592 15.8137 9.32635Z" stroke="#283238" stroke-width="2"/>
</g>
<path d="M12 15L12 23" stroke="#7D909B" stroke-width="2"/>
<path d="M9 15L12 12L15 15L9 15Z" fill="#7D909B"/>
</g>
<defs>
<clipPath id="clip0_242_9735">
<rect width="24" height="24" fill="white"/>
</clipPath>
</defs>
</svg>
