<svg width="24" height="24" viewBox="0 0 24 24" fill="none" xmlns="http://www.w3.org/2000/svg">
<g clip-path="url(#clip0_401_21545)">
<path d="M2 12C2 17.52 6.48 22 12 22C17.52 22 22 17.52 22 12C22 6.48 17.52 2 12 2C6.48 2 2 6.48 2 12ZM20 12C20 16.42 16.42 20 12 20C7.58 20 4 16.42 4 12C4 7.58 7.58 4 12 4C16.42 4 20 7.58 20 12ZM8 12L12 8L13.41 9.41L11.83 11H16V13H11.83L13.42 14.59L12 16L8 12Z" fill="black"/>
</g>
<defs>
<clipPath id="clip0_401_21545">
<rect width="24" height="24" fill="white"/>
</clipPath>
</defs>
</svg>
