<svg width="24" height="24" viewBox="0 0 24 24" fill="none" xmlns="http://www.w3.org/2000/svg">
<g clip-path="url(#clip0_401_20857)">
<path d="M2.81001 2.81006L1.39001 4.22006L4.08001 6.91006C2.78001 8.60006 2.00001 10.7101 2.00001 13.0001C2.00001 15.7601 3.12001 18.2601 4.93001 20.0701L6.35001 18.6501C4.90001 17.2101 4.00001 15.2101 4.00001 13.0001C4.00001 11.2501 4.57001 9.65006 5.51002 8.34006L6.94001 9.77006C6.35001 10.7001 6.00001 11.8101 6.00001 13.0001C6.00001 14.6601 6.68002 16.1501 7.76002 17.2401L9.18002 15.8201C8.45002 15.1001 8.00001 14.1101 8.00001 13.0001C8.00001 12.3701 8.15001 11.7701 8.41001 11.2401L10.02 12.8501C10.02 12.9001 10 12.9501 10 13.0001C10 13.5501 10.23 14.0501 10.59 14.4101C10.95 14.7701 11.45 15.0001 12 15.0001C12.05 15.0001 12.1 14.9901 12.16 14.9801L19.78 22.6001L21.19 21.1901L2.81001 2.81006ZM17.7 14.8701C17.89 14.2801 18 13.6501 18 13.0001C18 9.69006 15.31 7.00006 12 7.00006C11.35 7.00006 10.72 7.10006 10.13 7.30006L11.84 9.01006C11.89 9.00006 11.95 9.00006 12 9.00006C14.21 9.00006 16 10.7901 16 13.0001C16 13.0501 16 13.1101 15.99 13.1601L17.7 14.8701ZM12 5.00006C16.42 5.00006 20 8.58006 20 13.0001C20 14.2201 19.73 15.3701 19.23 16.4001L20.72 17.8901C21.53 16.4501 22 14.7801 22 13.0001C22 7.48006 17.52 3.00006 12 3.00006C10.22 3.00006 8.56001 3.46006 7.11001 4.28006L8.59001 5.76006C9.63001 5.27006 10.78 5.00006 12 5.00006Z" fill="black"/>
</g>
<defs>
<clipPath id="clip0_401_20857">
<rect width="24" height="24" fill="white"/>
</clipPath>
</defs>
</svg>
