<svg width="24" height="24" viewBox="0 0 24 24" fill="none" xmlns="http://www.w3.org/2000/svg">
<g clip-path="url(#clip0_401_21991)">
<path d="M13 3V4H11V3H13ZM12 10.11L17.38 11.88L19.77 12.66L18.65 16.63C18.11 16.33 17.71 15.92 17.51 15.69L16 13.96L14.49 15.68C14.15 16.08 13.21 17 12 17C10.79 17 9.85001 16.08 9.51001 15.68L8.00001 13.96L6.49001 15.68C6.29001 15.91 5.89001 16.31 5.35001 16.61L4.22001 12.65L6.62001 11.86L12 10.11ZM15 1H9.00001V4H6.00001C4.90001 4 4.00001 4.9 4.00001 6V10.62L2.71001 11.04C2.45001 11.12 2.23001 11.3 2.11001 11.54C1.99001 11.78 1.96001 12.06 2.05001 12.32L3.95001 19H4.00001C5.60001 19 7.02001 18.12 8.00001 17C8.98001 18.12 10.4 19 12 19C13.6 19 15.02 18.12 16 17C16.98 18.12 18.4 19 20 19H20.05L21.94 12.32C22.02 12.06 22 11.78 21.88 11.54C21.76 11.3 21.54 11.12 21.28 11.04L20 10.62V6C20 4.9 19.1 4 18 4H15V1ZM6.00001 9.97V6H18V9.97L12 8L6.00001 9.97ZM16 19.68C14.78 20.53 13.39 20.96 12 20.96C10.61 20.96 9.22001 20.53 8.00001 19.68C6.78001 20.53 5.39001 21 4.00001 21H2.00001V23H4.00001C5.38001 23 6.74001 22.65 8.00001 22.01C9.26001 22.65 10.63 22.98 12 22.98C13.37 22.98 14.74 22.66 16 22.01C17.26 22.66 18.62 23 20 23H22V21H20C18.61 21 17.22 20.53 16 19.68Z" fill="black"/>
</g>
<defs>
<clipPath id="clip0_401_21991">
<rect width="24" height="24" fill="white"/>
</clipPath>
</defs>
</svg>
