<svg width="24" height="24" viewBox="0 0 24 24" fill="none" xmlns="http://www.w3.org/2000/svg">
<g clip-path="url(#clip0_401_21740)">
<path d="M17 5C17.83 5 18.5 4.33 18.5 3.5C18.5 2.5 17 0.799999 17 0.799999C17 0.799999 15.5 2.5 15.5 3.5C15.5 4.33 16.17 5 17 5ZM12 5C12.83 5 13.5 4.33 13.5 3.5C13.5 2.5 12 0.799999 12 0.799999C12 0.799999 10.5 2.5 10.5 3.5C10.5 4.33 11.17 5 12 5ZM7 5C7.83 5 8.5 4.33 8.5 3.5C8.5 2.5 7 0.799999 7 0.799999C7 0.799999 5.5 2.5 5.5 3.5C5.5 4.33 6.17 5 7 5ZM18.92 8.01C18.72 7.42 18.16 7 17.5 7H6.5C5.84 7 5.29 7.42 5.08 8.01L3 14V22C3 22.55 3.45 23 4 23H5C5.55 23 6 22.55 6 22V21H18V22C18 22.55 18.45 23 19 23H20C20.55 23 21 22.55 21 22V14L18.92 8.01ZM6.85 9H17.14L18.18 12H5.81L6.85 9ZM19 19H5V14.34L5.12 14H18.89L19 14.34V19Z" fill="black"/>
<path d="M7.5 18C8.32843 18 9 17.3284 9 16.5C9 15.6716 8.32843 15 7.5 15C6.67157 15 6 15.6716 6 16.5C6 17.3284 6.67157 18 7.5 18Z" fill="black"/>
<path d="M16.5 18C17.3284 18 18 17.3284 18 16.5C18 15.6716 17.3284 15 16.5 15C15.6716 15 15 15.6716 15 16.5C15 17.3284 15.6716 18 16.5 18Z" fill="black"/>
</g>
<defs>
<clipPath id="clip0_401_21740">
<rect width="24" height="24" fill="white"/>
</clipPath>
</defs>
</svg>
