<svg width="24" height="24" viewBox="0 0 24 24" fill="none" xmlns="http://www.w3.org/2000/svg">
<g clip-path="url(#clip0_401_21844)">
<path d="M9.56 8L7.56 6L3.41 1.86L2 3.27L4.73 6H4C3.45 6 3 6.45 3 7V17C3 17.55 3.45 18 4 18H16C16.21 18 16.39 17.92 16.55 17.82L19.73 21L21.14 19.59L12.28 10.73L9.56 8ZM5 16V8H6.73L14.73 16H5ZM15 8V10.61L21 16.61V6.5L17 10.5V7C17 6.45 16.55 6 16 6H10.39L12.39 8H15Z" fill="black"/>
</g>
<defs>
<clipPath id="clip0_401_21844">
<rect width="24" height="24" fill="white"/>
</clipPath>
</defs>
</svg>
