<svg width="24" height="24" viewBox="0 0 24 24" fill="none" xmlns="http://www.w3.org/2000/svg">
<g clip-path="url(#clip0_401_21929)">
<path d="M19 7H17V9H19V7Z" fill="black"/>
<path d="M19 11H17V13H19V11Z" fill="black"/>
<path d="M19 15H17V17H19V15Z" fill="black"/>
<path d="M1 11V21H7V16H9V21H15V11L8 6L1 11ZM13 19H11V14H5V19H3V12L8 8.5L13 12V19Z" fill="black"/>
<path d="M10 3V4.97L12 6.4V5H21V19H17V21H23V3H10Z" fill="black"/>
</g>
<defs>
<clipPath id="clip0_401_21929">
<rect width="24" height="24" fill="white"/>
</clipPath>
</defs>
</svg>
