<svg width="24" height="24" viewBox="0 0 24 24" fill="none" xmlns="http://www.w3.org/2000/svg">
<g clip-path="url(#clip0_401_22035)">
<path d="M15.45 16.5199L12.44 13.5099C12.33 13.3999 12.2 13.3799 12.13 13.3799C12.06 13.3799 11.93 13.3999 11.82 13.5099L8.79997 16.5299C8.45997 16.8699 7.92997 17.4199 6.15997 17.4199L9.86997 21.1199C11.04 22.2899 12.94 22.2899 14.11 21.1199L17.83 17.4099C16.92 17.4099 16.16 17.2299 15.45 16.5199Z" fill="black"/>
<path d="M8.8 7.46994L11.82 10.4899C11.9 10.5699 12.02 10.6199 12.13 10.6199C12.24 10.6199 12.36 10.5699 12.44 10.4899L15.43 7.49994C16.14 6.75994 16.95 6.58994 17.86 6.58994L14.14 2.87994C12.97 1.70994 11.07 1.70994 9.9 2.87994L6.19 6.57994C7.95 6.57994 8.49 7.15994 8.8 7.46994Z" fill="black"/>
<path d="M21.11 9.84995L18.86 7.58995H17.6C17.06 7.58995 16.52 7.80995 16.15 8.19995L13.15 11.1999C12.87 11.4799 12.5 11.6199 12.13 11.6199C11.77 11.6199 11.39 11.4699 11.11 11.1999L8.09 8.16995C7.71 7.78995 7.19 7.56995 6.64 7.56995H5.17L2.88 9.86995C1.71 11.0399 1.71 12.9399 2.88 14.1099L5.17 16.4099H6.65C7.19 16.4099 7.71 16.1899 8.1 15.8099L11.12 12.7899C11.4 12.5099 11.77 12.3699 12.14 12.3699C12.51 12.3699 12.88 12.5099 13.16 12.7899L16.17 15.7999C16.55 16.1799 17.07 16.3999 17.62 16.3999H18.88L21.13 14.1399C22.3 12.9599 22.3 11.0399 21.11 9.84995Z" fill="black"/>
</g>
<defs>
<clipPath id="clip0_401_22035">
<rect width="24" height="24" fill="white"/>
</clipPath>
</defs>
</svg>
