<svg width="24" height="24" viewBox="0 0 24 24" fill="none" xmlns="http://www.w3.org/2000/svg">
<g clip-path="url(#clip0_401_21094)">
<path d="M11 24H13V22H11V24ZM7 24H9V22H7V24ZM15 24H17V22H15V24ZM17.71 5.71L12 0H11V7.59L6.41 3L5 4.41L10.59 10L5 15.59L6.41 17L11 12.41V20H12L17.71 14.29L13.41 10L17.71 5.71ZM13 3.83L14.88 5.71L13 7.59V3.83ZM14.88 14.29L13 16.17V12.41L14.88 14.29Z" fill="black"/>
</g>
<defs>
<clipPath id="clip0_401_21094">
<rect width="24" height="24" fill="white"/>
</clipPath>
</defs>
</svg>
