<svg width="24" height="24" viewBox="0 0 24 24" fill="none" xmlns="http://www.w3.org/2000/svg">
<g clip-path="url(#clip0_401_22621)">
<path d="M13 3C8.03001 3 4.00001 7.03 4.00001 12C4.00001 12.06 4.01001 12.12 4.01001 12.19L2.17001 10.35L0.76001 11.76L5.00001 16L9.24001 11.76L7.83001 10.35L6.01001 12.17C6.01001 12.11 6.00001 12.06 6.00001 12C6.00001 8.14 9.14001 5 13 5C16.86 5 20 8.14 20 12C20 15.86 16.86 19 13 19C11.1 19 9.38001 18.24 8.12001 17.01L6.70001 18.42C8.32001 20.01 10.55 21 13 21C17.97 21 22 16.97 22 12C22 7.03 17.97 3 13 3ZM15 11V10C15 8.9 14.1 8 13 8C11.9 8 11 8.9 11 10V11C10.45 11 10 11.45 10 12V15C10 15.55 10.45 16 11 16H15C15.55 16 16 15.55 16 15V12C16 11.45 15.55 11 15 11ZM14 11H12V10C12 9.45 12.45 9 13 9C13.55 9 14 9.45 14 10V11Z" fill="black"/>
</g>
<defs>
<clipPath id="clip0_401_22621">
<rect width="24" height="24" fill="white"/>
</clipPath>
</defs>
</svg>
