<svg width="24" height="24" viewBox="0 0 24 24" fill="none" xmlns="http://www.w3.org/2000/svg">
<g clip-path="url(#clip0_401_22265)">
<path d="M15.904 13.0506L13.7827 15.1719L19.7789 21.1681L21.9002 19.0468L15.904 13.0506Z" fill="black"/>
<path d="M17.5 10C19.43 10 21 8.43005 21 6.50005C21 5.92005 20.84 5.38005 20.59 4.90005L17.89 7.60005L16.4 6.11005L19.1 3.41005C18.62 3.16005 18.08 3.00005 17.5 3.00005C15.57 3.00005 14 4.57005 14 6.50005C14 6.91005 14.08 7.30005 14.21 7.66005L12.36 9.51005L10.58 7.73005L11.29 7.02005L9.88001 5.61005L12 3.49005C10.83 2.32005 8.93001 2.32005 7.76001 3.49005L4.22001 7.03005L5.63001 8.44005H2.81001L2.10001 9.15005L5.64001 12.69L6.35001 11.98V9.15005L7.76001 10.56L8.47001 9.85005L10.25 11.63L2.84001 19.0401L4.96001 21.16L16.34 9.79005C16.7 9.92005 17.09 10 17.5 10Z" fill="black"/>
</g>
<defs>
<clipPath id="clip0_401_22265">
<rect width="24" height="24" fill="white"/>
</clipPath>
</defs>
</svg>
