<svg width="24" height="24" viewBox="0 0 24 24" fill="none" xmlns="http://www.w3.org/2000/svg">
<g clip-path="url(#clip0_401_21811)">
<path fill-rule="evenodd" clip-rule="evenodd" d="M12 2C6.48 2 2 6.48 2 12C2 17.52 6.48 22 12 22C17.52 22 22 17.52 22 12C22 6.48 17.52 2 12 2ZM12 20C7.59 20 4 16.41 4 12C4 7.59 7.59 4 12 4C16.41 4 20 7.59 20 12C20 16.41 16.41 20 12 20Z" fill="black"/>
<path fill-rule="evenodd" clip-rule="evenodd" d="M13.49 11.38C13.92 10.16 13.66 8.73996 12.68 7.75996C11.57 6.64996 9.88999 6.45996 8.57999 7.16996L10.93 9.51996L9.51999 10.93L7.16999 8.57996C6.45999 9.89996 6.64999 11.57 7.75999 12.68C8.73999 13.66 10.16 13.92 11.38 13.49L14.79 16.9C14.99 17.1 15.3 17.1 15.5 16.9L16.9 15.5C17.1 15.3 17.1 14.99 16.9 14.79L13.49 11.38Z" fill="black"/>
</g>
<defs>
<clipPath id="clip0_401_21811">
<rect width="24" height="24" fill="white"/>
</clipPath>
</defs>
</svg>
