<svg width="24" height="24" viewBox="0 0 24 24" fill="none" xmlns="http://www.w3.org/2000/svg">
<g clip-path="url(#clip0_401_21366)">
<path d="M11.8 10.9C9.53001 10.31 8.80001 9.7 8.80001 8.75C8.80001 7.66 9.81001 6.9 11.5 6.9C13.28 6.9 13.94 7.75 14 9H16.21C16.14 7.28 15.09 5.7 13 5.19V3H10V5.16C8.06001 5.58 6.50001 6.84 6.50001 8.77C6.50001 11.08 8.41001 12.23 11.2 12.9C13.7 13.5 14.2 14.38 14.2 15.31C14.2 16 13.71 17.1 11.5 17.1C9.44001 17.1 8.63001 16.18 8.52001 15H6.32001C6.44001 17.19 8.08001 18.42 10 18.83V21H13V18.85C14.95 18.48 16.5 17.35 16.5 15.3C16.5 12.46 14.07 11.49 11.8 10.9Z" fill="black"/>
</g>
<defs>
<clipPath id="clip0_401_21366">
<rect width="24" height="24" fill="white"/>
</clipPath>
</defs>
</svg>
