<svg width="24" height="24" viewBox="0 0 24 24" fill="none" xmlns="http://www.w3.org/2000/svg">
<g clip-path="url(#clip0_401_20937)">
<path d="M6.83 4.0001H20C21.11 4.0001 22 4.8901 22 6.0001V18.0001C22 18.3401 21.92 18.6601 21.77 18.9401L20 17.1701V12.0001H14.83L10.83 8.0001H20V6.0001H8.83L6.83 4.0001ZM20.49 23.3101L17.17 20.0001H4C2.89 20.0001 2 19.1101 2 18.0001L2.01 6.0001C2.01 5.6601 2.09 5.3401 2.24 5.0701L0.690002 3.5101L2.1 2.1001L21.9 21.9001L20.49 23.3101ZM4 6.8301V8.0001H5.17L4 6.8301ZM15.17 18.0001L9.17 12.0001H4V18.0001H15.17Z" fill="black"/>
</g>
<defs>
<clipPath id="clip0_401_20937">
<rect width="24" height="24" fill="white"/>
</clipPath>
</defs>
</svg>
