<svg width="24" height="24" viewBox="0 0 24 24" fill="none" xmlns="http://www.w3.org/2000/svg">
<g clip-path="url(#clip0_401_21172)">
<path d="M9.99999 4.00009H14V6.00009H10.4L12.4 8.00009H20V15.6001L22 17.6001V8.00009C22 6.89009 21.11 6.00009 20 6.00009H16V4.00009C16 2.89009 15.11 2.00009 14 2.00009H9.99999C9.00999 2.00009 8.19999 2.70009 8.03999 3.64009L9.99999 5.60009V4.00009ZM3.39999 1.84009L1.98999 3.25009L4.73999 6.00009H3.99999C2.88999 6.00009 2.00999 6.89009 2.00999 8.00009L1.99999 19.0001C1.99999 20.1101 2.88999 21.0001 3.99999 21.0001H19.74L21.74 23.0001L23.15 21.5901L3.39999 1.84009ZM3.99999 19.0001V8.00009H6.73999L17.74 19.0001H3.99999Z" fill="black"/>
</g>
<defs>
<clipPath id="clip0_401_21172">
<rect width="24" height="24" fill="white"/>
</clipPath>
</defs>
</svg>
