<svg width="24" height="24" viewBox="0 0 24 24" fill="none" xmlns="http://www.w3.org/2000/svg">
<g clip-path="url(#clip0_401_22349)">
<path d="M12 2C6.48 2 2 6.48 2 12C2 17.52 6.48 22 12 22C17.52 22 22 17.52 22 12C22 6.48 17.52 2 12 2ZM12 20C7.59 20 4 16.41 4 12C4 7.59 7.59 4 12 4C16.41 4 20 7.59 20 12C20 16.41 16.41 20 12 20Z" fill="black"/>
<path d="M15 9L14 7H8V18H9.5V13H12L13 15H18V9H15ZM16.5 13.5H13.93L12.93 11.5H9.5V8.5H13.07L14.07 10.5H16.5V13.5Z" fill="black"/>
</g>
<defs>
<clipPath id="clip0_401_22349">
<rect width="24" height="24" fill="white"/>
</clipPath>
</defs>
</svg>
