<svg width="24" height="24" viewBox="0 0 24 24" fill="none" xmlns="http://www.w3.org/2000/svg">
<g clip-path="url(#clip0_401_21148)">
<path d="M21 23C19.97 23 18.94 22.75 18 22.25C16.11 23.25 13.89 23.25 12 22.25C10.11 23.25 7.89 23.25 6 22.25C5.05 22.75 4.03 23 3 23H2V21H3C4.04 21 5.08 20.65 6 20C7.83 21.3 10.17 21.3 12 20C13.83 21.3 16.17 21.3 18 20C18.91 20.65 19.96 21 21 21H22V23H21ZM12 5.5C10.9 5.5 10 6.4 10 7.5C10 8.6 10.9 9.5 12 9.5C13.1 9.5 14 8.6 14 7.5C14 6.4 13.1 5.5 12 5.5ZM24 17.5C24 17.5 22.48 18.21 20.07 18.87C19.25 18.64 18.54 18.12 18 17.5C17.27 18.34 16.2 19 15 19C13.8 19 12.73 18.34 12 17.5C11.27 18.34 10.2 19 9 19C7.8 19 6.73 18.34 6 17.5C5.46 18.11 4.75 18.63 3.93 18.87C1.52 18.21 0 17.5 0 17.5C0 17.5 2.93 16.14 7.13 15.42L8.48 11.25C8.79 10.3 9.8 9.78 10.75 10.09C10.84 10.12 10.94 10.16 11.02 10.2L13.49 11.5L16.33 10L17.98 6.29L17.47 4.97L18.8 2L22 3.43L20.67 6.4L19.36 6.9L15.64 15.24C20.49 15.87 24 17.5 24 17.5ZM15.02 12.96L13.5 13.76L11.75 12.84L11.04 15.01C11.36 15.01 11.68 15 12 15C12.71 15 13.4 15.03 14.07 15.08L15.02 12.96Z" fill="black"/>
</g>
<defs>
<clipPath id="clip0_401_21148">
<rect width="24" height="24" fill="white"/>
</clipPath>
</defs>
</svg>
