<svg width="24" height="24" viewBox="0 0 24 24" fill="none" xmlns="http://www.w3.org/2000/svg">
<g clip-path="url(#clip0_401_22570)">
<path d="M18 8C16.94 8 16.36 8.29 14.09 9.19C13.9 9.05 13.69 8.92 13.47 8.82C13.72 7.79 14.08 7.29 14.8 6.78C15.61 6.21 16 5.44 16 4.5C16 3.28 15.05 2 13.4 2C10.32 2 8.48002 3.47 8.08002 5.26L10.41 7.59C10.07 6.69 10 6.38 10 6C10 4.82 11.4 4 13.4 4C13.97 4 14 4.42 14 4.5C14 4.77 13.95 4.93 13.65 5.15C12.38 6.05 11.82 7.06 11.49 8.54L11.47 8.64L18.72 15.89C18.96 15.95 19.22 16 19.5 16C20.72 16 22 15.05 22 13.4C22 9.91 20.11 8 18 8ZM19.5 14C19.23 14 19.07 13.95 18.85 13.65C17.95 12.38 16.94 11.82 15.46 11.49C15.43 11.27 15.38 11.07 15.31 10.87C17.11 10.12 17.49 10 18 10C19.18 10 20 11.4 20 13.4C20 13.97 19.58 14 19.5 14Z" fill="black"/>
<path d="M1.39001 4.22L5.28001 8.11C5.04001 8.05 4.78001 8 4.50001 8C3.28001 8 2.00001 8.95 2.00001 10.6C2.00001 14.09 3.89001 16 6.00001 16C7.06001 16 7.64001 15.71 9.91001 14.81C10.1 14.95 10.31 15.08 10.53 15.18C10.28 16.21 9.92001 16.71 9.20001 17.22C8.39001 17.79 8.00001 18.56 8.00001 19.5C8.00001 20.72 8.95001 22 10.6 22C13.68 22 15.52 20.53 15.92 18.74L19.78 22.6L21.19 21.19L2.81001 2.81L1.39001 4.22ZM12.52 15.46C12.55 15.46 12.58 15.44 12.61 15.44L13.58 16.41C13.93 17.31 14 17.62 14 18C14 19.18 12.6 20 10.6 20C10.03 20 10 19.58 10 19.5C10 19.23 10.05 19.07 10.35 18.85C11.63 17.96 12.18 16.94 12.52 15.46ZM8.54001 12.52C8.57001 12.74 8.62001 12.94 8.69001 13.14C6.89001 13.88 6.51001 14 6.00001 14C4.82001 14 4.00001 12.6 4.00001 10.6C4.00001 10.03 4.42001 10 4.50001 10C4.77001 10 4.93001 10.05 5.15001 10.35C6.04001 11.63 7.06001 12.18 8.54001 12.52Z" fill="black"/>
</g>
<defs>
<clipPath id="clip0_401_22570">
<rect width="24" height="24" fill="white"/>
</clipPath>
</defs>
</svg>
