<svg width="24" height="24" viewBox="0 0 24 24" fill="none" xmlns="http://www.w3.org/2000/svg">
<g clip-path="url(#clip0_401_22701)">
<path d="M10.5 10C11.3284 10 12 9.32843 12 8.5C12 7.67157 11.3284 7 10.5 7C9.67157 7 9 7.67157 9 8.5C9 9.32843 9.67157 10 10.5 10Z" fill="black"/>
<path d="M8.5 15C9.32843 15 10 14.3284 10 13.5C10 12.6716 9.32843 12 8.5 12C7.67157 12 7 12.6716 7 13.5C7 14.3284 7.67157 15 8.5 15Z" fill="black"/>
<path d="M15 16C15.5523 16 16 15.5523 16 15C16 14.4477 15.5523 14 15 14C14.4477 14 14 14.4477 14 15C14 15.5523 14.4477 16 15 16Z" fill="black"/>
<path d="M21.95 10.99C20.16 10.96 18.25 9.03998 19.27 6.76998C16.3 7.76998 13.49 5.17998 14.08 2.20998C7.11 0.739975 2 6.40998 2 12C2 17.52 6.48 22 12 22C17.89 22 22.54 16.92 21.95 10.99ZM12 20C7.59 20 4 16.41 4 12C4 8.68998 6.73 3.81998 12.08 3.97998C12.5 6.51998 14.52 8.53998 17.07 8.91998C17.14 9.27998 17.59 11.47 19.99 12.55C19.7 16.86 16.06 20 12 20Z" fill="black"/>
</g>
<defs>
<clipPath id="clip0_401_22701">
<rect width="24" height="24" fill="white"/>
</clipPath>
</defs>
</svg>
