<svg width="24" height="24" viewBox="0 0 24 24" fill="none" xmlns="http://www.w3.org/2000/svg">
<g clip-path="url(#clip0_401_22104)">
<path d="M20.38 8.57L19.15 10.42C19.7432 11.6031 20.0336 12.9148 19.9952 14.2377C19.9568 15.5606 19.5908 16.8533 18.93 18H5.06999C4.21116 16.5101 3.85528 14.7831 4.05513 13.0751C4.25497 11.367 4.9999 9.76882 6.17947 8.51743C7.35904 7.26603 8.91046 6.42804 10.6037 6.1277C12.297 5.82735 14.042 6.08063 15.58 6.85L17.43 5.62C15.5465 4.41222 13.3123 3.871 11.0849 4.08294C8.85744 4.29487 6.76543 5.2477 5.14348 6.78901C3.52153 8.33033 2.46335 10.3711 2.13821 12.5848C1.81306 14.7986 2.23974 17.0574 3.34999 19C3.5245 19.3023 3.77508 19.5536 4.07682 19.7291C4.37856 19.9045 4.72096 19.9979 5.06999 20H18.92C19.2724 20.0014 19.6189 19.9096 19.9245 19.734C20.2301 19.5584 20.4838 19.3052 20.66 19C21.5814 17.4039 22.0438 15.5843 21.9961 13.742C21.9485 11.8996 21.3926 10.1063 20.39 8.56L20.38 8.57Z" fill="black"/>
<path d="M10.59 15.41C10.7757 15.596 10.9963 15.7435 11.2391 15.8442C11.4819 15.9448 11.7422 15.9966 12.005 15.9966C12.2678 15.9966 12.5281 15.9448 12.7709 15.8442C13.0137 15.7435 13.2342 15.596 13.42 15.41L19.08 6.92004L10.59 12.58C10.404 12.7658 10.2565 12.9864 10.1559 13.2292C10.0552 13.472 10.0034 13.7322 10.0034 13.995C10.0034 14.2579 10.0552 14.5181 10.1559 14.7609C10.2565 15.0037 10.404 15.2243 10.59 15.41Z" fill="black"/>
</g>
<defs>
<clipPath id="clip0_401_22104">
<rect width="24" height="24" fill="white"/>
</clipPath>
</defs>
</svg>
