<svg width="24" height="24" viewBox="0 0 24 24" fill="none" xmlns="http://www.w3.org/2000/svg">
<g clip-path="url(#clip0_401_22285)">
<path d="M12 2L4 5V11.09C4 16.14 7.41 20.85 12 22C16.59 20.85 20 16.14 20 11.09V5L12 2ZM18 11.09C18 15.09 15.45 18.79 12 19.92C8.55 18.79 6 15.1 6 11.09V6.39L12 4.14L18 6.39V11.09Z" fill="black"/>
<path d="M9.01 14.33C10.76 16.5 14.13 16.57 15.97 14.4C16.2 14.13 16.05 13.72 15.71 13.66C14.42 13.45 13.23 12.68 12.53 11.46C11.82 10.24 11.75 8.83003 12.21 7.60003C12.33 7.27003 12.05 6.94003 11.7 7.00003C8.36 7.62003 6.81 11.61 9.01 14.33Z" fill="black"/>
</g>
<defs>
<clipPath id="clip0_401_22285">
<rect width="24" height="24" fill="white"/>
</clipPath>
</defs>
</svg>
