<svg width="24" height="24" viewBox="0 0 24 24" fill="none" xmlns="http://www.w3.org/2000/svg">
<g clip-path="url(#clip0_401_22588)">
<path d="M19 9H18V4H8V9H7.22C6.67 8.39 5.89 8 5 8C3.34 8 2 9.34 2 11V18C2 19.66 3.34 21 5 21C5.89 21 6.67 20.61 7.22 20H22V12C22 10.34 20.66 9 19 9ZM6 18C6 18.55 5.55 19 5 19C4.45 19 4 18.55 4 18V11C4 10.45 4.45 10 5 10C5.55 10 6 10.45 6 11V18ZM10 6H16V9H10V6ZM20 18H8V11H19C19.55 11 20 11.45 20 12V18Z" fill="black"/>
<path d="M15 14C15.5523 14 16 13.5523 16 13C16 12.4477 15.5523 12 15 12C14.4477 12 14 12.4477 14 13C14 13.5523 14.4477 14 15 14Z" fill="black"/>
<path d="M18 14C18.5523 14 19 13.5523 19 13C19 12.4477 18.5523 12 18 12C17.4477 12 17 12.4477 17 13C17 13.5523 17.4477 14 18 14Z" fill="black"/>
<path d="M15 17C15.5523 17 16 16.5523 16 16C16 15.4477 15.5523 15 15 15C14.4477 15 14 15.4477 14 16C14 16.5523 14.4477 17 15 17Z" fill="black"/>
<path d="M18 17C18.5523 17 19 16.5523 19 16C19 15.4477 18.5523 15 18 15C17.4477 15 17 15.4477 17 16C17 16.5523 17.4477 17 18 17Z" fill="black"/>
<path d="M13 12H9V17H13V12Z" fill="black"/>
</g>
<defs>
<clipPath id="clip0_401_22588">
<rect width="24" height="24" fill="white"/>
</clipPath>
</defs>
</svg>
