<svg width="24" height="24" viewBox="0 0 24 24" fill="none" xmlns="http://www.w3.org/2000/svg">
<g clip-path="url(#clip0_401_22134)">
<path d="M24 7C24 5.9 22 4 22 4C22 4 20 5.9 20 7C20 7.74 20.4 8.38 21 8.72V13H19V11C19 10.05 18.34 9.26 17.45 9.06C17.79 8.48 18 7.81 18 7.09C18 5.78 17.35 4.56 16.26 3.84L12 1L7.74 3.84C6.65 4.56 6 5.78 6 7.09C6 7.81 6.21 8.48 6.55 9.05C5.66 9.26 5 10.05 5 11V13H3V8.72C3.6 8.38 4 7.74 4 7C4 5.9 2 4 2 4C2 4 0 5.9 0 7C0 7.74 0.4 8.38 1 8.72V21H11V17C11 16.45 11.45 16 12 16C12.55 16 13 16.45 13 17V21H23V8.72C23.6 8.38 24 7.74 24 7ZM8.85 5.5L12 3.4L15.15 5.5C15.68 5.86 16 6.45 16 7.09C16 8.14 15.14 9 14.09 9H9.91C8.86 9 8 8.14 8 7.09C8 6.45 8.32 5.86 8.85 5.5ZM21 19H15V17C15 15.35 13.65 14 12 14C10.35 14 9 15.35 9 17V19H3V15H7V11H17V15H21V19Z" fill="black"/>
</g>
<defs>
<clipPath id="clip0_401_22134">
<rect width="24" height="24" fill="white"/>
</clipPath>
</defs>
</svg>
