<svg width="24" height="24" viewBox="0 0 24 24" fill="none" xmlns="http://www.w3.org/2000/svg">
<g clip-path="url(#clip0_401_21013)">
<path d="M20.22 10L16.07 10.01C15.91 10 15.76 10.03 15.62 10.09L15.03 10.35L13.2 6.25C12.64 4.99 11.16 4.42 9.9 4.98C8.64 5.54 8.07 7.02 8.63 8.28L11.93 15.73L10.06 16.12C9.87 16.17 9.07 16.39 8.7 17.33L8 19.19L14.78 21.86C15.27 22.05 15.83 22.04 16.31 21.82L22.3 19.17C23.19 18.77 23.67 17.79 23.43 16.85L22.07 11.51C21.85 10.65 21.1 10.04 20.22 10ZM21.49 17.34L15.5 20L10.58 18.04L14.76 17.16L10.46 7.46C10.35 7.21 10.46 6.91 10.71 6.8C10.96 6.69 11.26 6.8 11.37 7.05L13.87 12.7L15.48 11.99L20.13 12L21.49 17.34ZM3.8 12.18C3.6 11.32 3.5 10.42 3.5 9.5C3.5 6.66 4.49 4.05 6.13 2L7.2 3.07C5.82 4.85 5 7.08 5 9.5C5 10.38 5.11 11.24 5.32 12.06L6.94 10.44L8 11.5L4.5 15L1 11.5L2.06 10.44L3.8 12.18Z" fill="black"/>
</g>
<defs>
<clipPath id="clip0_401_21013">
<rect width="24" height="24" fill="white"/>
</clipPath>
</defs>
</svg>
