<svg width="24" height="24" viewBox="0 0 24 24" fill="none" xmlns="http://www.w3.org/2000/svg">
<g clip-path="url(#clip0_401_22139)">
<path d="M12 6C16.14 6 19.88 7.68 22.59 10.39L24 8.98C20.93 5.9 16.69 4 12 4C7.31 4 3.07 5.9 0 8.98L12 21L13.41 19.58L2.93 9.08C5.45 7.16 8.59 6 12 6Z" fill="black"/>
<path d="M21 14C21 11.76 19.24 10 17 10C14.76 10 13 11.76 13 14C13 16.24 14.76 18 17 18C17.75 18 18.44 17.79 19.03 17.44L21.59 20L23 18.59L20.44 16.03C20.79 15.44 21 14.75 21 14ZM17 16C15.88 16 15 15.12 15 14C15 12.88 15.88 12 17 12C18.12 12 19 12.88 19 14C19 15.12 18.12 16 17 16Z" fill="black"/>
</g>
<defs>
<clipPath id="clip0_401_22139">
<rect width="24" height="24" fill="white"/>
</clipPath>
</defs>
</svg>
