<svg width="24" height="24" viewBox="0 0 24 24" fill="none" xmlns="http://www.w3.org/2000/svg">
<g clip-path="url(#clip0_401_21160)">
<path d="M20.5 16.5C19.67 16.5 19 15.83 19 15V12.5C19 11.67 19.67 11 20.5 11C21.33 11 22 11.67 22 12.5V15C22 15.83 21.33 16.5 20.5 16.5ZM20 20H21V18.46C22.69 18.22 24 16.76 24 15H23C23 16.38 21.88 17.5 20.5 17.5C19.12 17.5 18 16.38 18 15H17C17 16.76 18.31 18.22 20 18.46V20ZM9 12C6.79 12 5 10.21 5 8C5 5.79 6.79 4 9 4C9.47 4 9.92 4.08 10.34 4.23C9.5 5.26 9 6.57 9 8C9 9.43 9.5 10.74 10.34 11.77C9.92 11.92 9.47 12 9 12ZM7.11 13.13C5.79 14.05 5 15.57 5 17.22V20H1V17.22C1 16.1 1.61 15.07 2.61 14.56C3.85 13.92 5.37 13.37 7.11 13.13ZM11 8C11 5.79 12.79 4 15 4C17.21 4 19 5.79 19 8C19 10.21 17.21 12 15 12C12.79 12 11 10.21 11 8ZM13 8C13 9.1 13.9 10 15 10C16.1 10 17 9.1 17 8C17 6.9 16.1 6 15 6C13.9 6 13 6.9 13 8ZM15 15C12.63 15 10.71 15.73 9.52 16.34C9.2 16.5 9 16.84 9 17.22V18H16.17C16.67 18.86 17.42 19.56 18.32 20H7V17.22C7 16.1 7.61 15.07 8.61 14.56C10.29 13.7 12.47 13 15 13C15.39 13 15.77 13.02 16.14 13.05C15.81 13.64 15.59 14.31 15.52 15.01C15.35 15 15.18 15 15 15Z" fill="black"/>
</g>
<defs>
<clipPath id="clip0_401_21160">
<rect width="24" height="24" fill="white"/>
</clipPath>
</defs>
</svg>
