<svg width="24" height="24" viewBox="0 0 24 24" fill="none" xmlns="http://www.w3.org/2000/svg">
<g clip-path="url(#clip0_401_21252)">
<path d="M5.77 7.15L7.2 4.78L8.23 3.07C8.62 2.42 9.56 2.42 9.95 3.07L11.43 5.53L10.2 7.59L9.2 9.21L5.77 7.15ZM21.72 12.97L20.12 10.31L16.66 12.31L18.87 16H20C20.76 16 21.45 15.57 21.79 14.89C21.93 14.61 22 14.31 22 14C22 13.64 21.9 13.29 21.72 12.97ZM16 21H17.5C18.26 21 18.95 20.57 19.29 19.89L20.74 17H16V15L12 19L16 23V21ZM10 17H5.7L4.86 18.41C4.56 18.91 4.54 19.53 4.8 20.06C5.08 20.63 5.67 21 6.32 21H10V17ZM6.12 14.35L7.85 15.39L6.48 9.9L1 11.27L2.7 12.29L2.29 12.98C1.94 13.57 1.91 14.29 2.22 14.9L3.85 18.16L6.12 14.35ZM17.02 5.14L15.72 2.97C15.35 2.37 14.7 2 14 2H10.47L13.59 7.2L11.87 8.23L17.36 9.6L18.73 4.11L17.02 5.14Z" fill="black"/>
</g>
<defs>
<clipPath id="clip0_401_21252">
<rect width="24" height="24" fill="white"/>
</clipPath>
</defs>
</svg>
