<svg width="24" height="24" viewBox="0 0 24 24" fill="none" xmlns="http://www.w3.org/2000/svg">
<g clip-path="url(#clip0_401_21259)">
<path d="M17 6V14.17L19 16.17V3C19 1.9 18.1 1.01 17 1.01L7.00001 1C6.15001 1 5.42001 1.55 5.13001 2.3L8.83001 6H17ZM7.00001 3H17V4H7.00001V3ZM21.19 21.19L19 19L17 17L7.00001 7L5.00001 5L2.81001 2.81L1.39001 4.22L5.00001 7.83V21C5.00001 22.1 5.90001 23 7.00001 23H17C17.85 23 18.58 22.45 18.87 21.7L19.78 22.61L21.19 21.19ZM17 21H7.00001V20H17V21ZM7.00001 18V9.83L15.17 18H7.00001Z" fill="black"/>
</g>
<defs>
<clipPath id="clip0_401_21259">
<rect width="24" height="24" fill="white"/>
</clipPath>
</defs>
</svg>
