<svg width="24" height="24" viewBox="0 0 24 24" fill="none" xmlns="http://www.w3.org/2000/svg">
<g clip-path="url(#clip0_401_20778)">
<path d="M17.5 15.0002V13.0002H18.6L19.5 15.0002H21L20.1 12.9002C20.6 12.6002 21 12.1002 21 11.5002V10.5002C21 9.70023 20.3 9.00023 19.5 9.00023H16V13.8602L17.14 15.0002H17.5ZM17.5 10.5002H19.5V11.5002H17.5V10.5002ZM13 10.5002V10.8602L14.5 12.3602V10.5002C14.5 9.70023 13.8 9.00023 13 9.00023H11.14L12.64 10.5002H13ZM2.51001 2.49023L1.45001 3.55023L6.90001 9.00023H6.50001V11.0002H4.50001V9.00023H3.00001V15.0002H4.50001V12.5002H6.50001V15.0002H8.00001V10.1002L9.50001 11.6002V15.0002H12.9L20.5 22.6002L21.56 21.5402L2.51001 2.49023Z" fill="black"/>
</g>
<defs>
<clipPath id="clip0_401_20778">
<rect width="24" height="24" fill="white"/>
</clipPath>
</defs>
</svg>
