<svg width="24" height="24" viewBox="0 0 24 24" fill="none" xmlns="http://www.w3.org/2000/svg">
<g clip-path="url(#clip0_401_22769)">
<path d="M19 8C18.45 8 18 7.55 18 7C18 6.72 18.11 6.47 18.29 6.29C18.69 5.89 20.75 5.25 20.75 5.25C20.75 5.25 20.11 7.31 19.71 7.71C19.53 7.89 19.28 8 19 8ZM20 13V18C20 19.65 18.65 21 17 21C15.35 21 14 19.65 14 18V16C14 15.45 13.55 15 13 15C12.45 15 12 15.45 12 16V19C12 20.1 11.1 21 10 21H4C2.9 21 2 20.1 2 19V5C2 3.9 2.9 3 4 3H10C11.1 3 12 3.9 12 5V13.17C12.31 13.06 12.65 13 13 13C14.65 13 16 14.35 16 16V18C16 18.55 16.45 19 17 19C17.55 19 18 18.55 18 18V13H17V11.58C15.23 10.81 14 9.05 14 7C14 4.24 16.24 2 19 2C21.76 2 24 4.24 24 7C24 9.05 22.77 10.81 21 11.58V13H20ZM22 7C22 5.34 20.66 4 19 4C17.34 4 16 5.34 16 7C16 8.66 17.34 10 19 10C20.66 10 22 8.66 22 7ZM10 7L8 9V6.17L9.17 5H4.83L6 6.17V9L4 7V9.17L6 11.17V14L4 12V14.17L6 16.17V19L4 17V19H10V17L8 19V16.17L10 14.17V12L8 14V11.17L10 9.17V7Z" fill="black"/>
</g>
<defs>
<clipPath id="clip0_401_22769">
<rect width="24" height="24" fill="white"/>
</clipPath>
</defs>
</svg>
