<svg width="24" height="24" viewBox="0 0 24 24" fill="none" xmlns="http://www.w3.org/2000/svg">
<g clip-path="url(#clip0_401_21354)">
<path d="M7 3V6H9V4H19V20H9V18H7V21C7 22.1 7.9 23 9 23H19C20.1 23 21 22.1 21 21V3C21 1.9 20.1 1 19 1H9C7.9 1 7 1.9 7 3ZM9.5 15.5C9.79 15.38 10.05 15.21 10.3 15.02L10.28 15.05L11.29 15.44C11.52 15.53 11.78 15.44 11.9 15.22L12.74 13.76C12.86 13.55 12.81 13.27 12.62 13.12L11.77 12.44L11.75 12.47C11.77 12.31 11.8 12.15 11.8 11.99C11.8 11.83 11.77 11.67 11.75 11.51L11.77 11.54L12.62 10.86C12.81 10.71 12.86 10.43 12.74 10.22L11.9 8.76C11.78 8.55 11.52 8.45 11.29 8.54L10.28 8.93L10.3 8.96C10.05 8.79 9.79 8.62 9.5 8.5L9.33 7.42C9.3 7.18 9.09 7 8.84 7H7.16C6.91 7 6.7 7.18 6.67 7.42L6.5 8.5C6.21 8.62 5.95 8.79 5.7 8.98L5.72 8.95L4.7 8.56C4.47 8.47 4.21 8.56 4.09 8.78L3.25 10.24C3.13 10.45 3.18 10.73 3.37 10.88L4.22 11.56L4.24 11.53C4.22 11.68 4.19 11.84 4.19 12C4.19 12.16 4.22 12.32 4.24 12.48L4.22 12.45L3.37 13.13C3.18 13.28 3.13 13.56 3.25 13.77L4.09 15.23C4.21 15.44 4.47 15.54 4.7 15.45L5.71 15.06L5.7 15.02C5.95 15.21 6.21 15.38 6.5 15.5L6.67 16.57C6.7 16.82 6.91 17 7.16 17H8.84C9.09 17 9.3 16.82 9.33 16.58L9.5 15.5ZM6 12C6 10.9 6.9 10 8 10C9.1 10 10 10.9 10 12C10 13.1 9.1 14 8 14C6.9 14 6 13.1 6 12Z" fill="black"/>
</g>
<defs>
<clipPath id="clip0_401_21354">
<rect width="24" height="24" fill="white"/>
</clipPath>
</defs>
</svg>
