<svg width="24" height="24" viewBox="0 0 24 24" fill="none" xmlns="http://www.w3.org/2000/svg">
<g clip-path="url(#clip0_401_20856)">
<path d="M13.9 11C13.44 8.72 11.42 7 9 7C6.24 7 4 9.24 4 12C4 14.76 6.24 17 9 17C11.42 17 13.44 15.28 13.9 13H18.17L16.58 14.59L18 16L22 12L18 8L16.59 9.41L18.17 11H13.9ZM9 9C10.66 9 12 10.34 12 12C12 13.66 10.66 15 9 15C7.34 15 6 13.66 6 12C6 10.34 7.34 9 9 9Z" fill="black"/>
</g>
<defs>
<clipPath id="clip0_401_20856">
<rect width="24" height="24" fill="white"/>
</clipPath>
</defs>
</svg>
