<svg width="24" height="24" viewBox="0 0 24 24" fill="none" xmlns="http://www.w3.org/2000/svg">
<g clip-path="url(#clip0_401_21494)">
<path d="M16.24 7.75C15.07 6.58 13.54 5.99 12 5.99V11.99L7.76 16.23C10.1 18.57 13.9 18.57 16.25 16.23C18.59 13.89 18.59 10.09 16.24 7.75ZM12 1.99C6.48 1.99 2 6.47 2 11.99C2 17.51 6.48 21.99 12 21.99C17.52 21.99 22 17.51 22 11.99C22 6.47 17.52 1.99 12 1.99ZM12 19.99C7.58 19.99 4 16.41 4 11.99C4 7.57 7.58 3.99 12 3.99C16.42 3.99 20 7.57 20 11.99C20 16.41 16.42 19.99 12 19.99Z" fill="black"/>
</g>
<defs>
<clipPath id="clip0_401_21494">
<rect width="24" height="24" fill="white"/>
</clipPath>
</defs>
</svg>
