<svg width="24" height="24" viewBox="0 0 24 24" fill="none" xmlns="http://www.w3.org/2000/svg">
<g clip-path="url(#clip0_401_21429)">
<path d="M19 6H18V1H6V6H5C3.9 6 3 6.9 3 8V20C3 21.1 3.9 22 5 22H19C20.1 22 21 21.1 21 20V8C21 6.9 20.1 6 19 6ZM8 3H16V6H8V3ZM19 20H5V8H19V20Z" fill="black"/>
<path d="M12 9C9.24 9 7 11.24 7 14C7 16.76 9.24 19 12 19C14.76 19 17 16.76 17 14C17 11.24 14.76 9 12 9ZM12 17.5C10.07 17.5 8.5 15.93 8.5 14C8.5 12.07 10.07 10.5 12 10.5C13.93 10.5 15.5 12.07 15.5 14C15.5 15.93 13.93 17.5 12 17.5Z" fill="black"/>
<path d="M12.5 11.5H11.5V14.21L13.14 15.85L13.85 15.14L12.5 13.79V11.5Z" fill="black"/>
</g>
<defs>
<clipPath id="clip0_401_21429">
<rect width="24" height="24" fill="white"/>
</clipPath>
</defs>
</svg>
