<svg width="24" height="24" viewBox="0 0 24 24" fill="none" xmlns="http://www.w3.org/2000/svg">
<g clip-path="url(#clip0_401_22374)">
<path d="M9 11.0001H12.63L9 15.2001V17.0001H15V15.0001H11.37L15 10.8001V9.00006H9V11.0001ZM16.056 3.34606L17.338 1.81106L21.945 5.66106L20.665 7.20106L16.056 3.34606ZM3.336 7.19006L2.056 5.65406L6.662 1.81006L7.942 3.34606L3.336 7.19006ZM12 6.00006C15.86 6.00006 19 9.14006 19 13.0001C19 16.8601 15.86 20.0001 12 20.0001C8.14 20.0001 5 16.8601 5 13.0001C5 9.14006 8.14 6.00006 12 6.00006ZM12 4.00006C7.03 4.00006 3 8.03006 3 13.0001C3 17.9701 7.03 22.0001 12 22.0001C16.97 22.0001 21 17.9701 21 13.0001C21 8.03006 16.97 4.00006 12 4.00006Z" fill="black"/>
</g>
<defs>
<clipPath id="clip0_401_22374">
<rect width="24" height="24" fill="white"/>
</clipPath>
</defs>
</svg>
