<svg width="24" height="24" viewBox="0 0 24 24" fill="none" xmlns="http://www.w3.org/2000/svg">
<g clip-path="url(#clip0_401_22033)">
<path d="M4.06999 13H2.04999C2.24999 15.01 3.04999 16.84 4.25999 18.33L5.68999 16.9C4.82999 15.79 4.24999 14.46 4.06999 13Z" fill="black"/>
<path d="M5.68999 7.10017L4.25999 5.67017C3.04999 7.16017 2.24999 8.99017 2.04999 11.0002H4.06999C4.24999 9.54017 4.82999 8.21017 5.68999 7.10017Z" fill="black"/>
<path d="M11 4.07005V2.05005C8.98998 2.25005 7.15998 3.05005 5.66998 4.26005L7.09998 5.69005C8.20998 4.83005 9.53998 4.25005 11 4.07005Z" fill="black"/>
<path d="M18.33 4.26005C16.84 3.05005 15.01 2.25005 13 2.05005V4.07005C14.46 4.25005 15.79 4.83005 16.9 5.69005L18.33 4.26005Z" fill="black"/>
<path d="M18.31 16.9L19.74 18.33C20.95 16.85 21.75 15.01 21.95 13H19.93C19.75 14.46 19.17 15.79 18.31 16.9Z" fill="black"/>
<path d="M19.93 11.0002H21.95C21.75 8.99017 20.95 7.16017 19.74 5.67017L18.31 7.10017C19.17 8.21017 19.75 9.54017 19.93 11.0002Z" fill="black"/>
<path d="M13 19.9301V21.9501C15.01 21.7501 16.84 20.9501 18.33 19.7401L16.9 18.3101C15.79 19.1701 14.46 19.7501 13 19.9301Z" fill="black"/>
<path d="M5.66998 19.7401C7.14998 20.9501 8.98998 21.7501 11 21.9501V19.9301C9.53998 19.7501 8.20998 19.1701 7.09998 18.3101L5.66998 19.7401Z" fill="black"/>
<path d="M12 17C14.7614 17 17 14.7614 17 12C17 9.23858 14.7614 7 12 7C9.23858 7 7 9.23858 7 12C7 14.7614 9.23858 17 12 17Z" fill="black"/>
</g>
<defs>
<clipPath id="clip0_401_22033">
<rect width="24" height="24" fill="white"/>
</clipPath>
</defs>
</svg>
