<svg width="24" height="24" viewBox="0 0 24 24" fill="none" xmlns="http://www.w3.org/2000/svg">
<g clip-path="url(#clip0_401_21573)">
<path d="M11 14V10C11 9.45 10.55 9 10 9H7.5C6.95 9 6.5 9.45 6.5 10V11.5C6.5 12.05 6.95 12.5 7.5 12.5H9.5V13.5H6.5V15H10C10.55 15 11 14.55 11 14ZM9.5 11.5H8V10H9.5V11.5Z" fill="black"/>
<path d="M19 3H5C3.9 3 3 3.9 3 5V19C3 20.1 3.9 21 5 21H19C20.1 21 21 20.1 21 19V5C21 3.9 20.1 3 19 3ZM19 19H5V5H19V19Z" fill="black"/>
<path d="M14.5 12.75L16.25 15H18L15.75 12L18 9H16.25L14.5 11.25V9H13V15H14.5V12.75Z" fill="black"/>
</g>
<defs>
<clipPath id="clip0_401_21573">
<rect width="24" height="24" fill="white"/>
</clipPath>
</defs>
</svg>
