<svg width="24" height="24" viewBox="0 0 24 24" fill="none" xmlns="http://www.w3.org/2000/svg">
<g clip-path="url(#clip0_401_22235)">
<path d="M12 3C11.54 3 11.07 3.04 10.6 3.14C7.84001 3.67 5.64001 5.9 5.12001 8.66C4.64001 11.27 5.60001 13.67 7.34001 15.22C7.77001 15.6 8.00001 16.13 8.00001 16.69V19C8.00001 20.1 8.90001 21 10 21H10.28C10.63 21.6 11.26 22 12 22C12.74 22 13.38 21.6 13.72 21H14C15.1 21 16 20.1 16 19V16.69C16 16.14 16.22 15.6 16.64 15.23C18.09 13.95 19 12.08 19 10C19 6.13 15.87 3 12 3ZM14 17H10V16H14V17ZM10 19V18H14V19H10ZM15.31 13.74C15.22 13.82 15.15 13.92 15.07 14H8.92001C8.84001 13.91 8.77001 13.81 8.68001 13.73C7.36001 12.55 6.77001 10.79 7.09001 9.03C7.45001 7.09 9.05001 5.48 10.98 5.1C11.32 5.03 11.66 5 12 5C14.76 5 17 7.24 17 10C17 11.43 16.39 12.79 15.31 13.74Z" fill="black"/>
<path d="M12.5 11H11.5V14H12.5V11Z" fill="black"/>
<path d="M10.3795 8.87371L9.67239 9.58081L11.7937 11.7021L12.5008 10.995L10.3795 8.87371Z" fill="black"/>
<path d="M11.501 11.0052L12.2081 11.7123L14.3294 9.59098L13.6223 8.88388L11.501 11.0052Z" fill="black"/>
</g>
<defs>
<clipPath id="clip0_401_22235">
<rect width="24" height="24" fill="white"/>
</clipPath>
</defs>
</svg>
