<svg width="24" height="24" viewBox="0 0 24 24" fill="none" xmlns="http://www.w3.org/2000/svg">
<g clip-path="url(#clip0_401_21707)">
<path d="M4 18H20C21.1 18 21.99 17.1 21.99 16L22 5C22 3.9 21.1 3 20 3H4C2.9 3 2 3.9 2 5V16C2 17.1 2.9 18 4 18ZM4 5H20V16H4V5Z" fill="black"/>
<path d="M23 19H1V21H23V19Z" fill="black"/>
<path d="M13.97 7.52994C12.6 6.15994 10.39 6.15994 9.01999 7.52994C7.64999 8.89994 7.64999 11.1099 9.01999 12.4799C10.2 13.6599 12.02 13.8199 13.38 12.9499L15.47 15.0399L16.53 13.9799L14.44 11.8899C15.31 10.5299 15.16 8.70994 13.97 7.52994ZM12.91 11.4099C12.13 12.1899 10.86 12.1899 10.08 11.4099C9.29999 10.6299 9.29999 9.35994 10.08 8.57994C10.86 7.79994 12.13 7.79994 12.91 8.57994C13.69 9.36994 13.69 10.6299 12.91 11.4099Z" fill="black"/>
</g>
<defs>
<clipPath id="clip0_401_21707">
<rect width="24" height="24" fill="white"/>
</clipPath>
</defs>
</svg>
