<svg width="24" height="24" viewBox="0 0 24 24" fill="none" xmlns="http://www.w3.org/2000/svg">
<g clip-path="url(#clip0_401_21971)">
<path d="M11.57 13.16C10.21 13.44 9.4 14.32 9.4 15.57C9.4 16.91 10.51 17.99 11.89 17.99C13.94 17.99 15.6 16.33 15.6 14.28C15.6 13.21 15.45 12.16 15.14 11.16C14.35 12.23 12.94 12.88 11.57 13.16ZM13.5 0.670044C13.5 0.670044 14.24 3.32004 14.24 5.47004C14.24 7.53004 12.89 9.20004 10.83 9.20004C8.76 9.20004 7.2 7.53004 7.2 5.47004L7.23 5.11004C5.21 7.51004 4 10.62 4 14C4 18.42 7.58 22 12 22C16.42 22 20 18.42 20 14C20 8.61004 17.41 3.80004 13.5 0.670044ZM12 20C8.69 20 6 17.31 6 14C6 12.47 6.3 10.96 6.86 9.57004C7.87 10.58 9.27 11.2 10.83 11.2C13.49 11.2 15.58 9.37004 16.11 6.77004C17.34 8.97004 18 11.44 18 14C18 17.31 15.31 20 12 20Z" fill="black"/>
</g>
<defs>
<clipPath id="clip0_401_21971">
<rect width="24" height="24" fill="white"/>
</clipPath>
</defs>
</svg>
