<svg width="24" height="24" viewBox="0 0 24 24" fill="none" xmlns="http://www.w3.org/2000/svg">
<g clip-path="url(#clip0_401_21762)">
<path d="M18.17 4.90994L17.1 3.83994L11.55 9.38994V10.4699H12.63L18.17 4.90994ZM16 2.73994L17.29 1.44994C17.4286 1.30965 17.5936 1.19827 17.7756 1.12225C17.9576 1.04623 18.1528 1.00708 18.35 1.00708C18.5472 1.00708 18.7424 1.04623 18.9244 1.12225C19.1064 1.19827 19.2714 1.30965 19.41 1.44994L20.56 2.59994C21.15 3.18994 21.15 4.13994 20.56 4.71994L19.88 5.39994L19.86 5.41994L19.28 5.99994L13.28 11.9999H10V8.73994L16 2.73994ZM13.72 2.18994L13.17 2.73994L11.9 4.00994C8.6 4.05994 6 6.60994 6 10.2099C6 12.5499 7.95 15.6499 12 19.3499C16.05 15.6499 18 12.5599 18 10.2099V10.1099L19.8 8.30994C19.93 8.90994 20 9.54994 20 10.2099C20 13.5299 17.33 17.4599 12 22.0099C6.67 17.4599 4 13.5299 4 10.2099C4 5.22994 7.8 2.00994 12 2.00994C12.58 2.00994 13.16 2.06994 13.72 2.18994Z" fill="black"/>
</g>
<defs>
<clipPath id="clip0_401_21762">
<rect width="24" height="24" fill="white"/>
</clipPath>
</defs>
</svg>
