<svg width="24" height="24" viewBox="0 0 24 24" fill="none" xmlns="http://www.w3.org/2000/svg">
<g clip-path="url(#clip0_401_22251)">
<path d="M20.31 3.69C19.99 3.36 18.37 3 16.26 3C13.23 3 9.16999 3.75 6.45999 6.46C1.86999 11.05 2.89999 19.52 3.68999 20.31C4.00999 20.64 5.62999 21 7.73998 21C10.77 21 14.83 20.25 17.54 17.54C22.13 12.95 21.1 4.48 20.31 3.69ZM7.73998 19C6.59999 19 5.71999 18.88 5.20999 18.77C5.02999 17.98 4.90999 16.56 5.03999 14.94L9.04999 18.95C8.52999 18.99 8.07999 19 7.73998 19ZM16.13 16.13C14.8 17.46 13.07 18.18 11.47 18.57L5.42999 12.53C5.84999 10.85 6.58999 9.16 7.87999 7.88C9.19999 6.56 10.93 5.84 12.52 5.45L18.57 11.5C18.15 13.17 17.4 14.85 16.13 16.13ZM18.96 9.09L14.93 5.06C15.45 5.01 15.91 5 16.26 5C17.4 5 18.28 5.12 18.79 5.23C18.97 6.02 19.09 7.45 18.96 9.09Z" fill="black"/>
<path d="M14.0999 8.49999L8.49963 14.1002L9.89969 15.5003L15.4999 9.90005L14.0999 8.49999Z" fill="black"/>
</g>
<defs>
<clipPath id="clip0_401_22251">
<rect width="24" height="24" fill="white"/>
</clipPath>
</defs>
</svg>
