<svg width="24" height="24" viewBox="0 0 24 24" fill="none" xmlns="http://www.w3.org/2000/svg">
<g clip-path="url(#clip0_401_21455)">
<path d="M10 17C10.8284 17 11.5 16.3284 11.5 15.5C11.5 14.6716 10.8284 14 10 14C9.17157 14 8.5 14.6716 8.5 15.5C8.5 16.3284 9.17157 17 10 17Z" fill="black"/>
<path d="M4 11V7.99999H11.29C11.1 7.36999 11 6.69999 11 5.99999H4.43C5.33 5.22999 7.71 4.91999 11.08 5.01999C11.18 4.31999 11.38 3.64999 11.67 3.02999C2.97 2.66999 2 5.01999 2 6.99999V16.5C2 18.43 3.57 20 5.5 20L4 21V22H16V21L14.5 20C16.43 20 18 18.43 18 16.5V13C16.09 13 14.37 12.24 13.11 11H4ZM16 16.5C16 17.33 15.33 18 14.5 18H5.5C4.67 18 4 17.33 4 16.5V13H16V16.5Z" fill="black"/>
<path d="M18 1C15.24 1 13 3.24 13 6C13 8.76 15.24 11 18 11C20.76 11 23 8.76 23 6C23 3.24 20.76 1 18 1ZM18.5 9H17.5V8H18.5V9ZM18.5 7H17.5V3H18.5V7Z" fill="black"/>
</g>
<defs>
<clipPath id="clip0_401_21455">
<rect width="24" height="24" fill="white"/>
</clipPath>
</defs>
</svg>
