<svg width="24" height="24" viewBox="0 0 24 24" fill="none" xmlns="http://www.w3.org/2000/svg">
<g clip-path="url(#clip0_401_22228)">
<path d="M16 7H15L14 6H10L9 7H8C6.9 7 6 7.9 6 9V15C6 16.1 6.9 17 8 17H16C17.1 17 18 16.1 18 15V9C18 7.9 17.1 7 16 7ZM16 15H8V9H9.83L10.83 8H13.17L14.17 9H16V15Z" fill="black"/>
<path d="M12 14C13.1046 14 14 13.1046 14 12C14 10.8954 13.1046 10 12 10C10.8954 10 10 10.8954 10 12C10 13.1046 10.8954 14 12 14Z" fill="black"/>
<path d="M8.57001 0.519963L13.05 4.99996L14.46 3.58996L12.92 2.04996C17.7 2.45996 21.53 6.23996 22 11H24C23.36 3.29996 15.79 -1.67004 8.57001 0.519963Z" fill="black"/>
<path d="M9.54 20.41L11.08 21.95C6.3 21.54 2.47 17.76 2 13H0C0.64 20.7 8.21 25.67 15.43 23.48L10.95 19L9.54 20.41Z" fill="black"/>
</g>
<defs>
<clipPath id="clip0_401_22228">
<rect width="24" height="24" fill="white"/>
</clipPath>
</defs>
</svg>
