<svg width="24" height="24" viewBox="0 0 24 24" fill="none" xmlns="http://www.w3.org/2000/svg">
<g clip-path="url(#clip0_401_21556)">
<path d="M13 13.9C15.28 13.44 17 11.42 17 9C17 6.24 14.76 4 12 4C9.24 4 7 6.24 7 9C7 11.42 8.72 13.44 11 13.9V18.17L9.41 16.58L8 18L12 22L16 18L14.59 16.59L13 18.17V13.9ZM15 9C15 10.66 13.66 12 12 12C10.34 12 9 10.66 9 9C9 7.34 10.34 6 12 6C13.66 6 15 7.34 15 9Z" fill="black"/>
</g>
<defs>
<clipPath id="clip0_401_21556">
<rect width="24" height="24" fill="white"/>
</clipPath>
</defs>
</svg>
