<svg width="24" height="24" viewBox="0 0 24 24" fill="none" xmlns="http://www.w3.org/2000/svg">
<g clip-path="url(#clip0_401_20836)">
<path d="M22 17C22 17.55 21.55 18 21 18H20.83L18.63 15.8C20.58 15.37 22 14.4 22 13C22 12 14 5 14 5H11V7H13.25L14.05 7.72L11 10L2 9L0 13L4.54 14.36L1.05 16.24C-0.77 17.22 -0.0699999 20 2 20H8C10.21 20 12 18.21 12 16H16L18 18H15V20H21C22.66 20 24 18.66 24 17H22ZM8 18H2L7.25 15.17L10 16C10 17.1 9.11 18 8 18ZM17 14H10.3L2.85 11.77L3.16 11.15L11.6 12L15.53 9.06C15.53 9.06 19.3 12.5 19.8 13.2C19.8 13.2 18.7 14 17 14Z" fill="black"/>
</g>
<defs>
<clipPath id="clip0_401_20836">
<rect width="24" height="24" fill="white"/>
</clipPath>
</defs>
</svg>
