<svg width="24" height="24" viewBox="0 0 24 24" fill="none" xmlns="http://www.w3.org/2000/svg">
<g clip-path="url(#clip0_401_21195)">
<path d="M7.31999 10.56L8.37999 9.5L7.31999 8.44L8.37999 7.38L10.5 9.5L8.37999 11.62L7.31999 10.56ZM4.49999 9C4.52999 9 4.54999 9.01 4.57999 9.01C5.76999 6.07 8.63999 4 12 4C14.19 4 16.16 4.88 17.61 6.3C17.76 5.7 18.06 5.01 18.42 4.34C16.68 2.88 14.44 2 11.99 2C7.10999 2 3.04999 5.51 2.17999 10.14C2.73999 9.44 3.58999 9 4.49999 9ZM21 10.5C20.58 10.5 20.18 10.41 19.81 10.28C19.93 10.83 20 11.41 20 12C20 16.42 16.42 20 12 20C8.63999 20 5.76999 17.93 4.57999 14.99C4.54999 14.99 4.52999 15 4.49999 15C3.97999 15 3.45999 14.86 2.99999 14.6C2.67999 14.42 2.40999 14.18 2.17999 13.9C3.06999 18.51 7.10999 22 11.98 22C17.52 22 22 17.52 22 12C22 11.45 21.94 10.91 21.86 10.38C21.58 10.45 21.3 10.5 21 10.5ZM21 3C21 3 19 5.9 19 7C19 8.1 19.9 9 21 9C22.1 9 23 8.1 23 7C23 5.9 21 3 21 3ZM15.62 7.38L13.5 9.5L15.62 11.62L16.68 10.56L15.62 9.5L16.68 8.44L15.62 7.38ZM8.55999 17C9.24999 15.81 10.53 15 12 15C13.47 15 14.75 15.81 15.44 17H17.12C16.32 14.95 14.33 13.5 12 13.5C11.13 13.5 10.3 13.7 9.56999 14.07L5.98999 12C5.98999 11.48 5.72999 10.98 5.24999 10.71C4.52999 10.3 3.61999 10.54 3.19999 11.26C2.78999 11.98 3.02999 12.89 3.74999 13.31C4.22999 13.59 4.79999 13.56 5.23999 13.31L8.20999 15.03C7.63999 15.56 7.17999 16.24 6.87999 17H8.55999Z" fill="black"/>
</g>
<defs>
<clipPath id="clip0_401_21195">
<rect width="24" height="24" fill="white"/>
</clipPath>
</defs>
</svg>
