<svg width="24" height="24" viewBox="0 0 24 24" fill="none" xmlns="http://www.w3.org/2000/svg">
<g clip-path="url(#clip0_401_20785)">
<path d="M18 6V12.26L20 13.26V6C20 4.9 19.1 4 18 4H14C14 2.62 12.88 1.5 11.5 1.5C10.12 1.5 9 2.62 9 4H5.01C3.91 4 3.01 4.9 3.01 6V9.8C5.7 9.8 6 11.96 6 12.5C6 13.04 5.71 15.2 3 15.2V19C3 20.1 3.9 21 5 21H8.8C8.8 18.84 10.17 18.22 11 18.06V16.03C9.57 16.2 7.85 17.07 7.13 19H5V16.87C7.17 16.07 8 14 8 12.5C8 11.01 7.17 8.94 5.01 8.13V6H11V4C11 3.72 11.22 3.5 11.5 3.5C11.78 3.5 12 3.72 12 4V6H18Z" fill="black"/>
<path d="M13 12V16L17 17L13 18V22L23 17L13 12Z" fill="black"/>
</g>
<defs>
<clipPath id="clip0_401_20785">
<rect width="24" height="24" fill="white"/>
</clipPath>
</defs>
</svg>
