<svg width="24" height="24" viewBox="0 0 24 24" fill="none" xmlns="http://www.w3.org/2000/svg">
<g clip-path="url(#clip0_401_21298)">
<path d="M2.81 2.81006L1.39 4.22006L3.98 6.81006C2.2 7.85006 1 9.79006 1 12.0001C1 15.3101 3.69 18.0001 7 18.0001C9.22 18.0001 11.15 16.7901 12.19 15.0001L19.78 22.6101L21.19 21.2001L2.81 2.81006ZM7 16.0001C4.79 16.0001 3 14.2101 3 12.0001C3 10.3301 4.02 8.90006 5.47 8.30006L7.18 10.0101C7.12 10.0001 7.06 10.0001 7 10.0001C5.9 10.0001 5 10.9001 5 12.0001C5 13.1001 5.9 14.0001 7 14.0001C8.1 14.0001 9 13.1001 9 12.0001C9 11.9401 9 11.8801 8.99 11.8201L10.73 13.5601C10.22 14.4801 9.14 16.0001 7 16.0001ZM17 14.1701V13.0001H15.83L17 14.1701ZM13.83 11.0001H21V13.0001H19V16.0001L21 18.0001V15.0001H23V9.00006H11.83L13.83 11.0001Z" fill="black"/>
</g>
<defs>
<clipPath id="clip0_401_21298">
<rect width="24" height="24" fill="white"/>
</clipPath>
</defs>
</svg>
