<svg width="24" height="24" viewBox="0 0 24 24" fill="none" xmlns="http://www.w3.org/2000/svg">
<g clip-path="url(#clip0_401_22262)">
<path d="M7.5 14H8.5V17H10V14H11V18.5H12.5V13.5C12.5 12.95 12.05 12.5 11.5 12.5H7C6.45 12.5 6 12.95 6 13.5V18.5H7.5V14Z" fill="black"/>
<path d="M13.5 18.5H15V17H17C17.55 17 18 16.55 18 16V13.5C18 12.95 17.55 12.5 17 12.5H13.5V18.5ZM15 14H16.5V15.5H15V14Z" fill="black"/>
<path d="M19 3H5C3.9 3 3 3.9 3 5V19C3 20.1 3.9 21 5 21H19C20.1 21 21 20.1 21 19V5C21 3.9 20.1 3 19 3ZM19 19H5V5H19V19Z" fill="black"/>
<path d="M11 11.5H13.5C14.05 11.5 14.5 11.05 14.5 10.5V9C14.5 8.45 14.05 8 13.5 8H11.5V7H14.5V5.5H11C10.45 5.5 10 5.95 10 6.5V10.5C10 11.05 10.45 11.5 11 11.5ZM11.5 9H13V10.5H11.5V9Z" fill="black"/>
</g>
<defs>
<clipPath id="clip0_401_22262">
<rect width="24" height="24" fill="white"/>
</clipPath>
</defs>
</svg>
