<svg width="24" height="24" viewBox="0 0 24 24" fill="none" xmlns="http://www.w3.org/2000/svg">
<g clip-path="url(#clip0_401_22204)">
<path d="M16.5 4.37988C17.6046 4.37988 18.5 3.48445 18.5 2.37988C18.5 1.27531 17.6046 0.379883 16.5 0.379883C15.3954 0.379883 14.5 1.27531 14.5 2.37988C14.5 3.48445 15.3954 4.37988 16.5 4.37988Z" fill="black"/>
<path d="M24 11.8799V7.17989L18.95 5.03989C17.98 4.62989 16.86 4.97989 16.3 5.87989L15.3 7.47989C14.63 8.65989 13.39 9.53989 11.89 9.79989L11.95 9.85989C12.64 10.5499 13.47 10.9299 14.41 11.0299C15.21 10.6099 15.93 10.0499 16.5 9.38989L17.1 12.3899L15.94 13.4899L15 14.3799V15.1399V21.8799H17V15.8799L19.1 13.8799L20.9 21.8799H23L20.82 10.8799L20.2 7.77989L22 8.47989V11.8799H24Z" fill="black"/>
<path d="M10.29 8.08991C10.51 8.23991 10.76 8.32991 11.01 8.37991C11.14 8.39991 11.26 8.41991 11.39 8.41991C11.52 8.41991 11.65 8.40991 11.77 8.37991C11.9 8.35991 12.02 8.31991 12.14 8.26991C12.38 8.16991 12.61 8.02991 12.8 7.82991C13.29 7.33991 13.47 6.65991 13.35 6.02991C13.28 5.65991 13.1 5.28991 12.8 4.99991C12.61 4.80991 12.38 4.65991 12.14 4.55991C12.02 4.50991 11.9 4.46991 11.77 4.44991C11.64 4.42991 11.52 4.40991 11.39 4.40991C11.27 4.40991 11.16 4.41991 11.04 4.43991C10.9 4.45991 10.76 4.49991 10.63 4.54991C10.4 4.65991 10.17 4.80991 9.97999 4.99991C9.67999 5.28991 9.49999 5.65991 9.42999 6.02991C9.30999 6.65991 9.48999 7.33991 9.97999 7.82991C10.07 7.92991 10.18 8.00991 10.29 8.08991Z" fill="black"/>
<path d="M11.24 10.56L9.23999 8.55998C9.13999 8.45998 9.03999 8.37998 8.92999 8.29998C8.70999 8.15998 8.45999 8.05998 8.20999 8.01998C8.07999 7.98998 7.95999 7.97998 7.82999 7.97998C7.31999 7.97998 6.80999 8.17998 6.41999 8.56998L3.07999 11.91C2.66999 12.32 2.45999 12.89 2.49999 13.45C2.49999 13.63 2.53999 13.82 2.60999 14L3.67999 16.95L0.0499878 20.58L1.45999 22L5.69999 17.76V15.54L6.99999 16.75V21.88H8.99999V15.88L6.87999 13.76L9.23999 11.4L9.94999 12.11C11.24 13.37 12.92 14.15 14.98 14.15L14.84 12.08C13.34 12.06 12.14 11.46 11.24 10.56Z" fill="black"/>
</g>
<defs>
<clipPath id="clip0_401_22204">
<rect width="24" height="24" fill="white"/>
</clipPath>
</defs>
</svg>
