<svg width="20" height="20" viewBox="0 0 20 20" fill="none" xmlns="http://www.w3.org/2000/svg">
<path fill-rule="evenodd" clip-rule="evenodd" d="M18.8799 8.87213H16.3799C16.3799 6.11463 14.1374 3.87213 11.3799 3.87213V1.37213C15.5161 1.37213 18.8799 4.73588 18.8799 8.87213ZM5.855 3.70488L4.63875 5.00613C4.06625 5.57863 3.75 6.34363 3.75 7.16238C3.75 7.97988 4.06625 8.74613 4.63875 9.31863L10.9325 15.6124C12.0787 16.7574 14.1012 16.7574 15.2462 15.6124L16.505 14.3561L14.7775 12.6286L14.575 12.7899C13.3925 13.9711 11.4713 13.9711 10.29 12.7899L7.4625 9.96238C6.28125 8.78113 6.28125 6.85863 7.4625 5.67738L7.645 5.49613L5.855 3.70488ZM13.09 19.0011C11.605 19.0011 10.21 18.4249 9.165 17.3799L2.87125 11.0861C1.82625 10.0411 1.25 8.64738 1.25 7.16238C1.25 5.67613 1.82625 4.28238 2.87125 3.23863L4.12875 1.97988C5.0875 1.02363 6.6875 1.00488 7.62125 1.93613L9.5325 3.84863C9.99375 4.30863 10.2175 4.97738 10.1487 5.67863C10.09 6.27738 9.82125 6.85488 9.4125 7.26363L9.23 7.44488C9.0275 7.64738 9.0275 7.99238 9.23 8.19488L12.0575 11.0224C12.26 11.2249 12.6037 11.2249 12.8075 11.0224L12.9887 10.8399C13.3975 10.4311 13.975 10.1624 14.5737 10.1036C15.2712 10.0324 15.9425 10.2586 16.4025 10.7186L18.315 12.6299C19.2487 13.5661 19.2287 15.1636 18.2737 16.1224L17.0137 17.3799C15.97 18.4249 14.5762 19.0011 13.09 19.0011Z" fill="#010616"/>
</svg>
