<svg width="48" height="48" viewBox="0 0 48 48" fill="none" xmlns="http://www.w3.org/2000/svg">
<path fill-rule="evenodd" clip-rule="evenodd" d="M31.8548 9L29.6858 4.659C29.1758 3.642 28.1378 3 27.0008 3H6.00075C4.34175 3 3.00075 4.341 3.00075 6V18C2.06175 18 1.17375 18.441 0.603753 19.191C0.0397526 19.944 -0.143247 20.919 0.114753 21.822L6.11475 42.822C6.48375 44.112 7.66275 45 9.00075 45H42.0008C45.3098 45 48.0008 42.309 48.0008 39V12C48.0008 10.341 46.6598 9 45.0008 9H31.8548ZM42.0007 39H41.2808L35.8838 20.175C35.5177 18.888 34.3387 18 33.0008 18H9.00075V9H25.1468L27.3158 13.341C27.8258 14.358 28.8638 15 30.0008 15H42.0007V39ZM6.97875 24L11.2628 39H35.0378L30.7388 24H6.97875Z" fill="#010616"/>
</svg>
