<svg width="32" height="32" viewBox="0 0 32 32" fill="none" xmlns="http://www.w3.org/2000/svg">
<path fill-rule="evenodd" clip-rule="evenodd" d="M21.2365 6L19.7905 3.106C19.4505 2.428 18.7585 2 18.0005 2H4.0005C2.8945 2 2.0005 2.894 2.0005 4V12C1.3745 12 0.782502 12.294 0.402502 12.794C0.0265017 13.296 -0.0954983 13.946 0.0765017 14.548L4.0765 28.548C4.3225 29.408 5.1085 30 6.0005 30H28.0005C30.2065 30 32.0005 28.206 32.0005 26V8C32.0005 6.894 31.1065 6 30.0005 6H21.2365ZM28.0005 26H27.5205L23.9225 13.45C23.6785 12.592 22.8925 12 22.0005 12H6.0005V6H16.7645L18.2105 8.894C18.5505 9.572 19.2425 10 20.0005 10H28.0005V26ZM4.6525 16L7.5085 26H23.3585L20.4925 16H4.6525Z" fill="#010616"/>
</svg>
