<svg width="20" height="20" viewBox="0 0 20 20" fill="none" xmlns="http://www.w3.org/2000/svg">
<path fill-rule="evenodd" clip-rule="evenodd" d="M10 2.5C8.35286 2.5 7.0125 3.84036 7.0125 5.4875C7.0125 7.13464 8.35286 8.475 10 8.475C11.6471 8.475 12.9875 7.13464 12.9875 5.4875C12.9875 3.84036 11.6471 2.5 10 2.5ZM4.5125 5.4875C4.5125 2.45964 6.97214 0 10 0C13.0279 0 15.4875 2.45964 15.4875 5.4875C15.4875 7.08059 14.8066 8.51638 13.7203 9.51939C13.9582 9.63895 14.1919 9.7701 14.421 9.91251C16.9019 11.4473 18.75 14.1997 18.75 17.5V18.75H1.25V17.5C1.25 13.9337 3.29899 10.9016 6.24627 9.48826C5.17944 8.48679 4.5125 7.06418 4.5125 5.4875ZM13.1024 12.0365C12.1438 11.4404 11.1091 11.135 10.0029 11.1375L10 11.1375C6.99529 11.1375 4.43838 13.2926 3.86842 16.25H16.1218C15.7512 14.4678 14.6084 12.968 13.105 12.0381L13.1024 12.0365Z" fill="#F57680"/>
</svg>
