<svg width="21" height="20" viewBox="0 0 21 20" fill="none" xmlns="http://www.w3.org/2000/svg">
<path fill-rule="evenodd" clip-rule="evenodd" d="M1.25239 0C0.192592 0 -0.386353 1.23607 0.292112 2.05023L6.25239 9.20256V17.5C6.25239 18.4292 7.23028 19.0336 8.06141 18.618L13.0614 16.118C13.4849 15.9063 13.7524 15.4735 13.7524 15V9.20256L19.7127 2.05023C20.3911 1.23607 19.8122 0 18.7524 0H1.25239ZM8.29147 7.94977L3.75 2.5H15.9124L11.3709 7.94977C11.1837 8.17441 11.0812 8.45758 11.0812 8.75V14.2275L8.5812 15.4775V8.75C8.5812 8.45758 8.47868 8.17441 8.29147 7.94977Z" fill="#F57680"/>
</svg>
