<svg width="20" height="20" viewBox="0 0 20 20" fill="none" xmlns="http://www.w3.org/2000/svg">
<path fill-rule="evenodd" clip-rule="evenodd" d="M11.25 3.75C11.25 4.44036 10.6904 5 10 5C9.30964 5 8.75 4.44036 8.75 3.75C8.75 3.05964 9.30964 2.5 10 2.5C10.6904 2.5 11.25 3.05964 11.25 3.75ZM11.25 10C11.25 10.6904 10.6904 11.25 10 11.25C9.30964 11.25 8.75 10.6904 8.75 10C8.75 9.30964 9.30964 8.75 10 8.75C10.6904 8.75 11.25 9.30964 11.25 10ZM10 17.5C10.6904 17.5 11.25 16.9404 11.25 16.25C11.25 15.5596 10.6904 15 10 15C9.30964 15 8.75 15.5596 8.75 16.25C8.75 16.9404 9.30964 17.5 10 17.5Z" fill="#F57680"/>
</svg>
