<svg width="16" height="16" viewBox="0 0 16 16" fill="none" xmlns="http://www.w3.org/2000/svg">
<path fill-rule="evenodd" clip-rule="evenodd" d="M10.6183 3L9.89525 1.553C9.72525 1.214 9.37925 1 9.00025 1H2.00025C1.44725 1 1.00025 1.447 1.00025 2V6C0.687251 6 0.391251 6.147 0.201251 6.397C0.0132509 6.648 -0.0477492 6.973 0.0382509 7.274L2.03825 14.274C2.16125 14.704 2.55425 15 3.00025 15H14.0003C15.1033 15 16.0003 14.103 16.0003 13V4C16.0003 3.447 15.5533 3 15.0003 3H10.6183ZM14.0003 13H13.7603L11.9613 6.725C11.8393 6.296 11.4463 6 11.0003 6H3.00025V3H8.38225L9.10525 4.447C9.27525 4.786 9.62125 5 10.0003 5H14.0003V13ZM2.32625 8L3.75425 13H11.6793L10.2463 8H2.32625Z" fill="#F57680"/>
</svg>
