<svg width="24" height="24" viewBox="0 0 24 24" fill="none" xmlns="http://www.w3.org/2000/svg">
<path d="M4 17.5L3.29289 16.7929L3 17.0858V17.5H4ZM6.5 20V21H6.91421L7.20711 20.7071L6.5 20ZM4 20H3V21H4V20ZM19 11L19.7071 11.7071L20.4142 11L19.7071 10.2929L19 11ZM20.7071 4.70711C21.0976 4.31658 21.0976 3.68342 20.7071 3.29289C20.3166 2.90237 19.6834 2.90237 19.2929 3.29289L20.7071 4.70711ZM19.2929 5.79289L20 5.08579L19.2929 5.79289ZM18.2071 4.70711L17.5 5.41421L18.2071 4.70711ZM6.5 19H4V21H6.5V19ZM5 20V17.5H3V20H5ZM16.0858 4L5.29289 14.7929L6.70711 16.2071L17.5 5.41421L16.0858 4ZM5.29289 14.7929L3.29289 16.7929L4.70711 18.2071L6.70711 16.2071L5.29289 14.7929ZM7.20711 20.7071L9.20711 18.7071L7.79289 17.2929L5.79289 19.2929L7.20711 20.7071ZM9.20711 18.7071L20 7.91421L18.5858 6.5L7.79289 17.2929L9.20711 18.7071ZM5.29289 16.2071L7.79289 18.7071L9.20711 17.2929L6.70711 14.7929L5.29289 16.2071ZM14.0429 7.45711L18.2929 11.7071L19.7071 10.2929L15.4571 6.04289L14.0429 7.45711ZM18.2929 10.2929L14.2929 14.2929L15.7071 15.7071L19.7071 11.7071L18.2929 10.2929ZM20 5.08579L19.4571 4.54289L18.0429 5.95711L18.5858 6.5L20 5.08579ZM19.4571 4.54289L18.9142 4L17.5 5.41421L18.0429 5.95711L19.4571 4.54289ZM19.4571 5.95711L20.7071 4.70711L19.2929 3.29289L18.0429 4.54289L19.4571 5.95711ZM20 7.91421C20.781 7.13317 20.781 5.86684 20 5.08579L18.5858 6.5L18.5858 6.5L20 7.91421ZM17.5 5.41421L17.5 5.41421L18.9142 4C18.1332 3.21895 16.8668 3.21895 16.0858 4L17.5 5.41421Z" fill="black"/>
</svg>
