<svg width="24" height="24" viewBox="0 0 24 24" fill="none" xmlns="http://www.w3.org/2000/svg">
<path d="M2 22L22 16M2 16L22 22" stroke="black" stroke-width="2" stroke-linecap="round"/>
<path d="M8.48916 7.21488L8.48917 7.21489C8.64262 7.31733 8.80741 7.37097 8.96029 7.39021C9.99524 7.52046 10.8785 7.22057 11.5683 6.64297C12.2285 6.09007 12.6671 5.32277 12.9558 4.55586C13.3133 3.60625 13.4863 2.53551 13.5174 1.57256C15.5153 2.70301 18 5.16587 18 9.4C18 12.4382 15.37 15 12 15C8.63004 15 6 12.4382 6 9.4C6 7.98934 6.56057 6.68868 7.5015 5.69457C7.51653 5.74994 7.53246 5.80426 7.54932 5.85751C7.71501 6.38074 7.99942 6.88793 8.48916 7.21488Z" stroke="black" stroke-width="2"/>
</svg>
