<svg width="24" height="24" viewBox="0 0 24 24" fill="none" xmlns="http://www.w3.org/2000/svg">
<path d="M4.33333 11L5.88604 6.34189C5.95409 6.13772 6.14516 6 6.36038 6H17.6396C17.8548 6 18.0459 6.13771 18.114 6.34189L19.6667 11M4.33333 11L4 12V19.8C4 19.9105 4.08954 20 4.2 20H4.8C4.91046 20 5 19.9105 5 19.8V18H19V19.8C19 19.9105 19.0895 20 19.2 20H19.8C19.9105 20 20 19.9105 20 19.8V12L19.6667 11M4.33333 11H19.6667" stroke="black" stroke-width="2"/>
<path d="M9 14.5C9 15.3284 8.32843 16 7.5 16C6.67157 16 6 15.3284 6 14.5C6 13.6716 6.67157 13 7.5 13C8.32843 13 9 13.6716 9 14.5Z" fill="black"/>
<path d="M18 14.5C18 15.3284 17.3284 16 16.5 16C15.6716 16 15 15.3284 15 14.5C15 13.6716 15.6716 13 16.5 13C17.3284 13 18 13.6716 18 14.5Z" fill="black"/>
</svg>
