<svg width="24" height="24" viewBox="0 0 24 24" fill="none" xmlns="http://www.w3.org/2000/svg">
<g clip-path="url(#clip0_548_863)">
<path d="M18.5 15L19.2071 14.2929L18.5 13.5858L17.7929 14.2929L18.5 15ZM18 15.5L17.2929 14.7929C17.0069 15.0789 16.9213 15.509 17.0761 15.8827C17.2309 16.2564 17.5955 16.5 18 16.5V15.5ZM12.5 2V1V2ZM9.86389 9.63611L9.15678 8.929L9.86389 9.63611ZM16.0076 9.9154L15.8432 8.929L16.0076 9.9154ZM15.1361 9.63611L15.8432 8.929L15.1361 9.63611ZM20.6956 2.85071L20.5212 3.83538L20.6956 2.85071ZM19.7071 14.7929L19.2071 14.2929L17.7929 15.7071L18.2929 16.2071L19.7071 14.7929ZM19.7071 22.2071C21.7545 20.1597 21.7545 16.8403 19.7071 14.7929L18.2929 16.2071C19.5592 17.4734 19.5592 19.5266 18.2929 20.7929L19.7071 22.2071ZM12.2929 22.7071C14.484 24.8982 17.821 24.0932 19.7071 22.2071L18.2929 20.7929C16.8653 22.2205 14.8297 22.4155 13.7071 21.2929L12.2929 22.7071ZM19 14.5H18V16.5H19V14.5ZM18.7071 16.2071L19.2071 15.7071L17.7929 14.2929L17.2929 14.7929L18.7071 16.2071ZM19.3628 8.3424L15.8432 8.929L16.172 10.9018L19.6916 10.3152L19.3628 8.3424ZM9.15678 8.929L5.63719 8.3424L5.30839 10.3152L8.82798 10.9018L9.15678 8.929ZM4.47881 3.83538C6.04555 3.55782 9.56887 3 12.5 3V1C9.38119 1 5.71076 1.58599 4.12992 1.86605L4.47881 3.83538ZM12.5 3C15.4311 3 18.9544 3.55782 20.5212 3.83538L20.8701 1.86605C19.2892 1.58599 15.6188 1 12.5 1V3ZM13.5 7V2H11.5V7H13.5ZM11.7929 6.29289L9.29289 8.79289L10.7071 10.2071L13.2071 7.70711L11.7929 6.29289ZM9.29289 8.79289L9.15678 8.929L10.571 10.3432L10.7071 10.2071L9.29289 8.79289ZM9.29289 10.2071L11.0858 12L12.5 10.5858L10.7071 8.79289L9.29289 10.2071ZM15.8432 8.929L15.7071 8.79289L14.2929 10.2071L14.429 10.3432L15.8432 8.929ZM15.7071 8.79289L13.2071 6.29289L11.7929 7.70711L14.2929 10.2071L15.7071 8.79289ZM13.9142 12L15.7071 10.2071L14.2929 8.79289L12.5 10.5858L13.9142 12ZM0.292893 10.7071L12.2929 22.7071L13.7071 21.2929L1.70711 9.29289L0.292893 10.7071ZM20.5 3.8198V5H22.5V3.8198H20.5ZM21.5 6H21.9V4H21.5V6ZM21 5.1V6.9H23V5.1H21ZM20.5 5V7H22.5V5H20.5ZM21.9 6H21.5V8H21.9V6ZM2.5 3.8198V5H4.5V3.8198H2.5ZM3.5 4H3.1V6H3.5V4ZM2 5.1V6.9H4V5.1H2ZM2.5 5V7H4.5V5H2.5ZM3.1 8H3.5V6H3.1V8ZM2 6.9C2 7.50751 2.49249 8 3.1 8V6C3.59706 6 4 6.40294 4 6.9H2ZM21 6.9C21 6.40294 21.4029 6 21.9 6V8C22.5075 8 23 7.50751 23 6.9H21ZM11.0858 12C11.8668 12.7811 13.1332 12.781 13.9142 12L12.5 10.5858H12.5L11.0858 12ZM3.1 4C2.49249 4 2 4.49249 2 5.1H4C4 5.59706 3.59706 6 3.1 6V4ZM4.12992 1.86605C3.17111 2.03591 2.5 2.87031 2.5 3.8198H4.5C4.5 3.81826 4.50019 3.81873 4.49964 3.82025C4.4992 3.82146 4.49841 3.82302 4.49693 3.82481C4.49543 3.82663 4.4929 3.82904 4.48906 3.83131C4.48483 3.8338 4.48086 3.83502 4.47881 3.83538L4.12992 1.86605ZM8.82798 10.9018C9.4651 11.008 10.1143 10.7999 10.571 10.3432L9.15678 8.929V8.929L8.82798 10.9018ZM21.9 6C21.4029 6 21 5.59706 21 5.1H23C23 4.49249 22.5075 4 21.9 4V6ZM15.8432 8.929L14.429 10.3432C14.8857 10.7999 15.5349 11.008 16.172 10.9018L15.8432 8.929ZM19.6916 10.3152C21.3122 10.0451 22.5 8.64295 22.5 7H20.5C20.5 7.66527 20.019 8.23303 19.3628 8.3424L19.6916 10.3152ZM5.63719 8.3424C4.98097 8.23303 4.5 7.66527 4.5 7H2.5C2.5 8.64295 3.68779 10.0451 5.30839 10.3152L5.63719 8.3424ZM20.5212 3.83538C20.5191 3.83502 20.5152 3.8338 20.5109 3.83131C20.5071 3.82904 20.5046 3.82663 20.5031 3.82481C20.5016 3.82302 20.5008 3.82146 20.5004 3.82025C20.4998 3.81873 20.5 3.81826 20.5 3.8198H22.5C22.5 2.87031 21.8289 2.03591 20.8701 1.86605L20.5212 3.83538Z" fill="black"/>
</g>
<defs>
<clipPath id="clip0_548_863">
<rect width="24" height="24" fill="white"/>
</clipPath>
</defs>
</svg>
