<svg width="24" height="24" viewBox="0 0 24 24" fill="none" xmlns="http://www.w3.org/2000/svg">
<path d="M3.0602 9.14987L3.49719 9.00588L3.67214 8.58033C5.01913 5.30394 8.24169 3 12 3C15.7583 3 18.9809 5.30394 20.3279 8.58033L20.5028 9.00588L20.9398 9.14987C22.1375 9.54451 23 10.6728 23 12C23 13.3272 22.1375 14.4555 20.9398 14.8501L20.5028 14.9941L20.3279 15.4197C18.9809 18.6961 15.7583 21 12 21C8.24169 21 5.01913 18.6961 3.67214 15.4197L3.49719 14.9941L3.0602 14.8501C1.86246 14.4555 1 13.3272 1 12C1 10.6728 1.86246 9.54451 3.0602 9.14987Z" stroke="black" stroke-width="2"/>
<path d="M7 14C7.99804 15.7934 9.86346 17 12 17C14.1365 17 16.002 15.7934 17 14" stroke="black" stroke-width="2"/>
<path d="M9 11C8.44772 11 8 10.5523 8 10C8 9.44772 8.44772 9 9 9C9.55228 9 10 9.44772 10 10C10 10.5523 9.55228 11 9 11ZM15 11C14.4477 11 14 10.5523 14 10C14 9.44772 14.4477 9 15 9C15.5523 9 16 9.44772 16 10C16 10.5523 15.5523 11 15 11Z" stroke="black" stroke-width="2"/>
</svg>
