<svg width="24" height="24" viewBox="0 0 24 24" fill="none" xmlns="http://www.w3.org/2000/svg">
<path d="M5 5C5 4.44772 5.44772 4 6 4H12C12.5523 4 13 4.44772 13 5V20H5V5Z" stroke="black" stroke-width="2"/>
<path d="M6 13L10 6V11H12L8 18V13H6Z" fill="black"/>
<path d="M19.4142 7.58579C18.6331 6.80474 17.3668 6.80474 16.5858 7.58579C16.1952 7.97631 16 8.48815 16 9C16 9.51184 16.1952 10.0237 16.5858 10.4142C17.3668 11.1953 18.6331 11.1953 19.4142 10.4142C19.8047 10.0237 20 9.51184 20 9M19.4142 7.58579L15.8284 4M19.4142 7.58579C19.8047 7.97631 20 8.48815 20 9M20 9L20 18.5C20 19.6046 19.1045 20.5 18 20.5C16.8954 20.5 16 19.6046 16 18.5L16 14C16 13.4477 15.5523 13 15 13H13" stroke="black" stroke-width="1.5"/>
</svg>
