<svg width="24" height="24" viewBox="0 0 24 24" fill="none" xmlns="http://www.w3.org/2000/svg">
<path d="M12 8L4.00005 8.00001C3.44776 8.00001 3.00005 8.44772 3.00005 9L3 21C3 21.5523 3.44772 22 4 22H12M12 8L20 8C20.5523 8 21 8.44772 21 9V21C21 21.5523 20.5523 22 20 22H12M12 8L12 22" stroke="black" stroke-width="2"/>
<path d="M12.8787 7.12132C14.0503 8.29289 15.9497 8.29289 17.1213 7.12132C18.2929 5.94975 18.2929 4.05025 17.1213 2.87868C15.9497 1.70711 14.0503 1.70711 12.8787 2.87868C11.7071 4.05025 11.7071 5.94975 12.8787 7.12132ZM12.8787 7.12132L18 12.2426M11.1213 7.12132C9.94975 8.29289 8.05025 8.29289 6.87868 7.12132C5.70711 5.94975 5.70711 4.05025 6.87868 2.87868C8.05025 1.70711 9.94975 1.70711 11.1213 2.87868C12.2929 4.05025 12.2929 5.94975 11.1213 7.12132ZM11.1213 7.12132L6 12.2426" stroke="black" stroke-width="2"/>
</svg>
