<svg width="24" height="24" viewBox="0 0 24 24" fill="none" xmlns="http://www.w3.org/2000/svg">
<path d="M10.3521 13.2222C10.3521 13.7745 10.7999 14.2222 11.3521 14.2222C11.9044 14.2222 12.3521 13.7745 12.3521 13.2222H10.3521ZM8.30285 14.6889L7.42619 15.17C7.64588 15.5703 8.10885 15.771 8.55118 15.6576C8.99352 15.5442 9.30285 15.1455 9.30285 14.6889H8.30285ZM13.4014 13.7111C13.4014 14.2634 13.8491 14.7111 14.4014 14.7111C14.9537 14.7111 15.4014 14.2634 15.4014 13.7111H13.4014ZM16.4507 14.2C16.4507 14.7523 16.8984 15.2 17.4507 15.2C18.003 15.2 18.4507 14.7523 18.4507 14.2H16.4507ZM20.3421 15.8868L19.366 15.6694L19.3624 15.6854L19.3594 15.7016L20.3421 15.8868ZM19.1475 22.2271L20.1236 22.4445L20.1272 22.4284L20.1302 22.4122L19.1475 22.2271ZM8.02749 22.4408L7.11221 22.8436L7.12087 22.8633L7.13036 22.8826L8.02749 22.4408ZM3.62853 12.4452L4.54382 12.0424L4.54088 12.0357L4.53785 12.0291L3.62853 12.4452ZM6.34317 11.118L7.21983 10.6369L7.20964 10.6183L7.19868 10.6002L6.34317 11.118ZM9.30285 2.46667C9.30285 2.24512 9.50085 2 9.82749 2V0C8.47007 0 7.30285 1.06818 7.30285 2.46667H9.30285ZM9.82749 2C10.1541 2 10.3521 2.24512 10.3521 2.46667H12.3521C12.3521 1.06818 11.1849 0 9.82749 0V2ZM10.3521 2.46667V8.82222H12.3521V2.46667H10.3521ZM10.3521 8.82222V13.2222H12.3521V8.82222H10.3521ZM7.30285 2.46667V14.6889H9.30285V2.46667H7.30285ZM12.3521 8.82222C12.3521 8.60068 12.5501 8.35556 12.8768 8.35556V6.35556C11.5194 6.35556 10.3521 7.42373 10.3521 8.82222H12.3521ZM12.8768 8.35556C13.2034 8.35556 13.4014 8.60068 13.4014 8.82222H15.4014C15.4014 7.42373 14.2342 6.35556 12.8768 6.35556V8.35556ZM15.4014 9.8C15.4014 9.57845 15.5994 9.33333 15.9261 9.33333V7.33333C14.5686 7.33333 13.4014 8.40151 13.4014 9.8H15.4014ZM15.9261 9.33333C16.2527 9.33333 16.4507 9.57845 16.4507 9.8H18.4507C18.4507 8.40151 17.2835 7.33333 15.9261 7.33333V9.33333ZM18.4507 11.2655C18.4507 11.044 18.6487 10.7989 18.9754 10.7989V8.79886C17.6179 8.79886 16.4507 9.86704 16.4507 11.2655H18.4507ZM18.9754 10.7989C19.302 10.7989 19.5 11.044 19.5 11.2655H21.5C21.5 9.86704 20.3328 8.79886 18.9754 8.79886V10.7989ZM13.4014 8.82222V9.8H15.4014V8.82222H13.4014ZM13.4014 9.8V13.7111H15.4014V9.8H13.4014ZM16.4507 9.8V11.2655H18.4507V9.8H16.4507ZM16.4507 11.2655V14.2H18.4507V11.2655H16.4507ZM19.5 11.2655V14.4527H21.5V11.2655H19.5ZM19.3594 15.7016L18.1648 22.0419L20.1302 22.4122L21.3248 16.0719L19.3594 15.7016ZM18.1537 22H8.94608V24H18.1537V22ZM8.94278 22.038L4.54382 12.0424L2.71325 12.848L7.11221 22.8436L8.94278 22.038ZM8.94608 22C8.93473 22 8.92679 21.9969 8.92254 21.9943C8.91842 21.9918 8.92122 21.9921 8.92463 21.999L7.13036 22.8826C7.47354 23.5795 8.18779 24 8.94608 24V22ZM19.5 14.4527C19.5 14.8615 19.4551 15.2693 19.366 15.6694L21.3181 16.1042C21.439 15.5616 21.5 15.008 21.5 14.4527H19.5ZM18.1714 22.0097C18.1727 22.0039 18.175 21.9989 18.1772 21.9956C18.1791 21.9926 18.1801 21.9922 18.1788 21.9932C18.1759 21.9954 18.1679 22 18.1537 22V24C19.0759 24 19.9159 23.3772 20.1236 22.4445L18.1714 22.0097ZM4.5 11.8549C4.5 11.6333 4.698 11.3882 5.02464 11.3882V9.38822C3.66722 9.38822 2.5 10.4564 2.5 11.8549H4.5ZM5.02464 11.3882C5.23573 11.3882 5.40374 11.4971 5.48766 11.6358L7.19868 10.6002C6.75432 9.86601 5.93917 9.38822 5.02464 9.38822V11.3882ZM5.46651 11.5991L7.42619 15.17L9.17951 14.2078L7.21983 10.6369L5.46651 11.5991ZM4.53785 12.0291C4.51341 11.9757 4.5 11.9176 4.5 11.8549H2.5C2.5 12.2122 2.57836 12.5535 2.71921 12.8613L4.53785 12.0291Z" fill="black"/>
</svg>
