<svg width="24" height="24" viewBox="0 0 24 24" fill="none" xmlns="http://www.w3.org/2000/svg">
<path d="M9.72579 2V1H8.72579V2H9.72579ZM14.2742 2H15.2742V1H14.2742V2ZM14.2742 22V23H15.2742V22H14.2742ZM9.72579 22H8.72579V23H9.72579V22ZM2 8.92451L1.13905 8.41581L0.620067 9.29417L1.50865 9.79547L2 8.92451ZM4.27421 5.0755L4.76557 4.20454L3.91188 3.72293L3.41327 4.56681L4.27421 5.0755ZM22 15.0755L22.8609 15.5842L23.3799 14.7058L22.4913 14.2045L22 15.0755ZM19.7257 18.9245L19.2344 19.7955L20.0881 20.2771L20.5867 19.4332L19.7257 18.9245ZM19.7258 5.07549L20.5867 4.5668L20.0881 3.72292L19.2344 4.20453L19.7258 5.07549ZM22 8.9245L22.4914 9.79546L23.3799 9.29416L22.8609 8.4158L22 8.9245ZM4.27426 18.9245L3.41332 19.4332L3.91193 20.2771L4.76562 19.7955L4.27426 18.9245ZM2.00005 15.0755L1.5087 14.2045L0.620115 14.7058L1.1391 15.5842L2.00005 15.0755ZM9.72579 8.15102L9.23443 9.02198C9.54405 9.19665 9.92312 9.19382 10.2301 9.01454C10.5371 8.83527 10.7258 8.50651 10.7258 8.15102H9.72579ZM14.2742 8.15101H13.2742C13.2742 8.50649 13.4629 8.83526 13.7699 9.01453C14.0769 9.19381 14.456 9.19664 14.7656 9.02197L14.2742 8.15101ZM16.5484 12L16.0571 11.1291C15.7428 11.3063 15.5484 11.6392 15.5484 12C15.5484 12.3608 15.7428 12.6937 16.0571 12.871L16.5484 12ZM7.45156 12L7.94292 12.871C8.25718 12.6937 8.45156 12.3608 8.45156 12C8.45156 11.6392 8.25718 11.3063 7.94292 11.1291L7.45156 12ZM9.72579 15.849H10.7258C10.7258 15.4935 10.5371 15.1648 10.2301 14.9855C9.92312 14.8062 9.54405 14.8034 9.23443 14.9781L9.72579 15.849ZM14.2742 15.849L14.7656 14.9781C14.456 14.8034 14.0769 14.8062 13.7699 14.9855C13.4629 15.1648 13.2742 15.4935 13.2742 15.849H14.2742ZM9.72579 3H14.2742V1H9.72579V3ZM14.2742 21H9.72579V23H14.2742V21ZM2.86095 9.4332L5.13516 5.5842L3.41327 4.56681L1.13905 8.41581L2.86095 9.4332ZM21.139 14.5668L18.8648 18.4158L20.5867 19.4332L22.8609 15.5842L21.139 14.5668ZM18.8648 5.58419L21.1391 9.43319L22.8609 8.4158L20.5867 4.5668L18.8648 5.58419ZM5.13521 18.4158L2.86099 14.5668L1.1391 15.5842L3.41332 19.4332L5.13521 18.4158ZM3.78286 5.94646L9.23443 9.02198L10.2171 7.28006L4.76557 4.20454L3.78286 5.94646ZM10.7258 8.15102V2H8.72579V8.15102H10.7258ZM14.7656 9.02197L20.2171 5.94645L19.2344 4.20453L13.7829 7.28005L14.7656 9.02197ZM13.2742 2V8.15101H15.2742V2H13.2742ZM16.0571 12.871L21.5086 15.9465L22.4913 14.2045L17.0398 11.1291L16.0571 12.871ZM21.5086 8.05354L16.0571 11.1291L17.0398 12.871L22.4914 9.79546L21.5086 8.05354ZM2.4914 15.9465L7.94292 12.871L6.96021 11.1291L1.5087 14.2045L2.4914 15.9465ZM7.94292 11.1291L2.49135 8.05355L1.50865 9.79547L6.96021 12.871L7.94292 11.1291ZM9.23443 14.9781L3.78291 18.0535L4.76562 19.7955L10.2171 16.72L9.23443 14.9781ZM10.7258 22V15.849H8.72579V22H10.7258ZM20.2171 18.0535L14.7656 14.9781L13.7829 16.72L19.2344 19.7955L20.2171 18.0535ZM13.2742 15.849V22H15.2742V15.849H13.2742Z" fill="black"/>
</svg>
