<svg width="24" height="24" viewBox="0 0 24 24" fill="none" xmlns="http://www.w3.org/2000/svg">
<path d="M10 10.3414L10.3332 11.2843L11 11.0486V10.3414H10ZM10 3.5H11V3.08579L10.7071 2.79289L10 3.5ZM8.5 2V1C8.09554 1 7.7309 1.24364 7.57612 1.61732C7.42134 1.99099 7.5069 2.42111 7.79289 2.70711L8.5 2ZM14 10.3414H13V11.0486L13.6668 11.2843L14 10.3414ZM14 3.5L13.2929 2.79289L13 3.08579V3.5H14ZM15.5 2L16.2071 2.70711C16.4931 2.42111 16.5787 1.99099 16.4239 1.61732C16.2691 1.24364 15.9045 1 15.5 1V2ZM17 16C17 18.7614 14.7614 21 12 21V23C15.866 23 19 19.866 19 16H17ZM12 21C9.23858 21 7 18.7614 7 16H5C5 19.866 8.13401 23 12 23V21ZM7 16C7 13.8245 8.38991 11.9711 10.3332 11.2843L9.66675 9.39857C6.94932 10.359 5 12.9506 5 16H7ZM11 10.3414V3.5H9V10.3414H11ZM10.7071 2.79289L9.20711 1.29289L7.79289 2.70711L9.29289 4.20711L10.7071 2.79289ZM13.6668 11.2843C15.6101 11.9711 17 13.8245 17 16H19C19 12.9506 17.0507 10.359 14.3332 9.39857L13.6668 11.2843ZM15 10.3414V3.5H13V10.3414H15ZM14.7071 4.20711L16.2071 2.70711L14.7929 1.29289L13.2929 2.79289L14.7071 4.20711ZM15.5 1H8.5V3H15.5V1Z" fill="black"/>
<path d="M16 16C16 18.2091 14.2091 20 12 20C9.79086 20 8 18.2091 8 16C10.2091 16 16 16 16 16Z" fill="black"/>
</svg>
