<svg width="24" height="24" viewBox="0 0 24 24" fill="none" xmlns="http://www.w3.org/2000/svg">
<mask id="mask0_548_833" style="mask-type:alpha" maskUnits="userSpaceOnUse" x="0" y="0" width="24" height="23">
<path d="M13.5 12H6L0 23V0H24V23H13.5V12Z" fill="white"/>
</mask>
<g mask="url(#mask0_548_833)">
<path d="M15.8137 9.32635L15.4427 8.40939L15.8137 9.32635C16.3331 9.11621 16.9018 9 17.5 9C19.9853 9 22 11.0147 22 13.5C22 15.9853 19.9853 18 17.5 18H8.5C4.91015 18 2 15.0899 2 11.5C2 7.91015 4.91015 5 8.5 5C11.1125 5 13.367 6.54123 14.4001 8.76837C14.6481 9.30288 15.2709 9.54592 15.8137 9.32635Z" stroke="black" stroke-width="2"/>
</g>
<path d="M11 18.4211C11 19.8454 9.88071 21 8.5 21C7.11929 21 6 19.8454 6 18.4211C6 16.9967 8.5 14 8.5 14C8.5 14 11 16.9967 11 18.4211Z" stroke="black" stroke-width="2"/>
</svg>
