<svg width="24" height="24" viewBox="0 0 24 24" fill="none" xmlns="http://www.w3.org/2000/svg">
<path d="M9 6.5C9 7.88071 7.88071 9 6.5 9C5.11929 9 4 7.88071 4 6.5C4 5.11929 5.11929 4 6.5 4C7.88071 4 9 5.11929 9 6.5ZM9 17.5C9 18.8807 7.88071 20 6.5 20C5.11929 20 4 18.8807 4 17.5C4 16.1193 5.11929 15 6.5 15C7.88071 15 9 16.1193 9 17.5Z" stroke="black" stroke-width="2"/>
<path fill-rule="evenodd" clip-rule="evenodd" d="M8.29297 7.70718L12.5859 12.0001L8.29297 16.293L9.70718 17.7072L14.7072 12.7072L15.4143 12.0001L14.7072 11.293L9.70718 6.29297L8.29297 7.70718ZM14.25 12.75C14.6642 12.75 15 12.4142 15 12C15 11.5858 14.6642 11.2501 14.25 11.2501C13.8358 11.2501 13.5001 11.5858 13.5001 12C13.5001 12.4142 13.8358 12.75 14.25 12.75Z" fill="black"/>
<path fill-rule="evenodd" clip-rule="evenodd" d="M22 6L17.4142 10.5858L16 12L17.4142 13.4142L22 18L23 19V20H22H21.1716H21H20L13 13V11L20 4H21H21.1716H22H23V5L22 6ZM14.25 12.7499C14.6642 12.7499 14.9999 12.4142 14.9999 12C14.9999 11.5858 14.6642 11.25 14.25 11.25C13.8358 11.25 13.5 11.5858 13.5 12C13.5 12.4142 13.8358 12.7499 14.25 12.7499Z" fill="black"/>
</svg>
