<svg width="24" height="24" viewBox="0 0 24 24" fill="none" xmlns="http://www.w3.org/2000/svg">
<path d="M20 5H4.00003C3.44775 5 3.00003 5.44771 3.00003 5.99999L3 10C4.10457 10 5 10.8954 5 12C5 13.1046 4.10457 14 3 14L3.00003 18C3.00003 18.5523 3.44775 19 4.00003 19H20C20.5523 19 21 18.5523 21 18V14C19.8954 14 19 13.1046 19 12C19 10.8954 19.8954 10 21 10V6C21 5.44772 20.5523 5 20 5Z" stroke="black" stroke-width="2"/>
<path d="M13.1665 11.5236L13.3997 11.5452L13.2238 11.6997C12.8663 12.0138 12.709 12.498 12.8136 12.9622L13.7891 12.7424L12.8136 12.9622L12.8651 13.1907L12.6637 13.0711C12.2546 12.8282 11.7454 12.8282 11.3363 13.0711L11.1349 13.1907L11.1864 12.9622C11.291 12.498 11.1337 12.0138 10.7762 11.6997L10.6003 11.5452L10.8335 11.5236C11.3073 11.4796 11.7192 11.1804 11.9074 10.7433L10.9889 10.3478L11.9074 10.7433L12 10.5283L12.0926 10.7433C12.2808 11.1804 12.6927 11.4796 13.1665 11.5236Z" stroke="black" stroke-width="2" stroke-linecap="round" stroke-linejoin="round"/>
</svg>
