<svg width="24" height="24" viewBox="0 0 24 24" fill="none" xmlns="http://www.w3.org/2000/svg">
<path d="M20 12L20.5303 12.5303C20.7448 12.3158 20.809 11.9932 20.6929 11.713C20.5768 11.4327 20.3033 11.25 20 11.25V12ZM4 11.25C3.58579 11.25 3.25 11.5858 3.25 12C3.25 12.4142 3.58579 12.75 4 12.75L4 11.25ZM16.4697 9.53033C16.7626 9.82322 17.2374 9.82322 17.5303 9.53033C17.8232 9.23744 17.8232 8.76256 17.5303 8.46967L16.4697 9.53033ZM14.5303 5.46967C14.2374 5.17678 13.7626 5.17678 13.4697 5.46967C13.1768 5.76256 13.1768 6.23744 13.4697 6.53033L14.5303 5.46967ZM13.4698 17.4697C13.1769 17.7626 13.1769 18.2374 13.4698 18.5303C13.7627 18.8232 14.2376 18.8232 14.5305 18.5303L13.4698 17.4697ZM20 11.25L4 11.25L4 12.75L20 12.75V11.25ZM17.5303 8.46967L14.5303 5.46967L13.4697 6.53033L16.4697 9.53033L17.5303 8.46967ZM14.5305 18.5303L20.5303 12.5303L19.4697 11.4697L13.4698 17.4697L14.5305 18.5303Z" fill="#001A72"/>
</svg>
