<svg width="24" height="24" viewBox="0 0 24 24" fill="none" xmlns="http://www.w3.org/2000/svg">
<path d="M20.3875 15.5303C20.6803 15.2374 20.6803 14.7626 20.3875 14.4697C20.0946 14.1768 19.6197 14.1768 19.3268 14.4697L20.3875 15.5303ZM13.6572 21.1999L13.1269 21.7302C13.4198 22.0231 13.8947 22.0231 14.1876 21.7302L13.6572 21.1999ZM11.5303 18.0124C11.2374 17.7196 10.7625 17.7196 10.4697 18.0125C10.1768 18.3054 10.1768 18.7802 10.4697 19.0731L11.5303 18.0124ZM15 11.75C15.4142 11.75 15.75 11.4142 15.75 11C15.75 10.5858 15.4142 10.25 15 10.25V11.75ZM4 10.25C3.58579 10.25 3.25 10.5858 3.25 11C3.25 11.4142 3.58579 11.75 4 11.75V10.25ZM9.75 3C9.75 2.58579 9.41421 2.25 9 2.25C8.58579 2.25 8.25 2.58579 8.25 3H9.75ZM8.25 7C8.25 7.41421 8.58579 7.75 9 7.75C9.41421 7.75 9.75 7.41421 9.75 7H8.25ZM9 4.25C8.58579 4.25 8.25 4.58579 8.25 5C8.25 5.41421 8.58579 5.75 9 5.75V4.25ZM12 5.75C12.4142 5.75 12.75 5.41421 12.75 5C12.75 4.58579 12.4142 4.25 12 4.25V5.75ZM15 4.25C14.5858 4.25 14.25 4.58579 14.25 5C14.25 5.41421 14.5858 5.75 15 5.75V4.25ZM19.25 9C19.25 9.41421 19.5858 9.75 20 9.75C20.4142 9.75 20.75 9.41421 20.75 9H19.25ZM6 5.75C6.41421 5.75 6.75 5.41421 6.75 5C6.75 4.58579 6.41421 4.25 6 4.25V5.75ZM8 21.75C8.41421 21.75 8.75 21.4142 8.75 21C8.75 20.5858 8.41421 20.25 8 20.25V21.75ZM19.3268 14.4697L13.1269 20.6696L14.1876 21.7302L20.3875 15.5303L19.3268 14.4697ZM10.4697 19.0731L13.1269 21.7302L14.1875 20.6695L11.5303 18.0124L10.4697 19.0731ZM15 10.25H4V11.75H15V10.25ZM8.25 3V7H9.75V3H8.25ZM9 5.75H12V4.25H9V5.75ZM18 5.75C18.6904 5.75 19.25 6.30964 19.25 7H20.75C20.75 5.48122 19.5188 4.25 18 4.25V5.75ZM18 4.25H15V5.75H18V4.25ZM19.25 7V9H20.75V7H19.25ZM4.75 19V7H3.25V19H4.75ZM6 20.25C5.30964 20.25 4.75 19.6904 4.75 19H3.25C3.25 20.5188 4.48122 21.75 6 21.75V20.25ZM6 4.25C4.48122 4.25 3.25 5.48122 3.25 7H4.75C4.75 6.30964 5.30964 5.75 6 5.75V4.25ZM6 21.75H8V20.25H6V21.75Z" fill="#001A72"/>
</svg>
