<svg width="24" height="24" viewBox="0 0 24 24" fill="none" xmlns="http://www.w3.org/2000/svg">
<path d="M20.25 9C20.25 9.41421 20.5858 9.75 21 9.75C21.4142 9.75 21.75 9.41421 21.75 9H20.25ZM10 4.25C9.58579 4.25 9.25 4.58579 9.25 5C9.25 5.41421 9.58579 5.75 10 5.75V4.25ZM21.75 13C21.75 12.5858 21.4142 12.25 21 12.25C20.5858 12.25 20.25 12.5858 20.25 13H21.75ZM20.25 16C20.25 16.4142 20.5858 16.75 21 16.75C21.4142 16.75 21.75 16.4142 21.75 16H20.25ZM3.53033 2.46967C3.23744 2.17678 2.76256 2.17678 2.46967 2.46967C2.17678 2.76256 2.17678 3.23744 2.46967 3.53033L3.53033 2.46967ZM20.4697 21.5303C20.7626 21.8232 21.2374 21.8232 21.5303 21.5303C21.8232 21.2374 21.8232 20.7626 21.5303 20.4697L20.4697 21.5303ZM11.5757 16.7262C11.9873 16.7726 12.3586 16.4766 12.4051 16.065C12.4515 15.6534 12.1555 15.2821 11.7439 15.2357L11.5757 16.7262ZM9.76555 13.2667C9.71715 12.8553 9.34443 12.561 8.93305 12.6094C8.52168 12.6578 8.22743 13.0306 8.27583 13.4419L9.76555 13.2667ZM3.75 9C3.75 8.58579 3.41421 8.25 3 8.25C2.58579 8.25 2.25 8.58579 2.25 9H3.75ZM5 19.75C5.41421 19.75 5.75 19.4142 5.75 19C5.75 18.5858 5.41421 18.25 5 18.25V19.75ZM14 19.75C14.4142 19.75 14.75 19.4142 14.75 19C14.75 18.5858 14.4142 18.25 14 18.25V19.75ZM9 18.25C8.58579 18.25 8.25 18.5858 8.25 19C8.25 19.4142 8.58579 19.75 9 19.75V18.25ZM16.5 7.75H19V6.25H16.5V7.75ZM14.75 6C14.75 6.9665 15.5335 7.75 16.5 7.75V6.25C16.3619 6.25 16.25 6.13807 16.25 6H14.75ZM16.25 6C16.25 5.0335 15.4665 4.25 14.5 4.25V5.75C14.6381 5.75 14.75 5.86193 14.75 6H16.25ZM21.75 9C21.75 7.48122 20.5188 6.25 19 6.25V7.75C19.6904 7.75 20.25 8.30964 20.25 9H21.75ZM10 5.75H14.5V4.25H10V5.75ZM20.25 13V16H21.75V13H20.25ZM2.46967 3.53033L20.4697 21.5303L21.5303 20.4697L3.53033 2.46967L2.46967 3.53033ZM11.7439 15.2357C10.7101 15.119 9.88703 14.2991 9.76555 13.2667L8.27583 13.4419C8.47871 15.1663 9.84893 16.5313 11.5757 16.7262L11.7439 15.2357ZM3.75 17V9H2.25V17H3.75ZM5 18.25C4.30964 18.25 3.75 17.6904 3.75 17H2.25C2.25 18.5188 3.48122 19.75 5 19.75V18.25ZM14 18.25H9V19.75H14V18.25Z" fill="#001A72"/>
</svg>
