<svg width="24" height="24" viewBox="0 0 24 24" fill="none" xmlns="http://www.w3.org/2000/svg">
<path d="M21.75 12C21.75 11.5858 21.4142 11.25 21 11.25C20.5858 11.25 20.25 11.5858 20.25 12H21.75ZM18.1495 6.50019C18.4257 6.80883 18.8999 6.8351 19.2085 6.55885C19.5172 6.28261 19.5434 5.80846 19.2672 5.49981L18.1495 6.50019ZM7 11.25C6.58579 11.25 6.25 11.5858 6.25 12C6.25 12.4142 6.58579 12.75 7 12.75V11.25ZM12 20.25C7.44365 20.25 3.75 16.5563 3.75 12H2.25C2.25 17.3848 6.61522 21.75 12 21.75V20.25ZM3.75 12C3.75 7.44365 7.44365 3.75 12 3.75V2.25C6.61522 2.25 2.25 6.61522 2.25 12H3.75ZM20.25 12C20.25 14.2784 19.3274 16.3399 17.8336 17.8336L18.8943 18.8943C20.6579 17.1307 21.75 14.6922 21.75 12H20.25ZM17.8336 17.8336C16.3399 19.3274 14.2784 20.25 12 20.25V21.75C14.6922 21.75 17.1307 20.6579 18.8943 18.8943L17.8336 17.8336ZM12 3.75C14.4433 3.75 16.6378 4.81118 18.1495 6.50019L19.2672 5.49981C17.483 3.50633 14.8877 2.25 12 2.25V3.75ZM11.25 3V12H12.75V3H11.25ZM12 11.25H7V12.75H12V11.25ZM11.4697 12.5303L17.8336 18.8943L18.8943 17.8336L12.5303 11.4697L11.4697 12.5303Z" fill="#001A72"/>
</svg>
