<svg width="24" height="24" viewBox="0 0 24 24" fill="none" xmlns="http://www.w3.org/2000/svg">
<path d="M8.96967 13.0303C9.26256 13.3232 9.73744 13.3232 10.0303 13.0303C10.3232 12.7374 10.3232 12.2626 10.0303 11.9697L8.96967 13.0303ZM7.53033 9.46967C7.23744 9.17678 6.76256 9.17678 6.46967 9.46967C6.17678 9.76256 6.17678 10.2374 6.46967 10.5303L7.53033 9.46967ZM17.5303 10.5303C17.8232 10.2374 17.8232 9.76256 17.5303 9.46967C17.2374 9.17678 16.7626 9.17678 16.4697 9.46967L17.5303 10.5303ZM11.4697 14.4697C11.1768 14.7626 11.1768 15.2374 11.4697 15.5303C11.7626 15.8232 12.2374 15.8232 12.5303 15.5303L11.4697 14.4697ZM10.0303 11.9697L7.53033 9.46967L6.46967 10.5303L8.96967 13.0303L10.0303 11.9697ZM16.4697 9.46967L11.4697 14.4697L12.5303 15.5303L17.5303 10.5303L16.4697 9.46967Z" fill="#001A72"/>
</svg>
