<svg width="24" height="24" viewBox="0 0 24 24" fill="none" xmlns="http://www.w3.org/2000/svg">
<path d="M12 4.25C11.5858 4.25 11.25 4.58579 11.25 5C11.25 5.41421 11.5858 5.75 12 5.75V4.25ZM16.25 11C16.25 11.4142 16.5858 11.75 17 11.75C17.4142 11.75 17.75 11.4142 17.75 11H16.25ZM17 18.25C16.5858 18.25 16.25 18.5858 16.25 19C16.25 19.4142 16.5858 19.75 17 19.75V18.25ZM8.59966 7.45046C8.84844 7.11928 8.78164 6.64913 8.45046 6.40034C8.11928 6.15156 7.64913 6.21836 7.40034 6.54954L8.59966 7.45046ZM20.1421 11.4377C19.8316 11.1636 19.3576 11.1931 19.0835 11.5037C18.8094 11.8143 18.839 12.2882 19.1495 12.5623L20.1421 11.4377ZM7 19.75C7.41421 19.75 7.75 19.4142 7.75 19C7.75 18.5858 7.41421 18.25 7 18.25V19.75ZM9.14952 12.5623C9.46008 12.8364 9.93403 12.8069 10.2081 12.4963C10.4822 12.1857 10.4527 11.7118 10.1421 11.4377L9.14952 12.5623ZM12 5.75C14.3472 5.75 16.25 7.65279 16.25 10H17.75C17.75 6.82436 15.1756 4.25 12 4.25V5.75ZM16.25 10V11H17.75V10H16.25ZM20.25 15C20.25 16.7949 18.7949 18.25 17 18.25V19.75C19.6234 19.75 21.75 17.6234 21.75 15H20.25ZM6.25 10V11H7.75V10H6.25ZM7.75 10C7.75 9.04244 8.06602 8.16084 8.59966 7.45046L7.40034 6.54954C6.67844 7.51054 6.25 8.70619 6.25 10H7.75ZM19.1495 12.5623C19.8255 13.1589 20.25 14.0294 20.25 15H21.75C21.75 13.5812 21.127 12.307 20.1421 11.4377L19.1495 12.5623ZM7 18.25C5.20507 18.25 3.75 16.7949 3.75 15H2.25C2.25 17.6234 4.37665 19.75 7 19.75V18.25ZM3.75 15C3.75 13.2051 5.20507 11.75 7 11.75V10.25C4.37665 10.25 2.25 12.3766 2.25 15H3.75ZM7 11.75C7.82475 11.75 8.57615 12.0562 9.14952 12.5623L10.1421 11.4377C9.30523 10.699 8.20414 10.25 7 10.25V11.75Z" fill="#001A72"/>
</svg>
