<svg width="24" height="24" viewBox="0 0 24 24" fill="none" xmlns="http://www.w3.org/2000/svg">
<path d="M18.417 6.81445C18.6775 7.13645 19.1498 7.18625 19.4718 6.92569C19.7938 6.66513 19.8436 6.19288 19.583 5.87088L18.417 6.81445ZM3.89229 17.4172C4.1227 17.7614 4.58853 17.8537 4.93274 17.6233C5.27696 17.3928 5.36922 16.927 5.13881 16.5828L3.89229 17.4172ZM21.75 12C21.75 11.5858 21.4142 11.25 21 11.25C20.5858 11.25 20.25 11.5858 20.25 12H21.75ZM9.28155 19.7919C8.89045 19.6554 8.4628 19.8619 8.32637 20.253C8.18993 20.6441 8.39638 21.0717 8.78748 21.2081L9.28155 19.7919ZM9 15.25C8.58579 15.25 8.25 15.5858 8.25 16C8.25 16.4142 8.58579 16.75 9 16.75V15.25ZM15 8.75C15.4142 8.75 15.75 8.41421 15.75 8C15.75 7.58579 15.4142 7.25 15 7.25V8.75ZM11.25 18C11.25 18.4142 11.5858 18.75 12 18.75C12.4142 18.75 12.75 18.4142 12.75 18H11.25ZM12.75 6C12.75 5.58579 12.4142 5.25 12 5.25C11.5858 5.25 11.25 5.58579 11.25 6H12.75ZM3.75 12C3.75 7.44365 7.44365 3.75 12 3.75V2.25C6.61522 2.25 2.25 6.61522 2.25 12H3.75ZM12 3.75C14.5913 3.75 16.9033 4.94386 18.417 6.81445L19.583 5.87088C17.7968 3.66347 15.0632 2.25 12 2.25V3.75ZM5.13881 16.5828C4.26158 15.2723 3.75 13.697 3.75 12H2.25C2.25 14.0033 2.85496 15.8675 3.89229 17.4172L5.13881 16.5828ZM20.25 12C20.25 16.5563 16.5564 20.25 12 20.25V21.75C17.3848 21.75 21.75 17.3848 21.75 12H20.25ZM12 20.25C11.0462 20.25 10.1318 20.0885 9.28155 19.7919L8.78748 21.2081C9.79438 21.5594 10.8757 21.75 12 21.75V20.25ZM11 7.25C10.5466 7.25 9.88332 7.37984 9.31177 7.79135C8.70198 8.2304 8.25 8.95556 8.25 10H9.75C9.75 9.44444 9.96468 9.1696 10.1882 9.00865C10.45 8.82016 10.7867 8.75 11 8.75V7.25ZM8.25 10C8.25 11.0444 8.70198 11.7696 9.31177 12.2087C9.88332 12.6202 10.5466 12.75 11 12.75V11.25C10.7867 11.25 10.45 11.1798 10.1882 10.9913C9.96468 10.8304 9.75 10.5556 9.75 10H8.25ZM11 12.75H13V11.25H11V12.75ZM13 12.75C13.2133 12.75 13.55 12.8202 13.8118 13.0087C14.0353 13.1696 14.25 13.4444 14.25 14H15.75C15.75 12.9556 15.298 12.2304 14.6882 11.7913C14.1167 11.3798 13.4534 11.25 13 11.25V12.75ZM14.25 14C14.25 14.5556 14.0353 14.8304 13.8118 14.9913C13.55 15.1798 13.2133 15.25 13 15.25V16.75C13.4534 16.75 14.1167 16.6202 14.6882 16.2087C15.298 15.7696 15.75 15.0444 15.75 14H14.25ZM13 15.25H12V16.75H13V15.25ZM12 15.25H9V16.75H12V15.25ZM15 7.25H12V8.75H15V7.25ZM12 7.25H11V8.75H12V7.25ZM11.25 16V18H12.75V16H11.25ZM12.75 8V6H11.25V8H12.75Z" fill="#001A72"/>
</svg>
