<svg width="24" height="24" viewBox="0 0 24 24" fill="none" xmlns="http://www.w3.org/2000/svg">
<path d="M12 15.75C12.4142 15.75 12.75 15.4142 12.75 15C12.75 14.5858 12.4142 14.25 12 14.25V15.75ZM9 18H9.75H9ZM6 21V20.25V21ZM3 18H2.25H3ZM6 15V15.75H6L6 15ZM18 15V14.25V15ZM21 18H20.25H21ZM18 21V21.75V21ZM15 18H15.75H15ZM18 8.25C17.5858 8.25 17.25 8.58579 17.25 9C17.25 9.41421 17.5858 9.75 18 9.75V8.25ZM8.25 6C8.25 6.41421 8.58579 6.75 9 6.75C9.41421 6.75 9.75 6.41421 9.75 6H8.25ZM9 9.75H15V8.25H9V9.75ZM14.25 9V15H15.75V9H14.25ZM9.75 15V9H8.25V15H9.75ZM12 14.25H9V15.75H12V14.25ZM8.25 18C8.25 19.2426 7.24264 20.25 6 20.25V21.75C8.07107 21.75 9.75 20.0711 9.75 18H8.25ZM6 20.25C4.75736 20.25 3.75 19.2426 3.75 18H2.25C2.25 20.0711 3.92893 21.75 6 21.75V20.25ZM3.75 18C3.75 16.7574 4.75736 15.75 6 15.75V14.25C3.92893 14.25 2.25 15.9289 2.25 18H3.75ZM6 15.75L9 15.75L9 14.25L6 14.25L6 15.75ZM9.75 18V15H8.25V18H9.75ZM18 15.75C19.2426 15.75 20.25 16.7574 20.25 18H21.75C21.75 15.9289 20.0711 14.25 18 14.25V15.75ZM20.25 18C20.25 19.2426 19.2426 20.25 18 20.25V21.75C20.0711 21.75 21.75 20.0711 21.75 18H20.25ZM18 20.25C16.7574 20.25 15.75 19.2426 15.75 18H14.25C14.25 20.0711 15.9289 21.75 18 21.75V20.25ZM15.75 18V15H14.25V18H15.75ZM18 14.25H15V15.75H18V14.25ZM15.75 6C15.75 4.75736 16.7574 3.75 18 3.75V2.25C15.9289 2.25 14.25 3.92893 14.25 6H15.75ZM18 3.75C19.2426 3.75 20.25 4.75736 20.25 6H21.75C21.75 3.92893 20.0711 2.25 18 2.25V3.75ZM20.25 6C20.25 7.24264 19.2426 8.25 18 8.25V9.75C20.0711 9.75 21.75 8.07107 21.75 6H20.25ZM14.25 6V9H15.75V6H14.25ZM6 8.25C4.75736 8.25 3.75 7.24264 3.75 6H2.25C2.25 8.07107 3.92893 9.75 6 9.75V8.25ZM3.75 6C3.75 4.75736 4.75736 3.75 6 3.75V2.25C3.92893 2.25 2.25 3.92893 2.25 6H3.75ZM6 3.75C7.24264 3.75 8.25 4.75736 8.25 6H9.75C9.75 3.92893 8.07107 2.25 6 2.25V3.75ZM6 9.75H9V8.25H6V9.75Z" fill="#001A72"/>
</svg>
