<svg width="24" height="24" viewBox="0 0 24 24" fill="none" xmlns="http://www.w3.org/2000/svg">
<path d="M4 5L4.53033 4.46967C4.31583 4.25517 3.99324 4.191 3.71299 4.30709C3.43273 4.42318 3.25 4.69665 3.25 5H4ZM4 16H3.25C3.25 16.4142 3.58579 16.75 4 16.75V16ZM20 16V16.75C20.4142 16.75 20.75 16.4142 20.75 16H20ZM20 5H20.75C20.75 4.69665 20.5673 4.42318 20.287 4.30709C20.0068 4.191 19.6842 4.25517 19.4697 4.46967L20 5ZM15.4697 8.46967C15.1768 8.76256 15.1768 9.23744 15.4697 9.53033C15.7626 9.82322 16.2374 9.82322 16.5303 9.53033L15.4697 8.46967ZM5.46967 7.53033C5.76256 7.82322 6.23744 7.82322 6.53033 7.53033C6.82322 7.23744 6.82322 6.76256 6.53033 6.46967L5.46967 7.53033ZM7.46967 8.46967C7.17678 8.76256 7.17678 9.23744 7.46967 9.53033C7.76256 9.82322 8.23744 9.82322 8.53033 9.53033L7.46967 8.46967ZM12 5L12.5303 4.46967C12.2374 4.17678 11.7626 4.17678 11.4697 4.46967L12 5ZM13.4697 7.53033C13.7626 7.82322 14.2374 7.82322 14.5303 7.53033C14.8232 7.23744 14.8232 6.76256 14.5303 6.46967L13.4697 7.53033ZM4 18.25C3.58579 18.25 3.25 18.5858 3.25 19C3.25 19.4142 3.58579 19.75 4 19.75V18.25ZM20 19.75C20.4142 19.75 20.75 19.4142 20.75 19C20.75 18.5858 20.4142 18.25 20 18.25V19.75ZM3.25 5V16H4.75V5H3.25ZM4 16.75H20V15.25H4V16.75ZM20.75 16V5H19.25V16H20.75ZM19.4697 4.46967L15.4697 8.46967L16.5303 9.53033L20.5303 5.53033L19.4697 4.46967ZM3.46967 5.53033L5.46967 7.53033L6.53033 6.46967L4.53033 4.46967L3.46967 5.53033ZM8.53033 9.53033L12.5303 5.53033L11.4697 4.46967L7.46967 8.46967L8.53033 9.53033ZM11.4697 5.53033L13.4697 7.53033L14.5303 6.46967L12.5303 4.46967L11.4697 5.53033ZM4 19.75H20V18.25H4V19.75Z" fill="#001A72"/>
</svg>
