<svg width="24" height="24" viewBox="0 0 24 24" fill="none" xmlns="http://www.w3.org/2000/svg">
<path d="M8 5.25C7.58579 5.25 7.25 5.58579 7.25 6C7.25 6.41421 7.58579 6.75 8 6.75V5.25ZM8 18L7.46967 18.5303C7.61032 18.671 7.80109 18.75 8 18.75V18ZM2 12L1.46967 11.4697C1.17678 11.7626 1.17678 12.2374 1.46967 12.5303L2 12ZM5.53033 9.53033C5.82322 9.23744 5.82322 8.76256 5.53033 8.46967C5.23744 8.17678 4.76256 8.17678 4.46967 8.46967L5.53033 9.53033ZM16.5303 9.53033C16.8232 9.23744 16.8232 8.76256 16.5303 8.46967C16.2374 8.17678 15.7626 8.17678 15.4697 8.46967L16.5303 9.53033ZM9.46967 14.4697C9.17678 14.7626 9.17678 15.2374 9.46967 15.5303C9.76256 15.8232 10.2374 15.8232 10.5303 15.5303L9.46967 14.4697ZM10.5306 8.46967C10.2377 8.17678 9.7628 8.17678 9.46991 8.46967C9.17701 8.76256 9.17701 9.23744 9.46991 9.53033L10.5306 8.46967ZM15.4699 15.5303C15.7628 15.8232 16.2377 15.8232 16.5306 15.5303C16.8235 15.2374 16.8235 14.7626 16.5306 14.4697L15.4699 15.5303ZM8 6.75H19V5.25H8V6.75ZM19.25 7V17H20.75V7H19.25ZM19 17.25H8V18.75H19V17.25ZM8.53033 17.4697L2.53033 11.4697L1.46967 12.5303L7.46967 18.5303L8.53033 17.4697ZM19.25 17C19.25 17.1381 19.1381 17.25 19 17.25V18.75C19.9665 18.75 20.75 17.9665 20.75 17H19.25ZM19 6.75C19.1381 6.75 19.25 6.86193 19.25 7H20.75C20.75 6.0335 19.9665 5.25 19 5.25V6.75ZM2.53033 12.5303L5.53033 9.53033L4.46967 8.46967L1.46967 11.4697L2.53033 12.5303ZM15.4697 8.46967L12.4698 11.4695L13.5304 12.5302L16.5303 9.53033L15.4697 8.46967ZM12.4698 11.4695L9.46967 14.4697L10.5303 15.5303L13.5304 12.5302L12.4698 11.4695ZM9.46991 9.53033L12.4698 12.5302L13.5304 11.4695L10.5306 8.46967L9.46991 9.53033ZM12.4698 12.5302L15.4699 15.5303L16.5306 14.4697L13.5304 11.4695L12.4698 12.5302Z" fill="#001A72"/>
</svg>
