<svg width="24" height="24" viewBox="0 0 24 24" fill="none" xmlns="http://www.w3.org/2000/svg">
<path d="M5 20.0802H4.25C4.25 20.4944 4.58579 20.8302 5 20.8302V20.0802ZM19 20.0802V20.8302C19.4142 20.8302 19.75 20.4944 19.75 20.0802H19ZM19.75 14C19.75 13.5858 19.4142 13.25 19 13.25C18.5858 13.25 18.25 13.5858 18.25 14H19.75ZM4 10.0802H3.25C3.25 10.4944 3.58579 10.8302 4 10.8302V10.0802ZM4 7.0802V6.3302C3.58579 6.3302 3.25 6.66599 3.25 7.0802H4ZM20 7.0802H20.75C20.75 6.66599 20.4142 6.3302 20 6.3302V7.0802ZM20 10.0802V10.8302C20.4142 10.8302 20.75 10.4944 20.75 10.0802H20ZM12 7.0802L11.9501 7.82854C11.9833 7.83075 12.0167 7.83075 12.0499 7.82854L12 7.0802ZM5 20.8302H19V19.3302H5V20.8302ZM4.25 10.0802V20.0802H5.75V10.0802H4.25ZM19.75 20.0802V14H18.25V20.0802H19.75ZM5 9.3302H4V10.8302H5V9.3302ZM4.75 10.0802V7.0802H3.25V10.0802H4.75ZM4 7.8302H20V6.3302H4V7.8302ZM19.25 7.0802V10.0802H20.75V7.0802H19.25ZM12.6828 7.39055C13.0881 6.49886 13.7934 5.22245 14.5928 4.42302C14.9952 4.02063 15.3474 3.81451 15.6273 3.76323C15.8477 3.72283 16.1175 3.75848 16.4695 4.11053L17.5302 3.04987C16.8823 2.40192 16.1312 2.14591 15.3569 2.2878C14.642 2.41881 14.0255 2.86894 13.5321 3.36238C12.5399 4.35461 11.7452 5.82821 11.3172 6.76985L12.6828 7.39055ZM16.4695 4.11053C16.659 4.29995 16.7204 4.43143 16.7392 4.49898C16.754 4.55188 16.7512 4.59129 16.7273 4.64564C16.6566 4.80664 16.4048 5.06564 15.8473 5.34925C14.7763 5.89416 13.133 6.253 11.9501 6.33186L12.0499 7.82854C13.367 7.74073 15.2236 7.34958 16.5275 6.68616C17.1576 6.3656 17.812 5.90584 18.1006 5.24913C18.2564 4.89464 18.2966 4.50045 18.1844 4.09697C18.0762 3.70814 17.8408 3.36045 17.5302 3.04987L16.4695 4.11053ZM12.6828 6.76985C12.2548 5.8282 11.4601 4.3546 10.4678 3.36237C9.97438 2.86893 9.35793 2.41881 8.64298 2.2878C7.86869 2.14591 7.11761 2.40192 6.46966 3.04987L7.53032 4.11053C7.88236 3.75848 8.15212 3.72282 8.37262 3.76323C8.65247 3.81451 9.00477 4.02064 9.40716 4.42303C10.2066 5.22247 10.9119 6.49887 11.3172 7.39055L12.6828 6.76985ZM6.46966 3.04987C6.15907 3.36046 5.92367 3.70815 5.81551 4.09698C5.70327 4.50047 5.74351 4.89466 5.89931 5.24915C6.18793 5.90586 6.84234 6.3656 7.4724 6.68616C8.77637 7.34958 10.633 7.74073 11.9501 7.82854L12.0499 6.33186C10.867 6.253 9.22363 5.89416 8.15259 5.34924C7.59514 5.06563 7.3433 4.80663 7.27254 4.64563C7.24865 4.59127 7.24592 4.55186 7.26064 4.49897C7.27943 4.43142 7.3409 4.29995 7.53032 4.11053L6.46966 3.04987ZM20 9.3302H5V10.8302H20V9.3302Z" fill="#001A72"/>
</svg>
