<svg width="24" height="24" viewBox="0 0 24 24" fill="none" xmlns="http://www.w3.org/2000/svg">
<path d="M3 12V11.25H2.25V12H3ZM4.73283 5.49981C4.45658 5.80846 4.48285 6.28261 4.79149 6.55885C5.10014 6.8351 5.57429 6.80883 5.85053 6.50019L4.73283 5.49981ZM16.75 12C16.75 11.5858 16.4142 11.25 16 11.25C15.5858 11.25 15.25 11.5858 15.25 12H16.75ZM14.6438 8.24112C14.777 8.63335 15.2029 8.84335 15.5951 8.71018C15.9873 8.57701 16.1973 8.1511 16.0642 7.75888L14.6438 8.24112ZM20.25 12C20.25 16.5563 16.5563 20.25 12 20.25V21.75C17.3848 21.75 21.75 17.3848 21.75 12H20.25ZM12 20.25C7.44365 20.25 3.75 16.5563 3.75 12H2.25C2.25 17.3848 6.61522 21.75 12 21.75V20.25ZM12 3.75C16.5563 3.75 20.25 7.44365 20.25 12H21.75C21.75 6.61522 17.3848 2.25 12 2.25V3.75ZM5.85053 6.50019C7.36224 4.81118 9.5567 3.75 12 3.75V2.25C9.1123 2.25 6.51705 3.50633 4.73283 5.49981L5.85053 6.50019ZM15.25 12C15.25 14.8243 14.3106 16.9319 13.376 18.334C12.9077 19.0364 12.4407 19.5611 12.0947 19.9072C11.9218 20.08 11.7798 20.2076 11.6838 20.2899C11.6358 20.3311 11.5994 20.3608 11.5764 20.3792C11.5649 20.3884 11.5568 20.3947 11.5523 20.3982C11.5501 20.3999 11.5488 20.4009 11.5484 20.4012C11.5482 20.4014 11.5482 20.4014 11.5485 20.4012C11.5486 20.401 11.5488 20.4009 11.5491 20.4007C11.5492 20.4006 11.5494 20.4004 11.5495 20.4004C11.5497 20.4002 11.55 20.4 12 21C12.45 21.6 12.4503 21.5998 12.4506 21.5995C12.4507 21.5994 12.4511 21.5992 12.4513 21.599C12.4518 21.5986 12.4524 21.5982 12.453 21.5977C12.4542 21.5968 12.4557 21.5957 12.4574 21.5944C12.4609 21.5918 12.4653 21.5884 12.4706 21.5843C12.4813 21.576 12.4956 21.5648 12.5134 21.5505C12.5491 21.522 12.5986 21.4814 12.66 21.4288C12.7827 21.3236 12.9532 21.17 13.1553 20.9678C13.5593 20.5639 14.0923 19.9636 14.624 19.166C15.6894 17.5681 16.75 15.1757 16.75 12H15.25ZM12 21C12.45 20.4 12.4503 20.4002 12.4505 20.4004C12.4506 20.4004 12.4508 20.4006 12.4509 20.4007C12.4512 20.4009 12.4514 20.401 12.4515 20.4012C12.4518 20.4014 12.4518 20.4014 12.4516 20.4012C12.4512 20.4009 12.4499 20.3999 12.4477 20.3982C12.4432 20.3947 12.4351 20.3884 12.4236 20.3792C12.4006 20.3608 12.3642 20.3311 12.3162 20.2899C12.2202 20.2076 12.0782 20.08 11.9053 19.9072C11.5593 19.5611 11.0923 19.0364 10.624 18.334C9.68935 16.9319 8.75 14.8243 8.75 12H7.25C7.25 15.1757 8.31065 17.5681 9.37596 19.166C9.90766 19.9636 10.4407 20.5639 10.8447 20.9678C11.0468 21.17 11.2173 21.3236 11.34 21.4288C11.4014 21.4814 11.4509 21.522 11.4866 21.5505C11.5044 21.5648 11.5187 21.576 11.5294 21.5843C11.5347 21.5884 11.5391 21.5918 11.5426 21.5944C11.5443 21.5957 11.5458 21.5968 11.547 21.5977C11.5476 21.5982 11.5482 21.5986 11.5487 21.599C11.5489 21.5992 11.5493 21.5994 11.5494 21.5995C11.5497 21.5998 11.55 21.6 12 21ZM8.75 12C8.75 9.17573 9.68935 7.06805 10.624 5.66603C11.0923 4.96357 11.5593 4.43885 11.9053 4.09283C12.0782 3.92001 12.2202 3.79238 12.3162 3.71007C12.3642 3.66893 12.4006 3.63917 12.4236 3.62081C12.4351 3.61163 12.4432 3.6053 12.4477 3.60183C12.4499 3.6001 12.4512 3.59908 12.4516 3.59877C12.4518 3.59862 12.4518 3.59864 12.4515 3.59885C12.4514 3.59895 12.4512 3.5991 12.4509 3.59929C12.4508 3.59939 12.4506 3.59956 12.4505 3.59961C12.4503 3.5998 12.45 3.6 12 3C11.55 2.4 11.5497 2.40022 11.5494 2.40046C11.5493 2.40055 11.5489 2.4008 11.5487 2.40098C11.5482 2.40136 11.5476 2.40178 11.547 2.40225C11.5458 2.40319 11.5443 2.40431 11.5426 2.40562C11.5391 2.40825 11.5347 2.41162 11.5294 2.41575C11.5187 2.42399 11.5044 2.43525 11.4866 2.4495C11.4509 2.47802 11.4014 2.51857 11.34 2.57118C11.2173 2.67637 11.0468 2.82999 10.8447 3.03217C10.4407 3.43615 9.90766 4.03643 9.37596 4.83397C8.31065 6.43195 7.25 8.82427 7.25 12H8.75ZM12 3C11.55 3.6 11.5498 3.59985 11.5496 3.5997C11.5496 3.59966 11.5494 3.59953 11.5493 3.59945C11.549 3.59929 11.5489 3.59915 11.5487 3.59904C11.5484 3.59882 11.5483 3.5987 11.5482 3.59868C11.5482 3.59863 11.5487 3.59899 11.5496 3.59974C11.5516 3.60124 11.5556 3.60433 11.5615 3.609C11.5734 3.61836 11.5931 3.63405 11.6197 3.65607C11.673 3.70013 11.754 3.76945 11.8566 3.86396C12.0618 4.05315 12.3521 4.34235 12.6773 4.73119C13.3284 5.5096 14.1137 6.68 14.6438 8.24112L16.0642 7.75888C15.4624 5.98666 14.5708 4.65706 13.8279 3.76881C13.4561 3.32431 13.12 2.98852 12.8732 2.76104C12.7497 2.64722 12.6484 2.56028 12.5757 2.50018C12.5393 2.47012 12.5102 2.44675 12.4889 2.43006C12.4783 2.42171 12.4697 2.41504 12.4632 2.41003C12.4599 2.40752 12.4572 2.40544 12.455 2.40376C12.4539 2.40293 12.4529 2.4022 12.4521 2.40157C12.4517 2.40126 12.4513 2.40097 12.4509 2.40071C12.4508 2.40058 12.4505 2.4004 12.4504 2.40033C12.4502 2.40016 12.45 2.4 12 3ZM21 11.25H3V12.75H21V11.25Z" fill="#001A72"/>
</svg>
