<svg width="24" height="24" viewBox="0 0 24 24" fill="none" xmlns="http://www.w3.org/2000/svg">
<path d="M3 21H2.25C2.25 21.4142 2.58579 21.75 3 21.75V21ZM6 13.25C5.58579 13.25 5.25 13.5858 5.25 14C5.25 14.4142 5.58579 14.75 6 14.75V13.25ZM18 21.75C18.4142 21.75 18.75 21.4142 18.75 21C18.75 20.5858 18.4142 20.25 18 20.25V21.75ZM20.25 21C20.25 21.4142 20.5858 21.75 21 21.75C21.4142 21.75 21.75 21.4142 21.75 21H20.25ZM7.25 16V19H8.75V16H7.25ZM6 20.25H3V21.75H6V20.25ZM7.25 19C7.25 19.6904 6.69036 20.25 6 20.25V21.75C7.51878 21.75 8.75 20.5188 8.75 19H7.25ZM6 14.75C6.69036 14.75 7.25 15.3096 7.25 16H8.75C8.75 14.4812 7.51878 13.25 6 13.25V14.75ZM16.75 19V16H15.25V19H16.75ZM18 14.75H21V13.25H18V14.75ZM16.75 16C16.75 15.3096 17.3096 14.75 18 14.75V13.25C16.4812 13.25 15.25 14.4812 15.25 16H16.75ZM18 20.25C17.3096 20.25 16.75 19.6904 16.75 19H15.25C15.25 20.5188 16.4812 21.75 18 21.75V20.25ZM3.75 12C3.75 7.44365 7.44365 3.75 12 3.75V2.25C6.61522 2.25 2.25 6.61522 2.25 12H3.75ZM12 3.75C16.5563 3.75 20.25 7.44365 20.25 12H21.75C21.75 6.61522 17.3848 2.25 12 2.25V3.75ZM20.25 12V14H21.75V12H20.25ZM20.25 14V21H21.75V14H20.25ZM2.25 12V21H3.75V12H2.25Z" fill="#001A72"/>
</svg>
