<svg width="24" height="24" viewBox="0 0 24 24" fill="none" xmlns="http://www.w3.org/2000/svg">
<path d="M8.46967 19.4697C8.17678 19.7626 8.17678 20.2374 8.46967 20.5303C8.76256 20.8232 9.23744 20.8232 9.53033 20.5303L8.46967 19.4697ZM14.4697 20.5303C14.7626 20.8232 15.2374 20.8232 15.5303 20.5303C15.8232 20.2374 15.8232 19.7626 15.5303 19.4697L14.4697 20.5303ZM12 7L11.4697 7.53033C11.7626 7.82322 12.2374 7.82322 12.5303 7.53033L12 7ZM9.53033 3.46967C9.23744 3.17678 8.76256 3.17678 8.46967 3.46967C8.17678 3.76256 8.17678 4.23744 8.46967 4.53033L9.53033 3.46967ZM15.5303 4.53033C15.8232 4.23744 15.8232 3.76256 15.5303 3.46967C15.2374 3.17678 14.7626 3.17678 14.4697 3.46967L15.5303 4.53033ZM11.25 21C11.25 21.4142 11.5858 21.75 12 21.75C12.4142 21.75 12.75 21.4142 12.75 21H11.25ZM12.75 3C12.75 2.58579 12.4142 2.25 12 2.25C11.5858 2.25 11.25 2.58579 11.25 3H12.75ZM11.25 9C11.25 9.41421 11.5858 9.75 12 9.75C12.4142 9.75 12.75 9.41421 12.75 9H11.25ZM20.1692 8.14952C20.5279 7.94241 20.6509 7.48372 20.4437 7.125C20.2366 6.76628 19.7779 6.64338 19.4192 6.85048L20.1692 8.14952ZM3.83081 15.8505C3.47209 16.0576 3.34919 16.5163 3.55629 16.875C3.7634 17.2337 4.22209 17.3566 4.58081 17.1495L3.83081 15.8505ZM9.77696 14.1495C10.1357 13.9424 10.2586 13.4837 10.0515 13.125C9.84438 12.7663 9.38568 12.6434 9.02696 12.8505L9.77696 14.1495ZM16.7037 18.7922C16.8109 19.1923 17.2222 19.4297 17.6223 19.3225C18.0224 19.2153 18.2598 18.8041 18.1526 18.404L16.7037 18.7922ZM20.6223 14.1264C21.0224 14.0192 21.2598 13.6079 21.1526 13.2078C21.0454 12.8077 20.6341 12.5703 20.234 12.6775L20.6223 14.1264ZM3.37766 9.87364C2.97756 9.98085 2.74013 10.3921 2.84733 10.7922C2.95454 11.1923 3.36579 11.4297 3.76589 11.3225L3.37766 9.87364ZM7.29622 5.20782C7.18902 4.80772 6.77776 4.57028 6.37766 4.67749C5.97756 4.78469 5.74013 5.19595 5.84733 5.59604L7.29622 5.20782ZM4.58082 6.85048C4.2221 6.64337 3.76341 6.76628 3.5563 7.12499C3.34919 7.48371 3.47209 7.94241 3.83081 8.14952L4.58082 6.85048ZM19.4193 17.1495C19.778 17.3566 20.2367 17.2337 20.4438 16.875C20.6509 16.5163 20.528 16.0576 20.1693 15.8505L19.4193 17.1495ZM20.2342 11.3225C20.6343 11.4297 21.0455 11.1922 21.1527 10.7921C21.2599 10.392 21.0225 9.98077 20.6224 9.87357L20.2342 11.3225ZM18.1527 5.59599C18.2599 5.1959 18.0225 4.78464 17.6224 4.67743C17.2223 4.57022 16.811 4.80765 16.7038 5.20775L18.1527 5.59599ZM7.66985 14.4999L8.3943 14.6941C8.5015 14.294 8.26407 13.8827 7.86397 13.7755L7.66985 14.4999ZM5.84733 18.4039C5.74013 18.804 5.97756 19.2153 6.37766 19.3225C6.77776 19.4297 7.18902 19.1922 7.29622 18.7921L5.84733 18.4039ZM3.76589 12.6774C3.36579 12.5702 2.95454 12.8077 2.84733 13.2078C2.74013 13.6079 2.97756 14.0191 3.37766 14.1263L3.76589 12.6774ZM11.4697 16.4697L8.46967 19.4697L9.53033 20.5303L12.5303 17.5303L11.4697 16.4697ZM11.4697 17.5303L14.4697 20.5303L15.5303 19.4697L12.5303 16.4697L11.4697 17.5303ZM12.5303 6.46967L9.53033 3.46967L8.46967 4.53033L11.4697 7.53033L12.5303 6.46967ZM12.5303 7.53033L15.5303 4.53033L14.4697 3.46967L11.4697 6.46967L12.5303 7.53033ZM11.25 12V17H12.75V12H11.25ZM11.25 17V21H12.75V17H11.25ZM12.375 12.6495L16.7051 10.1495L15.9551 8.85048L11.625 11.3505L12.375 12.6495ZM16.7051 10.1495L20.1692 8.14952L19.4192 6.85048L15.9551 8.85048L16.7051 10.1495ZM15.6056 14.6941L16.7037 18.7922L18.1526 18.404L17.0545 14.3059L15.6056 14.6941ZM16.5242 15.2245L20.6223 14.1264L20.234 12.6775L16.136 13.7756L16.5242 15.2245ZM7.47574 8.77556L3.37766 9.87364L3.76589 11.3225L7.86397 10.2245L7.47574 8.77556ZM8.3943 9.30589L7.29622 5.20782L5.84733 5.59604L6.94541 9.69412L8.3943 9.30589ZM7.29486 10.1495L11.625 12.6495L12.375 11.3505L8.04485 8.85049L7.29486 10.1495ZM11.625 12.6495L15.9551 15.1495L16.7051 13.8505L12.375 11.3505L11.625 12.6495ZM3.83081 8.14952L7.29485 10.1495L8.04486 8.85049L4.58082 6.85048L3.83081 8.14952ZM15.9551 15.1495L19.4193 17.1495L20.1693 15.8505L16.7051 13.8505L15.9551 15.1495ZM16.136 10.2244L20.2342 11.3225L20.6224 9.87357L16.5242 8.77555L16.136 10.2244ZM17.0546 9.69412L18.1527 5.59599L16.7038 5.20775L15.6057 9.30588L17.0546 9.69412ZM6.94541 14.3058L5.84733 18.4039L7.29622 18.7921L8.3943 14.6941L6.94541 14.3058ZM7.86397 13.7755L3.76589 12.6774L3.37766 14.1263L7.47574 15.2244L7.86397 13.7755ZM11.25 3V9H12.75V3H11.25ZM4.58081 17.1495L9.77696 14.1495L9.02696 12.8505L3.83081 15.8505L4.58081 17.1495Z" fill="#001A72"/>
</svg>
