<svg width="24" height="24" viewBox="0 0 24 24" fill="none" xmlns="http://www.w3.org/2000/svg">
<path d="M3.25 10C3.25 10.4142 3.58579 10.75 4 10.75C4.41421 10.75 4.75 10.4142 4.75 10H3.25ZM12 4.75C12.4142 4.75 12.75 4.41421 12.75 4C12.75 3.58579 12.4142 3.25 12 3.25V4.75ZM4.02693 18.329L3.287 18.4515H3.287L4.02693 18.329ZM4.75 15C4.75 14.5858 4.41421 14.25 4 14.25C3.58579 14.25 3.25 14.5858 3.25 15H4.75ZM17 3.25C16.5858 3.25 16.25 3.58579 16.25 4C16.25 4.41421 16.5858 4.75 17 4.75V3.25ZM10.274 14.3494L10.6901 13.7253H10.6901L10.274 14.3494ZM10.7832 14.6888L10.3671 15.3128H10.3671L10.7832 14.6888ZM13.142 14.5864L13.6105 15.1721L13.142 14.5864ZM15.7901 12.4679L15.3216 11.8822L15.7901 12.4679ZM18.1228 12.3484L17.7163 12.9787H17.7163L18.1228 12.3484ZM7.84762 14.5083L7.35375 13.9439C7.34122 13.9548 7.32906 13.9662 7.31729 13.978L7.84762 14.5083ZM18.34 12.5301L17.8097 13.0605L17.8097 13.0605L18.34 12.5301ZM6 3.25C4.48122 3.25 3.25 4.48122 3.25 6H4.75C4.75 5.30964 5.30964 4.75 6 4.75V3.25ZM4.75 10V6H3.25V10H4.75ZM6 4.75H12V3.25H6V4.75ZM18 19.25H6V20.75H18V19.25ZM19.25 18C19.25 18.6904 18.6904 19.25 18 19.25V20.75C19.5188 20.75 20.75 19.5188 20.75 18H19.25ZM18 4.75C18.6904 4.75 19.25 5.30964 19.25 6H20.75C20.75 4.48122 19.5188 3.25 18 3.25V4.75ZM6 19.25C5.38042 19.25 4.86484 18.7985 4.76687 18.2066L3.287 18.4515C3.50285 19.7556 4.63457 20.75 6 20.75V19.25ZM4.76687 18.2066C4.75582 18.1398 4.75 18.0709 4.75 18H3.25C3.25 18.1533 3.26261 18.3041 3.287 18.4515L4.76687 18.2066ZM19.25 6V14.1901H20.75V6H19.25ZM19.25 14.1901V18H20.75V14.1901H19.25ZM4.75 18V15H3.25V18H4.75ZM17 4.75H18V3.25H17V4.75ZM10.25 9C10.25 9.69036 9.69036 10.25 9 10.25V11.75C10.5188 11.75 11.75 10.5188 11.75 9H10.25ZM9 10.25C8.30964 10.25 7.75 9.69036 7.75 9H6.25C6.25 10.5188 7.48122 11.75 9 11.75V10.25ZM7.75 9C7.75 8.30964 8.30964 7.75 9 7.75V6.25C7.48122 6.25 6.25 7.48122 6.25 9H7.75ZM9 7.75C9.69036 7.75 10.25 8.30964 10.25 9H11.75C11.75 7.48122 10.5188 6.25 9 6.25V7.75ZM9.85801 14.9734L10.3671 15.3128L11.1992 14.0647L10.6901 13.7253L9.85801 14.9734ZM13.6105 15.1721L16.2586 13.0535L15.3216 11.8822L12.6734 14.0008L13.6105 15.1721ZM16.2586 13.0535C16.6804 12.7162 17.2681 12.6896 17.7163 12.9787L18.5294 11.7181C17.5424 11.0815 16.2498 11.1397 15.3216 11.8822L16.2586 13.0535ZM10.3671 15.3128C11.3636 15.9771 12.6753 15.9202 13.6105 15.1721L12.6734 14.0008C12.2484 14.3408 11.6521 14.3667 11.1992 14.0647L10.3671 15.3128ZM8.3415 15.0727C8.76652 14.7009 9.38811 14.6601 9.85801 14.9734L10.6901 13.7253C9.65627 13.0361 8.28879 13.1257 7.35375 13.9439L8.3415 15.0727ZM7.31729 13.978L3.4966 17.7987L4.55727 18.8593L8.37796 15.0386L7.31729 13.978ZM17.8097 13.0605L19.4697 14.7205L20.5303 13.6598L18.8703 11.9998L17.8097 13.0605ZM17.7163 12.9787C17.7315 12.9885 17.7592 13.01 17.8097 13.0605L18.8703 11.9998C18.787 11.9164 18.6732 11.8109 18.5294 11.7181L17.7163 12.9787Z" fill="#001A72"/>
</svg>
