<svg width="24" height="24" viewBox="0 0 24 24" fill="none" xmlns="http://www.w3.org/2000/svg">
<path d="M8 7.25C7.58579 7.25 7.25 7.58579 7.25 8C7.25 8.41421 7.58579 8.75 8 8.75V7.25ZM13 8.75C13.4142 8.75 13.75 8.41421 13.75 8C13.75 7.58579 13.4142 7.25 13 7.25V8.75ZM16 7.25C15.5858 7.25 15.25 7.58579 15.25 8C15.25 8.41421 15.5858 8.75 16 8.75V7.25ZM19 8.75C19.4142 8.75 19.75 8.41421 19.75 8C19.75 7.58579 19.4142 7.25 19 7.25V8.75ZM8 11.25C7.58579 11.25 7.25 11.5858 7.25 12C7.25 12.4142 7.58579 12.75 8 12.75V11.25ZM19 12.75C19.4142 12.75 19.75 12.4142 19.75 12C19.75 11.5858 19.4142 11.25 19 11.25V12.75ZM8 15.25C7.58579 15.25 7.25 15.5858 7.25 16C7.25 16.4142 7.58579 16.75 8 16.75V15.25ZM10 16.75C10.4142 16.75 10.75 16.4142 10.75 16C10.75 15.5858 10.4142 15.25 10 15.25V16.75ZM13 15.25C12.5858 15.25 12.25 15.5858 12.25 16C12.25 16.4142 12.5858 16.75 13 16.75V15.25ZM19 16.75C19.4142 16.75 19.75 16.4142 19.75 16C19.75 15.5858 19.4142 15.25 19 15.25V16.75ZM5.75 8C5.75 7.58579 5.41421 7.25 5 7.25C4.58579 7.25 4.25 7.58579 4.25 8H5.75ZM4.25 8.00999C4.25 8.42421 4.58579 8.75999 5 8.75999C5.41421 8.75999 5.75 8.42421 5.75 8.00999H4.25ZM5.75 12C5.75 11.5858 5.41421 11.25 5 11.25C4.58579 11.25 4.25 11.5858 4.25 12H5.75ZM4.25 12.01C4.25 12.4242 4.58579 12.76 5 12.76C5.41421 12.76 5.75 12.4242 5.75 12.01H4.25ZM5.75 16C5.75 15.5858 5.41421 15.25 5 15.25C4.58579 15.25 4.25 15.5858 4.25 16H5.75ZM4.25 16.01C4.25 16.4242 4.58579 16.76 5 16.76C5.41421 16.76 5.75 16.4242 5.75 16.01H4.25ZM8 8.75H13V7.25H8V8.75ZM16 8.75H19V7.25H16V8.75ZM8 12.75H19V11.25H8V12.75ZM8 16.75H10V15.25H8V16.75ZM13 16.75H19V15.25H13V16.75ZM4.25 8V8.00999H5.75V8H4.25ZM4.25 12V12.01H5.75V12H4.25ZM4.25 16V16.01H5.75V16H4.25Z" fill="#001A72"/>
</svg>
