<svg width="24" height="24" viewBox="0 0 24 24" fill="none" xmlns="http://www.w3.org/2000/svg">
<path d="M19 21V21.75C19.4142 21.75 19.75 21.4142 19.75 21H19ZM19 11H19.75C19.75 10.5858 19.4142 10.25 19 10.25V11ZM5 11V10.25C4.58579 10.25 4.25 10.5858 4.25 11H5ZM5 21H4.25C4.25 21.4142 4.58579 21.75 5 21.75V21ZM12 21.75C12.4142 21.75 12.75 21.4142 12.75 21C12.75 20.5858 12.4142 20.25 12 20.25V21.75ZM17 20.25C16.5858 20.25 16.25 20.5858 16.25 21C16.25 21.4142 16.5858 21.75 17 21.75V20.25ZM8.75 11V7H7.25V11H8.75ZM8.75 7C8.75 6.45335 8.92016 5.61668 9.40865 4.93823C9.8696 4.29802 10.6444 3.75 12 3.75V2.25C10.1556 2.25 8.9304 3.03532 8.19135 4.06177C7.47984 5.04998 7.25 6.21332 7.25 7H8.75ZM12 3.75C13.3556 3.75 14.1304 4.29802 14.5913 4.93823C15.0798 5.61668 15.25 6.45335 15.25 7H16.75C16.75 6.21332 16.5202 5.04998 15.8087 4.06177C15.0696 3.03532 13.8444 2.25 12 2.25V3.75ZM15.25 7V11H16.75V7H15.25ZM19.75 21V11H18.25V21H19.75ZM4.25 11V21H5.75V11H4.25ZM8 10.25H5V11.75H8V10.25ZM19 10.25H16V11.75H19V10.25ZM16 10.25H8V11.75H16V10.25ZM5 21.75H12V20.25H5V21.75ZM17 21.75H19V20.25H17V21.75Z" fill="#001A72"/>
</svg>
