<svg width="24" height="24" viewBox="0 0 24 24" fill="none" xmlns="http://www.w3.org/2000/svg">
<path d="M4 16.25C3.58579 16.25 3.25 16.5858 3.25 17C3.25 17.4142 3.58579 17.75 4 17.75V16.25ZM8 17.75C8.41421 17.75 8.75 17.4142 8.75 17C8.75 16.5858 8.41421 16.25 8 16.25V17.75ZM12 16.25C11.5858 16.25 11.25 16.5858 11.25 17C11.25 17.4142 11.5858 17.75 12 17.75V16.25ZM20 17.75C20.4142 17.75 20.75 17.4142 20.75 17C20.75 16.5858 20.4142 16.25 20 16.25V17.75ZM4 11.25C3.58579 11.25 3.25 11.5858 3.25 12C3.25 12.4142 3.58579 12.75 4 12.75V11.25ZM20 12.75C20.4142 12.75 20.75 12.4142 20.75 12C20.75 11.5858 20.4142 11.25 20 11.25V12.75ZM4 6.25C3.58579 6.25 3.25 6.58579 3.25 7C3.25 7.41421 3.58579 7.75 4 7.75V6.25ZM12 7.75C12.4142 7.75 12.75 7.41421 12.75 7C12.75 6.58579 12.4142 6.25 12 6.25V7.75ZM16 6.25C15.5858 6.25 15.25 6.58579 15.25 7C15.25 7.41421 15.5858 7.75 16 7.75V6.25ZM20 7.75C20.4142 7.75 20.75 7.41421 20.75 7C20.75 6.58579 20.4142 6.25 20 6.25V7.75ZM4 17.75H8V16.25H4V17.75ZM12 17.75H20V16.25H12V17.75ZM4 12.75H20V11.25H4V12.75ZM4 7.75H12V6.25H4V7.75ZM16 7.75H20V6.25H16V7.75Z" fill="#001A72"/>
</svg>
