<svg width="24" height="24" viewBox="0 0 24 24" fill="none" xmlns="http://www.w3.org/2000/svg">
<path d="M16 9.25C15.5858 9.25 15.25 9.58579 15.25 10C15.25 10.4142 15.5858 10.75 16 10.75V9.25ZM16.01 10.75C16.4242 10.75 16.76 10.4142 16.76 10C16.76 9.58579 16.4242 9.25 16.01 9.25V10.75ZM12 9.25C11.5858 9.25 11.25 9.58579 11.25 10C11.25 10.4142 11.5858 10.75 12 10.75V9.25ZM12.01 10.75C12.4242 10.75 12.76 10.4142 12.76 10C12.76 9.58579 12.4242 9.25 12.01 9.25V10.75ZM8 9.25C7.58579 9.25 7.25 9.58579 7.25 10C7.25 10.4142 7.58579 10.75 8 10.75V9.25ZM8.01 10.75C8.42421 10.75 8.76 10.4142 8.76 10C8.76 9.58579 8.42421 9.25 8.01 9.25V10.75ZM7.75 18.5C7.75 18.0858 7.41421 17.75 7 17.75C6.58579 17.75 6.25 18.0858 6.25 18.5H7.75ZM7 21H6.25C6.25 21.3033 6.43273 21.5768 6.71299 21.6929C6.99324 21.809 7.31583 21.7448 7.53033 21.5303L7 21ZM12 16V15.25C11.8011 15.25 11.6103 15.329 11.4697 15.4697L12 16ZM4 4V3.25C3.58579 3.25 3.25 3.58579 3.25 4H4ZM20 4H20.75C20.75 3.58579 20.4142 3.25 20 3.25V4ZM4 16H3.25C3.25 16.4142 3.58579 16.75 4 16.75V16ZM7 16.75C7.41421 16.75 7.75 16.4142 7.75 16C7.75 15.5858 7.41421 15.25 7 15.25V16.75ZM20 16V16.75C20.4142 16.75 20.75 16.4142 20.75 16H20ZM20.75 10C20.75 9.58579 20.4142 9.25 20 9.25C19.5858 9.25 19.25 9.58579 19.25 10H20.75ZM19.25 6C19.25 6.41421 19.5858 6.75 20 6.75C20.4142 6.75 20.75 6.41421 20.75 6H19.25ZM16 10.75H16.01V9.25H16V10.75ZM12 10.75H12.01V9.25H12V10.75ZM8 10.75H8.01V9.25H8V10.75ZM6.25 18.5V21H7.75V18.5H6.25ZM7.53033 21.5303L12.5303 16.5303L11.4697 15.4697L6.46967 20.4697L7.53033 21.5303ZM4 4.75H20V3.25H4V4.75ZM4.75 16V4H3.25V16H4.75ZM7 15.25H4V16.75H7V15.25ZM20 15.25H12V16.75H20V15.25ZM19.25 10V16H20.75V10H19.25ZM19.25 4V6H20.75V4H19.25Z" fill="#001A72"/>
</svg>
