<svg width="24" height="24" viewBox="0 0 24 24" fill="none" xmlns="http://www.w3.org/2000/svg">
<path d="M19.25 12C19.25 12.4142 19.5858 12.75 20 12.75C20.4142 12.75 20.75 12.4142 20.75 12H19.25ZM11 3L11.0197 2.25026C10.7138 2.24222 10.4336 2.42087 10.3119 2.70166C10.1902 2.98244 10.2512 3.30903 10.4662 3.52685L11 3ZM3 17L3.14951 16.2651C2.85037 16.2042 2.54419 16.3307 2.37528 16.585C2.20636 16.8393 2.20842 17.1706 2.38048 17.4227L3 17ZM18.5826 18.1885C18.8435 17.8668 18.7941 17.3945 18.4723 17.1336C18.1505 16.8728 17.6782 16.9222 17.4174 17.244L18.5826 18.1885ZM20.75 12C20.75 6.68571 16.4073 2.39187 11.0197 2.25026L10.9803 3.74974C15.5941 3.87102 19.25 7.53726 19.25 12H20.75ZM2.38048 17.4227C4.193 20.0791 7.54799 21.75 11 21.75V20.25C7.99422 20.25 5.12576 18.7847 3.61952 16.5773L2.38048 17.4227ZM2.85049 17.7349C7.19156 18.618 10.912 16.3566 12.7631 13.1399C14.6167 9.91893 14.6531 5.63357 11.5338 2.47315L10.4662 3.52685C13.0298 6.12418 13.0422 9.64763 11.463 12.3917C9.88152 15.1399 6.76047 16.9996 3.14951 16.2651L2.85049 17.7349ZM11 21.75C14.1134 21.75 16.817 20.3667 18.5826 18.1885L17.4174 17.244C15.932 19.0764 13.6539 20.25 11 20.25V21.75Z" fill="#001A72"/>
</svg>
