<svg width="24" height="24" viewBox="0 0 24 24" fill="none" xmlns="http://www.w3.org/2000/svg">
<path d="M19.75 6C19.75 5.58579 19.4142 5.25 19 5.25C18.5858 5.25 18.25 5.58579 18.25 6H19.75ZM18.25 18C18.25 18.4142 18.5858 18.75 19 18.75C19.4142 18.75 19.75 18.4142 19.75 18H18.25ZM4.25 18C4.25 18.4142 4.58579 18.75 5 18.75C5.41421 18.75 5.75 18.4142 5.75 18H4.25ZM5 6L5.38587 5.35688C5.15417 5.21786 4.86561 5.21422 4.63048 5.34735C4.39534 5.48048 4.25 5.7298 4.25 6H5ZM15 12L15.3859 12.6431C15.6118 12.5076 15.75 12.2634 15.75 12C15.75 11.7366 15.6118 11.4924 15.3859 11.3569L15 12ZM7.94746 15.3569C7.59228 15.57 7.4771 16.0307 7.69021 16.3859C7.90332 16.7411 8.36402 16.8562 8.71921 16.6431L7.94746 15.3569ZM18.25 6V18H19.75V6H18.25ZM5.75 18V6H4.25V18H5.75ZM4.61413 6.64312L14.6141 12.6431L15.3859 11.3569L5.38587 5.35688L4.61413 6.64312ZM14.6141 11.3569L7.94746 15.3569L8.71921 16.6431L15.3859 12.6431L14.6141 11.3569Z" fill="#001A72"/>
</svg>
