<svg width="24" height="24" viewBox="0 0 24 24" fill="none" xmlns="http://www.w3.org/2000/svg">
<path d="M21.5303 3.53033C21.8232 3.23744 21.8232 2.76256 21.5303 2.46967C21.2374 2.17678 20.7626 2.17678 20.4697 2.46967L21.5303 3.53033ZM14.4697 8.46967C14.1768 8.76256 14.1768 9.23744 14.4697 9.53033C14.7626 9.82322 15.2374 9.82322 15.5303 9.53033L14.4697 8.46967ZM15.5303 2.46967C15.2374 2.17678 14.7626 2.17678 14.4697 2.46967C14.1768 2.76256 14.1768 3.23744 14.4697 3.53033L15.5303 2.46967ZM20.4697 9.53033C20.7626 9.82322 21.2374 9.82322 21.5303 9.53033C21.8232 9.23744 21.8232 8.76256 21.5303 8.46967L20.4697 9.53033ZM20.9994 16.4767L20.2496 16.458C20.2495 16.4643 20.2494 16.4705 20.2494 16.4767H20.9994ZM20.9994 19.1864H20.2494L20.2494 19.1895L20.9994 19.1864ZM20.5709 15.2641L19.9991 15.7494L20.5709 15.2641ZM15.8851 13.935L15.7289 13.2014L15.8851 13.935ZM13.8405 15.5644L13.4703 16.2167C13.7635 16.3831 14.1317 16.3334 14.3703 16.0952L13.8405 15.5644ZM19.0938 20.246C18.6812 20.2088 18.3166 20.5131 18.2794 20.9256C18.2422 21.3381 18.5465 21.7027 18.959 21.7399L19.0938 20.246ZM11.5173 12.9126C11.2174 12.6269 10.7427 12.6384 10.457 12.9383C10.1713 13.2382 10.1828 13.713 10.4827 13.9987L11.5173 12.9126ZM4.80811 3.00009V2.25009L4.8074 2.25009L4.80811 3.00009ZM7.52325 3.00009V3.75012L7.53062 3.75005L7.52325 3.00009ZM8.72131 3.43684L8.23284 4.00596V4.00596L8.72131 3.43684ZM10.0428 8.10428L10.7763 8.26101L10.0428 8.10428ZM7.88039 9.61399C7.58721 9.90659 7.58674 10.3815 7.87934 10.6746C8.17194 10.9678 8.64682 10.9683 8.94 10.6757L7.88039 9.61399ZM3.00706 4.96919L3.75706 4.96978C3.75708 4.947 3.75606 4.92424 3.75401 4.90155L3.00706 4.96919ZM14.8191 21.2352C15.2211 21.3351 15.6279 21.0902 15.7279 20.6882C15.8278 20.2862 15.5829 19.8794 15.1809 19.7795L14.8191 21.2352ZM20.4697 2.46967L14.4697 8.46967L15.5303 9.53033L21.5303 3.53033L20.4697 2.46967ZM14.4697 3.53033L20.4697 9.53033L21.5303 8.46967L15.5303 2.46967L14.4697 3.53033ZM20.2494 16.4767V19.1864H21.7494V16.4767H20.2494ZM19.9991 15.7494C20.167 15.9472 20.2561 16.1994 20.2496 16.458L21.7492 16.4953C21.7648 15.868 21.5488 15.2571 21.1426 14.7787L19.9991 15.7494ZM16.0412 14.6686C16.4183 14.5883 17.2499 14.6466 18.1485 14.8801C18.5799 14.9922 18.9897 15.1355 19.3278 15.2975C19.6782 15.4655 19.8953 15.6272 19.9991 15.7494L21.1426 14.7787C20.8417 14.4242 20.4084 14.1521 19.9762 13.945C19.5317 13.7318 19.027 13.5585 18.5257 13.4283C17.5588 13.177 16.4523 13.0475 15.7289 13.2014L16.0412 14.6686ZM14.3703 16.0952C14.532 15.9339 14.6946 15.7535 14.8396 15.5953C14.991 15.4303 15.1317 15.2798 15.2753 15.1446C15.5686 14.8684 15.8112 14.7175 16.0412 14.6686L15.7289 13.2014C15.1012 13.3351 14.6149 13.7061 14.2469 14.0526C14.0599 14.2287 13.887 14.4147 13.7341 14.5815C13.5748 14.7553 13.4423 14.9022 13.3107 15.0335L14.3703 16.0952ZM20.2494 19.1895C20.2518 19.7851 19.6976 20.3005 19.0938 20.246L18.959 21.7399C20.4468 21.8741 21.7554 20.6595 21.7494 19.1834L20.2494 19.1895ZM10.4827 13.9987C11.38 14.8534 12.3825 15.5993 13.4703 16.2167L14.2106 14.9121C13.2299 14.3555 12.3261 13.6831 11.5173 12.9126L10.4827 13.9987ZM4.80811 3.75009H7.52325V2.25009H4.80811V3.75009ZM7.53062 3.75005C7.78828 3.74752 8.03785 3.8386 8.23284 4.00596L9.20979 2.86772C8.73872 2.46341 8.13667 2.24403 7.51588 2.25012L7.53062 3.75005ZM8.23284 4.00596C8.35543 4.11118 8.51653 4.32916 8.68363 4.67844C8.84491 5.01557 8.98754 5.42365 9.09912 5.85282C9.3316 6.74707 9.38943 7.57289 9.30937 7.94755L10.7763 8.26101C10.9305 7.53916 10.801 6.43759 10.5509 5.47541C10.4211 4.97637 10.2486 4.47397 10.0368 4.0311C9.83069 3.60038 9.56061 3.16883 9.20979 2.86772L8.23284 4.00596ZM9.30937 7.94755C9.26052 8.17614 9.10977 8.41795 8.83294 8.71075C8.69747 8.85403 8.54667 8.99453 8.38127 9.1456C8.22279 9.29036 8.0421 9.45259 7.88039 9.61399L8.94 10.6757C9.07164 10.5443 9.21884 10.4121 9.39289 10.2531C9.56004 10.1005 9.74642 9.92793 9.9229 9.74128C10.27 9.3742 10.6422 8.8885 10.7763 8.26101L9.30937 7.94755ZM3.75401 4.90155C3.7 4.30506 4.20998 3.75065 4.80881 3.75009L4.8074 2.25009C3.33717 2.25147 2.12575 3.55284 2.26012 5.03682L3.75401 4.90155ZM15.1809 19.7795C8.51701 18.1232 3.75136 12.2036 3.75706 4.96978L2.25706 4.96859C2.25082 12.8915 7.48566 19.4126 14.8191 21.2352L15.1809 19.7795Z" fill="#001A72"/>
</svg>
