<svg width="24" height="24" viewBox="0 0 24 24" fill="none" xmlns="http://www.w3.org/2000/svg">
<path d="M20.9995 16.4767L20.2497 16.458C20.2495 16.4642 20.2495 16.4705 20.2495 16.4767H20.9995ZM20.9995 19.1864H20.2494L20.2495 19.1895L20.9995 19.1864ZM20.5709 15.264L19.9992 15.7494L20.5709 15.264ZM15.8851 13.935L15.729 13.2014L15.8851 13.935ZM13.8405 15.5644L13.4704 16.2167C13.7636 16.383 14.1317 16.3334 14.3703 16.0952L13.8405 15.5644ZM19.0938 20.246C18.6813 20.2088 18.3167 20.513 18.2795 20.9256C18.2423 21.3381 18.5465 21.7027 18.9591 21.7399L19.0938 20.246ZM11.5174 12.9126C11.2174 12.6269 10.7427 12.6384 10.457 12.9383C10.1713 13.2382 10.1828 13.713 10.4828 13.9987L11.5174 12.9126ZM4.80811 3.00009V2.25009L4.8074 2.25009L4.80811 3.00009ZM7.52325 3.00009V3.75012L7.53062 3.75005L7.52325 3.00009ZM8.72131 3.43684L8.23284 4.00596V4.00596L8.72131 3.43684ZM10.0428 8.10428L10.7763 8.26101L10.0428 8.10428ZM7.88039 9.61399C7.58721 9.90659 7.58674 10.3815 7.87934 10.6746C8.17194 10.9678 8.64682 10.9683 8.94 10.6757L7.88039 9.61399ZM3.00706 4.96919L3.75706 4.96978C3.75708 4.947 3.75606 4.92424 3.75401 4.90155L3.00706 4.96919ZM14.8191 21.2352C15.2211 21.3351 15.6279 21.0902 15.7279 20.6882C15.8278 20.2862 15.5829 19.8794 15.1809 19.7795L14.8191 21.2352ZM20.2495 16.4767V19.1864H21.7495V16.4767H20.2495ZM19.9992 15.7494C20.1671 15.9472 20.2561 16.1994 20.2497 16.458L21.7492 16.4953C21.7648 15.868 21.5488 15.257 21.1427 14.7786L19.9992 15.7494ZM16.0413 14.6686C16.4183 14.5883 17.25 14.6466 18.1485 14.8801C18.58 14.9922 18.9898 15.1355 19.3278 15.2975C19.6782 15.4655 19.8954 15.6272 19.9992 15.7494L21.1427 14.7786C20.8418 14.4242 20.4084 14.1521 19.9763 13.9449C19.5318 13.7318 19.0271 13.5585 18.5258 13.4283C17.5589 13.177 16.4523 13.0475 15.729 13.2014L16.0413 14.6686ZM14.3703 16.0952C14.5321 15.9338 14.6946 15.7535 14.8397 15.5953C14.991 15.4303 15.1318 15.2798 15.2754 15.1446C15.5686 14.8684 15.8113 14.7175 16.0413 14.6686L15.729 13.2014C15.1012 13.335 14.6149 13.7061 14.247 14.0526C14.06 14.2287 13.8871 14.4147 13.7341 14.5815C13.5748 14.7552 13.4424 14.9021 13.3107 15.0335L14.3703 16.0952ZM20.2495 19.1895C20.2519 19.7851 19.6976 20.3004 19.0938 20.246L18.9591 21.7399C20.4469 21.8741 21.7555 20.6595 21.7494 19.1834L20.2495 19.1895ZM10.4828 13.9987C11.38 14.8534 12.3825 15.5993 13.4704 16.2167L14.2107 14.9121C13.2299 14.3555 12.3262 13.6831 11.5174 12.9126L10.4828 13.9987ZM4.80811 3.75009H7.52325V2.25009H4.80811V3.75009ZM7.53062 3.75005C7.78828 3.74752 8.03785 3.8386 8.23284 4.00596L9.20979 2.86772C8.73872 2.46341 8.13667 2.24403 7.51588 2.25012L7.53062 3.75005ZM8.23284 4.00596C8.35543 4.11118 8.51653 4.32916 8.68363 4.67844C8.84491 5.01557 8.98754 5.42365 9.09912 5.85282C9.3316 6.74707 9.38943 7.57289 9.30937 7.94755L10.7763 8.26101C10.9305 7.53916 10.801 6.43759 10.5509 5.47541C10.4211 4.97637 10.2486 4.47397 10.0368 4.0311C9.83069 3.60038 9.56061 3.16883 9.20979 2.86772L8.23284 4.00596ZM9.30937 7.94755C9.26052 8.17614 9.10977 8.41795 8.83294 8.71075C8.69747 8.85403 8.54667 8.99453 8.38127 9.1456C8.22279 9.29036 8.0421 9.45259 7.88039 9.61399L8.94 10.6757C9.07164 10.5443 9.21884 10.4121 9.39289 10.2531C9.56004 10.1005 9.74642 9.92793 9.9229 9.74128C10.27 9.3742 10.6422 8.8885 10.7763 8.26101L9.30937 7.94755ZM3.75401 4.90155C3.7 4.30506 4.20998 3.75065 4.80881 3.75009L4.8074 2.25009C3.33717 2.25147 2.12575 3.55284 2.26012 5.03682L3.75401 4.90155ZM15.1809 19.7795C8.51701 18.1232 3.75136 12.2036 3.75706 4.96978L2.25706 4.96859C2.25082 12.8915 7.48566 19.4126 14.8191 21.2352L15.1809 19.7795Z" fill="#001A72"/>
</svg>
