<svg width="24" height="24" viewBox="0 0 24 24" fill="none" xmlns="http://www.w3.org/2000/svg">
<path d="M12.75 16C12.75 15.5858 12.4142 15.25 12 15.25C11.5858 15.25 11.25 15.5858 11.25 16H12.75ZM11.25 21C11.25 21.4142 11.5858 21.75 12 21.75C12.4142 21.75 12.75 21.4142 12.75 21H11.25ZM11.25 16V21H12.75V16H11.25ZM16.25 8C16.25 10.3472 14.3472 12.25 12 12.25V13.75C15.1756 13.75 17.75 11.1756 17.75 8H16.25ZM12 12.25C9.65279 12.25 7.75 10.3472 7.75 8H6.25C6.25 11.1756 8.82436 13.75 12 13.75V12.25ZM7.75 8C7.75 5.65279 9.65279 3.75 12 3.75V2.25C8.82436 2.25 6.25 4.82436 6.25 8H7.75ZM12 3.75C14.3472 3.75 16.25 5.65279 16.25 8H17.75C17.75 4.82436 15.1756 2.25 12 2.25V3.75Z" fill="#001A72"/>
</svg>
