<svg width="24" height="24" viewBox="0 0 24 24" fill="none" xmlns="http://www.w3.org/2000/svg">
<path d="M8 14.25C7.58579 14.25 7.25 14.5858 7.25 15C7.25 15.4142 7.58579 15.75 8 15.75V14.25ZM16 15H16.75C16.75 14.5858 16.4142 14.25 16 14.25V15ZM16 21V21.75C16.4142 21.75 16.75 21.4142 16.75 21H16ZM8 21H7.25C7.25 21.4142 7.58579 21.75 8 21.75V21ZM8 18H8.75C8.75 17.5858 8.41421 17.25 8 17.25V18ZM20 9H20.75C20.75 8.58579 20.4142 8.25 20 8.25V9ZM20 18V18.75C20.4142 18.75 20.75 18.4142 20.75 18H20ZM4 18H3.25C3.25 18.4142 3.58579 18.75 4 18.75V18ZM4 9V8.25C3.58579 8.25 3.25 8.58579 3.25 9H4ZM15.25 5C15.25 5.41421 15.5858 5.75 16 5.75C16.4142 5.75 16.75 5.41421 16.75 5H15.25ZM8 15.75H16V14.25H8V15.75ZM16 20.25H8V21.75H16V20.25ZM15.25 15V18H16.75V15H15.25ZM15.25 18V21H16.75V18H15.25ZM8.75 21V18H7.25V21H8.75ZM19.25 9V18H20.75V9H19.25ZM4.75 18V9H3.25V18H4.75ZM4 18.75H8V17.25H4V18.75ZM16 18.75H20V17.25H16V18.75ZM4 9.75H8V8.25H4V9.75ZM9 3.75H15V2.25H9V3.75ZM15 3.75C15.1381 3.75 15.25 3.86193 15.25 4H16.75C16.75 3.0335 15.9665 2.25 15 2.25V3.75ZM9 2.25C8.0335 2.25 7.25 3.0335 7.25 4H8.75C8.75 3.86193 8.86193 3.75 9 3.75V2.25ZM7.25 4V9H8.75V4H7.25ZM15.25 4V5H16.75V4H15.25ZM8 9.75H20V8.25H8V9.75Z" fill="#001A72"/>
</svg>
