<svg width="24" height="24" viewBox="0 0 24 24" fill="none" xmlns="http://www.w3.org/2000/svg">
<path d="M11.25 17C11.25 17.4142 11.5858 17.75 12 17.75C12.4142 17.75 12.75 17.4142 12.75 17H11.25ZM12.75 16.9929C12.75 16.5786 12.4142 16.2429 12 16.2429C11.5858 16.2429 11.25 16.5786 11.25 16.9929H12.75ZM8.42494 8.7651C8.29521 9.15848 8.50894 9.58254 8.90231 9.71227C9.29569 9.842 9.71974 9.62827 9.84947 9.2349L8.42494 8.7651ZM12.7607 7.87342C13.1533 8.00558 13.5786 7.79449 13.7108 7.40193C13.843 7.00936 13.6319 6.58399 13.2393 6.45182L12.7607 7.87342ZM11.2498 14.8571C11.2498 15.2714 11.5855 15.6071 11.9998 15.6071C12.414 15.6071 12.7498 15.2714 12.7498 14.8571H11.2498ZM15.5747 8.7651C15.445 8.37173 15.0209 8.158 14.6275 8.28773C14.2341 8.41746 14.0204 8.84152 14.1501 9.2349L15.5747 8.7651ZM20.25 12C20.25 16.5563 16.5563 20.25 12 20.25V21.75C17.3848 21.75 21.75 17.3848 21.75 12H20.25ZM12 20.25C7.44365 20.25 3.75 16.5563 3.75 12H2.25C2.25 17.3848 6.61522 21.75 12 21.75V20.25ZM3.75 12C3.75 7.44365 7.44365 3.75 12 3.75V2.25C6.61522 2.25 2.25 6.61522 2.25 12H3.75ZM12 3.75C16.5563 3.75 20.25 7.44365 20.25 12H21.75C21.75 6.61522 17.3848 2.25 12 2.25V3.75ZM12.75 17V16.9929H11.25V17H12.75ZM9.84947 9.2349C10.1271 8.3931 10.9697 7.75 11.9999 7.75V6.25C10.3435 6.25 8.91189 7.28855 8.42494 8.7651L9.84947 9.2349ZM11.9999 7.75C12.2685 7.75 12.5243 7.79384 12.7607 7.87342L13.2393 6.45182C12.85 6.32077 12.4326 6.25 11.9999 6.25V7.75ZM14.2498 9.85714C14.2498 10.3069 14.1237 10.5599 13.9567 10.7587C13.7526 11.0017 13.4807 11.1812 13.0638 11.479C12.6802 11.753 12.2062 12.11 11.8435 12.6569C11.4697 13.2206 11.2498 13.9275 11.2498 14.8571H12.7498C12.7498 14.1797 12.9048 13.7705 13.0936 13.4859C13.2933 13.1847 13.5693 12.9613 13.9357 12.6996C14.2688 12.4617 14.7469 12.1501 15.1053 11.7235C15.5008 11.2526 15.7498 10.6574 15.7498 9.85714H14.2498ZM14.1501 9.2349C14.2148 9.43092 14.2498 9.63961 14.2498 9.85714H15.7498C15.7498 9.47741 15.6885 9.11024 15.5747 8.7651L14.1501 9.2349Z" fill="#001A72"/>
</svg>
