<svg width="24" height="24" viewBox="0 0 24 24" fill="none" xmlns="http://www.w3.org/2000/svg">
<path d="M5.33124 12.6605C5.14374 13.0299 5.29116 13.4813 5.66051 13.6688C6.02985 13.8563 6.48126 13.7088 6.66876 13.3395L5.33124 12.6605ZM8.46665 10.6333L8.13792 9.95919V9.95919L8.46665 10.6333ZM12.0506 10.0495L11.9582 10.7938L12.0506 10.0495ZM16.5345 13.4067C16.8592 13.6638 17.3309 13.6089 17.588 13.2841C17.8451 12.9594 17.7903 12.4877 17.4655 12.2306L16.5345 13.4067ZM17.75 10C17.75 9.58579 17.4142 9.25 17 9.25C16.5858 9.25 16.25 9.58579 16.25 10H17.75ZM17 13V13.75C17.4142 13.75 17.75 13.4142 17.75 13H17ZM14 12.25C13.5858 12.25 13.25 12.5858 13.25 13C13.25 13.4142 13.5858 13.75 14 13.75V12.25ZM6.66876 13.3395C7.09856 12.4928 7.83857 11.774 8.79537 11.3074L8.13792 9.95919C6.91208 10.557 5.9207 11.4993 5.33124 12.6605L6.66876 13.3395ZM8.79537 11.3074C9.7527 10.8406 10.8638 10.658 11.9582 10.7938L12.143 9.3052C10.7678 9.13452 9.36323 9.36167 8.13792 9.95919L8.79537 11.3074ZM11.9582 10.7938C13.7171 11.0121 14.9324 12.1384 16.5345 13.4067L17.4655 12.2306C16.0183 11.0849 14.4204 9.58784 12.143 9.3052L11.9582 10.7938ZM16.25 10V13H17.75V10H16.25ZM17 12.25H14V13.75H17V12.25Z" fill="#001A72"/>
</svg>
