<svg width="24" height="24" viewBox="0 0 24 24" fill="none" xmlns="http://www.w3.org/2000/svg">
<path d="M13.4697 14.4697C13.1768 14.7626 13.1768 15.2374 13.4697 15.5303C13.7626 15.8232 14.2374 15.8232 14.5303 15.5303L13.4697 14.4697ZM17 12L17.5303 12.5303C17.8232 12.2374 17.8232 11.7626 17.5303 11.4697L17 12ZM14.5303 8.46967C14.2374 8.17678 13.7626 8.17678 13.4697 8.46967C13.1768 8.76256 13.1768 9.23744 13.4697 9.53033L14.5303 8.46967ZM7.96967 9.96967C7.67678 10.2626 7.67678 10.7374 7.96967 11.0303C8.26256 11.3232 8.73744 11.3232 9.03033 11.0303L7.96967 9.96967ZM10.5303 9.53033C10.8232 9.23744 10.8232 8.76256 10.5303 8.46967C10.2374 8.17678 9.76256 8.17678 9.46967 8.46967L10.5303 9.53033ZM9.46967 15.5303C9.76256 15.8232 10.2374 15.8232 10.5303 15.5303C10.8232 15.2374 10.8232 14.7626 10.5303 14.4697L9.46967 15.5303ZM7.53033 11.4697C7.23744 11.1768 6.76256 11.1768 6.46967 11.4697C6.17678 11.7626 6.17678 12.2374 6.46967 12.5303L7.53033 11.4697ZM14.5303 15.5303L17.5303 12.5303L16.4697 11.4697L13.4697 14.4697L14.5303 15.5303ZM17.5303 11.4697L14.5303 8.46967L13.4697 9.53033L16.4697 12.5303L17.5303 11.4697ZM9.03033 11.0303L10.5303 9.53033L9.46967 8.46967L7.96967 9.96967L9.03033 11.0303ZM10.5303 14.4697L7.53033 11.4697L6.46967 12.5303L9.46967 15.5303L10.5303 14.4697Z" fill="#001A72"/>
</svg>
