<svg width="24" height="24" viewBox="0 0 24 24" fill="none" xmlns="http://www.w3.org/2000/svg">
<path d="M16 20.75C16.4142 20.75 16.75 20.4142 16.75 20C16.75 19.5858 16.4142 19.25 16 19.25V20.75ZM8 19.25C7.58579 19.25 7.25 19.5858 7.25 20C7.25 20.4142 7.58579 20.75 8 20.75V19.25ZM12 16H12.75C12.75 15.5858 12.4142 15.25 12 15.25V16ZM4.75 9C4.75 8.58579 4.41421 8.25 4 8.25C3.58579 8.25 3.25 8.58579 3.25 9H4.75ZM3.53033 2.46967C3.23744 2.17678 2.76256 2.17678 2.46967 2.46967C2.17678 2.76256 2.17678 3.23744 2.46967 3.53033L3.53033 2.46967ZM20.4697 21.5303C20.7626 21.8232 21.2374 21.8232 21.5303 21.5303C21.8232 21.2374 21.8232 20.7626 21.5303 20.4697L20.4697 21.5303ZM19.25 6C19.25 6.41421 19.5858 6.75 20 6.75C20.4142 6.75 20.75 6.41421 20.75 6H19.25ZM10 4.25C9.58579 4.25 9.25 4.58579 9.25 5C9.25 5.41421 9.58579 5.75 10 5.75V4.25ZM20.75 10C20.75 9.58579 20.4142 9.25 20 9.25C19.5858 9.25 19.25 9.58579 19.25 10H20.75ZM19.25 15C19.25 15.4142 19.5858 15.75 20 15.75C20.4142 15.75 20.75 15.4142 20.75 15H19.25ZM12 20.75H16V19.25H12V20.75ZM12 19.25H8V20.75H12V19.25ZM11.25 16V20H12.75V16H11.25ZM5 15.25C4.86193 15.25 4.75 15.1381 4.75 15H3.25C3.25 15.9665 4.0335 16.75 5 16.75V15.25ZM4.75 15V9H3.25V15H4.75ZM5 16.75H12V15.25H5V16.75ZM2.46967 3.53033L20.4697 21.5303L21.5303 20.4697L3.53033 2.46967L2.46967 3.53033ZM19 5.75C19.1381 5.75 19.25 5.86193 19.25 6H20.75C20.75 5.0335 19.9665 4.25 19 4.25V5.75ZM10 5.75H19V4.25H10V5.75ZM19.25 10V15H20.75V10H19.25Z" fill="#001A72"/>
</svg>
