<svg width="24" height="24" viewBox="0 0 24 24" fill="none" xmlns="http://www.w3.org/2000/svg">
<path d="M21.7463 7.07463C21.7875 6.66247 21.4868 6.29494 21.0746 6.25372C20.6625 6.21251 20.2949 6.51321 20.2537 6.92537L21.7463 7.07463ZM20.5 12L20.1141 12.6431C20.3344 12.7753 20.607 12.7855 20.8366 12.6702C21.0661 12.555 21.2207 12.3302 21.2463 12.0746L20.5 12ZM18 10.5L18.3859 9.85688C18.1542 9.71786 17.8656 9.71422 17.6305 9.84735C17.3953 9.98048 17.25 10.2298 17.25 10.5H18ZM18 20V20.75C18.4142 20.75 18.75 20.4142 18.75 20H18ZM6 20H5.25C5.25 20.4142 5.58579 20.75 6 20.75V20ZM6.75 15.25C6.75 14.8358 6.41421 14.5 6 14.5C5.58579 14.5 5.25 14.8358 5.25 15.25H6.75ZM6 4V3.25C5.80109 3.25 5.61032 3.32902 5.46967 3.46967L6 4ZM3 7L2.46967 6.46967C2.31061 6.62873 2.23134 6.85079 2.25372 7.07463L3 7ZM9 4H9.75C9.75 3.58579 9.41421 3.25 9 3.25V4ZM9.22836 5.14805L8.53545 5.43506L8.53545 5.43506L9.22836 5.14805ZM9.87868 6.12132L9.34835 6.65165L9.34835 6.65165L9.87868 6.12132ZM10.8519 6.77164L11.139 6.07873L10.8519 6.77164ZM13.1481 6.77164L13.4351 7.46455L13.1481 6.77164ZM14.1213 6.12132L14.6517 6.65165L14.6517 6.65165L14.1213 6.12132ZM14.7716 5.14805L15.4645 5.43506L15.4645 5.43506L14.7716 5.14805ZM15 4V3.25C14.5858 3.25 14.25 3.58579 14.25 4H15ZM18 4.75C18.4142 4.75 18.75 4.41421 18.75 4C18.75 3.58579 18.4142 3.25 18 3.25V4.75ZM3.5 12L2.75372 12.0746C2.77928 12.3302 2.93388 12.555 3.16345 12.6702C3.39301 12.7855 3.6656 12.7753 3.88587 12.6431L3.5 12ZM6.38587 11.1431C6.74106 10.93 6.85623 10.4693 6.64312 10.1141C6.43001 9.75894 5.96931 9.64377 5.61413 9.85688L6.38587 11.1431ZM20.2537 6.92537L19.7537 11.9254L21.2463 12.0746L21.7463 7.07463L20.2537 6.92537ZM20.8859 11.3569L18.3859 9.85688L17.6141 11.1431L20.1141 12.6431L20.8859 11.3569ZM18.75 20V10.5H17.25V20H18.75ZM6 20.75H18V19.25H6V20.75ZM5.25 15.25V20H6.75V15.25H5.25ZM5.46967 3.46967L2.46967 6.46967L3.53033 7.53033L6.53033 4.53033L5.46967 3.46967ZM9 3.25H6V4.75H9V3.25ZM9.92127 4.86104C9.8082 4.58806 9.75 4.29547 9.75 4H8.25C8.25 4.49246 8.347 4.98009 8.53545 5.43506L9.92127 4.86104ZM10.409 5.59099C10.2001 5.38206 10.0343 5.13402 9.92127 4.86104L8.53545 5.43506C8.72391 5.89003 9.00013 6.30343 9.34835 6.65165L10.409 5.59099ZM11.139 6.07873C10.866 5.96566 10.6179 5.79992 10.409 5.59099L9.34835 6.65165C9.69657 6.99987 10.11 7.27609 10.5649 7.46455L11.139 6.07873ZM12 6.25C11.7045 6.25 11.4119 6.1918 11.139 6.07873L10.5649 7.46455C11.0199 7.653 11.5075 7.75 12 7.75V6.25ZM12.861 6.07873C12.5881 6.1918 12.2955 6.25 12 6.25V7.75C12.4925 7.75 12.9801 7.653 13.4351 7.46455L12.861 6.07873ZM13.591 5.59099C13.3821 5.79992 13.134 5.96566 12.861 6.07873L13.4351 7.46455C13.89 7.27609 14.3034 6.99987 14.6517 6.65165L13.591 5.59099ZM14.0787 4.86104C13.9657 5.13402 13.7999 5.38206 13.591 5.59099L14.6517 6.65165C14.9999 6.30343 15.2761 5.89003 15.4645 5.43506L14.0787 4.86104ZM14.25 4C14.25 4.29547 14.1918 4.58806 14.0787 4.86104L15.4645 5.43506C15.653 4.98009 15.75 4.49246 15.75 4H14.25ZM18 3.25H15V4.75H18V3.25ZM3.88587 12.6431L6.38587 11.1431L5.61413 9.85688L3.11413 11.3569L3.88587 12.6431ZM2.25372 7.07463L2.75372 12.0746L4.24628 11.9254L3.74628 6.92537L2.25372 7.07463Z" fill="#001A72"/>
</svg>
