<svg width="24" height="24" viewBox="0 0 24 24" fill="none" xmlns="http://www.w3.org/2000/svg">
<path d="M10 2.25C9.58579 2.25 9.25 2.58579 9.25 3C9.25 3.41421 9.58579 3.75 10 3.75V2.25ZM14 3.75C14.4142 3.75 14.75 3.41421 14.75 3C14.75 2.58579 14.4142 2.25 14 2.25V3.75ZM12.75 9C12.75 8.58579 12.4142 8.25 12 8.25C11.5858 8.25 11.25 8.58579 11.25 9H12.75ZM12 13H11.25C11.25 13.1989 11.329 13.3897 11.4697 13.5303L12 13ZM13.4697 15.5303C13.7626 15.8232 14.2374 15.8232 14.5303 15.5303C14.8232 15.2374 14.8232 14.7626 14.5303 14.4697L13.4697 15.5303ZM12 20.25C11.5858 20.25 11.25 20.5858 11.25 21C11.25 21.4142 11.5858 21.75 12 21.75V20.25ZM6.21205 19.5623C6.5226 19.8364 6.99656 19.8069 7.27066 19.4963C7.54475 19.1857 7.5152 18.7118 7.20465 18.4377L6.21205 19.5623ZM10 3.75H14V2.25H10V3.75ZM11.25 9V13H12.75V9H11.25ZM11.4697 13.5303L13.4697 15.5303L14.5303 14.4697L12.5303 12.4697L11.4697 13.5303ZM19.25 13C19.25 17.0041 16.0041 20.25 12 20.25V21.75C16.8325 21.75 20.75 17.8325 20.75 13H19.25ZM4.75 13C4.75 8.99594 7.99594 5.75 12 5.75V4.25C7.16751 4.25 3.25 8.16751 3.25 13H4.75ZM12 5.75C16.0041 5.75 19.25 8.99594 19.25 13H20.75C20.75 8.16751 16.8325 4.25 12 4.25V5.75ZM7.20465 18.4377C5.69827 17.1081 4.75 15.1653 4.75 13H3.25C3.25 15.6135 4.39675 17.9601 6.21205 19.5623L7.20465 18.4377Z" fill="#001A72"/>
</svg>
