<svg width="24" height="24" viewBox="0 0 24 24" fill="none" xmlns="http://www.w3.org/2000/svg">
<path d="M13 5.25C12.5858 5.25 12.25 5.58579 12.25 6C12.25 6.41421 12.5858 6.75 13 6.75V5.25ZM18 6H18.75C18.75 5.58579 18.4142 5.25 18 5.25V6ZM17.25 11C17.25 11.4142 17.5858 11.75 18 11.75C18.4142 11.75 18.75 11.4142 18.75 11H17.25ZM18 18V18.75C18.4142 18.75 18.75 18.4142 18.75 18H18ZM6 18H5.25C5.25 18.4142 5.58579 18.75 6 18.75V18ZM6 6V5.25C5.58579 5.25 5.25 5.58579 5.25 6H6ZM9 6.75C9.41421 6.75 9.75 6.41421 9.75 6C9.75 5.58579 9.41421 5.25 9 5.25V6.75ZM18.75 15C18.75 14.5858 18.4142 14.25 18 14.25C17.5858 14.25 17.25 14.5858 17.25 15H18.75ZM13 6.75H18V5.25H13V6.75ZM17.25 6V11H18.75V6H17.25ZM18 17.25H6V18.75H18V17.25ZM6.75 18V6H5.25V18H6.75ZM6 6.75H9V5.25H6V6.75ZM17.25 15V18H18.75V15H17.25Z" fill="#001A72"/>
</svg>
