<svg width="24" height="24" viewBox="0 0 24 24" fill="none" xmlns="http://www.w3.org/2000/svg">
<path d="M5.87357 19.1872C6.16647 18.8943 6.16647 18.4194 5.87357 18.1265C5.58068 17.8336 5.10581 17.8336 4.81291 18.1265L5.87357 19.1872ZM2.69159 20.2479C2.3987 20.5407 2.3987 21.0156 2.69159 21.3085C2.98449 21.6014 3.45936 21.6014 3.75225 21.3085L2.69159 20.2479ZM8.8787 17.9498L9.40903 18.4802C9.54969 18.3395 9.6287 18.1487 9.6287 17.9498C9.6287 17.7509 9.54969 17.5601 9.40903 17.4195L8.8787 17.9498ZM6.75738 20.0711L6.22705 20.6015C6.51995 20.8944 6.99482 20.8944 7.28771 20.6015L6.75738 20.0711ZM3.92896 17.2427L3.39862 16.7124C3.25797 16.853 3.17896 17.0438 3.17896 17.2427C3.17896 17.4416 3.25797 17.6324 3.39863 17.773L3.92896 17.2427ZM6.05028 15.1214L6.58061 14.5911C6.43995 14.4504 6.24919 14.3714 6.05028 14.3714C5.85136 14.3714 5.6606 14.4504 5.51995 14.5911L6.05028 15.1214ZM14.5356 5.22186L15.066 4.69153C14.7731 4.39864 14.2982 4.39864 14.0053 4.69153L14.5356 5.22186ZM18.7783 9.4645L19.3086 9.99483C19.6015 9.70194 19.6015 9.22707 19.3086 8.93417L18.7783 9.4645ZM9.40912 9.28773C9.11623 9.58062 9.11623 10.0555 9.40912 10.3484C9.70202 10.6413 10.1769 10.6413 10.4698 10.3484L9.40912 9.28773ZM16.7125 10.4696C16.4196 10.7625 16.4196 11.2374 16.7125 11.5303C17.0054 11.8232 17.4803 11.8232 17.7732 11.5303L16.7125 10.4696ZM9.5859 18.657L9.05557 19.1873C9.19622 19.3279 9.38699 19.407 9.5859 19.407C9.78481 19.407 9.97558 19.3279 10.1162 19.1873L9.5859 18.657ZM5.34326 14.4143L4.81293 13.884C4.52004 14.1769 4.52004 14.6517 4.81293 14.9446L5.34326 14.4143ZM7.2879 13.5303C7.5808 13.2374 7.5808 12.7626 7.2879 12.4697C6.99501 12.1768 6.52014 12.1768 6.22724 12.4697L7.2879 13.5303ZM15.5303 13.7732C15.8232 13.4803 15.8232 13.0054 15.5303 12.7125C15.2374 12.4196 14.7626 12.4196 14.4697 12.7125L15.5303 13.7732ZM16.1264 6.81291C15.8335 7.10581 15.8335 7.58068 16.1264 7.87357C16.4193 8.16647 16.8942 8.16647 17.1871 7.87357L16.1264 6.81291ZM17.1871 2.57026C16.8942 2.27736 16.4193 2.27736 16.1264 2.57025C15.8335 2.86315 15.8335 3.33802 16.1264 3.63091L17.1871 2.57026ZM20.369 7.87356C20.6619 8.16645 21.1368 8.16645 21.4297 7.87355C21.7226 7.58066 21.7226 7.10579 21.4297 6.81289L20.369 7.87356ZM4.81291 18.1265L2.69159 20.2479L3.75225 21.3085L5.87357 19.1872L4.81291 18.1265ZM8.34837 17.4195L6.22705 19.5408L7.28771 20.6015L9.40903 18.4802L8.34837 17.4195ZM7.28771 19.5408L4.45929 16.7124L3.39863 17.773L6.22705 20.6015L7.28771 19.5408ZM4.45929 17.773L6.58061 15.6517L5.51995 14.5911L3.39862 16.7124L4.45929 17.773ZM14.0053 5.75219L18.248 9.99483L19.3086 8.93417L15.066 4.69153L14.0053 5.75219ZM10.4698 10.3484L15.066 5.75219L14.0053 4.69153L9.40912 9.28773L10.4698 10.3484ZM18.248 8.93417L16.7125 10.4696L17.7732 11.5303L19.3086 9.99483L18.248 8.93417ZM10.1162 18.1266L5.87359 13.884L4.81293 14.9446L9.05557 19.1873L10.1162 18.1266ZM5.51995 15.6517L8.34837 18.4802L9.40903 17.4195L6.58061 14.5911L5.51995 15.6517ZM5.87359 14.9446L7.2879 13.5303L6.22724 12.4697L4.81293 13.884L5.87359 14.9446ZM14.4697 12.7125L9.05557 18.1266L10.1162 19.1873L15.5303 13.7732L14.4697 12.7125ZM18.2477 4.69159L16.1264 6.81291L17.1871 7.87357L19.3084 5.75225L18.2477 4.69159ZM19.3084 4.6916L17.1871 2.57026L16.1264 3.63091L18.2477 5.75225L19.3084 4.6916ZM18.2477 5.75226L20.369 7.87356L21.4297 6.81289L19.3084 4.69159L18.2477 5.75226Z" fill="#001A72"/>
</svg>
