<svg width="24" height="24" viewBox="0 0 24 24" fill="none" xmlns="http://www.w3.org/2000/svg">
<path d="M9.19807 4.45825L9.45553 3.75382L9.45553 3.75382L9.19807 4.45825ZM4.83441 12.1093L4.14168 12.3968H4.14168L4.83441 12.1093ZM5.5 14L6.22761 13.8181L5.5 14ZM19.25 8.5C19.25 8.91421 19.5858 9.25 20 9.25C20.4142 9.25 20.75 8.91421 20.75 8.5H19.25ZM14.8019 4.45825L14.5445 3.75382L14.5445 3.75382L14.8019 4.45825ZM4.91567 15.0799C4.95982 15.4918 5.32948 15.7899 5.74134 15.7457C6.15319 15.7016 6.45128 15.3319 6.40713 14.9201L4.91567 15.0799ZM9.22655 18.0285L9.94905 18.2298L9.22655 18.0285ZM14.7735 18.0285L14.051 18.2298L14.7735 18.0285ZM18.2268 16.3755L18.975 16.4277L18.2268 16.3755ZM18.5 14L17.7724 13.8181V13.8181L18.5 14ZM19.8583 12.3968C20.0171 12.0142 19.8357 11.5753 19.4531 11.4166C19.0705 11.2578 18.6317 11.4393 18.4729 11.8219L19.8583 12.3968ZM6.79035 18.8587C6.71234 18.4519 6.31932 18.1854 5.91252 18.2634C5.50572 18.3414 5.23918 18.7344 5.31719 19.1412L6.79035 18.8587ZM7 4.75C7.80403 4.75 8.30875 4.93173 8.94061 5.16267L9.45553 3.75382C8.7996 3.51409 8.08451 3.25 7 3.25V4.75ZM4.75 8.5C4.75 7.33474 4.98539 6.36102 5.38874 5.70557C5.77322 5.08081 6.2981 4.75 7 4.75V3.25C5.7019 3.25 4.72678 3.91919 4.11126 4.91943C3.51461 5.88898 3.25 7.16526 3.25 8.5H4.75ZM5.52713 11.8219C5.10851 10.813 4.75 9.94269 4.75 8.5H3.25C3.25 10.2544 3.70918 11.3545 4.14168 12.3968L5.52713 11.8219ZM6.22761 13.8181C6.03212 13.0362 5.76607 12.3977 5.52713 11.8219L4.14168 12.3968C4.38273 12.9777 4.60729 13.5215 4.77239 14.1819L6.22761 13.8181ZM20.75 8.5C20.75 7.16526 20.4854 5.88898 19.8887 4.91943C19.2732 3.91919 18.2981 3.25 17 3.25V4.75C17.7019 4.75 18.2268 5.08081 18.6113 5.70557C19.0146 6.36102 19.25 7.33474 19.25 8.5H20.75ZM17 3.25C15.9155 3.25 15.2004 3.51409 14.5445 3.75382L15.0594 5.16267C15.6913 4.93173 16.196 4.75 17 4.75V3.25ZM14.5445 3.75382C13.8514 4.00713 13.1875 4.25 12 4.25V5.75C13.4518 5.75 14.3127 5.43559 15.0594 5.16267L14.5445 3.75382ZM8.94061 5.16267C9.68733 5.43559 10.5482 5.75 12 5.75V4.25C10.8125 4.25 10.1486 4.00713 9.45553 3.75382L8.94061 5.16267ZM6.40713 14.9201C6.36526 14.5295 6.31034 14.149 6.22761 13.8181L4.77239 14.1819C4.83035 14.4137 4.87653 14.7148 4.91567 15.0799L6.40713 14.9201ZM8.50405 17.8273C8.28085 18.6287 8.0919 19.2974 7.86256 19.7717C7.74973 20.0051 7.65189 20.1367 7.57956 20.2034C7.52238 20.2561 7.5042 20.25 7.50003 20.25V21.75C8.42208 21.75 8.93112 21.0077 9.21301 20.4247C9.51376 19.8026 9.73858 18.9855 9.94905 18.2298L8.50405 17.8273ZM12 13.25C10.7725 13.25 10.0118 14.0678 9.53516 14.9392C9.06483 15.7989 8.76292 16.8978 8.50405 17.8273L9.94905 18.2298C10.2213 17.2522 10.4804 16.3368 10.8511 15.659C11.2155 14.9929 11.576 14.75 12 14.75V13.25ZM12 14.75C12.424 14.75 12.7845 14.9929 13.1489 15.659C13.5197 16.3368 13.7787 17.2522 14.051 18.2298L15.496 17.8273C15.2371 16.8978 14.9352 15.7989 14.4649 14.9392C13.9882 14.0678 13.2275 13.25 12 13.25V14.75ZM14.051 18.2298C14.2615 18.9855 14.4863 19.8026 14.787 20.4247C15.0689 21.0077 15.578 21.75 16.5 21.75V20.25C16.4959 20.25 16.4777 20.2561 16.4205 20.2034C16.3482 20.1367 16.2503 20.0051 16.1375 19.7717C15.9082 19.2974 15.7192 18.6287 15.496 17.8273L14.051 18.2298ZM16.5 21.75C17.1098 21.75 17.5864 21.467 17.9222 21.0552C18.2354 20.6712 18.4277 20.1778 18.5578 19.692C18.8179 18.7213 18.9012 17.4845 18.975 16.4277L17.4786 16.3233C17.4016 17.4269 17.3236 18.5025 17.1089 19.3039C17.0017 19.7041 16.8783 19.9618 16.7597 20.1072C16.6637 20.225 16.5922 20.25 16.5 20.25V21.75ZM18.975 16.4277C19.041 15.4825 19.0984 14.6987 19.2276 14.1819L17.7724 13.8181C17.6036 14.4933 17.5407 15.4343 17.4786 16.3233L18.975 16.4277ZM19.2276 14.1819C19.3927 13.5215 19.6173 12.9777 19.8583 12.3968L18.4729 11.8219C18.234 12.3977 17.9679 13.0362 17.7724 13.8181L19.2276 14.1819ZM7.50003 20.25C7.40474 20.25 7.31004 20.225 7.17887 20.0221C7.02725 19.7875 6.8944 19.4013 6.79035 18.8587L5.31719 19.1412C5.43265 19.7433 5.60933 20.3571 5.91915 20.8364C6.24943 21.3473 6.76811 21.75 7.50003 21.75V20.25Z" fill="#001A72"/>
</svg>
