<svg width="24" height="24" viewBox="0 0 24 24" fill="none" xmlns="http://www.w3.org/2000/svg">
<path d="M12.75 15C12.75 14.5858 12.4142 14.25 12 14.25C11.5858 14.25 11.25 14.5858 11.25 15H12.75ZM11.25 21C11.25 21.4142 11.5858 21.75 12 21.75C12.4142 21.75 12.75 21.4142 12.75 21H11.25ZM20 12L19.6646 12.6708C19.8971 12.7871 20.1732 12.7746 20.3943 12.638C20.6154 12.5013 20.75 12.2599 20.75 12H20ZM17.6569 6.34315L17.1265 6.87348L17.6569 6.34315ZM6.87348 6.87348C7.16637 6.58058 7.16637 6.10571 6.87348 5.81282C6.58058 5.51992 6.10571 5.51992 5.81282 5.81281L6.87348 6.87348ZM4 12H3.25C3.25 12.2599 3.38459 12.5013 3.6057 12.638C3.82681 12.7746 4.10292 12.7871 4.33541 12.6708L4 12ZM10 11L10.3354 10.3292C10.1243 10.2236 9.87574 10.2236 9.66459 10.3292L10 11ZM12 12L11.6646 12.6708C11.8757 12.7764 12.1243 12.7764 12.3354 12.6708L12 12ZM14 11L14.3354 10.3292C14.1243 10.2236 13.8757 10.2236 13.6646 10.3292L14 11ZM16 12L15.6646 12.6708C15.8757 12.7764 16.1243 12.7764 16.3354 12.6708L16 12ZM18 11L18.3354 10.3292C18.1243 10.2236 17.8757 10.2236 17.6646 10.3292L18 11ZM8 12L7.66459 12.6708C7.87574 12.7764 8.12426 12.7764 8.33541 12.6708L8 12ZM6 11L6.33541 10.3292C6.12426 10.2236 5.87574 10.2236 5.66459 10.3292L6 11ZM9.81248 3.52783C9.41142 3.6314 9.17026 4.04047 9.27382 4.44153C9.37739 4.84259 9.78646 5.08375 10.1875 4.98019L9.81248 3.52783ZM12.75 3C12.75 2.58579 12.4142 2.25 12 2.25C11.5858 2.25 11.25 2.58579 11.25 3H12.75ZM11.25 15V21H12.75V15H11.25ZM20.75 12C20.75 9.67936 19.8281 7.45376 18.1872 5.81282L17.1265 6.87348C18.4862 8.23311 19.25 10.0772 19.25 12H20.75ZM18.1872 5.81282C16.5462 4.17187 14.3206 3.25 12 3.25V4.75C13.9228 4.75 15.7669 5.51384 17.1265 6.87348L18.1872 5.81282ZM5.81282 5.81281C4.17187 7.45376 3.25 9.67935 3.25 12H4.75C4.75 10.0772 5.51384 8.23311 6.87348 6.87348L5.81282 5.81281ZM9.66459 11.6708L11.6646 12.6708L12.3354 11.3292L10.3354 10.3292L9.66459 11.6708ZM12.3354 12.6708L14.3354 11.6708L13.6646 10.3292L11.6646 11.3292L12.3354 12.6708ZM13.6646 11.6708L15.6646 12.6708L16.3354 11.3292L14.3354 10.3292L13.6646 11.6708ZM16.3354 12.6708L18.3354 11.6708L17.6646 10.3292L15.6646 11.3292L16.3354 12.6708ZM17.6646 11.6708L19.6646 12.6708L20.3354 11.3292L18.3354 10.3292L17.6646 11.6708ZM8.33541 12.6708L10.3354 11.6708L9.66459 10.3292L7.66459 11.3292L8.33541 12.6708ZM4.33541 12.6708L6.33541 11.6708L5.66459 10.3292L3.66459 11.3292L4.33541 12.6708ZM5.66459 11.6708L7.66459 12.6708L8.33541 11.3292L6.33541 10.3292L5.66459 11.6708ZM12 3.25C11.2557 3.25 10.5211 3.34484 9.81248 3.52783L10.1875 4.98019C10.7746 4.82858 11.3832 4.75 12 4.75V3.25ZM11.25 3V4H12.75V3H11.25Z" fill="#001A72"/>
</svg>
