<svg width="24" height="24" viewBox="0 0 24 24" fill="none" xmlns="http://www.w3.org/2000/svg">
<path d="M12 3.25C11.5858 3.25 11.25 3.58579 11.25 4C11.25 4.41421 11.5858 4.75 12 4.75V3.25ZM17 10H16.25C16.25 10.4142 16.5858 10.75 17 10.75V10ZM18.6245 16.8508C18.2659 17.0582 18.1434 17.517 18.3508 17.8755C18.5582 18.2341 19.017 18.3566 19.3755 18.1492L18.6245 16.8508ZM8.59931 6.45043C8.84808 6.11924 8.78126 5.64909 8.45007 5.40033C8.11888 5.15156 7.64873 5.21838 7.39996 5.54957L8.59931 6.45043ZM8.00775 10.9091C8.40159 11.0374 8.82487 10.8221 8.95317 10.4282C9.08147 10.0344 8.86621 9.61112 8.47237 9.48282L8.00775 10.9091ZM4.62446 18.1492C4.983 18.3566 5.4418 18.2341 5.6492 17.8755C5.85661 17.517 5.73409 17.0582 5.37554 16.8508L4.62446 18.1492ZM12 12L12.5303 11.4697C12.2374 11.1768 11.7626 11.1768 11.4697 11.4697L12 12ZM11.25 21C11.25 21.4142 11.5858 21.75 12 21.75C12.4142 21.75 12.75 21.4142 12.75 21H11.25ZM14.4697 15.5303C14.7626 15.8232 15.2374 15.8232 15.5303 15.5303C15.8232 15.2374 15.8232 14.7626 15.5303 14.4697L14.4697 15.5303ZM8.46967 14.4697C8.17678 14.7626 8.17678 15.2374 8.46967 15.5303C8.76256 15.8232 9.23744 15.8232 9.53033 15.5303L8.46967 14.4697ZM12 4.75C14.3472 4.75 16.25 6.65279 16.25 9H17.75C17.75 5.82436 15.1756 3.25 12 3.25V4.75ZM16.25 9V10H17.75V9H16.25ZM6.25 9V10H7.75V9H6.25ZM17 10.75C18.7949 10.75 20.25 12.2051 20.25 14H21.75C21.75 11.3766 19.6234 9.25 17 9.25V10.75ZM20.25 14C20.25 15.2093 19.5914 16.2915 18.6245 16.8508L19.3755 18.1492C20.7998 17.3253 21.75 15.7518 21.75 14H20.25ZM7.75 9C7.75 8.04237 8.06583 7.16067 8.59931 6.45043L7.39996 5.54957C6.67806 6.51065 6.25 7.70642 6.25 9H7.75ZM3.75 14C3.75 12.2051 5.20507 10.75 7 10.75V9.25C4.37665 9.25 2.25 11.3766 2.25 14H3.75ZM7 10.75C7.353 10.75 7.69143 10.806 8.00775 10.9091L8.47237 9.48282C8.00786 9.3315 7.51271 9.25 7 9.25V10.75ZM5.37554 16.8508C4.40861 16.2915 3.75 15.2093 3.75 14H2.25C2.25 15.7518 3.20018 17.3253 4.62446 18.1492L5.37554 16.8508ZM11.25 12V21H12.75V12H11.25ZM15.5303 14.4697L12.5303 11.4697L11.4697 12.5303L14.4697 15.5303L15.5303 14.4697ZM11.4697 11.4697L8.46967 14.4697L9.53033 15.5303L12.5303 12.5303L11.4697 11.4697Z" fill="#001A72"/>
</svg>
