<svg width="24" height="24" viewBox="0 0 24 24" fill="none" xmlns="http://www.w3.org/2000/svg">
<path d="M7.53033 14.4697C7.23744 14.1768 6.76256 14.1768 6.46967 14.4697C6.17678 14.7626 6.17678 15.2374 6.46967 15.5303L7.53033 14.4697ZM12 20L11.4697 20.5303C11.6103 20.671 11.8011 20.75 12 20.75C12.1989 20.75 12.3897 20.671 12.5303 20.5303L12 20ZM17.5303 15.5303C17.8232 15.2374 17.8232 14.7626 17.5303 14.4697C17.2374 14.1768 16.7626 14.1768 16.4697 14.4697L17.5303 15.5303ZM10.0303 7.03033C10.3232 6.73744 10.3232 6.26256 10.0303 5.96967C9.73744 5.67678 9.26256 5.67678 8.96967 5.96967L10.0303 7.03033ZM6.46967 8.46967C6.17678 8.76256 6.17678 9.23744 6.46967 9.53033C6.76256 9.82322 7.23744 9.82322 7.53033 9.53033L6.46967 8.46967ZM16.4697 9.53033C16.7626 9.82322 17.2374 9.82322 17.5303 9.53033C17.8232 9.23744 17.8232 8.76256 17.5303 8.46967L16.4697 9.53033ZM12.5303 3.46967C12.2374 3.17678 11.7626 3.17678 11.4697 3.46967C11.1768 3.76256 11.1768 4.23744 11.4697 4.53033L12.5303 3.46967ZM6.46967 15.5303L11.4697 20.5303L12.5303 19.4697L7.53033 14.4697L6.46967 15.5303ZM12.5303 20.5303L17.5303 15.5303L16.4697 14.4697L11.4697 19.4697L12.5303 20.5303ZM8.96967 5.96967L6.46967 8.46967L7.53033 9.53033L10.0303 7.03033L8.96967 5.96967ZM17.5303 8.46967L12.5303 3.46967L11.4697 4.53033L16.4697 9.53033L17.5303 8.46967Z" fill="#001A72"/>
</svg>
