<svg width="24" height="24" viewBox="0 0 24 24" fill="none" xmlns="http://www.w3.org/2000/svg">
<path d="M4 20.75C4.41421 20.75 4.75 20.4142 4.75 20C4.75 19.5858 4.41421 19.25 4 19.25V20.75ZM9 19.25C8.58579 19.25 8.25 19.5858 8.25 20C8.25 20.4142 8.58579 20.75 9 20.75V19.25ZM17 12.75C17.4142 12.75 17.75 12.4142 17.75 12C17.75 11.5858 17.4142 11.25 17 11.25V12.75ZM3 11.25C2.58579 11.25 2.25 11.5858 2.25 12C2.25 12.4142 2.58579 12.75 3 12.75V11.25ZM9.25 9C9.25 9.41421 9.58579 9.75 10 9.75C10.4142 9.75 10.75 9.41421 10.75 9H9.25ZM11 3.75C11.4142 3.75 11.75 3.41421 11.75 3C11.75 2.58579 11.4142 2.25 11 2.25V3.75ZM20 11.25C19.5858 11.25 19.25 11.5858 19.25 12C19.25 12.4142 19.5858 12.75 20 12.75V11.25ZM15 2.25C14.5858 2.25 14.25 2.58579 14.25 3C14.25 3.41421 14.5858 3.75 15 3.75V2.25ZM21 6.75C21.4142 6.75 21.75 6.41421 21.75 6C21.75 5.58579 21.4142 5.25 21 5.25V6.75ZM10 5.25C9.58579 5.25 9.25 5.58579 9.25 6C9.25 6.41421 9.58579 6.75 10 6.75V5.25ZM4 9.75H16V8.25H4V9.75ZM16.25 10V19H17.75V10H16.25ZM3.75 19V10H2.25V19H3.75ZM4 19.25C3.86193 19.25 3.75 19.1381 3.75 19H2.25C2.25 19.9665 3.0335 20.75 4 20.75V19.25ZM16.25 19C16.25 19.1381 16.1381 19.25 16 19.25V20.75C16.9665 20.75 17.75 19.9665 17.75 19H16.25ZM16 9.75C16.1381 9.75 16.25 9.86193 16.25 10H17.75C17.75 9.0335 16.9665 8.25 16 8.25V9.75ZM4 8.25C3.0335 8.25 2.25 9.0335 2.25 10H3.75C3.75 9.86193 3.86193 9.75 4 9.75V8.25ZM16 19.25H9V20.75H16V19.25ZM17 11.25H3V12.75H17V11.25ZM10.75 9V4H9.25V9H10.75ZM11 2.25C10.0335 2.25 9.25 3.0335 9.25 4H10.75C10.75 3.86193 10.8619 3.75 11 3.75V2.25ZM20.25 4V11H21.75V4H20.25ZM20.25 11C20.25 11.1381 20.1381 11.25 20 11.25V12.75C20.9665 12.75 21.75 11.9665 21.75 11H20.25ZM20 3.75C20.1381 3.75 20.25 3.86193 20.25 4H21.75C21.75 3.0335 20.9665 2.25 20 2.25V3.75ZM15 3.75H20V2.25H15V3.75ZM21 5.25H10V6.75H21V5.25Z" fill="#001A72"/>
</svg>
