<svg width="24" height="24" viewBox="0 0 24 24" fill="none" xmlns="http://www.w3.org/2000/svg">
<path d="M19.4316 14.3389L18.7403 14.6299L19.4316 14.3389ZM4.56842 14.3389L5.25965 14.6299L4.56842 14.3389ZM9.75 17.5C9.75 17.0858 9.41421 16.75 9 16.75C8.58579 16.75 8.25 17.0858 8.25 17.5H9.75ZM15.75 17.5C15.75 17.0858 15.4142 16.75 15 16.75C14.5858 16.75 14.25 17.0858 14.25 17.5H15.75ZM6.74999 8.5C6.74999 7.07077 7.31753 6.04237 8.21483 5.35168C9.13534 4.64311 10.4597 4.25 12 4.25V2.75C10.2266 2.75 8.55093 3.20004 7.29987 4.16304C6.02559 5.14392 5.24999 6.61553 5.24999 8.5H6.74999ZM12 4.25C13.5403 4.25 14.8646 4.64311 15.7852 5.35168C16.6824 6.04237 17.25 7.07077 17.25 8.5H18.75C18.75 6.61553 17.9744 5.14392 16.7001 4.16304C15.4491 3.20004 13.7734 2.75 12 2.75V4.25ZM5.24999 8.5C5.24999 10.2862 4.59286 12.348 3.87718 14.0479L5.25965 14.6299C5.997 12.8786 6.74999 10.5921 6.74999 8.5H5.24999ZM6.53237 18.25H17.4676V16.75H6.53237V18.25ZM20.1228 14.0479C19.4071 12.348 18.75 10.2862 18.75 8.5H17.25C17.25 10.5921 18.003 12.8786 18.7403 14.6299L20.1228 14.0479ZM17.4676 18.25C19.6287 18.25 20.9062 15.9087 20.1228 14.0479L18.7403 14.6299C19.1633 15.6347 18.4157 16.75 17.4676 16.75V18.25ZM3.87718 14.0479C3.09374 15.9087 4.3713 18.25 6.53237 18.25V16.75C5.58426 16.75 4.83663 15.6347 5.25965 14.6299L3.87718 14.0479ZM14.25 18.5C14.25 19.1008 14.0182 19.5042 13.6638 19.777C13.2862 20.0677 12.7119 20.25 12 20.25V21.75C12.945 21.75 13.8706 21.5107 14.5788 20.9656C15.3102 20.4027 15.75 19.556 15.75 18.5H14.25ZM12 20.25C11.2881 20.25 10.7138 20.0677 10.3362 19.777C9.98175 19.5042 9.75 19.1008 9.75 18.5H8.25C8.25 19.556 8.68982 20.4027 9.4212 20.9656C10.1294 21.5107 11.055 21.75 12 21.75V20.25ZM9.75 18.5V17.5H8.25V18.5H9.75ZM15.75 18.5V17.5H14.25V18.5H15.75Z" fill="#001A72"/>
</svg>
