<svg width="24" height="24" viewBox="0 0 24 24" fill="none" xmlns="http://www.w3.org/2000/svg">
<path d="M20.75 12C20.75 11.5858 20.4142 11.25 20 11.25C19.5858 11.25 19.25 11.5858 19.25 12H20.75ZM19.25 18.5C19.25 18.9142 19.5858 19.25 20 19.25C20.4142 19.25 20.75 18.9142 20.75 18.5H19.25ZM20.75 21C20.75 20.5858 20.4142 20.25 20 20.25C19.5858 20.25 19.25 20.5858 19.25 21H20.75ZM19.25 21.01C19.25 21.4242 19.5858 21.76 20 21.76C20.4142 21.76 20.75 21.4242 20.75 21.01H19.25ZM15.75 2.5C15.75 2.08579 15.4142 1.75 15 1.75C14.5858 1.75 14.25 2.08579 14.25 2.5H15.75ZM14.25 6.5C14.25 6.91421 14.5858 7.25 15 7.25C15.4142 7.25 15.75 6.91421 15.75 6.5H14.25ZM9.75 2.5C9.75 2.08579 9.41421 1.75 9 1.75C8.58579 1.75 8.25 2.08579 8.25 2.5H9.75ZM8.25 6.5C8.25 6.91421 8.58579 7.25 9 7.25C9.41421 7.25 9.75 6.91421 9.75 6.5H8.25ZM15 12.25C15.4142 12.25 15.75 11.9142 15.75 11.5C15.75 11.0858 15.4142 10.75 15 10.75V12.25ZM15.1143 21.546C15.5237 21.4829 15.8044 21.0998 15.7412 20.6904C15.6781 20.2811 15.295 20.0004 14.8857 20.0635L15.1143 21.546ZM19.2823 8.34291C19.4024 8.7393 19.8212 8.96322 20.2176 8.84304C20.614 8.72286 20.8379 8.3041 20.7177 7.9077L19.2823 8.34291ZM19.25 12V18.5H20.75V12H19.25ZM19.25 21V21.01H20.75V21H19.25ZM14.25 2.5V6.5H15.75V2.5H14.25ZM8.25 2.5V6.5H9.75V2.5H8.25ZM15 10.75H3.51733V12.25H15V10.75ZM12 20.25C8.77793 20.25 6.92793 19.7423 5.84283 18.6572C4.75773 17.5721 4.25 15.7221 4.25 12.5H2.75C2.75 15.7779 3.24227 18.1779 4.78217 19.7178C6.32207 21.2577 8.72207 21.75 12 21.75V20.25ZM4.25 12.5C4.25 12.1621 4.2555 11.8381 4.26684 11.5274L2.76783 11.4726C2.75576 11.8036 2.75 12.146 2.75 12.5H4.25ZM4.26684 11.5274C4.36893 8.72971 4.93852 7.12458 6.02334 6.17382C7.12931 5.20452 8.95184 4.75 12 4.75V3.25C8.89412 3.25 6.57945 3.69187 5.03467 5.04576C3.46873 6.41819 2.87401 8.56306 2.76783 11.4726L4.26684 11.5274ZM14.8857 20.0635C14.0626 20.1905 13.1075 20.25 12 20.25V21.75C13.1568 21.75 14.1928 21.6882 15.1143 21.546L14.8857 20.0635ZM12 4.75C14.3271 4.75 15.9516 5.01414 17.086 5.58213C18.1712 6.1255 18.8684 6.97771 19.2823 8.34291L20.7177 7.9077C20.201 6.20317 19.2592 4.99273 17.7576 4.24087C16.3052 3.51364 14.3951 3.25 12 3.25V4.75Z" fill="#001A72"/>
</svg>
