<svg width="24" height="24" viewBox="0 0 24 24" fill="none" xmlns="http://www.w3.org/2000/svg">
<path d="M21 17L20.6727 17.6748C20.8759 17.7734 21.1128 17.7751 21.3175 17.6795C21.5222 17.5839 21.6728 17.4011 21.7276 17.1819L21 17ZM21 7L21.7276 6.8181C21.6728 6.59893 21.5222 6.41613 21.3175 6.32051C21.1128 6.22488 20.8759 6.2266 20.6727 6.32521L21 7ZM3.77778 5.77778L3.24745 5.24745L3.24745 5.24745L3.77778 5.77778ZM16.2222 5.77778L16.7526 5.24745V5.24745L16.2222 5.77778ZM3.77778 18.2222L3.24745 18.7526H3.24745L3.77778 18.2222ZM16.5499 15.6748L20.6727 17.6748L21.3274 16.3252L17.2046 14.3252L16.5499 15.6748ZM20.6727 6.32521L16.5499 8.32521L17.2046 9.67479L21.3274 7.67479L20.6727 6.32521ZM21 17C21.7276 17.1819 21.7277 17.1818 21.7277 17.1816C21.7277 17.1816 21.7277 17.1814 21.7278 17.1813C21.7278 17.1811 21.7279 17.1808 21.728 17.1805C21.7281 17.18 21.7283 17.1792 21.7285 17.1784C21.7289 17.1768 21.7294 17.1746 21.7301 17.172C21.7313 17.1668 21.7331 17.1596 21.7352 17.1505C21.7396 17.1324 21.7456 17.1066 21.7531 17.0734C21.7681 17.0071 21.7889 16.9112 21.8136 16.7877C21.863 16.5408 21.9279 16.1834 21.9925 15.7311C22.1216 14.827 22.25 13.5411 22.25 12H20.75C20.75 13.4589 20.6284 14.673 20.5075 15.5189C20.4472 15.9416 20.3871 16.2717 20.3427 16.4935C20.3205 16.6044 20.3023 16.6882 20.2899 16.743C20.2837 16.7704 20.279 16.7905 20.276 16.8031C20.2745 16.8094 20.2735 16.8138 20.2728 16.8163C20.2725 16.8176 20.2723 16.8184 20.2723 16.8187C20.2722 16.8188 20.2722 16.8188 20.2722 16.8187C20.2723 16.8187 20.2723 16.8186 20.2723 16.8185C20.2723 16.8185 20.2723 16.8184 20.2723 16.8183C20.2724 16.8182 20.2724 16.8181 21 17ZM22.25 12C22.25 10.4589 22.1216 9.17305 21.9925 8.26893C21.9279 7.81664 21.863 7.45918 21.8136 7.21229C21.7889 7.08882 21.7681 6.99294 21.7531 6.9266C21.7456 6.89343 21.7396 6.86764 21.7352 6.84948C21.7331 6.8404 21.7313 6.83322 21.7301 6.82798C21.7294 6.82536 21.7289 6.82322 21.7285 6.82158C21.7283 6.82075 21.7281 6.82005 21.728 6.81947C21.7279 6.81918 21.7278 6.81892 21.7278 6.81869C21.7277 6.81858 21.7277 6.81843 21.7277 6.81837C21.7277 6.81823 21.7276 6.8181 21 7C20.2724 7.1819 20.2724 7.18178 20.2723 7.18167C20.2723 7.18165 20.2723 7.18154 20.2723 7.18149C20.2723 7.18138 20.2723 7.18131 20.2722 7.18126C20.2722 7.18117 20.2722 7.1812 20.2723 7.18135C20.2723 7.18164 20.2725 7.18242 20.2728 7.18368C20.2735 7.18619 20.2745 7.19061 20.276 7.19691C20.279 7.20951 20.2837 7.22962 20.2899 7.25699C20.3023 7.31175 20.3205 7.39555 20.3427 7.50646C20.3871 7.72832 20.4472 8.05836 20.5075 8.48107C20.6284 9.32695 20.75 10.5411 20.75 12H22.25ZM4.30811 6.30811C4.24733 6.36889 4.21736 6.36581 4.31159 6.32751C4.38633 6.29713 4.50106 6.25982 4.66136 6.21906C4.98044 6.13794 5.42242 6.05754 5.96506 5.98676C7.04705 5.84563 8.47269 5.75 10 5.75V4.25C8.4162 4.25 6.92518 4.34882 5.77105 4.49936C5.19564 4.57441 4.6897 4.66414 4.29176 4.76531C4.09356 4.8157 3.9075 4.87258 3.74679 4.9379C3.60556 4.9953 3.40545 5.08945 3.24745 5.24745L4.30811 6.30811ZM10 5.75C11.5273 5.75 12.953 5.84563 14.0349 5.98676C14.5776 6.05754 15.0196 6.13794 15.3386 6.21906C15.4989 6.25982 15.6137 6.29713 15.6884 6.32751C15.7826 6.36581 15.7527 6.36889 15.6919 6.30811L16.7526 5.24745C16.5946 5.08945 16.3944 4.9953 16.2532 4.9379C16.0925 4.87258 15.9064 4.8157 15.7082 4.76531C15.3103 4.66414 14.8044 4.57441 14.2289 4.49936C13.0748 4.34882 11.5838 4.25 10 4.25V5.75ZM15.6919 17.6919C15.7527 17.6311 15.7826 17.6342 15.6884 17.6725C15.6137 17.7029 15.4989 17.7402 15.3386 17.7809C15.0196 17.8621 14.5776 17.9425 14.0349 18.0132C12.953 18.1544 11.5273 18.25 10 18.25V19.75C11.5838 19.75 13.0748 19.6512 14.2289 19.5006C14.8044 19.4256 15.3103 19.3359 15.7082 19.2347C15.9064 19.1843 16.0925 19.1274 16.2532 19.0621C16.3944 19.0047 16.5946 18.9106 16.7526 18.7526L15.6919 17.6919ZM10 18.25C8.47269 18.25 7.04705 18.1544 5.96506 18.0132C5.42242 17.9425 4.98044 17.8621 4.66136 17.7809C4.50106 17.7402 4.38633 17.7029 4.31159 17.6725C4.21736 17.6342 4.24733 17.6311 4.30811 17.6919L3.24745 18.7526C3.40545 18.9106 3.60556 19.0047 3.74679 19.0621C3.9075 19.1274 4.09356 19.1843 4.29176 19.2347C4.6897 19.3359 5.19564 19.4256 5.77105 19.5006C6.92518 19.6512 8.4162 19.75 10 19.75V18.25ZM4.30811 17.6919C4.36889 17.7527 4.36581 17.7826 4.32751 17.6884C4.29713 17.6137 4.25982 17.4989 4.21906 17.3386C4.13794 17.0196 4.05754 16.5776 3.98676 16.0349C3.84563 14.953 3.75 13.5273 3.75 12H2.25C2.25 13.5838 2.34882 15.0748 2.49936 16.2289C2.57441 16.8044 2.66414 17.3103 2.76531 17.7082C2.8157 17.9064 2.87258 18.0925 2.9379 18.2532C2.9953 18.3944 3.08945 18.5946 3.24745 18.7526L4.30811 17.6919ZM3.75 12C3.75 10.4727 3.84563 9.04705 3.98676 7.96506C4.05754 7.42242 4.13794 6.98044 4.21906 6.66136C4.25982 6.50106 4.29713 6.38633 4.32751 6.31159C4.36581 6.21736 4.36889 6.24733 4.30811 6.30811L3.24745 5.24745C3.08945 5.40545 2.9953 5.60556 2.9379 5.74679C2.87258 5.9075 2.8157 6.09356 2.76531 6.29176C2.66414 6.6897 2.57441 7.19564 2.49936 7.77105C2.34882 8.92518 2.25 10.4162 2.25 12H3.75ZM16.25 12C16.25 13.0521 16.2046 14.0574 16.1299 14.9365L17.6245 15.0635C17.7029 14.1413 17.75 13.0936 17.75 12H16.25ZM16.1299 14.9365C16.0587 15.7741 15.9619 16.4854 15.8557 17.0079C15.8024 17.2705 15.7497 17.4701 15.7023 17.6081C15.643 17.7807 15.6238 17.76 15.6919 17.6919L16.7526 18.7526C16.9481 18.557 17.0562 18.2838 17.1209 18.0957C17.1974 17.8729 17.2653 17.6038 17.3257 17.3065C17.447 16.7094 17.5503 15.937 17.6245 15.0635L16.1299 14.9365ZM15.6919 6.30811C15.6238 6.23998 15.643 6.2193 15.7023 6.39191C15.7497 6.52985 15.8024 6.72952 15.8557 6.99208C15.9619 7.51456 16.0587 8.22588 16.1299 9.06351L17.6245 8.93649C17.5503 8.06303 17.447 7.29063 17.3257 6.69347C17.2653 6.39621 17.1974 6.12708 17.1209 5.90433C17.0562 5.71624 16.9481 5.44297 16.7526 5.24745L15.6919 6.30811ZM16.1299 9.06351C16.2046 9.94255 16.25 10.9479 16.25 12H17.75C17.75 10.9064 17.7029 9.85865 17.6245 8.93649L16.1299 9.06351Z" fill="#001A72"/>
</svg>
