<svg width="24" height="24" viewBox="0 0 24 24" fill="none" xmlns="http://www.w3.org/2000/svg">
<path d="M4.00001 5.77778L3.53955 5.18576V5.18576L4.00001 5.77778ZM20 5.77778L20.4605 5.18576V5.18576L20 5.77778ZM20 18.2222L20.4605 18.8142L20 18.2222ZM2.55029 7.88183C2.48503 8.29087 2.76372 8.67537 3.17276 8.74063C3.5818 8.80589 3.9663 8.52721 4.03156 8.11817L2.55029 7.88183ZM13.9757 18.2181C13.5617 18.2315 13.237 18.578 13.2504 18.992C13.2638 19.406 13.6103 19.7307 14.0243 19.7173L13.9757 18.2181ZM3.0829 10.2546C2.67123 10.2088 2.30038 10.5054 2.2546 10.9171C2.20881 11.3288 2.50542 11.6996 2.9171 11.7454L3.0829 10.2546ZM8.36911 13.5809L8.89944 13.0506L8.36911 13.5809ZM10.2046 19.0329C10.2504 19.4446 10.6212 19.7412 11.0329 19.6954C11.4446 19.6496 11.7412 19.2788 11.6954 18.8671L10.2046 19.0329ZM3.14987 14.3151C2.74401 14.2324 2.3479 14.4943 2.26513 14.9001C2.18235 15.306 2.44427 15.7021 2.85013 15.7849L3.14987 14.3151ZM6.16513 19.0999C6.2479 19.5057 6.64401 19.7676 7.04987 19.6849C7.45573 19.6021 7.71765 19.206 7.63487 18.8001L6.16513 19.0999ZM3 18.2C2.58579 18.2 2.25 18.5358 2.25 18.95C2.25 19.3642 2.58579 19.7 3 19.7V18.2ZM3.01 19.7C3.42421 19.7 3.76 19.3642 3.76 18.95C3.76 18.5358 3.42421 18.2 3.01 18.2V19.7ZM4.46046 6.36979C4.41131 6.40803 4.41149 6.39139 4.54932 6.34782C4.66455 6.31139 4.82848 6.27055 5.04393 6.22794C5.47323 6.14305 6.0572 6.06085 6.76321 5.98923C8.17243 5.84626 10.0219 5.75 12 5.75V4.25C9.97808 4.25 8.07759 4.34818 6.61181 4.49689C5.88032 4.57109 5.24554 4.65903 4.75296 4.75643C4.50748 4.80498 4.28468 4.85831 4.09718 4.91759C3.93228 4.96972 3.71371 5.05031 3.53955 5.18576L4.46046 6.36979ZM12 5.75C13.9781 5.75 15.8276 5.84626 17.2368 5.98923C17.9428 6.06085 18.5268 6.14305 18.9561 6.22794C19.1715 6.27055 19.3355 6.31139 19.4507 6.34782C19.5885 6.39139 19.5887 6.40803 19.5396 6.36979L20.4605 5.18576C20.2863 5.05031 20.0677 4.96972 19.9028 4.91759C19.7153 4.85831 19.4925 4.80498 19.2471 4.75643C18.7545 4.65903 18.1197 4.57109 17.3882 4.49689C15.9224 4.34818 14.0219 4.25 12 4.25V5.75ZM19.5396 6.36979C19.4763 6.32062 19.4786 6.29387 19.5218 6.37655C19.5577 6.44529 19.6034 6.55389 19.6543 6.70959C19.7557 7.01989 19.8576 7.45411 19.9478 7.9921C20.1277 9.06439 20.25 10.4809 20.25 12H21.75C21.75 10.408 21.6224 8.90783 21.4272 7.74401C21.3299 7.16394 21.213 6.65025 21.0801 6.24354C21.0138 6.04073 20.9384 5.84855 20.8512 5.68182C20.7714 5.52905 20.6487 5.33215 20.4605 5.18576L19.5396 6.36979ZM20.25 12C20.25 13.5191 20.1277 14.9356 19.9478 16.0079C19.8576 16.5459 19.7557 16.9801 19.6543 17.2904C19.6034 17.4461 19.5577 17.5547 19.5218 17.6234C19.4786 17.7061 19.4763 17.6794 19.5396 17.6302L20.4605 18.8142C20.6487 18.6678 20.7714 18.471 20.8512 18.3182C20.9384 18.1514 21.0138 17.9593 21.0801 17.7565C21.213 17.3497 21.3299 16.8361 21.4272 16.256C21.6224 15.0922 21.75 13.592 21.75 12H20.25ZM4.03156 8.11817C4.123 7.54501 4.22819 7.07946 4.33407 6.7457C4.38722 6.57816 4.43551 6.46001 4.47419 6.3843C4.52076 6.29316 4.52509 6.31953 4.46046 6.36979L3.53955 5.18576C3.34507 5.33703 3.21954 5.5431 3.13844 5.70183C3.04945 5.87601 2.97225 6.07792 2.9043 6.29211C2.76798 6.72179 2.64849 7.26636 2.55029 7.88183L4.03156 8.11817ZM19.5396 17.6302C19.5855 17.5945 19.5944 17.6027 19.5022 17.6351C19.4251 17.6621 19.3122 17.6943 19.1589 17.7291C18.8532 17.7987 18.4345 17.8687 17.9177 17.9338C16.887 18.0637 15.5145 18.1681 13.9757 18.2181L14.0243 19.7173C15.5971 19.6662 17.0175 19.5591 18.1052 19.422C18.6477 19.3537 19.1197 19.2764 19.4917 19.1917C19.6772 19.1495 19.8498 19.1028 19.9995 19.0502C20.1341 19.0029 20.3109 18.9306 20.4605 18.8142L19.5396 17.6302ZM2.9171 11.7454C4.77865 11.9524 6.51435 12.7868 7.83878 14.1112L8.89944 13.0506C7.3342 11.4853 5.28293 10.4993 3.0829 10.2546L2.9171 11.7454ZM7.83878 14.1112C9.16322 15.4357 9.99755 17.1713 10.2046 19.0329L11.6954 18.8671C11.4507 16.6671 10.4647 14.6158 8.89944 13.0506L7.83878 14.1112ZM2.85013 15.7849C3.66689 15.9514 4.41663 16.3545 5.00605 16.944L6.06671 15.8833C5.26926 15.0858 4.2549 14.5405 3.14987 14.3151L2.85013 15.7849ZM5.00605 16.944C5.59548 17.5334 5.99855 18.2831 6.16513 19.0999L7.63487 18.8001C7.40951 17.6951 6.86417 16.6807 6.06671 15.8833L5.00605 16.944ZM3 19.7H3.01V18.2H3V19.7Z" fill="#001A72"/>
</svg>
