<svg width="24" height="24" viewBox="0 0 24 24" fill="none" xmlns="http://www.w3.org/2000/svg">
<path d="M12.75 8C12.75 7.58579 12.4142 7.25 12 7.25C11.5858 7.25 11.25 7.58579 11.25 8H12.75ZM12 12H11.25C11.25 12.1989 11.329 12.3897 11.4697 12.5303L12 12ZM13.4697 14.5303C13.7626 14.8232 14.2374 14.8232 14.5303 14.5303C14.8232 14.2374 14.8232 13.7626 14.5303 13.4697L13.4697 14.5303ZM11.25 8V12H12.75V8H11.25ZM11.4697 12.5303L13.4697 14.5303L14.5303 13.4697L12.5303 11.4697L11.4697 12.5303ZM20.25 12C20.25 16.5563 16.5563 20.25 12 20.25V21.75C17.3848 21.75 21.75 17.3848 21.75 12H20.25ZM12 20.25C7.44365 20.25 3.75 16.5563 3.75 12H2.25C2.25 17.3848 6.61522 21.75 12 21.75V20.25ZM3.75 12C3.75 7.44365 7.44365 3.75 12 3.75V2.25C6.61522 2.25 2.25 6.61522 2.25 12H3.75ZM12 3.75C16.5563 3.75 20.25 7.44365 20.25 12H21.75C21.75 6.61522 17.3848 2.25 12 2.25V3.75Z" fill="#001A72"/>
</svg>
