<svg width="24" height="24" viewBox="0 0 24 24" fill="none" xmlns="http://www.w3.org/2000/svg">
<path d="M9.32368 6.92166C9.28042 7.33361 9.57929 7.70263 9.99124 7.7459C10.4032 7.78916 10.7722 7.49029 10.8155 7.07834L9.32368 6.92166ZM16.9217 13.1845C16.5097 13.2278 16.2109 13.5968 16.2541 14.0088C16.2974 14.4207 16.6664 14.7196 17.0784 14.6763L16.9217 13.1845ZM15.5 3.75C17.575 3.75 18.675 4.08126 19.2969 4.70312C19.9188 5.32499 20.25 6.42499 20.25 8.5H21.75C21.75 6.36913 21.4342 4.71913 20.3576 3.64246C19.2809 2.5658 17.6309 2.25 15.5 2.25V3.75ZM10.8155 7.07834C10.9636 5.66848 11.3572 4.91902 11.9716 4.47479C12.6302 3.99864 13.7021 3.75 15.5 3.75V2.25C13.6403 2.25 12.1557 2.49072 11.0928 3.25923C9.98568 4.05968 9.49293 5.31023 9.32368 6.92166L10.8155 7.07834ZM20.25 8.5C20.25 10.2979 20.0014 11.3698 19.5252 12.0284C19.081 12.6428 18.3315 13.0365 16.9217 13.1845L17.0784 14.6763C18.6898 14.5071 19.9403 14.0143 20.7408 12.9073C21.5093 11.8443 21.75 10.3597 21.75 8.5H20.25ZM3.75 15.5C3.75 13.425 4.08126 12.325 4.70312 11.7031C5.32499 11.0813 6.42499 10.75 8.5 10.75V9.25C6.36913 9.25 4.71913 9.5658 3.64246 10.6425C2.5658 11.7191 2.25 13.3691 2.25 15.5H3.75ZM8.5 20.25C6.42499 20.25 5.32499 19.9187 4.70312 19.2969C4.08126 18.675 3.75 17.575 3.75 15.5H2.25C2.25 17.6309 2.5658 19.2809 3.64246 20.3575C4.71913 21.4342 6.36913 21.75 8.5 21.75V20.25ZM13.25 15.5C13.25 17.575 12.9187 18.675 12.2969 19.2969C11.675 19.9187 10.575 20.25 8.5 20.25V21.75C10.6309 21.75 12.2809 21.4342 13.3575 20.3575C14.4342 19.2809 14.75 17.6309 14.75 15.5H13.25ZM8.5 10.75C10.575 10.75 11.675 11.0813 12.2969 11.7031C12.9187 12.325 13.25 13.425 13.25 15.5H14.75C14.75 13.3691 14.4342 11.7191 13.3575 10.6425C12.2809 9.5658 10.6309 9.25 8.5 9.25V10.75Z" fill="#001A72"/>
</svg>
