<svg width="24" height="24" viewBox="0 0 24 24" fill="none" xmlns="http://www.w3.org/2000/svg">
<path d="M7 13.25C6.58579 13.25 6.25 13.5858 6.25 14C6.25 14.4142 6.58579 14.75 7 14.75V13.25ZM12 14.75C12.4142 14.75 12.75 14.4142 12.75 14C12.75 13.5858 12.4142 13.25 12 13.25V14.75ZM4 6.66667L4.41603 7.2907L4 6.66667ZM20 6.66667L20.416 6.04263V6.04263L20 6.66667ZM20.9058 9.25H3.09424V10.75H20.9058V9.25ZM4.41603 7.2907C4.36992 7.32144 4.37695 7.30481 4.51939 7.26621C4.63876 7.23387 4.80626 7.1982 5.02377 7.16133C5.45723 7.08786 6.04464 7.01706 6.75247 6.95551C8.16565 6.83263 10.0188 6.75 12 6.75V5.25C9.98122 5.25 8.08435 5.33404 6.62253 5.46115C5.89286 5.5246 5.26152 5.59964 4.77311 5.68242C4.52968 5.72368 4.31046 5.76873 4.12709 5.81842C3.9668 5.86185 3.75508 5.92856 3.58397 6.04263L4.41603 7.2907ZM12 6.75C13.9812 6.75 15.8343 6.83263 17.2475 6.95551C17.9554 7.01706 18.5428 7.08786 18.9762 7.16133C19.1937 7.1982 19.3612 7.23387 19.4806 7.26621C19.6231 7.30481 19.6301 7.32144 19.584 7.2907L20.416 6.04263C20.2449 5.92856 20.0332 5.86185 19.8729 5.81842C19.6895 5.76873 19.4703 5.72368 19.2269 5.68242C18.7385 5.59964 18.1071 5.5246 17.3775 5.46115C15.9157 5.33404 14.0188 5.25 12 5.25V6.75ZM20.25 12C20.25 13.2907 20.1286 14.4921 19.9515 15.3977C19.8625 15.8523 19.7631 16.2136 19.6664 16.4671C19.618 16.5942 19.5762 16.6781 19.5462 16.7274C19.5099 16.7868 19.5159 16.7547 19.584 16.7093L20.416 17.9574C20.6091 17.8287 20.7401 17.6507 20.8269 17.5083C20.9199 17.3558 20.9992 17.1818 21.068 17.0016C21.2057 16.6405 21.325 16.1893 21.4235 15.6857C21.6214 14.6746 21.75 13.3759 21.75 12H20.25ZM19.584 16.7093C19.6301 16.6786 19.6231 16.6952 19.4806 16.7338C19.3612 16.7661 19.1937 16.8018 18.9762 16.8387C18.5428 16.9121 17.9554 16.9829 17.2475 17.0445C15.8343 17.1674 13.9812 17.25 12 17.25V18.75C14.0188 18.75 15.9157 18.666 17.3775 18.5388C18.1071 18.4754 18.7385 18.4004 19.2269 18.3176C19.4703 18.2763 19.6895 18.2313 19.8729 18.1816C20.0332 18.1381 20.2449 18.0714 20.416 17.9574L19.584 16.7093ZM12 17.25C10.0188 17.25 8.16565 17.1674 6.75247 17.0445C6.04464 16.9829 5.45723 16.9121 5.02377 16.8387C4.80626 16.8018 4.63876 16.7661 4.51939 16.7338C4.37695 16.6952 4.36991 16.6786 4.41602 16.7093L3.58398 17.9574C3.75509 18.0714 3.9668 18.1381 4.12709 18.1816C4.31046 18.2313 4.52968 18.2763 4.77311 18.3176C5.26152 18.4004 5.89286 18.4754 6.62253 18.5388C8.08435 18.666 9.98122 18.75 12 18.75V17.25ZM4.41602 16.7093C4.4841 16.7547 4.49006 16.7868 4.45385 16.7274C4.42378 16.6781 4.38204 16.5942 4.33358 16.4671C4.23691 16.2136 4.1375 15.8523 4.04854 15.3977C3.87137 14.4921 3.75 13.2907 3.75 12H2.25C2.25 13.3759 2.37863 14.6746 2.57646 15.6857C2.675 16.1893 2.79434 16.6405 2.93204 17.0016C3.00077 17.1818 3.08013 17.3558 3.17311 17.5083C3.25994 17.6507 3.3909 17.8287 3.58398 17.9574L4.41602 16.7093ZM19.584 7.2907C19.4991 7.2341 19.5193 7.2054 19.5963 7.36712C19.6596 7.49993 19.7317 7.69859 19.8046 7.9656C19.9497 8.49671 20.078 9.2243 20.1592 10.0716L21.6524 9.92841C21.5655 9.02232 21.4253 8.20619 21.2517 7.57044C21.1652 7.25403 21.0655 6.96348 20.9506 6.72221C20.8495 6.50983 20.6853 6.22218 20.416 6.04263L19.584 7.2907ZM20.1592 10.0716C20.2168 10.6717 20.25 11.3245 20.25 12H21.75C21.75 11.2762 21.7144 10.5756 21.6524 9.92841L20.1592 10.0716ZM3.75 12C3.75 11.3245 3.78327 10.6717 3.84081 10.0716L2.34766 9.92841C2.2856 10.5756 2.25 11.2762 2.25 12H3.75ZM3.84081 10.0716C3.92207 9.2243 4.05034 8.4967 4.19537 7.9656C4.26829 7.69858 4.34043 7.49993 4.40367 7.36711C4.48068 7.2054 4.50094 7.23409 4.41603 7.2907L3.58397 6.04263C3.31465 6.22218 3.15051 6.50984 3.04938 6.72221C2.93449 6.96348 2.83476 7.25404 2.74836 7.57045C2.57475 8.2062 2.43455 9.02233 2.34766 9.92841L3.84081 10.0716ZM7 14.75H12V13.25H7V14.75Z" fill="#001A72"/>
</svg>
