<svg width="24" height="24" viewBox="0 0 24 24" fill="none" xmlns="http://www.w3.org/2000/svg">
<path d="M4 18.25C3.58579 18.25 3.25 18.5858 3.25 19C3.25 19.4142 3.58579 19.75 4 19.75V18.25ZM20 19.75C20.4142 19.75 20.75 19.4142 20.75 19C20.75 18.5858 20.4142 18.25 20 18.25V19.75ZM11.2929 5.70711L11.8232 6.23744L11.2929 5.70711ZM12.7071 5.70711L12.1768 6.23744V6.23744L12.7071 5.70711ZM7.29289 8.2929L6.76256 8.82323L7.29289 8.2929ZM8.70711 8.2929L8.17678 7.76256L8.70711 8.2929ZM15.2929 8.2929L15.8232 7.76257L15.2929 8.2929ZM5.70711 6.70711L6.23744 6.17678L5.70711 6.70711ZM4 19.75H20V18.25H4V19.75ZM3.25 7.41422V15H4.75V7.41422H3.25ZM5 16.75H19V15.25H5V16.75ZM20.75 15V7.41421H19.25V15H20.75ZM17.7626 6.17678L16.1768 7.76257L17.2374 8.82323L18.8232 7.23744L17.7626 6.17678ZM5.17678 7.23744L6.76256 8.82323L7.82322 7.76257L6.23744 6.17678L5.17678 7.23744ZM9.23744 8.82323L11.8232 6.23744L10.7626 5.17678L8.17678 7.76256L9.23744 8.82323ZM12.1768 6.23744L14.7626 8.82323L15.8232 7.76257L13.2374 5.17678L12.1768 6.23744ZM11.8232 6.23744C11.9209 6.13981 12.0791 6.13981 12.1768 6.23744L13.2374 5.17678C12.554 4.49336 11.446 4.49336 10.7626 5.17678L11.8232 6.23744ZM6.76256 8.82323C7.44598 9.50664 8.55402 9.50664 9.23744 8.82323L8.17678 7.76256C8.07914 7.8602 7.92085 7.8602 7.82322 7.76257L6.76256 8.82323ZM16.1768 7.76257C16.0791 7.8602 15.9209 7.8602 15.8232 7.76257L14.7626 8.82323C15.446 9.50664 16.554 9.50664 17.2374 8.82323L16.1768 7.76257ZM20.75 7.41421C20.75 5.85513 18.865 5.07434 17.7626 6.17678L18.8232 7.23744C18.9807 7.07995 19.25 7.19149 19.25 7.41421H20.75ZM19 16.75C19.9665 16.75 20.75 15.9665 20.75 15H19.25C19.25 15.1381 19.1381 15.25 19 15.25V16.75ZM3.25 15C3.25 15.9665 4.0335 16.75 5 16.75V15.25C4.86193 15.25 4.75 15.1381 4.75 15H3.25ZM4.75 7.41422C4.75 7.19149 5.01929 7.07995 5.17678 7.23744L6.23744 6.17678C5.135 5.07434 3.25 5.85513 3.25 7.41422H4.75Z" fill="#001A72"/>
</svg>
