<svg width="24" height="24" viewBox="0 0 24 24" fill="none" xmlns="http://www.w3.org/2000/svg">
<path d="M6.75598 11.0731L6.28106 11.6535L6.75598 11.0731ZM9.70978 10.5989L9.07704 10.1963L9.70978 10.5989ZM17.244 11.0731L17.7189 11.6535L17.244 11.0731ZM14.2902 10.5989L13.6575 11.0016L14.2902 10.5989ZM19.5571 16.6576L20.2969 16.7809L19.5571 16.6576ZM4.44293 16.6576L3.70314 16.7809L4.44293 16.6576ZM2.2602 8.1233L3.70314 16.7809L5.18273 16.5343L3.7398 7.8767L2.2602 8.1233ZM8.38851 20.75H15.6115V19.25H8.38851V20.75ZM20.2969 16.7809L21.7398 8.1233L20.2602 7.8767L18.8173 16.5343L20.2969 16.7809ZM20.5251 7.41953L16.7691 10.4926L17.7189 11.6535L21.4749 8.58047L20.5251 7.41953ZM2.52507 8.58047L6.28106 11.6535L7.23091 10.4926L3.47493 7.41953L2.52507 8.58047ZM10.3425 11.0016L12.6327 7.40266L11.3673 6.59734L9.07704 10.1963L10.3425 11.0016ZM11.3673 7.40266L13.6575 11.0016L14.923 10.1963L12.6327 6.59734L11.3673 7.40266ZM6.28106 11.6535C7.5567 12.6973 9.45764 12.3921 10.3425 11.0016L9.07704 10.1963C8.67481 10.8283 7.81075 10.967 7.23091 10.4926L6.28106 11.6535ZM16.7691 10.4926C16.1892 10.967 15.3252 10.8283 14.923 10.1963L13.6575 11.0016C14.5424 12.3921 16.4433 12.6973 17.7189 11.6535L16.7691 10.4926ZM15.6115 20.75C17.9335 20.75 19.9151 19.0713 20.2969 16.7809L18.8173 16.5343C18.5561 18.1014 17.2002 19.25 15.6115 19.25V20.75ZM3.70314 16.7809C4.08487 19.0713 6.06652 20.75 8.38851 20.75V19.25C6.79978 19.25 5.44391 18.1014 5.18273 16.5343L3.70314 16.7809ZM21.75 6.5C21.75 6.91421 21.4142 7.25 21 7.25V8.75C22.2426 8.75 23.25 7.74264 23.25 6.5H21.75ZM21 7.25C20.5858 7.25 20.25 6.91421 20.25 6.5H18.75C18.75 7.74264 19.7574 8.75 21 8.75V7.25ZM20.25 6.5C20.25 6.08579 20.5858 5.75 21 5.75V4.25C19.7574 4.25 18.75 5.25736 18.75 6.5H20.25ZM21 5.75C21.4142 5.75 21.75 6.08579 21.75 6.5H23.25C23.25 5.25736 22.2426 4.25 21 4.25V5.75ZM12.75 5.5C12.75 5.91421 12.4142 6.25 12 6.25V7.75C13.2426 7.75 14.25 6.74264 14.25 5.5H12.75ZM12 6.25C11.5858 6.25 11.25 5.91421 11.25 5.5H9.75C9.75 6.74264 10.7574 7.75 12 7.75V6.25ZM11.25 5.5C11.25 5.08579 11.5858 4.75 12 4.75V3.25C10.7574 3.25 9.75 4.25736 9.75 5.5H11.25ZM12 4.75C12.4142 4.75 12.75 5.08579 12.75 5.5H14.25C14.25 4.25736 13.2426 3.25 12 3.25V4.75ZM3.75 6.5C3.75 6.91421 3.41421 7.25 3 7.25V8.75C4.24264 8.75 5.25 7.74264 5.25 6.5H3.75ZM3 7.25C2.58579 7.25 2.25 6.91421 2.25 6.5H0.75C0.75 7.74264 1.75736 8.75 3 8.75V7.25ZM2.25 6.5C2.25 6.08579 2.58579 5.75 3 5.75V4.25C1.75736 4.25 0.75 5.25736 0.75 6.5H2.25ZM3 5.75C3.41421 5.75 3.75 6.08579 3.75 6.5H5.25C5.25 5.25736 4.24264 4.25 3 4.25V5.75Z" fill="#001A72"/>
</svg>
