<svg width="24" height="24" viewBox="0 0 24 24" fill="none" xmlns="http://www.w3.org/2000/svg">
<path d="M8 18L7.46967 18.5303C7.56579 18.6264 7.68622 18.6946 7.8181 18.7276L8 18ZM2 12L1.46967 11.4697C1.17678 11.7626 1.17678 12.2374 1.46967 12.5303L2 12ZM8 6L7.8181 5.27239C7.68622 5.30536 7.56579 5.37355 7.46967 5.46967L8 6ZM16.5303 9.53033C16.8232 9.23744 16.8232 8.76256 16.5303 8.46967C16.2374 8.17678 15.7626 8.17678 15.4697 8.46967L16.5303 9.53033ZM9.46967 14.4697C9.17678 14.7626 9.17678 15.2374 9.46967 15.5303C9.76256 15.8232 10.2374 15.8232 10.5303 15.5303L9.46967 14.4697ZM10.5306 8.46967C10.2377 8.17678 9.76281 8.17678 9.46991 8.46967C9.17702 8.76256 9.17702 9.23744 9.46991 9.53033L10.5306 8.46967ZM15.4699 15.5303C15.7628 15.8232 16.2377 15.8232 16.5306 15.5303C16.8235 15.2374 16.8235 14.7626 16.5306 14.4697L15.4699 15.5303ZM8.53033 17.4697L2.53033 11.4697L1.46967 12.5303L7.46967 18.5303L8.53033 17.4697ZM2.53033 12.5303L8.53033 6.53033L7.46967 5.46967L1.46967 11.4697L2.53033 12.5303ZM8 6C8.1819 6.72761 8.18176 6.72764 8.18163 6.72767C8.1816 6.72768 8.18147 6.72771 8.18141 6.72773C8.18127 6.72776 8.18117 6.72779 8.1811 6.72781C8.18095 6.72784 8.18092 6.72785 8.18102 6.72783C8.18121 6.72778 8.18188 6.72761 8.18303 6.72733C8.18535 6.72677 8.18958 6.72575 8.19574 6.7243C8.20804 6.72139 8.22799 6.71676 8.25547 6.71066C8.31043 6.69844 8.3955 6.68031 8.5097 6.65821C8.73812 6.614 9.08301 6.5539 9.53662 6.49342C10.4439 6.37245 11.7857 6.25 13.5 6.25V4.75C11.7143 4.75 10.3061 4.87755 9.33838 5.00658C8.85449 5.0711 8.48063 5.136 8.22467 5.18554C8.09669 5.21031 7.99816 5.23125 7.93008 5.24638C7.89603 5.25394 7.8696 5.26005 7.8509 5.26447C7.84154 5.26668 7.83412 5.26847 7.82865 5.2698C7.82592 5.27046 7.82367 5.27101 7.82191 5.27145C7.82103 5.27166 7.82027 5.27185 7.81964 5.27201C7.81932 5.27209 7.81903 5.27216 7.81878 5.27222C7.81865 5.27226 7.81848 5.2723 7.81841 5.27231C7.81825 5.27235 7.8181 5.27239 8 6ZM13.5 17.75C11.7857 17.75 10.4439 17.6275 9.53662 17.5066C9.08301 17.4461 8.73812 17.386 8.5097 17.3418C8.3955 17.3197 8.31043 17.3016 8.25547 17.2893C8.22799 17.2832 8.20804 17.2786 8.19574 17.2757C8.18958 17.2743 8.18535 17.2732 8.18303 17.2727C8.18188 17.2724 8.18121 17.2722 8.18102 17.2722C8.18092 17.2721 8.18095 17.2722 8.1811 17.2722C8.18117 17.2722 8.18127 17.2722 8.18141 17.2723C8.18147 17.2723 8.1816 17.2723 8.18163 17.2723C8.18176 17.2724 8.1819 17.2724 8 18C7.8181 18.7276 7.81825 18.7276 7.81841 18.7277C7.81848 18.7277 7.81865 18.7277 7.81878 18.7278C7.81903 18.7278 7.81932 18.7279 7.81964 18.728C7.82027 18.7281 7.82103 18.7283 7.82191 18.7286C7.82367 18.729 7.82592 18.7295 7.82865 18.7302C7.83412 18.7315 7.84154 18.7333 7.8509 18.7355C7.8696 18.7399 7.89603 18.7461 7.93008 18.7536C7.99816 18.7688 8.09669 18.7897 8.22467 18.8145C8.48063 18.864 8.85449 18.9289 9.33838 18.9934C10.3061 19.1225 11.7143 19.25 13.5 19.25V17.75ZM13.5 6.25C14.9326 6.25 16.0313 6.25102 16.903 6.34705C17.7739 6.44298 18.3063 6.62451 18.6644 6.90383C19.0051 7.16968 19.2833 7.60014 19.473 8.4127C19.666 9.23944 19.75 10.3872 19.75 12H21.25C21.25 10.3628 21.1675 9.07306 20.9338 8.07168C20.6967 7.05611 20.2877 6.26782 19.587 5.72117C18.9036 5.18799 18.0404 4.96327 17.0673 4.85607C16.0951 4.74898 14.9017 4.75 13.5 4.75V6.25ZM19.75 12C19.75 13.6156 19.6736 14.7653 19.4888 15.5947C19.3069 16.4107 19.0375 16.8374 18.7066 17.0995C18.3585 17.3752 17.8334 17.5568 16.9558 17.6529C16.0781 17.749 14.9637 17.75 13.5 17.75V19.25C14.9325 19.25 16.1413 19.251 17.1191 19.144C18.0971 19.0369 18.9599 18.8123 19.6378 18.2755C20.3328 17.7251 20.7273 16.9331 20.9529 15.921C21.1755 14.9222 21.25 13.6344 21.25 12H19.75ZM15.4697 8.46967L9.46967 14.4697L10.5303 15.5303L16.5303 9.53033L15.4697 8.46967ZM9.46991 9.53033L15.4699 15.5303L16.5306 14.4697L10.5306 8.46967L9.46991 9.53033Z" fill="#001A72"/>
</svg>
