<svg width="24" height="24" viewBox="0 0 24 24" fill="none" xmlns="http://www.w3.org/2000/svg">
<path d="M20.75 14C20.75 13.5858 20.4142 13.25 20 13.25C19.5858 13.25 19.25 13.5858 19.25 14H20.75ZM4.75 14C4.75 13.5858 4.41421 13.25 4 13.25C3.58579 13.25 3.25 13.5858 3.25 14H4.75ZM12 15L11.4697 15.5303C11.7626 15.8232 12.2374 15.8232 12.5303 15.5303L12 15ZM12.75 3C12.75 2.58579 12.4142 2.25 12 2.25C11.5858 2.25 11.25 2.58579 11.25 3L12.75 3ZM8.53033 10.4697C8.23744 10.1768 7.76256 10.1768 7.46967 10.4697C7.17678 10.7626 7.17678 11.2374 7.46967 11.5303L8.53033 10.4697ZM16.5303 11.5303C16.8232 11.2374 16.8232 10.7626 16.5303 10.4697C16.2374 10.1768 15.7626 10.1768 15.4697 10.4697L16.5303 11.5303ZM19.25 14V17.5H20.75V14H19.25ZM4.75 17.5V14H3.25V17.5H4.75ZM19.25 17.5C19.25 18.0809 19.0688 18.4501 18.7902 18.7205C18.4873 19.0145 18.0075 19.25 17.3214 19.4182C15.9304 19.7593 14.0388 19.75 12 19.75V21.25C13.9612 21.25 16.0696 21.2696 17.6786 20.8751C18.4925 20.6755 19.2627 20.3522 19.8348 19.797C20.4312 19.2182 20.75 18.4479 20.75 17.5H19.25ZM12 19.75C9.96116 19.75 8.06959 19.7593 6.6786 19.4182C5.99251 19.25 5.51273 19.0145 5.20982 18.7205C4.93116 18.4501 4.75 18.0809 4.75 17.5H3.25C3.25 18.4479 3.56884 19.2182 4.16518 19.797C4.73727 20.3522 5.50749 20.6755 6.3214 20.8751C7.93041 21.2696 10.0388 21.25 12 21.25V19.75ZM12.75 15L12.75 3L11.25 3L11.25 15H12.75ZM7.46967 11.5303L11.4697 15.5303L12.5303 14.4697L8.53033 10.4697L7.46967 11.5303ZM12.5303 15.5303L16.5303 11.5303L15.4697 10.4697L11.4697 14.4697L12.5303 15.5303Z" fill="#001A72"/>
</svg>
