<svg width="24" height="24" viewBox="0 0 24 24" fill="none" xmlns="http://www.w3.org/2000/svg">
<path d="M7.0698 20.0229L6.94233 19.2838H6.94233L7.0698 20.0229ZM4.44432 19.6875L3.91399 20.2178L3.91399 20.2178L4.44432 19.6875ZM4.10888 17.062L4.84796 17.1895L4.10888 17.062ZM5.44587 14.6859L5.9762 15.2162L5.44587 14.6859ZM14.4443 5.68747L13.914 5.15714L14.4443 5.68747ZM9.44587 18.6859L9.9762 19.2162L9.44587 18.6859ZM6.94233 19.2838C6.50808 19.3587 6.0566 19.4017 5.6711 19.3729C5.26569 19.3426 5.06007 19.2426 4.97465 19.1571L3.91399 20.2178C4.37707 20.6809 5.02078 20.8285 5.55928 20.8687C6.1177 20.9105 6.70471 20.847 7.19728 20.762L6.94233 19.2838ZM4.97465 19.1571C4.88924 19.0717 4.78919 18.8661 4.75888 18.4607C4.73007 18.0752 4.77307 17.6237 4.84796 17.1895L3.36979 16.9345C3.28483 17.4271 3.22131 18.0141 3.26306 18.5725C3.30331 19.111 3.45091 19.7547 3.91399 20.2178L4.97465 19.1571ZM5.9762 15.2162L14.9747 6.2178L13.914 5.15714L4.91554 14.1556L5.9762 15.2162ZM17.914 9.15714L8.91554 18.1556L9.9762 19.2162L18.9747 10.2178L17.914 9.15714ZM14.4443 5.68747C14.9747 6.2178 14.9745 6.21796 14.9743 6.21811C14.9743 6.21815 14.9742 6.21829 14.9741 6.21836C14.974 6.2185 14.9739 6.21859 14.9738 6.21864C14.9737 6.21875 14.9738 6.21868 14.974 6.21843C14.9745 6.21794 14.9757 6.21676 14.9776 6.21493C14.9813 6.21125 14.9878 6.20494 14.9969 6.19625C15.0151 6.17884 15.0437 6.15194 15.0816 6.11742C15.1577 6.04827 15.2707 5.94936 15.4128 5.83562C15.7002 5.60576 16.0924 5.32696 16.5297 5.10829C17.4374 4.65448 18.2663 4.57007 18.914 5.2178L19.9747 4.15714C18.6224 2.80486 16.9513 3.22046 15.8589 3.76665C15.2963 4.04798 14.8135 4.39418 14.4758 4.66432C14.3055 4.80058 14.1684 4.92042 14.0726 5.00751C14.0247 5.05113 13.9868 5.08672 13.9601 5.11229C13.9467 5.12507 13.9361 5.13537 13.9284 5.14292C13.9245 5.1467 13.9214 5.14979 13.919 5.15217C13.9178 5.15336 13.9168 5.15437 13.9159 5.1552C13.9155 5.15562 13.9151 5.15599 13.9148 5.15631C13.9147 5.15647 13.9145 5.15668 13.9144 5.15676C13.9142 5.15696 13.914 5.15714 14.4443 5.68747ZM18.914 5.2178C19.5617 5.86552 19.4773 6.69444 19.0235 7.60206C18.8048 8.0394 18.526 8.43162 18.2962 8.71895C18.1824 8.86112 18.0835 8.97408 18.0144 9.05015C17.9799 9.08811 17.9529 9.11668 17.9355 9.13487C17.9268 9.14396 17.9205 9.15045 17.9169 9.1542C17.915 9.15608 17.9138 9.15728 17.9134 9.15777C17.9131 9.15802 17.913 9.15809 17.9131 9.15799C17.9132 9.15793 17.9133 9.15784 17.9134 9.1577C17.9135 9.15763 17.9136 9.15749 17.9137 9.15745C17.9138 9.1573 17.914 9.15714 18.4443 9.68747C18.9747 10.2178 18.9748 10.2176 18.975 10.2174C18.9751 10.2173 18.9753 10.2171 18.9755 10.217C18.9758 10.2166 18.9762 10.2163 18.9766 10.2159C18.9774 10.215 18.9784 10.214 18.9796 10.2128C18.982 10.2104 18.9851 10.2073 18.9889 10.2034C18.9964 10.1957 19.0067 10.1851 19.0195 10.1717C19.0451 10.145 19.0807 10.1071 19.1243 10.0592C19.2114 9.96336 19.3312 9.82632 19.4675 9.65599C19.7376 9.31832 20.0838 8.83554 20.3651 8.27288C20.9113 7.1805 21.3269 5.50941 19.9747 4.15714L18.914 5.2178ZM7.19728 20.762C8.31634 20.569 9.24896 19.9435 9.9762 19.2162L8.91554 18.1556C8.32549 18.7456 7.65911 19.1602 6.94233 19.2838L7.19728 20.762ZM4.84796 17.1895C4.97159 16.4727 5.38615 15.8063 5.9762 15.2162L4.91554 14.1556C4.18829 14.8828 3.5628 15.8155 3.36979 16.9345L4.84796 17.1895ZM18.9747 9.15714L14.9747 5.15714L13.914 6.2178L17.914 10.2178L18.9747 9.15714Z" fill="#001A72"/>
</svg>
