<svg width="24" height="24" viewBox="0 0 24 24" fill="none" xmlns="http://www.w3.org/2000/svg">
<path d="M13.9445 14.1875L14.4748 14.7178L14.4748 14.7178L13.9445 14.1875ZM3.94444 20.1875L3.41411 20.7178L3.94444 20.1875ZM6.56993 20.5229L6.6974 21.262L6.56993 20.5229ZM8.946 19.1859L8.41567 18.6556L8.41567 18.6556L8.946 19.1859ZM3.609 17.562L4.34809 17.6895L3.609 17.562ZM4.946 15.1859L4.41567 14.6556L4.41567 14.6556L4.946 15.1859ZM2.75 12C2.75 12.4142 3.08579 12.75 3.5 12.75C3.91421 12.75 4.25 12.4142 4.25 12H2.75ZM12 19.75C11.5858 19.75 11.25 20.0858 11.25 20.5C11.25 20.9142 11.5858 21.25 12 21.25V19.75ZM14.4748 13.6572L10.4748 9.65717L9.41413 10.7178L13.4141 14.7178L14.4748 13.6572ZM6.44245 19.7839C6.0082 19.8588 5.55672 19.9018 5.17122 19.8729C4.76582 19.8426 4.56019 19.7426 4.47477 19.6572L3.41411 20.7178C3.87719 21.1809 4.5209 21.3285 5.0594 21.3688C5.61782 21.4105 6.20483 21.347 6.6974 21.262L6.44245 19.7839ZM4.47477 19.6572C4.38936 19.5718 4.28931 19.3661 4.25901 18.9607C4.23019 18.5752 4.27319 18.1237 4.34809 17.6895L2.86991 17.4345C2.78496 17.9271 2.72143 18.5141 2.76318 19.0725C2.80344 19.611 2.95104 20.2548 3.41411 20.7178L4.47477 19.6572ZM5.47633 15.7163L10.4748 10.7178L9.41413 9.65717L4.41567 14.6556L5.47633 15.7163ZM13.4141 13.6572L8.41567 18.6556L9.47633 19.7163L14.4748 14.7178L13.4141 13.6572ZM9.94446 10.1875C10.4748 10.7178 10.4746 10.718 10.4745 10.7181C10.4744 10.7182 10.4743 10.7183 10.4742 10.7184C10.4741 10.7185 10.474 10.7186 10.4739 10.7187C10.4738 10.7188 10.4739 10.7187 10.4742 10.7185C10.4747 10.718 10.4758 10.7168 10.4777 10.715C10.4815 10.7113 10.488 10.705 10.4971 10.6963C10.5153 10.6789 10.5438 10.652 10.5818 10.6175C10.6578 10.5483 10.7708 10.4494 10.913 10.3357C11.2003 10.1058 11.5925 9.82699 12.0299 9.60832C12.9375 9.15451 13.7664 9.07011 14.4141 9.71783L15.4748 8.65717C14.1225 7.30489 12.4514 7.72049 11.359 8.26668C10.7964 8.54801 10.3136 8.89421 9.97593 9.16435C9.8056 9.30061 9.66857 9.42045 9.57276 9.50755C9.52479 9.55116 9.48695 9.58675 9.46022 9.61232C9.44685 9.6251 9.43624 9.6354 9.42853 9.64295C9.42467 9.64673 9.42153 9.64983 9.41912 9.65221C9.41792 9.6534 9.4169 9.65441 9.41607 9.65524C9.41565 9.65565 9.41528 9.65602 9.41496 9.65634C9.4148 9.6565 9.41459 9.65671 9.41451 9.65679C9.41431 9.65699 9.41413 9.65717 9.94446 10.1875ZM14.4141 9.71783C15.0618 10.3656 14.9774 11.1945 14.5236 12.1021C14.305 12.5394 14.0262 12.9316 13.7963 13.219C13.6826 13.3611 13.5837 13.4741 13.5145 13.5502C13.48 13.5881 13.4531 13.6167 13.4357 13.6349C13.427 13.644 13.4207 13.6505 13.417 13.6542C13.4152 13.6561 13.414 13.6573 13.4135 13.6578C13.4132 13.658 13.4132 13.6581 13.4133 13.658C13.4133 13.658 13.4134 13.6579 13.4136 13.6577C13.4136 13.6577 13.4138 13.6575 13.4138 13.6575C13.414 13.6573 13.4141 13.6572 13.9445 14.1875C14.4748 14.7178 14.475 14.7176 14.4752 14.7174C14.4753 14.7174 14.4755 14.7172 14.4756 14.717C14.4759 14.7167 14.4763 14.7163 14.4767 14.7159C14.4776 14.7151 14.4786 14.714 14.4798 14.7128C14.4821 14.7104 14.4852 14.7073 14.489 14.7034C14.4966 14.6957 14.5069 14.6851 14.5196 14.6717C14.5452 14.645 14.5808 14.6072 14.6244 14.5592C14.7115 14.4634 14.8313 14.3264 14.9676 14.156C15.2377 13.8184 15.5839 13.3356 15.8653 12.7729C16.4115 11.6805 16.827 10.0094 15.4748 8.65717L14.4141 9.71783ZM6.6974 21.262C7.81646 21.069 8.74908 20.4435 9.47633 19.7163L8.41567 18.6556C7.82562 19.2457 7.15923 19.6602 6.44245 19.7839L6.6974 21.262ZM4.34809 17.6895C4.47171 16.9727 4.88628 16.3063 5.47633 15.7163L4.41567 14.6556C3.68842 15.3829 3.06292 16.3155 2.86991 17.4345L4.34809 17.6895ZM4.25 12C4.25 8.77793 4.75773 6.92793 5.84283 5.84283C6.92793 4.75773 8.77793 4.25 12 4.25V2.75C8.72207 2.75 6.32207 3.24227 4.78217 4.78217C3.24227 6.32207 2.75 8.72207 2.75 12H4.25ZM19.75 12C19.75 15.2221 19.2423 17.0721 18.1572 18.1572C17.0721 19.2423 15.2221 19.75 12 19.75V21.25C15.2779 21.25 17.6779 20.7577 19.2178 19.2178C20.7577 17.6779 21.25 15.2779 21.25 12H19.75ZM12 4.25C15.2221 4.25 17.0721 4.75773 18.1572 5.84283C19.2423 6.92793 19.75 8.77793 19.75 12H21.25C21.25 8.72207 20.7577 6.32207 19.2178 4.78217C17.6779 3.24227 15.2779 2.75 12 2.75V4.25Z" fill="#001A72"/>
</svg>
