<svg width="24" height="24" viewBox="0 0 24 24" fill="none" xmlns="http://www.w3.org/2000/svg">
<path d="M14.2669 13.5392L14.9945 13.7211L14.2669 13.5392ZM13.5393 14.2668L13.7212 14.9944L13.5393 14.2668ZM8.86872 13.9186L8.14111 13.7367L8.86872 13.9186ZM10.0814 15.1313L9.8995 14.4037L10.0814 15.1313ZM9.73319 10.4608L10.4608 10.6427L9.73319 10.4608ZM15.1313 10.0814L14.4037 9.89947V9.89947L15.1313 10.0814ZM9.00558 10.2789L8.14111 13.7367L9.59633 14.1005L10.4608 10.6427L9.00558 10.2789ZM14.4037 9.89947L13.5393 13.3573L14.9945 13.7211L15.8589 10.2633L14.4037 9.89947ZM13.3574 13.5392L9.8995 14.4037L10.2633 15.8589L13.7212 14.9944L13.3574 13.5392ZM13.5393 13.3573C13.5169 13.4469 13.4469 13.5168 13.3574 13.5392L13.7212 14.9944C14.3482 14.8377 14.8377 14.3481 14.9945 13.7211L13.5393 13.3573ZM8.14111 13.7367C7.8207 15.0184 8.98163 16.1793 10.2633 15.8589L9.8995 14.4037C9.7164 14.4495 9.55055 14.2836 9.59633 14.1005L8.14111 13.7367ZM10.4608 10.6427C10.4832 10.5531 10.5531 10.4832 10.6427 10.4608L10.2789 9.00555C9.65189 9.1623 9.16233 9.65186 9.00558 10.2789L10.4608 10.6427ZM15.8589 10.2633C16.1794 8.9816 15.0184 7.82066 13.7368 8.14108L14.1006 9.5963C14.2837 9.55052 14.4495 9.71637 14.4037 9.89947L15.8589 10.2633ZM13.7368 8.14108L10.2789 9.00555L10.6427 10.4608L14.1006 9.5963L13.7368 8.14108ZM4.25 12C4.25 8.77793 4.75773 6.92793 5.84283 5.84283C6.92793 4.75773 8.77793 4.25 12 4.25V2.75C8.72207 2.75 6.32207 3.24227 4.78217 4.78217C3.24227 6.32207 2.75 8.72207 2.75 12H4.25ZM12 19.75C8.77793 19.75 6.92793 19.2423 5.84283 18.1572C4.75773 17.0721 4.25 15.2221 4.25 12H2.75C2.75 15.2779 3.24227 17.6779 4.78217 19.2178C6.32207 20.7577 8.72207 21.25 12 21.25V19.75ZM19.75 12C19.75 15.2221 19.2423 17.0721 18.1572 18.1572C17.0721 19.2423 15.2221 19.75 12 19.75V21.25C15.2779 21.25 17.6779 20.7577 19.2178 19.2178C20.7577 17.6779 21.25 15.2779 21.25 12H19.75ZM12 4.25C15.2221 4.25 17.0721 4.75773 18.1572 5.84283C19.2423 6.92793 19.75 8.77793 19.75 12H21.25C21.25 8.72207 20.7577 6.32207 19.2178 4.78217C17.6779 3.24227 15.2779 2.75 12 2.75V4.25Z" fill="#001A72"/>
</svg>
