<svg width="24" height="24" viewBox="0 0 24 24" fill="none" xmlns="http://www.w3.org/2000/svg">
<path d="M18.2222 20.2778L18.7326 20.8274L18.2222 20.2778ZM5.77778 20.2778L5.26744 20.8274H5.26744L5.77778 20.2778ZM18.5 9.88501L18.4593 9.13612L18.5 9.88501ZM4.88889 7.16667L5.02711 7.90382L4.88889 7.16667ZM19.1111 7.16667L19.2493 6.42951L19.2493 6.42951L19.1111 7.16667ZM19.1111 9.83333L19.2493 10.5705H19.2493L19.1111 9.83333ZM4.88889 9.83333L4.75067 10.5705H4.75067L4.88889 9.83333ZM11.8659 6.84997L11.1415 6.65582C11.09 6.84795 11.1169 7.05267 11.2164 7.22494C11.3158 7.39721 11.4796 7.52291 11.6718 7.57441L11.8659 6.84997ZM17.0621 3.84997L17.7116 3.47497L17.0621 3.84997ZM12.0623 6.84997L12.2565 7.57441C12.4486 7.52291 12.6124 7.39721 12.7119 7.22494C12.8113 7.05267 12.8382 6.84795 12.7868 6.65582L12.0623 6.84997ZM6.86617 3.84997L6.21665 3.47497L6.86617 3.84997ZM18.25 14.5C18.25 15.914 18.1546 17.233 18.0142 18.2325C17.9438 18.7339 17.8641 19.1399 17.7844 19.4309C17.7444 19.5771 17.7084 19.6792 17.6802 19.7436C17.6441 19.8261 17.6454 19.7899 17.7119 19.7282L18.7326 20.8274C18.8963 20.6754 18.9948 20.4813 19.0544 20.3451C19.1219 20.1908 19.1801 20.0137 19.2312 19.827C19.3338 19.4521 19.4243 18.9779 19.4997 18.4411C19.6509 17.3642 19.75 15.9749 19.75 14.5H18.25ZM17.7119 19.7282C17.7743 19.6702 17.8034 19.674 17.706 19.7108C17.6292 19.7398 17.5127 19.7749 17.3511 19.813C17.0296 19.8889 16.5856 19.9639 16.0418 20.0298C14.9573 20.1611 13.5293 20.25 12 20.25V21.75C13.5818 21.75 15.0705 21.6584 16.2221 21.5189C16.7964 21.4493 17.3002 21.3663 17.6958 21.2729C17.8927 21.2264 18.0769 21.1741 18.2356 21.1142C18.3737 21.0621 18.5729 20.9756 18.7326 20.8274L17.7119 19.7282ZM12 20.25C10.4707 20.25 9.0427 20.1611 7.95824 20.0298C7.41442 19.9639 6.97038 19.8889 6.64888 19.813C6.48734 19.7749 6.37075 19.7398 6.29402 19.7108C6.19658 19.674 6.22567 19.6702 6.28812 19.7282L5.26744 20.8274C5.42711 20.9756 5.62634 21.0621 5.76436 21.1142C5.92308 21.1741 6.10728 21.2264 6.30424 21.2729C6.69976 21.3663 7.20363 21.4493 7.77788 21.5189C8.92952 21.6584 10.4182 21.75 12 21.75V20.25ZM6.28812 19.7282C6.35461 19.7899 6.35586 19.8261 6.31977 19.7436C6.29157 19.6792 6.25559 19.5771 6.21556 19.4309C6.1359 19.1399 6.0562 18.7339 5.98576 18.2325C5.84537 17.233 5.75 15.914 5.75 14.5H4.25C4.25 15.9749 4.34907 17.3642 4.50035 18.4411C4.57574 18.9779 4.66618 19.4521 4.76881 19.827C4.81993 20.0137 4.87813 20.1908 4.94564 20.3451C5.00525 20.4813 5.10373 20.6754 5.26744 20.8274L6.28812 19.7282ZM19.75 14.5C19.75 13.0124 19.6213 11.8194 19.4908 10.9923C19.4256 10.5787 19.3599 10.2564 19.3096 10.0342C19.2844 9.92307 19.2631 9.83695 19.2476 9.77695C19.2398 9.74695 19.2335 9.72348 19.2289 9.70666C19.2266 9.69825 19.2247 9.69151 19.2233 9.68645C19.2226 9.68392 19.222 9.68181 19.2215 9.68013C19.2212 9.67928 19.221 9.67855 19.2208 9.67791C19.2207 9.6776 19.2207 9.67731 19.2206 9.67705C19.2206 9.67691 19.2205 9.67674 19.2205 9.67667C19.2204 9.6765 19.2204 9.67634 18.5 9.88501C17.7796 10.0937 17.7796 10.0935 17.7795 10.0934C17.7795 10.0933 17.7795 10.0932 17.7795 10.0931C17.7794 10.093 17.7794 10.0928 17.7793 10.0927C17.7793 10.0925 17.7793 10.0924 17.7792 10.0924C17.7792 10.0924 17.7794 10.0928 17.7796 10.0936C17.7801 10.0953 17.781 10.0986 17.7823 10.1035C17.7851 10.1134 17.7895 10.1298 17.7954 10.1527C17.8072 10.1984 17.8249 10.2697 17.8467 10.3655C17.8901 10.5572 17.9494 10.847 18.0092 11.226C18.1287 11.9842 18.25 13.0987 18.25 14.5H19.75ZM5.75 14.5C5.75 13.0987 5.87128 11.9842 5.99084 11.226C6.05062 10.847 6.10993 10.5572 6.15335 10.3655C6.17506 10.2697 6.19279 10.1984 6.20461 10.1527C6.21051 10.1298 6.21495 10.1134 6.21766 10.1035C6.21901 10.0986 6.21994 10.0953 6.2204 10.0936C6.22063 10.0928 6.22075 10.0924 6.22075 10.0924C6.22075 10.0924 6.22072 10.0925 6.22066 10.0927C6.22063 10.0928 6.22059 10.093 6.22054 10.0931C6.22052 10.0932 6.22048 10.0933 6.22047 10.0934C6.22043 10.0935 6.22039 10.0937 5.5 9.88501C4.77961 9.67634 4.77957 9.6765 4.77952 9.67667C4.7795 9.67674 4.77945 9.67691 4.77941 9.67705C4.77933 9.67731 4.77925 9.6776 4.77916 9.67791C4.77898 9.67855 4.77877 9.67928 4.77852 9.68013C4.77804 9.68181 4.77744 9.68392 4.77673 9.68645C4.7753 9.69151 4.77342 9.69825 4.77111 9.70666C4.7665 9.72348 4.76019 9.74695 4.75243 9.77695C4.7369 9.83695 4.71557 9.92307 4.6904 10.0342C4.64007 10.2564 4.57438 10.5787 4.50916 10.9923C4.37872 11.8194 4.25 13.0124 4.25 14.5H5.75ZM5.02711 7.90382C5.02678 7.90388 5.04276 7.90112 5.08341 7.89673C5.12119 7.89265 5.17083 7.88816 5.23321 7.88341C5.35794 7.87391 5.52205 7.86421 5.72321 7.85462C6.12495 7.83547 6.66029 7.81741 7.29611 7.80186C8.567 7.77078 10.2275 7.75 12 7.75V6.25C10.2169 6.25 8.54412 6.27089 7.25944 6.30231C6.61748 6.31801 6.0695 6.33641 5.65179 6.35632C5.25999 6.375 4.92378 6.39705 4.75067 6.42951L5.02711 7.90382ZM12 7.75C13.7725 7.75 15.433 7.77078 16.7039 7.80186C17.3397 7.81741 17.8751 7.83547 18.2768 7.85462C18.4779 7.86421 18.6421 7.87391 18.7668 7.88341C18.8292 7.88816 18.8788 7.89265 18.9166 7.89673C18.9572 7.90112 18.9732 7.90388 18.9729 7.90382L19.2493 6.42951C19.0762 6.39705 18.74 6.375 18.3482 6.35632C17.9305 6.33641 17.3825 6.31801 16.7406 6.30231C15.4559 6.27089 13.7831 6.25 12 6.25V7.75ZM18.9729 7.90382C18.9414 7.89792 19.0117 7.90654 19.1065 8.04288C19.1918 8.1655 19.25 8.33011 19.25 8.5H20.75C20.75 8.00322 20.5859 7.54283 20.3379 7.18629C20.0994 6.84346 19.7253 6.51875 19.2493 6.42951L18.9729 7.90382ZM19.25 8.5C19.25 8.66989 19.1918 8.8345 19.1065 8.95712C19.0117 9.09346 18.9414 9.10208 18.9729 9.09618L19.2493 10.5705C19.7253 10.4813 20.0994 10.1565 20.3379 9.81371C20.5859 9.45717 20.75 8.99678 20.75 8.5H19.25ZM5.02711 9.09618C5.05859 9.10208 4.9883 9.09346 4.89346 8.95712C4.80816 8.8345 4.75 8.66989 4.75 8.5H3.25C3.25 8.99678 3.41407 9.45717 3.6621 9.81371C3.90058 10.1565 4.27474 10.4813 4.75067 10.5705L5.02711 9.09618ZM4.75 8.5C4.75 8.33011 4.80816 8.1655 4.89346 8.04288C4.9883 7.90654 5.05859 7.89792 5.02711 7.90382L4.75067 6.42951C4.27474 6.51875 3.90058 6.84346 3.6621 7.18629C3.41407 7.54283 3.25 8.00322 3.25 8.5H4.75ZM18.9729 9.09618C18.974 9.09596 18.9628 9.09799 18.9333 9.10141C18.9057 9.1046 18.8692 9.10821 18.8229 9.1121C18.7304 9.1199 18.6089 9.12798 18.4593 9.13612L18.5407 10.6339C18.8351 10.6179 19.0982 10.5988 19.2493 10.5705L18.9729 9.09618ZM18.4593 9.13612C17.3221 9.19794 14.8063 9.25 12 9.25V10.75C14.8133 10.75 17.3619 10.698 18.5407 10.6339L18.4593 9.13612ZM12 9.25C9.19374 9.25 6.67786 9.19794 5.54072 9.13612L5.45928 10.6339C6.6381 10.698 9.18669 10.75 12 10.75V9.25ZM5.54072 9.13612C5.39106 9.12798 5.26963 9.1199 5.17706 9.1121C5.13082 9.10821 5.09434 9.1046 5.06673 9.10141C5.03721 9.09799 5.02596 9.09596 5.02711 9.09618L4.75067 10.5705C4.90176 10.5988 5.16488 10.6179 5.45928 10.6339L5.54072 9.13612ZM12.5903 7.04412C12.8189 6.19124 13.6426 4.92567 14.5705 4.19729C15.0346 3.83294 15.4228 3.68419 15.6937 3.68451C15.8907 3.68474 16.1444 3.76048 16.4125 4.22497L17.7116 3.47497C17.2297 2.64039 16.5275 2.18549 15.6954 2.18451C14.9372 2.18362 14.223 2.56308 13.6443 3.01739C12.4864 3.92631 11.462 5.45979 11.1415 6.65582L12.5903 7.04412ZM16.4125 4.22497C16.6807 4.6895 16.6195 4.94712 16.5212 5.11788C16.386 5.35264 16.0631 5.61443 15.5156 5.83422C14.4208 6.27363 12.913 6.35413 12.0601 6.12554L11.6718 7.57441C12.8679 7.89498 14.7082 7.7746 16.0743 7.22627C16.7571 6.9522 17.4428 6.52341 17.8211 5.86628C18.2363 5.14515 18.1934 4.30956 17.7116 3.47497L16.4125 4.22497ZM12.7868 6.65582C12.4662 5.45979 11.4418 3.92631 10.2839 3.01739C9.70518 2.56308 8.99101 2.18362 8.23278 2.18451C7.40069 2.18549 6.69849 2.64039 6.21665 3.47497L7.51569 4.22497C7.78386 3.76048 8.03754 3.68474 8.23455 3.68451C8.50543 3.68419 8.89359 3.83294 9.35773 4.19729C10.2856 4.92567 11.1093 6.19124 11.3379 7.04412L12.7868 6.65582ZM6.21665 3.47497C5.7348 4.30956 5.69191 5.14515 6.10708 5.86628C6.48539 6.52341 7.17109 6.9522 7.85392 7.22627C9.22001 7.7746 11.0603 7.89498 12.2565 7.57441L11.8682 6.12554C11.0152 6.35413 9.50739 6.27363 8.41266 5.83422C7.86508 5.61443 7.54219 5.35264 7.40704 5.11788C7.30873 4.94712 7.24749 4.6895 7.51569 4.22497L6.21665 3.47497Z" fill="#001A72"/>
</svg>
