<svg width="24" height="24" viewBox="0 0 24 24" fill="none" xmlns="http://www.w3.org/2000/svg">
<path d="M3.38889 4L2.68989 3.72817V3.72817L3.38889 4ZM9.61111 4L8.91211 4.27183L8.91211 4.27183L9.61111 4ZM9.61111 20L8.91211 19.7282H8.91211L9.61111 20ZM3.38889 20L2.68989 20.2718L3.38889 20ZM14.3889 4L13.6899 3.72817V3.72817L14.3889 4ZM20.6111 4L19.9121 4.27183V4.27183L20.6111 4ZM20.6111 20L19.9121 19.7282L20.6111 20ZM14.3889 20L13.6899 20.2718L14.3889 20ZM4.08789 4.27183C4.0526 4.36258 4.01922 4.3452 4.14868 4.26057C4.25913 4.18836 4.43345 4.10376 4.67252 4.02357C5.14852 3.86392 5.79654 3.75 6.5 3.75V2.25C5.64791 2.25 4.83759 2.38608 4.19553 2.60143C3.87558 2.70874 3.57594 2.84289 3.32789 3.00506C3.09884 3.1548 2.8224 3.38742 2.68989 3.72817L4.08789 4.27183ZM6.5 3.75C7.20346 3.75 7.85148 3.86392 8.32748 4.02357C8.56655 4.10376 8.74087 4.18836 8.85132 4.26057C8.98078 4.3452 8.9474 4.36258 8.91211 4.27183L10.3101 3.72817C10.1776 3.38742 9.90116 3.1548 9.67211 3.00506C9.42406 2.84289 9.12442 2.70874 8.80447 2.60143C8.16241 2.38608 7.35209 2.25 6.5 2.25V3.75ZM8.91211 4.27183C8.90433 4.25182 8.91905 4.2898 8.94285 4.44034C8.96363 4.57185 8.98552 4.74941 9.00755 4.97223C9.0515 5.41676 9.0933 6.01311 9.12944 6.72549C9.20163 8.14872 9.25 10.0109 9.25 12H10.75C10.75 9.98906 10.7011 8.10128 10.6275 6.64951C10.5907 5.92439 10.5475 5.30199 10.5003 4.82464C10.4767 4.58653 10.4515 4.37737 10.4245 4.20615C10.4004 4.05395 10.3665 3.87318 10.3101 3.72817L8.91211 4.27183ZM9.25 12C9.25 13.9891 9.20163 15.8513 9.12944 17.2745C9.0933 17.9869 9.0515 18.5832 9.00755 19.0278C8.98552 19.2506 8.96363 19.4282 8.94285 19.5597C8.91905 19.7102 8.90433 19.7482 8.91211 19.7282L10.3101 20.2718C10.3665 20.1268 10.4004 19.9461 10.4245 19.7939C10.4515 19.6226 10.4767 19.4135 10.5003 19.1754C10.5475 18.698 10.5907 18.0756 10.6275 17.3505C10.7011 15.8987 10.75 14.0109 10.75 12H9.25ZM8.91211 19.7282C8.9474 19.6374 8.98078 19.6548 8.85132 19.7394C8.74087 19.8116 8.56655 19.8962 8.32748 19.9764C7.85148 20.1361 7.20346 20.25 6.5 20.25V21.75C7.35209 21.75 8.16241 21.6139 8.80447 21.3986C9.12442 21.2913 9.42406 21.1571 9.67211 20.9949C9.90116 20.8452 10.1776 20.6126 10.3101 20.2718L8.91211 19.7282ZM6.5 20.25C5.79654 20.25 5.14852 20.1361 4.67252 19.9764C4.43345 19.8962 4.25913 19.8116 4.14868 19.7394C4.01922 19.6548 4.0526 19.6374 4.08789 19.7282L2.68989 20.2718C2.8224 20.6126 3.09884 20.8452 3.32789 20.9949C3.57594 21.1571 3.87558 21.2913 4.19553 21.3986C4.83759 21.6139 5.64791 21.75 6.5 21.75V20.25ZM4.08789 19.7282C4.09567 19.7482 4.08095 19.7102 4.05715 19.5597C4.03637 19.4282 4.01449 19.2506 3.99245 19.0278C3.9485 18.5832 3.9067 17.9869 3.87056 17.2745C3.79837 15.8513 3.75 13.9891 3.75 12H2.25C2.25 14.0109 2.29885 15.8987 2.37249 17.3505C2.40927 18.0756 2.45254 18.698 2.49973 19.1754C2.52328 19.4135 2.54848 19.6226 2.57555 19.7939C2.59961 19.9461 2.63349 20.1268 2.68989 20.2718L4.08789 19.7282ZM3.75 12C3.75 10.0109 3.79837 8.14872 3.87056 6.72549C3.9067 6.01311 3.9485 5.41676 3.99245 4.97223C4.01449 4.74941 4.03637 4.57185 4.05715 4.44034C4.08095 4.2898 4.09567 4.25182 4.08789 4.27183L2.68989 3.72817C2.63349 3.87318 2.59961 4.05395 2.57555 4.20615C2.54848 4.37737 2.52328 4.58653 2.49973 4.82464C2.45254 5.30199 2.40927 5.92439 2.37249 6.64951C2.29885 8.10128 2.25 9.98906 2.25 12H3.75ZM15.0879 4.27183C15.0526 4.36258 15.0192 4.3452 15.1487 4.26057C15.2591 4.18836 15.4334 4.10376 15.6725 4.02357C16.1485 3.86392 16.7965 3.75 17.5 3.75V2.25C16.6479 2.25 15.8376 2.38608 15.1955 2.60143C14.8756 2.70874 14.5759 2.84289 14.3279 3.00506C14.0988 3.1548 13.8224 3.38742 13.6899 3.72817L15.0879 4.27183ZM17.5 3.75C18.2035 3.75 18.8515 3.86392 19.3275 4.02357C19.5665 4.10376 19.7409 4.18836 19.8513 4.26057C19.9808 4.3452 19.9474 4.36258 19.9121 4.27183L21.3101 3.72817C21.1776 3.38742 20.9012 3.1548 20.6721 3.00506C20.4241 2.84289 20.1244 2.70874 19.8045 2.60143C19.1624 2.38608 18.3521 2.25 17.5 2.25V3.75ZM19.9121 4.27183C19.9043 4.25182 19.9191 4.2898 19.9428 4.44034C19.9636 4.57185 19.9855 4.74941 20.0075 4.97223C20.0515 5.41676 20.0933 6.01311 20.1294 6.72549C20.2016 8.14872 20.25 10.0109 20.25 12H21.75C21.75 9.98906 21.7011 8.10128 21.6275 6.64951C21.5907 5.92439 21.5475 5.30199 21.5003 4.82464C21.4767 4.58653 21.4515 4.37737 21.4244 4.20615C21.4004 4.05395 21.3665 3.87318 21.3101 3.72817L19.9121 4.27183ZM20.25 12C20.25 13.9891 20.2016 15.8513 20.1294 17.2745C20.0933 17.9869 20.0515 18.5832 20.0075 19.0278C19.9855 19.2506 19.9636 19.4282 19.9428 19.5597C19.9191 19.7102 19.9043 19.7482 19.9121 19.7282L21.3101 20.2718C21.3665 20.1268 21.4004 19.9461 21.4244 19.7939C21.4515 19.6226 21.4767 19.4135 21.5003 19.1754C21.5475 18.698 21.5907 18.0756 21.6275 17.3505C21.7011 15.8987 21.75 14.0109 21.75 12H20.25ZM19.9121 19.7282C19.9474 19.6374 19.9808 19.6548 19.8513 19.7394C19.7409 19.8116 19.5665 19.8962 19.3275 19.9764C18.8515 20.1361 18.2035 20.25 17.5 20.25V21.75C18.3521 21.75 19.1624 21.6139 19.8045 21.3986C20.1244 21.2913 20.4241 21.1571 20.6721 20.9949C20.9012 20.8452 21.1776 20.6126 21.3101 20.2718L19.9121 19.7282ZM17.5 20.25C16.7965 20.25 16.1485 20.1361 15.6725 19.9764C15.4334 19.8962 15.2591 19.8116 15.1487 19.7394C15.0192 19.6548 15.0526 19.6374 15.0879 19.7282L13.6899 20.2718C13.8224 20.6126 14.0988 20.8452 14.3279 20.9949C14.5759 21.1571 14.8756 21.2913 15.1955 21.3986C15.8376 21.6139 16.6479 21.75 17.5 21.75V20.25ZM15.0879 19.7282C15.0957 19.7482 15.0809 19.7102 15.0572 19.5597C15.0364 19.4282 15.0145 19.2506 14.9925 19.0278C14.9485 18.5832 14.9067 17.9869 14.8706 17.2745C14.7984 15.8513 14.75 13.9891 14.75 12H13.25C13.25 14.0109 13.2989 15.8987 13.3725 17.3505C13.4093 18.0756 13.4525 18.698 13.4997 19.1754C13.5233 19.4135 13.5485 19.6226 13.5755 19.7939C13.5996 19.9461 13.6335 20.1268 13.6899 20.2718L15.0879 19.7282ZM14.75 12C14.75 10.0109 14.7984 8.14872 14.8706 6.72549C14.9067 6.01311 14.9485 5.41676 14.9925 4.97223C15.0145 4.74941 15.0364 4.57185 15.0572 4.44034C15.0809 4.2898 15.0957 4.25182 15.0879 4.27183L13.6899 3.72817C13.6335 3.87318 13.5996 4.05395 13.5755 4.20615C13.5485 4.37737 13.5233 4.58653 13.4997 4.82464C13.4525 5.30199 13.4093 5.92439 13.3725 6.64951C13.2989 8.10128 13.25 9.98906 13.25 12H14.75Z" fill="#001A72"/>
</svg>
