<svg width="24" height="24" viewBox="0 0 24 24" fill="none" xmlns="http://www.w3.org/2000/svg">
<path d="M3.75 6.75C3.75 5.3441 3.97832 4.68161 4.32996 4.32996C4.68161 3.97832 5.3441 3.75 6.75 3.75V2.25C5.28825 2.25 4.07574 2.46286 3.2693 3.2693C2.46286 4.07574 2.25 5.28825 2.25 6.75H3.75ZM6.75 9.75C5.3441 9.75 4.68161 9.52168 4.32996 9.17004C3.97832 8.81839 3.75 8.1559 3.75 6.75H2.25C2.25 8.21175 2.46286 9.42426 3.2693 10.2307C4.07574 11.0371 5.28825 11.25 6.75 11.25V9.75ZM9.75 6.75C9.75 8.1559 9.52168 8.81839 9.17004 9.17004C8.81839 9.52168 8.1559 9.75 6.75 9.75V11.25C8.21175 11.25 9.42426 11.0371 10.2307 10.2307C11.0371 9.42426 11.25 8.21175 11.25 6.75H9.75ZM6.75 3.75C8.1559 3.75 8.81839 3.97832 9.17004 4.32996C9.52168 4.68161 9.75 5.3441 9.75 6.75H11.25C11.25 5.28825 11.0371 4.07574 10.2307 3.2693C9.42426 2.46286 8.21175 2.25 6.75 2.25V3.75ZM3.75 17.25C3.75 15.8441 3.97832 15.1816 4.32996 14.83C4.68161 14.4783 5.3441 14.25 6.75 14.25V12.75C5.28825 12.75 4.07574 12.9629 3.2693 13.7693C2.46286 14.5757 2.25 15.7882 2.25 17.25H3.75ZM6.75 20.25C5.3441 20.25 4.68161 20.0217 4.32996 19.67C3.97832 19.3184 3.75 18.6559 3.75 17.25H2.25C2.25 18.7118 2.46286 19.9243 3.2693 20.7307C4.07574 21.5371 5.28825 21.75 6.75 21.75V20.25ZM9.75 17.25C9.75 18.6559 9.52168 19.3184 9.17004 19.67C8.81839 20.0217 8.1559 20.25 6.75 20.25V21.75C8.21175 21.75 9.42426 21.5371 10.2307 20.7307C11.0371 19.9243 11.25 18.7118 11.25 17.25H9.75ZM6.75 14.25C8.1559 14.25 8.81839 14.4783 9.17004 14.83C9.52168 15.1816 9.75 15.8441 9.75 17.25H11.25C11.25 15.7882 11.0371 14.5757 10.2307 13.7693C9.42426 12.9629 8.21175 12.75 6.75 12.75V14.25ZM14.25 17.25C14.25 15.8441 14.4783 15.1816 14.83 14.83C15.1816 14.4783 15.8441 14.25 17.25 14.25V12.75C15.7882 12.75 14.5757 12.9629 13.7693 13.7693C12.9629 14.5757 12.75 15.7882 12.75 17.25H14.25ZM17.25 20.25C15.8441 20.25 15.1816 20.0217 14.83 19.67C14.4783 19.3184 14.25 18.6559 14.25 17.25H12.75C12.75 18.7118 12.9629 19.9243 13.7693 20.7307C14.5757 21.5371 15.7882 21.75 17.25 21.75V20.25ZM20.25 17.25C20.25 18.6559 20.0217 19.3184 19.67 19.67C19.3184 20.0217 18.6559 20.25 17.25 20.25V21.75C18.7118 21.75 19.9243 21.5371 20.7307 20.7307C21.5371 19.9243 21.75 18.7118 21.75 17.25H20.25ZM17.25 14.25C18.6559 14.25 19.3184 14.4783 19.67 14.83C20.0217 15.1816 20.25 15.8441 20.25 17.25H21.75C21.75 15.7882 21.5371 14.5757 20.7307 13.7693C19.9243 12.9629 18.7118 12.75 17.25 12.75V14.25ZM14.25 6.75C14.25 5.3441 14.4783 4.68161 14.83 4.32996C15.1816 3.97832 15.8441 3.75 17.25 3.75V2.25C15.7882 2.25 14.5757 2.46286 13.7693 3.2693C12.9629 4.07574 12.75 5.28825 12.75 6.75H14.25ZM17.25 9.75C15.8441 9.75 15.1816 9.52168 14.83 9.17004C14.4783 8.81839 14.25 8.1559 14.25 6.75H12.75C12.75 8.21175 12.9629 9.42426 13.7693 10.2307C14.5757 11.0371 15.7882 11.25 17.25 11.25V9.75ZM20.25 6.75C20.25 8.1559 20.0217 8.81839 19.67 9.17004C19.3184 9.52168 18.6559 9.75 17.25 9.75V11.25C18.7118 11.25 19.9243 11.0371 20.7307 10.2307C21.5371 9.42426 21.75 8.21175 21.75 6.75H20.25ZM17.25 3.75C18.6559 3.75 19.3184 3.97832 19.67 4.32996C20.0217 4.68161 20.25 5.3441 20.25 6.75H21.75C21.75 5.28825 21.5371 4.07574 20.7307 3.2693C19.9243 2.46286 18.7118 2.25 17.25 2.25V3.75Z" fill="#001A72"/>
</svg>
