<svg width="24" height="24" viewBox="0 0 24 24" fill="none" xmlns="http://www.w3.org/2000/svg">
<path d="M3 21H2.25C2.25 21.4142 2.58579 21.75 3 21.75V21ZM21 21V21.75C21.4142 21.75 21.75 21.4142 21.75 21H21ZM7.25 15.5V18.5H8.75V15.5H7.25ZM3 13.75C4.02124 13.75 5.15208 13.7688 6.02214 14.0462C6.44661 14.1816 6.74831 14.361 6.94114 14.5764C7.11973 14.776 7.25 15.0554 7.25 15.5H8.75C8.75 14.7201 8.50527 14.0749 8.05886 13.5761C7.62669 13.0932 7.05339 12.8006 6.47786 12.6171C5.34792 12.2568 3.97876 12.25 3 12.25V13.75ZM7.25 18.5C7.25 18.9154 7.12449 19.1844 6.94407 19.3837C6.74861 19.5995 6.44248 19.7825 6.01513 19.9235C5.144 20.2107 4.00776 20.25 3 20.25V21.75C3.99224 21.75 5.356 21.7203 6.48487 21.348C7.05752 21.1592 7.62639 20.8649 8.05593 20.3905C8.50051 19.8996 8.75 19.2656 8.75 18.5H7.25ZM16.75 18.5V15.5H15.25V18.5H16.75ZM16.75 15.5C16.75 15.0846 16.8755 14.8156 17.0559 14.6163C17.2514 14.4005 17.5575 14.2175 17.9849 14.0765C18.856 13.7893 19.9922 13.75 21 13.75V12.25C20.0078 12.25 18.644 12.2797 17.5151 12.652C16.9425 12.8408 16.3736 13.1351 15.9441 13.6095C15.4995 14.1004 15.25 14.7344 15.25 15.5H16.75ZM21 20.25C19.9922 20.25 18.856 20.2107 17.9849 19.9235C17.5575 19.7825 17.2514 19.5995 17.0559 19.3837C16.8755 19.1844 16.75 18.9154 16.75 18.5H15.25C15.25 19.2656 15.4995 19.8996 15.9441 20.3905C16.3736 20.8649 16.9425 21.1592 17.5151 21.348C18.644 21.7203 20.0078 21.75 21 21.75V20.25ZM3.75 12C3.75 7.44365 7.44365 3.75 12 3.75V2.25C6.61522 2.25 2.25 6.61522 2.25 12H3.75ZM12 3.75C16.5563 3.75 20.25 7.44365 20.25 12H21.75C21.75 6.61522 17.3848 2.25 12 2.25V3.75ZM2.25 12V13H3.75V12H2.25ZM2.25 13V21H3.75V13H2.25ZM20.25 12V13H21.75V12H20.25ZM20.25 13V21H21.75V13H20.25Z" fill="#001A72"/>
</svg>
