<svg width="24" height="24" viewBox="0 0 24 24" fill="none" xmlns="http://www.w3.org/2000/svg">
<path d="M10.6975 3.74088L11.09 4.37995L11.09 4.37995L10.6975 3.74088ZM6.49996 7L5.96963 6.46967H5.96963L6.49996 7ZM17.5 7L18.0303 6.46967L17.5 7ZM13.3024 3.74088L13.695 3.10181V3.10181L13.3024 3.74088ZM3.72745 18.4631L4.47066 18.3625V18.3625L3.72745 18.4631ZM3.49997 15H4.24997H3.49997ZM20.2725 18.4632L19.5293 18.3625L20.2725 18.4632ZM10.3049 3.10181C9.17352 3.79678 7.48778 4.95152 5.96963 6.46967L7.03029 7.53033C8.43484 6.12578 10.0135 5.0412 11.09 4.37995L10.3049 3.10181ZM18.0303 6.46967C16.5121 4.95152 14.8264 3.79678 13.695 3.10181L12.9099 4.37995C13.9864 5.0412 15.5651 6.12578 16.9696 7.53033L18.0303 6.46967ZM4.47066 18.3625C4.3574 17.5261 4.24997 16.3711 4.24997 15H2.74997C2.74997 16.4485 2.86338 17.6715 2.98423 18.5638L4.47066 18.3625ZM19.75 15C19.75 16.3711 19.6425 17.5261 19.5293 18.3625L21.0157 18.5638C21.1366 17.6715 21.25 16.4485 21.25 15H19.75ZM5.96963 6.46967C4.32836 8.11094 3.49107 9.46687 3.09111 10.8556C2.70085 12.2106 2.74997 13.5459 2.74997 15H4.24997C4.24997 13.4541 4.21489 12.3736 4.53252 11.2707C4.84046 10.2015 5.50317 9.05745 7.03029 7.53033L5.96963 6.46967ZM21.25 15C21.25 13.5459 21.2991 12.2106 20.9088 10.8556C20.5088 9.46686 19.6716 8.11093 18.0303 6.46967L16.9696 7.53033C18.4967 9.05744 19.1595 10.2015 19.4674 11.2707C19.785 12.3736 19.75 13.4541 19.75 15H21.25ZM5.56152 19.25C4.97993 19.25 4.53837 18.8625 4.47066 18.3625L2.98423 18.5638C3.16285 19.8827 4.30764 20.75 5.56152 20.75V19.25ZM18.4384 20.75C19.6923 20.75 20.8371 19.8827 21.0157 18.5638L19.5293 18.3625C19.4616 18.8625 19.02 19.25 18.4384 19.25V20.75ZM11.09 4.37995C11.6538 4.03363 12.3461 4.03363 12.9099 4.37995L13.695 3.10181C12.6496 2.45968 11.3503 2.45968 10.3049 3.10181L11.09 4.37995ZM18.4384 19.25H5.56152V20.75H18.4384V19.25Z" fill="#001A72"/>
</svg>
