<svg width="24" height="24" viewBox="0 0 24 24" fill="none" xmlns="http://www.w3.org/2000/svg">
<path d="M10.6976 3.74084L11.0902 4.37991L11.0902 4.37991L10.6976 3.74084ZM6.50008 6.99997L5.96975 6.46964H5.96975L6.50008 6.99997ZM17.5001 6.99997L18.0304 6.46964L17.5001 6.99997ZM13.3026 3.74085L13.6951 3.10178V3.10178L13.3026 3.74085ZM3.72757 18.4631L4.47079 18.3625L3.72757 18.4631ZM3.50009 15H4.25009H3.50009ZM20.2726 18.4631L19.5294 18.3625L20.2726 18.4631ZM12.75 10C12.75 9.58579 12.4142 9.25 12 9.25C11.5858 9.25 11.25 9.58579 11.25 10H12.75ZM11.25 16C11.25 16.4142 11.5858 16.75 12 16.75C12.4142 16.75 12.75 16.4142 12.75 16H11.25ZM9 12.25C8.58579 12.25 8.25 12.5858 8.25 13C8.25 13.4142 8.58579 13.75 9 13.75V12.25ZM15 13.75C15.4142 13.75 15.75 13.4142 15.75 13C15.75 12.5858 15.4142 12.25 15 12.25V13.75ZM10.3051 3.10177C9.17364 3.79674 7.48791 4.95149 5.96975 6.46964L7.03041 7.5303C8.43496 6.12575 10.0136 5.04117 11.0902 4.37991L10.3051 3.10177ZM18.0304 6.46964C16.5123 4.95149 14.8265 3.79675 13.6951 3.10178L12.91 4.37992C13.9866 5.04117 15.5652 6.12575 16.9698 7.5303L18.0304 6.46964ZM4.47079 18.3625C4.35752 17.5261 4.25009 16.3711 4.25009 15H2.75009C2.75009 16.4485 2.8635 17.6714 2.98436 18.5638L4.47079 18.3625ZM19.7501 15C19.7501 16.3711 19.6427 17.5261 19.5294 18.3625L21.0158 18.5638C21.1367 17.6714 21.2501 16.4485 21.2501 15H19.7501ZM5.96975 6.46964C4.32848 8.11091 3.4912 9.46683 3.09123 10.8555C2.70097 12.2106 2.75009 13.5459 2.75009 15H4.25009C4.25009 13.454 4.21501 12.3735 4.53264 11.2707C4.84058 10.2015 5.50329 9.05742 7.03041 7.5303L5.96975 6.46964ZM21.2501 15C21.2501 13.5459 21.2992 12.2106 20.9089 10.8555C20.509 9.46683 19.6717 8.1109 18.0304 6.46964L16.9698 7.5303C18.4969 9.05741 19.1596 10.2015 19.4675 11.2707C19.7852 12.3735 19.7501 13.454 19.7501 15H21.2501ZM5.56164 19.25C4.98005 19.25 4.5385 18.8624 4.47079 18.3625L2.98436 18.5638C3.16297 19.8827 4.30776 20.75 5.56164 20.75V19.25ZM18.4385 20.75C19.6924 20.75 20.8372 19.8827 21.0158 18.5638L19.5294 18.3625C19.4617 18.8624 19.0201 19.25 18.4385 19.25V20.75ZM11.0902 4.37991C11.654 4.0336 12.3462 4.0336 12.91 4.37992L13.6951 3.10178C12.6497 2.45965 11.3505 2.45965 10.3051 3.10178L11.0902 4.37991ZM18.4385 19.25H5.56164V20.75H18.4385V19.25ZM11.25 10V16H12.75V10H11.25ZM9 13.75H15V12.25H9V13.75Z" fill="#001A72"/>
</svg>
