<svg width="24" height="24" viewBox="0 0 24 24" fill="none" xmlns="http://www.w3.org/2000/svg">
<path d="M20.3853 14.3853L21.1309 14.4668V14.4668L20.3853 14.3853ZM10.4142 14.4142L9.88389 14.9445L10.4142 14.4142ZM10.5858 14.5858L11.1161 14.0555L10.5858 14.5858ZM13.4142 14.5858L12.8839 14.0555H12.8839L13.4142 14.5858ZM15.5858 12.4142L15.0555 11.8839L15.5858 12.4142ZM18.4142 12.4142L18.9445 11.8839L18.4142 12.4142ZM7.58579 14.4142L8.11612 14.9445L8.11612 14.9445L7.58579 14.4142ZM4.25 12C4.25 8.77793 4.75773 6.92793 5.84283 5.84283C6.92793 4.75773 8.77793 4.25 12 4.25V2.75C8.72207 2.75 6.32207 3.24227 4.78217 4.78217C3.24227 6.32207 2.75 8.72207 2.75 12H4.25ZM12 4.25C15.2221 4.25 17.0721 4.75773 18.1572 5.84283C19.2423 6.92793 19.75 8.77793 19.75 12H21.25C21.25 8.72207 20.7577 6.32207 19.2178 4.78217C17.6779 3.24227 15.2779 2.75 12 2.75V4.25ZM12 19.75C7.96975 19.75 6.07375 18.9636 5.13113 17.1812L3.80514 17.8825C5.17207 20.4672 7.88778 21.25 12 21.25V19.75ZM5.13113 17.1812C4.52991 16.0444 4.25 14.3951 4.25 12H2.75C2.75 14.4625 3.02856 16.4141 3.80514 17.8825L5.13113 17.1812ZM19.75 12C19.75 12.8548 19.7146 13.6197 19.6397 14.3038L21.1309 14.4668C21.213 13.7155 21.25 12.8943 21.25 12H19.75ZM19.6397 14.3038C19.3986 16.5088 18.7603 17.7885 17.6764 18.5639C16.5475 19.3717 14.7817 19.75 12 19.75V21.25C14.8437 21.25 17.0181 20.8793 18.5493 19.7839C20.1254 18.6562 20.8671 16.8784 21.1309 14.4668L19.6397 14.3038ZM9.941 8.846C9.941 9.45079 9.44979 9.942 8.845 9.942V11.442C10.2782 11.442 11.441 10.2792 11.441 8.846H9.941ZM8.845 9.942C8.24148 9.942 7.75 9.45105 7.75 8.846H6.25C6.25 10.2789 7.41252 11.442 8.845 11.442V9.942ZM7.75 8.846C7.75 8.24095 8.24148 7.75 8.845 7.75V6.25C7.41252 6.25 6.25 7.41305 6.25 8.846H7.75ZM8.845 7.75C9.44979 7.75 9.941 8.24121 9.941 8.846H11.441C11.441 7.41279 10.2782 6.25 8.845 6.25V7.75ZM9.88389 14.9445L10.0555 15.1161L11.1161 14.0555L10.9445 13.8839L9.88389 14.9445ZM13.9445 15.1161L16.1161 12.9445L15.0555 11.8839L12.8839 14.0555L13.9445 15.1161ZM16.1161 12.9445C16.6043 12.4564 17.3957 12.4564 17.8839 12.9445L18.9445 11.8839C17.8706 10.8099 16.1294 10.8099 15.0555 11.8839L16.1161 12.9445ZM10.0555 15.1161C11.1294 16.1901 12.8706 16.1901 13.9445 15.1161L12.8839 14.0555C12.3957 14.5436 11.6043 14.5436 11.1161 14.0555L10.0555 15.1161ZM8.11612 14.9445C8.60428 14.4564 9.39573 14.4564 9.88389 14.9445L10.9445 13.8839C9.8706 12.8099 8.1294 12.8099 7.05546 13.8839L8.11612 14.9445ZM4.99847 18.0622L8.11612 14.9445L7.05546 13.8839L3.93781 17.0015L4.99847 18.0622ZM17.8839 12.9445L19.855 14.9156L20.9156 13.855L18.9445 11.8839L17.8839 12.9445Z" fill="#001A72"/>
</svg>
