<svg width="24" height="24" viewBox="0 0 24 24" fill="none" xmlns="http://www.w3.org/2000/svg">
<path d="M3 12L2.29775 11.7367C2.26618 11.8209 2.25 11.9101 2.25 12H3ZM14.5937 14.1094L13.9697 13.6934L14.5937 14.1094ZM15.4063 12.8906L16.0303 13.3066L15.4063 12.8906ZM21 12H21.75C21.75 11.9101 21.7338 11.8209 21.7022 11.7367L21 12ZM5.51334 5.29775L6.21559 5.5611V5.5611L5.51334 5.29775ZM18.4867 5.29775L17.7844 5.5611V5.5611L18.4867 5.29775ZM11.2361 15.75H12.9296V14.25H11.2361V15.75ZM3 12.75H7.26393V11.25H3V12.75ZM8.38197 13.441L8.77639 14.2298L10.118 13.559L9.72361 12.7702L8.38197 13.441ZM15.2178 14.5254L16.0303 13.3066L14.7822 12.4746L13.9697 13.6934L15.2178 14.5254ZM17.0704 12.75H21V11.25H17.0704V12.75ZM16.0303 13.3066C16.2621 12.9589 16.6524 12.75 17.0704 12.75V11.25C16.1509 11.25 15.2923 11.7095 14.7822 12.4746L16.0303 13.3066ZM7.26393 12.75C7.7374 12.75 8.17023 13.0175 8.38197 13.441L9.72361 12.7702C9.25778 11.8385 8.30556 11.25 7.26393 11.25V12.75ZM12.9296 15.75C13.8491 15.75 14.7077 15.2905 15.2178 14.5254L13.9697 13.6934C13.7379 14.0411 13.3476 14.25 12.9296 14.25V15.75ZM11.2361 14.25C10.7626 14.25 10.3298 13.9825 10.118 13.559L8.77639 14.2298C9.24222 15.1615 10.1944 15.75 11.2361 15.75V14.25ZM20.25 12V18H21.75V12H20.25ZM19 19.25H5V20.75H19V19.25ZM3.75 18V12H2.25V18H3.75ZM3.70225 12.2633L6.21559 5.5611L4.8111 5.03441L2.29775 11.7367L3.70225 12.2633ZM17.7844 5.5611L20.2978 12.2633L21.7022 11.7367L19.1889 5.03441L17.7844 5.5611ZM5 19.25C4.30964 19.25 3.75 18.6904 3.75 18H2.25C2.25 19.5188 3.48122 20.75 5 20.75V19.25ZM20.25 18C20.25 18.6904 19.6904 19.25 19 19.25V20.75C20.5188 20.75 21.75 19.5188 21.75 18H20.25ZM7.386 4.75H16.614V3.25H7.386V4.75ZM6.21559 5.5611C6.39854 5.07322 6.86495 4.75 7.386 4.75V3.25C6.23968 3.25 5.2136 3.96108 4.8111 5.03441L6.21559 5.5611ZM19.1889 5.03441C18.7864 3.96108 17.7603 3.25 16.614 3.25V4.75C17.1351 4.75 17.6015 5.07322 17.7844 5.5611L19.1889 5.03441Z" fill="#001A72"/>
</svg>
