<svg width="24" height="24" viewBox="0 0 24 24" fill="none" xmlns="http://www.w3.org/2000/svg">
<path d="M12.8159 20.6077L13.1566 21.2759L13.1566 21.2759L12.8159 20.6077ZM11.1841 20.6077L10.8434 21.2759L10.8434 21.2759L11.1841 20.6077ZM8.5 10.25C8.08579 10.25 7.75 10.5858 7.75 11C7.75 11.4142 8.08579 11.75 8.5 11.75V10.25ZM15.5 11.75C15.9142 11.75 16.25 11.4142 16.25 11C16.25 10.5858 15.9142 10.25 15.5 10.25V11.75ZM12.75 7.5C12.75 7.08579 12.4142 6.75 12 6.75C11.5858 6.75 11.25 7.08579 11.25 7.5H12.75ZM11.25 14.5C11.25 14.9142 11.5858 15.25 12 15.25C12.4142 15.25 12.75 14.9142 12.75 14.5H11.25ZM19.25 11C19.25 14.733 16.3981 17.9392 12.4752 19.9396L13.1566 21.2759C17.3037 19.1612 20.75 15.5527 20.75 11H19.25ZM11.5248 19.9396C7.60187 17.9392 4.75 14.733 4.75 11H3.25C3.25 15.5527 6.6963 19.1612 10.8434 21.2759L11.5248 19.9396ZM4.75 11C4.75 6.99594 7.99594 3.75 12 3.75V2.25C7.16751 2.25 3.25 6.16751 3.25 11H4.75ZM12 3.75C16.0041 3.75 19.25 6.99594 19.25 11H20.75C20.75 6.16751 16.8325 2.25 12 2.25V3.75ZM12.4752 19.9396C12.1765 20.0918 11.8235 20.0918 11.5248 19.9396L10.8434 21.2759C11.5701 21.6464 12.4299 21.6464 13.1566 21.2759L12.4752 19.9396ZM8.5 11.75H15.5V10.25H8.5V11.75ZM11.25 7.5V14.5H12.75V7.5H11.25Z" fill="#001A72"/>
</svg>
