<svg width="24" height="24" viewBox="0 0 24 24" fill="none" xmlns="http://www.w3.org/2000/svg">
<path d="M4.29452 6.29452L3.79177 5.73796H3.79177L4.29452 6.29452ZM13.4142 12.5858L12.8839 12.0554L12.8839 12.0554L13.4142 12.5858ZM12 18.75C8.37353 18.75 6.23757 18.2966 4.99047 17.3121C3.80182 16.3737 3.25 14.802 3.25 12H1.75C1.75 14.9333 2.31583 17.1116 4.061 18.4894C5.74772 19.821 8.36176 20.25 12 20.25V18.75ZM20.75 12C20.75 14.802 20.1982 16.3737 19.0095 17.3121C17.7624 18.2966 15.6265 18.75 12 18.75V20.25C15.6382 20.25 18.2523 19.821 19.939 18.4894C21.6842 17.1116 22.25 14.9333 22.25 12H20.75ZM12 5.25C15.829 5.25 17.9904 5.75598 19.2027 6.85107L20.2082 5.73796C18.5332 4.22491 15.8306 3.75 12 3.75V5.25ZM19.2027 6.85107C20.2547 7.80132 20.75 9.34846 20.75 12H22.25C22.25 9.22801 21.7459 7.12693 20.2082 5.73796L19.2027 6.85107ZM3.25 12C3.25 9.34846 3.7453 7.80132 4.79726 6.85107L3.79177 5.73796C2.25414 7.12693 1.75 9.22801 1.75 12H3.25ZM4.79726 6.85107C6.00955 5.75598 8.17099 5.25 12 5.25V3.75C8.16941 3.75 5.46677 4.22491 3.79177 5.73796L4.79726 6.85107ZM10.0554 13.1161C11.1294 14.19 12.8706 14.19 13.9445 13.1161L12.8839 12.0554C12.3957 12.5436 11.6043 12.5436 11.1161 12.0554L10.0554 13.1161ZM3.76419 6.82485L10.0554 13.1161L11.1161 12.0554L4.82485 5.76419L3.76419 6.82485ZM13.9445 13.1161L20.2358 6.82485L19.1752 5.76418L12.8839 12.0554L13.9445 13.1161Z" fill="#001A72"/>
</svg>
