<svg width="24" height="24" viewBox="0 0 24 24" fill="none" xmlns="http://www.w3.org/2000/svg">
<path d="M9 13.25C8.58579 13.25 8.25 13.5858 8.25 14C8.25 14.4142 8.58579 14.75 9 14.75V13.25ZM15 14.75C15.4142 14.75 15.75 14.4142 15.75 14C15.75 13.5858 15.4142 13.25 15 13.25V14.75ZM12.75 11C12.75 10.5858 12.4142 10.25 12 10.25C11.5858 10.25 11.25 10.5858 11.25 11H12.75ZM11.25 17C11.25 17.4142 11.5858 17.75 12 17.75C12.4142 17.75 12.75 17.4142 12.75 17H11.25ZM6.21115 12.5777L5.54033 12.2423L6.21115 12.5777ZM7.05649 10.887L6.38567 10.5516L7.05649 10.887ZM16.9435 10.887L16.2727 11.2225L16.9435 10.887ZM17.7889 12.5777L18.4597 12.2423L18.4597 12.2423L17.7889 12.5777ZM5.25 13.4722C5.25 13.8864 5.58579 14.2222 6 14.2222C6.41421 14.2222 6.75 13.8864 6.75 13.4722H5.25ZM16 6.89026L15.9396 6.1427L16 6.89026ZM6.75 13.5C6.75 13.0858 6.41421 12.75 6 12.75C5.58579 12.75 5.25 13.0858 5.25 13.5H6.75ZM7.55556 4.16667L7.77107 4.88504H7.77107L7.55556 4.16667ZM16.4444 4.16667L16.2289 4.88504V4.88504L16.4444 4.16667ZM16.4444 6.83333L16.66 7.5517L16.4444 6.83333ZM7.55556 6.83333L7.34004 7.5517L7.55556 6.83333ZM9 14.75H15V13.25H9V14.75ZM11.25 11V17H12.75V11H11.25ZM14 20.25H10V21.75H14V20.25ZM6.88197 12.9131L7.72731 11.2225L6.38567 10.5516L5.54033 12.2423L6.88197 12.9131ZM16.2727 11.2225L17.118 12.9131L18.4597 12.2423L17.6143 10.5516L16.2727 11.2225ZM18.75 13.4722C18.75 13.0452 18.6506 12.6242 18.4597 12.2423L17.118 12.9131C17.2048 13.0867 17.25 13.2781 17.25 13.4722H18.75ZM6.75 13.4722C6.75 13.2781 6.79518 13.0867 6.88197 12.9131L5.54033 12.2423C5.3494 12.6242 5.25 13.0452 5.25 13.4722H6.75ZM17.6143 10.5516C17.0459 9.41481 16.75 8.16126 16.75 6.89026H15.25C15.25 8.39413 15.6001 9.87735 16.2727 11.2225L17.6143 10.5516ZM7.72731 11.2225C8.39986 9.87735 8.75 8.39413 8.75 6.89026H7.25C7.25 8.16126 6.95408 9.41481 6.38567 10.5516L7.72731 11.2225ZM18.75 17V13.4722H17.25V17H18.75ZM5.25 13.5V17H6.75V13.5H5.25ZM10 20.25C8.20508 20.25 6.75 18.7949 6.75 17H5.25C5.25 19.6234 7.37665 21.75 10 21.75V20.25ZM14 21.75C16.6234 21.75 18.75 19.6234 18.75 17H17.25C17.25 18.7949 15.7949 20.25 14 20.25V21.75ZM7.77107 4.88504C7.73807 4.89494 7.74149 4.89036 7.82591 4.88007C7.89449 4.8717 7.9896 4.86261 8.11173 4.8533C8.35508 4.83474 8.68354 4.81694 9.07794 4.80151C9.86552 4.77069 10.8973 4.75 12 4.75V3.25C10.8805 3.25 9.82892 3.27098 9.01929 3.30266C8.61507 3.31847 8.26645 3.33714 7.99765 3.35764C7.8637 3.36786 7.74397 3.37895 7.64436 3.39109C7.5606 3.40131 7.44249 3.41756 7.34004 3.4483L7.77107 4.88504ZM12 4.75C13.1027 4.75 14.1345 4.77069 14.9221 4.80151C15.3165 4.81694 15.6449 4.83474 15.8883 4.8533C16.0104 4.86261 16.1055 4.8717 16.1741 4.88007C16.2585 4.89036 16.2619 4.89494 16.2289 4.88504L16.66 3.4483C16.5575 3.41756 16.4394 3.40131 16.3556 3.39109C16.256 3.37895 16.1363 3.36786 16.0024 3.35764C15.7336 3.33714 15.3849 3.31847 14.9807 3.30266C14.1711 3.27098 13.1195 3.25 12 3.25V4.75ZM16.2289 4.88504C16.1086 4.84894 16.0635 4.78621 16.0763 4.8013C16.0828 4.80897 16.1079 4.84316 16.1386 4.91363C16.1998 5.05433 16.25 5.26451 16.25 5.5H17.75C17.75 5.06882 17.6613 4.654 17.5142 4.31554C17.4407 4.14642 17.3443 3.97749 17.2206 3.83152C17.1032 3.69296 16.9192 3.52606 16.66 3.4483L16.2289 4.88504ZM16.25 5.5C16.25 5.73549 16.1998 5.94567 16.1386 6.08637C16.1079 6.15684 16.0828 6.19103 16.0763 6.1987C16.0635 6.21379 16.1086 6.15106 16.2289 6.11496L16.66 7.5517C16.9192 7.47394 17.1032 7.30704 17.2206 7.16849C17.3443 7.02251 17.4407 6.85358 17.5142 6.68446C17.6613 6.346 17.75 5.93118 17.75 5.5H16.25ZM7.77107 6.11496C7.8914 6.15106 7.93652 6.21379 7.92373 6.1987C7.91723 6.19103 7.89205 6.15684 7.86141 6.08637C7.80024 5.94567 7.75 5.73549 7.75 5.5H6.25C6.25 5.93118 6.33865 6.346 6.48581 6.68446C6.55934 6.85358 6.65569 7.02251 6.77939 7.16849C6.89681 7.30704 7.08082 7.47394 7.34004 7.5517L7.77107 6.11496ZM7.75 5.5C7.75 5.26451 7.80024 5.05433 7.86141 4.91363C7.89205 4.84316 7.91723 4.80897 7.92373 4.8013C7.93652 4.78621 7.8914 4.84894 7.77107 4.88504L7.34004 3.4483C7.08082 3.52606 6.89681 3.69296 6.77939 3.83151C6.65569 3.97749 6.55934 4.14642 6.48581 4.31554C6.33865 4.654 6.25 5.06882 6.25 5.5H7.75ZM12 6.25C10.2996 6.25 8.77996 6.20085 8.06042 6.1427L7.93958 7.63782C8.71923 7.70083 10.286 7.75 12 7.75V6.25ZM8.06042 6.1427C7.95348 6.13405 7.87098 6.12573 7.81193 6.1182C7.78245 6.11445 7.76306 6.11142 7.75193 6.10944C7.73736 6.10684 7.74755 6.10791 7.77107 6.11496L7.34004 7.5517C7.49603 7.5985 7.73688 7.62144 7.93958 7.63782L8.06042 6.1427ZM16.2289 6.11496C16.2525 6.10791 16.2626 6.10684 16.2481 6.10944C16.2369 6.11142 16.2176 6.11445 16.1881 6.1182C16.129 6.12573 16.0465 6.13405 15.9396 6.1427L16.0604 7.63782C16.2631 7.62144 16.504 7.5985 16.66 7.5517L16.2289 6.11496ZM15.9396 6.1427C15.22 6.20085 13.7004 6.25 12 6.25V7.75C13.714 7.75 15.2808 7.70083 16.0604 7.63782L15.9396 6.1427Z" fill="#001A72"/>
</svg>
