<svg width="24" height="24" viewBox="0 0 24 24" fill="none" xmlns="http://www.w3.org/2000/svg">
<path d="M21.4444 6.55556L21.0951 7.21924V7.21924L21.4444 6.55556ZM21.4444 17.4444L21.0951 16.7808L21.4444 17.4444ZM6.75 9.5C6.75 9.08579 6.41421 8.75 6 8.75C5.58579 8.75 5.25 9.08579 5.25 9.5H6.75ZM5.25 14.5C5.25 14.9142 5.58579 15.25 6 15.25C6.41421 15.25 6.75 14.9142 6.75 14.5H5.25ZM18.75 9.5C18.75 9.08579 18.4142 8.75 18 8.75C17.5858 8.75 17.25 9.08579 17.25 9.5H18.75ZM17.25 14.5C17.25 14.9142 17.5858 15.25 18 15.25C18.4142 15.25 18.75 14.9142 18.75 14.5H17.25ZM2.90487 7.21924C2.85508 7.24545 2.87633 7.22592 3.07449 7.18972C3.23768 7.15992 3.46186 7.12851 3.74378 7.09689C4.30572 7.03384 5.05944 6.974 5.93649 6.92231C7.68887 6.81903 9.90332 6.75 12 6.75V5.25C9.87446 5.25 7.63058 5.31986 5.84823 5.42491C4.95792 5.47738 4.17518 5.53908 3.57654 5.60624C3.27815 5.63971 3.01601 5.67559 2.80496 5.71414C2.62887 5.7463 2.38798 5.79622 2.20625 5.89187L2.90487 7.21924ZM12 6.75C14.0967 6.75 16.3111 6.81903 18.0635 6.92231C18.9406 6.974 19.6943 7.03384 20.2562 7.09689C20.5381 7.12851 20.7623 7.15992 20.9255 7.18972C21.1237 7.22592 21.1449 7.24545 21.0951 7.21924L21.7938 5.89187C21.612 5.79622 21.3711 5.7463 21.195 5.71414C20.984 5.67559 20.7218 5.63971 20.4235 5.60624C19.8248 5.53908 19.0421 5.47738 18.1518 5.42491C16.3694 5.31986 14.1255 5.25 12 5.25V6.75ZM21.0951 7.21924C20.9697 7.15321 20.9476 7.0773 20.9933 7.15573C21.0257 7.21129 21.0715 7.30977 21.1249 7.46097C21.2309 7.76068 21.3379 8.18304 21.4332 8.68771C21.6231 9.69427 21.75 10.9393 21.75 12H23.25C23.25 10.8385 23.113 9.50017 22.9071 8.40951C22.8045 7.86557 22.6805 7.36084 22.5391 6.96091C22.4689 6.76228 22.3868 6.56779 22.2893 6.40047C22.2051 6.25603 22.0512 6.02734 21.7938 5.89187L21.0951 7.21924ZM21.75 12C21.75 13.0607 21.6231 14.3057 21.4332 15.3123C21.3379 15.817 21.2309 16.2393 21.1249 16.539C21.0715 16.6902 21.0257 16.7887 20.9933 16.8443C20.9476 16.9227 20.9697 16.8468 21.0951 16.7808L21.7938 18.1081C22.0512 17.9727 22.2051 17.744 22.2893 17.5995C22.3868 17.4322 22.4689 17.2377 22.5391 17.0391C22.6805 16.6392 22.8045 16.1344 22.9071 15.5905C23.113 14.4998 23.25 13.1615 23.25 12H21.75ZM21.0951 16.7808C21.1449 16.7546 21.1237 16.7741 20.9255 16.8103C20.7623 16.8401 20.5381 16.8715 20.2562 16.9031C19.6943 16.9662 18.9406 17.026 18.0635 17.0777C16.3111 17.181 14.0967 17.25 12 17.25V18.75C14.1255 18.75 16.3694 18.6801 18.1518 18.5751C19.0421 18.5226 19.8248 18.4609 20.4235 18.3938C20.7218 18.3603 20.984 18.3244 21.195 18.2859C21.3711 18.2537 21.612 18.2038 21.7938 18.1081L21.0951 16.7808ZM12 17.25C9.90332 17.25 7.68887 17.181 5.93649 17.0777C5.05944 17.026 4.30572 16.9662 3.74378 16.9031C3.46186 16.8715 3.23768 16.8401 3.07449 16.8103C2.87633 16.7741 2.85508 16.7546 2.90487 16.7808L2.20625 18.1081C2.38798 18.2038 2.62887 18.2537 2.80496 18.2859C3.01601 18.3244 3.27815 18.3603 3.57654 18.3938C4.17518 18.4609 4.95792 18.5226 5.84823 18.5751C7.63058 18.6801 9.87446 18.75 12 18.75V17.25ZM2.90487 16.7808C3.03033 16.8468 3.05237 16.9227 3.00666 16.8443C2.97429 16.7887 2.92853 16.6902 2.87507 16.539C2.76909 16.2393 2.6621 15.817 2.56685 15.3123C2.37687 14.3057 2.25 13.0607 2.25 12H0.75C0.75 13.1615 0.88702 14.4998 1.09287 15.5905C1.19554 16.1344 1.31946 16.6392 1.46087 17.0391C1.53111 17.2377 1.61317 17.4322 1.71068 17.5995C1.79485 17.744 1.94884 17.9727 2.20625 18.1081L2.90487 16.7808ZM2.25 12C2.25 10.9393 2.37687 9.69427 2.56685 8.68771C2.6621 8.18304 2.76909 7.76068 2.87507 7.46097C2.92853 7.30977 2.97429 7.21129 3.00666 7.15573C3.05237 7.0773 3.03033 7.15321 2.90487 7.21924L2.20625 5.89187C1.94884 6.02734 1.79485 6.25603 1.71068 6.40047C1.61317 6.56779 1.53111 6.76228 1.46087 6.96091C1.31946 7.36084 1.19554 7.86557 1.09287 8.40951C0.88702 9.50017 0.75 10.8385 0.75 12H2.25ZM5.25 9.5V14.5H6.75V9.5H5.25ZM13.75 12C13.75 12.9665 12.9665 13.75 12 13.75V15.25C13.7949 15.25 15.25 13.7949 15.25 12H13.75ZM12 13.75C11.0335 13.75 10.25 12.9665 10.25 12H8.75C8.75 13.7949 10.2051 15.25 12 15.25V13.75ZM10.25 12C10.25 11.0335 11.0335 10.25 12 10.25V8.75C10.2051 8.75 8.75 10.2051 8.75 12H10.25ZM12 10.25C12.9665 10.25 13.75 11.0335 13.75 12H15.25C15.25 10.2051 13.7949 8.75 12 8.75V10.25ZM17.25 9.5V14.5H18.75V9.5H17.25Z" fill="#001A72"/>
</svg>
