<svg width="24" height="24" viewBox="0 0 24 24" fill="none" xmlns="http://www.w3.org/2000/svg">
<path d="M17.6299 19.9233L17.9058 19.2258L17.6299 19.9233ZM12 17.6965L12.2759 16.999C12.0986 16.9289 11.9014 16.9289 11.7241 16.999L12 17.6965ZM6.37009 19.9233L6.64595 20.6207H6.64595L6.37009 19.9233ZM5.03907 18.7765L5.76091 18.9801L5.03907 18.7765ZM7.54127 11.8179L8.22941 12.1161L7.54127 11.8179ZM12 3L12.6412 2.61094C12.5052 2.38685 12.2621 2.25 12 2.25C11.7379 2.25 11.4948 2.38685 11.3588 2.61094L12 3ZM16.4587 11.8179L15.7706 12.1161L16.4587 11.8179ZM18.9609 18.7765L19.6828 18.573L18.9609 18.7765ZM17.9058 19.2258L12.2759 16.999L11.7241 18.3939L17.3541 20.6207L17.9058 19.2258ZM11.7241 16.999L6.09424 19.2258L6.64595 20.6207L12.2759 18.3939L11.7241 16.999ZM5.76091 18.9801C6.19584 17.4381 6.97323 15.0145 8.22941 12.1161L6.85312 11.5196C5.5659 14.4896 4.76712 16.9779 4.31723 18.573L5.76091 18.9801ZM8.22941 12.1161C9.33408 9.56735 10.4392 7.38182 11.2678 5.83403C11.682 5.06042 12.0267 4.44689 12.2673 4.0278C12.3876 3.81828 12.4817 3.65742 12.5455 3.54952C12.5774 3.49557 12.6017 3.45486 12.6178 3.42794C12.6259 3.41448 12.6319 3.40446 12.6358 3.39796C12.6378 3.39471 12.6392 3.39234 12.6401 3.39085C12.6406 3.39011 12.6409 3.38959 12.6411 3.38929C12.6411 3.38914 12.6412 3.38905 12.6412 3.38901C12.6412 3.38899 12.6412 3.389 12.6412 3.38899C12.6412 3.38902 12.6412 3.38906 12 3C11.3588 2.61094 11.3588 2.61101 11.3587 2.61109C11.3587 2.61114 11.3586 2.61124 11.3586 2.61133C11.3585 2.61151 11.3583 2.61176 11.3581 2.61206C11.3578 2.61265 11.3573 2.61347 11.3566 2.61451C11.3554 2.6166 11.3536 2.61958 11.3513 2.62343C11.3466 2.63115 11.3398 2.64239 11.331 2.6571C11.3134 2.68651 11.2876 2.72976 11.2542 2.78632C11.1873 2.89944 11.0899 3.0658 10.9664 3.2811C10.7192 3.71165 10.3673 4.33813 9.94545 5.12603C9.10209 6.70123 7.97782 8.92463 6.85312 11.5196L8.22941 12.1161ZM12 3C11.3588 3.38906 11.3588 3.38902 11.3588 3.38899C11.3588 3.389 11.3588 3.38899 11.3588 3.38901C11.3588 3.38905 11.3589 3.38914 11.3589 3.38929C11.3591 3.38959 11.3594 3.39011 11.3599 3.39085C11.3608 3.39234 11.3622 3.39471 11.3642 3.39796C11.3681 3.40446 11.3741 3.41448 11.3822 3.42794C11.3983 3.45486 11.4226 3.49557 11.4545 3.54952C11.5183 3.65742 11.6124 3.81828 11.7327 4.0278C11.9732 4.44689 12.318 5.06042 12.7322 5.83403C13.5608 7.38182 14.6659 9.56735 15.7706 12.1161L17.1469 11.5196C16.0222 8.92463 14.8979 6.70123 14.0546 5.12603C13.6327 4.33813 13.2808 3.71165 13.0336 3.2811C12.9101 3.0658 12.8127 2.89944 12.7458 2.78632C12.7124 2.72976 12.6866 2.68651 12.669 2.6571C12.6602 2.64239 12.6534 2.63115 12.6487 2.62343C12.6464 2.61958 12.6446 2.6166 12.6434 2.61451C12.6427 2.61347 12.6422 2.61265 12.6419 2.61206C12.6417 2.61176 12.6415 2.61151 12.6414 2.61133C12.6414 2.61124 12.6413 2.61114 12.6413 2.61109C12.6412 2.61101 12.6412 2.61094 12 3ZM15.7706 12.1161C17.0268 15.0145 17.8042 17.4381 18.2391 18.9801L19.6828 18.573C19.2329 16.9779 18.4341 14.4896 17.1469 11.5196L15.7706 12.1161ZM17.3541 20.6207C18.6489 21.1328 20.092 20.024 19.6828 18.573L18.2391 18.9801C18.2558 19.0394 18.2505 19.0796 18.2419 19.1066C18.2324 19.1364 18.2132 19.1668 18.1827 19.1929C18.124 19.2431 18.0276 19.274 17.9058 19.2258L17.3541 20.6207ZM6.09424 19.2258C5.97237 19.274 5.87599 19.2431 5.81728 19.1929C5.78676 19.1668 5.76761 19.1364 5.75811 19.1066C5.74952 19.0796 5.7442 19.0393 5.76091 18.9801L4.31723 18.573C3.90797 20.024 5.35114 21.1328 6.64595 20.6207L6.09424 19.2258Z" fill="#001A72"/>
</svg>
