<svg width="24" height="24" viewBox="0 0 24 24" fill="none" xmlns="http://www.w3.org/2000/svg">
<path d="M7.46967 15.4697C7.17678 15.7626 7.17678 16.2374 7.46967 16.5303C7.76256 16.8232 8.23744 16.8232 8.53033 16.5303L7.46967 15.4697ZM16.5303 8.53033C16.8232 8.23744 16.8232 7.76256 16.5303 7.46967C16.2374 7.17678 15.7626 7.17678 15.4697 7.46967L16.5303 8.53033ZM20.25 12C20.25 16.5563 16.5563 20.25 12 20.25V21.75C17.3848 21.75 21.75 17.3848 21.75 12H20.25ZM12 20.25C7.44365 20.25 3.75 16.5563 3.75 12H2.25C2.25 17.3848 6.61522 21.75 12 21.75V20.25ZM3.75 12C3.75 7.44365 7.44365 3.75 12 3.75V2.25C6.61522 2.25 2.25 6.61522 2.25 12H3.75ZM12 3.75C16.5563 3.75 20.25 7.44365 20.25 12H21.75C21.75 6.61522 17.3848 2.25 12 2.25V3.75ZM16.25 15C16.25 15.6904 15.6904 16.25 15 16.25V17.75C16.5188 17.75 17.75 16.5188 17.75 15H16.25ZM15 16.25C14.3096 16.25 13.75 15.6904 13.75 15H12.25C12.25 16.5188 13.4812 17.75 15 17.75V16.25ZM13.75 15C13.75 14.3096 14.3096 13.75 15 13.75V12.25C13.4812 12.25 12.25 13.4812 12.25 15H13.75ZM15 13.75C15.6904 13.75 16.25 14.3096 16.25 15H17.75C17.75 13.4812 16.5188 12.25 15 12.25V13.75ZM8.53033 16.5303L16.5303 8.53033L15.4697 7.46967L7.46967 15.4697L8.53033 16.5303ZM10.25 9C10.25 9.69036 9.69036 10.25 9 10.25V11.75C10.5188 11.75 11.75 10.5188 11.75 9H10.25ZM9 10.25C8.30964 10.25 7.75 9.69036 7.75 9H6.25C6.25 10.5188 7.48122 11.75 9 11.75V10.25ZM7.75 9C7.75 8.30964 8.30964 7.75 9 7.75V6.25C7.48122 6.25 6.25 7.48122 6.25 9H7.75ZM9 7.75C9.69036 7.75 10.25 8.30964 10.25 9H11.75C11.75 7.48122 10.5188 6.25 9 6.25V7.75Z" fill="#001A72"/>
</svg>
