<svg width="24" height="24" viewBox="0 0 24 24" fill="none" xmlns="http://www.w3.org/2000/svg">
<path d="M18.2222 19.2778L18.7326 19.8274L18.2222 19.2778ZM5.77778 19.2778L5.26744 19.8274L5.26744 19.8274L5.77778 19.2778ZM4.88889 4.27778L4.66518 3.56192L4.88889 4.27778ZM19.1111 4.27778L19.3348 3.56192V3.56192L19.1111 4.27778ZM19.1111 8.72222L18.8874 8.00636H18.8874L19.1111 8.72222ZM4.88889 8.72222L4.66518 9.43808L4.66518 9.43808L4.88889 8.72222ZM9.46967 12.4697C9.17678 12.7626 9.17678 13.2374 9.46967 13.5303C9.76256 13.8232 10.2374 13.8232 10.5303 13.5303L9.46967 12.4697ZM13.4697 13.5303C13.7626 13.8232 14.2374 13.8232 14.5303 13.5303C14.8232 13.2374 14.8232 12.7626 14.5303 12.4697L13.4697 13.5303ZM18.25 13.5C18.25 14.914 18.1546 16.233 18.0142 17.2325C17.9438 17.7339 17.8641 18.1399 17.7844 18.4309C17.7444 18.5771 17.7084 18.6792 17.6802 18.7436C17.6441 18.8261 17.6454 18.7899 17.7119 18.7282L18.7326 19.8274C18.8963 19.6754 18.9948 19.4813 19.0544 19.3451C19.1219 19.1908 19.1801 19.0137 19.2312 18.827C19.3338 18.4521 19.4243 17.9779 19.4997 17.4411C19.6509 16.3642 19.75 14.9749 19.75 13.5H18.25ZM17.7119 18.7282C17.7743 18.6702 17.8034 18.674 17.706 18.7108C17.6292 18.7398 17.5127 18.7749 17.3511 18.813C17.0296 18.8889 16.5856 18.9639 16.0418 19.0298C14.9573 19.1611 13.5293 19.25 12 19.25V20.75C13.5818 20.75 15.0705 20.6584 16.2221 20.5189C16.7964 20.4493 17.3002 20.3663 17.6958 20.2729C17.8927 20.2264 18.0769 20.1741 18.2356 20.1142C18.3737 20.0621 18.5729 19.9757 18.7326 19.8274L17.7119 18.7282ZM12 19.25C10.4707 19.25 9.0427 19.1611 7.95824 19.0298C7.41442 18.9639 6.97038 18.8889 6.64888 18.813C6.48734 18.7749 6.37075 18.7398 6.29402 18.7108C6.19658 18.674 6.22567 18.6702 6.28812 18.7282L5.26744 19.8274C5.42711 19.9757 5.62634 20.0621 5.76436 20.1142C5.92308 20.1741 6.10728 20.2264 6.30424 20.2729C6.69976 20.3663 7.20363 20.4493 7.77788 20.5189C8.92952 20.6584 10.4182 20.75 12 20.75V19.25ZM6.28812 18.7282C6.35461 18.7899 6.35586 18.8261 6.31977 18.7436C6.29157 18.6792 6.25559 18.5771 6.21556 18.4309C6.1359 18.1399 6.0562 17.7339 5.98576 17.2325C5.84537 16.233 5.75 14.914 5.75 13.5H4.25C4.25 14.9749 4.34907 16.3642 4.50035 17.4411C4.57574 17.9779 4.66618 18.4521 4.76881 18.827C4.81993 19.0137 4.87813 19.1908 4.94564 19.3451C5.00525 19.4813 5.10373 19.6754 5.26744 19.8274L6.28812 18.7282ZM5.75 13.5C5.75 12.0986 5.87131 10.9641 5.99126 10.185C6.05122 9.79558 6.11078 9.49539 6.15453 9.29554C6.1764 9.19563 6.1943 9.12085 6.20632 9.07258C6.21232 9.04845 6.21685 9.03095 6.21967 9.02026C6.22107 9.01491 6.22205 9.01127 6.22257 9.00935C6.22283 9.00839 6.22298 9.00787 6.223 9.00777C6.22301 9.00773 6.223 9.00779 6.22295 9.00796C6.22293 9.00804 6.2229 9.00816 6.22286 9.0083C6.22284 9.00836 6.2228 9.00849 6.22279 9.00852C6.22276 9.00866 6.22272 9.0088 5.5 8.80835C4.77728 8.6079 4.77724 8.60806 4.7772 8.60822C4.77718 8.60828 4.77713 8.60844 4.7771 8.60857C4.77703 8.60882 4.77695 8.6091 4.77687 8.6094C4.7767 8.61001 4.7765 8.61073 4.77627 8.61156C4.77582 8.61322 4.77525 8.61532 4.77456 8.61787C4.77319 8.62295 4.77136 8.62978 4.7691 8.63834C4.76459 8.65547 4.75838 8.67953 4.75071 8.71033C4.73538 8.77194 4.71423 8.86056 4.68922 8.9748C4.63922 9.20325 4.57378 9.53431 4.50874 9.95671C4.37869 10.8013 4.25 12.0126 4.25 13.5H5.75ZM19.75 13.5C19.75 12.0126 19.6213 10.8013 19.4913 9.95671C19.4262 9.53431 19.3608 9.20325 19.3108 8.9748C19.2858 8.86056 19.2646 8.77194 19.2493 8.71033C19.2416 8.67953 19.2354 8.65547 19.2309 8.63834C19.2286 8.62978 19.2268 8.62295 19.2254 8.61786C19.2248 8.61532 19.2242 8.61322 19.2237 8.61156C19.2235 8.61073 19.2233 8.61001 19.2231 8.6094C19.223 8.6091 19.223 8.60882 19.2229 8.60857C19.2229 8.60844 19.2228 8.60828 19.2228 8.60821C19.2228 8.60806 19.2227 8.6079 18.5 8.80835C17.7773 9.0088 17.7772 9.00866 17.7772 9.00853C17.7772 9.00849 17.7772 9.00837 17.7771 9.0083C17.7771 9.00816 17.7771 9.00804 17.777 9.00796C17.777 9.00779 17.777 9.00773 17.777 9.00777C17.777 9.00787 17.7772 9.00839 17.7774 9.00935C17.7779 9.01127 17.7789 9.01491 17.7803 9.02026C17.7831 9.03095 17.7877 9.04845 17.7937 9.07258C17.8057 9.12085 17.8236 9.19563 17.8455 9.29554C17.8892 9.49539 17.9488 9.79558 18.0087 10.185C18.1287 10.9641 18.25 12.0986 18.25 13.5H19.75ZM5.1126 4.99364C5.09817 4.99815 5.13596 4.9871 5.27072 4.96999C5.38913 4.95495 5.5482 4.93921 5.7469 4.92343C6.14338 4.89193 6.67455 4.86202 7.30832 4.83618C8.57462 4.78457 10.231 4.75 12 4.75V3.25C10.2134 3.25 8.53649 3.28488 7.24723 3.33743C6.60323 3.36368 6.05107 3.39453 5.6281 3.42814C5.41708 3.4449 5.2324 3.4628 5.08171 3.48194C4.94738 3.49901 4.79072 3.52269 4.66518 3.56192L5.1126 4.99364ZM12 4.75C13.769 4.75 15.4254 4.78457 16.6917 4.83618C17.3255 4.86202 17.8566 4.89193 18.2531 4.92343C18.4518 4.93921 18.6109 4.95495 18.7293 4.96999C18.864 4.9871 18.9018 4.99815 18.8874 4.99364L19.3348 3.56192C19.2093 3.52269 19.0526 3.49901 18.9183 3.48194C18.7676 3.4628 18.5829 3.4449 18.3719 3.42814C17.9489 3.39453 17.3968 3.36368 16.7528 3.33743C15.4635 3.28488 13.7866 3.25 12 3.25V4.75ZM18.8874 4.99364C18.804 4.96759 18.801 4.93337 18.8557 5.00066C18.9033 5.05917 18.9668 5.1615 19.0301 5.31319C19.1565 5.61603 19.25 6.03811 19.25 6.5H20.75C20.75 5.85078 20.6213 5.2312 20.4144 4.73542C20.311 4.4878 20.18 4.25159 20.0193 4.05403C19.8657 3.86524 19.6404 3.65741 19.3348 3.56192L18.8874 4.99364ZM19.25 6.5C19.25 6.96189 19.1565 7.38397 19.0301 7.68681C18.9668 7.8385 18.9033 7.94083 18.8557 7.99934C18.801 8.06663 18.804 8.03241 18.8874 8.00636L19.3348 9.43808C19.6404 9.34259 19.8657 9.13476 20.0193 8.94597C20.18 8.74841 20.311 8.5122 20.4144 8.26458C20.6213 7.7688 20.75 7.14922 20.75 6.5H19.25ZM5.1126 8.00636C5.19596 8.03241 5.19903 8.06663 5.14428 7.99934C5.09668 7.94083 5.03322 7.8385 4.96991 7.68681C4.84351 7.38397 4.75 6.96189 4.75 6.5H3.25C3.25 7.14922 3.37871 7.7688 3.58565 8.26458C3.689 8.5122 3.81999 8.74841 3.98072 8.94597C4.1343 9.13476 4.3596 9.34259 4.66518 9.43808L5.1126 8.00636ZM4.75 6.5C4.75 6.03811 4.84351 5.61603 4.96991 5.31319C5.03322 5.1615 5.09668 5.05917 5.14428 5.00066C5.19903 4.93337 5.19596 4.96759 5.1126 4.99364L4.66518 3.56192C4.3596 3.65741 4.1343 3.86524 3.98072 4.05403C3.81999 4.25159 3.689 4.4878 3.58565 4.73542C3.37871 5.2312 3.25 5.85078 3.25 6.5H4.75ZM12 8.25C9.19614 8.25 6.69111 8.16321 5.56768 8.06141L5.43232 9.55529C6.62486 9.66335 9.18429 9.75 12 9.75V8.25ZM5.56768 8.06141C5.42068 8.04809 5.30444 8.03512 5.21835 8.02304C5.12015 8.00926 5.09638 8.0013 5.11259 8.00636L4.66518 9.43808C4.84934 9.49563 5.14468 9.52923 5.43232 9.55529L5.56768 8.06141ZM18.8874 8.00636C18.9036 8.0013 18.8798 8.00926 18.7817 8.02304C18.6956 8.03512 18.5793 8.04809 18.4323 8.06141L18.5677 9.55529C18.8553 9.52923 19.1507 9.49563 19.3348 9.43808L18.8874 8.00636ZM18.4323 8.06141C17.3089 8.16321 14.8039 8.25 12 8.25V9.75C14.8157 9.75 17.3751 9.66335 18.5677 9.55529L18.4323 8.06141ZM10 13C10.5303 13.5303 10.5299 13.5307 10.5296 13.5311C10.5294 13.5312 10.529 13.5316 10.5288 13.5319C10.5283 13.5324 10.5278 13.5329 10.5273 13.5333C10.5263 13.5343 10.5254 13.5353 10.5244 13.5362C10.5226 13.538 10.5208 13.5397 10.5191 13.5413C10.5158 13.5444 10.5129 13.5471 10.5105 13.5493C10.5056 13.5538 10.5024 13.5564 10.5012 13.5575C10.4987 13.5595 10.5038 13.5551 10.5176 13.5459C10.5449 13.5277 10.6082 13.4895 10.716 13.4464C10.9304 13.3606 11.3345 13.25 12 13.25V11.75C11.1655 11.75 10.5696 11.8894 10.159 12.0536C9.95429 12.1355 9.79886 12.2223 9.68554 12.2978C9.62901 12.3355 9.58337 12.3701 9.54763 12.3996C9.52978 12.4143 9.51444 12.4276 9.50148 12.4394C9.495 12.4453 9.48912 12.4508 9.48382 12.4559C9.48117 12.4584 9.47867 12.4608 9.47631 12.4631C9.47513 12.4643 9.47399 12.4654 9.47288 12.4665C9.47233 12.467 9.47179 12.4676 9.47125 12.4681C9.47098 12.4684 9.47059 12.4688 9.47045 12.4689C9.47006 12.4693 9.46967 12.4697 10 13ZM12 13.25C12.6655 13.25 13.0696 13.3606 13.284 13.4464C13.3918 13.4895 13.4551 13.5277 13.4824 13.5459C13.4962 13.5551 13.5013 13.5595 13.4988 13.5575C13.4976 13.5564 13.4944 13.5538 13.4895 13.5493C13.4871 13.5471 13.4842 13.5444 13.4809 13.5413C13.4792 13.5397 13.4774 13.538 13.4756 13.5362C13.4746 13.5353 13.4737 13.5343 13.4727 13.5333C13.4722 13.5329 13.4717 13.5324 13.4712 13.5319C13.471 13.5316 13.4706 13.5312 13.4704 13.5311C13.4701 13.5307 13.4697 13.5303 14 13C14.5303 12.4697 14.5299 12.4693 14.5295 12.4689C14.5294 12.4688 14.529 12.4684 14.5287 12.4681C14.5282 12.4676 14.5277 12.467 14.5271 12.4665C14.526 12.4654 14.5249 12.4643 14.5237 12.4631C14.5213 12.4608 14.5188 12.4584 14.5162 12.4559C14.5109 12.4508 14.505 12.4453 14.4985 12.4394C14.4856 12.4276 14.4702 12.4143 14.4524 12.3996C14.4166 12.3701 14.371 12.3355 14.3145 12.2978C14.2011 12.2223 14.0457 12.1355 13.841 12.0536C13.4304 11.8894 12.8345 11.75 12 11.75V13.25Z" fill="#001A72"/>
</svg>
