<svg width="24" height="24" viewBox="0 0 24 24" fill="none" xmlns="http://www.w3.org/2000/svg">
<path d="M15.7398 5.8767C15.6717 5.46812 15.2853 5.19211 14.8767 5.2602C14.4681 5.3283 14.1921 5.71472 14.2602 6.1233L15.7398 5.8767ZM14.2602 17.8767C14.1921 18.2853 14.4681 18.6717 14.8767 18.7398C15.2853 18.8079 15.6717 18.5319 15.7398 18.1233L14.2602 17.8767ZM9.7398 6.1233C9.80789 5.71472 9.53188 5.3283 9.1233 5.2602C8.71472 5.19211 8.3283 5.46812 8.2602 5.8767L9.7398 6.1233ZM8.2602 18.1233C8.3283 18.5319 8.71472 18.8079 9.1233 18.7398C9.53188 18.6717 9.80789 18.2853 9.7398 17.8767L8.2602 18.1233ZM15 6C14.2602 6.1233 14.2602 6.12325 14.2602 6.12322C14.2602 6.12322 14.2602 6.1232 14.2602 6.1232C14.2602 6.12321 14.2602 6.12327 14.2602 6.12338C14.2603 6.12358 14.2603 6.12397 14.2604 6.12454C14.2606 6.12568 14.2609 6.12753 14.2613 6.13009C14.2622 6.13521 14.2635 6.14316 14.2652 6.15385C14.2686 6.17522 14.2738 6.20753 14.2804 6.25005C14.2936 6.33509 14.3127 6.46092 14.3357 6.62169C14.3816 6.94335 14.4431 7.40426 14.5046 7.95782C14.6279 9.06764 14.75 10.5378 14.75 12H16.25C16.25 10.4622 16.1221 8.93236 15.9954 7.79218C15.9319 7.22074 15.8684 6.74415 15.8206 6.40956C15.7967 6.24221 15.7767 6.11022 15.7626 6.01949C15.7555 5.97411 15.7499 5.93904 15.746 5.915C15.7441 5.90298 15.7426 5.89372 15.7415 5.8873C15.741 5.8841 15.7406 5.8816 15.7403 5.87983C15.7402 5.87895 15.7401 5.87824 15.74 5.87772C15.7399 5.87746 15.7399 5.87724 15.7399 5.87707C15.7398 5.87699 15.7398 5.87689 15.7398 5.87685C15.7398 5.87677 15.7398 5.8767 15 6ZM14.75 12C14.75 13.4622 14.6279 14.9324 14.5046 16.0422C14.4431 16.5957 14.3816 17.0566 14.3357 17.3783C14.3127 17.5391 14.2936 17.6649 14.2804 17.75C14.2738 17.7925 14.2686 17.8248 14.2652 17.8462C14.2635 17.8568 14.2622 17.8648 14.2613 17.8699C14.2609 17.8725 14.2606 17.8743 14.2604 17.8755C14.2603 17.876 14.2603 17.8764 14.2602 17.8766C14.2602 17.8767 14.2602 17.8768 14.2602 17.8768C14.2602 17.8768 14.2602 17.8768 14.2602 17.8768C14.2602 17.8767 14.2602 17.8767 15 18C15.7398 18.1233 15.7398 18.1232 15.7398 18.1231C15.7398 18.1231 15.7398 18.123 15.7399 18.1229C15.7399 18.1228 15.7399 18.1225 15.74 18.1223C15.7401 18.1218 15.7402 18.1211 15.7403 18.1202C15.7406 18.1184 15.741 18.1159 15.7415 18.1127C15.7426 18.1063 15.7441 18.097 15.746 18.085C15.7499 18.061 15.7555 18.0259 15.7626 17.9805C15.7767 17.8898 15.7967 17.7578 15.8206 17.5904C15.8684 17.2559 15.9319 16.7793 15.9954 16.2078C16.1221 15.0676 16.25 13.5378 16.25 12H14.75ZM9 6C8.2602 5.8767 8.26019 5.87677 8.26018 5.87685C8.26017 5.87689 8.26016 5.87699 8.26014 5.87707C8.26011 5.87724 8.26008 5.87746 8.26004 5.87772C8.25995 5.87824 8.25983 5.87895 8.25969 5.87983C8.25939 5.8816 8.25898 5.8841 8.25846 5.8873C8.2574 5.89372 8.25589 5.90298 8.25395 5.915C8.25008 5.93904 8.24449 5.97411 8.23743 6.01949C8.22331 6.11022 8.20332 6.24221 8.17941 6.40956C8.13161 6.74415 8.06808 7.22074 8.00459 7.79218C7.8779 8.93236 7.75 10.4622 7.75 12H9.25C9.25 10.5378 9.3721 9.06764 9.49541 7.95782C9.55692 7.40426 9.61839 6.94335 9.66434 6.62169C9.6873 6.46092 9.70637 6.33509 9.7196 6.25005C9.72622 6.20753 9.73137 6.17522 9.73482 6.15385C9.73654 6.14316 9.73784 6.13521 9.73868 6.13009C9.7391 6.12753 9.7394 6.12568 9.73959 6.12454C9.73968 6.12397 9.73975 6.12358 9.73978 6.12338C9.7398 6.12327 9.73981 6.12321 9.73981 6.1232C9.73981 6.1232 9.73981 6.12322 9.73981 6.12322C9.7398 6.12325 9.7398 6.1233 9 6ZM7.75 12C7.75 13.5378 7.8779 15.0676 8.00459 16.2078C8.06808 16.7793 8.13161 17.2559 8.17941 17.5904C8.20332 17.7578 8.22331 17.8898 8.23743 17.9805C8.24449 18.0259 8.25008 18.061 8.25395 18.085C8.25589 18.097 8.2574 18.1063 8.25846 18.1127C8.25898 18.1159 8.25939 18.1184 8.25969 18.1202C8.25983 18.1211 8.25995 18.1218 8.26004 18.1223C8.26008 18.1225 8.26011 18.1228 8.26014 18.1229C8.26016 18.123 8.26017 18.1231 8.26018 18.1231C8.26019 18.1232 8.2602 18.1233 9 18C9.7398 17.8767 9.7398 17.8767 9.73981 17.8768C9.73981 17.8768 9.73981 17.8768 9.73981 17.8768C9.73981 17.8768 9.7398 17.8767 9.73978 17.8766C9.73975 17.8764 9.73968 17.876 9.73959 17.8755C9.7394 17.8743 9.7391 17.8725 9.73868 17.8699C9.73784 17.8648 9.73654 17.8568 9.73482 17.8462C9.73137 17.8248 9.72622 17.7925 9.7196 17.75C9.70637 17.6649 9.6873 17.5391 9.66434 17.3783C9.61839 17.0566 9.55692 16.5957 9.49541 16.0422C9.3721 14.9324 9.25 13.4622 9.25 12H7.75Z" fill="#001A72"/>
</svg>
