<svg width="24" height="24" viewBox="0 0 24 24" fill="none" xmlns="http://www.w3.org/2000/svg">
<path d="M15.0828 2.25459C14.6711 2.20885 14.3003 2.50551 14.2546 2.91719C14.2089 3.32887 14.5055 3.69968 14.9172 3.74541L15.0828 2.25459ZM19 5L19.53 4.46934L19 5ZM20.2547 9.08375C20.3009 9.49537 20.6721 9.79156 21.0837 9.74531C21.4954 9.69906 21.7916 9.32788 21.7453 8.91625L20.2547 9.08375ZM14.6436 5.76388C14.2371 5.68456 13.8432 5.94983 13.7639 6.35638C13.6846 6.76293 13.9498 7.1568 14.3564 7.23612L14.6436 5.76388ZM16.7639 9.64362C16.8432 10.0502 17.2371 10.3154 17.6436 10.2361C18.0502 10.1568 18.3154 9.76293 18.2361 9.35638L16.7639 9.64362ZM8.20049 15.799L7.67013 16.3293L7.67017 16.3294L8.20049 15.799ZM3.01055 4.72316L3.62084 5.1591C3.63594 5.13796 3.64993 5.11605 3.66276 5.09346L3.01055 4.72316ZM7.87459 3.13407L8.35139 2.55513L8.34992 2.55392L7.87459 3.13407ZM20.8659 16.1249L21.4461 15.6497L21.4448 15.6481L20.8659 16.1249ZM19.2778 20.9888L18.9089 20.3358C18.8857 20.3489 18.8632 20.3632 18.8415 20.3788L19.2778 20.9888ZM14.9172 3.74541C16.2556 3.8941 17.4818 4.54368 18.47 5.53066L19.53 4.46934C18.3376 3.27846 16.8075 2.44618 15.0828 2.25459L14.9172 3.74541ZM18.47 5.53066C19.4567 6.51616 20.1041 7.74372 20.2547 9.08375L21.7453 8.91625C21.5517 7.19366 20.7239 5.6617 19.53 4.46934L18.47 5.53066ZM14.3564 7.23612C14.9878 7.35931 15.5701 7.63076 15.9697 8.03033L17.0303 6.96967C16.3677 6.30708 15.4866 5.92834 14.6436 5.76388L14.3564 7.23612ZM15.9697 8.03033C16.3692 8.4299 16.6407 9.01224 16.7639 9.64362L18.2361 9.35638C18.0717 8.51344 17.6929 7.63226 17.0303 6.96967L15.9697 8.03033ZM8.73085 15.2687C5.32321 11.8607 3.94094 9.45172 3.4653 7.84312C3.00156 6.27475 3.39769 5.4715 3.62084 5.1591L2.40025 4.28722C1.89624 4.99281 1.43835 6.27809 2.02687 8.26845C2.6035 10.2186 4.17978 12.8386 7.67013 16.3293L8.73085 15.2687ZM3.66276 5.09346C3.65568 5.10593 3.78608 4.89879 4.03426 4.60691C4.2767 4.32178 4.60423 3.98858 4.98326 3.72224C5.36507 3.45394 5.75807 3.28217 6.14126 3.25411C6.50064 3.22779 6.92022 3.32172 7.39926 3.71421L8.34992 2.55392C7.5949 1.93532 6.80113 1.70177 6.03171 1.75812C5.2861 1.81272 4.63486 2.13376 4.12085 2.49494C3.10888 3.20604 2.44208 4.20535 2.35834 4.35286L3.66276 5.09346ZM7.39779 3.713C8.8954 4.94638 9.43481 5.76461 9.60372 6.31499C9.75579 6.81051 9.64218 7.19017 9.40648 7.73995C9.18517 8.25617 8.78659 9.02835 8.89372 9.97861C9.00295 10.9476 9.60012 11.9547 10.8748 13.1569L11.904 12.0657C10.734 10.9622 10.4352 10.2625 10.3843 9.81057C10.3312 9.33988 10.5082 8.97698 10.7851 8.33098C11.0477 7.71854 11.355 6.90884 11.0377 5.8749C10.7372 4.89581 9.9169 3.84444 8.35138 2.55513L7.39779 3.713ZM10.8748 13.1569C12.1519 14.3613 13.1909 14.9019 14.1542 14.9911C15.1021 15.079 15.8544 14.6999 16.3547 14.4941C16.8753 14.28 17.2253 14.1856 17.7001 14.3494C18.2414 14.5361 19.0492 15.0988 20.287 16.6017L21.4448 15.6481C20.1604 14.0886 19.1337 13.2572 18.1892 12.9314C17.1782 12.5827 16.391 12.8573 15.7842 13.1068C15.1572 13.3647 14.7918 13.5438 14.2926 13.4975C13.809 13.4527 13.0716 13.1669 11.904 12.0657L10.8748 13.1569ZM20.2857 16.6001C20.6782 17.0794 20.7722 17.4992 20.7459 17.8588C20.7178 18.2421 20.5461 18.6352 20.2778 19.0169C20.0116 19.3959 19.6785 19.7234 19.3935 19.9656C19.1014 20.214 18.895 20.3436 18.9089 20.3358L19.6467 21.6418C19.7953 21.5578 20.7944 20.891 21.5052 19.8793C21.8663 19.3653 22.1873 18.714 22.2419 17.9683C22.2982 17.1988 22.0647 16.4049 21.4461 15.6497L20.2857 16.6001ZM18.8415 20.3788C18.5292 20.6021 17.7259 20.9985 16.1571 20.5348C14.5483 20.0592 12.139 18.6767 8.73081 15.2687L7.67017 16.3294C11.1611 19.8201 13.7814 21.3966 15.7319 21.9732C17.7226 22.5617 19.0084 22.1036 19.7141 21.5988L18.8415 20.3788Z" fill="#001A72"/>
</svg>
