<svg width="24" height="24" viewBox="0 0 24 24" fill="none" xmlns="http://www.w3.org/2000/svg">
<path d="M15.5303 12.5303C15.8232 12.2374 15.8232 11.7626 15.5303 11.4697C15.2374 11.1768 14.7626 11.1768 14.4697 11.4697L15.5303 12.5303ZM10.8 16.2L10.2696 16.7304C10.4103 16.871 10.601 16.95 10.8 16.95C10.9989 16.95 11.1896 16.871 11.3303 16.7304L10.8 16.2ZM9.53038 13.8697C9.23749 13.5768 8.76262 13.5768 8.46972 13.8697C8.17682 14.1626 8.17681 14.6374 8.4697 14.9303L9.53038 13.8697ZM9 3V2.25C8.58579 2.25 8.25 2.58579 8.25 3H9ZM15 3H15.75C15.75 2.58579 15.4142 2.25 15 2.25V3ZM15 6V6.75C15.4142 6.75 15.75 6.41421 15.75 6H15ZM9 6H8.25C8.25 6.41421 8.58579 6.75 9 6.75V6ZM14.4697 11.4697L10.2696 15.6697L11.3303 16.7304L15.5303 12.5303L14.4697 11.4697ZM8.4697 14.9303L10.2696 16.7304L11.3303 15.6697L9.53038 13.8697L8.4697 14.9303ZM9 3.75H15V2.25H9V3.75ZM15 5.25H9V6.75H15V5.25ZM14.25 3V4.27928H15.75V3H14.25ZM14.25 4.27928V6H15.75V4.27928H14.25ZM9.75 6V4.27928H8.25V6H9.75ZM9.75 4.27928V3H8.25V4.27928H9.75ZM12 21.25C9.18773 21.25 7.61063 20.723 6.67543 19.6008C5.70295 18.4338 5.25 16.4314 5.25 13H3.75C3.75 16.451 4.1794 18.9486 5.5231 20.561C6.90408 22.2182 9.07697 22.75 12 22.75V21.25ZM18.75 13C18.75 16.4314 18.297 18.4338 17.3246 19.6008C16.3894 20.723 14.8123 21.25 12 21.25V22.75C14.923 22.75 17.0959 22.2182 18.4769 20.561C19.8206 18.9486 20.25 16.451 20.25 13H18.75ZM14.8338 5.01064C16.3391 5.35275 17.2586 6.03714 17.8455 7.20328C18.4658 8.43587 18.75 10.275 18.75 13H20.25C20.25 10.2287 19.9715 8.09094 19.1854 6.52897C18.3659 4.90055 17.0354 3.97273 15.1662 3.54793L14.8338 5.01064ZM5.25 13C5.25 10.275 5.5342 8.43587 6.1545 7.20328C6.74137 6.03714 7.66086 5.35275 9.16621 5.01064L8.83379 3.54793C6.96463 3.97273 5.63412 4.90055 4.81461 6.52897C4.02855 8.09094 3.75 10.2287 3.75 13H5.25Z" fill="#001A72"/>
</svg>
