<svg width="24" height="24" viewBox="0 0 24 24" fill="none" xmlns="http://www.w3.org/2000/svg">
<path d="M9.32182 8.35108C9.69596 8.17334 9.85518 7.72595 9.67745 7.35181C9.49971 6.97767 9.05232 6.81845 8.67818 6.99618L9.32182 8.35108ZM15.3218 6.99618C14.9477 6.81845 14.5003 6.97767 14.3226 7.35181C14.1448 7.72595 14.304 8.17334 14.6782 8.35108L15.3218 6.99618ZM12.75 4C12.75 3.58579 12.4142 3.25 12 3.25C11.5858 3.25 11.25 3.58579 11.25 4H12.75ZM11.25 12C11.25 12.4142 11.5858 12.75 12 12.75C12.4142 12.75 12.75 12.4142 12.75 12H11.25ZM18.25 14C18.25 17.4518 15.4518 20.25 12 20.25V21.75C16.2802 21.75 19.75 18.2802 19.75 14H18.25ZM12 20.25C8.54822 20.25 5.75 17.4518 5.75 14H4.25C4.25 18.2802 7.71979 21.75 12 21.75V20.25ZM5.75 14C5.75 11.5079 7.20852 9.355 9.32182 8.35108L8.67818 6.99618C6.06159 8.23919 4.25 10.9073 4.25 14H5.75ZM14.6782 8.35108C16.7915 9.355 18.25 11.5079 18.25 14H19.75C19.75 10.9073 17.9384 8.23919 15.3218 6.99618L14.6782 8.35108ZM11.25 4V12H12.75V4H11.25Z" fill="#001A72"/>
</svg>
