<svg width="24" height="24" viewBox="0 0 24 24" fill="none" xmlns="http://www.w3.org/2000/svg">
<path d="M8.44444 15.3333L8.89444 15.9333L8.44444 15.3333ZM15.5556 15.3333L16.0056 14.7333L16.0056 14.7333L15.5556 15.3333ZM15.5556 20.6667L16.0056 21.2667L15.5556 20.6667ZM8.44444 20.6667L7.99444 21.2667L8.44444 20.6667ZM20 9.5L19.6646 10.1708L20 9.5ZM8.44444 3.44444L7.91411 2.91411V2.91411L8.44444 3.44444ZM15.5556 3.44444L16.0859 2.91411V2.91411L15.5556 3.44444ZM8.89444 15.9333C8.81101 15.9959 8.75186 16.0053 8.8068 15.9886C8.83893 15.9788 8.8963 15.9644 8.98423 15.9477C9.15847 15.9144 9.40475 15.8807 9.71191 15.8506C10.3235 15.7908 11.1323 15.75 12 15.75V14.25C11.09 14.25 10.2321 14.2926 9.56587 14.3577C9.23414 14.3902 8.93875 14.4293 8.70327 14.4742C8.58634 14.4965 8.47184 14.5225 8.36941 14.5538C8.2898 14.578 8.13344 14.6291 7.99444 14.7333L8.89444 15.9333ZM12 15.75C12.8677 15.75 13.6765 15.7908 14.2881 15.8506C14.5952 15.8807 14.8415 15.9144 15.0158 15.9477C15.1037 15.9644 15.1611 15.9788 15.1932 15.9886C15.2481 16.0053 15.189 15.9959 15.1056 15.9333L16.0056 14.7333C15.8666 14.6291 15.7102 14.578 15.6306 14.5538C15.5282 14.5225 15.4137 14.4965 15.2967 14.4742C15.0613 14.4293 14.7659 14.3902 14.4341 14.3577C13.7679 14.2926 12.91 14.25 12 14.25V15.75ZM15.1056 15.9333C15.0501 15.8917 15.017 15.852 15.0022 15.8327C14.9864 15.8121 14.9792 15.7988 14.9791 15.7984C14.9785 15.7974 14.9815 15.8028 14.9872 15.8166C14.9929 15.8301 15.0001 15.8488 15.0085 15.8736C15.0437 15.9777 15.0843 16.1399 15.1222 16.3577C15.1973 16.7895 15.25 17.3711 15.25 18H16.75C16.75 17.2955 16.6916 16.6272 16.6 16.1007C16.5546 15.8393 16.4979 15.5952 16.429 15.392C16.3948 15.2909 16.3521 15.1839 16.2978 15.0837C16.2506 14.9966 16.1606 14.8496 16.0056 14.7333L15.1056 15.9333ZM15.25 18C15.25 18.6289 15.1973 19.2105 15.1222 19.6423C15.0843 19.8601 15.0437 20.0223 15.0085 20.1264C15.0001 20.1512 14.9929 20.1699 14.9872 20.1834C14.9815 20.1972 14.9785 20.2026 14.9791 20.2016C14.9792 20.2012 14.9864 20.1879 15.0022 20.1673C15.017 20.148 15.0501 20.1083 15.1056 20.0667L16.0056 21.2667C16.1606 21.1504 16.2506 21.0034 16.2978 20.9163C16.3521 20.8161 16.3948 20.7091 16.429 20.608C16.4979 20.4048 16.5546 20.1607 16.6 19.8993C16.6916 19.3728 16.75 18.7045 16.75 18H15.25ZM15.1056 20.0667C15.189 20.0041 15.2481 19.9947 15.1932 20.0114C15.1611 20.0212 15.1037 20.0356 15.0158 20.0523C14.8415 20.0856 14.5952 20.1193 14.2881 20.1494C13.6765 20.2092 12.8677 20.25 12 20.25V21.75C12.91 21.75 13.7679 21.7074 14.4341 21.6423C14.7659 21.6098 15.0613 21.5707 15.2967 21.5258C15.4137 21.5035 15.5282 21.4775 15.6306 21.4462C15.7102 21.422 15.8666 21.3709 16.0056 21.2667L15.1056 20.0667ZM12 20.25C11.1323 20.25 10.3235 20.2092 9.71191 20.1494C9.40475 20.1193 9.15847 20.0856 8.98423 20.0523C8.8963 20.0356 8.83893 20.0212 8.8068 20.0114C8.75186 19.9947 8.81101 20.0041 8.89444 20.0667L7.99444 21.2667C8.13344 21.3709 8.2898 21.422 8.36941 21.4462C8.47184 21.4775 8.58634 21.5035 8.70327 21.5258C8.93875 21.5707 9.23414 21.6098 9.56587 21.6423C10.2321 21.7074 11.09 21.75 12 21.75V20.25ZM8.89444 20.0667C8.94991 20.1083 8.983 20.148 8.9978 20.1673C9.01364 20.1879 9.02076 20.2012 9.02094 20.2016C9.02151 20.2026 9.01855 20.1972 9.01277 20.1834C9.00713 20.1699 8.99994 20.1512 8.99155 20.1264C8.95625 20.0223 8.91567 19.8601 8.8778 19.6423C8.8027 19.2105 8.75 18.6289 8.75 18H7.25C7.25 18.7045 7.30841 19.3728 7.39998 19.8993C7.44544 20.1607 7.50208 20.4048 7.57095 20.608C7.60522 20.7091 7.64787 20.8161 7.70215 20.9163C7.74936 21.0034 7.83941 21.1504 7.99444 21.2667L8.89444 20.0667ZM8.75 18C8.75 17.3711 8.8027 16.7895 8.8778 16.3577C8.91567 16.1399 8.95625 15.9777 8.99155 15.8736C8.99994 15.8488 9.00713 15.8301 9.01277 15.8166C9.01855 15.8028 9.02151 15.7974 9.02094 15.7984C9.02076 15.7988 9.01364 15.8121 8.9978 15.8327C8.983 15.852 8.94991 15.8917 8.89444 15.9333L7.99444 14.7333C7.83941 14.8496 7.74937 14.9966 7.70215 15.0837C7.64787 15.1839 7.60522 15.2909 7.57095 15.392C7.50208 15.5952 7.44544 15.8393 7.39998 16.1007C7.30841 16.6272 7.25 17.2955 7.25 18H8.75ZM19.6646 10.1708C19.5623 10.1197 19.5955 10.0862 19.6986 10.2892C19.7836 10.4563 19.8765 10.706 19.9618 11.0331C20.1316 11.6839 20.25 12.5572 20.25 13.5H21.75C21.75 12.4428 21.6184 11.4411 21.4132 10.6544C21.311 10.2628 21.1851 9.9031 21.0357 9.60928C20.9045 9.35126 20.6877 9.00535 20.3354 8.82918L19.6646 10.1708ZM20.25 13.5C20.25 14.4428 20.1316 15.3161 19.9618 15.9669C19.8765 16.294 19.7836 16.5437 19.6986 16.7108C19.5955 16.9138 19.5623 16.8803 19.6646 16.8292L20.3354 18.1708C20.6877 17.9947 20.9045 17.6487 21.0357 17.3907C21.1851 17.0969 21.311 16.7372 21.4132 16.3456C21.6184 15.5589 21.75 14.5572 21.75 13.5H20.25ZM4.33541 16.8292C4.43774 16.8803 4.40453 16.9138 4.30135 16.7108C4.21638 16.5437 4.12354 16.294 4.03821 15.9669C3.86844 15.3161 3.75 14.4428 3.75 13.5H2.25C2.25 14.5572 2.38156 15.5589 2.58679 16.3456C2.68896 16.7372 2.81487 17.0969 2.96427 17.3907C3.09547 17.6487 3.31226 17.9947 3.66459 18.1708L4.33541 16.8292ZM3.75 13.5C3.75 12.5572 3.86844 11.6839 4.03821 11.0331C4.12354 10.706 4.21638 10.4563 4.30135 10.2892C4.40453 10.0862 4.43774 10.1197 4.33541 10.1708L3.66459 8.82918C3.31226 9.00535 3.09547 9.35126 2.96427 9.60928C2.81487 9.9031 2.68896 10.2628 2.58679 10.6544C2.38156 11.4411 2.25 12.4428 2.25 13.5H3.75ZM4.33541 10.1708C4.30409 10.1865 4.35726 10.1603 4.58991 10.1197C4.79001 10.0848 5.06168 10.0489 5.39987 10.0139C6.07445 9.94403 6.97866 9.88121 8.03326 9.8344L7.96674 8.33588C6.8945 8.38347 5.95893 8.44797 5.24534 8.52188C4.88943 8.55874 4.57992 8.59883 4.33229 8.642C4.11722 8.6795 3.85614 8.73341 3.66459 8.82918L4.33541 10.1708ZM8.03326 9.8344C9.21353 9.78201 10.5744 9.75 12 9.75V8.25C10.5528 8.25 9.16983 8.28247 7.96674 8.33588L8.03326 9.8344ZM12 9.75C13.4256 9.75 14.7865 9.78201 15.9667 9.8344L16.0333 8.33588C14.8302 8.28247 13.4472 8.25 12 8.25V9.75ZM15.9667 9.8344C17.0213 9.88121 17.9255 9.94403 18.6001 10.0139C18.9383 10.0489 19.21 10.0848 19.4101 10.1197C19.6427 10.1603 19.6959 10.1865 19.6646 10.1708L20.3354 8.82918C20.1439 8.73341 19.8828 8.6795 19.6677 8.642C19.4201 8.59883 19.1106 8.55874 18.7547 8.52188C18.0411 8.44797 17.1055 8.38347 16.0333 8.33588L15.9667 9.8344ZM3.66459 18.1708C3.82103 18.249 4.01499 18.2959 4.15828 18.3266C4.32425 18.3622 4.5198 18.3952 4.72682 18.4256C5.14214 18.4867 5.63978 18.5427 6.11287 18.59C6.5877 18.6375 7.04571 18.677 7.38447 18.7046C7.55402 18.7184 7.6941 18.7292 7.79198 18.7366C7.84092 18.7403 7.87933 18.7432 7.90562 18.7451C7.91877 18.7461 7.92889 18.7468 7.93578 18.7473C7.93922 18.7476 7.94186 18.7478 7.94367 18.7479C7.94457 18.748 7.94526 18.748 7.94575 18.748C7.94599 18.7481 7.94618 18.7481 7.94632 18.7481C7.94638 18.7481 7.94645 18.7481 7.94648 18.7481C7.94653 18.7481 7.94656 18.7481 8 18C8.05344 17.2519 8.05344 17.2519 8.05344 17.2519C8.05342 17.2519 8.0534 17.2519 8.05336 17.2519C8.05329 17.2519 8.05316 17.2519 8.05298 17.2519C8.05261 17.2518 8.05204 17.2518 8.05126 17.2517C8.0497 17.2516 8.04731 17.2515 8.04411 17.2512C8.03773 17.2508 8.02813 17.2501 8.01552 17.2491C7.99029 17.2473 7.95302 17.2445 7.90529 17.2409C7.8098 17.2337 7.67254 17.223 7.50616 17.2095C7.17304 17.1824 6.7248 17.1437 6.26213 17.0975C5.79772 17.051 5.32661 16.9977 4.94506 16.9416C4.75364 16.9134 4.59372 16.8859 4.47258 16.8599C4.32876 16.8291 4.30397 16.8135 4.33541 16.8292L3.66459 18.1708ZM19.6646 16.8292C19.696 16.8135 19.6712 16.8291 19.5274 16.8599C19.4063 16.8859 19.2464 16.9134 19.0549 16.9416C18.6734 16.9977 18.2023 17.051 17.7379 17.0975C17.2752 17.1437 16.827 17.1824 16.4938 17.2095C16.3275 17.223 16.1902 17.2337 16.0947 17.2409C16.047 17.2445 16.0097 17.2473 15.9845 17.2491C15.9719 17.2501 15.9623 17.2508 15.9559 17.2512C15.9527 17.2515 15.9503 17.2516 15.9487 17.2517C15.948 17.2518 15.9474 17.2518 15.947 17.2519C15.9468 17.2519 15.9467 17.2519 15.9466 17.2519C15.9466 17.2519 15.9466 17.2519 15.9466 17.2519C15.9466 17.2519 15.9466 17.2519 16 18C16.0534 18.7481 16.0535 18.7481 16.0535 18.7481C16.0536 18.7481 16.0536 18.7481 16.0537 18.7481C16.0538 18.7481 16.054 18.7481 16.0543 18.748C16.0547 18.748 16.0554 18.748 16.0563 18.7479C16.0581 18.7478 16.0608 18.7476 16.0642 18.7473C16.0711 18.7468 16.0812 18.7461 16.0944 18.7451C16.1207 18.7432 16.1591 18.7403 16.208 18.7366C16.3059 18.7292 16.446 18.7184 16.6155 18.7046C16.9543 18.677 17.4123 18.6375 17.8871 18.59C18.3602 18.5427 18.8579 18.4867 19.2732 18.4256C19.4802 18.3952 19.6758 18.3622 19.8417 18.3266C19.985 18.2959 20.179 18.249 20.3354 18.1708L19.6646 16.8292ZM8.97477 3.97477C8.89316 4.05639 8.82673 4.07414 8.87051 4.05635C8.8948 4.04647 8.94507 4.02935 9.02855 4.00813C9.19398 3.96607 9.43283 3.92212 9.73589 3.88259C10.3387 3.80396 11.1394 3.75 12 3.75V2.25C11.0829 2.25 10.2168 2.30715 9.54188 2.39519C9.20606 2.43899 8.90324 2.49227 8.65895 2.55437C8.53757 2.58523 8.41597 2.62193 8.3057 2.66674C8.21493 2.70364 8.05128 2.77695 7.91411 2.91411L8.97477 3.97477ZM12 3.75C12.8606 3.75 13.6613 3.80396 14.2641 3.88259C14.5672 3.92212 14.806 3.96607 14.9715 4.00813C15.0549 4.02935 15.1052 4.04647 15.1295 4.05635C15.1733 4.07414 15.1068 4.05639 15.0252 3.97477L16.0859 2.91411C15.9487 2.77695 15.7851 2.70364 15.6943 2.66674C15.584 2.62193 15.4624 2.58523 15.341 2.55437C15.0968 2.49227 14.7939 2.43899 14.4581 2.39519C13.7832 2.30715 12.9171 2.25 12 2.25V3.75ZM15.0252 3.97477C14.9436 3.89316 14.9259 3.82673 14.9437 3.87051C14.9535 3.8948 14.9706 3.94507 14.9919 4.02855C15.0339 4.19398 15.0779 4.43283 15.1174 4.73589C15.196 5.33871 15.25 6.13936 15.25 7H16.75C16.75 6.08287 16.6928 5.21684 16.6048 4.54188C16.561 4.20606 16.5077 3.90324 16.4456 3.65895C16.4148 3.53757 16.3781 3.41597 16.3333 3.3057C16.2964 3.21493 16.2231 3.05128 16.0859 2.91411L15.0252 3.97477ZM8.75 7C8.75 6.13936 8.80396 5.33871 8.88259 4.73589C8.92212 4.43283 8.96607 4.19398 9.00813 4.02855C9.02935 3.94507 9.04647 3.8948 9.05635 3.87051C9.07414 3.82673 9.05639 3.89316 8.97477 3.97477L7.91411 2.91411C7.77695 3.05128 7.70364 3.21493 7.66674 3.3057C7.62193 3.41597 7.58523 3.53757 7.55437 3.65895C7.49227 3.90324 7.43899 4.20606 7.39519 4.54188C7.30715 5.21684 7.25 6.08287 7.25 7H8.75ZM7.25 7V9.08514H8.75V7H7.25ZM15.25 7V9.08514H16.75V7H15.25Z" fill="#001A72"/>
</svg>
