<svg width="24" height="24" viewBox="0 0 24 24" fill="none" xmlns="http://www.w3.org/2000/svg">
<path d="M11.25 17C11.25 17.4142 11.5858 17.75 12 17.75C12.4142 17.75 12.75 17.4142 12.75 17H11.25ZM12.75 16.9929C12.75 16.5786 12.4142 16.2429 12 16.2429C11.5858 16.2429 11.25 16.5786 11.25 16.9929H12.75ZM11.25 14.8571C11.25 15.2714 11.5858 15.6071 12 15.6071C12.4142 15.6071 12.75 15.2714 12.75 14.8571H11.25ZM8.42506 8.7651C8.29533 9.15848 8.50906 9.58254 8.90243 9.71227C9.29581 9.842 9.71987 9.62827 9.8496 9.2349L8.42506 8.7651ZM12.75 17V16.9929H11.25V17H12.75ZM14.25 9.85714C14.25 10.3069 14.1239 10.5599 13.957 10.7587C13.7529 11.0017 13.481 11.1812 13.0641 11.479C12.6804 11.753 12.2064 12.11 11.8437 12.6569C11.4699 13.2206 11.25 13.9275 11.25 14.8571H12.75C12.75 14.1797 12.9051 13.7705 13.0938 13.4859C13.2936 13.1847 13.5696 12.9613 13.9359 12.6996C14.269 12.4617 14.7471 12.1501 15.1055 11.7235C15.5011 11.2526 15.75 10.6574 15.75 9.85714H14.25ZM12 7.75C13.2775 7.75 14.25 8.72746 14.25 9.85714H15.75C15.75 7.83091 14.0362 6.25 12 6.25V7.75ZM9.8496 9.2349C10.1272 8.3931 10.9698 7.75 12 7.75V6.25C10.3436 6.25 8.91201 7.28855 8.42506 8.7651L9.8496 9.2349ZM20.25 12C20.25 16.5563 16.5563 20.25 12 20.25V21.75C17.3848 21.75 21.75 17.3848 21.75 12H20.25ZM12 20.25C7.44365 20.25 3.75 16.5563 3.75 12H2.25C2.25 17.3848 6.61522 21.75 12 21.75V20.25ZM3.75 12C3.75 7.44365 7.44365 3.75 12 3.75V2.25C6.61522 2.25 2.25 6.61522 2.25 12H3.75ZM12 3.75C16.5563 3.75 20.25 7.44365 20.25 12H21.75C21.75 6.61522 17.3848 2.25 12 2.25V3.75Z" fill="#001A72"/>
</svg>
