<svg width="24" height="24" viewBox="0 0 24 24" fill="none" xmlns="http://www.w3.org/2000/svg">
<path d="M19.5 6L20.2276 5.8181C20.1271 5.41625 19.7199 5.17193 19.3181 5.27239L19.5 6ZM19.5 18L19.3181 18.7276C19.5111 18.7759 19.7153 18.7455 19.8859 18.6431C20.0564 18.5408 20.1794 18.3749 20.2276 18.1819L19.5 18ZM13.863 8.57939L13.1157 8.64372L13.863 8.57939ZM13.8644 15.4034L13.1172 15.3395L13.8644 15.4034ZM13.5 18L13.3181 18.7276C13.5111 18.7759 13.7153 18.7455 13.8859 18.6431C14.0564 18.5408 14.1794 18.3749 14.2276 18.1819L13.5 18ZM13.5 6L14.2276 5.8181C14.1794 5.62513 14.0564 5.45922 13.8859 5.35688C13.7153 5.25454 13.5111 5.22415 13.3181 5.27239L13.5 6ZM3.5 12L2.87596 11.584C2.70801 11.8359 2.70801 12.1641 2.87596 12.416L3.5 12ZM14 12H14.75H14ZM19.5 6C18.7724 6.1819 18.7724 6.18174 18.7723 6.18159C18.7723 6.18155 18.7723 6.18141 18.7722 6.18132C18.7722 6.18116 18.7722 6.18103 18.7721 6.18093C18.7721 6.18073 18.7721 6.18065 18.7721 6.18069C18.7721 6.18077 18.7722 6.18134 18.7725 6.1824C18.773 6.18451 18.774 6.18857 18.7754 6.19458C18.7782 6.2066 18.7828 6.22641 18.7888 6.25402C18.8009 6.30924 18.8189 6.39564 18.841 6.51322C18.8851 6.74837 18.9452 7.1083 19.0058 7.59303C19.127 8.56241 19.25 10.0313 19.25 12H20.75C20.75 9.96866 20.623 8.43759 20.4942 7.40697C20.4298 6.8917 20.3649 6.50163 20.3153 6.23678C20.2904 6.10436 20.2694 6.00326 20.2542 5.93348C20.2465 5.89859 20.2403 5.87152 20.2358 5.85229C20.2336 5.84268 20.2317 5.83502 20.2304 5.82932C20.2297 5.82647 20.2291 5.82411 20.2286 5.82224C20.2284 5.82131 20.2282 5.82049 20.228 5.8198C20.2279 5.81946 20.2279 5.81914 20.2278 5.81886C20.2278 5.81872 20.2277 5.81853 20.2277 5.81846C20.2276 5.81827 20.2276 5.8181 19.5 6ZM19.25 12C19.25 13.9687 19.127 15.4376 19.0058 16.407C18.9452 16.8917 18.8851 17.2516 18.841 17.4868C18.8189 17.6044 18.8009 17.6908 18.7888 17.746C18.7828 17.7736 18.7782 17.7934 18.7754 17.8054C18.774 17.8114 18.773 17.8155 18.7725 17.8176C18.7722 17.8187 18.7721 17.8192 18.7721 17.8193C18.7721 17.8194 18.7721 17.8193 18.7721 17.8191C18.7722 17.819 18.7722 17.8188 18.7722 17.8187C18.7723 17.8186 18.7723 17.8184 18.7723 17.8184C18.7724 17.8183 18.7724 17.8181 19.5 18C20.2276 18.1819 20.2276 18.1817 20.2277 18.1815C20.2277 18.1815 20.2278 18.1813 20.2278 18.1811C20.2279 18.1809 20.2279 18.1805 20.228 18.1802C20.2282 18.1795 20.2284 18.1787 20.2286 18.1778C20.2291 18.1759 20.2297 18.1735 20.2304 18.1707C20.2317 18.165 20.2336 18.1573 20.2358 18.1477C20.2403 18.1285 20.2465 18.1014 20.2542 18.0665C20.2694 17.9967 20.2904 17.8956 20.3153 17.7632C20.3649 17.4984 20.4298 17.1083 20.4942 16.593C20.623 15.5624 20.75 14.0313 20.75 12H19.25ZM14.239 9.22833C15.9935 8.21175 17.8223 7.19251 19.6819 6.72761L19.3181 5.27239C17.2239 5.79595 15.2219 6.92523 13.487 7.93045L14.239 9.22833ZM19.6819 17.2724C17.8698 16.8194 15.8048 15.8648 14.2996 14.7926L13.4293 16.0143C15.0871 17.1952 17.3238 18.229 19.3181 18.7276L19.6819 17.2724ZM13.5 18C13.6819 17.2724 13.6821 17.2724 13.6823 17.2725C13.6823 17.2725 13.6825 17.2725 13.6826 17.2726C13.6828 17.2726 13.6829 17.2726 13.683 17.2727C13.6833 17.2727 13.6834 17.2728 13.6834 17.2728C13.6835 17.2728 13.683 17.2727 13.6821 17.2724C13.6802 17.2719 13.6764 17.2709 13.6706 17.2694C13.6592 17.2663 13.64 17.2611 13.6133 17.2535C13.5598 17.2382 13.4761 17.2133 13.3631 17.1768C13.137 17.1039 12.7938 16.9847 12.341 16.8036C11.4357 16.4415 10.0919 15.8316 8.3721 14.8488L7.6279 16.1512C9.40806 17.1684 10.8143 17.8085 11.784 18.1964C12.2687 18.3903 12.6442 18.5211 12.9026 18.6044C13.0317 18.6461 13.1316 18.6759 13.2012 18.6958C13.236 18.7057 13.2632 18.7132 13.2827 18.7184C13.2925 18.721 13.3003 18.7231 13.3062 18.7246C13.3092 18.7253 13.3116 18.726 13.3136 18.7265C13.3146 18.7267 13.3155 18.7269 13.3162 18.7271C13.3166 18.7272 13.3169 18.7273 13.3173 18.7274C13.3174 18.7274 13.3176 18.7275 13.3177 18.7275C13.3179 18.7276 13.3181 18.7276 13.5 18ZM8.3721 14.8488C6.66564 13.8737 5.58576 13.0303 4.942 12.445C4.62007 12.1524 4.40683 11.9239 4.27855 11.7754C4.2144 11.7011 4.17142 11.6467 4.14668 11.6142C4.1343 11.598 4.12647 11.5871 4.12282 11.582C4.121 11.5795 4.12022 11.5783 4.12044 11.5786C4.12055 11.5788 4.1209 11.5793 4.12151 11.5802C4.12181 11.5807 4.12217 11.5812 4.12259 11.5818C4.1228 11.5821 4.12303 11.5825 4.12327 11.5828C4.12339 11.583 4.12358 11.5833 4.12364 11.5834C4.12384 11.5837 4.12404 11.584 3.5 12C2.87596 12.416 2.87617 12.4163 2.87638 12.4167C2.87646 12.4168 2.87667 12.4171 2.87682 12.4173C2.87712 12.4178 2.87744 12.4182 2.87778 12.4187C2.87844 12.4197 2.87917 12.4208 2.87997 12.422C2.88156 12.4243 2.88341 12.427 2.88551 12.4301C2.88973 12.4362 2.89499 12.4437 2.90135 12.4526C2.91406 12.4705 2.93113 12.4938 2.95293 12.5225C2.99654 12.5798 3.05904 12.6582 3.14332 12.7558C3.31192 12.9511 3.56743 13.2226 3.933 13.555C4.66424 14.2197 5.83436 15.1263 7.6279 16.1512L8.3721 14.8488ZM3.5 12C4.12404 12.416 4.12384 12.4163 4.12364 12.4166C4.12358 12.4167 4.12339 12.417 4.12327 12.4172C4.12303 12.4175 4.1228 12.4179 4.12259 12.4182C4.12217 12.4188 4.12181 12.4193 4.12151 12.4198C4.1209 12.4207 4.12055 12.4212 4.12044 12.4214C4.12022 12.4217 4.121 12.4205 4.12282 12.418C4.12647 12.4129 4.1343 12.402 4.14668 12.3858C4.17142 12.3533 4.2144 12.2989 4.27855 12.2246C4.40683 12.0761 4.62007 11.8476 4.942 11.555C5.58576 10.9697 6.66564 10.1263 8.3721 9.15118L7.6279 7.84882C5.83436 8.8737 4.66424 9.78028 3.933 10.445C3.56743 10.7774 3.31192 11.0489 3.14332 11.2442C3.05904 11.3417 2.99654 11.4202 2.95293 11.4775C2.93113 11.5062 2.91406 11.5295 2.90135 11.5474C2.89499 11.5563 2.88973 11.5638 2.88551 11.5699C2.88341 11.573 2.88156 11.5757 2.87997 11.578C2.87917 11.5792 2.87844 11.5803 2.87778 11.5813C2.87744 11.5818 2.87712 11.5822 2.87682 11.5827C2.87667 11.5829 2.87646 11.5832 2.87638 11.5833C2.87617 11.5837 2.87596 11.584 3.5 12ZM8.3721 9.15118C10.0919 8.16842 11.4357 7.5585 12.341 7.19636C12.7938 7.01527 13.137 6.89607 13.3631 6.82316C13.4761 6.7867 13.5598 6.76181 13.6133 6.74653C13.64 6.7389 13.6592 6.73366 13.6706 6.73059C13.6764 6.72905 13.6802 6.72806 13.6821 6.72757C13.683 6.72733 13.6835 6.72721 13.6835 6.72722C13.6834 6.72722 13.6833 6.72726 13.683 6.72732C13.6829 6.72735 13.6828 6.72739 13.6826 6.72744C13.6825 6.72747 13.6823 6.72751 13.6823 6.72752C13.6821 6.72756 13.6819 6.72761 13.5 6C13.3181 5.27239 13.3179 5.27244 13.3177 5.27249C13.3176 5.27251 13.3174 5.27257 13.3173 5.2726C13.3169 5.27268 13.3166 5.27277 13.3162 5.27286C13.3155 5.27305 13.3146 5.27327 13.3136 5.27352C13.3116 5.27403 13.3092 5.27466 13.3062 5.27542C13.3003 5.27695 13.2925 5.279 13.2827 5.28162C13.2632 5.28684 13.236 5.29431 13.2012 5.30425C13.1316 5.32413 13.0317 5.35393 12.9026 5.39559C12.6442 5.47893 12.2687 5.60973 11.784 5.80364C10.8143 6.19149 9.40806 6.83158 7.6279 7.84882L8.3721 9.15118ZM13.5 6C12.7724 6.1819 12.7724 6.18179 12.7723 6.18169C12.7723 6.18166 12.7723 6.18156 12.7723 6.1815C12.7723 6.18138 12.7722 6.18127 12.7722 6.18118C12.7722 6.18099 12.7721 6.18086 12.7721 6.18077C12.7721 6.18061 12.7721 6.18065 12.7721 6.1809C12.7723 6.18141 12.7726 6.18275 12.7731 6.18493C12.7742 6.1893 12.776 6.19701 12.7785 6.20807C12.7836 6.2302 12.7915 6.26573 12.8018 6.31466C12.8222 6.41252 12.8519 6.56401 12.8863 6.76914C12.9553 7.17936 13.0435 7.80421 13.1157 8.64372L14.6102 8.51507C14.5345 7.63498 14.4412 6.97013 14.3656 6.52056C14.3278 6.29578 14.2945 6.12485 14.27 6.00776C14.2578 5.94922 14.2478 5.90415 14.2405 5.87253C14.2369 5.85673 14.234 5.84429 14.2318 5.83522C14.2307 5.83068 14.2298 5.82699 14.2291 5.82413C14.2287 5.82271 14.2284 5.82149 14.2282 5.82049C14.2281 5.81998 14.228 5.81953 14.2279 5.81913C14.2278 5.81894 14.2278 5.81875 14.2277 5.81858C14.2277 5.81849 14.2277 5.81837 14.2277 5.81833C14.2276 5.81821 14.2276 5.8181 13.5 6ZM13.1157 8.64372C13.1916 9.52548 13.25 10.6442 13.25 12H14.75C14.75 10.6011 14.6898 9.43945 14.6102 8.51507L13.1157 8.64372ZM13.25 12C13.25 13.3472 13.1924 14.4604 13.1172 15.3395L14.6117 15.4674C14.6905 14.5458 14.75 13.39 14.75 12H13.25ZM13.1172 15.3395C13.0449 16.1847 12.9563 16.8138 12.887 17.2268C12.8524 17.4333 12.8226 17.5858 12.802 17.6844C12.7917 17.7336 12.7837 17.7694 12.7786 17.7917C12.776 17.8029 12.7742 17.8106 12.7731 17.815C12.7726 17.8172 12.7723 17.8186 12.7721 17.8191C12.7721 17.8193 12.7721 17.8194 12.7721 17.8192C12.7721 17.8191 12.7722 17.819 12.7722 17.8188C12.7722 17.8187 12.7723 17.8186 12.7723 17.8185C12.7723 17.8184 12.7723 17.8183 12.7723 17.8183C12.7724 17.8182 12.7724 17.8181 13.5 18C14.2276 18.1819 14.2276 18.1818 14.2277 18.1817C14.2277 18.1816 14.2277 18.1815 14.2277 18.1814C14.2278 18.1812 14.2278 18.1811 14.2279 18.1809C14.228 18.1805 14.2281 18.18 14.2282 18.1795C14.2285 18.1785 14.2288 18.1773 14.2291 18.1758C14.2298 18.173 14.2307 18.1693 14.2318 18.1647C14.234 18.1556 14.2369 18.1431 14.2406 18.1272C14.2479 18.0953 14.258 18.05 14.2703 17.9911C14.2949 17.8732 14.3284 17.7012 14.3664 17.475C14.4423 17.0225 14.5359 16.3532 14.6117 15.4674L13.1172 15.3395Z" fill="#001A72"/>
</svg>
