<svg width="24" height="24" viewBox="0 0 24 24" fill="none" xmlns="http://www.w3.org/2000/svg">
<path d="M4.21755 14.7414C4.0799 14.3507 3.65161 14.1456 3.26094 14.2833C2.87027 14.4209 2.66515 14.8492 2.8028 15.2399L4.21755 14.7414ZM7.01208 19.492L6.59653 20.1164H6.59653L7.01208 19.492ZM17.8133 18.8704L18.2978 19.443H18.2978L17.8133 18.8704ZM20.214 8.32177L20.8985 8.01523L20.214 8.32177ZM16.3539 4.12343L16.7168 3.46704L16.3539 4.12343ZM10.7454 3.08779L10.8499 3.83047L10.7454 3.08779ZM3 8H2.25C2.25 8.41421 2.58579 8.75 3 8.75V8ZM3.75 2C3.75 1.58579 3.41421 1.25 3 1.25C2.58579 1.25 2.25 1.58579 2.25 2H3.75ZM9 8.75C9.41421 8.75 9.75 8.41421 9.75 8C9.75 7.58579 9.41421 7.25 9 7.25V8.75ZM2.8028 15.2399C3.50528 17.2336 4.83673 18.9451 6.59653 20.1164L7.42764 18.8677C5.93856 17.8766 4.81195 16.4284 4.21755 14.7414L2.8028 15.2399ZM6.59653 20.1164C8.35632 21.2877 10.4491 21.8553 12.5596 21.7339L12.4734 20.2364C10.6876 20.3391 8.91672 19.8588 7.42764 18.8677L6.59653 20.1164ZM12.5596 21.7339C14.6701 21.6124 16.684 20.8084 18.2978 19.443L17.3289 18.2979C15.9634 19.4532 14.2593 20.1336 12.4734 20.2364L12.5596 21.7339ZM18.2978 19.443C19.9115 18.0775 21.0378 16.2246 21.5069 14.1635L20.0443 13.8306C19.6474 15.5746 18.6944 17.1425 17.3289 18.2979L18.2978 19.443ZM21.5069 14.1635C21.976 12.1023 21.7625 9.94449 20.8985 8.01523L19.5295 8.6283C20.2605 10.2607 20.4412 12.0865 20.0443 13.8306L21.5069 14.1635ZM20.8985 8.01523C20.0345 6.08596 18.5669 4.48973 16.7168 3.46704L15.9911 4.77983C17.5566 5.64519 18.7984 6.99586 19.5295 8.6283L20.8985 8.01523ZM16.7168 3.46704C14.8666 2.44435 12.7343 2.0506 10.6409 2.3451L10.8499 3.83047C12.6212 3.58127 14.4256 3.91446 15.9911 4.77983L16.7168 3.46704ZM10.6409 2.3451C7.09355 2.84416 4.73418 5.43611 2.49909 7.4418L3.50091 8.5582C5.92075 6.38673 7.87229 4.24937 10.8499 3.83047L10.6409 2.3451ZM2.25 2V8H3.75V2H2.25ZM3 8.75H9V7.25H3V8.75Z" fill="#001A72"/>
</svg>
