<svg width="24" height="24" viewBox="0 0 24 24" fill="none" xmlns="http://www.w3.org/2000/svg">
<path d="M20.75 13C20.75 12.5858 20.4142 12.25 20 12.25C19.5858 12.25 19.25 12.5858 19.25 13H20.75ZM4.75 13C4.75 12.5858 4.41421 12.25 4 12.25C3.58579 12.25 3.25 12.5858 3.25 13H4.75ZM12 3L12.5303 2.46967C12.2374 2.17678 11.7626 2.17678 11.4697 2.46967L12 3ZM11.25 15C11.25 15.4142 11.5858 15.75 12 15.75C12.4142 15.75 12.75 15.4142 12.75 15H11.25ZM15.4697 7.53033C15.7626 7.82322 16.2374 7.82322 16.5303 7.53033C16.8232 7.23744 16.8232 6.76256 16.5303 6.46967L15.4697 7.53033ZM7.46967 6.46967C7.17678 6.76256 7.17678 7.23744 7.46967 7.53033C7.76256 7.82322 8.23744 7.82322 8.53033 7.53033L7.46967 6.46967ZM19.25 13V17.5H20.75V13H19.25ZM4.75 17.5V13H3.25V17.5H4.75ZM19.25 17.5C19.25 18.0809 19.0688 18.4501 18.7902 18.7205C18.4873 19.0145 18.0075 19.25 17.3214 19.4182C15.9304 19.7593 14.0388 19.75 12 19.75V21.25C13.9612 21.25 16.0696 21.2696 17.6786 20.8751C18.4925 20.6755 19.2627 20.3522 19.8348 19.797C20.4312 19.2182 20.75 18.4479 20.75 17.5H19.25ZM12 19.75C9.96116 19.75 8.06959 19.7593 6.6786 19.4182C5.99251 19.25 5.51273 19.0145 5.20982 18.7205C4.93116 18.4501 4.75 18.0809 4.75 17.5H3.25C3.25 18.4479 3.56884 19.2182 4.16518 19.797C4.73727 20.3522 5.50749 20.6755 6.3214 20.8751C7.93041 21.2696 10.0388 21.25 12 21.25V19.75ZM11.25 3L11.25 15H12.75L12.75 3L11.25 3ZM16.5303 6.46967L12.5303 2.46967L11.4697 3.53033L15.4697 7.53033L16.5303 6.46967ZM11.4697 2.46967L7.46967 6.46967L8.53033 7.53033L12.5303 3.53033L11.4697 2.46967Z" fill="#001A72"/>
</svg>
