<svg width="24" height="24" viewBox="0 0 24 24" fill="none" xmlns="http://www.w3.org/2000/svg">
<path d="M15.5305 10.5303C15.8233 10.2374 15.8233 9.76256 15.5305 9.46967C15.2376 9.17678 14.7627 9.17678 14.4698 9.46967L15.5305 10.5303ZM11.0001 14L10.4698 14.5304C10.7627 14.8232 11.2375 14.8232 11.5304 14.5304L11.0001 14ZM9.53032 11.4697C9.23742 11.1768 8.76255 11.1768 8.46966 11.4697C8.17677 11.7626 8.17678 12.2375 8.46968 12.5303L9.53032 11.4697ZM13.0693 20.5995L13.3866 21.2791L13.0693 20.5995ZM10.9306 20.5995L11.248 19.92L10.9306 20.5995ZM17.7888 5.89443L18.1243 5.22361L17.7888 5.89443ZM19.8119 9.4623L20.554 9.57129L19.8119 9.4623ZM6.21113 5.89443L6.54654 6.56525L6.21113 5.89443ZM4.18803 9.4623L3.44599 9.57129L4.18803 9.4623ZM10.2111 3.89443L9.87572 3.22361L10.2111 3.89443ZM13.7888 3.89443L13.4534 4.56525L13.7888 3.89443ZM14.4698 9.46967L10.4698 13.4697L11.5304 14.5304L15.5305 10.5303L14.4698 9.46967ZM8.46968 12.5303L10.4698 14.5304L11.5304 13.4697L9.53032 11.4697L8.46968 12.5303ZM9.87572 3.22361L5.87572 5.22361L6.54654 6.56525L10.5465 4.56525L9.87572 3.22361ZM18.1243 5.22361L14.1242 3.22361L13.4534 4.56525L17.4534 6.56525L18.1243 5.22361ZM13.3866 21.2791C15.4714 20.3057 17.0964 18.4818 18.2744 16.3849C19.4553 14.2829 20.219 11.8519 20.554 9.57129L19.0699 9.35331C18.7583 11.4747 18.0472 13.7268 16.9667 15.6502C15.8833 17.5786 14.4602 19.1223 12.752 19.92L13.3866 21.2791ZM3.44599 9.57129C3.78096 11.8519 4.54467 14.2829 5.72556 16.3849C6.9036 18.4818 8.52857 20.3057 10.6133 21.2791L11.248 19.92C9.53977 19.1223 8.11671 17.5786 7.03332 15.6502C5.95278 13.7268 5.24166 11.4747 4.93007 9.35331L3.44599 9.57129ZM12.752 19.92C12.2763 20.1421 11.7237 20.1421 11.248 19.92L10.6133 21.2791C11.4913 21.689 12.5087 21.689 13.3866 21.2791L12.752 19.92ZM17.4534 6.56525C18.5762 7.12661 19.2343 8.23391 19.0699 9.35331L20.554 9.57129C20.8299 7.69268 19.7118 6.01738 18.1243 5.22361L17.4534 6.56525ZM5.87572 5.22361C4.28817 6.01738 3.17007 7.69268 3.44599 9.57129L4.93007 9.35331C4.76566 8.23391 5.42382 7.12661 6.54654 6.56525L5.87572 5.22361ZM10.5465 4.56525C11.4615 4.10777 12.5385 4.10777 13.4534 4.56525L14.1242 3.22361C12.787 2.55498 11.213 2.55498 9.87572 3.22361L10.5465 4.56525Z" fill="#001A72"/>
</svg>
