<svg width="24" height="24" viewBox="0 0 24 24" fill="none" xmlns="http://www.w3.org/2000/svg">
<path d="M5.5 16L5.6819 15.2724H5.6819L5.5 16ZM5.23308 8.85593C5.62678 8.7272 5.84159 8.30369 5.71286 7.90999C5.58414 7.51628 5.16062 7.30148 4.76692 7.4302L5.23308 8.85593ZM14.0178 17.0763C14.0599 16.6642 13.76 16.296 13.348 16.2539C12.9359 16.2117 12.5677 16.5116 12.5255 16.9237L14.0178 17.0763ZM3.53033 2.46967C3.23744 2.17678 2.76256 2.17678 2.46967 2.46967C2.17678 2.76256 2.17678 3.23744 2.46967 3.53033L3.53033 2.46967ZM20.4697 21.5303C20.7626 21.8232 21.2374 21.8232 21.5303 21.5303C21.8232 21.2374 21.8232 20.7626 21.5303 20.4697L20.4697 21.5303ZM8.45581 4.09145C8.17078 4.392 8.18335 4.86671 8.4839 5.15174C8.78444 5.43678 9.25915 5.4242 9.54419 5.12366L8.45581 4.09145ZM12.6744 9.03965C12.6963 9.45329 13.0494 9.77085 13.463 9.74895C13.8766 9.72705 14.1942 9.37398 14.1723 8.96035L12.6744 9.03965ZM2.25 10.5V13.5H3.75V10.5H2.25ZM2.25 13.5C2.25 14.1714 2.4054 14.8705 2.93795 15.4733C3.45338 16.0567 4.2431 16.4589 5.3181 16.7276L5.6819 15.2724C4.7569 15.0411 4.29662 14.7456 4.06205 14.4801C3.8446 14.234 3.75 13.9331 3.75 13.5H2.25ZM5.3181 16.7276C5.6002 16.7981 5.94459 17.0371 6.3944 17.5094C6.84294 17.9804 7.26942 18.539 7.80132 19.1706C8.78119 20.3342 10.1125 21.75 12 21.75V20.25C10.8875 20.25 9.96881 19.4158 8.94868 18.2044C8.48058 17.6485 7.96955 16.9883 7.4806 16.4749C6.99291 15.9629 6.3998 15.4519 5.6819 15.2724L5.3181 16.7276ZM4.76692 7.4302C3.88568 7.71833 3.23213 8.12518 2.8076 8.6859C2.37691 9.25475 2.25 9.89179 2.25 10.5H3.75C3.75 10.1021 3.83049 9.81986 4.0035 9.59133C4.18267 9.35469 4.52912 9.0861 5.23308 8.85593L4.76692 7.4302ZM12 21.75C12.5316 21.75 12.8689 21.3838 13.046 21.119C13.2361 20.8346 13.3794 20.4701 13.4939 20.0872C13.726 19.3106 13.8971 18.2558 14.0178 17.0763L12.5255 16.9237C12.4082 18.0707 12.2485 19.0159 12.0567 19.6577C11.9592 19.9839 11.8673 20.1832 11.799 20.2853C11.7177 20.407 11.7733 20.25 12 20.25V21.75ZM2.46967 3.53033L20.4697 21.5303L21.5303 20.4697L3.53033 2.46967L2.46967 3.53033ZM12 2.25C10.4821 2.25 9.33665 3.16269 8.45581 4.09145L9.54419 5.12366C10.3554 4.26827 11.1254 3.75 12 3.75V2.25ZM14.1723 8.96035C14.0839 7.29158 13.9188 5.7454 13.669 4.60082C13.5456 4.03513 13.3918 3.52078 13.1917 3.13057C13.0917 2.9357 12.9606 2.73237 12.7832 2.56958C12.5984 2.40005 12.3334 2.25 12 2.25V3.75C11.86 3.75 11.7793 3.68418 11.7692 3.67496C11.7665 3.67248 11.8008 3.70553 11.8569 3.81499C11.9689 4.03342 12.0898 4.39945 12.2035 4.92067C12.4282 5.94992 12.5878 7.40375 12.6744 9.03965L14.1723 8.96035Z" fill="#001A72"/>
</svg>
