<svg width="24" height="24" viewBox="0 0 24 24" fill="none" xmlns="http://www.w3.org/2000/svg">
<path d="M7.41422 17.4142L7.94455 16.8839H7.94455L7.41422 17.4142ZM3.41422 13.4142L3.94455 12.8839L3.41422 13.4142ZM3.41422 10.5858L2.88389 10.0555H2.88389L3.41422 10.5858ZM7.41422 6.58579L6.88389 6.05546L6.88389 6.05546L7.41422 6.58579ZM10.25 12C10.25 12.4142 9.91421 12.75 9.5 12.75V14.25C10.7426 14.25 11.75 13.2426 11.75 12H10.25ZM9.5 12.75C9.08579 12.75 8.75 12.4142 8.75 12H7.25C7.25 13.2426 8.25736 14.25 9.5 14.25V12.75ZM8.75 12C8.75 11.5858 9.08579 11.25 9.5 11.25V9.75C8.25736 9.75 7.25 10.7574 7.25 12H8.75ZM9.5 11.25C9.91421 11.25 10.25 11.5858 10.25 12H11.75C11.75 10.7574 10.7426 9.75 9.5 9.75V11.25ZM20.25 8V16H21.75V8H20.25ZM19 17.25H8.82843V18.75H19V17.25ZM7.94455 16.8839L3.94455 12.8839L2.88389 13.9445L6.88389 17.9445L7.94455 16.8839ZM3.94455 11.1161L7.94455 7.11612L6.88389 6.05546L2.88389 10.0555L3.94455 11.1161ZM8.82843 6.75H19V5.25H8.82843V6.75ZM7.94455 7.11612C8.17897 6.8817 8.49691 6.75 8.82843 6.75V5.25C8.09908 5.25 7.39961 5.53973 6.88389 6.05546L7.94455 7.11612ZM3.94455 12.8839C3.45639 12.3957 3.45639 11.6043 3.94455 11.1161L2.88389 10.0555C1.80994 11.1294 1.80995 12.8706 2.88389 13.9445L3.94455 12.8839ZM8.82843 17.25C8.49691 17.25 8.17897 17.1183 7.94455 16.8839L6.88389 17.9445C7.39961 18.4603 8.09908 18.75 8.82843 18.75V17.25ZM20.25 16C20.25 16.6904 19.6904 17.25 19 17.25V18.75C20.5188 18.75 21.75 17.5188 21.75 16H20.25ZM21.75 8C21.75 6.48122 20.5188 5.25 19 5.25V6.75C19.6904 6.75 20.25 7.30964 20.25 8H21.75Z" fill="#001A72"/>
</svg>
