<svg width="24" height="24" viewBox="0 0 24 24" fill="none" xmlns="http://www.w3.org/2000/svg">
<path d="M14.6708 9.16459C14.4856 8.79411 14.0351 8.64394 13.6646 8.82918C13.2941 9.01442 13.1439 9.46493 13.3292 9.83541L14.6708 9.16459ZM13.3292 15.1646C13.1439 15.5351 13.2941 15.9856 13.6646 16.1708C14.0351 16.3561 14.4856 16.2059 14.6708 15.8354L13.3292 15.1646ZM10.6708 9.83541C10.8561 9.46493 10.7059 9.01442 10.3354 8.82918C9.96493 8.64394 9.51442 8.79411 9.32918 9.16459L10.6708 9.83541ZM9.32918 15.8354C9.51442 16.2059 9.96493 16.3561 10.3354 16.1708C10.7059 15.9856 10.8561 15.5351 10.6708 15.1646L9.32918 15.8354ZM6.74999 6C6.74999 5.58579 6.41421 5.25 5.99999 5.25C5.58578 5.25 5.24999 5.58579 5.24999 6H6.74999ZM18.75 6C18.75 5.58579 18.4142 5.25 18 5.25C17.5858 5.25 17.25 5.58579 17.25 6H18.75ZM4 5.25C3.58579 5.25 3.25 5.58579 3.25 6C3.25 6.41421 3.58579 6.75 4 6.75V5.25ZM20 6.75C20.4142 6.75 20.75 6.41421 20.75 6C20.75 5.58579 20.4142 5.25 20 5.25V6.75ZM14.25 6C14.25 6.41421 14.5858 6.75 15 6.75C15.4142 6.75 15.75 6.41421 15.75 6H14.25ZM8.25 6C8.25 6.41421 8.58579 6.75 9 6.75C9.41421 6.75 9.75 6.41421 9.75 6H8.25ZM14 9.5C13.3292 9.83541 13.3291 9.83515 13.3289 9.8349C13.3289 9.83482 13.3288 9.83457 13.3287 9.83441C13.3285 9.83409 13.3284 9.83378 13.3282 9.83349C13.3279 9.83291 13.3277 9.83239 13.3275 9.83193C13.327 9.83101 13.3267 9.83032 13.3264 9.82988C13.326 9.82898 13.326 9.82904 13.3265 9.83004C13.3275 9.83206 13.3302 9.83787 13.3344 9.84749C13.3428 9.86672 13.3573 9.90117 13.3759 9.95084C13.4131 10.0502 13.467 10.2105 13.5224 10.4319C13.633 10.8742 13.75 11.5632 13.75 12.5H15.25C15.25 11.4368 15.117 10.6258 14.9776 10.0681C14.908 9.78952 14.8369 9.57485 14.7804 9.42416C14.7521 9.34883 14.7275 9.28953 14.7086 9.24626C14.6991 9.22463 14.6911 9.20701 14.6847 9.19339C14.6815 9.18659 14.6787 9.18078 14.6764 9.17598C14.6753 9.17358 14.6742 9.17143 14.6733 9.16953C14.6728 9.16858 14.6724 9.1677 14.672 9.16687C14.6718 9.16646 14.6716 9.16607 14.6714 9.16569C14.6713 9.16549 14.6711 9.16522 14.6711 9.16513C14.671 9.16486 14.6708 9.16459 14 9.5ZM13.75 12.5C13.75 13.4368 13.633 14.1258 13.5224 14.5681C13.467 14.7895 13.4131 14.9498 13.3759 15.0492C13.3573 15.0988 13.3428 15.1333 13.3344 15.1525C13.3302 15.1621 13.3275 15.1679 13.3265 15.17C13.326 15.171 13.326 15.171 13.3264 15.1701C13.3267 15.1697 13.327 15.169 13.3275 15.1681C13.3277 15.1676 13.3279 15.1671 13.3282 15.1665C13.3284 15.1662 13.3285 15.1659 13.3287 15.1656C13.3288 15.1654 13.3289 15.1652 13.3289 15.1651C13.3291 15.1648 13.3292 15.1646 14 15.5C14.6708 15.8354 14.671 15.8351 14.6711 15.8349C14.6711 15.8348 14.6713 15.8345 14.6714 15.8343C14.6716 15.8339 14.6718 15.8335 14.672 15.8331C14.6724 15.8323 14.6728 15.8314 14.6733 15.8305C14.6742 15.8286 14.6753 15.8264 14.6764 15.824C14.6787 15.8192 14.6815 15.8134 14.6847 15.8066C14.6911 15.793 14.6991 15.7754 14.7086 15.7537C14.7275 15.7105 14.7521 15.6512 14.7804 15.5758C14.8369 15.4252 14.908 15.2105 14.9776 14.9319C15.117 14.3742 15.25 13.5632 15.25 12.5H13.75ZM10 9.5C9.32918 9.16459 9.32905 9.16486 9.32891 9.16513C9.32886 9.16522 9.32873 9.16549 9.32863 9.16569C9.32844 9.16607 9.32825 9.16646 9.32804 9.16687C9.32763 9.1677 9.32719 9.16858 9.32673 9.16953C9.32579 9.17143 9.32474 9.17358 9.32358 9.17598C9.32125 9.18078 9.31848 9.18659 9.31529 9.19339C9.30891 9.20701 9.30086 9.22463 9.2914 9.24626C9.27247 9.28953 9.24788 9.34883 9.21963 9.42416C9.16312 9.57485 9.09204 9.78952 9.02239 10.0681C8.88298 10.6258 8.75 11.4368 8.75 12.5H10.25C10.25 11.5632 10.367 10.8742 10.4776 10.4319C10.533 10.2105 10.5869 10.0502 10.6241 9.95084C10.6427 9.90117 10.6572 9.86672 10.6656 9.84749C10.6698 9.83787 10.6725 9.83206 10.6735 9.83004C10.674 9.82904 10.674 9.82898 10.6736 9.82988C10.6733 9.83032 10.673 9.83101 10.6725 9.83193C10.6723 9.83239 10.6721 9.83291 10.6718 9.83349C10.6716 9.83378 10.6715 9.83409 10.6713 9.83441C10.6712 9.83457 10.6711 9.83482 10.6711 9.8349C10.6709 9.83515 10.6708 9.83541 10 9.5ZM8.75 12.5C8.75 13.5632 8.88298 14.3742 9.02239 14.9319C9.09204 15.2105 9.16312 15.4252 9.21963 15.5758C9.24788 15.6512 9.27247 15.7105 9.2914 15.7537C9.30086 15.7754 9.30891 15.793 9.31529 15.8066C9.31848 15.8134 9.32125 15.8192 9.32358 15.824C9.32474 15.8264 9.32579 15.8286 9.32673 15.8305C9.32719 15.8314 9.32763 15.8323 9.32804 15.8331C9.32825 15.8335 9.32844 15.8339 9.32863 15.8343C9.32873 15.8345 9.32886 15.8348 9.32891 15.8349C9.32905 15.8351 9.32918 15.8354 10 15.5C10.6708 15.1646 10.6709 15.1648 10.6711 15.1651C10.6711 15.1652 10.6712 15.1654 10.6713 15.1656C10.6715 15.1659 10.6716 15.1662 10.6718 15.1665C10.6721 15.1671 10.6723 15.1676 10.6725 15.1681C10.673 15.169 10.6733 15.1697 10.6736 15.1701C10.674 15.171 10.674 15.171 10.6735 15.17C10.6725 15.1679 10.6698 15.1621 10.6656 15.1525C10.6572 15.1333 10.6427 15.0988 10.6241 15.0492C10.5869 14.9498 10.533 14.7895 10.4776 14.5681C10.367 14.1258 10.25 13.4368 10.25 12.5H8.75ZM12 19.25C10.303 19.25 9.20651 18.7858 8.46784 18.0903C7.71412 17.3807 7.24329 16.3465 6.97076 15.0435C6.69826 13.7406 6.63813 12.2389 6.65121 10.6654C6.65773 9.8814 6.68213 9.0915 6.70524 8.30571C6.72825 7.52351 6.74999 6.74495 6.74999 6H5.24999C5.24999 6.71973 5.22896 7.47718 5.20589 8.26161C5.18292 9.04244 5.15794 9.84977 5.15126 10.6529C5.13795 12.2536 5.19615 13.8858 5.50253 15.3506C5.80888 16.8152 6.37749 18.1825 7.43961 19.1824C8.51678 20.1966 10.0125 20.75 12 20.75V19.25ZM17.25 6C17.25 6.74495 17.2717 7.52351 17.2947 8.30571C17.3179 9.0915 17.3423 9.8814 17.3488 10.6654C17.3619 12.2389 17.3017 13.7406 17.0292 15.0435C16.7567 16.3465 16.2859 17.3807 15.5321 18.0903C14.7935 18.7858 13.6969 19.25 12 19.25V20.75C13.9875 20.75 15.4832 20.1966 16.5604 19.1824C17.6225 18.1825 18.1911 16.8152 18.4975 15.3506C18.8038 13.8858 18.862 12.2536 18.8487 10.6529C18.842 9.84977 18.8171 9.04244 18.7941 8.26161C18.771 7.47718 18.75 6.71973 18.75 6H17.25ZM4 6.75H20V5.25H4V6.75ZM15.75 6V5H14.25V6H15.75ZM8.25 5V6H9.75V5H8.25ZM15.75 5C15.75 4.43735 15.6188 3.94351 15.353 3.53183C15.0881 3.12168 14.7226 2.84392 14.3354 2.65816C13.5918 2.30136 12.6929 2.25 12 2.25V3.75C12.6698 3.75 13.2709 3.81112 13.6866 4.01056C13.8791 4.10293 14.0081 4.21423 14.0928 4.34548C14.1766 4.47521 14.25 4.67513 14.25 5H15.75ZM12 2.25C11.3071 2.25 10.4082 2.30136 9.66455 2.65816C9.27741 2.84392 8.91188 3.12168 8.64705 3.53183C8.38123 3.94351 8.25 4.43735 8.25 5H9.75C9.75 4.67513 9.82343 4.47521 9.90719 4.34548C9.99194 4.21423 10.1209 4.10293 10.3134 4.01056C10.7291 3.81112 11.3302 3.75 12 3.75V2.25Z" fill="#001A72"/>
</svg>
