<svg width="24" height="24" viewBox="0 0 24 24" fill="none" xmlns="http://www.w3.org/2000/svg">
<path d="M21 7H21.75C21.75 6.58579 21.4142 6.25 21 6.25V7ZM2.46967 16.4697C2.17678 16.7626 2.17678 17.2374 2.46967 17.5303C2.76256 17.8232 3.23744 17.8232 3.53033 17.5303L2.46967 16.4697ZM10.4142 12.4142L10.9445 11.8839L10.4142 12.4142ZM11.5858 13.5858L11.0555 14.1161H11.0555L11.5858 13.5858ZM15 6.25C14.5858 6.25 14.25 6.58579 14.25 7C14.25 7.41421 14.5858 7.75 15 7.75V6.25ZM20.25 13C20.25 13.4142 20.5858 13.75 21 13.75C21.4142 13.75 21.75 13.4142 21.75 13H20.25ZM20.4697 6.46967L13.8839 13.0555L14.9445 14.1161L21.5303 7.53033L20.4697 6.46967ZM12.1161 13.0555L10.9445 11.8839L9.88388 12.9445L11.0555 14.1161L12.1161 13.0555ZM7.05546 11.8839L2.46967 16.4697L3.53033 17.5303L8.11612 12.9445L7.05546 11.8839ZM10.9445 11.8839C9.8706 10.8099 8.1294 10.8099 7.05546 11.8839L8.11612 12.9445C8.60427 12.4564 9.39573 12.4564 9.88388 12.9445L10.9445 11.8839ZM13.8839 13.0555C13.3957 13.5436 12.6043 13.5436 12.1161 13.0555L11.0555 14.1161C12.1294 15.1901 13.8706 15.1901 14.9445 14.1161L13.8839 13.0555ZM15 7.75H21V6.25H15V7.75ZM20.25 7V13H21.75V7H20.25Z" fill="#001A72"/>
</svg>
