<svg width="24" height="24" viewBox="0 0 24 24" fill="none" xmlns="http://www.w3.org/2000/svg">
<path d="M11.25 21C11.25 21.4142 11.5858 21.75 12 21.75C12.4142 21.75 12.75 21.4142 12.75 21H11.25ZM17.6568 6.34315L17.1265 6.87348L17.6568 6.34315ZM6.34314 6.34315L5.81281 5.81281L6.34314 6.34315ZM4.24869 10.0207L3.52201 9.83513L4.24869 10.0207ZM6 12L6 11.25L6 12ZM19.7513 10.0207L20.478 9.83513L19.7513 10.0207ZM12.75 3C12.75 2.58579 12.4142 2.25 12 2.25C11.5858 2.25 11.25 2.58578 11.25 3L12.75 3ZM11.25 12V21H12.75V12H11.25ZM20.478 9.83513C20.0925 8.32579 19.3074 6.93306 18.1872 5.81282L17.1265 6.87348C18.0547 7.80165 18.7052 8.95558 19.0246 10.2063L20.478 9.83513ZM18.1872 5.81282C16.5462 4.17187 14.3206 3.25 12 3.25V4.75C13.9228 4.75 15.7669 5.51384 17.1265 6.87348L18.1872 5.81282ZM12 3.25C9.67935 3.25 7.45376 4.17187 5.81281 5.81281L6.87347 6.87348C8.23311 5.51384 10.0772 4.75 12 4.75V3.25ZM5.81281 5.81281C4.69256 6.93306 3.90746 8.32579 3.52201 9.83513L4.97537 10.2063C5.29477 8.95558 5.9453 7.80165 6.87347 6.87348L5.81281 5.81281ZM6 12.75L12 12.75V11.25L6 11.25L6 12.75ZM12 12.75H18V11.25H12V12.75ZM3.52201 9.83513C3.09409 11.5108 4.55065 12.75 6 12.75L6 11.25C5.2402 11.25 4.85666 10.6711 4.97537 10.2063L3.52201 9.83513ZM19.0246 10.2063C19.1433 10.6711 18.7598 11.25 18 11.25V12.75C19.4493 12.75 20.9059 11.5108 20.478 9.83513L19.0246 10.2063ZM11.25 3L11.25 4L12.75 4L12.75 3L11.25 3Z" fill="#001A72"/>
</svg>
