<svg width="24" height="24" viewBox="0 0 24 24" fill="none" xmlns="http://www.w3.org/2000/svg">
<path d="M12.75 12C12.75 11.5858 12.4142 11.25 12 11.25C11.5858 11.25 11.25 11.5858 11.25 12H12.75ZM11.25 21C11.25 21.4142 11.5858 21.75 12 21.75C12.4142 21.75 12.75 21.4142 12.75 21H11.25ZM17.6569 6.34315L17.1265 6.87348L17.6569 6.34315ZM6.34315 6.34315L6.87348 6.87348L6.34315 6.34315ZM5.7764 11.1118L5.44099 10.441L5.7764 11.1118ZM6.22361 11.1118L5.8882 11.7826L6.22361 11.1118ZM8.22361 11.8882L8.55902 12.559H8.55902L8.22361 11.8882ZM7.7764 11.8882L8.11181 11.2174L7.7764 11.8882ZM17.7764 11.1118L17.441 10.441L17.7764 11.1118ZM18.2236 11.1118L18.559 10.441L18.2236 11.1118ZM15.7764 11.8882L15.441 12.559L15.7764 11.8882ZM16.2236 11.8882L16.559 12.559L16.2236 11.8882ZM10.2236 11.1118L10.559 10.441H10.559L10.2236 11.1118ZM9.7764 11.1118L9.44099 10.441H9.44099L9.7764 11.1118ZM4.04085 11.1923L3.29468 11.1166L4.04085 11.1923ZM4.72361 11.6382L5.05902 12.309H5.05902L4.72361 11.6382ZM13.7764 11.1118L13.441 10.441L13.7764 11.1118ZM14.2236 11.1118L14.559 10.441L14.2236 11.1118ZM19.9592 11.1923L20.7053 11.1166L19.9592 11.1923ZM19.2764 11.6382L18.941 12.309L19.2764 11.6382ZM11.7764 11.8882L11.441 12.559H11.441L11.7764 11.8882ZM12.2236 11.8882L12.559 12.559L12.2236 11.8882ZM12.75 3C12.75 2.58578 12.4142 2.25 12 2.25C11.5858 2.25 11.25 2.58579 11.25 3L12.75 3ZM11.25 12V21H12.75V12H11.25ZM20.7053 11.1166C20.5028 9.12047 19.6186 7.24422 18.1872 5.81282L17.1265 6.87348C18.3125 8.05947 19.0452 9.61408 19.213 11.268L20.7053 11.1166ZM18.1872 5.81282C16.5462 4.17187 14.3206 3.25 12 3.25V4.75C13.9228 4.75 15.7669 5.51384 17.1265 6.87348L18.1872 5.81282ZM12 3.25C9.67936 3.25 7.45376 4.17187 5.81282 5.81281L6.87348 6.87348C8.23312 5.51384 10.0772 4.75 12 4.75V3.25ZM5.81282 5.81281C4.38142 7.24422 3.49719 9.12046 3.29468 11.1166L4.78702 11.268C4.95481 9.61408 5.68749 8.05947 6.87348 6.87348L5.81282 5.81281ZM9.8882 11.7826L11.441 12.559L12.1118 11.2174L10.559 10.441L9.8882 11.7826ZM12.559 12.559L14.1118 11.7826L13.441 10.441L11.8882 11.2174L12.559 12.559ZM13.8882 11.7826L15.441 12.559L16.1118 11.2174L14.559 10.441L13.8882 11.7826ZM16.559 12.559L18.1118 11.7826L17.441 10.441L15.8882 11.2174L16.559 12.559ZM17.8882 11.7826L18.941 12.309L19.6118 10.9674L18.559 10.441L17.8882 11.7826ZM8.55902 12.559L10.1118 11.7826L9.44099 10.441L7.8882 11.2174L8.55902 12.559ZM5.05902 12.309L6.11181 11.7826L5.44099 10.441L4.3882 10.9674L5.05902 12.309ZM5.8882 11.7826L7.44099 12.559L8.11181 11.2174L6.55902 10.441L5.8882 11.7826ZM6.11181 11.7826C6.04143 11.8178 5.95858 11.8178 5.8882 11.7826L6.55902 10.441C6.20711 10.265 5.7929 10.265 5.44099 10.441L6.11181 11.7826ZM7.8882 11.2174C7.95859 11.1822 8.04143 11.1822 8.11181 11.2174L7.44099 12.559C7.79289 12.735 8.20711 12.735 8.55902 12.559L7.8882 11.2174ZM18.1118 11.7826C18.0414 11.8178 17.9586 11.8178 17.8882 11.7826L18.559 10.441C18.2071 10.265 17.7929 10.265 17.441 10.441L18.1118 11.7826ZM15.441 12.559C15.7929 12.735 16.2071 12.735 16.559 12.559L15.8882 11.2174C15.9586 11.1822 16.0414 11.1822 16.1118 11.2174L15.441 12.559ZM10.559 10.441C10.2071 10.265 9.7929 10.265 9.44099 10.441L10.1118 11.7826C10.0414 11.8178 9.95858 11.8178 9.8882 11.7826L10.559 10.441ZM3.29468 11.1166C3.1907 12.1417 4.25927 12.7089 5.05902 12.309L4.3882 10.9674C4.467 10.928 4.56814 10.9334 4.64904 10.9854C4.73584 11.0412 4.79873 11.1526 4.78702 11.268L3.29468 11.1166ZM14.1118 11.7826C14.0414 11.8178 13.9586 11.8178 13.8882 11.7826L14.559 10.441C14.2071 10.265 13.7929 10.265 13.441 10.441L14.1118 11.7826ZM19.213 11.268C19.2013 11.1527 19.2642 11.0412 19.351 10.9854C19.4319 10.9334 19.533 10.928 19.6118 10.9674L18.941 12.309C19.7407 12.7089 20.8093 12.1417 20.7053 11.1166L19.213 11.268ZM11.441 12.559C11.7929 12.735 12.2071 12.735 12.559 12.559L11.8882 11.2174C11.9586 11.1822 12.0414 11.1822 12.1118 11.2174L11.441 12.559ZM11.25 3L11.25 4L12.75 4L12.75 3L11.25 3Z" fill="#001A72"/>
</svg>
