<svg width="24" height="24" viewBox="0 0 24 24" fill="none" xmlns="http://www.w3.org/2000/svg">
<path d="M10.0576 6L9.30987 5.94157L10.0576 6ZM10.6111 3.5L11.086 4.08047V4.08047L10.6111 3.5ZM20.3889 3.5L20.8638 2.91953V2.91953L20.3889 3.5ZM20.6363 10.9735L19.9153 10.767L20.6363 10.9735ZM19.8055 11.5776L19.6942 10.8359H19.6942L19.8055 11.5776ZM16.8568 11.9623L16.8122 11.2136C16.6062 11.2259 16.4144 11.3225 16.2819 11.4807C16.1493 11.6389 16.0879 11.8447 16.1119 12.0496L16.8568 11.9623ZM16.8612 12L17.6062 11.9135L16.8612 12ZM3.13879 12L2.3938 11.9135L3.13879 12ZM3.77778 9.61111L3.31441 9.02137H3.31441L3.77778 9.61111ZM16.2222 9.61111L16.6856 9.02137L16.2222 9.61111ZM3.77778 19.3889L3.31441 19.9786H3.31441L3.77778 19.3889ZM10.0576 6.75H20.9424V5.25H10.0576V6.75ZM11.086 4.08047C11.0123 4.14082 10.9681 4.14409 11.0453 4.11842C11.1003 4.10013 11.1878 4.07671 11.3129 4.05069C11.5615 3.99898 11.9072 3.94746 12.3331 3.90202C13.1818 3.81144 14.3009 3.75 15.5 3.75V2.25C14.2547 2.25 13.0821 2.31356 12.1739 2.41048C11.7212 2.45879 11.3222 2.51664 11.0074 2.58212C10.8508 2.6147 10.702 2.65182 10.572 2.69506C10.4642 2.73091 10.2863 2.79668 10.1362 2.91953L11.086 4.08047ZM15.5 3.75C16.6991 3.75 17.8182 3.81144 18.6669 3.90202C19.0928 3.94746 19.4385 3.99898 19.6871 4.05069C19.8122 4.07671 19.8997 4.10013 19.9547 4.11842C20.0319 4.14409 19.9877 4.14082 19.914 4.08047L20.8638 2.91953C20.7137 2.79668 20.5358 2.73091 20.428 2.69506C20.298 2.65182 20.1492 2.6147 19.9926 2.58212C19.6778 2.51664 19.2788 2.45879 18.8261 2.41048C17.9179 2.31356 16.7453 2.25 15.5 2.25V3.75ZM20.25 7.5C20.25 8.91035 20.0925 10.1483 19.9153 10.767L21.3574 11.1799C21.5881 10.3741 21.75 8.98154 21.75 7.5H20.25ZM10.75 7.5C10.75 6.99492 10.7703 6.50688 10.8053 6.05843L9.30987 5.94157C9.27181 6.4286 9.25 6.95561 9.25 7.5H10.75ZM10.8053 6.05843C10.8548 5.42479 10.9329 4.88257 11.0205 4.48891C11.0646 4.29053 11.1074 4.14695 11.1432 4.05479C11.1935 3.92503 11.1929 3.993 11.086 4.08047L10.1362 2.91953C9.91658 3.09921 9.80329 3.36139 9.74478 3.5122C9.67167 3.70061 9.60949 3.92393 9.55627 4.16312C9.44913 4.64461 9.36311 5.26018 9.30987 5.94157L10.8053 6.05843ZM19.914 4.08047C19.8071 3.993 19.8065 3.92504 19.8568 4.0548C19.8926 4.14695 19.9354 4.29053 19.9795 4.48892C20.0671 4.88257 20.1452 5.42479 20.1947 6.05843L21.6901 5.94157C21.6369 5.26018 21.5509 4.64461 21.4437 4.16312C21.3905 3.92393 21.3283 3.7006 21.2552 3.5122C21.1967 3.36139 21.0834 3.09921 20.8638 2.91953L19.914 4.08047ZM20.1947 6.05843C20.2297 6.50688 20.25 6.99491 20.25 7.5H21.75C21.75 6.95562 21.7282 6.42861 21.6901 5.94157L20.1947 6.05843ZM9.25 7.5V9H10.75V7.5H9.25ZM19.6942 10.8359C18.7608 10.976 18.0432 11.1404 16.8122 11.2136L16.9013 12.711C18.2217 12.6324 19.0719 12.4461 19.9168 12.3193L19.6942 10.8359ZM16.1119 12.0496L16.1163 12.0873L17.6061 11.9127L17.6017 11.875L16.1119 12.0496ZM19.9153 10.767C19.9148 10.7686 19.9161 10.7646 19.9196 10.7599C19.9224 10.7563 19.921 10.7598 19.9084 10.7681C19.8788 10.7879 19.811 10.8184 19.6942 10.8359L19.9168 12.3193C20.4144 12.2447 21.1317 11.968 21.3574 11.1799L19.9153 10.767ZM4.24114 10.2009C4.17801 10.2505 4.1535 10.2447 4.25735 10.2116C4.33867 10.1856 4.45938 10.155 4.62348 10.1222C4.95005 10.057 5.39836 9.99304 5.94452 9.93706C7.03401 9.82541 8.4666 9.75 10 9.75V8.25C8.42229 8.25 6.93821 8.32737 5.79159 8.44488C5.21969 8.50349 4.72009 8.57326 4.32965 8.65125C4.13524 8.69008 3.95517 8.73345 3.80102 8.78267C3.66941 8.8247 3.47477 8.89538 3.31441 9.02137L4.24114 10.2009ZM10 9.75C11.5334 9.75 12.966 9.82541 14.0555 9.93706C14.6016 9.99304 15.0499 10.057 15.3765 10.1222C15.5406 10.155 15.6613 10.1856 15.7426 10.2116C15.8465 10.2447 15.822 10.2505 15.7589 10.2009L16.6856 9.02137C16.5252 8.89538 16.3306 8.8247 16.199 8.78267C16.0448 8.73345 15.8648 8.69008 15.6704 8.65125C15.2799 8.57326 14.7803 8.50349 14.2084 8.44488C13.0618 8.32737 11.5777 8.25 10 8.25V9.75ZM16.25 14.5C16.25 15.6862 16.1554 16.7906 16.0171 17.6237C15.9476 18.0421 15.8699 18.3751 15.7942 18.6089C15.7562 18.7264 15.7238 18.803 15.7011 18.8468C15.6712 18.9047 15.6822 18.8594 15.7589 18.7992L16.6856 19.9786C16.8594 19.842 16.9677 19.663 17.0334 19.536C17.1065 19.3947 17.1683 19.2349 17.2214 19.0707C17.328 18.7412 17.4204 18.3294 17.4968 17.8694C17.6502 16.9455 17.75 15.7583 17.75 14.5H16.25ZM15.7589 18.7992C15.822 18.7495 15.8465 18.7553 15.7426 18.7884C15.6613 18.8144 15.5406 18.845 15.3765 18.8778C15.0499 18.943 14.6016 19.007 14.0555 19.0629C12.966 19.1746 11.5334 19.25 10 19.25V20.75C11.5777 20.75 13.0618 20.6726 14.2084 20.5551C14.7803 20.4965 15.2799 20.4267 15.6704 20.3488C15.8648 20.3099 16.0448 20.2666 16.199 20.2173C16.3306 20.1753 16.5252 20.1046 16.6856 19.9786L15.7589 18.7992ZM10 19.25C8.4666 19.25 7.03401 19.1746 5.94452 19.0629C5.39836 19.007 4.95005 18.943 4.62348 18.8778C4.45938 18.845 4.33867 18.8144 4.25735 18.7884C4.1535 18.7553 4.17801 18.7495 4.24114 18.7992L3.31441 19.9786C3.47477 20.1046 3.66941 20.1753 3.80102 20.2173C3.95517 20.2666 4.13524 20.3099 4.32965 20.3488C4.72009 20.4267 5.21969 20.4965 5.79159 20.5551C6.93821 20.6726 8.42229 20.75 10 20.75V19.25ZM4.24114 18.7992C4.31778 18.8594 4.32881 18.9047 4.29885 18.8468C4.27624 18.803 4.24378 18.7264 4.20576 18.6089C4.1301 18.3751 4.05239 18.0421 3.98293 17.6237C3.84462 16.7906 3.75 15.6862 3.75 14.5H2.25C2.25 15.7583 2.34982 16.9455 2.50318 17.8694C2.57956 18.3294 2.67199 18.7412 2.77861 19.0707C2.83174 19.2349 2.89347 19.3947 2.96656 19.536C3.0323 19.663 3.14056 19.842 3.31441 19.9786L4.24114 18.7992ZM3.75 14.5C3.75 13.6278 3.80116 12.798 3.88379 12.0865L2.3938 11.9135C2.30431 12.6841 2.25 13.5717 2.25 14.5H3.75ZM3.88379 12.0865C3.955 11.4733 4.04792 10.9626 4.14614 10.5947C4.19557 10.4096 4.24185 10.2778 4.27952 10.1936C4.32863 10.084 4.32929 10.1316 4.24114 10.2009L3.31441 9.02137C3.10343 9.18715 2.98125 9.4227 2.91058 9.58045C2.82849 9.76374 2.75805 9.97873 2.6969 10.2078C2.57395 10.6683 2.47022 11.2555 2.3938 11.9135L3.88379 12.0865ZM15.7589 10.2009C15.6707 10.1316 15.6714 10.084 15.7205 10.1936C15.7582 10.2778 15.8044 10.4096 15.8539 10.5947C15.9521 10.9626 16.045 11.4733 16.1162 12.0865L17.6062 11.9135C17.5298 11.2555 17.426 10.6683 17.3031 10.2078C17.2419 9.97874 17.1715 9.76374 17.0894 9.58046C17.0188 9.4227 16.8966 9.18715 16.6856 9.02137L15.7589 10.2009ZM16.1162 12.0865C16.1988 12.798 16.25 13.6279 16.25 14.5H17.75C17.75 13.5717 17.6957 12.6841 17.6062 11.9135L16.1162 12.0865ZM3.13879 12.75H16.8612V11.25H3.13879V12.75Z" fill="#001A72"/>
</svg>
