<svg width="16" height="16" viewBox="0 0 16 16" fill="none" xmlns="http://www.w3.org/2000/svg">
<path fill-rule="evenodd" clip-rule="evenodd" d="M7.36973 1.04025C9.862 0.723568 12.2023 2.30542 12.8375 4.73609L10.9025 5.2418C10.5213 3.7834 9.11719 2.83429 7.62183 3.0243C6.12647 3.2143 5.0043 4.48442 5 5.98895V6.98895H14C14.5523 6.98895 15 7.43666 15 7.98895V14.9889C15 15.5412 14.5523 15.9889 14 15.9889H2C1.44772 15.9889 1 15.5412 1 14.9889V7.98895C1 7.43666 1.44772 6.98895 2 6.98895H3L3 5.98609C3.00718 3.47379 4.87746 1.35693 7.36973 1.04025ZM3 8.98895V13.9889H13V8.98895H3Z" fill="#9D9D9D"/>
</svg>
