<svg width="48" height="48" viewBox="0 0 48 48" fill="none" xmlns="http://www.w3.org/2000/svg">
<path d="M15.8398 26.9394C18.6598 26.9394 20.9198 29.2214 20.9198 32.0614V38.8794C20.9198 41.6994 18.6598 43.9994 15.8398 43.9994H9.07976C6.27976 43.9994 3.99976 41.6994 3.99976 38.8794V32.0614C3.99976 29.2214 6.27976 26.9394 9.07976 26.9394H15.8398ZM38.92 26.9394C41.72 26.9394 44 29.2214 44 32.0614V38.8794C44 41.6994 41.72 43.9994 38.92 43.9994H32.16C29.34 43.9994 27.08 41.6994 27.08 38.8794V32.0614C27.08 29.2214 29.34 26.9394 32.16 26.9394H38.92ZM15.8398 4C18.6598 4 20.9198 6.3 20.9198 9.122V15.94C20.9198 18.78 18.6598 21.06 15.8398 21.06H9.07976C6.27976 21.06 3.99976 18.78 3.99976 15.94V9.122C3.99976 6.3 6.27976 4 9.07976 4H15.8398ZM38.92 4C41.72 4 44 6.3 44 9.122V15.94C44 18.78 41.72 21.06 38.92 21.06H32.16C29.34 21.06 27.08 18.78 27.08 15.94V9.122C27.08 6.3 29.34 4 32.16 4H38.92Z" fill="#F57680"/>
</svg>
