<svg width="48" height="48" viewBox="0 0 48 48" fill="none" xmlns="http://www.w3.org/2000/svg">
<path d="M25.4342 4.0002C26.9467 4.0002 28.3161 4.8402 29.0724 6.0802C29.4403 6.6802 29.6856 7.4202 29.6242 8.2002C29.5834 8.8002 29.7673 9.4002 30.0943 9.9602C31.1367 11.6602 33.4464 12.3002 35.245 11.3402C37.2685 10.1802 39.8234 10.8802 40.9884 12.8602L42.3578 15.2202C43.5433 17.2002 42.8892 19.7402 40.8453 20.8802C39.108 21.9002 38.4948 24.1602 39.5372 25.8802C39.8642 26.4202 40.2322 26.8802 40.8044 27.1602C41.5198 27.5402 42.0717 28.1402 42.46 28.7402C43.2163 29.9802 43.1549 31.5002 42.4191 32.8402L40.9884 35.2402C40.2322 36.5202 38.8218 37.3202 37.3707 37.3202C36.6553 37.3202 35.8582 37.1202 35.2041 36.7202C34.6727 36.3802 34.0595 36.2602 33.4055 36.2602C31.382 36.2602 29.6856 37.9202 29.6242 39.9002C29.6242 42.2002 27.7438 44.0002 25.3933 44.0002H22.6136C20.2427 44.0002 18.3623 42.2002 18.3623 39.9002C18.3214 37.9202 16.6249 36.2602 14.6015 36.2602C13.927 36.2602 13.3138 36.3802 12.8028 36.7202C12.1488 37.1202 11.3312 37.3202 10.6363 37.3202C9.16465 37.3202 7.75435 36.5202 6.9981 35.2402L5.5878 32.8402C4.83155 31.5402 4.79067 29.9802 5.54692 28.7402C5.87394 28.1402 6.48712 27.5402 7.18205 27.1602C7.75435 26.8802 8.12225 26.4202 8.46972 25.8802C9.49167 24.1602 8.8785 21.9002 7.14117 20.8802C5.1177 19.7402 4.46364 17.2002 5.62867 15.2202L6.9981 12.8602C8.18357 10.8802 10.718 10.1802 12.7619 11.3402C14.5401 12.3002 16.8498 11.6602 17.8922 9.9602C18.2192 9.4002 18.4031 8.8002 18.3623 8.2002C18.3214 7.4202 18.5462 6.6802 18.9346 6.0802C19.6908 4.8402 21.0602 4.0402 22.5523 4.0002H25.4342ZM24.0239 18.3602C20.815 18.3602 18.2192 20.8802 18.2192 24.0202C18.2192 27.1602 20.815 29.6602 24.0239 29.6602C27.2329 29.6602 29.7673 27.1602 29.7673 24.0202C29.7673 20.8802 27.2329 18.3602 24.0239 18.3602Z" fill="#F57680"/>
</svg>
