<svg width="30" height="30" viewBox="0 0 30 30" fill="none" xmlns="http://www.w3.org/2000/svg">
<path d="M6.14056 6.675C6.14056 10.0875 8.92496 12.8719 12.3468 12.8719C15.7687 12.8719 18.5531 10.0875 18.5531 6.675C18.5531 3.25311 15.7687 0.46875 12.3468 0.46875C8.92496 0.46875 6.14056 3.2531 6.14056 6.675ZM1.56555 24.375V26.25C1.56555 28.0594 3.03744 29.5312 4.8468 29.5312H19.8468C21.6562 29.5312 23.1281 28.0594 23.1281 26.25V24.375C23.1281 18.4312 18.2906 13.5938 12.3468 13.5938C6.40309 13.5938 1.56555 18.4312 1.56555 24.375ZM25.5123 14.3893V12.8741H27.0275C27.8038 12.8741 28.4337 12.2443 28.4337 11.4679C28.4337 10.6915 27.8038 10.0616 27.0275 10.0616H25.5123V8.54645C25.5123 7.77007 24.8824 7.1402 24.106 7.1402C23.3296 7.1402 22.6998 7.77008 22.6998 8.54645V10.0616H21.1855C20.4091 10.0616 19.7792 10.6915 19.7792 11.4679C19.7792 12.2443 20.4091 12.8741 21.1855 12.8741H22.6998V14.3893C22.6998 15.1657 23.3296 15.7956 24.106 15.7956C24.8824 15.7956 25.5123 15.1657 25.5123 14.3893Z" fill="#82868C"/>
</svg>
