<svg width="30" height="30" viewBox="0 0 30 30" fill="none" xmlns="http://www.w3.org/2000/svg">
<path d="M5 13.75C5 14.4917 5.21994 15.2167 5.63199 15.8334C6.04405 16.4501 6.62972 16.9307 7.31494 17.2145C8.00016 17.4984 8.75416 17.5726 9.48159 17.4279C10.209 17.2832 10.8772 16.9261 11.4017 16.4016C11.9261 15.8772 12.2833 15.209 12.4279 14.4816C12.5726 13.7542 12.4984 13.0002 12.2146 12.3149C11.9307 11.6297 11.4501 11.044 10.8334 10.632C10.2167 10.2199 9.49168 10 8.75 10C7.75544 10 6.80161 10.3951 6.09835 11.0983C5.39509 11.8016 5 12.7554 5 13.75ZM10 13.75C10 13.9972 9.92669 14.2389 9.78934 14.4445C9.65199 14.65 9.45676 14.8102 9.22836 14.9048C8.99995 14.9995 8.74862 15.0242 8.50614 14.976C8.26366 14.9277 8.04093 14.8087 7.86612 14.6339C7.6913 14.4591 7.57225 14.2363 7.52402 13.9939C7.47579 13.7514 7.50054 13.5001 7.59515 13.2716C7.68976 13.0432 7.84998 12.848 8.05554 12.7107C8.2611 12.5733 8.50278 12.5 8.75 12.5C9.08152 12.5 9.39946 12.6317 9.63388 12.8661C9.86831 13.1005 10 13.4185 10 13.75ZM18.75 16.25C17.4095 16.2494 16.0868 16.5568 14.8839 17.1485C13.681 17.7401 12.6302 18.6003 11.8125 19.6625C11.372 19.4214 10.9012 19.2406 10.4125 19.125H10.2125C9.25199 18.8873 8.24801 18.8873 7.2875 19.125H7.0875C5.77671 19.4515 4.61291 20.2074 3.78153 21.2721C2.95015 22.3368 2.49901 23.6491 2.5 25V26.25H27.5V25C27.5 22.6794 26.5781 20.4538 24.9372 18.8128C23.2962 17.1719 21.0706 16.25 18.75 16.25ZM10.0875 23.75H5.225C5.42813 23.2057 5.76266 22.72 6.19882 22.3362C6.63499 21.9523 7.15926 21.6823 7.725 21.55H7.925C8.4918 21.4127 9.0832 21.4127 9.65 21.55H9.85C10.1213 21.6126 10.3823 21.7136 10.625 21.85C10.3741 22.4608 10.1938 23.0983 10.0875 23.75Z" fill="#82868C"/>
<path d="M18.75 15C21.5114 15 23.75 12.7614 23.75 10C23.75 7.23858 21.5114 5 18.75 5C15.9886 5 13.75 7.23858 13.75 10C13.75 12.7614 15.9886 15 18.75 15Z" fill="#82868C"/>
</svg>
