<svg width="30" height="30" viewBox="0 0 30 30" fill="none" xmlns="http://www.w3.org/2000/svg">
<path d="M10.0483 4.58585C9.09509 4.58585 6.22128 5.75144 5.70583 5.98445C5.19039 6.21746 4.61794 6.94473 3.96834 8.14508C3.31874 9.34543 2.79669 10.7481 1.94939 12.8121C1.10208 14.876 0.904486 18.8559 0.932729 20.0703C0.960973 21.2848 1.10011 22.2328 2.34444 22.9512C3.58877 23.6696 4.6889 24.4203 5.84688 24.8722C7.00486 25.3241 7.79541 25.6486 8.33204 25.1967C8.86866 24.7448 9.222 23.9541 9.222 23.9541C9.222 23.9541 9.73043 23.2481 8.77016 22.8245C7.80988 22.4008 7.32981 22.1039 7.37218 21.6662C7.41454 21.2284 7.48472 20.9887 7.72479 21.0452C7.96486 21.1017 8.53011 22.1182 10.7049 22.5842C12.8796 23.0502 14.9999 22.9799 14.9999 22.9799C14.9999 22.9799 17.1202 23.0502 19.2949 22.5842C21.4697 22.1182 22.035 21.1017 22.275 21.0452C22.5151 20.9887 22.5853 21.2284 22.6276 21.6662C22.67 22.1039 22.1899 22.4008 21.2297 22.8245C20.2694 23.2481 20.7778 23.9541 20.7778 23.9541C20.7778 23.9541 21.1311 24.7448 21.6678 25.1967C22.2044 25.6486 22.9949 25.3241 24.1529 24.8722C25.3109 24.4203 26.411 23.6696 27.6554 22.9512C28.8997 22.2328 29.0388 21.2848 29.0671 20.0703C29.0953 18.8559 28.8977 14.876 28.0504 12.8121C27.2031 10.7481 26.6811 9.34543 26.0315 8.14508C25.3819 6.94473 24.8094 6.21746 24.294 5.98445C23.7785 5.75144 20.9047 4.58585 19.9515 4.58585C18.9983 4.58585 18.7164 5.24989 18.7164 5.24989L18.3844 5.98445C18.3844 5.98445 16.1516 5.56026 15.0146 5.55965C13.8775 5.55904 11.6154 5.98445 11.6154 5.98445L11.2834 5.24989C11.2834 5.24989 11.0015 4.58585 10.0483 4.58585ZM10.1519 13.3981C10.1636 13.398 10.1752 13.398 10.1869 13.3981C11.5766 13.3981 12.7032 14.6141 12.7032 16.1142C12.7032 17.6142 11.5766 18.8303 10.1869 18.8303C8.7971 18.8303 7.67049 17.6142 7.67049 16.1142C7.67036 14.6288 8.77582 13.4187 10.1519 13.3981H10.1519ZM19.8129 13.3981C19.8246 13.398 19.8362 13.398 19.8479 13.3981C21.224 13.4187 22.3294 14.6288 22.3293 16.1142C22.3293 17.6142 21.2027 18.8303 19.8129 18.8303C18.4232 18.8303 17.2966 17.6142 17.2966 16.1142C17.2966 14.6141 18.4232 13.3981 19.8129 13.3981H19.8129Z" fill="#82868C"/>
</svg>
