<svg width="30" height="30" viewBox="0 0 30 30" fill="none" xmlns="http://www.w3.org/2000/svg">
<path d="M28 15C28 17.3585 27.4188 19.5336 26.2565 21.5254C25.0942 23.5171 23.5171 25.0942 21.5254 26.2565C19.5336 27.4188 17.3585 28 15 28C12.6415 28 10.4664 27.4188 8.47461 26.2565C6.48286 25.0942 4.90582 23.5171 3.74349 21.5254C2.58116 19.5336 2 17.3585 2 15C2 12.6415 2.58116 10.4664 3.74349 8.47461C4.90582 6.48286 6.48286 4.90582 8.47461 3.74349C10.4664 2.58116 12.6415 2 15 2C17.3585 2 19.5336 2.58116 21.5254 3.74349C23.5171 4.90582 25.0942 6.48286 26.2565 8.47461C27.4188 10.4664 28 12.6415 28 15Z" fill="#82868C"/>
</svg>
