<svg width="30" height="30" viewBox="0 0 30 30" fill="none" xmlns="http://www.w3.org/2000/svg">
<path d="M11.8688 4.875H6.22502C5.43284 4.875 4.79065 5.51719 4.79065 6.30938V11.9531C4.79065 12.7453 5.43284 13.3875 6.22502 13.3875H11.8688C12.661 13.3875 13.3031 12.7453 13.3031 11.9531V6.30938C13.3031 5.51719 12.661 4.875 11.8688 4.875Z" fill="#82868C"/>
<path d="M23.775 4.875H18.1313C17.3391 4.875 16.6969 5.51719 16.6969 6.30938V11.9531C16.6969 12.7453 17.3391 13.3875 18.1313 13.3875H23.775C24.5672 13.3875 25.2094 12.7453 25.2094 11.9531V6.30938C25.2094 5.51719 24.5672 4.875 23.775 4.875Z" fill="#82868C"/>
<path d="M11.8688 16.6125H6.22502C5.43284 16.6125 4.79065 17.2547 4.79065 18.0469V23.6906C4.79065 24.4828 5.43284 25.125 6.22502 25.125H11.8688C12.661 25.125 13.3031 24.4828 13.3031 23.6906V18.0469C13.3031 17.2547 12.661 16.6125 11.8688 16.6125Z" fill="#82868C"/>
<path d="M23.775 16.6125H18.1313C17.3391 16.6125 16.6969 17.2547 16.6969 18.0469V23.6906C16.6969 24.4828 17.3391 25.125 18.1313 25.125H23.775C24.5672 25.125 25.2094 24.4828 25.2094 23.6906V18.0469C25.2094 17.2547 24.5672 16.6125 23.775 16.6125Z" fill="#82868C"/>
</svg>
