<svg width="30" height="30" viewBox="0 0 30 30" fill="none" xmlns="http://www.w3.org/2000/svg">
<rect x="2" y="2" width="26" height="26" rx="2" fill="#82868C"/>
<path d="M12.0007 15C12.0007 13.3432 13.3435 11.9998 15.0004 11.9998C16.6572 11.9998 18.0007 13.3432 18.0007 15C18.0007 16.6568 16.6572 18.0002 15.0004 18.0002C13.3435 18.0002 12.0007 16.6568 12.0007 15ZM10.3788 15C10.3788 17.5524 12.4478 19.6214 15.0004 19.6214C17.5529 19.6214 19.622 17.5524 19.622 15C19.622 12.4476 17.5529 10.3786 15.0004 10.3786C12.4478 10.3786 10.3788 12.4476 10.3788 15ZM18.7248 10.1954C18.7248 10.7915 19.2083 11.2757 19.8052 11.2757C20.4013 11.2757 20.8855 10.7915 20.8855 10.1954C20.8855 9.59927 20.402 9.11583 19.8052 9.11583C19.2083 9.11583 18.7248 9.59927 18.7248 10.1954ZM11.3639 22.3258C10.4864 22.2858 10.0095 22.1397 9.69248 22.0161C9.27226 21.8525 8.97274 21.6577 8.65722 21.3429C8.34242 21.0281 8.14686 20.7286 7.98401 20.3084C7.86041 19.9914 7.71429 19.5145 7.6743 18.6371C7.63068 17.6884 7.62196 17.4034 7.62196 15C7.62196 12.5966 7.63141 12.3124 7.6743 11.3629C7.71429 10.4855 7.86114 10.0093 7.98401 9.6916C8.14758 9.27141 8.34242 8.97189 8.65722 8.65638C8.97201 8.3416 9.27154 8.14604 9.69248 7.9832C10.0095 7.85961 10.4864 7.71349 11.3639 7.67351C12.3126 7.62989 12.5976 7.62116 15.0004 7.62116C17.4039 7.62116 17.6881 7.63061 18.6376 7.67351C19.5151 7.71349 19.9913 7.86034 20.309 7.9832C20.7292 8.14604 21.0287 8.3416 21.3442 8.65638C21.659 8.97116 21.8539 9.27141 22.0174 9.6916C22.141 10.0086 22.2872 10.4855 22.3272 11.3629C22.3708 12.3124 22.3795 12.5966 22.3795 15C22.3795 17.4027 22.3708 17.6876 22.3272 18.6371C22.2872 19.5145 22.1403 19.9914 22.0174 20.3084C21.8539 20.7286 21.659 21.0281 21.3442 21.3429C21.0294 21.6577 20.7292 21.8525 20.309 22.0161C19.992 22.1397 19.5151 22.2858 18.6376 22.3258C17.6888 22.3694 17.4039 22.3781 15.0004 22.3781C12.5976 22.3781 12.3126 22.3694 11.3639 22.3258ZM11.2897 6.05452C10.3315 6.09814 9.67721 6.25008 9.10505 6.47254C8.51327 6.70226 8.01163 7.0105 7.51072 7.51066C7.01054 8.01082 6.70229 8.51244 6.47256 9.10493C6.25009 9.67706 6.09815 10.3313 6.05453 11.2895C6.01018 12.2491 6 12.5559 6 15C6 17.4441 6.01018 17.7509 6.05453 18.7105C6.09815 19.6687 6.25009 20.3229 6.47256 20.8951C6.70229 21.4868 7.00981 21.9892 7.51072 22.4893C8.01091 22.9895 8.51254 23.297 9.10505 23.5275C9.67794 23.7499 10.3315 23.9019 11.2897 23.9455C12.2501 23.9891 12.5562 24 15.0004 24C17.4453 24 17.7514 23.9898 18.711 23.9455C19.6692 23.9019 20.3235 23.7499 20.8957 23.5275C21.4875 23.297 21.9891 22.9895 22.49 22.4893C22.9902 21.9892 23.2977 21.4868 23.5282 20.8951C23.7506 20.3229 23.9033 19.6687 23.9462 18.7105C23.9898 17.7502 24 17.4441 24 15C24 12.5559 23.9898 12.2491 23.9462 11.2895C23.9026 10.3313 23.7506 9.67706 23.5282 9.10493C23.2977 8.51317 22.9902 8.01155 22.49 7.51066C21.9898 7.0105 21.4875 6.70226 20.8964 6.47254C20.3235 6.25008 19.6692 6.09742 18.7117 6.05452C17.7521 6.0109 17.4453 6 15.0011 6C12.5562 6 12.2501 6.01018 11.2897 6.05452Z" fill="#BABFC5"/>
</svg>
