<svg width="30" height="30" viewBox="0 0 30 30" fill="none" xmlns="http://www.w3.org/2000/svg">
<path d="M2.30542 27.2564V17.4598C2.30542 17.2312 2.47282 17.0396 2.69402 17.018L20.7997 15.1582C20.985 15.1396 20.985 14.8616 20.7997 14.843L2.69402 12.9832C2.47282 12.9616 2.30542 12.77 2.30542 12.5414V2.74484C2.30542 2.41736 2.63722 2.2011 2.9212 2.3463L27.4686 14.6021C27.7914 14.7627 27.7914 15.2416 27.4686 15.4022L2.92419 27.658C2.63722 27.8001 2.30542 27.5838 2.30542 27.2564Z" fill="#82868C"/>
<path d="M2.6044 27.2564C2.6044 26.6014 2.6044 25.9433 2.6044 25.2884C2.6044 23.9383 2.6044 22.5882 2.6044 21.2381C2.6044 20.1414 2.6044 19.0447 2.6044 17.9479C2.6044 17.8212 2.6044 17.6946 2.6044 17.5679C2.6044 17.5061 2.59245 17.4258 2.62832 17.3764C2.64625 17.3517 2.66718 17.3455 2.69109 17.3269C2.69707 17.3208 2.79272 17.3084 2.69408 17.3238C2.69707 17.3238 2.70006 17.3238 2.70305 17.3238C2.71799 17.3208 2.72995 17.3208 2.7449 17.3208C2.81066 17.3146 2.87343 17.3084 2.9392 17.3022C3.59682 17.2343 4.25445 17.1663 4.91208 17.0983C6.03303 16.984 7.15398 16.8666 8.27494 16.7523C9.60514 16.6164 10.9383 16.4804 12.2685 16.3414C13.5688 16.2086 14.8691 16.0757 16.1694 15.9398C17.1947 15.8347 18.2171 15.7297 19.2424 15.6247C19.7445 15.5721 20.2497 15.5227 20.7519 15.4702C20.8804 15.4578 21.006 15.4331 21.1046 15.3343C21.2959 15.1396 21.278 14.7998 21.0658 14.6299C20.9821 14.565 20.8954 14.5434 20.7938 14.531C20.6652 14.5156 20.5367 14.5063 20.4111 14.4908C19.6818 14.4167 18.9524 14.3395 18.223 14.2653C17.0602 14.1448 15.8974 14.0274 14.7376 13.9069C13.3955 13.7679 12.0563 13.632 10.7141 13.493C9.43475 13.3632 8.15836 13.2304 6.87898 13.1006C5.90449 13.0017 4.93001 12.8998 3.95852 12.8009C3.54302 12.7577 3.12154 12.733 2.70903 12.6712C2.70604 12.6712 2.70604 12.6712 2.70305 12.6712C2.74789 12.6773 2.7449 12.6928 2.70006 12.6681C2.66419 12.6465 2.6343 12.6248 2.61935 12.5816C2.61038 12.5569 2.61636 12.5383 2.61337 12.5136C2.61038 12.4302 2.61337 12.3437 2.61337 12.2603C2.61337 11.8587 2.61337 11.457 2.61337 11.0554C2.61337 9.75166 2.61337 8.45101 2.61337 7.14728C2.61337 5.95476 2.61337 4.75915 2.61337 3.56663C2.61337 3.30403 2.61038 3.03834 2.61337 2.77574C2.61636 2.61818 2.69408 2.57184 2.83158 2.63362C3.17833 2.79118 3.5191 2.97655 3.85987 3.14647C4.57131 3.50175 5.27975 3.85704 5.99118 4.21232C6.97463 4.70354 7.95808 5.19476 8.94153 5.68598C10.0924 6.26061 11.2432 6.83524 12.3941 7.40988C13.6167 8.02158 14.8392 8.6302 16.0618 9.24191C17.2605 9.84126 18.4622 10.4406 19.6608 11.04C20.731 11.5744 21.7981 12.1089 22.8683 12.6403C23.7142 13.0635 24.5572 13.4837 25.4031 13.9069C25.9232 14.1665 26.4464 14.4291 26.9665 14.6886C27.0741 14.7442 27.1847 14.7967 27.2923 14.8523C27.3013 14.8585 27.3102 14.8616 27.3192 14.8647C27.3222 14.8647 27.3222 14.8678 27.3252 14.8678C27.367 14.8894 27.3939 14.9172 27.3969 14.9203C27.4507 15.0037 27.4358 15.0747 27.3132 15.1396C27.0293 15.291 26.7393 15.4269 26.4523 15.5691C25.7857 15.9027 25.1162 16.2364 24.4496 16.57C23.499 17.0458 22.5484 17.5185 21.5979 17.9943C20.459 18.5627 19.3231 19.1312 18.1842 19.6996C16.9646 20.3082 15.748 20.9168 14.5284 21.5255C13.3237 22.1279 12.1191 22.7273 10.9144 23.3297C9.81737 23.8765 8.72332 24.4233 7.62628 24.9702C6.74745 25.4089 5.86563 25.8476 4.98681 26.2894C4.41587 26.5736 3.84792 26.8578 3.27698 27.142C3.14246 27.21 3.00795 27.2749 2.87343 27.3429C2.84653 27.3552 2.81963 27.3738 2.78974 27.3861C2.69707 27.417 2.61038 27.3645 2.6044 27.2564C2.58647 26.8609 1.98863 26.8578 2.00656 27.2564C2.03048 27.8279 2.57451 28.1585 3.07371 27.9237C3.09165 27.9144 3.10958 27.9051 3.12752 27.899C3.25007 27.8372 3.37562 27.7754 3.49818 27.7136C4.05118 27.4386 4.60419 27.1606 5.1542 26.8856C6.02705 26.45 6.89691 26.0144 7.76976 25.5788C8.86082 25.0351 9.95189 24.4882 11.0429 23.9445C12.2566 23.339 13.4732 22.7303 14.6868 22.1248C15.9184 21.51 17.1529 20.8921 18.3845 20.2773C19.5293 19.7058 20.6742 19.1342 21.8191 18.5627C22.7816 18.0838 23.7411 17.6019 24.7036 17.123C25.3822 16.7832 26.0607 16.4464 26.7393 16.1066C27.0293 15.9614 27.3222 15.8255 27.6062 15.6741C28.1293 15.396 28.1323 14.6113 27.6092 14.3302C27.5255 14.2839 27.4388 14.2437 27.3521 14.2004C26.8619 13.9564 26.3716 13.7123 25.8814 13.4652C25.0564 13.0512 24.2284 12.6403 23.4033 12.2263C22.3362 11.6949 21.269 11.1604 20.2019 10.6291C19.0032 10.0297 17.8045 9.43345 16.6059 8.8341C15.3683 8.21622 14.1308 7.59833 12.8963 6.98045C11.7275 6.39655 10.5557 5.81264 9.38692 5.22874C8.38853 4.73134 7.39312 4.23395 6.39472 3.73346C5.66536 3.36891 4.93898 3.00436 4.20961 2.64289C3.85091 2.46371 3.48921 2.28452 3.13051 2.10533C3.10958 2.09606 3.09165 2.08371 3.07072 2.07444C2.6343 1.86745 2.09624 2.10533 2.01852 2.62436C1.98564 2.83444 2.00656 3.05996 2.00656 3.27314C2.00656 4.39151 2.00656 5.51297 2.00656 6.63134C2.00656 7.97833 2.00656 9.32841 2.00656 10.6754C2.00656 11.1388 2.00656 11.6022 2.00656 12.0656C2.00656 12.3066 1.97368 12.597 2.06336 12.8226C2.17695 13.113 2.42505 13.2613 2.715 13.2952C2.76582 13.3014 2.81963 13.3045 2.87044 13.3107C3.10659 13.3354 3.34274 13.3601 3.57889 13.3848C4.47266 13.4775 5.36942 13.5671 6.2632 13.6598C7.51568 13.7895 8.76517 13.9162 10.0176 14.046C11.3807 14.185 12.7408 14.3271 14.1039 14.4661C15.3205 14.5897 16.5371 14.7164 17.7507 14.8399C18.5668 14.9234 19.3799 15.0068 20.1959 15.0902C20.3783 15.1087 20.5576 15.1273 20.74 15.1458C20.7579 15.1489 20.7728 15.1489 20.7908 15.152C20.7938 15.152 20.7967 15.1551 20.7997 15.152C20.7041 15.1767 20.6024 15.0222 20.6592 14.9326C20.7101 14.8492 20.8804 14.843 20.731 14.8585C20.1959 14.9141 19.6608 14.9697 19.1258 15.0222C18.0706 15.1304 17.0124 15.2385 15.9572 15.3466C14.639 15.4825 13.3207 15.6185 12.0025 15.7513C10.6633 15.8873 9.32714 16.0263 7.98797 16.1622C6.88794 16.2765 5.78493 16.3877 4.6849 16.5021C4.0751 16.5638 3.4653 16.6287 2.8555 16.6905C2.80767 16.6967 2.75984 16.6998 2.715 16.706C2.39217 16.743 2.10222 16.9469 2.03048 17.293C1.98564 17.5092 2.01254 17.7533 2.01254 17.9726C2.01254 19.091 2.01254 20.2125 2.01254 21.3308C2.01254 22.684 2.01254 24.0372 2.01254 25.3903C2.01254 26.0113 2.01254 26.6354 2.01254 27.2564C2.00656 27.6549 2.6044 27.6549 2.6044 27.2564Z" fill="#82868C"/>
</svg>
