<svg width="30" height="30" viewBox="0 0 30 30" fill="none" xmlns="http://www.w3.org/2000/svg">
<path d="M22.5176 18.1614C22.1054 18.1118 21.7963 17.8146 21.6932 17.4678C21.178 15.9816 19.6323 14.7431 17.7775 14.2477C17.1593 14.0991 16.541 14 15.9227 14C15.9227 14 15.9227 14 15.8712 14C13.6042 14 11.5948 15.0899 10.6674 16.7742C10.5644 16.9724 10.4614 17.2201 10.3583 17.4183C10.2553 17.765 9.89461 18.0623 9.53396 18.1118C6.80328 18.6072 5 20.2916 5 22.4713C5 24.7997 7.16393 26.6822 10.1522 26.9299H10.2037C11.0796 26.9795 20.9204 27.029 21.7963 26.9795H21.8478C24.8361 26.7318 27 24.8988 27 22.5704C27 20.3907 25.2482 18.7063 22.5176 18.1614Z" fill="#82868C"/>
<path d="M8.37716 16.2067C9.58563 13.4564 12.6331 11.6581 15.8907 11.6581C16.994 11.6581 18.0974 11.8697 19.1483 12.2399C19.1483 12.187 19.1483 12.187 19.1483 12.1341C18.7805 10.6003 17.8347 9.33096 16.5212 8.53761C15.2076 7.74426 13.6314 7.47981 12.1602 7.90293C9.06021 8.69628 7.1687 11.8697 7.95683 14.9373C8.00937 15.4133 8.167 15.8364 8.37716 16.2067ZM10.4263 5.68156C10.5314 6.21046 11.0043 6.5278 11.5297 6.5278C11.6348 6.5278 11.6873 6.5278 11.7924 6.47491C12.3703 6.31624 12.7381 5.73445 12.6331 5.09977L12.3178 3.77752C12.1076 3.24862 11.4771 2.87839 10.8992 3.03706C10.3212 3.19573 9.95342 3.77752 10.0585 4.4122L10.4263 5.68156ZM21.5652 12.663C21.6703 12.663 21.7228 12.663 21.8279 12.6101L23.1414 12.2928C23.7194 12.1341 24.0872 11.5523 23.9821 10.9177C23.8245 10.3359 23.2465 9.96564 22.616 10.0714L21.3025 10.3888C20.7245 10.5474 20.3567 11.1292 20.4618 11.7639C20.6194 12.3457 21.0923 12.663 21.5652 12.663ZM6.5382 15.3075C6.38057 14.7257 5.80261 14.3555 5.17211 14.4613L3.85856 14.7786C3.2806 14.9373 2.91281 15.5191 3.01789 16.1538C3.12298 16.6827 3.59585 17 4.12127 17C4.22636 17 4.2789 17 4.38398 16.9471L5.69753 16.6298C6.27549 16.524 6.64328 15.9422 6.5382 15.3075ZM4.64669 9.54252L5.80261 10.2301C5.96024 10.3359 6.17041 10.3888 6.38057 10.3888C6.74837 10.3888 7.11616 10.1772 7.32633 9.85986C7.64158 9.33096 7.48395 8.64339 6.95853 8.32605L5.80261 7.58559C5.27719 7.26825 4.59415 7.42692 4.2789 7.95582C3.96365 8.48472 4.12127 9.17229 4.64669 9.54252ZM17.2042 7.37403C17.3618 7.47981 17.572 7.5327 17.7822 7.5327C18.15 7.5327 18.5177 7.32114 18.7279 7.00381L19.411 5.84023C19.7262 5.31133 19.5686 4.62376 19.0432 4.30642C18.5177 3.98908 17.8347 4.14775 17.5195 4.67665L16.8364 5.84023C16.5212 6.31624 16.6788 7.0038 17.2042 7.37403Z" fill="#82868C"/>
</svg>
