<svg width="30" height="30" viewBox="0 0 30 30" fill="none" xmlns="http://www.w3.org/2000/svg">
<path d="M16.2 3.89999C13.5851 3.89999 11.3687 5.57856 10.5469 7.91249C9.69639 7.27716 8.64329 6.89999 7.50002 6.89999C4.68337 6.89999 2.40002 9.18335 2.40002 12C2.40002 14.8167 4.68337 17.1 7.50002 17.1C9.5072 17.1 22.0099 17.0906 23.7 17.0906C25.8539 17.0906 27.6 15.3445 27.6 13.1906C27.6 11.0367 25.8539 9.29062 23.7 9.29062C23.1658 9.29062 22.6543 9.39622 22.1907 9.59062C22.03 6.42034 19.4102 3.89999 16.2 3.89999ZM8.9344 18.8906C8.8279 18.9025 8.72651 18.9426 8.64078 19.0069C8.55505 19.0712 8.48811 19.1573 8.4469 19.2562L7.5469 21.3562C7.51551 21.4289 7.49873 21.507 7.49752 21.5861C7.49631 21.6652 7.5107 21.7438 7.53986 21.8174C7.56903 21.8909 7.61239 21.958 7.66749 22.0148C7.72258 22.0716 7.78832 22.117 7.86096 22.1484C7.9336 22.1798 8.01171 22.1966 8.09083 22.1978C8.16995 22.199 8.24854 22.1846 8.3221 22.1555C8.39566 22.1263 8.46276 22.0829 8.51956 22.0278C8.57636 21.9727 8.62176 21.907 8.65315 21.8344L9.55315 19.7344C9.59719 19.6374 9.61461 19.5304 9.60363 19.4244C9.59265 19.3185 9.55366 19.2174 9.49066 19.1314C9.42766 19.0455 9.34293 18.978 9.24517 18.9356C9.14741 18.8933 9.04015 18.8778 8.9344 18.8906ZM13.4344 18.8906C13.3279 18.9025 13.2265 18.9426 13.1408 19.0069C13.0551 19.0712 12.9881 19.1573 12.9469 19.2562L12.0469 21.3562C12.0155 21.4289 11.9987 21.507 11.9975 21.5861C11.9963 21.6652 12.0107 21.7438 12.0399 21.8174C12.069 21.8909 12.1124 21.958 12.1675 22.0148C12.2226 22.0716 12.2883 22.117 12.361 22.1484C12.4336 22.1798 12.5117 22.1966 12.5908 22.1978C12.67 22.199 12.7485 22.1846 12.8221 22.1555C12.8957 22.1263 12.9628 22.0829 13.0196 22.0278C13.0764 21.9727 13.1218 21.907 13.1531 21.8344L14.0532 19.7344C14.0972 19.6374 14.1146 19.5304 14.1036 19.4244C14.0926 19.3185 14.0537 19.2174 13.9907 19.1314C13.9277 19.0455 13.8429 18.978 13.7452 18.9356C13.6474 18.8933 13.5401 18.8778 13.4344 18.8906ZM17.9344 18.8906C17.8279 18.9025 17.7265 18.9426 17.6408 19.0069C17.5551 19.0712 17.4881 19.1573 17.4469 19.2562L16.5469 21.3562C16.5155 21.4289 16.4987 21.507 16.4975 21.5861C16.4963 21.6652 16.5107 21.7438 16.5399 21.8174C16.569 21.8909 16.6124 21.958 16.6675 22.0148C16.7226 22.0716 16.7883 22.117 16.861 22.1484C16.9336 22.1798 17.0117 22.1966 17.0908 22.1978C17.17 22.199 17.2485 22.1846 17.3221 22.1555C17.3957 22.1263 17.4628 22.0829 17.5196 22.0278C17.5764 21.9727 17.6218 21.907 17.6531 21.8344L18.5532 19.7344C18.5972 19.6374 18.6146 19.5304 18.6036 19.4244C18.5926 19.3185 18.5537 19.2174 18.4907 19.1314C18.4277 19.0455 18.3429 18.978 18.2452 18.9356C18.1474 18.8933 18.0402 18.8778 17.9344 18.8906ZM22.4344 18.8906C22.3279 18.9025 22.2265 18.9426 22.1408 19.0069C22.0551 19.0712 21.9881 19.1573 21.9469 19.2562L21.0469 21.3562C21.0155 21.4289 20.9987 21.507 20.9975 21.5861C20.9963 21.6652 21.0107 21.7438 21.0399 21.8174C21.069 21.8909 21.1124 21.958 21.1675 22.0148C21.2226 22.0716 21.2883 22.117 21.361 22.1484C21.4336 22.1798 21.5117 22.1966 21.5908 22.1978C21.67 22.199 21.7485 22.1846 21.8221 22.1555C21.8957 22.1263 21.9628 22.0829 22.0196 22.0278C22.0764 21.9727 22.1218 21.907 22.1532 21.8344L23.0532 19.7344C23.0972 19.6374 23.1146 19.5304 23.1036 19.4244C23.0926 19.3185 23.0537 19.2174 22.9907 19.1314C22.9277 19.0455 22.8429 18.978 22.7452 18.9356C22.6474 18.8933 22.5401 18.8778 22.4344 18.8906ZM6.8344 23.3906C6.7279 23.4025 6.62651 23.4426 6.54078 23.5069C6.45505 23.5712 6.38811 23.6573 6.3469 23.7562L5.4469 25.8562C5.41551 25.9289 5.39873 26.007 5.39752 26.0861C5.39631 26.1652 5.4107 26.2438 5.43986 26.3174C5.46903 26.3909 5.51239 26.458 5.56749 26.5148C5.62258 26.5716 5.68832 26.617 5.76096 26.6484C5.8336 26.6798 5.91171 26.6966 5.99083 26.6978C6.06995 26.699 6.14854 26.6846 6.2221 26.6555C6.29566 26.6263 6.36276 26.5829 6.41956 26.5278C6.47636 26.4727 6.52176 26.407 6.55315 26.3344L7.45315 24.2344C7.49719 24.1374 7.51461 24.0304 7.50363 23.9244C7.49265 23.8185 7.45366 23.7174 7.39066 23.6314C7.32766 23.5455 7.24293 23.478 7.14517 23.4356C7.04741 23.3933 6.94015 23.3778 6.8344 23.3906ZM11.3344 23.3906C11.2279 23.4025 11.1265 23.4426 11.0408 23.5069C10.9551 23.5712 10.8881 23.6573 10.8469 23.7562L9.9469 25.8562C9.8835 26.0029 9.88097 26.1688 9.93986 26.3174C9.99876 26.4659 10.1143 26.585 10.261 26.6484C10.4077 26.7118 10.5735 26.7144 10.7221 26.6555C10.8707 26.5966 10.9897 26.4811 11.0532 26.3344L11.9531 24.2344C11.9972 24.1374 12.0146 24.0304 12.0036 23.9244C11.9926 23.8185 11.9537 23.7174 11.8907 23.6314C11.8277 23.5455 11.7429 23.478 11.6452 23.4356C11.5474 23.3933 11.4402 23.3778 11.3344 23.3906ZM15.8344 23.3906C15.7279 23.4025 15.6265 23.4426 15.5408 23.5069C15.4551 23.5712 15.3881 23.6573 15.3469 23.7562L14.4469 25.8562C14.4155 25.9289 14.3987 26.007 14.3975 26.0861C14.3963 26.1652 14.4107 26.2438 14.4399 26.3174C14.469 26.3909 14.5124 26.458 14.5675 26.5148C14.6226 26.5716 14.6883 26.617 14.761 26.6484C14.8336 26.6798 14.9117 26.6966 14.9908 26.6978C15.07 26.699 15.1485 26.6846 15.2221 26.6555C15.2957 26.6263 15.3628 26.5829 15.4196 26.5278C15.4764 26.4727 15.5218 26.407 15.5532 26.3344L16.4531 24.2344C16.4972 24.1374 16.5146 24.0304 16.5036 23.9244C16.4926 23.8185 16.4537 23.7174 16.3907 23.6314C16.3277 23.5455 16.2429 23.478 16.1452 23.4356C16.0474 23.3933 15.9402 23.3778 15.8344 23.3906ZM20.3344 23.3906C20.2279 23.4025 20.1265 23.4426 20.0408 23.5069C19.9551 23.5712 19.8881 23.6573 19.8469 23.7562L18.9469 25.8562C18.8835 26.0029 18.881 26.1688 18.9399 26.3174C18.9988 26.4659 19.1143 26.585 19.261 26.6484C19.4077 26.7118 19.5735 26.7144 19.7221 26.6555C19.8707 26.5966 19.9897 26.4811 20.0532 26.3344L20.9531 24.2344C20.9972 24.1374 21.0146 24.0304 21.0036 23.9244C20.9926 23.8185 20.9537 23.7174 20.8907 23.6314C20.8277 23.5455 20.7429 23.478 20.6452 23.4356C20.5474 23.3933 20.4402 23.3778 20.3344 23.3906Z" fill="#82868C"/>
</svg>
