<svg width="30" height="30" viewBox="0 0 30 30" fill="none" xmlns="http://www.w3.org/2000/svg">
<path d="M12.3822 28H17.6159L15.09 16.5922C15.0218 16.5937 14.9535 16.5936 14.8853 16.5916L12.3822 28ZM11.3998 13.5049L4.29452 18.1719C3.99832 18.3664 3.91303 18.7285 4.09603 19.0142C4.28002 19.3012 4.6727 19.4162 5.00977 19.2816L13.0437 16.0719C12.0995 15.5197 11.4586 14.5801 11.3998 13.5049ZM16.6465 10.4571L15.7137 2.57661C15.6748 2.24789 15.3679 2 15 2C14.6321 2 14.3252 2.24789 14.2863 2.57661L13.3534 10.4571C14.7335 9.80556 15.9224 10.1574 16.6465 10.4571ZM15 11.5932C13.9279 11.5932 13.0557 12.3783 13.0557 13.3432C13.0557 14.3082 13.9279 15.0932 15 15.0932C16.072 15.0932 16.9442 14.3082 16.9442 13.3432C16.9442 12.3783 16.072 11.5932 15 11.5932ZM16.9563 16.0719L24.9903 19.2817C25.3272 19.4162 25.72 19.3013 25.904 19.0141C26.087 18.7285 26.0017 18.3664 25.7055 18.1719L18.6002 13.5049C18.5414 14.5801 17.9004 15.5197 16.9563 16.0719Z" fill="#82868C"/>
</svg>
