<svg width="30" height="30" viewBox="0 0 30 30" fill="none" xmlns="http://www.w3.org/2000/svg">
<path d="M27.8549 9.47059C27.8549 9.23529 27.5147 7.35294 26.7209 6.52941C25.7003 5.35294 24.5663 5.23529 23.9993 5.23529H23.8859C20.3706 5 15.1542 5 15.0408 5C15.0408 5 9.7111 5 6.19574 5.23529H6.08234C5.51535 5.23529 4.38137 5.35294 3.36078 6.52941C2.56699 7.47059 2.2268 9.35294 2.2268 9.58824C2.2268 9.70588 2 11.8235 2 14.0588V16.0588C2 18.2941 2.2268 20.4118 2.2268 20.5294C2.2268 20.7647 2.56699 22.6471 3.36078 23.4706C4.26797 24.5294 5.40195 24.6471 6.08234 24.7647H6.42254C8.46371 25 14.7006 25 14.9274 25C14.9274 25 20.2572 25 23.7725 24.7647H23.8859C24.4529 24.6471 25.5869 24.5294 26.6075 23.4706C27.4013 22.5294 27.7415 20.6471 27.7415 20.4118C27.7415 20.2941 27.9682 18.1765 27.9682 15.9412V13.9412C28.0816 11.8235 27.8549 9.58824 27.8549 9.47059ZM19.4634 15.2353L12.6595 19C12.5461 19 12.5461 19.1176 12.4327 19.1176C12.3193 19.1176 12.2059 19.1176 12.2059 19C12.0925 18.8824 11.9791 18.7647 11.9791 18.5294V10.8824C11.9791 10.6471 12.0925 10.5294 12.2059 10.4118C12.3193 10.2941 12.5461 10.2941 12.7729 10.4118L19.5768 14.1765C19.8036 14.2941 19.917 14.4118 19.917 14.6471C19.917 14.8824 19.6902 15.1176 19.4634 15.2353Z" fill="#82868C"/>
</svg>
