<svg width="48" height="48" viewBox="0 0 48 48" fill="none" xmlns="http://www.w3.org/2000/svg">
<circle cx="24" cy="24" r="24" fill="#61A9FF"/>
<mask id="mask0_3544_42894" style="mask-type:alpha" maskUnits="userSpaceOnUse" x="0" y="0" width="48" height="48">
<circle cx="24" cy="24" r="24" fill="#C4C4C4"/>
</mask>
<g mask="url(#mask0_3544_42894)">
<path d="M28.9169 46.2153C28.9169 46.2153 27.9869 49.1431 23.7158 49.1431C18.7558 49.1431 17.5847 46.4909 17.5847 46.4909C18.0325 45.3542 18.308 44.2864 18.5147 43.3564C18.8936 41.6342 18.928 40.2564 18.928 39.4298L27.6425 39.0853C27.7113 39.8087 27.8491 40.7042 27.9869 41.5653C28.4002 43.8731 28.9169 46.2153 28.9169 46.2153Z" fill="#FFB8A1"/>
<path d="M27.9871 41.5656C26.6437 42.4956 23.6815 43.9078 18.5149 43.3567C18.8938 41.6345 18.9282 40.2567 18.9282 39.4301L27.6426 39.0856C27.7115 39.809 27.8493 40.6701 27.9871 41.5656Z" fill="#283252"/>
<path d="M15.5867 28.0295C15.5867 28.0295 12.9 24.3439 10.7989 26.5139C8.6978 28.6839 12.7622 36.2617 16.4133 34.6083L15.5867 28.0295Z" fill="#FFB8A1"/>
<path d="M14.2779 32.3695C14.1745 32.3695 14.1057 32.3007 14.1057 32.1973C13.7612 29.6484 11.729 28.064 11.6946 28.064C11.6257 27.9951 11.5912 27.8918 11.6601 27.7885C11.729 27.7196 11.8323 27.6851 11.9357 27.754C12.039 27.8229 14.1057 29.4418 14.4845 32.1284C14.4845 32.2662 14.4156 32.3695 14.2779 32.3695C14.3123 32.3695 14.3123 32.3695 14.2779 32.3695Z" fill="#FF8A8A"/>
<path d="M13.7266 30.5437C13.6577 30.5437 13.6233 30.5093 13.5888 30.4748C13.3133 30.0615 12.5211 30.027 12.2111 30.0615C12.1077 30.0615 12.0044 29.9926 12.0044 29.8893C12.0044 29.7859 12.0733 29.6826 12.1766 29.6826C12.2111 29.6826 13.4511 29.6137 13.8644 30.2681C13.9333 30.337 13.8988 30.4748 13.8299 30.5437C13.7955 30.5437 13.7611 30.5437 13.7266 30.5437Z" fill="#FF8A8A"/>
<path d="M32.0168 28.0295C32.0168 28.0295 34.7035 24.3439 36.8046 26.5139C38.9057 28.6839 34.8413 36.2617 31.1902 34.6083L32.0168 28.0295Z" fill="#FFB8A1"/>
<path d="M33.3258 32.3699C33.3258 32.3699 33.2913 32.3699 33.3258 32.3699C33.188 32.3699 33.1191 32.2666 33.1536 32.1633C33.5324 29.4422 35.5991 27.8577 35.7024 27.7888C35.7713 27.72 35.9091 27.7544 35.978 27.8233C36.0469 27.8922 36.0124 28.03 35.9435 28.0988C35.9091 28.0988 33.8769 29.6833 33.5324 32.2322C33.498 32.301 33.3947 32.3699 33.3258 32.3699Z" fill="#FF8A8A"/>
<path d="M33.8767 30.5433C33.8423 30.5433 33.8079 30.5433 33.7734 30.5089C33.7045 30.44 33.6701 30.3366 33.739 30.2333C34.1867 29.5789 35.3923 29.6478 35.4267 29.6478C35.5301 29.6478 35.599 29.7511 35.599 29.8544C35.599 29.9578 35.4956 30.0266 35.3923 30.0266C35.1167 29.9922 34.2901 30.0611 34.0145 30.44C34.0145 30.5089 33.9456 30.5433 33.8767 30.5433Z" fill="#FF8A8A"/>
<path d="M26.0925 17.3168C18.5147 15.4568 11.6948 22.3112 13.3825 29.889C14.5881 35.2278 17.2403 42.0133 23.7158 42.1511C30.4669 42.3233 33.188 34.9523 34.1524 29.3723C35.048 24.2745 32.0513 19.2457 27.1258 17.6268C26.7814 17.489 26.4369 17.3857 26.0925 17.3168Z" fill="#FFB8A1"/>
<path d="M24.2671 34.505C23.9571 34.505 23.5782 34.4361 23.1993 34.2639C23.096 34.2295 23.0271 34.0917 23.0271 33.9884L23.5782 29.855C23.6127 29.7173 23.716 29.6139 23.8882 29.6139C24.026 29.6484 24.1293 29.7517 24.1293 29.9239L23.6127 33.885C24.1293 34.0917 24.5426 34.0573 24.8871 33.8506C25.0249 33.7817 25.1626 33.8161 25.266 33.9195C25.3349 34.0573 25.3004 34.195 25.1971 34.2984C24.8871 34.4017 24.6115 34.505 24.2671 34.505Z" fill="#FF8A8A"/>
<path d="M23.7505 37.2257C22.2349 37.2257 21.0638 36.6057 21.0638 36.5712C20.926 36.5023 20.8916 36.3301 20.9605 36.1923C21.0294 36.0546 21.2016 36.0201 21.3394 36.089C21.4771 36.1579 24.4049 37.7423 26.9538 35.4001C27.0571 35.2968 27.2293 35.2968 27.3327 35.4001C27.436 35.5035 27.436 35.6757 27.3327 35.779C26.1271 36.9157 24.8527 37.2257 23.7505 37.2257Z" fill="#FF8A8A"/>
<path d="M24.198 38.7756C23.6125 38.7756 23.0958 38.6378 23.0958 38.6034C22.958 38.5689 22.8891 38.3967 22.9236 38.2589C22.958 38.1211 23.1302 38.0523 23.268 38.0867C23.268 38.0867 24.4736 38.4312 25.3002 37.9834C25.438 37.9145 25.5758 37.9489 25.6791 38.0867C25.748 38.2245 25.7136 38.3623 25.5758 38.4656C25.0936 38.7067 24.6113 38.7756 24.198 38.7756Z" fill="#FF8A8A"/>
<path d="M18.5834 26.9272C19.1689 26.6172 19.9956 26.2383 20.8223 26.135C21.27 26.0661 21.5456 25.6183 21.3734 25.205L21.3389 25.1361C21.2356 24.8261 20.9256 24.6539 20.6156 24.6884C19.8923 24.7572 18.6178 25.0328 17.7567 25.8595C17.5845 26.0317 17.5156 26.3072 17.5845 26.5483C17.7223 26.9617 18.2045 27.1339 18.5834 26.9272Z" fill="#283252"/>
<path d="M29.6057 26.9272C29.0202 26.6172 28.1935 26.2383 27.3669 26.135C26.9191 26.0661 26.6435 25.6183 26.8158 25.205L26.8502 25.1361C26.9535 24.8261 27.2635 24.6539 27.5735 24.6884C28.2969 24.7572 29.5713 25.0328 30.4324 25.8595C30.6046 26.0317 30.6735 26.3072 30.6046 26.5483C30.4324 26.9617 29.9846 27.1339 29.6057 26.9272Z" fill="#283252"/>
<g opacity="0.5">
<g opacity="0.5">
<path opacity="0.5" d="M20.5122 31.7145C20.5122 32.3689 19.3067 32.8856 17.8256 32.8856C16.3445 32.8856 15.1389 32.3689 15.1389 31.7145C15.1389 31.06 16.3445 30.5434 17.8256 30.5434C19.3067 30.5434 20.5122 31.06 20.5122 31.7145Z" fill="#FF8A8A"/>
</g>
</g>
<g opacity="0.5">
<g opacity="0.5">
<path opacity="0.5" d="M33.1878 31.7145C33.1878 32.3689 31.9822 32.8856 30.5011 32.8856C29.02 32.8856 27.8145 32.3689 27.8145 31.7145C27.8145 31.06 29.02 30.5434 30.5011 30.5434C31.9822 30.5434 33.1878 31.06 33.1878 31.7145Z" fill="#FF8A8A"/>
</g>
</g>
<path d="M13.658 31.06C13.658 31.06 12.2458 23.2411 12.6936 21.45C13.1414 19.6589 14.0369 20.0034 14.0369 20.0034C14.0369 20.0034 6.39028 13.7001 10.2136 10.1523C12.9691 7.56898 16.138 13.0801 16.138 13.0801C16.138 13.0801 14.5536 7.67231 16.7925 6.94898C19.5824 6.01898 20.8224 12.4945 20.8224 12.4945C20.8224 12.4945 20.5813 7.67231 22.8546 7.7412C25.9891 7.87897 24.2324 11.4956 27.608 12.9078C31.0179 14.3201 36.1501 15.0434 34.2901 20.7267C34.2901 20.7267 36.7701 20.6234 33.6701 30.7844C32.8779 29.6822 32.4646 28.3044 32.5335 26.9611C32.5679 25.8933 32.5679 24.6878 32.3613 23.93C32.3613 23.93 30.4324 22.5867 30.5013 20.5889C30.5013 20.5889 23.6469 24.6533 17.3436 21.0367C17.3436 21.0367 17.7569 23.3789 15.7591 23.7233C15.7591 23.7233 15.1047 25.2389 14.898 27.4089C14.7947 28.6833 14.4158 29.8889 13.7269 30.9567L13.658 31.06Z" fill="#283252"/>
<path d="M33.6702 17.179C33.6702 17.179 34.738 13.4935 36.4947 14.4235C37.7347 15.1124 34.8413 17.9024 34.8413 17.9024C34.8413 17.9024 37.2869 16.5935 38.4924 17.5235C39.698 18.4535 36.4947 19.5557 34.6691 19.2457C32.8091 18.9013 33.6702 17.179 33.6702 17.179Z" fill="#283252"/>
<path d="M20.7192 28.9595C20.7192 29.6829 20.4781 30.2684 20.1337 30.2684C19.7892 30.2684 19.5137 29.6829 19.4792 28.9595C19.4792 28.2362 19.7204 27.6507 20.0648 27.6507C20.4092 27.6507 20.6848 28.2362 20.7192 28.9595Z" fill="#283252"/>
<path d="M27.1602 28.9591C27.1602 29.6824 27.4013 30.268 27.7457 30.268C28.0901 30.268 28.3657 29.6824 28.4001 28.9591C28.4001 28.2358 28.159 27.6502 27.8146 27.6502C27.4702 27.6502 27.1602 28.2358 27.1602 28.9591Z" fill="#283252"/>
</g>
</svg>
