<svg width="22" height="22" viewBox="0 0 22 22" fill="none" xmlns="http://www.w3.org/2000/svg">
<circle cx="11" cy="11" r="11" fill="#2CC5BD"/>
<mask id="mask0_3577_44161" style="mask-type:alpha" maskUnits="userSpaceOnUse" x="0" y="0" width="22" height="22">
<circle cx="11" cy="11" r="11" fill="#C4C4C4"/>
</mask>
<g mask="url(#mask0_3577_44161)">
<path d="M13.2537 21.182C13.2537 21.182 12.8275 22.5239 10.8699 22.5239C8.59657 22.5239 8.05981 21.3083 8.05981 21.3083C8.26505 20.7874 8.39134 20.298 8.48606 19.8717C8.65972 19.0824 8.67551 18.4509 8.67551 18.072L12.6696 17.9141C12.7012 18.2456 12.7643 18.6561 12.8275 19.0508C13.0169 20.1085 13.2537 21.182 13.2537 21.182Z" fill="#FFB8A1"/>
<path d="M12.8275 19.0509C12.2118 19.4772 10.8541 20.1244 8.48608 19.8718C8.65974 19.0825 8.67553 18.451 8.67553 18.0721L12.6696 17.9142C12.7012 18.2458 12.7643 18.6404 12.8275 19.0509Z" fill="#283252"/>
<path d="M7.14398 12.8468C7.14398 12.8468 5.91259 11.1576 4.94959 12.1522C3.98659 13.1468 5.84945 16.6199 7.52286 15.8622L7.14398 12.8468Z" fill="#FFB8A1"/>
<path d="M6.54417 14.836C6.49681 14.836 6.46523 14.8045 6.46523 14.7571C6.30736 13.5889 5.37593 12.8627 5.36015 12.8627C5.32857 12.8311 5.31279 12.7837 5.34436 12.7364C5.37593 12.7048 5.42329 12.689 5.47065 12.7206C5.51802 12.7522 6.46523 13.4942 6.63889 14.7255C6.63889 14.7887 6.60731 14.836 6.54417 14.836C6.55995 14.836 6.55995 14.836 6.54417 14.836Z" fill="#FF8A8A"/>
<path d="M6.29155 13.9992C6.25997 13.9992 6.24418 13.9834 6.2284 13.9676C6.1021 13.7782 5.739 13.7624 5.59692 13.7782C5.54956 13.7782 5.5022 13.7466 5.5022 13.6993C5.5022 13.6519 5.53377 13.6045 5.58113 13.6045C5.59692 13.6045 6.16525 13.573 6.35469 13.8729C6.38627 13.9045 6.37048 13.9676 6.33891 13.9992C6.32312 13.9992 6.30733 13.9992 6.29155 13.9992Z" fill="#FF8A8A"/>
<path d="M14.6745 12.8468C14.6745 12.8468 15.9059 11.1576 16.8689 12.1522C17.8319 13.1468 15.9691 16.6199 14.2957 15.8622L14.6745 12.8468Z" fill="#FFB8A1"/>
<path d="M15.2746 14.8362C15.2746 14.8362 15.2588 14.8362 15.2746 14.8362C15.2115 14.8362 15.1799 14.7889 15.1957 14.7415C15.3693 13.4943 16.3165 12.7681 16.3639 12.7366C16.3955 12.705 16.4586 12.7208 16.4902 12.7523C16.5218 12.7839 16.506 12.8471 16.4744 12.8786C16.4586 12.8786 15.5272 13.6048 15.3693 14.7731C15.3535 14.8046 15.3062 14.8362 15.2746 14.8362Z" fill="#FF8A8A"/>
<path d="M15.5271 13.999C15.5113 13.999 15.4956 13.999 15.4798 13.9832C15.4482 13.9517 15.4324 13.9043 15.464 13.8569C15.6692 13.557 16.2218 13.5886 16.2375 13.5886C16.2849 13.5886 16.3165 13.6359 16.3165 13.6833C16.3165 13.7306 16.2691 13.7622 16.2218 13.7622C16.0955 13.7464 15.7166 13.778 15.5903 13.9517C15.5903 13.9832 15.5587 13.999 15.5271 13.999Z" fill="#FF8A8A"/>
<path d="M11.9591 7.93686C8.48597 7.08436 5.36015 10.226 6.13371 13.6991C6.68626 16.1461 7.90185 19.2561 10.8698 19.3193C13.964 19.3982 15.2112 16.0198 15.6532 13.4623C16.0637 11.1258 14.6902 8.82093 12.4327 8.07894C12.2748 8.01579 12.117 7.96843 11.9591 7.93686Z" fill="#FFB8A1"/>
<path d="M11.1225 15.8148C10.9804 15.8148 10.8068 15.7832 10.6331 15.7043C10.5858 15.6885 10.5542 15.6253 10.5542 15.578L10.8068 13.6836C10.8226 13.6204 10.8699 13.573 10.9489 13.573C11.012 13.5888 11.0594 13.6362 11.0594 13.7151L10.8226 15.5306C11.0594 15.6253 11.2488 15.6096 11.4067 15.5148C11.4698 15.4833 11.533 15.4991 11.5804 15.5464C11.6119 15.6096 11.5961 15.6727 11.5488 15.7201C11.4067 15.7674 11.2804 15.8148 11.1225 15.8148Z" fill="#FF8A8A"/>
<path d="M10.8858 17.0618C10.1912 17.0618 9.65446 16.7776 9.65446 16.7618C9.59131 16.7302 9.57552 16.6513 9.6071 16.5882C9.63867 16.525 9.7176 16.5092 9.78075 16.5408C9.8439 16.5724 11.1858 17.2986 12.354 16.2251C12.4014 16.1777 12.4803 16.1777 12.5277 16.2251C12.575 16.2724 12.575 16.3514 12.5277 16.3987C11.9751 16.9197 11.391 17.0618 10.8858 17.0618Z" fill="#FF8A8A"/>
<path d="M11.0908 17.7721C10.8224 17.7721 10.5856 17.709 10.5856 17.6932C10.5225 17.6774 10.4909 17.5985 10.5067 17.5353C10.5225 17.4722 10.6014 17.4406 10.6646 17.4564C10.6646 17.4564 11.2171 17.6143 11.596 17.409C11.6592 17.3775 11.7223 17.3932 11.7697 17.4564C11.8012 17.5195 11.7855 17.5827 11.7223 17.6301C11.5013 17.7406 11.2803 17.7721 11.0908 17.7721Z" fill="#FF8A8A"/>
<path d="M8.51753 12.3417C8.78591 12.1996 9.16479 12.0259 9.54368 11.9786C9.74891 11.947 9.87521 11.7417 9.79627 11.5523L9.78049 11.5207C9.73312 11.3786 9.59104 11.2997 9.44896 11.3155C9.11743 11.3471 8.53332 11.4734 8.13864 11.8523C8.05971 11.9312 8.02813 12.0575 8.05971 12.168C8.12285 12.3574 8.34387 12.4364 8.51753 12.3417Z" fill="#283252"/>
<path d="M13.5693 12.3417C13.301 12.1996 12.9221 12.0259 12.5432 11.9786C12.338 11.947 12.2117 11.7417 12.2906 11.5523L12.3064 11.5207C12.3538 11.3786 12.4958 11.2997 12.6379 11.3155C12.9694 11.3471 13.5536 11.4734 13.9482 11.8523C14.0272 11.9312 14.0587 12.0575 14.0272 12.168C13.9482 12.3574 13.743 12.4364 13.5693 12.3417Z" fill="#283252"/>
<g opacity="0.5">
<g opacity="0.5">
<path opacity="0.5" d="M9.40173 14.5358C9.40173 14.8358 8.84919 15.0726 8.17035 15.0726C7.49151 15.0726 6.93896 14.8358 6.93896 14.5358C6.93896 14.2359 7.49151 13.9991 8.17035 13.9991C8.84919 13.9991 9.40173 14.2359 9.40173 14.5358Z" fill="#FF8A8A"/>
</g>
</g>
<g opacity="0.5">
<g opacity="0.5">
<path opacity="0.5" d="M15.2111 14.5358C15.2111 14.8358 14.6585 15.0726 13.9797 15.0726C13.3008 15.0726 12.7483 14.8358 12.7483 14.5358C12.7483 14.2359 13.3008 13.9991 13.9797 13.9991C14.6585 13.9991 15.2111 14.2359 15.2111 14.5358Z" fill="#FF8A8A"/>
</g>
</g>
<path d="M6.26003 14.2358C6.26003 14.2358 5.61276 10.6522 5.81799 9.83126C6.02322 9.01034 6.43369 9.16821 6.43369 9.16821C6.43369 9.16821 2.92898 6.27919 4.68133 4.65313C5.94429 3.46911 7.39669 5.99503 7.39669 5.99503C7.39669 5.99503 6.67049 3.51647 7.69664 3.18495C8.97539 2.7587 9.54372 5.72665 9.54372 5.72665C9.54372 5.72665 9.43321 3.51647 10.4751 3.54805C11.9118 3.61119 11.1066 5.26883 12.6537 5.91609C14.2167 6.56336 16.5689 6.89488 15.7164 9.49973C15.7164 9.49973 16.8531 9.45237 15.4323 14.1095C15.0692 13.6043 14.8797 12.9729 14.9113 12.3572C14.9271 11.8678 14.9271 11.3152 14.8323 10.9679C14.8323 10.9679 13.9483 10.3522 13.9799 9.43658C13.9799 9.43658 10.8382 11.2994 7.94923 9.64182C7.94923 9.64182 8.13868 10.7153 7.22303 10.8732C7.22303 10.8732 6.92308 11.5678 6.82836 12.5624C6.781 13.1465 6.60734 13.6991 6.2916 14.1885L6.26003 14.2358Z" fill="#283252"/>
<path d="M15.4323 7.87374C15.4323 7.87374 15.9217 6.18453 16.7268 6.61078C17.2952 6.92652 15.969 8.20526 15.969 8.20526C15.969 8.20526 17.0899 7.60536 17.6425 8.03161C18.195 8.45785 16.7268 8.96304 15.8901 8.82095C15.0376 8.66309 15.4323 7.87374 15.4323 7.87374Z" fill="#283252"/>
<path d="M9.49631 13.2734C9.49631 13.6049 9.3858 13.8733 9.22793 13.8733C9.07006 13.8733 8.94377 13.6049 8.92798 13.2734C8.92798 12.9418 9.03849 12.6734 9.19636 12.6734C9.35423 12.6734 9.48052 12.9418 9.49631 13.2734Z" fill="#283252"/>
<path d="M12.4485 13.2729C12.4485 13.6044 12.559 13.8728 12.7169 13.8728C12.8747 13.8728 13.001 13.6044 13.0168 13.2729C13.0168 12.9414 12.9063 12.673 12.7484 12.673C12.5906 12.673 12.4485 12.9414 12.4485 13.2729Z" fill="#283252"/>
</g>
</svg>
