<svg width="42" height="42" viewBox="0 0 42 42" fill="none" xmlns="http://www.w3.org/2000/svg">
<circle cx="21" cy="21" r="21" fill="#FF9A40"/>
<mask id="mask0_3544_43038" style="mask-type:alpha" maskUnits="userSpaceOnUse" x="0" y="0" width="42" height="42">
<circle cx="21" cy="21" r="21" fill="#C4C4C4"/>
</mask>
<g mask="url(#mask0_3544_43038)">
<path d="M25.3024 40.4384C25.3024 40.4384 24.4886 43.0002 20.7514 43.0002C16.4114 43.0002 15.3867 40.6795 15.3867 40.6795C15.7785 39.6849 16.0196 38.7506 16.2005 37.9369C16.532 36.4299 16.5621 35.2244 16.5621 34.5011L24.1872 34.1997C24.2475 34.8326 24.3681 35.6162 24.4886 36.3697C24.8503 38.389 25.3024 40.4384 25.3024 40.4384Z" fill="#FFB8A1"/>
<path d="M24.4888 36.3699C23.3134 37.1837 20.7215 38.4194 16.2007 37.9371C16.5322 36.4302 16.5623 35.2247 16.5623 34.5013L24.1875 34.1999C24.2477 34.8329 24.3683 35.5863 24.4888 36.3699Z" fill="#283252"/>
<path d="M13.6382 24.5258C13.6382 24.5258 11.2874 21.3009 9.44895 23.1997C7.61049 25.0984 11.1669 31.7289 14.3616 30.2823L13.6382 24.5258Z" fill="#FFB8A1"/>
<path d="M12.4931 28.3234C12.4027 28.3234 12.3424 28.2631 12.3424 28.1727C12.041 25.9424 10.2628 24.556 10.2327 24.556C10.1724 24.4957 10.1423 24.4053 10.2025 24.3149C10.2628 24.2546 10.3532 24.2245 10.4436 24.2848C10.5341 24.345 12.3424 25.7616 12.6739 28.1124C12.6739 28.2329 12.6136 28.3234 12.4931 28.3234C12.5232 28.3234 12.5232 28.3234 12.4931 28.3234Z" fill="#FF8A8A"/>
<path d="M12.0106 26.7257C11.9503 26.7257 11.9202 26.6956 11.89 26.6655C11.6489 26.3038 10.9557 26.2737 10.6845 26.3038C10.5941 26.3038 10.5037 26.2435 10.5037 26.1531C10.5037 26.0627 10.5639 25.9723 10.6544 25.9723C10.6845 25.9723 11.7695 25.912 12.1312 26.4846C12.1914 26.5449 12.1613 26.6655 12.101 26.7257C12.0709 26.7257 12.0407 26.7257 12.0106 26.7257Z" fill="#FF8A8A"/>
<path d="M28.0148 24.5258C28.0148 24.5258 30.3657 21.3009 32.2041 23.1997C34.0426 25.0984 30.4862 31.7289 27.2915 30.2823L28.0148 24.5258Z" fill="#FFB8A1"/>
<path d="M29.1601 28.3237C29.1601 28.3237 29.1299 28.3237 29.1601 28.3237C29.0395 28.3237 28.9793 28.2333 29.0094 28.1429C29.3409 25.7619 31.1492 24.3755 31.2397 24.3152C31.2999 24.255 31.4205 24.2851 31.4808 24.3454C31.541 24.4057 31.5109 24.5262 31.4506 24.5865C31.4205 24.5865 29.6423 25.9729 29.3409 28.2031C29.3108 28.2634 29.2204 28.3237 29.1601 28.3237Z" fill="#FF8A8A"/>
<path d="M29.6422 26.7254C29.612 26.7254 29.5819 26.7254 29.5518 26.6953C29.4915 26.635 29.4613 26.5446 29.5216 26.4542C29.9134 25.8815 30.9683 25.9418 30.9984 25.9418C31.0888 25.9418 31.1491 26.0322 31.1491 26.1226C31.1491 26.213 31.0587 26.2733 30.9683 26.2733C30.7272 26.2432 30.0038 26.3035 29.7627 26.635C29.7627 26.6953 29.7025 26.7254 29.6422 26.7254Z" fill="#FF8A8A"/>
<path d="M22.8309 15.1522C16.2004 13.5247 10.2329 19.5223 11.7097 26.1528C12.7646 30.8243 15.0853 36.7617 20.7514 36.8822C26.6586 37.0329 29.0395 30.5832 29.8834 25.7008C30.667 21.2402 28.0449 16.84 23.7351 15.4234C23.4337 15.3029 23.1323 15.2125 22.8309 15.1522Z" fill="#FFB8A1"/>
<path d="M21.2337 30.1919C20.9624 30.1919 20.6309 30.1316 20.2994 29.9809C20.209 29.9508 20.1487 29.8302 20.1487 29.7398L20.6309 26.1232C20.661 26.0026 20.7515 25.9122 20.9022 25.9122C21.0227 25.9423 21.1131 26.0327 21.1131 26.1834L20.661 29.6494C21.1131 29.8302 21.4748 29.8001 21.7762 29.6193C21.8967 29.559 22.0173 29.5891 22.1077 29.6795C22.168 29.8001 22.1378 29.9206 22.0474 30.0111C21.7762 30.1015 21.5351 30.1919 21.2337 30.1919Z" fill="#FF8A8A"/>
<path d="M20.7817 32.5725C19.4556 32.5725 18.4309 32.03 18.4309 31.9998C18.3103 31.9396 18.2802 31.7889 18.3404 31.6683C18.4007 31.5478 18.5514 31.5176 18.672 31.5779C18.7925 31.6382 21.3543 33.0246 23.5846 30.9751C23.675 30.8847 23.8257 30.8847 23.9161 30.9751C24.0065 31.0655 24.0065 31.2162 23.9161 31.3066C22.8613 32.3012 21.7461 32.5725 20.7817 32.5725Z" fill="#FF8A8A"/>
<path d="M21.1734 33.9286C20.661 33.9286 20.2089 33.8081 20.2089 33.7779C20.0884 33.7478 20.0281 33.5971 20.0582 33.4766C20.0884 33.356 20.2391 33.2957 20.3596 33.3259C20.3596 33.3259 21.4145 33.6273 22.1378 33.2354C22.2583 33.1752 22.3789 33.2053 22.4693 33.3259C22.5296 33.4464 22.4995 33.567 22.3789 33.6574C21.957 33.8684 21.535 33.9286 21.1734 33.9286Z" fill="#FF8A8A"/>
<path d="M16.2606 23.5613C16.773 23.2901 17.4963 22.9585 18.2197 22.8681C18.6115 22.8078 18.8526 22.416 18.7019 22.0544L18.6717 21.9941C18.5813 21.7229 18.3101 21.5722 18.0388 21.6023C17.4059 21.6626 16.2908 21.9037 15.5373 22.627C15.3866 22.7777 15.3263 23.0188 15.3866 23.2298C15.5072 23.5915 15.9291 23.7422 16.2606 23.5613Z" fill="#283252"/>
<path d="M25.9051 23.5613C25.3927 23.2901 24.6694 22.9585 23.946 22.8681C23.5542 22.8078 23.3131 22.416 23.4638 22.0544L23.494 21.9941C23.5844 21.7229 23.8556 21.5722 24.1269 21.6023C24.7598 21.6626 25.8749 21.9037 26.6284 22.627C26.7791 22.7777 26.8394 23.0188 26.7791 23.2298C26.6284 23.5915 26.2366 23.7422 25.9051 23.5613Z" fill="#283252"/>
<g opacity="0.5">
<g opacity="0.5">
<path opacity="0.5" d="M17.9482 27.7502C17.9482 28.3228 16.8934 28.7749 15.5974 28.7749C14.3014 28.7749 13.2466 28.3228 13.2466 27.7502C13.2466 27.1775 14.3014 26.7255 15.5974 26.7255C16.8934 26.7255 17.9482 27.1775 17.9482 27.7502Z" fill="#FF8A8A"/>
</g>
</g>
<g opacity="0.5">
<g opacity="0.5">
<path opacity="0.5" d="M29.0393 27.7502C29.0393 28.3228 27.9844 28.7749 26.6885 28.7749C25.3925 28.7749 24.3376 28.3228 24.3376 27.7502C24.3376 27.1775 25.3925 26.7255 26.6885 26.7255C27.9844 26.7255 29.0393 27.1775 29.0393 27.7502Z" fill="#FF8A8A"/>
</g>
</g>
<path d="M11.9508 27.1775C11.9508 27.1775 10.7151 20.336 11.1069 18.7688C11.4987 17.2016 12.2824 17.5029 12.2824 17.5029C12.2824 17.5029 5.59156 11.9875 8.93696 8.88325C11.3481 6.62285 14.1208 11.445 14.1208 11.445C14.1208 11.445 12.7344 6.71326 14.6935 6.08035C17.1347 5.2666 18.2197 10.9327 18.2197 10.9327C18.2197 10.9327 18.0087 6.71326 19.9979 6.77354C22.7405 6.8941 21.2034 10.0587 24.157 11.2944C27.1408 12.53 31.6314 13.163 30.0039 18.1359C30.0039 18.1359 32.1739 18.0454 29.4614 26.9364C28.7683 25.9719 28.4066 24.7664 28.4669 23.591C28.497 22.6567 28.497 21.6018 28.3162 20.9388C28.3162 20.9388 26.6284 19.7633 26.6887 18.0153C26.6887 18.0153 20.6911 21.5717 15.1757 18.4071C15.1757 18.4071 15.5373 20.4565 13.7893 20.7579C13.7893 20.7579 13.2167 22.084 13.0358 23.9828C12.9454 25.0979 12.6139 26.1528 12.0111 27.0871L11.9508 27.1775Z" fill="#283252"/>
<path d="M29.4615 15.0317C29.4615 15.0317 30.3958 11.8068 31.9329 12.6206C33.0179 13.2233 30.4862 15.6646 30.4862 15.6646C30.4862 15.6646 32.6261 14.5193 33.6809 15.3331C34.7358 16.1468 31.9329 17.1112 30.3355 16.84C28.708 16.5386 29.4615 15.0317 29.4615 15.0317Z" fill="#283252"/>
<path d="M18.1294 25.3396C18.1294 25.9726 17.9185 26.4849 17.6171 26.4849C17.3157 26.4849 17.0746 25.9726 17.0444 25.3396C17.0444 24.7067 17.2554 24.1944 17.5568 24.1944C17.8582 24.1944 18.0993 24.7067 18.1294 25.3396Z" fill="#283252"/>
<path d="M23.7654 25.3392C23.7654 25.9721 23.9764 26.4845 24.2777 26.4845C24.5791 26.4845 24.8202 25.9721 24.8504 25.3392C24.8504 24.7063 24.6394 24.1939 24.338 24.1939C24.0366 24.1939 23.7654 24.7063 23.7654 25.3392Z" fill="#283252"/>
</g>
</svg>
