<svg width="62" height="62" viewBox="0 0 62 62" fill="none" xmlns="http://www.w3.org/2000/svg">
<circle cx="31" cy="31" r="31" fill="#FF6B93"/>
<mask id="mask0_3544_42606" style="mask-type:alpha" maskUnits="userSpaceOnUse" x="0" y="0" width="62" height="62">
<circle cx="31" cy="31" r="31" fill="#C4C4C4"/>
</mask>
<g mask="url(#mask0_3544_42606)">
<path d="M37.351 59.6948C37.351 59.6948 36.1498 63.4764 30.6329 63.4764C24.2263 63.4764 22.7136 60.0507 22.7136 60.0507C23.292 58.5825 23.6479 57.2033 23.9149 56.002C24.4043 53.7775 24.4488 51.9979 24.4488 50.9301L35.7049 50.4852C35.7938 51.4195 35.9718 52.5763 36.1498 53.6885C36.6837 56.6694 37.351 59.6948 37.351 59.6948Z" fill="#FFB8A1"/>
<path d="M36.1499 53.6889C34.4148 54.8902 30.5886 56.7143 23.915 56.0024C24.4044 53.7779 24.4489 51.9983 24.4489 50.9305L35.705 50.4856C35.794 51.4199 35.972 52.5322 36.1499 53.6889Z" fill="#283252"/>
<path d="M20.1327 36.2047C20.1327 36.2047 16.6625 31.4442 13.9486 34.2471C11.2346 37.0501 16.4845 46.838 21.2005 44.7024L20.1327 36.2047Z" fill="#FFB8A1"/>
<path d="M18.4422 41.8107C18.3088 41.8107 18.2198 41.7217 18.2198 41.5882C17.7749 38.2959 15.1499 36.2493 15.1054 36.2493C15.0165 36.1604 14.972 36.0269 15.061 35.8934C15.1499 35.8044 15.2834 35.76 15.4169 35.8489C15.5503 35.9379 18.2198 38.029 18.7092 41.4992C18.7092 41.6772 18.6202 41.8107 18.4422 41.8107C18.4867 41.8107 18.4867 41.8107 18.4422 41.8107Z" fill="#FF8A8A"/>
<path d="M17.7301 39.4523C17.6412 39.4523 17.5967 39.4078 17.5522 39.3633C17.1963 38.8294 16.173 38.7849 15.7726 38.8294C15.6391 38.8294 15.5056 38.7404 15.5056 38.607C15.5056 38.4735 15.5946 38.34 15.7281 38.34C15.7726 38.34 17.3742 38.251 17.9081 39.0964C17.9971 39.1853 17.9526 39.3633 17.8636 39.4523C17.8191 39.4523 17.7746 39.4523 17.7301 39.4523Z" fill="#FF8A8A"/>
<path d="M41.3551 36.2047C41.3551 36.2047 44.8254 31.4442 47.5393 34.2471C50.2532 37.0501 45.0033 46.838 40.2874 44.7024L41.3551 36.2047Z" fill="#FFB8A1"/>
<path d="M43.0458 41.8112C43.0458 41.8112 43.0013 41.8112 43.0458 41.8112C42.8678 41.8112 42.7789 41.6777 42.8233 41.5442C43.3127 38.0295 45.9822 35.9829 46.1156 35.8939C46.2046 35.8049 46.3826 35.8494 46.4716 35.9384C46.5606 36.0274 46.5161 36.2054 46.4271 36.2943C46.3826 36.2943 43.7576 38.3409 43.3127 41.6332C43.2683 41.7222 43.1348 41.8112 43.0458 41.8112Z" fill="#FF8A8A"/>
<path d="M43.7575 39.4518C43.713 39.4518 43.6685 39.4518 43.624 39.4073C43.535 39.3183 43.4905 39.1848 43.5795 39.0514C44.1579 38.206 45.7151 38.295 45.7595 38.295C45.893 38.295 45.982 38.4285 45.982 38.562C45.982 38.6954 45.8485 38.7844 45.7151 38.7844C45.3591 38.7399 44.2914 38.8289 43.9354 39.3183C43.9354 39.4073 43.8465 39.4518 43.7575 39.4518Z" fill="#FF8A8A"/>
<path d="M33.7028 22.3675C23.9149 19.965 15.1057 28.8186 17.2858 38.6066C18.843 45.5026 22.2687 54.2672 30.6329 54.4452C39.3531 54.6676 42.8678 45.1467 44.1136 37.9392C45.2703 31.3546 41.3997 24.859 35.0375 22.7679C34.5926 22.59 34.1477 22.4565 33.7028 22.3675Z" fill="#FFB8A1"/>
<path d="M31.3451 44.569C30.9447 44.569 30.4553 44.48 29.9659 44.2575C29.8324 44.213 29.7434 44.0351 29.7434 43.9016L30.4553 38.5627C30.4997 38.3848 30.6332 38.2513 30.8557 38.2513C31.0336 38.2958 31.1671 38.4293 31.1671 38.6517L30.4997 43.7681C31.1671 44.0351 31.701 43.9906 32.1459 43.7236C32.3239 43.6347 32.5018 43.6792 32.6353 43.8126C32.7243 43.9906 32.6798 44.1686 32.5463 44.302C32.1459 44.4355 31.79 44.569 31.3451 44.569Z" fill="#FF8A8A"/>
<path d="M30.6778 48.0832C28.7202 48.0832 27.2075 47.2823 27.2075 47.2378C27.0295 47.1489 26.9851 46.9264 27.074 46.7484C27.163 46.5705 27.3855 46.526 27.5634 46.615C27.7414 46.704 31.5231 48.7505 34.8154 45.7252C34.9489 45.5917 35.1713 45.5917 35.3048 45.7252C35.4383 45.8586 35.4383 46.0811 35.3048 46.2146C33.7476 47.6827 32.1015 48.0832 30.6778 48.0832Z" fill="#FF8A8A"/>
<path d="M31.2559 50.0851C30.4995 50.0851 29.8322 49.9072 29.8322 49.8627C29.6542 49.8182 29.5652 49.5957 29.6097 49.4178C29.6542 49.2398 29.8767 49.1508 30.0546 49.1953C30.0546 49.1953 31.6118 49.6402 32.6796 49.0619C32.8575 48.9729 33.0355 49.0174 33.169 49.1953C33.258 49.3733 33.2135 49.5513 33.0355 49.6847C32.4126 49.9962 31.7898 50.0851 31.2559 50.0851Z" fill="#FF8A8A"/>
<path d="M24.0035 34.781C24.7599 34.3806 25.8276 33.8912 26.8954 33.7577C27.4738 33.6687 27.8297 33.0904 27.6073 32.5565L27.5628 32.4675C27.4293 32.0671 27.0289 31.8446 26.6285 31.8891C25.6942 31.9781 24.048 32.334 22.9357 33.4018C22.7133 33.6242 22.6243 33.9802 22.7133 34.2916C22.8913 34.8255 23.5141 35.0479 24.0035 34.781Z" fill="#283252"/>
<path d="M38.2408 34.781C37.4844 34.3806 36.4166 33.8912 35.3489 33.7577C34.7705 33.6687 34.4146 33.0904 34.637 32.5565L34.6815 32.4675C34.815 32.0671 35.2154 31.8446 35.6158 31.8891C36.5501 31.9781 38.1963 32.334 39.3085 33.4018C39.531 33.6242 39.62 33.9802 39.531 34.2916C39.3085 34.8255 38.7302 35.0479 38.2408 34.781Z" fill="#283252"/>
<g opacity="0.5">
<g opacity="0.5">
<path opacity="0.5" d="M26.495 40.9645C26.495 41.8099 24.9378 42.4772 23.0247 42.4772C21.1116 42.4772 19.5544 41.8099 19.5544 40.9645C19.5544 40.1192 21.1116 39.4519 23.0247 39.4519C24.9378 39.4519 26.495 40.1192 26.495 40.9645Z" fill="#FF8A8A"/>
</g>
</g>
<g opacity="0.5">
<g opacity="0.5">
<path opacity="0.5" d="M42.8675 40.9645C42.8675 41.8099 41.3104 42.4772 39.3973 42.4772C37.4842 42.4772 35.927 41.8099 35.927 40.9645C35.927 40.1192 37.4842 39.4519 39.3973 39.4519C41.3104 39.4519 42.8675 40.1192 42.8675 40.9645Z" fill="#FF8A8A"/>
</g>
</g>
<path d="M17.6416 40.1191C17.6416 40.1191 15.8175 30.0198 16.3959 27.7063C16.9743 25.3928 18.131 25.8377 18.131 25.8377C18.131 25.8377 8.25413 17.6959 13.1926 13.1134C16.7518 9.77658 20.845 16.8951 20.845 16.8951C20.845 16.8951 18.7984 9.91005 21.6903 8.97575C25.294 7.77451 26.8957 16.1387 26.8957 16.1387C26.8957 16.1387 26.5842 9.91005 29.5206 9.99903C33.5692 10.177 31.3002 14.8485 35.6603 16.6726C40.0649 18.4967 46.6939 19.431 44.2915 26.772C44.2915 26.772 47.4948 26.6385 43.4906 39.7632C42.4673 38.3395 41.9335 36.5599 42.0224 34.8248C42.0669 33.4455 42.0669 31.8884 41.8 30.9096C41.8 30.9096 39.3085 29.1745 39.3975 26.594C39.3975 26.594 30.5439 31.8439 22.4021 27.1724C22.4021 27.1724 22.936 30.1977 20.3556 30.6426C20.3556 30.6426 19.5102 32.6002 19.2433 35.4031C19.1098 37.0493 18.6204 38.6064 17.7306 39.9857L17.6416 40.1191Z" fill="#283252"/>
<path d="M43.4907 22.1896C43.4907 22.1896 44.8699 17.4291 47.139 18.6304C48.7406 19.5202 45.0034 23.1239 45.0034 23.1239C45.0034 23.1239 48.1622 21.4333 49.7194 22.6345C51.2766 23.8357 47.139 25.2594 44.781 24.859C42.3785 24.4141 43.4907 22.1896 43.4907 22.1896Z" fill="#283252"/>
<path d="M26.7623 37.4059C26.7623 38.3402 26.4509 39.0965 26.006 39.0965C25.5611 39.0965 25.2051 38.3402 25.1606 37.4059C25.1606 36.4716 25.4721 35.7153 25.917 35.7153C26.3619 35.7153 26.7178 36.4716 26.7623 37.4059Z" fill="#283252"/>
<path d="M35.0818 37.4055C35.0818 38.3398 35.3932 39.0961 35.8381 39.0961C36.283 39.0961 36.639 38.3398 36.6834 37.4055C36.6834 36.4712 36.372 35.7148 35.9271 35.7148C35.4822 35.7148 35.0818 36.4712 35.0818 37.4055Z" fill="#283252"/>
</g>
</svg>
