<svg width="100" height="100" viewBox="0 0 100 100" fill="none" xmlns="http://www.w3.org/2000/svg">
<circle cx="50" cy="50" r="48.5" fill="#82868C" stroke="white" stroke-width="3"/>
<mask id="mask0_3725_38900" style="mask-type:alpha" maskUnits="userSpaceOnUse" x="2" y="0" width="97" height="96">
<ellipse cx="50.7042" cy="47.8873" rx="47.8873" ry="47.8873" fill="#C4C4C4"/>
</mask>
<g mask="url(#mask0_3725_38900)">
<path d="M-88.277 164.138C-85.1727 161.541 -82.0402 158.917 -78.9359 156.32C-75.9445 153.809 -73.3482 151.664 -70.0745 149.576C-68.7199 148.729 -66.9138 147.6 -65.4745 146.81C-58.0524 141.956 -50.6303 137.13 -43.2082 132.276C-38.5235 129.2 -33.8106 126.152 -29.1259 123.076C-26.0499 121.072 -22.9455 119.041 -20.1517 116.67C-16.6805 113.707 3.27171 83.9619 5.4165 81.3656C6.71467 83.0306 14.9552 89.8883 16.7613 103.491C9.67786 110.038 -6.80317 127.789 -14.959 132.982C-29.521 142.21 -46.1149 146.725 -61.6929 154.119C-62.2573 154.373 -62.8217 155.784 -63.1604 156.349C-64.2328 158.127 -65.0794 160.046 -66.2929 161.739C-67.5064 163.46 -68.9175 165.041 -70.4978 166.48C-71.2034 167.129 -72.3604 167.439 -72.7837 166.282C-72.8402 166.198 -72.8684 166.113 -72.8966 166C-73.2353 164.73 -72.6144 163.545 -71.9653 162.473C-71.2316 161.259 -70.6672 160.046 -70.5825 158.606C-70.5543 158.211 -70.6672 157.788 -70.9494 157.534C-71.1187 157.393 -71.3727 157.308 -71.5985 157.28C-72.3886 157.139 -73.1224 157.28 -73.7997 157.59C-74.1666 157.731 -74.5052 157.929 -74.8439 158.155C-75.1543 158.352 -75.4647 158.578 -75.7752 158.804C-76.1702 159.086 -76.5371 159.368 -76.904 159.65C-76.9887 159.707 -77.0451 159.763 -77.1298 159.82C-77.1862 159.876 -77.2709 159.904 -77.3273 159.961C-77.7788 160.271 -78.2022 160.582 -78.6537 160.892C-79.4721 161.457 -80.2623 162.021 -81.0807 162.585C-81.7862 163.065 -82.4917 163.573 -83.1973 164.053C-84.439 164.9 -85.7654 165.887 -87.2893 166.141C-88.3899 166.339 -89.3212 164.984 -88.277 164.138Z" fill="#FFCFCA"/>
<path d="M36.5444 34.9703C35.9236 33.6721 35.4438 32.2611 35.1051 30.7936C32.791 20.2672 39.423 9.85364 49.9776 7.5113C60.5322 5.16896 70.9175 11.8291 73.2599 22.3837C73.3163 22.6942 73.3728 23.0046 73.4292 23.2868C76.9004 25.0083 79.5814 28.2255 80.4844 32.2893C80.7384 33.4746 80.8231 34.6316 80.7666 35.7605C84.6894 37.3408 87.7937 40.7556 88.7814 45.1863C90.3618 52.3262 85.8464 59.3532 78.7347 60.9336C77.5495 61.1875 76.3642 61.2722 75.2071 61.2158C73.5421 62.7961 71.4255 63.9532 69.0267 64.4894C66.0918 65.1385 63.1568 64.7434 60.6169 63.5581C59.093 64.7716 57.2868 65.6465 55.2549 66.098C49.8647 67.2833 44.5027 64.9974 41.5395 60.7078C35.0487 61.244 28.9812 56.9262 27.5419 50.3789C26.0462 43.6623 30.0536 36.974 36.5444 34.9703Z" fill="#AC1B35"/>
<path d="M59.7417 62.0906C57.9638 61.1311 56.3834 59.8329 54.5772 58.9298C54.4361 58.9016 54.2668 58.8734 54.0975 58.8734C51.219 58.6476 48.3686 58.2243 45.4901 58.055C44.587 57.9985 43.684 57.9985 42.8091 58.1114C39.9024 59.8611 36.8827 61.4415 33.6373 62.2599C32.3109 62.5986 30.6741 62.9372 28.9809 63.1065C27.7391 63.671 27.0901 64.6022 27.7391 66.2955C28.36 67.9323 29.5735 69.428 30.787 70.7262C31.1539 71.1213 31.549 71.5164 31.9441 71.8833C37.4189 76.8784 47.0987 79.5029 54.1539 76.2575C57.7944 74.5925 60.8705 71.7422 63.1282 68.6096C63.8337 67.6219 64.3417 66.5495 64.8779 65.4771C64.9061 65.3924 65.019 65.1949 65.1319 64.9409C63.3257 63.9814 61.5196 63.0219 59.7417 62.0906Z" fill="#FFCFCA"/>
<path d="M41.0027 63.9246C41.9904 64.7148 43.2886 64.997 44.5303 65.251C46.026 65.5615 47.5217 65.9001 49.0457 66.013C52.0089 66.2105 54.8027 65.4486 57.7095 64.8277C57.8506 63.1345 57.9917 61.413 58.1328 59.7197C58.3021 57.5749 58.4714 55.4584 58.8665 53.3418C58.9794 52.6927 59.1205 52.0436 59.2616 51.4228C59.6285 49.8424 60.1083 48.262 60.5598 46.6816C60.9267 45.3835 61.3218 44.1135 61.6886 42.8154C60.842 43.4645 60.08 43.7749 59.0923 44.17C54.9438 45.8915 50.7389 47.4718 46.5058 48.9958C45.2358 49.4473 43.9377 49.8988 42.6113 50.0964L41.7646 57.5467L41.0027 63.9246Z" fill="#FFCFCA"/>
<path d="M41.7363 57.5185C46.3928 56.8412 50.9364 55.5149 55.1695 53.4829C56.5241 52.8339 57.9069 52.1283 59.2616 51.3664C59.6284 49.786 60.1082 48.2056 60.5597 46.6252C60.9266 45.3271 61.3217 44.0571 61.6885 42.759C60.8419 43.4081 60.08 43.7185 59.0922 44.1136C54.9437 45.8351 50.7388 47.4154 46.5057 48.9394C45.2357 49.3909 43.9376 49.8424 42.6112 50.04L41.7363 57.5185Z" fill="#F9BFBB"/>
<path d="M34.1451 44.6218C34.7377 47.1899 35.7537 49.6169 37.7574 51.3948C39.5353 52.9752 41.8494 53.9911 44.1918 54.2733C46.8163 54.5838 49.4691 54.104 51.8961 53.0598C53.1096 52.5518 54.2666 51.9028 55.3673 51.169C57.2581 49.8709 58.9231 48.2905 60.4188 46.5408C62.8458 43.7187 64.9906 40.4168 66.3734 36.861C67.9256 32.8254 68.5182 28.5076 67.5023 24.218C67.079 22.4683 66.3734 20.8033 65.4139 19.2793C61.3501 12.9014 52.912 10.5026 46.1108 13.8327C42.5549 15.5542 39.62 18.5456 37.7574 22.0168C37.1648 23.1174 36.6285 24.2462 36.1488 25.4033C33.6089 31.4426 32.6776 38.272 34.1451 44.6218Z" fill="#FFCFCA"/>
<path d="M58.7539 45.2707C60.56 47.0486 63.3539 47.7541 65.7809 47.0486C67.8411 46.456 69.5625 44.8474 70.3527 42.8719C70.4938 42.505 70.6067 42.1382 70.6914 41.7713C70.8325 41.094 70.8607 40.4167 70.7478 39.7394C70.4374 38.0743 69.0263 36.7197 67.3895 36.3246C65.7527 35.9295 63.9466 36.494 62.7331 37.6792L61.2091 40.586L58.7539 45.2707Z" fill="#FFCFCA"/>
<path d="M38.9715 16.9089C39.6488 16.3727 40.3261 15.8365 41.0034 15.3285C41.088 15.2721 41.1727 15.2156 41.2573 15.131C41.2856 15.1028 41.3138 15.0745 41.342 15.0745C41.6807 14.8488 41.9911 14.623 42.358 14.4255C43.0635 14.0021 43.769 13.607 44.5028 13.2966C44.6439 13.2402 44.8132 13.1837 44.9543 13.1273C45.2083 13.0426 45.4905 12.9862 45.7727 12.9297C46.7604 11.0954 48.5384 9.68433 50.7396 9.20457C52.6868 8.78126 54.6059 9.14813 56.1862 10.0794C56.8353 9.62789 57.5973 9.31746 58.4157 9.11991C61.9151 8.35795 65.3863 10.5592 66.1764 14.0868C66.2329 14.3126 66.2611 14.5383 66.2893 14.7641C68.2366 15.7518 69.7605 17.558 70.2685 19.8721C70.6636 21.65 70.3814 23.4279 69.5912 24.9236C71.5384 25.5727 73.0906 27.1813 73.5703 29.3261C74.2758 32.5715 72.244 35.7887 68.9985 36.4942C65.7531 37.1998 62.5359 35.1679 61.8304 31.9224C61.6047 30.8783 61.6611 29.8623 61.9433 28.9028C58.9801 28.5077 56.4402 26.3347 55.6783 23.2586C55.1421 23.5126 54.5776 23.7101 53.985 23.8512C51.1347 24.4721 48.3408 23.3997 46.5911 21.3114C45.7445 22.1016 44.7003 22.666 43.4868 22.9482C40.4107 23.6255 37.3629 22.0733 36.0647 19.3359C37.0242 18.4893 37.9837 17.6709 38.9715 16.9089Z" fill="#AC1B35"/>
<path d="M32.6219 68.271C32.6501 68.271 32.6501 68.271 32.6783 68.271C32.4526 68.3274 32.1986 68.4121 31.9446 68.4685C32.1139 68.4121 32.4526 68.3274 32.6219 68.271Z" fill="#FFCFCA"/>
<path d="M48.3682 35.3652C48.7068 35.3934 49.1866 34.9137 49.3559 34.1235C49.4406 33.7284 49.4406 33.3051 49.3277 32.9946C49.2995 32.8818 49.1584 32.6278 48.9608 32.5713H48.9326C48.594 32.5431 48.1142 33.0229 47.9449 33.8131C47.8602 34.2081 47.8602 34.6315 47.9731 34.9419C48.0013 35.0548 48.1424 35.3088 48.34 35.3652C48.34 35.3652 48.34 35.3652 48.3682 35.3652Z" fill="#1F3C49"/>
<path d="M38.4911 33.785C38.7733 33.8132 39.2813 33.3899 39.4506 32.5997C39.5353 32.2046 39.5353 31.8095 39.4224 31.4991C39.3377 31.2733 39.2248 31.1322 39.0837 31.104H39.0555C38.7733 31.0758 38.2653 31.4991 38.096 32.2893C38.0113 32.6844 38.0113 33.0795 38.1242 33.3899C38.2089 33.6157 38.3218 33.7568 38.4629 33.785C38.4911 33.785 38.4911 33.785 38.4911 33.785Z" fill="#1F3C49"/>
<path d="M43.373 35.9016C43.119 35.5912 42.6957 35.4501 42.2724 35.5065C41.849 35.563 41.4539 35.8169 41.2282 36.212C41.0024 36.5789 40.946 37.0587 41.1153 37.4538C41.2564 37.8489 41.5951 38.1593 41.9902 38.2439C41.7362 37.9617 41.5951 37.6513 41.5668 37.3409C41.5386 37.0304 41.5951 36.7482 41.7362 36.5225C41.8773 36.2685 42.103 36.0709 42.3852 35.9863C42.6675 35.8169 43.0061 35.7887 43.373 35.9016Z" fill="#1F3C49"/>
<path d="M51.2752 29.6083C51.3316 29.6083 51.3881 29.5801 51.4445 29.5237C51.5292 29.439 51.5292 29.2979 51.4445 29.185C50.7672 28.5359 49.8077 28.1973 48.8764 28.2537C48.7353 28.2537 48.6506 28.3666 48.6506 28.5077C48.6506 28.6488 48.7635 28.7335 48.9046 28.7335C49.723 28.677 50.5414 28.9875 51.1341 29.5519C51.1623 29.5801 51.2187 29.6083 51.2752 29.6083Z" fill="#1F3C49"/>
<path d="M41.3417 27.7458C41.3982 27.7176 41.4264 27.6894 41.4828 27.6611C41.5393 27.5483 41.5111 27.4072 41.4264 27.3507C40.7209 26.8992 39.7896 26.7299 38.9712 26.9274C38.8583 26.9556 38.7736 27.0685 38.8019 27.2096C38.8301 27.3225 38.943 27.4072 39.0841 27.3789C39.7896 27.2096 40.5798 27.3507 41.1724 27.7458C41.2006 27.7458 41.2853 27.7458 41.3417 27.7458Z" fill="#1F3C49"/>
<path d="M48.7076 33.0796C49.1874 33.0231 49.3003 33.7569 48.8205 33.8415C48.3125 33.898 48.1996 33.136 48.7076 33.0796Z" fill="white"/>
<path d="M38.6888 31.471C39.1686 31.4145 39.2815 32.1483 38.8017 32.2329C38.2937 32.3176 38.1808 31.5556 38.6888 31.471Z" fill="white"/>
<path d="M37.9273 39.514C37.8708 40.5017 38.0966 41.4612 38.5199 42.2514C39.1972 43.5214 40.3825 44.3962 41.7935 44.4809C43.2328 44.5655 44.5592 43.8036 45.3776 42.5618C45.8573 41.8281 46.1678 40.9533 46.2242 39.9937C46.2242 39.9655 46.2242 39.9373 46.2242 39.8809L37.9555 39.3729C37.9273 39.4575 37.9273 39.4858 37.9273 39.514Z" fill="#3A3C40"/>
<path d="M38.2661 39.4294C39.141 40.4736 40.4673 41.1791 41.9631 41.2638C43.487 41.3484 44.8698 40.8122 45.8575 39.8809L38.2661 39.4294Z" fill="white"/>
<path d="M38.4924 42.2514C39.1697 43.5213 40.355 44.3962 41.7661 44.4809C43.2053 44.5655 44.5317 43.8036 45.3501 42.5618C43.9673 42.1667 42.4998 41.9692 41.0605 41.9974C40.2139 42.0256 39.3391 42.1103 38.4924 42.2514Z" fill="#F37C7C"/>
<path d="M47.7199 38.6956C47.5788 39.9656 48.8488 41.1226 50.542 41.3202C52.2353 41.5177 53.7592 40.6711 53.9003 39.4011C54.0414 38.1312 52.7715 36.9741 51.0782 36.7766C49.3568 36.579 47.861 37.4539 47.7199 38.6956Z" fill="#F9BFBB"/>
<path d="M34.4839 35.5064C34.3992 36.3531 35.2458 37.1432 36.4029 37.2844C37.5599 37.4255 38.5759 36.8328 38.6606 35.9862C38.7452 35.1396 37.8986 34.3494 36.7415 34.2083C35.5845 34.0672 34.5685 34.6598 34.4839 35.5064Z" fill="#F9BFBB"/>
<path d="M85.9309 197.241C85.8744 194.165 84.802 186.912 85.2818 181.409C87.229 167.016 95.018 143.028 94.6229 132.643C94.2278 122.625 90.0793 113.199 87.5959 103.491C86.2131 98.0159 85.2535 92.4281 83.3627 87.1226C82.8548 85.7115 82.2904 84.3569 81.6413 83.0023C79.5529 78.741 76.6179 75.4391 72.8928 72.5324C69.7885 70.1336 66.3455 68.1581 62.705 66.7471L60.6731 81.5066C60.7013 81.4784 60.7295 81.4784 60.786 81.4502C60.1087 85.7115 61.6608 89.9729 63.2694 93.9803C67.813 105.438 72.7234 116.726 78.0008 127.845C78.8474 129.652 79.7222 131.486 80.0327 133.461C80.2584 135.014 80.1456 136.594 80.0327 138.146C78.8756 152.877 77.9161 165.436 77.4363 180.336C77.013 181.493 75.4327 184.908 74.6989 187.335C74.2756 188.774 73.8523 190.242 73.5701 191.709C73.1468 194.052 73.6547 196.394 73.6547 198.765C73.6547 199.244 73.6547 199.752 73.7676 200.232C74.3038 202.462 76.6462 201.361 77.2952 199.809C77.3517 199.668 77.4081 199.527 77.4363 199.357C77.4928 199.16 77.521 198.99 77.5492 198.793C77.6339 198.087 77.5774 197.354 77.5774 196.648C77.5774 196.112 77.5775 195.576 77.6903 195.068C77.8032 194.644 77.8597 194.024 78.3394 193.854C78.7909 193.685 79.44 193.911 79.8069 194.165C80.2584 194.447 80.5689 194.898 80.7946 195.378C80.8511 195.491 80.8793 195.576 80.9357 195.689C81.0486 195.971 81.1333 196.253 81.218 196.507C81.5284 197.495 81.7541 198.511 82.0364 199.498C82.4314 200.881 82.6008 202.208 82.3468 203.647C82.0646 205.086 81.4719 206.441 80.964 207.824C80.4278 209.291 79.5811 211.267 80.3995 212.79C80.7664 213.496 81.7824 213.468 82.2621 212.932C82.5443 212.649 82.6854 212.254 82.8548 211.887C83.8425 209.489 84.8584 207.118 85.4793 204.606C86.0155 202.208 85.9591 199.668 85.9309 197.241Z" fill="#FFCFCA"/>
<path d="M89.8822 102.08C80.9926 108.796 76.3361 112.437 70.0428 115.118V115.146C69.4502 116.896 68.8858 118.73 68.2649 120.593C68.0956 121.101 67.9263 121.609 67.7852 122.117C67.1079 124.261 66.4023 126.491 65.725 128.692C57.2588 131.288 24.8047 136.481 20.5715 137.046C20.1482 134.703 19.7249 132.446 19.3016 129.934C18.3703 124.374 17.439 117.573 16.3666 105.805C16.3384 105.861 16.3102 105.89 16.3102 105.946C15.9151 106.764 15.1249 108.458 13.7703 111.195C13.601 111.562 13.4034 111.929 13.2059 112.352C9.33959 108.881 -4.46045 93.1902 -4.46045 93.1902C-4.46045 93.1902 4.88068 76.9349 12.3028 71.4318C21.5875 64.5459 34.8231 61.3005 34.8231 61.3005C34.8231 61.3005 38.0685 64.687 39.028 65.4207C41.8783 67.5938 44.898 68.7226 48.4538 68.9484C53.7029 69.287 59.2624 66.8318 62.3385 62.3729C74.3889 67.3116 83.0245 73.0968 89.8822 102.08Z" fill="#FE8F8C"/>
</g>
</svg>
