<svg width="24" height="24" viewBox="0 0 24 24" fill="none" xmlns="http://www.w3.org/2000/svg">
<path opacity="0.15" d="M21 12C21 16.9706 16.9706 21 12 21C7.02944 21 3 16.9706 3 12C3 7.02944 7.02944 3 12 3C16.9706 3 21 7.02944 21 12Z" fill="#001A72"/>
<path d="M6.16638 5.1057C5.87348 4.81281 5.39861 4.81281 5.10572 5.1057C4.81282 5.3986 4.81282 5.87347 5.10572 6.16636L6.16638 5.1057ZM17.8336 18.8943C18.1265 19.1872 18.6014 19.1872 18.8943 18.8943C19.1872 18.6014 19.1872 18.1265 18.8943 17.8336L17.8336 18.8943ZM5.10572 17.8336C4.81282 18.1265 4.81282 18.6014 5.10572 18.8943C5.39861 19.1872 5.87348 19.1872 6.16638 18.8943L5.10572 17.8336ZM18.8943 6.16636C19.1872 5.87347 19.1872 5.3986 18.8943 5.1057C18.6014 4.81281 18.1265 4.81281 17.8336 5.1057L18.8943 6.16636ZM20.25 12C20.25 16.5563 16.5563 20.25 12 20.25V21.75C17.3848 21.75 21.75 17.3848 21.75 12H20.25ZM12 20.25C7.44365 20.25 3.75 16.5563 3.75 12H2.25C2.25 17.3848 6.61522 21.75 12 21.75V20.25ZM3.75 12C3.75 7.44365 7.44365 3.75 12 3.75V2.25C6.61522 2.25 2.25 6.61522 2.25 12H3.75ZM12 3.75C16.5563 3.75 20.25 7.44365 20.25 12H21.75C21.75 6.61522 17.3848 2.25 12 2.25V3.75ZM5.10572 6.16636L17.8336 18.8943L18.8943 17.8336L6.16638 5.1057L5.10572 6.16636ZM6.16638 18.8943L18.8943 6.16636L17.8336 5.1057L5.10572 17.8336L6.16638 18.8943Z" fill="#001A72"/>
</svg>
