<svg width="24" height="24" viewBox="0 0 24 24" fill="none" xmlns="http://www.w3.org/2000/svg">
<path opacity="0.15" d="M4 7H20V18C20 19.1046 19.1046 20 18 20H6C4.89543 20 4 19.1046 4 18V7Z" fill="#001A72"/>
<path d="M15.75 11C15.75 10.5858 15.4142 10.25 15 10.25C14.5858 10.25 14.25 10.5858 14.25 11H15.75ZM9.75 11C9.75 10.5858 9.41421 10.25 9 10.25C8.58579 10.25 8.25 10.5858 8.25 11H9.75ZM20 7H20.75C20.75 6.88357 20.7229 6.76873 20.6708 6.66459L20 7ZM18 3L18.6708 2.66459C18.5438 2.4105 18.2841 2.25 18 2.25V3ZM6 3V2.25C5.71592 2.25 5.45622 2.4105 5.32918 2.66459L6 3ZM4 7L3.32918 6.66459C3.27711 6.76873 3.25 6.88357 3.25 7H4ZM14.25 11C14.25 12.2426 13.2426 13.25 12 13.25V14.75C14.0711 14.75 15.75 13.0711 15.75 11H14.25ZM12 13.25C10.7574 13.25 9.75 12.2426 9.75 11H8.25C8.25 13.0711 9.92893 14.75 12 14.75V13.25ZM20.6708 6.66459L18.6708 2.66459L17.3292 3.33541L19.3292 7.33541L20.6708 6.66459ZM18 2.25H6V3.75H18V2.25ZM5.32918 2.66459L3.32918 6.66459L4.67082 7.33541L6.67082 3.33541L5.32918 2.66459ZM4 7.75H20V6.25H4V7.75ZM19.25 7V18H20.75V7H19.25ZM18 19.25H6V20.75H18V19.25ZM4.75 18V7H3.25V18H4.75ZM6 19.25C5.30964 19.25 4.75 18.6904 4.75 18H3.25C3.25 19.5188 4.48122 20.75 6 20.75V19.25ZM19.25 18C19.25 18.6904 18.6904 19.25 18 19.25V20.75C19.5188 20.75 20.75 19.5188 20.75 18H19.25Z" fill="#001A72"/>
</svg>
