<svg width="24" height="24" viewBox="0 0 24 24" fill="none" xmlns="http://www.w3.org/2000/svg">
<path opacity="0.15" fill-rule="evenodd" clip-rule="evenodd" d="M8 14V4H17.3604C18.3138 4 19.1346 4.67292 19.3216 5.60777L20.5216 11.6078C20.7691 12.8453 19.8225 14 18.5604 14H14L16.4258 17.6386C17.1929 18.7894 16.5885 20.3529 15.2467 20.6883L15.1992 20.7002C14.4642 20.8839 13.6886 20.6367 13.1956 20.0615L8 14Z" fill="#001A72"/>
<path d="M8 4L8 3.25H8L8 4ZM17.3604 4.00002L17.3604 4.75002H17.3604V4.00002ZM19.3216 5.60779L18.5861 5.75487L19.3216 5.60779ZM20.5216 11.6078L21.257 11.4607L20.5216 11.6078ZM14 14V13.25C13.7234 13.25 13.4693 13.4023 13.3387 13.6461C13.2082 13.89 13.2225 14.1859 13.376 14.416L14 14ZM16.4258 17.6387L17.0498 17.2226L16.4258 17.6387ZM15.2467 20.6883L15.4286 21.4159L15.4286 21.4159L15.2467 20.6883ZM15.1992 20.7002L15.0173 19.9726L15.0173 19.9726L15.1992 20.7002ZM4 14H3.25C3.25 14.1989 3.32902 14.3897 3.46967 14.5304C3.61032 14.671 3.80109 14.75 4 14.75L4 14ZM4 4.00002L4 3.25002C3.58578 3.25002 3.25 3.58581 3.25 4.00002H4ZM13.1956 20.0615L12.6261 20.5496L13.1956 20.0615ZM8.75 14V4H7.25V14H8.75ZM8 4.75L17.3604 4.75002L17.3604 3.25002L8 3.25L8 4.75ZM18.5861 5.75487L19.7861 11.7549L21.257 11.4607L20.057 5.4607L18.5861 5.75487ZM18.5604 13.25H14V14.75H18.5604V13.25ZM13.376 14.416L15.8017 18.0547L17.0498 17.2226L14.624 13.584L13.376 14.416ZM15.0648 19.9607L15.0173 19.9726L15.3811 21.4278L15.4286 21.4159L15.0648 19.9607ZM8 13.25L4 13.25L4 14.75L8 14.75L8 13.25ZM4.75 14V4.00002H3.25V14H4.75ZM4 4.75002L8 4.75L8 3.25L4 3.25002L4 4.75002ZM15.0173 19.9726C14.5579 20.0875 14.0731 19.9329 13.765 19.5734L12.6261 20.5496C13.304 21.3405 14.3705 21.6805 15.3811 21.4278L15.0173 19.9726ZM15.8017 18.0547C16.2812 18.7739 15.9034 19.7511 15.0648 19.9607L15.4286 21.4159C17.2736 20.9547 18.1047 18.8049 17.0498 17.2226L15.8017 18.0547ZM19.7861 11.7549C19.9408 12.5284 19.3492 13.25 18.5604 13.25V14.75C20.2958 14.75 21.5973 13.1624 21.257 11.4607L19.7861 11.7549ZM17.3604 4.75002C17.9562 4.75002 18.4693 5.17059 18.5861 5.75487L20.057 5.4607C19.7999 4.17528 18.6713 3.25002 17.3604 3.25002V4.75002ZM13.765 19.5734L8.56944 13.5119L7.43056 14.4881L12.6261 20.5496L13.765 19.5734Z" fill="#001A72"/>
</svg>
