<svg width="24" height="24" viewBox="0 0 24 24" fill="none" xmlns="http://www.w3.org/2000/svg">
<path opacity="0.15" d="M5 21H19V9H15C13.8954 9 13 8.10457 13 7V3H5V21Z" fill="#001A72"/>
<path d="M15.0303 12.0303C15.3232 11.7374 15.3232 11.2626 15.0303 10.9697C14.7374 10.6768 14.2625 10.6768 13.9697 10.9697L15.0303 12.0303ZM8.96967 15.9697C8.67678 16.2626 8.67678 16.7374 8.96967 17.0303C9.26256 17.3232 9.73744 17.3232 10.0303 17.0303L8.96967 15.9697ZM10.0303 10.9697C9.73745 10.6768 9.26258 10.6768 8.96969 10.9697C8.67679 11.2626 8.67679 11.7374 8.96968 12.0303L10.0303 10.9697ZM13.9697 17.0303C14.2626 17.3232 14.7374 17.3232 15.0303 17.0303C15.3232 16.7374 15.3232 16.2626 15.0303 15.9697L13.9697 17.0303ZM5 21H4.25C4.25 21.4142 4.58579 21.75 5 21.75V21ZM19 21V21.75C19.4142 21.75 19.75 21.4142 19.75 21H19ZM5 3V2.25C4.58579 2.25 4.25 2.58579 4.25 3H5ZM14 3L14.5303 2.46967C14.3897 2.32902 14.1989 2.25 14 2.25V3ZM19 8H19.75C19.75 7.80109 19.671 7.61032 19.5303 7.46967L19 8ZM13.9697 10.9697L11.4697 13.4697L12.5303 14.5303L15.0303 12.0303L13.9697 10.9697ZM11.4697 13.4697L8.96967 15.9697L10.0303 17.0303L12.5303 14.5303L11.4697 13.4697ZM8.96968 12.0303L11.4697 14.5303L12.5303 13.4697L10.0303 10.9697L8.96968 12.0303ZM11.4697 14.5303L13.9697 17.0303L15.0303 15.9697L12.5303 13.4697L11.4697 14.5303ZM5 21.75H19V20.25H5V21.75ZM4.25 3V21H5.75V3H4.25ZM13 2.25H5V3.75H13V2.25ZM19.75 21V9H18.25V21H19.75ZM13 3.75H14V2.25H13V3.75ZM19.75 9V8H18.25V9H19.75ZM19.5303 7.46967L14.5303 2.46967L13.4697 3.53033L18.4697 8.53033L19.5303 7.46967ZM12.25 3V7H13.75V3H12.25ZM12.25 7C12.25 7.74392 12.6144 8.42507 13.0947 8.90533C13.5749 9.38559 14.2561 9.75 15 9.75V8.25C14.7439 8.25 14.4251 8.11441 14.1553 7.84467C13.8856 7.57493 13.75 7.25608 13.75 7H12.25ZM15 9.75H19V8.25H15V9.75Z" fill="#001A72"/>
</svg>
