<svg width="24" height="24" viewBox="0 0 24 24" fill="none" xmlns="http://www.w3.org/2000/svg">
<path opacity="0.15" fill-rule="evenodd" clip-rule="evenodd" d="M12 21C16.9706 21 21 16.9706 21 12C21 7.02944 16.9706 3 12 3C7.02944 3 3 7.02944 3 12C3 16.9706 7.02944 21 12 21ZM15.5355 8.46448L9.87868 9.87869L8.46446 15.5355L14.1213 14.1213L15.5355 8.46448Z" fill="#001A72"/>
<path d="M15.5355 8.46448L16.2632 8.64638C16.327 8.3908 16.2522 8.12043 16.0659 7.93415C15.8796 7.74786 15.6092 7.67298 15.3536 7.73687L15.5355 8.46448ZM9.87869 9.87869L9.69679 9.15108C9.42808 9.21826 9.21826 9.42808 9.15108 9.69679L9.87869 9.87869ZM8.46448 15.5355L7.73687 15.3536C7.67298 15.6092 7.74786 15.8796 7.93415 16.0659C8.12043 16.2522 8.3908 16.327 8.64638 16.2632L8.46448 15.5355ZM14.1213 14.1213L14.3032 14.8489C14.5719 14.7818 14.7818 14.5719 14.8489 14.3032L14.1213 14.1213ZM15.3536 7.73687L9.69679 9.15108L10.0606 10.6063L15.7174 9.19208L15.3536 7.73687ZM9.15108 9.69679L7.73687 15.3536L9.19208 15.7174L10.6063 10.0606L9.15108 9.69679ZM14.8079 8.28258L13.3937 13.9394L14.8489 14.3032L16.2632 8.64638L14.8079 8.28258ZM13.9394 13.3937L8.28258 14.8079L8.64638 16.2632L14.3032 14.8489L13.9394 13.3937ZM20.25 12C20.25 16.5563 16.5563 20.25 12 20.25V21.75C17.3848 21.75 21.75 17.3848 21.75 12H20.25ZM12 20.25C7.44365 20.25 3.75 16.5563 3.75 12H2.25C2.25 17.3848 6.61522 21.75 12 21.75V20.25ZM3.75 12C3.75 7.44365 7.44365 3.75 12 3.75V2.25C6.61522 2.25 2.25 6.61522 2.25 12H3.75ZM12 3.75C16.5563 3.75 20.25 7.44365 20.25 12H21.75C21.75 6.61522 17.3848 2.25 12 2.25V3.75Z" fill="#001A72"/>
</svg>
