<svg width="24" height="24" viewBox="0 0 24 24" fill="none" xmlns="http://www.w3.org/2000/svg">
<path opacity="0.15" d="M8 15C5 15 4 16 4 16V4C4 4 5 3 8 3C11 3 13 5 16 5C19 5 20 4 20 4V16C20 16 19 17 16 17C13 17 11 15 8 15Z" fill="#001A72"/>
<path d="M3.25 21.1111C3.25 21.5253 3.58579 21.8611 4 21.8611C4.41421 21.8611 4.75 21.5253 4.75 21.1111H3.25ZM4 4.11111L3.51986 3.53495C3.34887 3.67744 3.25 3.88853 3.25 4.11111H4ZM20 4.11111H20.75C20.75 3.8201 20.5817 3.55535 20.3181 3.43192C20.0546 3.30848 19.7434 3.34864 19.5199 3.53494L20 4.11111ZM20 16.1111L20.4801 16.6873C20.6511 16.5448 20.75 16.3337 20.75 16.1111H20ZM4.75 21.1111V16.1111H3.25V21.1111H4.75ZM4.75 16.1111V4.11111H3.25V16.1111H4.75ZM19.25 4.11111V16.1111H20.75V4.11111H19.25ZM20 16.1111C19.5199 15.5349 19.5202 15.5346 19.5206 15.5344C19.5207 15.5343 19.521 15.534 19.5212 15.5338C19.5216 15.5335 19.522 15.5332 19.5223 15.5329C19.5229 15.5324 19.5234 15.532 19.5237 15.5318C19.5242 15.5313 19.5241 15.5314 19.5233 15.5321C19.5216 15.5334 19.5172 15.5369 19.5101 15.5424C19.4958 15.5533 19.4706 15.572 19.4348 15.5968C19.363 15.6464 19.2491 15.7199 19.095 15.8037C18.7866 15.9713 18.3196 16.1784 17.7088 16.3173C16.5013 16.5917 14.6787 16.6119 12.3354 15.4403L11.6646 16.7819C14.3213 18.1103 16.4987 18.1305 18.0412 17.78C18.8054 17.6063 19.4009 17.3446 19.8113 17.1216C20.0165 17.0101 20.176 16.9079 20.2879 16.8305C20.3439 16.7918 20.388 16.7593 20.4201 16.7348C20.4361 16.7225 20.4492 16.7123 20.4592 16.7043C20.4642 16.7003 20.4685 16.6969 20.4719 16.694C20.4737 16.6926 20.4753 16.6913 20.4766 16.6902C20.4773 16.6896 20.4779 16.6891 20.4785 16.6886C20.4788 16.6884 20.4792 16.688 20.4794 16.6879C20.4798 16.6876 20.4801 16.6873 20 16.1111ZM12.3354 15.4403C9.67872 14.1119 7.5013 14.0917 5.95878 14.4423C5.19459 14.6159 4.59905 14.8776 4.18874 15.1006C3.98349 15.2121 3.82397 15.3143 3.71211 15.3917C3.65614 15.4304 3.612 15.4629 3.57991 15.4874C3.56386 15.4997 3.55081 15.5099 3.5408 15.5179C3.53579 15.5219 3.53154 15.5254 3.52805 15.5282C3.5263 15.5296 3.52475 15.5309 3.52338 15.532C3.5227 15.5326 3.52207 15.5331 3.52148 15.5336C3.52119 15.5338 3.52078 15.5342 3.52064 15.5343C3.52024 15.5346 3.51986 15.5349 4 16.1111C4.48014 16.6873 4.47978 16.6876 4.47943 16.6879C4.47933 16.6879 4.479 16.6882 4.47879 16.6884C4.47839 16.6887 4.47803 16.689 4.47771 16.6893C4.47708 16.6898 4.47662 16.6902 4.47634 16.6904C4.47577 16.6909 4.4759 16.6908 4.47672 16.6901C4.47836 16.6888 4.48277 16.6853 4.48992 16.6799C4.50421 16.669 4.52941 16.6502 4.56524 16.6255C4.63697 16.5759 4.75089 16.5023 4.90501 16.4185C5.21345 16.2509 5.68041 16.0438 6.29122 15.905C7.4987 15.6305 9.32128 15.6103 11.6646 16.7819L12.3354 15.4403ZM4 4.11111C4.48014 4.68728 4.47978 4.68758 4.47943 4.68787C4.47933 4.68795 4.479 4.68823 4.47879 4.6884C4.47839 4.68873 4.47803 4.68903 4.47771 4.68929C4.47708 4.68981 4.47662 4.69019 4.47634 4.69042C4.47577 4.69088 4.4759 4.69077 4.47672 4.69012C4.47836 4.68881 4.48277 4.68531 4.48992 4.67986C4.50421 4.66895 4.52941 4.65023 4.56524 4.62545C4.63697 4.57585 4.75089 4.50228 4.90501 4.41852C5.21345 4.25089 5.68041 4.04378 6.29122 3.90496C7.4987 3.63053 9.32128 3.61027 11.6646 4.78193L12.3354 3.44029C9.67872 2.11195 7.5013 2.09169 5.95878 2.44226C5.19459 2.61594 4.59905 2.87759 4.18874 3.10058C3.98349 3.21213 3.82397 3.31434 3.71211 3.39169C3.65614 3.43039 3.612 3.46295 3.57991 3.48743C3.56386 3.49968 3.55081 3.50992 3.5408 3.51792C3.53579 3.52192 3.53154 3.52535 3.52805 3.5282C3.5263 3.52963 3.52475 3.5309 3.52338 3.53203C3.5227 3.53259 3.52207 3.53312 3.52148 3.5336C3.52119 3.53385 3.52078 3.53418 3.52063 3.5343C3.52024 3.53463 3.51986 3.53495 4 4.11111ZM11.6646 4.78193C14.3213 6.11027 16.4987 6.13053 18.0412 5.77996C18.8054 5.60628 19.4009 5.34464 19.8113 5.12164C20.0165 5.01009 20.176 4.90788 20.2879 4.83053C20.3439 4.79183 20.388 4.75928 20.4201 4.73479C20.4361 4.72254 20.4492 4.7123 20.4592 4.70431C20.4642 4.70031 20.4685 4.69687 20.4719 4.69402C20.4737 4.6926 20.4753 4.69132 20.4766 4.6902C20.4773 4.68963 20.4779 4.68911 20.4785 4.68862C20.4788 4.68838 20.4792 4.68804 20.4794 4.68792C20.4798 4.68759 20.4801 4.68728 20 4.11111C19.5199 3.53494 19.5202 3.53465 19.5206 3.53436C19.5207 3.53427 19.521 3.53399 19.5212 3.53383C19.5216 3.53349 19.522 3.53319 19.5223 3.53293C19.5229 3.53241 19.5234 3.53203 19.5237 3.5318C19.5242 3.53134 19.5241 3.53145 19.5233 3.53211C19.5216 3.53342 19.5172 3.53691 19.5101 3.54236C19.4958 3.55327 19.4706 3.57199 19.4348 3.59677C19.363 3.64637 19.2491 3.71994 19.095 3.8037C18.7866 3.97133 18.3196 4.17844 17.7088 4.31726C16.5013 4.59169 14.6787 4.61195 12.3354 3.44029L11.6646 4.78193Z" fill="#001A72"/>
</svg>
