<svg width="24" height="24" viewBox="0 0 24 24" fill="none" xmlns="http://www.w3.org/2000/svg">
<path opacity="0.15" d="M3.5 20.5L3.5 13.5L20.5 13.5V20.5H3.5Z" fill="#001A72"/>
<path d="M3.5 20.5H2.75C2.75 20.9142 3.08579 21.25 3.5 21.25V20.5ZM3.5 13.5L3.5 12.75C3.08579 12.75 2.75 13.0858 2.75 13.5H3.5ZM20.5 13.5H21.25C21.25 13.3011 21.171 13.1103 21.0303 12.9697C20.8897 12.829 20.6989 12.75 20.5 12.75V13.5ZM20.5 20.5V21.25C20.9142 21.25 21.25 20.9142 21.25 20.5H20.5ZM3.5 10.5H2.75C2.75 10.6989 2.82902 10.8897 2.96967 11.0303C3.11032 11.171 3.30109 11.25 3.5 11.25L3.5 10.5ZM3.5 3.5L3.5 2.75C3.08579 2.75 2.75 3.08579 2.75 3.5L3.5 3.5ZM20.5 3.5H21.25C21.25 3.30109 21.171 3.11032 21.0303 2.96967C20.8897 2.82902 20.6989 2.75 20.5 2.75V3.5ZM20.5 10.5V11.25C20.9142 11.25 21.25 10.9142 21.25 10.5H20.5ZM4.25 20.5L4.25 13.5H2.75L2.75 20.5H4.25ZM3.5 14.25L20.5 14.25V12.75L3.5 12.75L3.5 14.25ZM19.75 13.5V20.5H21.25V13.5H19.75ZM20.5 19.75H3.5V21.25H20.5V19.75ZM4.25 10.5L4.25 3.5L2.75 3.5L2.75 10.5H4.25ZM3.5 4.25L20.5 4.25V2.75L3.5 2.75L3.5 4.25ZM19.75 3.5V10.5H21.25V3.5H19.75ZM20.5 9.75L3.5 9.75L3.5 11.25L20.5 11.25V9.75Z" fill="#001A72"/>
</svg>
