<svg width="24" height="24" viewBox="0 0 24 24" fill="none" xmlns="http://www.w3.org/2000/svg">
<path opacity="0.15" d="M5 10L12 3L19 10L19 20H5L5 10Z" fill="#001A72"/>
<path d="M12 3L12.5303 2.46967C12.3897 2.32902 12.1989 2.25 12 2.25C11.8011 2.25 11.6103 2.32902 11.4697 2.46967L12 3ZM5 10L4.46967 9.46967C4.32902 9.61032 4.25 9.80109 4.25 10L5 10ZM19 10L19.75 10C19.75 9.80109 19.671 9.61032 19.5303 9.46967L19 10ZM19 20V20.75C19.1989 20.75 19.3897 20.671 19.5303 20.5303C19.671 20.3897 19.75 20.1989 19.75 20H19ZM5 20H4.25C4.25 20.4142 4.58579 20.75 5 20.75V20ZM12.75 11C12.75 10.5858 12.4142 10.25 12 10.25C11.5858 10.25 11.25 10.5858 11.25 11H12.75ZM11.25 17C11.25 17.4142 11.5858 17.75 12 17.75C12.4142 17.75 12.75 17.4142 12.75 17H11.25ZM9 13.25C8.58579 13.25 8.25 13.5858 8.25 14C8.25 14.4142 8.58579 14.75 9 14.75V13.25ZM15 14.75C15.4142 14.75 15.75 14.4142 15.75 14C15.75 13.5858 15.4142 13.25 15 13.25V14.75ZM11.4697 2.46967L4.46967 9.46967L5.53033 10.5303L12.5303 3.53033L11.4697 2.46967ZM19.5303 9.46967L12.5303 2.46967L11.4697 3.53033L18.4697 10.5303L19.5303 9.46967ZM18.25 10L18.25 20H19.75L19.75 10L18.25 10ZM19 19.25H5V20.75H19V19.25ZM5.75 20L5.75 10L4.25 10L4.25 20H5.75ZM11.25 11V17H12.75V11H11.25ZM9 14.75H15V13.25H9V14.75Z" fill="#001A72"/>
</svg>
