<svg width="24" height="24" viewBox="0 0 24 24" fill="none" xmlns="http://www.w3.org/2000/svg">
<path opacity="0.15" d="M7 6.89445V4H17V6.89445C17 7.2893 16.8831 7.67531 16.6641 8.00385L14.7396 10.8906C14.2917 11.5624 14.2917 12.4376 14.7396 13.1094L16.6641 15.9962C16.8831 16.3247 17 16.7107 17 17.1056V20H7V17.1056C7 16.7107 7.11688 16.3247 7.3359 15.9962L9.2604 13.1094C9.70827 12.4376 9.70827 11.5624 9.2604 10.8906L7.3359 8.00385C7.11688 7.67531 7 7.2893 7 6.89445Z" fill="#001A72"/>
<path d="M16.6641 8.00385L16.04 7.58782V7.58782L16.6641 8.00385ZM14.7396 10.8906L15.3636 11.3066L14.7396 10.8906ZM14.7396 13.1094L15.3636 12.6934L14.7396 13.1094ZM16.6641 15.9962L16.04 16.4122L16.6641 15.9962ZM7.3359 8.00385L7.95994 7.58782L7.95994 7.58782L7.3359 8.00385ZM9.2604 10.8906L8.63636 11.3066L9.2604 10.8906ZM9.2604 13.1094L8.63636 12.6934L9.2604 13.1094ZM7.3359 15.9962L6.71186 15.5801L7.3359 15.9962ZM19 20.75C19.4142 20.75 19.75 20.4142 19.75 20C19.75 19.5858 19.4142 19.25 19 19.25V20.75ZM5 19.25C4.58579 19.25 4.25 19.5858 4.25 20C4.25 20.4142 4.58579 20.75 5 20.75V19.25ZM19 4.75C19.4142 4.75 19.75 4.41421 19.75 4C19.75 3.58579 19.4142 3.25 19 3.25V4.75ZM5 3.25C4.58579 3.25 4.25 3.58579 4.25 4C4.25 4.41421 4.58579 4.75 5 4.75V3.25ZM16.04 7.58782L14.1155 10.4746L15.3636 11.3066L17.2881 8.41987L16.04 7.58782ZM14.1155 13.5254L16.04 16.4122L17.2881 15.5801L15.3636 12.6934L14.1155 13.5254ZM16.04 16.4122C16.1769 16.6175 16.25 16.8588 16.25 17.1056H17.75C17.75 16.5626 17.5893 16.0319 17.2881 15.5801L16.04 16.4122ZM16.25 6.89445C16.25 7.14123 16.1769 7.38249 16.04 7.58782L17.2881 8.41987C17.5893 7.96814 17.75 7.43737 17.75 6.89445H16.25ZM14.1155 10.4746C13.4997 11.3983 13.4997 12.6017 14.1155 13.5254L15.3636 12.6934C15.0837 12.2735 15.0837 11.7265 15.3636 11.3066L14.1155 10.4746ZM17.75 6.89445V4H16.25V6.89445H17.75ZM16.25 17.1056V20H17.75V17.1056H16.25ZM6.71186 8.41987L8.63636 11.3066L9.88444 10.4746L7.95994 7.58782L6.71186 8.41987ZM8.63636 12.6934L6.71186 15.5801L7.95994 16.4122L9.88444 13.5254L8.63636 12.6934ZM6.71186 15.5801C6.4107 16.0319 6.25 16.5626 6.25 17.1056H7.75C7.75 16.8588 7.82305 16.6175 7.95994 16.4122L6.71186 15.5801ZM6.25 6.89445C6.25 7.43737 6.4107 7.96814 6.71186 8.41987L7.95994 7.58782C7.82305 7.38249 7.75 7.14123 7.75 6.89445H6.25ZM8.63636 11.3066C8.91628 11.7265 8.91628 12.2735 8.63636 12.6934L9.88444 13.5254C10.5003 12.6017 10.5003 11.3983 9.88444 10.4746L8.63636 11.3066ZM7.75 6.89445V4H6.25V6.89445H7.75ZM6.25 17.1056V20H7.75V17.1056H6.25ZM17 20.75H19V19.25H17V20.75ZM5 20.75H7V19.25H5V20.75ZM7 20.75H17V19.25H7V20.75ZM17 4.75H19V3.25H17V4.75ZM5 4.75H7V3.25H5V4.75ZM7 4.75H17V3.25H7V4.75Z" fill="#001A72"/>
</svg>
