<svg width="24" height="24" viewBox="0 0 24 24" fill="none" xmlns="http://www.w3.org/2000/svg">
<path d="M8.46967 19.4697C8.17678 19.7626 8.17678 20.2374 8.46967 20.5303C8.76256 20.8232 9.23744 20.8232 9.53033 20.5303L8.46967 19.4697ZM14.4697 20.5303C14.7626 20.8232 15.2374 20.8232 15.5303 20.5303C15.8232 20.2374 15.8232 19.7626 15.5303 19.4697L14.4697 20.5303ZM9.53033 3.46967C9.23744 3.17678 8.76256 3.17678 8.46967 3.46967C8.17678 3.76256 8.17678 4.23744 8.46967 4.53033L9.53033 3.46967ZM15.5303 4.53033C15.8232 4.23744 15.8232 3.76256 15.5303 3.46967C15.2374 3.17678 14.7626 3.17678 14.4697 3.46967L15.5303 4.53033ZM12.75 3C12.75 2.58579 12.4142 2.25 12 2.25C11.5858 2.25 11.25 2.58579 11.25 3H12.75ZM11.25 21C11.25 21.4142 11.5858 21.75 12 21.75C12.4142 21.75 12.75 21.4142 12.75 21H11.25ZM16.7038 18.7922C16.811 19.1923 17.2222 19.4297 17.6223 19.3225C18.0224 19.2153 18.2599 18.8041 18.1527 18.404L16.7038 18.7922ZM20.6223 14.1264C21.0224 14.0192 21.2599 13.6079 21.1527 13.2078C21.0455 12.8077 20.6342 12.5703 20.2341 12.6775L20.6223 14.1264ZM3.37769 9.87364C2.97759 9.98085 2.74016 10.3921 2.84736 10.7922C2.95457 11.1923 3.36582 11.4297 3.76592 11.3225L3.37769 9.87364ZM7.29625 5.20782C7.18905 4.80772 6.77779 4.57028 6.37769 4.67749C5.97759 4.78469 5.74016 5.19595 5.84736 5.59604L7.29625 5.20782ZM4.58078 6.85048C4.22206 6.64337 3.76337 6.76628 3.55626 7.125C3.34915 7.48372 3.47206 7.94241 3.83078 8.14952L4.58078 6.85048ZM19.4192 17.1495C19.778 17.3566 20.2367 17.2337 20.4438 16.875C20.6509 16.5163 20.528 16.0576 20.1692 15.8505L19.4192 17.1495ZM20.2341 11.3225C20.6342 11.4297 21.0455 11.1922 21.1527 10.7921C21.2599 10.392 21.0224 9.98078 20.6223 9.87358L20.2341 11.3225ZM18.1527 5.59598C18.2599 5.19588 18.0224 4.78463 17.6223 4.67743C17.2222 4.57022 16.811 4.80766 16.7038 5.20776L18.1527 5.59598ZM5.84736 18.4039C5.74016 18.804 5.97759 19.2153 6.37769 19.3225C6.77779 19.4297 7.18905 19.1922 7.29625 18.7921L5.84736 18.4039ZM3.76592 12.6774C3.36582 12.5702 2.95457 12.8077 2.84736 13.2078C2.74016 13.6079 2.97759 14.0191 3.37769 14.1263L3.76592 12.6774ZM3.83083 15.8505C3.47211 16.0576 3.34922 16.5163 3.55633 16.875C3.76344 17.2337 4.22214 17.3566 4.58085 17.1495L3.83083 15.8505ZM20.1693 8.14953C20.528 7.94242 20.6509 7.48373 20.4438 7.12501C20.2367 6.76629 19.778 6.64337 19.4193 6.85047L20.1693 8.14953ZM11.4697 16.4697L8.46967 19.4697L9.53033 20.5303L12.5303 17.5303L11.4697 16.4697ZM11.4697 17.5303L14.4697 20.5303L15.5303 19.4697L12.5303 16.4697L11.4697 17.5303ZM12.5303 6.46967L9.53033 3.46967L8.46967 4.53033L11.4697 7.53033L12.5303 6.46967ZM12.5303 7.53033L15.5303 4.53033L14.4697 3.46967L11.4697 6.46967L12.5303 7.53033ZM11.25 7V12H12.75V7H11.25ZM11.25 12V17H12.75V12H11.25ZM11.25 3V7H12.75V3H11.25ZM11.25 17V21H12.75V17H11.25ZM15.6057 14.6941L16.7038 18.7922L18.1527 18.404L17.0546 14.3059L15.6057 14.6941ZM16.5243 15.2245L20.6223 14.1264L20.2341 12.6775L16.136 13.7756L16.5243 15.2245ZM7.47577 8.77556L3.37769 9.87364L3.76592 11.3225L7.864 10.2245L7.47577 8.77556ZM8.39433 9.30589L7.29625 5.20782L5.84736 5.59604L6.94544 9.69412L8.39433 9.30589ZM7.29489 10.1495L11.625 12.6495L12.375 11.3505L8.04489 8.85049L7.29489 10.1495ZM11.625 12.6495L15.9551 15.1495L16.7051 13.8505L12.375 11.3505L11.625 12.6495ZM3.83078 8.14952L7.29488 10.1495L8.04489 8.85049L4.58078 6.85048L3.83078 8.14952ZM15.9551 15.1495L19.4192 17.1495L20.1692 15.8505L16.7051 13.8505L15.9551 15.1495ZM16.136 10.2244L20.2341 11.3225L20.6223 9.87358L16.5243 8.7755L16.136 10.2244ZM17.0546 9.69406L18.1527 5.59598L16.7038 5.20776L15.6057 9.30583L17.0546 9.69406ZM6.94544 14.3058L5.84736 18.4039L7.29625 18.7921L8.39433 14.6941L6.94544 14.3058ZM7.864 13.7755L3.76592 12.6774L3.37769 14.1263L7.47577 15.2244L7.864 13.7755ZM8.04488 15.1495L12.375 12.6495L11.625 11.3505L7.29489 13.8504L8.04488 15.1495ZM12.375 12.6495L16.7051 10.1495L15.9551 8.85043L11.625 11.3505L12.375 12.6495ZM4.58085 17.1495L8.0449 15.1495L7.29487 13.8504L3.83083 15.8505L4.58085 17.1495ZM16.7051 10.1495L20.1693 8.14953L19.4193 6.85047L15.9552 8.85042L16.7051 10.1495Z" fill="#001A72"/>
</svg>
