<svg width="24" height="24" viewBox="0 0 24 24" fill="none" xmlns="http://www.w3.org/2000/svg">
<path opacity="0.15" d="M17 16C17 18.7614 14.7614 21 12 21C9.23858 21 7 18.7614 7 16C7 13.2386 9.23858 11 12 11C14.7614 11 17 13.2386 17 16Z" fill="#001A72"/>
<path d="M12 3L12.5303 2.46967C12.2374 2.17678 11.7626 2.17678 11.4697 2.46967L12 3ZM15.4697 7.53033C15.7626 7.82322 16.2374 7.82322 16.5303 7.53033C16.8232 7.23744 16.8232 6.76256 16.5303 6.46967L15.4697 7.53033ZM7.46967 6.46967C7.17678 6.76256 7.17678 7.23744 7.46967 7.53033C7.76256 7.82322 8.23744 7.82322 8.53033 7.53033L7.46967 6.46967ZM16.25 16C16.25 18.3472 14.3472 20.25 12 20.25V21.75C15.1756 21.75 17.75 19.1756 17.75 16H16.25ZM12 20.25C9.65279 20.25 7.75 18.3472 7.75 16H6.25C6.25 19.1756 8.82436 21.75 12 21.75V20.25ZM7.75 16C7.75 13.6528 9.65279 11.75 12 11.75V10.25C8.82436 10.25 6.25 12.8244 6.25 16H7.75ZM12 11.75C14.3472 11.75 16.25 13.6528 16.25 16H17.75C17.75 12.8244 15.1756 10.25 12 10.25V11.75ZM12.75 11V3H11.25V11H12.75ZM11.4697 3.53033L15.4697 7.53033L16.5303 6.46967L12.5303 2.46967L11.4697 3.53033ZM11.4697 2.46967L7.46967 6.46967L8.53033 7.53033L12.5303 3.53033L11.4697 2.46967Z" fill="#001A72"/>
</svg>
