<svg width="24" height="24" viewBox="0 0 24 24" fill="none" xmlns="http://www.w3.org/2000/svg">
<path opacity="0.2" fill-rule="evenodd" clip-rule="evenodd" d="M3.11111 6C2.49746 6 2 6.53726 2 7.2V16.8C2 17.4627 2.49746 18 3.11111 18H20.8889C21.5025 18 22 17.4627 22 16.8V7.2C22 6.53726 21.5025 6 20.8889 6H3.11111ZM12 15C13.5341 15 14.7778 13.6569 14.7778 12C14.7778 10.3431 13.5341 9 12 9C10.4659 9 9.22222 10.3431 9.22222 12C9.22222 13.6569 10.4659 15 12 15Z" fill="#001A72"/>
<path d="M6.75 9.5C6.75 9.08579 6.41421 8.75 6 8.75C5.58579 8.75 5.25 9.08579 5.25 9.5H6.75ZM5.25 14.5C5.25 14.9142 5.58579 15.25 6 15.25C6.41421 15.25 6.75 14.9142 6.75 14.5H5.25ZM18.75 9.5C18.75 9.08579 18.4142 8.75 18 8.75C17.5858 8.75 17.25 9.08579 17.25 9.5H18.75ZM17.25 14.5C17.25 14.9142 17.5858 15.25 18 15.25C18.4142 15.25 18.75 14.9142 18.75 14.5H17.25ZM3.11111 6.75H20.8889V5.25H3.11111V6.75ZM21.25 7.2V16.8H22.75V7.2H21.25ZM20.8889 17.25H3.11111V18.75H20.8889V17.25ZM2.75 16.8V7.2H1.25V16.8H2.75ZM3.11111 17.25C2.96498 17.25 2.75 17.1039 2.75 16.8H1.25C1.25 17.8216 2.02994 18.75 3.11111 18.75V17.25ZM21.25 16.8C21.25 17.1039 21.035 17.25 20.8889 17.25V18.75C21.9701 18.75 22.75 17.8216 22.75 16.8H21.25ZM20.8889 6.75C21.035 6.75 21.25 6.89607 21.25 7.2H22.75C22.75 6.17844 21.9701 5.25 20.8889 5.25V6.75ZM3.11111 5.25C2.02994 5.25 1.25 6.17844 1.25 7.2H2.75C2.75 6.89607 2.96498 6.75 3.11111 6.75V5.25ZM5.25 9.5V14.5H6.75V9.5H5.25ZM13.75 12C13.75 12.9665 12.9665 13.75 12 13.75V15.25C13.7949 15.25 15.25 13.7949 15.25 12H13.75ZM12 13.75C11.0335 13.75 10.25 12.9665 10.25 12H8.75C8.75 13.7949 10.2051 15.25 12 15.25V13.75ZM10.25 12C10.25 11.0335 11.0335 10.25 12 10.25V8.75C10.2051 8.75 8.75 10.2051 8.75 12H10.25ZM12 10.25C12.9665 10.25 13.75 11.0335 13.75 12H15.25C15.25 10.2051 13.7949 8.75 12 8.75V10.25ZM17.25 9.5V14.5H18.75V9.5H17.25Z" fill="#001A72"/>
</svg>
