<svg width="24" height="24" viewBox="0 0 24 24" fill="none" xmlns="http://www.w3.org/2000/svg">
<g opacity="0.15">
<path d="M9 17.5C9 18.8807 7.88071 20 6.5 20C5.11929 20 4 18.8807 4 17.5C4 16.1193 5.11929 15 6.5 15C7.88071 15 9 16.1193 9 17.5Z" fill="#001A72"/>
<path d="M20 16.5C20 17.8807 18.8807 19 17.5 19C16.1193 19 15 17.8807 15 16.5C15 15.1193 16.1193 14 17.5 14C18.8807 14 20 15.1193 20 16.5Z" fill="#001A72"/>
</g>
<path d="M9 6L8.80266 5.27643C8.47637 5.36542 8.25 5.66179 8.25 6H9ZM20 3H20.75C20.75 2.76625 20.641 2.54586 20.4552 2.40397C20.2695 2.26208 20.0282 2.21492 19.8027 2.27643L20 3ZM9.75 17.5V6H8.25V17.5H9.75ZM9.19734 6.72357L20.1973 3.72357L19.8027 2.27643L8.80266 5.27643L9.19734 6.72357ZM19.25 3V16.5H20.75V3H19.25ZM8.25 17.5C8.25 18.4665 7.4665 19.25 6.5 19.25V20.75C8.29493 20.75 9.75 19.2949 9.75 17.5H8.25ZM6.5 19.25C5.5335 19.25 4.75 18.4665 4.75 17.5H3.25C3.25 19.2949 4.70507 20.75 6.5 20.75V19.25ZM4.75 17.5C4.75 16.5335 5.5335 15.75 6.5 15.75V14.25C4.70507 14.25 3.25 15.7051 3.25 17.5H4.75ZM6.5 15.75C7.4665 15.75 8.25 16.5335 8.25 17.5H9.75C9.75 15.7051 8.29493 14.25 6.5 14.25V15.75ZM19.25 16.5C19.25 17.4665 18.4665 18.25 17.5 18.25V19.75C19.2949 19.75 20.75 18.2949 20.75 16.5H19.25ZM17.5 18.25C16.5335 18.25 15.75 17.4665 15.75 16.5H14.25C14.25 18.2949 15.7051 19.75 17.5 19.75V18.25ZM15.75 16.5C15.75 15.5335 16.5335 14.75 17.5 14.75V13.25C15.7051 13.25 14.25 14.7051 14.25 16.5H15.75ZM17.5 14.75C18.4665 14.75 19.25 15.5335 19.25 16.5H20.75C20.75 14.7051 19.2949 13.25 17.5 13.25V14.75Z" fill="#001A72"/>
</svg>
