<svg width="24" height="24" viewBox="0 0 24 24" fill="none" xmlns="http://www.w3.org/2000/svg">
<path opacity="0.15" d="M20.9994 16.4767V19.1864C21.0036 20.2223 20.0722 21.0873 19.0264 20.9929C10 21 3 13.935 3.00706 4.96919C2.91287 3.92895 3.77358 3.00106 4.80811 3.00009H7.52325C7.96247 2.99577 8.38828 3.151 8.72131 3.43684C9.66813 4.24949 10.2771 7.00777 10.0428 8.10428C9.85987 8.96036 8.9969 9.55929 8.41019 10.1448C9.69858 12.4062 11.5746 14.2785 13.8405 15.5644C14.4272 14.9788 15.0273 14.1176 15.8851 13.935C16.9855 13.7008 19.7615 14.3106 20.5709 15.264C20.8579 15.6021 21.0104 16.0337 20.9994 16.4767Z" fill="#001A72"/>
<path d="M20.9994 16.4767L20.2496 16.458C20.2495 16.4642 20.2494 16.4705 20.2494 16.4767H20.9994ZM20.9994 19.1864H20.2494L20.2494 19.1895L20.9994 19.1864ZM4.80811 3.00009V2.25009L4.8074 2.25009L4.80811 3.00009ZM7.52325 3.00009V3.75012L7.53062 3.75005L7.52325 3.00009ZM8.72131 3.43684L8.23284 4.00596V4.00596L8.72131 3.43684ZM8.41019 10.1448L7.88039 9.61399C7.64106 9.85285 7.59115 10.2223 7.75854 10.5161L8.41019 10.1448ZM13.8405 15.5644L13.4703 16.2167C13.7635 16.383 14.1317 16.3334 14.3703 16.0952L13.8405 15.5644ZM20.5709 15.264L21.1426 14.7786V14.7786L20.5709 15.264ZM10.0428 8.10428L10.7763 8.26101L10.0428 8.10428ZM15.8851 13.935L16.0412 14.6686L15.8851 13.935ZM19.0264 20.9929L19.0938 20.246C19.0712 20.2439 19.0485 20.2429 19.0258 20.2429L19.0264 20.9929ZM3.00706 4.96919L3.75706 4.96978C3.75708 4.947 3.75606 4.92424 3.75401 4.90155L3.00706 4.96919ZM14.6436 5.76388C14.2371 5.68456 13.8432 5.94983 13.7639 6.35638C13.6846 6.76293 13.9498 7.1568 14.3564 7.23612L14.6436 5.76388ZM16.7639 9.64362C16.8432 10.0502 17.2371 10.3154 17.6436 10.2361C18.0502 10.1568 18.3154 9.76293 18.2361 9.35638L16.7639 9.64362ZM15.0828 2.25459C14.6711 2.20885 14.3003 2.50551 14.2546 2.91719C14.2089 3.32887 14.5055 3.69968 14.9172 3.74541L15.0828 2.25459ZM19 5L19.53 4.46934L19 5ZM20.2547 9.08375C20.3009 9.49537 20.6721 9.79156 21.0837 9.74531C21.4954 9.69906 21.7916 9.32788 21.7453 8.91625L20.2547 9.08375ZM20.2494 16.4767V19.1864H21.7494V16.4767H20.2494ZM4.80811 3.75009H7.52325V2.25009H4.80811V3.75009ZM7.53062 3.75005C7.78828 3.74752 8.03785 3.8386 8.23284 4.00596L9.20979 2.86772C8.73872 2.46341 8.13667 2.24403 7.51588 2.25012L7.53062 3.75005ZM7.75854 10.5161C9.11382 12.8949 11.0872 14.8643 13.4703 16.2167L14.2106 14.9121C12.0621 13.6928 10.2833 11.9175 9.06185 9.77357L7.75854 10.5161ZM19.9991 15.7494C20.167 15.9472 20.2561 16.1994 20.2496 16.458L21.7492 16.4953C21.7648 15.868 21.5488 15.257 21.1426 14.7786L19.9991 15.7494ZM8.23284 4.00596C8.35543 4.11118 8.51653 4.32916 8.68363 4.67844C8.84491 5.01557 8.98754 5.42365 9.09912 5.85282C9.3316 6.74707 9.38943 7.57289 9.30937 7.94755L10.7763 8.26101C10.9305 7.53916 10.801 6.43759 10.5509 5.47541C10.4211 4.97637 10.2486 4.47397 10.0368 4.0311C9.83069 3.60038 9.56061 3.16883 9.20979 2.86772L8.23284 4.00596ZM16.0412 14.6686C16.4183 14.5883 17.2499 14.6466 18.1485 14.8801C18.5799 14.9922 18.9897 15.1355 19.3278 15.2975C19.6782 15.4655 19.8953 15.6272 19.9991 15.7494L21.1426 14.7786C20.8417 14.4242 20.4084 14.1521 19.9762 13.9449C19.5317 13.7318 19.027 13.5585 18.5257 13.4283C17.5588 13.177 16.4523 13.0475 15.7289 13.2014L16.0412 14.6686ZM14.3703 16.0952C14.532 15.9338 14.6946 15.7535 14.8396 15.5953C14.991 15.4303 15.1317 15.2798 15.2753 15.1446C15.5686 14.8684 15.8112 14.7175 16.0412 14.6686L15.7289 13.2014C15.1012 13.335 14.6149 13.7061 14.2469 14.0526C14.0599 14.2287 13.887 14.4147 13.7341 14.5815C13.5748 14.7552 13.4423 14.9021 13.3107 15.0335L14.3703 16.0952ZM9.30937 7.94755C9.26052 8.17614 9.10977 8.41795 8.83294 8.71075C8.69747 8.85403 8.54667 8.99453 8.38127 9.1456C8.22279 9.29036 8.0421 9.45259 7.88039 9.61399L8.94 10.6757C9.07164 10.5443 9.21884 10.4121 9.39289 10.2531C9.56004 10.1005 9.74642 9.92793 9.9229 9.74128C10.27 9.3742 10.6422 8.8885 10.7763 8.26101L9.30937 7.94755ZM19.0258 20.2429C10.4162 20.2497 3.75032 13.523 3.75706 4.96978L2.25706 4.96859C2.24968 14.3469 9.58379 21.7503 19.027 21.7429L19.0258 20.2429ZM20.2494 19.1895C20.2518 19.7851 19.6976 20.3004 19.0938 20.246L18.959 21.7399C20.4468 21.8741 21.7554 20.6595 21.7494 19.1834L20.2494 19.1895ZM3.75401 4.90155C3.7 4.30506 4.20998 3.75065 4.80881 3.75009L4.8074 2.25009C3.33717 2.25147 2.12575 3.55284 2.26012 5.03682L3.75401 4.90155ZM14.3564 7.23612C14.9878 7.35931 15.5701 7.63076 15.9697 8.03033L17.0303 6.96967C16.3677 6.30708 15.4866 5.92834 14.6436 5.76388L14.3564 7.23612ZM15.9697 8.03033C16.3692 8.4299 16.6407 9.01224 16.7639 9.64362L18.2361 9.35638C18.0717 8.51344 17.6929 7.63226 17.0303 6.96967L15.9697 8.03033ZM14.9172 3.74541C16.2556 3.8941 17.4818 4.54368 18.47 5.53066L19.53 4.46934C18.3376 3.27846 16.8075 2.44618 15.0828 2.25459L14.9172 3.74541ZM18.47 5.53066C19.4567 6.51616 20.1041 7.74372 20.2547 9.08375L21.7453 8.91625C21.5518 7.19365 20.7239 5.6617 19.53 4.46934L18.47 5.53066Z" fill="#001A72"/>
</svg>
