<svg width="24" height="24" viewBox="0 0 24 24" fill="none" xmlns="http://www.w3.org/2000/svg">
<path opacity="0.15" d="M16 4.00002L20 8.00002L15 17L7 9.00002L16 4.00002Z" fill="#001A72"/>
<path d="M16 4.00002L16.5303 3.46968C16.2935 3.2329 15.9285 3.18177 15.6358 3.3444L16 4.00002ZM20 8.00002L20.6556 8.36425C20.8182 8.07153 20.7671 7.70647 20.5303 7.46969L20 8.00002ZM15 17L14.4697 17.5303C14.6361 17.6967 14.8709 17.7754 15.104 17.7428C15.3371 17.7101 15.5413 17.57 15.6556 17.3642L15 17ZM7 9.00002L6.63577 8.3444C6.43004 8.45869 6.28989 8.66292 6.25725 8.89599C6.22461 9.12906 6.30326 9.36393 6.46967 9.53035L7 9.00002ZM11.5303 13.5303C11.8232 13.2374 11.8232 12.7625 11.5303 12.4696C11.2374 12.1767 10.7626 12.1767 10.4697 12.4696L11.5303 13.5303ZM3.46967 19.4696C3.17678 19.7625 3.17678 20.2374 3.46967 20.5303C3.76256 20.8232 4.23744 20.8232 4.53033 20.5303L3.46967 19.4696ZM15.4697 4.53035L19.4697 8.53035L20.5303 7.46969L16.5303 3.46968L15.4697 4.53035ZM19.3444 7.63578L14.3444 16.6358L15.6556 17.3642L20.6556 8.36425L19.3444 7.63578ZM15.5303 16.4697L7.53033 8.46969L6.46967 9.53035L14.4697 17.5303L15.5303 16.4697ZM7.36423 9.65563L16.3642 4.65563L15.6358 3.3444L6.63577 8.3444L7.36423 9.65563ZM10.4697 12.4696L3.46967 19.4696L4.53033 20.5303L11.5303 13.5303L10.4697 12.4696Z" fill="#001A72"/>
</svg>
