<svg width="24" height="24" viewBox="0 0 24 24" fill="none" xmlns="http://www.w3.org/2000/svg">
<path opacity="0.15" d="M20 12C20 9.87827 19.1571 7.84344 17.6569 6.34315C16.1566 4.84285 14.1217 4 12 4C9.87827 4 7.84344 4.84285 6.34315 6.34315C4.84286 7.84344 4 9.87827 4 12L12 12H20Z" fill="#001A72"/>
<path d="M11.25 21C11.25 21.4142 11.5858 21.75 12 21.75C12.4142 21.75 12.75 21.4142 12.75 21H11.25ZM20 12V12.75C20.4142 12.75 20.75 12.4142 20.75 12H20ZM17.6569 6.34315L17.1265 6.87348L17.6569 6.34315ZM6.34315 6.34315L6.87348 6.87348L6.34315 6.34315ZM4 12H3.25C3.25 12.4142 3.58579 12.75 4 12.75L4 12ZM12.75 3C12.75 2.58579 12.4142 2.25 12 2.25C11.5858 2.25 11.25 2.58579 11.25 3H12.75ZM11.25 12V21H12.75V12H11.25ZM20.75 12C20.75 9.67936 19.8281 7.45376 18.1872 5.81282L17.1265 6.87348C18.4862 8.23311 19.25 10.0772 19.25 12H20.75ZM18.1872 5.81282C16.5462 4.17187 14.3206 3.25 12 3.25V4.75C13.9228 4.75 15.7669 5.51384 17.1265 6.87348L18.1872 5.81282ZM12 3.25C9.67936 3.25 7.45376 4.17187 5.81282 5.81281L6.87348 6.87348C8.23312 5.51384 10.0772 4.75 12 4.75V3.25ZM5.81282 5.81281C4.17187 7.45376 3.25 9.67935 3.25 12H4.75C4.75 10.0772 5.51384 8.23311 6.87348 6.87348L5.81282 5.81281ZM4 12.75L12 12.75V11.25L4 11.25L4 12.75ZM12 12.75H20V11.25H12V12.75ZM11.25 3V4H12.75V3H11.25Z" fill="#001A72"/>
</svg>
