<svg width="24" height="24" viewBox="0 0 24 24" fill="none" xmlns="http://www.w3.org/2000/svg">
<path opacity="0.15" d="M21 12C21 16.9706 16.9706 21 12 21C7.02944 21 3 16.9706 3 12C3 7.02944 7.02944 3 12 3C16.9706 3 21 7.02944 21 12Z" fill="#001A72"/>
<path d="M16.319 13.3143C16.4926 13.6904 16.9382 13.8545 17.3143 13.681C17.6904 13.5074 17.8545 13.0618 17.681 12.6857L16.319 13.3143ZM14.7576 10.6333L15.1121 9.97238L14.7576 10.6333ZM11.4994 10.0495L11.6009 10.7926L11.4994 10.0495ZM6.50747 12.253C6.19509 12.525 6.16237 12.9988 6.43439 13.3111C6.70641 13.6235 7.18016 13.6562 7.49253 13.3842L6.50747 12.253ZM7.75 10C7.75 9.58579 7.41421 9.25 7 9.25C6.58579 9.25 6.25 9.58579 6.25 10H7.75ZM7 13H6.25C6.25 13.4142 6.58579 13.75 7 13.75V13ZM10 13.75C10.4142 13.75 10.75 13.4142 10.75 13C10.75 12.5858 10.4142 12.25 10 12.25V13.75ZM17.681 12.6857C17.1481 11.531 16.245 10.5801 15.1121 9.97238L14.4031 11.2942C15.2544 11.7509 15.9253 12.4612 16.319 13.3143L17.681 12.6857ZM15.1121 9.97238C13.9795 9.36487 12.6763 9.13186 11.398 9.30638L11.6009 10.7926C12.5677 10.6606 13.5514 10.8374 14.4031 11.2942L15.1121 9.97238ZM11.398 9.30638C9.28586 9.59473 7.80923 11.1194 6.50747 12.253L7.49253 13.3842C8.96291 12.1038 10.0437 11.0052 11.6009 10.7926L11.398 9.30638ZM6.25 10V13H7.75V10H6.25ZM7 13.75H10V12.25H7V13.75ZM20.25 12C20.25 16.5563 16.5563 20.25 12 20.25V21.75C17.3848 21.75 21.75 17.3848 21.75 12H20.25ZM12 20.25C7.44365 20.25 3.75 16.5563 3.75 12H2.25C2.25 17.3848 6.61522 21.75 12 21.75V20.25ZM3.75 12C3.75 7.44365 7.44365 3.75 12 3.75V2.25C6.61522 2.25 2.25 6.61522 2.25 12H3.75ZM12 3.75C16.5563 3.75 20.25 7.44365 20.25 12H21.75C21.75 6.61522 17.3848 2.25 12 2.25V3.75Z" fill="#001A72"/>
</svg>
