<svg width="24" height="24" viewBox="0 0 24 24" fill="none" xmlns="http://www.w3.org/2000/svg">
<path opacity="0.15" d="M12 11C13.6569 11 15 9.65685 15 8C15 6.34315 13.6569 5 12 5C10.3431 5 9 6.34315 9 8C9 9.65685 10.3431 11 12 11Z" fill="#001A72"/>
<path d="M1 19H0.25C0.25 19.4142 0.585786 19.75 1 19.75L1 19ZM3 19.75C3.41421 19.75 3.75 19.4142 3.75 19C3.75 18.5858 3.41421 18.25 3 18.25V19.75ZM4.18694 14.8524C4.58808 14.7491 4.82957 14.3402 4.72633 13.9391C4.62308 13.5379 4.2142 13.2964 3.81306 13.3997L4.18694 14.8524ZM5.75007 11.5364C6.1406 11.6745 6.5691 11.4698 6.70713 11.0792C6.84516 10.6887 6.64047 10.2602 6.24993 10.1222L5.75007 11.5364ZM6.24993 5.87783C6.64047 5.73979 6.84516 5.3113 6.70713 4.92077C6.5691 4.53023 6.1406 4.32554 5.75007 4.46357L6.24993 5.87783ZM23 19V19.75C23.4142 19.75 23.75 19.4142 23.75 19H23ZM21 18.25C20.5858 18.25 20.25 18.5858 20.25 19C20.25 19.4142 20.5858 19.75 21 19.75V18.25ZM20.1869 13.3997C19.7858 13.2964 19.3769 13.5379 19.2737 13.9391C19.1704 14.3402 19.4119 14.7491 19.8131 14.8524L20.1869 13.3997ZM18.2499 4.46357C17.8594 4.32554 17.4309 4.53023 17.2929 4.92077C17.1548 5.3113 17.3595 5.73979 17.7501 5.87783L18.2499 4.46357ZM17.7501 10.1222C17.3595 10.2602 17.1548 10.6887 17.2929 11.0792C17.4309 11.4698 17.8594 11.6745 18.2499 11.5364L17.7501 10.1222ZM18 19V19.75C18.4142 19.75 18.75 19.4142 18.75 19H18ZM6 19H5.25C5.25 19.4142 5.58579 19.75 6 19.75V19ZM0.25 18V19H1.75V18H0.25ZM1 19.75H3V18.25H1V19.75ZM1.75 18C1.75 16.4867 2.78504 15.2132 4.18694 14.8524L3.81306 13.3997C1.76451 13.927 0.25 15.7857 0.25 18H1.75ZM3.25 7.99999C3.25 9.63394 4.29459 11.022 5.75007 11.5364L6.24993 10.1222C5.37503 9.81292 4.75 8.97849 4.75 7.99999H3.25ZM5.75007 4.46357C4.29459 4.97801 3.25 6.36605 3.25 7.99999H4.75C4.75 7.0215 5.37503 6.18706 6.24993 5.87783L5.75007 4.46357ZM22.25 18V19H23.75V18H22.25ZM23 18.25H21V19.75H23V18.25ZM23.75 18C23.75 15.7857 22.2355 13.927 20.1869 13.3997L19.8131 14.8524C21.215 15.2132 22.25 16.4867 22.25 18H23.75ZM17.7501 5.87783C18.625 6.18706 19.25 7.0215 19.25 7.99999H20.75C20.75 6.36605 19.7054 4.97801 18.2499 4.46357L17.7501 5.87783ZM19.25 7.99999C19.25 8.97849 18.625 9.81292 17.7501 10.1222L18.2499 11.5364C19.7054 11.022 20.75 9.63394 20.75 7.99999H19.25ZM10 14.75H14V13.25H10V14.75ZM17.25 18V19H18.75V18H17.25ZM6.75 19V18H5.25V19H6.75ZM14 14.75C15.7949 14.75 17.25 16.2051 17.25 18H18.75C18.75 15.3766 16.6234 13.25 14 13.25V14.75ZM10 13.25C7.37665 13.25 5.25 15.3766 5.25 18H6.75C6.75 16.2051 8.20507 14.75 10 14.75V13.25ZM18 18.25H6V19.75H18V18.25ZM14.25 8C14.25 9.24264 13.2426 10.25 12 10.25V11.75C14.0711 11.75 15.75 10.0711 15.75 8H14.25ZM12 10.25C10.7574 10.25 9.75 9.24264 9.75 8H8.25C8.25 10.0711 9.92893 11.75 12 11.75V10.25ZM9.75 8C9.75 6.75736 10.7574 5.75 12 5.75V4.25C9.92893 4.25 8.25 5.92893 8.25 8H9.75ZM12 5.75C13.2426 5.75 14.25 6.75736 14.25 8H15.75C15.75 5.92893 14.0711 4.25 12 4.25V5.75Z" fill="#001A72"/>
</svg>
