<svg width="24" height="24" viewBox="0 0 24 24" fill="none" xmlns="http://www.w3.org/2000/svg">
<path opacity="0.15" d="M9 11C11.2091 11 13 9.20914 13 7C13 4.79086 11.2091 3 9 3C6.79086 3 5 4.79086 5 7C5 9.20914 6.79086 11 9 11Z" fill="#001A72"/>
<path d="M23 21V21.75C23.4142 21.75 23.75 21.4142 23.75 21H23ZM19 14.25C18.5858 14.25 18.25 14.5858 18.25 15C18.25 15.4142 18.5858 15.75 19 15.75V14.25ZM21 20.25C20.5858 20.25 20.25 20.5858 20.25 21C20.25 21.4142 20.5858 21.75 21 21.75V20.25ZM15.8131 10.1477C15.4119 10.2509 15.1704 10.6598 15.2737 11.0609C15.3769 11.4621 15.7858 11.7036 16.1869 11.6003L15.8131 10.1477ZM16.1869 2.39969C15.7858 2.29645 15.3769 2.53794 15.2737 2.93908C15.1704 3.34022 15.4119 3.7491 15.8131 3.85235L16.1869 2.39969ZM17 21V21.75C17.4142 21.75 17.75 21.4142 17.75 21H17ZM1 21H0.25C0.25 21.4142 0.585786 21.75 1 21.75L1 21ZM22.25 19V21H23.75V19H22.25ZM23.75 19C23.75 16.3766 21.6234 14.25 19 14.25V15.75C20.7949 15.75 22.25 17.2051 22.25 19H23.75ZM23 20.25H21V21.75H23V20.25ZM18.25 7C18.25 8.51335 17.215 9.78683 15.8131 10.1477L16.1869 11.6003C18.2355 11.0731 19.75 9.21434 19.75 7H18.25ZM15.8131 3.85235C17.215 4.21318 18.25 5.48666 18.25 7H19.75C19.75 4.78567 18.2355 2.92695 16.1869 2.39969L15.8131 3.85235ZM12.25 7C12.25 8.79493 10.7949 10.25 9 10.25V11.75C11.6234 11.75 13.75 9.62335 13.75 7H12.25ZM9 10.25C7.20507 10.25 5.75 8.79493 5.75 7H4.25C4.25 9.62335 6.37665 11.75 9 11.75V10.25ZM5.75 7C5.75 5.20507 7.20507 3.75 9 3.75V2.25C6.37665 2.25 4.25 4.37665 4.25 7H5.75ZM9 3.75C10.7949 3.75 12.25 5.20507 12.25 7H13.75C13.75 4.37665 11.6234 2.25 9 2.25V3.75ZM5 15.75H13V14.25H5V15.75ZM16.25 19V21H17.75V19H16.25ZM1.75 21V19H0.25V21H1.75ZM13 15.75C14.7949 15.75 16.25 17.2051 16.25 19H17.75C17.75 16.3766 15.6234 14.25 13 14.25V15.75ZM5 14.25C2.37665 14.25 0.25 16.3766 0.25 19H1.75C1.75 17.2051 3.20507 15.75 5 15.75V14.25ZM17 20.25H1V21.75H17V20.25Z" fill="#001A72"/>
</svg>
