<svg width="24" height="24" viewBox="0 0 24 24" fill="none" xmlns="http://www.w3.org/2000/svg">
<g clip-path="url(#clip0_401_58960)">
<path opacity="0.3" d="M9.25 11H11.5V13H9.25V11ZM9.25 15H11.5V17H9.25V15ZM9.25 7H11.5V9H9.25V7ZM13.5 15H15.75V17H13.5V15ZM5 15H7.25V17H5V15ZM5 11H7.25V13H5V11ZM5 7H7.25V9H5V7ZM17.75 7H20V9H17.75V7ZM13.5 11H15.75V13H13.5V11ZM13.5 7H15.75V9H13.5V7ZM17.75 15H20V17H17.75V15ZM17.75 11H20V13H17.75V11Z" fill="black"/>
<path d="M3 5V19H22V5H3ZM7.25 17H5V15H7.25V17ZM7.25 13H5V11H7.25V13ZM7.25 9H5V7H7.25V9ZM11.5 17H9.25V15H11.5V17ZM11.5 13H9.25V11H11.5V13ZM11.5 9H9.25V7H11.5V9ZM15.75 17H13.5V15H15.75V17ZM15.75 13H13.5V11H15.75V13ZM15.75 9H13.5V7H15.75V9ZM20 17H17.75V15H20V17ZM20 13H17.75V11H20V13ZM20 9H17.75V7H20V9Z" fill="black"/>
</g>
<defs>
<clipPath id="clip0_401_58960">
<rect width="24" height="24" fill="white"/>
</clipPath>
</defs>
</svg>
