<svg width="24" height="24" viewBox="0 0 24 24" fill="none" xmlns="http://www.w3.org/2000/svg">
<g clip-path="url(#clip0_401_58748)">
<g opacity="0.3">
<path opacity="0.3" d="M9 11C10.1046 11 11 10.1046 11 9C11 7.89543 10.1046 7 9 7C7.89543 7 7 7.89543 7 9C7 10.1046 7.89543 11 9 11Z" fill="black"/>
<path opacity="0.3" d="M9 17C6.31 17 3.23 18.28 3 19H15C14.8 18.29 11.7 17 9 17Z" fill="black"/>
</g>
<path d="M9 13C11.21 13 13 11.21 13 9C13 6.79 11.21 5 9 5C6.79 5 5 6.79 5 9C5 11.21 6.79 13 9 13ZM9 7C10.1 7 11 7.9 11 9C11 10.1 10.1 11 9 11C7.9 11 7 10.1 7 9C7 7.9 7.9 7 9 7ZM9 15C6.33 15 1 16.34 1 19V21H17V19C17 16.34 11.67 15 9 15ZM3 19C3.22 18.28 6.31 17 9 17C11.7 17 14.8 18.29 15 19H3ZM16.76 5.36L15.08 7.05C15.92 8.23 15.92 9.76 15.08 10.94L16.76 12.63C18.78 10.61 18.78 7.56 16.76 5.36ZM20.07 2L18.44 3.63C21.21 6.65 21.21 11.19 18.44 14.37L20.07 16C23.97 12.11 23.98 6.05 20.07 2Z" fill="black"/>
</g>
<defs>
<clipPath id="clip0_401_58748">
<rect width="24" height="24" fill="white"/>
</clipPath>
</defs>
</svg>
