<svg width="24" height="24" viewBox="0 0 24 24" fill="none" xmlns="http://www.w3.org/2000/svg">
<g clip-path="url(#clip0_401_58303)">
<path opacity="0.3" d="M12 6C8.14 6 5 9.14 5 13C5 16.86 8.14 20 12 20C15.86 20 19 16.86 19 13C19 9.14 15.86 6 12 6ZM16 14H13V17H11V14H8V12H11V9H13V12H16V14Z" fill="black"/>
<path d="M17.337 1.81006L21.944 5.65506L20.664 7.19006L16.054 3.34706L17.337 1.81006ZM6.66301 1.81006L7.94501 3.34606L3.33701 7.19006L2.05701 5.65406L6.66301 1.81006ZM12 4.00006C7.03001 4.00006 3.00001 8.03006 3.00001 13.0001C3.00001 17.9701 7.03001 22.0001 12 22.0001C16.97 22.0001 21 17.9701 21 13.0001C21 8.03006 16.97 4.00006 12 4.00006ZM12 20.0001C8.14001 20.0001 5.00001 16.8601 5.00001 13.0001C5.00001 9.14006 8.14001 6.00006 12 6.00006C15.86 6.00006 19 9.14006 19 13.0001C19 16.8601 15.86 20.0001 12 20.0001ZM13 9.00006H11V12.0001H8.00001V14.0001H11V17.0001H13V14.0001H16V12.0001H13V9.00006Z" fill="black"/>
</g>
<defs>
<clipPath id="clip0_401_58303">
<rect width="24" height="24" fill="white"/>
</clipPath>
</defs>
</svg>
