<svg width="24" height="24" viewBox="0 0 24 24" fill="none" xmlns="http://www.w3.org/2000/svg">
<g clip-path="url(#clip0_401_59768)">
<path opacity="0.3" d="M12 3C7.01 3 3 7.01 3 12C3 16.99 7.01 21 12 21C16.99 21 21 16.99 21 12C21 7.01 16.99 3 12 3ZM12.54 19.8C12.19 20.07 11.75 20.07 11.39 19.8L4.2 12.58C3.93 12.22 3.93 11.78 4.2 11.42L11.39 4.2C11.74 3.93 12.18 3.93 12.54 4.2L19.73 11.42C20.09 11.69 20.09 12.22 19.73 12.58L12.54 19.8Z" fill="black"/>
<path d="M12 1C5.9 1 1 5.9 1 12C1 18.1 5.9 23 12 23C18.1 23 23 18.1 23 12C23 5.9 18.1 1 12 1ZM12 21C7.01 21 3 16.99 3 12C3 7.01 7.01 3 12 3C16.99 3 21 7.01 21 12C21 16.99 16.99 21 12 21Z" fill="black"/>
<path d="M19.7301 11.42L12.5401 4.2C12.1801 3.93 11.7401 3.93 11.3901 4.2L4.20006 11.42C3.93006 11.78 3.93006 12.22 4.20006 12.58L11.3901 19.8C11.7501 20.07 12.1901 20.07 12.5401 19.8L19.7301 12.58C20.0901 12.22 20.0901 11.69 19.7301 11.42ZM13.5001 14.5V12H10.0001V15H8.00006V11C8.00006 10.4 8.40006 10 9.00006 10H13.5001V7.5L17.0001 11L13.5001 14.5Z" fill="black"/>
</g>
<defs>
<clipPath id="clip0_401_59768">
<rect width="24" height="24" fill="white"/>
</clipPath>
</defs>
</svg>
