<svg width="24" height="24" viewBox="0 0 24 24" fill="none" xmlns="http://www.w3.org/2000/svg">
<g clip-path="url(#clip0_401_59694)">
<path opacity="0.3" d="M8.25 19H5V7.83L7 9.83V13.5C7 14.05 7.45 14.5 8 14.5H8.25V19ZM9.75 19V14.5H10C10.46 14.5 10.82 14.19 10.94 13.77L14.25 17.08V19H9.75ZM13 10.17V5H11V8.17L13 10.17ZM19 16.17V5H17V13.5C17 13.69 16.93 13.86 16.84 14.01L19 16.17Z" fill="black"/>
<path d="M21.19 21.1901L2.81001 2.81006L1.39001 4.22006L3.00001 5.83006V19.0001C3.00001 20.1001 3.90001 21.0001 5.00001 21.0001H18.17L19.78 22.6101L21.19 21.1901ZM8.25001 19.0001H5.00001V7.83006L7.00001 9.83006V13.5001C7.00001 14.0501 7.45001 14.5001 8.00001 14.5001H8.25001V19.0001ZM9.75001 19.0001V14.5001H10C10.46 14.5001 10.82 14.1901 10.94 13.7701L14.25 17.0801V19.0001H9.75001ZM11 8.17006L5.83001 3.00006H19C20.1 3.00006 21 3.90006 21 5.00006V18.1701L19 16.1701V5.00006H17V13.5001C17 13.6901 16.93 13.8601 16.84 14.0101L13 10.1701V5.00006H11V8.17006Z" fill="black"/>
</g>
<defs>
<clipPath id="clip0_401_59694">
<rect width="24" height="24" fill="white"/>
</clipPath>
</defs>
</svg>
