<svg width="24" height="24" viewBox="0 0 24 24" fill="none" xmlns="http://www.w3.org/2000/svg">
<g clip-path="url(#clip0_401_58199)">
<path opacity="0.3" d="M7 17H21V11H19V13H17V11H15V9H17V7H19V9H21V3H7V17ZM9 12H12V11H11C9.9 11 9 10.11 9 9V8C9 6.89 9.9 6 11 6H12C13.1 6 14 6.89 14 8V12C14 13.11 13.1 14 12 14H9V12Z" fill="black"/>
<path d="M19 21H3V5H1V21C1 22.1 1.9 23 3 23H19V21Z" fill="black"/>
<path opacity="0.3" d="M11 8H12V9H11V8Z" fill="black"/>
<path d="M12 6H11C9.9 6 9 6.89 9 8V9C9 10.11 9.9 11 11 11H12V12H9V14H12C13.1 14 14 13.11 14 12V8C14 6.89 13.1 6 12 6ZM12 9H11V8H12V9ZM21 1H7C5.9 1 5 1.9 5 3V17C5 18.1 5.9 19 7 19H21C22.1 19 23 18.1 23 17V3C23 1.9 22.1 1 21 1ZM21 9H19V7H17V9H15V11H17V13H19V11H21V17H7V3H21V9Z" fill="black"/>
</g>
<defs>
<clipPath id="clip0_401_58199">
<rect width="24" height="24" fill="white"/>
</clipPath>
</defs>
</svg>
