<svg width="24" height="24" viewBox="0 0 24 24" fill="none" xmlns="http://www.w3.org/2000/svg">
<g clip-path="url(#clip0_401_58814)">
<path d="M15.4499 16.5199L12.4399 13.5099C12.3299 13.3999 12.1999 13.3799 12.1299 13.3799C12.0599 13.3799 11.9299 13.3999 11.8199 13.5099L8.79991 16.5299C8.45991 16.8699 7.92991 17.4199 6.15991 17.4199L9.86991 21.1199C11.0399 22.2899 12.9399 22.2899 14.1099 21.1199L17.8299 17.4099C16.9199 17.4099 16.1599 17.2299 15.4499 16.5199Z" fill="black"/>
<path d="M8.79994 7.46994L11.8199 10.4899C11.8999 10.5699 12.0199 10.6199 12.1299 10.6199C12.2399 10.6199 12.3599 10.5699 12.4399 10.4899L15.4299 7.49994C16.1399 6.75994 16.9499 6.58994 17.8599 6.58994L14.1399 2.87994C12.9699 1.70994 11.0699 1.70994 9.89994 2.87994L6.18994 6.57994C7.94994 6.57994 8.48994 7.15994 8.79994 7.46994Z" fill="black"/>
<path d="M21.1099 9.84995L18.8599 7.58995H17.5999C17.0599 7.58995 16.5199 7.80995 16.1499 8.19995L13.1499 11.1999C12.8699 11.4799 12.4999 11.6199 12.1299 11.6199C11.7699 11.6199 11.3899 11.4699 11.1099 11.1999L8.08994 8.16995C7.70994 7.78995 7.18994 7.56995 6.63994 7.56995H5.16994L2.87994 9.86995C1.70994 11.0399 1.70994 12.9399 2.87994 14.1099L5.16994 16.4099H6.64994C7.18994 16.4099 7.70994 16.1899 8.09994 15.8099L11.1199 12.7899C11.3999 12.5099 11.7699 12.3699 12.1399 12.3699C12.5099 12.3699 12.8799 12.5099 13.1599 12.7899L16.1699 15.7999C16.5499 16.1799 17.0699 16.3999 17.6199 16.3999H18.8799L21.1299 14.1399C22.2999 12.9599 22.2999 11.0399 21.1099 9.84995Z" fill="black"/>
</g>
<defs>
<clipPath id="clip0_401_58814">
<rect width="24" height="24" fill="white"/>
</clipPath>
</defs>
</svg>
