<svg width="24" height="24" viewBox="0 0 24 24" fill="none" xmlns="http://www.w3.org/2000/svg">
<g clip-path="url(#clip0_401_59219)">
<path opacity="0.3" d="M12 4C7.59 4 4 7.59 4 12C4 16.41 7.59 20 12 20C12.28 20 12.5 19.78 12.5 19.5C12.5 19.34 12.42 19.22 12.36 19.15C11.95 18.69 11.73 18.1 11.73 17.5C11.73 16.12 12.85 15 14.23 15H16C18.21 15 20 13.21 20 11C20 7.14 16.41 4 12 4ZM6.5 13C5.67 13 5 12.33 5 11.5C5 10.67 5.67 10 6.5 10C7.33 10 8 10.67 8 11.5C8 12.33 7.33 13 6.5 13ZM9.5 9C8.67 9 8 8.33 8 7.5C8 6.67 8.67 6 9.5 6C10.33 6 11 6.67 11 7.5C11 8.33 10.33 9 9.5 9ZM14.5 9C13.67 9 13 8.33 13 7.5C13 6.67 13.67 6 14.5 6C15.33 6 16 6.67 16 7.5C16 8.33 15.33 9 14.5 9ZM19 11.5C19 12.33 18.33 13 17.5 13C16.67 13 16 12.33 16 11.5C16 10.67 16.67 10 17.5 10C18.33 10 19 10.67 19 11.5Z" fill="black"/>
<path d="M12 2C6.49 2 2 6.49 2 12C2 17.51 6.49 22 12 22C13.38 22 14.5 20.88 14.5 19.5C14.5 18.89 14.27 18.29 13.86 17.83C13.78 17.74 13.73 17.62 13.73 17.5C13.73 17.22 13.95 17 14.23 17H16C19.31 17 22 14.31 22 11C22 6.04 17.51 2 12 2ZM16 15H14.23C12.85 15 11.73 16.12 11.73 17.5C11.73 18.11 11.95 18.69 12.36 19.15C12.42 19.22 12.5 19.34 12.5 19.5C12.5 19.78 12.28 20 12 20C7.59 20 4 16.41 4 12C4 7.59 7.59 4 12 4C16.41 4 20 7.14 20 11C20 13.21 18.21 15 16 15Z" fill="black"/>
<path d="M6.5 13C7.32843 13 8 12.3284 8 11.5C8 10.6716 7.32843 10 6.5 10C5.67157 10 5 10.6716 5 11.5C5 12.3284 5.67157 13 6.5 13Z" fill="black"/>
<path d="M9.5 9C10.3284 9 11 8.32843 11 7.5C11 6.67157 10.3284 6 9.5 6C8.67157 6 8 6.67157 8 7.5C8 8.32843 8.67157 9 9.5 9Z" fill="black"/>
<path d="M14.5 9C15.3284 9 16 8.32843 16 7.5C16 6.67157 15.3284 6 14.5 6C13.6716 6 13 6.67157 13 7.5C13 8.32843 13.6716 9 14.5 9Z" fill="black"/>
<path d="M17.5 13C18.3284 13 19 12.3284 19 11.5C19 10.6716 18.3284 10 17.5 10C16.6716 10 16 10.6716 16 11.5C16 12.3284 16.6716 13 17.5 13Z" fill="black"/>
</g>
<defs>
<clipPath id="clip0_401_59219">
<rect width="24" height="24" fill="white"/>
</clipPath>
</defs>
</svg>
