<svg width="24" height="24" viewBox="0 0 24 24" fill="none" xmlns="http://www.w3.org/2000/svg">
<g clip-path="url(#clip0_401_58727)">
<path d="M15.5 11.5001C15.5 13.5001 13 15.0001 13 16.5001H11C11 15.0001 8.5 13.5001 8.5 11.5001C8.5 9.57005 10.07 8.00005 12 8.00005C13.93 8.00005 15.5 9.57005 15.5 11.5001ZM13 17.5001H11V19.0001H13V17.5001ZM22 12.0001C22 9.24005 20.88 6.74005 19.07 4.93005L18.01 5.99005C19.55 7.53005 20.5 9.66005 20.5 12.0001C20.5 14.3401 19.55 16.4701 18.01 18.0101L19.07 19.0701C20.88 17.2601 22 14.7601 22 12.0001ZM3.5 12.0001C3.5 9.66005 4.45 7.53005 5.99 5.99005L4.93 4.93005C3.12 6.74005 2 9.24005 2 12.0001C2 14.7601 3.12 17.2601 4.93 19.0701L5.99 18.0101C4.45 16.4701 3.5 14.3401 3.5 12.0001ZM17.5 12.0001C17.5 13.5201 16.88 14.8901 15.89 15.8901L16.95 16.9501C18.22 15.6801 19 13.9301 19 12.0001C19 10.0701 18.22 8.32005 16.95 7.05005L15.89 8.11005C16.88 9.11005 17.5 10.4801 17.5 12.0001ZM7.05 16.9501L8.11 15.8901C7.11 14.8901 6.5 13.5201 6.5 12.0001C6.5 10.4801 7.12 9.11005 8.11 8.11005L7.05 7.05005C5.78 8.32005 5 10.0701 5 12.0001C5 13.9301 5.78 15.6801 7.05 16.9501Z" fill="black"/>
</g>
<defs>
<clipPath id="clip0_401_58727">
<rect width="24" height="24" fill="white"/>
</clipPath>
</defs>
</svg>
