<svg width="24" height="24" viewBox="0 0 24 24" fill="none" xmlns="http://www.w3.org/2000/svg">
<g clip-path="url(#clip0_401_59127)">
<path opacity="0.3" d="M12 18V16.2C10.2 16.2 8.8 14.8 8.8 13C8.8 11.2 10.2 9.8 12 9.8V8C9.2 8 7 10.2 7 13C7 15.8 9.2 18 12 18ZM17 13C17 15.8 14.8 18 12 18V19H20V7H12V8C14.8 8 17 10.2 17 13Z" fill="black"/>
<path d="M4 21H20C21.1 21 22 20.1 22 19V7C22 5.9 21.1 5 20 5H16.8L15 3H9L7.2 5H4C2.9 5 2 5.9 2 7V19C2 20.1 2.9 21 4 21ZM12 8V7H20V19H12V18C9.2 18 7 15.8 7 13C7 10.2 9.2 8 12 8ZM15.2 13C15.2 14.8 13.8 16.2 12 16.2V18C14.8 18 17 15.8 17 13C17 10.2 14.8 8 12 8V9.8C13.8 9.8 15.2 11.2 15.2 13ZM8.8 13C8.8 14.8 10.2 16.2 12 16.2V9.8C10.2 9.8 8.8 11.2 8.8 13Z" fill="black"/>
</g>
<defs>
<clipPath id="clip0_401_59127">
<rect width="24" height="24" fill="white"/>
</clipPath>
</defs>
</svg>
