<svg width="24" height="24" viewBox="0 0 24 24" fill="none" xmlns="http://www.w3.org/2000/svg">
<g clip-path="url(#clip0_401_59707)">
<path d="M18 18.5V17.5C18 16.7 17.3 16 16.5 16H13V22H14.5V20H15.6L16.5 22H18L17.1 19.9C17.6 19.6 18 19.1 18 18.5ZM16.5 18.5H14.5V17.5H16.5V18.5ZM3.5 18H1.5V16H0V22H1.5V19.5H3.5V22H5V16H3.5V18ZM10 16H6.5V22H10C10.8 22 11.5 21.3 11.5 20.5V17.5C11.5 16.7 10.8 16 10 16ZM10 20.5H8V17.5H10V20.5ZM24 20H22V22H20.5V20H18.5V18.5H20.5V16.5H22V18.5H24V20ZM10.98 4.15001L9.42 2.59001C14.52 0.17001 19.83 5.48001 17.41 10.58L15.85 9.02001C16.66 6.06001 13.94 3.34001 10.98 4.15001ZM6.34 2.34001L4.93 3.76001L6.59 5.42001C4.17 10.52 9.48 15.83 14.58 13.41L16.24 15.07L17.65 13.66L6.34 2.34001ZM8.15 6.98001L13.02 11.85C10.06 12.66 7.34 9.94001 8.15 6.98001Z" fill="black"/>
</g>
<defs>
<clipPath id="clip0_401_59707">
<rect width="24" height="24" fill="white"/>
</clipPath>
</defs>
</svg>
