<svg width="24" height="24" viewBox="0 0 24 24" fill="none" xmlns="http://www.w3.org/2000/svg">
<g clip-path="url(#clip0_401_58255)">
<path opacity="0.3" d="M9 10C10.1046 10 11 9.10457 11 8C11 6.89543 10.1046 6 9 6C7.89543 6 7 6.89543 7 8C7 9.10457 7.89543 10 9 10Z" fill="black"/>
<path opacity="0.3" d="M9 16C6.3 16 3.2 17.29 3 18H15C14.78 17.28 11.69 16 9 16Z" fill="black"/>
<path d="M9 14C6.33 14 1 15.34 1 18V20H17V18C17 15.34 11.67 14 9 14ZM3 18C3.2 17.29 6.3 16 9 16C11.69 16 14.78 17.28 15 18H3Z" fill="black"/>
<path d="M20 10V7H18V10H15V12H18V15H20V12H23V10H20Z" fill="black"/>
<path d="M9 12C11.21 12 13 10.21 13 8C13 5.79 11.21 4 9 4C6.79 4 5 5.79 5 8C5 10.21 6.79 12 9 12ZM9 6C10.1 6 11 6.9 11 8C11 9.1 10.1 10 9 10C7.9 10 7 9.1 7 8C7 6.9 7.9 6 9 6Z" fill="black"/>
</g>
<defs>
<clipPath id="clip0_401_58255">
<rect width="24" height="24" fill="white"/>
</clipPath>
</defs>
</svg>
