<svg width="24" height="24" viewBox="0 0 24 24" fill="none" xmlns="http://www.w3.org/2000/svg">
<g clip-path="url(#clip0_401_58465)">
<path opacity="0.3" d="M8 6.83002L4 10.83V18H7V15H9V18H12V10.83L8 6.83002ZM9 13H7V11H9V13Z" fill="black"/>
<path d="M8 4L2 10V20H14V10L8 4ZM12 18H9V15H7V18H4V10.83L8 6.83L12 10.83V18ZM9 13H7V11H9V13ZM18 20V8.35L13.65 4H10.82L16 9.18V20H18ZM22 20V6.69L19.31 4H16.48L20 7.52V20H22Z" fill="black"/>
</g>
<defs>
<clipPath id="clip0_401_58465">
<rect width="24" height="24" fill="white"/>
</clipPath>
</defs>
</svg>
