<svg width="24" height="24" viewBox="0 0 24 24" fill="none" xmlns="http://www.w3.org/2000/svg">
<g clip-path="url(#clip0_401_59473)">
<path opacity="0.3" d="M7 17H21V3H7V17ZM11 11C11 9.89 11.9 9 13 9H15V7H11V5H15C16.1 5 17 5.89 17 7V9C17 10.11 16.1 11 15 11H13V13H17V15H11V11Z" fill="black"/>
<path d="M17 13H13V11H15C16.1 11 17 10.11 17 9V7C17 5.89 16.1 5 15 5H11V7H15V9H13C11.9 9 11 9.89 11 11V15H17V13ZM21 1H7C5.9 1 5 1.9 5 3V17C5 18.1 5.9 19 7 19H21C22.1 19 23 18.1 23 17V3C23 1.9 22.1 1 21 1ZM21 17H7V3H21V17ZM1 21C1 22.1 1.9 23 3 23H19V21H3V5H1V21Z" fill="black"/>
</g>
<defs>
<clipPath id="clip0_401_59473">
<rect width="24" height="24" fill="white"/>
</clipPath>
</defs>
</svg>
