<svg width="24" height="24" viewBox="0 0 24 24" fill="none" xmlns="http://www.w3.org/2000/svg">
<g clip-path="url(#clip0_401_59571)">
<path opacity="0.3" d="M14.83 9L16 10.17L14.83 9Z" fill="black"/>
<path opacity="0.3" d="M4 17H20V13.83L17 16.83L9.17 9L13 5.17V5H4V17Z" fill="black"/>
<path d="M20 17H4V5H13V3H4C2.89 3 2 3.89 2 5V17C2 18.1 2.89 19 4 19H8V21H16V19H20C21.1 19 22 18.1 22 17V11.83L20 13.83V17Z" fill="black"/>
<path d="M18 10.17V3H16V10.17L13.41 7.59L12 9L17 14L22 9L20.59 7.59L18 10.17Z" fill="black"/>
</g>
<defs>
<clipPath id="clip0_401_59571">
<rect width="24" height="24" fill="white"/>
</clipPath>
</defs>
</svg>
