<svg width="24" height="24" viewBox="0 0 24 24" fill="none" xmlns="http://www.w3.org/2000/svg">
<g clip-path="url(#clip0_401_57864)">
<path opacity="0.3" d="M6 10V19H18V10L12 5.5L6 10ZM14 12V13L16 11.94V16.06L14 15V16C14 16.55 13.55 17 13 17H9C8.45 17 8 16.55 8 16V12C8 11.45 8.45 11 9 11H13C13.55 11 14 11.45 14 12Z" fill="black"/>
<path d="M8 12V16C8 16.55 8.45 17 9 17H13C13.55 17 14 16.55 14 16V15L16 16.06V11.94L14 13V12C14 11.45 13.55 11 13 11H9C8.45 11 8 11.45 8 12Z" fill="black"/>
<path d="M12 3L4 9V21H20V9L12 3ZM18 19H6V10L12 5.5L18 10V19Z" fill="black"/>
</g>
<defs>
<clipPath id="clip0_401_57864">
<rect width="24" height="24" fill="white"/>
</clipPath>
</defs>
</svg>
