<svg width="24" height="24" viewBox="0 0 24 24" fill="none" xmlns="http://www.w3.org/2000/svg">
<g clip-path="url(#clip0_401_58980)">
<path opacity="0.3" d="M18 10H22V17H18V10Z" fill="black"/>
<path d="M23 8H17C16.45 8 16 8.45 16 9V19C16 19.55 16.45 20 17 20H23C23.55 20 24 19.55 24 19V9C24 8.45 23.55 8 23 8ZM22 17H18V10H22V17ZM4 6H22V4H4C2.9 4 2 4.9 2 6V17H0V20H14V17H4V6Z" fill="black"/>
</g>
<defs>
<clipPath id="clip0_401_58980">
<rect width="24" height="24" fill="white"/>
</clipPath>
</defs>
</svg>
