<svg width="24" height="24" viewBox="0 0 24 24" fill="none" xmlns="http://www.w3.org/2000/svg">
<g clip-path="url(#clip0_401_57946)">
<path opacity="0.3" d="M12.2199 19.8501C12.0399 20.0301 11.7199 20.0601 11.5099 19.8501C11.3299 19.6701 11.2999 19.3501 11.5099 19.1401L14.8999 15.7501L13.4899 14.3401L10.0999 17.7301C9.90994 17.9301 9.58994 17.9201 9.38994 17.7301C9.17994 17.5201 9.20994 17.2001 9.38994 17.0201L12.7799 13.6301L11.3699 12.2201L7.97994 15.6101C7.79994 15.7901 7.47994 15.8201 7.26994 15.6101C7.07994 15.4201 7.07994 15.1001 7.26994 14.9001L10.6599 11.5101L9.23994 10.1001L5.84994 13.4901C5.66994 13.6701 5.34994 13.7001 5.13994 13.4901C4.94994 13.2901 4.94994 12.9801 5.13994 12.7801L9.51994 8.40012L11.3899 10.2601C12.3399 11.2101 13.9799 11.2001 14.9299 10.2601C15.9099 9.28012 15.9099 7.70012 14.9299 6.72012L13.0699 4.86012L13.3499 4.58012C14.1299 3.80012 15.3999 3.80012 16.1799 4.58012L20.4199 8.82012C21.1999 9.60012 21.1999 10.8701 20.4199 11.6501L12.2199 19.8501Z" fill="black"/>
<path d="M12.22 19.85C12.04 20.03 11.72 20.06 11.51 19.85C11.33 19.67 11.3 19.35 11.51 19.14L14.9 15.75L13.49 14.34L10.1 17.73C9.90997 17.93 9.58997 17.92 9.38997 17.73C9.17997 17.52 9.20997 17.2 9.38997 17.02L12.78 13.63L11.37 12.22L7.97997 15.61C7.79997 15.79 7.47997 15.82 7.26997 15.61C7.07997 15.42 7.07997 15.1 7.26997 14.9L10.66 11.51L9.23997 10.1L5.84997 13.49C5.66997 13.67 5.34997 13.7 5.13997 13.49C4.94997 13.29 4.94997 12.98 5.13997 12.78L9.51997 8.4L11.39 10.26C12.34 11.21 13.98 11.2 14.93 10.26C15.91 9.28 15.91 7.7 14.93 6.72L13.07 4.86L13.35 4.58C14.13 3.8 15.4 3.8 16.18 4.58L20.42 8.82C21.2 9.6 21.2 10.87 20.42 11.65L12.22 19.85ZM21.83 13.07C23.39 11.51 23.39 8.98 21.83 7.41L17.59 3.17C16.03 1.61 13.5 1.61 11.93 3.17L11.65 3.45L11.37 3.17C9.80997 1.61 7.27997 1.61 5.70997 3.17L2.16997 6.71C0.74997 8.13 0.61997 10.34 1.76997 11.9L3.21997 10.45C2.82997 9.7 2.95997 8.75 3.58997 8.12L7.12997 4.58C7.90997 3.8 9.17997 3.8 9.95997 4.58L13.52 8.14C13.7 8.32 13.73 8.64 13.52 8.85C13.31 9.06 12.99 9.03 12.81 8.85L9.51997 5.57L3.71997 11.36C2.73997 12.33 2.73997 13.92 3.71997 14.9C4.10997 15.29 4.60997 15.53 5.13997 15.6C5.20997 16.12 5.43997 16.62 5.83997 17.02C6.23997 17.42 6.73997 17.65 7.25997 17.72C7.32997 18.24 7.55997 18.74 7.95997 19.14C8.35997 19.54 8.85997 19.77 9.37997 19.84C9.44997 20.38 9.68997 20.87 10.08 21.26C10.55 21.73 11.18 21.99 11.85 21.99C12.52 21.99 13.15 21.73 13.62 21.26L21.83 13.07Z" fill="black"/>
</g>
<defs>
<clipPath id="clip0_401_57946">
<rect width="24" height="24" fill="white"/>
</clipPath>
</defs>
</svg>
