<svg width="24" height="24" viewBox="0 0 24 24" fill="none" xmlns="http://www.w3.org/2000/svg">
<g clip-path="url(#clip0_401_58189)">
<path opacity="0.3" d="M12 4.66992C7.95 8.36992 6 11.4599 6 13.8099C6 17.4399 8.65 20.0099 12 20.0099C15.35 20.0099 18 17.4399 18 13.8099C18 11.4599 16.05 8.35992 12 4.66992ZM12.28 18.9899C10.15 19.1199 7.66 17.8999 7.09 14.8699C7.01 14.4199 7.37 13.9999 7.83 13.9999C8.2 13.9999 8.5 14.2599 8.57 14.6199C8.98 16.8499 10.85 17.5999 12.21 17.4899C12.64 17.4699 13 17.8099 13 18.2399C13 18.6399 12.68 18.9699 12.28 18.9899Z" fill="black"/>
<path d="M12 2C6.67 6.55 4 10.48 4 13.8C4 18.78 7.8 22 12 22C16.2 22 20 18.78 20 13.8C20 10.48 17.33 6.55 12 2ZM12 20C8.65 20 6 17.43 6 13.8C6 11.46 7.95 8.36 12 4.66C16.05 8.36 18 11.45 18 13.8C18 17.43 15.35 20 12 20ZM7.83 14C8.2 14 8.5 14.26 8.57 14.62C8.98 16.84 10.85 17.6 12.21 17.49C12.64 17.47 13 17.81 13 18.24C13 18.64 12.68 18.97 12.28 18.99C10.15 19.12 7.66 17.9 7.09 14.87C7.01 14.42 7.37 14 7.83 14Z" fill="black"/>
</g>
<defs>
<clipPath id="clip0_401_58189">
<rect width="24" height="24" fill="white"/>
</clipPath>
</defs>
</svg>
