<svg width="24" height="24" viewBox="0 0 24 24" fill="none" xmlns="http://www.w3.org/2000/svg">
<g clip-path="url(#clip0_401_59265)">
<path opacity="0.3" d="M12 6C8.14 6 5 9.14 5 13C5 16.86 8.14 20 12 20C15.86 20 19 16.86 19 13C19 9.14 15.86 6 12 6ZM10.53 16.64L7.35 13.46L8.41 12.4L10.54 14.53L15.47 9.58L16.53 10.64L10.53 16.64Z" fill="black"/>
<path d="M10.54 14.53L8.41001 12.4L7.35001 13.46L10.53 16.64L16.53 10.64L15.47 9.58L10.54 14.53ZM17.337 1.81L21.944 5.655L20.664 7.19L16.054 3.347L17.337 1.81ZM6.66301 1.81L7.94501 3.346L3.33701 7.19L2.05701 5.654L6.66301 1.81ZM12 4C7.03001 4 3.00001 8.03 3.00001 13C3.00001 17.97 7.03001 22 12 22C16.97 22 21 17.97 21 13C21 8.03 16.97 4 12 4ZM12 20C8.14001 20 5.00001 16.86 5.00001 13C5.00001 9.14 8.14001 6 12 6C15.86 6 19 9.14 19 13C19 16.86 15.86 20 12 20Z" fill="black"/>
</g>
<defs>
<clipPath id="clip0_401_59265">
<rect width="24" height="24" fill="white"/>
</clipPath>
</defs>
</svg>
