<svg width="24" height="24" viewBox="0 0 24 24" fill="none" xmlns="http://www.w3.org/2000/svg">
<g clip-path="url(#clip0_401_59497)">
<path opacity="0.3" d="M16 18C16.5523 18 17 17.5523 17 17C17 16.4477 16.5523 16 16 16C15.4477 16 15 16.4477 15 17C15 17.5523 15.4477 18 16 18Z" fill="black"/>
<path d="M3 10H15V12H3V10ZM3 14H11V16H3V14ZM3 6H15V8H3V6ZM17 14.18C16.69 14.07 16.35 14 16 14C14.34 14 13 15.34 13 17C13 18.66 14.34 20 16 20C17.66 20 19 18.66 19 17V8H22V6H17V14.18Z" fill="black"/>
</g>
<defs>
<clipPath id="clip0_401_59497">
<rect width="24" height="24" fill="white"/>
</clipPath>
</defs>
</svg>
