<svg width="24" height="24" viewBox="0 0 24 24" fill="none" xmlns="http://www.w3.org/2000/svg">
<g clip-path="url(#clip0_401_59335)">
<path d="M10 4.26V6.35C7.67 7.18 6 9.39 6 12C6 13.77 6.78 15.34 8 16.44V14H10V20H4V18H6.73C5.06 16.54 4 14.4 4 12C4 8.27 6.55 5.15 10 4.26ZM20 4H14V10H16V7.56C17.22 8.66 18 10.23 18 12H20C20 9.6 18.94 7.46 17.27 6H20V4ZM20 17V16C20 14.9 19.1 14 18 14C16.9 14 16 14.9 16 16V17C15.45 17 15 17.45 15 18V21C15 21.55 15.45 22 16 22H20C20.55 22 21 21.55 21 21V18C21 17.45 20.55 17 20 17ZM19 17H17V16C17 15.45 17.45 15 18 15C18.55 15 19 15.45 19 16V17Z" fill="black"/>
</g>
<defs>
<clipPath id="clip0_401_59335">
<rect width="24" height="24" fill="white"/>
</clipPath>
</defs>
</svg>
