<svg width="24" height="24" viewBox="0 0 24 24" fill="none" xmlns="http://www.w3.org/2000/svg">
<g clip-path="url(#clip0_401_58825)">
<path opacity="0.3" d="M13 9V4H6V20H18V9H13ZM16 17.06L14 16V17C14 17.55 13.55 18 13 18H9C8.45 18 8 17.55 8 17V13C8 12.45 8.45 12 9 12H13C13.55 12 14 12.45 14 13V14L16 12.94V17.06Z" fill="black"/>
<path d="M14 2H6C4.9 2 4 2.9 4 4V20C4 21.1 4.9 22 6 22H18C19.1 22 20 21.1 20 20V8L14 2ZM6 20V4H13V9H18V20H6ZM14 14L16 12.94V17.06L14 16V17C14 17.55 13.55 18 13 18H9C8.45 18 8 17.55 8 17V13C8 12.45 8.45 12 9 12H13C13.55 12 14 12.45 14 13V14Z" fill="black"/>
</g>
<defs>
<clipPath id="clip0_401_58825">
<rect width="24" height="24" fill="white"/>
</clipPath>
</defs>
</svg>
