<svg width="24" height="24" viewBox="0 0 24 24" fill="none" xmlns="http://www.w3.org/2000/svg">
<g clip-path="url(#clip0_401_58850)">
<path opacity="0.3" d="M19.77 12.66L18.65 16.63C17.87 16.2 17.58 15.77 16 13.96C14.4 15.78 13.57 17 12 17C10.47 17 9.65997 15.85 7.99997 13.96C6.39997 15.78 6.12997 16.17 5.34997 16.61L4.21997 12.65L12 10.11L19.77 12.66Z" fill="black"/>
<path d="M19.77 12.66L18.65 16.63C17.87 16.2 17.58 15.77 16 13.96C14.4 15.78 13.57 17 12 17C10.47 17 9.66 15.85 8 13.96C6.4 15.78 6.13 16.17 5.35 16.61L4.22 12.65L12 10.11L19.77 12.66ZM15 1H9V4H6C4.9 4 4 4.9 4 6V10.62L2.71 11.04C2.08 11.23 1.9 11.88 2.05 12.32L3.95 19H4C5.6 19 7.02 18.12 8 17C8.98 18.12 10.4 19 12 19C13.6 19 15.02 18.12 16 17C16.98 18.12 18.4 19 20 19H20.05L21.96 12.32C22.07 11.95 22 11.26 21.3 11.04L20 10.62V6C20 4.9 19.1 4 18 4H15V1ZM6 9.97V6H18V9.97L12 8L6 9.97ZM16 19.68C14.78 20.53 13.39 20.96 12 20.96C10.61 20.96 9.22 20.53 8 19.68C6.78 20.53 5.39 21 4 21H2V23H4C5.38 23 6.74 22.65 8 22.01C9.26 22.65 10.63 22.98 12 22.98C13.37 22.98 14.74 22.66 16 22.01C17.26 22.66 18.62 23 20 23H22V21H20C18.61 21 17.22 20.53 16 19.68Z" fill="black"/>
</g>
<defs>
<clipPath id="clip0_401_58850">
<rect width="24" height="24" fill="white"/>
</clipPath>
</defs>
</svg>
