<svg width="24" height="24" viewBox="0 0 24 24" fill="none" xmlns="http://www.w3.org/2000/svg">
<g clip-path="url(#clip0_401_58262)">
<path opacity="0.3" d="M8.93 11.0001H11V4.07007C9.27 4.29007 7.71 5.06007 6.5 6.20007C7.81 7.44007 8.69 9.12007 8.93 11.0001Z" fill="black"/>
<path opacity="0.3" d="M19.93 11C19.78 9.82 19.37 8.72 18.77 7.75C17.9 8.62 17.3 9.74 17.09 11H19.93Z" fill="black"/>
<path opacity="0.3" d="M5.22995 7.75C4.62995 8.72 4.21995 9.82 4.06995 11H6.90995C6.69995 9.74 6.09995 8.62 5.22995 7.75Z" fill="black"/>
<path opacity="0.3" d="M4.06995 13C4.21995 14.18 4.62995 15.28 5.22995 16.25C6.09995 15.38 6.69995 14.26 6.90995 13H4.06995Z" fill="black"/>
<path opacity="0.3" d="M6.51001 17.79C7.71001 18.93 9.27001 19.71 11 19.93V13H8.93001C8.70001 14.88 7.81001 16.55 6.51001 17.79Z" fill="black"/>
<path opacity="0.3" d="M17.5 6.20007C16.29 5.06007 14.73 4.28007 13 4.07007V11.0001H15.07C15.31 9.12007 16.19 7.44007 17.5 6.20007Z" fill="black"/>
<path opacity="0.3" d="M18.77 16.25C19.38 15.29 19.79 14.18 19.93 13H17.09C17.3 14.26 17.9 15.38 18.77 16.25Z" fill="black"/>
<path opacity="0.3" d="M13 13V19.93C14.73 19.71 16.29 18.93 17.49 17.79C16.19 16.55 15.3 14.88 15.07 13H13Z" fill="black"/>
<path d="M12 2C6.48 2 2 6.48 2 12C2 17.52 6.48 22 12 22C17.52 22 22 17.52 22 12C22 6.48 17.52 2 12 2ZM5.23 7.75C6.1 8.62 6.7 9.74 6.91 11H4.07C4.22 9.82 4.63 8.72 5.23 7.75ZM4.07 13H6.91C6.7 14.26 6.1 15.38 5.23 16.25C4.63 15.28 4.22 14.18 4.07 13ZM11 19.93C9.27 19.71 7.71 18.93 6.51 17.79C7.81 16.55 8.7 14.88 8.93 13H11V19.93ZM11 11H8.93C8.69 9.12 7.81 7.44 6.5 6.2C7.71 5.06 9.27 4.29 11 4.07V11ZM19.93 11H17.09C17.3 9.74 17.9 8.62 18.77 7.75C19.37 8.72 19.78 9.82 19.93 11ZM13 4.07C14.73 4.29 16.29 5.06 17.5 6.2C16.19 7.44 15.31 9.12 15.07 11H13V4.07ZM13 19.93V13H15.07C15.31 14.88 16.19 16.55 17.49 17.79C16.29 18.93 14.73 19.71 13 19.93ZM18.77 16.25C17.9 15.39 17.31 14.26 17.09 13H19.93C19.78 14.18 19.37 15.28 18.77 16.25Z" fill="black"/>
</g>
<defs>
<clipPath id="clip0_401_58262">
<rect width="24" height="24" fill="white"/>
</clipPath>
</defs>
</svg>
