<svg width="24" height="24" viewBox="0 0 24 24" fill="none" xmlns="http://www.w3.org/2000/svg">
<g clip-path="url(#clip0_401_59188)">
<path opacity="0.3" d="M11.17 8L9.17 6H4V18H20V8H11.17ZM15 9L16.19 11.79L19.22 12.05L16.92 14.04L17.61 17L15 15.47L12.39 17L13.08 14.04L10.78 12.05L13.81 11.79L15 9Z" fill="black"/>
<path d="M20 6H12L10 4H4C2.9 4 2 4.9 2 6V18C2 19.1 2.9 20 4 20H20C21.1 20 22 19.1 22 18V8C22 6.9 21.1 6 20 6ZM20 18H4V6H9.17L11.17 8H20V18ZM13.08 14.04L12.39 17L15 15.47L17.61 17L16.92 14.04L19.22 12.05L16.19 11.79L15 9L13.81 11.79L10.78 12.05L13.08 14.04Z" fill="black"/>
</g>
<defs>
<clipPath id="clip0_401_59188">
<rect width="24" height="24" fill="white"/>
</clipPath>
</defs>
</svg>
