<svg width="24" height="24" viewBox="0 0 24 24" fill="none" xmlns="http://www.w3.org/2000/svg">
<g clip-path="url(#clip0_401_59317)">
<path opacity="0.3" d="M12.35 16.1799L7.82005 11.6499L5.30005 18.6999L12.35 16.1799Z" fill="black"/>
<path d="M2 22L16 17L7 8L2 22ZM12.35 16.18L5.3 18.7L7.82 11.65L12.35 16.18Z" fill="black"/>
<path d="M14.53 12.5301L20.12 6.94014C20.61 6.45014 21.4 6.45014 21.89 6.94014L22.48 7.53014L23.54 6.47014L22.95 5.88014C21.88 4.81014 20.13 4.81014 19.06 5.88014L13.47 11.4701L14.53 12.5301Z" fill="black"/>
<path d="M9.46997 7.46996L10.53 8.52996L11.12 7.93996C12.19 6.86996 12.19 5.11996 11.12 4.04996L10.53 3.45996L9.46997 4.52996L10.06 5.11996C10.54 5.59996 10.54 6.39996 10.06 6.87996L9.46997 7.46996Z" fill="black"/>
<path d="M17.06 11.8801L15.47 13.4701L16.53 14.5301L18.12 12.9401C18.61 12.4501 19.4 12.4501 19.89 12.9401L21.5 14.5501L22.56 13.4901L20.95 11.8801C19.87 10.8101 18.13 10.8101 17.06 11.8801Z" fill="black"/>
<path d="M15.06 5.87996L11.47 9.46996L12.53 10.53L16.12 6.93996C17.19 5.86996 17.19 4.11996 16.12 3.04996L14.53 1.45996L13.47 2.51996L15.06 4.10996C15.54 4.59996 15.54 5.39996 15.06 5.87996Z" fill="black"/>
</g>
<defs>
<clipPath id="clip0_401_59317">
<rect width="24" height="24" fill="white"/>
</clipPath>
</defs>
</svg>
