<svg width="24" height="24" viewBox="0 0 24 24" fill="none" xmlns="http://www.w3.org/2000/svg">
<g clip-path="url(#clip0_401_58959)">
<path opacity="0.3" d="M18.49 9.88982L18.75 7.09982L16.01 6.47982L14.58 4.06982L12 5.17982L9.42003 4.06982L7.99003 6.47982L5.25003 7.09982L5.51003 9.87982L3.66003 11.9998L5.51003 14.1098L5.25003 16.9098L7.99003 17.5298L9.42003 19.9398L12 18.8198L14.58 19.9298L16.01 17.5198L18.75 16.8998L18.49 14.1098L20.34 11.9998L18.49 9.88982ZM13 16.9998H11V14.9998H13V16.9998ZM13 12.9998H11V6.99982H13V12.9998Z" fill="black"/>
<path d="M20.9 5.54004L17.29 4.72004L15.4 1.54004L12 3.00004L8.6 1.54004L6.71 4.72004L3.1 5.53004L3.44 9.21004L1 12L3.44 14.78L3.1 18.47L6.71 19.29L8.6 22.47L12 21L15.4 22.46L17.29 19.28L20.9 18.46L20.56 14.78L23 12L20.56 9.22004L20.9 5.54004ZM18.75 16.9L16.01 17.52L14.58 19.93L12 18.82L9.42 19.93L7.99 17.52L5.25 16.9L5.51 14.1L3.66 12L5.51 9.88004L5.25 7.10004L7.99 6.49004L9.42 4.08004L12 5.18004L14.58 4.07004L16.01 6.48004L18.75 7.10004L18.49 9.89004L20.34 12L18.49 14.11L18.75 16.9ZM11 15H13V17H11V15ZM11 7.00004H13V13H11V7.00004Z" fill="black"/>
</g>
<defs>
<clipPath id="clip0_401_58959">
<rect width="24" height="24" fill="white"/>
</clipPath>
</defs>
</svg>
