<svg width="24" height="24" viewBox="0 0 24 24" fill="none" xmlns="http://www.w3.org/2000/svg">
<g clip-path="url(#clip0_401_58715)">
<path opacity="0.3" d="M15.48 17.34C14.29 16.73 12.37 16 10 16C7.63 16 5.71 16.73 4.52 17.34C4.2 17.5 4 17.84 4 18.22V19H16V18.22C16 17.84 15.8 17.5 15.48 17.34Z" fill="black"/>
<path opacity="0.3" d="M10 11C11.1046 11 12 10.1046 12 9C12 7.89543 11.1046 7 10 7C8.89543 7 8 7.89543 8 9C8 10.1046 8.89543 11 10 11Z" fill="black"/>
<path d="M10 13C12.21 13 14 11.21 14 9C14 6.79 12.21 5 10 5C7.79 5 6 6.79 6 9C6 11.21 7.79 13 10 13ZM10 7C11.1 7 12 7.9 12 9C12 10.1 11.1 11 10 11C8.9 11 8 10.1 8 9C8 7.9 8.9 7 10 7Z" fill="black"/>
<path d="M16.39 15.56C14.71 14.7 12.53 14 10 14C7.47 14 5.29 14.7 3.61 15.56C2.61 16.07 2 17.1 2 18.22V21H18V18.22C18 17.1 17.39 16.07 16.39 15.56ZM16 19H4V18.22C4 17.84 4.2 17.5 4.52 17.34C5.71 16.73 7.63 16 10 16C12.37 16 14.29 16.73 15.48 17.34C15.8 17.5 16 17.84 16 18.22V19Z" fill="black"/>
<path d="M16 1H14C14 5.97 18.03 10 23 10V8C19.14 8 16 4.86 16 1Z" fill="black"/>
<path d="M20 1H18C18 3.76 20.24 6 23 6V4C21.35 4 20 2.65 20 1Z" fill="black"/>
</g>
<defs>
<clipPath id="clip0_401_58715">
<rect width="24" height="24" fill="white"/>
</clipPath>
</defs>
</svg>
