<svg width="24" height="24" viewBox="0 0 24 24" fill="none" xmlns="http://www.w3.org/2000/svg">
<g clip-path="url(#clip0_401_58738)">
<path opacity="0.3" d="M11 10C12.1046 10 13 9.10457 13 8C13 6.89543 12.1046 6 11 6C9.89543 6 9 6.89543 9 8C9 9.10457 9.89543 10 11 10Z" fill="black"/>
<path opacity="0.3" d="M5 18H9.99L9 17L9.93 16.06C7.55 16.33 5.2 17.37 5 18Z" fill="black"/>
<path d="M11 12C13.21 12 15 10.21 15 8C15 5.79 13.21 4 11 4C8.79 4 7 5.79 7 8C7 10.21 8.79 12 11 12ZM11 6C12.1 6 13 6.9 13 8C13 9.1 12.1 10 11 10C9.9 10 9 9.1 9 8C9 6.9 9.9 6 11 6ZM10 18H5C5.2 17.37 7.55 16.33 9.93 16.06H9.96L10.42 15.61L12 14.06C11.61 14.02 11.32 14 11 14C8.33 14 3 15.34 3 18V20H12L10 18ZM20.6 12.5L15.47 17.67L13.4 15.59L12 17L15.47 20.5L22 13.91L20.6 12.5Z" fill="black"/>
</g>
<defs>
<clipPath id="clip0_401_58738">
<rect width="24" height="24" fill="white"/>
</clipPath>
</defs>
</svg>
