<svg width="24" height="24" viewBox="0 0 24 24" fill="none" xmlns="http://www.w3.org/2000/svg">
<g clip-path="url(#clip0_401_59851)">
<path d="M4.64 19.37C7.67 22.4 12.31 22.81 15.79 20.62L14.33 19.16C11.67 20.59 8.29 20.19 6.05 17.95C3.32 15.22 3.32 10.78 6.05 8.05C7.42 6.69 9.21 6.03 11 6.03V9L15 5L11 1V4.01C8.7 4.01 6.39 4.88 4.64 6.64C1.12 10.15 1.12 15.85 4.64 19.37ZM11 13L17 19L23 13L17 7L11 13ZM17 16.17L13.83 13L17 9.83L20.17 13L17 16.17Z" fill="black"/>
<path opacity="0.3" d="M16.9921 9.81963L13.8173 12.9945L16.9921 16.1694L20.167 12.9945L16.9921 9.81963Z" fill="black"/>
</g>
<defs>
<clipPath id="clip0_401_59851">
<rect width="24" height="24" fill="white"/>
</clipPath>
</defs>
</svg>
