<svg width="24" height="24" viewBox="0 0 24 24" fill="none" xmlns="http://www.w3.org/2000/svg">
<g clip-path="url(#clip0_401_58842)">
<path opacity="0.3" d="M4 6.46997V18H20V9.99997H5.76L4 6.46997Z" fill="black"/>
<path d="M18 4L20 8H17L15 4H13L15 8H12L10 4H8L10 8H7L5 4H4C2.9 4 2 4.9 2 6V18C2 19.1 2.9 20 4 20H20C21.1 20 22 19.1 22 18V4H18ZM20 18H4V6.47L5.76 10H20V18Z" fill="black"/>
</g>
<defs>
<clipPath id="clip0_401_58842">
<rect width="24" height="24" fill="white"/>
</clipPath>
</defs>
</svg>
