<svg width="24" height="24" viewBox="0 0 24 24" fill="none" xmlns="http://www.w3.org/2000/svg">
<g clip-path="url(#clip0_401_58595)">
<path opacity="0.3" d="M6 19C7.10457 19 8 18.1046 8 17C8 15.8954 7.10457 15 6 15C4.89543 15 4 15.8954 4 17C4 18.1046 4.89543 19 6 19Z" fill="black"/>
<path opacity="0.3" d="M12 9C13.1046 9 14 8.10457 14 7C14 5.89543 13.1046 5 12 5C10.8954 5 10 5.89543 10 7C10 8.10457 10.8954 9 12 9Z" fill="black"/>
<path opacity="0.3" d="M18 19C19.1046 19 20 18.1046 20 17C20 15.8954 19.1046 15 18 15C16.8954 15 16 15.8954 16 17C16 18.1046 16.8954 19 18 19Z" fill="black"/>
<path d="M18 13C15.8 13 14 14.8 14 17C14 19.2 15.8 21 18 21C20.2 21 22 19.2 22 17C22 14.8 20.2 13 18 13ZM18 19C16.9 19 16 18.1 16 17C16 15.9 16.9 15 18 15C19.1 15 20 15.9 20 17C20 18.1 19.1 19 18 19Z" fill="black"/>
<path d="M6 13C3.8 13 2 14.8 2 17C2 19.2 3.8 21 6 21C8.2 21 10 19.2 10 17C10 14.8 8.2 13 6 13ZM6 19C4.9 19 4 18.1 4 17C4 15.9 4.9 15 6 15C7.1 15 8 15.9 8 17C8 18.1 7.1 19 6 19Z" fill="black"/>
<path d="M16 7C16 4.8 14.2 3 12 3C9.8 3 8 4.8 8 7C8 9.2 9.8 11 12 11C14.2 11 16 9.2 16 7ZM12 9C10.9 9 10 8.1 10 7C10 5.9 10.9 5 12 5C13.1 5 14 5.9 14 7C14 8.1 13.1 9 12 9Z" fill="black"/>
</g>
<defs>
<clipPath id="clip0_401_58595">
<rect width="24" height="24" fill="white"/>
</clipPath>
</defs>
</svg>
