<svg width="24" height="24" viewBox="0 0 24 24" fill="none" xmlns="http://www.w3.org/2000/svg">
<g clip-path="url(#clip0_401_58892)">
<path opacity="0.3" d="M10 10H14V14H10V10ZM10 16H14V20H10V16ZM4 4H8V8H4V4ZM4 10H8V14H4V10ZM4 16H8V20H4V16ZM16 4H20V8H16V4ZM16 10H20V14H16V10ZM16 16H20V20H16V16ZM10 4H14V8H10V4Z" fill="black"/>
<path d="M20 2H4C2.9 2 2 2.9 2 4V20C2 21.1 2.9 22 4 22H20C21.1 22 22 21.1 22 20V4C22 2.9 21.1 2 20 2ZM8 20H4V16H8V20ZM8 14H4V10H8V14ZM8 8H4V4H8V8ZM14 20H10V16H14V20ZM14 14H10V10H14V14ZM14 8H10V4H14V8ZM20 20H16V16H20V20ZM20 14H16V10H20V14ZM20 8H16V4H20V8Z" fill="black"/>
</g>
<defs>
<clipPath id="clip0_401_58892">
<rect width="24" height="24" fill="white"/>
</clipPath>
</defs>
</svg>
