<svg width="24" height="24" viewBox="0 0 24 24" fill="none" xmlns="http://www.w3.org/2000/svg">
<g clip-path="url(#clip0_401_57951)">
<path opacity="0.3" d="M8.5 10H7.5V11.5H8.5V10Z" fill="black"/>
<path opacity="0.3" d="M5 19H19V12.5H17.5V14H16.5V12.5H15V11.5H16.5V10H17.5V11.5H19V5H5V19ZM11 9H12.5V11.25L14.25 9H16L13.75 12L16 15H14.25L12.5 12.75V15H11V9ZM6 13.5H8.5V12.5H7C6.45 12.5 6 12.05 6 11.5V10C6 9.45 6.45 9 7 9H9C9.55 9 10 9.45 10 10V14C10 14.55 9.55 15 9 15H6V13.5Z" fill="black"/>
<path d="M10 14V10C10 9.45 9.55 9 9 9H7C6.45 9 6 9.45 6 10V11.5C6 12.05 6.45 12.5 7 12.5H8.5V13.5H6V15H9C9.55 15 10 14.55 10 14ZM8.5 11.5H7.5V10H8.5V11.5Z" fill="black"/>
<path d="M19 3H5C3.9 3 3 3.9 3 5V19C3 20.1 3.9 21 5 21H19C20.1 21 21 20.1 21 19V5C21 3.9 20.1 3 19 3ZM19 11.5H17.5V10H16.5V11.5H15V12.5H16.5V14H17.5V12.5H19V19H5V5H19V11.5Z" fill="black"/>
<path d="M12.5 12.75L14.25 15H16L13.75 12L16 9H14.25L12.5 11.25V9H11V15H12.5V12.75Z" fill="black"/>
</g>
<defs>
<clipPath id="clip0_401_57951">
<rect width="24" height="24" fill="white"/>
</clipPath>
</defs>
</svg>
