<svg width="24" height="24" viewBox="0 0 24 24" fill="none" xmlns="http://www.w3.org/2000/svg">
<g clip-path="url(#clip0_401_59706)">
<path d="M17.9 9.05C17.96 9.41 18 9.79 18 10.2C18 11.91 16.92 14.84 12 19.34C7.08 14.85 6 11.91 6 10.2C6 6.17 9.09 4 12 4C12.32 4 12.65 4.03 12.97 4.08L14.62 2.43C13.78 2.16 12.9 2 12 2C7.8 2 4 5.22 4 10.2C4 13.52 6.67 17.45 12 22C17.33 17.45 20 13.52 20 10.2C20 9.19 19.84 8.26 19.55 7.4L17.9 9.05ZM20.71 2L20 1.29C19.61 0.899998 18.98 0.899998 18.59 1.29L17.87 2.01L19.99 4.13L20.71 3.41C21.1 3.02 21.1 2.39 20.71 2ZM11 11H13.12L19.28 4.84L17.16 2.72L11 8.88V11Z" fill="black"/>
<path opacity="0.3" d="M13.95 13H9V8.05L12.97 4.08C12.65 4.03 12.32 4 12 4C9.09 4 6 6.17 6 10.2C6 11.91 7.08 14.84 12 19.34C16.92 14.85 18 11.91 18 10.2C18 9.8 17.96 9.42 17.9 9.05L13.95 13Z" fill="black"/>
</g>
<defs>
<clipPath id="clip0_401_59706">
<rect width="24" height="24" fill="white"/>
</clipPath>
</defs>
</svg>
