<svg width="24" height="24" viewBox="0 0 24 24" fill="none" xmlns="http://www.w3.org/2000/svg">
<g clip-path="url(#clip0_401_58943)">
<path opacity="0.3" d="M18 13H23V20H18V13Z" fill="black"/>
<path d="M23 11.01L18 11C17.45 11 17 11.45 17 12V21C17 21.55 17.45 22 18 22H23C23.55 22 24 21.55 24 21V12C24 11.45 23.55 11.01 23 11.01ZM23 20H18V13H23V20ZM2 4H20V9H22V4C22 2.89 21.1 2 20 2H2C0.89 2 0 2.89 0 4V16C0 17.1 0.89 18 2 18H9V20H7V22H15V20H13V18H15V16H2V4ZM11 6L10.03 9H7L9.47 10.76L8.53 13.67L11 11.87L13.47 13.67L12.53 10.76L15 9H11.97L11 6Z" fill="black"/>
</g>
<defs>
<clipPath id="clip0_401_58943">
<rect width="24" height="24" fill="white"/>
</clipPath>
</defs>
</svg>
