<svg width="24" height="24" viewBox="0 0 24 24" fill="none" xmlns="http://www.w3.org/2000/svg">
<g clip-path="url(#clip0_401_58414)">
<path opacity="0.3" d="M12.0001 4C16.0801 4 19.4501 7.05 19.9401 11H15.8801C15.4301 9.27 13.8601 8 12.0001 8C10.1401 8 8.57006 9.27 8.13006 11H4.06006C4.55006 7.05 7.92006 4 12.0001 4Z" fill="black"/>
<path d="M12 2C6.48 2 2 6.48 2 12C2 17.52 6.48 22 12 22C17.52 22 22 17.52 22 12C22 6.48 17.52 2 12 2ZM12 4C16.08 4 19.45 7.05 19.94 11H15.88C15.43 9.27 13.86 8 12 8C10.14 8 8.57 9.27 8.13 11H4.06C4.55 7.05 7.92 4 12 4ZM14 12C14 13.1 13.1 14 12 14C10.9 14 10 13.1 10 12C10 10.9 10.9 10 12 10C13.1 10 14 10.9 14 12ZM12 20C7.92 20 4.55 16.95 4.06 13H8.12C8.56 14.73 10.13 16 11.99 16C13.85 16 15.42 14.73 15.86 13H19.92C19.45 16.95 16.08 20 12 20Z" fill="black"/>
</g>
<defs>
<clipPath id="clip0_401_58414">
<rect width="24" height="24" fill="white"/>
</clipPath>
</defs>
</svg>
