<svg width="24" height="24" viewBox="0 0 24 24" fill="none" xmlns="http://www.w3.org/2000/svg">
<g clip-path="url(#clip0_401_59419)">
<path opacity="0.3" d="M16.62 16H17.38L19 12.76V8H15V12H18.62L16.62 16ZM6.62 16H7.38L9 12.76V8H5V12H8.62L6.62 16Z" fill="black"/>
<path d="M18.62 18L21 13.24V6H13V14H15.38L13.38 18H18.62ZM15 12V8H19V12.76L17.38 16H16.62L18.62 12H15ZM3.38 18H8.62L11 13.24V6H3V14H5.38L3.38 18ZM5 12V8H9V12.76L7.38 16H6.62L8.62 12H5Z" fill="black"/>
</g>
<defs>
<clipPath id="clip0_401_59419">
<rect width="24" height="24" fill="white"/>
</clipPath>
</defs>
</svg>
