<svg width="24" height="24" viewBox="0 0 24 24" fill="none" xmlns="http://www.w3.org/2000/svg">
<g clip-path="url(#clip0_401_59060)">
<path opacity="0.3" d="M17.5 10.5H15.5V11.5H17.5V10.5Z" fill="black"/>
<path opacity="0.3" d="M4 18H20V6H4V18ZM14 9H18C18.55 9 19 9.45 19 10V12C19 12.55 18.55 13 18 13H15.5V15H14V9ZM11 9H13V15H11V9ZM5 13.5H8.5V12.75H6C5.45 12.75 5 12.3 5 11.75V10C5 9.45 5.45 9 6 9H10V10.5H6.5V11.25H9C9.55 11.25 10 11.7 10 12.25V14C10 14.55 9.55 15 9 15H5V13.5Z" fill="black"/>
<path d="M10 14V12.25C10 11.7 9.55 11.25 9 11.25H6.5V10.5H10V9H6C5.45 9 5 9.45 5 10V11.75C5 12.3 5.45 12.75 6 12.75H8.5V13.5H5V15H9C9.55 15 10 14.55 10 14Z" fill="black"/>
<path d="M20 4H4C2.9 4 2 4.9 2 6V18C2 19.1 2.9 20 4 20H20C21.1 20 22 19.1 22 18V6C22 4.9 21.1 4 20 4ZM20 18H4V6H20V18Z" fill="black"/>
<path d="M13 9H11V15H13V9Z" fill="black"/>
<path d="M15.5 13H18C18.55 13 19 12.55 19 12V10C19 9.45 18.55 9 18 9H14V15H15.5V13ZM15.5 10.5H17.5V11.5H15.5V10.5Z" fill="black"/>
</g>
<defs>
<clipPath id="clip0_401_59060">
<rect width="24" height="24" fill="white"/>
</clipPath>
</defs>
</svg>
