<svg width="24" height="24" viewBox="0 0 24 24" fill="none" xmlns="http://www.w3.org/2000/svg">
<g clip-path="url(#clip0_401_58109)">
<path opacity="0.3" d="M12 4C8.65 4 6 6.57 6 10.2C6 12.54 7.95 15.64 12 19.34C16.05 15.64 18 12.55 18 10.2C18 6.57 15.35 4 12 4ZM12 12C10.9 12 10 11.1 10 10C10 8.9 10.9 8 12 8C13.1 8 14 8.9 14 10C14 11.1 13.1 12 12 12Z" fill="black"/>
<path d="M12 8C10.9 8 10 8.9 10 10C10 11.1 10.9 12 12 12C13.1 12 14 11.1 14 10C14 8.9 13.1 8 12 8ZM12 2C7.8 2 4 5.22 4 10.2C4 13.52 6.67 17.45 12 22C17.33 17.45 20 13.52 20 10.2C20 5.22 16.2 2 12 2ZM12 19.33C7.95 15.63 6 12.54 6 10.19C6 6.57 8.65 4 12 4C15.35 4 18 6.57 18 10.2C18 12.54 16.05 15.64 12 19.33Z" fill="black"/>
</g>
<defs>
<clipPath id="clip0_401_58109">
<rect width="24" height="24" fill="white"/>
</clipPath>
</defs>
</svg>
