<svg width="24" height="24" viewBox="0 0 24 24" fill="none" xmlns="http://www.w3.org/2000/svg">
<g clip-path="url(#clip0_401_57759)">
<path opacity="0.3" d="M11.71 10.33C11.01 8.34 9.11 7 7 7C4.24 7 2 9.24 2 12C2 14.76 4.24 17 7 17C9.11 17 11.01 15.66 11.71 13.67L11.94 13H18V17H20V13H22V11H11.94L11.71 10.33ZM7 15C5.35 15 4 13.65 4 12C4 10.35 5.35 9 7 9C8.65 9 10 10.35 10 12C10 13.65 8.65 15 7 15Z" fill="black"/>
<path d="M7 5C3.14 5 0 8.14 0 12C0 15.86 3.14 19 7 19C9.72 19 12.17 17.42 13.32 15H16V19H22V15H24V9H13.32C12.17 6.58 9.72 5 7 5ZM22 13H20V17H18V13H11.94L11.71 13.67C11.01 15.66 9.11 17 7 17C4.24 17 2 14.76 2 12C2 9.24 4.24 7 7 7C9.11 7 11.01 8.34 11.71 10.33L11.94 11H22V13ZM7 9C5.35 9 4 10.35 4 12C4 13.65 5.35 15 7 15C8.65 15 10 13.65 10 12C10 10.35 8.65 9 7 9ZM7 13C6.45 13 6 12.55 6 12C6 11.45 6.45 11 7 11C7.55 11 8 11.45 8 12C8 12.55 7.55 13 7 13Z" fill="black"/>
</g>
<defs>
<clipPath id="clip0_401_57759">
<rect width="24" height="24" fill="white"/>
</clipPath>
</defs>
</svg>
