<svg width="24" height="24" viewBox="0 0 24 24" fill="none" xmlns="http://www.w3.org/2000/svg">
<g clip-path="url(#clip0_401_57933)">
<path opacity="0.3" d="M6.67 11H4V13H6.67L7.67 12L6.67 11ZM13 6.67V4H11V6.67L12 7.67L13 6.67ZM11 17.33V20H13V17.33L12 16.33L11 17.33ZM16.33 12L17.33 13H20V11H17.33L16.33 12Z" fill="black"/>
<path d="M9 16.5V22H15V16.5L12 13.5L9 16.5ZM13 20H11V17.33L12 16.33L13 17.33V20ZM15 7.5V2H9V7.5L12 10.5L15 7.5ZM11 4H13V6.67L12 7.67L11 6.67V4ZM7.5 9H2V15H7.5L10.5 12L7.5 9ZM6.67 13H4V11H6.67L7.67 12L6.67 13ZM16.5 9L13.5 12L16.5 15H22V9H16.5ZM20 13H17.33L16.33 12L17.33 11H20V13Z" fill="black"/>
</g>
<defs>
<clipPath id="clip0_401_57933">
<rect width="24" height="24" fill="white"/>
</clipPath>
</defs>
</svg>
