<svg width="24" height="24" viewBox="0 0 24 24" fill="none" xmlns="http://www.w3.org/2000/svg">
<g clip-path="url(#clip0_401_59378)">
<path opacity="0.3" d="M12 4V11L9.5 9.5L7 11V4H5V20H11.29C11.1 19.37 11 18.7 11 18C11 14.47 13.61 11.57 17 11.08V4H12Z" fill="black"/>
<path d="M5 20V4H7V11L9.5 9.5L12 11V4H17V11.08C17.33 11.03 17.66 11 18 11C18.34 11 18.67 11.03 19 11.08V4C19 2.9 18.1 2 17 2H5C3.9 2 3 2.9 3 4V20C3 21.1 3.9 22 5 22H12.26C11.84 21.4 11.51 20.72 11.29 20H5Z" fill="black"/>
<path d="M18 13C15.24 13 13 15.24 13 18C13 20.76 15.24 23 18 23C20.76 23 23 20.76 23 18C23 15.24 20.76 13 18 13ZM16.75 20.5V15.5L20.75 18L16.75 20.5Z" fill="black"/>
</g>
<defs>
<clipPath id="clip0_401_59378">
<rect width="24" height="24" fill="white"/>
</clipPath>
</defs>
</svg>
