<svg width="24" height="24" viewBox="0 0 24 24" fill="none" xmlns="http://www.w3.org/2000/svg">
<g clip-path="url(#clip0_401_59525)">
<path d="M7.53006 21.48C4.26006 19.94 1.92006 16.76 1.56006 13H0.0600586C0.570059 19.16 5.72006 24 12.0101 24L12.6701 23.97L8.86006 20.16L7.53006 21.48ZM8.42006 14.96C8.23006 14.96 8.05006 14.93 7.90006 14.88C7.74006 14.82 7.61006 14.75 7.50006 14.64C7.39006 14.54 7.30006 14.42 7.24006 14.27C7.18006 14.13 7.15006 13.97 7.15006 13.8H5.85006C5.85006 14.16 5.92006 14.48 6.06006 14.75C6.20006 15.02 6.39006 15.25 6.62006 15.44C6.86006 15.62 7.13006 15.76 7.44006 15.85C7.74006 15.95 8.06006 16 8.40006 16C8.77006 16 9.12006 15.95 9.43006 15.85C9.75006 15.75 10.0301 15.6 10.2601 15.41C10.4901 15.22 10.6801 14.98 10.8101 14.69C10.9401 14.4 11.0101 14.08 11.0101 13.72C11.0101 13.53 10.9901 13.34 10.9401 13.16C10.8901 12.98 10.8201 12.81 10.7101 12.65C10.6101 12.49 10.4701 12.35 10.3101 12.22C10.1401 12.09 9.94006 11.99 9.70006 11.91C9.90006 11.82 10.0701 11.71 10.2201 11.58C10.3701 11.45 10.4901 11.31 10.5901 11.16C10.6901 11.01 10.7601 10.86 10.8101 10.7C10.8601 10.54 10.8801 10.38 10.8801 10.22C10.8801 9.86 10.8201 9.54 10.7001 9.26C10.5801 8.98 10.4101 8.75 10.1901 8.57C9.99006 8.38 9.72006 8.24 9.42006 8.14C9.11006 8.05 8.77006 8 8.40006 8C8.04006 8 7.71006 8.05 7.40006 8.16C7.10006 8.27 6.83006 8.42 6.61006 8.61C6.40006 8.8 6.23006 9.02 6.10006 9.28C5.98006 9.54 5.92006 9.82 5.92006 10.13H7.22006C7.22006 9.96 7.25006 9.81 7.31006 9.68C7.37006 9.55 7.45006 9.43 7.56006 9.34C7.67006 9.25 7.79006 9.17 7.94006 9.12C8.09006 9.07 8.24006 9.04 8.42006 9.04C8.82006 9.04 9.12006 9.14 9.31006 9.35C9.50006 9.55 9.60006 9.84 9.60006 10.21C9.60006 10.39 9.57006 10.55 9.52006 10.7C9.47006 10.85 9.38006 10.97 9.27006 11.07C9.16006 11.17 9.02006 11.25 8.86006 11.31C8.70006 11.37 8.50006 11.4 8.28006 11.4H7.51006V12.43H8.28006C8.50006 12.43 8.70006 12.45 8.88006 12.5C9.06006 12.55 9.21006 12.63 9.33006 12.73C9.45006 12.84 9.55006 12.97 9.62006 13.13C9.69006 13.29 9.72006 13.48 9.72006 13.7C9.72006 14.11 9.60006 14.42 9.37006 14.63C9.14006 14.86 8.82006 14.96 8.42006 14.96ZM16.9701 9.04C16.6501 8.71 16.2701 8.45 15.8301 8.27C15.3901 8.09 14.9001 8 14.3601 8H12.0001V16H14.3001C14.8501 16 15.3601 15.91 15.8101 15.73C16.2601 15.55 16.6501 15.3 16.9701 14.97C17.2901 14.64 17.5401 14.24 17.7101 13.78C17.8801 13.31 17.9701 12.79 17.9701 12.21V11.81C17.9701 11.23 17.8801 10.71 17.7101 10.24C17.5401 9.77 17.2901 9.37 16.9701 9.04ZM16.5801 12.2C16.5801 12.62 16.5301 12.99 16.4401 13.33C16.3401 13.66 16.2001 13.95 16.0101 14.18C15.8201 14.41 15.5801 14.59 15.3001 14.71C15.0101 14.83 14.6801 14.89 14.3101 14.89H13.4001V9.12H14.3701C15.0901 9.12 15.6401 9.35 16.0101 9.81C16.3901 10.27 16.5801 10.93 16.5801 11.8V12.2ZM12.0101 0L11.3501 0.03L15.1601 3.84L16.4901 2.51C19.7601 4.06 22.1001 7.23 22.4501 10.99H23.9501C23.4501 4.84 18.3001 0 12.0101 0Z" fill="black"/>
</g>
<defs>
<clipPath id="clip0_401_59525">
<rect width="24" height="24" fill="white"/>
</clipPath>
</defs>
</svg>
