<svg width="24" height="24" viewBox="0 0 24 24" fill="none" xmlns="http://www.w3.org/2000/svg">
<g clip-path="url(#clip0_401_58660)">
<path opacity="0.3" d="M14.83 12H18V15.17L14.83 12ZM9.17 12L14.17 17H6.63L6.34 16.73C6.21 16.62 6 16.37 6 16V12H9.17ZM10 14.5C10 13.67 9.33 13 8.5 13C7.67 13 7 13.67 7 14.5C7 15.33 7.67 16 8.5 16C9.33 16 10 15.33 10 14.5ZM7.82 4.99H17.65C17.11 4.46 15.69 4 12 4C9.6 4 8.17 4.2 7.31 4.48L7.82 4.99Z" fill="black"/>
<path d="M8.50001 13C9.33001 13 10 13.67 10 14.5C10 15.33 9.33001 16 8.50001 16C7.67001 16 7.00001 15.33 7.00001 14.5C7.00001 13.67 7.67001 13 8.50001 13ZM7.31001 4.48C8.17001 4.2 9.60001 4 12 4C15.69 4 17.11 4.46 17.66 4.99H7.82001L9.82001 6.99H18V10H12.83L14.83 12H18V15.17L19.81 16.98C19.92 16.67 20 16.35 20 16V6C20 2.5 16.42 2 12 2C9.48001 2 7.24002 2.16 5.78001 2.95L7.31001 4.48ZM19.78 22.61L18.14 20.97C18.09 20.98 18.05 21 18 21H17C16.45 21 16 20.55 16 20V19H8.00001V20C8.00001 20.55 7.55001 21 7.00001 21H6.00001C5.45001 21 5.00001 20.55 5.00001 20V18.22C4.39001 17.67 4.00001 16.88 4.00001 16V6.83L1.39001 4.22L2.80001 2.81L21.18 21.19L19.78 22.61ZM6.00001 8.83V10H7.17001L6.00001 8.83ZM14.17 17L9.17001 12H6.00001V16C6.00001 16.37 6.21001 16.62 6.34001 16.73L6.63001 17H8.00001H14.17Z" fill="black"/>
</g>
<defs>
<clipPath id="clip0_401_58660">
<rect width="24" height="24" fill="white"/>
</clipPath>
</defs>
</svg>
