<svg width="24" height="24" viewBox="0 0 24 24" fill="none" xmlns="http://www.w3.org/2000/svg">
<g clip-path="url(#clip0_401_57794)">
<path opacity="0.3" d="M5 5V19H19V5H5ZM9.5 13V12H10.5V13C10.5 13.55 10.05 14 9.5 14H8.5C7.95 14 7.5 13.55 7.5 13V11C7.5 10.45 7.95 10 8.5 10H9.5C10.05 10 10.5 10.45 10.5 11H8.5V13H9.5ZM12.5 14H11.5V10H12.5V14ZM16.5 11H14.5V11.5H16V12.5H14.5V14H13.5V10H16.5V11Z" fill="black"/>
<path d="M19 19H5V5H19V19ZM5 3C3.9 3 3 3.9 3 5V19C3 20.1 3.9 21 5 21H19C20.1 21 21 20.1 21 19V5C21 3.9 20.1 3 19 3H5ZM11.5 14H12.5V10H11.5V14ZM13.5 14H14.5V12.5H16V11.5H14.5V11H16.5V10H13.5V14ZM9.5 12V13H8.5V11H10.5C10.5 10.45 10.05 10 9.5 10H8.5C7.95 10 7.5 10.45 7.5 11V13C7.5 13.55 7.95 14 8.5 14H9.5C10.05 14 10.5 13.55 10.5 13V12H9.5Z" fill="black"/>
</g>
<defs>
<clipPath id="clip0_401_57794">
<rect width="24" height="24" fill="white"/>
</clipPath>
</defs>
</svg>
