<svg width="24" height="24" viewBox="0 0 24 24" fill="none" xmlns="http://www.w3.org/2000/svg">
<g clip-path="url(#clip0_401_57821)">
<path d="M8.55002 12.0001C7.48002 11.2901 6.30002 10.7301 5.02002 10.3901C6.30002 10.7301 7.48002 11.2901 8.55002 12.0001ZM18.98 10.3901C17.69 10.7301 16.49 11.3001 15.41 12.0301C16.49 11.3001 17.69 10.7301 18.98 10.3901Z" fill="black"/>
<path opacity="0.3" d="M8.94 12.2502C8.94 12.2402 8.94 12.2402 8.94 12.2502C8.81 12.1602 8.67 12.0802 8.54 11.9902C8.67 12.0902 8.81 12.1602 8.94 12.2502ZM13.35 8.5802C13.13 7.3702 12.69 6.2302 12.05 5.2002C11.39 6.2402 10.93 7.3902 10.68 8.5902C11.14 8.8902 11.58 9.2102 12.01 9.5602C12.43 9.2102 12.88 8.8802 13.35 8.5802ZM16.54 13.6602L16.55 13.6802C16.46 13.7402 16.37 13.8002 16.28 13.8502L16.21 13.9002C15.23 14.6102 14.37 15.5102 13.68 16.5602L12 19.1002L10.33 16.5502C9.65 15.5202 8.81 14.6302 7.82 13.9002L7.75 13.8602C7.62 13.7802 7.49 13.7002 7.36 13.6102L7.37 13.6002C6.41 12.9702 5.36 12.5302 4.25 12.2702C5 15.6302 7.41 18.4402 10.7 19.6202C11.12 19.7702 11.54 19.8902 11.98 19.9802C12.43 19.8902 12.87 19.7702 13.31 19.6102C16.58 18.4402 18.98 15.6302 19.74 12.2702C18.6 12.5302 17.51 13.0002 16.54 13.6602Z" fill="black"/>
<path d="M12 15.45C11.18 14.2 10.14 13.11 8.94 12.25C8.81 12.16 8.67 12.09 8.54 11.99C8.67 12.08 8.81 12.16 8.93 12.24C6.98 10.83 4.59 10 2 10C2 15.32 5.36 19.82 10.03 21.49C10.66 21.72 11.32 21.89 12 22C12.68 21.88 13.33 21.71 13.97 21.49C18.64 19.82 22 15.32 22 10C17.82 10 14.15 12.17 12 15.45ZM13.32 19.6C12.88 19.75 12.44 19.87 11.99 19.97C11.55 19.88 11.12 19.76 10.71 19.61C7.42 18.43 5.01 15.62 4.26 12.26C5.36 12.52 6.41 12.97 7.38 13.59L7.36 13.6C7.49 13.69 7.62 13.78 7.75 13.85L7.82 13.89C8.81 14.61 9.66 15.5 10.33 16.54L12 19.1L13.67 16.55C14.36 15.5 15.22 14.6 16.2 13.89L16.27 13.84C16.36 13.79 16.45 13.73 16.54 13.67L16.53 13.65C17.51 13 18.6 12.52 19.74 12.25C18.99 15.62 16.59 18.43 13.32 19.6ZM15.49 9.63C15.31 6.84 14.18 4.12 12.06 2C9.92 4.14 8.74 6.86 8.51 9.63C9.79 10.31 10.97 11.19 12 12.26C13.03 11.2 14.21 10.32 15.49 9.63ZM12.05 5.19C12.68 6.22 13.12 7.37 13.35 8.57C12.88 8.87 12.44 9.2 12.01 9.55C11.59 9.21 11.14 8.88 10.68 8.58C10.93 7.38 11.39 6.23 12.05 5.19Z" fill="black"/>
<path opacity="0.3" d="M8.98994 12.2802C8.96994 12.2702 8.94994 12.2502 8.93994 12.2402C8.93994 12.2402 8.94994 12.2402 8.94994 12.2502C8.95994 12.2602 8.96994 12.2702 8.98994 12.2802Z" fill="black"/>
</g>
<defs>
<clipPath id="clip0_401_57821">
<rect width="24" height="24" fill="white"/>
</clipPath>
</defs>
</svg>
