<svg width="24" height="24" viewBox="0 0 24 24" fill="none" xmlns="http://www.w3.org/2000/svg">
<g clip-path="url(#clip0_401_58737)">
<path opacity="0.3" d="M7 15.01V18H17V15.01V15H7V15.01ZM15 15.5C15.55 15.5 16 15.95 16 16.5C16 17.05 15.55 17.5 15 17.5C14.45 17.5 14 17.05 14 16.5C14 15.95 14.45 15.5 15 15.5ZM9 15.5C9.55 15.5 10 15.95 10 16.5C10 17.05 9.55 17.5 9 17.5C8.45 17.5 8 17.05 8 16.5C8 15.95 8.45 15.5 9 15.5Z" fill="black"/>
<path d="M9 17.5C9.55228 17.5 10 17.0523 10 16.5C10 15.9477 9.55228 15.5 9 15.5C8.44772 15.5 8 15.9477 8 16.5C8 17.0523 8.44772 17.5 9 17.5Z" fill="black"/>
<path d="M15 17.5C15.5523 17.5 16 17.0523 16 16.5C16 15.9477 15.5523 15.5 15 15.5C14.4477 15.5 14 15.9477 14 16.5C14 17.0523 14.4477 17.5 15 17.5Z" fill="black"/>
<path d="M17.25 9.6C17.23 9.58 17.22 9.56 17.2 9.53C16.82 9.01 16.28 9 16.28 9H7.72C7.72 9 7.18 9.01 6.8 9.54C6.78 9.56 6.77 9.58 6.75 9.6C6.68 9.71 6.61 9.84 6.56 10C6.34 10.66 5.82 12.22 5 14.69V21.19C5 21.64 5.35 22 5.78 22H6.22C6.65 22 7 21.64 7 21.19V20H17V21.19C17 21.64 17.34 22 17.78 22H18.22C18.65 22 19 21.64 19 21.19V14.69C18.18 12.23 17.66 10.66 17.44 10C17.39 9.84 17.32 9.71 17.25 9.6ZM8.33 11H15.67L15.9 11.69L16.33 13H7.67L8.33 11ZM17 15.01V18H7V15.01V15H17V15.01Z" fill="black"/>
<path d="M10.83 3C10.41 1.83 9.3 1 8 1C6.34 1 5 2.34 5 4C5 5.65 6.34 7 8 7C9.3 7 10.41 6.16 10.83 5H16V7H18V5H19V3H10.83ZM8 5C7.45 5 7 4.55 7 4C7 3.45 7.45 3 8 3C8.55 3 9 3.45 9 4C9 4.55 8.55 5 8 5Z" fill="black"/>
</g>
<defs>
<clipPath id="clip0_401_58737">
<rect width="24" height="24" fill="white"/>
</clipPath>
</defs>
</svg>
