<svg width="24" height="24" viewBox="0 0 24 24" fill="none" xmlns="http://www.w3.org/2000/svg">
<g clip-path="url(#clip0_401_58409)">
<path d="M21.98 11L24 8.98C20.93 5.9 16.69 4 12 4C7.31 4 3.07 5.9 0 8.98L6.35 15.34L12 21L15.05 17.95V15C15.05 14.55 15.14 14.12 15.28 13.71C15.82 12.14 17.29 11 19.05 11H21.98Z" fill="black"/>
<path d="M22 16V15C22 13.9 21.1 13 20 13C18.9 13 18 13.9 18 15V16C17.45 16 17 16.45 17 17V20C17 20.55 17.45 21 18 21H22C22.55 21 23 20.55 23 20V17C23 16.45 22.55 16 22 16ZM21 16H19V15C19 14.45 19.45 14 20 14C20.55 14 21 14.45 21 15V16Z" fill="black"/>
</g>
<defs>
<clipPath id="clip0_401_58409">
<rect width="24" height="24" fill="white"/>
</clipPath>
</defs>
</svg>
