<svg width="24" height="24" viewBox="0 0 24 24" fill="none" xmlns="http://www.w3.org/2000/svg">
<g clip-path="url(#clip0_401_59482)">
<path opacity="0.3" d="M12 4C7.58 4 4 7.58 4 12C4 16.42 7.58 20 12 20C16.42 20 20 16.42 20 12C20 7.58 16.42 4 12 4ZM13 14L15.26 11.74C14.35 10.68 13.01 10 11.5 10C9.13 10 7.15 11.66 6.64 13.88L5.68 13.56C6.32 10.95 8.68 9 11.5 9C13.28 9 14.87 9.79 15.97 11.03L18 9V14H13Z" fill="black"/>
<path d="M12 2C6.48 2 2 6.48 2 12C2 17.52 6.48 22 12 22C17.52 22 22 17.52 22 12C22 6.48 17.52 2 12 2ZM12 20C7.58 20 4 16.42 4 12C4 7.58 7.58 4 12 4C16.42 4 20 7.58 20 12C20 16.42 16.42 20 12 20Z" fill="black"/>
<path d="M15.9701 11.03C14.8701 9.79 13.2801 9 11.5001 9C8.68005 9 6.32005 10.95 5.68005 13.56L6.64005 13.88C7.15005 11.66 9.13005 10 11.5001 10C13.0101 10 14.3501 10.68 15.2601 11.74L13.0001 14H18.0001V9L15.9701 11.03Z" fill="black"/>
</g>
<defs>
<clipPath id="clip0_401_59482">
<rect width="24" height="24" fill="white"/>
</clipPath>
</defs>
</svg>
