<svg width="24" height="24" viewBox="0 0 24 24" fill="none" xmlns="http://www.w3.org/2000/svg">
<g clip-path="url(#clip0_401_59315)">
<path opacity="0.3" d="M4 20H20V4H4V20ZM11.07 5.5H12.93L18.04 18.5H15.95L14.81 15.5H9.17L8.05 18.5H5.96L11.07 5.5ZM12 7.98L9.93 13.5H14.07L12 7.98Z" fill="black"/>
<path d="M9.17 15.5H14.81L15.95 18.5H18.04L12.93 5.5H11.07L5.96 18.5H8.05L9.17 15.5ZM12 7.98L14.07 13.5H9.93L12 7.98ZM20 2H4C2.9 2 2 2.9 2 4V20C2 21.1 2.9 22 4 22H20C21.1 22 22 21.1 22 20V4C22 2.9 21.1 2 20 2ZM20 20H4V4H20V20Z" fill="black"/>
</g>
<defs>
<clipPath id="clip0_401_59315">
<rect width="24" height="24" fill="white"/>
</clipPath>
</defs>
</svg>
