<svg width="24" height="24" viewBox="0 0 24 24" fill="none" xmlns="http://www.w3.org/2000/svg">
<g clip-path="url(#clip0_401_58999)">
<path opacity="0.3" d="M18 20H6V8C6 6.9 6.9 6 8 6H16C17.1 6 18 6.9 18 8V20ZM7.5 12V14H14.5V16H16.5V12H7.5Z" fill="black"/>
<path d="M17 4.14V2H14V4H10V2H7V4.14C5.28 4.59 4 6.14 4 8V20C4 21.1 4.9 22 6 22H18C19.1 22 20 21.1 20 20V8C20 6.14 18.72 4.59 17 4.14ZM18 20H6V8C6 6.9 6.9 6 8 6H16C17.1 6 18 6.9 18 8V20ZM7.5 12V14H14.5V16H16.5V12H7.5Z" fill="black"/>
</g>
<defs>
<clipPath id="clip0_401_58999">
<rect width="24" height="24" fill="white"/>
</clipPath>
</defs>
</svg>
