<svg width="24" height="24" viewBox="0 0 24 24" fill="none" xmlns="http://www.w3.org/2000/svg">
<g clip-path="url(#clip0_401_58878)">
<path opacity="0.3" d="M12 4C7.59 4 4 7.59 4 12C4 16.41 7.59 20 12 20C16.41 20 20 16.41 20 12C20 7.59 16.41 4 12 4ZM6.5 9L10 5.5L13.5 9H11V13H9V9H6.5ZM14 18.5L10.5 15H13V11H15V15H17.5L14 18.5Z" fill="black"/>
<path d="M12 2C6.48 2 2 6.48 2 12C2 17.52 6.48 22 12 22C17.52 22 22 17.52 22 12C22 6.48 17.52 2 12 2ZM12 20C7.59 20 4 16.41 4 12C4 7.59 7.59 4 12 4C16.41 4 20 7.59 20 12C20 16.41 16.41 20 12 20ZM11 13V9H13.5L10 5.5L6.5 9H9V13H11ZM15 11H13V15H10.5L14 18.5L17.5 15H15V11Z" fill="black"/>
</g>
<defs>
<clipPath id="clip0_401_58878">
<rect width="24" height="24" fill="white"/>
</clipPath>
</defs>
</svg>
