<svg width="24" height="24" viewBox="0 0 24 24" fill="none" xmlns="http://www.w3.org/2000/svg">
<g clip-path="url(#clip0_401_58753)">
<path opacity="0.3" d="M12 17V13H9V10H5V7H15L18.55 12L15 17H12Z" fill="black"/>
<path d="M21 12L16.63 18.16C16.26 18.68 15.65 19 15 19H12V17H15L18.55 12L15 7H5V10H3V7C3 5.9 3.9 5 5 5H15C15.65 5 16.26 5.31 16.63 5.84L21 12ZM10 15H7V12H5V15H2V17H5V20H7V17H10V15Z" fill="black"/>
</g>
<defs>
<clipPath id="clip0_401_58753">
<rect width="24" height="24" fill="white"/>
</clipPath>
</defs>
</svg>
