<svg width="24" height="24" viewBox="0 0 24 24" fill="none" xmlns="http://www.w3.org/2000/svg">
<g clip-path="url(#clip0_401_57775)">
<path d="M12 3C9.19 3 6 5.11 6 9.13C6 11.81 8 14.62 12 17.57C16 14.62 18 11.8 18 9.13C18 5.11 14.81 3 12 3Z" fill="black" fill-opacity="0.3"/>
<path d="M12 4C13.93 4 17 5.4 17 9.15C17 11.31 15.28 13.82 12 16.47C8.72 13.82 7 11.3 7 9.15C7 5.4 10.07 4 12 4ZM12 2C8.73 2 5 4.46 5 9.15C5 12.27 7.33 15.56 12 19C16.67 15.56 19 12.27 19 9.15C19 4.46 15.27 2 12 2Z" fill="black"/>
<path d="M12 7C10.9 7 10 7.9 10 9C10 10.1 10.9 11 12 11C13.1 11 14 10.1 14 9C14 7.9 13.1 7 12 7ZM5 20H19V22H5V20Z" fill="black"/>
</g>
<defs>
<clipPath id="clip0_401_57775">
<rect width="24" height="24" fill="white"/>
</clipPath>
</defs>
</svg>
