<svg width="24" height="24" viewBox="0 0 24 24" fill="none" xmlns="http://www.w3.org/2000/svg">
<g clip-path="url(#clip0_401_58110)">
<path opacity="0.3" d="M6.83 4H20V16H18.83L16.83 14H18V12H14.83L13.83 11H18V9H11.83L10.83 8H18V6H8.83L6.83 4ZM13.17 16L11.17 14H6V12H9.17L8.17 11H6V9H6.17L4 6.83V16H13.17Z" fill="black"/>
<path d="M18.8299 16H19.9999V4H6.82994L4.82994 2H19.9999C21.0999 2 21.9999 2.9 21.9999 4V19.17L18.8299 16ZM17.9999 6H8.82994L10.8299 8H17.9999V6ZM17.9999 9H11.8299L13.8299 11H17.9999V9ZM17.9999 14V12H14.8299L16.8299 14H17.9999ZM21.8999 21.9L20.4899 23.31L15.1699 18H3.99994C2.89994 18 1.99994 17.1 1.99994 16V4.83L0.689941 3.51L2.09994 2.1L21.8999 21.9ZM13.1699 16L11.1699 14H5.99994V12H9.16994L8.16994 11H5.99994V9H6.16994L3.99994 6.83V16H13.1699Z" fill="black"/>
</g>
<defs>
<clipPath id="clip0_401_58110">
<rect width="24" height="24" fill="white"/>
</clipPath>
</defs>
</svg>
