<svg width="24" height="24" viewBox="0 0 24 24" fill="none" xmlns="http://www.w3.org/2000/svg">
<g clip-path="url(#clip0_401_59614)">
<path opacity="0.3" d="M10.5 18C10.7761 18 11 17.7761 11 17.5C11 17.2239 10.7761 17 10.5 17C10.2239 17 10 17.2239 10 17.5C10 17.7761 10.2239 18 10.5 18Z" fill="black"/>
<path d="M2 16.5H3C4.33 16.5 5.71 16.32 7 16V19C5.71 18.68 4.33 18.5 3 18.5H2V16.5ZM22 16V19H8V16H22ZM11 17.5C11 17.22 10.78 17 10.5 17C10.22 17 10 17.22 10 17.5C10 17.78 10.22 18 10.5 18C10.78 18 11 17.78 11 17.5ZM22 12.76V15H20.5V12.77C20.5 10.53 18.74 8.7 16.5 8.7V7.2C17.52 7.2 18.35 6.37 18.35 5.35C18.35 4.33 17.52 3.5 16.5 3.5V2C18.35 2 19.85 3.5 19.85 5.35C19.85 6.28 19.47 7.12 18.85 7.73C20.72 8.62 22 10.54 22 12.76ZM19.5 13.36V15H18V13.7C18 12.39 17.08 11.65 16.03 11.65H14.5C12.65 11.65 11.15 10.15 11.15 8.3C11.15 6.45 12.65 4.95 14.5 4.95V6.45C13.48 6.45 12.65 7.18 12.65 8.2C12.65 9.22 13.48 10.2 14.5 10.2H16.03C17.9 10.2 19.5 11.55 19.5 13.36Z" fill="black"/>
</g>
<defs>
<clipPath id="clip0_401_59614">
<rect width="24" height="24" fill="white"/>
</clipPath>
</defs>
</svg>
