<svg width="24" height="24" viewBox="0 0 24 24" fill="none" xmlns="http://www.w3.org/2000/svg">
<g clip-path="url(#clip0_401_59094)">
<path d="M14 9H11C10.45 9 10 9.45 10 10V14C10 14.55 10.45 15 11 15H14C14.55 15 15 14.55 15 14V10C15 9.45 14.55 9 14 9ZM13.5 13.5H11.5V10.5H13.5V13.5ZM8 13V14C8 14.55 7.55 15 7 15H4C3.45 15 3 14.55 3 14V10C3 9.45 3.45 9 4 9H7C7.55 9 8 9.45 8 10V11H6.5V10.5H4.5V13.5H6.5V13H8ZM20.5 15.5H18.5V16.5H21.5V18H17V15.5C17 14.95 17.45 14.5 18 14.5H20V13.5H17V12H20.5C21.05 12 21.5 12.45 21.5 13V14.5C21.5 15.05 21.05 15.5 20.5 15.5Z" fill="black"/>
</g>
<defs>
<clipPath id="clip0_401_59094">
<rect width="24" height="24" fill="white"/>
</clipPath>
</defs>
</svg>
