<svg width="24" height="24" viewBox="0 0 24 24" fill="none" xmlns="http://www.w3.org/2000/svg">
<g clip-path="url(#clip0_401_57871)">
<path d="M19 7H21V9H19V7ZM19 21C20.1 21 21 20.1 21 19H19V21ZM19 15H21V17H19V15ZM19 11H21V13H19V11ZM9 5V3H5C3.9 3 3 3.9 3 5V19C3 20.1 3.9 21 5 21H9V19H5V5H9ZM19 3V5H21C21 3.9 20.1 3 19 3ZM11 1H13V23H11V1ZM15 3H17V5H15V3ZM15 19H17V21H15V19Z" fill="black"/>
</g>
<defs>
<clipPath id="clip0_401_57871">
<rect width="24" height="24" fill="white"/>
</clipPath>
</defs>
</svg>
