<svg width="24" height="24" viewBox="0 0 24 24" fill="none" xmlns="http://www.w3.org/2000/svg">
<g clip-path="url(#clip0_401_59769)">
<path opacity="0.3" d="M6 11.09C6 15.09 8.55 18.79 12 19.92C13.17 19.54 14.24 18.85 15.14 17.97L6 8.83001V11.09ZM12 4.14001L8.34 5.51002L17.36 14.53C17.77 13.45 18 12.28 18 11.09V6.39001L12 4.14001Z" fill="black"/>
<path d="M12 4.14L18 6.39V11.09C18 12.28 17.77 13.45 17.36 14.53L18.87 16.04C19.59 14.51 20 12.82 20 11.09V5L12 2L6.78001 3.96L8.33001 5.51L12 4.14ZM2.81001 2.81L1.39001 4.22L4.00001 6.83V11.09C4.00001 16.14 7.41001 20.85 12 22C13.72 21.57 15.28 20.64 16.55 19.38L19.78 22.61L21.19 21.2L2.81001 2.81ZM12 19.92C8.55001 18.79 6.00001 15.1 6.00001 11.09V8.83L15.14 17.97C14.24 18.85 13.17 19.54 12 19.92Z" fill="black"/>
</g>
<defs>
<clipPath id="clip0_401_59769">
<rect width="24" height="24" fill="white"/>
</clipPath>
</defs>
</svg>
