<svg width="24" height="24" viewBox="0 0 24 24" fill="none" xmlns="http://www.w3.org/2000/svg">
<g clip-path="url(#clip0_401_59778)">
<path d="M18 9.52002V6.00002H14.48L12 3.52002L9.52002 6.00002H6.00002V9.52002L3.52002 12L6.00002 14.48V18H9.52002L12 20.48L14.48 18H18V14.48L20.48 12L18 9.52002ZM14.3 16L13.6 14H10.4L9.70002 16H7.80002L11 7.00002H13L16.2 16H14.3ZM10.85 12.65H13.15L12 9.00002L10.85 12.65Z" fill="black" fill-opacity="0.3"/>
<path d="M10.9999 6.99994L7.79994 15.9999H9.69994L10.3999 13.9999H13.5999L14.2999 15.9999H16.1999L12.9999 6.99994H10.9999ZM10.8499 12.6499L11.9999 8.99994L13.1499 12.6499H10.8499ZM19.9999 8.68994V3.99994H15.3099L11.9999 0.689941L8.68994 3.99994H3.99994V8.68994L0.689941 11.9999L3.99994 15.3099V19.9999H8.68994L11.9999 23.3099L15.3099 19.9999H19.9999V15.3099L23.3099 11.9999L19.9999 8.68994ZM17.9999 14.4799V17.9999H14.4799L11.9999 20.4799L9.51994 17.9999H5.99994V14.4799L3.51994 11.9999L5.99994 9.51994V5.99994H9.51994L11.9999 3.51994L14.4799 5.99994H17.9999V9.51994L20.4799 11.9999L17.9999 14.4799Z" fill="black"/>
</g>
<defs>
<clipPath id="clip0_401_59778">
<rect width="24" height="24" fill="white"/>
</clipPath>
</defs>
</svg>
