<svg width="24" height="24" viewBox="0 0 24 24" fill="none" xmlns="http://www.w3.org/2000/svg">
<g clip-path="url(#clip0_401_58452)">
<path opacity="0.3" d="M3.01001 12L12.01 21L21 12L12 3L3.01001 12ZM14 7.5L17.5 11L14 14.5V12H10V15H8.00001V11C8.00001 10.45 8.45001 10 9.00001 10H14V7.5Z" fill="black"/>
<path d="M13.42 1.57993C12.67 0.829928 11.35 0.819928 10.59 1.57993L1.59 10.5799C0.810005 11.3599 0.810005 12.6199 1.59 13.3999L10.59 22.3999C10.98 22.7899 11.49 22.9799 12 22.9799C12.51 22.9799 13.02 22.7899 13.41 22.3999L22.4 13.4099C23.18 12.6499 23.19 11.3799 22.42 10.5899L13.42 1.57993ZM12.01 20.9899L3.01 11.9899L12.01 2.98993L21.01 11.9899L12.01 20.9899ZM8 10.9999V14.9999H10V11.9999H14V14.4999L17.5 10.9999L14 7.49993V9.99993H9C8.45 9.99993 8 10.4499 8 10.9999Z" fill="black"/>
</g>
<defs>
<clipPath id="clip0_401_58452">
<rect width="24" height="24" fill="white"/>
</clipPath>
</defs>
</svg>
