<svg width="24" height="24" viewBox="0 0 24 24" fill="none" xmlns="http://www.w3.org/2000/svg">
<g clip-path="url(#clip0_401_59472)">
<path opacity="0.3" d="M5 5V19H19V5H5ZM12.01 18C11.31 18 10.75 17.44 10.75 16.74C10.75 16.03 11.31 15.49 12.01 15.49C12.72 15.49 13.26 16.03 13.26 16.74C13.25 17.43 12.72 18 12.01 18ZM15.02 10.6C14.26 11.71 13.54 12.06 13.15 12.77C12.99 13.06 12.93 13.25 12.93 14.18H11.11C11.11 13.69 11.03 12.89 11.42 12.2C11.91 11.33 12.84 10.81 13.38 10.04C13.95 9.23 13.63 7.71 12.01 7.71C10.95 7.71 10.43 8.51 10.21 9.19L8.56 8.49C9.01 7.15 10.22 6 11.99 6C13.47 6 14.48 6.67 15 7.52C15.44 8.24 15.7 9.59 15.02 10.6Z" fill="black"/>
<path d="M13.25 16.74C13.25 17.43 12.72 18 12 18C11.3 18 10.74 17.44 10.74 16.74C10.74 16.03 11.3 15.49 12 15.49C12.71 15.49 13.25 16.04 13.25 16.74ZM11.99 6C10.22 6 9.01 7.15 8.56 8.49L10.2 9.18C10.42 8.51 10.94 7.7 12 7.7C13.62 7.7 13.94 9.22 13.37 10.03C12.83 10.8 11.9 11.32 11.41 12.19C11.02 12.88 11.1 13.68 11.1 14.17H12.92C12.92 13.24 12.99 13.05 13.14 12.76C13.53 12.04 14.25 11.7 15.01 10.59C15.69 9.59 15.43 8.23 14.99 7.51C14.48 6.67 13.47 6 11.99 6ZM19 5H5V19H19V5ZM19 3C20.1 3 21 3.9 21 5V19C21 20.1 20.1 21 19 21H5C3.9 21 3 20.1 3 19V5C3 3.9 3.9 3 5 3H19Z" fill="black"/>
</g>
<defs>
<clipPath id="clip0_401_59472">
<rect width="24" height="24" fill="white"/>
</clipPath>
</defs>
</svg>
