<svg width="24" height="24" viewBox="0 0 24 24" fill="none" xmlns="http://www.w3.org/2000/svg">
<g clip-path="url(#clip0_401_59380)">
<path opacity="0.3" d="M19.28 8.6L18.58 7.39L17.31 7.9L16.25 8.33L15.34 7.63C14.95 7.33 14.54 7.09 14.11 6.92L13.05 6.49L12.89 5.36L12.7 4H11.3L11.11 5.35L10.95 6.48L9.88997 6.92C9.47997 7.09 9.06997 7.33 8.63997 7.65L7.73997 8.33L6.68997 7.91L5.41997 7.39L4.71997 8.6L5.79997 9.44L6.68997 10.14L6.54997 11.27C6.51997 11.57 6.49997 11.8 6.49997 12C6.49997 12.2 6.51997 12.43 6.54997 12.73L6.68997 13.86L5.79997 14.56L4.71997 15.4L5.41997 16.61L6.68997 16.1L7.74997 15.67L8.65997 16.37C9.04997 16.67 9.45997 16.91 9.88997 17.08L10.95 17.51L11.11 18.64L11.3 20H12.69L12.88 18.65L13.04 17.52L14.1 17.09C14.51 16.92 14.92 16.68 15.35 16.36L16.25 15.68L17.29 16.1L18.56 16.61L19.26 15.4L18.18 14.56L17.29 13.86L17.43 12.73C17.47 12.42 17.48 12.21 17.48 12C17.48 11.79 17.46 11.57 17.43 11.27L17.29 10.14L18.18 9.44L19.28 8.6ZM12 16C9.78997 16 7.99997 14.21 7.99997 12C7.99997 9.79 9.78997 8 12 8C14.21 8 16 9.79 16 12C16 14.21 14.21 16 12 16Z" fill="black"/>
<path d="M19.43 12.98C19.47 12.66 19.5 12.34 19.5 12C19.5 11.66 19.47 11.34 19.43 11.02L21.54 9.37C21.73 9.22 21.78 8.95 21.66 8.73L19.66 5.27C19.57 5.11 19.4 5.02 19.22 5.02C19.16 5.02 19.1 5.03 19.05 5.05L16.56 6.05C16.04 5.65 15.48 5.32 14.87 5.07L14.49 2.42C14.46 2.18 14.25 2 14 2H9.99996C9.74996 2 9.53996 2.18 9.50996 2.42L9.12996 5.07C8.51996 5.32 7.95996 5.66 7.43996 6.05L4.94996 5.05C4.88996 5.03 4.82996 5.02 4.76996 5.02C4.59996 5.02 4.42996 5.11 4.33996 5.27L2.33996 8.73C2.20996 8.95 2.26996 9.22 2.45996 9.37L4.56996 11.02C4.52996 11.34 4.49996 11.67 4.49996 12C4.49996 12.33 4.52996 12.66 4.56996 12.98L2.45996 14.63C2.26996 14.78 2.21996 15.05 2.33996 15.27L4.33996 18.73C4.42996 18.89 4.59996 18.98 4.77996 18.98C4.83996 18.98 4.89996 18.97 4.94996 18.95L7.43996 17.95C7.95996 18.35 8.51996 18.68 9.12996 18.93L9.50996 21.58C9.53996 21.82 9.74996 22 9.99996 22H14C14.25 22 14.46 21.82 14.49 21.58L14.87 18.93C15.48 18.68 16.04 18.34 16.56 17.95L19.05 18.95C19.11 18.97 19.17 18.98 19.23 18.98C19.4 18.98 19.57 18.89 19.66 18.73L21.66 15.27C21.78 15.05 21.73 14.78 21.54 14.63L19.43 12.98ZM17.45 11.27C17.49 11.58 17.5 11.79 17.5 12C17.5 12.21 17.48 12.43 17.45 12.73L17.31 13.86L18.2 14.56L19.28 15.4L18.58 16.61L17.31 16.1L16.27 15.68L15.37 16.36C14.94 16.68 14.53 16.92 14.12 17.09L13.06 17.52L12.9 18.65L12.7 20H11.3L11.11 18.65L10.95 17.52L9.88996 17.09C9.45996 16.91 9.05996 16.68 8.65996 16.38L7.74996 15.68L6.68996 16.11L5.41996 16.62L4.71996 15.41L5.79996 14.57L6.68996 13.87L6.54996 12.74C6.51996 12.43 6.49996 12.2 6.49996 12C6.49996 11.8 6.51996 11.57 6.54996 11.27L6.68996 10.14L5.79996 9.44L4.71996 8.6L5.41996 7.39L6.68996 7.9L7.72996 8.32L8.62996 7.64C9.05996 7.32 9.46996 7.08 9.87996 6.91L10.94 6.48L11.1 5.35L11.3 4H12.69L12.88 5.35L13.04 6.48L14.1 6.91C14.53 7.09 14.93 7.32 15.33 7.62L16.24 8.32L17.3 7.89L18.57 7.38L19.27 8.59L18.2 9.44L17.31 10.14L17.45 11.27ZM12 8C9.78996 8 7.99996 9.79 7.99996 12C7.99996 14.21 9.78996 16 12 16C14.21 16 16 14.21 16 12C16 9.79 14.21 8 12 8ZM12 14C10.9 14 9.99996 13.1 9.99996 12C9.99996 10.9 10.9 10 12 10C13.1 10 14 10.9 14 12C14 13.1 13.1 14 12 14Z" fill="black"/>
</g>
<defs>
<clipPath id="clip0_401_59380">
<rect width="24" height="24" fill="white"/>
</clipPath>
</defs>
</svg>
