<svg width="24" height="24" viewBox="0 0 24 24" fill="none" xmlns="http://www.w3.org/2000/svg">
<g clip-path="url(#clip0_401_58905)">
<path opacity="0.3" d="M12 4C7.59 4 4 7.59 4 12C4 16.41 7.59 20 12 20C16.41 20 20 16.41 20 12C20 7.59 16.41 4 12 4ZM17.9 12.3L15.8 17.2C15.58 17.71 15.06 18.03 14.5 18H9C7.9 18 7 17.1 7 16V11C6.98 10.62 7.13 10.26 7.4 10L12 5L12.69 5.69C12.87 5.88 12.98 6.13 12.99 6.39V6.59L12.41 10H17C17.55 10 18 10.45 18 11V11.8C18.02 11.97 17.98 12.15 17.9 12.3Z" fill="black"/>
<path d="M12 2C6.48 2 2 6.48 2 12C2 17.52 6.48 22 12 22C17.52 22 22 17.52 22 12C22 6.48 17.52 2 12 2ZM12 20C7.59 20 4 16.41 4 12C4 7.59 7.59 4 12 4C16.41 4 20 7.59 20 12C20 16.41 16.41 20 12 20Z" fill="black"/>
<path d="M16.9999 10H12.4099L12.9899 6.59V6.39C12.9799 6.13 12.8699 5.88 12.6899 5.69L11.9999 5L7.39994 10C7.12994 10.26 6.97994 10.62 6.99994 11V16C6.99994 17.1 7.89994 18 8.99994 18H14.4999C15.0599 18.03 15.5799 17.71 15.7999 17.2L17.8999 12.3C17.9799 12.15 18.0199 11.97 17.9999 11.8V11C17.9999 10.45 17.5499 10 16.9999 10Z" fill="black"/>
</g>
<defs>
<clipPath id="clip0_401_58905">
<rect width="24" height="24" fill="white"/>
</clipPath>
</defs>
</svg>
