<svg width="24" height="24" viewBox="0 0 24 24" fill="none" xmlns="http://www.w3.org/2000/svg">
<g clip-path="url(#clip0_401_59299)">
<g opacity="0.3">
<path opacity="0.3" d="M9.27 4.48999C6.2 5.59999 4 8.54999 4 12C4 16.41 7.59 20 12 20C13.81 20 15.54 19.38 16.93 18.29C13.02 16.9 7.64 12.03 9.27 4.48999Z" fill="black"/>
</g>
<path d="M12.34 2.02001C12.22 2.02001 12.11 2.01001 11.99 2.01001C6.4 2.01001 2 6.54001 2 12C2 17.52 6.48 22 12 22C15.71 22 18.93 19.98 20.66 16.98C13.15 16.73 8.57 8.55001 12.34 2.02001ZM12 20C7.59 20 4 16.41 4 12C4 8.55001 6.2 5.60001 9.27 4.49001C7.64 12.03 13.02 16.9 16.93 18.29C15.54 19.38 13.81 20 12 20Z" fill="black"/>
</g>
<defs>
<clipPath id="clip0_401_59299">
<rect width="24" height="24" fill="white"/>
</clipPath>
</defs>
</svg>
