<svg width="24" height="24" viewBox="0 0 24 24" fill="none" xmlns="http://www.w3.org/2000/svg">
<g clip-path="url(#clip0_401_59121)">
<path opacity="0.3" d="M20 4H19V13L16 10.75L13 13V4H8V16H20V4Z" fill="black"/>
<path d="M4 22H18V20H4V6H2V20C2 21.1 2.9 22 4 22ZM22 16V4C22 2.9 21.1 2 20 2H8C6.9 2 6 2.9 6 4V16C6 17.1 6.9 18 8 18H20C21.1 18 22 17.1 22 16ZM15 4H17V9L16 8.25L15 9V4ZM8 4H13V13L16 10.75L19 13V4H20V16H8V4Z" fill="black"/>
</g>
<defs>
<clipPath id="clip0_401_59121">
<rect width="24" height="24" fill="white"/>
</clipPath>
</defs>
</svg>
