<svg width="24" height="24" viewBox="0 0 24 24" fill="none" xmlns="http://www.w3.org/2000/svg">
<g clip-path="url(#clip0_401_59072)">
<path opacity="0.3" d="M4 18H20V8H4V18ZM12 15H18V17H12V15ZM6.09 10.41L7.5 9L11.5 13L7.5 17L6.09 15.59L8.67 13L6.09 10.41Z" fill="black"/>
<path d="M18 15H12V17H18V15Z" fill="black"/>
<path d="M20 4H4C2.89 4 2 4.9 2 6V18C2 19.1 2.89 20 4 20H20C21.1 20 22 19.1 22 18V6C22 4.9 21.11 4 20 4ZM20 18H4V8H20V18Z" fill="black"/>
<path d="M7.49997 17L11.5 13L7.49997 9L6.08997 10.41L8.66997 13L6.08997 15.59L7.49997 17Z" fill="black"/>
</g>
<defs>
<clipPath id="clip0_401_59072">
<rect width="24" height="24" fill="white"/>
</clipPath>
</defs>
</svg>
