<svg width="24" height="24" viewBox="0 0 24 24" fill="none" xmlns="http://www.w3.org/2000/svg">
<g clip-path="url(#clip0_401_59054)">
<path d="M18 10.48V6C18 4.9 17.1 4 16 4H4C2.9 4 2 4.9 2 6V18C2 19.1 2.9 20 4 20H16C17.1 20 18 19.1 18 18V13.52L22 17.5V6.5L18 10.48ZM16 18H4V6H16V18ZM10 12C11.1 12 12 11.1 12 10C12 8.9 11.1 8 10 8C8.9 8 8 8.9 8 10C8 11.1 8.9 12 10 12ZM14 15.43C14 14.62 13.52 13.9 12.78 13.58C11.93 13.21 10.99 13 10 13C9.01 13 8.07 13.21 7.22 13.58C6.48 13.9 6 14.62 6 15.43V16H14V15.43Z" fill="black"/>
<path opacity="0.3" d="M4 18H16V9.69V6H4V18ZM10 8C11.1 8 12 8.9 12 10C12 11.1 11.1 12 10 12C8.9 12 8 11.1 8 10C8 8.9 8.9 8 10 8ZM6 15.43C6 14.62 6.48 13.9 7.22 13.58C8.07 13.21 9.01 13 10 13C10.99 13 11.93 13.21 12.78 13.58C13.52 13.9 14 14.62 14 15.43V16H6V15.43Z" fill="black"/>
</g>
<defs>
<clipPath id="clip0_401_59054">
<rect width="24" height="24" fill="white"/>
</clipPath>
</defs>
</svg>
