<svg width="24" height="24" viewBox="0 0 24 24" fill="none" xmlns="http://www.w3.org/2000/svg">
<g clip-path="url(#clip0_401_59830)">
<path opacity="0.3" d="M5 19H19V5H5V19ZM12 6C13.65 6 15 7.35 15 9C15 10.65 13.65 12 12 12C10.35 12 9 10.65 9 9C9 7.35 10.35 6 12 6ZM6 16.47C6 13.97 9.97 12.89 12 12.89C14.03 12.89 18 13.97 18 16.47V18H6V16.47Z" fill="black"/>
<path d="M12 12C13.65 12 15 10.65 15 9C15 7.35 13.65 6 12 6C10.35 6 9 7.35 9 9C9 10.65 10.35 12 12 12ZM12 8C12.55 8 13 8.45 13 9C13 9.55 12.55 10 12 10C11.45 10 11 9.55 11 9C11 8.45 11.45 8 12 8ZM19 3H5C3.89 3 3 3.9 3 5V19C3 20.1 3.89 21 5 21H19C20.1 21 21 20.1 21 19V5C21 3.9 20.1 3 19 3ZM19 19H5V5H19V19ZM18 16.47C18 13.97 14.03 12.89 12 12.89C9.97 12.89 6 13.97 6 16.47V18H18V16.47ZM8.31 16C9 15.44 10.69 14.88 12 14.88C13.31 14.88 15.01 15.44 15.69 16H8.31Z" fill="black"/>
</g>
<defs>
<clipPath id="clip0_401_59830">
<rect width="24" height="24" fill="white"/>
</clipPath>
</defs>
</svg>
