<svg width="24" height="24" viewBox="0 0 24 24" fill="none" xmlns="http://www.w3.org/2000/svg">
<g clip-path="url(#clip0_401_59855)">
<path opacity="0.3" d="M7 17H21V3H7V17ZM11 13H15V11H13V9H15V7H11V5H15C16.1 5 17 5.89 17 7V8.5C17 9.33 16.33 10 15.5 10C16.33 10 17 10.67 17 11.5V13C17 14.11 16.1 15 15 15H11V13Z" fill="black"/>
<path d="M21 1H7C5.9 1 5 1.9 5 3V17C5 18.1 5.9 19 7 19H21C22.1 19 23 18.1 23 17V3C23 1.9 22.1 1 21 1ZM21 17H7V3H21V17ZM17 13V11.5C17 10.67 16.33 10 15.5 10C16.33 10 17 9.33 17 8.5V7C17 5.89 16.1 5 15 5H11V7H15V9H13V11H15V13H11V15H15C16.1 15 17 14.11 17 13ZM19 23V21H3V5H1V21C1 22.1 1.9 23 3 23H19Z" fill="black"/>
</g>
<defs>
<clipPath id="clip0_401_59855">
<rect width="24" height="24" fill="white"/>
</clipPath>
</defs>
</svg>
