<svg width="24" height="24" viewBox="0 0 24 24" fill="none" xmlns="http://www.w3.org/2000/svg">
<g clip-path="url(#clip0_401_57760)">
<path opacity="0.3" d="M13 7H15V9H13V7ZM7 17H21V3H7V17ZM11 13H15V11H13C11.9 11 11 10.11 11 9V7C11 5.89 11.9 5 13 5H15C16.1 5 17 5.89 17 7V13C17 14.11 16.1 15 15 15H11V13Z" fill="black"/>
<path d="M21 1H7C5.9 1 5 1.9 5 3V17C5 18.1 5.9 19 7 19H21C22.1 19 23 18.1 23 17V3C23 1.9 22.1 1 21 1ZM21 17H7V3H21V17ZM3 23H19V21H3V5H1V21C1 22.1 1.9 23 3 23ZM17 13V7C17 5.89 16.1 5 15 5H13C11.9 5 11 5.89 11 7V9C11 10.11 11.9 11 13 11H15V13H11V15H15C16.1 15 17 14.11 17 13ZM13 9V7H15V9H13Z" fill="black"/>
</g>
<defs>
<clipPath id="clip0_401_57760">
<rect width="24" height="24" fill="white"/>
</clipPath>
</defs>
</svg>
