<svg width="24" height="24" viewBox="0 0 24 24" fill="none" xmlns="http://www.w3.org/2000/svg">
<g clip-path="url(#clip0_401_58118)">
<g opacity="0.3">
<path opacity="0.3" d="M10.7 13.53L8.99 11.82C9 11.88 9 11.94 9 12C9 13.1 8.1 14 7 14C5.9 14 5 13.1 5 12C5 10.9 5.9 10 7 10C7.06 10 7.12 10 7.18 10.01L5.47 8.30005C4.02 8.90005 3 10.33 3 12C3 14.21 4.79 16 7 16C8.67 16 10.1 14.98 10.7 13.53ZM16.26 13.43L17.5 12.5L19.31 13.86L21.17 12L20.17 11H13.83L16.26 13.43Z" fill="black"/>
</g>
<path d="M10.7 13.5301L8.99 11.8201C9 11.8801 9 11.9401 9 12.0001C9 13.1001 8.1 14.0001 7 14.0001C5.9 14.0001 5 13.1001 5 12.0001C5 10.9001 5.9 10.0001 7 10.0001C7.06 10.0001 7.12 10.0001 7.18 10.0101L5.47 8.30006C4.02 8.90006 3 10.3301 3 12.0001C3 14.2101 4.79 16.0001 7 16.0001C8.67 16.0001 10.1 14.9801 10.7 13.5301ZM12.19 15.0201C11.15 16.8001 9.21 18.0001 7 18.0001C3.69 18.0001 1 15.3101 1 12.0001C1 9.79006 2.2 7.85006 3.98 6.81006L1.39 4.22006L2.8 2.81006L21.18 21.1901L19.77 22.6001L12.19 15.0201ZM16.26 13.4301L17.5 12.5001L19.31 13.8601L21.17 12.0001L20.17 11.0001H13.83L11.83 9.00006H21L24 12.0001L19.5 16.5001L18.81 15.9901L16.26 13.4301Z" fill="black"/>
</g>
<defs>
<clipPath id="clip0_401_58118">
<rect width="24" height="24" fill="white"/>
</clipPath>
</defs>
</svg>
