<svg width="24" height="24" viewBox="0 0 24 24" fill="none" xmlns="http://www.w3.org/2000/svg">
<g clip-path="url(#clip0_401_59286)">
<path opacity="0.3" d="M17 3H7V4H17V3Z" fill="black"/>
<path opacity="0.3" d="M17 20H7V21H17V20Z" fill="black"/>
<path d="M17 1H7C5.9 1 5 1.9 5 3V21C5 22.1 5.9 23 7 23H17C18.1 23 19 22.1 19 21V3C19 1.9 18.1 1 17 1ZM7 4V3H17V4H7ZM7 18V6H17V18H7ZM7 21V20H17V21H7Z" fill="black"/>
<path d="M16 7H8V9H16V7Z" fill="black"/>
</g>
<defs>
<clipPath id="clip0_401_59286">
<rect width="24" height="24" fill="white"/>
</clipPath>
</defs>
</svg>
