<svg width="24" height="24" viewBox="0 0 24 24" fill="none" xmlns="http://www.w3.org/2000/svg">
<g clip-path="url(#clip0_401_59181)">
<path opacity="0.3" d="M12 17C9.96 17 8.19 15.76 7.42 14H4V19H20V14H16.58C15.81 15.76 14.04 17 12 17Z" fill="black"/>
<path d="M21.1599 7.25998L19.7499 5.84998L16.1899 9.39998L17.5999 10.81C17.5999 10.81 21.0499 7.28998 21.1599 7.25998Z" fill="black"/>
<path d="M13 3H11V8H13V3Z" fill="black"/>
<path d="M20 12H15C15 13.66 13.66 15 12 15C10.34 15 9 13.66 9 12H4C2.9 12 2 12.9 2 14V19C2 20.1 2.9 21 4 21H20C21.1 21 22 20.1 22 19V14C22 12.9 21.1 12 20 12ZM20 19H4V14H7.42C8.19 15.76 9.96 17 12 17C14.04 17 15.81 15.76 16.58 14H20V19Z" fill="black"/>
<path d="M6.39997 10.81L7.80997 9.40003L4.25997 5.84003L2.83997 7.26003C2.94997 7.29003 6.39997 10.81 6.39997 10.81Z" fill="black"/>
</g>
<defs>
<clipPath id="clip0_401_59181">
<rect width="24" height="24" fill="white"/>
</clipPath>
</defs>
</svg>
