<svg width="24" height="24" viewBox="0 0 24 24" fill="none" xmlns="http://www.w3.org/2000/svg">
<g clip-path="url(#clip0_401_58424)">
<path opacity="0.3" d="M12 4C7.59 4 4 7.59 4 12C4 16.41 7.59 20 12 20C16.41 20 20 16.41 20 12C20 7.59 16.41 4 12 4ZM7 7H14V9H7V7ZM10 15H7V13H10V15ZM7 12V10H14V12H7ZM17 15V17H15V15H13V13H15V11H17V13H19V15H17Z" fill="black"/>
<path d="M12 2C6.48 2 2 6.48 2 12C2 17.52 6.48 22 12 22C17.52 22 22 17.52 22 12C22 6.48 17.52 2 12 2ZM12 20C7.59 20 4 16.41 4 12C4 7.59 7.59 4 12 4C16.41 4 20 7.59 20 12C20 16.41 16.41 20 12 20ZM14 10H7V12H14V10ZM14 7H7V9H14V7ZM7 15H10V13H7V15ZM19 13V15H17V17H15V15H13V13H15V11H17V13H19Z" fill="black"/>
</g>
<defs>
<clipPath id="clip0_401_58424">
<rect width="24" height="24" fill="white"/>
</clipPath>
</defs>
</svg>
