<svg width="24" height="24" viewBox="0 0 24 24" fill="none" xmlns="http://www.w3.org/2000/svg">
<g clip-path="url(#clip0_401_57960)">
<path opacity="0.3" d="M16 7H9.82996L14 11.17V10.4L16 7.39V7Z" fill="black"/>
<path opacity="0.3" d="M10 12.8301V20.0001H14V16.8301L10 12.8301Z" fill="black"/>
<path opacity="0.3" d="M16 5V4H6.82996L7.82996 5H16Z" fill="black"/>
<path d="M2.81001 2.81006L1.39001 4.22006L8.00001 10.8301V22.0001H16V18.8301L19.78 22.6101L21.19 21.2001L2.81001 2.81006ZM14 20.0001H10V12.8301L14 16.8301V20.0001Z" fill="black"/>
<path d="M16 4V5H7.83L9.83 7H16V7.39L14 10.4V11.17L16 13.17V11L18 8V2H6V3.17L6.83 4H16Z" fill="black"/>
</g>
<defs>
<clipPath id="clip0_401_57960">
<rect width="24" height="24" fill="white"/>
</clipPath>
</defs>
</svg>
