<svg width="24" height="24" viewBox="0 0 24 24" fill="none" xmlns="http://www.w3.org/2000/svg">
<g clip-path="url(#clip0_401_59836)">
<path opacity="0.3" d="M12 14C14.76 14 17 11.76 17 9C17 6.24 14.76 4 12 4C9.24 4 7 6.24 7 9C7 11.76 9.24 14 12 14ZM14 7C14.55 7 15 7.45 15 8C15 8.55 14.55 9 14 9C13.45 9 13 8.55 13 8C13 7.45 13.45 7 14 7ZM12 5C12.55 5 13 5.45 13 6C13 6.55 12.55 7 12 7C11.45 7 11 6.55 11 6C11 5.45 11.45 5 12 5ZM10 7C10.55 7 11 7.45 11 8C11 8.55 10.55 9 10 9C9.45 9 9 8.55 9 8C9 7.45 9.45 7 10 7Z" fill="black"/>
<path d="M12 16C15.87 16 19 12.87 19 9C19 5.13 15.87 2 12 2C8.13 2 5 5.13 5 9C5 12.87 8.13 16 12 16ZM12 4C14.76 4 17 6.24 17 9C17 11.76 14.76 14 12 14C9.24 14 7 11.76 7 9C7 6.24 9.24 4 12 4Z" fill="black"/>
<path d="M10 9C10.5523 9 11 8.55228 11 8C11 7.44772 10.5523 7 10 7C9.44772 7 9 7.44772 9 8C9 8.55228 9.44772 9 10 9Z" fill="black"/>
<path d="M14 9C14.5523 9 15 8.55228 15 8C15 7.44772 14.5523 7 14 7C13.4477 7 13 7.44772 13 8C13 8.55228 13.4477 9 14 9Z" fill="black"/>
<path d="M12 7C12.5523 7 13 6.55228 13 6C13 5.44772 12.5523 5 12 5C11.4477 5 11 5.44772 11 6C11 6.55228 11.4477 7 12 7Z" fill="black"/>
<path d="M7 19H9C10.1 19 11 19.9 11 21V22H13V21C13 19.9 13.9 19 15 19H17V17H7V19Z" fill="black"/>
</g>
<defs>
<clipPath id="clip0_401_59836">
<rect width="24" height="24" fill="white"/>
</clipPath>
</defs>
</svg>
