<svg width="24" height="24" viewBox="0 0 24 24" fill="none" xmlns="http://www.w3.org/2000/svg">
<g clip-path="url(#clip0_401_58404)">
<path opacity="0.3" d="M4 6.99998H20V3.97998L4 3.99998V6.99998Z" fill="black"/>
<path opacity="0.3" d="M5 20H19V9H5V20ZM9 12H15V14H9V12Z" fill="black"/>
<path d="M20 2H4C3 2 2 2.9 2 4V7.01C2 7.73 2.43 8.35 3 8.7V20C3 21.1 4.1 22 5 22H19C19.9 22 21 21.1 21 20V8.7C21.57 8.35 22 7.73 22 7.01V4C22 2.9 21 2 20 2ZM19 20H5V9H19V20ZM20 7H4V4L20 3.98V7Z" fill="black"/>
<path d="M15 12H9V14H15V12Z" fill="black"/>
</g>
<defs>
<clipPath id="clip0_401_58404">
<rect width="24" height="24" fill="white"/>
</clipPath>
</defs>
</svg>
