<svg width="24" height="24" viewBox="0 0 24 24" fill="none" xmlns="http://www.w3.org/2000/svg">
<g clip-path="url(#clip0_401_59079)">
<path d="M4 9H9C9 7.9 8.1 7 7 7H4C3.45 7 3 7.45 3 8C3 8.55 3.45 9 4 9Z" fill="black"/>
<path d="M22 14.06V8.00001C22 6.90001 21.1 6.00001 20 6.00001H13.71L12.65 4.94001L14.06 3.53001L13.35 2.82001L9.82 6.35001L10.53 7.06001L11.94 5.65001L13 6.71001V9.00001C13 10.1 12.1 11 11 11H8.96C8.74 10.84 8.51 10.7 8.27 10.57L7.87 11.46L7.41 11.25L7.81 10.35C7.26 10.13 6.64 10 6 10C5.47 10 4.96 10.11 4.48 10.26L4.82 11.17L4.35 11.35L4 10.42C2.94 10.88 2.09 11.7 1.57 12.73L2.46 13.13L2.25 13.59L1.35 13.19C1.13 13.74 1 14.36 1 15C1 15.53 1.11 16.04 1.26 16.52L2.17 16.18L2.35 16.65L1.42 17C1.88 18.06 2.7 18.91 3.73 19.43L4.13 18.54L4.59 18.75L4.19 19.65C4.74 19.87 5.36 20 6 20C6.53 20 7.04 19.89 7.52 19.74L7.18 18.83L7.65 18.65L8 19.58C9.06 19.12 9.91 18.3 10.43 17.27L9.54 16.87L9.75 16.41L10.65 16.81C10.75 16.55 10.83 16.27 10.89 15.99H16.05C16.03 16.16 16 16.33 16 16.5C16 18.43 17.57 20 19.5 20C21.43 20 23 18.43 23 16.5C23 15.55 22.62 14.69 22 14.06ZM6 18C4.34 18 3 16.66 3 15C3 13.34 4.34 12 6 12C7.66 12 9 13.34 9 15C9 16.66 7.66 18 6 18ZM10.87 14C10.83 13.82 10.79 13.65 10.74 13.48L9.83 13.82L9.65 13.35L10.58 13H11C13.21 13 15 11.21 15 9.00001V8.00001H20V13.05C19.84 13.03 19.67 13 19.5 13C18.55 13 17.69 13.38 17.06 14H10.87ZM19.5 18C18.67 18 18 17.33 18 16.5C18 15.67 18.67 15 19.5 15C20.33 15 21 15.67 21 16.5C21 17.33 20.33 18 19.5 18Z" fill="black"/>
<path opacity="0.3" d="M20 13.05V8H15V9C15 11.21 13.21 13 11 13H10.58C10.72 13.32 10.83 13.65 10.9 14H17.06C17.69 13.38 18.55 13 19.5 13C19.67 13 19.84 13.03 20 13.05Z" fill="black"/>
</g>
<defs>
<clipPath id="clip0_401_59079">
<rect width="24" height="24" fill="white"/>
</clipPath>
</defs>
</svg>
