<svg width="24" height="24" viewBox="0 0 24 24" fill="none" xmlns="http://www.w3.org/2000/svg">
<g clip-path="url(#clip0_401_58994)">
<path opacity="0.3" d="M12 18C10.37 18 8.94 17.21 8.02 16H5V19H19V16H15.98C15.06 17.21 13.63 18 12 18Z" fill="black"/>
<path d="M11 14H13V11H16L12 7L8 11H11V14Z" fill="black"/>
<path d="M19 3H5C3.9 3 3 3.9 3 5V19C3 20.1 3.9 21 5 21H19C20.1 21 21 20.1 21 19V5C21 3.9 20.1 3 19 3ZM19 19H5V16H8.02C8.93 17.21 10.37 18 12 18C13.63 18 15.06 17.21 15.98 16H19V19ZM19 14H14.82C14.41 15.16 13.31 16 12 16C10.69 16 9.6 15.16 9.18 14H5V5H19V14Z" fill="black"/>
</g>
<defs>
<clipPath id="clip0_401_58994">
<rect width="24" height="24" fill="white"/>
</clipPath>
</defs>
</svg>
