<svg width="24" height="24" viewBox="0 0 24 24" fill="none" xmlns="http://www.w3.org/2000/svg">
<g clip-path="url(#clip0_401_59321)">
<path opacity="0.3" d="M19 19V5L5 19H19ZM14.5 14.5V12.5H16V14.5H18V16H16V18H14.5V16H12.5V14.5H14.5Z" fill="black"/>
<path d="M19 3H5C3.9 3 3 3.9 3 5V19C3 20.1 3.9 21 5 21H19C20.1 21 21 20.1 21 19V5C21 3.9 20.1 3 19 3ZM6 7H11V8.5H6V7ZM19 19H5L19 5V19ZM14.5 16V18H16V16H18V14.5H16V12.5H14.5V14.5H12.5V16H14.5Z" fill="black"/>
</g>
<defs>
<clipPath id="clip0_401_59321">
<rect width="24" height="24" fill="white"/>
</clipPath>
</defs>
</svg>
