<svg width="24" height="24" viewBox="0 0 24 24" fill="none" xmlns="http://www.w3.org/2000/svg">
<g clip-path="url(#clip0_401_59099)">
<path opacity="0.3" d="M17 11.51V11.5H7V11.51V14.5H17V11.51ZM9 14C8.45 14 8 13.55 8 13C8 12.45 8.45 12 9 12C9.55 12 10 12.45 10 13C10 13.55 9.55 14 9 14ZM15 14C14.45 14 14 13.55 14 13C14 12.45 14.45 12 15 12C15.55 12 16 12.45 16 13C16 13.55 15.55 14 15 14Z" fill="black"/>
<path opacity="0.3" d="M4 20H20V4H4V20ZM5 11.19C5.82 8.72 6.34 7.16 6.56 6.5C6.61 6.34 6.68 6.21 6.75 6.1C6.77 6.08 6.78 6.06 6.8 6.04C7.18 5.51 7.72 5.5 7.72 5.5H16.28C16.28 5.5 16.82 5.51 17.2 6.03C17.22 6.06 17.23 6.08 17.25 6.1C17.32 6.21 17.39 6.34 17.44 6.5C17.66 7.16 18.18 8.73 19 11.19V17.69C19 18.14 18.65 18.5 18.22 18.5H17.78C17.34 18.5 17 18.14 17 17.69V16.5H7V17.69C7 18.14 6.65 18.5 6.22 18.5H5.78C5.35 18.5 5 18.14 5 17.69V11.19Z" fill="black"/>
<path d="M20 2H4C2.9 2 2 2.9 2 4V20C2 21.1 2.9 22 4 22H20C21.1 22 22 21.1 22 20V4C22 2.9 21.1 2 20 2ZM20 20H4V4H20V20Z" fill="black"/>
<path d="M9 14C9.55228 14 10 13.5523 10 13C10 12.4477 9.55228 12 9 12C8.44772 12 8 12.4477 8 13C8 13.5523 8.44772 14 9 14Z" fill="black"/>
<path d="M15 14C15.5523 14 16 13.5523 16 13C16 12.4477 15.5523 12 15 12C14.4477 12 14 12.4477 14 13C14 13.5523 14.4477 14 15 14Z" fill="black"/>
<path d="M5.78 18.5H6.22C6.65 18.5 7 18.14 7 17.69V16.5H17V17.69C17 18.14 17.34 18.5 17.78 18.5H18.22C18.65 18.5 19 18.14 19 17.69V11.19C18.18 8.73 17.66 7.16 17.44 6.5C17.39 6.34 17.32 6.21 17.25 6.1C17.23 6.08 17.22 6.06 17.2 6.03C16.82 5.51 16.28 5.5 16.28 5.5H7.72C7.72 5.5 7.18 5.51 6.8 6.04C6.78 6.06 6.77 6.08 6.75 6.1C6.68 6.21 6.61 6.34 6.56 6.5C6.34 7.16 5.82 8.72 5 11.19V17.69C5 18.14 5.35 18.5 5.78 18.5ZM8.33 7.5H15.67L15.9 8.19L16.33 9.5H7.67L8.33 7.5ZM7 11.51V11.5H17V11.51V14.5H7V11.51Z" fill="black"/>
</g>
<defs>
<clipPath id="clip0_401_59099">
<rect width="24" height="24" fill="white"/>
</clipPath>
</defs>
</svg>
