<svg width="24" height="24" viewBox="0 0 24 24" fill="none" xmlns="http://www.w3.org/2000/svg">
<g clip-path="url(#clip0_401_58086)">
<path d="M12 1L3 5V11C3 16.55 6.84 21.74 12 23C17.16 21.74 21 16.55 21 11V5L12 1ZM19 11C19 15.52 16.02 19.69 12 20.93C7.98 19.69 5 15.52 5 11V6.3L12 3.19L19 6.3V11ZM7.41 11.59L6 13L10 17L18 9L16.59 7.58L10 14.17L7.41 11.59Z" fill="black"/>
<path opacity="0.3" d="M5 6.29994V10.9999C5 15.5199 7.98 19.6899 12 20.9299C16.02 19.6999 19 15.5199 19 10.9999V6.29994L12 3.18994L5 6.29994ZM18 8.99994L10 16.9999L6 12.9999L7.41 11.5899L10 14.1699L16.59 7.57994L18 8.99994Z" fill="black"/>
</g>
<defs>
<clipPath id="clip0_401_58086">
<rect width="24" height="24" fill="white"/>
</clipPath>
</defs>
</svg>
