<svg width="24" height="24" viewBox="0 0 24 24" fill="none" xmlns="http://www.w3.org/2000/svg">
<g clip-path="url(#clip0_401_59281)">
<path d="M15.5 14.5C15.5 11.7 17.7 9.5 20.5 9.5C20.86 9.5 21.21 9.54 21.55 9.61L23.64 7C23.19 6.66 18.71 3 12 3C5.27999 3 0.809985 6.66 0.359985 7L12 21.5L15.5 17.14V14.5Z" fill="black" fill-opacity="0.3"/>
<path d="M15.5 14.5C15.5 14.27 15.54 14.04 15.57 13.82C14.65 13.39 13.43 13 12 13C8.99995 13 6.89995 14.7 6.69995 14.9L12 21.5L15.5 17.14V14.5ZM23 16V14.5C23 13.1 21.9 12 20.5 12C19.1 12 18 13.1 18 14.5V16C17.5 16 17 16.5 17 17V21C17 21.5 17.5 22 18 22H23C23.5 22 24 21.5 24 21V17C24 16.5 23.5 16 23 16ZM22 16H19V14.5C19 13.7 19.7 13 20.5 13C21.3 13 22 13.7 22 14.5V16Z" fill="black"/>
</g>
<defs>
<clipPath id="clip0_401_59281">
<rect width="24" height="24" fill="white"/>
</clipPath>
</defs>
</svg>
