<svg width="24" height="24" viewBox="0 0 24 24" fill="none" xmlns="http://www.w3.org/2000/svg">
<g clip-path="url(#clip0_401_59879)">
<path opacity="0.3" d="M13 9V4H6V20H18V9H13ZM10.94 18L7.4 14.46L8.81 13.05L10.93 15.17L15.17 10.93L16.58 12.34L10.94 18Z" fill="black"/>
<path d="M14 2H6C4.9 2 4.01 2.9 4.01 4L4 20C4 21.1 4.89 22 5.99 22H18C19.1 22 20 21.1 20 20V8L14 2ZM18 20H6V4H13V9H18V20ZM8.82 13.05L7.4 14.46L10.94 18L16.6 12.34L15.19 10.93L10.95 15.17L8.82 13.05Z" fill="black"/>
</g>
<defs>
<clipPath id="clip0_401_59879">
<rect width="24" height="24" fill="white"/>
</clipPath>
</defs>
</svg>
