<svg width="24" height="24" viewBox="0 0 24 24" fill="none" xmlns="http://www.w3.org/2000/svg">
<g clip-path="url(#clip0_401_57979)">
<path d="M8.67001 5.84006L7.22001 4.39006C8.60001 3.51006 10.24 3.00006 12 3.00006C14.74 3.00006 17.19 4.23006 18.84 6.16006L21 4.00006V10.0001H15L17.41 7.59006C16.12 6.02006 14.18 5.00006 12 5.00006C10.8 5.00006 9.66002 5.31006 8.67001 5.84006ZM13 7.00006H11V8.17006L13 10.1701V7.00006ZM19.78 22.6101L16.78 19.6101C15.39 20.4801 13.76 21.0001 12 21.0001C7.03001 21.0001 3.00001 16.9701 3.00001 12.0001C3.00001 10.2401 3.51001 8.60006 4.39001 7.22006L1.39001 4.22006L2.80001 2.81006L21.18 21.1901L19.78 22.6101ZM15.32 18.1501L5.84001 8.67006C5.31001 9.66006 5.00001 10.8001 5.00001 12.0001C5.00001 15.8601 8.14001 19.0001 12 19.0001C13.2 19.0001 14.34 18.6901 15.32 18.1501ZM20.94 13.0001H18.92C18.8 13.8301 18.53 14.6101 18.15 15.3201L19.62 16.7901C20.32 15.6701 20.79 14.3801 20.94 13.0001Z" fill="black"/>
</g>
<defs>
<clipPath id="clip0_401_57979">
<rect width="24" height="24" fill="white"/>
</clipPath>
</defs>
</svg>
