<svg width="24" height="24" viewBox="0 0 24 24" fill="none" xmlns="http://www.w3.org/2000/svg">
<g clip-path="url(#clip0_401_58066)">
<path d="M14 11.5C14.8284 11.5 15.5 10.8284 15.5 10C15.5 9.17157 14.8284 8.5 14 8.5C13.1716 8.5 12.5 9.17157 12.5 10C12.5 10.8284 13.1716 11.5 14 11.5Z" fill="black"/>
<path d="M14 19C14.5523 19 15 18.5523 15 18C15 17.4477 14.5523 17 14 17C13.4477 17 13 17.4477 13 18C13 18.5523 13.4477 19 14 19Z" fill="black"/>
<path d="M14 15.5C14.8284 15.5 15.5 14.8284 15.5 14C15.5 13.1716 14.8284 12.5 14 12.5C13.1716 12.5 12.5 13.1716 12.5 14C12.5 14.8284 13.1716 15.5 14 15.5Z" fill="black"/>
<path d="M14 7C14.5523 7 15 6.55228 15 6C15 5.44772 14.5523 5 14 5C13.4477 5 13 5.44772 13 6C13 6.55228 13.4477 7 14 7Z" fill="black"/>
<path d="M3 9.5C2.72 9.5 2.5 9.72 2.5 10C2.5 10.28 2.72 10.5 3 10.5C3.28 10.5 3.5 10.28 3.5 10C3.5 9.72 3.28 9.5 3 9.5ZM14.5 3C14.5 2.72 14.28 2.5 14 2.5C13.72 2.5 13.5 2.72 13.5 3C13.5 3.28 13.72 3.5 14 3.5C14.28 3.5 14.5 3.28 14.5 3ZM21 14.5C21.28 14.5 21.5 14.28 21.5 14C21.5 13.72 21.28 13.5 21 13.5C20.72 13.5 20.5 13.72 20.5 14C20.5 14.28 20.72 14.5 21 14.5Z" fill="black"/>
<path d="M18 19C18.5523 19 19 18.5523 19 18C19 17.4477 18.5523 17 18 17C17.4477 17 17 17.4477 17 18C17 18.5523 17.4477 19 18 19Z" fill="black"/>
<path d="M13.5 21C13.5 21.28 13.72 21.5 14 21.5C14.28 21.5 14.5 21.28 14.5 21C14.5 20.72 14.28 20.5 14 20.5C13.72 20.5 13.5 20.72 13.5 21ZM21 10.5C21.28 10.5 21.5 10.28 21.5 10C21.5 9.72 21.28 9.5 21 9.5C20.72 9.5 20.5 9.72 20.5 10C20.5 10.28 20.72 10.5 21 10.5Z" fill="black"/>
<path d="M18 15C18.5523 15 19 14.5523 19 14C19 13.4477 18.5523 13 18 13C17.4477 13 17 13.4477 17 14C17 14.5523 17.4477 15 18 15Z" fill="black"/>
<path d="M18 7C18.5523 7 19 6.55228 19 6C19 5.44772 18.5523 5 18 5C17.4477 5 17 5.44772 17 6C17 6.55228 17.4477 7 18 7Z" fill="black"/>
<path d="M6 19C6.55228 19 7 18.5523 7 18C7 17.4477 6.55228 17 6 17C5.44772 17 5 17.4477 5 18C5 18.5523 5.44772 19 6 19Z" fill="black"/>
<path d="M6 15C6.55228 15 7 14.5523 7 14C7 13.4477 6.55228 13 6 13C5.44772 13 5 13.4477 5 14C5 14.5523 5.44772 15 6 15Z" fill="black"/>
<path d="M3.5 14C3.5 13.72 3.28 13.5 3 13.5C2.72 13.5 2.5 13.72 2.5 14C2.5 14.28 2.72 14.5 3 14.5C3.28 14.5 3.5 14.28 3.5 14Z" fill="black"/>
<path d="M10 7C10.5523 7 11 6.55228 11 6C11 5.44772 10.5523 5 10 5C9.44772 5 9 5.44772 9 6C9 6.55228 9.44772 7 10 7Z" fill="black"/>
<path d="M6 11C6.55228 11 7 10.5523 7 10C7 9.44772 6.55228 9 6 9C5.44772 9 5 9.44772 5 10C5 10.5523 5.44772 11 6 11Z" fill="black"/>
<path d="M6 7C6.55228 7 7 6.55228 7 6C7 5.44772 6.55228 5 6 5C5.44772 5 5 5.44772 5 6C5 6.55228 5.44772 7 6 7Z" fill="black"/>
<path d="M9.5 21C9.5 21.28 9.72 21.5 10 21.5C10.28 21.5 10.5 21.28 10.5 21C10.5 20.72 10.28 20.5 10 20.5C9.72 20.5 9.5 20.72 9.5 21Z" fill="black"/>
<path d="M10 19C10.5523 19 11 18.5523 11 18C11 17.4477 10.5523 17 10 17C9.44772 17 9 17.4477 9 18C9 18.5523 9.44772 19 10 19Z" fill="black"/>
<path d="M10.5 3C10.5 2.72 10.28 2.5 10 2.5C9.72 2.5 9.5 2.72 9.5 3C9.5 3.28 9.72 3.5 10 3.5C10.28 3.5 10.5 3.28 10.5 3Z" fill="black"/>
<path d="M10 15.5C10.8284 15.5 11.5 14.8284 11.5 14C11.5 13.1716 10.8284 12.5 10 12.5C9.17157 12.5 8.5 13.1716 8.5 14C8.5 14.8284 9.17157 15.5 10 15.5Z" fill="black"/>
<path d="M10 11.5C10.8284 11.5 11.5 10.8284 11.5 10C11.5 9.17157 10.8284 8.5 10 8.5C9.17157 8.5 8.5 9.17157 8.5 10C8.5 10.8284 9.17157 11.5 10 11.5Z" fill="black"/>
<path d="M18 11C18.5523 11 19 10.5523 19 10C19 9.44772 18.5523 9 18 9C17.4477 9 17 9.44772 17 10C17 10.5523 17.4477 11 18 11Z" fill="black"/>
</g>
<defs>
<clipPath id="clip0_401_58066">
<rect width="24" height="24" fill="white"/>
</clipPath>
</defs>
</svg>
