<svg width="24" height="24" viewBox="0 0 24 24" fill="none" xmlns="http://www.w3.org/2000/svg">
<g clip-path="url(#clip0_401_59681)">
<path opacity="0.3" d="M16 6H8V12H16V6Z" fill="black"/>
<path opacity="0.3" d="M19 14H5C4.45 14 4 14.45 4 15V18H20V15C20 14.45 19.55 14 19 14ZM18 17C17.45 17 17 16.55 17 16C17 15.45 17.45 15 18 15C18.55 15 19 15.45 19 16C19 16.55 18.55 17 18 17Z" fill="black"/>
<path d="M19 12H18V4H6V12H5C3.34 12 2 13.34 2 15V20H22V15C22 13.34 20.66 12 19 12ZM8 6H16V12H8V6ZM20 18H4V15C4 14.45 4.45 14 5 14H19C19.55 14 20 14.45 20 15V18Z" fill="black"/>
<path d="M18 17C18.5523 17 19 16.5523 19 16C19 15.4477 18.5523 15 18 15C17.4477 15 17 15.4477 17 16C17 16.5523 17.4477 17 18 17Z" fill="black"/>
</g>
<defs>
<clipPath id="clip0_401_59681">
<rect width="24" height="24" fill="white"/>
</clipPath>
</defs>
</svg>
