<svg width="24" height="24" viewBox="0 0 24 24" fill="none" xmlns="http://www.w3.org/2000/svg">
<g clip-path="url(#clip0_401_58052)">
<path opacity="0.3" d="M8.87999 5H6.23999L4.73999 8H7.37999L8.87999 5Z" fill="black"/>
<path opacity="0.3" d="M19.26 8L17.76 5H15.12L16.62 8H19.26Z" fill="black"/>
<path opacity="0.3" d="M10.9999 16.68V10H5.43994L10.9999 16.68Z" fill="black"/>
<path opacity="0.3" d="M13 16.68L18.56 10H13V16.68Z" fill="black"/>
<path opacity="0.3" d="M12.88 5H11.12L9.62 8H14.38L12.88 5Z" fill="black"/>
<path d="M19 3H5L2 9L12 21L22 9L19 3ZM17.76 5L19.26 8H16.61L15.11 5H17.76ZM6.24 5H8.89L7.39 8H4.74L6.24 5ZM11 16.68L5.44 10H11V16.68ZM9.62 8L11.12 5H12.88L14.38 8H9.62ZM13 16.68V10H18.56L13 16.68Z" fill="black"/>
</g>
<defs>
<clipPath id="clip0_401_58052">
<rect width="24" height="24" fill="white"/>
</clipPath>
</defs>
</svg>
