<svg width="24" height="24" viewBox="0 0 24 24" fill="none" xmlns="http://www.w3.org/2000/svg">
<g clip-path="url(#clip0_401_57892)">
<path opacity="0.3" d="M4.93994 7.26L7.14994 9.47C8.58994 8.56 10.2599 8.07 11.9999 8.07C13.7399 8.07 15.4099 8.56 16.8399 9.47L19.0499 7.26C16.9999 5.79 14.5599 5 11.9999 5C9.43994 5 6.98994 5.79 4.93994 7.26Z" fill="black"/>
<path opacity="0.3" d="M12 20C13.6569 20 15 18.6569 15 17C15 15.3431 13.6569 14 12 14C10.3431 14 9 15.3431 9 17C9 18.6569 10.3431 20 12 20Z" fill="black"/>
<path d="M17 17C17 14.24 14.76 12 12 12C9.24 12 7 14.24 7 17C7 19.76 9.24 22 12 22C14.76 22 17 19.76 17 17ZM9 17C9 15.35 10.35 14 12 14C13.65 14 15 15.35 15 17C15 18.65 13.65 20 12 20C10.35 20 9 18.65 9 17ZM2 7.15L7 12.15C8.28 10.87 10.05 10.07 12 10.07C13.95 10.07 15.72 10.86 17 12.14L22 7.14C19.44 4.59 15.9 3 12 3C8.1 3 4.56 4.59 2 7.15ZM16.84 9.47C15.4 8.56 13.74 8.07 12 8.07C10.26 8.07 8.59 8.56 7.15 9.48L4.94 7.26C6.99 5.79 9.44 5 12 5C14.56 5 17 5.79 19.05 7.26L16.84 9.47Z" fill="black"/>
</g>
<defs>
<clipPath id="clip0_401_57892">
<rect width="24" height="24" fill="white"/>
</clipPath>
</defs>
</svg>
