<svg width="24" height="24" viewBox="0 0 24 24" fill="none" xmlns="http://www.w3.org/2000/svg">
<g clip-path="url(#clip0_401_58422)">
<path opacity="0.3" d="M3 16H21V8H3V16ZM18.5 9C19.33 9 20 9.67 20 10.5C20 11.33 19.33 12 18.5 12C17.67 12 17 11.33 17 10.5C17 9.67 17.67 9 18.5 9ZM14.5 12C15.33 12 16 12.67 16 13.5C16 14.33 15.33 15 14.5 15C13.67 15 13 14.33 13 13.5C13 12.67 13.67 12 14.5 12ZM4 11H6V9H8V11H10V13H8V15H6V13H4V11Z" fill="black"/>
<path d="M21 6H3C1.9 6 1 6.9 1 8V16C1 17.1 1.9 18 3 18H21C22.1 18 23 17.1 23 16V8C23 6.9 22.1 6 21 6ZM21 16H3V8H21V16ZM6 15H8V13H10V11H8V9H6V11H4V13H6V15Z" fill="black"/>
<path d="M14.5 15C15.3284 15 16 14.3284 16 13.5C16 12.6716 15.3284 12 14.5 12C13.6716 12 13 12.6716 13 13.5C13 14.3284 13.6716 15 14.5 15Z" fill="black"/>
<path d="M18.5 12C19.3284 12 20 11.3284 20 10.5C20 9.67157 19.3284 9 18.5 9C17.6716 9 17 9.67157 17 10.5C17 11.3284 17.6716 12 18.5 12Z" fill="black"/>
</g>
<defs>
<clipPath id="clip0_401_58422">
<rect width="24" height="24" fill="white"/>
</clipPath>
</defs>
</svg>
