<svg width="24" height="24" viewBox="0 0 24 24" fill="none" xmlns="http://www.w3.org/2000/svg">
<g clip-path="url(#clip0_401_58127)">
<path opacity="0.3" d="M7.6 7.6C7.13 9.94 7.63 12.38 8.99 14.43L14.44 8.98C12.91 7.96 11.16 7.42 9.36 7.42C8.76 7.42 8.17 7.48 7.6 7.6ZM13.12 5C12.19 5 11.3 5.16 10.45 5.46C12.36 5.65 14.24 6.35 15.89 7.53L17.28 6.14C16.03 5.4 14.61 5 13.12 5ZM5 13.12C5 14.61 5.4 16.03 6.14 17.27L7.53 15.88C6.35 14.23 5.65 12.36 5.46 10.44C5.16 11.3 5 12.2 5 13.12Z" fill="black"/>
<path d="M13.1259 14.56L14.5539 13.132L20.9959 19.574L19.5659 21.002L13.1259 14.56ZM13.1199 3C10.5399 3 7.95995 3.98 5.97995 5.95L5.96995 5.96C2.01995 9.91 2.01995 16.32 5.96995 20.27L20.2699 5.96C18.2999 3.99 15.7099 3 13.1199 3ZM6.13995 17.27C5.39995 16.03 4.99995 14.61 4.99995 13.12C4.99995 12.19 5.15995 11.3 5.45995 10.45C5.64995 12.36 6.34995 14.24 7.52995 15.89L6.13995 17.27ZM8.97995 14.43C7.62995 12.38 7.11995 9.93 7.59995 7.6C8.17995 7.48 8.75995 7.42 9.34995 7.42C11.1499 7.42 12.8999 7.97 14.4299 8.98L8.97995 14.43ZM10.4499 5.46C11.2999 5.16 12.1899 5 13.1199 5C14.6099 5 16.0299 5.4 17.2699 6.14L15.8799 7.53C14.2299 6.35 12.3599 5.65 10.4499 5.46Z" fill="black"/>
</g>
<defs>
<clipPath id="clip0_401_58127">
<rect width="24" height="24" fill="white"/>
</clipPath>
</defs>
</svg>
