<svg width="24" height="24" viewBox="0 0 24 24" fill="none" xmlns="http://www.w3.org/2000/svg">
<g clip-path="url(#clip0_401_58261)">
<path d="M5.644 7.05L7.05 5.645L9.173 7.767L7.765 9.174L5.644 7.05ZM11 1H13V7H11V1ZM16.242 14.834L18.362 16.954L16.956 18.362L14.836 16.242L16.242 14.834ZM14.834 7.76L16.954 5.637L18.364 7.044L16.241 9.166L14.834 7.76ZM9.166 16.242L7.044 18.362L5.637 16.956L7.759 14.834L9.166 16.242ZM12 9C10.34 9 9 10.34 9 12C9 13.66 10.34 15 12 15C13.66 15 15 13.66 15 12C15 10.34 13.66 9 12 9ZM11 17H13V23H11V17ZM1 11H7V13H1V11ZM17 11H23V13H17V11Z" fill="black"/>
</g>
<defs>
<clipPath id="clip0_401_58261">
<rect width="24" height="24" fill="white"/>
</clipPath>
</defs>
</svg>
