<svg width="24" height="24" viewBox="0 0 24 24" fill="none" xmlns="http://www.w3.org/2000/svg">
<g clip-path="url(#clip0_401_58854)">
<path opacity="0.3" d="M6 15.5C6 16.33 6.67 17 7.5 17H16.5C17.33 17 18 16.33 18 15.5V12H6V15.5ZM12 13C12.83 13 13.5 13.67 13.5 14.5C13.5 15.33 12.83 16 12 16C11.17 16 10.5 15.33 10.5 14.5C10.5 13.67 11.17 13 12 13Z" fill="black"/>
<path opacity="0.3" d="M12.0001 4C8.48005 4 7.03005 4.48 6.43005 5H17.6701C17.1301 4.46 15.7101 4 12.0001 4Z" fill="black"/>
<path d="M12 2C8 2 4 2.5 4 6V15.5C4 17.43 5.57 19 7.5 19L6 20V21H18V20L16.5 19C18.43 19 20 17.43 20 15.5V6C20 2.5 16.42 2 12 2ZM12 4C15.71 4 17.13 4.46 17.67 5H6.43C7.03 4.48 8.48 4 12 4ZM18 15.5C18 16.33 17.33 17 16.5 17H7.5C6.67 17 6 16.33 6 15.5V12H18V15.5ZM18 10H6V7H18V10Z" fill="black"/>
<path d="M12 16C12.8284 16 13.5 15.3284 13.5 14.5C13.5 13.6716 12.8284 13 12 13C11.1716 13 10.5 13.6716 10.5 14.5C10.5 15.3284 11.1716 16 12 16Z" fill="black"/>
</g>
<defs>
<clipPath id="clip0_401_58854">
<rect width="24" height="24" fill="white"/>
</clipPath>
</defs>
</svg>
