<svg width="24" height="24" viewBox="0 0 24 24" fill="none" xmlns="http://www.w3.org/2000/svg">
<g clip-path="url(#clip0_401_58669)">
<path opacity="0.3" d="M19 6H5V18H19V6ZM11 11H9.5V10.5H7.5V13.5H9.5V13H11V14C11 14.55 10.55 15 10 15H7C6.45 15 6 14.55 6 14V10C6 9.45 6.45 9 7 9H10C10.55 9 11 9.45 11 10V11ZM18 11H16.5V10.5H14.5V13.5H16.5V13H18V14C18 14.55 17.55 15 17 15H14C13.45 15 13 14.55 13 14V10C13 9.45 13.45 9 14 9H17C17.55 9 18 9.45 18 10V11Z" fill="black"/>
<path d="M5 20H19C20.1 20 21 19.1 21 18V6C21 4.9 20.1 4 19 4H5C3.89 4 3 4.9 3 6V18C3 19.1 3.89 20 5 20ZM5 6H19V18H5V6Z" fill="black"/>
<path d="M10 9H7C6.45 9 6 9.45 6 10V14C6 14.55 6.45 15 7 15H10C10.55 15 11 14.55 11 14V13H9.5V13.5H7.5V10.5H9.5V11H11V10C11 9.45 10.55 9 10 9Z" fill="black"/>
<path d="M17 9H14C13.45 9 13 9.45 13 10V14C13 14.55 13.45 15 14 15H17C17.55 15 18 14.55 18 14V13H16.5V13.5H14.5V10.5H16.5V11H18V10C18 9.45 17.55 9 17 9Z" fill="black"/>
</g>
<defs>
<clipPath id="clip0_401_58669">
<rect width="24" height="24" fill="white"/>
</clipPath>
</defs>
</svg>
