<svg width="24" height="24" viewBox="0 0 24 24" fill="none" xmlns="http://www.w3.org/2000/svg">
<g clip-path="url(#clip0_401_58006)">
<path opacity="0.3" d="M17.5 13.5H16V10.5H17.5V13.5ZM12.75 6V7.5H11.25V6H4V18H11.25V16.5H12.75V18H20V6H12.75ZM9.5 11.5C9.5 12.05 9.05 12.5 8.5 12.5H6.5V13.5H9.5V15H5V12.5C5 11.95 5.45 11.5 6 11.5H8V10.5H5V9H8.5C9.05 9 9.5 9.45 9.5 10V11.5ZM12.75 14.5H11.25V13H12.75V14.5ZM12.75 11H11.25V9.5H12.75V11ZM19 14C19 14.55 18.55 15 18 15H15.5C14.95 15 14.5 14.55 14.5 14V10C14.5 9.45 14.95 9 15.5 9H18C18.55 9 19 9.45 19 10V14Z" fill="black"/>
<path d="M18 9H15.5C14.95 9 14.5 9.45 14.5 10V14C14.5 14.55 14.95 15 15.5 15H18C18.55 15 19 14.55 19 14V10C19 9.45 18.55 9 18 9ZM17.5 13.5H16V10.5H17.5V13.5ZM9.5 15H5V12.5C5 11.95 5.45 11.5 6 11.5H8V10.5H5V9H8.5C9.05 9 9.5 9.45 9.5 10V11.5C9.5 12.05 9.05 12.5 8.5 12.5H6.5V13.5H9.5V15ZM12.75 11H11.25V9.5H12.75V11ZM12.75 14.5H11.25V13H12.75V14.5ZM22 6V18C22 19.1 21.1 20 20 20H4C2.9 20 2 19.1 2 18V6C2 4.9 2.9 4 4 4H7V2H9V4H15V2H17V4H20C21.1 4 22 4.9 22 6ZM20 18V6H12.75V7.5H11.25V6H4V18H11.25V16.5H12.75V18H20Z" fill="black"/>
</g>
<defs>
<clipPath id="clip0_401_58006">
<rect width="24" height="24" fill="white"/>
</clipPath>
</defs>
</svg>
