<svg width="24" height="24" viewBox="0 0 24 24" fill="none" xmlns="http://www.w3.org/2000/svg">
<g clip-path="url(#clip0_401_59150)">
<path d="M17 6C13.69 6 11 8.69 11 12C11 15.31 13.69 18 17 18C20.31 18 23 15.31 23 12C23 8.69 20.31 6 17 6ZM17 16C14.79 16 13 14.21 13 12C13 9.79 14.79 8 17 8C19.21 8 21 9.79 21 12C21 14.21 19.21 16 17 16Z" fill="black"/>
<path opacity="0.3" d="M5 14C6.10457 14 7 13.1046 7 12C7 10.8954 6.10457 10 5 10C3.89543 10 3 10.8954 3 12C3 13.1046 3.89543 14 5 14Z" fill="black"/>
<path d="M5 8C2.79 8 1 9.79 1 12C1 14.21 2.79 16 5 16C7.21 16 9 14.21 9 12C9 9.79 7.21 8 5 8ZM5 14C3.9 14 3 13.1 3 12C3 10.9 3.9 10 5 10C6.1 10 7 10.9 7 12C7 13.1 6.1 14 5 14Z" fill="black"/>
</g>
<defs>
<clipPath id="clip0_401_59150">
<rect width="24" height="24" fill="white"/>
</clipPath>
</defs>
</svg>
