<svg width="24" height="24" viewBox="0 0 24 24" fill="none" xmlns="http://www.w3.org/2000/svg">
<g clip-path="url(#clip0_401_59285)">
<path d="M21.41 13.4199L18.83 15.9999L17.02 14.1899L19.2 11.9999L12 4.79988L9.81001 6.98988L8.00001 5.16988L10.58 2.58988C11.36 1.80988 12.63 1.80988 13.41 2.58988L21.41 10.5899C22.2 11.3699 22.2 12.6299 21.41 13.4199ZM21.19 21.1899L19.78 22.5999L16 18.8299L13.42 21.4099C12.64 22.1899 11.37 22.1899 10.59 21.4099L2.59001 13.4099C1.81001 12.6299 1.81001 11.3599 2.59001 10.5799L5.17001 7.99988L1.39001 4.21988L2.80001 2.80988L21.19 21.1899ZM14.19 17.0199L12.8 15.6299L12 16.4299L7.58001 11.9999L8.38001 11.1999L6.98001 9.80988L4.80001 11.9999L12 19.1999L14.19 17.0199ZM16.42 11.9999L12 7.57988L11.2 8.37988L15.62 12.7999L16.42 11.9999Z" fill="black"/>
</g>
<defs>
<clipPath id="clip0_401_59285">
<rect width="24" height="24" fill="white"/>
</clipPath>
</defs>
</svg>
