<svg width="24" height="24" viewBox="0 0 24 24" fill="none" xmlns="http://www.w3.org/2000/svg">
<g clip-path="url(#clip0_401_59546)">
<path opacity="0.3" d="M12 3C7.04 3 3 7.04 3 12C3 16.96 7.04 21 12 21C16.96 21 21 16.96 21 12C21 7.04 16.96 3 12 3ZM5 11.5C5 10.67 5.67 10 6.5 10C7.33 10 8 10.67 8 11.5C8 12.33 7.33 13 6.5 13C5.67 13 5 12.33 5 11.5ZM8.5 18C7.67 18 7 17.33 7 16.5C7 15.67 7.67 15 8.5 15C9.33 15 10 15.67 10 16.5C10 17.33 9.33 18 8.5 18ZM10.5 8C9.67 8 9 7.33 9 6.5C9 5.67 9.67 5 10.5 5H13.5C14.33 5 15 5.67 15 6.5C15 7.33 14.33 8 13.5 8H10.5ZM15.5 18C14.67 18 14 17.33 14 16.5C14 15.67 14.67 15 15.5 15C16.33 15 17 15.67 17 16.5C17 17.33 16.33 18 15.5 18ZM17.5 13C16.67 13 16 12.33 16 11.5C16 10.67 16.67 10 17.5 10C18.33 10 19 10.67 19 11.5C19 12.33 18.33 13 17.5 13Z" fill="black"/>
<path d="M15 6.5C15 5.67 14.33 5 13.5 5H10.5C9.67 5 9 5.67 9 6.5C9 7.33 9.67 8 10.5 8H13.5C14.33 8 15 7.33 15 6.5Z" fill="black"/>
<path d="M15.5 18C16.3284 18 17 17.3284 17 16.5C17 15.6716 16.3284 15 15.5 15C14.6716 15 14 15.6716 14 16.5C14 17.3284 14.6716 18 15.5 18Z" fill="black"/>
<path d="M17.5 13C18.3284 13 19 12.3284 19 11.5C19 10.6716 18.3284 10 17.5 10C16.6716 10 16 10.6716 16 11.5C16 12.3284 16.6716 13 17.5 13Z" fill="black"/>
<path d="M12 1C5.93 1 1 5.93 1 12C1 18.07 5.93 23 12 23C18.07 23 23 18.07 23 12C23 5.93 18.07 1 12 1ZM12 21C7.04 21 3 16.96 3 12C3 7.04 7.04 3 12 3C16.96 3 21 7.04 21 12C21 16.96 16.96 21 12 21Z" fill="black"/>
<path d="M6.5 13C7.32843 13 8 12.3284 8 11.5C8 10.6716 7.32843 10 6.5 10C5.67157 10 5 10.6716 5 11.5C5 12.3284 5.67157 13 6.5 13Z" fill="black"/>
<path d="M8.5 18C9.32843 18 10 17.3284 10 16.5C10 15.6716 9.32843 15 8.5 15C7.67157 15 7 15.6716 7 16.5C7 17.3284 7.67157 18 8.5 18Z" fill="black"/>
</g>
<defs>
<clipPath id="clip0_401_59546">
<rect width="24" height="24" fill="white"/>
</clipPath>
</defs>
</svg>
