<svg width="24" height="24" viewBox="0 0 24 24" fill="none" xmlns="http://www.w3.org/2000/svg">
<g clip-path="url(#clip0_401_59358)">
<path opacity="0.3" d="M19 6H5V18H19V6ZM11 15H9.5V13H7.5V15H6V9H7.5V11.5H9.5V9H11V15ZM18 14C18 14.55 17.55 15 17 15H16.25V16.5H14.75V15H14C13.45 15 13 14.55 13 14V10C13 9.45 13.45 9 14 9H17C17.55 9 18 9.45 18 10V14ZM14.5 10.5H16.5V13.5H14.5V10.5Z" fill="black"/>
<path d="M3 6V18C3 19.1 3.89 20 5 20H19C20.1 20 21 19.1 21 18V6C21 4.9 20.1 4 19 4H5C3.89 4 3 4.9 3 6ZM5 6H19V18H5V6ZM9.5 11.5H7.5V9H6V15H7.5V13H9.5V15H11V9H9.5V11.5ZM17 9H14C13.45 9 13 9.45 13 10V14C13 14.55 13.45 15 14 15H14.75V16.5H16.25V15H17C17.55 15 18 14.55 18 14V10C18 9.45 17.55 9 17 9ZM16.5 13.5H14.5V10.5H16.5V13.5Z" fill="black"/>
</g>
<defs>
<clipPath id="clip0_401_59358">
<rect width="24" height="24" fill="white"/>
</clipPath>
</defs>
</svg>
