<svg width="24" height="24" viewBox="0 0 24 24" fill="none" xmlns="http://www.w3.org/2000/svg">
<g clip-path="url(#clip0_401_58835)">
<path opacity="0.3" d="M7 16H21V7H7V16ZM12 8L17.5 11.5L12 15V8Z" fill="black"/>
<path d="M3 9H1V20C1 21.11 1.89 22 3 22H19V20H3V9Z" fill="black"/>
<path d="M18 5V3C18 1.89 17.11 1 16 1H12C10.89 1 10 1.89 10 3V5H5V16C5 17.11 5.89 18 7 18H21C22.11 18 23 17.11 23 16V5H18ZM12 3H16V5H12V3ZM21 16H7V7H21V16Z" fill="black"/>
<path d="M12 8V15L17.5 11.5L12 8Z" fill="black"/>
</g>
<defs>
<clipPath id="clip0_401_58835">
<rect width="24" height="24" fill="white"/>
</clipPath>
</defs>
</svg>
