<svg width="24" height="24" viewBox="0 0 24 24" fill="none" xmlns="http://www.w3.org/2000/svg">
<g clip-path="url(#clip0_401_58074)">
<path opacity="0.3" d="M5 5V19H19V5H5ZM14 17H7V15H14V17ZM17 13H7V11H17V13ZM17 9H7V7H17V9Z" fill="black"/>
<path d="M19 3H5C3.9 3 3 3.9 3 5V19C3 20.1 3.9 21 5 21H19C20.1 21 21 20.1 21 19V5C21 3.9 20.1 3 19 3ZM19 19H5V5H19V19ZM17 13H7V11H17V13ZM17 9H7V7H17V9ZM14 17H7V15H14V17Z" fill="black"/>
</g>
<defs>
<clipPath id="clip0_401_58074">
<rect width="24" height="24" fill="white"/>
</clipPath>
</defs>
</svg>
