<svg width="24" height="24" viewBox="0 0 24 24" fill="none" xmlns="http://www.w3.org/2000/svg">
<g clip-path="url(#clip0_401_58791)">
<path opacity="0.3" d="M12.06 10.02L5 17.08V18H5.92L12.98 10.94L12.06 10.02Z" fill="black"/>
<path d="M15 16L11 20H21V16H15Z" fill="black"/>
<path d="M12.06 7.18994L3 16.2499V19.9999H6.75L15.81 10.9399L12.06 7.18994ZM5.92 17.9999H5V17.0799L12.06 10.0199L12.98 10.9399L5.92 17.9999Z" fill="black"/>
<path d="M18.71 8.04C19.1 7.65 19.1 7.02 18.71 6.63L16.37 4.29C16.17 4.09 15.92 4 15.66 4C15.41 4 15.15 4.1 14.96 4.29L13.13 6.12L16.88 9.87L18.71 8.04Z" fill="black"/>
</g>
<defs>
<clipPath id="clip0_401_58791">
<rect width="24" height="24" fill="white"/>
</clipPath>
</defs>
</svg>
