<svg width="24" height="24" viewBox="0 0 24 24" fill="none" xmlns="http://www.w3.org/2000/svg">
<g clip-path="url(#clip0_401_58636)">
<path d="M1.41 1.12988L0 2.53988L4.39 6.92988L6.6 11.5899L5.25 14.0399C5.09 14.3199 5 14.6499 5 14.9999C5 16.0999 5.9 16.9999 7 16.9999H14.46L15.84 18.3799C15.34 18.7399 15.01 19.3299 15.01 19.9999C15.01 21.0999 15.9 21.9999 17 21.9999C17.67 21.9999 18.26 21.6699 18.62 21.1599L21.46 23.9999L22.87 22.5899L1.41 1.12988ZM7 14.9999L8.1 12.9999H10.46L12.46 14.9999H7Z" fill="black"/>
<path opacity="0.3" d="M18.31 6H9.12L14.11 11H15.55L18.31 6Z" fill="black"/>
<path d="M20 4H7.12001L9.12001 6H18.31L15.55 11H14.11L16.05 12.94C16.59 12.8 17.04 12.45 17.3 11.97L20.88 5.48C21.25 4.82 20.76 4 20 4ZM7.00001 18C5.90001 18 5.01001 18.9 5.01001 20C5.01001 21.1 5.90001 22 7.00001 22C8.10001 22 9.00001 21.1 9.00001 20C9.00001 18.9 8.10001 18 7.00001 18Z" fill="black"/>
</g>
<defs>
<clipPath id="clip0_401_58636">
<rect width="24" height="24" fill="white"/>
</clipPath>
</defs>
</svg>
