<svg width="24" height="24" viewBox="0 0 24 24" fill="none" xmlns="http://www.w3.org/2000/svg">
<g clip-path="url(#clip0_401_59842)">
<path opacity="0.3" d="M7 6C7 5.45 6.55 5 6 5C5.45 5 5 5.45 5 6V7H6C6.55 7 7 6.55 7 6Z" fill="black"/>
<path opacity="0.3" d="M17 18C17 18.55 17.45 19 18 19C18.55 19 19 18.55 19 18V17H18C17.45 17 17 17.45 17 18Z" fill="black"/>
<path d="M16 2.99997C13.24 2.99997 11 5.23997 11 7.99997V16C11 17.66 9.66 19 8 19C6.34 19 5 17.66 5 16V8.99997H5.83C7.44 8.99997 8.89 7.81997 9 6.20997C9.12 4.51997 7.84 3.10997 6.2 2.99997C4.44 2.88997 3 4.41997 3 6.18997V16C3 18.76 5.24 21 8 21C10.76 21 13 18.76 13 16V7.99997C13 6.33997 14.34 4.99997 16 4.99997C17.66 4.99997 19 6.33997 19 7.99997V15H18.17C16.56 15 15.11 16.18 15 17.79C14.88 19.48 16.16 20.89 17.8 21C19.56 21.12 21 19.58 21 17.82V7.99997C21 5.23997 18.76 2.99997 16 2.99997ZM5 5.99997C5 5.44997 5.45 4.99997 6 4.99997C6.55 4.99997 7 5.44997 7 5.99997C7 6.54997 6.55 6.99997 6 6.99997H5V5.99997ZM19 18C19 18.55 18.55 19 18 19C17.45 19 17 18.55 17 18C17 17.45 17.45 17 18 17H19V18Z" fill="black"/>
</g>
<defs>
<clipPath id="clip0_401_59842">
<rect width="24" height="24" fill="white"/>
</clipPath>
</defs>
</svg>
