<svg width="24" height="24" viewBox="0 0 24 24" fill="none" xmlns="http://www.w3.org/2000/svg">
<g clip-path="url(#clip0_401_58085)">
<path opacity="0.3" d="M8 6H4V11H8V6Z" fill="black"/>
<path opacity="0.3" d="M8 13H4V18H8V13Z" fill="black"/>
<path opacity="0.3" d="M14 13H10V18H14V13Z" fill="black"/>
<path opacity="0.3" d="M20 13H16V18H20V13Z" fill="black"/>
<path opacity="0.3" d="M20 6H16V11H20V6Z" fill="black"/>
<path opacity="0.3" d="M14 6H10V11H14V6Z" fill="black"/>
<path d="M20 4H4C2.9 4 2 4.9 2 6V18C2 19.1 2.9 20 4 20H20C21.1 20 22 19.1 22 18V6C22 4.9 21.1 4 20 4ZM8 18H4V13H8V18ZM8 11H4V6H8V11ZM14 18H10V13H14V18ZM14 11H10V6H14V11ZM20 18H16V13H20V18ZM20 11H16V6H20V11Z" fill="black"/>
</g>
<defs>
<clipPath id="clip0_401_58085">
<rect width="24" height="24" fill="white"/>
</clipPath>
</defs>
</svg>
