<svg width="24" height="24" viewBox="0 0 24 24" fill="none" xmlns="http://www.w3.org/2000/svg">
<g clip-path="url(#clip0_401_58383)">
<path opacity="0.3" d="M4 17.17L5.17 16H20V7.9C19.68 7.96 19.34 8 19 8C18.66 8 18.32 7.96 18 7.9V8H6V6H15.03C14.59 5.42 14.26 4.74 14.11 4H4V17.17ZM6 9H18V11H6V9ZM6 12H14V14H6V12Z" fill="black"/>
<path d="M19 6C20.6569 6 22 4.65685 22 3C22 1.34315 20.6569 0 19 0C17.3431 0 16 1.34315 16 3C16 4.65685 17.3431 6 19 6Z" fill="black"/>
<path d="M20 16H5.17L4 17.17V4H14.1C13.92 3.11 14.02 2.39 14.1 2H4C2.9 2 2.01 2.9 2.01 4L2 22L6 18H20C21.1 18 22 17.1 22 16V6.97C21.42 7.41 20.74 7.74 20 7.89V16Z" fill="black"/>
<path d="M14 12H6V14H14V12Z" fill="black"/>
<path d="M18 9H6V11H18V9Z" fill="black"/>
<path d="M6 8H18V7.9C16.79 7.65 15.75 6.95 15.03 6H6V8Z" fill="black"/>
</g>
<defs>
<clipPath id="clip0_401_58383">
<rect width="24" height="24" fill="white"/>
</clipPath>
</defs>
</svg>
