<svg width="24" height="24" viewBox="0 0 24 24" fill="none" xmlns="http://www.w3.org/2000/svg">
<g clip-path="url(#clip0_401_58624)">
<path opacity="0.3" d="M3 17.9699L9.1 15.3599C9.12 15.2199 9.14 15.0699 9.17 14.9299L3 15.7499V17.9699Z" fill="black"/>
<path opacity="0.3" d="M16.5 11C13.47 11 11 13.47 11 16.5C11 19.53 13.47 22 16.5 22C19.53 22 22 19.53 22 16.5C22 13.47 19.53 11 16.5 11ZM18.97 18.27L18.26 18.98L16.49 17.21L14.72 18.98L14.01 18.27L15.78 16.5L14.01 14.73L14.72 14.02L16.49 15.79L18.26 14.02L18.97 14.73L17.2 16.5L18.97 18.27Z" fill="black"/>
<path opacity="0.3" d="M3 8.25003L10.52 9.25003L3.01 6.03003L3 8.25003Z" fill="black"/>
<path d="M16.5 9C16.08 9 15.67 9.04 15.26 9.11L1.01 3L1 10L11.06 11.34C10.64 11.78 10.28 12.27 9.97 12.8L1 14L1.01 21L9.08 17.54C9.59 21.19 12.71 24 16.5 24C20.64 24 24 20.64 24 16.5C24 12.36 20.64 9 16.5 9ZM3 8.25L3.01 6.03L10.52 9.25L3 8.25ZM9.1 15.36L3 17.97V15.75L9.17 14.93C9.14 15.07 9.12 15.21 9.1 15.36ZM16.5 22C13.47 22 11 19.53 11 16.5C11 13.47 13.47 11 16.5 11C19.53 11 22 13.47 22 16.5C22 19.53 19.53 22 16.5 22Z" fill="black"/>
<path d="M18.27 14.03L16.5 15.79L14.73 14.03L14.03 14.73L15.79 16.5L14.03 18.27L14.73 18.97L16.5 17.21L18.27 18.97L18.97 18.27L17.21 16.5L18.97 14.73L18.27 14.03Z" fill="black"/>
</g>
<defs>
<clipPath id="clip0_401_58624">
<rect width="24" height="24" fill="white"/>
</clipPath>
</defs>
</svg>
