<svg width="24" height="24" viewBox="0 0 24 24" fill="none" xmlns="http://www.w3.org/2000/svg">
<g clip-path="url(#clip0_401_57908)">
<path opacity="0.3" d="M13 12.11V5H7V19H11.29C11.1 18.37 11 17.7 11 17C11 15.09 11.76 13.37 13 12.11ZM10 11H12V13H10V11Z" fill="black"/>
<path d="M12 13H10V11H12V13ZM7 19V5H13V12.11C13.57 11.52 14.25 11.04 15 10.69V6H17V10H18H19V4H15V3H5V19H3V21H12.26C11.84 20.4 11.51 19.72 11.29 19H7ZM21.69 17.63L22.83 18.63L21.83 20.36L20.38 19.87C20.06 20.14 19.7 20.35 19.3 20.5L19 22H17L16.7 20.51C16.3 20.36 15.94 20.15 15.62 19.88L14.17 20.37L13.17 18.64L14.31 17.64C14.23 17.14 14.23 16.88 14.31 16.38L13.17 15.38L14.17 13.65L15.62 14.14C15.94 13.87 16.3 13.66 16.7 13.51L17 12H19L19.3 13.49C19.7 13.64 20.06 13.85 20.38 14.12L21.83 13.63L22.83 15.36L21.69 16.36C21.77 16.87 21.77 17.13 21.69 17.63ZM20 17C20 15.9 19.1 15 18 15C16.9 15 16 15.9 16 17C16 18.1 16.9 19 18 19C19.1 19 20 18.1 20 17Z" fill="black"/>
</g>
<defs>
<clipPath id="clip0_401_57908">
<rect width="24" height="24" fill="white"/>
</clipPath>
</defs>
</svg>
