<svg width="24" height="24" viewBox="0 0 24 24" fill="none" xmlns="http://www.w3.org/2000/svg">
<g clip-path="url(#clip0_401_59058)">
<path opacity="0.3" d="M12 5C8.74004 5 5.80004 5.85 2.92004 7.65L12 18.83L21.08 7.67C18.18 5.85 15.25 5 12 5ZM13 16H11V10H13V16ZM11 8V6H13V8H11Z" fill="black"/>
<path d="M12 3C6.95 3 3.15 4.85 0 7.23L12 22L24 7.25C20.85 4.87 17.05 3 12 3ZM2.92 7.65C5.8 5.85 8.74 5 12 5C15.25 5 18.18 5.85 21.08 7.67L12 18.83L2.92 7.65ZM11 10H13V16H11V10ZM11 6H13V8H11V6Z" fill="black"/>
</g>
<defs>
<clipPath id="clip0_401_59058">
<rect width="24" height="24" fill="white"/>
</clipPath>
</defs>
</svg>
