<svg width="24" height="24" viewBox="0 0 24 24" fill="none" xmlns="http://www.w3.org/2000/svg">
<g clip-path="url(#clip0_401_58081)">
<path d="M4 6H2V20C2 21.1 2.9 22 4 22H18V20H4V6Z" fill="black"/>
<path opacity="0.3" d="M10 9H11V10H10V9ZM14 9H15V12H14V9ZM8 16H20V4H8V16ZM17 8H19V9H18V10H19V11H18V13H17V8ZM13 8H15C15.55 8 16 8.45 16 9V12C16 12.55 15.55 13 15 13H13V8ZM9 8H11C11.55 8 12 8.45 12 9V10C12 10.55 11.55 11 11 11H10V13H9V8Z" fill="black"/>
<path d="M20 2H8C6.9 2 6 2.9 6 4V16C6 17.1 6.9 18 8 18H20C21.1 18 22 17.1 22 16V4C22 2.9 21.1 2 20 2ZM20 16H8V4H20V16ZM16 12V9C16 8.45 15.55 8 15 8H13V13H15C15.55 13 16 12.55 16 12ZM14 9H15V12H14V9ZM18 11H19V10H18V9H19V8H17V13H18V11ZM10 11H11C11.55 11 12 10.55 12 10V9C12 8.45 11.55 8 11 8H9V13H10V11ZM10 9H11V10H10V9Z" fill="black"/>
</g>
<defs>
<clipPath id="clip0_401_58081">
<rect width="24" height="24" fill="white"/>
</clipPath>
</defs>
</svg>
