<svg width="24" height="24" viewBox="0 0 24 24" fill="none" xmlns="http://www.w3.org/2000/svg">
<g clip-path="url(#clip0_401_58739)">
<path opacity="0.3" d="M17.73 9.01L16.2 8.87L15.95 7.35C15.63 5.44 13.94 4 12 4C10.56 4 9.23 4.78 8.52 6.04L8.03 6.91L7.04 7.04C5.31 7.27 4 8.76 4 10.5C4 12.43 5.57 14 7.5 14H17.5C18.88 14 20 12.88 20 11.5C20 10.22 19.01 9.13 17.73 9.01Z" fill="black"/>
<path d="M17.92 7.02C17.45 4.18 14.97 2 12 2C9.82 2 7.83 3.18 6.78 5.06C4.09 5.41 2 7.74 2 10.5C2 13.53 4.47 16 7.5 16H17.5C19.98 16 22 13.98 22 11.5C22 9.16 20.21 7.23 17.92 7.02ZM17.5 14H7.5C5.57 14 4 12.43 4 10.5C4 8.76 5.31 7.27 7.04 7.04L8.03 6.91L8.52 6.04C9.23 4.78 10.56 4 12 4C13.94 4 15.63 5.44 15.95 7.35L16.2 8.87L17.74 9.01C19.01 9.13 20 10.22 20 11.5C20 12.88 18.88 14 17.5 14Z" fill="black"/>
<path d="M14.8 17L11.9 20.32L13.9 21.32L11.55 24H14.2L17.1 20.68L15.1 19.68L17.45 17H14.8Z" fill="black"/>
<path d="M8.80005 17L5.90005 20.32L7.90005 21.32L5.55005 24H8.20005L11.1 20.68L9.10005 19.68L11.45 17H8.80005Z" fill="black"/>
</g>
<defs>
<clipPath id="clip0_401_58739">
<rect width="24" height="24" fill="white"/>
</clipPath>
</defs>
</svg>
