<svg width="24" height="24" viewBox="0 0 24 24" fill="none" xmlns="http://www.w3.org/2000/svg">
<g clip-path="url(#clip0_401_59792)">
<path opacity="0.3" d="M7.75 8.99006C6.62 10.1001 6 11.5701 6 13.1301C6 16.3701 8.69 19.0001 12 19.0001V4.81006L7.75 8.99006Z" fill="black"/>
<path d="M17.65 7.56L12 2L6.35 7.56C4.9 8.99 4 10.96 4 13.13C4 17.48 7.58 21 12 21C16.42 21 20 17.48 20 13.13C20 10.96 19.1 8.99 17.65 7.56ZM6 13.13C6 11.57 6.62 10.1 7.75 8.99L12 4.81V19C8.69 19 6 16.37 6 13.13Z" fill="black"/>
</g>
<defs>
<clipPath id="clip0_401_59792">
<rect width="24" height="24" fill="white"/>
</clipPath>
</defs>
</svg>
