<svg width="24" height="24" viewBox="0 0 24 24" fill="none" xmlns="http://www.w3.org/2000/svg">
<g clip-path="url(#clip0_401_58496)">
<path opacity="0.3" d="M3 19.02H21V4.97998H3V19.02ZM12 7.99998L16 12H14V16H10V12H8L12 7.99998Z" fill="black"/>
<path d="M10 16H14V12H16L12 8L8 12H10V16ZM21 3H3C1.89 3 1 3.89 1 5V19C1 20.11 1.89 21 3 21H21C22.11 21 23 20.11 23 19V5C23 3.89 22.11 3 21 3ZM21 19.02H3V4.98H21V19.02Z" fill="black"/>
</g>
<defs>
<clipPath id="clip0_401_58496">
<rect width="24" height="24" fill="white"/>
</clipPath>
</defs>
</svg>
