<svg width="24" height="24" viewBox="0 0 24 24" fill="none" xmlns="http://www.w3.org/2000/svg">
<g clip-path="url(#clip0_401_58490)">
<path opacity="0.3" d="M10.99 8.16C11 8.11 11 8.06 11 8C11 6.9 10.1 6 9 6C8.94 6 8.89 6 8.84 6.01L10.99 8.16ZM9 15C6.3 15 3.2 16.29 3 17.01V18H15V17.83L12.89 15.72C11.76 15.31 10.33 15 9 15Z" fill="black"/>
<path d="M14.9999 8.0001C14.9999 6.5801 14.4999 5.2701 13.6699 4.2401C14.0899 4.1001 14.5299 4.0001 14.9999 4.0001C17.2099 4.0001 18.9999 5.7901 18.9999 8.0001C18.9999 10.2101 17.2099 12.0001 14.9999 12.0001C14.9399 12.0001 14.8799 12.0001 14.8199 12.0001L14.0499 11.2301C14.6499 10.2901 14.9999 9.1801 14.9999 8.0001ZM22.8299 20.0001H22.9999V17.0001C22.9999 14.8201 19.4199 13.5301 16.6599 13.1301C17.7599 13.8801 18.6099 14.8401 18.8899 16.0701L22.8299 20.0001ZM8.99994 6.0001C8.93994 6.0001 8.88994 6.0001 8.83994 6.0101L7.23994 4.4101C7.76994 4.1501 8.36994 4.0001 8.99994 4.0001C11.2099 4.0001 12.9999 5.7901 12.9999 8.0001C12.9999 8.6301 12.8499 9.2301 12.5899 9.7601L10.9899 8.1601C10.9999 8.1101 10.9999 8.0601 10.9999 8.0001C10.9999 6.9001 10.0999 6.0001 8.99994 6.0001ZM9.16994 12.0001C9.10994 12.0001 9.05994 12.0001 8.99994 12.0001C6.78994 12.0001 4.99994 10.2101 4.99994 8.0001C4.99994 7.9401 4.99994 7.8901 4.99994 7.8301L0.689941 3.5101L2.09994 2.1001L21.8999 21.9001L20.4899 23.3101L16.9999 19.8301V20.0001H0.999941V17.0001C0.999941 14.3401 6.32994 13.0001 8.99994 13.0001C9.36994 13.0001 9.79994 13.0301 10.2499 13.0801L9.16994 12.0001ZM8.99994 15.0001C6.29994 15.0001 3.19994 16.2901 2.99994 17.0101V18.0001H14.9999V17.8301L12.8899 15.7201C11.7599 15.3101 10.3299 15.0001 8.99994 15.0001Z" fill="black"/>
</g>
<defs>
<clipPath id="clip0_401_58490">
<rect width="24" height="24" fill="white"/>
</clipPath>
</defs>
</svg>
