<svg width="24" height="24" viewBox="0 0 24 24" fill="none" xmlns="http://www.w3.org/2000/svg">
<g clip-path="url(#clip0_401_58866)">
<path opacity="0.3" d="M12 5.68994L7 10.1899V17.9999H17V10.1899L12 5.68994ZM12 15.9999C10.9 15.9999 10 15.0999 10 13.9999C10 12.8999 12 9.99994 12 9.99994C12 9.99994 14 12.8999 14 13.9999C14 15.0999 13.1 15.9999 12 15.9999Z" fill="black"/>
<path d="M12 3L2 12H5V20H19V12H22L12 3ZM7 18V10.19L12 5.69L17 10.19V18H7ZM14 14C14 15.1 13.1 16 12 16C10.9 16 10 15.1 10 14C10 12.9 12 10 12 10C12 10 14 12.9 14 14Z" fill="black"/>
</g>
<defs>
<clipPath id="clip0_401_58866">
<rect width="24" height="24" fill="white"/>
</clipPath>
</defs>
</svg>
