<svg width="24" height="24" viewBox="0 0 24 24" fill="none" xmlns="http://www.w3.org/2000/svg">
<g clip-path="url(#clip0_401_58248)">
<path opacity="0.3" d="M10.9 19.91C11.26 19.96 11.62 20 12 20C14.18 20 16.16 19.12 17.61 17.7L14.89 13L10.9 19.91ZM9.86 19.7L12.57 15H4.59C5.52 17.28 7.46 19.03 9.86 19.7ZM8.54 12L5.7 7.09C4.64 8.45 4 10.15 4 12C4 12.69 4.1 13.36 4.26 14H9.69L8.54 12ZM18.3 16.91C19.36 15.55 20 13.85 20 12C20 11.31 19.9 10.64 19.74 10H14.31L18.3 16.91ZM13.73 9H19.41C18.48 6.72 16.53 4.96 14.13 4.3L11.42 9H13.73ZM10.27 9L13.1 4.08C12.74 4.03 12.37 4 12 4C9.82 4 7.84 4.88 6.4 6.3L9.12 11L10.27 9Z" fill="black"/>
<path d="M12 22C17.52 22 22 17.52 22 12C22 7.25 18.69 3.28 14.25 2.26L14.17 2.22L14.16 2.24C13.46 2.09 12.74 2 12 2C6.48 2 2 6.48 2 12C2 17.52 6.48 22 12 22ZM12 20C11.62 20 11.26 19.96 10.9 19.91L14.89 13L17.61 17.7C16.16 19.12 14.18 20 12 20ZM20 12C20 13.85 19.36 15.55 18.3 16.91L14.3 10H19.73C19.9 10.64 20 11.31 20 12ZM19.41 9H11.42L14.13 4.3C16.53 4.96 18.48 6.72 19.41 9ZM12 4C12.37 4 12.74 4.03 13.1 4.08L10.27 9L9.12 11L6.4 6.3C7.84 4.88 9.82 4 12 4ZM4 12C4 10.15 4.64 8.45 5.7 7.09L8.54 12L9.69 14H4.26C4.1 13.36 4 12.69 4 12ZM10.27 15H12.57L9.86 19.7C7.46 19.03 5.51 17.28 4.58 15H10.27Z" fill="black"/>
</g>
<defs>
<clipPath id="clip0_401_58248">
<rect width="24" height="24" fill="white"/>
</clipPath>
</defs>
</svg>
