<svg width="24" height="24" viewBox="0 0 24 24" fill="none" xmlns="http://www.w3.org/2000/svg">
<g clip-path="url(#clip0_401_58387)">
<path opacity="0.3" d="M9 5H5V19H9V5Z" fill="black"/>
<path opacity="0.3" d="M19 15H15V19H19V15Z" fill="black"/>
<path opacity="0.3" d="M19 5H15V9H19V5Z" fill="black"/>
<path d="M3 5V19C3 20.1 3.89 21 5 21H11V3H5C3.89 3 3 3.9 3 5ZM9 19H5V5H9V19Z" fill="black"/>
<path d="M19 3H13V11H21V5C21 3.9 20.1 3 19 3ZM19 9H15V5H19V9Z" fill="black"/>
<path d="M13 21H19C20.1 21 21 20.1 21 19V13H13V21ZM15 15H19V19H15V15Z" fill="black"/>
</g>
<defs>
<clipPath id="clip0_401_58387">
<rect width="24" height="24" fill="white"/>
</clipPath>
</defs>
</svg>
