<svg width="24" height="24" viewBox="0 0 24 24" fill="none" xmlns="http://www.w3.org/2000/svg">
<g clip-path="url(#clip0_401_58770)">
<path opacity="0.3" d="M13 7H3V17H13V7ZM8 8C9.07 8 9.95 8.87 9.95 9.95C9.95 11.02 9.08 11.9 8 11.9C6.92 11.9 6.05 11.03 6.05 9.95C6.05 8.87 6.93 8 8 8ZM11.89 16H4.11V15.35C4.11 14.05 6.7 13.4 8 13.4C9.3 13.4 11.89 14.05 11.89 15.35V16Z" fill="black"/>
<path d="M21 5H23V19H21V5ZM17 5H19V19H17V5ZM14 19C14.55 19 15 18.55 15 18V6C15 5.45 14.55 5 14 5H2C1.45 5 1 5.45 1 6V18C1 18.55 1.45 19 2 19H14ZM3 7H13V17H3V7Z" fill="black"/>
<path d="M8.00005 11.89C9.077 11.89 9.95005 11.0169 9.95005 9.93999C9.95005 8.86303 9.077 7.98999 8.00005 7.98999C6.92309 7.98999 6.05005 8.86303 6.05005 9.93999C6.05005 11.0169 6.92309 11.89 8.00005 11.89Z" fill="black"/>
<path d="M7.99999 13.3999C6.69999 13.3999 4.10999 14.0499 4.10999 15.3499V15.9999H11.89V15.3499C11.89 14.0499 9.29998 13.3999 7.99999 13.3999Z" fill="black"/>
</g>
<defs>
<clipPath id="clip0_401_58770">
<rect width="24" height="24" fill="white"/>
</clipPath>
</defs>
</svg>
