<svg width="24" height="24" viewBox="0 0 24 24" fill="none" xmlns="http://www.w3.org/2000/svg">
<g clip-path="url(#clip0_401_58159)">
<path opacity="0.3" d="M15 4.34009V8.00009H18.66C18.05 6.30009 16.7 4.95009 15 4.34009ZM8.04 14.3601L8.47999 15.0301C9.66999 15.1901 10.67 15.9501 11.16 17.0001H13.84C14.4 15.8201 15.61 15.0001 17 15.0001C17.15 15.0001 17.31 15.0101 17.46 15.0301L17.75 14.6601C18.15 14.1501 18.45 13.5901 18.67 13.0001H7.37C7.69 13.6701 7.94 14.1901 8.04 14.3601Z" fill="black"/>
<path d="M13 2V10H21C21 5.58 17.42 2 13 2ZM15 8V4.34C16.7 4.94 18.05 6.29 18.66 8H15ZM6.44 11L5.49 9H2V11H4.22C4.22 11 6.11 15.07 6.34 15.42C5.24 16.01 4.5 17.17 4.5 18.5C4.5 20.43 6.07 22 8 22C9.76 22 11.22 20.7 11.46 19H13.54C13.78 20.7 15.24 22 17 22C18.93 22 20.5 20.43 20.5 18.5C20.5 17.46 20.04 16.53 19.32 15.89C20.37 14.54 21 12.84 21 11H6.44ZM8 20C7.17 20 6.5 19.33 6.5 18.5C6.5 17.67 7.17 17 8 17C8.83 17 9.5 17.67 9.5 18.5C9.5 19.33 8.83 20 8 20ZM17 20C16.17 20 15.5 19.33 15.5 18.5C15.5 17.67 16.17 17 17 17C17.83 17 18.5 17.67 18.5 18.5C18.5 19.33 17.83 20 17 20ZM17.74 14.66L17.45 15.03C17.31 15.01 17.15 15 17 15C15.61 15 14.4 15.82 13.84 17H11.16C10.66 15.96 9.66 15.2 8.48 15.03L8.04 14.36C7.94 14.19 7.7 13.67 7.37 13H18.66C18.45 13.59 18.14 14.15 17.74 14.66Z" fill="black"/>
</g>
<defs>
<clipPath id="clip0_401_58159">
<rect width="24" height="24" fill="white"/>
</clipPath>
</defs>
</svg>
