<svg width="24" height="24" viewBox="0 0 24 24" fill="none" xmlns="http://www.w3.org/2000/svg">
<g clip-path="url(#clip0_401_57836)">
<path opacity="0.3" d="M17 20H7V21H17V20Z" fill="black"/>
<path opacity="0.3" d="M17 3H7V4H17V3Z" fill="black"/>
<path d="M17 1.01L7 1C5.9 1 5 1.9 5 3V21C5 22.1 5.9 23 7 23H17C18.1 23 19 22.1 19 21V3C19 1.9 18.1 1.01 17 1.01ZM17 21H7V20H17V21ZM17 18H7V6H17V18ZM17 4H7V3H17V4ZM16 12H13V8H11V12H8L12 16L16 12Z" fill="black"/>
</g>
<defs>
<clipPath id="clip0_401_57836">
<rect width="24" height="24" fill="white"/>
</clipPath>
</defs>
</svg>
