<svg width="24" height="24" viewBox="0 0 24 24" fill="none" xmlns="http://www.w3.org/2000/svg">
<g clip-path="url(#clip0_401_59275)">
<path d="M11 3H13V5H11V3ZM3 3H5V21H3V3ZM15 3H17V5H15V3ZM11 19H13V21H11V19ZM11 15H13V17H11V15ZM15 19H17V21H15V19ZM11 7H13V9H11V7ZM11 11H13V13H11V11ZM19 15H21V17H19V15ZM19 19H21V21H19V19ZM19 7H21V9H19V7ZM19 11H21V13H19V11ZM19 3H21V5H19V3ZM15 11H17V13H15V11ZM7 19H9V21H7V19ZM7 11H9V13H7V11ZM7 3H9V5H7V3Z" fill="black"/>
</g>
<defs>
<clipPath id="clip0_401_59275">
<rect width="24" height="24" fill="white"/>
</clipPath>
</defs>
</svg>
