<svg width="24" height="24" viewBox="0 0 24 24" fill="none" xmlns="http://www.w3.org/2000/svg">
<g clip-path="url(#clip0_401_57972)">
<path d="M17.5 9.5C17.5 6.46 15.04 4 12 4C8.96 4 6.5 6.46 6.5 9.5C6.5 12.2 8.44 14.43 11 14.9V17H9V19H11V21H13V19H15V17H13V14.9C15.56 14.43 17.5 12.2 17.5 9.5ZM8.5 9.5C8.5 7.57 10.07 6 12 6C13.93 6 15.5 7.57 15.5 9.5C15.5 11.43 13.93 13 12 13C10.07 13 8.5 11.43 8.5 9.5Z" fill="black"/>
</g>
<defs>
<clipPath id="clip0_401_57972">
<rect width="24" height="24" fill="white"/>
</clipPath>
</defs>
</svg>
