<svg width="24" height="24" viewBox="0 0 24 24" fill="none" xmlns="http://www.w3.org/2000/svg">
<g clip-path="url(#clip0_401_59208)">
<path d="M17 19H19V21H17V19ZM13 19H15V21H13V19ZM1 19C1 20.1 1.9 21 3 21H11V15H1V19ZM9 3H11V5H9V3ZM5 3H7V5H5V3ZM17 3H19V5H17V3ZM1 11H3V13H1V11ZM1 7H3V9H1V7ZM3 3C2 3 1 4 1 5H3V3ZM13 3H15V5H13V3ZM21 21C22 21 23 20 23 19H21V21ZM21 11H23V13H21V11ZM21 3V5H23C23 4 22 3 21 3ZM21 15H23V17H21V15ZM21 7H23V9H21V7Z" fill="black"/>
</g>
<defs>
<clipPath id="clip0_401_59208">
<rect width="24" height="24" fill="white"/>
</clipPath>
</defs>
</svg>
