<svg width="24" height="24" viewBox="0 0 24 24" fill="none" xmlns="http://www.w3.org/2000/svg">
<g clip-path="url(#clip0_401_59404)">
<path opacity="0.3" d="M6 15.5C6 16.33 6.67 17 7.5 17H16.5C17.33 17 18 16.33 18 15.5V12H6V15.5ZM12 12.5C13.1 12.5 14 13.4 14 14.5C14 15.6 13.1 16.5 12 16.5C10.9 16.5 10 15.6 10 14.5C10 13.4 10.9 12.5 12 12.5ZM12 3C6 3 6 4.2 6 5H18C18 4.2 18 3 12 3Z" fill="black"/>
<path d="M20 15.5V5C20 1.5 16.42 1 12 1C7.58 1 4 1.5 4 5V15.5C4 17.43 5.57 19 7.5 19L6 20.5V21H18V20.5L16.5 19C18.43 19 20 17.43 20 15.5ZM18 15.5C18 16.33 17.33 17 16.5 17H7.5C6.67 17 6 16.33 6 15.5V12H18V15.5ZM18 10H6V7H18V10ZM6 5C6 4.2 6 3 12 3C18 3 18 4.2 18 5H6ZM12 16.5C13.1 16.5 14 15.6 14 14.5C14 13.4 13.1 12.5 12 12.5C10.9 12.5 10 13.4 10 14.5C10 15.6 10.9 16.5 12 16.5Z" fill="black"/>
</g>
<defs>
<clipPath id="clip0_401_59404">
<rect width="24" height="24" fill="white"/>
</clipPath>
</defs>
</svg>
