<svg width="24" height="24" viewBox="0 0 24 24" fill="none" xmlns="http://www.w3.org/2000/svg">
<g clip-path="url(#clip0_401_59526)">
<path opacity="0.3" d="M12 14C13.1046 14 14 13.1046 14 12C14 10.8954 13.1046 10 12 10C10.8954 10 10 10.8954 10 12C10 13.1046 10.8954 14 12 14Z" fill="black"/>
<path opacity="0.3" d="M17.2 8.9999C15.54 6.1299 11.86 5.1499 9 6.7999C6.33 8.3399 5.3 11.6399 6.5 14.3999C6.59 14.5999 6.69 14.7999 6.8 14.9999C8.46 17.8699 12.13 18.8499 15 17.1999C17.67 15.6599 18.7 12.3599 17.5 9.5999C17.41 9.3999 17.31 9.1999 17.2 8.9999ZM12 15.9999C9.79 15.9999 8 14.2099 8 11.9999C8 9.7899 9.79 7.9999 12 7.9999C14.21 7.9999 16 9.7899 16 11.9999C16 14.2099 14.21 15.9999 12 15.9999Z" fill="black"/>
<path d="M12 8C9.79 8 8 9.79 8 12C8 14.21 9.79 16 12 16C14.21 16 16 14.21 16 12C16 9.79 14.21 8 12 8ZM12 14C10.9 14 10 13.1 10 12C10 10.9 10.9 10 12 10C13.1 10 14 10.9 14 12C14 13.1 13.1 14 12 14Z" fill="black"/>
<path d="M18.93 8C16.72 4.18 11.82 2.87 8.00001 5.07C6.59001 5.89 5.52001 7.07 4.84001 8.44C4.71001 6.24 5.06001 4.04 5.86001 2H3.74001C2.20001 6.49 2.52001 11.58 5.07001 16C6.17001 17.91 7.95001 19.19 9.93001 19.72C11.91 20.25 14.09 20.03 16 18.93C17.41 18.11 18.48 16.93 19.16 15.56C19.29 17.76 18.95 19.96 18.15 22H20.26C21.79 17.51 21.48 12.42 18.93 8ZM15 17.2C12.13 18.85 8.46001 17.87 6.80001 15C6.69001 14.8 6.59001 14.6 6.50001 14.4C5.30001 11.64 6.33001 8.34 9.00001 6.8C11.86 5.15 15.54 6.13 17.2 9C17.31 9.2 17.41 9.4 17.5 9.6C18.7 12.36 17.67 15.66 15 17.2Z" fill="black"/>
</g>
<defs>
<clipPath id="clip0_401_59526">
<rect width="24" height="24" fill="white"/>
</clipPath>
</defs>
</svg>
