<svg width="24" height="24" viewBox="0 0 24 24" fill="none" xmlns="http://www.w3.org/2000/svg">
<g clip-path="url(#clip0_401_58008)">
<path opacity="0.3" d="M8.83 6H19V16.17L17.6 14.77C17.84 14.59 18 14.32 18 14V13H16.5V13.5H16.33L14.5 11.67V10.5H16.5V11H18V10C18 9.45 17.55 9 17 9H14C13.45 9 13 9.45 13 10V10.17L8.83 6ZM7.5 13.5H9.5V13H10.17L7.67 10.5H7.5V13.5ZM11 14C11 14.55 10.55 15 10 15H7C6.45 15 6 14.55 6 14V10C6 9.68 6.16 9.41 6.4 9.22L5 7.83V18H15.17L11 13.83V14Z" fill="black"/>
<path d="M6.83001 4.00006H19C20.1 4.00006 21 4.90006 21 6.00006V18.0001C21 18.0501 20.99 18.1001 20.98 18.1601L19 16.1701V6.00006H8.83001L6.83001 4.00006ZM19.78 22.6101L17.17 20.0001H5.00001C3.89001 20.0001 3.00001 19.1001 3.00001 18.0001V6.00006C3.00001 5.95006 3.02001 5.90006 3.02001 5.85006L1.39001 4.22006L2.80001 2.81006L18 18.0001L19.82 19.8201L21.19 21.1901L19.78 22.6101ZM7.50001 13.5001H9.50001V13.0001H10.17L7.67001 10.5001H7.50001V13.5001ZM15.17 18.0001L11 13.8301V14.0001C11 14.5501 10.55 15.0001 10 15.0001H7.00001C6.45001 15.0001 6.00001 14.5501 6.00001 14.0001V10.0001C6.00001 9.68006 6.16002 9.41006 6.40001 9.22006L5.00001 7.83006V18.0001H15.17ZM18 14.0001V13.0001H16.5V13.5001H16.33L17.61 14.7801C17.84 14.5901 18 14.3201 18 14.0001ZM14.5 11.6701V10.5001H16.5V11.0001H18V10.0001C18 9.45006 17.55 9.00006 17 9.00006H14C13.45 9.00006 13 9.45006 13 10.0001V10.1701L14.5 11.6701Z" fill="black"/>
</g>
<defs>
<clipPath id="clip0_401_58008">
<rect width="24" height="24" fill="white"/>
</clipPath>
</defs>
</svg>
