<svg width="24" height="24" viewBox="0 0 24 24" fill="none" xmlns="http://www.w3.org/2000/svg">
<g clip-path="url(#clip0_401_58775)">
<path opacity="0.3" d="M8 16H20V4H8V16ZM12.5 10C13.07 10 13.58 10.19 14 10.51V5H18V7H15V12.5C15 13.88 13.88 15 12.5 15C11.12 15 10 13.88 10 12.5C10 11.12 11.12 10 12.5 10Z" fill="black"/>
<path d="M20 2H8C6.9 2 6 2.9 6 4V16C6 17.1 6.9 18 8 18H20C21.1 18 22 17.1 22 16V4C22 2.9 21.1 2 20 2ZM20 16H8V4H20V16ZM12.5 15C13.88 15 15 13.88 15 12.5V7H18V5H14V10.51C13.58 10.19 13.07 10 12.5 10C11.12 10 10 11.12 10 12.5C10 13.88 11.12 15 12.5 15ZM2 6V20C2 21.1 2.9 22 4 22H18V20H4V6H2Z" fill="black"/>
</g>
<defs>
<clipPath id="clip0_401_58775">
<rect width="24" height="24" fill="white"/>
</clipPath>
</defs>
</svg>
