<svg width="24" height="24" viewBox="0 0 24 24" fill="none" xmlns="http://www.w3.org/2000/svg">
<g clip-path="url(#clip0_401_59772)">
<path opacity="0.3" d="M17 18H18C18.55 18 19 17.55 19 17V14H17V18ZM5 17C5 17.55 5.45 18 6 18H7V14H5V17Z" fill="black"/>
<path d="M12 1C7.03 1 3 5.03 3 10V17C3 18.66 4.34 20 6 20H9V12H5V10C5 6.13 8.13 3 12 3C15.87 3 19 6.13 19 10V12H15V20H18C19.66 20 21 18.66 21 17V10C21 5.03 16.97 1 12 1ZM7 14V18H6C5.45 18 5 17.55 5 17V14H7ZM19 17C19 17.55 18.55 18 18 18H17V14H19V17Z" fill="black"/>
</g>
<defs>
<clipPath id="clip0_401_59772">
<rect width="24" height="24" fill="white"/>
</clipPath>
</defs>
</svg>
