<svg width="24" height="24" viewBox="0 0 24 24" fill="none" xmlns="http://www.w3.org/2000/svg">
<g clip-path="url(#clip0_401_59226)">
<path opacity="0.3" d="M5 13H7.83L10 15.17V8.83002L7.83 11H5V13Z" fill="black"/>
<path d="M3 8.99998V15H7L12 20V3.99998L7 8.99998H3ZM10 8.82998V15.17L7.83 13H5V11H7.83L10 8.82998ZM14 7.96998V16.02C15.48 15.29 16.5 13.77 16.5 12C16.5 10.23 15.48 8.70998 14 7.96998ZM14 3.22998V5.28998C16.89 6.14998 19 8.82998 19 12C19 15.17 16.89 17.85 14 18.71V20.77C18.01 19.86 21 16.28 21 12C21 7.71998 18.01 4.13998 14 3.22998Z" fill="black"/>
</g>
<defs>
<clipPath id="clip0_401_59226">
<rect width="24" height="24" fill="white"/>
</clipPath>
</defs>
</svg>
