<svg width="24" height="24" viewBox="0 0 24 24" fill="none" xmlns="http://www.w3.org/2000/svg">
<g clip-path="url(#clip0_401_58143)">
<path opacity="0.3" d="M8 16H20V4H8V16ZM11.5 11.67L13.19 13.93L15.67 10.84L19 15H9L11.5 11.67Z" fill="black"/>
<path d="M22 16V4C22 2.9 21.1 2 20 2H8C6.9 2 6 2.9 6 4V16C6 17.1 6.9 18 8 18H20C21.1 18 22 17.1 22 16ZM20 16H8V4H20V16ZM15.67 10.83L13.19 13.92L11.5 11.67L9 15H19L15.67 10.83ZM4 22H18V20H4V6H2V20C2 21.1 2.9 22 4 22Z" fill="black"/>
</g>
<defs>
<clipPath id="clip0_401_58143">
<rect width="24" height="24" fill="white"/>
</clipPath>
</defs>
</svg>
