<svg width="24" height="24" viewBox="0 0 24 24" fill="none" xmlns="http://www.w3.org/2000/svg">
<g clip-path="url(#clip0_401_59631)">
<path d="M19.03 3.56005C17.36 2.17005 15.29 1.26005 13 1.05005V3.06005C14.73 3.25005 16.31 3.94005 17.61 4.98005L19.03 3.56005Z" fill="black"/>
<path d="M11 3.06005V1.05005C8.70997 1.25005 6.63997 2.17005 4.96997 3.56005L6.38997 4.98005C7.68997 3.94005 9.26997 3.25005 11 3.06005Z" fill="black"/>
<path d="M4.98005 6.38997L3.56005 4.96997C2.17005 6.63997 1.26005 8.70997 1.05005 11H3.06005C3.25005 9.26997 3.94005 7.68997 4.98005 6.38997Z" fill="black"/>
<path d="M20.94 11H22.95C22.74 8.70997 21.83 6.63997 20.44 4.96997L19.02 6.38997C20.06 7.68997 20.75 9.26997 20.94 11Z" fill="black"/>
<path d="M7 12L10.44 13.56L12 17L13.56 13.56L17 12L13.56 10.44L12 7L10.44 10.44L7 12Z" fill="black"/>
<path d="M12 21C8.89 21 6.15 19.41 4.54 17H7V15H1V21H3V18.3C4.99 21.14 8.27 23 12 23C16.87 23 21 19.83 22.44 15.44L20.48 14.99C19.25 18.48 15.92 21 12 21Z" fill="black"/>
</g>
<defs>
<clipPath id="clip0_401_59631">
<rect width="24" height="24" fill="white"/>
</clipPath>
</defs>
</svg>
