<svg width="24" height="24" viewBox="0 0 24 24" fill="none" xmlns="http://www.w3.org/2000/svg">
<g clip-path="url(#clip0_401_59330)">
<path opacity="0.3" d="M16.48 9.99999H18.16L15 5.48999L13.22 8.02999L16 12H14.14L16.71 16H20.34L16.48 9.99999Z" fill="black"/>
<path opacity="0.3" d="M12.16 9.99999L9.00003 5.48999L5.84003 9.99999H7.52003L3.66003 16H14.34L10.48 9.99999H12.16Z" fill="black"/>
<path d="M20.14 12H22L15 2L12 6.29L9 2L2 12H3.86L0 18H7V22H11V18H13V22H17V18H24L20.14 12ZM3.66 16L7.52 10H5.84L9 5.49L12.16 10H10.48L14.34 16H3.66ZM16.71 16L14.14 12H16L13.22 8.03L15 5.49L18.16 10H16.48L20.34 16H16.71Z" fill="black"/>
</g>
<defs>
<clipPath id="clip0_401_59330">
<rect width="24" height="24" fill="white"/>
</clipPath>
</defs>
</svg>
