<svg width="24" height="24" viewBox="0 0 24 24" fill="none" xmlns="http://www.w3.org/2000/svg">
<g clip-path="url(#clip0_401_58241)">
<g opacity="0.3">
<path opacity="0.3" d="M9 12C10.1046 12 11 11.1046 11 10C11 8.89543 10.1046 8 9 8C7.89543 8 7 8.89543 7 10C7 11.1046 7.89543 12 9 12Z" fill="black"/>
</g>
<g opacity="0.3">
<path opacity="0.3" d="M14.48 18.34C13.29 17.73 11.37 17 8.99997 17C6.62997 17 4.70997 17.73 3.51997 18.34C2.89997 18.66 2.99997 19.28 2.99997 20H15C15 19.29 15.11 18.66 14.48 18.34Z" fill="black"/>
</g>
<path d="M21 3H3C1.9 3 1 3.9 1 5V13H3V5H21V21C22.1 21 23 20.1 23 19V5C23 3.9 22.1 3 21 3Z" fill="black"/>
<path d="M13 10C13 7.79 11.21 6 9 6C6.79 6 5 7.79 5 10C5 12.21 6.79 14 9 14C11.21 14 13 12.21 13 10ZM7 10C7 8.9 7.9 8 9 8C10.1 8 11 8.9 11 10C11 11.1 10.1 12 9 12C7.9 12 7 11.1 7 10Z" fill="black"/>
<path d="M15.39 16.56C13.71 15.7 11.53 15 9 15C6.47 15 4.29 15.7 2.61 16.56C1.61 17.07 1 18.1 1 19.22V22H17V19.22C17 18.1 16.39 17.07 15.39 16.56ZM15 20H3C3 19.28 2.9 18.66 3.52 18.34C4.71 17.73 6.63 17 9 17C11.37 17 13.29 17.73 14.48 18.34C15.11 18.66 15 19.29 15 20Z" fill="black"/>
</g>
<defs>
<clipPath id="clip0_401_58241">
<rect width="24" height="24" fill="white"/>
</clipPath>
</defs>
</svg>
