<svg width="24" height="24" viewBox="0 0 24 24" fill="none" xmlns="http://www.w3.org/2000/svg">
<g clip-path="url(#clip0_401_57829)">
<path opacity="0.3" d="M13 5C10.35 5 8.20995 7.06 8.02995 9.67L6.69995 12H7.99995V16H11V19H14V15.05L14.89 14.62C16.71 13.88 18 12.09 18 10C18 7.24 15.76 5 13 5ZM16.82 8.95L15.97 9.61C15.99 9.73 16 9.86 16 10C16 10.13 15.99 10.26 15.98 10.39L16.81 11.05C16.89 11.11 16.91 11.21 16.86 11.3L16.06 12.69C16.01 12.78 15.9 12.81 15.82 12.78L14.83 12.38C14.62 12.54 14.4 12.67 14.16 12.77L14 13.83C13.99 13.93 13.9 14 13.8 14H12.2C12.1 14 12.02 13.93 12 13.83L11.85 12.77C11.6 12.67 11.38 12.54 11.17 12.38L10.18 12.78C10.09 12.81 9.97995 12.78 9.92995 12.69L9.12995 11.3C9.07995 11.22 9.09995 11.11 9.17995 11.05L10.02 10.39C10.01 10.26 9.99995 10.13 9.99995 10C9.99995 9.87 10.02 9.73 10.04 9.61L9.18995 8.95C9.10995 8.89 9.08995 8.79 9.13995 8.69L9.93995 7.31C9.98995 7.22 10.09 7.19 10.18 7.22L11.18 7.62C11.38 7.47 11.61 7.33 11.85 7.23L12 6.17C12.02 6.07 12.1 6 12.2 6H13.8C13.9 6 13.98 6.07 14 6.17L14.15 7.23C14.39 7.33 14.61 7.46 14.82 7.62L15.82 7.22C15.91 7.19 16.02 7.22 16.06 7.31L16.86 8.69C16.91 8.78 16.89 8.89 16.82 8.95Z" fill="black"/>
<path d="M15.8199 7.22L14.8199 7.62C14.6099 7.46 14.3899 7.33 14.1499 7.23L13.9999 6.17C13.9799 6.07 13.8999 6 13.7999 6H12.1999C12.0999 6 12.0199 6.07 12.0099 6.17L11.8599 7.23C11.6199 7.33 11.3899 7.46 11.1899 7.62L10.1899 7.22C10.0999 7.19 9.98993 7.22 9.94993 7.31L9.14993 8.69C9.09993 8.78 9.11993 8.89 9.19993 8.95L10.0499 9.61C10.0199 9.73 9.99993 9.87 9.99993 10C9.99993 10.13 10.0099 10.26 10.0299 10.39L9.18993 11.05C9.10993 11.11 9.08993 11.22 9.13993 11.3L9.93993 12.69C9.98993 12.78 10.0899 12.81 10.1899 12.78L11.1799 12.38C11.3899 12.54 11.6099 12.67 11.8599 12.77L11.9999 13.83C12.0199 13.93 12.0999 14 12.1999 14H13.7999C13.8999 14 13.9799 13.93 13.9999 13.83L14.1499 12.77C14.3899 12.67 14.6199 12.54 14.8199 12.38L15.8099 12.78C15.8999 12.82 16.0099 12.78 16.0499 12.69L16.8499 11.3C16.8999 11.21 16.8799 11.11 16.7999 11.05L15.9699 10.39C15.9899 10.26 15.9999 10.13 15.9999 10C15.9999 9.86 15.9899 9.73 15.9699 9.61L16.8199 8.95C16.8999 8.89 16.9199 8.78 16.8699 8.69L16.0699 7.31C16.0199 7.22 15.9099 7.19 15.8199 7.22ZM12.9999 11.43C12.2099 11.43 11.5699 10.79 11.5699 10C11.5699 9.21 12.2099 8.57 12.9999 8.57C13.7899 8.57 14.4299 9.21 14.4299 10C14.4299 10.79 13.7899 11.43 12.9999 11.43Z" fill="black"/>
<path d="M19.94 9.06C19.51 5.79 16.71 3.2 13.41 3.01C13.27 3 13.14 3 13 3C9.46997 3 6.56997 5.61 6.07997 9L4.14997 12.48C3.73997 13.14 4.21997 14 4.99997 14H5.99997V16C5.99997 17.1 6.89997 18 7.99997 18H8.99997V21H16V16.32C18.62 15.07 20.35 12.24 19.94 9.06ZM14.89 14.63L14 15.05V19H11V16H7.99997V12H6.69997L8.02997 9.67C8.20997 7.06 10.35 5 13 5C15.76 5 18 7.24 18 10C18 12.09 16.71 13.88 14.89 14.63Z" fill="black"/>
</g>
<defs>
<clipPath id="clip0_401_57829">
<rect width="24" height="24" fill="white"/>
</clipPath>
</defs>
</svg>
