<svg width="24" height="24" viewBox="0 0 24 24" fill="none" xmlns="http://www.w3.org/2000/svg">
<g clip-path="url(#clip0_401_58033)">
<path d="M17 16.9899C15.65 16.9899 14.8 17.4099 14.05 17.7899C13.4 18.1199 12.87 18.3899 12 18.3899C11.1 18.3899 10.6 18.1399 9.95 17.7899C9.2 17.4099 8.38 16.9899 7 16.9899C5.62 16.9899 4.8 17.4099 4.05 17.7899C3.4 18.1199 2.88 18.3899 2 18.3899V20.3399C3.35 20.3399 4.2 19.9199 4.95 19.5399C5.6 19.2099 6.12 18.9399 7 18.9399C7.88 18.9399 8.4 19.1899 9.05 19.5399C9.8 19.9199 10.62 20.3399 12 20.3399C13.38 20.3399 14.2 19.9199 14.95 19.5399C15.6 19.2099 16.13 18.9399 17 18.9399C17.9 18.9399 18.4 19.1899 19.05 19.5399C19.8 19.9199 20.63 20.3399 22 20.3399V18.3899C21.1 18.3899 20.6 18.1399 19.95 17.7899C19.2 17.4099 18.35 16.9899 17 16.9899ZM17 12.5399C15.65 12.5399 14.8 12.9699 14.05 13.3399C13.4 13.6599 12.87 13.9399 12 13.9399C11.1 13.9399 10.6 13.6899 9.95 13.3399C9.2 12.9599 8.38 12.5399 7 12.5399C5.62 12.5399 4.8 12.9699 4.05 13.3399C3.4 13.6599 2.88 13.9399 2 13.9399V15.8899C3.35 15.8899 4.2 15.4599 4.95 15.0899C5.6 14.7399 6.1 14.4899 7 14.4899C7.9 14.4899 8.4 14.7399 9.05 15.0899C9.8 15.4699 10.62 15.8899 12 15.8899C13.38 15.8899 14.2 15.4599 14.95 15.0899C15.6 14.7399 16.1 14.4899 17 14.4899C17.9 14.4899 18.4 14.7399 19.05 15.0899C19.8 15.4699 20.63 15.8899 22 15.8899V13.9399C21.1 13.9399 20.6 13.6899 19.95 13.3399C19.2 12.9599 18.35 12.5399 17 12.5399ZM19.95 4.45991C19.2 4.07991 18.37 3.65991 17 3.65991C15.63 3.65991 14.8 4.07991 14.05 4.45991C13.4 4.77991 12.87 5.05991 12 5.05991C11.1 5.05991 10.6 4.80991 9.95 4.45991C9.2 4.08991 8.38 3.65991 7 3.65991C5.62 3.65991 4.8 4.07991 4.05 4.45991C3.4 4.78991 2.88 5.05991 2 5.05991V6.98991C3.35 6.98991 4.2 6.55991 4.95 6.18991C5.6 5.85991 6.12 5.58991 7 5.58991C7.88 5.58991 8.4 5.83991 9.05 6.18991C9.8 6.56991 10.62 6.98991 12 6.98991C13.38 6.98991 14.2 6.55991 14.95 6.18991C15.6 5.86991 16.13 5.58991 17 5.58991C17.9 5.58991 18.4 5.83991 19.05 6.18991C19.8 6.56991 20.63 6.98991 22 6.98991V5.03991C21.1 5.03991 20.6 4.78991 19.95 4.45991ZM17 8.08991C15.65 8.08991 14.8 8.51991 14.05 8.88991C13.4 9.23991 12.9 9.48991 12 9.48991C11.1 9.48991 10.6 9.23991 9.95 8.88991C9.2 8.50991 8.38 8.08991 7 8.08991C5.62 8.08991 4.8 8.51991 4.05 8.88991C3.4 9.23991 2.9 9.48991 2 9.48991V11.4399C3.35 11.4399 4.2 11.0099 4.95 10.6399C5.6 10.3199 6.13 10.0399 7 10.0399C7.87 10.0399 8.4 10.2899 9.05 10.6399C9.8 11.0199 10.62 11.4399 12 11.4399C13.38 11.4399 14.2 11.0099 14.95 10.6399C15.6 10.3199 16.13 10.0399 17 10.0399C17.9 10.0399 18.4 10.2899 19.05 10.6399C19.8 11.0199 20.63 11.4399 22 11.4399V9.48991C21.1 9.48991 20.6 9.23991 19.95 8.88991C19.2 8.50991 18.35 8.08991 17 8.08991Z" fill="black"/>
</g>
<defs>
<clipPath id="clip0_401_58033">
<rect width="24" height="24" fill="white"/>
</clipPath>
</defs>
</svg>
