<svg width="24" height="24" viewBox="0 0 24 24" fill="none" xmlns="http://www.w3.org/2000/svg">
<g clip-path="url(#clip0_401_58829)">
<path opacity="0.3" d="M12 18C13.6569 18 15 16.6569 15 15C15 13.3431 13.6569 12 12 12C10.3431 12 9 13.3431 9 15C9 16.6569 10.3431 18 12 18Z" fill="black"/>
<path d="M13 5.83L14.59 7.42L16 6L12 2L8 6L9.41 7.41L11 5.83V10.1C8.72 10.56 7 12.58 7 15C7 17.76 9.24 20 12 20C14.76 20 17 17.76 17 15C17 12.58 15.28 10.56 13 10.1V5.83ZM12 18C10.34 18 9 16.66 9 15C9 13.34 10.34 12 12 12C13.66 12 15 13.34 15 15C15 16.66 13.66 18 12 18Z" fill="black"/>
</g>
<defs>
<clipPath id="clip0_401_58829">
<rect width="24" height="24" fill="white"/>
</clipPath>
</defs>
</svg>
