<svg width="24" height="24" viewBox="0 0 24 24" fill="none" xmlns="http://www.w3.org/2000/svg">
<g clip-path="url(#clip0_401_59532)">
<path opacity="0.3" d="M7.06002 5L2.40002 12L7.07002 19H22V5H7.06002C7.07002 5 7.07002 5 7.06002 5ZM9.00002 8.41L10.41 7L14 10.59L17.59 7L19 8.41L15.41 12L19 15.59L17.59 17L14 13.41L10.41 17L9.00002 15.59L12.59 12L9.00002 8.41Z" fill="black"/>
<path d="M22 3H7C6.31 3 5.77 3.35 5.41 3.88L0 12L5.41 20.11C5.77 20.64 6.31 21 7 21H22C23.1 21 24 20.1 24 19V5C24 3.9 23.1 3 22 3ZM22 19H7.07L2.4 12L7.06 5H22V19ZM10.41 17L14 13.41L17.59 17L19 15.59L15.41 12L19 8.41L17.59 7L14 10.59L10.41 7L9 8.41L12.59 12L9 15.59L10.41 17Z" fill="black"/>
</g>
<defs>
<clipPath id="clip0_401_59532">
<rect width="24" height="24" fill="white"/>
</clipPath>
</defs>
</svg>
