<svg width="24" height="24" viewBox="0 0 24 24" fill="none" xmlns="http://www.w3.org/2000/svg">
<g clip-path="url(#clip0_401_57896)">
<path opacity="0.3" d="M4.13 5C4.3 6.37 4.66 7.71 5.18 8.99L6.83 7.34L6.36 5H4.13ZM15.66 16.17L14.01 17.82C15.29 18.34 16.64 18.69 18 18.87V16.64L15.66 16.17Z" fill="black"/>
<path d="M19.2 14.84L15.53 14.11C15.2 14.04 14.86 14.15 14.63 14.38L12.1 16.9C9.60005 15.47 7.53005 13.4 6.10005 10.9L8.62005 8.38C8.86005 8.14 8.96005 7.8 8.90005 7.48L8.16005 3.8C8.07005 3.34 7.66005 3 7.18005 3H3.03005C2.47005 3 2.00005 3.47 2.03005 4.03C2.20005 6.92 3.05005 9.63 4.43005 12C6.01005 14.73 8.28005 16.99 11 18.57C13.37 19.94 16.08 20.8 18.97 20.97C19.53 21 20 20.53 20 19.97V15.82C20 15.34 19.66 14.93 19.2 14.84ZM4.13005 5H6.36005L6.83005 7.34L5.18005 8.99C4.66005 7.71 4.30005 6.37 4.13005 5ZM18 18.87C16.63 18.7 15.29 18.34 14.01 17.82L15.66 16.17L18 16.64V18.87ZM14 4H16V6H14V4ZM13 7H15V9H13V7ZM11 4H13V6H11V4ZM18 9H16V7H18V9ZM19 6H17V4H19V6ZM21 9H19V7H21V9ZM22 6H20V4H22V6ZM14 10H16V12H14V10ZM11 10H13V12H11V10ZM19 12H17V10H19V12ZM22 12H20V10H22V12Z" fill="black"/>
</g>
<defs>
<clipPath id="clip0_401_57896">
<rect width="24" height="24" fill="white"/>
</clipPath>
</defs>
</svg>
