<svg width="24" height="24" viewBox="0 0 24 24" fill="none" xmlns="http://www.w3.org/2000/svg">
<g clip-path="url(#clip0_401_57990)">
<path opacity="0.3" d="M10 10H11V14H10V10ZM16 10H17V14H16V10ZM4 18H20V6H4V18ZM14 9C14 8.45 14.45 8 15 8H18C18.55 8 19 8.45 19 9V15C19 15.55 18.55 16 18 16H15C14.45 16 14 15.55 14 15V9ZM8 9C8 8.45 8.45 8 9 8H12C12.55 8 13 8.45 13 9V15C13 15.55 12.55 16 12 16H9C8.45 16 8 15.55 8 15V9ZM5 8H7V16H5V8Z" fill="black"/>
<path d="M15 16H18C18.55 16 19 15.55 19 15V9C19 8.45 18.55 8 18 8H15C14.45 8 14 8.45 14 9V15C14 15.55 14.45 16 15 16ZM16 10H17V14H16V10ZM9 16H12C12.55 16 13 15.55 13 15V9C13 8.45 12.55 8 12 8H9C8.45 8 8 8.45 8 9V15C8 15.55 8.45 16 9 16ZM10 10H11V14H10V10ZM5 8H7V16H5V8ZM2 4V20H22V4H2ZM20 18H4V6H20V18Z" fill="black"/>
</g>
<defs>
<clipPath id="clip0_401_57990">
<rect width="24" height="24" fill="white"/>
</clipPath>
</defs>
</svg>
