<svg width="24" height="24" viewBox="0 0 24 24" fill="none" xmlns="http://www.w3.org/2000/svg">
<g clip-path="url(#clip0_401_59493)">
<path opacity="0.3" d="M5 10C4.45 10 4 10.45 4 11V18C4 18.55 4.45 19 5 19C5.55 19 6 18.55 6 18V11C6 10.45 5.55 10 5 10Z" fill="black"/>
<path opacity="0.3" d="M16 6H10V9H16V6Z" fill="black"/>
<path opacity="0.3" d="M19 11H8V18H20V12C20 11.45 19.55 11 19 11ZM13 17H9V12H13V17ZM15 17C14.45 17 14 16.55 14 16C14 15.45 14.45 15 15 15C15.55 15 16 15.45 16 16C16 16.55 15.55 17 15 17ZM15 14C14.45 14 14 13.55 14 13C14 12.45 14.45 12 15 12C15.55 12 16 12.45 16 13C16 13.55 15.55 14 15 14ZM18 17C17.45 17 17 16.55 17 16C17 15.45 17.45 15 18 15C18.55 15 19 15.45 19 16C19 16.55 18.55 17 18 17ZM18 14C17.45 14 17 13.55 17 13C17 12.45 17.45 12 18 12C18.55 12 19 12.45 19 13C19 13.55 18.55 14 18 14Z" fill="black"/>
<path d="M19 9H18V4H8V9H7.22C6.67 8.39 5.89 8 5 8C3.34 8 2 9.34 2 11V18C2 19.66 3.34 21 5 21C5.89 21 6.67 20.61 7.22 20H22V12C22 10.34 20.66 9 19 9ZM6 18C6 18.55 5.55 19 5 19C4.45 19 4 18.55 4 18V11C4 10.45 4.45 10 5 10C5.55 10 6 10.45 6 11V18ZM10 6H16V9H10V6ZM20 18H8V11H19C19.55 11 20 11.45 20 12V18Z" fill="black"/>
<path d="M15 14C15.5523 14 16 13.5523 16 13C16 12.4477 15.5523 12 15 12C14.4477 12 14 12.4477 14 13C14 13.5523 14.4477 14 15 14Z" fill="black"/>
<path d="M18 14C18.5523 14 19 13.5523 19 13C19 12.4477 18.5523 12 18 12C17.4477 12 17 12.4477 17 13C17 13.5523 17.4477 14 18 14Z" fill="black"/>
<path d="M15 17C15.5523 17 16 16.5523 16 16C16 15.4477 15.5523 15 15 15C14.4477 15 14 15.4477 14 16C14 16.5523 14.4477 17 15 17Z" fill="black"/>
<path d="M18 17C18.5523 17 19 16.5523 19 16C19 15.4477 18.5523 15 18 15C17.4477 15 17 15.4477 17 16C17 16.5523 17.4477 17 18 17Z" fill="black"/>
<path d="M13 12H9V17H13V12Z" fill="black"/>
</g>
<defs>
<clipPath id="clip0_401_59493">
<rect width="24" height="24" fill="white"/>
</clipPath>
</defs>
</svg>
