<svg width="24" height="24" viewBox="0 0 24 24" fill="none" xmlns="http://www.w3.org/2000/svg">
<g clip-path="url(#clip0_401_59514)">
<path opacity="0.3" d="M12 20C16.41 20 20 16.41 20 12C20 7.59 16.41 4 12 4C7.59 4 4 7.59 4 12C4 16.41 7.59 20 12 20ZM7 11H11V7H13V11H17V13H13V17H11V13H7V11Z" fill="black"/>
<path d="M11 17H13V13H17V11H13V7H11V11H7V13H11V17ZM12 22H20C21.1 22 22 21.1 22 20V12C22 6.49 17.51 2 12 2C6.49 2 2 6.49 2 12C2 17.51 6.49 22 12 22ZM12 4C16.41 4 20 7.59 20 12C20 16.41 16.41 20 12 20C7.59 20 4 16.41 4 12C4 7.59 7.59 4 12 4Z" fill="black"/>
</g>
<defs>
<clipPath id="clip0_401_59514">
<rect width="24" height="24" fill="white"/>
</clipPath>
</defs>
</svg>
