<svg width="24" height="24" viewBox="0 0 24 24" fill="none" xmlns="http://www.w3.org/2000/svg">
<g clip-path="url(#clip0_401_58315)">
<path d="M20.13 3.87C18.69 2.17 15.6 1 12 1C8.4 1 5.31 2.17 3.87 3.87L2 2V7H7L4.93 4.93C5.93 3.64 8.63 2.5 12 2.5C15.37 2.5 18.07 3.64 19.07 4.93L17 7H22V2L20.13 3.87Z" fill="black"/>
<path opacity="0.3" d="M12 13.68V7.5C12 7.22 11.78 7 11.5 7C11.22 7 11 7.22 11 7.5V18.11L6.82996 17.22L10.53 21H17.08L18 15.56L13.76 13.67H12V13.68Z" fill="black"/>
<path d="M18.89 13.77L15.09 12.1C14.96 12.04 14.81 12 14.65 12H14V7.63C14 6.31 13.04 5.13 11.73 5.01C10.25 4.88 9 6.05 9 7.5V15.65L7.13 15.25C6.94 15.22 6.11 15.1 5.4 15.81L4 17.22L9.12 22.41C9.49 22.79 10 23 10.53 23H17.08C18.06 23 18.89 22.3 19.05 21.33L19.97 15.89C20.12 15.03 19.68 14.17 18.89 13.77ZM17.08 21H10.53L6.83 17.22L11 18.11V7.5C11 7.22 11.22 7 11.5 7C11.78 7 12 7.22 12 7.5V13.68H13.76L18 15.56L17.08 21Z" fill="black"/>
</g>
<defs>
<clipPath id="clip0_401_58315">
<rect width="24" height="24" fill="white"/>
</clipPath>
</defs>
</svg>
