<svg width="24" height="24" viewBox="0 0 24 24" fill="none" xmlns="http://www.w3.org/2000/svg">
<g clip-path="url(#clip0_401_59719)">
<path opacity="0.3" d="M19 17H15V15.5H19V17ZM9 7.5H5V15H9V13.5H7.25C6.84 13.5 6.5 13.16 6.5 12.75C6.5 12.34 6.84 12 7.25 12H9V10.5H7.25C6.84 10.5 6.5 10.16 6.5 9.75C6.5 9.34 6.84 9 7.25 9H9V7.5Z" fill="black"/>
<path d="M11 5.5H8V4H8.5C9.05 4 9.5 3.55 9.5 3C9.5 2.45 9.05 2 8.5 2H5.5C4.95 2 4.5 2.45 4.5 3C4.5 3.55 4.95 4 5.5 4H6V5.5H3C2.45 5.5 2 5.95 2 6.5C2 7.05 2.45 7.5 3 7.5V15C3 16.1 3.9 17 5 17H6V21L8 22.5V17H9C10.1 17 11 16.1 11 15V7.5C11.55 7.5 12 7.05 12 6.5C12 5.95 11.55 5.5 11 5.5ZM9 9H7.25C6.84 9 6.5 9.34 6.5 9.75C6.5 10.16 6.84 10.5 7.25 10.5H9V12H7.25C6.84 12 6.5 12.34 6.5 12.75C6.5 13.16 6.84 13.5 7.25 13.5H9V15H5V7.5H9V9ZM19.5 10.5V10C20.05 10 20.5 9.55 20.5 9C20.5 8.45 20.05 8 19.5 8H14.5C13.95 8 13.5 8.45 13.5 9C13.5 9.55 13.95 10 14.5 10V10.5C14.5 11 13 11.66 13 13.5V20C13 21.1 13.9 22 15 22H19C20.1 22 21 21.1 21 20V13.5C21 11.66 19.5 11 19.5 10.5ZM16.5 10.5V10H17.5V10.5C17.5 12.1 19 12.5 19 13.5V14H15C15 13.79 15 13.61 15 13.5C15 12.5 16.5 12.1 16.5 10.5ZM19 15.5V17H15C15 16.49 15 15.98 15 15.5H19ZM15 20C15 20 15 19.37 15 18.5H19V20H15Z" fill="black"/>
</g>
<defs>
<clipPath id="clip0_401_59719">
<rect width="24" height="24" fill="white"/>
</clipPath>
</defs>
</svg>
