<svg width="24" height="24" viewBox="0 0 24 24" fill="none" xmlns="http://www.w3.org/2000/svg">
<g clip-path="url(#clip0_401_58095)">
<path opacity="0.3" d="M18 7C18.5523 7 19 6.55228 19 6C19 5.44772 18.5523 5 18 5C17.4477 5 17 5.44772 17 6C17 6.55228 17.4477 7 18 7Z" fill="black"/>
<path d="M21.94 4.88C21.75 4.33 21.19 3.96 20.58 4H19.6L19.29 3.03C19.15 2.43 18.61 2 18 2C17.39 2 16.85 2.43 16.71 3.04L16.4 4H15.42C14.81 3.96 14.26 4.32 14.07 4.88C13.88 5.44 14.11 6.05 14.63 6.36L15.5 6.88L15.1 8.12C14.87 8.7 15.06 9.37 15.55 9.74C16.05 10.11 16.72 10.09 17.19 9.68L18 8.98L18.81 9.68C19.28 10.08 19.96 10.11 20.45 9.74C20.95 9.37 21.13 8.7 20.9 8.12L20.51 6.88L21.38 6.36C21.89 6.05 22.12 5.44 21.94 4.88ZM18 7C17.45 7 17 6.55 17 6C17 5.45 17.45 5 18 5C18.55 5 19 5.45 19 6C19 6.55 18.55 7 18 7Z" fill="black"/>
<path opacity="0.3" d="M6.09993 17.9C6.62993 18.43 7.36993 18.59 8.03993 18.4C8.00993 17.21 8.38993 16.03 8.95993 15.04C7.95993 15.61 6.78993 15.99 5.59993 15.96C5.40993 16.63 5.57993 17.37 6.09993 17.9Z" fill="black"/>
<path opacity="0.3" d="M9.65002 11.55L11.26 12.21C11.51 12.31 11.7 12.51 11.8 12.75L12.46 14.36C13.21 13.58 13.2 12.35 12.43 11.58C11.66 10.8 10.43 10.8 9.65002 11.55Z" fill="black"/>
<path d="M14.86 12C14.69 11.33 14.36 10.69 13.83 10.16C13.31 9.64 12.67 9.31 12 9.14V7H11V9C9.98997 9.01 8.97997 9.39 8.20997 10.16C8.07997 10.29 7.87997 10.49 7.64997 10.72L6.11997 10.09C4.59997 9.46 2.84997 10.19 2.22997 11.71C1.62997 13.17 2.27997 14.82 3.66997 15.51C3.33997 16.82 3.66997 18.27 4.69997 19.3C5.72997 20.33 7.17997 20.66 8.48997 20.33C9.17997 21.72 10.83 22.37 12.29 21.77C13.81 21.14 14.54 19.4 13.91 17.88L13.28 16.35C13.51 16.12 13.71 15.92 13.84 15.79C14.61 15.02 15 14.01 15 13H17V12H14.86ZM4.57997 13.8C4.06997 13.59 3.82997 13.01 4.03997 12.5C4.24997 11.99 4.82997 11.75 5.33997 11.96L8.25997 13.16C7.21997 13.84 5.82997 14.31 4.57997 13.8ZM8.03997 18.4C7.36997 18.59 6.62997 18.42 6.09997 17.9C5.56997 17.37 5.40997 16.63 5.59997 15.96C6.78997 15.99 7.96997 15.61 8.95997 15.04C8.38997 16.03 8.00997 17.21 8.03997 18.4ZM11.5 19.96C10.99 20.17 10.41 19.93 10.2 19.42C9.68997 18.17 10.16 16.78 10.84 15.75L12.04 18.67C12.25 19.17 12.01 19.76 11.5 19.96ZM12.45 14.35L11.79 12.74C11.69 12.49 11.49 12.3 11.25 12.2L9.63997 11.54C10.42 10.79 11.65 10.8 12.42 11.57C13.2 12.34 13.2 13.57 12.45 14.35Z" fill="black"/>
</g>
<defs>
<clipPath id="clip0_401_58095">
<rect width="24" height="24" fill="white"/>
</clipPath>
</defs>
</svg>
