<svg width="24" height="24" viewBox="0 0 24 24" fill="none" xmlns="http://www.w3.org/2000/svg">
<g clip-path="url(#clip0_401_59249)">
<path opacity="0.3" d="M12 10C13.1046 10 14 9.10457 14 8C14 6.89543 13.1046 6 12 6C10.8954 6 10 6.89543 10 8C10 9.10457 10.8954 10 12 10Z" fill="black"/>
<path opacity="0.3" d="M12 15C9.3 15 6.2 16.29 6 17.01V18H18V17C17.8 16.29 14.7 15 12 15Z" fill="black"/>
<path d="M12 12C14.21 12 16 10.21 16 8C16 5.79 14.21 4 12 4C9.79 4 8 5.79 8 8C8 10.21 9.79 12 12 12ZM12 6C13.1 6 14 6.9 14 8C14 9.1 13.1 10 12 10C10.9 10 10 9.1 10 8C10 6.9 10.9 6 12 6ZM12 13C9.33 13 4 14.34 4 17V20H20V17C20 14.34 14.67 13 12 13ZM18 18H6V17.01C6.2 16.29 9.3 15 12 15C14.7 15 17.8 16.29 18 17V18Z" fill="black"/>
</g>
<defs>
<clipPath id="clip0_401_59249">
<rect width="24" height="24" fill="white"/>
</clipPath>
</defs>
</svg>
