<svg width="24" height="24" viewBox="0 0 24 24" fill="none" xmlns="http://www.w3.org/2000/svg">
<g clip-path="url(#clip0_401_57959)">
<path opacity="0.3" d="M12 4.43994L8.33997 6.99994H15.66L12 4.43994Z" fill="black"/>
<path d="M22 9L12 2L2 9H11V22H13V9H22ZM12 4.44L15.66 7H8.34L12 4.44Z" fill="black"/>
<path d="M4.14005 12L2.18005 12.37L3.00005 16.74V22H5.00005L5.02005 18H7.00005V22H9.00005V16H4.90005L4.14005 12Z" fill="black"/>
<path d="M19.1 16H15V22H17V18H18.98L19 22H21V16.74L21.82 12.37L19.86 12L19.1 16Z" fill="black"/>
</g>
<defs>
<clipPath id="clip0_401_57959">
<rect width="24" height="24" fill="white"/>
</clipPath>
</defs>
</svg>
