<svg width="24" height="24" viewBox="0 0 24 24" fill="none" xmlns="http://www.w3.org/2000/svg">
<g clip-path="url(#clip0_401_57798)">
<path opacity="0.3" d="M12.94 12.0001L12 8.89014L11.06 12.0001H8.23999L10.51 13.6201L9.57999 16.6301L12 14.7901L14.42 16.6301L13.49 13.6201L15.76 12.0001H12.94Z" fill="black"/>
<path d="M22 10H14.42L12 2L9.58 10H2L8.17 14.41L5.83 22L12 17.31L18.17 22L15.82 14.41L22 10ZM14.42 16.63L12 14.79L9.58 16.63L10.51 13.62L8.24 12H11.06L12 8.89L12.94 12H15.76L13.49 13.62L14.42 16.63Z" fill="black"/>
</g>
<defs>
<clipPath id="clip0_401_57798">
<rect width="24" height="24" fill="white"/>
</clipPath>
</defs>
</svg>
