<svg width="24" height="24" viewBox="0 0 24 24" fill="none" xmlns="http://www.w3.org/2000/svg">
<g clip-path="url(#clip0_401_58016)">
<path opacity="0.3" d="M3 19.01H21V4.98999H3V19.01ZM18 9.99999L20.5 12.01L18 14V9.99999ZM12.01 5.49999L14 7.99999H10L12.01 5.49999ZM14 16L12.01 18.5L10 16H14ZM6 9.99999V14L3.5 12.01L6 9.99999Z" fill="black"/>
<path d="M14 16H10L12.01 18.5L14 16ZM18 10V14L20.5 12.01L18 10ZM21 3H3C1.9 3 1 3.9 1 5V19C1 20.1 1.9 21 3 21H21C22.1 21 23 20.1 23 19V5C23 3.9 22.1 3 21 3ZM21 19.01H3V4.99H21V19.01ZM6 10L3.5 12.01L6 14V10ZM12.01 5.5L10 8H14L12.01 5.5Z" fill="black"/>
</g>
<defs>
<clipPath id="clip0_401_58016">
<rect width="24" height="24" fill="white"/>
</clipPath>
</defs>
</svg>
