<svg width="24" height="24" viewBox="0 0 24 24" fill="none" xmlns="http://www.w3.org/2000/svg">
<g clip-path="url(#clip0_401_58544)">
<g opacity="0.3">
<path opacity="0.3" d="M5 16V5H10V6H8.5C8.22 6 8 6.22 8 6.5C8 6.78 8.22 7 8.5 7H10L10.1 8H8.5C8.22 8 8 8.22 8 8.5C8 8.78 8.22 9 8.5 9H10.31C10.76 10.12 11.71 11.01 12.91 11.36L15.53 12.09C16.4 12.33 17 13.1 17 14V16H5Z" fill="black"/>
</g>
<path d="M21 17C21 18.66 19.66 20 18 20H16V18H19V14C19 12.21 17.81 10.66 16.09 10.18L13.47 9.44C12.62 9.19 12 8.39 12 7.5V3H3V18H6V20H2V22H18C20.76 22 23 19.76 23 17H21ZM5 16V5H10V6H8.5C8.22 6 8 6.22 8 6.5C8 6.78 8.22 7 8.5 7H10L10.1 8H8.5C8.22 8 8 8.22 8 8.5C8 8.78 8.22 9 8.5 9H10.31C10.76 10.12 11.71 11.01 12.91 11.36L15.53 12.09C16.4 12.33 17 13.1 17 14V16H5ZM14 20H8V18H14V20Z" fill="black"/>
</g>
<defs>
<clipPath id="clip0_401_58544">
<rect width="24" height="24" fill="white"/>
</clipPath>
</defs>
</svg>
