<svg width="24" height="24" viewBox="0 0 24 24" fill="none" xmlns="http://www.w3.org/2000/svg">
<g clip-path="url(#clip0_401_59574)">
<path opacity="0.3" d="M16.53 7H7.47C6.48 7 5.63 7.74 5.49 8.72L4.4 16.37C4.37 16.58 4.45 16.72 4.53 16.81C4.6 16.9 4.73 17 4.94 17C5.09 17 5.23 16.94 5.33 16.84L8.17 14H15.83L18.67 16.84C18.77 16.94 18.91 17 19.06 17C19.27 17 19.4 16.9 19.48 16.81C19.56 16.72 19.64 16.58 19.61 16.37L18.52 8.71C18.37 7.74 17.52 7 16.53 7ZM11 11H9V13H8V11H6V10H8V8H9V10H11V11ZM15 10C14.45 10 14 9.55 14 9C14 8.45 14.45 8 15 8C15.55 8 16 8.45 16 9C16 9.55 15.55 10 15 10ZM17 13C16.45 13 16 12.55 16 12C16 11.45 16.45 11 17 11C17.55 11 18 11.45 18 12C18 12.55 17.55 13 17 13Z" fill="black"/>
<path d="M21.5799 16.09L20.4899 8.43C20.2099 6.46 18.5199 5 16.5299 5H7.46994C5.47994 5 3.78994 6.46 3.50994 8.43L2.41994 16.09C2.19994 17.63 3.38994 19 4.93994 19C5.61994 19 6.25994 18.73 6.73994 18.25L8.99994 16H14.9999L17.2499 18.25C17.7299 18.73 18.3799 19 19.0499 19C20.6099 19 21.7999 17.63 21.5799 16.09ZM19.4799 16.81C19.3999 16.9 19.2699 17 19.0599 17C18.9099 17 18.7699 16.94 18.6699 16.84L15.8299 14H8.16994L5.32994 16.84C5.22994 16.94 5.08994 17 4.93994 17C4.72994 17 4.59994 16.9 4.51994 16.81C4.43994 16.72 4.35994 16.58 4.38994 16.37L5.47994 8.71C5.62994 7.74 6.47994 7 7.46994 7H16.5299C17.5199 7 18.3699 7.74 18.5099 8.72L19.5999 16.38C19.6299 16.58 19.5499 16.72 19.4799 16.81Z" fill="black"/>
<path d="M9 8H8V10H6V11H8V13H9V11H11V10H9V8Z" fill="black"/>
<path d="M17 13C17.5523 13 18 12.5523 18 12C18 11.4477 17.5523 11 17 11C16.4477 11 16 11.4477 16 12C16 12.5523 16.4477 13 17 13Z" fill="black"/>
<path d="M15 10C15.5523 10 16 9.55228 16 9C16 8.44772 15.5523 8 15 8C14.4477 8 14 8.44772 14 9C14 9.55228 14.4477 10 15 10Z" fill="black"/>
</g>
<defs>
<clipPath id="clip0_401_59574">
<rect width="24" height="24" fill="white"/>
</clipPath>
</defs>
</svg>
