<svg width="24" height="24" viewBox="0 0 24 24" fill="none" xmlns="http://www.w3.org/2000/svg">
<g clip-path="url(#clip0_401_58963)">
<path opacity="0.3" d="M19 19V17.27L17.27 19H19Z" fill="black"/>
<path opacity="0.3" d="M5 17.72L6.72 16H8.84L5.84 19H7.67L10.67 16H12.79L9.79 19H11.41L14.41 16H16.53L13.53 19H15.15L18.15 16H19V5H5V17.72ZM10.67 8.17L12.67 10.17L16.34 6.5L17.75 7.91L12.67 13L10.67 11L7.67 14L6.26 12.59L10.67 8.17Z" fill="black"/>
<path d="M19 3H5C3.9 3 3 3.9 3 5V19C3 20.1 3.9 21 5 21H19C20.1 21 21 20.1 21 19V5C21 3.9 20.1 3 19 3ZM19 19H17.27L19 17.27V19ZM19 16H18.15L15.15 19H13.53L16.53 16H14.41L11.41 19H9.8L12.8 16H10.68L7.68 19H5.84L8.84 16H6.72L5 17.72V5H19V16Z" fill="black"/>
<path d="M10.67 11L12.67 13L17.75 7.91L16.34 6.5L12.67 10.17L10.67 8.17L6.25 12.59L7.66 14L10.67 11Z" fill="black"/>
</g>
<defs>
<clipPath id="clip0_401_58963">
<rect width="24" height="24" fill="white"/>
</clipPath>
</defs>
</svg>
