<svg width="24" height="24" viewBox="0 0 24 24" fill="none" xmlns="http://www.w3.org/2000/svg">
<g clip-path="url(#clip0_401_58243)">
<path opacity="0.3" d="M12.17 4.16992C9.41004 4.16992 7.17004 6.40992 7.17004 9.16992C7.17004 11.9299 9.41004 14.1699 12.17 14.1699C14.93 14.1699 17.17 11.9299 17.17 9.16992C17.17 6.40992 14.92 4.16992 12.17 4.16992Z" fill="black"/>
<path d="M19.17 9.16992C19.17 5.29992 16.04 2.16992 12.17 2.16992C8.3 2.16992 5.17 5.29992 5.17 9.16992C5.17 12.6399 7.69 15.5099 11 16.0599V19.9999H5V21.9999H19V19.9999H13V16.1199H12.97C16.46 15.7199 19.17 12.7599 19.17 9.16992ZM12.17 14.1699C9.41 14.1699 7.17 11.9299 7.17 9.16992C7.17 6.40992 9.41 4.16992 12.17 4.16992C14.93 4.16992 17.17 6.40992 17.17 9.16992C17.17 11.9299 14.92 14.1699 12.17 14.1699Z" fill="black"/>
</g>
<defs>
<clipPath id="clip0_401_58243">
<rect width="24" height="24" fill="white"/>
</clipPath>
</defs>
</svg>
