<svg width="24" height="24" viewBox="0 0 24 24" fill="none" xmlns="http://www.w3.org/2000/svg">
<g clip-path="url(#clip0_401_59230)">
<path d="M3.5 13.5H5.5V15H7V10C7 9.45 6.55 9 6 9H3C2.45 9 2 9.45 2 10V15H3.5V13.5ZM3.5 10.5H5.5V12H3.5V10.5ZM17 10.5H18V14H19.5V10.49H20.5V15H22V10C22 9.45 21.55 9 21 9H16.5C15.95 9 15.5 9.45 15.5 10V15H17V10.5ZM10.25 15H11.75V10.5H14V9H8V10.5H10.25V15Z" fill="black"/>
</g>
<defs>
<clipPath id="clip0_401_59230">
<rect width="24" height="24" fill="white"/>
</clipPath>
</defs>
</svg>
