<svg width="24" height="24" viewBox="0 0 24 24" fill="none" xmlns="http://www.w3.org/2000/svg">
<g clip-path="url(#clip0_401_59642)">
<path opacity="0.3" d="M13 19H18V5H13V19ZM14 11H16V13H14V11Z" fill="black"/>
<path opacity="0.3" d="M6 19H11V5H6V19ZM8 11H10V13H8V11Z" fill="black"/>
<path d="M20 19V5C20 3.9 19.1 3 18 3H6C4.9 3 4 3.9 4 5V19H3V21H21V19H20ZM11 19H6V5H11V19ZM18 19H13V5H18V19Z" fill="black"/>
<path d="M10 11H8V13H10V11Z" fill="black"/>
<path d="M16 11H14V13H16V11Z" fill="black"/>
</g>
<defs>
<clipPath id="clip0_401_59642">
<rect width="24" height="24" fill="white"/>
</clipPath>
</defs>
</svg>
