<svg width="24" height="24" viewBox="0 0 24 24" fill="none" xmlns="http://www.w3.org/2000/svg">
<g clip-path="url(#clip0_401_59699)">
<path opacity="0.3" d="M12 13.47L12.67 12.94L7.65001 7.92003L6.26001 9.00003L12 13.47ZM12 4.53003L10.83 5.44003L15.85 10.47L17.74 9.00003L12 4.53003Z" fill="black"/>
<path d="M12 4.52999L17.74 8.99999L15.85 10.47L17.28 11.89L21 8.99999L12 1.99999L9.41 4.01999L10.83 5.43999L12 4.52999ZM21 14.07L19.37 12.8L18.7 13.32L20.13 14.75L21 14.07ZM3.41 0.859985L2 2.26999L6.22 6.48998L3 8.99999L12 16L14.1 14.37L15.52 15.79L11.99 18.54L4.62 12.81L3 14.07L12 21.07L16.95 17.22L20.73 21L22.14 19.59L3.41 0.859985ZM12 13.47L6.26 8.99999L7.65 7.91999L12.67 12.94L12 13.47Z" fill="black"/>
</g>
<defs>
<clipPath id="clip0_401_59699">
<rect width="24" height="24" fill="white"/>
</clipPath>
</defs>
</svg>
