<svg width="24" height="24" viewBox="0 0 24 24" fill="none" xmlns="http://www.w3.org/2000/svg">
<g clip-path="url(#clip0_401_58088)">
<path opacity="0.3" d="M17.64 7.75V6H14.13V4.5H17.64V2.75L20.13 5.25L17.64 7.75Z" fill="black"/>
<path d="M9.12 5.25C10.22 5.25 11.12 4.35 11.12 3.25C11.12 2.15 10.22 1.25 9.12 1.25C8.02 1.25 7.12 2.15 7.12 3.25C7.12 4.35 8.02 5.25 9.12 5.25ZM5.38 8.65L2.63 22.75H4.73L6.48 14.75L8.63 16.75V22.75H10.63V15.2L8.58 13.15L9.18 10.15C10.48 11.75 12.43 12.75 14.63 12.75V10.75C12.78 10.75 11.18 9.75 10.28 8.3L9.31999 6.7C8.97 6.1 8.31999 5.75 7.62 5.75C7.37 5.75 7.12 5.8 6.87 5.9L1.62 8.05V12.75H3.61999V9.4L5.38 8.65ZM12.62 1.75V8.75H16.37V22.75H17.87V8.75H21.62V1.75H12.62ZM17.64 7.75V6H14.13V4.5H17.64V2.75L20.13 5.25L17.64 7.75Z" fill="black"/>
</g>
<defs>
<clipPath id="clip0_401_58088">
<rect width="24" height="24" fill="white"/>
</clipPath>
</defs>
</svg>
