<svg width="24" height="24" viewBox="0 0 24 24" fill="none" xmlns="http://www.w3.org/2000/svg">
<g clip-path="url(#clip0_401_58108)">
<path opacity="0.2" d="M11 5H9.5V19H11V5Z" fill="black"/>
<path opacity="0.2" d="M7.5 5H6V19H7.5V5Z" fill="black"/>
<path opacity="0.2" d="M14.5 5H13V19H14.5V5Z" fill="black"/>
<path opacity="0.2" d="M18 5H16.5V19H18V5Z" fill="black"/>
<path d="M20 19V3H4V19H2V21H22V19H20ZM7.5 19H6V5H7.5V19ZM11 19H9.5V5H11V19ZM14.5 19H13V5H14.5V19ZM18 19H16.5V5H18V19Z" fill="black"/>
</g>
<defs>
<clipPath id="clip0_401_58108">
<rect width="24" height="24" fill="white"/>
</clipPath>
</defs>
</svg>
