<svg width="24" height="24" viewBox="0 0 24 24" fill="none" xmlns="http://www.w3.org/2000/svg">
<g clip-path="url(#clip0_401_59260)">
<path opacity="0.3" d="M5 10.5L11 12L5 13.5V16.99L10.39 14.72C10.99 12.99 12.25 11.56 13.87 10.75L5 7.01V10.5Z" fill="black"/>
<path d="M11 12L5 10.5V7.01L13.87 10.75C14.81 10.28 15.87 10 17 10C17.1 10 17.19 10.01 17.28 10.01L3 4V20L10 17.05C10 17.03 10 17.02 10 17C10 16.2 10.14 15.44 10.39 14.72L5 16.99V13.5L11 12Z" fill="black"/>
<path d="M17 12C14.24 12 12 14.24 12 17C12 19.76 14.24 22 17 22C19.76 22 22 19.76 22 17C22 14.24 19.76 12 17 12ZM18.65 19.35L16.5 17.2V14H17.5V16.79L19.35 18.64L18.65 19.35Z" fill="black"/>
</g>
<defs>
<clipPath id="clip0_401_59260">
<rect width="24" height="24" fill="white"/>
</clipPath>
</defs>
</svg>
