<svg width="24" height="24" viewBox="0 0 24 24" fill="none" xmlns="http://www.w3.org/2000/svg">
<g clip-path="url(#clip0_401_59755)">
<path opacity="0.3" d="M4 20H20V4H4V20ZM9 18C8.45 18 8 17.55 8 17C8 16.45 8.45 16 9 16C9.55 16 10 16.45 10 17C10 17.55 9.55 18 9 18ZM9 15C8.45 15 8 14.55 8 14C8 13.45 8.45 13 9 13C9.55 13 10 13.45 10 14C10 14.55 9.55 15 9 15ZM12 18C11.45 18 11 17.55 11 17C11 16.45 11.45 16 12 16C12.55 16 13 16.45 13 17C13 17.55 12.55 18 12 18ZM12 15C11.45 15 11 14.55 11 14C11 13.45 11.45 13 12 13C12.55 13 13 13.45 13 14C13 14.55 12.55 15 12 15ZM15 18C14.45 18 14 17.55 14 17C14 16.45 14.45 16 15 16C15.55 16 16 16.45 16 17C16 17.55 15.55 18 15 18ZM15 15C14.45 15 14 14.55 14 14C14 13.45 14.45 13 15 13C15.55 13 16 13.45 16 14C16 14.55 15.55 15 15 15ZM7 11C7 8.24 9.24 6 12 6C14.76 6 17 8.24 17 11V12H7V11Z" fill="black"/>
<path d="M15 15C15.5523 15 16 14.5523 16 14C16 13.4477 15.5523 13 15 13C14.4477 13 14 13.4477 14 14C14 14.5523 14.4477 15 15 15Z" fill="black"/>
<path d="M12 15C12.5523 15 13 14.5523 13 14C13 13.4477 12.5523 13 12 13C11.4477 13 11 13.4477 11 14C11 14.5523 11.4477 15 12 15Z" fill="black"/>
<path d="M15 18C15.5523 18 16 17.5523 16 17C16 16.4477 15.5523 16 15 16C14.4477 16 14 16.4477 14 17C14 17.5523 14.4477 18 15 18Z" fill="black"/>
<path d="M20 2H4C2.9 2 2 2.9 2 4V20C2 21.1 2.9 22 4 22H20C21.1 22 22 21.1 22 20V4C22 2.9 21.1 2 20 2ZM20 20H4V4H20V20Z" fill="black"/>
<path d="M17 11C17 8.24 14.76 6 12 6C9.24 6 7 8.24 7 11V12H17V11ZM8.54 10.5C8.78 8.81 10.24 7.5 12 7.5C13.76 7.5 15.22 8.81 15.47 10.5H8.54Z" fill="black"/>
<path d="M9 18C9.55228 18 10 17.5523 10 17C10 16.4477 9.55228 16 9 16C8.44772 16 8 16.4477 8 17C8 17.5523 8.44772 18 9 18Z" fill="black"/>
<path d="M9 15C9.55228 15 10 14.5523 10 14C10 13.4477 9.55228 13 9 13C8.44772 13 8 13.4477 8 14C8 14.5523 8.44772 15 9 15Z" fill="black"/>
<path d="M12 18C12.5523 18 13 17.5523 13 17C13 16.4477 12.5523 16 12 16C11.4477 16 11 16.4477 11 17C11 17.5523 11.4477 18 12 18Z" fill="black"/>
</g>
<defs>
<clipPath id="clip0_401_59755">
<rect width="24" height="24" fill="white"/>
</clipPath>
</defs>
</svg>
