<svg width="24" height="24" viewBox="0 0 24 24" fill="none" xmlns="http://www.w3.org/2000/svg">
<g clip-path="url(#clip0_401_57812)">
<path d="M11 7.9998V10.9998H8V12.9998H11V15.9998H13V12.9998H16V10.9998H13V7.9998H11ZM13 2.0498V5.0798C16.39 5.5698 19 8.4698 19 11.9998C19 12.8998 18.82 13.7498 18.52 14.5398L21.12 16.0698C21.68 14.8298 22 13.4498 22 11.9998C22 6.8198 18.05 2.5498 13 2.0498ZM12 18.9998C8.13 18.9998 5 15.8698 5 11.9998C5 8.4698 7.61 5.5698 11 5.0798V2.0498C5.94 2.5498 2 6.8098 2 11.9998C2 17.5198 6.47 21.9998 11.99 21.9998C15.3 21.9998 18.23 20.3898 20.05 17.9098L17.45 16.3798C16.17 17.9798 14.21 18.9998 12 18.9998Z" fill="black"/>
</g>
<defs>
<clipPath id="clip0_401_57812">
<rect width="24" height="24" fill="white"/>
</clipPath>
</defs>
</svg>
