<svg width="24" height="24" viewBox="0 0 24 24" fill="none" xmlns="http://www.w3.org/2000/svg">
<g clip-path="url(#clip0_401_59414)">
<g opacity="0.3">
<path opacity="0.3" d="M6.71004 18.7104C6.43004 18.9904 4.54004 19.4704 4.54004 19.4704C4.54004 19.4704 5.01004 17.5904 5.30004 17.3004C5.47004 17.1104 5.72004 17.0004 6.00004 17.0004C6.55004 17.0004 7.00004 17.4504 7.00004 18.0004C7.00004 18.2804 6.89004 18.5304 6.71004 18.7104ZM7.41004 10.8304L5.50004 10.0104L7.47004 8.04039L8.91004 8.33039C8.34004 9.16039 7.83004 10.0304 7.41004 10.8304ZM13.99 18.5004L13.17 16.5904C13.97 16.1704 14.84 15.6604 15.66 15.0904L15.95 16.5304L13.99 18.5004ZM19.99 4.01039C19.99 4.01039 16.44 3.32039 11.76 8.00039C10.44 9.32039 9.36004 11.3804 9.03004 12.0404L11.96 14.9704C12.61 14.6504 14.67 13.5704 16 12.2404C20.68 7.56039 19.99 4.01039 19.99 4.01039ZM15 11.0004C13.9 11.0004 13 10.1004 13 9.00039C13 7.90039 13.9 7.00039 15 7.00039C16.1 7.00039 17 7.90039 17 9.00039C17 10.1004 16.1 11.0004 15 11.0004Z" fill="black"/>
</g>
<path d="M6 15.0002C5.17 15.0002 4.42 15.3402 3.88 15.8802C2.7 17.0602 2 22.0002 2 22.0002C2 22.0002 6.94 21.3002 8.12 20.1202C8.66 19.5802 9 18.8302 9 18.0002C9 16.3402 7.66 15.0002 6 15.0002ZM6.71 18.7102C6.43 18.9902 4.54 19.4702 4.54 19.4702C4.54 19.4702 5.01 17.5902 5.3 17.3002C5.47 17.1102 5.72 17.0002 6 17.0002C6.55 17.0002 7 17.4502 7 18.0002C7 18.2802 6.89 18.5302 6.71 18.7102ZM17.42 13.6502C23.78 7.29018 21.66 2.34018 21.66 2.34018C21.66 2.34018 16.71 0.220177 10.35 6.58018L7.86 6.08018C7.21 5.95018 6.53 6.16018 6.05 6.63018L2 10.6902L7 12.8302L11.17 17.0002L13.31 22.0002L17.36 17.9502C17.83 17.4802 18.04 16.8002 17.91 16.1402L17.42 13.6502ZM7.41 10.8302L5.5 10.0102L7.47 8.04018L8.91 8.33018C8.34 9.16018 7.83 10.0302 7.41 10.8302ZM13.99 18.5002L13.17 16.5902C13.97 16.1702 14.84 15.6602 15.66 15.0902L15.95 16.5302L13.99 18.5002ZM16 12.2402C14.68 13.5602 12.62 14.6402 11.96 14.9702L9.03 12.0402C9.35 11.3902 10.43 9.33018 11.76 8.00018C16.44 3.32018 19.99 4.01018 19.99 4.01018C19.99 4.01018 20.68 7.56018 16 12.2402ZM15 11.0002C16.1 11.0002 17 10.1002 17 9.00018C17 7.90018 16.1 7.00018 15 7.00018C13.9 7.00018 13 7.90018 13 9.00018C13 10.1002 13.9 11.0002 15 11.0002Z" fill="black"/>
</g>
<defs>
<clipPath id="clip0_401_59414">
<rect width="24" height="24" fill="white"/>
</clipPath>
</defs>
</svg>
