<svg width="24" height="24" viewBox="0 0 24 24" fill="none" xmlns="http://www.w3.org/2000/svg">
<g clip-path="url(#clip0_401_58741)">
<path d="M14 4.8V7H17V10H18.41C18.47 10.39 18.5 10.79 18.5 11.2C18.5 13.77 16.4 16.99 12.34 20.71L12 21.01L11.66 20.7C7.6 16.99 5.5 13.77 5.5 11.2C5.5 7.36 8.32 4.5 12 4.5C12.7 4.5 13.37 4.6 14 4.8Z" fill="black" fill-opacity="0.3"/>
<path d="M20 1V4H23V6H20V9H18V6H15V4H18V1H20ZM12 13C10.9 13 10 12.1 10 11C10 9.9 10.9 9 12 9C13.1 9 14 9.9 14 11C14 12.1 13.1 13 12 13ZM14 3.25V5.33C13.38 5.11 12.7 5 12 5C8.65 5 6 7.57 6 11.2C6 13.54 7.95 16.64 12 20.34C16.05 16.64 18 13.55 18 11.2C18 10.79 17.97 10.39 17.9 10H19.92C19.97 10.39 20 10.79 20 11.2C20 14.52 17.33 18.45 12 23C6.67 18.45 4 14.52 4 11.2C4 6.22 7.8 3 12 3C12.68 3 13.35 3.08 14 3.25Z" fill="black"/>
</g>
<defs>
<clipPath id="clip0_401_58741">
<rect width="24" height="24" fill="white"/>
</clipPath>
</defs>
</svg>
