<svg width="24" height="24" viewBox="0 0 24 24" fill="none" xmlns="http://www.w3.org/2000/svg">
<g clip-path="url(#clip0_401_59764)">
<path opacity="0.3" d="M14.12 5H9.88L8.05 7H4V19H20V7H15.95L14.12 5ZM12 18C9.24 18 7 15.76 7 13H5L7.49 10.51L7.5 10.5L10 13H9.97H8C8 15.21 9.79 17 12 17C12.58 17 13.13 16.87 13.62 16.65L14.36 17.39C13.65 17.76 12.86 18 12 18ZM19 13L16.51 15.49L16.5 15.5L14 13H14.03H16C16 10.79 14.21 9 12 9C11.42 9 10.87 9.13 10.38 9.35L9.64 8.62C10.35 8.24 11.14 8 12 8C14.76 8 17 10.24 17 13H19Z" fill="black"/>
<path d="M20 5H16.83L15 3H9L7.17 5H4C2.9 5 2 5.9 2 7V19C2 20.1 2.9 21 4 21H20C21.1 21 22 20.1 22 19V7C22 5.9 21.1 5 20 5ZM20 19H4V7H8.05L9.88 5H14.12L15.95 7H20V19Z" fill="black"/>
<path d="M12 17C9.79 17 8 15.21 8 13H9.97H10L7.5 10.5L7.49 10.51L5 13H7C7 15.76 9.24 18 12 18C12.86 18 13.65 17.76 14.36 17.38L13.62 16.64C13.13 16.87 12.58 17 12 17Z" fill="black"/>
<path d="M12 8C11.14 8 10.35 8.24 9.64001 8.62L10.38 9.35C10.87 9.13 11.42 9 12 9C14.21 9 16 10.79 16 13H14.03H14L16.5 15.5L16.51 15.49L19 13H17C17 10.24 14.76 8 12 8Z" fill="black"/>
</g>
<defs>
<clipPath id="clip0_401_59764">
<rect width="24" height="24" fill="white"/>
</clipPath>
</defs>
</svg>
