<svg width="24" height="24" viewBox="0 0 24 24" fill="none" xmlns="http://www.w3.org/2000/svg">
<g clip-path="url(#clip0_401_58011)">
<path opacity="0.3" d="M6 20H18V10H6V20ZM8 14H11V11H13V14H16V16H13V19H11V16H8V14Z" fill="black"/>
<path d="M18 8H17V6C17 3.24 14.76 1 12 1C9.24 1 7 3.24 7 6V8H6C4.9 8 4 8.9 4 10V20C4 21.1 4.9 22 6 22H18C19.1 22 20 21.1 20 20V10C20 8.9 19.1 8 18 8ZM8.9 6C8.9 4.29 10.29 2.9 12 2.9C13.71 2.9 15.1 4.29 15.1 6V8H8.9V6ZM18 20H6V10H18V20ZM11 19H13V16H16V14H13V11H11V14H8V16H11V19Z" fill="black"/>
</g>
<defs>
<clipPath id="clip0_401_58011">
<rect width="24" height="24" fill="white"/>
</clipPath>
</defs>
</svg>
