<svg width="24" height="24" viewBox="0 0 24 24" fill="none" xmlns="http://www.w3.org/2000/svg">
<g clip-path="url(#clip0_401_59022)">
<path d="M17.3 5.3L14.41 8.17L15.83 9.59L18.7 6.7L21 9V3H15L17.3 5.3ZM9 3H3V9L5.3 6.7L8.17 9.59L9.59 8.17L6.7 5.3L9 3ZM8.17 14.41L5.3 17.3L3 15V21H9L6.7 18.7L9.59 15.83L8.17 14.41ZM15.83 14.41L14.41 15.83L17.3 18.7L15 21H21V15L18.7 17.3L15.83 14.41Z" fill="black"/>
</g>
<defs>
<clipPath id="clip0_401_59022">
<rect width="24" height="24" fill="white"/>
</clipPath>
</defs>
</svg>
