<svg width="24" height="24" viewBox="0 0 24 24" fill="none" xmlns="http://www.w3.org/2000/svg">
<g clip-path="url(#clip0_401_58345)">
<path opacity="0.3" d="M4 20H20V4H4V20ZM6.45 10.5L5.5 9.5L7 7.76L6 7H9.65L11.38 10H17V11H16V13.5L16.84 14.96C17.23 14.68 17.6 14.38 17.94 14.04L19 15.1C17.13 16.97 14.64 18 12 18C9.36 18 6.87 16.97 5 15.1L6.06 14.04C6.4 14.38 6.77 14.69 7.16 14.96L8 13.5V9.51L6.45 10.5Z" fill="black"/>
<path opacity="0.3" d="M15.53 15.71L15.5 15.65L14.69 14.24C12.95 14.89 11.03 14.89 9.28995 14.24L8.47995 15.65L8.44995 15.71C9.54995 16.23 10.73 16.5 11.98 16.5C13.23 16.5 14.43 16.22 15.53 15.71Z" fill="black"/>
<path d="M7.16 14.96C6.77 14.69 6.4 14.38 6.06 14.04L5 15.1C6.87 16.97 9.36 18 12 18C14.64 18 17.13 16.97 19 15.1L17.94 14.04C17.6 14.38 17.23 14.68 16.84 14.96L16 13.5V11H17V10H11.38L9.65 7H6L7 7.76L5.5 9.5L6.45 10.5L8 9.51V13.5L7.16 14.96ZM8.48 15.65L9.29 14.24C11.03 14.89 12.95 14.89 14.69 14.24L15.5 15.65L15.53 15.71C14.43 16.22 13.23 16.5 11.98 16.5C10.73 16.5 9.55 16.23 8.45 15.71L8.48 15.65Z" fill="black"/>
<path d="M20 2H4C2.9 2 2 2.9 2 4V20C2 21.1 2.9 22 4 22H20C21.1 22 22 21.1 22 20V4C22 2.9 21.1 2 20 2ZM20 20H4V4H20V20Z" fill="black"/>
</g>
<defs>
<clipPath id="clip0_401_58345">
<rect width="24" height="24" fill="white"/>
</clipPath>
</defs>
</svg>
