<svg width="24" height="24" viewBox="0 0 24 24" fill="none" xmlns="http://www.w3.org/2000/svg">
<g clip-path="url(#clip0_401_58639)">
<path opacity="0.3" d="M15 13.5V8H5V16H15V13.5ZM11 15L7.11 11.11V13.66H6V9.22H10.44V10.33H7.89L11 13.43L13.99 10.42L14.77 11.21L11 15Z" fill="black"/>
<path d="M3 17C3 17.55 3.45 18 4 18H16C16.55 18 17 17.55 17 17V13.5L21 17.5V6.5L17 10.5V7C17 6.45 16.55 6 16 6H4C3.45 6 3 6.45 3 7V17ZM5 8H15V16H5V8ZM11 13.43L7.89 10.33H10.44V9.22H6V13.66H7.11V11.11L11 15L14.77 11.21L13.99 10.42L11 13.43Z" fill="black"/>
</g>
<defs>
<clipPath id="clip0_401_58639">
<rect width="24" height="24" fill="white"/>
</clipPath>
</defs>
</svg>
