<svg width="24" height="24" viewBox="0 0 24 24" fill="none" xmlns="http://www.w3.org/2000/svg">
<g clip-path="url(#clip0_401_58837)">
<path opacity="0.3" d="M16.2599 5C15.9099 5 15.4599 5.01 14.9299 5.06L18.9599 9.09C19.0999 7.46 18.9699 6.02 18.7899 5.23C18.2799 5.12 17.3999 5 16.2599 5Z" fill="black"/>
<path opacity="0.3" d="M5.20999 18.7699C5.71999 18.8799 6.59999 18.9999 7.73999 18.9999C8.07999 18.9999 8.52999 18.9899 9.03999 18.9499L5.02999 14.9399C4.90999 16.5599 5.02999 17.9799 5.20999 18.7699Z" fill="black"/>
<path opacity="0.3" d="M7.86992 7.86994C6.58992 9.14994 5.83992 10.8399 5.41992 12.5199L11.4599 18.5599C13.0599 18.1699 14.7899 17.4499 16.1199 16.1199C17.3999 14.8399 18.1499 13.1699 18.5599 11.4899L12.5099 5.43994C10.9199 5.82994 9.19992 6.54994 7.86992 7.86994ZM15.4999 9.89994L9.89992 15.4999L8.49992 14.0999L14.0999 8.49994L15.4999 9.89994Z" fill="black"/>
<path d="M20.31 3.69C19.99 3.36 18.37 3 16.26 3C13.23 3 9.16995 3.75 6.45995 6.46C1.86995 11.05 2.89995 19.52 3.68995 20.31C4.00995 20.64 5.62995 21 7.73995 21C10.77 21 14.83 20.25 17.54 17.54C22.13 12.95 21.1 4.48 20.31 3.69ZM7.73995 19C6.59995 19 5.71995 18.88 5.20995 18.77C5.02995 17.98 4.90995 16.56 5.03995 14.94L9.04995 18.95C8.52995 18.99 8.07995 19 7.73995 19ZM16.13 16.13C14.8 17.46 13.07 18.18 11.47 18.57L5.42995 12.53C5.84995 10.85 6.58995 9.16 7.87995 7.88C9.19995 6.56 10.93 5.84 12.52 5.45L18.57 11.5C18.15 13.17 17.4 14.85 16.13 16.13ZM18.96 9.09L14.93 5.06C15.45 5.01 15.91 5 16.26 5C17.4 5 18.28 5.12 18.79 5.23C18.97 6.02 19.09 7.45 18.96 9.09Z" fill="black"/>
<path d="M14.0999 8.49999L8.49963 14.1002L9.89969 15.5003L15.4999 9.90005L14.0999 8.49999Z" fill="black"/>
</g>
<defs>
<clipPath id="clip0_401_58837">
<rect width="24" height="24" fill="white"/>
</clipPath>
</defs>
</svg>
