<svg width="24" height="24" viewBox="0 0 24 24" fill="none" xmlns="http://www.w3.org/2000/svg">
<g clip-path="url(#clip0_401_59661)">
<path opacity="0.3" d="M13 4H6V20H18V9H13V4ZM16 14V16H13V19H11V16H8V14H11V11H13V14H16Z" fill="black"/>
<path d="M13 11H11V14H8V16H11V19H13V16H16V14H13V11ZM14 2H6C4.9 2 4 2.9 4 4V20C4 21.1 4.89 22 5.99 22H18C19.1 22 20 21.1 20 20V8L14 2ZM18 20H6V4H13V9H18V20Z" fill="black"/>
</g>
<defs>
<clipPath id="clip0_401_59661">
<rect width="24" height="24" fill="white"/>
</clipPath>
</defs>
</svg>
