<svg width="24" height="24" viewBox="0 0 24 24" fill="none" xmlns="http://www.w3.org/2000/svg">
<g clip-path="url(#clip0_401_58247)">
<path d="M17 1.01L7 1C5.9 1 5 1.9 5 3V21C5 22.1 5.9 23 7 23H17C18.1 23 19 22.1 19 21V3C19 1.9 18.1 1.01 17 1.01ZM17 21H7V20H17V21ZM17 18H7V6H17V18ZM17 4H7V3H17V4ZM8 10H16V11.5H8V10ZM9 13H15V14.5H9V13Z" fill="black"/>
<path opacity="0.3" d="M7 21H17V20H7V21ZM7 3V4H17V3H7Z" fill="black"/>
</g>
<defs>
<clipPath id="clip0_401_58247">
<rect width="24" height="24" fill="white"/>
</clipPath>
</defs>
</svg>
