<svg width="24" height="24" viewBox="0 0 24 24" fill="none" xmlns="http://www.w3.org/2000/svg">
<g clip-path="url(#clip0_401_58207)">
<path opacity="0.3" d="M19 19V5L5 19H19ZM17 15.5V17H12V15.5H17Z" fill="black"/>
<path d="M12 15.5H17V17H12V15.5ZM19 3H5C3.9 3 3 3.9 3 5V19C3 20.1 3.9 21 5 21H19C20.1 21 21 20.1 21 19V5C21 3.9 20.1 3 19 3ZM5.5 7.5H7.5V5.5H9V7.5H11V9H9V11H7.5V9H5.5V7.5ZM19 19H5L19 5V19Z" fill="black"/>
</g>
<defs>
<clipPath id="clip0_401_58207">
<rect width="24" height="24" fill="white"/>
</clipPath>
</defs>
</svg>
