<svg width="24" height="24" viewBox="0 0 24 24" fill="none" xmlns="http://www.w3.org/2000/svg">
<g clip-path="url(#clip0_401_59373)">
<path opacity="0.3" d="M6 8.83V20H18V4H10.83L6 8.83ZM9 19H7V17H9V19ZM9 15H7V11H9V15ZM15 11H17V15H15V11ZM15 17H17V19H15V17ZM11 11H13V13H11V11ZM11 15H13V19H11V15Z" fill="black"/>
<path d="M18 2H10L4 8V20C4 21.1 4.9 22 6 22H18C19.1 22 20 21.1 20 20V4C20 2.9 19.1 2 18 2ZM18 4V20H6V8.83L10.83 4H18ZM7 17H9V19H7V17ZM15 17H17V19H15V17ZM7 11H9V15H7V11ZM11 15H13V19H11V15ZM11 11H13V13H11V11ZM15 11H17V15H15V11Z" fill="black"/>
</g>
<defs>
<clipPath id="clip0_401_59373">
<rect width="24" height="24" fill="white"/>
</clipPath>
</defs>
</svg>
