<svg width="24" height="24" viewBox="0 0 24 24" fill="none" xmlns="http://www.w3.org/2000/svg">
<g clip-path="url(#clip0_401_59301)">
<path opacity="0.3" d="M12 4C7.59 4 4 7.59 4 12C4 16.41 7.59 20 12 20C16.41 20 20 16.41 20 12C20 7.59 16.41 4 12 4ZM12.88 17.76V19H11.13V17.71C10.39 17.53 8.74 16.94 8.11 14.75L9.76 14.08C9.82 14.3 10.34 16.17 12.16 16.17C13.09 16.17 14.14 15.69 14.14 14.56C14.14 13.6 13.44 13.1 11.86 12.53C10.76 12.14 8.51 11.5 8.51 9.22C8.51 9.12 8.52 6.82 11.13 6.26V5H12.88V6.24C14.72 6.56 15.39 8.03 15.54 8.47L13.96 9.14C13.85 8.79 13.37 7.8 12.06 7.8C11.36 7.8 10.25 8.17 10.25 9.19C10.25 10.14 11.11 10.5 12.89 11.09C15.29 11.92 15.9 13.14 15.9 14.54C15.9 17.17 13.4 17.67 12.88 17.76Z" fill="black"/>
<path d="M12.89 11.1C11.11 10.51 10.25 10.14 10.25 9.2C10.25 8.18 11.36 7.81 12.06 7.81C13.37 7.81 13.85 8.8 13.96 9.15L15.54 8.48C15.39 8.04 14.72 6.57 12.88 6.25V5H11.13V6.26C8.52998 6.82 8.50998 9.11 8.50998 9.22C8.50998 11.49 10.76 12.13 11.86 12.53C13.44 13.09 14.14 13.6 14.14 14.56C14.14 15.69 13.09 16.17 12.16 16.17C10.34 16.17 9.81998 14.3 9.75998 14.08L8.09998 14.75C8.72998 16.94 10.38 17.53 11.12 17.71V19H12.87V17.76C13.39 17.67 15.89 17.17 15.89 14.54C15.9 13.15 15.29 11.93 12.89 11.1Z" fill="black"/>
<path d="M12 2C6.48 2 2 6.48 2 12C2 17.52 6.48 22 12 22C17.52 22 22 17.52 22 12C22 6.48 17.52 2 12 2ZM12 20C7.59 20 4 16.41 4 12C4 7.59 7.59 4 12 4C16.41 4 20 7.59 20 12C20 16.41 16.41 20 12 20Z" fill="black"/>
</g>
<defs>
<clipPath id="clip0_401_59301">
<rect width="24" height="24" fill="white"/>
</clipPath>
</defs>
</svg>
