<svg width="24" height="24" viewBox="0 0 24 24" fill="none" xmlns="http://www.w3.org/2000/svg">
<g clip-path="url(#clip0_401_59748)">
<path opacity="0.3" d="M3 19H21V5H3V19ZM11 12C11.35 12 11.69 12.07 12 12.18V6H17V8H14V15.03C13.98 16.67 12.65 18 11 18C9.34 18 8 16.66 8 15C8 13.34 9.34 12 11 12Z" fill="black"/>
<path d="M21 3H3C1.9 3 1 3.9 1 5V19C1 20.1 1.9 21 3 21H21C22.1 21 23 20.1 23 19V5C23 3.9 22.1 3 21 3ZM21 19H3V5H21V19ZM11 18C12.65 18 13.98 16.67 14 15.03V8H17V6H12V12.18C11.69 12.07 11.35 12 11 12C9.34 12 8 13.34 8 15C8 16.66 9.34 18 11 18Z" fill="black"/>
</g>
<defs>
<clipPath id="clip0_401_59748">
<rect width="24" height="24" fill="white"/>
</clipPath>
</defs>
</svg>
