<svg width="24" height="24" viewBox="0 0 24 24" fill="none" xmlns="http://www.w3.org/2000/svg">
<g clip-path="url(#clip0_401_59085)">
<path opacity="0.3" d="M6 10V19H18V10L12 5.5L6 10ZM12 17.5C11.45 17.5 11 17.05 11 16.5H13C13 17.05 12.55 17.5 12 17.5ZM12.75 9.25V9.5C14.19 9.84 15 11.12 15 12.66V15H16V16H8V15H9V12.66C9 11.12 9.82 9.84 11.25 9.5V9.25C11.25 8.84 11.59 8.5 12 8.5C12.41 8.5 12.75 8.84 12.75 9.25Z" fill="black"/>
<path d="M12 3L4 9V21H20V9L12 3ZM18 19H6V10L12 5.5L18 10V19Z" fill="black"/>
<path d="M11.25 9.25V9.5C9.82 9.84 9 11.12 9 12.66V15H8V16H16V15H15V12.66C15 11.12 14.19 9.84 12.75 9.5V9.25C12.75 8.84 12.41 8.5 12 8.5C11.59 8.5 11.25 8.84 11.25 9.25Z" fill="black"/>
<path d="M12 17.5C12.55 17.5 13 17.05 13 16.5H11C11 17.05 11.45 17.5 12 17.5Z" fill="black"/>
</g>
<defs>
<clipPath id="clip0_401_59085">
<rect width="24" height="24" fill="white"/>
</clipPath>
</defs>
</svg>
