<svg width="24" height="24" viewBox="0 0 24 24" fill="none" xmlns="http://www.w3.org/2000/svg">
<g clip-path="url(#clip0_401_58795)">
<path opacity="0.3" d="M4 18H20V6H4V18ZM16.84 12.38H16.34V11.38H16.8C17.13 11.38 17.68 11.24 17.68 10.66C17.68 10.27 17.37 10.01 16.93 10.01C16.43 10.01 16.19 10.33 16.08 10.65L15.09 10.24C15.2 9.9 15.68 9 16.94 9C18.03 9 18.48 9.64 18.56 9.75C18.89 10.25 18.84 10.91 18.58 11.32C18.43 11.54 18.26 11.7 18.06 11.8V11.87C18.34 11.98 18.57 12.15 18.74 12.39C19.11 12.91 19.07 13.66 18.75 14.15C18.67 14.28 18.19 15 16.99 15C16.95 15 15.39 15.08 14.94 13.49L15.97 13.08C15.99 13.18 16.16 13.94 16.99 13.94C17.4 13.94 17.88 13.66 17.88 13.17C17.88 12.62 17.4 12.38 16.84 12.38ZM10.56 9.2C11.25 8.87 12.04 9 12.51 9.23C13.37 9.67 13.42 10.47 13.42 10.71C13.42 11.35 13.11 11.97 12.5 12.57C12.25 12.82 11.78 13.28 11.1 13.96L11.13 14.01H13.5V15H9.61V13.98C10.68 12.91 11.38 12.21 11.74 11.83C12.14 11.41 12.28 11.14 12.28 10.77C12.28 10.37 11.97 10.05 11.47 10.05C10.95 10.05 10.67 10.44 10.57 10.77L9.56 10.35C9.57 10.33 9.74 9.59 10.56 9.2ZM6.77 9H7.64V15H6.49V10.5L5.59 11.16L5.01 10.27L6.77 9Z" fill="black"/>
<path d="M20 4H4C2.9 4 2 4.9 2 6V18C2 19.1 2.9 20 4 20H20C21.1 20 22 19.1 22 18V6C22 4.9 21.1 4 20 4ZM20 18H4V6H20V18Z" fill="black"/>
<path d="M6.49001 10.5V15H7.64001V9H6.77001L5.01001 10.27L5.59001 11.16L6.49001 10.5Z" fill="black"/>
<path d="M11.4701 10.05C11.9701 10.05 12.2801 10.37 12.2801 10.77C12.2801 11.14 12.1401 11.41 11.7401 11.83C11.3801 12.21 10.6801 12.91 9.61006 13.98V15H13.5001V14.01H11.1301L11.1001 13.96C11.7801 13.28 12.2501 12.82 12.5001 12.57C13.1101 11.97 13.4201 11.35 13.4201 10.71C13.4201 10.47 13.3701 9.67002 12.5101 9.23002C12.0401 9.00002 11.2501 8.87002 10.5601 9.20002C9.74006 9.59002 9.57006 10.33 9.56006 10.35L10.5701 10.77C10.6701 10.44 10.9501 10.05 11.4701 10.05Z" fill="black"/>
<path d="M16.9899 13.94C16.1599 13.94 15.9999 13.18 15.9699 13.08L14.9399 13.49C15.3899 15.08 16.9499 15 16.9899 15C18.1899 15 18.6699 14.28 18.7499 14.15C19.0699 13.66 19.1099 12.91 18.7399 12.39C18.5699 12.15 18.3399 11.98 18.0599 11.87V11.8C18.2599 11.7 18.4299 11.54 18.5799 11.32C18.8399 10.91 18.8899 10.25 18.5599 9.75C18.4799 9.64 18.0299 9 16.9399 9C15.6799 9 15.1999 9.9 15.0899 10.24L16.0799 10.65C16.1899 10.33 16.4299 10.01 16.9299 10.01C17.3699 10.01 17.6799 10.27 17.6799 10.66C17.6799 11.24 17.1299 11.38 16.7999 11.38H16.3399V12.38H16.8399C17.3999 12.38 17.8799 12.62 17.8799 13.17C17.8799 13.66 17.3999 13.94 16.9899 13.94Z" fill="black"/>
</g>
<defs>
<clipPath id="clip0_401_58795">
<rect width="24" height="24" fill="white"/>
</clipPath>
</defs>
</svg>
