<svg width="24" height="24" viewBox="0 0 24 24" fill="none" xmlns="http://www.w3.org/2000/svg">
<g clip-path="url(#clip0_401_59442)">
<path opacity="0.3" d="M21 3H7V17H21V3ZM17 15H15V11H11V5H13V9H15V5H17V15Z" fill="black"/>
<path d="M3 23H19V21H3V5H1V21C1 22.1 1.9 23 3 23ZM7 19H21C22.1 19 23 18.1 23 17V3C23 1.9 22.1 1 21 1H7C5.9 1 5 1.9 5 3V17C5 18.1 5.9 19 7 19ZM7 3H21V17H7V3ZM15 9H13V5H11V11H15V15H17V5H15V9Z" fill="black"/>
</g>
<defs>
<clipPath id="clip0_401_59442">
<rect width="24" height="24" fill="white"/>
</clipPath>
</defs>
</svg>
