<svg width="24" height="24" viewBox="0 0 24 24" fill="none" xmlns="http://www.w3.org/2000/svg">
<g clip-path="url(#clip0_401_58144)">
<path opacity="0.3" d="M11 13H13V15H11V13ZM19 5H5V19H19V5ZM15 9H11V11H13C14.1 11 15 11.89 15 13V15C15 16.11 14.1 17 13 17H11C9.9 17 9 16.11 9 15V9C9 7.89 9.9 7 11 7H15V9Z" fill="black"/>
<path d="M9 9V15C9 16.11 9.9 17 11 17H13C14.1 17 15 16.11 15 15V13C15 11.89 14.1 11 13 11H11V9H15V7H11C9.9 7 9 7.89 9 9ZM13 13V15H11V13H13ZM5 21H19C20.1 21 21 20.1 21 19V5C21 3.9 20.1 3 19 3H5C3.9 3 3 3.9 3 5V19C3 20.1 3.9 21 5 21ZM5 5H19V19H5V5Z" fill="black"/>
</g>
<defs>
<clipPath id="clip0_401_58144">
<rect width="24" height="24" fill="white"/>
</clipPath>
</defs>
</svg>
