<svg width="24" height="24" viewBox="0 0 24 24" fill="none" xmlns="http://www.w3.org/2000/svg">
<g clip-path="url(#clip0_401_58984)">
<path d="M12 12H20.99L24 8.98C20.93 5.9 16.69 4 12 4C7.31 4 3.07 5.9 0 8.98L6.35 15.34C7.79 13.89 9.79 13 12 13V12Z" fill="black" fill-opacity="0.3"/>
<path d="M12 21V13C9.78998 13 7.79998 13.89 6.34998 15.34L12 21ZM21 15.41L19.59 14L17.5 16.09L15.41 14L14 15.41L16.09 17.5L14 19.59L15.41 21L17.5 18.92L19.59 21L21 19.59L18.92 17.5L21 15.41Z" fill="black"/>
</g>
<defs>
<clipPath id="clip0_401_58984">
<rect width="24" height="24" fill="white"/>
</clipPath>
</defs>
</svg>
