<svg width="24" height="24" viewBox="0 0 24 24" fill="none" xmlns="http://www.w3.org/2000/svg">
<g clip-path="url(#clip0_401_58421)">
<path opacity="0.3" d="M5 19H19V5H5V19ZM14.73 7.15C14.93 6.95 15.24 6.95 15.44 7.15L16.85 8.56C17.05 8.76 17.05 9.07 16.85 9.27L15.79 10.33L13.67 8.21L14.73 7.15ZM7 14.86L12.96 8.9L15.08 11.02L9.1 17H7V14.86Z" fill="black"/>
<path d="M19 3H14.82C14.4 1.84 13.3 1 12 1C10.7 1 9.6 1.84 9.18 3H5C3.9 3 3 3.9 3 5V19C3 20.1 3.9 21 5 21H19C20.1 21 21 20.1 21 19V5C21 3.9 20.1 3 19 3ZM12 2.75C12.41 2.75 12.75 3.09 12.75 3.5C12.75 3.91 12.41 4.25 12 4.25C11.59 4.25 11.25 3.91 11.25 3.5C11.25 3.09 11.59 2.75 12 2.75ZM19 19H5V5H19V19Z" fill="black"/>
<path d="M15.08 11.0299L12.96 8.90991L7 14.8599V16.9999H9.1L15.08 11.0299Z" fill="black"/>
<path d="M16.85 9.27C17.05 9.07 17.05 8.76 16.85 8.56L15.44 7.15C15.24 6.95 14.93 6.95 14.73 7.15L13.67 8.21L15.79 10.33L16.85 9.27Z" fill="black"/>
</g>
<defs>
<clipPath id="clip0_401_58421">
<rect width="24" height="24" fill="white"/>
</clipPath>
</defs>
</svg>
