<svg width="24" height="24" viewBox="0 0 24 24" fill="none" xmlns="http://www.w3.org/2000/svg">
<g clip-path="url(#clip0_401_58485)">
<path opacity="0.3" d="M4 20H20V4H4V20ZM14.75 6C16.13 6 17.25 7.53 17.25 9.41C17.25 10.89 16.55 12.12 15.58 12.59L15.5 12.62V19H14V12.62L13.92 12.58C12.95 12.11 12.25 10.88 12.25 9.4C12.25 7.52 13.38 6 14.75 6ZM6.5 6.5C6.5 6.22 6.72 6 7 6C7.28 6 7.5 6.22 7.5 6.5V9H8.25V6.5C8.25 6.22 8.47 6 8.75 6C9.03 6 9.25 6.22 9.25 6.5V9H10V6.5C10 6.22 10.23 6 10.5 6C10.78 6 11 6.22 11 6.5V10.3C11 11.23 10.36 12.01 9.5 12.23V19H8V12.23C7.14 12.01 6.5 11.23 6.5 10.3V6.5Z" fill="black"/>
<path d="M20 2H4C2.9 2 2 2.9 2 4V20C2 21.1 2.9 22 4 22H20C21.1 22 22 21.1 22 20V4C22 2.9 21.1 2 20 2ZM20 20H4V4H20V20Z" fill="black"/>
<path d="M8 12.23V19H9.5V12.23C10.36 12.01 11 11.23 11 10.3V6.5C11 6.22 10.78 6 10.5 6C10.23 6 10 6.22 10 6.5V9H9.25V6.5C9.25 6.22 9.03 6 8.75 6C8.47 6 8.25 6.22 8.25 6.5V9H7.5V6.5C7.5 6.22 7.28 6 7 6C6.72 6 6.5 6.22 6.5 6.5V10.3C6.5 11.23 7.14 12.01 8 12.23Z" fill="black"/>
<path d="M13.92 12.58L14 12.62V19H15.5V12.62L15.58 12.59C16.55 12.12 17.25 10.89 17.25 9.41C17.25 7.53 16.13 6 14.75 6C13.38 6 12.25 7.52 12.25 9.4C12.25 10.88 12.95 12.11 13.92 12.58Z" fill="black"/>
</g>
<defs>
<clipPath id="clip0_401_58485">
<rect width="24" height="24" fill="white"/>
</clipPath>
</defs>
</svg>
