<svg width="24" height="24" viewBox="0 0 24 24" fill="none" xmlns="http://www.w3.org/2000/svg">
<g clip-path="url(#clip0_401_59408)">
<path opacity="0.3" d="M19.23 12.04L17.71 11.93L17.41 10.43C16.89 7.86 14.62 6 12.01 6C9.95001 6 8.08001 7.14 7.13001 8.96L6.63001 9.91L5.56001 10.02C3.54001 10.24 2.01001 11.95 2.01001 14C2.01001 16.21 3.80001 18 6.01001 18H19.01C20.66 18 22.01 16.65 22.01 15C22.01 13.45 20.78 12.14 19.23 12.04Z" fill="black"/>
<path d="M19.36 10.04C18.67 6.59 15.65 4 12.01 4C9.11001 4 6.60001 5.64 5.35001 8.04C2.35001 8.36 0.0100098 10.91 0.0100098 14C0.0100098 17.31 2.70001 20 6.01001 20H19.01C21.77 20 24.01 17.76 24.01 15C24.01 12.36 21.96 10.22 19.36 10.04ZM19.01 18H6.01001C3.80001 18 2.01001 16.21 2.01001 14C2.01001 11.95 3.54001 10.24 5.57001 10.03L6.64001 9.92L7.14001 8.97C8.08001 7.14 9.95001 6 12.01 6C14.62 6 16.9 7.86 17.41 10.43L17.71 11.93L19.23 12.04C20.79 12.15 22.01 13.45 22.01 15C22.01 16.65 20.66 18 19.01 18Z" fill="black"/>
</g>
<defs>
<clipPath id="clip0_401_59408">
<rect width="24" height="24" fill="white"/>
</clipPath>
</defs>
</svg>
