<svg width="24" height="24" viewBox="0 0 24 24" fill="none" xmlns="http://www.w3.org/2000/svg">
<g clip-path="url(#clip0_401_59885)">
<path opacity="0.3" d="M7.00005 12.27V15.99L12.0001 18.72L17.0001 15.99V12.27L12.0001 15L7.00005 12.27ZM5.18005 9.00003L12.0001 12.72L18.8201 9.00003L12.0001 5.28003L5.18005 9.00003Z" fill="black"/>
<path d="M12 3L1 9L5 11.18V17.18L12 21L19 17.18V11.18L21 10.09V17H23V9L12 3ZM17 15.99L12 18.72L7 15.99V12.27L12 15L17 12.27V15.99ZM12 12.72L5.18 9L12 5.28L18.82 9L12 12.72Z" fill="black"/>
</g>
<defs>
<clipPath id="clip0_401_59885">
<rect width="24" height="24" fill="white"/>
</clipPath>
</defs>
</svg>
