<svg width="24" height="24" viewBox="0 0 24 24" fill="none" xmlns="http://www.w3.org/2000/svg">
<g clip-path="url(#clip0_401_57780)">
<path d="M12 7.57012L16.42 11.9901L12 16.4101L7.58 11.9901L12 7.57012ZM12 19.1901L4.8 11.9901L12 4.79012L18 10.7901V7.16012L13.42 2.58012C12.64 1.80012 11.37 1.80012 10.59 2.58012L2.58 10.5801C1.8 11.3601 1.8 12.6301 2.58 13.4101L10.59 21.4101C11.37 22.1901 12.64 22.1901 13.42 21.4101L18 16.8201V13.1901L12 19.1901ZM20 20.0001H22V22.0001H20V20.0001ZM22 10.0001H20V18.0001H22V10.0001Z" fill="black"/>
</g>
<defs>
<clipPath id="clip0_401_57780">
<rect width="24" height="24" fill="white"/>
</clipPath>
</defs>
</svg>
