<svg width="24" height="24" viewBox="0 0 24 24" fill="none" xmlns="http://www.w3.org/2000/svg">
<g clip-path="url(#clip0_401_58427)">
<path opacity="0.3" d="M4 4V11.17L12.83 20L20 12.83L11.17 4H4ZM6.5 8C5.67 8 5 7.33 5 6.5C5 5.67 5.67 5 6.5 5C7.33 5 8 5.67 8 6.5C8 7.33 7.33 8 6.5 8Z" fill="black"/>
<path d="M21.41 11.41L12.58 2.58C12.21 2.21 11.7 2 11.17 2H4C2.9 2 2 2.9 2 4V11.17C2 11.7 2.21 12.21 2.59 12.58L11.42 21.41C12.2 22.19 13.47 22.19 14.25 21.41L21.42 14.24C22.2 13.46 22.2 12.2 21.41 11.41ZM12.83 20L4 11.17V4H11.17L20 12.83L12.83 20Z" fill="black"/>
<path d="M6.5 8C7.32843 8 8 7.32843 8 6.5C8 5.67157 7.32843 5 6.5 5C5.67157 5 5 5.67157 5 6.5C5 7.32843 5.67157 8 6.5 8Z" fill="black"/>
</g>
<defs>
<clipPath id="clip0_401_58427">
<rect width="24" height="24" fill="white"/>
</clipPath>
</defs>
</svg>
