<svg width="24" height="24" viewBox="0 0 24 24" fill="none" xmlns="http://www.w3.org/2000/svg">
<g clip-path="url(#clip0_401_59200)">
<path opacity="0.3" d="M8.82996 6H16.95L13.38 10.55L8.82996 6Z" fill="black"/>
<path d="M16.95 6L13.38 10.55L14.81 11.98C15.84 10.67 19.79 5.61 19.79 5.61C20.3 4.95 19.83 4 19 4H6.82996L8.82996 6H16.95Z" fill="black"/>
<path d="M2.81001 2.81L1.39001 4.22L10 13V19C10 19.55 10.45 20 11 20H13C13.55 20 14 19.55 14 19V16.83L19.78 22.61L21.19 21.2L2.81001 2.81Z" fill="black"/>
</g>
<defs>
<clipPath id="clip0_401_59200">
<rect width="24" height="24" fill="white"/>
</clipPath>
</defs>
</svg>
