<svg width="24" height="24" viewBox="0 0 24 24" fill="none" xmlns="http://www.w3.org/2000/svg">
<g clip-path="url(#clip0_401_59011)">
<path opacity="0.3" d="M3 19H21V6H3V19ZM17 8H19V10H17V8ZM17 12H19V14H17V12ZM13 8H15V10H13V8ZM13 12H15V14H13V12ZM9 8H11V10H9V8ZM9 12H11V14H9V12ZM8 16H16V17H8V16ZM5 8H7V10H5V8ZM5 12H7V14H5V12Z" fill="black"/>
<path d="M21 4H3C1.9 4 1 4.9 1 6V19C1 20.1 1.9 21 3 21H21C22.1 21 23 20.1 23 19V6C23 4.9 22.1 4 21 4ZM21 19H3V6H21V19Z" fill="black"/>
<path d="M11 8H9V10H11V8Z" fill="black"/>
<path d="M7 8H5V10H7V8Z" fill="black"/>
<path d="M16 16H8V17H16V16Z" fill="black"/>
<path d="M15 8H13V10H15V8Z" fill="black"/>
<path d="M11 12H9V14H11V12Z" fill="black"/>
<path d="M7 12H5V14H7V12Z" fill="black"/>
<path d="M15 12H13V14H15V12Z" fill="black"/>
<path d="M19 8H17V10H19V8Z" fill="black"/>
<path d="M19 12H17V14H19V12Z" fill="black"/>
</g>
<defs>
<clipPath id="clip0_401_59011">
<rect width="24" height="24" fill="white"/>
</clipPath>
</defs>
</svg>
