<svg width="24" height="24" viewBox="0 0 24 24" fill="none" xmlns="http://www.w3.org/2000/svg">
<g clip-path="url(#clip0_401_59717)">
<path opacity="0.3" d="M6 6.39001V11.09C6 15.09 8.55 18.79 12 19.92C15.45 18.79 18 15.1 18 11.09V6.39001L12 4.14001L6 6.39001ZM12.21 7.61001C11.75 8.84001 11.82 10.25 12.53 11.47C13.24 12.69 14.42 13.46 15.71 13.67C16.05 13.73 16.2 14.14 15.97 14.41C14.13 16.58 10.76 16.51 9.01 14.34C6.82 11.62 8.36 7.62002 11.7 7.01002C12.04 6.95002 12.33 7.28001 12.21 7.61001Z" fill="black"/>
<path d="M12 2L4 5V11.09C4 16.14 7.41 20.85 12 22C16.59 20.85 20 16.14 20 11.09V5L12 2ZM18 11.09C18 15.09 15.45 18.79 12 19.92C8.55 18.79 6 15.1 6 11.09V6.39L12 4.14L18 6.39V11.09Z" fill="black"/>
<path d="M9.00994 14.33C10.7599 16.5 14.1299 16.57 15.9699 14.4C16.1999 14.13 16.0499 13.72 15.7099 13.66C14.4199 13.45 13.2299 12.68 12.5299 11.46C11.8199 10.24 11.7499 8.83003 12.2099 7.60003C12.3299 7.27003 12.0499 6.94003 11.6999 7.00003C8.35994 7.62003 6.80994 11.61 9.00994 14.33Z" fill="black"/>
</g>
<defs>
<clipPath id="clip0_401_59717">
<rect width="24" height="24" fill="white"/>
</clipPath>
</defs>
</svg>
