<svg width="24" height="24" viewBox="0 0 24 24" fill="none" xmlns="http://www.w3.org/2000/svg">
<g clip-path="url(#clip0_401_57785)">
<path opacity="0.3" d="M11 16C11 16.55 11.45 17 12 17C12.55 17 13 16.55 13 16V14H11V16ZM3 16C3 16.55 3.45 17 4 17C4.55 17 5 16.55 5 16V14H3V16ZM19 16C19 16.55 19.45 17 20 17C20.55 17 21 16.55 21 16V14H19V16Z" fill="black"/>
<path d="M5 2C5 1.45 4.55 1 4 1C3.45 1 3 1.45 3 2V6H1V16C1 17.3 1.84 18.4 3 18.82V23H5V18.82C6.16 18.4 7 17.3 7 16V6H5V2ZM5 16C5 16.55 4.55 17 4 17C3.45 17 3 16.55 3 16V14H5V16ZM5 12H3V8H5V12ZM13 2C13 1.45 12.55 1 12 1C11.45 1 11 1.45 11 2V6H9V16C9 17.3 9.84 18.4 11 18.82V23H13V18.82C14.16 18.4 15 17.3 15 16V6H13V2ZM13 16C13 16.55 12.55 17 12 17C11.45 17 11 16.55 11 16V14H13V16ZM13 12H11V8H13V12ZM21 6V2C21 1.45 20.55 1 20 1C19.45 1 19 1.45 19 2V6H17V16C17 17.3 17.84 18.4 19 18.82V23H21V18.82C22.16 18.4 23 17.3 23 16V6H21ZM21 16C21 16.55 20.55 17 20 17C19.45 17 19 16.55 19 16V14H21V16ZM21 12H19V8H21V12Z" fill="black"/>
</g>
<defs>
<clipPath id="clip0_401_57785">
<rect width="24" height="24" fill="white"/>
</clipPath>
</defs>
</svg>
