<svg width="24" height="24" viewBox="0 0 24 24" fill="none" xmlns="http://www.w3.org/2000/svg">
<g clip-path="url(#clip0_401_58616)">
<path opacity="0.3" d="M12 9.58008C9.05 9.58008 6.53 11.4101 5.5 13.9901H18.5C17.47 11.4101 14.95 9.58008 12 9.58008Z" fill="black"/>
<path d="M2 17H22V19H2V17ZM13.84 7.79C13.94 7.55 14 7.28 14 7C14 5.9 13.1 5 12 5C10.9 5 10 5.9 10 7C10 7.28 10.06 7.55 10.16 7.79C6.25 8.6 3.27 11.93 3 16H21C20.73 11.93 17.75 8.6 13.84 7.79ZM12 9.58C14.95 9.58 17.47 11.41 18.5 13.99H5.5C6.53 11.41 9.05 9.58 12 9.58Z" fill="black"/>
</g>
<defs>
<clipPath id="clip0_401_58616">
<rect width="24" height="24" fill="white"/>
</clipPath>
</defs>
</svg>
