<svg width="24" height="24" viewBox="0 0 24 24" fill="none" xmlns="http://www.w3.org/2000/svg">
<g clip-path="url(#clip0_401_59881)">
<path opacity="0.3" d="M15.32 14.84C14.34 14.3 13.2 14 12 14C10.8 14 9.66004 14.3 8.68004 14.84L2.92004 9.07C5.51004 7.08 8.67004 6 12 6C15.33 6 18.49 7.08 21.08 9.07L15.32 14.84Z" fill="black"/>
<path d="M12 4C7.31 4 3.07 5.9 0 8.98L12 21L24 8.98C20.93 5.9 16.69 4 12 4ZM15.32 14.84C14.34 14.3 13.2 14 12 14C10.8 14 9.66 14.3 8.68 14.84L2.92 9.07C5.51 7.08 8.67 6 12 6C15.33 6 18.49 7.08 21.08 9.07L15.32 14.84Z" fill="black"/>
</g>
<defs>
<clipPath id="clip0_401_59881">
<rect width="24" height="24" fill="white"/>
</clipPath>
</defs>
</svg>
