<svg width="24" height="24" viewBox="0 0 24 24" fill="none" xmlns="http://www.w3.org/2000/svg">
<g clip-path="url(#clip0_401_57953)">
<path opacity="0.3" d="M7 17H21V3H7V17ZM11.25 11.47L13.21 13.83L15.96 10.29L19.5 15H8.5L11.25 11.47Z" fill="black"/>
<path d="M1 21C1 22.1 1.9 23 3 23H19V21H3V5H1V21ZM21 1H7C5.9 1 5 1.9 5 3V17C5 18.1 5.9 19 7 19H21C22.1 19 23 18.1 23 17V3C23 1.9 22.1 1 21 1ZM21 17H7V3H21V17ZM15.96 10.29L13.21 13.83L11.25 11.47L8.5 15H19.5L15.96 10.29Z" fill="black"/>
</g>
<defs>
<clipPath id="clip0_401_57953">
<rect width="24" height="24" fill="white"/>
</clipPath>
</defs>
</svg>
