<svg width="24" height="24" viewBox="0 0 24 24" fill="none" xmlns="http://www.w3.org/2000/svg">
<g clip-path="url(#clip0_401_58583)">
<path d="M3 15H5V17H3V15ZM3 3H5V5H3V3ZM3 19H5V21H3V19ZM11 21H13V13H21V11H13V3H11V11H3V13H11V21ZM7 19H9V21H7V19ZM19 15H21V17H19V15ZM15 19H17V21H15V19ZM19 19H21V21H19V19ZM3 7H5V9H3V7ZM19 7H21V9H19V7ZM7 3H9V5H7V3ZM15 3H17V5H15V3ZM19 3H21V5H19V3Z" fill="black"/>
</g>
<defs>
<clipPath id="clip0_401_58583">
<rect width="24" height="24" fill="white"/>
</clipPath>
</defs>
</svg>
