<svg width="24" height="24" viewBox="0 0 24 24" fill="none" xmlns="http://www.w3.org/2000/svg">
<g clip-path="url(#clip0_401_58529)">
<path opacity="0.3" d="M15.36 9H3.64004L3.04004 12H15.96L15.36 9Z" fill="black"/>
<path d="M17 4H2V6H17V4Z" fill="black"/>
<path d="M15 17H17V14H18V12L17 7H2L1 12V14H2V20H11V14H15V17ZM9 18H4V14H9V18ZM3.04 12L3.64 9H15.36L15.96 12H3.04Z" fill="black"/>
<path d="M20 18V15H18V18H15V20H18V23H20V20H23V18H20Z" fill="black"/>
</g>
<defs>
<clipPath id="clip0_401_58529">
<rect width="24" height="24" fill="white"/>
</clipPath>
</defs>
</svg>
