<svg width="24" height="24" viewBox="0 0 24 24" fill="none" xmlns="http://www.w3.org/2000/svg">
<g clip-path="url(#clip0_401_57854)">
<path opacity="0.3" d="M6 8.83V20H18V4H10.83L6 8.83ZM11 9.02L13 9V13H16L12 17L8 13H11V9.02Z" fill="black"/>
<path d="M18 2H10L4 8V20C4 21.1 4.9 22 6 22H18C19.1 22 20 21.1 20 20V4C20 2.9 19.1 2 18 2ZM18 20H6V8.83L10.83 4H18V20Z" fill="black"/>
<path d="M12 17L16 13H13V9L11 9.02V13H8L12 17Z" fill="black"/>
</g>
<defs>
<clipPath id="clip0_401_57854">
<rect width="24" height="24" fill="white"/>
</clipPath>
</defs>
</svg>
