<svg width="24" height="24" viewBox="0 0 24 24" fill="none" xmlns="http://www.w3.org/2000/svg">
<g clip-path="url(#clip0_401_57796)">
<path opacity="0.3" d="M7.45995 9.45996C5.67995 11.25 5.54995 14.04 7.02995 16C8.55995 13.46 10.7599 11.36 13.3999 9.99996C11.1399 11.91 9.44995 14.44 8.51995 17.32C9.26995 17.75 10.1099 18 10.9999 18C12.3399 18 13.5899 17.48 14.5399 16.54C16.2799 14.8 17.3499 9.96996 17.7999 6.20996C14.0399 6.64996 9.20995 7.71996 7.45995 9.45996Z" fill="black"/>
<path d="M6.04994 8.05C3.31994 10.78 3.31994 15.22 6.04994 17.95C7.41994 19.32 9.20994 20 10.9999 20C12.7899 20 14.5799 19.32 15.9499 17.95C19.4299 14.47 19.9999 4 19.9999 4C19.9999 4 9.52994 4.57 6.04994 8.05ZM14.5399 16.54C13.5899 17.48 12.3399 18 10.9999 18C10.1099 18 9.26994 17.75 8.51994 17.32C9.43994 14.44 11.1399 11.91 13.3999 10C10.7699 11.36 8.55994 13.46 7.02994 16C5.54994 14.04 5.67994 11.25 7.46994 9.46C9.20994 7.72 14.0399 6.65 17.7999 6.2C17.3499 9.96 16.2799 14.79 14.5399 16.54Z" fill="black"/>
</g>
<defs>
<clipPath id="clip0_401_57796">
<rect width="24" height="24" fill="white"/>
</clipPath>
</defs>
</svg>
