<svg width="24" height="24" viewBox="0 0 24 24" fill="none" xmlns="http://www.w3.org/2000/svg">
<g clip-path="url(#clip0_401_58550)">
<path opacity="0.3" d="M12 4C9.79 4 8 5.79 8 8C8 10.21 9.79 12 12 12C14.21 12 16 10.21 16 8C16 5.79 14.21 4 12 4ZM15 9H13V11H11V9H9V7H11V5H13V7H15V9Z" fill="black"/>
<path d="M12 2C8.69 2 6 4.69 6 8C6 11.31 8.69 14 12 14C15.31 14 18 11.31 18 8C18 4.69 15.31 2 12 2ZM12 12C9.79 12 8 10.21 8 8C8 5.79 9.79 4 12 4C14.21 4 16 5.79 16 8C16 10.21 14.21 12 12 12Z" fill="black"/>
<path d="M13 5H11V7H9V9H11V11H13V9H15V7H13V5Z" fill="black"/>
<path d="M3.5 18H1.5V16H0V22H1.5V19.5H3.5V22H5V16H3.5V18Z" fill="black"/>
<path d="M22 18.5V16.5H20.5V18.5H18.5V20H20.5V22H22V20H24V18.5H22Z" fill="black"/>
<path d="M16.5 16H13V22H14.5V20H15.6L16.5 22H18L17.1 19.9C17.6 19.6 18 19.1 18 18.5V17.5C18 16.7 17.3 16 16.5 16ZM16.5 18.5H14.5V17.5H16.5V18.5Z" fill="black"/>
<path d="M10 16H6.5V22H10C10.8 22 11.5 21.3 11.5 20.5V17.5C11.5 16.7 10.8 16 10 16ZM10 20.5H8V17.5H10V20.5Z" fill="black"/>
</g>
<defs>
<clipPath id="clip0_401_58550">
<rect width="24" height="24" fill="white"/>
</clipPath>
</defs>
</svg>
