<svg width="24" height="24" viewBox="0 0 24 24" fill="none" xmlns="http://www.w3.org/2000/svg">
<g clip-path="url(#clip0_401_58039)">
<path opacity="0.3" d="M7 6V18H17V6H7ZM15 16H9V14H15V16ZM15 13H9V11H15V13ZM15 10H9V8H15V10Z" fill="black"/>
<path d="M7 3H4V6H2V1H7V3ZM22 6V1H17V3H20V6H22ZM7 21H4V18H2V23H7V21ZM20 18V21H17V23H22V18H20ZM17 6H7V18H17V6ZM19 18C19 19.1 18.1 20 17 20H7C5.9 20 5 19.1 5 18V6C5 4.9 5.9 4 7 4H17C18.1 4 19 4.9 19 6V18ZM15 8H9V10H15V8ZM15 11H9V13H15V11ZM15 14H9V16H15V14Z" fill="black"/>
</g>
<defs>
<clipPath id="clip0_401_58039">
<rect width="24" height="24" fill="white"/>
</clipPath>
</defs>
</svg>
