<svg width="30" height="30" viewBox="0 0 30 30" fill="none" xmlns="http://www.w3.org/2000/svg">
<path d="M3.26704 25.575H3.26704C3.17175 25.1355 3.26792 24.6601 3.54099 24.1566C3.81389 23.6534 4.26487 23.1192 4.88469 22.5591C6.12208 21.4409 8.04012 20.2122 10.5844 18.9138C11.7194 16.7871 12.7527 14.3812 13.4967 12.1279C12.7515 10.6301 12.1783 9.12363 11.8901 7.78801C11.6013 6.44894 11.5969 5.27266 12.0029 4.44956C12.39 3.66343 13.1222 3.23125 14.0545 3.23125C14.8114 3.23125 15.4344 3.60587 15.8043 4.28166C16.0931 4.80846 16.2313 5.50341 16.2313 6.40039C16.2313 7.80978 15.8385 9.79301 15.1717 11.9715C15.8181 13.2027 16.6131 14.472 17.5382 15.6774C17.6282 15.7939 17.7172 15.9074 17.8083 16.0183C22.2591 14.9455 24.5874 16.0579 25.3152 16.5263L25.3153 16.5263C26.2342 17.1186 26.7687 17.9529 26.7687 18.8213C26.7687 19.9458 26.1647 20.7981 25.1119 21.1557L25.1119 21.1557C24.1841 21.4705 22.9132 21.3686 21.53 20.8167C20.1526 20.2671 18.6593 19.2697 17.2731 17.7832C16.2417 18.0855 15.1172 18.5029 13.9014 19.0553L3.26704 25.575ZM3.26704 25.575C3.42759 26.3159 4.09386 26.7687 4.98572 26.7687C6.11767 26.7687 7.30266 26.022 8.4568 24.8169C9.60982 23.613 10.7403 21.9429 11.7668 20.0719C12.4176 19.7462 13.1282 19.407 13.9014 19.0553L3.26704 25.575ZM24.6081 19.6743L24.6242 19.7217L24.6081 19.6743C24.0901 19.8502 23.2541 19.7958 22.2581 19.4234C21.285 19.0595 20.1653 18.3939 19.0525 17.3541C21.6436 16.8718 23.4705 17.1985 24.4691 17.8428L24.4692 17.8428C24.7026 17.9931 24.8872 18.1609 25.0129 18.3302C25.139 18.4999 25.204 18.6683 25.204 18.8213C25.204 19.0519 25.1566 19.2291 25.0611 19.3655C24.9657 19.5017 24.8184 19.603 24.6081 19.6743ZM13.2526 17.6312L13.2526 17.6313C13.1426 17.6813 13.0337 17.7314 12.9258 17.781C13.5128 16.5288 14.0451 15.237 14.503 13.9722C15.0254 14.8499 15.5934 15.7002 16.1829 16.4809C15.2798 16.7745 14.3052 17.1531 13.2526 17.6312ZM4.98572 25.2039C4.92301 25.2039 4.87402 25.199 4.83733 25.1941C4.82351 25.1922 4.81168 25.1904 4.80099 25.1888C4.79996 25.1886 4.79893 25.1885 4.79791 25.1883C4.80878 25.1105 4.85431 24.9867 4.9601 24.8166C5.08702 24.6125 5.29659 24.348 5.62167 24.0265C6.24949 23.4057 7.30527 22.5752 9.01993 21.5593C8.31616 22.6195 7.60834 23.5126 6.93559 24.1497C6.22322 24.8244 5.55873 25.2039 4.98572 25.2039ZM13.3612 5.11914L13.406 5.14132C13.4519 5.0485 13.5085 4.96412 13.6034 4.90193C13.6985 4.83966 13.8375 4.79609 14.0545 4.79609C14.1387 4.79609 14.2039 4.8065 14.2615 4.83869C14.319 4.87081 14.3747 4.92799 14.4325 5.03277C14.5365 5.22416 14.6666 5.61838 14.6666 6.40039C14.6666 7.3503 14.4873 8.51967 14.1701 9.80833C13.754 8.76716 13.4712 7.80995 13.3358 7.01311C13.1937 6.17713 13.2157 5.52752 13.406 5.14124L13.3612 5.11914Z" fill="#82868C" stroke="#82868C" stroke-width="0.1"/>
</svg>
