<svg width="30" height="30" viewBox="0 0 30 30" fill="none" xmlns="http://www.w3.org/2000/svg">
<path d="M26.6951 14.751C26.695 14.7509 26.6949 14.7509 26.6949 14.7507L15.2365 3.29241C14.8228 2.89276 14.1633 2.9042 13.7637 3.31797C13.3738 3.72169 13.3738 4.36167 13.7637 4.76526L23.4439 14.4456H3.04167C2.46641 14.4456 2 14.912 2 15.4872C2 16.0625 2.46641 16.5289 3.04167 16.5289H23.4439L13.7635 26.2091C13.3498 26.6087 13.3383 27.2682 13.738 27.6819C14.1376 28.0958 14.7972 28.1073 15.211 27.7076C15.2196 27.6992 15.2281 27.6907 15.2365 27.6819L26.6949 16.2236C27.1017 15.8171 27.1017 15.1578 26.6951 14.751Z" fill="#82868C"/>
</svg>
