<svg width="30" height="30" viewBox="0 0 30 30" fill="none" xmlns="http://www.w3.org/2000/svg">
<path d="M6.96971 26.5522C5.70962 26.5522 4.55454 26.0797 3.66197 25.1871C2.76941 24.2946 2.29688 23.1395 2.29688 21.8794C2.29688 20.6193 2.76941 19.4642 3.66197 18.5717L16.9979 5.23569C19.4131 2.82052 23.4034 2.82052 25.8186 5.23569C26.9737 6.39077 27.6562 7.96588 27.6562 9.64601C27.6562 11.3261 27.0262 12.8488 25.8186 14.0563L15.8429 24.0321L14.7928 22.982L24.7685 13.0063C26.6061 11.1686 26.6061 8.1234 24.7685 6.28577C22.9309 4.44813 19.8856 4.44813 18.048 6.28577L4.71205 19.6217C4.082 20.1993 3.76698 21.0393 3.76698 21.8794C3.76698 22.7195 4.082 23.5595 4.71205 24.1371C5.97214 25.3971 7.96728 25.3971 9.22737 24.1371L19.2031 14.1613C19.8331 13.5313 19.8331 12.4812 19.2031 11.8512C18.573 11.2211 17.523 11.2211 16.8929 11.8512L10.2249 18.5192L9.17487 17.4691L15.8429 10.8011C17.0504 9.59351 18.9931 9.59351 20.2007 10.8011C21.4083 12.0087 21.4083 13.9513 20.2007 15.1589L10.2249 25.1346C9.38489 26.0797 8.2298 26.5522 6.96971 26.5522Z" fill="#82868C"/>
</svg>
