<svg width="30" height="30" viewBox="0 0 30 30" fill="none" xmlns="http://www.w3.org/2000/svg">
<path d="M24.2365 16.0624L24.2367 16.0624C26.0003 16.3995 27.2725 17.946 27.2624 19.7407V19.7406H27.1874L27.2624 19.741L24.2365 16.0624ZM24.2365 16.0624C23.9976 16.0174 23.7597 15.9654 23.5227 15.9086C23.0255 15.7866 22.536 15.6354 22.0568 15.4557M24.2365 16.0624L11.6778 11.9496M11.6778 11.9496C12.4326 13.2719 13.3598 14.4883 14.435 15.5669C15.5101 16.6448 16.724 17.5746 18.0446 18.3318L18.9239 16.6439L18.9241 16.6436C19.5184 15.514 20.8622 15.0044 22.0568 15.4557M11.6778 11.9496L13.356 11.0766L13.3563 11.0765C14.4865 10.4823 14.9965 9.13947 14.5455 7.94536C14.3652 7.46559 14.2137 6.97554 14.0918 6.47774C14.0918 6.47774 14.0918 6.47773 14.0918 6.47773L14.0189 6.49556M11.6778 11.9496L6.50988 2.73755L6.50987 2.81255M22.0568 15.4557L22.0302 15.5258L22.0566 15.4556C22.0566 15.4556 22.0567 15.4557 22.0568 15.4557ZM14.0189 6.49556C13.9608 6.25801 13.9094 6.01853 13.8648 5.77704C13.5344 4.04944 12.0182 2.80311 10.2584 2.81255M14.0189 6.49556C14.1415 6.99631 14.2939 7.48925 14.4754 7.97186L14.0189 6.49556ZM10.2584 2.81255V2.73755H10.2582C10.2582 2.73755 10.2581 2.73755 10.258 2.73755L10.2584 2.81255ZM10.2584 2.81255H6.50987M6.50987 2.81255V2.73755C5.4086 2.73748 4.36218 3.218 3.64474 4.05313M6.50987 2.81255C5.43043 2.81248 4.40476 3.28349 3.70157 4.10208M3.70157 4.10208L3.64481 4.05306C3.64479 4.05308 3.64476 4.05311 3.64474 4.05313M3.70157 4.10208C3.00477 4.90878 2.69487 5.97927 2.85295 7.03326M3.70157 4.10208L3.64468 4.05321C3.6447 4.05319 3.64472 4.05316 3.64474 4.05313M3.64474 4.05313L2.85295 7.03326M2.85295 7.03326C4.47595 17.3902 12.6009 25.5167 22.9622 27.1459C23.1426 27.1733 23.3248 27.1872 23.5073 27.1875L2.85295 7.03326ZM12.7231 9.86352C13.2403 9.58962 13.4725 8.97359 13.2645 8.42677L13.2644 8.42649C13.065 7.89553 12.8972 7.35329 12.7619 6.80252L12.7618 6.80228C12.6985 6.54074 12.6411 6.27657 12.5926 6.01218M12.7231 9.86352L23.2157 17.1639M12.7231 9.86352C12.7231 9.86357 12.723 9.86361 12.7229 9.86366M12.7231 9.86352L12.7229 9.86366M12.5926 6.01218C12.5926 6.01206 12.5926 6.01195 12.5926 6.01183L12.6663 5.99831L12.5927 6.01263C12.5927 6.01248 12.5926 6.01233 12.5926 6.01218ZM12.5926 6.01218C12.3757 4.89793 11.3949 4.09655 10.2591 4.1057L10.2584 4.10571L6.50987 4.10571H6.50986C5.80735 4.10556 5.13985 4.41236 4.68271 4.94555L4.68248 4.94582C4.23134 5.46712 4.03054 6.15946 4.13277 6.84108M4.13277 6.84108C4.13275 6.841 4.13274 6.84091 4.13273 6.84083L4.05863 6.85244L4.1328 6.84131C4.13279 6.84123 4.13278 6.84116 4.13277 6.84108ZM4.13277 6.84108C5.66837 16.6389 13.3549 24.3265 23.1568 25.8678C23.8384 25.9683 24.5302 25.7675 25.052 25.3177L25.0522 25.3176C25.586 24.8603 25.8934 24.1928 25.8937 23.4902C25.8937 23.4902 25.8937 23.4902 25.8937 23.4902V19.7406V19.74C25.9028 18.6042 25.1004 17.6232 23.9847 17.4065C23.7197 17.3564 23.4577 17.3014 23.1978 17.2367M23.1978 17.2367C23.1977 17.2367 23.1977 17.2367 23.1976 17.2367L23.2157 17.1639M23.1978 17.2367C23.1978 17.2368 23.1979 17.2368 23.198 17.2368L23.2157 17.1639M23.1978 17.2367C22.647 17.1026 22.1048 16.9352 21.5742 16.7357L21.574 16.7356C21.0273 16.5283 20.4117 16.76 20.1376 17.2761L20.1377 17.2759L20.0712 17.2412M23.2157 17.1639C22.6678 17.0305 22.1284 16.864 21.6006 16.6655C21.0184 16.4447 20.3629 16.6915 20.0712 17.2412M20.0712 17.2412L20.1374 17.2764M20.0712 17.2412L18.869 19.5491C18.7943 19.692 18.6659 19.7994 18.5119 19.8477L20.1374 17.2764M20.1374 17.2764L18.9356 19.5837L18.9355 19.5838C18.8515 19.7443 18.7073 19.865 18.5343 19.9192L18.5339 19.9194C18.3608 19.9723 18.1739 19.9561 18.0126 19.8741L18.0119 19.8737C16.3344 18.9987 14.8013 17.8715 13.466 16.5317M20.1374 17.2764L13.519 16.4787M13.466 16.5317L13.519 16.4787M13.466 16.5317C13.4659 16.5317 13.4659 16.5317 13.4659 16.5316L13.519 16.4787M13.466 16.5317C12.13 15.1932 11.007 13.658 10.136 11.9797M13.519 16.4787C12.1885 15.1456 11.07 13.6167 10.2026 11.9451M10.136 11.9797L10.2026 11.9451M10.136 11.9797C9.96198 11.6446 10.0924 11.232 10.4274 11.0578L12.7229 9.86366M10.136 11.9797C10.136 11.9797 10.136 11.9797 10.136 11.9797L10.2026 11.9451M10.2026 11.9451C10.0476 11.6468 10.1638 11.2795 10.462 11.1243L12.7229 9.86366M25.9449 26.3558C25.9449 26.3558 25.945 26.3557 25.945 26.3557L25.8961 26.2989L25.9449 26.3558Z" fill="#82868C" stroke="#82868C" stroke-width="0.15"/>
</svg>
