<svg width="30" height="30" viewBox="0 0 30 30" fill="none" xmlns="http://www.w3.org/2000/svg">
<path d="M19.3419 9.27841C19.3419 6.74296 17.2865 4.68754 14.751 4.68754C13.5301 4.68241 12.3574 5.1638 11.4922 6.02531C10.6271 6.88681 10.1408 8.05747 10.1408 9.27841M19.196 25.1129H10.3256C7.06724 25.1129 4.56757 23.936 5.2776 19.1993L6.10433 12.7799C6.54202 10.4164 8.0496 9.51184 9.37238 9.51184H20.1881C21.5303 9.51184 22.9503 10.4845 23.4561 12.7799L24.2828 19.1993C24.8859 23.401 22.4543 25.1129 19.196 25.1129Z" stroke="#82868C" stroke-width="1.6" stroke-linecap="round" stroke-linejoin="round"/>
<path d="M17.9018 14.0639H17.854" stroke="#82868C" stroke-width="1.6" stroke-linecap="round" stroke-linejoin="round"/>
<path d="M11.7071 14.0639H11.6582" stroke="#82868C" stroke-width="1.6" stroke-linecap="round" stroke-linejoin="round"/>
</svg>
