<svg width="30" height="30" viewBox="0 0 30 30" fill="none" xmlns="http://www.w3.org/2000/svg">
<path d="M11.5 25C11.2778 24.9993 11.058 24.9517 10.8545 24.8603C10.6509 24.7689 10.4679 24.6356 10.3168 24.4686L2.43936 15.8833C2.14489 15.5618 1.98714 15.1336 2.00082 14.693C2.0145 14.2523 2.19848 13.8353 2.5123 13.5336C2.82611 13.2319 3.24405 13.0703 3.67417 13.0843C4.10429 13.0983 4.51136 13.2868 4.80583 13.6083L11.4838 20.8983L25.1153 5.62082C25.2537 5.44434 25.4258 5.29869 25.621 5.19283C25.8163 5.08696 26.0306 5.02311 26.2509 5.00521C26.4711 4.9873 26.6926 5.01571 26.9017 5.08869C27.1109 5.16167 27.3032 5.27768 27.467 5.4296C27.6308 5.58152 27.7625 5.76613 27.8541 5.97211C27.9457 6.17809 27.9953 6.40108 27.9997 6.62738C28.0041 6.85368 27.9633 7.07852 27.8798 7.28808C27.7963 7.49765 27.6719 7.68752 27.5142 7.84603L12.6995 24.452C12.5498 24.622 12.3674 24.7584 12.1637 24.8527C11.9601 24.947 11.7397 24.9972 11.5162 25H11.5Z" fill="#82868C"/>
</svg>
