<svg width="30" height="30" viewBox="0 0 30 30" fill="none" xmlns="http://www.w3.org/2000/svg">
<path d="M15 20.685C14.235 20.685 13.615 20.065 13.615 19.3C13.615 19.025 13.39 18.8 13.115 18.8C12.84 18.8 12.615 19.025 12.615 19.3C12.615 20.44 13.425 21.395 14.5 21.63V21.995C14.5 22.27 14.725 22.495 15 22.495C15.275 22.495 15.5 22.27 15.5 21.995V21.63C16.575 21.4 17.385 20.445 17.385 19.3C17.385 17.895 16.315 17.335 15.165 16.945C14.085 16.575 13.62 16.155 13.62 15.535C13.62 14.775 14.24 14.15 15.005 14.15C15.77 14.15 16.39 14.77 16.39 15.535C16.39 15.81 16.615 16.035 16.89 16.035C17.165 16.035 17.39 15.81 17.39 15.535C17.39 14.395 16.58 13.44 15.505 13.205V12.84C15.505 12.565 15.28 12.34 15.005 12.34C14.73 12.34 14.505 12.565 14.505 12.84V13.205C13.43 13.435 12.62 14.39 12.62 15.535C12.62 16.97 13.89 17.565 14.84 17.89C15.995 18.285 16.385 18.64 16.385 19.3C16.385 20.065 15.765 20.685 15 20.685Z" fill="#82868C"/>
<path d="M6.11011 20.37C6.11011 25.165 9.01511 27.5 15.0001 27.5C20.9851 27.5 23.8901 25.165 23.8901 20.37C23.8901 16.195 21.5251 10.415 17.9601 8.23L19.3101 3.13C19.3501 2.98 19.3151 2.82 19.2251 2.695C19.1301 2.57 18.9851 2.5 18.8301 2.5H15.4801C15.2751 2.5 15.0851 2.625 15.0151 2.82L14.7301 3.55H10.5701C10.4051 3.55 10.2501 3.63 10.1551 3.77C10.0601 3.905 10.0401 4.08 10.1001 4.235L11.7351 8.415C8.34511 10.73 6.11011 16.31 6.11011 20.37ZM11.3051 4.55H14.3451L14.0351 5.35C13.9351 5.61 14.0651 5.895 14.3201 5.995C14.5801 6.095 14.8651 5.965 14.9651 5.71L15.8251 3.5H18.1801L17.0501 7.76C16.3951 7.49 15.7151 7.335 15.0001 7.335C14.1651 7.335 13.3701 7.54 12.6201 7.905L11.3051 4.55ZM15.0001 8.335C19.1751 8.335 22.8901 15.065 22.8901 20.365C22.8901 24.61 20.4601 26.5 15.0001 26.5C9.54011 26.5 7.11011 24.61 7.11011 20.37C7.11011 15.065 10.8251 8.335 15.0001 8.335Z" fill="#82868C"/>
</svg>
