<svg width="30" height="30" viewBox="0 0 30 30" fill="none" xmlns="http://www.w3.org/2000/svg">
<path d="M11.8687 4.875H6.2249C5.43272 4.875 4.79053 5.51719 4.79053 6.30938V11.9531C4.79053 12.7453 5.43272 13.3875 6.2249 13.3875H11.8687C12.6608 13.3875 13.303 12.7453 13.303 11.9531V6.30938C13.303 5.51719 12.6608 4.875 11.8687 4.875Z" stroke="#82868C" stroke-width="1.5" stroke-linecap="round" stroke-linejoin="round"/>
<path d="M23.7749 4.875H18.1312C17.339 4.875 16.6968 5.51719 16.6968 6.30938V11.9531C16.6968 12.7453 17.339 13.3875 18.1312 13.3875H23.7749C24.5671 13.3875 25.2093 12.7453 25.2093 11.9531V6.30938C25.2093 5.51719 24.5671 4.875 23.7749 4.875Z" stroke="#82868C" stroke-width="1.5" stroke-linecap="round" stroke-linejoin="round"/>
<path d="M11.8687 16.6125H6.2249C5.43272 16.6125 4.79053 17.2547 4.79053 18.0469V23.6906C4.79053 24.4828 5.43272 25.125 6.2249 25.125H11.8687C12.6608 25.125 13.303 24.4828 13.303 23.6906V18.0469C13.303 17.2547 12.6608 16.6125 11.8687 16.6125Z" stroke="#82868C" stroke-width="1.5" stroke-linecap="round" stroke-linejoin="round"/>
<path d="M23.7749 16.6125H18.1312C17.339 16.6125 16.6968 17.2547 16.6968 18.0469V23.6906C16.6968 24.4828 17.339 25.125 18.1312 25.125H23.7749C24.5671 25.125 25.2093 24.4828 25.2093 23.6906V18.0469C25.2093 17.2547 24.5671 16.6125 23.7749 16.6125Z" stroke="#82868C" stroke-width="1.5" stroke-linecap="round" stroke-linejoin="round"/>
</svg>
