<svg width="30" height="30" viewBox="0 0 30 30" fill="none" xmlns="http://www.w3.org/2000/svg">
<path d="M14.2224 5.85637V5.85667V18.7458L11.329 15.8525L11.3284 15.8519C11.0236 15.5537 10.5455 15.5385 10.2315 15.8523C9.92569 16.1565 9.92569 16.6515 10.2315 16.9557L14.4517 21.1704L14.4519 21.1706C14.7554 21.4723 15.2456 21.4723 15.5492 21.1706L15.5493 21.1704L19.7695 16.9557C20.0753 16.6516 20.0754 16.1567 19.7696 15.8525C19.4654 15.5468 18.9706 15.5468 18.6664 15.8526L15.7787 18.7403L15.7787 5.85667L15.7787 5.85637C15.777 5.42661 15.4272 5.07957 14.9975 5.08126C14.5701 5.08292 14.224 5.42898 14.2224 5.85637Z" fill="#82868C" stroke="#82868C" stroke-width="0.15"/>
<path d="M5.08125 16.7525V16.7522C5.08196 16.5468 5.16389 16.35 5.30917 16.2047C5.45444 16.0594 5.65126 15.9775 5.8567 15.9768L5.08125 16.7525ZM5.08125 16.7525V22.0314C5.08125 23.6189 6.38213 24.9198 7.96961 24.9198H22.0312C23.6187 24.9198 24.9196 23.6189 24.9196 22.0314V16.7525L24.9196 16.7522M5.08125 16.7525L24.9196 16.7522M24.9196 16.7522C24.9189 16.5468 24.8369 16.35 24.6916 16.2047M24.9196 16.7522L24.6916 16.2047M23.3629 16.7525V16.7522C23.3632 16.65 23.3837 16.5489 23.4232 16.4546C23.4626 16.3603 23.5203 16.2747 23.5928 16.2027C23.6654 16.1306 23.7514 16.0736 23.846 16.0349C23.9406 15.9961 24.0419 15.9764 24.1441 15.9768L23.3629 16.7525ZM23.3629 16.7525V22.0314C23.3629 22.7813 22.781 23.3631 22.0312 23.3631H7.96961C7.21976 23.3631 6.63793 22.7813 6.63793 22.0314L6.63793 16.7525L6.63793 16.7522M23.3629 16.7525L6.63793 16.7522M6.63793 16.7522C6.63758 16.65 6.61709 16.5489 6.57763 16.4546M6.63793 16.7522L6.57763 16.4546M24.6916 16.2047C24.5464 16.0594 24.3496 15.9775 24.1441 15.9768L24.6916 16.2047ZM6.57763 16.4546C6.53818 16.3603 6.48053 16.2747 6.40798 16.2027M6.57763 16.4546L6.40798 16.2027M6.40798 16.2027C6.33543 16.1306 6.2494 16.0736 6.15481 16.0349M6.40798 16.2027L6.15481 16.0349M6.15481 16.0349C6.06023 15.9961 5.95894 15.9764 5.85674 15.9768L6.15481 16.0349Z" fill="#82868C" stroke="#82868C" stroke-width="0.15"/>
</svg>
