<svg width="30" height="30" viewBox="0 0 30 30" fill="none" xmlns="http://www.w3.org/2000/svg">
<path d="M24.7308 15.0488C24.7324 15.0485 24.7339 15.0482 24.7354 15.0479L24.7502 15.1214C25.1157 14.9998 25.3596 14.8779 25.6032 14.7559C25.8471 14.6343 25.9691 14.2684 25.9691 14.0249C25.9691 13.7809 25.8471 13.537 25.7251 13.2934M24.7308 15.0488C25.0885 14.9295 25.3275 14.8101 25.5696 14.6888L25.5697 14.6888C25.67 14.6388 25.7518 14.5345 25.8091 14.4056C25.8659 14.2778 25.8941 14.1357 25.8941 14.0249C25.8941 13.8044 25.7845 13.5797 25.662 13.3348M24.7308 15.0488C24.1217 15.1711 23.521 15.2904 22.9222 15.2904H20.3628C20.163 15.2904 19.9906 15.3574 19.868 15.48C19.7453 15.6026 19.6783 15.775 19.6783 15.9748C19.6783 16.1746 19.7452 16.347 19.8678 16.4696C19.9904 16.5923 20.1628 16.6593 20.3628 16.6593H22.9222C23.2908 16.6593 23.659 16.6286 24.0236 16.5982L24.0252 16.598C24.3913 16.5675 24.7538 16.5373 25.1157 16.5373H25.1249L25.1338 16.5351C25.6346 16.4102 26.01 16.1596 26.374 15.9167L26.3762 15.9152L26.3763 15.9153L26.3796 15.9128C26.6538 15.7072 26.8763 15.4406 27.0296 15.1341C27.1828 14.8275 27.2626 14.4895 27.2626 14.1468C27.2626 13.5211 27.0137 12.8928 26.6332 12.511C25.8969 11.6531 24.681 10.9226 23.1116 10.433C23.1062 10.4129 23.098 10.3947 23.0871 10.3784C23.0849 10.3751 23.0826 10.3719 23.0803 10.3689M24.7308 15.0488L23.0803 10.3689M25.662 13.3348C25.6638 13.3371 25.6657 13.3393 25.6675 13.3415L25.7251 13.2934M25.662 13.3348C25.6607 13.3322 25.6594 13.3296 25.6581 13.327L25.7251 13.2934M25.662 13.3348C25.0682 12.6276 23.9972 12.1474 22.543 11.6621M25.7251 13.2934C25.1157 12.5624 24.0187 12.0749 22.5563 11.5874M22.5563 11.5874V11.6624C22.5518 11.6624 22.5473 11.6623 22.543 11.6621M22.5563 11.5874C22.4953 11.5874 22.4648 11.5569 22.4343 11.5265C22.4038 11.496 22.3733 11.4655 22.3123 11.4655C21.9468 11.2215 21.7033 10.856 21.5813 10.4905C21.5813 10.0026 21.8252 9.6371 22.1908 9.39356M22.5563 11.5874L22.5326 11.6586C22.536 11.6598 22.5395 11.6609 22.543 11.6621M22.543 11.6621C22.4593 11.6576 22.413 11.6112 22.3831 11.5813L22.3813 11.5795C22.3516 11.5498 22.3403 11.5405 22.3123 11.5405H22.2896L22.2707 11.5279C21.8893 11.2733 21.6366 10.8931 21.5102 10.5142L21.5063 10.5027V10.4905C21.5063 9.97887 21.761 9.59425 22.1373 9.33912M22.1373 9.33912C22.1346 9.34293 22.132 9.34674 22.1293 9.35055L22.1908 9.39356M22.1373 9.33912C22.1412 9.33644 22.1452 9.33379 22.1492 9.33114L22.1908 9.39356M22.1373 9.33912C22.9829 8.12825 23.4518 7.05676 23.3356 6.11473M22.1908 9.39356C23.0438 8.17464 23.5312 7.0781 23.4097 6.10273M23.4097 6.10273L23.3361 6.11746C23.3359 6.11655 23.3358 6.11564 23.3356 6.11473M23.4097 6.10273C23.2877 5.49367 23.0438 5.00619 22.5563 4.64027M23.4097 6.10273L23.3352 6.112C23.3354 6.11291 23.3355 6.11382 23.3356 6.11473M23.3356 6.11473C23.216 5.51979 22.9795 5.05205 22.5119 4.70078M22.5563 4.64027L22.5127 4.7013C22.5124 4.70112 22.5122 4.70095 22.5119 4.70078M22.5563 4.64027C21.7033 4.03081 20.4848 4.03081 19.7529 4.64027C19.2658 5.00619 19.0219 5.49367 18.8999 6.10273M22.5563 4.64027L22.5112 4.70025C22.5115 4.70043 22.5117 4.7006 22.5119 4.70078M22.5119 4.70078C21.6828 4.10889 20.5028 4.11336 19.8009 4.6979L19.798 4.70031L19.798 4.70024C19.3303 5.05157 19.0936 5.5195 18.974 6.11475M18.974 6.11475C18.9741 6.11383 18.9742 6.11292 18.9743 6.11201L18.8999 6.10273M18.974 6.11475C18.9738 6.11565 18.9736 6.11655 18.9735 6.11746L18.8999 6.10273M18.974 6.11475C18.8576 7.05799 19.3283 8.13194 20.1767 9.34535M18.8999 6.10273C18.7784 7.0777 19.2658 8.17464 20.1188 9.39356M20.1188 9.39356L20.1719 9.34052C20.1735 9.34213 20.1751 9.34374 20.1767 9.34535M20.1188 9.39356C20.3628 9.6375 20.2408 10.003 19.9969 10.2466L20.0499 10.2996C20.1797 10.17 20.2803 10.005 20.3144 9.83493C20.3485 9.66416 20.3152 9.48709 20.1767 9.34535M20.1188 9.39356L20.1803 9.35055C20.1791 9.34882 20.1779 9.34709 20.1767 9.34535M23.0803 10.3689C23.0901 10.3572 23.0986 10.3452 23.1061 10.334C23.1155 10.3199 23.124 10.3063 23.1323 10.2928C23.156 10.2546 23.1788 10.2179 23.2187 10.1781L23.2192 10.1787L23.2257 10.17C24.3303 8.6974 24.827 7.21651 24.7029 5.85239L24.703 5.85238L24.7024 5.84857C24.5771 4.97229 24.0767 4.22541 23.3357 3.60769L23.3357 3.60768L23.3346 3.60674C22.0895 2.61052 20.2239 2.60986 18.9776 3.60471C18.2288 4.10536 17.7322 4.97701 17.6074 5.84716L23.0803 10.3689ZM19.1439 10.125C17.925 8.66213 17.4375 7.19967 17.6814 5.85919C17.8034 5.00619 18.2909 4.15279 19.0219 3.6653C20.2408 2.69033 22.0692 2.69033 23.2877 3.6653C24.0187 4.27476 24.5062 5.00619 24.6282 5.85919L19.1439 10.125ZM7.73355 11.2819L7.73487 11.2807L7.74042 11.277C8.09407 11.0416 8.48817 10.7794 8.49412 10.2589C8.55906 10.0489 8.48528 9.84573 8.37744 9.66085C8.32205 9.56587 8.25532 9.47179 8.18854 9.38019C8.17491 9.36151 8.16131 9.34295 8.14778 9.3245C8.09424 9.25149 8.04187 9.18005 7.9941 9.10841L7.99412 9.1084L7.99314 9.107C7.14127 7.89027 6.66896 6.81412 6.78721 5.8689L6.78779 5.86897V5.85959C6.78779 5.40807 7.12937 4.94027 7.61008 4.57923C8.43707 3.98946 9.49825 3.98947 10.3248 4.57922C10.8023 4.93787 11.1471 5.40558 11.1471 5.98156H11.1464L11.1479 5.99217C11.2658 6.8169 10.913 8.01415 9.94755 9.222C9.80756 9.36404 9.77377 9.54187 9.8081 9.7134C9.84215 9.88353 9.94273 10.0486 10.0726 10.1784L10.0811 10.187L10.092 10.1924C10.3574 10.3254 10.7598 10.3283 11.0316 10.0564L11.0322 10.057L11.0386 10.0484C12.1431 8.57583 12.6399 7.09493 12.5157 5.73082L12.5158 5.73081L12.5153 5.727C12.39 4.85071 11.8895 4.10384 11.1486 3.48612L11.1486 3.48611L11.1474 3.48516C9.90195 2.48896 8.03675 2.48828 6.79045 3.48313C6.04142 3.98365 5.5449 4.855 5.42032 5.72496C5.17198 6.97098 5.79122 8.56892 7.00449 10.0316C7.01228 10.1038 7.04733 10.1684 7.0765 10.2121C7.09248 10.236 7.10836 10.2562 7.12085 10.2709C7.11998 10.2729 7.11911 10.2744 7.11841 10.2755C7.11576 10.2794 7.11169 10.283 7.10534 10.2862C7.0987 10.2895 7.09115 10.2916 7.08463 10.2926C7.08154 10.2932 7.07914 10.2934 7.0778 10.2935L7.07697 10.2935H7.06662L7.05584 10.2968C5.46615 10.7859 4.23433 11.4 3.36892 12.2654L3.36838 12.2649L3.36195 12.2735C2.99152 12.7675 2.7375 13.2707 2.7375 13.9029C2.7375 14.2216 2.83276 14.5683 2.98911 14.8811C3.14545 15.1939 3.36554 15.4781 3.62051 15.6693L3.62044 15.6694L3.62391 15.6717L3.62958 15.6755C3.99124 15.9165 4.36421 16.165 4.86129 16.2903C5.48084 16.537 6.22024 16.6593 7.0779 16.6593H9.60623L9.60663 16.6597H9.6377C9.83752 16.6597 10.0099 16.5927 10.1325 16.47C10.2551 16.3474 10.3222 16.175 10.3222 15.9752C10.3222 15.7754 10.2553 15.603 10.1327 15.4804C10.0101 15.3578 9.8377 15.2908 9.6377 15.2908H7.0783C6.47823 15.2908 5.88078 15.1708 5.40586 14.9332L5.40621 14.9325L5.39597 14.9291C5.04021 14.8107 4.80178 14.6919 4.56116 14.572L4.55248 14.5677C4.55248 14.5677 4.55248 14.5677 4.55247 14.5677C4.34306 14.4628 4.22839 14.2517 4.22839 13.9033C4.22839 13.6842 4.33698 13.4608 4.45895 13.2167C5.17564 12.5034 6.13189 12.0231 7.46135 11.4183C7.53812 11.4132 7.6073 11.376 7.65331 11.3453C7.67926 11.328 7.70071 11.3108 7.71572 11.2979C7.72327 11.2914 7.72929 11.2859 7.73355 11.2819Z" fill="#82868C" stroke="#82868C" stroke-width="0.15"/>
<path d="M17.2477 18.9119C17.2163 18.893 17.1875 18.8767 17.1641 18.8639C17.1688 18.8548 17.1746 18.8442 17.1819 18.8321C17.2234 18.763 17.3103 18.6461 17.4905 18.4659L17.491 18.4664L17.4975 18.4578C18.965 16.5007 19.7093 14.5311 19.4618 12.7967C19.3373 11.6764 18.7148 10.6847 17.7264 9.94283L17.7264 9.94281C16.9796 9.38291 15.9878 9.1054 14.9848 9.1054C13.9815 9.1054 12.9605 9.38296 12.154 9.94114L12.154 9.94109L12.1517 9.94283C11.1586 10.6882 10.6641 11.6807 10.4175 12.7899L10.4173 12.7898L10.4164 12.7956C10.1686 14.5317 10.9141 16.3807 12.503 18.458L12.5025 18.4584L12.5095 18.4654L12.8221 18.7783L12.5221 19.0783C10.3327 19.8095 8.73882 20.6666 7.75325 21.7754L7.75318 21.7753L7.75076 21.7784C7.25445 22.3984 7.00288 23.024 7.00288 23.7752C7.00288 24.6411 7.37255 25.5232 8.1304 25.9087C8.50651 26.2806 9.00295 26.5268 9.60858 26.7694C10.475 27.1403 11.4612 27.2626 12.5626 27.2626H17.5594C18.5407 27.2626 19.5218 27.1402 20.5025 26.8948L20.5027 26.8955L20.5122 26.8917C21.1216 26.6478 21.6203 26.4003 21.9969 26.025C22.625 25.5207 22.9972 24.6456 22.9972 23.7752C22.9972 23.0296 22.749 22.2785 22.2453 21.7738C21.2596 20.6656 19.6661 19.809 17.4775 19.0781C17.4107 19.0149 17.32 18.9552 17.2477 18.9119ZM13.1721 20.1188L13.2251 20.1719L13.2251 20.1718C13.2826 20.1143 13.3449 20.0552 13.4086 19.9948C13.5403 19.8698 13.6782 19.7391 13.7927 19.6037C13.9631 19.4023 14.0975 19.1744 14.1 18.9074C14.2255 18.2632 13.8346 17.8724 13.4765 17.5143L13.473 17.5108C12.2616 15.8129 11.6654 14.2492 11.7837 12.9368C11.9036 12.1009 12.2602 11.3925 12.9682 10.9196C13.5681 10.5602 14.2853 10.3218 15 10.3218C15.7134 10.3218 16.4292 10.5593 17.0284 10.9179C17.7437 11.5152 18.0973 12.1075 18.2163 12.9368C18.3347 14.2506 17.7376 15.936 16.528 17.5099C16.3438 17.6944 16.1579 17.9113 16.0174 18.1453C15.8762 18.3805 15.778 18.6377 15.778 18.8999C15.778 19.1699 15.9132 19.4002 16.0852 19.6036C16.2004 19.7396 16.339 19.871 16.4714 19.9965C16.5345 20.0563 16.5963 20.1148 16.6534 20.1719L16.6754 20.1938H16.7064C16.7342 20.1938 16.7452 20.203 16.7751 20.2329L16.7767 20.2345C16.8066 20.2644 16.8529 20.3107 16.9364 20.3154C19.0014 21.0449 20.4433 21.7703 21.2809 22.7276L21.2874 22.7351L21.2957 22.7406C21.6305 22.9638 21.7502 23.4191 21.7502 23.7752C21.7502 24.2408 21.5163 24.7033 21.1742 24.9313L21.1741 24.9313C20.8078 25.1758 20.4523 25.4124 19.9787 25.5304L19.9787 25.5302L19.9731 25.532C19.251 25.773 18.4058 25.8941 17.5594 25.8941H12.5626C11.7158 25.8941 10.871 25.773 10.1489 25.532L10.149 25.5318L10.1433 25.5304C9.66302 25.4107 9.19021 25.1716 8.95928 24.9407L8.95403 24.9354L8.94784 24.9313C8.60574 24.7033 8.3718 24.2408 8.3718 23.7752C8.3718 23.4262 8.48769 22.9592 8.60253 22.7225C9.56541 21.7626 10.8905 20.9199 12.9398 20.3155C13.0187 20.312 13.0903 20.2737 13.1374 20.2422C13.1634 20.2249 13.1849 20.2077 13.1999 20.1948C13.2075 20.1884 13.2135 20.1829 13.2177 20.1789L13.2228 20.1741L13.2243 20.1726L13.2248 20.1722L13.225 20.172L13.225 20.1719L13.2251 20.1719L13.1721 20.1188Z" fill="#82868C" stroke="#82868C" stroke-width="0.15"/>
</svg>
