<svg width="30" height="30" viewBox="0 0 30 30" fill="none" xmlns="http://www.w3.org/2000/svg">
<path d="M16.8762 24.5733H7.29937C7.06846 24.5733 6.84702 24.4816 6.68374 24.3183C6.52047 24.155 6.42874 23.9336 6.42874 23.7027V22.8321C6.43011 21.2833 6.89039 19.7697 7.75147 18.4825C8.61255 17.1952 9.8358 16.1919 11.2667 15.5994C12.6976 15.0069 14.272 14.8518 15.7911 15.1536C17.3101 15.4553 18.7057 16.2005 19.8015 17.2949C19.968 17.4376 20.1823 17.5121 20.4014 17.5036C20.6205 17.4952 20.8284 17.4043 20.9834 17.2493C21.1385 17.0942 21.2293 16.8864 21.2378 16.6672C21.2462 16.4481 21.1717 16.2339 21.0291 16.0673C20.096 15.1285 18.9784 14.3934 17.7468 13.9082C18.8116 13.1668 19.6119 12.1049 20.0314 10.8772C20.4509 9.64939 20.4676 8.31978 20.079 7.08187C19.6905 5.84396 18.917 4.76235 17.8712 3.99446C16.8254 3.22658 15.5618 2.81251 14.2643 2.81251C12.9669 2.81251 11.7033 3.22658 10.6575 3.99446C9.61165 4.76235 8.83819 5.84396 8.44966 7.08187C8.06113 8.31978 8.07781 9.64939 8.49727 10.8772C8.91674 12.1049 9.7171 13.1668 10.7819 13.9082C8.98577 14.6093 7.44314 15.8362 6.35578 17.4285C5.26842 19.0207 4.68697 20.904 4.6875 22.8321V23.7027C4.6875 24.3954 4.96268 25.0597 5.4525 25.5496C5.94232 26.0394 6.60666 26.3146 7.29937 26.3146H16.8762C17.1071 26.3146 17.3286 26.2228 17.4918 26.0596C17.6551 25.8963 17.7468 25.6748 17.7468 25.4439C17.7468 25.213 17.6551 24.9916 17.4918 24.8283C17.3286 24.665 17.1071 24.5733 16.8762 24.5733ZM9.91123 8.90213C9.91123 8.04116 10.1665 7.19953 10.6449 6.48367C11.1232 5.7678 11.8031 5.20985 12.5985 4.88038C13.3939 4.5509 14.2692 4.4647 15.1136 4.63266C15.958 4.80063 16.7337 5.21522 17.3425 5.82401C17.9512 6.43281 18.3658 7.20846 18.5338 8.05288C18.7018 8.8973 18.6156 9.77256 18.2861 10.568C17.9566 11.3634 17.3987 12.0433 16.6828 12.5216C15.9669 12.9999 15.1253 13.2552 14.2643 13.2552C13.1098 13.2552 12.0026 12.7966 11.1862 11.9802C10.3699 11.1639 9.91123 10.0566 9.91123 8.90213Z" fill="#82868C"/>
<path d="M24.8424 19.5237C24.6016 19.2241 24.302 18.9769 23.9622 18.7972C23.6223 18.6176 23.2493 18.5093 22.8661 18.479C22.2912 18.4412 21.7188 18.5843 21.2293 18.8882C20.7408 18.5821 20.1677 18.4388 19.5926 18.479C19.21 18.5082 18.8374 18.6151 18.4976 18.7933C18.1578 18.9714 17.8579 19.217 17.6163 19.515C17.1199 20.1539 16.8615 20.9456 16.8853 21.7542C16.9091 22.5629 17.2138 23.338 17.7469 23.9465L20.1933 26.7063C20.3233 26.8573 20.4843 26.9784 20.6653 27.0615C20.8464 27.1445 21.0432 27.1875 21.2424 27.1875C21.4416 27.1875 21.6384 27.1445 21.8195 27.0615C22.0005 26.9784 22.1615 26.8573 22.2915 26.7063L24.7118 23.9465C25.2427 23.3386 25.546 22.5652 25.5698 21.7585C25.5936 20.9518 25.3365 20.1619 24.8424 19.5237ZM23.4233 22.8321L21.2293 25.2611L19.0354 22.8321C18.7798 22.5346 18.6322 22.1595 18.6164 21.7677C18.6006 21.3758 18.7175 20.9901 18.9483 20.6729C19.0396 20.5556 19.1539 20.458 19.2841 20.3862C19.4143 20.3143 19.5578 20.2697 19.7058 20.255H19.7754C20.0352 20.2608 20.2835 20.3633 20.4719 20.5423C20.6783 20.7289 20.9467 20.8323 21.225 20.8323C21.5033 20.8323 21.7716 20.7289 21.9781 20.5423C22.0797 20.4457 22.2002 20.371 22.3321 20.3231C22.4639 20.2751 22.6042 20.2549 22.7442 20.2637C22.8922 20.2784 23.0357 20.323 23.1659 20.3949C23.2961 20.4667 23.4103 20.5643 23.5017 20.6816C23.7314 20.997 23.8486 21.3805 23.8344 21.7704C23.8202 22.1604 23.6754 22.5343 23.4233 22.8321Z" fill="#82868C"/>
</svg>
