<svg width="30" height="30" viewBox="0 0 30 30" fill="none" xmlns="http://www.w3.org/2000/svg">
<path d="M25.0544 24.3414H4.99252C3.82437 24.3414 2.85938 23.3764 2.85938 22.2082V7.88557C2.85938 6.71741 3.82437 5.75241 4.99252 5.75241H25.0544C26.2225 5.75241 27.1875 6.71741 27.1875 7.88557V22.2082C27.1875 23.3764 26.2225 24.3414 25.0544 24.3414ZM4.94175 7.12372C4.53543 7.12372 4.23068 7.42846 4.23068 7.83477V22.1574C4.23068 22.5637 4.53543 22.8685 4.94175 22.8685H25.0036C25.4099 22.8685 25.7146 22.5637 25.7146 22.1574V7.83477C25.7146 7.42846 25.4099 7.12372 25.0036 7.12372H4.94175Z" fill="#82868C"/>
<path d="M18.6042 14.2343C17.0297 14.2343 15.8108 12.9645 15.8108 11.4408C15.8108 9.91715 17.0805 8.64742 18.6042 8.64742C20.1279 8.64742 21.3976 9.91715 21.3976 11.4408C21.3976 12.9645 20.1279 14.2343 18.6042 14.2343ZM18.6042 9.91715C17.7916 9.91715 17.1313 10.5774 17.1313 11.39C17.1313 12.2027 17.7916 12.8629 18.6042 12.8629C19.4168 12.8629 20.0771 12.2027 20.0771 11.39C20.0771 10.5774 19.4168 9.91715 18.6042 9.91715Z" fill="#82868C"/>
<path d="M22.4133 24.0874L10.6809 13.0661L3.9767 19.2624L3.0625 18.2974L10.6809 11.2377L23.3275 23.1224L22.4133 24.0874Z" fill="#82868C"/>
<path d="M26.0701 20.4306L22.1594 17.2816L18.9088 19.9735L18.0454 18.9069L22.1594 15.5548L26.8828 19.4148L26.0701 20.4306Z" fill="#82868C"/>
</svg>
