<svg width="30" height="30" viewBox="0 0 30 30" fill="none" xmlns="http://www.w3.org/2000/svg">
<path d="M19.9375 25.7812H9.71094C8.16108 25.7812 6.6747 25.1656 5.57878 24.0697C4.48287 22.9737 3.86719 21.4874 3.86719 19.9375V9.71094C3.86719 8.16108 4.48287 6.6747 5.57878 5.57878C6.6747 4.48287 8.16108 3.86719 9.71094 3.86719H19.9375C21.4874 3.86719 22.9737 4.48287 24.0697 5.57878C25.1656 6.6747 25.7812 8.16108 25.7812 9.71094V19.9375C25.7812 21.4874 25.1656 22.9737 24.0697 24.0697C22.9737 25.1656 21.4874 25.7812 19.9375 25.7812Z" stroke="#82868C" stroke-width="1.65" stroke-miterlimit="10"/>
<path d="M14.8242 19.9375C17.6482 19.9375 19.9375 17.6482 19.9375 14.8242C19.9375 12.0002 17.6482 9.71094 14.8242 9.71094C12.0002 9.71094 9.71094 12.0002 9.71094 14.8242C9.71094 17.6482 12.0002 19.9375 14.8242 19.9375Z" stroke="#82868C" stroke-width="1.65" stroke-miterlimit="10"/>
<path d="M21.3984 8.98047C21.8019 8.98047 22.1289 8.65343 22.1289 8.25C22.1289 7.84657 21.8019 7.51953 21.3984 7.51953C20.995 7.51953 20.668 7.84657 20.668 8.25C20.668 8.65343 20.995 8.98047 21.3984 8.98047Z" stroke="#82868C" stroke-width="1.65" stroke-miterlimit="10"/>
</svg>
