<svg width="30" height="30" viewBox="0 0 30 30" fill="none" xmlns="http://www.w3.org/2000/svg">
<path d="M23.2982 21.0689L23.2982 21.0689C23.0393 21.1491 22.7227 21.189 22.4226 21.0819C22.0893 20.9628 21.8603 20.6924 21.7698 20.329C21.6864 19.9941 21.7205 19.59 21.8416 19.1307C21.9647 18.6636 22.1897 18.0956 22.5367 17.4099L22.5367 17.4099C23.1673 16.1639 23.2969 15.0207 23.183 14.1207C23.0668 13.2015 22.7044 12.576 22.4053 12.3203C22.103 12.0622 21.4506 11.841 20.6567 11.7809C19.8757 11.7218 19.0923 11.8295 18.5709 12.0968L18.5708 12.0968C17.9808 12.3992 17.4839 12.7673 17.133 13.0621C16.9583 13.2089 16.8216 13.3359 16.7298 13.4251C16.6839 13.4696 16.6493 13.5046 16.6269 13.5277L16.6024 13.5531L16.5973 13.5586L16.5969 13.559L16.5968 13.5591L16.5967 13.5592L16.5966 13.5594L16.5965 13.5595L15.3646 14.8958L15.7401 13.1168L16.0179 11.8004L12.0444 11.8582L11.6026 13.2425H13.1115H13.8409L13.5779 13.9228L13.1115 13.7425L13.5779 13.9229L13.5778 13.923L13.5775 13.9238L13.5764 13.9267L13.572 13.938L13.555 13.9819L13.4903 14.1487C13.4345 14.2924 13.3546 14.4978 13.2583 14.7446C13.0656 15.2381 12.8068 15.8977 12.5426 16.5613C12.2787 17.2243 12.0083 17.8938 11.7929 18.4063C11.6855 18.6619 11.5899 18.8828 11.5147 19.0456C11.4775 19.1261 11.4423 19.1989 11.4114 19.2567C11.3962 19.285 11.3781 19.3173 11.358 19.348C11.3578 19.3484 11.3574 19.349 11.3569 19.3497C11.3474 19.3647 11.296 19.4451 11.2094 19.5072L23.2982 21.0689ZM23.2982 21.0689C23.6013 20.9749 23.8622 20.7858 24.0709 20.5926C24.2834 20.3958 24.4694 20.1688 24.62 19.9614C24.7388 19.7979 24.84 19.6405 24.919 19.5099L25.2793 19.5991M23.2982 21.0689L25.2793 19.5991M25.2793 19.5991C25.263 19.628 25.2459 19.6579 25.228 19.6887C25.0064 20.069 24.6559 20.5826 24.1447 21.1063C23.5151 21.7432 22.6277 21.9679 21.7796 21.8828C20.9128 21.7958 20.2028 21.3994 19.9046 20.9436C19.6157 20.5023 19.6022 19.751 19.7842 18.8721C19.959 18.0282 20.283 17.2102 20.486 16.7593L25.2793 19.5991ZM8.83695 20.8191L8.69772 20.3389L20.486 16.7593C20.6932 16.2989 20.9516 15.7017 20.9999 15.108C21.0248 14.8015 20.9962 14.4769 20.8649 14.162C20.732 13.8434 20.5062 13.5641 20.1825 13.3346L19.8933 13.7425L20.1825 13.3346C19.4463 12.8126 18.4568 12.9978 17.6947 13.3586C16.9078 13.7311 16.1477 14.3843 15.7805 15.1324C15.4541 15.7973 14.8729 17.567 14.3864 19.1179C14.1396 19.9046 13.912 20.652 13.7462 21.2025C13.6813 21.418 13.6258 21.6035 13.5824 21.7494H11.3615L11.5767 20.6909L11.9553 18.8289L10.71 20.2625L10.7099 20.2626L10.7097 20.2629L10.7095 20.2631L10.7093 20.2634L10.7082 20.2646L10.6971 20.2768C10.6865 20.2884 10.6694 20.3068 10.6461 20.3309C10.5995 20.3791 10.5283 20.4499 10.4348 20.5347C10.2471 20.705 9.97282 20.9288 9.62949 21.1408C8.93872 21.5675 8.00574 21.9247 6.94437 21.7556L6.9443 21.7556C5.80678 21.5746 5.29354 21.1883 5.05811 20.8638C4.81974 20.5353 4.80088 20.1804 4.83323 19.9359L4.83326 19.9357C4.84923 19.8145 4.95348 19.3904 5.1202 18.7687C5.28148 18.1672 5.48897 17.4241 5.69432 16.6995C5.89956 15.9752 6.10219 15.2709 6.25355 14.7477C6.32921 14.4861 6.39204 14.2698 6.43595 14.1189L6.48684 13.9442L6.50021 13.8984L6.50363 13.8867L6.50448 13.8838L6.5047 13.883L6.50475 13.8828L6.02486 13.7425L6.50477 13.8828L6.69196 13.2425H6.02486H4.58979L4.90764 11.7914H9.41101L9.2722 12.2755C9.07711 12.9559 8.81347 13.875 8.53929 14.8302C7.99066 16.7415 7.40056 18.7945 7.23226 19.3696L7.71213 19.51L7.23226 19.3696C7.13941 19.6869 7.09539 19.9859 7.14741 20.2483C7.20722 20.5499 7.39108 20.7783 7.66315 20.8874C7.89182 20.9792 8.13315 20.966 8.30818 20.9414C8.49347 20.9154 8.68174 20.8641 8.83669 20.8192C8.83677 20.8192 8.83686 20.8192 8.83695 20.8191Z" stroke="#82868C"/>
<path d="M9.62213 8.42175C9.62213 8.86923 9.18281 9.3435 8.49368 9.3435C7.80456 9.3435 7.36523 8.86923 7.36523 8.42175C7.36523 7.97427 7.80456 7.5 8.49368 7.5C9.18281 7.5 9.62213 7.97427 9.62213 8.42175Z" stroke="#82868C"/>
</svg>
