<svg width="30" height="30" viewBox="0 0 30 30" fill="none" xmlns="http://www.w3.org/2000/svg">
<path d="M14.942 26.9488L15 27.0197L15.0581 26.9488L15.509 26.3976C15.5092 26.3974 15.5094 26.3972 15.5096 26.3969C15.6656 26.2148 17.6617 23.8663 19.6204 20.8906C20.601 19.4009 21.5732 17.7524 22.3006 16.1388C23.0273 14.5265 23.5125 12.9424 23.5125 11.5831C23.5125 6.92118 19.662 3.07061 15 3.07061C10.3383 3.07061 6.4875 6.87066 6.4875 11.5831C6.4875 12.9424 6.9728 14.5234 7.69951 16.1318C8.42684 17.7415 9.39907 19.3852 10.3796 20.8718C12.0589 23.4177 13.7687 25.5108 14.3163 26.1813C14.4079 26.2934 14.467 26.3658 14.488 26.3938L14.488 26.3938L14.49 26.3963L14.942 26.9488ZM7.84286 11.5329C7.84286 7.60636 11.0239 4.37576 15 4.37576C18.9761 4.37576 22.1572 7.60636 22.1572 11.5329C22.1572 12.5856 21.813 13.821 21.2661 15.1183C20.7196 16.4145 19.9732 17.7669 19.1739 19.0519C17.6121 21.5631 15.8523 23.8116 15 24.8731C14.1478 23.8112 12.388 21.5505 10.8262 19.0332C10.0269 17.7449 9.2804 16.391 8.73391 15.0971C8.18693 13.802 7.84286 12.5729 7.84286 11.5329Z" fill="#82868C" stroke="#82868C" stroke-width="0.15"/>
<path d="M11.7106 11.5831C11.7106 13.3824 13.2007 14.8724 14.9999 14.8724C16.7992 14.8724 18.2892 13.3824 18.2892 11.5831C18.2892 9.7839 16.7992 8.29384 14.9999 8.29384C13.2007 8.29384 11.7106 9.7839 11.7106 11.5831ZM13.066 11.5831C13.066 10.5196 13.9364 9.64921 14.9999 9.64921C16.0634 9.64921 16.9339 10.5196 16.9339 11.5831C16.9339 12.6466 16.0634 13.5171 14.9999 13.5171C13.9364 13.5171 13.066 12.6466 13.066 11.5831Z" fill="#82868C" stroke="#82868C" stroke-width="0.15"/>
</svg>
