<svg width="30" height="30" viewBox="0 0 30 30" fill="none" xmlns="http://www.w3.org/2000/svg">
<path d="M26.25 22.9219C21.9844 22.9219 21.4219 18.9375 20.8594 15.0938C20.25 10.9219 19.6875 7.03125 15 7.03125C10.3125 7.03125 9.75 10.9688 9.14062 15.0938C8.57812 18.9375 8.01562 22.9219 3.75 22.9219V21.7031C6.75 21.7031 7.3125 19.1719 7.92187 14.9531C8.48437 10.875 9.23438 5.8125 15 5.8125C20.7656 5.8125 21.5156 10.875 22.0781 14.9531C22.6875 19.1719 23.25 21.7031 26.25 21.7031V22.9219Z" fill="#82868C"/>
<path d="M15 25.5469C13.2187 25.5469 11.7188 24.0938 11.7188 22.2656H12.9375C12.9375 23.3906 13.8281 24.2812 14.9531 24.2812C16.0781 24.2812 16.9687 23.3906 16.9687 22.2656H18.1875C18.2812 24.0938 16.7812 25.5469 15 25.5469Z" fill="#82868C"/>
<path d="M3.75 21.6562H26.25V22.9687H3.75V21.6562Z" fill="#82868C"/>
<path d="M16.3125 5.76562C16.3125 6.51562 15.7031 6.75 15 6.75C14.2969 6.75 13.6875 6.46874 13.6875 5.76562C13.6875 5.06249 14.2969 4.45312 15 4.45312C15.7031 4.45312 16.3125 5.01562 16.3125 5.76562Z" fill="#82868C"/>
</svg>
