<svg width="30" height="30" viewBox="0 0 30 30" fill="none" xmlns="http://www.w3.org/2000/svg">
<path d="M16.3391 13.1512C16.1692 13.0002 15.9662 12.8914 15.7464 12.8336C15.4902 12.7728 15.2274 12.7444 14.9642 12.7491H13.7955C13.7203 12.7351 13.6428 12.7396 13.5697 12.7622C13.4966 12.7848 13.4302 12.825 13.3761 12.8791C13.322 12.9332 13.2819 12.9997 13.2593 13.0728C13.2367 13.1458 13.2322 13.2233 13.2463 13.2985V16.5459C13.2432 16.6633 13.256 16.7805 13.2843 16.8944C13.296 16.938 13.3163 16.9789 13.3439 17.0146C13.3715 17.0503 13.406 17.0803 13.4452 17.1026C13.5597 17.1589 13.6868 17.1844 13.8141 17.1768H14.9828C15.1662 17.178 15.3495 17.1649 15.5309 17.1375C15.688 17.1132 15.8409 17.0674 15.9855 17.0015C16.1277 16.9368 16.259 16.8506 16.375 16.7461C16.5241 16.6098 16.6498 16.45 16.7471 16.2731C16.847 16.0865 16.919 15.8863 16.9611 15.6789C17.0093 15.4394 17.0325 15.1956 17.0303 14.9513C17.0306 14.1467 16.8002 13.5466 16.3391 13.1512ZM15.6712 16.2573C15.602 16.3168 15.5223 16.363 15.4361 16.3933C15.3513 16.4238 15.2631 16.4439 15.1734 16.4531C15.0889 16.4614 14.9722 16.4654 14.8229 16.4654H14.1427V13.4602H14.7354C14.972 13.4556 15.2081 13.4855 15.4361 13.549C15.6449 13.6215 15.8189 13.7697 15.9237 13.9644C16.0749 14.2686 16.1431 14.6074 16.1216 14.9465C16.1216 15.5669 15.9715 16.0038 15.6712 16.2573Z" fill="#82868C"/>
<path d="M24.3161 7.56267L24.3136 7.55739L24.3108 7.55211L24.3081 7.54683L24.3018 7.53576L24.2988 7.53074L24.2887 7.51439L24.2854 7.50961L24.2822 7.50509L24.2792 7.50056L24.2761 7.49629L24.2731 7.49201L24.2701 7.48799V7.48648L24.2658 7.4812L24.2631 7.47768L24.2616 7.47592L24.2588 7.4724L24.257 7.47064L24.2545 7.46737L24.245 7.45681L24.2424 7.45379L24.2404 7.45153L24.2382 7.44877L24.2359 7.4465L24.2336 7.44399L24.2311 7.44147L24.2291 7.43921L24.2264 7.43645L24.2246 7.43443L24.2216 7.43142L24.2168 7.42639L24.2108 7.42035L19.5322 2.74154C19.5206 2.72947 19.5083 2.71816 19.4955 2.70709L19.4935 2.70533C19.4872 2.70005 19.4809 2.69477 19.4744 2.68974H19.4729L19.4676 2.68572L19.4633 2.6827L19.4568 2.67792L19.4522 2.67491L19.4467 2.67114L19.4419 2.66787C19.4349 2.66284 19.4274 2.65856 19.4201 2.65429L19.409 2.648L19.4002 2.64172L19.3949 2.63895C19.3174 2.59828 19.231 2.57713 19.1435 2.57735H7.34762C6.90757 2.57786 6.48453 2.74735 6.16585 3.05081C6.15378 3.06112 6.14071 3.07168 6.13065 3.08325C5.97041 3.24283 5.84325 3.43248 5.75648 3.64132C5.66971 3.85016 5.62503 4.07407 5.625 4.30022V25.7011C5.62546 26.156 5.80631 26.5921 6.12788 26.9138L6.13015 26.9158C6.28947 27.0759 6.47879 27.2029 6.68727 27.2896C6.89575 27.3764 7.11929 27.4212 7.34511 27.4215H22.6523C23.1089 27.4205 23.5465 27.2387 23.8693 26.9158C24.1921 26.593 24.374 26.1554 24.375 25.6989V7.80883C24.3751 7.72379 24.355 7.63994 24.3164 7.56418L24.3161 7.56267ZM19.6846 4.42318L22.5289 7.26748H20.4449C20.3453 7.2677 20.2466 7.24824 20.1546 7.21023C20.0625 7.17221 19.9788 7.11639 19.9084 7.04596L19.9061 7.04369C19.8357 6.97324 19.7798 6.88958 19.7418 6.7975C19.7038 6.70542 19.6844 6.60674 19.6846 6.50712V4.42318ZM23.2935 25.7006C23.2927 25.8704 23.2249 26.033 23.1048 26.1531C22.9848 26.2732 22.8221 26.341 22.6523 26.3418H7.34762C7.26361 26.342 7.18038 26.3257 7.10271 26.2937C7.02504 26.2617 6.95446 26.2146 6.89503 26.1552L6.89277 26.1532C6.83339 26.0938 6.78634 26.0232 6.75432 25.9455C6.7223 25.8679 6.70595 25.7846 6.7062 25.7006V4.29947C6.70629 4.21533 6.723 4.13204 6.75536 4.05437C6.78772 3.9767 6.8351 3.90619 6.89478 3.84687C6.90182 3.83983 6.90861 3.83254 6.9154 3.82525C7.03331 3.71749 7.18738 3.6579 7.34712 3.65829H18.6029V6.50712C18.6031 6.74861 18.651 6.98767 18.7438 7.21061C18.8367 7.43355 18.9725 7.63598 19.1437 7.80632C19.4878 8.15124 19.9547 8.34542 20.4419 8.34616H23.2935V25.7006Z" fill="#82868C"/>
<path d="M12.0888 13.078C11.9534 12.9593 11.7927 12.8733 11.6188 12.8266C11.3616 12.7662 11.0976 12.7399 10.8336 12.7484H9.68324C9.52864 12.7345 9.37451 12.7794 9.25151 12.8741C9.20109 12.9315 9.163 12.9986 9.1396 13.0713C9.1162 13.144 9.10799 13.2208 9.11548 13.2968V16.7098C9.10544 16.8546 9.14952 16.998 9.23919 17.1121C9.28106 17.1557 9.33132 17.1902 9.38693 17.2138C9.44253 17.2374 9.50233 17.2494 9.56272 17.2492C9.62311 17.249 9.68284 17.2366 9.7383 17.2127C9.79375 17.1888 9.84379 17.1539 9.88539 17.1101C9.97708 16.9951 10.022 16.8497 10.0111 16.703V15.4526H10.8326C11.2745 15.4848 11.7137 15.3616 12.0744 15.1044C12.2171 14.9763 12.3288 14.8174 12.4009 14.6397C12.4731 14.4621 12.5038 14.2703 12.4908 14.079C12.494 13.8838 12.459 13.6898 12.3877 13.508C12.3231 13.3433 12.2207 13.196 12.0888 13.078ZM11.4715 14.4931C11.3895 14.5986 11.2756 14.6749 11.1469 14.7106C10.9743 14.7592 10.7954 14.7818 10.6161 14.7778H10.0126V13.4233H10.6161C11.017 13.4233 11.282 13.4889 11.4109 13.6201C11.5285 13.7508 11.5902 13.9223 11.5829 14.0979C11.5893 14.2381 11.5503 14.3767 11.4715 14.4929V14.4931ZM18.0356 12.8047C17.956 12.8402 17.8921 12.9036 17.8561 12.983C17.8142 13.0827 17.7945 13.1904 17.7982 13.2985V16.7048C17.787 16.8525 17.8319 16.9989 17.924 17.1149C17.9659 17.1578 18.0161 17.192 18.0714 17.2154C18.1267 17.2387 18.1861 17.2509 18.2461 17.2511C18.3062 17.2513 18.3657 17.2395 18.4211 17.2165C18.4766 17.1934 18.5269 17.1596 18.5692 17.1169C18.6618 17.0004 18.7067 16.8531 18.6949 16.7048V15.2465H20.1721C20.2814 15.2544 20.3899 15.2221 20.4771 15.1557C20.5111 15.1248 20.5379 15.0868 20.5555 15.0444C20.5732 15.002 20.5813 14.9562 20.5792 14.9103C20.5811 14.8644 20.573 14.8187 20.5557 14.7762C20.5383 14.7338 20.512 14.6955 20.4786 14.6641C20.3913 14.5967 20.2821 14.564 20.1721 14.5726H18.6961V13.4411H20.4625C20.5768 13.4502 20.6904 13.4164 20.7811 13.3463C20.8156 13.314 20.8428 13.2746 20.8607 13.2309C20.8787 13.1872 20.887 13.1401 20.8852 13.0929C20.8867 13.0463 20.8782 12.9999 20.8603 12.9568C20.8423 12.9138 20.8153 12.8751 20.7811 12.8434C20.6904 12.7734 20.5768 12.7396 20.4625 12.7486H18.3479C18.241 12.745 18.1345 12.7641 18.0356 12.8047Z" fill="#82868C"/>
</svg>
