<svg width="30" height="30" viewBox="0 0 30 30" fill="none" xmlns="http://www.w3.org/2000/svg">
<path d="M10.3046 2.94933L10.3047 2.94945L23.3667 18.4495C23.367 18.4498 23.3672 18.45 23.3674 18.4503C23.4756 18.5724 23.5225 18.73 23.5107 18.8906L23.5106 18.8919C23.481 19.2222 23.1958 19.4704 22.8668 19.4462L22.8661 19.4462L16.7327 18.9424L18.6751 25.6346L18.6753 25.6353C18.7644 25.954 18.5864 26.2859 18.2701 26.3826L18.2696 26.3828L15.3991 27.239L15.3984 27.2392C15.0815 27.33 14.7537 27.1479 14.6587 26.8291L14.6585 26.8286L12.6746 19.9843L7.44358 24.0184C7.44358 24.0184 7.44357 24.0184 7.44357 24.0184C7.31806 24.1152 7.15657 24.1578 7.00022 24.1335M10.3046 2.94933L7.01156 24.0594M10.3046 2.94933C10.09 2.69573 9.71335 2.66512 9.46232 2.88301L9.51149 2.93965L9.46282 2.88258C9.34968 2.97907 9.27776 3.11215 9.25967 3.25762L9.25973 3.25715L9.33404 3.26733L9.2596 3.25814L6.4937 23.4515M10.3046 2.94933L6.4937 23.4515M7.00022 24.1335C7.00015 24.1335 7.00008 24.1335 7.00001 24.1335L7.01156 24.0594M7.00022 24.1335C7.00029 24.1335 7.00036 24.1336 7.00043 24.1336L7.01156 24.0594M7.00022 24.1335C6.67844 24.0851 6.44611 23.7837 6.49367 23.4517L6.49363 23.452L6.56794 23.4622M7.01156 24.0594C6.72973 24.0171 6.52619 23.7529 6.56794 23.4622M6.56794 23.4622L6.4937 23.4515M6.56794 23.4622L6.4937 23.4515M15.9625 17.6582L15.9631 17.6582L21.5297 18.1139L10.2622 4.75006L7.87273 22.16L12.6435 18.4827C12.6436 18.4826 12.6437 18.4826 12.6438 18.4825C12.6969 18.4406 12.7632 18.4036 12.8374 18.3846C12.8377 18.3845 12.8381 18.3844 12.8385 18.3844L12.8569 18.4571C13.1335 18.3778 13.4206 18.5363 13.5041 18.8165L15.9625 17.6582ZM15.9625 17.6582C15.6335 17.634 15.3483 17.8822 15.3187 18.2125L15.3186 18.2131C15.3127 18.2844 15.3184 18.3577 15.3426 18.4316L17.3621 25.3882L15.6375 25.9004L15.9625 17.6582ZM12.6522 19.9069L12.716 19.8576L12.7384 19.9351L12.6522 19.9069Z" fill="#82868C" stroke="#82868C" stroke-width="0.15"/>
</svg>
