<svg width="30" height="30" viewBox="0 0 30 30" fill="none" xmlns="http://www.w3.org/2000/svg">
<path d="M6.24787 22.224H7.51629V26.3322V26.4072H7.59129H22.4154H22.4904V26.3322V22.224H23.7588C24.7448 22.224 25.5721 21.5303 25.7753 20.6079H26.5986C27.7374 20.6079 28.6688 19.6765 28.6688 18.5377V13.8158C28.6688 12.6705 27.7376 11.739 26.5986 11.739H25.8224V10.823C25.8224 9.68427 24.891 8.75286 23.7522 8.75286H22.4838V3.67366V3.59866H22.4088H7.59129H7.51629V3.67366V8.75951H6.24787C5.10911 8.75951 4.1777 9.69092 4.1777 10.8297V11.7456H3.40142C2.26266 11.7456 1.33125 12.677 1.33125 13.8158V18.5377C1.33125 19.6765 2.26266 20.6079 3.40142 20.6079H4.2318C4.44122 21.5299 5.26801 22.224 6.24787 22.224ZM23.7588 20.8769H22.4904V19.4688V19.3938H22.4154H7.59129H7.51629V19.4688V20.8769H6.24787C5.85036 20.8769 5.5248 20.5513 5.5248 20.1538V19.9875C5.5248 19.7573 5.40705 19.5494 5.22947 19.4291C5.11157 19.3273 4.95633 19.2608 4.7914 19.2608H3.40142C3.00391 19.2608 2.67835 18.9352 2.67835 18.5377V13.8158C2.67835 13.4183 3.00391 13.0927 3.40142 13.0927H26.5986C26.9962 13.0927 27.3217 13.4183 27.3217 13.8158V18.5377C27.3217 18.9352 26.9962 19.2608 26.5986 19.2608H25.2752C25.219 19.2608 25.1617 19.2674 25.1095 19.2814C24.7627 19.3076 24.4819 19.59 24.4819 19.9543V20.1538C24.4819 20.5513 24.1564 20.8769 23.7588 20.8769ZM23.7522 10.1C24.1497 10.1 24.4753 10.4255 24.4753 10.823V11.739H22.4838V10.1H23.7522ZM21.5357 4.54673V11.7456H8.46436V4.54673H21.5357ZM5.5248 10.823C5.5248 10.4255 5.85036 10.1 6.24787 10.1H7.51629V11.739H5.5248V10.823ZM21.5424 25.4525H8.46436V20.3352H21.5424V25.4525Z" fill="#82868C" stroke="#82868C" stroke-width="0.15"/>
<path d="M24.7297 15.6181C25.0162 15.6181 25.2484 15.3859 25.2484 15.0994C25.2484 14.8129 25.0162 14.5806 24.7297 14.5806C24.4432 14.5806 24.2109 14.8129 24.2109 15.0994C24.2109 15.3859 24.4432 15.6181 24.7297 15.6181Z" fill="#82868C"/>
<path d="M22.7346 15.6181C23.0211 15.6181 23.2533 15.3859 23.2533 15.0994C23.2533 14.8129 23.0211 14.5806 22.7346 14.5806C22.4481 14.5806 22.2158 14.8129 22.2158 15.0994C22.2158 15.3859 22.4481 15.6181 22.7346 15.6181Z" fill="#82868C"/>
<path d="M10.2316 22.1889H19.7685C19.9879 22.1889 20.1675 22.0093 20.1675 21.7898C20.1675 21.5704 19.9879 21.3908 19.7685 21.3908H10.2316C10.0121 21.3908 9.83252 21.5704 9.83252 21.7898C9.83252 22.0093 10.0121 22.1889 10.2316 22.1889ZM10.2316 24.0111H19.7685C19.9879 24.0111 20.1675 23.8316 20.1675 23.6121C20.1675 23.3926 19.9879 23.2131 19.7685 23.2131H10.2316C10.0121 23.2131 9.83252 23.3926 9.83252 23.6121C9.83252 23.8316 10.0121 24.0111 10.2316 24.0111Z" fill="#82868C"/>
</svg>
