<svg width="30" height="30" viewBox="0 0 30 30" fill="none" xmlns="http://www.w3.org/2000/svg">
<path d="M21.8787 11.9235L21.4993 12.4104C21.8769 12.7647 22.3032 12.9683 22.7779 13.0204V13.4292H23.1105V13.0259C23.4639 13.0073 23.7482 12.8953 23.9627 12.6896C24.1778 12.4845 24.2851 12.2183 24.2851 11.892C24.2851 11.5653 24.1917 11.3161 24.0045 11.1444C23.8174 10.9728 23.5248 10.8367 23.1263 10.7356H23.1105V9.68284C23.3789 9.72478 23.6339 9.83621 23.8536 10.0076L24.1917 9.4922C23.8522 9.24201 23.4918 9.1019 23.1105 9.07188V8.78617H22.7779V9.06638C22.4416 9.08489 22.169 9.19698 21.9591 9.40213C21.7496 9.60779 21.6446 9.87148 21.6446 10.1947C21.6446 10.518 21.7357 10.7612 21.9177 10.9253C22.0998 11.0894 22.3864 11.222 22.7779 11.3231V12.4094C22.4695 12.3584 22.1699 12.1962 21.8787 11.9235ZM23.1105 11.4197C23.3185 11.4867 23.4607 11.5588 23.5364 11.6353C23.6125 11.7119 23.6506 11.8154 23.6506 11.946C23.6514 12.0086 23.6387 12.0705 23.6134 12.1269C23.5882 12.1832 23.5512 12.2325 23.5052 12.2708C23.4082 12.3569 23.2763 12.4089 23.11 12.4274V11.4197H23.1105ZM22.3827 10.4254C22.3135 10.3528 22.2786 10.2538 22.2786 10.1287C22.2786 10.0036 22.3227 9.899 22.411 9.81544C22.4992 9.73138 22.6214 9.68184 22.7774 9.66683V10.6356C22.5838 10.5685 22.4519 10.4985 22.3827 10.4254Z" fill="#82868C"/>
<path d="M27.4729 14.8029H25.9822C27.2033 13.9125 27.9995 12.4889 27.9995 10.8817C27.9995 8.18934 25.7737 5.99916 23.0382 5.99916C20.3028 5.99916 18.077 8.18986 18.077 10.8817C18.077 12.4889 18.8737 13.9125 20.0942 14.8029H18.5978C18.5106 14.8029 18.4249 14.8241 18.3482 14.8647C18.2714 14.9053 18.2061 14.964 18.1581 15.0356C18.1101 15.1071 18.0809 15.1893 18.0731 15.2746C18.0653 15.36 18.0791 15.446 18.1133 15.5249C18.4114 16.212 18.8548 16.8288 19.414 17.3342C19.9732 17.8395 20.6354 18.2218 21.3564 18.4556H17.3051C16.5389 16.8376 16.531 16.6702 16.2698 16.3644V15.3357C16.2701 15.0039 16.1367 14.6855 15.8988 14.4504C15.6609 14.2152 15.338 14.0826 15.0008 14.0815C14.663 14.0819 14.3391 14.2142 14.1002 14.4493C13.8614 14.6844 13.727 15.0032 13.7266 15.3357V16.3676C13.4696 16.6635 13.4817 16.7853 12.6913 18.4556H8.64051C9.36144 18.2216 10.0235 17.8393 10.5827 17.3339C11.1418 16.8286 11.5853 16.2119 11.8836 15.5249C11.9178 15.446 11.9317 15.36 11.9238 15.2746C11.916 15.1893 11.8868 15.1071 11.8388 15.0356C11.7908 14.964 11.7255 14.9053 11.6488 14.8647C11.572 14.8241 11.4863 14.8029 11.3992 14.8029H9.90531C11.1264 13.9125 11.9226 12.4889 11.9226 10.8817C11.9226 8.18934 9.69679 5.99916 6.96132 5.99916C4.22584 5.99916 2.00007 8.18986 2.00007 10.8817C2.00007 12.4889 2.79675 13.9125 4.01732 14.8029H2.52558C2.43858 14.803 2.35297 14.8244 2.27638 14.865C2.19978 14.9056 2.1346 14.9642 2.08663 15.0356C2.03866 15.1071 2.0094 15.1891 2.00147 15.2744C1.99353 15.3596 2.00716 15.4455 2.04114 15.5243C2.33908 16.2116 2.78236 16.8285 3.34147 17.3339C3.90058 17.8394 4.56269 18.2218 5.2837 18.4556H2.91207C2.84292 18.4556 2.77445 18.469 2.71057 18.4951C2.64668 18.5211 2.58863 18.5593 2.53974 18.6074C2.49084 18.6556 2.45206 18.7127 2.42559 18.7756C2.39913 18.8384 2.38551 18.9058 2.38551 18.9739C2.38551 19.042 2.39913 19.1094 2.42559 19.1722C2.45206 19.2351 2.49084 19.2922 2.53974 19.3404C2.58863 19.3885 2.64668 19.4267 2.71057 19.4527C2.77445 19.4788 2.84292 19.4922 2.91207 19.4922H12.2143L11.3344 21.3994H10.5572C9.982 21.3999 9.43052 21.6251 9.02379 22.0254C8.61707 22.4257 8.38832 22.9685 8.38777 23.5346C8.38777 24.1063 8.86062 24.5711 9.44089 24.5711H20.5566C21.1374 24.5711 21.6097 24.1063 21.6097 23.5346C21.6097 22.9681 21.382 22.4246 20.9762 22.0228C20.7748 21.8242 20.5353 21.6668 20.2717 21.5598C20.008 21.4528 19.7254 21.3982 19.4403 21.3994H18.6631L17.7837 19.4922H27.0864C27.2261 19.4922 27.36 19.4376 27.4588 19.3404C27.5575 19.2432 27.613 19.1114 27.613 18.9739C27.613 18.8364 27.5575 18.7046 27.4588 18.6074C27.36 18.5102 27.2261 18.4556 27.0864 18.4556H24.7148C25.4358 18.2218 26.0979 17.8394 26.657 17.3339C27.2161 16.8285 27.6594 16.2116 27.9574 15.5243C27.9918 15.4455 28.0057 15.3595 27.998 15.2741C27.9902 15.1887 27.961 15.1065 27.9129 15.0349C27.8649 14.9634 27.7995 14.9047 27.7227 14.8642C27.6459 14.8237 27.5601 14.8026 27.4729 14.8029ZM19.1306 10.8812C19.1306 8.76047 20.8836 7.03517 23.0388 7.03517C25.194 7.03517 26.9469 8.76047 26.9469 10.8812C26.9469 13.0019 25.194 14.7278 23.0388 14.7278C20.8836 14.7278 19.1306 13.0025 19.1306 10.8812ZM3.05424 10.8812C3.05424 8.76047 4.80716 7.03517 6.96237 7.03517C9.11758 7.03517 10.8705 8.76047 10.8705 10.8812C10.8705 13.0019 9.11758 14.7278 6.96237 14.7278C4.80716 14.7278 3.05424 13.0025 3.05424 10.8812ZM3.4102 15.8394H10.5145C9.72418 16.9827 8.40304 17.6876 6.96237 17.6876C5.5217 17.6876 4.20056 16.9827 3.4102 15.8394ZM18.3245 22.4359H19.4408C20.0721 22.4359 20.5571 22.9319 20.5571 23.5346H9.44141C9.44141 22.9288 9.94217 22.4359 10.5577 22.4359H11.674C11.7752 22.436 11.8742 22.4074 11.9592 22.3534C12.0442 22.2994 12.1116 22.2224 12.1532 22.1317L13.5149 19.1802L13.5191 19.1714C14.4901 17.1113 14.41 17.133 14.6001 16.9703C14.7149 16.8718 14.7813 16.7293 14.7813 16.579V15.3352C14.7813 15.2113 14.8766 15.1175 15.0024 15.1175C15.1235 15.1175 15.2183 15.2134 15.2183 15.3352V16.5738C15.2183 16.7236 15.2841 16.8661 15.3994 16.9646C15.5843 17.1232 15.5358 17.1672 16.4799 19.1698L16.4847 19.1802L17.8453 22.1306C17.9301 22.3172 18.1175 22.4359 18.3245 22.4359ZM23.0361 17.6876C22.3358 17.6881 21.646 17.5199 21.0268 17.1978C20.4077 16.8756 19.878 16.4093 19.484 15.8394H26.5883C26.1943 16.4093 25.6646 16.8756 25.0454 17.1978C24.4263 17.5199 23.7365 17.6881 23.0361 17.6876Z" fill="#82868C"/>
<path d="M15.0859 17.3919C14.6205 17.3919 14.2422 17.7592 14.2422 18.2105C14.2501 18.4227 14.3424 18.6236 14.4998 18.771C14.6571 18.9184 14.8673 19.0008 15.0859 19.0008C15.3045 19.0008 15.5147 18.9184 15.672 18.771C15.8294 18.6236 15.9217 18.4227 15.9296 18.2105C15.9296 17.7592 15.5513 17.3919 15.0859 17.3919ZM15.0859 18.4502C15.0535 18.4502 15.0214 18.4439 14.9915 18.4318C14.9615 18.4197 14.9344 18.402 14.9115 18.3797C14.8886 18.3574 14.8705 18.3309 14.8581 18.3018C14.8458 18.2727 14.8395 18.2415 14.8396 18.21C14.8396 18.1785 14.8461 18.1474 14.8586 18.1183C14.871 18.0893 14.8893 18.0629 14.9123 18.0407C14.9352 18.0185 14.9625 18.0009 14.9925 17.9889C15.0224 17.9769 15.0546 17.9708 15.087 17.9708C15.1525 17.971 15.2152 17.9964 15.2614 18.0414C15.3076 18.0865 15.3335 18.1475 15.3333 18.2111C15.3332 18.2746 15.307 18.3356 15.2606 18.3804C15.2142 18.4253 15.1514 18.4504 15.0859 18.4502ZM5.99193 12.1892C6.27829 12.3956 6.62668 12.5048 6.9833 12.4998C7.52721 12.4998 7.96594 12.2998 8.29949 11.8998L7.91798 11.4516C7.76374 11.6045 7.61823 11.7167 7.48034 11.7881C7.34245 11.8595 7.17677 11.895 6.9833 11.895C6.59307 11.895 6.30095 11.714 6.10802 11.3526H7.34354V10.9039H5.9625C5.94542 10.7602 5.94177 10.6153 5.9516 10.471H7.343V10.0223H6.06442C6.14671 9.82756 6.27097 9.67728 6.43774 9.57091C6.60452 9.46508 6.79145 9.41217 6.9991 9.41217C7.20675 9.41217 7.38115 9.4455 7.52285 9.51112C7.66401 9.57726 7.81388 9.69209 7.97139 9.85507L8.35235 9.38571C8.01935 8.98566 7.56809 8.78617 6.99856 8.78617C6.61542 8.78617 6.2737 8.89888 5.97285 9.12483C5.67201 9.35078 5.46273 9.64976 5.34446 10.0218H4.78638V10.4705H5.2589C5.25508 10.5086 5.25345 10.5694 5.25345 10.653C5.25345 10.7367 5.2589 10.8197 5.2698 10.9033H4.78638V11.3521H5.37171C5.49652 11.7034 5.70362 11.9828 5.99193 12.1892Z" fill="#82868C"/>
</svg>
