<svg width="30" height="30" viewBox="0 0 30 30" fill="none" xmlns="http://www.w3.org/2000/svg">
<path d="M15 24.7031C9.65625 24.7031 5.29688 20.3438 5.29688 15C5.29688 12.6563 6.14063 10.3594 7.73438 8.57812L8.76562 9.51562C7.40625 11.0156 6.70313 12.9844 6.70313 15C6.70313 19.5938 10.4062 23.2969 15 23.2969C16.2188 23.2969 17.3906 23.0625 18.4687 22.5469L19.0312 23.8125C17.7656 24.4219 16.4062 24.7031 15 24.7031Z" fill="#82868C"/>
<path d="M22.2187 21.4688L21.1875 20.5312C22.5469 19.0312 23.2969 17.0625 23.2969 15C23.2969 10.4063 19.5938 6.70312 15 6.70312C13.7812 6.70312 12.6094 6.9375 11.5312 7.45313L10.9688 6.18751C12.2344 5.62501 13.5938 5.29688 15 5.29688C20.3437 5.29688 24.7031 9.65626 24.7031 15C24.7031 17.3906 23.8125 19.6875 22.2187 21.4688Z" fill="#82868C"/>
<path d="M9.75 14.25H8.25V9.75001H3.75V8.25002H9.75V14.25Z" fill="#82868C"/>
<path d="M26.25 21.75H20.25V15.75H21.75V20.25H26.25V21.75Z" fill="#82868C"/>
</svg>
