<svg width="30" height="30" viewBox="0 0 30 30" fill="none" xmlns="http://www.w3.org/2000/svg">
<mask id="path-1-outside-1_3600_45307" maskUnits="userSpaceOnUse" x="1.99951" y="1.99948" width="26" height="26" fill="black">
<rect fill="white" x="1.99951" y="1.99948" width="26" height="26"/>
<path fill-rule="evenodd" clip-rule="evenodd" d="M3.13004 13.228C3.14201 13.1463 3.17404 13.0689 3.22324 13.0025C3.27245 12.9362 3.3373 12.8831 3.41203 12.848L6.41004 11.44L5.28504 8.32902C5.25702 8.25138 5.24865 8.168 5.26069 8.08634C5.27273 8.00468 5.3048 7.92725 5.35404 7.861C6.06104 6.907 6.90703 6.06101 7.86103 5.35401C7.92728 5.30477 8.00471 5.2727 8.08637 5.26066C8.16803 5.24862 8.25141 5.25699 8.32905 5.28501L11.439 6.40302L12.849 3.413C12.8839 3.33821 12.9368 3.27323 13.003 3.22385C13.0691 3.17447 13.1464 3.14224 13.228 3.13001C14.403 2.95597 15.5971 2.95597 16.772 3.13001C16.8537 3.14198 16.9312 3.174 16.9975 3.22321C17.0638 3.27242 17.1169 3.33727 17.152 3.41199L18.5621 6.40302L21.672 5.28501C21.7495 5.25716 21.8327 5.2489 21.9142 5.26093C21.9957 5.27297 22.0729 5.30494 22.139 5.35401C23.093 6.06101 23.939 6.907 24.646 7.861C24.6953 7.92725 24.7274 8.00468 24.7394 8.08634C24.7514 8.168 24.7431 8.25138 24.715 8.32902L23.59 11.44L26.5881 12.848C26.6628 12.8831 26.7276 12.9362 26.7768 13.0025C26.826 13.0689 26.8581 13.1463 26.87 13.228C27.0441 14.4029 27.0441 15.5971 26.87 16.772C26.8581 16.8537 26.826 16.9312 26.7768 16.9975C26.7276 17.0638 26.6628 17.1169 26.5881 17.152L23.59 18.56L24.715 21.671C24.7431 21.7486 24.7514 21.832 24.7394 21.9137C24.7274 21.9953 24.6953 22.0728 24.646 22.139C23.939 23.093 23.093 23.939 22.139 24.646C22.0728 24.6952 21.9954 24.7273 21.9137 24.7394C21.832 24.7514 21.7487 24.743 21.671 24.715L18.563 23.597L17.152 26.587C17.117 26.6619 17.064 26.727 16.9977 26.7764C16.9314 26.8258 16.8538 26.8579 16.772 26.87C15.5971 27.044 14.403 27.044 13.228 26.87C13.1463 26.858 13.0689 26.826 13.0026 26.7768C12.9363 26.7276 12.8832 26.6628 12.848 26.588L11.439 23.597L8.32905 24.715C8.25141 24.743 8.16803 24.7514 8.08637 24.7394C8.00471 24.7273 7.92728 24.6952 7.86103 24.646C6.90649 23.9383 6.06172 23.0936 5.35404 22.139C5.3048 22.0728 5.27273 21.9953 5.26069 21.9137C5.24865 21.832 5.25702 21.7486 5.28504 21.671L6.41004 18.56L3.41203 17.152C3.3373 17.1169 3.27245 17.0638 3.22324 16.9975C3.17404 16.9312 3.14201 16.8537 3.13004 16.772C2.956 15.5971 2.956 14.4029 3.13004 13.228ZM4.08002 13.639L7.24903 12.154C7.36201 12.1011 7.45111 12.0078 7.49885 11.8926C7.54658 11.7773 7.5495 11.6483 7.50703 11.531L6.31004 8.26099C7.01904 7.24899 8.25803 6.32301 8.25803 6.32301L11.531 7.507C11.6484 7.54947 11.7773 7.54655 11.8926 7.49882C12.0079 7.45108 12.1011 7.36198 12.154 7.249L13.65 4.08201C13.65 4.08201 14.452 4.00001 15 4.00001C15.548 4.00001 16.35 4.07999 16.35 4.07999L17.846 7.249C17.899 7.36198 17.9922 7.45108 18.1075 7.49882C18.2228 7.54655 18.3517 7.54947 18.469 7.507L21.762 6.32401C21.762 6.32401 23.032 7.35102 23.677 8.26002L22.4931 11.531C22.4506 11.6483 22.4535 11.7773 22.5012 11.8926C22.549 12.0078 22.6381 12.1011 22.751 12.154L25.918 13.64C25.918 13.64 26 14.452 26 15C26 15.548 25.918 16.36 25.918 16.36L22.751 17.846C22.6381 17.899 22.549 17.9922 22.5012 18.1075C22.4535 18.2227 22.4506 18.3517 22.4931 18.469L23.677 21.739C23.032 22.649 21.762 23.676 21.762 23.676L18.469 22.493C18.3517 22.4505 18.2228 22.4535 18.1075 22.5012C17.9922 22.5489 17.899 22.638 17.846 22.751L16.35 25.92C16.35 25.92 15.548 26 15 26C14.452 26 13.65 25.918 13.65 25.918L12.154 22.751C12.1011 22.638 12.0079 22.5489 11.8926 22.5012C11.7773 22.4535 11.6484 22.4505 11.531 22.493L8.25803 23.677C8.25803 23.677 7.01804 22.751 6.31004 21.74L7.50703 18.469C7.5495 18.3517 7.54658 18.2227 7.49885 18.1075C7.45111 17.9922 7.36201 17.899 7.24903 17.846L4.08103 16.361C4.08103 16.361 4.00004 15.548 4.00004 15C4.00004 14.452 4.08002 13.64 4.08002 13.64V13.639ZM15 20C16.3261 20 17.5979 19.4732 18.5356 18.5355C19.4732 17.5978 20 16.3261 20 15C20 13.6739 19.4732 12.4022 18.5356 11.4645C17.5979 10.5268 16.3261 10 15 10C13.674 10 12.4022 10.5268 11.4645 11.4645C10.5268 12.4022 10 13.6739 10 15C10 16.3261 10.5268 17.5978 11.4645 18.5355C12.4022 19.4732 13.674 20 15 20ZM15 19C16.0609 19 17.0783 18.5786 17.8285 17.8284C18.5786 17.0783 19 16.0609 19 15C19 13.9391 18.5786 12.9217 17.8285 12.1716C17.0783 11.4214 16.0609 11 15 11C13.9392 11 12.9218 11.4214 12.1716 12.1716C11.4215 12.9217 11 13.9391 11 15C11 16.0609 11.4215 17.0783 12.1716 17.8284C12.9218 18.5786 13.9392 19 15 19Z"/>
</mask>
<path fill-rule="evenodd" clip-rule="evenodd" d="M3.13004 13.228C3.14201 13.1463 3.17404 13.0689 3.22324 13.0025C3.27245 12.9362 3.3373 12.8831 3.41203 12.848L6.41004 11.44L5.28504 8.32902C5.25702 8.25138 5.24865 8.168 5.26069 8.08634C5.27273 8.00468 5.3048 7.92725 5.35404 7.861C6.06104 6.907 6.90703 6.06101 7.86103 5.35401C7.92728 5.30477 8.00471 5.2727 8.08637 5.26066C8.16803 5.24862 8.25141 5.25699 8.32905 5.28501L11.439 6.40302L12.849 3.413C12.8839 3.33821 12.9368 3.27323 13.003 3.22385C13.0691 3.17447 13.1464 3.14224 13.228 3.13001C14.403 2.95597 15.5971 2.95597 16.772 3.13001C16.8537 3.14198 16.9312 3.174 16.9975 3.22321C17.0638 3.27242 17.1169 3.33727 17.152 3.41199L18.5621 6.40302L21.672 5.28501C21.7495 5.25716 21.8327 5.2489 21.9142 5.26093C21.9957 5.27297 22.0729 5.30494 22.139 5.35401C23.093 6.06101 23.939 6.907 24.646 7.861C24.6953 7.92725 24.7274 8.00468 24.7394 8.08634C24.7514 8.168 24.7431 8.25138 24.715 8.32902L23.59 11.44L26.5881 12.848C26.6628 12.8831 26.7276 12.9362 26.7768 13.0025C26.826 13.0689 26.8581 13.1463 26.87 13.228C27.0441 14.4029 27.0441 15.5971 26.87 16.772C26.8581 16.8537 26.826 16.9312 26.7768 16.9975C26.7276 17.0638 26.6628 17.1169 26.5881 17.152L23.59 18.56L24.715 21.671C24.7431 21.7486 24.7514 21.832 24.7394 21.9137C24.7274 21.9953 24.6953 22.0728 24.646 22.139C23.939 23.093 23.093 23.939 22.139 24.646C22.0728 24.6952 21.9954 24.7273 21.9137 24.7394C21.832 24.7514 21.7487 24.743 21.671 24.715L18.563 23.597L17.152 26.587C17.117 26.6619 17.064 26.727 16.9977 26.7764C16.9314 26.8258 16.8538 26.8579 16.772 26.87C15.5971 27.044 14.403 27.044 13.228 26.87C13.1463 26.858 13.0689 26.826 13.0026 26.7768C12.9363 26.7276 12.8832 26.6628 12.848 26.588L11.439 23.597L8.32905 24.715C8.25141 24.743 8.16803 24.7514 8.08637 24.7394C8.00471 24.7273 7.92728 24.6952 7.86103 24.646C6.90649 23.9383 6.06172 23.0936 5.35404 22.139C5.3048 22.0728 5.27273 21.9953 5.26069 21.9137C5.24865 21.832 5.25702 21.7486 5.28504 21.671L6.41004 18.56L3.41203 17.152C3.3373 17.1169 3.27245 17.0638 3.22324 16.9975C3.17404 16.9312 3.14201 16.8537 3.13004 16.772C2.956 15.5971 2.956 14.4029 3.13004 13.228ZM4.08002 13.639L7.24903 12.154C7.36201 12.1011 7.45111 12.0078 7.49885 11.8926C7.54658 11.7773 7.5495 11.6483 7.50703 11.531L6.31004 8.26099C7.01904 7.24899 8.25803 6.32301 8.25803 6.32301L11.531 7.507C11.6484 7.54947 11.7773 7.54655 11.8926 7.49882C12.0079 7.45108 12.1011 7.36198 12.154 7.249L13.65 4.08201C13.65 4.08201 14.452 4.00001 15 4.00001C15.548 4.00001 16.35 4.07999 16.35 4.07999L17.846 7.249C17.899 7.36198 17.9922 7.45108 18.1075 7.49882C18.2228 7.54655 18.3517 7.54947 18.469 7.507L21.762 6.32401C21.762 6.32401 23.032 7.35102 23.677 8.26002L22.4931 11.531C22.4506 11.6483 22.4535 11.7773 22.5012 11.8926C22.549 12.0078 22.6381 12.1011 22.751 12.154L25.918 13.64C25.918 13.64 26 14.452 26 15C26 15.548 25.918 16.36 25.918 16.36L22.751 17.846C22.6381 17.899 22.549 17.9922 22.5012 18.1075C22.4535 18.2227 22.4506 18.3517 22.4931 18.469L23.677 21.739C23.032 22.649 21.762 23.676 21.762 23.676L18.469 22.493C18.3517 22.4505 18.2228 22.4535 18.1075 22.5012C17.9922 22.5489 17.899 22.638 17.846 22.751L16.35 25.92C16.35 25.92 15.548 26 15 26C14.452 26 13.65 25.918 13.65 25.918L12.154 22.751C12.1011 22.638 12.0079 22.5489 11.8926 22.5012C11.7773 22.4535 11.6484 22.4505 11.531 22.493L8.25803 23.677C8.25803 23.677 7.01804 22.751 6.31004 21.74L7.50703 18.469C7.5495 18.3517 7.54658 18.2227 7.49885 18.1075C7.45111 17.9922 7.36201 17.899 7.24903 17.846L4.08103 16.361C4.08103 16.361 4.00004 15.548 4.00004 15C4.00004 14.452 4.08002 13.64 4.08002 13.64V13.639ZM15 20C16.3261 20 17.5979 19.4732 18.5356 18.5355C19.4732 17.5978 20 16.3261 20 15C20 13.6739 19.4732 12.4022 18.5356 11.4645C17.5979 10.5268 16.3261 10 15 10C13.674 10 12.4022 10.5268 11.4645 11.4645C10.5268 12.4022 10 13.6739 10 15C10 16.3261 10.5268 17.5978 11.4645 18.5355C12.4022 19.4732 13.674 20 15 20ZM15 19C16.0609 19 17.0783 18.5786 17.8285 17.8284C18.5786 17.0783 19 16.0609 19 15C19 13.9391 18.5786 12.9217 17.8285 12.1716C17.0783 11.4214 16.0609 11 15 11C13.9392 11 12.9218 11.4214 12.1716 12.1716C11.4215 12.9217 11 13.9391 11 15C11 16.0609 11.4215 17.0783 12.1716 17.8284C12.9218 18.5786 13.9392 19 15 19Z" fill="#82868C"/>
<path fill-rule="evenodd" clip-rule="evenodd" d="M3.13004 13.228C3.14201 13.1463 3.17404 13.0689 3.22324 13.0025C3.27245 12.9362 3.3373 12.8831 3.41203 12.848L6.41004 11.44L5.28504 8.32902C5.25702 8.25138 5.24865 8.168 5.26069 8.08634C5.27273 8.00468 5.3048 7.92725 5.35404 7.861C6.06104 6.907 6.90703 6.06101 7.86103 5.35401C7.92728 5.30477 8.00471 5.2727 8.08637 5.26066C8.16803 5.24862 8.25141 5.25699 8.32905 5.28501L11.439 6.40302L12.849 3.413C12.8839 3.33821 12.9368 3.27323 13.003 3.22385C13.0691 3.17447 13.1464 3.14224 13.228 3.13001C14.403 2.95597 15.5971 2.95597 16.772 3.13001C16.8537 3.14198 16.9312 3.174 16.9975 3.22321C17.0638 3.27242 17.1169 3.33727 17.152 3.41199L18.5621 6.40302L21.672 5.28501C21.7495 5.25716 21.8327 5.2489 21.9142 5.26093C21.9957 5.27297 22.0729 5.30494 22.139 5.35401C23.093 6.06101 23.939 6.907 24.646 7.861C24.6953 7.92725 24.7274 8.00468 24.7394 8.08634C24.7514 8.168 24.7431 8.25138 24.715 8.32902L23.59 11.44L26.5881 12.848C26.6628 12.8831 26.7276 12.9362 26.7768 13.0025C26.826 13.0689 26.8581 13.1463 26.87 13.228C27.0441 14.4029 27.0441 15.5971 26.87 16.772C26.8581 16.8537 26.826 16.9312 26.7768 16.9975C26.7276 17.0638 26.6628 17.1169 26.5881 17.152L23.59 18.56L24.715 21.671C24.7431 21.7486 24.7514 21.832 24.7394 21.9137C24.7274 21.9953 24.6953 22.0728 24.646 22.139C23.939 23.093 23.093 23.939 22.139 24.646C22.0728 24.6952 21.9954 24.7273 21.9137 24.7394C21.832 24.7514 21.7487 24.743 21.671 24.715L18.563 23.597L17.152 26.587C17.117 26.6619 17.064 26.727 16.9977 26.7764C16.9314 26.8258 16.8538 26.8579 16.772 26.87C15.5971 27.044 14.403 27.044 13.228 26.87C13.1463 26.858 13.0689 26.826 13.0026 26.7768C12.9363 26.7276 12.8832 26.6628 12.848 26.588L11.439 23.597L8.32905 24.715C8.25141 24.743 8.16803 24.7514 8.08637 24.7394C8.00471 24.7273 7.92728 24.6952 7.86103 24.646C6.90649 23.9383 6.06172 23.0936 5.35404 22.139C5.3048 22.0728 5.27273 21.9953 5.26069 21.9137C5.24865 21.832 5.25702 21.7486 5.28504 21.671L6.41004 18.56L3.41203 17.152C3.3373 17.1169 3.27245 17.0638 3.22324 16.9975C3.17404 16.9312 3.14201 16.8537 3.13004 16.772C2.956 15.5971 2.956 14.4029 3.13004 13.228ZM4.08002 13.639L7.24903 12.154C7.36201 12.1011 7.45111 12.0078 7.49885 11.8926C7.54658 11.7773 7.5495 11.6483 7.50703 11.531L6.31004 8.26099C7.01904 7.24899 8.25803 6.32301 8.25803 6.32301L11.531 7.507C11.6484 7.54947 11.7773 7.54655 11.8926 7.49882C12.0079 7.45108 12.1011 7.36198 12.154 7.249L13.65 4.08201C13.65 4.08201 14.452 4.00001 15 4.00001C15.548 4.00001 16.35 4.07999 16.35 4.07999L17.846 7.249C17.899 7.36198 17.9922 7.45108 18.1075 7.49882C18.2228 7.54655 18.3517 7.54947 18.469 7.507L21.762 6.32401C21.762 6.32401 23.032 7.35102 23.677 8.26002L22.4931 11.531C22.4506 11.6483 22.4535 11.7773 22.5012 11.8926C22.549 12.0078 22.6381 12.1011 22.751 12.154L25.918 13.64C25.918 13.64 26 14.452 26 15C26 15.548 25.918 16.36 25.918 16.36L22.751 17.846C22.6381 17.899 22.549 17.9922 22.5012 18.1075C22.4535 18.2227 22.4506 18.3517 22.4931 18.469L23.677 21.739C23.032 22.649 21.762 23.676 21.762 23.676L18.469 22.493C18.3517 22.4505 18.2228 22.4535 18.1075 22.5012C17.9922 22.5489 17.899 22.638 17.846 22.751L16.35 25.92C16.35 25.92 15.548 26 15 26C14.452 26 13.65 25.918 13.65 25.918L12.154 22.751C12.1011 22.638 12.0079 22.5489 11.8926 22.5012C11.7773 22.4535 11.6484 22.4505 11.531 22.493L8.25803 23.677C8.25803 23.677 7.01804 22.751 6.31004 21.74L7.50703 18.469C7.5495 18.3517 7.54658 18.2227 7.49885 18.1075C7.45111 17.9922 7.36201 17.899 7.24903 17.846L4.08103 16.361C4.08103 16.361 4.00004 15.548 4.00004 15C4.00004 14.452 4.08002 13.64 4.08002 13.64V13.639ZM15 20C16.3261 20 17.5979 19.4732 18.5356 18.5355C19.4732 17.5978 20 16.3261 20 15C20 13.6739 19.4732 12.4022 18.5356 11.4645C17.5979 10.5268 16.3261 10 15 10C13.674 10 12.4022 10.5268 11.4645 11.4645C10.5268 12.4022 10 13.6739 10 15C10 16.3261 10.5268 17.5978 11.4645 18.5355C12.4022 19.4732 13.674 20 15 20ZM15 19C16.0609 19 17.0783 18.5786 17.8285 17.8284C18.5786 17.0783 19 16.0609 19 15C19 13.9391 18.5786 12.9217 17.8285 12.1716C17.0783 11.4214 16.0609 11 15 11C13.9392 11 12.9218 11.4214 12.1716 12.1716C11.4215 12.9217 11 13.9391 11 15C11 16.0609 11.4215 17.0783 12.1716 17.8284C12.9218 18.5786 13.9392 19 15 19Z" stroke="#82868C" stroke-width="0.6" mask="url(#path-1-outside-1_3600_45307)"/>
</svg>
