<svg width="30" height="30" viewBox="0 0 30 30" fill="none" xmlns="http://www.w3.org/2000/svg">
<path d="M24.568 7.50956C24.562 7.50931 24.5559 7.50942 24.5499 7.5099C22.1747 7.40941 20.6284 7.19712 19.3046 6.6545C17.9892 6.11536 16.8517 5.2314 15.3048 3.75964C15.289 3.7427 15.272 3.72672 15.2536 3.71184L15.2536 3.71181C15.0385 3.53733 14.7226 3.57028 14.5481 3.78539C14.5443 3.79014 14.5408 3.79506 14.5376 3.80012C13.3477 5.26247 12.0511 6.14417 10.5818 6.68148L10.6333 6.82236L10.5818 6.68149C9.09272 7.22602 7.40923 7.42614 5.46301 7.50926C5.45952 7.50917 5.45568 7.50911 5.45164 7.50911C5.17466 7.50911 4.9501 7.73367 4.9501 8.01066V17.2623C4.9501 17.2684 4.95046 17.2744 4.95118 17.2804C4.95052 17.4945 4.98936 18.9807 6.16534 20.7849C7.39552 22.6723 9.85918 24.8907 14.781 26.3693C14.8505 26.3942 14.9251 26.4036 14.9992 26.3963C15.0626 26.4026 15.1282 26.3969 15.1926 26.3776C15.1965 26.3764 15.2004 26.3751 15.2041 26.3736C19.9899 24.9386 22.4548 22.8044 23.7217 20.9526C24.9799 19.1132 25.0459 17.5675 25.0474 17.2963C25.0482 17.285 25.0486 17.2737 25.0486 17.2623V8.01065C25.0486 8.00883 25.0485 8.00701 25.0485 8.0052C25.0458 7.74014 24.8359 7.52081 24.568 7.50956ZM24.0455 17.2648C24.0456 17.2771 24.0461 17.2894 24.0471 17.3015C24.0454 17.5138 23.9885 18.8474 22.857 20.4626C21.7171 22.0898 19.4762 24.0175 15.0649 25.3679C15.0212 25.3622 14.9771 25.3623 14.9339 25.368C10.3506 23.9649 8.11002 21.9385 7.01301 20.273C5.98488 18.7121 5.95141 17.4533 5.95159 17.2893C5.95262 17.2823 5.95316 17.2751 5.95319 17.2679L5.95322 17.2633C5.95322 17.263 5.95322 17.2626 5.95322 17.2623V8.48778C7.79187 8.38928 9.43215 8.16789 10.9238 7.6224C12.423 7.07416 13.7579 6.20604 14.9785 4.82728C16.4203 6.1672 17.5713 7.02569 18.9244 7.58029C20.2936 8.14148 21.8327 8.37519 24.0455 8.48837V17.2623C24.0455 17.2631 24.0455 17.2639 24.0455 17.2648Z" fill="#82868C" stroke="#82868C" stroke-width="0.3" stroke-linejoin="round"/>
<path d="M10.5101 15.9052C10.4531 15.8452 10.3582 15.8427 10.2981 15.8997L9.78839 16.383C9.75951 16.4104 9.74269 16.4482 9.74165 16.4879C9.74061 16.5277 9.75542 16.5663 9.78283 16.5952L12.103 19.0384L12.103 19.0384L12.1039 19.0393L12.3544 19.2986C12.3825 19.3277 12.4212 19.3442 12.4616 19.3444C12.5021 19.3446 12.5409 19.3284 12.5693 19.2995L12.8188 19.0456L12.8197 19.0446L20.2056 11.6631C20.2641 11.6048 20.2643 11.5101 20.2061 11.4514L19.7096 10.9505C19.6815 10.9222 19.6433 10.9062 19.6034 10.9061C19.5635 10.906 19.5252 10.9218 19.497 10.95L12.4738 17.9732L10.5101 15.9052Z" fill="#82868C" stroke="#82868C" stroke-width="0.3" stroke-linejoin="round"/>
</svg>
