<svg width="30" height="30" viewBox="0 0 30 30" fill="none" xmlns="http://www.w3.org/2000/svg">
<mask id="path-1-outside-1_3600_45329" maskUnits="userSpaceOnUse" x="7.56372" y="2.64183" width="14" height="24" fill="black">
<rect fill="white" x="7.56372" y="2.64183" width="14" height="24"/>
<path d="M19.5433 18.7861C19.5433 18.4942 19.4293 18.2303 19.248 18.0289C19.4297 17.8274 19.5433 17.5635 19.5433 17.2716C19.5433 16.9797 19.4293 16.7158 19.248 16.5144C19.4297 16.313 19.5433 16.0491 19.5433 15.7572C19.5433 15.4388 19.4108 15.1518 19.1991 14.9451C20.6083 13.7279 21.4363 11.9503 21.4363 10.0781C21.4363 6.52908 18.5491 3.64183 15 3.64183C11.451 3.64183 8.56372 6.52908 8.56372 10.0781C8.56372 11.9503 9.39173 13.7279 10.8009 14.9451C10.5893 15.1518 10.4567 15.4388 10.4567 15.7572C10.4567 16.0491 10.5707 16.313 10.7521 16.5144C10.5703 16.7158 10.4567 16.9797 10.4567 17.2716C10.4567 17.5635 10.5707 17.8274 10.7521 18.0289C10.5703 18.2303 10.4567 18.4942 10.4567 18.7861C10.4567 19.279 10.7744 19.6955 11.214 19.8522V22.5721C11.214 22.674 11.2556 22.769 11.3256 22.839L11.3249 22.8398L14.7323 26.2472C14.8062 26.3211 14.9031 26.3582 15 26.3582C15.0969 26.3582 15.1939 26.3211 15.2677 26.2472L18.6751 22.8398L18.6744 22.839C18.7444 22.769 18.7861 22.674 18.7861 22.5721V19.8522C19.2256 19.6955 19.5433 19.279 19.5433 18.7861ZM11.214 17.2716C11.214 17.063 11.384 16.893 11.5926 16.893H18.4075C18.6161 16.893 18.7861 17.063 18.7861 17.2716C18.7861 17.4803 18.6161 17.6502 18.4075 17.6502H11.5926C11.384 17.6502 11.214 17.4803 11.214 17.2716ZM11.214 15.7572C11.214 15.5486 11.384 15.3786 11.5926 15.3786H18.406L18.4105 15.3794C18.6176 15.3809 18.7861 15.5494 18.7861 15.7572C18.7861 15.9658 18.6161 16.1358 18.4075 16.1358H11.5926C11.384 16.1358 11.214 15.9658 11.214 15.7572ZM14.1065 11.6804L12.6443 10.4617C12.2165 10.105 11.9712 9.5814 11.9712 9.02485C11.9712 8.37554 12.502 7.80649 13.107 7.80649C13.2247 7.80649 13.3402 7.82542 13.4508 7.86215C13.4432 7.87275 13.4379 7.88487 13.4307 7.89547C13.3909 7.95415 13.355 8.01435 13.3224 8.07682C13.3152 8.09083 13.3065 8.10408 13.2993 8.11847C13.2618 8.19457 13.2304 8.27331 13.2035 8.35396C13.1967 8.37478 13.1914 8.39636 13.185 8.41719C13.1664 8.48041 13.1513 8.54478 13.1392 8.6099C13.1346 8.63413 13.1301 8.65836 13.1267 8.68297C13.1153 8.76853 13.107 8.85485 13.107 8.94231C13.107 9.51136 13.3652 10.0467 13.8157 10.4102C13.885 10.4662 13.9695 10.4942 14.0535 10.4942C14.1376 10.4942 14.222 10.4662 14.2913 10.4102C14.7418 10.0467 15 9.51136 15 8.94231C15 8.85485 14.9917 8.76853 14.98 8.68297C14.9765 8.65836 14.972 8.6345 14.9675 8.6099C14.9557 8.54478 14.9406 8.48041 14.9216 8.41719C14.9156 8.39598 14.9103 8.37478 14.9035 8.35396C14.8766 8.27331 14.8452 8.19457 14.8077 8.11847C14.8009 8.10484 14.7925 8.09196 14.7853 8.07795C14.7524 8.01473 14.7153 7.95339 14.6752 7.89433C14.6684 7.88411 14.6634 7.87275 14.6562 7.86253C14.8777 7.78908 15.1231 7.78908 15.3445 7.86253C15.3374 7.87275 15.3324 7.88411 15.3256 7.89433C15.2855 7.95377 15.2488 8.01473 15.2154 8.07795C15.2083 8.09158 15.1999 8.10446 15.1931 8.11847C15.1556 8.19457 15.1238 8.27369 15.0973 8.35396C15.0905 8.37478 15.0852 8.39598 15.0791 8.41719C15.0606 8.48041 15.0455 8.54478 15.0333 8.6099C15.0288 8.63413 15.0242 8.65836 15.0208 8.68297C15.0083 8.76853 15 8.85485 15 8.94231C15 9.51136 15.2582 10.0467 15.7088 10.4102C15.7781 10.4662 15.8625 10.4942 15.9465 10.4942C16.0306 10.4942 16.115 10.4662 16.1843 10.4102C16.6348 10.0467 16.893 9.51136 16.893 8.94231C16.893 8.85485 16.8847 8.76853 16.873 8.68297C16.8696 8.65836 16.865 8.6345 16.8605 8.6099C16.8488 8.54478 16.8336 8.48041 16.8147 8.41719C16.8086 8.39598 16.8033 8.37478 16.7961 8.35396C16.7692 8.27331 16.7378 8.19457 16.7003 8.11847C16.6935 8.10408 16.6848 8.09083 16.6772 8.07682C16.6447 8.01435 16.6083 7.95415 16.569 7.89547C16.5618 7.88449 16.5565 7.87275 16.5489 7.86215C16.6598 7.82542 16.7749 7.80649 16.893 7.80649C17.4981 7.80649 18.0289 8.37554 18.0289 9.02485C18.0289 9.5814 17.7835 10.1054 17.3557 10.4617L15.8935 11.6804C15.8072 11.7523 15.7572 11.8587 15.7572 11.9712V14.6214H14.2428V11.9712C14.2428 11.8587 14.1928 11.7523 14.1065 11.6804ZM14.1323 8.4611C14.1641 8.52698 14.1872 8.59664 14.2053 8.66782C14.2099 8.68524 14.2137 8.70265 14.2174 8.72007C14.2322 8.79314 14.2428 8.86697 14.2428 8.94231C14.2428 9.01765 14.2322 9.09148 14.2174 9.16417C14.2137 9.18159 14.2099 9.19939 14.2053 9.21642C14.1872 9.28722 14.1641 9.35688 14.1323 9.42314C14.13 9.42806 14.1266 9.43298 14.1239 9.43791C14.1042 9.4769 14.0777 9.51249 14.0535 9.54922C14.0293 9.51249 14.0028 9.4769 13.9831 9.43791C13.9804 9.43298 13.977 9.42806 13.9748 9.42314C13.943 9.35688 13.9199 9.28722 13.9017 9.21642C13.8971 9.19901 13.8934 9.18159 13.8896 9.16417C13.8748 9.09148 13.8642 9.01765 13.8642 8.94231C13.8642 8.86697 13.8748 8.79314 13.8896 8.72045C13.8934 8.70303 13.8971 8.68524 13.9017 8.6682C13.9199 8.5974 13.943 8.52774 13.9748 8.46148C13.9774 8.45656 13.9804 8.45164 13.9831 8.44672C14.0028 8.40772 14.0293 8.37213 14.0535 8.33541C14.0777 8.37213 14.1042 8.40772 14.1239 8.44672C14.1262 8.45164 14.1296 8.45618 14.1323 8.4611ZM16.0253 8.4611C16.0571 8.52698 16.0802 8.59664 16.0984 8.66782C16.1029 8.68524 16.1067 8.70265 16.1105 8.72007C16.1252 8.79314 16.1358 8.86697 16.1358 8.94231C16.1358 9.01765 16.1252 9.09148 16.1105 9.16417C16.1067 9.18159 16.1029 9.19939 16.0984 9.21642C16.0802 9.28722 16.0571 9.35688 16.0253 9.42314C16.023 9.42806 16.0196 9.43298 16.017 9.43791C15.9973 9.4769 15.9708 9.51249 15.9465 9.54922C15.9223 9.51249 15.8958 9.4769 15.8761 9.43791C15.8735 9.43298 15.8701 9.42806 15.8678 9.42314C15.836 9.35688 15.8129 9.28722 15.7947 9.21642C15.7902 9.19901 15.7864 9.18159 15.7826 9.16417C15.7678 9.09148 15.7572 9.01765 15.7572 8.94231C15.7572 8.86697 15.7678 8.79314 15.7826 8.72045C15.7864 8.70303 15.7902 8.68524 15.7947 8.6682C15.8129 8.5974 15.836 8.52774 15.8678 8.46148C15.8704 8.45656 15.8735 8.45164 15.8761 8.44672C15.8958 8.40772 15.9223 8.37213 15.9465 8.33541C15.9708 8.37213 15.9973 8.40772 16.017 8.44672C16.0192 8.45164 16.0226 8.45618 16.0253 8.4611ZM9.32093 10.0781C9.32093 6.94668 11.8686 4.39904 15 4.39904C18.1315 4.39904 20.6791 6.94668 20.6791 10.0781C20.6791 11.8614 19.8291 13.5492 18.3991 14.6214H16.5144V12.1483L17.8403 11.0432C18.4415 10.5427 18.7861 9.80667 18.7861 9.02485C18.7861 7.95415 17.9191 7.04928 16.893 7.04928C16.5568 7.04928 16.2347 7.14166 15.9454 7.31317C15.3627 6.97545 14.6381 6.97545 14.055 7.31317C13.7654 7.14166 13.4432 7.04928 13.107 7.04928C12.081 7.04928 11.214 7.95415 11.214 9.02485C11.214 9.80667 11.5585 10.5427 12.1597 11.0436L13.4856 12.1483V14.6214H11.6009C10.1709 13.5492 9.32093 11.8614 9.32093 10.0781ZM12.187 22.6308L12.7284 22.27L13.6541 22.8871C13.7813 22.9719 13.9467 22.9719 14.0739 22.8871L15 22.27L15.9257 22.8871C16.0529 22.9719 16.2184 22.9719 16.3456 22.8871L17.2717 22.27L17.8131 22.6312L16.3577 24.0865H13.6423L12.187 22.6308ZM17.4818 21.4999C17.3546 21.4151 17.1891 21.4151 17.0619 21.4999L16.1358 22.117L15.2101 21.4999C15.0829 21.4151 14.9175 21.4151 14.7903 21.4999L13.8642 22.117L12.9385 21.4999C12.8113 21.4151 12.6458 21.4151 12.5186 21.4999L11.9712 21.8645V19.9219H18.0289V21.8645L17.4818 21.4999ZM15 25.4442L14.3995 24.8438H15.6005L15 25.4442ZM18.4075 19.1647H11.5926C11.384 19.1647 11.214 18.9947 11.214 18.7861C11.214 18.5774 11.384 18.4075 11.5926 18.4075H18.4075C18.6161 18.4075 18.7861 18.5774 18.7861 18.7861C18.7861 18.9947 18.6161 19.1647 18.4075 19.1647Z"/>
</mask>
<path d="M19.5433 18.7861C19.5433 18.4942 19.4293 18.2303 19.248 18.0289C19.4297 17.8274 19.5433 17.5635 19.5433 17.2716C19.5433 16.9797 19.4293 16.7158 19.248 16.5144C19.4297 16.313 19.5433 16.0491 19.5433 15.7572C19.5433 15.4388 19.4108 15.1518 19.1991 14.9451C20.6083 13.7279 21.4363 11.9503 21.4363 10.0781C21.4363 6.52908 18.5491 3.64183 15 3.64183C11.451 3.64183 8.56372 6.52908 8.56372 10.0781C8.56372 11.9503 9.39173 13.7279 10.8009 14.9451C10.5893 15.1518 10.4567 15.4388 10.4567 15.7572C10.4567 16.0491 10.5707 16.313 10.7521 16.5144C10.5703 16.7158 10.4567 16.9797 10.4567 17.2716C10.4567 17.5635 10.5707 17.8274 10.7521 18.0289C10.5703 18.2303 10.4567 18.4942 10.4567 18.7861C10.4567 19.279 10.7744 19.6955 11.214 19.8522V22.5721C11.214 22.674 11.2556 22.769 11.3256 22.839L11.3249 22.8398L14.7323 26.2472C14.8062 26.3211 14.9031 26.3582 15 26.3582C15.0969 26.3582 15.1939 26.3211 15.2677 26.2472L18.6751 22.8398L18.6744 22.839C18.7444 22.769 18.7861 22.674 18.7861 22.5721V19.8522C19.2256 19.6955 19.5433 19.279 19.5433 18.7861ZM11.214 17.2716C11.214 17.063 11.384 16.893 11.5926 16.893H18.4075C18.6161 16.893 18.7861 17.063 18.7861 17.2716C18.7861 17.4803 18.6161 17.6502 18.4075 17.6502H11.5926C11.384 17.6502 11.214 17.4803 11.214 17.2716ZM11.214 15.7572C11.214 15.5486 11.384 15.3786 11.5926 15.3786H18.406L18.4105 15.3794C18.6176 15.3809 18.7861 15.5494 18.7861 15.7572C18.7861 15.9658 18.6161 16.1358 18.4075 16.1358H11.5926C11.384 16.1358 11.214 15.9658 11.214 15.7572ZM14.1065 11.6804L12.6443 10.4617C12.2165 10.105 11.9712 9.5814 11.9712 9.02485C11.9712 8.37554 12.502 7.80649 13.107 7.80649C13.2247 7.80649 13.3402 7.82542 13.4508 7.86215C13.4432 7.87275 13.4379 7.88487 13.4307 7.89547C13.3909 7.95415 13.355 8.01435 13.3224 8.07682C13.3152 8.09083 13.3065 8.10408 13.2993 8.11847C13.2618 8.19457 13.2304 8.27331 13.2035 8.35396C13.1967 8.37478 13.1914 8.39636 13.185 8.41719C13.1664 8.48041 13.1513 8.54478 13.1392 8.6099C13.1346 8.63413 13.1301 8.65836 13.1267 8.68297C13.1153 8.76853 13.107 8.85485 13.107 8.94231C13.107 9.51136 13.3652 10.0467 13.8157 10.4102C13.885 10.4662 13.9695 10.4942 14.0535 10.4942C14.1376 10.4942 14.222 10.4662 14.2913 10.4102C14.7418 10.0467 15 9.51136 15 8.94231C15 8.85485 14.9917 8.76853 14.98 8.68297C14.9765 8.65836 14.972 8.6345 14.9675 8.6099C14.9557 8.54478 14.9406 8.48041 14.9216 8.41719C14.9156 8.39598 14.9103 8.37478 14.9035 8.35396C14.8766 8.27331 14.8452 8.19457 14.8077 8.11847C14.8009 8.10484 14.7925 8.09196 14.7853 8.07795C14.7524 8.01473 14.7153 7.95339 14.6752 7.89433C14.6684 7.88411 14.6634 7.87275 14.6562 7.86253C14.8777 7.78908 15.1231 7.78908 15.3445 7.86253C15.3374 7.87275 15.3324 7.88411 15.3256 7.89433C15.2855 7.95377 15.2488 8.01473 15.2154 8.07795C15.2083 8.09158 15.1999 8.10446 15.1931 8.11847C15.1556 8.19457 15.1238 8.27369 15.0973 8.35396C15.0905 8.37478 15.0852 8.39598 15.0791 8.41719C15.0606 8.48041 15.0455 8.54478 15.0333 8.6099C15.0288 8.63413 15.0242 8.65836 15.0208 8.68297C15.0083 8.76853 15 8.85485 15 8.94231C15 9.51136 15.2582 10.0467 15.7088 10.4102C15.7781 10.4662 15.8625 10.4942 15.9465 10.4942C16.0306 10.4942 16.115 10.4662 16.1843 10.4102C16.6348 10.0467 16.893 9.51136 16.893 8.94231C16.893 8.85485 16.8847 8.76853 16.873 8.68297C16.8696 8.65836 16.865 8.6345 16.8605 8.6099C16.8488 8.54478 16.8336 8.48041 16.8147 8.41719C16.8086 8.39598 16.8033 8.37478 16.7961 8.35396C16.7692 8.27331 16.7378 8.19457 16.7003 8.11847C16.6935 8.10408 16.6848 8.09083 16.6772 8.07682C16.6447 8.01435 16.6083 7.95415 16.569 7.89547C16.5618 7.88449 16.5565 7.87275 16.5489 7.86215C16.6598 7.82542 16.7749 7.80649 16.893 7.80649C17.4981 7.80649 18.0289 8.37554 18.0289 9.02485C18.0289 9.5814 17.7835 10.1054 17.3557 10.4617L15.8935 11.6804C15.8072 11.7523 15.7572 11.8587 15.7572 11.9712V14.6214H14.2428V11.9712C14.2428 11.8587 14.1928 11.7523 14.1065 11.6804ZM14.1323 8.4611C14.1641 8.52698 14.1872 8.59664 14.2053 8.66782C14.2099 8.68524 14.2137 8.70265 14.2174 8.72007C14.2322 8.79314 14.2428 8.86697 14.2428 8.94231C14.2428 9.01765 14.2322 9.09148 14.2174 9.16417C14.2137 9.18159 14.2099 9.19939 14.2053 9.21642C14.1872 9.28722 14.1641 9.35688 14.1323 9.42314C14.13 9.42806 14.1266 9.43298 14.1239 9.43791C14.1042 9.4769 14.0777 9.51249 14.0535 9.54922C14.0293 9.51249 14.0028 9.4769 13.9831 9.43791C13.9804 9.43298 13.977 9.42806 13.9748 9.42314C13.943 9.35688 13.9199 9.28722 13.9017 9.21642C13.8971 9.19901 13.8934 9.18159 13.8896 9.16417C13.8748 9.09148 13.8642 9.01765 13.8642 8.94231C13.8642 8.86697 13.8748 8.79314 13.8896 8.72045C13.8934 8.70303 13.8971 8.68524 13.9017 8.6682C13.9199 8.5974 13.943 8.52774 13.9748 8.46148C13.9774 8.45656 13.9804 8.45164 13.9831 8.44672C14.0028 8.40772 14.0293 8.37213 14.0535 8.33541C14.0777 8.37213 14.1042 8.40772 14.1239 8.44672C14.1262 8.45164 14.1296 8.45618 14.1323 8.4611ZM16.0253 8.4611C16.0571 8.52698 16.0802 8.59664 16.0984 8.66782C16.1029 8.68524 16.1067 8.70265 16.1105 8.72007C16.1252 8.79314 16.1358 8.86697 16.1358 8.94231C16.1358 9.01765 16.1252 9.09148 16.1105 9.16417C16.1067 9.18159 16.1029 9.19939 16.0984 9.21642C16.0802 9.28722 16.0571 9.35688 16.0253 9.42314C16.023 9.42806 16.0196 9.43298 16.017 9.43791C15.9973 9.4769 15.9708 9.51249 15.9465 9.54922C15.9223 9.51249 15.8958 9.4769 15.8761 9.43791C15.8735 9.43298 15.8701 9.42806 15.8678 9.42314C15.836 9.35688 15.8129 9.28722 15.7947 9.21642C15.7902 9.19901 15.7864 9.18159 15.7826 9.16417C15.7678 9.09148 15.7572 9.01765 15.7572 8.94231C15.7572 8.86697 15.7678 8.79314 15.7826 8.72045C15.7864 8.70303 15.7902 8.68524 15.7947 8.6682C15.8129 8.5974 15.836 8.52774 15.8678 8.46148C15.8704 8.45656 15.8735 8.45164 15.8761 8.44672C15.8958 8.40772 15.9223 8.37213 15.9465 8.33541C15.9708 8.37213 15.9973 8.40772 16.017 8.44672C16.0192 8.45164 16.0226 8.45618 16.0253 8.4611ZM9.32093 10.0781C9.32093 6.94668 11.8686 4.39904 15 4.39904C18.1315 4.39904 20.6791 6.94668 20.6791 10.0781C20.6791 11.8614 19.8291 13.5492 18.3991 14.6214H16.5144V12.1483L17.8403 11.0432C18.4415 10.5427 18.7861 9.80667 18.7861 9.02485C18.7861 7.95415 17.9191 7.04928 16.893 7.04928C16.5568 7.04928 16.2347 7.14166 15.9454 7.31317C15.3627 6.97545 14.6381 6.97545 14.055 7.31317C13.7654 7.14166 13.4432 7.04928 13.107 7.04928C12.081 7.04928 11.214 7.95415 11.214 9.02485C11.214 9.80667 11.5585 10.5427 12.1597 11.0436L13.4856 12.1483V14.6214H11.6009C10.1709 13.5492 9.32093 11.8614 9.32093 10.0781ZM12.187 22.6308L12.7284 22.27L13.6541 22.8871C13.7813 22.9719 13.9467 22.9719 14.0739 22.8871L15 22.27L15.9257 22.8871C16.0529 22.9719 16.2184 22.9719 16.3456 22.8871L17.2717 22.27L17.8131 22.6312L16.3577 24.0865H13.6423L12.187 22.6308ZM17.4818 21.4999C17.3546 21.4151 17.1891 21.4151 17.0619 21.4999L16.1358 22.117L15.2101 21.4999C15.0829 21.4151 14.9175 21.4151 14.7903 21.4999L13.8642 22.117L12.9385 21.4999C12.8113 21.4151 12.6458 21.4151 12.5186 21.4999L11.9712 21.8645V19.9219H18.0289V21.8645L17.4818 21.4999ZM15 25.4442L14.3995 24.8438H15.6005L15 25.4442ZM18.4075 19.1647H11.5926C11.384 19.1647 11.214 18.9947 11.214 18.7861C11.214 18.5774 11.384 18.4075 11.5926 18.4075H18.4075C18.6161 18.4075 18.7861 18.5774 18.7861 18.7861C18.7861 18.9947 18.6161 19.1647 18.4075 19.1647Z" fill="#82868C"/>
<path d="M19.5433 18.7861C19.5433 18.4942 19.4293 18.2303 19.248 18.0289C19.4297 17.8274 19.5433 17.5635 19.5433 17.2716C19.5433 16.9797 19.4293 16.7158 19.248 16.5144C19.4297 16.313 19.5433 16.0491 19.5433 15.7572C19.5433 15.4388 19.4108 15.1518 19.1991 14.9451C20.6083 13.7279 21.4363 11.9503 21.4363 10.0781C21.4363 6.52908 18.5491 3.64183 15 3.64183C11.451 3.64183 8.56372 6.52908 8.56372 10.0781C8.56372 11.9503 9.39173 13.7279 10.8009 14.9451C10.5893 15.1518 10.4567 15.4388 10.4567 15.7572C10.4567 16.0491 10.5707 16.313 10.7521 16.5144C10.5703 16.7158 10.4567 16.9797 10.4567 17.2716C10.4567 17.5635 10.5707 17.8274 10.7521 18.0289C10.5703 18.2303 10.4567 18.4942 10.4567 18.7861C10.4567 19.279 10.7744 19.6955 11.214 19.8522V22.5721C11.214 22.674 11.2556 22.769 11.3256 22.839L11.3249 22.8398L14.7323 26.2472C14.8062 26.3211 14.9031 26.3582 15 26.3582C15.0969 26.3582 15.1939 26.3211 15.2677 26.2472L18.6751 22.8398L18.6744 22.839C18.7444 22.769 18.7861 22.674 18.7861 22.5721V19.8522C19.2256 19.6955 19.5433 19.279 19.5433 18.7861ZM11.214 17.2716C11.214 17.063 11.384 16.893 11.5926 16.893H18.4075C18.6161 16.893 18.7861 17.063 18.7861 17.2716C18.7861 17.4803 18.6161 17.6502 18.4075 17.6502H11.5926C11.384 17.6502 11.214 17.4803 11.214 17.2716ZM11.214 15.7572C11.214 15.5486 11.384 15.3786 11.5926 15.3786H18.406L18.4105 15.3794C18.6176 15.3809 18.7861 15.5494 18.7861 15.7572C18.7861 15.9658 18.6161 16.1358 18.4075 16.1358H11.5926C11.384 16.1358 11.214 15.9658 11.214 15.7572ZM14.1065 11.6804L12.6443 10.4617C12.2165 10.105 11.9712 9.5814 11.9712 9.02485C11.9712 8.37554 12.502 7.80649 13.107 7.80649C13.2247 7.80649 13.3402 7.82542 13.4508 7.86215C13.4432 7.87275 13.4379 7.88487 13.4307 7.89547C13.3909 7.95415 13.355 8.01435 13.3224 8.07682C13.3152 8.09083 13.3065 8.10408 13.2993 8.11847C13.2618 8.19457 13.2304 8.27331 13.2035 8.35396C13.1967 8.37478 13.1914 8.39636 13.185 8.41719C13.1664 8.48041 13.1513 8.54478 13.1392 8.6099C13.1346 8.63413 13.1301 8.65836 13.1267 8.68297C13.1153 8.76853 13.107 8.85485 13.107 8.94231C13.107 9.51136 13.3652 10.0467 13.8157 10.4102C13.885 10.4662 13.9695 10.4942 14.0535 10.4942C14.1376 10.4942 14.222 10.4662 14.2913 10.4102C14.7418 10.0467 15 9.51136 15 8.94231C15 8.85485 14.9917 8.76853 14.98 8.68297C14.9765 8.65836 14.972 8.6345 14.9675 8.6099C14.9557 8.54478 14.9406 8.48041 14.9216 8.41719C14.9156 8.39598 14.9103 8.37478 14.9035 8.35396C14.8766 8.27331 14.8452 8.19457 14.8077 8.11847C14.8009 8.10484 14.7925 8.09196 14.7853 8.07795C14.7524 8.01473 14.7153 7.95339 14.6752 7.89433C14.6684 7.88411 14.6634 7.87275 14.6562 7.86253C14.8777 7.78908 15.1231 7.78908 15.3445 7.86253C15.3374 7.87275 15.3324 7.88411 15.3256 7.89433C15.2855 7.95377 15.2488 8.01473 15.2154 8.07795C15.2083 8.09158 15.1999 8.10446 15.1931 8.11847C15.1556 8.19457 15.1238 8.27369 15.0973 8.35396C15.0905 8.37478 15.0852 8.39598 15.0791 8.41719C15.0606 8.48041 15.0455 8.54478 15.0333 8.6099C15.0288 8.63413 15.0242 8.65836 15.0208 8.68297C15.0083 8.76853 15 8.85485 15 8.94231C15 9.51136 15.2582 10.0467 15.7088 10.4102C15.7781 10.4662 15.8625 10.4942 15.9465 10.4942C16.0306 10.4942 16.115 10.4662 16.1843 10.4102C16.6348 10.0467 16.893 9.51136 16.893 8.94231C16.893 8.85485 16.8847 8.76853 16.873 8.68297C16.8696 8.65836 16.865 8.6345 16.8605 8.6099C16.8488 8.54478 16.8336 8.48041 16.8147 8.41719C16.8086 8.39598 16.8033 8.37478 16.7961 8.35396C16.7692 8.27331 16.7378 8.19457 16.7003 8.11847C16.6935 8.10408 16.6848 8.09083 16.6772 8.07682C16.6447 8.01435 16.6083 7.95415 16.569 7.89547C16.5618 7.88449 16.5565 7.87275 16.5489 7.86215C16.6598 7.82542 16.7749 7.80649 16.893 7.80649C17.4981 7.80649 18.0289 8.37554 18.0289 9.02485C18.0289 9.5814 17.7835 10.1054 17.3557 10.4617L15.8935 11.6804C15.8072 11.7523 15.7572 11.8587 15.7572 11.9712V14.6214H14.2428V11.9712C14.2428 11.8587 14.1928 11.7523 14.1065 11.6804ZM14.1323 8.4611C14.1641 8.52698 14.1872 8.59664 14.2053 8.66782C14.2099 8.68524 14.2137 8.70265 14.2174 8.72007C14.2322 8.79314 14.2428 8.86697 14.2428 8.94231C14.2428 9.01765 14.2322 9.09148 14.2174 9.16417C14.2137 9.18159 14.2099 9.19939 14.2053 9.21642C14.1872 9.28722 14.1641 9.35688 14.1323 9.42314C14.13 9.42806 14.1266 9.43298 14.1239 9.43791C14.1042 9.4769 14.0777 9.51249 14.0535 9.54922C14.0293 9.51249 14.0028 9.4769 13.9831 9.43791C13.9804 9.43298 13.977 9.42806 13.9748 9.42314C13.943 9.35688 13.9199 9.28722 13.9017 9.21642C13.8971 9.19901 13.8934 9.18159 13.8896 9.16417C13.8748 9.09148 13.8642 9.01765 13.8642 8.94231C13.8642 8.86697 13.8748 8.79314 13.8896 8.72045C13.8934 8.70303 13.8971 8.68524 13.9017 8.6682C13.9199 8.5974 13.943 8.52774 13.9748 8.46148C13.9774 8.45656 13.9804 8.45164 13.9831 8.44672C14.0028 8.40772 14.0293 8.37213 14.0535 8.33541C14.0777 8.37213 14.1042 8.40772 14.1239 8.44672C14.1262 8.45164 14.1296 8.45618 14.1323 8.4611ZM16.0253 8.4611C16.0571 8.52698 16.0802 8.59664 16.0984 8.66782C16.1029 8.68524 16.1067 8.70265 16.1105 8.72007C16.1252 8.79314 16.1358 8.86697 16.1358 8.94231C16.1358 9.01765 16.1252 9.09148 16.1105 9.16417C16.1067 9.18159 16.1029 9.19939 16.0984 9.21642C16.0802 9.28722 16.0571 9.35688 16.0253 9.42314C16.023 9.42806 16.0196 9.43298 16.017 9.43791C15.9973 9.4769 15.9708 9.51249 15.9465 9.54922C15.9223 9.51249 15.8958 9.4769 15.8761 9.43791C15.8735 9.43298 15.8701 9.42806 15.8678 9.42314C15.836 9.35688 15.8129 9.28722 15.7947 9.21642C15.7902 9.19901 15.7864 9.18159 15.7826 9.16417C15.7678 9.09148 15.7572 9.01765 15.7572 8.94231C15.7572 8.86697 15.7678 8.79314 15.7826 8.72045C15.7864 8.70303 15.7902 8.68524 15.7947 8.6682C15.8129 8.5974 15.836 8.52774 15.8678 8.46148C15.8704 8.45656 15.8735 8.45164 15.8761 8.44672C15.8958 8.40772 15.9223 8.37213 15.9465 8.33541C15.9708 8.37213 15.9973 8.40772 16.017 8.44672C16.0192 8.45164 16.0226 8.45618 16.0253 8.4611ZM9.32093 10.0781C9.32093 6.94668 11.8686 4.39904 15 4.39904C18.1315 4.39904 20.6791 6.94668 20.6791 10.0781C20.6791 11.8614 19.8291 13.5492 18.3991 14.6214H16.5144V12.1483L17.8403 11.0432C18.4415 10.5427 18.7861 9.80667 18.7861 9.02485C18.7861 7.95415 17.9191 7.04928 16.893 7.04928C16.5568 7.04928 16.2347 7.14166 15.9454 7.31317C15.3627 6.97545 14.6381 6.97545 14.055 7.31317C13.7654 7.14166 13.4432 7.04928 13.107 7.04928C12.081 7.04928 11.214 7.95415 11.214 9.02485C11.214 9.80667 11.5585 10.5427 12.1597 11.0436L13.4856 12.1483V14.6214H11.6009C10.1709 13.5492 9.32093 11.8614 9.32093 10.0781ZM12.187 22.6308L12.7284 22.27L13.6541 22.8871C13.7813 22.9719 13.9467 22.9719 14.0739 22.8871L15 22.27L15.9257 22.8871C16.0529 22.9719 16.2184 22.9719 16.3456 22.8871L17.2717 22.27L17.8131 22.6312L16.3577 24.0865H13.6423L12.187 22.6308ZM17.4818 21.4999C17.3546 21.4151 17.1891 21.4151 17.0619 21.4999L16.1358 22.117L15.2101 21.4999C15.0829 21.4151 14.9175 21.4151 14.7903 21.4999L13.8642 22.117L12.9385 21.4999C12.8113 21.4151 12.6458 21.4151 12.5186 21.4999L11.9712 21.8645V19.9219H18.0289V21.8645L17.4818 21.4999ZM15 25.4442L14.3995 24.8438H15.6005L15 25.4442ZM18.4075 19.1647H11.5926C11.384 19.1647 11.214 18.9947 11.214 18.7861C11.214 18.5774 11.384 18.4075 11.5926 18.4075H18.4075C18.6161 18.4075 18.7861 18.5774 18.7861 18.7861C18.7861 18.9947 18.6161 19.1647 18.4075 19.1647Z" stroke="#82868C" stroke-width="0.2" mask="url(#path-1-outside-1_3600_45329)"/>
<path d="M22.3398 3.7172L22.3045 3.68185L22.2691 3.7172L20.7547 5.23169L20.7193 5.26705L20.7547 5.3024L21.2901 5.83782L21.3255 5.87317L21.3608 5.83782L22.8753 4.32333L22.9106 4.28797L22.8753 4.25262L22.3398 3.7172Z" fill="#82868C" stroke="#82868C" stroke-width="0.1"/>
<path d="M21.3608 14.3184L21.3255 14.2831L21.2901 14.3184L20.7547 14.8539L20.7193 14.8892L20.7547 14.9246L22.2692 16.439L22.3045 16.4744L22.3399 16.439L22.8753 15.9036L22.9107 15.8682L22.8753 15.8329L21.3608 14.3184Z" fill="#82868C" stroke="#82868C" stroke-width="0.1"/>
<path d="M24.8937 9.69952V9.64952H24.8437H22.572H22.522V9.69952V10.4567V10.5067H22.572H24.8437H24.8937V10.4567V9.69952Z" fill="#82868C" stroke="#82868C" stroke-width="0.1"/>
<path d="M7.73093 3.71749L7.69558 3.68213L7.66022 3.71749L7.1248 4.25293L7.08945 4.28829L7.1248 4.32364L8.63929 5.83808L8.67465 5.87343L8.71 5.83808L9.24542 5.30264L9.28078 5.26728L9.24542 5.23193L7.73093 3.71749Z" fill="#82868C" stroke="#82868C" stroke-width="0.1"/>
<path d="M8.70995 14.3182L8.67459 14.2828L8.63924 14.3182L7.1248 15.8327L7.08945 15.868L7.1248 15.9034L7.66024 16.4388L7.6956 16.4741L7.73095 16.4388L9.24539 14.9243L9.28074 14.8889L9.24539 14.8536L8.70995 14.3182Z" fill="#82868C" stroke="#82868C" stroke-width="0.1"/>
<path d="M7.47788 9.69952V9.64952H7.42788H5.15625H5.10625V9.69952V10.4567V10.5067H5.15625H7.42788H7.47788V10.4567V9.69952Z" fill="#82868C" stroke="#82868C" stroke-width="0.1"/>
<path d="M20.3504 21.8149V21.7649H20.3004H19.5432H19.4932V21.8149V22.5721V22.6221H19.5432H20.3004H20.3504V22.5721V21.8149Z" fill="#82868C" stroke="#82868C" stroke-width="0.1"/>
<path d="M21.8648 21.8149V21.7649H21.8148H21.0576H21.0076V21.8149V22.5721V22.6221H21.0576H21.8148H21.8648V22.5721V21.8149Z" fill="#82868C" stroke="#82868C" stroke-width="0.1"/>
<path d="M23.3792 21.8149V21.7649H23.3292H22.572H22.522V21.8149V22.5721V22.6221H22.572H23.3292H23.3792V22.5721V21.8149Z" fill="#82868C" stroke="#82868C" stroke-width="0.1"/>
<path d="M7.47787 21.8149V21.7649H7.42787H6.67065H6.62065V21.8149V22.5721V22.6221H6.67065H7.42787H7.47787V22.5721V21.8149Z" fill="#82868C" stroke="#82868C" stroke-width="0.1"/>
<path d="M8.99227 21.8149V21.7649H8.94227H8.18506H8.13506V21.8149V22.5721V22.6221H8.18506H8.94227H8.99227V22.5721V21.8149Z" fill="#82868C" stroke="#82868C" stroke-width="0.1"/>
<path d="M10.5067 21.8149V21.7649H10.4567H9.69946H9.64946V21.8149V22.5721V22.6221H9.69946H10.4567H10.5067V22.5721V21.8149Z" fill="#82868C" stroke="#82868C" stroke-width="0.1"/>
</svg>
