<svg width="30" height="30" viewBox="0 0 30 30" fill="none" xmlns="http://www.w3.org/2000/svg">
<path d="M18.8833 8.32646L15.0494 4.49258L11.2155 8.32646L10.283 7.3939L15.0494 2.57565L19.8159 7.3939L18.8833 8.32646Z" fill="#82868C"/>
<path d="M14.324 3.56003H15.7746V18.5847H14.324V3.56003Z" fill="#82868C"/>
<path d="M22.199 27.2368H7.84787C6.65626 27.2368 5.67188 26.2524 5.67188 25.0608V12.1604C5.67188 10.9687 6.65626 9.98436 7.84787 9.98436H12.8733V11.435H7.84787C7.43339 11.435 7.12254 11.7459 7.12254 12.1604V25.0608C7.12254 25.4753 7.43339 25.7862 7.84787 25.7862H22.199C22.6135 25.7862 22.9243 25.4753 22.9243 25.0608V12.1604C22.9243 11.7459 22.6135 11.435 22.199 11.435H17.1735V9.98436H22.199C23.3906 9.98436 24.375 10.9687 24.375 12.1604V25.0608C24.375 26.2524 23.3906 27.2368 22.199 27.2368Z" fill="#82868C"/>
</svg>
