<svg width="30" height="30" viewBox="0 0 30 30" fill="none" xmlns="http://www.w3.org/2000/svg">
<path d="M8.59928 8.71959C9.24913 8.29442 9.67704 7.57139 9.67704 6.75028C9.67704 5.44154 8.59066 4.38101 7.24951 4.38101C5.90836 4.38101 4.82157 5.44154 4.82157 6.75028C4.82157 7.57139 5.25029 8.29482 5.89974 8.71959C4.2152 9.20522 3 10.542 3 11.8423C3 13.4693 4.90321 13.2616 7.24992 13.2616C9.59745 13.2616 11.4998 13.4697 11.4998 11.8423C11.5002 10.5416 10.2855 9.20482 8.59928 8.71959ZM24.0994 8.71959C24.7493 8.29442 25.1772 7.57139 25.1772 6.75028C25.1772 5.44154 24.0908 4.38101 22.7497 4.38101C21.4085 4.38101 20.3217 5.44194 20.3217 6.75028C20.3217 7.57139 20.7505 8.29482 21.3999 8.71959C19.7154 9.20522 18.5002 10.542 18.5002 11.8423C18.5002 13.4693 20.4034 13.2616 22.7501 13.2616C25.0976 13.2616 27 13.4697 27 11.8423C27 10.5416 25.7852 9.20482 24.0994 8.71959ZM16.4899 20.1267C17.207 19.6571 17.6796 18.8592 17.6796 17.9524C17.6796 16.508 16.48 15.3366 14.9994 15.3366C13.5192 15.3366 12.3191 16.508 12.3191 17.9524C12.3191 18.8592 12.7918 19.6575 13.5093 20.1267C11.6488 20.6628 10.3076 22.1385 10.3076 23.5741C10.3076 25.3705 12.4082 25.1407 14.9998 25.1407C17.5914 25.1407 19.6916 25.3705 19.6916 23.5741C19.692 22.1381 18.3504 20.6624 16.4899 20.1267Z" stroke="#82868C" stroke-width="1.3" stroke-miterlimit="10"/>
<path d="M19.1538 19.6118L23.3077 15.4579" stroke="#82868C" stroke-width="1.3" stroke-miterlimit="10"/>
<path d="M6.69238 15.4579L10.8462 19.6118" stroke="#82868C" stroke-width="1.3" stroke-miterlimit="10"/>
<path d="M11.7693 8.9964H17.7693" stroke="#82868C" stroke-width="1.3" stroke-miterlimit="10"/>
</svg>
