<svg width="30" height="30" viewBox="0 0 30 30" fill="none" xmlns="http://www.w3.org/2000/svg">
<mask id="path-1-outside-1_3600_45320" maskUnits="userSpaceOnUse" x="2.28125" y="2.28125" width="25" height="25" fill="black">
<rect fill="white" x="2.28125" y="2.28125" width="25" height="25"/>
<path d="M15 3.28125C8.53818 3.28125 3.28125 8.53818 3.28125 15C3.28125 21.4618 8.53818 26.7188 15 26.7188C21.4618 26.7188 26.7188 21.4618 26.7188 15C26.7188 8.53818 21.4618 3.28125 15 3.28125ZM25.5968 12.5356L25.1771 12.9746C25.1297 13.0241 25.0745 13.0236 25.0446 13.0194C25.0152 13.0147 24.9617 12.9977 24.9322 12.9358L24.5689 12.1758C24.5207 12.0758 24.4569 11.9851 24.3784 11.9058L23.756 11.2807C23.572 11.0957 23.317 10.9897 23.0558 10.9897H22.8989C22.3541 10.9897 21.911 11.4327 21.911 11.9792C21.911 12.0274 21.8877 12.0732 21.8489 12.1014L21.5096 12.3472C21.2485 12.5365 20.9203 12.5951 20.6092 12.5091C20.2986 12.4228 20.0477 12.2029 19.9214 11.9058L19.5102 10.9373C19.4742 10.8523 19.4264 10.7732 19.3704 10.7044L18.1103 9.13674C18.0343 9.04192 17.9428 8.96304 17.8394 8.90296L16.144 7.90998C15.8967 7.7657 15.5996 7.73505 15.3278 7.82721L13.8 8.34587L12.1864 8.83082C11.9734 8.89437 11.7863 9.02986 11.6604 9.21133L11.5443 9.37707C11.5075 9.43 11.4552 9.44001 11.4274 9.44124C11.4008 9.4394 11.3469 9.43715 11.3052 9.38729L10.8258 8.81243C10.7918 8.77196 10.7816 8.71597 10.7996 8.6659L11.4086 6.95133C11.4237 6.90821 11.4576 6.87469 11.501 6.85957L14.1053 5.94977C14.3003 5.88151 14.4666 5.75624 14.5856 5.58785L15.6125 4.13654C20.4926 4.40875 24.5216 7.91133 25.5968 12.5356ZM7.68495 6.95061L7.94676 7.38866C8.21202 7.83252 8.18995 8.39206 7.89118 8.81386L6.96584 10.1213L5.9044 11.7286C5.89296 11.7456 5.87865 11.7599 5.86108 11.7713L5.47116 12.0254C5.02607 12.3153 4.88996 12.9004 5.16135 13.3576L5.32525 13.6335C5.36367 13.6986 5.34282 13.7559 5.32688 13.7843C5.31135 13.8125 5.27334 13.8603 5.19732 13.8611L4.17655 13.8737C4.45887 11.1408 5.75642 8.7048 7.68495 6.95061ZM4.22871 16.5357L5.26598 16.2041C5.31585 16.1886 5.37102 16.1992 5.41108 16.2341L7.03736 17.652C7.15467 17.7543 7.29649 17.8283 7.44772 17.8661L8.88763 18.2262C8.94648 18.2409 8.97469 18.2824 8.98613 18.3059C8.99798 18.3292 9.01351 18.3766 8.9894 18.4322L8.80098 18.8659C8.69635 19.1064 8.69144 19.3731 8.78586 19.6167L9.0646 20.3348C9.09281 20.4071 9.06174 20.4883 8.99267 20.5236L8.34036 20.8563C8.03954 21.0098 7.83968 21.3022 7.80616 21.6386L7.66733 23.0326C5.84549 21.368 4.59173 19.0934 4.22871 16.5357ZM15 25.8817C12.54 25.8817 10.2688 25.0602 8.44422 23.6784L8.63913 21.7216C8.64403 21.6701 8.67469 21.6255 8.72046 21.602L9.37278 21.2693C9.82564 21.0384 10.0288 20.5067 9.84525 20.0321L9.5661 19.3136C9.5518 19.2766 9.55261 19.2357 9.56855 19.1994L9.75697 18.7661C9.87305 18.4992 9.86569 18.1966 9.73694 17.9356C9.6082 17.6746 9.37278 17.4846 9.09035 17.4141L7.65044 17.054C7.62755 17.0483 7.60589 17.037 7.58791 17.0213L5.96121 15.6031C5.7029 15.3777 5.33996 15.3031 5.01135 15.4067L4.14203 15.6845C4.12788 15.4579 4.1183 15.2301 4.1183 15C4.1183 14.9032 4.12308 14.8076 4.12561 14.7115L5.20754 14.6982C5.56476 14.6939 5.88233 14.5052 6.05726 14.1938C6.23178 13.8822 6.22729 13.5129 6.04459 13.2059L5.8811 12.9303C5.83941 12.8604 5.86026 12.7709 5.92811 12.7267L6.31843 12.4725C6.43287 12.3977 6.52892 12.3023 6.6029 12.1895L7.65657 10.594L8.57455 9.29778C9.0646 8.60561 9.10016 7.68784 8.66529 6.9593L8.33535 6.40717C10.0793 5.05143 12.244 4.21445 14.5985 4.1285L13.9022 5.10474C13.8842 5.12988 13.858 5.1495 13.829 5.15972L11.2247 6.06952C10.9406 6.16864 10.7203 6.38812 10.6198 6.67115L10.0108 8.38552C9.8943 8.71331 9.96051 9.08259 10.1833 9.34907L10.6627 9.92352C10.8613 10.1618 11.1548 10.2895 11.4638 10.2775C11.7736 10.264 12.0536 10.1105 12.2305 9.85629L12.347 9.68994C12.3658 9.66256 12.394 9.64233 12.4267 9.63252L14.055 9.14287L15.5967 8.61992C15.6368 8.605 15.6834 8.61052 15.7214 8.63238L17.4176 9.62577C17.4327 9.63456 17.4462 9.64641 17.458 9.66092L18.7398 11.2643L19.1513 12.2332C19.3778 12.7662 19.8274 13.1606 20.3853 13.3157C20.9436 13.4704 21.5321 13.3643 22.0009 13.0249L22.3402 12.7788C22.5956 12.5937 22.7481 12.2947 22.7481 11.9773C22.7481 11.8944 22.8159 11.8267 22.8989 11.8267H23.0558C23.0959 11.8267 23.1347 11.8429 23.1625 11.8711L23.7846 12.4958C23.7968 12.508 23.8066 12.5224 23.814 12.5375L24.1773 13.2971C24.3175 13.5897 24.5926 13.7949 24.913 13.846C24.9645 13.8542 25.0164 13.8582 25.0683 13.8582C25.3356 13.8582 25.5944 13.7495 25.782 13.5531L25.7825 13.5526C25.8458 14.0265 25.8817 14.509 25.8817 15C25.8817 21.0002 21.0004 25.8817 15 25.8817Z"/>
</mask>
<path d="M15 3.28125C8.53818 3.28125 3.28125 8.53818 3.28125 15C3.28125 21.4618 8.53818 26.7188 15 26.7188C21.4618 26.7188 26.7188 21.4618 26.7188 15C26.7188 8.53818 21.4618 3.28125 15 3.28125ZM25.5968 12.5356L25.1771 12.9746C25.1297 13.0241 25.0745 13.0236 25.0446 13.0194C25.0152 13.0147 24.9617 12.9977 24.9322 12.9358L24.5689 12.1758C24.5207 12.0758 24.4569 11.9851 24.3784 11.9058L23.756 11.2807C23.572 11.0957 23.317 10.9897 23.0558 10.9897H22.8989C22.3541 10.9897 21.911 11.4327 21.911 11.9792C21.911 12.0274 21.8877 12.0732 21.8489 12.1014L21.5096 12.3472C21.2485 12.5365 20.9203 12.5951 20.6092 12.5091C20.2986 12.4228 20.0477 12.2029 19.9214 11.9058L19.5102 10.9373C19.4742 10.8523 19.4264 10.7732 19.3704 10.7044L18.1103 9.13674C18.0343 9.04192 17.9428 8.96304 17.8394 8.90296L16.144 7.90998C15.8967 7.7657 15.5996 7.73505 15.3278 7.82721L13.8 8.34587L12.1864 8.83082C11.9734 8.89437 11.7863 9.02986 11.6604 9.21133L11.5443 9.37707C11.5075 9.43 11.4552 9.44001 11.4274 9.44124C11.4008 9.4394 11.3469 9.43715 11.3052 9.38729L10.8258 8.81243C10.7918 8.77196 10.7816 8.71597 10.7996 8.6659L11.4086 6.95133C11.4237 6.90821 11.4576 6.87469 11.501 6.85957L14.1053 5.94977C14.3003 5.88151 14.4666 5.75624 14.5856 5.58785L15.6125 4.13654C20.4926 4.40875 24.5216 7.91133 25.5968 12.5356ZM7.68495 6.95061L7.94676 7.38866C8.21202 7.83252 8.18995 8.39206 7.89118 8.81386L6.96584 10.1213L5.9044 11.7286C5.89296 11.7456 5.87865 11.7599 5.86108 11.7713L5.47116 12.0254C5.02607 12.3153 4.88996 12.9004 5.16135 13.3576L5.32525 13.6335C5.36367 13.6986 5.34282 13.7559 5.32688 13.7843C5.31135 13.8125 5.27334 13.8603 5.19732 13.8611L4.17655 13.8737C4.45887 11.1408 5.75642 8.7048 7.68495 6.95061ZM4.22871 16.5357L5.26598 16.2041C5.31585 16.1886 5.37102 16.1992 5.41108 16.2341L7.03736 17.652C7.15467 17.7543 7.29649 17.8283 7.44772 17.8661L8.88763 18.2262C8.94648 18.2409 8.97469 18.2824 8.98613 18.3059C8.99798 18.3292 9.01351 18.3766 8.9894 18.4322L8.80098 18.8659C8.69635 19.1064 8.69144 19.3731 8.78586 19.6167L9.0646 20.3348C9.09281 20.4071 9.06174 20.4883 8.99267 20.5236L8.34036 20.8563C8.03954 21.0098 7.83968 21.3022 7.80616 21.6386L7.66733 23.0326C5.84549 21.368 4.59173 19.0934 4.22871 16.5357ZM15 25.8817C12.54 25.8817 10.2688 25.0602 8.44422 23.6784L8.63913 21.7216C8.64403 21.6701 8.67469 21.6255 8.72046 21.602L9.37278 21.2693C9.82564 21.0384 10.0288 20.5067 9.84525 20.0321L9.5661 19.3136C9.5518 19.2766 9.55261 19.2357 9.56855 19.1994L9.75697 18.7661C9.87305 18.4992 9.86569 18.1966 9.73694 17.9356C9.6082 17.6746 9.37278 17.4846 9.09035 17.4141L7.65044 17.054C7.62755 17.0483 7.60589 17.037 7.58791 17.0213L5.96121 15.6031C5.7029 15.3777 5.33996 15.3031 5.01135 15.4067L4.14203 15.6845C4.12788 15.4579 4.1183 15.2301 4.1183 15C4.1183 14.9032 4.12308 14.8076 4.12561 14.7115L5.20754 14.6982C5.56476 14.6939 5.88233 14.5052 6.05726 14.1938C6.23178 13.8822 6.22729 13.5129 6.04459 13.2059L5.8811 12.9303C5.83941 12.8604 5.86026 12.7709 5.92811 12.7267L6.31843 12.4725C6.43287 12.3977 6.52892 12.3023 6.6029 12.1895L7.65657 10.594L8.57455 9.29778C9.0646 8.60561 9.10016 7.68784 8.66529 6.9593L8.33535 6.40717C10.0793 5.05143 12.244 4.21445 14.5985 4.1285L13.9022 5.10474C13.8842 5.12988 13.858 5.1495 13.829 5.15972L11.2247 6.06952C10.9406 6.16864 10.7203 6.38812 10.6198 6.67115L10.0108 8.38552C9.8943 8.71331 9.96051 9.08259 10.1833 9.34907L10.6627 9.92352C10.8613 10.1618 11.1548 10.2895 11.4638 10.2775C11.7736 10.264 12.0536 10.1105 12.2305 9.85629L12.347 9.68994C12.3658 9.66256 12.394 9.64233 12.4267 9.63252L14.055 9.14287L15.5967 8.61992C15.6368 8.605 15.6834 8.61052 15.7214 8.63238L17.4176 9.62577C17.4327 9.63456 17.4462 9.64641 17.458 9.66092L18.7398 11.2643L19.1513 12.2332C19.3778 12.7662 19.8274 13.1606 20.3853 13.3157C20.9436 13.4704 21.5321 13.3643 22.0009 13.0249L22.3402 12.7788C22.5956 12.5937 22.7481 12.2947 22.7481 11.9773C22.7481 11.8944 22.8159 11.8267 22.8989 11.8267H23.0558C23.0959 11.8267 23.1347 11.8429 23.1625 11.8711L23.7846 12.4958C23.7968 12.508 23.8066 12.5224 23.814 12.5375L24.1773 13.2971C24.3175 13.5897 24.5926 13.7949 24.913 13.846C24.9645 13.8542 25.0164 13.8582 25.0683 13.8582C25.3356 13.8582 25.5944 13.7495 25.782 13.5531L25.7825 13.5526C25.8458 14.0265 25.8817 14.509 25.8817 15C25.8817 21.0002 21.0004 25.8817 15 25.8817Z" fill="#82868C"/>
<path d="M15 3.28125C8.53818 3.28125 3.28125 8.53818 3.28125 15C3.28125 21.4618 8.53818 26.7188 15 26.7188C21.4618 26.7188 26.7188 21.4618 26.7188 15C26.7188 8.53818 21.4618 3.28125 15 3.28125ZM25.5968 12.5356L25.1771 12.9746C25.1297 13.0241 25.0745 13.0236 25.0446 13.0194C25.0152 13.0147 24.9617 12.9977 24.9322 12.9358L24.5689 12.1758C24.5207 12.0758 24.4569 11.9851 24.3784 11.9058L23.756 11.2807C23.572 11.0957 23.317 10.9897 23.0558 10.9897H22.8989C22.3541 10.9897 21.911 11.4327 21.911 11.9792C21.911 12.0274 21.8877 12.0732 21.8489 12.1014L21.5096 12.3472C21.2485 12.5365 20.9203 12.5951 20.6092 12.5091C20.2986 12.4228 20.0477 12.2029 19.9214 11.9058L19.5102 10.9373C19.4742 10.8523 19.4264 10.7732 19.3704 10.7044L18.1103 9.13674C18.0343 9.04192 17.9428 8.96304 17.8394 8.90296L16.144 7.90998C15.8967 7.7657 15.5996 7.73505 15.3278 7.82721L13.8 8.34587L12.1864 8.83082C11.9734 8.89437 11.7863 9.02986 11.6604 9.21133L11.5443 9.37707C11.5075 9.43 11.4552 9.44001 11.4274 9.44124C11.4008 9.4394 11.3469 9.43715 11.3052 9.38729L10.8258 8.81243C10.7918 8.77196 10.7816 8.71597 10.7996 8.6659L11.4086 6.95133C11.4237 6.90821 11.4576 6.87469 11.501 6.85957L14.1053 5.94977C14.3003 5.88151 14.4666 5.75624 14.5856 5.58785L15.6125 4.13654C20.4926 4.40875 24.5216 7.91133 25.5968 12.5356ZM7.68495 6.95061L7.94676 7.38866C8.21202 7.83252 8.18995 8.39206 7.89118 8.81386L6.96584 10.1213L5.9044 11.7286C5.89296 11.7456 5.87865 11.7599 5.86108 11.7713L5.47116 12.0254C5.02607 12.3153 4.88996 12.9004 5.16135 13.3576L5.32525 13.6335C5.36367 13.6986 5.34282 13.7559 5.32688 13.7843C5.31135 13.8125 5.27334 13.8603 5.19732 13.8611L4.17655 13.8737C4.45887 11.1408 5.75642 8.7048 7.68495 6.95061ZM4.22871 16.5357L5.26598 16.2041C5.31585 16.1886 5.37102 16.1992 5.41108 16.2341L7.03736 17.652C7.15467 17.7543 7.29649 17.8283 7.44772 17.8661L8.88763 18.2262C8.94648 18.2409 8.97469 18.2824 8.98613 18.3059C8.99798 18.3292 9.01351 18.3766 8.9894 18.4322L8.80098 18.8659C8.69635 19.1064 8.69144 19.3731 8.78586 19.6167L9.0646 20.3348C9.09281 20.4071 9.06174 20.4883 8.99267 20.5236L8.34036 20.8563C8.03954 21.0098 7.83968 21.3022 7.80616 21.6386L7.66733 23.0326C5.84549 21.368 4.59173 19.0934 4.22871 16.5357ZM15 25.8817C12.54 25.8817 10.2688 25.0602 8.44422 23.6784L8.63913 21.7216C8.64403 21.6701 8.67469 21.6255 8.72046 21.602L9.37278 21.2693C9.82564 21.0384 10.0288 20.5067 9.84525 20.0321L9.5661 19.3136C9.5518 19.2766 9.55261 19.2357 9.56855 19.1994L9.75697 18.7661C9.87305 18.4992 9.86569 18.1966 9.73694 17.9356C9.6082 17.6746 9.37278 17.4846 9.09035 17.4141L7.65044 17.054C7.62755 17.0483 7.60589 17.037 7.58791 17.0213L5.96121 15.6031C5.7029 15.3777 5.33996 15.3031 5.01135 15.4067L4.14203 15.6845C4.12788 15.4579 4.1183 15.2301 4.1183 15C4.1183 14.9032 4.12308 14.8076 4.12561 14.7115L5.20754 14.6982C5.56476 14.6939 5.88233 14.5052 6.05726 14.1938C6.23178 13.8822 6.22729 13.5129 6.04459 13.2059L5.8811 12.9303C5.83941 12.8604 5.86026 12.7709 5.92811 12.7267L6.31843 12.4725C6.43287 12.3977 6.52892 12.3023 6.6029 12.1895L7.65657 10.594L8.57455 9.29778C9.0646 8.60561 9.10016 7.68784 8.66529 6.9593L8.33535 6.40717C10.0793 5.05143 12.244 4.21445 14.5985 4.1285L13.9022 5.10474C13.8842 5.12988 13.858 5.1495 13.829 5.15972L11.2247 6.06952C10.9406 6.16864 10.7203 6.38812 10.6198 6.67115L10.0108 8.38552C9.8943 8.71331 9.96051 9.08259 10.1833 9.34907L10.6627 9.92352C10.8613 10.1618 11.1548 10.2895 11.4638 10.2775C11.7736 10.264 12.0536 10.1105 12.2305 9.85629L12.347 9.68994C12.3658 9.66256 12.394 9.64233 12.4267 9.63252L14.055 9.14287L15.5967 8.61992C15.6368 8.605 15.6834 8.61052 15.7214 8.63238L17.4176 9.62577C17.4327 9.63456 17.4462 9.64641 17.458 9.66092L18.7398 11.2643L19.1513 12.2332C19.3778 12.7662 19.8274 13.1606 20.3853 13.3157C20.9436 13.4704 21.5321 13.3643 22.0009 13.0249L22.3402 12.7788C22.5956 12.5937 22.7481 12.2947 22.7481 11.9773C22.7481 11.8944 22.8159 11.8267 22.8989 11.8267H23.0558C23.0959 11.8267 23.1347 11.8429 23.1625 11.8711L23.7846 12.4958C23.7968 12.508 23.8066 12.5224 23.814 12.5375L24.1773 13.2971C24.3175 13.5897 24.5926 13.7949 24.913 13.846C24.9645 13.8542 25.0164 13.8582 25.0683 13.8582C25.3356 13.8582 25.5944 13.7495 25.782 13.5531L25.7825 13.5526C25.8458 14.0265 25.8817 14.509 25.8817 15C25.8817 21.0002 21.0004 25.8817 15 25.8817Z" stroke="#82868C" stroke-width="0.3" mask="url(#path-1-outside-1_3600_45320)"/>
<path d="M19.6561 14.6717L19.6562 14.6717C19.9921 14.7781 20.2542 15.04 20.3562 15.3737C20.3562 15.3737 20.3562 15.3737 20.3562 15.3737L19.6561 14.6717ZM19.6561 14.6717L19.2265 14.536M19.6561 14.6717L19.2265 14.536M17.5449 11.9534L19.1199 14.5416C19.1389 14.5731 19.1686 14.5963 19.2038 14.6075L17.5449 11.9534ZM17.5449 11.9534C17.4292 11.7635 17.2498 11.6161 17.0391 11.5383M17.5449 11.9534L17.0391 11.5383M19.2265 14.536C19.2084 14.5302 19.1935 14.5185 19.1841 14.5029L19.1839 14.5026L17.609 11.9144L17.609 11.9144C17.4844 11.7099 17.2916 11.5516 17.0651 11.4679C17.0651 11.4679 17.0651 11.4679 17.0651 11.4679L16.0779 11.1029L19.2265 14.536ZM17.0391 11.5383L16.0518 11.1732M17.0391 11.5383L14.8616 11.4354M14.8616 11.4354L15.1984 11.2429C15.4592 11.0941 15.7704 11.0687 16.0518 11.1732M14.8616 11.4354C14.8058 11.4677 14.7355 11.4612 14.6859 11.4194L14.8616 11.4354ZM16.0518 11.1732L16.0778 11.1028M16.0518 11.1732L16.0778 11.1028M16.0778 11.1028C15.7756 10.9907 15.4413 11.018 15.1612 11.1778L15.1612 11.1778L14.8244 11.3703L14.824 11.3705C14.7959 11.3868 14.7601 11.3838 14.7343 11.3621L14.2108 10.9191L14.2107 10.9191C13.9946 10.7366 13.7098 10.643 13.4251 10.6675C13.425 10.6675 13.4249 10.6675 13.4248 10.6675L11.8525 10.7917M16.0778 11.1028L11.8525 10.7917M12.6638 16.4478L11.5604 15.857C10.3194 15.1931 9.84455 13.6524 10.5021 12.4224L11.0542 11.3887L12.6638 16.4478ZM12.6638 16.4478C12.694 16.4638 12.7176 16.4895 12.7312 16.5197L12.6638 16.4478ZM11.8525 10.7917C11.8525 10.7917 11.8525 10.7917 11.8525 10.7917C11.484 10.8207 11.1602 11.0303 10.988 11.3534M11.8525 10.7917L10.988 11.3534M10.988 11.3534L10.4359 12.387C10.4359 12.387 10.4359 12.387 10.4359 12.387C9.75859 13.6542 10.2481 15.24 11.525 15.9232C11.525 15.9232 11.525 15.9232 11.525 15.9232L12.6284 16.5139L12.6286 16.514C12.6439 16.5221 12.6559 16.5351 12.6628 16.5505C12.6628 16.5505 12.6628 16.5505 12.6628 16.5505L13.1531 17.6517C13.1531 17.6518 13.1531 17.6518 13.1532 17.6519C13.2066 17.7735 13.2823 17.883 13.3783 17.9772L13.8783 18.4692L13.8785 18.4694C13.8985 18.489 13.9056 18.5173 13.8982 18.5426C13.8982 18.5427 13.8982 18.5427 13.8982 18.5427L13.5908 19.5836C13.5908 19.5836 13.5908 19.5837 13.5908 19.5837L13.5908 19.5837L13.6627 19.605M10.988 11.3534L14.4173 22.0782L14.4173 22.0783C14.6053 22.5056 14.9703 22.8348 15.4185 22.9817L15.4418 22.9104C15.0137 22.7701 14.6653 22.4556 14.4859 22.0481L13.7049 20.2695M13.6627 19.605C13.5974 19.8243 13.6127 20.0605 13.7049 20.2695M13.6627 19.605L13.9702 18.5638L13.6627 19.605ZM13.7049 20.2695L13.6362 20.2997L13.6362 20.2998L13.7049 20.2695ZM17.7053 20.9163L17.7053 20.9164L17.6466 21.8082L17.7053 20.9163ZM17.7053 20.9163C17.7069 20.8915 17.7223 20.8676 17.7463 20.8553L17.7464 20.8553M17.7053 20.9163L17.7464 20.8553M17.7464 20.8553L18.418 20.5121C18.7749 20.3298 18.9973 19.9703 18.9973 19.5735V17.8027C18.9973 17.7857 19.0031 17.7696 19.0135 17.757L19.014 17.7565M17.7464 20.8553L19.014 17.7565M19.014 17.7565L20.1657 16.34L19.014 17.7565ZM19.3886 15.725L19.3887 15.7247C19.4105 15.6982 19.407 15.6725 19.4024 15.6576C19.3976 15.6422 19.3858 15.6182 19.3522 15.6076L18.922 15.4716L18.9219 15.4715C18.6731 15.3925 18.4627 15.228 18.3292 15.0075L16.7543 12.4201L16.7542 12.4198C16.7454 12.4053 16.7322 12.3943 16.7152 12.3881L16.7151 12.388L15.7281 12.0228C15.728 12.0228 15.728 12.0228 15.728 12.0228C15.7048 12.0144 15.6806 12.0166 15.6608 12.028L15.6604 12.0283L15.3237 12.2205L15.3236 12.2206L15.2864 12.1554L19.3886 15.725ZM19.3886 15.725L18.2368 17.1412C18.2368 17.1412 18.2368 17.1412 18.2368 17.1412C18.0846 17.328 18.001 17.5628 18.001 17.8027V19.5735C18.001 19.601 17.9857 19.6264 17.9598 19.6396L17.9596 19.6396L17.288 19.9828L17.3222 20.0496C17.0135 20.2073 16.8076 20.5173 16.7857 20.8582L16.7109 20.8533L16.7109 20.8534L16.6522 21.7449C16.6506 21.7696 16.6366 21.7922 16.6141 21.8049L16.2749 21.9959L16.3117 22.0613L16.2749 21.9959C16.108 22.0899 15.9154 22.1094 15.7327 22.049L15.7325 22.0489C15.5495 21.989 15.4075 21.8608 15.3315 21.6876L15.3315 21.6876L14.5502 19.9088C14.5502 19.9088 14.5502 19.9087 14.5502 19.9087C14.5434 19.893 14.5423 19.8759 14.5471 19.8593L14.855 18.8168L14.855 18.8166C14.9637 18.4462 14.8594 18.0466 14.5823 17.7738L14.5823 17.7738L14.0819 17.2815C14.0751 17.2748 14.0701 17.2676 14.0659 17.2584C14.0659 17.2583 14.0659 17.2583 14.0659 17.2582L13.575 16.1555L19.3886 15.725ZM11.317 12.8452L11.8689 11.8119L13.575 16.1555C13.4801 15.9416 13.3129 15.7627 13.1043 15.6507L13.1042 15.6507L12 15.0595L12 15.0595C11.1995 14.6311 10.8938 13.6373 11.317 12.8452L11.317 12.8452Z" fill="#82868C" stroke="#82868C" stroke-width="0.15"/>
</svg>
