<svg width="48" height="48" viewBox="0 0 48 48" fill="none" xmlns="http://www.w3.org/2000/svg">
<path d="M23.8981 29.0792C30.7604 29.0792 36.6199 30.1672 36.6199 34.5207C36.6199 38.8724 30.798 40 23.8981 40C17.0357 40 11.1762 38.9121 11.1762 34.5603C11.1762 30.2068 16.9981 29.0792 23.8981 29.0792ZM34.8701 26.4578C37.4937 26.4091 40.3142 26.7694 41.3564 27.0251C43.5645 27.4592 45.0168 28.3454 45.6186 29.6333C46.1271 30.6906 46.1271 31.9172 45.6186 32.9727C44.6981 34.9703 41.7307 35.6115 40.5774 35.7772C40.3393 35.8133 40.1476 35.6061 40.1727 35.3666C40.7619 29.8314 36.0754 27.2071 34.863 26.6037C34.811 26.5766 34.8003 26.5352 34.8057 26.51C34.8093 26.492 34.8307 26.4632 34.8701 26.4578ZM12.6372 26.454L13.1312 26.4585C13.1706 26.4639 13.1903 26.4927 13.1939 26.5089C13.1992 26.5359 13.1885 26.5756 13.1384 26.6044C11.9242 27.2078 7.23766 29.8321 7.82683 35.3655C7.8519 35.6068 7.66208 35.8122 7.4239 35.778C6.27062 35.6122 3.30326 34.971 2.38278 32.9735C1.87241 31.9162 1.87241 30.6913 2.38278 29.634C2.9845 28.3461 4.43505 27.46 6.64311 27.0241C7.68715 26.7701 10.5059 26.4098 13.1312 26.4585L12.6372 26.454ZM23.8981 8C28.5703 8 32.3166 11.7645 32.3166 16.4657C32.3166 21.1651 28.5703 24.9332 23.8981 24.9332C19.2258 24.9332 15.4795 21.1651 15.4795 16.4657C15.4795 11.7645 19.2258 8 23.8981 8ZM35.3268 9.41179C39.8396 9.41179 43.3836 13.6825 42.1766 18.4395C41.3618 21.642 38.4124 23.7693 35.1262 23.6828C34.7967 23.6738 34.4726 23.6432 34.1592 23.5891C33.9318 23.5495 33.8172 23.2919 33.9461 23.101C35.1997 21.2458 35.9142 19.0141 35.9142 16.6184C35.9142 14.1184 35.1334 11.7876 33.7778 9.8765C33.7348 9.81706 33.7025 9.7252 33.7455 9.65676C33.7813 9.60092 33.8476 9.5721 33.9103 9.55769C34.3669 9.46403 34.8361 9.41179 35.3268 9.41179ZM12.6719 9.41161C13.1625 9.41161 13.6317 9.46385 14.0902 9.55751C14.1511 9.57192 14.2191 9.60254 14.2549 9.65658C14.2961 9.72502 14.2657 9.81688 14.2227 9.87632C12.8671 11.7874 12.0863 14.1182 12.0863 16.6183C12.0863 19.0139 12.8008 21.2456 14.0544 23.1008C14.1833 23.2918 14.0687 23.5493 13.8413 23.589C13.5261 23.6448 13.2037 23.6736 12.8742 23.6826C9.58809 23.7691 6.63863 21.6419 5.82382 18.4393C4.61502 13.6823 8.15903 9.41161 12.6719 9.41161Z" fill="#C02445"/>
</svg>
