<svg width="48" height="48" viewBox="0 0 48 48" fill="none" xmlns="http://www.w3.org/2000/svg">
<path d="M33.3306 4.02067C36.2076 3.84086 39.0447 4.83982 41.1825 6.7978C43.1405 8.93559 44.1395 11.7727 43.9797 14.6697V33.3303C44.1595 36.2273 43.1405 39.0644 41.2025 41.2022C39.0647 43.1602 36.2076 44.1591 33.3306 43.9793H14.6697C11.7727 44.1591 8.93563 43.1602 6.79782 41.2022C4.83983 39.0644 3.84086 36.2273 4.02067 33.3303V14.6697C3.84086 11.7727 4.83983 8.93559 6.79782 6.7978C8.93563 4.83982 11.7727 3.84086 14.6697 4.02067H33.3306ZM32.8111 13.1512C31.5724 11.9125 29.5744 11.9125 28.3357 13.1512L26.9971 14.5098C26.7973 14.7096 26.7973 15.0493 26.9971 15.2491C26.9971 15.2491 27.0363 15.288 27.1061 15.3574L27.5975 15.8462C27.8818 16.129 28.2366 16.4822 28.5929 16.8374L29.8011 18.045C30.0532 18.2982 30.2204 18.4679 30.2338 18.4857C30.4535 18.7255 30.5934 19.0451 30.5934 19.4048C30.5934 20.124 30.014 20.7234 29.2747 20.7234C28.9351 20.7234 28.6154 20.5835 28.3956 20.3638L25.0591 17.0472C24.8992 16.8874 24.6195 16.8874 24.4597 17.0472L14.9295 26.5773C14.2701 27.2367 13.8905 28.1157 13.8706 29.0548L13.7507 33.7899C13.7507 34.0496 13.8306 34.2894 14.0104 34.4692C14.1902 34.649 14.43 34.7489 14.6897 34.7489H19.3849C20.3439 34.7489 21.263 34.3693 21.9623 33.69L35.4084 20.2039C36.6272 18.9652 36.6272 16.9673 35.4084 15.7485L32.8111 13.1512Z" fill="#C02445"/>
</svg>
