<svg width="48" height="48" viewBox="0 0 48 48" fill="none" xmlns="http://www.w3.org/2000/svg">
<path d="M37.1223 28.0391C40.9222 28.0391 44 31.0651 44 34.7984C44 38.5296 40.9222 41.5556 37.1223 41.5556C33.3245 41.5556 30.2445 38.5296 30.2445 34.7984C30.2445 31.0651 33.3245 28.0391 37.1223 28.0391ZM20.1666 31.9159C21.831 31.9159 23.1821 33.2433 23.1821 34.8786C23.1821 36.5116 21.831 37.8412 20.1666 37.8412H7.01554C5.3511 37.8412 4 36.5116 4 34.8786C4 33.2433 5.3511 31.9159 7.01554 31.9159H20.1666ZM10.8777 6C14.6777 6 17.7555 9.02597 17.7555 12.7571C17.7555 16.4905 14.6777 19.5164 10.8777 19.5164C7.07998 19.5164 4 16.4905 4 12.7571C4 9.02597 7.07998 6 10.8777 6ZM40.9867 9.79665C42.6489 9.79665 44 11.1241 44 12.7571C44 14.3924 42.6489 15.7198 40.9867 15.7198H27.8356C26.1712 15.7198 24.8201 14.3924 24.8201 12.7571C24.8201 11.1241 26.1712 9.79665 27.8356 9.79665H40.9867Z" fill="#C02445"/>
</svg>
