<svg width="24" height="24" viewBox="0 0 24 24" fill="none" xmlns="http://www.w3.org/2000/svg">
<path d="M6.87001 6.87C6.00764 7.57873 5.30314 8.46008 4.80179 9.45739C4.30044 10.4547 4.01335 11.5459 3.95896 12.6608C3.90458 13.7757 4.08412 14.8896 4.48602 15.931C4.88793 16.9724 5.50331 17.9181 6.29261 18.7074C7.0819 19.4967 8.02764 20.1121 9.069 20.514C10.1104 20.9159 11.2243 21.0954 12.3392 21.041C13.4541 20.9867 14.5453 20.6996 15.5426 20.1982C16.5399 19.6969 17.4213 18.9924 18.13 18.13" stroke="#CBCBCB" stroke-width="2" stroke-linecap="round" stroke-linejoin="round"/>
<path d="M19.9 14.25C19.9685 13.8368 20.0019 13.4187 20 13C20 10.8782 19.1571 8.84339 17.6569 7.3431C16.1566 5.84281 14.1217 4.99995 12 4.99995C11.5813 4.99805 11.1631 5.0315 10.75 5.09995" stroke="#CBCBCB" stroke-width="2" stroke-linecap="round" stroke-linejoin="round"/>
<path d="M22 6L19 3" stroke="#CBCBCB" stroke-width="2" stroke-linecap="round" stroke-linejoin="round"/>
<path d="M6 19L4 21" stroke="#CBCBCB" stroke-width="2" stroke-linecap="round" stroke-linejoin="round"/>
<path d="M2 2L22 22" stroke="#CBCBCB" stroke-width="2" stroke-linecap="round" stroke-linejoin="round"/>
<path d="M4 4L2 6" stroke="#CBCBCB" stroke-width="2" stroke-linecap="round" stroke-linejoin="round"/>
</svg>
