<svg width="24" height="24" viewBox="0 0 24 24" fill="none" xmlns="http://www.w3.org/2000/svg">
<path d="M17 15H7C5.89543 15 5 15.8954 5 17V19C5 20.1046 5.89543 21 7 21H17C18.1046 21 19 20.1046 19 19V17C19 15.8954 18.1046 15 17 15Z" stroke="#CBCBCB" stroke-width="2" stroke-linecap="round" stroke-linejoin="round"/>
<path d="M15 3H9C7.89543 3 7 3.89543 7 5V7C7 8.10457 7.89543 9 9 9H15C16.1046 9 17 8.10457 17 7V5C17 3.89543 16.1046 3 15 3Z" stroke="#CBCBCB" stroke-width="2" stroke-linecap="round" stroke-linejoin="round"/>
<path d="M2 21H22" stroke="#CBCBCB" stroke-width="2" stroke-linecap="round" stroke-linejoin="round"/>
<path d="M2 3H22" stroke="#CBCBCB" stroke-width="2" stroke-linecap="round" stroke-linejoin="round"/>
</svg>
