<svg width="24" height="24" viewBox="0 0 24 24" fill="none" xmlns="http://www.w3.org/2000/svg">
<path d="M8 5H6C4.89543 5 4 5.89543 4 7V17C4 18.1046 4.89543 19 6 19H8C9.10457 19 10 18.1046 10 17V7C10 5.89543 9.10457 5 8 5Z" stroke="#CBCBCB" stroke-width="2" stroke-linecap="round" stroke-linejoin="round"/>
<path d="M18 7H16C14.8954 7 14 7.89543 14 9V15C14 16.1046 14.8954 17 16 17H18C19.1046 17 20 16.1046 20 15V9C20 7.89543 19.1046 7 18 7Z" stroke="#CBCBCB" stroke-width="2" stroke-linecap="round" stroke-linejoin="round"/>
<path d="M4 2V22" stroke="#CBCBCB" stroke-width="2" stroke-linecap="round" stroke-linejoin="round"/>
<path d="M14 2V22" stroke="#CBCBCB" stroke-width="2" stroke-linecap="round" stroke-linejoin="round"/>
</svg>
