<svg width="24" height="24" viewBox="0 0 24 24" fill="none" xmlns="http://www.w3.org/2000/svg">
<path d="M6 5H4C2.89543 5 2 5.89543 2 7V17C2 18.1046 2.89543 19 4 19H6C7.10457 19 8 18.1046 8 17V7C8 5.89543 7.10457 5 6 5Z" stroke="#CBCBCB" stroke-width="2" stroke-linecap="round" stroke-linejoin="round"/>
<path d="M16 7H14C12.8954 7 12 7.89543 12 9V15C12 16.1046 12.8954 17 14 17H16C17.1046 17 18 16.1046 18 15V9C18 7.89543 17.1046 7 16 7Z" stroke="#CBCBCB" stroke-width="2" stroke-linecap="round" stroke-linejoin="round"/>
<path d="M22 2V22" stroke="#CBCBCB" stroke-width="2" stroke-linecap="round" stroke-linejoin="round"/>
</svg>
