<svg width="24" height="24" viewBox="0 0 24 24" fill="none" xmlns="http://www.w3.org/2000/svg">
<path d="M10 5H8C6.89543 5 6 5.89543 6 7V17C6 18.1046 6.89543 19 8 19H10C11.1046 19 12 18.1046 12 17V7C12 5.89543 11.1046 5 10 5Z" stroke="#CBCBCB" stroke-width="2" stroke-linecap="round" stroke-linejoin="round"/>
<path d="M20 7H18C16.8954 7 16 7.89543 16 9V15C16 16.1046 16.8954 17 18 17H20C21.1046 17 22 16.1046 22 15V9C22 7.89543 21.1046 7 20 7Z" stroke="#CBCBCB" stroke-width="2" stroke-linecap="round" stroke-linejoin="round"/>
<path d="M2 2V22" stroke="#CBCBCB" stroke-width="2" stroke-linecap="round" stroke-linejoin="round"/>
</svg>
