<svg width="24" height="24" viewBox="0 0 24 24" fill="none" xmlns="http://www.w3.org/2000/svg">
<path d="M11 22C15.9706 22 20 17.9706 20 13C20 8.02944 15.9706 4 11 4C6.02944 4 2 8.02944 2 13C2 17.9706 6.02944 22 11 22Z" stroke="#CBCBCB" stroke-width="2" stroke-linecap="round" stroke-linejoin="round"/>
<path d="M19.5 9.50005L21.3 7.70005C21.5237 7.47708 21.7013 7.21214 21.8224 6.92041C21.9435 6.62869 22.0059 6.31592 22.0059 6.00005C22.0059 5.68417 21.9435 5.37141 21.8224 5.07968C21.7013 4.78796 21.5237 4.52301 21.3 4.30005L19.7 2.70005C19.2484 2.2506 18.6372 1.99829 18 1.99829C17.3628 1.99829 16.7516 2.2506 16.3 2.70005L14.5 4.50005" stroke="#CBCBCB" stroke-width="2" stroke-linecap="round" stroke-linejoin="round"/>
<path d="M22 2L20.5 3.5" stroke="#CBCBCB" stroke-width="2" stroke-linecap="round" stroke-linejoin="round"/>
</svg>
