<svg width="24" height="24" viewBox="0 0 24 24" fill="none" xmlns="http://www.w3.org/2000/svg">
<path d="M18.6 9.82C18.08 9.61 17.45 9.57 17.06 9.97L9.98996 17.03C9.59996 17.42 9.62996 18.06 9.83996 18.57C9.95996 18.87 9.99996 19.17 9.99996 19.5C9.99996 20.163 9.73657 20.7989 9.26773 21.2678C8.79889 21.7366 8.163 22 7.49996 22C6.83692 22 6.20104 21.7366 5.7322 21.2678C5.26336 20.7989 4.99996 20.163 4.99996 19.5C4.99996 19.24 4.75996 19 4.49996 19C4.13272 18.9957 3.77092 18.9106 3.4403 18.7507C3.10968 18.5908 2.81836 18.36 2.58705 18.0747C2.35574 17.7894 2.19013 17.4567 2.10199 17.1001C2.01385 16.7436 2.00535 16.372 2.07709 16.0118C2.14883 15.6516 2.29905 15.3117 2.51707 15.0161C2.73508 14.7206 3.01554 14.4767 3.3385 14.3018C3.66146 14.1269 4.01898 14.0253 4.38565 14.0043C4.75231 13.9832 5.11911 14.0432 5.45996 14.18C5.95996 14.39 6.59996 14.43 6.98996 14.03L14.06 6.97C14.45 6.58 14.42 5.94 14.21 5.43C14.09 5.13 14 4.83 14 4.5C14 3.83696 14.2634 3.20107 14.7322 2.73223C15.201 2.26339 15.8369 2 16.5 2C17.163 2 17.7989 2.26339 18.2677 2.73223C18.7366 3.20107 19 3.83696 19 4.5C19.01 4.76 19.24 4.99 19.5 5C19.8697 4.99542 20.2359 5.07292 20.5721 5.22693C20.9083 5.38094 21.2061 5.60761 21.4442 5.89061C21.6822 6.17361 21.8545 6.5059 21.9486 6.86351C22.0427 7.22113 22.0563 7.59517 21.9885 7.95868C21.9206 8.32219 21.7729 8.66612 21.5561 8.96568C21.3393 9.26523 21.0587 9.51295 20.7346 9.69099C20.4104 9.86903 20.0509 9.97295 19.6818 9.99525C19.3126 10.0176 18.9432 9.95771 18.6 9.82V9.82Z" stroke="#CBCBCB" stroke-width="2" stroke-linecap="round" stroke-linejoin="round"/>
</svg>
