<svg width="24" height="24" viewBox="0 0 24 24" fill="none" xmlns="http://www.w3.org/2000/svg">
<path d="M14 5.256C13.3465 5.08819 12.6747 5.0022 12 5C11.327 5.00098 10.6561 5.07712 10 5.227M20.098 10C20.67 11.068 21 12.24 21 13.444C21 17.89 16.97 21 12 21C7.03 21 3 18 3 13.444C3 12.193 3.288 11.034 3.792 10" stroke="#CBCBCB" stroke-width="2" stroke-linecap="round" stroke-linejoin="round"/>
<path d="M3.75006 9.99998C3.75006 9.99998 2.11006 3.57998 3.50006 2.99998C4.89006 2.41998 8.00006 2.99998 9.78106 4.99998" stroke="#CBCBCB" stroke-width="2" stroke-linecap="round" stroke-linejoin="round"/>
<path d="M20.172 10.0019C20.172 10.0019 21.812 3.58193 20.422 3.00193C19.032 2.42193 15.922 3.00193 14.14 5.00193" stroke="#CBCBCB" stroke-width="2" stroke-linecap="round" stroke-linejoin="round"/>
<path d="M8 14V14.5" stroke="#CBCBCB" stroke-width="2" stroke-linecap="round" stroke-linejoin="round"/>
<path d="M16 14V14.5" stroke="#CBCBCB" stroke-width="2" stroke-linecap="round" stroke-linejoin="round"/>
<path d="M11.25 16.25H12.75L12 17L11.25 16.25Z" stroke="#CBCBCB" stroke-width="2" stroke-linecap="round" stroke-linejoin="round"/>
</svg>
