<svg width="24" height="24" viewBox="0 0 24 24" fill="none" xmlns="http://www.w3.org/2000/svg">
<path d="M6.00007 13.8699C4.98603 13.6522 4.09621 13.0491 3.51832 12.1878C2.94043 11.3266 2.71964 10.2745 2.90255 9.25364C3.08546 8.23274 3.65775 7.32279 4.4987 6.71576C5.33965 6.10872 6.38351 5.85205 7.41007 5.9999C7.6627 5.42654 8.01862 4.90453 8.46007 4.4599C8.92453 3.99427 9.47629 3.62484 10.0837 3.37278C10.6912 3.12071 11.3424 2.99097 12.0001 2.99097C12.6577 2.99097 13.309 3.12071 13.9164 3.37278C14.5239 3.62484 15.0756 3.99427 15.5401 4.4599C15.9815 4.90453 16.3374 5.42654 16.5901 5.9999C17.6166 5.85205 18.6605 6.10872 19.5014 6.71576C20.3424 7.32279 20.9147 8.23274 21.0976 9.25364C21.2805 10.2745 21.0597 11.3266 20.4818 12.1878C19.9039 13.0491 19.0141 13.6522 18.0001 13.8699V20.9999H6.00007V13.8699Z" stroke="#CBCBCB" stroke-width="2" stroke-linecap="round" stroke-linejoin="round"/>
<path d="M6 17H18" stroke="#CBCBCB" stroke-width="2" stroke-linecap="round" stroke-linejoin="round"/>
</svg>
