<svg width="24" height="24" viewBox="0 0 24 24" fill="none" xmlns="http://www.w3.org/2000/svg">
<path d="M12 2V4" stroke="#CBCBCB" stroke-width="2" stroke-linecap="round" stroke-linejoin="round"/>
<path d="M4.93005 4.92993L6.34005 6.33993" stroke="#CBCBCB" stroke-width="2" stroke-linecap="round" stroke-linejoin="round"/>
<path d="M20 12H22" stroke="#CBCBCB" stroke-width="2" stroke-linecap="round" stroke-linejoin="round"/>
<path d="M19.07 4.92993L17.66 6.33993" stroke="#CBCBCB" stroke-width="2" stroke-linecap="round" stroke-linejoin="round"/>
<path d="M15.947 12.6501C16.07 11.9046 15.9794 11.1395 15.6857 10.4433C15.3919 9.74717 14.9069 9.14847 14.287 8.71654C13.667 8.28461 12.9374 8.03711 12.1826 8.00269C11.4278 7.96827 10.6787 8.14835 10.022 8.52206" stroke="#CBCBCB" stroke-width="2" stroke-linecap="round" stroke-linejoin="round"/>
<path d="M2.99994 20.0001C2.55048 19.4002 2.24164 18.707 2.09627 17.9716C1.9509 17.2363 1.97273 16.4777 2.16012 15.7519C2.34752 15.0261 2.6957 14.3518 3.1789 13.7788C3.6621 13.2057 4.26796 12.7487 4.95165 12.4414C5.63534 12.1341 6.37937 11.9845 7.1287 12.0036C7.87803 12.0227 8.61347 12.21 9.28063 12.5517C9.94778 12.8934 10.5296 13.3807 10.983 13.9776C11.4364 14.5745 11.7497 15.2657 11.8999 16.0001H12.9999C13.6084 15.9992 14.2027 16.1833 14.7041 16.5281C15.2055 16.8728 15.5902 17.3619 15.8071 17.9303C16.0241 18.4988 16.0631 19.1198 15.9189 19.7109C15.7748 20.302 15.4543 20.8353 14.9999 21.2401" stroke="#CBCBCB" stroke-width="2" stroke-linecap="round" stroke-linejoin="round"/>
<path d="M11 20V22" stroke="#CBCBCB" stroke-width="2" stroke-linecap="round" stroke-linejoin="round"/>
<path d="M7 19V21" stroke="#CBCBCB" stroke-width="2" stroke-linecap="round" stroke-linejoin="round"/>
</svg>
