<svg width="24" height="24" viewBox="0 0 24 24" fill="none" xmlns="http://www.w3.org/2000/svg">
<path d="M16.2 3.7999C15.694 3.29611 15.009 3.01327 14.295 3.01327C13.581 3.01327 12.896 3.29611 12.39 3.7999L11.99 4.1799L11.59 3.7799C11.3393 3.52894 11.0415 3.32986 10.7138 3.19403C10.3861 3.05819 10.0348 2.98828 9.68001 2.98828C9.32525 2.98828 8.97397 3.05819 8.64624 3.19403C8.31851 3.32986 8.02076 3.52894 7.77001 3.7799C6.73001 4.8499 6.67001 6.6399 8.00001 7.9999L12 11.9999L16 7.9999C17.33 6.6399 17.27 4.8499 16.2 3.7999Z" stroke="#CBCBCB" stroke-width="2" stroke-linecap="round" stroke-linejoin="round"/>
<path d="M8.00003 8.00003C6.64003 6.67003 4.85003 6.73003 3.80003 7.80003C3.29624 8.30604 3.01339 8.991 3.01339 9.70503C3.01339 10.4191 3.29624 11.104 3.80003 11.61L4.18003 12.01L3.78003 12.41C3.52907 12.6608 3.32998 12.9585 3.19415 13.2863C3.05832 13.614 2.9884 13.9653 2.9884 14.32C2.9884 14.6748 3.05832 15.0261 3.19415 15.3538C3.32998 15.6815 3.52907 15.9793 3.78003 16.23C4.85003 17.27 6.64003 17.33 8.00003 16" stroke="#CBCBCB" stroke-width="2" stroke-linecap="round" stroke-linejoin="round"/>
<path d="M16 16C17.36 17.33 19.15 17.27 20.2 16.2C20.7038 15.694 20.9866 15.009 20.9866 14.295C20.9866 13.581 20.7038 12.896 20.2 12.39L19.82 11.99L20.22 11.59C20.471 11.3393 20.67 11.0415 20.8059 10.7138C20.9417 10.3861 21.0116 10.0348 21.0116 9.68001C21.0116 9.32525 20.9417 8.97397 20.8059 8.64624C20.67 8.31851 20.471 8.02076 20.22 7.77001C19.15 6.73001 17.36 6.67001 16 8.00001" stroke="#CBCBCB" stroke-width="2" stroke-linecap="round" stroke-linejoin="round"/>
<path d="M7.80005 20.2C8.30606 20.7038 8.99102 20.9866 9.70505 20.9866C10.4191 20.9866 11.104 20.7038 11.6101 20.2L12.0101 19.82L12.4101 20.22C12.6608 20.471 12.9585 20.6701 13.2863 20.8059C13.614 20.9417 13.9653 21.0116 14.3201 21.0116C14.6748 21.0116 15.0261 20.9417 15.3538 20.8059C15.6816 20.6701 15.9793 20.471 16.2301 20.22C17.2901 19.16 17.3501 17.37 16.0201 16.01L12.0201 12.01L8.02005 16.01C6.69005 17.37 6.75005 19.16 7.82005 20.21L7.80005 20.2Z" stroke="#CBCBCB" stroke-width="2" stroke-linecap="round" stroke-linejoin="round"/>
<path d="M7 17L2 22" stroke="#CBCBCB" stroke-width="2" stroke-linecap="round" stroke-linejoin="round"/>
</svg>
