<svg width="24" height="24" viewBox="0 0 24 24" fill="none" xmlns="http://www.w3.org/2000/svg">
<path d="M2 18C2 17.4696 2.21071 16.9609 2.58579 16.5858C2.96086 16.2107 3.46957 16 4 16H20C20.5304 16 21.0391 16.2107 21.4142 16.5858C21.7893 16.9609 22 17.4696 22 18V20H2V18Z" stroke="#CBCBCB" stroke-width="2" stroke-linecap="round" stroke-linejoin="round"/>
<path d="M20 16C20 13.8783 19.1571 11.8434 17.6569 10.3431C16.1566 8.84285 14.1217 8 12 8C9.87827 8 7.84344 8.84285 6.34315 10.3431C4.84285 11.8434 4 13.8783 4 16" stroke="#CBCBCB" stroke-width="2" stroke-linecap="round" stroke-linejoin="round"/>
<path d="M12 4V8" stroke="#CBCBCB" stroke-width="2" stroke-linecap="round" stroke-linejoin="round"/>
<path d="M10 4H14" stroke="#CBCBCB" stroke-width="2" stroke-linecap="round" stroke-linejoin="round"/>
</svg>
