<svg width="24" height="24" viewBox="0 0 24 24" fill="none" xmlns="http://www.w3.org/2000/svg">
<path d="M15.4501 15.4001C13.3201 16.0501 11.1501 15.7201 9.75011 14.3001C7.46011 12.0301 7.99011 7.80008 10.9201 4.88008C13.8501 1.95008 18.0701 1.42008 20.3501 3.70008C21.7601 5.11008 22.0901 7.27008 21.4501 9.41008C20.0501 8.90008 18.1901 9.39008 16.8101 10.7701C15.4301 12.1501 14.9401 14.0001 15.4501 15.4001V15.4001Z" stroke="#CBCBCB" stroke-width="2" stroke-linecap="round" stroke-linejoin="round"/>
<path d="M11.2499 15.6L9.08995 17.76C9.297 18.0728 9.43102 18.4282 9.48206 18.7998C9.53311 19.1714 9.49989 19.5497 9.38484 19.9067C9.2698 20.2638 9.0759 20.5903 8.8175 20.8622C8.5591 21.1341 8.24282 21.3444 7.89211 21.4774C7.54141 21.6105 7.16525 21.6629 6.79153 21.6308C6.4178 21.5988 6.05608 21.483 5.73318 21.2921C5.41027 21.1013 5.13446 20.8402 4.92617 20.5282C4.71788 20.2163 4.58247 19.8614 4.52995 19.49C4.06915 19.4268 3.63526 19.2359 3.27743 18.9387C2.91961 18.6416 2.65216 18.2502 2.5054 17.8088C2.35863 17.3675 2.33841 16.8939 2.44702 16.4416C2.55564 15.9894 2.78875 15.5766 3.11995 15.25C3.52674 14.8438 4.06112 14.5901 4.63306 14.5319C5.20501 14.4736 5.77957 14.6142 6.25995 14.93L8.41995 12.77" stroke="#CBCBCB" stroke-width="2" stroke-linecap="round" stroke-linejoin="round"/>
</svg>
