<svg width="24" height="24" viewBox="0 0 24 24" fill="none" xmlns="http://www.w3.org/2000/svg">
<path d="M17.5 22H18C18.5 22 19 21.8 19.4 21.4C19.8 21 20 20.5 20 20V7.5L14.5 2H6C5.5 2 5 2.2 4.6 2.6C4.2 3 4 3.5 4 4V7" stroke="#CBCBCB" stroke-width="2" stroke-linecap="round" stroke-linejoin="round"/>
<path d="M14 2V8H20" stroke="#CBCBCB" stroke-width="2" stroke-linecap="round" stroke-linejoin="round"/>
<path d="M10 20V19C10 18.4696 10.2107 17.9609 10.5858 17.5858C10.9609 17.2107 11.4696 17 12 17C12.5304 17 13.0391 17.2107 13.4142 17.5858C13.7893 17.9609 14 18.4696 14 19V20C14 20.5304 13.7893 21.0391 13.4142 21.4142C13.0391 21.7893 12.5304 22 12 22C11.4696 22 10.9609 21.7893 10.5858 21.4142C10.2107 21.0391 10 20.5304 10 20Z" stroke="#CBCBCB" stroke-width="2" stroke-linecap="round" stroke-linejoin="round"/>
<path d="M6 20V19C6 18.4696 5.78929 17.9609 5.41421 17.5858C5.03914 17.2107 4.53043 17 4 17C3.46957 17 2.96086 17.2107 2.58579 17.5858C2.21071 17.9609 2 18.4696 2 19V20C2 20.5304 2.21071 21.0391 2.58579 21.4142C2.96086 21.7893 3.46957 22 4 22C4.53043 22 5.03914 21.7893 5.41421 21.4142C5.78929 21.0391 6 20.5304 6 20Z" stroke="#CBCBCB" stroke-width="2" stroke-linecap="round" stroke-linejoin="round"/>
<path d="M2 19V16C2 14.4087 2.63214 12.8826 3.75736 11.7574C4.88258 10.6321 6.4087 10 8 10C9.5913 10 11.1174 10.6321 12.2426 11.7574C13.3679 12.8826 14 14.4087 14 16V19" stroke="#CBCBCB" stroke-width="2" stroke-linecap="round" stroke-linejoin="round"/>
</svg>
