<svg width="24" height="24" viewBox="0 0 24 24" fill="none" xmlns="http://www.w3.org/2000/svg">
<path d="M8.42 10.61C8.61501 10.415 8.84653 10.2603 9.10132 10.1547C9.35612 10.0492 9.62921 9.99487 9.905 9.99487C10.1808 9.99487 10.4539 10.0492 10.7087 10.1547C10.9635 10.2603 11.195 10.415 11.39 10.61C11.585 10.805 11.7397 11.0365 11.8452 11.2913C11.9508 11.5461 12.0051 11.8192 12.0051 12.095C12.0051 12.3708 11.9508 12.6439 11.8452 12.8987C11.7397 13.1535 11.585 13.385 11.39 13.58L5.95 19L2 20L2.99 16.05L8.42 10.61Z" stroke="#CBCBCB" stroke-width="2" stroke-linecap="round" stroke-linejoin="round"/>
<path d="M2 11.5V5C2 3.9 2.9 3 4 3H7.93C8.25941 3.0017 8.58331 3.08475 8.8729 3.24176C9.1625 3.39877 9.40882 3.62488 9.59 3.9L10.41 5.1C10.5912 5.37512 10.8375 5.60123 11.1271 5.75824C11.4167 5.91525 11.7406 5.9983 12.07 6H20C20.5304 6 21.0391 6.21071 21.4142 6.58579C21.7893 6.96086 22 7.46957 22 8V18C22 18.5304 21.7893 19.0391 21.4142 19.4142C21.0391 19.7893 20.5304 20 20 20H10.5" stroke="#CBCBCB" stroke-width="2" stroke-linecap="round" stroke-linejoin="round"/>
</svg>
