<svg width="24" height="24" viewBox="0 0 24 24" fill="none" xmlns="http://www.w3.org/2000/svg">
<path d="M11 20H4C3.46957 20 2.96086 19.7893 2.58579 19.4142C2.21071 19.0391 2 18.5304 2 18V5C2 3.9 2.9 3 4 3H7.93C8.25941 3.0017 8.58331 3.08475 8.8729 3.24176C9.1625 3.39877 9.40882 3.62488 9.59 3.9L10.41 5.1C10.5912 5.37512 10.8375 5.60123 11.1271 5.75824C11.4167 5.91525 11.7406 5.9983 12.07 6H20C20.5304 6 21.0391 6.21071 21.4142 6.58579C21.7893 6.96086 22 7.46957 22 8V9.5" stroke="#CBCBCB" stroke-width="2" stroke-linecap="round" stroke-linejoin="round"/>
<path d="M21.29 13.6999C20.9493 13.3609 20.5156 13.1305 20.0439 13.0379C19.5722 12.9453 19.0837 12.9948 18.64 13.1799C18.34 13.2999 18.07 13.4799 17.84 13.7099L17.5 14.0499L17.15 13.7099C16.8104 13.3692 16.3773 13.1369 15.9055 13.0426C15.4338 12.9482 14.9446 12.996 14.5 13.1799C14.2 13.2999 13.94 13.4799 13.71 13.7099C12.76 14.6499 12.71 16.2399 13.91 17.4499L17.5 20.9999L21.1 17.4499C22.3 16.2399 22.24 14.6499 21.29 13.7099V13.6999Z" stroke="#CBCBCB" stroke-width="2" stroke-linecap="round" stroke-linejoin="round"/>
</svg>
