<svg width="24" height="24" viewBox="0 0 24 24" fill="none" xmlns="http://www.w3.org/2000/svg">
<path d="M22 13.2899L18.67 3.28989C18.6408 3.21813 18.5923 3.15583 18.53 3.10989C18.4708 3.04985 18.3935 3.01115 18.3099 2.99989C18.2278 2.99842 18.1473 3.02292 18.08 3.06989C18.0176 3.11583 17.9691 3.17813 17.94 3.24989L15.68 9.91989H8.31995L6.09995 3.25989C6.08207 3.19252 6.0477 3.13066 5.99995 3.07989C5.92612 3.02205 5.83352 2.99356 5.73995 2.99989C5.65782 2.99842 5.57733 3.02292 5.50995 3.06989C5.44758 3.11583 5.39912 3.17813 5.36995 3.24989L1.99995 13.2899C1.95116 13.439 1.95102 13.5997 1.99955 13.7489C2.04809 13.8981 2.14277 14.028 2.26995 14.1199L12 20.9999L21.69 14.1199C21.8281 14.0372 21.934 13.91 21.9903 13.7592C22.0466 13.6084 22.05 13.4429 22 13.2899V13.2899Z" stroke="#CBCBCB" stroke-width="2" stroke-linecap="round" stroke-linejoin="round"/>
</svg>
