<svg width="24" height="24" viewBox="0 0 24 24" fill="none" xmlns="http://www.w3.org/2000/svg">
<path d="M4.12006 4.10693C3.93045 4.25252 3.75072 4.41053 3.58206 4.57993C1.46006 6.69993 1.33006 10.2799 4.00006 12.9999L12.0001 20.9999L16.5001 16.4999" stroke="#CBCBCB" stroke-width="2" stroke-linecap="round" stroke-linejoin="round"/>
<path d="M19.328 13.672L20 13C22.67 10.28 22.54 6.69996 20.42 4.57996C19.9183 4.07653 19.3222 3.67709 18.6658 3.40455C18.0094 3.132 17.3057 2.9917 16.595 2.9917C15.8843 2.9917 15.1806 3.132 14.5242 3.40455C13.8678 3.67709 13.2717 4.07653 12.77 4.57996L12 5.35996L11.23 4.57996C10.5689 3.91657 9.74667 3.43653 8.84399 3.18696" stroke="#CBCBCB" stroke-width="2" stroke-linecap="round" stroke-linejoin="round"/>
<path d="M2 2L22 22" stroke="#CBCBCB" stroke-width="2" stroke-linecap="round" stroke-linejoin="round"/>
</svg>
