<svg width="24" height="24" viewBox="0 0 24 24" fill="none" xmlns="http://www.w3.org/2000/svg">
<path d="M7 22C6.37902 21.5343 5.875 20.9303 5.52786 20.2361C5.18073 19.5418 5 18.7762 5 18" stroke="#CBCBCB" stroke-width="2" stroke-linecap="round" stroke-linejoin="round"/>
<path d="M7 16.9302C7.96 17.3602 8.96 17.6702 9.99 17.8402" stroke="#CBCBCB" stroke-width="2" stroke-linecap="round" stroke-linejoin="round"/>
<path d="M3.34 14C2.48059 12.8424 2.01134 11.4417 2 10C2 5.58 6.48 2 12 2C17.52 2 22 5.58 22 10C21.985 10.6789 21.8739 11.3523 21.67 12" stroke="#CBCBCB" stroke-width="2" stroke-linecap="round" stroke-linejoin="round"/>
<path d="M5 18C5.53043 18 6.03914 17.7893 6.41421 17.4142C6.78929 17.0391 7 16.5304 7 16C7 15.4696 6.78929 14.9609 6.41421 14.5858C6.03914 14.2107 5.53043 14 5 14C4.46957 14 3.96086 14.2107 3.58579 14.5858C3.21071 14.9609 3 15.4696 3 16C3 16.5304 3.21071 17.0391 3.58579 17.4142C3.96086 17.7893 4.46957 18 5 18V18Z" stroke="#CBCBCB" stroke-width="2" stroke-linecap="round" stroke-linejoin="round"/>
<path d="M14.33 21.9998H14.24C14.1721 21.9774 14.1127 21.9347 14.0698 21.8775C14.0269 21.8203 14.0025 21.7513 14 21.6798V11.6798C14 11.5914 14.0344 11.5064 14.096 11.4429C14.1576 11.3794 14.2416 11.3424 14.33 11.3398C14.41 11.3398 14.48 11.3698 14.54 11.4198L21.88 17.4198C21.9346 17.4625 21.9744 17.5213 21.9938 17.5878C22.0131 17.6543 22.011 17.7253 21.9878 17.7906C21.9645 17.8559 21.9213 17.9122 21.8643 17.9515C21.8073 17.9909 21.7393 18.0113 21.67 18.0098H17.18L14.61 21.8598C14.5774 21.9033 14.5351 21.9386 14.4865 21.9629C14.4379 21.9872 14.3843 21.9998 14.33 21.9998V21.9998V21.9998Z" stroke="#CBCBCB" stroke-width="2" stroke-linecap="round" stroke-linejoin="round"/>
</svg>
