<svg width="24" height="24" viewBox="0 0 24 24" fill="none" xmlns="http://www.w3.org/2000/svg">
<path d="M2 2L22 22" stroke="#CBCBCB" stroke-width="2" stroke-linecap="round" stroke-linejoin="round"/>
<path d="M18.89 13.23C18.9622 12.824 18.999 12.4124 19 12V10" stroke="#CBCBCB" stroke-width="2" stroke-linecap="round" stroke-linejoin="round"/>
<path d="M5.00001 10V12C4.97966 13.3992 5.37913 14.7723 6.14684 15.9422C6.91456 17.1121 8.01529 18.0251 9.30696 18.5633C10.5986 19.1015 12.022 19.2402 13.3933 18.9616C14.7645 18.6829 16.0208 17.9997 17 17" stroke="#CBCBCB" stroke-width="2" stroke-linecap="round" stroke-linejoin="round"/>
<path d="M14.9999 9.33999V4.99999C14.9959 4.32636 14.7652 3.6737 14.3451 3.14711C13.925 2.62053 13.3399 2.25066 12.684 2.09708C12.0281 1.94349 11.3396 2.01514 10.7293 2.30046C10.1191 2.58579 9.62265 3.06819 9.31995 3.66999" stroke="#CBCBCB" stroke-width="2" stroke-linecap="round" stroke-linejoin="round"/>
<path d="M9 9V12C9.00052 12.593 9.17675 13.1725 9.50643 13.6653C9.83611 14.1582 10.3045 14.5423 10.8523 14.7691C11.4002 14.996 12.0029 15.0554 12.5845 14.9399C13.1661 14.8243 13.7005 14.539 14.12 14.12" stroke="#CBCBCB" stroke-width="2" stroke-linecap="round" stroke-linejoin="round"/>
<path d="M12 19V22" stroke="#CBCBCB" stroke-width="2" stroke-linecap="round" stroke-linejoin="round"/>
</svg>
