<svg width="24" height="24" viewBox="0 0 24 24" fill="none" xmlns="http://www.w3.org/2000/svg">
<path d="M20 4H4C2.89543 4 2 4.89543 2 6V17C2 18.1046 2.89543 19 4 19H20C21.1046 19 22 18.1046 22 17V6C22 4.89543 21.1046 4 20 4Z" stroke="#CBCBCB" stroke-width="2" stroke-linecap="round" stroke-linejoin="round"/>
<path d="M13 8H7C6.44772 8 6 8.44772 6 9V14C6 14.5523 6.44772 15 7 15H13C13.5523 15 14 14.5523 14 14V9C14 8.44772 13.5523 8 13 8Z" stroke="#CBCBCB" stroke-width="2" stroke-linecap="round" stroke-linejoin="round"/>
<path d="M18 8V15" stroke="#CBCBCB" stroke-width="2" stroke-linecap="round" stroke-linejoin="round"/>
<path d="M6 19V21" stroke="#CBCBCB" stroke-width="2" stroke-linecap="round" stroke-linejoin="round"/>
<path d="M18 19V21" stroke="#CBCBCB" stroke-width="2" stroke-linecap="round" stroke-linejoin="round"/>
</svg>
