<svg width="24" height="24" viewBox="0 0 24 24" fill="none" xmlns="http://www.w3.org/2000/svg">
<path d="M21.44 11.0502L12.25 20.2402C11.1242 21.366 9.59723 21.9985 8.00505 21.9985C6.41286 21.9985 4.88589 21.366 3.76005 20.2402C2.6342 19.1143 2.00171 17.5873 2.00171 15.9952C2.00171 14.403 2.6342 12.876 3.76005 11.7502L12.33 3.18016C13.0806 2.42827 14.0991 2.00533 15.1615 2.0044C16.2239 2.00346 17.2432 2.42459 17.995 3.17516C18.7469 3.92572 19.1699 4.94423 19.1708 6.00662C19.1717 7.06901 18.7506 8.08827 18 8.84016L9.41005 17.4102C9.03476 17.7854 8.52577 17.9963 7.99505 17.9963C7.46432 17.9963 6.95533 17.7854 6.58005 17.4102C6.20476 17.0349 5.99393 16.5259 5.99393 15.9952C5.99393 15.4644 6.20476 14.9554 6.58005 14.5802L15.07 6.10016" stroke="#CBCBCB" stroke-width="2" stroke-linecap="round" stroke-linejoin="round"/>
</svg>
