<svg width="24" height="24" viewBox="0 0 24 24" fill="none" xmlns="http://www.w3.org/2000/svg">
<path d="M21.21 15.8901C20.5739 17.3946 19.5788 18.7203 18.3119 19.7514C17.045 20.7825 15.5448 21.4875 13.9425 21.8049C12.3401 22.1222 10.6845 22.0422 9.12018 21.5719C7.55591 21.1015 6.13066 20.2551 4.96906 19.1067C3.80745 17.9583 2.94485 16.5428 2.45667 14.984C1.96849 13.4252 1.8696 11.7706 2.16863 10.1647C2.46767 8.55886 3.15553 7.05071 4.17208 5.77211C5.18863 4.49351 6.50292 3.4834 8.00004 2.83008" stroke="#CBCBCB" stroke-width="2" stroke-linecap="round" stroke-linejoin="round"/>
<path d="M22 12C22 10.6868 21.7413 9.38642 21.2388 8.17317C20.7362 6.95991 19.9997 5.85752 19.0711 4.92893C18.1425 4.00035 17.0401 3.26375 15.8268 2.7612C14.6136 2.25866 13.3132 2 12 2V12H22Z" stroke="#CBCBCB" stroke-width="2" stroke-linecap="round" stroke-linejoin="round"/>
</svg>
