<svg width="24" height="24" viewBox="0 0 24 24" fill="none" xmlns="http://www.w3.org/2000/svg">
<path d="M2 22L3 21H6L15 12" stroke="#CBCBCB" stroke-width="2" stroke-linecap="round" stroke-linejoin="round"/>
<path d="M3 21V18L12 9" stroke="#CBCBCB" stroke-width="2" stroke-linecap="round" stroke-linejoin="round"/>
<path d="M15 5.99984L18.4 2.59984C18.7978 2.20201 19.3373 1.97852 19.9 1.97852C20.4626 1.97852 21.0021 2.20201 21.4 2.59984C21.7978 2.99766 22.0213 3.53723 22.0213 4.09984C22.0213 4.66245 21.7978 5.20201 21.4 5.59984L18 8.99984L18.4 9.39984C18.5969 9.59682 18.7532 9.83067 18.8598 10.088C18.9664 10.3454 19.0213 10.6213 19.0213 10.8998C19.0213 11.1784 18.9664 11.4543 18.8598 11.7116C18.7532 11.969 18.5969 12.2029 18.4 12.3998C18.203 12.5968 17.9691 12.7531 17.7118 12.8597C17.4544 12.9663 17.1785 13.0212 16.9 13.0212C16.6214 13.0212 16.3455 12.9663 16.0882 12.8597C15.8308 12.7531 15.5969 12.5968 15.4 12.3998L11.6 8.59984C11.403 8.40285 11.2467 8.169 11.1401 7.91163C11.0335 7.65426 10.9786 7.37841 10.9786 7.09984C10.9786 6.82126 11.0335 6.54541 11.1401 6.28804C11.2467 6.03067 11.403 5.79682 11.6 5.59984C11.7969 5.40285 12.0308 5.2466 12.2882 5.13999C12.5455 5.03338 12.8214 4.97852 13.1 4.97852C13.3785 4.97852 13.6544 5.03338 13.9118 5.13999C14.1691 5.2466 14.403 5.40285 14.6 5.59984L15 5.99984V5.99984Z" stroke="#CBCBCB" stroke-width="2" stroke-linecap="round" stroke-linejoin="round"/>
</svg>
