<svg width="24" height="24" viewBox="0 0 24 24" fill="none" xmlns="http://www.w3.org/2000/svg">
<path d="M22 14C22 16.1217 21.1571 18.1566 19.6569 19.6569C18.1566 21.1571 16.1217 22 14 22" stroke="#CBCBCB" stroke-width="2" stroke-linecap="round" stroke-linejoin="round"/>
<path d="M18 11V10C18 9.46957 17.7893 8.96086 17.4142 8.58579C17.0391 8.21071 16.5304 8 16 8V8C15.4696 8 14.9609 8.21071 14.5858 8.58579C14.2107 8.96086 14 9.46957 14 10" stroke="#CBCBCB" stroke-width="2" stroke-linecap="round" stroke-linejoin="round"/>
<path d="M14 10V9C14 8.46957 13.7893 7.96086 13.4142 7.58579C13.0391 7.21071 12.5304 7 12 7V7C11.4696 7 10.9609 7.21071 10.5858 7.58579C10.2107 7.96086 10 8.46957 10 9V10" stroke="#CBCBCB" stroke-width="2" stroke-linecap="round" stroke-linejoin="round"/>
<path d="M10 9.5V4C10 3.46957 9.78929 2.96086 9.41421 2.58579C9.03914 2.21071 8.53043 2 8 2C7.46957 2 6.96086 2.21071 6.58579 2.58579C6.21071 2.96086 6 3.46957 6 4V14" stroke="#CBCBCB" stroke-width="2" stroke-linecap="round" stroke-linejoin="round"/>
<path d="M18.0001 11C18.0001 10.4696 18.2108 9.96086 18.5859 9.58579C18.961 9.21071 19.4697 9 20.0001 9C20.5305 9 21.0392 9.21071 21.4143 9.58579C21.7894 9.96086 22.0001 10.4696 22.0001 11V14C22.0001 16.1217 21.1572 18.1566 19.657 19.6569C18.1567 21.1571 16.1218 22 14.0001 22H12.0001C9.2001 22 7.5001 21.14 6.0101 19.66L2.4101 16.06C2.06604 15.6789 1.88169 15.1802 1.89523 14.6669C1.90876 14.1537 2.11915 13.6653 2.48282 13.303C2.8465 12.9406 3.3356 12.7319 3.84888 12.7202C4.36215 12.7085 4.86027 12.8946 5.2401 13.24L7.0001 15" stroke="#CBCBCB" stroke-width="2" stroke-linecap="round" stroke-linejoin="round"/>
</svg>
