<svg width="24" height="24" viewBox="0 0 24 24" fill="none" xmlns="http://www.w3.org/2000/svg">
<path d="M3 20.9998C6 20.9998 10 19.9998 10 12.9998V4.99979C10 3.74979 9.244 2.98279 8 2.99979H4C2.75 2.99979 2 3.74979 2 4.97179V10.9998C2 12.2498 2.75 12.9998 4 12.9998C5 12.9998 5 12.9998 5 13.9998V14.9998C5 15.9998 4 16.9998 3 16.9998C2 16.9998 2 17.0078 2 18.0308V19.9998C2 20.9998 2 20.9998 3 20.9998Z" stroke="#CBCBCB" stroke-width="2" stroke-linecap="round" stroke-linejoin="round"/>
<path d="M15 20.9998C18 20.9998 22 19.9998 22 12.9998V4.99979C22 3.74979 21.243 2.98279 20 2.99979H16C14.75 2.99979 14 3.74979 14 4.97179V10.9998C14 12.2498 14.75 12.9998 16 12.9998H16.75C16.75 15.2498 17 16.9998 14 16.9998V19.9998C14 20.9998 14 20.9998 15 20.9998Z" stroke="#CBCBCB" stroke-width="2" stroke-linecap="round" stroke-linejoin="round"/>
</svg>
