<svg width="24" height="24" viewBox="0 0 24 24" fill="none" xmlns="http://www.w3.org/2000/svg">
<path d="M3 2V8H9" stroke="#CBCBCB" stroke-width="2" stroke-linecap="round" stroke-linejoin="round"/>
<path d="M21 12.0001C20.9984 10.2634 20.4944 8.56429 19.5487 7.10764C18.6031 5.651 17.2562 4.49907 15.6705 3.79079C14.0848 3.08252 12.3281 2.84815 10.6121 3.11596C8.89623 3.38377 7.29445 4.14232 6 5.30011L3 8.00011" stroke="#CBCBCB" stroke-width="2" stroke-linecap="round" stroke-linejoin="round"/>
<path d="M21 22V16H15" stroke="#CBCBCB" stroke-width="2" stroke-linecap="round" stroke-linejoin="round"/>
<path d="M3 12C3.00158 13.7367 3.5056 15.4358 4.45125 16.8925C5.39691 18.3491 6.74382 19.501 8.32951 20.2093C9.9152 20.9176 11.6719 21.152 13.3879 20.8841C15.1038 20.6163 16.7056 19.8578 18 18.7L21 16" stroke="#CBCBCB" stroke-width="2" stroke-linecap="round" stroke-linejoin="round"/>
</svg>
