<svg width="24" height="24" viewBox="0 0 24 24" fill="none" xmlns="http://www.w3.org/2000/svg">
<path d="M7 12C7 10.6739 7.52678 9.40215 8.46447 8.46447C9.40215 7.52678 10.6739 7 12 7V7C13.3261 7 14.5979 7.52678 15.5355 8.46447C16.4732 9.40215 17 10.6739 17 12V18H7V12Z" stroke="#CBCBCB" stroke-width="2" stroke-linecap="round" stroke-linejoin="round"/>
<path d="M5 20C5 19.4696 5.21071 18.9609 5.58579 18.5858C5.96086 18.2107 6.46957 18 7 18H17C17.5304 18 18.0391 18.2107 18.4142 18.5858C18.7893 18.9609 19 19.4696 19 20V22H5V20Z" stroke="#CBCBCB" stroke-width="2" stroke-linecap="round" stroke-linejoin="round"/>
<path d="M21 12H22" stroke="#CBCBCB" stroke-width="2" stroke-linecap="round" stroke-linejoin="round"/>
<path d="M18.5 4.5L18 5" stroke="#CBCBCB" stroke-width="2" stroke-linecap="round" stroke-linejoin="round"/>
<path d="M2 12H3" stroke="#CBCBCB" stroke-width="2" stroke-linecap="round" stroke-linejoin="round"/>
<path d="M12 2V3" stroke="#CBCBCB" stroke-width="2" stroke-linecap="round" stroke-linejoin="round"/>
<path d="M4.92896 4.9292L5.63596 5.6362" stroke="#CBCBCB" stroke-width="2" stroke-linecap="round" stroke-linejoin="round"/>
<path d="M12 12V18" stroke="#CBCBCB" stroke-width="2" stroke-linecap="round" stroke-linejoin="round"/>
</svg>
