<svg width="24" height="24" viewBox="0 0 24 24" fill="none" xmlns="http://www.w3.org/2000/svg">
<path d="M17 14V2" stroke="#CBCBCB" stroke-width="2" stroke-linecap="round" stroke-linejoin="round"/>
<path d="M9.00004 18.12L10 14H4.17004C3.85955 14 3.55333 13.9277 3.27562 13.7889C2.99791 13.65 2.75634 13.4484 2.57004 13.2C2.38375 12.9516 2.25785 12.6633 2.2023 12.3578C2.14676 12.0523 2.16311 11.7381 2.25004 11.44L4.58004 3.44C4.70121 3.02457 4.95385 2.65964 5.30004 2.4C5.64624 2.14036 6.0673 2 6.50004 2H20C20.5305 2 21.0392 2.21071 21.4143 2.58579C21.7893 2.96086 22 3.46957 22 4V12C22 12.5304 21.7893 13.0391 21.4143 13.4142C21.0392 13.7893 20.5305 14 20 14H17.24C16.868 14.0002 16.5033 14.1042 16.1871 14.3003C15.8709 14.4964 15.6156 14.7768 15.45 15.11L12 22C11.5285 21.9942 11.0643 21.8818 10.6422 21.6714C10.2202 21.461 9.85112 21.1579 9.56264 20.7848C9.27416 20.4117 9.07373 19.9782 8.97631 19.5168C8.87889 19.0554 8.887 18.5779 9.00004 18.12V18.12Z" stroke="#CBCBCB" stroke-width="2" stroke-linecap="round" stroke-linejoin="round"/>
</svg>
