<svg width="24" height="24" viewBox="0 0 24 24" fill="none" xmlns="http://www.w3.org/2000/svg">
<path d="M16.9999 14L19.9999 17.3C20.137 17.4398 20.23 17.6167 20.2674 17.8088C20.3049 18.001 20.2851 18.1998 20.2106 18.3808C20.136 18.5618 20.01 18.717 19.8482 18.8271C19.6863 18.9371 19.4957 18.9973 19.2999 19H4.69994C4.50422 18.9973 4.3136 18.9371 4.15173 18.8271C3.98985 18.717 3.86384 18.5618 3.78931 18.3808C3.71478 18.1998 3.69501 18.001 3.73245 17.8088C3.7699 17.6167 3.8629 17.4398 3.99994 17.3L6.99994 14H6.69994C6.50422 13.9973 6.3136 13.9371 6.15173 13.8271C5.98985 13.717 5.86384 13.5619 5.78931 13.3808C5.71478 13.1998 5.69501 13.001 5.73245 12.8088C5.7699 12.6167 5.8629 12.4398 5.99994 12.3L8.99994 9H8.79994C8.59569 9.01843 8.39071 8.97361 8.21279 8.87162C8.03487 8.76963 7.8926 8.6154 7.80528 8.42984C7.71796 8.24428 7.6898 8.03636 7.72462 7.83425C7.75944 7.63215 7.85556 7.44564 7.99994 7.3L11.9999 3L15.9999 7.3C16.1443 7.44564 16.2404 7.63215 16.2753 7.83425C16.3101 8.03636 16.2819 8.24428 16.1946 8.42984C16.1073 8.6154 15.965 8.76963 15.7871 8.87162C15.6092 8.97361 15.4042 9.01843 15.1999 9H14.9999L17.9999 12.3C18.137 12.4398 18.23 12.6167 18.2674 12.8088C18.3049 13.001 18.2851 13.1998 18.2106 13.3808C18.136 13.5619 18.01 13.717 17.8482 13.8271C17.6863 13.9371 17.4957 13.9973 17.2999 14H16.9999Z" stroke="#CBCBCB" stroke-width="2" stroke-linecap="round" stroke-linejoin="round"/>
<path d="M12 22V19" stroke="#CBCBCB" stroke-width="2" stroke-linecap="round" stroke-linejoin="round"/>
</svg>
