<svg width="24" height="24" viewBox="0 0 24 24" fill="none" xmlns="http://www.w3.org/2000/svg">
<path d="M8.00002 19H16C16.8485 18.9967 17.674 18.7236 18.357 18.2203C19.0401 17.7169 19.5455 17.0094 19.8 16.2C20.0527 15.3776 20.0336 14.4956 19.7453 13.685C19.4571 12.8744 18.9152 12.1783 18.2 11.7C19.2 10.6 19.2 9 18.6 7.7C17.9 6.5 16.4 5.7 15 6C15 5.20435 14.6839 4.44129 14.1213 3.87868C13.5587 3.31607 12.7957 3 12 3C11.2044 3 10.4413 3.31607 9.8787 3.87868C9.31609 4.44129 9.00002 5.20435 9.00002 6C7.60002 5.8 6.10002 6.5 5.40002 7.7C4.70002 9 4.90002 10.6 5.80002 11.7C5.08484 12.1783 4.54293 12.8744 4.2547 13.685C3.96647 14.4956 3.9473 15.3776 4.20002 16.2C4.45456 17.0094 4.9599 17.7169 5.64299 18.2203C6.32608 18.7236 7.15153 18.9967 8.00002 19V19Z" stroke="#CBCBCB" stroke-width="2" stroke-linecap="round" stroke-linejoin="round"/>
<path d="M12 19V22" stroke="#CBCBCB" stroke-width="2" stroke-linecap="round" stroke-linejoin="round"/>
</svg>
