<svg width="24" height="24" viewBox="0 0 24 24" fill="none" xmlns="http://www.w3.org/2000/svg">
<path d="M21.7301 18.0002L13.7301 4.00022C13.5556 3.69243 13.3027 3.43641 12.997 3.25829C12.6913 3.08017 12.3438 2.98633 11.9901 2.98633C11.6363 2.98633 11.2888 3.08017 10.9831 3.25829C10.6774 3.43641 10.4245 3.69243 10.2501 4.00022L2.25005 18.0002C2.07373 18.3056 1.98128 18.6521 1.98206 19.0047C1.98284 19.3573 2.07683 19.7035 2.2545 20.008C2.43217 20.3126 2.6872 20.5648 2.99375 20.7391C3.30029 20.9133 3.64746 21.0034 4.00005 21.0002H20.0001C20.351 20.9999 20.6956 20.9072 20.9993 20.7315C21.3031 20.5558 21.5553 20.3033 21.7306 19.9993C21.9059 19.6954 21.9981 19.3506 21.998 18.9997C21.9979 18.6488 21.9055 18.3041 21.7301 18.0002Z" stroke="#CBCBCB" stroke-width="2" stroke-linecap="round" stroke-linejoin="round"/>
</svg>
