<svg width="24" height="24" viewBox="0 0 24 24" fill="none" xmlns="http://www.w3.org/2000/svg">
<path d="M20 12V8H6C5.46957 8 4.96086 7.78929 4.58579 7.41421C4.21071 7.03914 4 6.53043 4 6C4 4.9 4.9 4 6 4H18V8" stroke="#CBCBCB" stroke-width="2" stroke-linecap="round" stroke-linejoin="round"/>
<path d="M4 6V18C4 19.1 4.9 20 6 20H20V16" stroke="#CBCBCB" stroke-width="2" stroke-linecap="round" stroke-linejoin="round"/>
<path d="M18 12C17.4696 12 16.9609 12.2107 16.5858 12.5858C16.2107 12.9609 16 13.4696 16 14C16 15.1 16.9 16 18 16H22V12H18Z" stroke="#CBCBCB" stroke-width="2" stroke-linecap="round" stroke-linejoin="round"/>
</svg>
