<svg width="24" height="24" viewBox="0 0 24 24" fill="none" xmlns="http://www.w3.org/2000/svg">
<g clip-path="url(#clip0_401_10215)">
<path d="M21.19 21.19L2.81 2.81L1.39 4.22L5.17 8H4L5 18H6C6 20.21 7.79 22 10 22C12.21 22 14 20.21 14 18V16.83L19.78 22.61L21.19 21.19ZM12 18C12 19.1 11.1 20 10 20C8.9 20 8 19.1 8 18H9L9.56 12.39L12 14.83V18ZM14 6V11.17L12 9.17V6C12 3.79 13.79 2 16 2C18.21 2 20 3.79 20 6V17.17L18 15.17V6C18 4.9 17.1 4 16 4C14.9 4 14 4.9 14 6ZM10 5C10 5.62 9.8 6.18 9.48 6.66L5.33 2.51C5.81 2.19 6.38 2 7 2C8.66 2 10 3.34 10 5Z" fill="black"/>
</g>
<defs>
<clipPath id="clip0_401_10215">
<rect width="24" height="24" fill="white"/>
</clipPath>
</defs>
</svg>
