<svg width="24" height="24" viewBox="0 0 24 24" fill="none" xmlns="http://www.w3.org/2000/svg">
<g clip-path="url(#clip0_401_9451)">
<path d="M12 3.99997C15.87 3.99997 19 7.12997 19 11V13H16.08L21 17.92V11C21 6.02997 16.97 1.99997 12 1.99997C10.05 1.99997 8.24 2.61997 6.77 3.67997L8.21 5.11997C9.3 4.40997 10.6 3.99997 12 3.99997ZM2.27 1.71997L1 2.99997L4.33 6.31997C3.49 7.67997 3 9.28997 3 11V18C3 19.66 4.34 21 6 21H9V13H5V11C5 9.82997 5.29 8.73997 5.79 7.77997L15 17V21H18C18.3 21 18.59 20.94 18.86 20.86L21 23L22.27 21.73L2.27 1.71997Z" fill="black"/>
</g>
<defs>
<clipPath id="clip0_401_9451">
<rect width="24" height="24" fill="white"/>
</clipPath>
</defs>
</svg>
