<svg width="24" height="24" viewBox="0 0 24 24" fill="none" xmlns="http://www.w3.org/2000/svg">
<g clip-path="url(#clip0_401_10888)">
<path d="M12 3C11.54 3 11.07 3.04 10.6 3.14C7.84 3.67 5.64 5.9 5.12 8.66C4.64 11.27 5.6 13.67 7.34 15.22C7.77 15.6 8 16.13 8 16.69V19C8 20.1 8.9 21 10 21H10.28C10.63 21.6 11.26 22 12 22C12.74 22 13.38 21.6 13.72 21H14C15.1 21 16 20.1 16 19V16.69C16 16.14 16.22 15.6 16.64 15.23C18.09 13.95 19 12.08 19 10C19 6.13 15.87 3 12 3ZM14 19H10V18H14V19ZM14 17H10V16H14V17ZM12.5 11.41V14H11.5V11.41L9.67 9.59L10.38 8.88L12 10.5L13.62 8.88L14.33 9.59L12.5 11.41Z" fill="black"/>
</g>
<defs>
<clipPath id="clip0_401_10888">
<rect width="24" height="24" fill="white"/>
</clipPath>
</defs>
</svg>
