<svg width="24" height="24" viewBox="0 0 24 24" fill="none" xmlns="http://www.w3.org/2000/svg">
<g clip-path="url(#clip0_401_10459)">
<path d="M19 9H5V15H19V9Z" fill="black"/>
<path d="M13 2H11V5H13V2Z" fill="black"/>
<path d="M19.076 4.59654L17.2864 6.39893L18.7056 7.80813L20.4952 6.00574L19.076 4.59654Z" fill="black"/>
<path d="M13 19H11V22H13V19Z" fill="black"/>
<path d="M17.29 17.71L19.08 19.51L20.5 18.09L18.7 16.3L17.29 17.71Z" fill="black"/>
<path d="M4.90183 4.6019L3.49471 6.00903L5.28367 7.798L6.6908 6.39087L4.90183 4.6019Z" fill="black"/>
<path d="M5.29454 16.2865L3.49216 18.0762L4.90136 19.4954L6.70374 17.7057L5.29454 16.2865Z" fill="black"/>
</g>
<defs>
<clipPath id="clip0_401_10459">
<rect width="24" height="24" fill="white"/>
</clipPath>
</defs>
</svg>
