<svg width="24" height="24" viewBox="0 0 24 24" fill="none" xmlns="http://www.w3.org/2000/svg">
<g clip-path="url(#clip0_401_9208)">
<path d="M11 7.00021H13V9.92021L19.91 16.8302L21 15.7302V8.27022L15.73 3.00021H8.27L7.18 4.10021L11 7.92021V7.00021ZM22.27 21.7302L2.27 1.72021L1 2.99021L4.64 6.63021L3 8.27022V15.7302L8.27 21.0002H15.73L17.37 19.3702L21 23.0002L22.27 21.7302ZM12 17.3002C11.28 17.3002 10.7 16.7202 10.7 16.0002C10.7 15.2802 11.28 14.7002 12 14.7002C12.72 14.7002 13.3 15.2802 13.3 16.0002C13.3 16.7202 12.72 17.3002 12 17.3002Z" fill="black"/>
</g>
<defs>
<clipPath id="clip0_401_9208">
<rect width="24" height="24" fill="white"/>
</clipPath>
</defs>
</svg>
