<svg width="24" height="24" viewBox="0 0 24 24" fill="none" xmlns="http://www.w3.org/2000/svg">
<g clip-path="url(#clip0_401_10713)">
<path d="M19.97 6.43L12 2L4.03 6.43L9.1 9.24C9.83 8.48 10.86 8 12 8C13.14 8 14.17 8.48 14.9 9.24L19.97 6.43ZM10 12C10 10.9 10.9 10 12 10C13.1 10 14 10.9 14 12C14 13.1 13.1 14 12 14C10.9 14 10 13.1 10 12ZM11 21.44L3 17V8.14L8.13 10.99C8.04 11.31 8 11.65 8 12C8 13.86 9.27 15.43 11 15.87V21.44ZM13 21.44V15.87C14.73 15.43 16 13.86 16 12C16 11.65 15.96 11.31 15.87 10.99L21 8.14V17L13 21.44Z" fill="black"/>
</g>
<defs>
<clipPath id="clip0_401_10713">
<rect width="24" height="24" fill="white"/>
</clipPath>
</defs>
</svg>
