<svg width="24" height="24" viewBox="0 0 24 24" fill="none" xmlns="http://www.w3.org/2000/svg">
<g clip-path="url(#clip0_401_10438)">
<path d="M11 14C11 10.64 13.64 8 17 8C19.2 8 21.08 9.13 22.13 10.86L24 8.98C20.93 5.9 16.69 4 12 4C7.31 4 3.07 5.9 0 8.98L12 21L13.86 19.13C12.14 18.09 11 16.2 11 14Z" fill="black"/>
<path d="M21 14C21 11.76 19.24 10 17 10C14.76 10 13 11.76 13 14C13 16.24 14.76 18 17 18C17.75 18 18.44 17.79 19.03 17.44L21.59 20L23 18.59L20.44 16.03C20.79 15.44 21 14.75 21 14ZM15 14C15 12.88 15.88 12 17 12C18.12 12 19 12.88 19 14C19 15.12 18.12 16 17 16C15.88 16 15 15.12 15 14Z" fill="black"/>
</g>
<defs>
<clipPath id="clip0_401_10438">
<rect width="24" height="24" fill="white"/>
</clipPath>
</defs>
</svg>
