<svg width="24" height="24" viewBox="0 0 24 24" fill="none" xmlns="http://www.w3.org/2000/svg">
<g clip-path="url(#clip0_401_9860)">
<path d="M19.01 3H5.00999C3.90999 3 3.00999 3.9 3.00999 5V19C3.00999 20.1 3.90999 21 5.00999 21H19.01C20.11 21 21.01 20.1 21.01 19V5C21.01 3.9 20.11 3 19.01 3ZM15.01 10.5C15.01 11.33 14.34 12 13.51 12C14.34 12 15.01 12.67 15.01 13.5V15C15.01 16.11 14.11 17 13.01 17H9.00999V15H13.01V13H11.01V11H13.01V9H9.00999V7H13.01C14.11 7 15.01 7.89 15.01 9V10.5Z" fill="black"/>
</g>
<defs>
<clipPath id="clip0_401_9860">
<rect width="24" height="24" fill="white"/>
</clipPath>
</defs>
</svg>
