<svg width="24" height="24" viewBox="0 0 24 24" fill="none" xmlns="http://www.w3.org/2000/svg">
<g clip-path="url(#clip0_401_9587)">
<path d="M17.09 11.0001H21.95C21.79 9.3901 21.24 7.8901 20.41 6.6001C18.68 7.4301 17.42 9.0501 17.09 11.0001Z" fill="black"/>
<path d="M6.91 11.0001C6.58 9.0501 5.32 7.4301 3.59 6.6001C2.76 7.8901 2.21 9.3901 2.05 11.0001H6.91Z" fill="black"/>
<path d="M15.07 11C15.39 8.41005 16.95 6.21005 19.13 5.00005C17.53 3.37005 15.39 2.29005 13 2.05005V11H15.07Z" fill="black"/>
<path d="M8.93001 11H11V2.05005C8.61001 2.29005 6.46001 3.37005 4.87001 5.00005C7.05001 6.21005 8.61001 8.41005 8.93001 11Z" fill="black"/>
<path d="M15.07 13H13V21.95C15.39 21.71 17.54 20.63 19.13 19C16.95 17.79 15.39 15.59 15.07 13Z" fill="black"/>
<path d="M3.59 17.4C5.31 16.57 6.58 14.94 6.91 13H2.05C2.21 14.61 2.76 16.11 3.59 17.4Z" fill="black"/>
<path d="M17.09 13C17.42 14.95 18.68 16.57 20.41 17.4C21.24 16.11 21.79 14.61 21.95 13H17.09Z" fill="black"/>
<path d="M8.93001 13C8.61001 15.59 7.05001 17.79 4.87001 19C6.47001 20.63 8.61001 21.71 11 21.95V13H8.93001Z" fill="black"/>
</g>
<defs>
<clipPath id="clip0_401_9587">
<rect width="24" height="24" fill="white"/>
</clipPath>
</defs>
</svg>
