<svg width="24" height="24" viewBox="0 0 24 24" fill="none" xmlns="http://www.w3.org/2000/svg">
<g clip-path="url(#clip0_401_10864)">
<path d="M10.53 7.43006C10.95 7.12006 11.46 6.96006 12.07 6.96006C12.68 6.96006 13.18 7.12006 13.57 7.45006C13.96 7.77006 14.22 8.15006 14.36 8.57006L16.25 7.77006C16.01 7.06006 15.54 6.42006 14.85 5.85006C14.35 5.45006 13.73 5.20006 13 5.08006V3.00006H11V5.11006C10.59 5.19006 10.21 5.32006 9.86 5.50006C9.51 5.68006 9.22 5.89006 8.96 6.13006L10.39 7.56006C10.43 7.52006 10.48 7.47006 10.53 7.43006ZM2.81 2.81006L1.39 4.22006L13.74 16.5701C13.31 16.8501 12.79 17.0001 12.19 17.0001C11.48 17.0001 10.87 16.7701 10.36 16.3001C9.86 15.8301 9.5 15.2301 9.3 14.4901L7.32 15.2901C7.66 16.4601 8.27 17.3701 9.15 18.0201C9.72 18.4401 10.34 18.7001 11 18.8501V21.0001H13V18.9201C13.44 18.8501 13.87 18.7501 14.29 18.5701C14.63 18.4301 14.93 18.2501 15.21 18.0401L19.78 22.6101L21.19 21.2001L2.81 2.81006Z" fill="black"/>
</g>
<defs>
<clipPath id="clip0_401_10864">
<rect width="24" height="24" fill="white"/>
</clipPath>
</defs>
</svg>
