<svg width="24" height="24" viewBox="0 0 24 24" fill="none" xmlns="http://www.w3.org/2000/svg">
<g clip-path="url(#clip0_401_9793)">
<path d="M6 13C6.55 13 7 13.45 7 14C7 14.55 6.55 15 6 15C5.45 15 5 14.55 5 14C5 13.45 5.45 13 6 13ZM5 6C5 6.55 5.45 7 6 7C6.55 7 7 6.55 7 6C7 5.45 6.55 5 6 5C5.45 5 5 5.45 5 6ZM17 14C17 14.55 17.45 15 18 15C18.55 15 19 14.55 19 14C19 13.45 18.55 13 18 13C17.45 13 17 13.45 17 14ZM17 6C17 6.55 17.45 7 18 7C18.55 7 19 6.55 19 6C19 5.45 18.55 5 18 5C17.45 5 17 5.45 17 6ZM8 18C8 18.55 8.45 19 9 19C9.55 19 10 18.55 10 18C10 17.45 9.55 17 9 17C8.45 17 8 17.45 8 18ZM8 10C8 10.55 8.45 11 9 11C9.55 11 10 10.55 10 10C10 9.45 9.55 9 9 9C8.45 9 8 9.45 8 10ZM11 14C11 14.55 11.45 15 12 15C12.55 15 13 14.55 13 14C13 13.45 12.55 13 12 13C11.45 13 11 13.45 11 14ZM11 6C11 6.55 11.45 7 12 7C12.55 7 13 6.55 13 6C13 5.45 12.55 5 12 5C11.45 5 11 5.45 11 6ZM14 18C14 18.55 14.45 19 15 19C15.55 19 16 18.55 16 18C16 17.45 15.55 17 15 17C14.45 17 14 17.45 14 18ZM14 10C14 10.55 14.45 11 15 11C15.55 11 16 10.55 16 10C16 9.45 15.55 9 15 9C14.45 9 14 9.45 14 10Z" fill="black"/>
</g>
<defs>
<clipPath id="clip0_401_9793">
<rect width="24" height="24" fill="white"/>
</clipPath>
</defs>
</svg>
