<svg width="24" height="24" viewBox="0 0 24 24" fill="none" xmlns="http://www.w3.org/2000/svg">
<g clip-path="url(#clip0_401_10761)">
<path d="M9 4V5.38C8.17 5.05 7.28 4.88 6.39 4.88C4.6 4.88 2.81 5.56 1.44 6.93L4.77 10.26H5.88V11.37C6.74 12.23 7.86 12.68 8.99 12.73V15H6V18C6 19.1 6.9 20 8 20H18C19.66 20 21 18.66 21 17V4H9ZM7.89 10.41V8.26H5.61L4.57 7.22C5.14 7 5.76 6.88 6.39 6.88C7.73 6.88 8.98 7.4 9.93 8.34L11.34 9.75L11.14 9.95C10.63 10.46 9.95 10.75 9.22 10.75C8.75 10.75 8.29 10.63 7.89 10.41ZM19 17C19 17.55 18.55 18 18 18C17.45 18 17 17.55 17 17V15H11V12.41C11.57 12.18 12.1 11.84 12.56 11.38L12.76 11.18L15.59 14H17V12.59L11 6.62V6H19V17Z" fill="black"/>
</g>
<defs>
<clipPath id="clip0_401_10761">
<rect width="24" height="24" fill="white"/>
</clipPath>
</defs>
</svg>
