<svg width="24" height="24" viewBox="0 0 24 24" fill="none" xmlns="http://www.w3.org/2000/svg">
<g clip-path="url(#clip0_401_9413)">
<path d="M19 1L14 6V17L19 12.5V1ZM1 6V20.65C1 20.9 1.25 21.15 1.5 21.15C1.6 21.15 1.65 21.1 1.75 21.1C3.1 20.45 5.05 20 6.5 20C8.45 20 10.55 20.4 12 21.5V6C10.55 4.9 8.45 4.5 6.5 4.5C4.55 4.5 2.45 4.9 1 6ZM23 19.5V6C22.4 5.55 21.75 5.25 21 5V18.5C19.9 18.15 18.7 18 17.5 18C15.8 18 13.35 18.65 12 19.5V21.5C13.35 20.65 15.8 20 17.5 20C19.15 20 20.85 20.3 22.25 21.05C22.35 21.1 22.4 21.1 22.5 21.1C22.75 21.1 23 20.85 23 20.6V19.5Z" fill="black"/>
</g>
<defs>
<clipPath id="clip0_401_9413">
<rect width="24" height="24" fill="white"/>
</clipPath>
</defs>
</svg>
