<svg width="24" height="24" viewBox="0 0 24 24" fill="none" xmlns="http://www.w3.org/2000/svg">
<g clip-path="url(#clip0_401_11172)">
<path d="M6 4.01001C3.58 5.84001 2 8.73001 2 12C2 13.46 2.32 14.85 2.89 16.11L6 14.31V4.01001Z" fill="black"/>
<path d="M11 11.42V2.04999C9.94 2.15999 8.93 2.42999 8 2.83999V13.16L11 11.42Z" fill="black"/>
<path d="M12 13.15L3.89 17.83C4.5 18.67 5.23 19.42 6.07 20.03L15 14.89L12 13.15Z" fill="black"/>
<path d="M13 7.95996V11.42L21.11 16.1C21.53 15.17 21.81 14.17 21.93 13.12L13 7.95996Z" fill="black"/>
<path d="M8.07001 21.2C9.28001 21.71 10.6 22 12 22C15.34 22 18.29 20.35 20.11 17.84L17 16.04L8.07001 21.2Z" fill="black"/>
<path d="M21.92 10.81C21.37 6.17999 17.66 2.50999 13 2.04999V5.64999L21.92 10.81Z" fill="black"/>
</g>
<defs>
<clipPath id="clip0_401_11172">
<rect width="24" height="24" fill="white"/>
</clipPath>
</defs>
</svg>
