<svg width="24" height="24" viewBox="0 0 24 24" fill="none" xmlns="http://www.w3.org/2000/svg">
<g clip-path="url(#clip0_401_10983)">
<path d="M16 7H15L14 6H10L9 7H8C6.9 7 6 7.9 6 9V15C6 16.1 6.9 17 8 17H16C17.1 17 18 16.1 18 15V9C18 7.9 17.1 7 16 7ZM12 14C10.9 14 10 13.1 10 12C10 10.9 10.9 10 12 10C13.1 10 14 10.9 14 12C14 13.1 13.1 14 12 14Z" fill="black"/>
<path d="M8.57 0.509992L13.05 4.98999V2.03999C17.77 2.50999 21.53 6.26999 22 10.99H24C23.34 3.01999 15.49 -1.59001 8.57 0.509992Z" fill="black"/>
<path d="M10.95 21.96C6.23 21.49 2.47 17.73 2 13.01H0C0.66 20.98 8.51 25.59 15.43 23.49L10.95 19.01V21.96Z" fill="black"/>
</g>
<defs>
<clipPath id="clip0_401_10983">
<rect width="24" height="24" fill="white"/>
</clipPath>
</defs>
</svg>
