<svg width="24" height="24" viewBox="0 0 24 24" fill="none" xmlns="http://www.w3.org/2000/svg">
<g clip-path="url(#clip0_401_10596)">
<path d="M22 10V1H14V10C14 11.86 15.28 13.41 17 13.86V21H15V23H21V21H19V13.86C20.72 13.41 22 11.86 22 10ZM20 3V6H16V3H20ZM12.5 11.5C12.5 12.88 11.38 14 10 14H8V23H6V14H4C2.62 14 1.5 12.88 1.5 11.5C1.5 10.12 2.62 9 4 9H6V8H4C2.62 8 1.5 6.88 1.5 5.5C1.5 4.12 2.62 3 4 3H6V1H8V3H10C11.38 3 12.5 4.12 12.5 5.5C12.5 6.88 11.38 8 10 8H8V9H10C11.38 9 12.5 10.12 12.5 11.5Z" fill="black"/>
</g>
<defs>
<clipPath id="clip0_401_10596">
<rect width="24" height="24" fill="white"/>
</clipPath>
</defs>
</svg>
