<svg width="24" height="24" viewBox="0 0 24 24" fill="none" xmlns="http://www.w3.org/2000/svg">
<g clip-path="url(#clip0_401_9657)">
<path d="M17 1.01L7 1C5.9 1 5.01 1.9 5.01 3V21C5.01 22.1 5.9 23 7 23H17C18.1 23 19 22.1 19 21V3C19 1.9 18.1 1.01 17 1.01ZM17 19H7V5H17V19ZM12.8 13.22V14.97L16 11.98L12.8 9V10.7C9.69 11.13 8.45 13.26 8 15.4C9.11 13.9 10.58 13.22 12.8 13.22Z" fill="black"/>
</g>
<defs>
<clipPath id="clip0_401_9657">
<rect width="24" height="24" fill="white"/>
</clipPath>
</defs>
</svg>
