<svg width="24" height="24" viewBox="0 0 24 24" fill="none" xmlns="http://www.w3.org/2000/svg">
<g clip-path="url(#clip0_401_10780)">
<path d="M11 4.06999V2.04999C8.99 2.24999 7.16 3.04999 5.68 4.25999L7.1 5.68999C8.21 4.82999 9.54 4.24999 11 4.06999ZM18.32 4.25999C16.84 3.04999 15.01 2.24999 13 2.04999V4.06999C14.46 4.24999 15.79 4.82999 16.9 5.68999L18.32 4.25999ZM19.93 11H21.95C21.75 8.98999 20.95 7.15999 19.74 5.67999L18.31 7.09999C19.17 8.20999 19.75 9.53999 19.93 11ZM5.69 7.09999L4.26 5.67999C3.05 7.15999 2.25 8.98999 2.05 11H4.07C4.25 9.53999 4.83 8.20999 5.69 7.09999ZM4.07 13H2.05C2.25 15.01 3.05 16.84 4.26 18.32L5.69 16.89C4.83 15.79 4.25 14.46 4.07 13ZM15 12C15 10.34 13.66 8.99999 12 8.99999C10.34 8.99999 9 10.34 9 12C9 13.66 10.34 15 12 15C13.66 15 15 13.66 15 12ZM18.31 16.9L19.74 18.33C20.95 16.85 21.75 15.01 21.95 13.01H19.93C19.75 14.46 19.17 15.79 18.31 16.9ZM13 19.93V21.95C15.01 21.75 16.84 20.95 18.32 19.74L16.89 18.31C15.79 19.17 14.46 19.75 13 19.93ZM5.68 19.74C7.16 20.95 9 21.75 11 21.95V19.93C9.54 19.75 8.21 19.17 7.1 18.31L5.68 19.74Z" fill="black"/>
</g>
<defs>
<clipPath id="clip0_401_10780">
<rect width="24" height="24" fill="white"/>
</clipPath>
</defs>
</svg>
