<svg width="24" height="24" viewBox="0 0 24 24" fill="none" xmlns="http://www.w3.org/2000/svg">
<g clip-path="url(#clip0_401_10282)">
<path d="M19.89 13.89C20.93 13.89 21.78 13.04 21.78 12C21.78 10.96 20.93 10.11 19.89 10.11C18.85 10.11 18 10.96 18 12C18 13.04 18.85 13.89 19.89 13.89ZM15.65 13.68C16.58 13.68 17.33 12.93 17.33 12C17.33 11.07 16.58 10.32 15.65 10.32C14.72 10.32 13.97 11.07 13.97 12C13.97 12.93 14.72 13.68 15.65 13.68ZM15.65 9.42C16.58 9.42 17.33 8.67 17.33 7.74C17.33 6.81 16.58 6.06 15.65 6.06C14.72 6.06 13.97 6.81 13.97 7.74C13.97 8.67 14.72 9.42 15.65 9.42ZM15.65 17.93C16.58 17.93 17.33 17.18 17.33 16.25C17.33 15.32 16.58 14.57 15.65 14.57C14.72 14.57 13.97 15.32 13.97 16.25C13.97 17.17 14.72 17.93 15.65 17.93ZM11.41 13.47C12.22 13.47 12.88 12.81 12.88 12C12.88 11.19 12.22 10.53 11.41 10.53C10.6 10.53 9.94001 11.19 9.94001 12C9.94001 12.81 10.59 13.47 11.41 13.47ZM11.41 9.21C12.22 9.21 12.88 8.55 12.88 7.74C12.88 6.93 12.22 6.27 11.41 6.27C10.6 6.27 9.94001 6.93 9.94001 7.74C9.94001 8.55 10.59 9.21 11.41 9.21ZM11.41 17.73C12.22 17.73 12.88 17.07 12.88 16.26C12.88 15.45 12.22 14.79 11.41 14.79C10.6 14.79 9.94001 15.45 9.94001 16.26C9.93001 17.07 10.59 17.73 11.41 17.73ZM11.41 22C12.22 22 12.88 21.34 12.88 20.53C12.88 19.72 12.22 19.06 11.41 19.06C10.6 19.06 9.94001 19.72 9.94001 20.53C9.93001 21.34 10.59 22 11.41 22ZM11.41 4.94C12.22 4.94 12.88 4.28 12.88 3.47C12.88 2.66 12.22 2 11.41 2C10.6 2 9.94001 2.66 9.94001 3.47C9.94001 4.28 10.59 4.94 11.41 4.94ZM7.16001 13.26C7.86001 13.26 8.42001 12.69 8.42001 12C8.42001 11.31 7.85001 10.74 7.16001 10.74C6.46001 10.74 5.90001 11.31 5.90001 12C5.90001 12.69 6.46001 13.26 7.16001 13.26ZM7.16001 17.51C7.86001 17.51 8.42001 16.94 8.42001 16.25C8.42001 15.55 7.85001 14.99 7.16001 14.99C6.46001 14.99 5.90001 15.56 5.90001 16.25C5.90001 16.94 6.46001 17.51 7.16001 17.51ZM7.16001 9.02C7.86001 9.02 8.42001 8.45 8.42001 7.76C8.42001 7.06 7.85001 6.5 7.16001 6.5C6.46001 6.5 5.90001 7.07 5.90001 7.76C5.90001 8.45 6.46001 9.02 7.16001 9.02ZM3.29001 13.05C3.87001 13.05 4.34001 12.58 4.34001 12C4.34001 11.42 3.87001 10.95 3.29001 10.95C2.71001 10.95 2.24001 11.42 2.24001 12C2.24001 12.58 2.71001 13.05 3.29001 13.05Z" fill="black"/>
</g>
<defs>
<clipPath id="clip0_401_10282">
<rect width="24" height="24" fill="white"/>
</clipPath>
</defs>
</svg>
