<svg width="24" height="24" viewBox="0 0 24 24" fill="none" xmlns="http://www.w3.org/2000/svg">
<g clip-path="url(#clip0_401_10550)">
<path d="M10.82 12.49C10.84 12.33 10.86 12.17 10.86 12C10.86 11.83 10.84 11.67 10.82 11.51L11.9 10.69C12 10.62 12.02 10.48 11.96 10.37L10.93 8.64C10.87 8.53 10.73 8.49 10.62 8.53L9.34001 9.03C9.07001 8.83 8.78001 8.67 8.47001 8.54L8.27001 7.21C8.27001 7.09 8.16001 7 8.03001 7H5.98001C5.85001 7 5.74001 7.09 5.72001 7.21L5.52001 8.53C5.21001 8.65 4.92001 8.83 4.65001 9.02L3.37001 8.52C3.25001 8.47 3.12001 8.52 3.06001 8.63L2.03001 10.36C1.97001 10.48 2.00001 10.61 2.10001 10.69L3.18001 11.51C3.16001 11.67 3.15001 11.84 3.15001 12C3.15001 12.17 3.17001 12.33 3.19001 12.49L2.10001 13.32C2.00001 13.39 1.98001 13.53 2.04001 13.64L3.07001 15.37C3.13001 15.48 3.27001 15.52 3.38001 15.48L4.66001 14.98C4.93001 15.18 5.22001 15.34 5.53001 15.47L5.73001 16.79C5.74001 16.91 5.85001 17 5.98001 17H8.04001C8.17001 17 8.28001 16.91 8.29001 16.79L8.49001 15.47C8.80001 15.35 9.09001 15.17 9.36001 14.98L10.64 15.48C10.76 15.53 10.89 15.48 10.95 15.37L11.98 13.64C12.04 13.53 12.02 13.4 11.92 13.32L10.82 12.49ZM7.00001 13.75C6.01001 13.75 5.20001 12.97 5.20001 12C5.20001 11.03 6.01001 10.25 7.00001 10.25C7.99001 10.25 8.80001 11.03 8.80001 12C8.80001 12.97 8.00001 13.75 7.00001 13.75ZM18 1.01L8.00001 1C6.90001 1 6.00001 1.9 6.00001 3V6H8.00001V5H18V19H8.00001V18H6.00001V21C6.00001 22.1 6.90001 23 8.00001 23H18C19.1 23 20 22.1 20 21V3C20 1.9 19.1 1.01 18 1.01Z" fill="black"/>
</g>
<defs>
<clipPath id="clip0_401_10550">
<rect width="24" height="24" fill="white"/>
</clipPath>
</defs>
</svg>
