<svg width="24" height="24" viewBox="0 0 24 24" fill="none" xmlns="http://www.w3.org/2000/svg">
<g clip-path="url(#clip0_401_10655)">
<path d="M21 15V13H17.93C17.88 12.61 17.81 12.23 17.71 11.86L20.29 10.37L19.29 8.64001L16.92 10C16.64 9.52001 16.3 9.09001 15.93 8.71001C15.97 8.48001 16 8.25001 16 8.00001C16 7.20001 15.76 6.45001 15.35 5.82001L17 4.17001L15.59 2.76001L13.87 4.48001C12.19 3.59001 10.77 4.15001 10.14 4.48001L8.41 2.76001L7 4.17001L8.65 5.82001C8.24 6.45001 8 7.20001 8 8.00001C8 8.25001 8.03 8.48001 8.07 8.72001C7.7 9.10001 7.36 9.53001 7.08 10L4.71 8.63001L3.71 10.36L6.29 11.85C6.19 12.22 6.12 12.6 6.07 12.99H3V14.99H6.07C6.12 15.38 6.19 15.76 6.29 16.13L3.71 17.62L4.71 19.35L7.08 18C8.16 19.81 9.96 21 12 21C14.04 21 15.84 19.81 16.92 18L19.29 19.37L20.29 17.64L17.71 16.15C17.81 15.78 17.88 15.4 17.93 15.01H21V15ZM13 17H11V11H13V17Z" fill="black"/>
</g>
<defs>
<clipPath id="clip0_401_10655">
<rect width="24" height="24" fill="white"/>
</clipPath>
</defs>
</svg>
