<svg width="24" height="24" viewBox="0 0 24 24" fill="none" xmlns="http://www.w3.org/2000/svg">
<g clip-path="url(#clip0_401_10593)">
<path d="M6 18.0001C7.1 18.0001 8 18.9001 8 20.0001C8 21.1001 7.1 22.0001 6 22.0001C4.9 22.0001 4 21.1001 4 20.0001C4 18.9001 4.9 18.0001 6 18.0001ZM18.65 3.00006C16.99 3.00006 16.11 4.27006 15.47 5.03006L11.97 9.14006L17 14.1701V6.27006C17.58 5.59006 17.97 5.00006 18.65 5.00006C19.42 5.00006 20 5.66006 20 6.48006V7.00006H22V6.48006C22 4.56006 20.52 3.00006 18.65 3.00006ZM10.67 10.6701L2.81 2.81006L1.39 4.22006L9.36 12.1901L6.7 15.3101C6.15 15.9601 6.61 16.9601 7.46 16.9601H14.12L15.29 18.1301C14.54 18.4201 14 19.1401 14 20.0001C14 21.1001 14.9 22.0001 16 22.0001C16.86 22.0001 17.58 21.4601 17.87 20.7001L19.78 22.6101L21.19 21.2001L16.39 16.4001L10.67 10.6701ZM13.47 5.03006C13.74 4.71006 14.05 4.31006 14.45 3.94006C11.99 2.75006 9.13 2.72006 6.64 3.81006L10.89 8.06006L13.47 5.03006Z" fill="black"/>
</g>
<defs>
<clipPath id="clip0_401_10593">
<rect width="24" height="24" fill="white"/>
</clipPath>
</defs>
</svg>
