<svg width="24" height="24" viewBox="0 0 24 24" fill="none" xmlns="http://www.w3.org/2000/svg">
<g clip-path="url(#clip0_401_10567)">
<path d="M8.14 10.9601C8.05 11.2901 8 11.6401 8 12.0001C8 13.1001 8.45 14.1001 9.17 14.8301L7.75 16.2501C6.67 15.1601 6 13.6601 6 12.0001C6 11.0701 6.21 10.2001 6.58 9.41006L5.11 7.94006C4.4 9.13006 4 10.5201 4 12.0001C4 14.2101 4.9 16.2101 6.35 17.6501L4.93 19.0701C3.12 17.2601 2 14.7601 2 12.0001C2 9.96006 2.61 8.07006 3.66 6.49006L1.39 4.22006L2.8 2.81006L21.18 21.1901L19.77 22.6001L8.14 10.9601ZM17.42 14.5901C17.79 13.8001 18 12.9301 18 12.0001C18 10.3401 17.33 8.84006 16.24 7.76006L14.82 9.18006C15.55 9.90006 16 10.9001 16 12.0001C16 12.3601 15.95 12.7101 15.86 13.0401L17.42 14.5901ZM20 12.0001C20 13.4801 19.6 14.8701 18.89 16.0601L20.34 17.5101C21.39 15.9301 22 14.0401 22 12.0001C22 9.24006 20.88 6.74006 19.07 4.93006L17.65 6.35006C19.1 7.79006 20 9.79006 20 12.0001Z" fill="black"/>
</g>
<defs>
<clipPath id="clip0_401_10567">
<rect width="24" height="24" fill="white"/>
</clipPath>
</defs>
</svg>
