<svg width="24" height="24" viewBox="0 0 24 24" fill="none" xmlns="http://www.w3.org/2000/svg">
<g clip-path="url(#clip0_401_9066)">
<path d="M23 17C23 20.31 20.31 23 17 23V21.5C19.48 21.5 21.5 19.48 21.5 17H23ZM1 7C1 3.69 3.69 1 7 1V2.5C4.52 2.5 2.5 4.52 2.5 7H1ZM8.01 4.32L3.41 8.92C0.190003 12.14 0.190003 17.37 3.41 20.59C6.63 23.81 11.86 23.81 15.08 20.59L22.15 13.52C22.64 13.03 22.64 12.24 22.15 11.75C21.66 11.26 20.87 11.26 20.38 11.75L15.96 16.17L15.25 15.46L21.79 8.92C22.28 8.43 22.28 7.64 21.79 7.15C21.3 6.66 20.51 6.66 20.02 7.15L14.19 12.98L13.48 12.27L20.37 5.38C20.86 4.89 20.86 4.1 20.37 3.61C19.88 3.12 19.09 3.12 18.6 3.61L11.71 10.5L11.02 9.8L16.5 4.32C16.99 3.83 16.99 3.04 16.5 2.55C16.01 2.06 15.22 2.06 14.73 2.55L7.11 10.17C8.33 11.74 8.22 14.01 6.78 15.45L6.07 14.74C7.24 13.57 7.24 11.67 6.07 10.5L5.72 10.15L9.79 6.08C10.28 5.59 10.28 4.8 9.79 4.31C9.29 3.83 8.5 3.83 8.01 4.32Z" fill="black"/>
</g>
<defs>
<clipPath id="clip0_401_9066">
<rect width="24" height="24" fill="white"/>
</clipPath>
</defs>
</svg>
