<svg width="24" height="24" viewBox="0 0 24 24" fill="none" xmlns="http://www.w3.org/2000/svg">
<g clip-path="url(#clip0_401_9659)">
<path d="M13.05 9.79005L10 7.50005V16.5L13.05 14.21L16 12L13.05 9.79005ZM13.05 9.79005L10 7.50005V16.5L13.05 14.21L16 12L13.05 9.79005ZM13.05 9.79005L10 7.50005V16.5L13.05 14.21L16 12L13.05 9.79005ZM11 4.07005V2.05005C8.99 2.25005 7.16 3.05005 5.68 4.26005L7.1 5.69005C8.21 4.83005 9.54 4.25005 11 4.07005ZM5.69 7.10005L4.26 5.68005C3.05 7.16005 2.25 8.99005 2.05 11H4.07C4.25 9.54005 4.83 8.21005 5.69 7.10005ZM4.07 13H2.05C2.25 15.01 3.05 16.84 4.26 18.32L5.69 16.89C4.83 15.79 4.25 14.46 4.07 13ZM5.68 19.74C7.16 20.9501 9 21.75 11 21.9501V19.93C9.54 19.75 8.21 19.17 7.1 18.31L5.68 19.74ZM22 12C22 17.16 18.08 21.42 13.05 21.9501V19.93C16.97 19.41 20 16.05 20 12C20 7.95005 16.97 4.59005 13.05 4.07005V2.05005C18.08 2.58005 22 6.84005 22 12Z" fill="black"/>
</g>
<defs>
<clipPath id="clip0_401_9659">
<rect width="24" height="24" fill="white"/>
</clipPath>
</defs>
</svg>
