<svg width="24" height="24" viewBox="0 0 24 24" fill="none" xmlns="http://www.w3.org/2000/svg">
<g clip-path="url(#clip0_401_11014)">
<path d="M19.93 8.21007L16.33 9.89007L14 7.70007V6.30007L16.33 4.11007L19.93 5.79007C20.31 5.97007 20.75 5.80007 20.93 5.43007C21.11 5.05007 20.94 4.61007 20.57 4.43007L16.65 2.60007C16.27 2.42007 15.82 2.50007 15.52 2.80007L13.78 4.40007C13.6 4.16007 13.32 4.00007 13 4.00007C12.45 4.00007 12 4.45007 12 5.00007V6.00007H8.82C8.34 4.65007 6.98 3.73007 5.4 4.07007C4.24 4.32007 3.25 5.32007 3.04 6.50007C2.82 7.82007 3.5 8.97007 4.52 9.58007L7.08 18.0001H4V21.0001H17V18.0001H13.38L8.41 8.77007C8.58 8.53007 8.72 8.28007 8.82 8.00007H12V9.00007C12 9.55007 12.45 10.0001 13 10.0001C13.32 10.0001 13.6 9.84007 13.78 9.60007L15.52 11.2001C15.82 11.5001 16.27 11.5801 16.65 11.4001L20.57 9.57007C20.95 9.39007 21.11 8.95007 20.93 8.57007C20.75 8.20007 20.31 8.03007 19.93 8.21007ZM6 8.00007C5.45 8.00007 5 7.55007 5 7.00007C5 6.45007 5.45 6.00007 6 6.00007C6.55 6.00007 7 6.45007 7 7.00007C7 7.55007 6.55 8.00007 6 8.00007Z" fill="black"/>
</g>
<defs>
<clipPath id="clip0_401_11014">
<rect width="24" height="24" fill="white"/>
</clipPath>
</defs>
</svg>
