<svg width="24" height="24" viewBox="0 0 24 24" fill="none" xmlns="http://www.w3.org/2000/svg">
<g clip-path="url(#clip0_401_9086)">
<path d="M11 2H3V4H11V2Z" fill="black"/>
<path d="M6 11H8V7H11V5H3V7H6V11Z" fill="black"/>
<path d="M20.1817 12.4035L12.4036 20.1816L13.8178 21.5958L21.5959 13.8177L20.1817 12.4035Z" fill="black"/>
<path d="M14.5 16C15.3284 16 16 15.3284 16 14.5C16 13.6716 15.3284 13 14.5 13C13.6716 13 13 13.6716 13 14.5C13 15.3284 13.6716 16 14.5 16Z" fill="black"/>
<path d="M19.5 21C20.3284 21 21 20.3284 21 19.5C21 18.6716 20.3284 18 19.5 18C18.6716 18 18 18.6716 18 19.5C18 20.3284 18.6716 21 19.5 21Z" fill="black"/>
<path d="M15.5 11C16.88 11 18 9.88 18 8.5V4H21V2H17V6.51C16.58 6.19 16.07 6 15.5 6C14.12 6 13 7.12 13 8.5C13 9.88 14.12 11 15.5 11Z" fill="black"/>
<path d="M9.74 15.96L8.33 17.37L7.62 16.66L7.97 16.31C8.95 15.33 8.95 13.75 7.97 12.77C7.48 12.28 6.84 12.04 6.2 12.04C5.56 12.04 4.92 12.28 4.43 12.77C3.45 13.75 3.45 15.33 4.43 16.31L4.78 16.66L3.72 17.72C2.74 18.7 2.74 20.28 3.72 21.26C4.22 21.76 4.86 22 5.5 22C6.14 22 6.78 21.76 7.27 21.27L8.33 20.21L9.74 21.62L11.15 20.21L9.74 18.8L11.15 17.39L9.74 15.96ZM5.85 14.2C5.97 14.08 6.11 14.05 6.2 14.05C6.29 14.05 6.43 14.08 6.55 14.2C6.74 14.4 6.74 14.71 6.55 14.91L6.2 15.26L5.85 14.9C5.66 14.71 5.66 14.39 5.85 14.2ZM5.85 19.85C5.73 19.97 5.59 20 5.5 20C5.41 20 5.27 19.97 5.15 19.85C4.96 19.66 4.96 19.34 5.15 19.14L6.21 18.08L6.92 18.79L5.85 19.85Z" fill="black"/>
</g>
<defs>
<clipPath id="clip0_401_9086">
<rect width="24" height="24" fill="white"/>
</clipPath>
</defs>
</svg>
