<svg width="24" height="24" viewBox="0 0 24 24" fill="none" xmlns="http://www.w3.org/2000/svg">
<g clip-path="url(#clip0_401_9528)">
<path d="M18.7 12.4001C18.42 12.2401 18.13 12.1101 17.84 12.0001C18.13 11.8901 18.42 11.7601 18.7 11.6001C20.62 10.4901 21.69 8.48006 21.7 6.41006C19.91 5.38006 17.63 5.30006 15.7 6.41006C15.42 6.57006 15.16 6.76006 14.92 6.95006C14.97 6.64006 15 6.32006 15 6.00006C15 3.78006 13.79 1.85006 12 0.810059C10.21 1.85006 9 3.78006 9 6.00006C9 6.32006 9.03 6.64006 9.08 6.95006C8.84 6.75006 8.58 6.56006 8.3 6.40006C6.38 5.29006 4.1 5.37006 2.3 6.40006C2.3 8.47006 3.37 10.4801 5.3 11.5901C5.58 11.7501 5.87 11.8801 6.16 11.9901C5.87 12.1001 5.58 12.2301 5.3 12.3901C3.38 13.5001 2.31 15.5101 2.3 17.5801C4.09 18.6101 6.37 18.6901 8.3 17.5801C8.58 17.4201 8.84 17.2301 9.08 17.0401C9.03 17.3601 9 17.6801 9 18.0001C9 20.2201 10.21 22.1501 12 23.1901C13.79 22.1501 15 20.2201 15 18.0001C15 17.6801 14.97 17.3601 14.92 17.0501C15.16 17.2501 15.42 17.4301 15.7 17.5901C17.62 18.7001 19.9 18.6201 21.7 17.5901C21.69 15.5201 20.62 13.5101 18.7 12.4001ZM12 16.0001C9.79 16.0001 8 14.2101 8 12.0001C8 9.79006 9.79 8.00006 12 8.00006C14.21 8.00006 16 9.79006 16 12.0001C16 14.2101 14.21 16.0001 12 16.0001Z" fill="black"/>
</g>
<defs>
<clipPath id="clip0_401_9528">
<rect width="24" height="24" fill="white"/>
</clipPath>
</defs>
</svg>
