<svg width="24" height="24" viewBox="0 0 24 24" fill="none" xmlns="http://www.w3.org/2000/svg">
<g clip-path="url(#clip0_401_9887)">
<path d="M19.05 4.91C17.18 3.03 14.69 2 12.04 2C6.58 2 2.13 6.45 2.13 11.91C2.13 13.66 2.59 15.36 3.45 16.86L2.05 22L7.3 20.62C8.75 21.41 10.38 21.83 12.04 21.83C17.5 21.83 21.95 17.38 21.95 11.92C21.95 9.27 20.92 6.78 19.05 4.91ZM12.04 20.15C10.56 20.15 9.11 19.75 7.84 19L7.54 18.82L4.42 19.64L5.25 16.6L5.05 16.29C4.23 14.98 3.79 13.46 3.79 11.91C3.79 7.37 7.49 3.67 12.03 3.67C14.23 3.67 16.3 4.53 17.85 6.09C19.41 7.65 20.26 9.72 20.26 11.92C20.28 16.46 16.58 20.15 12.04 20.15ZM16.56 13.99C16.31 13.87 15.09 13.27 14.87 13.18C14.64 13.1 14.48 13.06 14.31 13.3C14.14 13.55 13.67 14.11 13.53 14.27C13.39 14.44 13.24 14.46 12.99 14.33C12.74 14.21 11.94 13.94 11 13.1C10.26 12.44 9.77 11.63 9.62 11.38C9.48 11.13 9.6 11 9.73 10.87C9.84 10.76 9.98 10.58 10.1 10.44C10.22 10.3 10.27 10.19 10.35 10.03C10.43 9.86 10.39 9.72 10.33 9.6C10.27 9.48 9.77 8.26 9.57 7.76C9.37 7.28 9.16 7.34 9.01 7.33C8.86 7.33 8.7 7.33 8.53 7.33C8.36 7.33 8.1 7.39 7.87 7.64C7.65 7.89 7.01 8.49 7.01 9.71C7.01 10.93 7.9 12.11 8.02 12.27C8.14 12.44 9.77 14.94 12.25 16.01C12.84 16.27 13.3 16.42 13.66 16.53C14.25 16.72 14.79 16.69 15.22 16.63C15.7 16.56 16.69 16.03 16.89 15.45C17.1 14.87 17.1 14.38 17.03 14.27C16.96 14.16 16.81 14.11 16.56 13.99Z" fill="black"/>
</g>
<defs>
<clipPath id="clip0_401_9887">
<rect width="24" height="24" fill="white"/>
</clipPath>
</defs>
</svg>
