<svg width="24" height="24" viewBox="0 0 24 24" fill="none" xmlns="http://www.w3.org/2000/svg">
<g clip-path="url(#clip0_401_10667)">
<path d="M16.34 8.36L14.05 9.18C13.87 9.05 13.67 8.93 13.47 8.84C13.64 8.01 14.1 7.26 14.83 6.78C16.85 5.44 16.18 2 13.39 2C10.31 2 8.49 3.47 8.09 5.26L18.73 15.9C20.23 16.29 22 15.39 22 13.39C22 9 18.99 7.16 16.34 8.36Z" fill="black"/>
<path d="M2.81 2.81L1.39 4.22L5.27 8.1C3.77 7.7 2 8.61 2 10.61C2 15.01 5.01 16.85 7.66 15.64L9.95 14.82C10.13 14.95 10.33 15.07 10.53 15.16C10.36 15.99 9.9 16.74 9.17 17.22C7.15 18.56 7.82 22 10.61 22C13.69 22 15.51 20.53 15.91 18.74L19.78 22.61L21.19 21.2L2.81 2.81Z" fill="black"/>
</g>
<defs>
<clipPath id="clip0_401_10667">
<rect width="24" height="24" fill="white"/>
</clipPath>
</defs>
</svg>
