<svg width="24" height="24" viewBox="0 0 24 24" fill="none" xmlns="http://www.w3.org/2000/svg">
<g clip-path="url(#clip0_401_9441)">
<path d="M16 14V6C16 4.24 18.24 2 21 2V18.17L19 16.17V14H16ZM20.49 23.31L10.02 12.85C9.69 12.94 9.36 13 9 13V22H7V13C4.79 13 3 11.21 3 9V5.83L0.690002 3.51L2.1 2.1L21.9 21.9L20.49 23.31ZM6.17 9L5 7.83V9H6.17ZM9 2H7V4.17L9 6.17V2ZM13 9V2H11V8.17L12.85 10.02C12.94 9.69 13 9.36 13 9Z" fill="black"/>
</g>
<defs>
<clipPath id="clip0_401_9441">
<rect width="24" height="24" fill="white"/>
</clipPath>
</defs>
</svg>
