<svg width="24" height="24" viewBox="0 0 24 24" fill="none" xmlns="http://www.w3.org/2000/svg">
<g clip-path="url(#clip0_401_9944)">
<path d="M1.39 4.22L9.29 12.12C9.47 12.32 9.47 12.62 9.28 12.82C9.18 12.92 9.05 12.97 8.93 12.97C8.81 12.97 8.67 12.92 8.58 12.82L6.87 11.1C6.76 11.5 6.61 11.88 6.42 12.22L7.82 13.62C8.02 13.82 8.02 14.13 7.82 14.33C7.72 14.43 7.59 14.48 7.47 14.48C7.35 14.48 7.21 14.43 7.12 14.33L5.85 13.06C5.61 13.35 5.35 13.62 5.08 13.86L6.36 15.14C6.56 15.34 6.56 15.65 6.36 15.85C6.26 15.95 6.13 16 6 16C5.87 16 5.74 15.95 5.65 15.85L4.27 14.47C3.58 14.93 2.88 15.26 2.3 15.49C1.52 15.8 1 16.53 1 17.37V20H10.5L13.83 16.67L19.77 22.61L21.18 21.2L2.81 2.81L1.39 4.22ZM18.51 15.68L17.1 14.27L21.58 9.79L23 11.2L18.51 15.68ZM20.88 9.08L16.4 13.56L9.3 6.47L13.8 2L20.88 9.08Z" fill="black"/>
</g>
<defs>
<clipPath id="clip0_401_9944">
<rect width="24" height="24" fill="white"/>
</clipPath>
</defs>
</svg>
