<svg width="24" height="24" viewBox="0 0 24 24" fill="none" xmlns="http://www.w3.org/2000/svg">
<g clip-path="url(#clip0_401_10226)">
<path d="M22 6.00002V4.00002H6.82L8.82 6.00002H22ZM1.92 1.65002L0.65 2.92002L2.47 4.74002C2.18 5.08002 2 5.52002 2 6.00002V17H0V20H17.73L20.08 22.35L21.35 21.08L3.89 3.62002L1.92 1.65002ZM4 6.27002L14.73 17H4V6.27002ZM23 8.00002H17C16.45 8.00002 16 8.45002 16 9.00002V13.18L18 15.18V10H22V17H19.82L22.82 20H23C23.55 20 24 19.55 24 19V9.00002C24 8.45002 23.55 8.00002 23 8.00002Z" fill="black"/>
</g>
<defs>
<clipPath id="clip0_401_10226">
<rect width="24" height="24" fill="white"/>
</clipPath>
</defs>
</svg>
