<svg width="24" height="24" viewBox="0 0 24 24" fill="none" xmlns="http://www.w3.org/2000/svg">
<g clip-path="url(#clip0_401_10722)">
<path d="M22 17C22 17.55 21.55 18 21 18H20.83L18.63 15.8C20.58 15.37 22 14.4 22 13C22 12 14 5 14 5H11V7H13.25L14.7 8.3L11 11L1.5 10L0 13L4.54 14.36L1.05 16.24C-0.77 17.22 -0.0699999 20 2 20H8C10.21 20 12 18.21 12 16H16L18 18H15V20H21C22.66 20 24 18.66 24 17H22ZM8 18H2L7.25 15.17L10 16C10 17.1 9.11 18 8 18Z" fill="black"/>
</g>
<defs>
<clipPath id="clip0_401_10722">
<rect width="24" height="24" fill="white"/>
</clipPath>
</defs>
</svg>
