<svg width="24" height="24" viewBox="0 0 24 24" fill="none" xmlns="http://www.w3.org/2000/svg">
<g clip-path="url(#clip0_401_10218)">
<path d="M10 13C12.2091 13 14 11.2091 14 9C14 6.79086 12.2091 5 10 5C7.79086 5 6 6.79086 6 9C6 11.2091 7.79086 13 10 13Z" fill="black"/>
<path d="M16.39 15.56C14.71 14.7 12.53 14 10 14C7.47 14 5.29 14.7 3.61 15.56C2.61 16.07 2 17.1 2 18.22V21H18V18.22C18 17.1 17.39 16.07 16.39 15.56Z" fill="black"/>
<path d="M20.05 2.41L18.64 1C15.13 4.51 15.13 10.21 18.64 13.73L20.05 12.32C17.32 9.58 17.32 5.14 20.05 2.41Z" fill="black"/>
<path d="M22.88 5.23996L21.47 3.82996C19.52 5.77996 19.52 8.94996 21.47 10.9L22.88 9.48996C21.71 8.31996 21.71 6.40996 22.88 5.23996Z" fill="black"/>
</g>
<defs>
<clipPath id="clip0_401_10218">
<rect width="24" height="24" fill="white"/>
</clipPath>
</defs>
</svg>
