<svg width="24" height="24" viewBox="0 0 24 24" fill="none" xmlns="http://www.w3.org/2000/svg">
<g clip-path="url(#clip0_401_10787)">
<path d="M15.65 4.86L15.58 4.79C15.01 4.17 14.76 3.38 14.91 2.59L15 2H13.11L13.05 2.43C12.85 3.79 13.32 5.14 14.35 6.15L14.42 6.21C14.99 6.83 15.24 7.62 15.09 8.41L14.98 9H16.89L16.95 8.57C17.16 7.21 16.68 5.86 15.65 4.86ZM19.65 4.86L19.58 4.79C19.01 4.17 18.76 3.38 18.91 2.59L19 2H17.11L17.05 2.43C16.85 3.79 17.32 5.14 18.35 6.15L18.42 6.21C18.99 6.83 19.24 7.62 19.09 8.41L18.98 9H20.89L20.95 8.57C21.16 7.21 20.68 5.86 19.65 4.86ZM9.12 5L1.94 11.79C1.34 12.35 1 13.14 1 13.97V20C1 21.66 2.34 23 4 23H10.25H12H17.75C18.44 23 19 22.44 19 21.75C19 21.06 18.44 20.5 17.75 20.5H12V19.5H19.75C20.44 19.5 21 18.94 21 18.25C21 17.56 20.44 17 19.75 17H12V16H20.75C21.44 16 22 15.44 22 14.75C22 14.06 21.44 13.5 20.75 13.5H12V12.5H18.75C19.44 12.5 20 11.94 20 11.25C20 10.56 19.44 10 18.75 10H8.86C9.5 8.89 10.34 7.42 10.35 7.39C10.44 7.23 10.49 7.06 10.49 6.86C10.49 6.6 10.4 6.36 10.23 6.16C10.22 6.12 9.12 5 9.12 5Z" fill="black"/>
</g>
<defs>
<clipPath id="clip0_401_10787">
<rect width="24" height="24" fill="white"/>
</clipPath>
</defs>
</svg>
