<svg width="24" height="24" viewBox="0 0 24 24" fill="none" xmlns="http://www.w3.org/2000/svg">
<g clip-path="url(#clip0_401_10406)">
<path d="M17 5C17.83 5 18.5 4.33 18.5 3.5C18.5 2.5 17 0.799999 17 0.799999C17 0.799999 15.5 2.5 15.5 3.5C15.5 4.33 16.17 5 17 5ZM12 5C12.83 5 13.5 4.33 13.5 3.5C13.5 2.5 12 0.799999 12 0.799999C12 0.799999 10.5 2.5 10.5 3.5C10.5 4.33 11.17 5 12 5ZM7 5C7.83 5 8.5 4.33 8.5 3.5C8.5 2.5 7 0.799999 7 0.799999C7 0.799999 5.5 2.5 5.5 3.5C5.5 4.33 6.17 5 7 5ZM18.92 8.01C18.72 7.42 18.16 7 17.5 7H6.5C5.84 7 5.29 7.42 5.08 8.01L3 14V22C3 22.55 3.45 23 4 23H5C5.55 23 6 22.55 6 22V21H18V22C18 22.55 18.45 23 19 23H20C20.55 23 21 22.55 21 22V14L18.92 8.01ZM6.5 18C5.67 18 5 17.33 5 16.5C5 15.67 5.67 15 6.5 15C7.33 15 8 15.67 8 16.5C8 17.33 7.33 18 6.5 18ZM17.5 18C16.67 18 16 17.33 16 16.5C16 15.67 16.67 15 17.5 15C18.33 15 19 15.67 19 16.5C19 17.33 18.33 18 17.5 18ZM5 13L6.5 8.5H17.5L19 13H5Z" fill="black"/>
</g>
<defs>
<clipPath id="clip0_401_10406">
<rect width="24" height="24" fill="white"/>
</clipPath>
</defs>
</svg>
