<svg width="24" height="24" viewBox="0 0 24 24" fill="none" xmlns="http://www.w3.org/2000/svg">
<g clip-path="url(#clip0_401_10321)">
<path d="M15 8H19V12H18V14C18 14.34 17.92 14.66 17.77 14.94L16 13.17V12H15V8ZM11 8.17L13 10.17V6H15L12 2L9 6H11V8.17ZM13 16V18.28C13.6 18.62 14 19.26 14 20C14 21.1 13.1 22 12 22C10.9 22 10 21.1 10 20C10 19.26 10.4 18.63 11 18.28V16H8C6.89 16 6 15.11 6 14V11.72C5.4 11.38 5 10.74 5 10C5 9.41 5.26 8.87 5.68 8.51L1.39 4.22L2.8 2.81L21.18 21.19L19.77 22.6L13.17 16H13ZM11 14V13.83L8.49 11.32C8.35 11.48 8.18 11.61 8 11.72V14H11Z" fill="black"/>
</g>
<defs>
<clipPath id="clip0_401_10321">
<rect width="24" height="24" fill="white"/>
</clipPath>
</defs>
</svg>
