<svg width="24" height="24" viewBox="0 0 24 24" fill="none" xmlns="http://www.w3.org/2000/svg">
<g clip-path="url(#clip0_401_10209)">
<path d="M17.83 15.0001H19.5C20.05 15.0001 20.5 14.5501 20.5 14.0001V12.5001C20.5 11.9501 20.05 11.5001 19.5 11.5001H17V10.5001H19V11.0001H20.5V10.0001C20.5 9.45006 20.05 9.00006 19.5 9.00006H16.5C15.95 9.00006 15.5 9.45006 15.5 10.0001V11.5001C15.5 12.0501 15.95 12.5001 16.5 12.5001H19V13.5001H17V13.0001H15.83L17.83 15.0001ZM8 10.8301V15.0001H6.5V12.5001H4.5V15.0001H3V9.00006H4.5V11.0001H6.5V9.33006L1.39 4.22006L2.8 2.81006L21.18 21.1901L19.77 22.6001L12.17 15.0001H10V12.8301L8 10.8301Z" fill="black"/>
</g>
<defs>
<clipPath id="clip0_401_10209">
<rect width="24" height="24" fill="white"/>
</clipPath>
</defs>
</svg>
