<svg width="24" height="24" viewBox="0 0 24 24" fill="none" xmlns="http://www.w3.org/2000/svg">
<g clip-path="url(#clip0_401_9458)">
<path d="M4.07 13H2.05C2.25 15.01 3.05 16.84 4.26 18.33L5.69 16.9C4.83 15.79 4.25 14.46 4.07 13Z" fill="black"/>
<path d="M5.69 7.10017L4.26 5.67017C3.05 7.16017 2.25 8.99017 2.05 11.0002H4.07C4.25 9.54017 4.83 8.21017 5.69 7.10017Z" fill="black"/>
<path d="M11 4.07005V2.05005C8.99 2.25005 7.16 3.05005 5.67 4.26005L7.1 5.69005C8.21 4.83005 9.54 4.25005 11 4.07005Z" fill="black"/>
<path d="M18.33 4.26005C16.84 3.05005 15.01 2.25005 13 2.05005V4.07005C14.46 4.25005 15.79 4.83005 16.9 5.69005L18.33 4.26005Z" fill="black"/>
<path d="M18.31 16.9L19.74 18.33C20.95 16.85 21.75 15.01 21.95 13H19.93C19.75 14.46 19.17 15.79 18.31 16.9Z" fill="black"/>
<path d="M19.93 11.0002H21.95C21.75 8.99017 20.95 7.16017 19.74 5.67017L18.31 7.10017C19.17 8.21017 19.75 9.54017 19.93 11.0002Z" fill="black"/>
<path d="M13 19.9301V21.9501C15.01 21.7501 16.84 20.9501 18.33 19.7401L16.9 18.3101C15.79 19.1701 14.46 19.7501 13 19.9301Z" fill="black"/>
<path d="M5.67 19.7401C7.15 20.9501 8.99 21.7501 11 21.9501V19.9301C9.54 19.7501 8.21 19.1701 7.1 18.3101L5.67 19.7401Z" fill="black"/>
<path d="M12 17C14.7614 17 17 14.7614 17 12C17 9.23858 14.7614 7 12 7C9.23858 7 7 9.23858 7 12C7 14.7614 9.23858 17 12 17Z" fill="black"/>
</g>
<defs>
<clipPath id="clip0_401_9458">
<rect width="24" height="24" fill="white"/>
</clipPath>
</defs>
</svg>
