<svg width="24" height="24" viewBox="0 0 24 24" fill="none" xmlns="http://www.w3.org/2000/svg">
<g clip-path="url(#clip0_401_9499)">
<path d="M9 14.25C9.69036 14.25 10.25 13.6904 10.25 13C10.25 12.3096 9.69036 11.75 9 11.75C8.30964 11.75 7.75 12.3096 7.75 13C7.75 13.6904 8.30964 14.25 9 14.25Z" fill="black"/>
<path d="M17.5 10C18.25 10 18.97 9.91 19.67 9.76C19.88 10.47 20 11.22 20 12C20 13.22 19.72 14.37 19.23 15.4L20.72 16.89C21.53 15.44 22 13.78 22 12C22 6.48 17.52 2 12 2C10.22 2 8.56 2.47 7.11 3.28L12.44 8.61C13.93 9.49 15.65 10 17.5 10Z" fill="black"/>
<path d="M1.89 3.72L4.08 5.91C2.78 7.6 2 9.71 2 12C2 17.52 6.48 22 12 22C14.29 22 16.4 21.22 18.09 19.92L20.28 22.11L21.69 20.7L3.31 2.31L1.89 3.72ZM16.66 18.49C15.35 19.44 13.74 20 12 20C7.59 20 4 16.41 4 12C4 11.95 4.01 11.9 4 11.86C5.39 11.34 6.63 10.51 7.64 9.47L16.66 18.49Z" fill="black"/>
</g>
<defs>
<clipPath id="clip0_401_9499">
<rect width="24" height="24" fill="white"/>
</clipPath>
</defs>
</svg>
