<svg width="24" height="24" viewBox="0 0 24 24" fill="none" xmlns="http://www.w3.org/2000/svg">
<g clip-path="url(#clip0_401_9765)">
<path d="M18.93 8C16.72 4.18 11.82 2.87 8 5.07C6.59 5.89 5.52 7.07 4.84 8.44C4.71 6.24 5.06 4.04 5.86 2H3.74C2.2 6.49 2.52 11.58 5.07 16C6.17 17.91 7.95 19.19 9.93 19.72C11.91 20.25 14.09 20.03 16 18.93C17.41 18.11 18.48 16.93 19.16 15.56C19.29 17.76 18.95 19.96 18.15 22H20.26C21.79 17.51 21.48 12.42 18.93 8ZM15 17.2C12.13 18.85 8.46 17.87 6.8 15C6.69 14.8 6.59 14.6 6.5 14.4C5.3 11.64 6.33 8.34 9 6.8C11.86 5.15 15.54 6.13 17.2 9C17.31 9.2 17.41 9.4 17.5 9.6C18.7 12.36 17.67 15.66 15 17.2ZM12 10C13.1 10 14 10.9 14 12C14 13.1 13.1 14 12 14C10.9 14 10 13.1 10 12C10 10.9 10.9 10 12 10ZM12 8C9.79 8 8 9.79 8 12C8 14.21 9.79 16 12 16C14.21 16 16 14.21 16 12C16 9.79 14.21 8 12 8Z" fill="black"/>
</g>
<defs>
<clipPath id="clip0_401_9765">
<rect width="24" height="24" fill="white"/>
</clipPath>
</defs>
</svg>
