<svg width="24" height="24" viewBox="0 0 24 24" fill="none" xmlns="http://www.w3.org/2000/svg">
<g clip-path="url(#clip0_401_10854)">
<path d="M8 4.9998H10V6.9998H9.1L12 9.8998V8.9998H20V17.8998L22 19.8998V6.9998H12V2.9998H5.1L8 5.89981V4.9998ZM16 10.9998H18V12.9998H16V10.9998ZM1.3 1.7998L0.0999985 3.0998L2 4.9998V20.9998H18L21 23.9998L22.3 22.6998L1.3 1.7998ZM6 18.9998H4V16.9998H6V18.9998ZM6 14.9998H4V12.9998H6V14.9998ZM6 10.9998H4V8.9998H6V10.9998ZM10 18.9998H8V16.9998H10V18.9998ZM10 14.9998H8V12.9998H10V14.9998ZM12 18.9998V16.9998H14L16 18.9998H12Z" fill="black"/>
</g>
<defs>
<clipPath id="clip0_401_10854">
<rect width="24" height="24" fill="white"/>
</clipPath>
</defs>
</svg>
