<svg width="24" height="24" viewBox="0 0 24 24" fill="none" xmlns="http://www.w3.org/2000/svg">
<g clip-path="url(#clip0_401_9931)">
<path d="M9 6.17006V3.00006H15V7.00006H11V8.17006L9 6.17006ZM19.42 15.0001L22 17.5701L21.2 18.3701L14.42 11.5901L15.22 10.7901L17.97 13.5401V9.00006H18.57L22 12.4301L19.42 15.0001ZM19.17 13.5501L20.3 12.4201L19.17 11.2901V13.5501ZM21.19 21.1901L19.78 22.6001L15.8 18.6201L15.22 19.2001L14.37 18.3501L14.95 17.7701L11 13.8301V17.0001C11 19.2101 9.22 21.0001 7.01 21.0001C4.8 21.0001 3 19.2101 3 17.0001C3 14.7901 4.79 13.0001 7.01 13.0001C7.74 13.0001 8.42 13.2101 9.01 13.5501V11.8301L1.39 4.22006L2.8 2.81006L21.19 21.1901Z" fill="black"/>
</g>
<defs>
<clipPath id="clip0_401_9931">
<rect width="24" height="24" fill="white"/>
</clipPath>
</defs>
</svg>
