<svg width="24" height="24" viewBox="0 0 24 24" fill="none" xmlns="http://www.w3.org/2000/svg">
<g clip-path="url(#clip0_401_10833)">
<path d="M2.81 2.81L1.39 4.22L3.66 6.49C2.61 8.07 2 9.96 2 12C2 17.52 6.48 22 12 22C14.04 22 15.93 21.39 17.51 20.34L19.78 22.61L21.19 21.2L2.81 2.81ZM12 20C7.59 20 4 16.41 4 12C4 10.52 4.41 9.14 5.12 7.94L16.06 18.88C14.86 19.59 13.48 20 12 20ZM7.94 5.12L6.49 3.66C8.07 2.61 9.96 2 12 2C17.52 2 22 6.48 22 12C22 14.04 21.39 15.93 20.34 17.51L18.88 16.05C19.59 14.86 20 13.48 20 12C20 7.59 16.41 4 12 4C10.52 4 9.14 4.41 7.94 5.12Z" fill="black"/>
</g>
<defs>
<clipPath id="clip0_401_10833">
<rect width="24" height="24" fill="white"/>
</clipPath>
</defs>
</svg>
