<svg width="24" height="24" viewBox="0 0 24 24" fill="none" xmlns="http://www.w3.org/2000/svg">
<g clip-path="url(#clip0_401_10268)">
<path d="M6.18 20C7.38398 20 8.36 19.024 8.36 17.82C8.36 16.616 7.38398 15.64 6.18 15.64C4.97602 15.64 4 16.616 4 17.82C4 19.024 4.97602 20 6.18 20Z" fill="black"/>
<path d="M4 4.43994V7.26994C11.03 7.26994 16.73 12.9699 16.73 19.9999H19.56C19.56 11.4099 12.59 4.43994 4 4.43994ZM4 10.0999V12.9299C7.9 12.9299 11.07 16.0999 11.07 19.9999H13.9C13.9 14.5299 9.47 10.0999 4 10.0999Z" fill="black"/>
</g>
<defs>
<clipPath id="clip0_401_10268">
<rect width="24" height="24" fill="white"/>
</clipPath>
</defs>
</svg>
