<svg width="24" height="24" viewBox="0 0 24 24" fill="none" xmlns="http://www.w3.org/2000/svg">
<g clip-path="url(#clip0_401_9716)">
<path d="M12 6.00011C15.87 6.00011 19 9.13011 19 13.0001C19 13.8401 18.84 14.6501 18.57 15.4001L20.09 16.9201C20.67 15.7301 21 14.4101 21 13.0001C21 8.03011 16.97 4.00011 12 4.00011C10.59 4.00011 9.27 4.33011 8.08 4.91011L9.6 6.43011C10.35 6.16011 11.16 6.00011 12 6.00011ZM22 5.72011L17.4 1.86011L16.11 3.39011L20.71 7.25011L22 5.72011ZM2.92 2.29011L1.65 3.57011L2.98 4.90011L1.87 5.83011L3.29 7.25011L4.4 6.31011L5.2 7.11011C3.83 8.69011 3 10.7501 3 13.0001C3 17.9701 7.02 22.0001 12 22.0001C14.25 22.0001 16.31 21.1701 17.89 19.8001L20.09 22.0001L21.36 20.7301L3.89 3.27011L2.92 2.29011ZM16.47 18.3901C15.26 19.3901 13.7 20.0001 12 20.0001C8.13 20.0001 5 16.8701 5 13.0001C5 11.3001 5.61 9.74011 6.61 8.53011L16.47 18.3901ZM8.02 3.28011L6.6 1.86011L5.74 2.57011L7.16 3.99011L8.02 3.28011Z" fill="black"/>
</g>
<defs>
<clipPath id="clip0_401_9716">
<rect width="24" height="24" fill="white"/>
</clipPath>
</defs>
</svg>
