<svg width="24" height="24" viewBox="0 0 24 24" fill="none" xmlns="http://www.w3.org/2000/svg">
<g clip-path="url(#clip0_401_10039)">
<path d="M18 6V12H15V6H18ZM18 4H15C13.9 4 13 4.9 13 6V12C13 13.1 13.9 14 15 14H18C19.1 14 20 13.1 20 12V6C20 4.9 19.1 4 18 4ZM11 6V4H6C4.9 4 4 4.9 4 6V12C4 13.1 4.9 14 6 14H9C10.1 14 11 13.1 11 12V10C11 8.9 10.1 8 9 8H6V6H11ZM9 10V12H6V10H9ZM5 22H3V17H5V22ZM9 22H7V17H9V22ZM13 22H11V17H13V22ZM21 22H15V17H21V22Z" fill="black"/>
</g>
<defs>
<clipPath id="clip0_401_10039">
<rect width="24" height="24" fill="white"/>
</clipPath>
</defs>
</svg>
