<svg width="24" height="24" viewBox="0 0 24 24" fill="none" xmlns="http://www.w3.org/2000/svg">
<g clip-path="url(#clip0_401_10222)">
<path d="M10 13C12.2091 13 14 11.2091 14 9C14 6.79086 12.2091 5 10 5C7.79086 5 6 6.79086 6 9C6 11.2091 7.79086 13 10 13Z" fill="black"/>
<path d="M16.39 15.56C14.71 14.7 12.53 14 10 14C7.47 14 5.29 14.7 3.61 15.56C2.61 16.07 2 17.1 2 18.22V21H18V18.22C18 17.1 17.39 16.07 16.39 15.56Z" fill="black"/>
<path d="M20.36 1L18.95 2.41C21.68 5.14 21.68 9.58 18.95 12.31L20.36 13.72C23.88 10.21 23.88 4.51 20.36 1Z" fill="black"/>
<path d="M17.54 10.9C19.49 8.94996 19.49 5.77996 17.54 3.82996L16.13 5.23996C17.3 6.40996 17.3 8.30996 16.13 9.47996L17.54 10.9Z" fill="black"/>
</g>
<defs>
<clipPath id="clip0_401_10222">
<rect width="24" height="24" fill="white"/>
</clipPath>
</defs>
</svg>
