<svg width="24" height="24" viewBox="0 0 24 24" fill="none" xmlns="http://www.w3.org/2000/svg">
<g clip-path="url(#clip0_401_9833)">
<path d="M18 9.98006L5.99999 22.0001H18H22V5.97006L18 9.98006ZM20 20.0001H18V12.7801L20 10.7801V20.0001ZM5.21999 7.22006L3.92999 5.93006C7.82999 2.02006 14.17 2.02006 18.08 5.93006L16.79 7.22006C13.6 4.03006 8.40999 4.03006 5.21999 7.22006ZM12.93 11.0701L11 13.0001L9.06999 11.0701C10.14 10.0101 11.86 10.0101 12.93 11.0701ZM14.22 9.79006C12.44 8.02006 9.55999 8.02006 7.78999 9.79006L6.49999 8.50006C8.97999 6.02006 13.02 6.02006 15.5 8.50006L14.22 9.79006Z" fill="black"/>
</g>
<defs>
<clipPath id="clip0_401_9833">
<rect width="24" height="24" fill="white"/>
</clipPath>
</defs>
</svg>
