<svg width="24" height="24" viewBox="0 0 24 24" fill="none" xmlns="http://www.w3.org/2000/svg">
<g clip-path="url(#clip0_401_9906)">
<path d="M18 13C18 16.31 15.31 19 12 19C8.69 19 6 16.31 6 13C6 9.69 8.69 7 12 7V11L17 6L12 1V5C7.58 5 4 8.58 4 13C4 17.42 7.58 21 12 21C16.42 21 20 17.42 20 13H18Z" fill="black"/>
<path d="M10.86 15.94V11.67H10.77L9 12.3V12.99L10.01 12.68V15.94H10.86Z" fill="black"/>
<path d="M12.25 13.44V14.18C12.25 16.08 13.56 16 13.69 16C13.83 16 15.13 16.09 15.13 14.18V13.44C15.13 11.54 13.82 11.62 13.69 11.62C13.55 11.62 12.25 11.53 12.25 13.44ZM14.29 13.32V14.29C14.29 15.06 14.08 15.32 13.7 15.32C13.32 15.32 13.1 15.06 13.1 14.29V13.32C13.1 12.57 13.32 12.31 13.69 12.31C14.07 12.3 14.29 12.57 14.29 13.32Z" fill="black"/>
</g>
<defs>
<clipPath id="clip0_401_9906">
<rect width="24" height="24" fill="white"/>
</clipPath>
</defs>
</svg>
