<svg width="24" height="24" viewBox="0 0 24 24" fill="none" xmlns="http://www.w3.org/2000/svg">
<g clip-path="url(#clip0_401_9613)">
<path d="M15.44 0.590002L12.26 3.77C11.48 4.55 11.48 5.82 12.26 6.6L13.5 7.84L12.79 8.55L11.55 7.3C10.77 6.52 9.5 6.52 8.72001 7.3L7.3 8.72C6.52001 9.5 6.52001 10.77 7.3 11.55L8.54 12.79L7.83 13.5L6.6 12.25C5.82 11.47 4.55 11.47 3.77 12.25L0.590005 15.43C-0.189995 16.21 -0.189995 17.48 0.590005 18.26L4.13 21.8C4.91 22.58 6.18001 22.58 6.96 21.8L10.14 18.62C10.92 17.84 10.92 16.57 10.14 15.79L8.9 14.55L9.61 13.84L10.85 15.08C11.63 15.86 12.9 15.86 13.68 15.08L15.09 13.67C15.87 12.89 15.87 11.62 15.09 10.84L13.84 9.6L14.55 8.89L15.79 10.13C16.57 10.91 17.84 10.91 18.62 10.13L21.8 6.95C22.58 6.17 22.58 4.9 21.8 4.12L18.26 0.580002C17.48 -0.199998 16.22 -0.199998 15.44 0.590002ZM6.6 19.32L5.54 20.38L2 16.85L3.06 15.79L6.6 19.32ZM8.72001 17.2L7.66 18.26L4.12 14.72L5.18 13.66L8.72001 17.2ZM18.26 7.66L17.2 8.72L13.66 5.18L14.72 4.12L18.26 7.66ZM20.38 5.54L19.32 6.6L15.78 3.06L16.85 2L20.38 5.54ZM14 21V23C18.97 23 23 18.97 23 14H21C21 17.87 17.87 21 14 21ZM14 17V19C16.76 19 19 16.76 19 14H17C17 15.66 15.66 17 14 17Z" fill="black"/>
</g>
<defs>
<clipPath id="clip0_401_9613">
<rect width="24" height="24" fill="white"/>
</clipPath>
</defs>
</svg>
