<svg width="24" height="24" viewBox="0 0 24 24" fill="none" xmlns="http://www.w3.org/2000/svg">
<g clip-path="url(#clip0_401_9229)">
<path d="M12 17.1998C13.7673 17.1998 15.2 15.7671 15.2 13.9998C15.2 12.2325 13.7673 10.7998 12 10.7998C10.2327 10.7998 8.8 12.2325 8.8 13.9998C8.8 15.7671 10.2327 17.1998 12 17.1998Z" fill="black"/>
<path d="M16 3.33C18.58 3.33 20.67 5.42 20.67 8H22C22 4.69 19.31 2 16 2V3.33ZM16 6C17.11 6 18 6.89 18 8H19.33C19.33 6.16 17.84 4.67 16 4.67V6Z" fill="black"/>
<path d="M17 9C17 7.89 16.11 7 15 7V4H9L7.17 6H4C2.9 6 2 6.9 2 8V20C2 21.1 2.9 22 4 22H20C21.1 22 22 21.1 22 20V9H17ZM12 19C9.24 19 7 16.76 7 14C7 11.24 9.24 9 12 9C14.76 9 17 11.24 17 14C17 16.76 14.76 19 12 19Z" fill="black"/>
</g>
<defs>
<clipPath id="clip0_401_9229">
<rect width="24" height="24" fill="white"/>
</clipPath>
</defs>
</svg>
