<svg width="24" height="24" viewBox="0 0 24 24" fill="none" xmlns="http://www.w3.org/2000/svg">
<g clip-path="url(#clip0_401_9244)">
<path d="M9.41 6.58012L12 4.00012L20 12.0001L17.42 14.5901L18.83 16.0001L21.41 13.4101C22.19 12.6301 22.19 11.3601 21.41 10.5801L13.41 2.58012C12.63 1.80012 11.36 1.80012 10.58 2.58012L8 5.17012L9.41 6.58012Z" fill="black"/>
<path d="M2.81 2.81006L1.39 4.22006L5.17 8.00006L2.59 10.5901C1.81 11.3701 1.81 12.6401 2.59 13.4201L10.59 21.4201C11.37 22.2001 12.64 22.2001 13.42 21.4201L16 18.8301L19.78 22.6101L21.19 21.2001L2.81 2.81006ZM12 20.0001L4 12.0001L6.58 9.41006L8.17 11.0001H7V13.0001H10.17L11.67 14.5001L10.59 15.5901L12 17.0001L13.09 15.9101L14.59 17.4101L12 20.0001Z" fill="black"/>
<path d="M12.0054 6.99847L10.9165 8.0874L15.9157 13.0866L17.0046 11.9977L12.0054 6.99847Z" fill="black"/>
</g>
<defs>
<clipPath id="clip0_401_9244">
<rect width="24" height="24" fill="white"/>
</clipPath>
</defs>
</svg>
