<svg width="24" height="24" viewBox="0 0 24 24" fill="none" xmlns="http://www.w3.org/2000/svg">
<g clip-path="url(#clip0_401_9379)">
<path d="M10 7.5L17.5 15L16.09 16.41L15 15.33V20H11V15H9V20H5V15.33L3.91 16.42L2.5 15L10 7.5ZM22 6.5H20.81L21.56 5.75L20.85 5.04L19.39 6.5H18.5V5.61L19.95 4.16L19.24 3.45L18.5 4.19V3H17.5V4.19L16.75 3.44L16.04 4.15L17.49 5.6V6.5H16.6L15.15 5.05L14.44 5.76L15.19 6.51H14V7.51H15.19L14.44 8.26L15.15 8.97L16.6 7.52H17.49V8.41L16.04 9.86L16.75 10.57L17.5 9.82V11H18.5V9.81L19.25 10.56L19.96 9.85L18.5 8.39V7.5H19.39L20.84 8.95L21.55 8.24L20.81 7.5H22V6.5Z" fill="black"/>
</g>
<defs>
<clipPath id="clip0_401_9379">
<rect width="24" height="24" fill="white"/>
</clipPath>
</defs>
</svg>
