<svg width="24" height="24" viewBox="0 0 24 24" fill="none" xmlns="http://www.w3.org/2000/svg">
<g clip-path="url(#clip0_401_9393)">
<path d="M3 13.0001H5V11.0001H3V13.0001ZM7 21.0001H9V19.0001H7V21.0001ZM13 3.00006H11V5.00006H13V3.00006ZM19 3.00006V5.00006H21C21 3.90006 20.1 3.00006 19 3.00006ZM5 21.0001V19.0001H3C3 20.1001 3.9 21.0001 5 21.0001ZM3 17.0001H5V15.0001H3V17.0001ZM11 21.0001H13V19.0001H11V21.0001ZM19 13.0001H21V11.0001H19V13.0001ZM19 9.00006H21V7.00006H19V9.00006ZM15 5.00006H17V3.00006H15V5.00006ZM7.83 5.00006L7 4.17006V3.00006H9V5.00006H7.83ZM19.83 17.0001L19 16.1701V15.0001H21V17.0001H19.83ZM21.19 21.1901L2.81 2.81006L1.39 4.22006L4.17 7.00006H3V9.00006H5V7.83006L7 9.83006V17.0001H14.17L16.17 19.0001H15V21.0001H17V19.8301L19.78 22.6101L21.19 21.1901ZM9 15.0001V11.8301L12.17 15.0001H9ZM15 12.1701V9.00006H11.83L9.83 7.00006H17V14.1701L15 12.1701Z" fill="black"/>
</g>
<defs>
<clipPath id="clip0_401_9393">
<rect width="24" height="24" fill="white"/>
</clipPath>
</defs>
</svg>
