<svg width="24" height="24" viewBox="0 0 24 24" fill="none" xmlns="http://www.w3.org/2000/svg">
<g clip-path="url(#clip0_401_10568)">
<path d="M7.52 21.48C4.25 19.94 1.91 16.76 1.55 13H0.0499992C0.559999 19.16 5.71 24 12 24L12.66 23.97L8.85 20.16L7.52 21.48ZM8.41 14.96C8.22 14.96 8.04 14.93 7.89 14.88C7.73 14.82 7.6 14.75 7.49 14.64C7.38 14.54 7.29 14.42 7.23 14.27C7.17 14.13 7.14 13.97 7.14 13.8H5.84C5.84 14.16 5.91 14.48 6.05 14.75C6.19 15.02 6.38 15.25 6.61 15.44C6.85 15.62 7.12 15.76 7.43 15.85C7.73 15.95 8.05 16 8.39 16C8.76 16 9.11 15.95 9.42 15.85C9.74 15.75 10.02 15.6 10.25 15.41C10.48 15.22 10.67 14.98 10.8 14.69C10.93 14.4 11 14.08 11 13.72C11 13.53 10.98 13.34 10.93 13.16C10.88 12.98 10.81 12.81 10.7 12.65C10.6 12.49 10.46 12.35 10.3 12.22C10.13 12.09 9.93 11.99 9.69 11.91C9.89 11.82 10.06 11.71 10.21 11.58C10.36 11.45 10.48 11.31 10.58 11.16C10.68 11.01 10.75 10.86 10.8 10.7C10.85 10.54 10.87 10.38 10.87 10.22C10.87 9.86 10.81 9.54 10.69 9.26C10.57 8.98 10.4 8.75 10.18 8.57C9.98 8.38 9.71 8.24 9.41 8.14C9.1 8.05 8.76 8 8.39 8C8.03 8 7.7 8.05 7.39 8.16C7.09 8.27 6.82 8.42 6.6 8.61C6.39 8.8 6.22 9.02 6.09 9.28C5.97 9.54 5.91 9.82 5.91 10.13H7.21C7.21 9.96 7.24 9.81 7.3 9.68C7.36 9.55 7.44 9.43 7.55 9.34C7.66 9.25 7.78 9.17 7.93 9.12C8.08 9.07 8.23 9.04 8.41 9.04C8.81 9.04 9.11 9.14 9.3 9.35C9.49 9.55 9.59 9.84 9.59 10.21C9.59 10.39 9.56 10.55 9.51 10.7C9.46 10.85 9.37 10.97 9.26 11.07C9.15 11.17 9.01 11.25 8.85 11.31C8.69 11.37 8.49 11.4 8.27 11.4H7.5V12.43H8.27C8.49 12.43 8.69 12.45 8.87 12.5C9.05 12.55 9.2 12.63 9.32 12.73C9.44 12.84 9.54 12.97 9.61 13.13C9.68 13.29 9.71 13.48 9.71 13.7C9.71 14.11 9.59 14.42 9.36 14.63C9.13 14.86 8.81 14.96 8.41 14.96ZM16.96 9.04C16.64 8.71 16.26 8.45 15.82 8.27C15.39 8.09 14.9 8 14.36 8H12V16H14.3C14.85 16 15.36 15.91 15.81 15.73C16.26 15.55 16.65 15.3 16.97 14.97C17.29 14.64 17.54 14.24 17.71 13.78C17.88 13.31 17.97 12.79 17.97 12.21V11.81C17.97 11.23 17.88 10.71 17.71 10.24C17.53 9.77 17.28 9.37 16.96 9.04ZM16.57 12.2C16.57 12.62 16.52 12.99 16.43 13.33C16.33 13.66 16.19 13.95 16 14.18C15.81 14.41 15.57 14.59 15.29 14.71C15 14.83 14.67 14.89 14.3 14.89H13.39V9.12H14.36C15.08 9.12 15.63 9.35 16 9.81C16.38 10.27 16.57 10.93 16.57 11.8V12.2ZM12 0L11.34 0.03L15.15 3.84L16.48 2.51C19.75 4.06 22.09 7.23 22.44 10.99H23.94C23.44 4.84 18.29 0 12 0Z" fill="black"/>
</g>
<defs>
<clipPath id="clip0_401_10568">
<rect width="24" height="24" fill="white"/>
</clipPath>
</defs>
</svg>
