<svg width="24" height="24" viewBox="0 0 24 24" fill="none" xmlns="http://www.w3.org/2000/svg">
<g clip-path="url(#clip0_401_10181)">
<path d="M15.83 1.01001L11.72 1.43001C8.47 1.75001 6 4.48001 6 7.75001C6 11.02 8.47 13.75 11.72 14.08L13.62 14.27L13.06 15.12C12.71 15.04 12.36 15 12 15C9.24 15 7 17.24 7 20V22C7 22.55 7.45 23 8 23H16C16.55 23 17 22.55 17 22V20C17 18.33 16.17 16.85 14.91 15.94L15.88 14.49C17.02 14.56 18 13.66 18 12.5V3.00001C18 1.83001 17 0.91001 15.83 1.01001Z" fill="black"/>
</g>
<defs>
<clipPath id="clip0_401_10181">
<rect width="24" height="24" fill="white"/>
</clipPath>
</defs>
</svg>
