<svg width="24" height="24" viewBox="0 0 24 24" fill="none" xmlns="http://www.w3.org/2000/svg">
<g clip-path="url(#clip0_401_9977)">
<path d="M16.21 4.16016L20.21 8.16016V4.16016H16.21ZM20.21 16.1602L16.21 20.1602H20.21V16.1602ZM8.21001 20.1602L4.21001 16.1602V20.1602H8.21001ZM4.21001 8.16016L8.21001 4.16016H4.21001V8.16016ZM17.16 7.21016C14.43 4.48016 9.99001 4.48016 7.26001 7.21016C4.53001 9.94016 4.53001 14.3802 7.26001 17.1102C9.99001 19.8402 14.43 19.8402 17.16 17.1102C19.89 14.3802 19.89 9.95016 17.16 7.21016ZM16.06 16.0102C13.93 18.1402 10.49 18.1402 8.36001 16.0102C6.23001 13.8802 6.23001 10.4402 8.36001 8.31016C10.49 6.18016 13.93 6.18016 16.06 8.31016C18.19 10.4402 18.19 13.8802 16.06 16.0102Z" fill="black"/>
</g>
<defs>
<clipPath id="clip0_401_9977">
<rect width="24" height="24" fill="white"/>
</clipPath>
</defs>
</svg>
