<svg width="24" height="24" viewBox="0 0 24 24" fill="none" xmlns="http://www.w3.org/2000/svg">
<g clip-path="url(#clip0_401_10989)">
<path d="M9 15C6.33 15 1 16.34 1 19V21H17V19C17 16.34 11.67 15 9 15Z" fill="black"/>
<path d="M22.1 6.84C22.11 6.73 22.12 6.62 22.12 6.5C22.12 6.38 22.11 6.27 22.09 6.16L22.83 5.58C22.9 5.53 22.91 5.43 22.87 5.36L22.17 4.15C22.13 4.07 22.03 4.05 21.96 4.07L21.1 4.42C20.92 4.28 20.72 4.17 20.51 4.08L20.38 3.15C20.36 3.06 20.29 3 20.2 3H18.8C18.71 3 18.64 3.06 18.63 3.15L18.5 4.08C18.29 4.17 18.09 4.29 17.91 4.42L17.04 4.07C16.96 4.04 16.87 4.07 16.83 4.15L16.13 5.36C16.09 5.44 16.1 5.53 16.17 5.58L16.91 6.16C16.89 6.27 16.88 6.39 16.88 6.5C16.88 6.61 16.89 6.73 16.91 6.84L16.17 7.42C16.1 7.47 16.09 7.57 16.13 7.64L16.83 8.85C16.87 8.93 16.97 8.95 17.04 8.93L17.91 8.58C18.09 8.72 18.29 8.83 18.5 8.92L18.63 9.85C18.64 9.94 18.71 10 18.8 10H20.2C20.29 10 20.36 9.94 20.37 9.85L20.5 8.92C20.71 8.83 20.91 8.71 21.09 8.58L21.96 8.93C22.04 8.96 22.13 8.93 22.17 8.85L22.87 7.64C22.91 7.56 22.9 7.47 22.83 7.42L22.1 6.84ZM19.5 7.75C18.81 7.75 18.25 7.19 18.25 6.5C18.25 5.81 18.81 5.25 19.5 5.25C20.19 5.25 20.75 5.81 20.75 6.5C20.75 7.19 20.19 7.75 19.5 7.75Z" fill="black"/>
<path d="M19.92 11.68L19.42 10.81C19.39 10.75 19.32 10.73 19.27 10.75L18.65 11C18.52 10.9 18.38 10.82 18.23 10.76L18.14 10.1C18.12 10.04 18.06 10 18 10H17C16.94 10 16.89 10.04 16.88 10.11L16.79 10.77C16.64 10.83 16.5 10.92 16.37 11.01L15.75 10.76C15.69 10.74 15.63 10.76 15.6 10.82L15.1 11.69C15.07 11.75 15.08 11.81 15.13 11.85L15.66 12.26C15.65 12.34 15.64 12.42 15.64 12.5C15.64 12.58 15.65 12.67 15.66 12.74L15.13 13.15C15.08 13.19 15.07 13.26 15.1 13.31L15.6 14.18C15.63 14.24 15.7 14.26 15.75 14.24L16.37 13.99C16.5 14.09 16.64 14.17 16.79 14.23L16.88 14.89C16.89 14.96 16.94 15 17 15H18C18.06 15 18.12 14.96 18.12 14.89L18.21 14.23C18.36 14.17 18.5 14.08 18.63 13.99L19.25 14.24C19.31 14.26 19.37 14.24 19.4 14.18L19.9 13.31C19.93 13.25 19.92 13.19 19.87 13.15L19.35 12.74C19.36 12.66 19.37 12.58 19.37 12.5C19.37 12.42 19.36 12.33 19.35 12.26L19.88 11.85C19.93 11.81 19.94 11.74 19.92 11.68ZM17.5 13.33C17.04 13.33 16.67 12.95 16.67 12.5C16.67 12.04 17.05 11.67 17.5 11.67C17.95 11.67 18.33 12.05 18.33 12.5C18.33 12.96 17.96 13.33 17.5 13.33Z" fill="black"/>
<path d="M4.74 9H13.27C13.54 9 13.76 8.78 13.76 8.51V8.49C13.76 8.22 13.54 8 13.27 8H13C13 6.52 12.19 5.25 11 4.55V5.5C11 5.78 10.78 6 10.5 6C10.22 6 10 5.78 10 5.5V4.14C9.68 4.06 9.35 4 9 4C8.65 4 8.32 4.06 8 4.14V5.5C8 5.78 7.78 6 7.5 6C7.22 6 7 5.78 7 5.5V4.55C5.81 5.25 5 6.52 5 8H4.74C4.47 8 4.25 8.22 4.25 8.49V8.52C4.25 8.78 4.47 9 4.74 9Z" fill="black"/>
<path d="M9 13C10.86 13 12.41 11.72 12.86 10H5.14C5.59 11.72 7.14 13 9 13Z" fill="black"/>
</g>
<defs>
<clipPath id="clip0_401_10989">
<rect width="24" height="24" fill="white"/>
</clipPath>
</defs>
</svg>
