<svg width="24" height="24" viewBox="0 0 24 24" fill="none" xmlns="http://www.w3.org/2000/svg">
<g clip-path="url(#clip0_401_9773)">
<path d="M15 8.0001C15 6.5801 14.5 5.2701 13.67 4.2401C14.09 4.1001 14.53 4.0001 15 4.0001C17.21 4.0001 19 5.7901 19 8.0001C19 10.2101 17.21 12.0001 15 12.0001C14.94 12.0001 14.88 12.0001 14.82 12.0001L14.05 11.2301C14.65 10.2901 15 9.1801 15 8.0001ZM22.83 20.0001H23V17.0001C23 14.8201 19.42 13.5301 16.66 13.1301C17.76 13.8801 18.61 14.8401 18.89 16.0701L22.83 20.0001ZM7.24 4.4101C7.77 4.1501 8.37 4.0001 9 4.0001C11.21 4.0001 13 5.7901 13 8.0001C13 8.6301 12.85 9.2301 12.59 9.7601L7.24 4.4101ZM9.17 12.0001C9.11 12.0001 9.06 12.0001 9 12.0001C6.79 12.0001 5 10.2101 5 8.0001C5 7.9401 5 7.8901 5 7.8301L0.690002 3.5101L2.1 2.1001L21.9 21.9001L20.49 23.3101L17 19.8301V20.0001H1V17.0001C1 14.3401 6.33 13.0001 9 13.0001C9.37 13.0001 9.8 13.0301 10.25 13.0801L9.17 12.0001Z" fill="black"/>
</g>
<defs>
<clipPath id="clip0_401_9773">
<rect width="24" height="24" fill="white"/>
</clipPath>
</defs>
</svg>
