<svg width="24" height="24" viewBox="0 0 24 24" fill="none" xmlns="http://www.w3.org/2000/svg">
<g clip-path="url(#clip0_401_10217)">
<path d="M15.47 13.79L12.89 12.76L6 15.05L2 13.51V15.61L6 16.95L15.47 13.79Z" fill="black"/>
<path d="M10.57 11.42L8 8H2V11.61L6 12.95L10.57 11.42Z" fill="black"/>
<path d="M6 19.05L2 17.72V22H22L17.03 15.38L6 19.05Z" fill="black"/>
<path d="M17 6V1L12 0L9 2V6L12 8L17 6Z" fill="black"/>
<path d="M18.5 7L16 9V12L18.5 14L23 12V8L18.5 7Z" fill="black"/>
</g>
<defs>
<clipPath id="clip0_401_10217">
<rect width="24" height="24" fill="white"/>
</clipPath>
</defs>
</svg>
