<svg width="24" height="24" viewBox="0 0 24 24" fill="none" xmlns="http://www.w3.org/2000/svg">
<g clip-path="url(#clip0_401_10295)">
<path d="M16 22C17.1046 22 18 21.1046 18 20C18 18.8954 17.1046 18 16 18C14.8954 18 14 18.8954 14 20C14 21.1046 14.8954 22 16 22Z" fill="black"/>
<path d="M6 22C7.10457 22 8 21.1046 8 20C8 18.8954 7.10457 18 6 18C4.89543 18 4 18.8954 4 20C4 21.1046 4.89543 22 6 22Z" fill="black"/>
<path d="M22 7V6.48C22 4.56 20.52 3 18.65 3C16.99 3 16.11 4.27 15.47 5.03L6.66999 15.35C6.11999 16 6.57999 17 7.42999 17H15C16.1 17 17 16.1 17 15V6.27C17.58 5.59 17.97 5 18.65 5C19.42 5 20 5.66 20 6.48V7H22Z" fill="black"/>
<path d="M14.3 4.1C13.03 3.4 11.56 3 10 3C8.03 3 6.21 3.64 4.72 4.72L9.61 9.61L14.3 4.1Z" fill="black"/>
</g>
<defs>
<clipPath id="clip0_401_10295">
<rect width="24" height="24" fill="white"/>
</clipPath>
</defs>
</svg>
