<svg width="24" height="24" viewBox="0 0 24 24" fill="none" xmlns="http://www.w3.org/2000/svg">
<g clip-path="url(#clip0_401_9612)">
<path d="M12 11.3898C12 10.7398 11.61 10.1598 11.02 9.9098L5.44 7.5498C3.96 9.2298 3.12 11.2498 2.64 12.9998H10.39C11.28 12.9998 12 12.2798 12 11.3898Z" fill="black"/>
<path d="M21.96 11.2199C21.55 6.80986 17.4 3.72986 12.98 4.01986C10.47 4.17986 8.54 4.95986 7.05 6.05986L11.79 8.06986C13.12 8.63986 13.99 9.93986 13.99 11.3899C13.99 13.3799 12.37 14.9999 10.38 14.9999H2.21C2 16.3099 2 17.1999 2 17.1999V17.9999C2 19.0999 2.9 19.9999 4 19.9999H14C18.67 19.9999 22.41 15.9899 21.96 11.2199Z" fill="black"/>
</g>
<defs>
<clipPath id="clip0_401_9612">
<rect width="24" height="24" fill="white"/>
</clipPath>
</defs>
</svg>
