<svg width="24" height="24" viewBox="0 0 24 24" fill="none" xmlns="http://www.w3.org/2000/svg">
<g clip-path="url(#clip0_401_9751)">
<path d="M21.19 21.19L2.81 2.81L1.39 4.22L5.59 8.42C4.59 9.73 3.99 11.36 3.99 13.12C4 17.48 7.58 21 12 21C13.75 21 15.36 20.44 16.67 19.5L19.77 22.6L21.19 21.19ZM12 19C8.69 19 6 16.37 6 13.13C6 11.94 6.36 10.81 7.02 9.85L12 14.83V19ZM8.38 5.56L12 2L17.65 7.56C19.1 8.99 20 10.96 20 13.13C20 14.31 19.73 15.42 19.26 16.43L12 9.17V4.81L9.8 6.97L8.38 5.56Z" fill="black"/>
</g>
<defs>
<clipPath id="clip0_401_9751">
<rect width="24" height="24" fill="white"/>
</clipPath>
</defs>
</svg>
