<svg width="24" height="24" viewBox="0 0 24 24" fill="none" xmlns="http://www.w3.org/2000/svg">
<g clip-path="url(#clip0_401_9237)">
<path d="M21.9 21.9001L2.1 2.1001L0.690002 3.5101L2.24 5.0601C2.09 5.3401 2.01 5.6601 2.01 6.0001L2 18.0001C2 19.1101 2.89 20.0001 4 20.0001H17.17L20.48 23.3101L21.9 21.9001ZM4 12.0001V8.0001H5.17L9.17 12.0001H4ZM6.83 4.0001H20C21.11 4.0001 22 4.8901 22 6.0001V18.0001C22 18.3401 21.92 18.6601 21.77 18.9401L14.83 12.0001H20V8.0001H10.83L6.83 4.0001Z" fill="black"/>
</g>
<defs>
<clipPath id="clip0_401_9237">
<rect width="24" height="24" fill="white"/>
</clipPath>
</defs>
</svg>
