<svg width="24" height="24" viewBox="0 0 24 24" fill="none" xmlns="http://www.w3.org/2000/svg">
<g clip-path="url(#clip0_401_10076)">
<path d="M17 8C17.7 8 18.38 8.1 19.02 8.27L12 3L4 9V21H10.76C9.66 19.63 9 17.89 9 16C9 11.58 12.58 8 17 8Z" fill="black"/>
<path d="M17 14.75C16.31 14.75 15.75 15.31 15.75 16C15.75 16.4 15.95 16.75 16.25 16.97V22H17.75V16.97C18.05 16.74 18.25 16.4 18.25 16C18.25 15.31 17.69 14.75 17 14.75Z" fill="black"/>
<path d="M17 12C14.79 12 13 13.79 13 16C13 17.1 13.45 18.1 14.17 18.83L15.23 17.77C14.78 17.32 14.5 16.69 14.5 16C14.5 14.62 15.62 13.5 17 13.5C18.38 13.5 19.5 14.62 19.5 16C19.5 16.69 19.22 17.31 18.77 17.76L19.83 18.82C20.55 18.1 21 17.1 21 16C21 13.79 19.21 12 17 12Z" fill="black"/>
<path d="M17 9.5C13.41 9.5 10.5 12.41 10.5 16C10.5 17.79 11.23 19.42 12.4 20.6L13.46 19.54C12.56 18.63 12 17.38 12 16C12 13.24 14.24 11 17 11C19.76 11 22 13.24 22 16C22 17.37 21.44 18.62 20.54 19.52L21.61 20.58C22.78 19.4 23.5 17.78 23.5 16C23.5 12.41 20.59 9.5 17 9.5Z" fill="black"/>
</g>
<defs>
<clipPath id="clip0_401_10076">
<rect width="24" height="24" fill="white"/>
</clipPath>
</defs>
</svg>
