<svg width="24" height="24" viewBox="0 0 24 24" fill="none" xmlns="http://www.w3.org/2000/svg">
<g clip-path="url(#clip0_401_10645)">
<path d="M12 2C8.42999 2 5.22999 3.54 3.00999 6L12 22L20.99 6C18.78 3.55 15.57 2 12 2ZM6.99999 7C6.99999 5.9 7.89999 5 8.99999 5C10.1 5 11 5.9 11 7C11 8.1 10.1 9 8.99999 9C7.89999 9 6.99999 8.1 6.99999 7ZM12 15C10.9 15 9.99999 14.1 9.99999 13C9.99999 11.9 10.9 11 12 11C13.1 11 14 11.9 14 13C14 14.1 13.1 15 12 15Z" fill="black"/>
</g>
<defs>
<clipPath id="clip0_401_10645">
<rect width="24" height="24" fill="white"/>
</clipPath>
</defs>
</svg>
