<svg width="24" height="24" viewBox="0 0 24 24" fill="none" xmlns="http://www.w3.org/2000/svg">
<g clip-path="url(#clip0_401_10862)">
<path d="M17.06 11.57C17.65 10.88 18 9.98 18 9C18 7.14 16.73 5.57 15 5.13V3H13V5H11V3H9V5H6V7H8V17H6V19H9V21H11V19H13V21H15V19C17.21 19 19 17.21 19 15C19 13.55 18.22 12.27 17.06 11.57ZM10 7H14C15.1 7 16 7.9 16 9C16 10.1 15.1 11 14 11H10V7ZM15 17H10V13H15C16.1 13 17 13.9 17 15C17 16.1 16.1 17 15 17Z" fill="black"/>
</g>
<defs>
<clipPath id="clip0_401_10862">
<rect width="24" height="24" fill="white"/>
</clipPath>
</defs>
</svg>
