<svg width="24" height="24" viewBox="0 0 24 24" fill="none" xmlns="http://www.w3.org/2000/svg">
<g clip-path="url(#clip0_401_10018)">
<path d="M3.24 6.15C2.51 6.43 2 7.17 2 8V20C2 21.1 2.89 22 4 22H20C21.11 22 22 21.1 22 20V8C22 6.89 21.11 6 20 6H8.3L16.56 2.66L15.88 1L3.24 6.15ZM7 20C5.34 20 4 18.66 4 17C4 15.34 5.34 14 7 14C8.66 14 10 15.34 10 17C10 18.66 8.66 20 7 20ZM20 12H18V10H16V12H4V8H20V12Z" fill="black"/>
</g>
<defs>
<clipPath id="clip0_401_10018">
<rect width="24" height="24" fill="white"/>
</clipPath>
</defs>
</svg>
