<svg width="24" height="24" viewBox="0 0 24 24" fill="none" xmlns="http://www.w3.org/2000/svg">
<g clip-path="url(#clip0_401_11077)">
<path d="M5 18C5 18.55 5.45 19 6 19C6.55 19 7 18.55 7 18C7 17.45 6.55 17 6 17C5.45 17 5 17.45 5 18ZM17 18C17 18.55 17.45 19 18 19C18.55 19 19 18.55 19 18C19 17.45 18.55 17 18 17C17.45 17 17 17.45 17 18ZM8 22C8 22.55 8.45 23 9 23C9.55 23 10 22.55 10 22C10 21.45 9.55 21 9 21C8.45 21 8 21.45 8 22ZM11 18C11 18.55 11.45 19 12 19C12.55 19 13 18.55 13 18C13 17.45 12.55 17 12 17C11.45 17 11 17.45 11 18ZM14 22C14 22.55 14.45 23 15 23C15.55 23 16 22.55 16 22C16 21.45 15.55 21 15 21C14.45 21 14 21.45 14 22ZM17.5 16H7.5C4.47 16 2 13.53 2 10.5C2 7.74 4.09 5.41 6.78 5.06C7.83 3.18 9.82 2 12 2C14.97 2 17.45 4.18 17.92 7.02C20.21 7.23 22 9.16 22 11.5C22 13.98 19.98 16 17.5 16Z" fill="black"/>
</g>
<defs>
<clipPath id="clip0_401_11077">
<rect width="24" height="24" fill="white"/>
</clipPath>
</defs>
</svg>
