<svg width="24" height="24" viewBox="0 0 24 24" fill="none" xmlns="http://www.w3.org/2000/svg">
<g clip-path="url(#clip0_401_10695)">
<path d="M5.35 5.63999C4.45 4.99999 4.23 3.75999 4.86 2.84999C5.49 1.94999 6.74 1.72999 7.65 2.35999C8.55 2.99999 8.77 4.23999 8.14 5.14999C7.5 6.04999 6.26 6.26999 5.35 5.63999ZM16 19H8.93C7.45 19 6.19 17.92 5.97 16.46L4 6.99999H2L3.99 16.76C4.37 19.2 6.47 21 8.94 21H16V19ZM16.23 15H11.35L10.32 10.9C11.9 11.79 13.6 12.44 15.47 12.12V9.98999C13.84 10.3 12.03 9.71999 10.78 8.73999L9.14 7.46999C8.91 7.28999 8.65 7.16999 8.38 7.08999C8.06 6.99999 7.72 6.96999 7.39 7.02999H7.37C6.14 7.24999 5.32 8.41999 5.53 9.63999L6.88 15.56C7.16 16.98 8.39 18 9.83 18H16.68L20.5 21L22 19.5L16.23 15Z" fill="black"/>
</g>
<defs>
<clipPath id="clip0_401_10695">
<rect width="24" height="24" fill="white"/>
</clipPath>
</defs>
</svg>
