<svg width="24" height="24" viewBox="0 0 24 24" fill="none" xmlns="http://www.w3.org/2000/svg">
<g clip-path="url(#clip0_401_9898)">
<path d="M16.49 3C14.28 3 12.28 3.9 10.83 5.34L11.89 6.4C13.07 5.22 14.69 4.49 16.48 4.49C18.27 4.49 19.9 5.22 21.07 6.4L22.13 5.34C20.7 3.9 18.7 3 16.49 3Z" fill="black"/>
<path d="M20.03 7.46C19.12 6.56 17.87 6 16.49 6C15.11 6 13.86 6.56 12.95 7.46L14.01 8.52C14.64 7.89 15.52 7.49 16.48 7.49C17.44 7.49 18.32 7.88 18.95 8.52L20.03 7.46Z" fill="black"/>
<path d="M15.08 9.59L16.49 11L17.9 9.59C17.54 9.22 17.04 9 16.49 9C15.94 9 15.44 9.22 15.08 9.59Z" fill="black"/>
<path d="M15.63 14.4L13.11 16.9C10.61 15.47 8.54 13.4 7.11 10.9L9.61 8.38C9.84 8.14 9.94 7.81 9.88 7.48L9.13 3.8C9.04 3.34 8.63 3 8.15 3H4C3.44 3 2.97 3.47 3 4.03C3.17 6.92 4.05 9.63 5.43 12C7.01 14.73 9.28 16.99 12 18.57C14.37 19.94 17.08 20.83 19.97 21C20.53 21.03 21 20.56 21 20V15.85C21 15.37 20.66 14.96 20.2 14.87L16.53 14.14C16.2 14.07 15.86 14.17 15.63 14.4Z" fill="black"/>
</g>
<defs>
<clipPath id="clip0_401_9898">
<rect width="24" height="24" fill="white"/>
</clipPath>
</defs>
</svg>
