<svg width="24" height="24" viewBox="0 0 24 24" fill="none" xmlns="http://www.w3.org/2000/svg">
<g clip-path="url(#clip0_401_10147)">
<path d="M15.1 19.3701L16.1 21.1101C15.14 21.5501 14.09 21.84 13 21.9501V19.93C13.74 19.84 14.44 19.6501 15.1 19.3701ZM4.07 13H2.05C2.16 14.1 2.45 15.14 2.89 16.1L4.63 15.1C4.35 14.44 4.16 13.74 4.07 13ZM15.1 4.63005L16.1 2.89005C15.14 2.45005 14.1 2.16005 13 2.05005V4.07005C13.74 4.16005 14.44 4.35005 15.1 4.63005ZM19.93 11H21.95C21.84 9.90005 21.55 8.86005 21.11 7.90005L19.37 8.90005C19.65 9.56005 19.84 10.26 19.93 11ZM8.9 19.3701L7.9 21.1101C8.86 21.5501 9.91 21.84 11 21.9501V19.93C10.26 19.84 9.56 19.6501 8.9 19.3701ZM11 4.07005V2.05005C9.9 2.16005 8.86 2.45005 7.9 2.89005L8.9 4.63005C9.56 4.35005 10.26 4.16005 11 4.07005ZM18.36 7.17005L20.1 6.16005C19.47 5.29005 18.7 4.52005 17.83 3.89005L16.82 5.63005C17.41 6.08005 17.92 6.59005 18.36 7.17005ZM4.63 8.90005L2.89 7.90005C2.45 8.86005 2.16 9.90005 2.05 11H4.07C4.16 10.26 4.35 9.56005 4.63 8.90005ZM19.93 13C19.84 13.74 19.65 14.44 19.37 15.1L21.11 16.1C21.55 15.14 21.84 14.09 21.95 13H19.93ZM16.83 18.3601L17.84 20.1C18.71 19.4701 19.48 18.7 20.11 17.83L18.37 16.82C17.92 17.41 17.41 17.9201 16.83 18.3601ZM7.17 5.64005L6.17 3.89005C5.29 4.53005 4.53 5.29005 3.9 6.17005L5.64 7.18005C6.08 6.59005 6.59 6.08005 7.17 5.64005ZM5.64 16.83L3.9 17.83C4.53 18.7 5.3 19.4701 6.17 20.1L7.18 18.3601C6.59 17.9201 6.08 17.41 5.64 16.83ZM13 7.00005H11V12.41L15.29 16.7L16.7 15.29L13 11.59V7.00005Z" fill="black"/>
</g>
<defs>
<clipPath id="clip0_401_10147">
<rect width="24" height="24" fill="white"/>
</clipPath>
</defs>
</svg>
