<svg width="24" height="24" viewBox="0 0 24 24" fill="none" xmlns="http://www.w3.org/2000/svg">
<g clip-path="url(#clip0_401_10403)">
<path d="M6.03 3.2C7.15 2.44 8.51 2 10 2C13.93 2 17 5.07 17 9C17 10.26 16.62 11.65 15.93 12.9C15.91 12.94 15.88 12.98 15.85 13.03L14.37 11.55C14.77 10.69 15 9.8 15 9C15 6.2 12.8 4 10 4C9.08 4 8.24 4.26 7.5 4.67L6.03 3.2ZM17.21 14.38L18.64 15.81C20.11 13.93 21 11.57 21 9C21 5.96 19.77 3.21 17.78 1.22L16.36 2.64C17.99 4.26 19 6.51 19 9C19 11.02 18.33 12.88 17.21 14.38ZM10 6.5C9.79 6.5 9.6 6.53 9.41 6.58L12.42 9.59C12.47 9.4 12.5 9.21 12.5 9C12.5 7.62 11.38 6.5 10 6.5ZM21.19 21.19L2.81 2.81L1.39 4.22L3.52 6.35C3.19 7.16 3 8.05 3 9H5C5 8.64 5.05 8.29 5.12 7.95L11.73 14.56C10.85 15.24 9.95 15.97 9.46 17.46C8.96 18.96 8.46 19.47 7.75 19.84C7.56 19.94 7.29 20 7 20C5.9 20 5 19.1 5 18H3C3 20.21 4.79 22 7 22C7.57 22 8.13 21.88 8.64 21.65C10 20.94 10.77 19.92 11.37 18.1C11.69 17.12 12.27 16.67 13.08 16.05C13.11 16.03 13.13 16.01 13.16 15.99L19.78 22.61L21.19 21.19Z" fill="black"/>
</g>
<defs>
<clipPath id="clip0_401_10403">
<rect width="24" height="24" fill="white"/>
</clipPath>
</defs>
</svg>
