<svg width="24" height="24" viewBox="0 0 24 24" fill="none" xmlns="http://www.w3.org/2000/svg">
<path d="M3 10L2.46967 9.46967C2.29235 9.64699 2.21539 9.90119 2.26456 10.1471L3 10ZM21 10L21.7354 10.1471C21.7846 9.90119 21.7076 9.64699 21.5303 9.46967L21 10ZM19 20V20.75C19.3575 20.75 19.6653 20.4977 19.7354 20.1471L19 20ZM5 20L4.26456 20.1471C4.33468 20.4977 4.64249 20.75 5 20.75V20ZM9.53033 4.53033C9.82322 4.23744 9.82322 3.76256 9.53033 3.46967C9.23744 3.17678 8.76256 3.17678 8.46967 3.46967L9.53033 4.53033ZM15.5303 3.46967C15.2374 3.17678 14.7626 3.17678 14.4697 3.46967C14.1768 3.76256 14.1768 4.23744 14.4697 4.53033L15.5303 3.46967ZM3 10.75H21V9.25H3V10.75ZM20.2646 9.85291L18.2646 19.8529L19.7354 20.1471L21.7354 10.1471L20.2646 9.85291ZM19 19.25H5V20.75H19V19.25ZM5.73544 19.8529L3.73544 9.85291L2.26456 10.1471L4.26456 20.1471L5.73544 19.8529ZM3.53033 10.5303L9.53033 4.53033L8.46967 3.46967L2.46967 9.46967L3.53033 10.5303ZM21.5303 9.46967L15.5303 3.46967L14.4697 4.53033L20.4697 10.5303L21.5303 9.46967Z" fill="#001A72"/>
</svg>
