<svg width="24" height="24" viewBox="0 0 24 24" fill="none" xmlns="http://www.w3.org/2000/svg">
<path d="M16 16.8875H15.25C15.25 17.0712 15.3174 17.2485 15.4394 17.3858L16 16.8875ZM16.75 15.2C16.75 14.7858 16.4142 14.45 16 14.45C15.5858 14.45 15.25 14.7858 15.25 15.2H16.75ZM16.3394 18.3983C16.6146 18.7079 17.0887 18.7358 17.3983 18.4606C17.7079 18.1854 17.7357 17.7113 17.4606 17.4017L16.3394 18.3983ZM9 11.75C9.41421 11.75 9.75 11.4142 9.75 11C9.75 10.5858 9.41421 10.25 9 10.25V11.75ZM4 10.25C3.58579 10.25 3.25 10.5858 3.25 11C3.25 11.4142 3.58579 11.75 4 11.75V10.25ZM19.25 9C19.25 9.41421 19.5858 9.75 20 9.75C20.4142 9.75 20.75 9.41421 20.75 9H19.25ZM9 21.75C9.41421 21.75 9.75 21.4142 9.75 21C9.75 20.5858 9.41421 20.25 9 20.25V21.75ZM15.75 3C15.75 2.58579 15.4142 2.25 15 2.25C14.5858 2.25 14.25 2.58579 14.25 3H15.75ZM14.25 7C14.25 7.41421 14.5858 7.75 15 7.75C15.4142 7.75 15.75 7.41421 15.75 7H14.25ZM9.75 3C9.75 2.58579 9.41421 2.25 9 2.25C8.58579 2.25 8.25 2.58579 8.25 3H9.75ZM8.25 7C8.25 7.41421 8.58579 7.75 9 7.75C9.41421 7.75 9.75 7.41421 9.75 7H8.25ZM19.75 17C19.75 19.0711 18.0711 20.75 16 20.75V22.25C18.8995 22.25 21.25 19.8995 21.25 17H19.75ZM16 20.75C13.9289 20.75 12.25 19.0711 12.25 17H10.75C10.75 19.8995 13.1005 22.25 16 22.25V20.75ZM12.25 17C12.25 14.9289 13.9289 13.25 16 13.25V11.75C13.1005 11.75 10.75 14.1005 10.75 17H12.25ZM16 13.25C18.0711 13.25 19.75 14.9289 19.75 17H21.25C21.25 14.1005 18.8995 11.75 16 11.75V13.25ZM16.75 16.8875V15.2H15.25V16.8875H16.75ZM15.4394 17.3858L16.3394 18.3983L17.4606 17.4017L16.5606 16.3892L15.4394 17.3858ZM9 10.25H4V11.75H9V10.25ZM4.75 19V7H3.25V19H4.75ZM6 20.25C5.30964 20.25 4.75 19.6904 4.75 19H3.25C3.25 20.5188 4.48122 21.75 6 21.75V20.25ZM6 4.25C4.48122 4.25 3.25 5.48122 3.25 7H4.75C4.75 6.30964 5.30964 5.75 6 5.75V4.25ZM20.75 9V7H19.25V9H20.75ZM18 5.75C18.6904 5.75 19.25 6.30964 19.25 7H20.75C20.75 5.48122 19.5188 4.25 18 4.25V5.75ZM18 4.25H6V5.75H18V4.25ZM6 21.75H9V20.25H6V21.75ZM14.25 3V7H15.75V3H14.25ZM8.25 3V7H9.75V3H8.25Z" fill="#001A72"/>
</svg>
