<svg width="24" height="24" viewBox="0 0 24 24" fill="none" xmlns="http://www.w3.org/2000/svg">
<path d="M18.0579 16.8245C18.3508 17.1173 18.8257 17.1173 19.1186 16.8245C19.4114 16.5316 19.4114 16.0567 19.1186 15.7638L18.0579 16.8245ZM17.2362 13.8814C16.9433 13.5886 16.4684 13.5886 16.1755 13.8814C15.8826 14.1743 15.8826 14.6492 16.1755 14.9421L17.2362 13.8814ZM12 21H11.25C11.25 21.4142 11.5858 21.75 12 21.75V21ZM12 19.1176L11.4697 18.5873C11.329 18.728 11.25 18.9187 11.25 19.1176H12ZM18.1176 13L18.648 12.4697C18.3551 12.1768 17.8802 12.1768 17.5873 12.4697L18.1176 13ZM20 14.8824L20.5303 15.4127C20.8232 15.1198 20.8232 14.6449 20.5303 14.352L20 14.8824ZM13.8824 21V21.75C14.0813 21.75 14.272 21.671 14.4127 21.5303L13.8824 21ZM9 11.75C9.41421 11.75 9.75 11.4142 9.75 11C9.75 10.5858 9.41421 10.25 9 10.25V11.75ZM4 10.25C3.58579 10.25 3.25 10.5858 3.25 11C3.25 11.4142 3.58579 11.75 4 11.75V10.25ZM19.25 9C19.25 9.41421 19.5858 9.75 20 9.75C20.4142 9.75 20.75 9.41421 20.75 9H19.25ZM9 21.75C9.41421 21.75 9.75 21.4142 9.75 21C9.75 20.5858 9.41421 20.25 9 20.25V21.75ZM15.75 3C15.75 2.58579 15.4142 2.25 15 2.25C14.5858 2.25 14.25 2.58579 14.25 3H15.75ZM14.25 7C14.25 7.41421 14.5858 7.75 15 7.75C15.4142 7.75 15.75 7.41421 15.75 7H14.25ZM9.75 3C9.75 2.58579 9.41421 2.25 9 2.25C8.58579 2.25 8.25 2.58579 8.25 3H9.75ZM8.25 7C8.25 7.41421 8.58579 7.75 9 7.75C9.41421 7.75 9.75 7.41421 9.75 7H8.25ZM19.1186 15.7638L17.2362 13.8814L16.1755 14.9421L18.0579 16.8245L19.1186 15.7638ZM12.75 21V19.1176H11.25V21H12.75ZM17.5873 13.5303L19.4697 15.4127L20.5303 14.352L18.648 12.4697L17.5873 13.5303ZM13.8824 20.25H12V21.75H13.8824V20.25ZM12.5303 19.648L18.648 13.5303L17.5873 12.4697L11.4697 18.5873L12.5303 19.648ZM19.4697 14.352L13.352 20.4697L14.4127 21.5303L20.5303 15.4127L19.4697 14.352ZM9 10.25H4V11.75H9V10.25ZM4.75 19V7H3.25V19H4.75ZM6 20.25C5.30964 20.25 4.75 19.6904 4.75 19H3.25C3.25 20.5188 4.48122 21.75 6 21.75V20.25ZM6 4.25C4.48122 4.25 3.25 5.48122 3.25 7H4.75C4.75 6.30964 5.30964 5.75 6 5.75V4.25ZM20.75 9V7H19.25V9H20.75ZM18 5.75C18.6904 5.75 19.25 6.30964 19.25 7H20.75C20.75 5.48122 19.5188 4.25 18 4.25V5.75ZM18 4.25H6V5.75H18V4.25ZM6 21.75H9V20.25H6V21.75ZM14.25 3V7H15.75V3H14.25ZM8.25 3V7H9.75V3H8.25Z" fill="#001A72"/>
</svg>
