<svg width="24" height="24" viewBox="0 0 24 24" fill="none" xmlns="http://www.w3.org/2000/svg">
<path d="M19.1528 9.83391L18.4054 9.89619L19.1528 9.83391ZM19.8195 17.8339L20.5669 17.7716L19.8195 17.8339ZM4.18051 17.8339L4.92792 17.8962L4.18051 17.8339ZM4.84718 9.83391L4.09977 9.77163L4.84718 9.83391ZM16 7H15.25V7L16 7ZM14.8284 4.17157L14.2981 4.7019L14.8284 4.17157ZM9.17157 4.17157L9.7019 4.7019L9.17157 4.17157ZM8 7H7.25V7L8 7ZM15.25 12C15.25 12.4142 15.5858 12.75 16 12.75C16.4142 12.75 16.75 12.4142 16.75 12H15.25ZM7.25 12C7.25 12.4142 7.58579 12.75 8 12.75C8.41421 12.75 8.75 12.4142 8.75 12H7.25ZM18.4054 9.89619L19.0721 17.8962L20.5669 17.7716L19.9002 9.77163L18.4054 9.89619ZM17.8264 19.25H6.1736V20.75H17.8264V19.25ZM4.92792 17.8962L5.59458 9.89619L4.09977 9.77163L3.4331 17.7716L4.92792 17.8962ZM6.1736 19.25C5.4423 19.25 4.86719 18.625 4.92792 17.8962L3.4331 17.7716C3.29949 19.3749 4.56474 20.75 6.1736 20.75V19.25ZM19.0721 17.8962C19.1328 18.625 18.5577 19.25 17.8264 19.25V20.75C19.4353 20.75 20.7005 19.3749 20.5669 17.7716L19.0721 17.8962ZM17.1597 8.75C17.8098 8.75 18.3514 9.24833 18.4054 9.89619L19.9002 9.77163C19.7815 8.34632 18.59 7.25 17.1597 7.25V8.75ZM6.84027 7.25C5.41002 7.25 4.21854 8.34632 4.09977 9.77163L5.59458 9.89619C5.64857 9.24833 6.19016 8.75 6.84027 8.75V7.25ZM16 8.75H17.1597V7.25H16V8.75ZM6.84027 8.75H8V7.25H6.84027V8.75ZM8 8.75H16V7.25H8V8.75ZM16.75 7C16.75 5.74022 16.2496 4.53204 15.3588 3.64124L14.2981 4.7019C14.9076 5.3114 15.25 6.13805 15.25 7H16.75ZM15.3588 3.64124C14.468 2.75045 13.2598 2.25 12 2.25V3.75C12.862 3.75 13.6886 4.09241 14.2981 4.7019L15.3588 3.64124ZM12 2.25C10.7402 2.25 9.53204 2.75044 8.64124 3.64124L9.7019 4.7019C10.3114 4.09241 11.138 3.75 12 3.75V2.25ZM8.64124 3.64124C7.75045 4.53204 7.25 5.74022 7.25 7H8.75C8.75 6.13805 9.09241 5.3114 9.7019 4.7019L8.64124 3.64124ZM15.25 7L15.25 8L16.75 8L16.75 7L15.25 7ZM15.25 8L15.25 12H16.75L16.75 8L15.25 8ZM7.25 7L7.25 8L8.75 8L8.75 7L7.25 7ZM7.25 8L7.25 12H8.75L8.75 8H7.25Z" fill="#001A72"/>
</svg>
