<svg width="24" height="24" viewBox="0 0 24 24" fill="none" xmlns="http://www.w3.org/2000/svg">
<path d="M13 7L13.5303 6.46967C13.2374 6.17678 12.7626 6.17678 12.4697 6.46967L13 7ZM17 11L17.5303 11.5303C17.8232 11.2374 17.8232 10.7626 17.5303 10.4697L17 11ZM8 20V20.75C8.19891 20.75 8.38968 20.671 8.53033 20.5303L8 20ZM4 20H3.25C3.25 20.4142 3.58579 20.75 4 20.75V20ZM4 16L3.46967 15.4697C3.32902 15.6103 3.25 15.8011 3.25 16H4ZM4 4V3.25C3.58579 3.25 3.25 3.58579 3.25 4H4ZM20 4H20.75C20.75 3.58579 20.4142 3.25 20 3.25V4ZM20 20V20.75C20.4142 20.75 20.75 20.4142 20.75 20H20ZM14 19.25C13.5858 19.25 13.25 19.5858 13.25 20C13.25 20.4142 13.5858 20.75 14 20.75V19.25ZM3.25 10C3.25 10.4142 3.58579 10.75 4 10.75C4.41421 10.75 4.75 10.4142 4.75 10H3.25ZM12.4697 7.53033L16.4697 11.5303L17.5303 10.4697L13.5303 6.46967L12.4697 7.53033ZM8 19.25H4V20.75H8V19.25ZM4.75 20V16H3.25V20H4.75ZM4.53033 16.5303L10.5303 10.5303L9.46967 9.46967L3.46967 15.4697L4.53033 16.5303ZM10.5303 10.5303L13.5303 7.53033L12.4697 6.46967L9.46967 9.46967L10.5303 10.5303ZM16.4697 10.4697L13.4697 13.4697L14.5303 14.5303L17.5303 11.5303L16.4697 10.4697ZM13.4697 13.4697L7.46967 19.4697L8.53033 20.5303L14.5303 14.5303L13.4697 13.4697ZM14.5303 13.4697L10.5303 9.46967L9.46967 10.5303L13.4697 14.5303L14.5303 13.4697ZM4 4.75H20V3.25H4V4.75ZM19.25 4V20H20.75V4H19.25ZM20 19.25H14V20.75H20V19.25ZM4.75 10V4H3.25V10H4.75Z" fill="#001A72"/>
</svg>
