<svg width="24" height="24" viewBox="0 0 24 24" fill="none" xmlns="http://www.w3.org/2000/svg">
<path d="M17 3L17.5303 2.46967C17.2374 2.17678 16.7626 2.17678 16.4697 2.46967L17 3ZM21 7L21.5303 7.53033C21.8232 7.23744 21.8232 6.76256 21.5303 6.46967L21 7ZM12 16V16.75C12.1989 16.75 12.3897 16.671 12.5303 16.5303L12 16ZM8 16H7.25C7.25 16.4142 7.58579 16.75 8 16.75V16ZM8 12L7.46967 11.4697C7.32902 11.6103 7.25 11.8011 7.25 12H8ZM20 20V20.75C20.1989 20.75 20.3897 20.671 20.5303 20.5303C20.671 20.3897 20.75 20.1989 20.75 20H20ZM4 20H3.25C3.25 20.4142 3.58579 20.75 4 20.75L4 20ZM4 4L4 3.25C3.58579 3.25 3.25 3.58579 3.25 4L4 4ZM10 4.75C10.4142 4.75 10.75 4.41421 10.75 4C10.75 3.58579 10.4142 3.25 10 3.25V4.75ZM20.75 14C20.75 13.5858 20.4142 13.25 20 13.25C19.5858 13.25 19.25 13.5858 19.25 14H20.75ZM16.4697 3.53033L20.4697 7.53033L21.5303 6.46967L17.5303 2.46967L16.4697 3.53033ZM12 15.25H8V16.75H12V15.25ZM8.75 16V12H7.25V16H8.75ZM8.53033 12.5303L14.5303 6.53033L13.4697 5.46967L7.46967 11.4697L8.53033 12.5303ZM14.5303 6.53033L17.5303 3.53033L16.4697 2.46967L13.4697 5.46967L14.5303 6.53033ZM20.4697 6.46967L17.4697 9.46967L18.5303 10.5303L21.5303 7.53033L20.4697 6.46967ZM17.4697 9.46967L11.4697 15.4697L12.5303 16.5303L18.5303 10.5303L17.4697 9.46967ZM18.5303 9.46967L14.5303 5.46967L13.4697 6.53033L17.4697 10.5303L18.5303 9.46967ZM20 19.25L4 19.25L4 20.75L20 20.75V19.25ZM4.75 20L4.75 4L3.25 4L3.25 20H4.75ZM4 4.75L10 4.75V3.25L4 3.25L4 4.75ZM19.25 14V20H20.75V14H19.25Z" fill="#001A72"/>
</svg>
