<svg width="24" height="24" viewBox="0 0 24 24" fill="none" xmlns="http://www.w3.org/2000/svg">
<path d="M9 17.25C8.58579 17.25 8.25 17.5858 8.25 18C8.25 18.4142 8.58579 18.75 9 18.75V17.25ZM15 18.75C15.4142 18.75 15.75 18.4142 15.75 18C15.75 17.5858 15.4142 17.25 15 17.25V18.75ZM11.25 21C11.25 21.4142 11.5858 21.75 12 21.75C12.4142 21.75 12.75 21.4142 12.75 21H11.25ZM9 18.75H15V17.25H9V18.75ZM11.25 13V21H12.75V13H11.25ZM7.75 8C7.75 5.65279 9.65279 3.75 12 3.75V2.25C8.82436 2.25 6.25 4.82436 6.25 8H7.75ZM12 3.75C14.3472 3.75 16.25 5.65279 16.25 8H17.75C17.75 4.82436 15.1756 2.25 12 2.25V3.75ZM16.25 8C16.25 10.3472 14.3472 12.25 12 12.25V13.75C15.1756 13.75 17.75 11.1756 17.75 8H16.25ZM12 12.25C9.65279 12.25 7.75 10.3472 7.75 8H6.25C6.25 11.1756 8.82436 13.75 12 13.75V12.25Z" fill="#001A72"/>
</svg>
