<svg width="24" height="24" viewBox="0 0 24 24" fill="none" xmlns="http://www.w3.org/2000/svg">
<path d="M3.25 21.1111C3.25 21.5253 3.58579 21.8611 4 21.8611C4.41421 21.8611 4.75 21.5253 4.75 21.1111H3.25ZM4 4.11109L3.51986 3.53492C3.34887 3.67742 3.25 3.8885 3.25 4.11109H4ZM20 4.11112H20.75C20.75 3.8201 20.5817 3.55536 20.3181 3.43193C20.0546 3.30849 19.7434 3.34865 19.5199 3.53495L20 4.11112ZM20 16.1111L20.4801 16.6873C20.6511 16.5448 20.75 16.3337 20.75 16.1111H20ZM4.75 21.1111V16.1111H3.25V21.1111H4.75ZM4.75 16.1111V4.11109H3.25V16.1111H4.75ZM19.25 4.11112V16.1111H20.75V4.11112H19.25ZM20 16.1111C19.5199 15.535 19.5202 15.5347 19.5206 15.5344C19.5207 15.5343 19.521 15.534 19.5212 15.5338C19.5216 15.5335 19.522 15.5332 19.5223 15.5329C19.5229 15.5324 19.5234 15.532 19.5237 15.5318C19.5242 15.5313 19.5241 15.5315 19.5233 15.5321C19.5216 15.5334 19.5172 15.5369 19.5101 15.5424C19.4958 15.5533 19.4706 15.572 19.4348 15.5968C19.363 15.6464 19.2491 15.7199 19.095 15.8037C18.7866 15.9713 18.3196 16.1784 17.7088 16.3173C16.5013 16.5917 14.6787 16.612 12.3354 15.4403L11.6646 16.7819C14.3213 18.1103 16.4987 18.1305 18.0412 17.78C18.8054 17.6063 19.4009 17.3446 19.8113 17.1216C20.0165 17.0101 20.176 16.9079 20.2879 16.8305C20.3439 16.7918 20.388 16.7593 20.4201 16.7348C20.4361 16.7226 20.4492 16.7123 20.4592 16.7043C20.4642 16.7003 20.4685 16.6969 20.4719 16.694C20.4737 16.6926 20.4753 16.6913 20.4766 16.6902C20.4773 16.6896 20.4779 16.6891 20.4785 16.6886C20.4788 16.6884 20.4792 16.6881 20.4794 16.6879C20.4798 16.6876 20.4801 16.6873 20 16.1111ZM12.3354 15.4403C9.67872 14.112 7.50131 14.0917 5.95879 14.4423C5.19459 14.6159 4.59905 14.8776 4.18874 15.1006C3.98349 15.2121 3.82397 15.3143 3.71211 15.3917C3.65615 15.4304 3.612 15.4629 3.57991 15.4874C3.56386 15.4997 3.55082 15.5099 3.5408 15.5179C3.53579 15.5219 3.53154 15.5253 3.52805 15.5282C3.52631 15.5296 3.52475 15.5309 3.52339 15.532C3.52271 15.5326 3.52207 15.5331 3.52148 15.5336C3.52119 15.5338 3.52078 15.5342 3.52064 15.5343C3.52025 15.5346 3.51986 15.5349 4 16.1111C4.48014 16.6873 4.47978 16.6876 4.47943 16.6878C4.47933 16.6879 4.47899 16.6882 4.47879 16.6884C4.47839 16.6887 4.47803 16.689 4.47771 16.6893C4.47708 16.6898 4.47662 16.6902 4.47633 16.6904C4.47577 16.6909 4.47589 16.6908 4.47672 16.6901C4.47836 16.6888 4.48277 16.6853 4.48991 16.6798C4.50421 16.6689 4.5294 16.6502 4.56523 16.6254C4.63696 16.5758 4.75088 16.5023 4.90501 16.4185C5.21345 16.2509 5.68041 16.0438 6.29121 15.905C7.49869 15.6305 9.32128 15.6103 11.6646 16.7819L12.3354 15.4403ZM4 4.11109C4.48014 4.68726 4.47978 4.68756 4.47943 4.68785C4.47933 4.68793 4.47899 4.68821 4.47879 4.68838C4.47839 4.68871 4.47803 4.68901 4.47771 4.68927C4.47708 4.68979 4.47662 4.69017 4.47633 4.6904C4.47577 4.69086 4.47589 4.69075 4.47672 4.6901C4.47836 4.68879 4.48277 4.68529 4.48991 4.67984C4.50421 4.66893 4.5294 4.65021 4.56523 4.62544C4.63696 4.57584 4.75088 4.50226 4.90501 4.4185C5.21345 4.25088 5.68041 4.04377 6.29121 3.90496C7.49869 3.63053 9.32128 3.61028 11.6646 4.78194L12.3354 3.4403C9.67872 2.11195 7.50131 2.09169 5.95879 2.44225C5.19459 2.61593 4.59905 2.87757 4.18874 3.10056C3.98349 3.21211 3.82397 3.31432 3.71211 3.39167C3.65615 3.43037 3.612 3.46292 3.57991 3.48741C3.56386 3.49966 3.55082 3.5099 3.5408 3.51789C3.53579 3.52189 3.53154 3.52533 3.52805 3.52818C3.52631 3.5296 3.52475 3.53088 3.52339 3.532C3.52271 3.53257 3.52207 3.53309 3.52148 3.53358C3.52119 3.53382 3.52078 3.53416 3.52064 3.53428C3.52025 3.53461 3.51986 3.53492 4 4.11109ZM11.6646 4.78194C14.3213 6.11028 16.4987 6.13054 18.0412 5.77997C18.8054 5.60629 19.4009 5.34464 19.8113 5.12165C20.0165 5.0101 20.176 4.90789 20.2879 4.83054C20.3439 4.79184 20.388 4.75929 20.4201 4.7348C20.4361 4.72255 20.4492 4.71231 20.4592 4.70431C20.4642 4.70032 20.4685 4.69688 20.4719 4.69403C20.4737 4.69261 20.4753 4.69133 20.4766 4.6902C20.4773 4.68964 20.4779 4.68912 20.4785 4.68863C20.4788 4.68839 20.4792 4.68805 20.4794 4.68793C20.4798 4.6876 20.4801 4.68728 20 4.11112C19.5199 3.53495 19.5202 3.53465 19.5206 3.53437C19.5207 3.53428 19.521 3.534 19.5212 3.53383C19.5216 3.5335 19.522 3.5332 19.5223 3.53294C19.5229 3.53242 19.5234 3.53204 19.5237 3.53181C19.5242 3.53135 19.5241 3.53146 19.5233 3.53211C19.5216 3.53343 19.5172 3.53692 19.5101 3.54237C19.4958 3.55328 19.4706 3.572 19.4348 3.59678C19.363 3.64638 19.2491 3.71995 19.095 3.80371C18.7866 3.97134 18.3196 4.17845 17.7088 4.31727C16.5013 4.5917 14.6787 4.61195 12.3354 3.4403L11.6646 4.78194Z" fill="#001A72"/>
</svg>
