<svg width="24" height="24" viewBox="0 0 24 24" fill="none" xmlns="http://www.w3.org/2000/svg">
<path d="M16 4L16.5303 3.46967C16.2935 3.23289 15.9285 3.18176 15.6358 3.34438L16 4ZM20 8L20.6556 8.36423C20.8182 8.07151 20.7671 7.70645 20.5303 7.46967L20 8ZM15 17L14.4697 17.5303C14.6361 17.6967 14.8709 17.7754 15.104 17.7427C15.3371 17.7101 15.5413 17.5699 15.6556 17.3642L15 17ZM7 9L6.63577 8.34438C6.43004 8.45868 6.28989 8.66291 6.25725 8.89598C6.22461 9.12904 6.30326 9.36392 6.46967 9.53033L7 9ZM11.5304 13.5303C11.8233 13.2374 11.8233 12.7625 11.5304 12.4696C11.2375 12.1767 10.7626 12.1767 10.4697 12.4696L11.5304 13.5303ZM3.4697 19.4696C3.17681 19.7625 3.17681 20.2374 3.4697 20.5303C3.76259 20.8232 4.23747 20.8232 4.53036 20.5303L3.4697 19.4696ZM15.4697 4.53033L19.4697 8.53033L20.5303 7.46967L16.5303 3.46967L15.4697 4.53033ZM19.3444 7.63577L14.3444 16.6358L15.6556 17.3642L20.6556 8.36423L19.3444 7.63577ZM15.5303 16.4697L7.53033 8.46967L6.46967 9.53033L14.4697 17.5303L15.5303 16.4697ZM7.36423 9.65562L16.3642 4.65562L15.6358 3.34438L6.63577 8.34438L7.36423 9.65562ZM10.4697 12.4696L3.4697 19.4696L4.53036 20.5303L11.5304 13.5303L10.4697 12.4696Z" fill="#001A72"/>
</svg>
