<svg width="24" height="24" viewBox="0 0 24 24" fill="none" xmlns="http://www.w3.org/2000/svg">
<path d="M15.0303 12.0303C15.3232 11.7374 15.3232 11.2626 15.0303 10.9697C14.7374 10.6768 14.2626 10.6768 13.9697 10.9697L15.0303 12.0303ZM8.96967 15.9697C8.67678 16.2626 8.67678 16.7374 8.96967 17.0303C9.26256 17.3232 9.73744 17.3232 10.0303 17.0303L8.96967 15.9697ZM10.0303 10.9697C9.73744 10.6768 9.26256 10.6768 8.96967 10.9697C8.67678 11.2626 8.67678 11.7374 8.96967 12.0303L10.0303 10.9697ZM13.9697 17.0303C14.2626 17.3232 14.7374 17.3232 15.0303 17.0303C15.3232 16.7374 15.3232 16.2626 15.0303 15.9697L13.9697 17.0303ZM19 4.5H19.75C19.75 4.08579 19.4142 3.75 19 3.75V4.5ZM19 21V21.75C19.4142 21.75 19.75 21.4142 19.75 21H19ZM5 21H4.25C4.25 21.4142 4.58579 21.75 5 21.75V21ZM5 4.5V3.75C4.58579 3.75 4.25 4.08579 4.25 4.5H5ZM9 3V2.25C8.58579 2.25 8.25 2.58579 8.25 3H9ZM15 3H15.75C15.75 2.58579 15.4142 2.25 15 2.25V3ZM15 6V6.75C15.4142 6.75 15.75 6.41421 15.75 6H15ZM9 6H8.25C8.25 6.41421 8.58579 6.75 9 6.75V6ZM13.9697 10.9697L8.96967 15.9697L10.0303 17.0303L15.0303 12.0303L13.9697 10.9697ZM8.96967 12.0303L13.9697 17.0303L15.0303 15.9697L10.0303 10.9697L8.96967 12.0303ZM18.25 4.5V21H19.75V4.5H18.25ZM19 20.25H5V21.75H19V20.25ZM5.75 21V4.5H4.25V21H5.75ZM5 5.25H9V3.75H5V5.25ZM19 3.75H15V5.25H19V3.75ZM9 3.75H15V2.25H9V3.75ZM15 5.25H9V6.75H15V5.25ZM9.75 6V4.5H8.25V6H9.75ZM9.75 4.5V3H8.25V4.5H9.75ZM14.25 3V4.5H15.75V3H14.25ZM14.25 4.5V6H15.75V4.5H14.25Z" fill="#001A72"/>
</svg>
