<svg width="24" height="24" viewBox="0 0 24 24" fill="none" xmlns="http://www.w3.org/2000/svg">
<path d="M8.42907 8.86984C8.76881 8.63287 8.85211 8.16536 8.61514 7.82563C8.37817 7.48589 7.91066 7.40259 7.57093 7.63956L8.42907 8.86984ZM16.4291 7.63956C16.0893 7.40259 15.6218 7.48589 15.3849 7.82563C15.1479 8.16536 15.2312 8.63287 15.5709 8.86984L16.4291 7.63956ZM12.75 4C12.75 3.58579 12.4142 3.25 12 3.25C11.5858 3.25 11.25 3.58579 11.25 4H12.75ZM11.25 12C11.25 12.4142 11.5858 12.75 12 12.75C12.4142 12.75 12.75 12.4142 12.75 12H11.25ZM18.25 14C18.25 17.4518 15.4518 20.25 12 20.25V21.75C16.2802 21.75 19.75 18.2802 19.75 14H18.25ZM12 20.25C8.54822 20.25 5.75 17.4518 5.75 14H4.25C4.25 18.2802 7.71979 21.75 12 21.75V20.25ZM5.75 14C5.75 11.8768 6.80806 10.0005 8.42907 8.86984L7.57093 7.63956C5.56497 9.03876 4.25 11.3658 4.25 14H5.75ZM15.5709 8.86984C17.1919 10.0005 18.25 11.8768 18.25 14H19.75C19.75 11.3658 18.435 9.03876 16.4291 7.63956L15.5709 8.86984ZM11.25 4V12H12.75V4H11.25Z" fill="#001A72"/>
</svg>
