<svg width="24" height="24" viewBox="0 0 24 24" fill="none" xmlns="http://www.w3.org/2000/svg">
<path d="M12 18L11.584 18.624C11.8141 18.7775 12.11 18.7918 12.3539 18.6613C12.5978 18.5307 12.75 18.2766 12.75 18H12ZM12 6L12.75 6C12.75 5.7234 12.5978 5.46926 12.3539 5.33874C12.11 5.20823 11.8141 5.22253 11.584 5.37596L12 6ZM3 12L2.58397 11.376C2.37533 11.5151 2.25 11.7492 2.25 12C2.25 12.2508 2.37533 12.4849 2.58397 12.624L3 12ZM19 6H19.75C19.75 5.7298 19.6047 5.48048 19.3695 5.34735C19.1344 5.21422 18.8458 5.21786 18.6141 5.35688L19 6ZM19 18L18.6141 18.6431C18.8458 18.7821 19.1344 18.7858 19.3695 18.6526C19.6047 18.5195 19.75 18.2702 19.75 18H19ZM12.3859 13.1569C12.0307 12.9438 11.57 13.0589 11.3569 13.4141C11.1438 13.7693 11.2589 14.23 11.6141 14.4431L12.3859 13.1569ZM11.6141 9.55688C11.2589 9.76999 11.1438 10.2307 11.3569 10.5859C11.57 10.9411 12.0307 11.0562 12.3859 10.8431L11.6141 9.55688ZM11.25 6L11.25 18H12.75L12.75 6L11.25 6ZM3.41603 12.624L12.416 6.62404L11.584 5.37596L2.58397 11.376L3.41603 12.624ZM12.416 17.376L3.41603 11.376L2.58397 12.624L11.584 18.624L12.416 17.376ZM18.25 6V18H19.75V6H18.25ZM19.3859 17.3569L12.3859 13.1569L11.6141 14.4431L18.6141 18.6431L19.3859 17.3569ZM12.3859 10.8431L19.3859 6.64312L18.6141 5.35688L11.6141 9.55688L12.3859 10.8431Z" fill="#001A72"/>
</svg>
