<svg width="24" height="24" viewBox="0 0 24 24" fill="none" xmlns="http://www.w3.org/2000/svg">
<path d="M15.5858 4.58579L15.0555 5.11612L15.0555 5.11612L15.5858 4.58579ZM19.4142 8.41421L19.9445 7.88388L19.9445 7.88388L19.4142 8.41421ZM9 15V14.25C8.58579 14.25 8.25 14.5858 8.25 15H9ZM15 15H15.75C15.75 14.5858 15.4142 14.25 15 14.25V15ZM14.25 20C14.25 20.4142 14.5858 20.75 15 20.75C15.4142 20.75 15.75 20.4142 15.75 20H14.25ZM8.25 20C8.25 20.4142 8.58579 20.75 9 20.75C9.41421 20.75 9.75 20.4142 9.75 20H8.25ZM18 19.25H6V20.75H18V19.25ZM4.75 18V6H3.25V18H4.75ZM6 4.75H14.1716V3.25H6V4.75ZM19.25 9.82843V18H20.75V9.82843H19.25ZM15.0555 5.11612L18.8839 8.94454L19.9445 7.88388L16.1161 4.05546L15.0555 5.11612ZM20.75 9.82843C20.75 9.09908 20.4603 8.39961 19.9445 7.88388L18.8839 8.94454C19.1183 9.17896 19.25 9.49691 19.25 9.82843H20.75ZM14.1716 4.75C14.5031 4.75 14.821 4.8817 15.0555 5.11612L16.1161 4.05546C15.6004 3.53973 14.9009 3.25 14.1716 3.25V4.75ZM6 19.25C5.30964 19.25 4.75 18.6904 4.75 18H3.25C3.25 19.5188 4.48122 20.75 6 20.75V19.25ZM18 20.75C19.5188 20.75 20.75 19.5188 20.75 18H19.25C19.25 18.6904 18.6904 19.25 18 19.25V20.75ZM4.75 6C4.75 5.30964 5.30964 4.75 6 4.75V3.25C4.48122 3.25 3.25 4.48122 3.25 6H4.75ZM9 15.75H15V14.25H9V15.75ZM14.25 15V20H15.75V15H14.25ZM9.75 20V15H8.25V20H9.75Z" fill="#001A72"/>
</svg>
