<svg width="24" height="24" viewBox="0 0 24 24" fill="none" xmlns="http://www.w3.org/2000/svg">
<path d="M13 3H13.75C13.75 2.70899 13.5816 2.44424 13.3181 2.32081C13.0546 2.19737 12.7434 2.23753 12.5198 2.42383L13 3ZM10.1198 4.42383C9.80163 4.68901 9.75864 5.16193 10.0238 5.48014C10.289 5.79835 10.7619 5.84134 11.0801 5.57617L10.1198 4.42383ZM12.25 8C12.25 8.41421 12.5858 8.75 13 8.75C13.4142 8.75 13.75 8.41421 13.75 8H12.25ZM3.53033 2.46967C3.23744 2.17678 2.76256 2.17678 2.46967 2.46967C2.17678 2.76256 2.17678 3.23744 2.46967 3.53033L3.53033 2.46967ZM20.4697 21.5303C20.7626 21.8232 21.2374 21.8232 21.5303 21.5303C21.8232 21.2374 21.8232 20.7626 21.5303 20.4697L20.4697 21.5303ZM7 16L7.48014 15.4238C7.34535 15.3115 7.17545 15.25 7 15.25V16ZM13 21L12.5199 21.5762C12.7434 21.7625 13.0546 21.8026 13.3181 21.6792C13.5817 21.5558 13.75 21.291 13.75 21H13ZM13.75 18C13.75 17.5858 13.4142 17.25 13 17.25C12.5858 17.25 12.25 17.5858 12.25 18H13.75ZM3.91677 9.37554C4.12418 9.017 4.00165 8.5582 3.64311 8.3508C3.28456 8.14339 2.82577 8.26591 2.61836 8.62446L3.91677 9.37554ZM12.5198 2.42383L10.1198 4.42383L11.0801 5.57617L13.4801 3.57617L12.5198 2.42383ZM13.75 8V3H12.25V8H13.75ZM2.46967 3.53033L20.4697 21.5303L21.5303 20.4697L3.53033 2.46967L2.46967 3.53033ZM2.25 10V14H3.75V10H2.25ZM5 16.75H7V15.25H5V16.75ZM6.51986 16.5762L12.5199 21.5762L13.4801 20.4238L7.48014 15.4238L6.51986 16.5762ZM2.25 14C2.25 15.5188 3.48122 16.75 5 16.75V15.25C4.30964 15.25 3.75 14.6904 3.75 14H2.25ZM13.75 21V18H12.25V21H13.75ZM2.61836 8.62446C2.38393 9.02971 2.25 9.50035 2.25 10H3.75C3.75 9.77107 3.81085 9.55864 3.91677 9.37554L2.61836 8.62446Z" fill="#001A72"/>
</svg>
