<svg width="24" height="24" viewBox="0 0 24 24" fill="none" xmlns="http://www.w3.org/2000/svg">
<path d="M13 3H13.75C13.75 2.70899 13.5817 2.44424 13.3181 2.32081C13.0546 2.19737 12.7434 2.23753 12.5199 2.42383L13 3ZM7 8V8.75C7.17545 8.75 7.34535 8.68849 7.48014 8.57617L7 8ZM7 16L7.48014 15.4238C7.34535 15.3115 7.17545 15.25 7 15.25V16ZM13 21L12.5199 21.5762C12.7434 21.7625 13.0546 21.8026 13.3181 21.6792C13.5817 21.5558 13.75 21.291 13.75 21H13ZM16.5303 8.46967C16.2374 8.17678 15.7626 8.17678 15.4697 8.46967C15.1768 8.76256 15.1768 9.23744 15.4697 9.53033L16.5303 8.46967ZM15.4697 14.4697C15.1768 14.7626 15.1768 15.2374 15.4697 15.5303C15.7626 15.8232 16.2374 15.8232 16.5303 15.5303L15.4697 14.4697ZM19.5303 5.46967C19.2374 5.17678 18.7626 5.17678 18.4697 5.46967C18.1768 5.76256 18.1768 6.23744 18.4697 6.53033L19.5303 5.46967ZM21 12H20.25H21ZM18.4697 17.4697C18.1768 17.7626 18.1768 18.2374 18.4697 18.5303C18.7626 18.8232 19.2374 18.8232 19.5303 18.5303L18.4697 17.4697ZM12.5199 2.42383L6.51986 7.42383L7.48014 8.57617L13.4801 3.57617L12.5199 2.42383ZM7 7.25H5V8.75H7V7.25ZM2.25 10V14H3.75V10H2.25ZM5 16.75H7V15.25H5V16.75ZM6.51986 16.5762L12.5199 21.5762L13.4801 20.4238L7.48014 15.4238L6.51986 16.5762ZM13.75 21V3H12.25V21H13.75ZM2.25 14C2.25 15.5188 3.48122 16.75 5 16.75V15.25C4.30964 15.25 3.75 14.6904 3.75 14H2.25ZM5 7.25C3.48122 7.25 2.25 8.48122 2.25 10H3.75C3.75 9.30964 4.30964 8.75 5 8.75V7.25ZM15.4697 9.53033C15.8041 9.86478 16.25 10.6607 16.25 12H17.75C17.75 10.3393 17.1959 9.13522 16.5303 8.46967L15.4697 9.53033ZM16.25 12C16.25 13.3393 15.8041 14.1352 15.4697 14.4697L16.5303 15.5303C17.1959 14.8648 17.75 13.6607 17.75 12H16.25ZM18.4697 6.53033C19.758 7.81871 20.25 10.0689 20.25 12H21.75C21.75 9.93115 21.242 7.18129 19.5303 5.46967L18.4697 6.53033ZM20.25 12C20.25 13.9311 19.758 16.1813 18.4697 17.4697L19.5303 18.5303C21.242 16.8187 21.75 14.0688 21.75 12H20.25Z" fill="#001A72"/>
</svg>
