<svg width="24" height="24" viewBox="0 0 24 24" fill="none" xmlns="http://www.w3.org/2000/svg">
<path d="M12.75 12C12.75 11.5858 12.4142 11.25 12 11.25C11.5858 11.25 11.25 11.5858 11.25 12H12.75ZM11.25 16C11.25 16.4142 11.5858 16.75 12 16.75C12.4142 16.75 12.75 16.4142 12.75 16H11.25ZM14.25 6C14.25 6.41421 14.5858 6.75 15 6.75C15.4142 6.75 15.75 6.41421 15.75 6H14.25ZM8.25 6C8.25 6.41421 8.58579 6.75 9 6.75C9.41421 6.75 9.75 6.41421 9.75 6H8.25ZM12.75 14V12H11.25V14H12.75ZM11.25 14V16H12.75V14H11.25ZM18 19.25H6V20.75H18V19.25ZM6 19.25C5.30964 19.25 4.75 18.6904 4.75 18H3.25C3.25 19.5188 4.48122 20.75 6 20.75V19.25ZM19.25 18C19.25 18.6904 18.6904 19.25 18 19.25V20.75C19.5188 20.75 20.75 19.5188 20.75 18H19.25ZM20.75 18V12H19.25V18H20.75ZM3.25 12V18H4.75V12H3.25ZM6 6.75H18V5.25H6V6.75ZM6 13.25C5.30964 13.25 4.75 12.6904 4.75 12H3.25C3.25 13.5188 4.48122 14.75 6 14.75V13.25ZM19.25 12C19.25 12.6904 18.6904 13.25 18 13.25V14.75C19.5188 14.75 20.75 13.5188 20.75 12H19.25ZM18 6.75C18.6904 6.75 19.25 7.30964 19.25 8H20.75C20.75 6.48122 19.5188 5.25 18 5.25V6.75ZM6 5.25C4.48122 5.25 3.25 6.48122 3.25 8H4.75C4.75 7.30964 5.30964 6.75 6 6.75V5.25ZM18 13.25H12V14.75H18V13.25ZM12 13.25H6V14.75H12V13.25ZM20.75 12V8H19.25V12H20.75ZM3.25 8V12H4.75V8H3.25ZM15.75 6V5H14.25V6H15.75ZM13 2.25H11V3.75H13V2.25ZM8.25 5V6H9.75V5H8.25ZM11 2.25C9.48122 2.25 8.25 3.48122 8.25 5H9.75C9.75 4.30964 10.3096 3.75 11 3.75V2.25ZM15.75 5C15.75 3.48122 14.5188 2.25 13 2.25V3.75C13.6904 3.75 14.25 4.30964 14.25 5H15.75Z" fill="#001A72"/>
</svg>
