<svg width="24" height="24" viewBox="0 0 24 24" fill="none" xmlns="http://www.w3.org/2000/svg">
<path d="M23.5303 9.53033C23.8232 9.23744 23.8232 8.76256 23.5303 8.46967C23.2374 8.17678 22.7626 8.17678 22.4697 8.46967L23.5303 9.53033ZM19.8001 12.1999L19.2698 12.7303C19.5626 13.0232 20.0375 13.0231 20.3304 12.7303L19.8001 12.1999ZM18.5304 9.86962C18.2375 9.57674 17.7626 9.57674 17.4697 9.86964C17.1768 10.1625 17.1768 10.6374 17.4697 10.9303L18.5304 9.86962ZM20 21V21.75C20.4142 21.75 20.75 21.4142 20.75 21H20ZM4 21H3.25C3.25 21.4142 3.58579 21.75 4 21.75V21ZM22.4697 8.46967L19.2697 11.6696L20.3304 12.7303L23.5303 9.53033L22.4697 8.46967ZM17.4697 10.9303L19.2698 12.7303L20.3304 11.6696L18.5304 9.86962L17.4697 10.9303ZM8 15.75H16V14.25H8V15.75ZM19.25 19V21H20.75V19H19.25ZM4.75 21V19H3.25V21H4.75ZM16 15.75C17.7949 15.75 19.25 17.2051 19.25 19H20.75C20.75 16.3766 18.6234 14.25 16 14.25V15.75ZM8 14.25C5.37665 14.25 3.25 16.3766 3.25 19H4.75C4.75 17.2051 6.20507 15.75 8 15.75V14.25ZM15.25 7C15.25 8.79493 13.7949 10.25 12 10.25V11.75C14.6234 11.75 16.75 9.62335 16.75 7H15.25ZM12 10.25C10.2051 10.25 8.75 8.79493 8.75 7H7.25C7.25 9.62335 9.37665 11.75 12 11.75V10.25ZM8.75 7C8.75 5.20507 10.2051 3.75 12 3.75V2.25C9.37665 2.25 7.25 4.37665 7.25 7H8.75ZM12 3.75C13.7949 3.75 15.25 5.20507 15.25 7H16.75C16.75 4.37665 14.6234 2.25 12 2.25V3.75ZM4 21.75H20V20.25H4V21.75Z" fill="#001A72"/>
</svg>
