<svg width="24" height="24" viewBox="0 0 24 24" fill="none" xmlns="http://www.w3.org/2000/svg">
<path d="M20.2032 13C20.2032 13.4142 20.5389 13.75 20.9532 13.75C21.3674 13.75 21.7032 13.4142 21.7032 13H20.2032ZM21.7032 12.995C21.7032 12.5808 21.3674 12.245 20.9532 12.245C20.5389 12.245 20.2032 12.5808 20.2032 12.995H21.7032ZM18.286 7.17049C18.1592 7.56483 18.3761 7.98726 18.7705 8.11402C19.1648 8.24078 19.5873 8.02386 19.714 7.62951L18.286 7.17049ZM20.2603 10.3759C20.1918 10.7844 20.4674 11.1711 20.8759 11.2397C21.2844 11.3082 21.6711 11.0326 21.7397 10.6241L20.2603 10.3759ZM20 21V21.75C20.4142 21.75 20.75 21.4142 20.75 21H20ZM4 21H3.25C3.25 21.4142 3.58579 21.75 4 21.75V21ZM21.7032 13V12.995H20.2032V13H21.7032ZM20.9531 6.75C21.6858 6.75 22.25 7.32592 22.25 8H23.75C23.75 6.46494 22.4813 5.25 20.9531 5.25V6.75ZM19.714 7.62951C19.8751 7.12845 20.3622 6.75 20.9531 6.75V5.25C19.7111 5.25 18.6466 6.0487 18.286 7.17049L19.714 7.62951ZM22.25 8C22.25 8.25376 22.1886 8.3096 22.1776 8.32148C22.1299 8.37285 22.0482 8.42232 21.7925 8.53995C21.5797 8.63782 21.2235 8.79296 20.9194 9.07746C20.5879 9.3875 20.3557 9.80757 20.2603 10.3759L21.7397 10.6241C21.7855 10.3508 21.874 10.2384 21.944 10.173C22.0413 10.082 22.1674 10.0186 22.4194 9.90269C22.6283 9.80658 22.9937 9.64707 23.2769 9.34206C23.5967 8.99755 23.75 8.54962 23.75 8H22.25ZM8 15.75H16V14.25H8V15.75ZM19.25 19V21H20.75V19H19.25ZM4.75 21V19H3.25V21H4.75ZM16 15.75C17.7949 15.75 19.25 17.2051 19.25 19H20.75C20.75 16.3766 18.6234 14.25 16 14.25V15.75ZM8 14.25C5.37665 14.25 3.25 16.3766 3.25 19H4.75C4.75 17.2051 6.20507 15.75 8 15.75V14.25ZM15.25 7C15.25 8.79493 13.7949 10.25 12 10.25V11.75C14.6234 11.75 16.75 9.62335 16.75 7H15.25ZM12 10.25C10.2051 10.25 8.75 8.79493 8.75 7H7.25C7.25 9.62335 9.37665 11.75 12 11.75V10.25ZM8.75 7C8.75 5.20507 10.2051 3.75 12 3.75V2.25C9.37665 2.25 7.25 4.37665 7.25 7H8.75ZM12 3.75C13.7949 3.75 15.25 5.20507 15.25 7H16.75C16.75 4.37665 14.6234 2.25 12 2.25V3.75ZM4 21.75H20V20.25H4V21.75Z" fill="#001A72"/>
</svg>
