<svg width="24" height="24" viewBox="0 0 24 24" fill="none" xmlns="http://www.w3.org/2000/svg">
<path d="M15 9.75C15.4142 9.75 15.75 9.41421 15.75 9C15.75 8.58579 15.4142 8.25 15 8.25V9.75ZM13 8.25C12.5858 8.25 12.25 8.58579 12.25 9C12.25 9.41421 12.5858 9.75 13 9.75V8.25ZM14.1516 4.90899C14.4445 4.6161 14.4445 4.14123 14.1516 3.84833C13.8588 3.55544 13.3839 3.55544 13.091 3.84833L14.1516 4.90899ZM10.9697 5.96965C10.6768 6.26255 10.6768 6.73742 10.9697 7.03031C11.2626 7.32321 11.7374 7.32321 12.0303 7.03031L10.9697 5.96965ZM8.25 5C8.25 5.41421 8.58579 5.75 9 5.75C9.41421 5.75 9.75 5.41421 9.75 5H8.25ZM9.75 3C9.75 2.58579 9.41421 2.25 9 2.25C8.58579 2.25 8.25 2.58579 8.25 3H9.75ZM5.96971 7.03037C6.26261 7.32327 6.73748 7.32327 7.03037 7.03037C7.32327 6.73748 7.32327 6.26261 7.03037 5.96971L5.96971 7.03037ZM4.90905 3.84839C4.61616 3.5555 4.14129 3.5555 3.84839 3.84839C3.5555 4.14129 3.5555 4.61616 3.84839 4.90905L4.90905 3.84839ZM5 9.75C5.41421 9.75 5.75 9.41421 5.75 9C5.75 8.58579 5.41421 8.25 5 8.25V9.75ZM3 8.25C2.58579 8.25 2.25 8.58579 2.25 9C2.25 9.41421 2.58579 9.75 3 9.75V8.25ZM7.03037 12.0303C7.32327 11.7374 7.32327 11.2626 7.03037 10.9697C6.73748 10.6768 6.26261 10.6768 5.96971 10.9697L7.03037 12.0303ZM3.84839 13.091C3.5555 13.3839 3.5555 13.8588 3.84839 14.1517C4.14129 14.4445 4.61616 14.4445 4.90905 14.1517L3.84839 13.091ZM8.25 15C8.25 15.4142 8.58579 15.75 9 15.75C9.41421 15.75 9.75 15.4142 9.75 15H8.25ZM9.75 13C9.75 12.5858 9.41421 12.25 9 12.25C8.58579 12.25 8.25 12.5858 8.25 13H9.75ZM19.4697 20.5303C19.7626 20.8232 20.2375 20.8232 20.5303 20.5303C20.8232 20.2375 20.8232 19.7626 20.5303 19.4697L19.4697 20.5303ZM12.5303 11.4697C12.2374 11.1768 11.7626 11.1768 11.4697 11.4697C11.1768 11.7626 11.1768 12.2374 11.4697 12.5303L12.5303 11.4697ZM15 8.25H13V9.75H15V8.25ZM13.091 3.84833L10.9697 5.96965L12.0303 7.03031L14.1516 4.90899L13.091 3.84833ZM9.75 5V3H8.25V5H9.75ZM7.03037 5.96971L4.90905 3.84839L3.84839 4.90905L5.96971 7.03037L7.03037 5.96971ZM5 8.25H3V9.75H5V8.25ZM5.96971 10.9697L3.84839 13.091L4.90905 14.1517L7.03037 12.0303L5.96971 10.9697ZM9.75 15V13H8.25V15H9.75ZM20.5303 19.4697L12.5303 11.4697L11.4697 12.5303L19.4697 20.5303L20.5303 19.4697Z" fill="#001A72"/>
</svg>
