<svg width="20" height="20" viewBox="0 0 20 20" fill="none" xmlns="http://www.w3.org/2000/svg">
<path fill-rule="evenodd" clip-rule="evenodd" d="M8.75 16.25C4.60786 16.25 1.25 12.8921 1.25 8.75C1.25 4.60786 4.60786 1.25 8.75 1.25C12.8921 1.25 16.25 4.60786 16.25 8.75C16.25 10.3698 15.7365 11.8696 14.8634 13.0957L19.6339 17.8661L17.8661 19.6339L13.0957 14.8634C11.8696 15.7365 10.3698 16.25 8.75 16.25ZM8.75 13.75C11.5114 13.75 13.75 11.5114 13.75 8.75C13.75 5.98858 11.5114 3.75 8.75 3.75C5.98858 3.75 3.75 5.98858 3.75 8.75C3.75 11.5114 5.98858 13.75 8.75 13.75Z" fill="#D82A15"/>
</svg>
