<svg width="16" height="16" viewBox="0 0 16 16" fill="none" xmlns="http://www.w3.org/2000/svg">
<path fill-rule="evenodd" clip-rule="evenodd" d="M7 3C7 2.448 7.448 2 8 2C8.552 2 9 2.448 9 3V7C9 7.552 8.552 8 8 8C7.448 8 7 7.552 7 7V3ZM5 7C5 8.654 6.346 10 8 10C9.654 10 11 8.654 11 7V3C11 1.346 9.654 0 8 0C6.346 0 5 1.346 5 3V7ZM2 7C2 9.96836 4.16548 12.4394 7 12.9167V14H3V16H13V14H9V12.9167C11.8345 12.4394 14 9.96836 14 7V6H12V7C12 9.206 10.206 11 8 11C5.794 11 4 9.206 4 7V6H2V7Z" fill="#D82A15"/>
</svg>
