<svg width="20" height="20" viewBox="0 0 20 20" fill="none" xmlns="http://www.w3.org/2000/svg">
<path fill-rule="evenodd" clip-rule="evenodd" d="M9.21216 1.30031C12.3275 0.904461 15.2528 2.88178 16.0469 5.92011L13.6281 6.55225C13.1517 4.72925 11.3965 3.54286 9.52729 3.78037C7.65809 4.01788 6.25537 5.60553 6.25 7.48618V8.73618H17.5C18.1904 8.73618 18.75 9.29583 18.75 9.98618V18.7362C18.75 19.4265 18.1904 19.9862 17.5 19.9862H2.5C1.80964 19.9862 1.25 19.4265 1.25 18.7362V9.98618C1.25 9.29583 1.80964 8.73618 2.5 8.73618H3.75L3.75001 7.48261C3.75897 4.34224 6.09682 1.69616 9.21216 1.30031ZM3.75 11.2362V17.4862H16.25V11.2362H3.75Z" fill="#D82A15"/>
</svg>
